<?xml version="1.0" encoding="UTF-8"?>
<svg xmlns="http://www.w3.org/2000/svg" xmlns:xlink="http://www.w3.org/1999/xlink" width="16px" height="16px" viewBox="0 0 16 16" version="1.1">
<g id="surface1">
<path style=" stroke:none;fill-rule:nonzero;fill:rgb(100%,100%,100%);fill-opacity:1;" d="M 8 0 C 12.417969 0 16 3.582031 16 8 C 16 12.417969 12.417969 16 8 16 C 3.582031 16 0 12.417969 0 8 C 0 3.582031 3.582031 0 8 0 Z M 8 0 "/>
<path style=" stroke:none;fill-rule:nonzero;fill:rgb(100%,0%,47.843137%);fill-opacity:1;" d="M 7.238281 5.058594 C 7.121094 5.042969 7.109375 5.039062 7.167969 5.035156 C 7.277344 5.019531 7.527344 5.039062 7.707031 5.082031 C 8.117188 5.175781 8.488281 5.429688 8.882812 5.871094 L 8.984375 5.988281 L 9.132812 5.96875 C 9.765625 5.867188 10.417969 5.945312 10.957031 6.195312 C 11.105469 6.265625 11.339844 6.398438 11.367188 6.4375 C 11.378906 6.445312 11.394531 6.523438 11.402344 6.597656 C 11.441406 6.863281 11.425781 7.066406 11.339844 7.21875 C 11.292969 7.304688 11.292969 7.328125 11.324219 7.402344 C 11.34375 7.460938 11.414062 7.496094 11.480469 7.496094 C 11.617188 7.496094 11.757812 7.277344 11.824219 6.980469 L 11.851562 6.863281 L 11.90625 6.921875 C 12.199219 7.246094 12.421875 7.695312 12.460938 8.015625 L 12.472656 8.101562 L 12.417969 8.027344 C 12.332031 7.890625 12.253906 7.808594 12.144531 7.730469 C 11.953125 7.597656 11.746094 7.5625 11.207031 7.535156 C 10.714844 7.507812 10.4375 7.464844 10.160156 7.375 C 9.691406 7.21875 9.453125 7.023438 8.902344 6.285156 C 8.65625 5.960938 8.503906 5.785156 8.347656 5.636719 C 8.011719 5.300781 7.675781 5.128906 7.238281 5.058594 Z M 7.238281 5.058594 "/>
<path style=" stroke:none;fill-rule:nonzero;fill:rgb(100%,0%,47.843137%);fill-opacity:1;" d="M 11.484375 5.78125 C 11.496094 5.5625 11.523438 5.421875 11.585938 5.289062 C 11.605469 5.234375 11.632812 5.195312 11.640625 5.195312 C 11.644531 5.195312 11.632812 5.230469 11.617188 5.277344 C 11.570312 5.40625 11.5625 5.582031 11.597656 5.78125 C 11.632812 6.035156 11.65625 6.074219 11.925781 6.351562 C 12.054688 6.484375 12.199219 6.648438 12.257812 6.714844 L 12.355469 6.839844 L 12.257812 6.75 C 12.140625 6.640625 11.863281 6.421875 11.800781 6.394531 C 11.761719 6.371094 11.75 6.371094 11.722656 6.398438 C 11.703125 6.421875 11.699219 6.457031 11.699219 6.621094 C 11.691406 6.878906 11.660156 7.039062 11.570312 7.203125 C 11.523438 7.289062 11.515625 7.273438 11.558594 7.175781 C 11.585938 7.101562 11.589844 7.070312 11.589844 6.824219 C 11.589844 6.328125 11.53125 6.210938 11.1875 6.007812 C 11.101562 5.957031 10.949219 5.882812 10.867188 5.84375 C 10.773438 5.808594 10.707031 5.769531 10.710938 5.769531 C 10.722656 5.757812 11.058594 5.855469 11.191406 5.914062 C 11.386719 5.992188 11.425781 6 11.445312 5.992188 C 11.46875 5.972656 11.480469 5.925781 11.484375 5.78125 Z M 11.484375 5.78125 "/>
<path style=" stroke:none;fill-rule:nonzero;fill:rgb(100%,0%,47.843137%);fill-opacity:1;" d="M 7.46875 6.632812 C 7.226562 6.304688 7.074219 5.789062 7.109375 5.40625 L 7.121094 5.289062 L 7.179688 5.300781 C 7.28125 5.316406 7.457031 5.386719 7.542969 5.4375 C 7.773438 5.578125 7.875 5.765625 7.96875 6.234375 C 7.996094 6.371094 8.039062 6.53125 8.054688 6.582031 C 8.082031 6.664062 8.195312 6.863281 8.285156 6.992188 C 8.347656 7.082031 8.304688 7.128906 8.167969 7.117188 C 7.949219 7.085938 7.660156 6.890625 7.46875 6.632812 Z M 7.46875 6.632812 "/>
<path style=" stroke:none;fill-rule:nonzero;fill:rgb(100%,0%,47.843137%);fill-opacity:1;" d="M 11.195312 9.113281 C 10.066406 8.65625 9.664062 8.265625 9.664062 7.597656 C 9.664062 7.503906 9.671875 7.421875 9.671875 7.421875 C 9.675781 7.421875 9.71875 7.453125 9.765625 7.496094 C 9.996094 7.679688 10.253906 7.757812 10.96875 7.859375 C 11.382812 7.925781 11.621094 7.96875 11.839844 8.042969 C 12.53125 8.269531 12.960938 8.734375 13.0625 9.371094 C 13.089844 9.550781 13.074219 9.898438 13.03125 10.085938 C 12.992188 10.226562 12.875 10.488281 12.847656 10.496094 C 12.84375 10.496094 12.832031 10.46875 12.832031 10.421875 C 12.824219 10.179688 12.699219 9.949219 12.503906 9.773438 C 12.257812 9.566406 11.949219 9.417969 11.195312 9.113281 Z M 11.195312 9.113281 "/>
<path style=" stroke:none;fill-rule:nonzero;fill:rgb(100%,0%,47.843137%);fill-opacity:1;" d="M 10.394531 9.300781 C 10.386719 9.214844 10.359375 9.109375 10.335938 9.058594 L 10.3125 8.976562 L 10.363281 9.039062 C 10.4375 9.125 10.496094 9.226562 10.546875 9.371094 C 10.582031 9.476562 10.582031 9.511719 10.582031 9.691406 C 10.582031 9.859375 10.578125 9.902344 10.546875 10 C 10.488281 10.152344 10.417969 10.261719 10.304688 10.382812 C 10.101562 10.597656 9.832031 10.707031 9.453125 10.761719 C 9.382812 10.765625 9.191406 10.78125 9.019531 10.792969 C 8.59375 10.816406 8.304688 10.863281 8.050781 10.953125 C 8.019531 10.964844 7.980469 10.976562 7.976562 10.96875 C 7.964844 10.957031 8.140625 10.859375 8.285156 10.789062 C 8.480469 10.691406 8.691406 10.640625 9.136719 10.558594 C 9.363281 10.527344 9.585938 10.480469 9.644531 10.457031 C 10.210938 10.277344 10.488281 9.839844 10.394531 9.300781 Z M 10.394531 9.300781 "/>
<path style=" stroke:none;fill-rule:nonzero;fill:rgb(100%,0%,47.843137%);fill-opacity:1;" d="M 10.914062 10.21875 C 10.765625 9.890625 10.730469 9.582031 10.8125 9.296875 C 10.824219 9.269531 10.832031 9.234375 10.84375 9.234375 C 10.855469 9.234375 10.890625 9.253906 10.925781 9.273438 C 10.992188 9.320312 11.136719 9.402344 11.5 9.597656 C 11.964844 9.847656 12.226562 10.042969 12.40625 10.265625 C 12.566406 10.457031 12.664062 10.679688 12.710938 10.953125 C 12.738281 11.109375 12.722656 11.476562 12.683594 11.632812 C 12.554688 12.117188 12.273438 12.503906 11.859375 12.722656 C 11.792969 12.757812 11.746094 12.78125 11.742188 12.78125 C 11.734375 12.78125 11.757812 12.722656 11.792969 12.65625 C 11.933594 12.363281 11.949219 12.085938 11.847656 11.769531 C 11.78125 11.578125 11.65625 11.34375 11.386719 10.949219 C 11.066406 10.503906 10.992188 10.382812 10.914062 10.21875 Z M 10.914062 10.21875 "/>
<path style=" stroke:none;fill-rule:nonzero;fill:rgb(100%,0%,47.843137%);fill-opacity:1;" d="M 6.667969 11.960938 C 7.089844 11.609375 7.605469 11.359375 8.085938 11.277344 C 8.289062 11.246094 8.636719 11.257812 8.824219 11.304688 C 9.125 11.386719 9.398438 11.554688 9.542969 11.769531 C 9.679688 11.972656 9.742188 12.152344 9.804688 12.542969 C 9.824219 12.699219 9.859375 12.859375 9.863281 12.890625 C 9.910156 13.09375 10 13.253906 10.113281 13.335938 C 10.289062 13.472656 10.597656 13.476562 10.902344 13.359375 C 10.957031 13.34375 11 13.328125 11 13.332031 C 11.007812 13.34375 10.855469 13.445312 10.753906 13.496094 C 10.609375 13.574219 10.496094 13.59375 10.34375 13.59375 C 10.070312 13.59375 9.835938 13.449219 9.648438 13.167969 C 9.613281 13.109375 9.53125 12.941406 9.464844 12.789062 C 9.265625 12.324219 9.160156 12.191406 8.925781 12.035156 C 8.722656 11.902344 8.453125 11.875 8.257812 11.972656 C 7.996094 12.101562 7.925781 12.4375 8.109375 12.640625 C 8.183594 12.722656 8.320312 12.792969 8.433594 12.808594 C 8.648438 12.835938 8.828125 12.671875 8.828125 12.464844 C 8.828125 12.324219 8.773438 12.246094 8.640625 12.1875 C 8.460938 12.105469 8.257812 12.195312 8.261719 12.371094 C 8.261719 12.445312 8.296875 12.488281 8.371094 12.527344 C 8.417969 12.546875 8.417969 12.546875 8.378906 12.542969 C 8.214844 12.511719 8.175781 12.304688 8.304688 12.175781 C 8.464844 12.015625 8.800781 12.085938 8.914062 12.308594 C 8.960938 12.398438 8.96875 12.582031 8.925781 12.699219 C 8.828125 12.949219 8.554688 13.082031 8.273438 13.007812 C 8.085938 12.953125 8.007812 12.90625 7.777344 12.671875 C 7.378906 12.261719 7.222656 12.179688 6.652344 12.09375 L 6.546875 12.078125 Z M 6.667969 11.960938 "/>
<path style=" stroke:none;fill-rule:evenodd;fill:rgb(100%,0%,47.843137%);fill-opacity:1;" d="M 3.664062 2.789062 C 4.992188 4.402344 7.042969 6.910156 7.144531 7.050781 C 7.226562 7.160156 7.195312 7.273438 7.050781 7.355469 C 6.972656 7.402344 6.808594 7.445312 6.726562 7.445312 C 6.636719 7.445312 6.53125 7.394531 6.453125 7.328125 C 6.402344 7.273438 6.183594 6.949219 5.679688 6.167969 C 5.296875 5.574219 4.972656 5.078125 4.96875 5.070312 C 4.945312 5.058594 4.945312 5.058594 5.640625 6.304688 C 6.078125 7.082031 6.21875 7.363281 6.21875 7.394531 C 6.21875 7.472656 6.199219 7.507812 6.109375 7.613281 C 5.953125 7.785156 5.882812 7.976562 5.835938 8.382812 C 5.777344 8.832031 5.621094 9.152344 5.1875 9.695312 C 4.929688 10.015625 4.886719 10.074219 4.828125 10.203125 C 4.75 10.363281 4.726562 10.453125 4.714844 10.660156 C 4.707031 10.878906 4.726562 11.011719 4.789062 11.21875 C 4.847656 11.402344 4.910156 11.523438 5.0625 11.757812 C 5.195312 11.960938 5.277344 12.117188 5.277344 12.175781 C 5.277344 12.222656 5.285156 12.222656 5.496094 12.175781 C 5.984375 12.0625 6.390625 11.867188 6.613281 11.625 C 6.753906 11.476562 6.785156 11.394531 6.785156 11.195312 C 6.785156 11.058594 6.78125 11.035156 6.75 10.953125 C 6.691406 10.824219 6.582031 10.722656 6.347656 10.5625 C 6.039062 10.351562 5.910156 10.179688 5.875 9.957031 C 5.847656 9.765625 5.878906 9.632812 6.050781 9.273438 C 6.226562 8.90625 6.273438 8.75 6.300781 8.371094 C 6.316406 8.132812 6.347656 8.035156 6.414062 7.960938 C 6.488281 7.882812 6.550781 7.855469 6.726562 7.828125 C 7.019531 7.789062 7.207031 7.714844 7.355469 7.574219 C 7.488281 7.453125 7.542969 7.332031 7.546875 7.15625 L 7.554688 7.023438 L 7.480469 6.941406 C 7.210938 6.632812 3.5 2.554688 3.484375 2.554688 C 3.46875 2.542969 3.558594 2.648438 3.664062 2.789062 Z M 5.421875 10.898438 C 5.484375 10.792969 5.445312 10.65625 5.34375 10.585938 C 5.25 10.523438 5.101562 10.554688 5.101562 10.640625 C 5.101562 10.660156 5.109375 10.6875 5.148438 10.699219 C 5.203125 10.722656 5.207031 10.757812 5.164062 10.816406 C 5.125 10.878906 5.125 10.933594 5.175781 10.976562 C 5.253906 11.035156 5.363281 11 5.421875 10.898438 Z M 5.421875 10.898438 "/>
<path style=" stroke:none;fill-rule:evenodd;fill:rgb(100%,0%,47.843137%);fill-opacity:1;" d="M 7.730469 7.898438 C 7.589844 7.933594 7.464844 8.085938 7.421875 8.234375 C 7.398438 8.324219 7.410156 8.488281 7.445312 8.542969 C 7.511719 8.621094 7.5625 8.644531 7.722656 8.644531 C 8.039062 8.644531 8.304688 8.503906 8.332031 8.339844 C 8.359375 8.203125 8.242188 8.015625 8.078125 7.929688 C 7.996094 7.886719 7.820312 7.871094 7.730469 7.898438 Z M 8.09375 8.1875 C 8.140625 8.117188 8.117188 8.042969 8.035156 7.992188 C 7.878906 7.898438 7.644531 7.976562 7.644531 8.125 C 7.644531 8.203125 7.761719 8.28125 7.878906 8.28125 C 7.953125 8.277344 8.058594 8.226562 8.09375 8.1875 Z M 8.09375 8.1875 "/>
</g>
</svg>
