<?xml version="1.0" encoding="UTF-8"?>
<svg xmlns="http://www.w3.org/2000/svg" xmlns:xlink="http://www.w3.org/1999/xlink" width="24px" height="24px" viewBox="0 0 24 24" version="1.1">
<g id="surface1">
<path style=" stroke:none;fill-rule:nonzero;fill:rgb(100%,100%,100%);fill-opacity:1;" d="M 12 0 C 18.625 0 24 5.375 24 12 C 24 18.625 18.625 24 12 24 C 5.375 24 0 18.625 0 12 C 0 5.375 5.375 0 12 0 Z M 12 0 "/>
<path style=" stroke:none;fill-rule:nonzero;fill:rgb(100%,0%,47.843137%);fill-opacity:1;" d="M 10.859375 7.589844 C 10.683594 7.566406 10.667969 7.558594 10.753906 7.550781 C 10.914062 7.527344 11.289062 7.558594 11.5625 7.621094 C 12.179688 7.765625 12.730469 8.140625 13.324219 8.804688 L 13.472656 8.980469 L 13.699219 8.949219 C 14.652344 8.796875 15.625 8.917969 16.433594 9.292969 C 16.660156 9.398438 17.011719 9.597656 17.050781 9.65625 C 17.066406 9.671875 17.089844 9.78125 17.105469 9.894531 C 17.164062 10.292969 17.136719 10.597656 17.011719 10.832031 C 16.9375 10.957031 16.9375 10.992188 16.988281 11.101562 C 17.019531 11.191406 17.121094 11.246094 17.21875 11.246094 C 17.425781 11.246094 17.632812 10.917969 17.738281 10.46875 L 17.777344 10.292969 L 17.859375 10.382812 C 18.296875 10.871094 18.632812 11.542969 18.691406 12.023438 L 18.707031 12.152344 L 18.625 12.039062 C 18.5 11.839844 18.378906 11.710938 18.21875 11.597656 C 17.929688 11.398438 17.617188 11.34375 16.808594 11.300781 C 16.074219 11.261719 15.660156 11.199219 15.242188 11.0625 C 14.539062 10.832031 14.179688 10.535156 13.355469 9.429688 C 12.988281 8.941406 12.753906 8.679688 12.523438 8.453125 C 12.019531 7.949219 11.515625 7.695312 10.859375 7.589844 Z M 10.859375 7.589844 "/>
<path style=" stroke:none;fill-rule:nonzero;fill:rgb(100%,0%,47.843137%);fill-opacity:1;" d="M 17.226562 8.671875 C 17.242188 8.34375 17.28125 8.132812 17.378906 7.933594 C 17.410156 7.855469 17.449219 7.789062 17.457031 7.789062 C 17.464844 7.789062 17.449219 7.847656 17.425781 7.917969 C 17.355469 8.109375 17.347656 8.375 17.394531 8.671875 C 17.449219 9.054688 17.480469 9.109375 17.890625 9.527344 C 18.082031 9.726562 18.296875 9.972656 18.386719 10.070312 L 18.53125 10.261719 L 18.386719 10.125 C 18.210938 9.957031 17.792969 9.628906 17.699219 9.589844 C 17.640625 9.558594 17.625 9.558594 17.585938 9.597656 C 17.554688 9.628906 17.546875 9.6875 17.546875 9.933594 C 17.539062 10.320312 17.492188 10.558594 17.355469 10.804688 C 17.28125 10.933594 17.273438 10.910156 17.339844 10.765625 C 17.378906 10.65625 17.386719 10.605469 17.386719 10.238281 C 17.386719 9.496094 17.296875 9.320312 16.777344 9.015625 C 16.652344 8.933594 16.425781 8.824219 16.296875 8.765625 C 16.164062 8.710938 16.058594 8.65625 16.066406 8.65625 C 16.082031 8.636719 16.585938 8.78125 16.785156 8.871094 C 17.082031 8.992188 17.136719 9 17.171875 8.992188 C 17.203125 8.957031 17.21875 8.886719 17.226562 8.671875 Z M 17.226562 8.671875 "/>
<path style=" stroke:none;fill-rule:nonzero;fill:rgb(100%,0%,47.843137%);fill-opacity:1;" d="M 11.203125 9.949219 C 10.84375 9.453125 10.609375 8.6875 10.667969 8.109375 L 10.683594 7.933594 L 10.769531 7.949219 C 10.921875 7.972656 11.1875 8.078125 11.3125 8.160156 C 11.660156 8.367188 11.808594 8.644531 11.953125 9.351562 C 11.996094 9.558594 12.058594 9.796875 12.082031 9.871094 C 12.121094 10 12.289062 10.292969 12.425781 10.488281 C 12.523438 10.621094 12.457031 10.695312 12.25 10.679688 C 11.921875 10.628906 11.492188 10.335938 11.203125 9.949219 Z M 11.203125 9.949219 "/>
<path style=" stroke:none;fill-rule:nonzero;fill:rgb(100%,0%,47.843137%);fill-opacity:1;" d="M 16.792969 13.671875 C 15.097656 12.980469 14.5 12.398438 14.5 11.398438 C 14.5 11.253906 14.507812 11.132812 14.507812 11.132812 C 14.515625 11.132812 14.578125 11.183594 14.652344 11.246094 C 14.996094 11.519531 15.378906 11.636719 16.449219 11.789062 C 17.074219 11.886719 17.433594 11.949219 17.761719 12.0625 C 18.792969 12.40625 19.441406 13.101562 19.59375 14.054688 C 19.632812 14.328125 19.609375 14.847656 19.546875 15.125 C 19.492188 15.34375 19.3125 15.734375 19.273438 15.742188 C 19.265625 15.742188 19.25 15.703125 19.25 15.628906 C 19.234375 15.269531 19.050781 14.925781 18.753906 14.664062 C 18.386719 14.351562 17.921875 14.125 16.792969 13.671875 Z M 16.792969 13.671875 "/>
<path style=" stroke:none;fill-rule:nonzero;fill:rgb(100%,0%,47.843137%);fill-opacity:1;" d="M 15.59375 13.949219 C 15.578125 13.824219 15.539062 13.664062 15.507812 13.589844 L 15.464844 13.460938 L 15.546875 13.558594 C 15.660156 13.6875 15.746094 13.839844 15.820312 14.054688 C 15.875 14.214844 15.875 14.269531 15.875 14.535156 C 15.875 14.789062 15.867188 14.855469 15.820312 15 C 15.730469 15.230469 15.625 15.390625 15.457031 15.574219 C 15.15625 15.894531 14.746094 16.0625 14.179688 16.140625 C 14.074219 16.152344 13.785156 16.175781 13.53125 16.191406 C 12.890625 16.222656 12.457031 16.292969 12.074219 16.429688 C 12.027344 16.445312 11.96875 16.460938 11.960938 16.453125 C 11.945312 16.4375 12.210938 16.285156 12.425781 16.183594 C 12.722656 16.039062 13.035156 15.957031 13.707031 15.839844 C 14.042969 15.789062 14.378906 15.71875 14.464844 15.6875 C 15.3125 15.414062 15.730469 14.757812 15.59375 13.949219 Z M 15.59375 13.949219 "/>
<path style=" stroke:none;fill-rule:nonzero;fill:rgb(100%,0%,47.843137%);fill-opacity:1;" d="M 16.371094 15.328125 C 16.144531 14.839844 16.097656 14.375 16.21875 13.941406 C 16.234375 13.902344 16.25 13.855469 16.265625 13.855469 C 16.28125 13.855469 16.339844 13.878906 16.386719 13.910156 C 16.492188 13.980469 16.707031 14.101562 17.25 14.398438 C 17.945312 14.773438 18.339844 15.0625 18.609375 15.398438 C 18.851562 15.6875 18.996094 16.023438 19.066406 16.429688 C 19.105469 16.664062 19.082031 17.214844 19.027344 17.445312 C 18.835938 18.175781 18.410156 18.757812 17.785156 19.085938 C 17.691406 19.132812 17.617188 19.175781 17.609375 19.175781 C 17.601562 19.175781 17.632812 19.085938 17.691406 18.980469 C 17.898438 18.542969 17.921875 18.125 17.769531 17.65625 C 17.675781 17.367188 17.480469 17.015625 17.082031 16.421875 C 16.601562 15.757812 16.492188 15.574219 16.371094 15.328125 Z M 16.371094 15.328125 "/>
<path style=" stroke:none;fill-rule:nonzero;fill:rgb(100%,0%,47.843137%);fill-opacity:1;" d="M 10.003906 17.941406 C 10.632812 17.414062 11.410156 17.039062 12.128906 16.917969 C 12.433594 16.871094 12.953125 16.886719 13.234375 16.957031 C 13.691406 17.078125 14.097656 17.335938 14.3125 17.65625 C 14.523438 17.957031 14.609375 18.230469 14.707031 18.8125 C 14.738281 19.046875 14.785156 19.285156 14.792969 19.335938 C 14.867188 19.636719 15.003906 19.878906 15.171875 20.007812 C 15.433594 20.207031 15.898438 20.214844 16.355469 20.039062 C 16.433594 20.015625 16.5 19.992188 16.5 20 C 16.515625 20.015625 16.28125 20.167969 16.128906 20.246094 C 15.914062 20.359375 15.746094 20.390625 15.515625 20.390625 C 15.105469 20.390625 14.753906 20.175781 14.472656 19.75 C 14.417969 19.664062 14.296875 19.414062 14.195312 19.183594 C 13.898438 18.488281 13.738281 18.285156 13.386719 18.054688 C 13.082031 17.855469 12.683594 17.8125 12.386719 17.957031 C 11.996094 18.152344 11.890625 18.65625 12.164062 18.957031 C 12.273438 19.085938 12.480469 19.191406 12.652344 19.214844 C 12.96875 19.253906 13.242188 19.007812 13.242188 18.695312 C 13.242188 18.488281 13.164062 18.367188 12.960938 18.277344 C 12.691406 18.160156 12.386719 18.292969 12.394531 18.558594 C 12.394531 18.671875 12.441406 18.734375 12.554688 18.789062 C 12.625 18.824219 12.625 18.824219 12.570312 18.8125 C 12.324219 18.765625 12.265625 18.453125 12.457031 18.261719 C 12.699219 18.023438 13.203125 18.125 13.371094 18.460938 C 13.441406 18.597656 13.449219 18.871094 13.386719 19.046875 C 13.242188 19.421875 12.835938 19.621094 12.410156 19.511719 C 12.128906 19.429688 12.011719 19.359375 11.667969 19.007812 C 11.066406 18.390625 10.835938 18.269531 9.976562 18.140625 L 9.820312 18.117188 Z M 10.003906 17.941406 "/>
<path style=" stroke:none;fill-rule:evenodd;fill:rgb(100%,0%,47.843137%);fill-opacity:1;" d="M 5.5 4.183594 C 7.492188 6.605469 10.5625 10.367188 10.714844 10.574219 C 10.84375 10.742188 10.792969 10.910156 10.578125 11.03125 C 10.457031 11.101562 10.210938 11.167969 10.089844 11.167969 C 9.953125 11.167969 9.792969 11.09375 9.683594 10.992188 C 9.601562 10.910156 9.273438 10.421875 8.523438 9.253906 C 7.945312 8.359375 7.457031 7.613281 7.449219 7.605469 C 7.417969 7.589844 7.417969 7.589844 8.457031 9.453125 C 9.113281 10.621094 9.332031 11.046875 9.332031 11.09375 C 9.332031 11.207031 9.296875 11.261719 9.164062 11.421875 C 8.929688 11.679688 8.828125 11.964844 8.753906 12.574219 C 8.667969 13.246094 8.433594 13.726562 7.777344 14.542969 C 7.394531 15.023438 7.332031 15.109375 7.242188 15.300781 C 7.121094 15.542969 7.089844 15.679688 7.074219 15.992188 C 7.058594 16.320312 7.089844 16.519531 7.1875 16.832031 C 7.273438 17.101562 7.363281 17.285156 7.59375 17.636719 C 7.792969 17.941406 7.914062 18.175781 7.914062 18.261719 C 7.914062 18.335938 7.929688 18.335938 8.242188 18.261719 C 8.976562 18.09375 9.585938 17.796875 9.921875 17.4375 C 10.128906 17.214844 10.179688 17.09375 10.179688 16.789062 C 10.179688 16.589844 10.171875 16.550781 10.121094 16.429688 C 10.035156 16.238281 9.875 16.085938 9.523438 15.847656 C 9.058594 15.527344 8.867188 15.269531 8.808594 14.933594 C 8.769531 14.644531 8.820312 14.445312 9.074219 13.910156 C 9.339844 13.359375 9.410156 13.125 9.449219 12.558594 C 9.472656 12.199219 9.523438 12.054688 9.617188 11.941406 C 9.730469 11.824219 9.828125 11.78125 10.089844 11.742188 C 10.53125 11.6875 10.808594 11.574219 11.035156 11.359375 C 11.234375 11.183594 11.3125 11 11.324219 10.734375 L 11.332031 10.535156 L 11.21875 10.414062 C 10.820312 9.949219 5.25 3.832031 5.226562 3.832031 C 5.203125 3.8125 5.339844 3.972656 5.5 4.183594 Z M 8.128906 16.351562 C 8.226562 16.191406 8.171875 15.980469 8.019531 15.878906 C 7.875 15.78125 7.652344 15.832031 7.652344 15.957031 C 7.652344 15.992188 7.667969 16.03125 7.722656 16.046875 C 7.800781 16.085938 7.808594 16.132812 7.746094 16.222656 C 7.691406 16.320312 7.691406 16.398438 7.761719 16.460938 C 7.882812 16.550781 8.042969 16.503906 8.128906 16.351562 Z M 8.128906 16.351562 "/>
<path style=" stroke:none;fill-rule:evenodd;fill:rgb(100%,0%,47.843137%);fill-opacity:1;" d="M 11.59375 11.847656 C 11.386719 11.902344 11.195312 12.125 11.128906 12.351562 C 11.097656 12.488281 11.113281 12.734375 11.171875 12.8125 C 11.265625 12.933594 11.347656 12.964844 11.585938 12.964844 C 12.058594 12.964844 12.457031 12.757812 12.5 12.511719 C 12.539062 12.300781 12.363281 12.023438 12.113281 11.894531 C 11.996094 11.832031 11.730469 11.804688 11.59375 11.847656 Z M 12.136719 12.277344 C 12.210938 12.175781 12.179688 12.0625 12.050781 11.992188 C 11.820312 11.847656 11.464844 11.964844 11.464844 12.191406 C 11.464844 12.300781 11.640625 12.421875 11.820312 12.421875 C 11.929688 12.414062 12.089844 12.34375 12.136719 12.277344 Z M 12.136719 12.277344 "/>
</g>
</svg>
