<?xml version="1.0" encoding="UTF-8"?>
<svg xmlns="http://www.w3.org/2000/svg" xmlns:xlink="http://www.w3.org/1999/xlink" width="32px" height="32px" viewBox="0 0 32 32" version="1.1">
<g id="surface1">
<path style=" stroke:none;fill-rule:nonzero;fill:rgb(100%,100%,100%);fill-opacity:1;" d="M 16 0 C 24.835938 0 32 7.164062 32 16 C 32 24.835938 24.835938 32 16 32 C 7.164062 32 0 24.835938 0 16 C 0 7.164062 7.164062 0 16 0 Z M 16 0 "/>
<path style=" stroke:none;fill-rule:nonzero;fill:rgb(100%,0%,47.843137%);fill-opacity:1;" d="M 14.476562 10.121094 C 14.242188 10.089844 14.222656 10.078125 14.339844 10.066406 C 14.550781 10.035156 15.054688 10.078125 15.417969 10.164062 C 16.238281 10.355469 16.972656 10.855469 17.761719 11.742188 L 17.964844 11.976562 L 18.265625 11.933594 C 19.535156 11.730469 20.835938 11.890625 21.914062 12.390625 C 22.210938 12.53125 22.679688 12.796875 22.734375 12.871094 C 22.753906 12.894531 22.789062 13.042969 22.808594 13.191406 C 22.882812 13.726562 22.851562 14.132812 22.679688 14.441406 C 22.585938 14.609375 22.585938 14.652344 22.648438 14.804688 C 22.691406 14.921875 22.828125 14.996094 22.957031 14.996094 C 23.234375 14.996094 23.511719 14.558594 23.652344 13.960938 L 23.703125 13.726562 L 23.8125 13.84375 C 24.398438 14.492188 24.847656 15.390625 24.921875 16.03125 L 24.941406 16.199219 L 24.835938 16.050781 C 24.664062 15.785156 24.503906 15.613281 24.292969 15.464844 C 23.90625 15.199219 23.492188 15.125 22.414062 15.070312 C 21.433594 15.015625 20.878906 14.929688 20.324219 14.75 C 19.382812 14.441406 18.90625 14.046875 17.804688 12.574219 C 17.316406 11.921875 17.007812 11.570312 16.695312 11.273438 C 16.023438 10.601562 15.351562 10.257812 14.476562 10.121094 Z M 14.476562 10.121094 "/>
<path style=" stroke:none;fill-rule:nonzero;fill:rgb(100%,0%,47.843137%);fill-opacity:1;" d="M 22.96875 11.558594 C 22.988281 11.125 23.042969 10.847656 23.171875 10.578125 C 23.214844 10.472656 23.265625 10.386719 23.277344 10.386719 C 23.289062 10.386719 23.265625 10.460938 23.234375 10.558594 C 23.140625 10.8125 23.128906 11.164062 23.191406 11.558594 C 23.265625 12.074219 23.308594 12.148438 23.855469 12.703125 C 24.109375 12.96875 24.398438 13.300781 24.515625 13.425781 L 24.707031 13.683594 L 24.515625 13.5 C 24.28125 13.277344 23.726562 12.839844 23.597656 12.789062 C 23.523438 12.746094 23.5 12.746094 23.449219 12.796875 C 23.40625 12.839844 23.394531 12.914062 23.394531 13.246094 C 23.382812 13.757812 23.320312 14.078125 23.140625 14.410156 C 23.042969 14.578125 23.03125 14.546875 23.117188 14.355469 C 23.171875 14.207031 23.183594 14.140625 23.183594 13.652344 C 23.183594 12.660156 23.066406 12.425781 22.371094 12.019531 C 22.199219 11.914062 21.902344 11.761719 21.730469 11.6875 C 21.550781 11.613281 21.410156 11.539062 21.421875 11.539062 C 21.441406 11.519531 22.113281 11.710938 22.382812 11.828125 C 22.777344 11.988281 22.851562 11.996094 22.894531 11.988281 C 22.9375 11.945312 22.957031 11.847656 22.96875 11.558594 Z M 22.96875 11.558594 "/>
<path style=" stroke:none;fill-rule:nonzero;fill:rgb(100%,0%,47.843137%);fill-opacity:1;" d="M 14.9375 13.265625 C 14.457031 12.605469 14.148438 11.582031 14.222656 10.8125 L 14.242188 10.578125 L 14.359375 10.601562 C 14.5625 10.632812 14.914062 10.769531 15.085938 10.878906 C 15.542969 11.15625 15.746094 11.527344 15.9375 12.46875 C 15.992188 12.746094 16.078125 13.066406 16.109375 13.160156 C 16.164062 13.332031 16.386719 13.726562 16.570312 13.980469 C 16.695312 14.164062 16.609375 14.257812 16.332031 14.238281 C 15.898438 14.175781 15.320312 13.777344 14.9375 13.265625 Z M 14.9375 13.265625 "/>
<path style=" stroke:none;fill-rule:nonzero;fill:rgb(100%,0%,47.843137%);fill-opacity:1;" d="M 22.390625 18.226562 C 20.132812 17.308594 19.332031 16.53125 19.332031 15.199219 C 19.332031 15.007812 19.34375 14.847656 19.34375 14.847656 C 19.351562 14.847656 19.4375 14.910156 19.535156 14.996094 C 19.992188 15.359375 20.503906 15.519531 21.933594 15.71875 C 22.765625 15.847656 23.246094 15.933594 23.683594 16.082031 C 25.058594 16.542969 25.921875 17.46875 26.125 18.738281 C 26.179688 19.101562 26.148438 19.796875 26.0625 20.167969 C 25.988281 20.457031 25.753906 20.980469 25.699219 20.988281 C 25.6875 20.988281 25.667969 20.9375 25.667969 20.839844 C 25.644531 20.359375 25.402344 19.902344 25.007812 19.550781 C 24.515625 19.132812 23.898438 18.835938 22.390625 18.226562 Z M 22.390625 18.226562 "/>
<path style=" stroke:none;fill-rule:nonzero;fill:rgb(100%,0%,47.843137%);fill-opacity:1;" d="M 20.792969 18.601562 C 20.769531 18.429688 20.71875 18.214844 20.675781 18.121094 L 20.621094 17.949219 L 20.730469 18.078125 C 20.878906 18.25 20.996094 18.453125 21.089844 18.738281 C 21.164062 18.953125 21.164062 19.027344 21.164062 19.378906 C 21.164062 19.71875 21.15625 19.804688 21.089844 19.996094 C 20.972656 20.308594 20.835938 20.519531 20.609375 20.765625 C 20.207031 21.191406 19.660156 21.417969 18.90625 21.523438 C 18.765625 21.535156 18.382812 21.566406 18.039062 21.585938 C 17.1875 21.628906 16.609375 21.726562 16.097656 21.90625 C 16.035156 21.929688 15.960938 21.949219 15.949219 21.9375 C 15.929688 21.917969 16.28125 21.714844 16.570312 21.578125 C 16.964844 21.382812 17.378906 21.277344 18.273438 21.117188 C 18.722656 21.054688 19.171875 20.957031 19.289062 20.914062 C 20.417969 20.550781 20.972656 19.679688 20.792969 18.601562 Z M 20.792969 18.601562 "/>
<path style=" stroke:none;fill-rule:nonzero;fill:rgb(100%,0%,47.843137%);fill-opacity:1;" d="M 21.828125 20.433594 C 21.527344 19.785156 21.464844 19.164062 21.625 18.589844 C 21.644531 18.535156 21.667969 18.472656 21.6875 18.472656 C 21.710938 18.472656 21.785156 18.503906 21.847656 18.546875 C 21.988281 18.644531 22.273438 18.804688 23 19.199219 C 23.929688 19.699219 24.453125 20.082031 24.8125 20.53125 C 25.132812 20.914062 25.324219 21.363281 25.421875 21.90625 C 25.476562 22.214844 25.441406 22.953125 25.367188 23.261719 C 25.113281 24.234375 24.546875 25.011719 23.714844 25.449219 C 23.585938 25.511719 23.492188 25.566406 23.480469 25.566406 C 23.46875 25.566406 23.511719 25.449219 23.585938 25.308594 C 23.863281 24.722656 23.898438 24.167969 23.695312 23.539062 C 23.566406 23.15625 23.308594 22.6875 22.777344 21.898438 C 22.136719 21.011719 21.988281 20.765625 21.828125 20.433594 Z M 21.828125 20.433594 "/>
<path style=" stroke:none;fill-rule:nonzero;fill:rgb(100%,0%,47.843137%);fill-opacity:1;" d="M 13.335938 23.921875 C 14.179688 23.21875 15.214844 22.71875 16.175781 22.558594 C 16.578125 22.492188 17.273438 22.515625 17.644531 22.609375 C 18.253906 22.769531 18.796875 23.113281 19.085938 23.539062 C 19.363281 23.945312 19.480469 24.308594 19.609375 25.085938 C 19.652344 25.394531 19.714844 25.714844 19.726562 25.777344 C 19.820312 26.183594 20.003906 26.503906 20.226562 26.675781 C 20.578125 26.941406 21.199219 26.953125 21.804688 26.71875 C 21.914062 26.6875 21.996094 26.652344 21.996094 26.664062 C 22.019531 26.6875 21.710938 26.886719 21.507812 26.996094 C 21.21875 27.144531 20.996094 27.1875 20.6875 27.1875 C 20.140625 27.1875 19.671875 26.898438 19.300781 26.332031 C 19.222656 26.214844 19.066406 25.886719 18.925781 25.578125 C 18.53125 24.648438 18.316406 24.382812 17.847656 24.074219 C 17.441406 23.804688 16.910156 23.753906 16.515625 23.945312 C 15.992188 24.199219 15.855469 24.871094 16.214844 25.277344 C 16.367188 25.449219 16.644531 25.585938 16.867188 25.621094 C 17.292969 25.671875 17.65625 25.34375 17.65625 24.925781 C 17.65625 24.648438 17.550781 24.488281 17.28125 24.371094 C 16.921875 24.210938 16.515625 24.390625 16.527344 24.746094 C 16.527344 24.894531 16.589844 24.980469 16.738281 25.054688 C 16.835938 25.097656 16.835938 25.097656 16.761719 25.085938 C 16.429688 25.023438 16.355469 24.605469 16.609375 24.351562 C 16.929688 24.03125 17.601562 24.167969 17.828125 24.617188 C 17.921875 24.796875 17.933594 25.160156 17.847656 25.394531 C 17.65625 25.898438 17.113281 26.164062 16.546875 26.015625 C 16.175781 25.90625 16.015625 25.8125 15.554688 25.34375 C 14.753906 24.519531 14.445312 24.359375 13.304688 24.191406 L 13.089844 24.15625 Z M 13.335938 23.921875 "/>
<path style=" stroke:none;fill-rule:evenodd;fill:rgb(100%,0%,47.843137%);fill-opacity:1;" d="M 7.332031 5.578125 C 9.988281 8.808594 14.082031 13.820312 14.285156 14.097656 C 14.457031 14.324219 14.390625 14.546875 14.105469 14.707031 C 13.945312 14.804688 13.613281 14.886719 13.453125 14.886719 C 13.273438 14.886719 13.058594 14.792969 12.910156 14.652344 C 12.804688 14.546875 12.367188 13.898438 11.363281 12.339844 C 10.59375 11.144531 9.945312 10.152344 9.933594 10.140625 C 9.890625 10.121094 9.890625 10.121094 11.277344 12.605469 C 12.152344 14.164062 12.441406 14.730469 12.441406 14.792969 C 12.441406 14.941406 12.398438 15.015625 12.214844 15.230469 C 11.90625 15.570312 11.769531 15.957031 11.671875 16.765625 C 11.554688 17.660156 11.246094 18.300781 10.371094 19.390625 C 9.859375 20.03125 9.773438 20.148438 9.65625 20.402344 C 9.496094 20.722656 9.453125 20.90625 9.433594 21.320312 C 9.410156 21.757812 9.453125 22.023438 9.582031 22.441406 C 9.699219 22.804688 9.816406 23.046875 10.125 23.519531 C 10.390625 23.921875 10.550781 24.234375 10.550781 24.351562 C 10.550781 24.445312 10.574219 24.445312 10.988281 24.351562 C 11.972656 24.125 12.78125 23.730469 13.230469 23.25 C 13.507812 22.953125 13.570312 22.792969 13.570312 22.386719 C 13.570312 22.121094 13.558594 22.066406 13.496094 21.90625 C 13.378906 21.652344 13.164062 21.449219 12.695312 21.128906 C 12.078125 20.703125 11.820312 20.359375 11.746094 19.914062 C 11.695312 19.527344 11.757812 19.261719 12.097656 18.546875 C 12.453125 17.8125 12.546875 17.5 12.601562 16.746094 C 12.632812 16.265625 12.695312 16.074219 12.824219 15.921875 C 12.972656 15.761719 13.101562 15.710938 13.453125 15.65625 C 14.039062 15.582031 14.414062 15.433594 14.710938 15.144531 C 14.980469 14.910156 15.085938 14.664062 15.097656 14.3125 L 15.105469 14.046875 L 14.957031 13.886719 C 14.425781 13.265625 7 5.105469 6.96875 5.105469 C 6.9375 5.085938 7.117188 5.300781 7.332031 5.578125 Z M 10.839844 21.800781 C 10.96875 21.585938 10.894531 21.308594 10.691406 21.171875 C 10.5 21.042969 10.199219 21.105469 10.199219 21.277344 C 10.199219 21.320312 10.222656 21.375 10.296875 21.394531 C 10.402344 21.449219 10.414062 21.511719 10.328125 21.628906 C 10.253906 21.757812 10.253906 21.863281 10.351562 21.949219 C 10.511719 22.066406 10.722656 22.003906 10.839844 21.800781 Z M 10.839844 21.800781 "/>
<path style=" stroke:none;fill-rule:evenodd;fill:rgb(100%,0%,47.843137%);fill-opacity:1;" d="M 15.460938 15.796875 C 15.183594 15.871094 14.925781 16.167969 14.839844 16.46875 C 14.796875 16.648438 14.820312 16.980469 14.894531 17.085938 C 15.023438 17.246094 15.128906 17.289062 15.449219 17.289062 C 16.078125 17.289062 16.609375 17.011719 16.664062 16.679688 C 16.71875 16.402344 16.484375 16.03125 16.152344 15.859375 C 15.992188 15.773438 15.640625 15.742188 15.460938 15.796875 Z M 16.183594 16.371094 C 16.28125 16.234375 16.238281 16.082031 16.066406 15.988281 C 15.757812 15.796875 15.289062 15.957031 15.289062 16.253906 C 15.289062 16.402344 15.523438 16.5625 15.757812 16.5625 C 15.90625 16.550781 16.121094 16.457031 16.183594 16.371094 Z M 16.183594 16.371094 "/>
</g>
</svg>
