<?xml version="1.0" encoding="UTF-8"?>
<svg xmlns="http://www.w3.org/2000/svg" xmlns:xlink="http://www.w3.org/1999/xlink" width="40px" height="40px" viewBox="0 0 40 40" version="1.1">
<g id="surface1">
<path style=" stroke:none;fill-rule:nonzero;fill:rgb(100%,100%,100%);fill-opacity:1;" d="M 20 0 C 31.042969 0 40 8.957031 40 20 C 40 31.042969 31.042969 40 20 40 C 8.957031 40 0 31.042969 0 20 C 0 8.957031 8.957031 0 20 0 Z M 20 0 "/>
<path style=" stroke:none;fill-rule:nonzero;fill:rgb(100%,0%,47.843137%);fill-opacity:1;" d="M 18.097656 12.652344 C 17.804688 12.609375 17.777344 12.597656 17.925781 12.585938 C 18.191406 12.542969 18.816406 12.597656 19.269531 12.703125 C 20.296875 12.945312 21.21875 13.570312 22.203125 14.675781 L 22.457031 14.96875 L 22.832031 14.917969 C 24.417969 14.664062 26.042969 14.863281 27.390625 15.492188 C 27.765625 15.664062 28.351562 15.996094 28.417969 16.089844 C 28.445312 16.117188 28.484375 16.304688 28.511719 16.492188 C 28.605469 17.15625 28.5625 17.664062 28.351562 18.050781 C 28.230469 18.265625 28.230469 18.316406 28.3125 18.503906 C 28.363281 18.652344 28.539062 18.742188 28.699219 18.742188 C 29.042969 18.742188 29.390625 18.199219 29.5625 17.449219 L 29.628906 17.15625 L 29.765625 17.304688 C 30.496094 18.117188 31.058594 19.238281 31.152344 20.039062 L 31.175781 20.25 L 31.042969 20.0625 C 30.832031 19.730469 30.628906 19.515625 30.363281 19.332031 C 29.882812 18.996094 29.363281 18.902344 28.015625 18.835938 C 26.789062 18.769531 26.097656 18.664062 25.402344 18.4375 C 24.230469 18.050781 23.628906 17.558594 22.257812 15.71875 C 21.644531 14.902344 21.257812 14.464844 20.871094 14.089844 C 20.03125 13.25 19.191406 12.824219 18.097656 12.652344 Z M 18.097656 12.652344 "/>
<path style=" stroke:none;fill-rule:nonzero;fill:rgb(100%,0%,47.843137%);fill-opacity:1;" d="M 28.710938 14.449219 C 28.738281 13.902344 28.804688 13.558594 28.964844 13.222656 C 29.015625 13.089844 29.085938 12.984375 29.097656 12.984375 C 29.109375 12.984375 29.085938 13.078125 29.042969 13.199219 C 28.925781 13.515625 28.910156 13.957031 28.992188 14.449219 C 29.085938 15.089844 29.136719 15.183594 29.816406 15.878906 C 30.136719 16.210938 30.496094 16.625 30.644531 16.785156 L 30.882812 17.105469 L 30.644531 16.878906 C 30.351562 16.597656 29.65625 16.050781 29.496094 15.984375 C 29.402344 15.929688 29.378906 15.929688 29.3125 15.996094 C 29.257812 16.050781 29.242188 16.144531 29.242188 16.558594 C 29.230469 17.199219 29.152344 17.597656 28.925781 18.011719 C 28.804688 18.222656 28.789062 18.183594 28.898438 17.945312 C 28.964844 17.757812 28.976562 17.675781 28.976562 17.0625 C 28.976562 15.824219 28.832031 15.53125 27.964844 15.023438 C 27.75 14.890625 27.378906 14.703125 27.164062 14.609375 C 26.9375 14.515625 26.765625 14.425781 26.777344 14.425781 C 26.804688 14.398438 27.644531 14.636719 27.976562 14.785156 C 28.46875 14.984375 28.5625 14.996094 28.617188 14.984375 C 28.671875 14.929688 28.699219 14.8125 28.710938 14.449219 Z M 28.710938 14.449219 "/>
<path style=" stroke:none;fill-rule:nonzero;fill:rgb(100%,0%,47.843137%);fill-opacity:1;" d="M 18.671875 16.585938 C 18.070312 15.757812 17.683594 14.476562 17.777344 13.515625 L 17.804688 13.222656 L 17.949219 13.25 C 18.203125 13.289062 18.644531 13.464844 18.855469 13.597656 C 19.429688 13.945312 19.683594 14.410156 19.925781 15.585938 C 19.992188 15.929688 20.097656 16.332031 20.136719 16.449219 C 20.203125 16.664062 20.484375 17.15625 20.710938 17.476562 C 20.871094 17.703125 20.765625 17.824219 20.417969 17.796875 C 19.871094 17.71875 19.152344 17.222656 18.671875 16.585938 Z M 18.671875 16.585938 "/>
<path style=" stroke:none;fill-rule:nonzero;fill:rgb(100%,0%,47.843137%);fill-opacity:1;" d="M 27.992188 22.785156 C 25.164062 21.636719 24.164062 20.664062 24.164062 18.996094 C 24.164062 18.757812 24.175781 18.558594 24.175781 18.558594 C 24.191406 18.558594 24.296875 18.636719 24.417969 18.742188 C 24.992188 19.199219 25.628906 19.398438 27.417969 19.652344 C 28.457031 19.8125 29.058594 19.917969 29.605469 20.105469 C 31.324219 20.675781 32.402344 21.835938 32.65625 23.425781 C 32.722656 23.878906 32.683594 24.742188 32.578125 25.210938 C 32.484375 25.570312 32.191406 26.222656 32.125 26.238281 C 32.109375 26.238281 32.085938 26.171875 32.085938 26.050781 C 32.058594 25.449219 31.75 24.878906 31.257812 24.4375 C 30.644531 23.917969 29.871094 23.542969 27.992188 22.785156 Z M 27.992188 22.785156 "/>
<path style=" stroke:none;fill-rule:nonzero;fill:rgb(100%,0%,47.843137%);fill-opacity:1;" d="M 25.992188 23.25 C 25.964844 23.039062 25.898438 22.769531 25.84375 22.652344 L 25.777344 22.4375 L 25.910156 22.597656 C 26.097656 22.8125 26.242188 23.0625 26.363281 23.425781 C 26.457031 23.691406 26.457031 23.785156 26.457031 24.222656 C 26.457031 24.652344 26.445312 24.757812 26.363281 24.996094 C 26.21875 25.382812 26.042969 25.652344 25.765625 25.957031 C 25.257812 26.492188 24.578125 26.769531 23.628906 26.902344 C 23.457031 26.917969 22.976562 26.957031 22.550781 26.984375 C 21.484375 27.039062 20.765625 27.15625 20.125 27.382812 C 20.042969 27.410156 19.949219 27.4375 19.9375 27.425781 C 19.910156 27.398438 20.351562 27.144531 20.710938 26.96875 C 21.203125 26.730469 21.722656 26.597656 22.84375 26.398438 C 23.402344 26.316406 23.964844 26.199219 24.109375 26.144531 C 25.523438 25.691406 26.21875 24.597656 25.992188 23.25 Z M 25.992188 23.25 "/>
<path style=" stroke:none;fill-rule:nonzero;fill:rgb(100%,0%,47.843137%);fill-opacity:1;" d="M 27.285156 25.542969 C 26.910156 24.730469 26.832031 23.957031 27.03125 23.238281 C 27.058594 23.171875 27.085938 23.089844 27.109375 23.089844 C 27.136719 23.089844 27.230469 23.128906 27.3125 23.183594 C 27.484375 23.304688 27.84375 23.503906 28.75 23.996094 C 29.910156 24.625 30.5625 25.105469 31.015625 25.664062 C 31.417969 26.144531 31.65625 26.703125 31.777344 27.382812 C 31.84375 27.769531 31.804688 28.691406 31.710938 29.078125 C 31.390625 30.289062 30.683594 31.265625 29.644531 31.8125 C 29.484375 31.890625 29.363281 31.957031 29.351562 31.957031 C 29.335938 31.957031 29.390625 31.8125 29.484375 31.636719 C 29.832031 30.902344 29.871094 30.210938 29.617188 29.425781 C 29.457031 28.945312 29.136719 28.355469 28.46875 27.371094 C 27.671875 26.265625 27.484375 25.957031 27.285156 25.542969 Z M 27.285156 25.542969 "/>
<path style=" stroke:none;fill-rule:nonzero;fill:rgb(100%,0%,47.843137%);fill-opacity:1;" d="M 16.671875 29.902344 C 17.722656 29.023438 19.015625 28.398438 20.21875 28.199219 C 20.722656 28.117188 21.589844 28.144531 22.058594 28.265625 C 22.816406 28.464844 23.496094 28.890625 23.855469 29.425781 C 24.203125 29.929688 24.351562 30.382812 24.511719 31.355469 C 24.5625 31.742188 24.644531 32.144531 24.65625 32.222656 C 24.777344 32.730469 25.003906 33.128906 25.285156 33.34375 C 25.722656 33.675781 26.496094 33.691406 27.257812 33.398438 C 27.390625 33.355469 27.496094 33.316406 27.496094 33.332031 C 27.523438 33.355469 27.136719 33.609375 26.882812 33.742188 C 26.523438 33.929688 26.242188 33.984375 25.855469 33.984375 C 25.175781 33.984375 24.589844 33.625 24.125 32.917969 C 24.03125 32.769531 23.832031 32.355469 23.65625 31.96875 C 23.164062 30.8125 22.898438 30.476562 22.3125 30.089844 C 21.804688 29.757812 21.136719 29.691406 20.644531 29.929688 C 19.992188 30.25 19.816406 31.089844 20.269531 31.597656 C 20.457031 31.8125 20.804688 31.984375 21.085938 32.023438 C 21.617188 32.089844 22.070312 31.675781 22.070312 31.15625 C 22.070312 30.8125 21.9375 30.609375 21.605469 30.464844 C 21.152344 30.265625 20.644531 30.492188 20.65625 30.929688 C 20.65625 31.117188 20.738281 31.222656 20.925781 31.316406 C 21.042969 31.371094 21.042969 31.371094 20.949219 31.355469 C 20.539062 31.277344 20.445312 30.757812 20.765625 30.4375 C 21.164062 30.039062 22.003906 30.210938 22.285156 30.769531 C 22.402344 30.996094 22.417969 31.449219 22.3125 31.742188 C 22.070312 32.371094 21.390625 32.703125 20.683594 32.515625 C 20.21875 32.382812 20.015625 32.265625 19.445312 31.675781 C 18.445312 30.652344 18.058594 30.449219 16.628906 30.238281 L 16.363281 30.199219 Z M 16.671875 29.902344 "/>
<path style=" stroke:none;fill-rule:evenodd;fill:rgb(100%,0%,47.843137%);fill-opacity:1;" d="M 9.164062 6.96875 C 12.484375 11.011719 17.605469 17.277344 17.855469 17.625 C 18.070312 17.902344 17.992188 18.183594 17.628906 18.382812 C 17.429688 18.503906 17.015625 18.609375 16.816406 18.609375 C 16.589844 18.609375 16.324219 18.492188 16.136719 18.316406 C 16.003906 18.183594 15.457031 17.371094 14.203125 15.425781 C 13.242188 13.929688 12.429688 12.691406 12.417969 12.675781 C 12.363281 12.652344 12.363281 12.652344 14.097656 15.757812 C 15.191406 17.703125 15.550781 18.410156 15.550781 18.492188 C 15.550781 18.675781 15.496094 18.769531 15.269531 19.039062 C 14.882812 19.464844 14.710938 19.945312 14.589844 20.957031 C 14.445312 22.078125 14.058594 22.878906 12.964844 24.238281 C 12.324219 25.039062 12.21875 25.183594 12.070312 25.503906 C 11.871094 25.902344 11.816406 26.128906 11.789062 26.652344 C 11.765625 27.199219 11.816406 27.53125 11.976562 28.050781 C 12.125 28.503906 12.269531 28.8125 12.65625 29.398438 C 12.992188 29.902344 13.191406 30.289062 13.191406 30.4375 C 13.191406 30.558594 13.21875 30.558594 13.738281 30.4375 C 14.964844 30.15625 15.976562 29.664062 16.539062 29.0625 C 16.882812 28.691406 16.964844 28.492188 16.964844 27.984375 C 16.964844 27.652344 16.949219 27.585938 16.871094 27.382812 C 16.722656 27.0625 16.457031 26.8125 15.871094 26.410156 C 15.097656 25.878906 14.777344 25.449219 14.683594 24.890625 C 14.617188 24.410156 14.699219 24.078125 15.125 23.183594 C 15.5625 22.265625 15.683594 21.878906 15.75 20.929688 C 15.789062 20.332031 15.871094 20.089844 16.03125 19.902344 C 16.21875 19.703125 16.378906 19.636719 16.816406 19.570312 C 17.550781 19.476562 18.015625 19.289062 18.390625 18.929688 C 18.722656 18.636719 18.855469 18.332031 18.871094 17.890625 L 18.882812 17.558594 L 18.699219 17.355469 C 18.03125 16.585938 8.75 6.382812 8.710938 6.382812 C 8.671875 6.355469 8.898438 6.625 9.164062 6.96875 Z M 13.550781 27.25 C 13.710938 26.984375 13.617188 26.636719 13.363281 26.464844 C 13.125 26.304688 12.75 26.382812 12.75 26.597656 C 12.75 26.652344 12.777344 26.71875 12.871094 26.742188 C 13.003906 26.8125 13.015625 26.890625 12.910156 27.039062 C 12.816406 27.199219 12.816406 27.332031 12.9375 27.4375 C 13.136719 27.585938 13.402344 27.503906 13.550781 27.25 Z M 13.550781 27.25 "/>
<path style=" stroke:none;fill-rule:evenodd;fill:rgb(100%,0%,47.843137%);fill-opacity:1;" d="M 19.324219 19.742188 C 18.976562 19.835938 18.65625 20.210938 18.550781 20.585938 C 18.496094 20.8125 18.523438 21.222656 18.617188 21.355469 C 18.777344 21.558594 18.910156 21.609375 19.3125 21.609375 C 20.097656 21.609375 20.765625 21.265625 20.832031 20.851562 C 20.898438 20.503906 20.605469 20.039062 20.191406 19.824219 C 19.992188 19.71875 19.550781 19.675781 19.324219 19.742188 Z M 20.230469 20.464844 C 20.351562 20.289062 20.296875 20.105469 20.085938 19.984375 C 19.699219 19.742188 19.109375 19.945312 19.109375 20.316406 C 19.109375 20.503906 19.402344 20.703125 19.699219 20.703125 C 19.882812 20.691406 20.152344 20.570312 20.230469 20.464844 Z M 20.230469 20.464844 "/>
</g>
</svg>
