<?xml version="1.0" encoding="UTF-8"?>
<svg xmlns="http://www.w3.org/2000/svg" xmlns:xlink="http://www.w3.org/1999/xlink" width="64px" height="64px" viewBox="0 0 64 64" version="1.1">
<g id="surface1">
<path style=" stroke:none;fill-rule:nonzero;fill:rgb(100%,100%,100%);fill-opacity:1;" d="M 32 0 C 49.671875 0 64 14.328125 64 32 C 64 49.671875 49.671875 64 32 64 C 14.328125 64 0 49.671875 0 32 C 0 14.328125 14.328125 0 32 0 Z M 32 0 "/>
<path style=" stroke:none;fill-rule:nonzero;fill:rgb(100%,0%,47.843137%);fill-opacity:1;" d="M 28.957031 20.242188 C 28.488281 20.175781 28.445312 20.15625 28.679688 20.132812 C 29.105469 20.070312 30.109375 20.15625 30.832031 20.328125 C 32.476562 20.710938 33.949219 21.714844 35.527344 23.484375 L 35.933594 23.953125 L 36.527344 23.867188 C 39.066406 23.460938 41.671875 23.78125 43.824219 24.785156 C 44.421875 25.0625 45.359375 25.597656 45.46875 25.746094 C 45.511719 25.789062 45.574219 26.085938 45.617188 26.386719 C 45.765625 27.453125 45.703125 28.261719 45.359375 28.882812 C 45.167969 29.222656 45.167969 29.308594 45.296875 29.605469 C 45.382812 29.839844 45.660156 29.992188 45.914062 29.992188 C 46.46875 29.992188 47.023438 29.117188 47.300781 27.921875 L 47.410156 27.453125 L 47.621094 27.6875 C 48.796875 28.988281 49.691406 30.78125 49.839844 32.058594 L 49.882812 32.402344 L 49.671875 32.101562 C 49.328125 31.570312 49.007812 31.226562 48.582031 30.929688 C 47.8125 30.394531 46.980469 30.246094 44.828125 30.140625 C 42.863281 30.03125 41.753906 29.863281 40.644531 29.5 C 38.769531 28.882812 37.808594 28.089844 35.613281 25.148438 C 34.628906 23.847656 34.011719 23.140625 33.394531 22.546875 C 32.050781 21.199219 30.703125 20.519531 28.957031 20.242188 Z M 28.957031 20.242188 "/>
<path style=" stroke:none;fill-rule:nonzero;fill:rgb(100%,0%,47.843137%);fill-opacity:1;" d="M 45.9375 23.121094 C 45.980469 22.246094 46.085938 21.691406 46.34375 21.160156 C 46.425781 20.945312 46.535156 20.773438 46.554688 20.773438 C 46.578125 20.773438 46.535156 20.921875 46.46875 21.117188 C 46.277344 21.628906 46.257812 22.332031 46.386719 23.121094 C 46.535156 24.144531 46.621094 24.292969 47.707031 25.402344 C 48.21875 25.9375 48.796875 26.597656 49.03125 26.855469 L 49.414062 27.367188 L 49.03125 27.003906 C 48.5625 26.554688 47.453125 25.679688 47.195312 25.574219 C 47.046875 25.488281 47.003906 25.488281 46.898438 25.597656 C 46.8125 25.679688 46.789062 25.832031 46.789062 26.492188 C 46.769531 27.515625 46.640625 28.15625 46.277344 28.816406 C 46.085938 29.160156 46.066406 29.09375 46.234375 28.710938 C 46.34375 28.410156 46.363281 28.285156 46.363281 27.300781 C 46.363281 25.320312 46.128906 24.847656 44.742188 24.039062 C 44.402344 23.824219 43.804688 23.527344 43.460938 23.378906 C 43.101562 23.226562 42.824219 23.078125 42.84375 23.078125 C 42.886719 23.035156 44.230469 23.417969 44.765625 23.65625 C 45.554688 23.972656 45.703125 23.996094 45.789062 23.972656 C 45.875 23.890625 45.914062 23.695312 45.9375 23.121094 Z M 45.9375 23.121094 "/>
<path style=" stroke:none;fill-rule:nonzero;fill:rgb(100%,0%,47.843137%);fill-opacity:1;" d="M 29.875 26.535156 C 28.914062 25.210938 28.292969 23.164062 28.445312 21.628906 L 28.488281 21.160156 L 28.722656 21.199219 C 29.125 21.265625 29.832031 21.542969 30.171875 21.753906 C 31.089844 22.308594 31.496094 23.058594 31.878906 24.933594 C 31.984375 25.488281 32.15625 26.128906 32.21875 26.320312 C 32.328125 26.664062 32.773438 27.453125 33.136719 27.964844 C 33.394531 28.328125 33.222656 28.519531 32.667969 28.476562 C 31.792969 28.347656 30.640625 27.558594 29.875 26.535156 Z M 29.875 26.535156 "/>
<path style=" stroke:none;fill-rule:nonzero;fill:rgb(100%,0%,47.843137%);fill-opacity:1;" d="M 44.785156 36.453125 C 40.261719 34.621094 38.664062 33.0625 38.664062 30.394531 C 38.664062 30.011719 38.683594 29.691406 38.683594 29.691406 C 38.703125 29.691406 38.875 29.820312 39.066406 29.992188 C 39.984375 30.714844 41.007812 31.035156 43.867188 31.441406 C 45.53125 31.695312 46.492188 31.867188 47.367188 32.167969 C 50.117188 33.082031 51.847656 34.941406 52.25 37.476562 C 52.359375 38.203125 52.292969 39.589844 52.125 40.335938 C 51.972656 40.914062 51.503906 41.957031 51.398438 41.980469 C 51.378906 41.980469 51.335938 41.875 51.335938 41.679688 C 51.292969 40.722656 50.800781 39.804688 50.011719 39.101562 C 49.03125 38.269531 47.792969 37.671875 44.785156 36.453125 Z M 44.785156 36.453125 "/>
<path style=" stroke:none;fill-rule:nonzero;fill:rgb(100%,0%,47.843137%);fill-opacity:1;" d="M 41.585938 37.199219 C 41.542969 36.859375 41.4375 36.433594 41.351562 36.242188 L 41.242188 35.898438 L 41.457031 36.15625 C 41.753906 36.496094 41.992188 36.902344 42.183594 37.476562 C 42.332031 37.90625 42.332031 38.054688 42.332031 38.757812 C 42.332031 39.441406 42.308594 39.613281 42.183594 39.996094 C 41.949219 40.613281 41.671875 41.042969 41.222656 41.53125 C 40.410156 42.386719 39.324219 42.832031 37.808594 43.046875 C 37.53125 43.066406 36.765625 43.132812 36.082031 43.175781 C 34.375 43.257812 33.222656 43.453125 32.199219 43.8125 C 32.070312 43.855469 31.921875 43.898438 31.898438 43.878906 C 31.855469 43.835938 32.5625 43.429688 33.136719 43.152344 C 33.925781 42.769531 34.757812 42.554688 36.550781 42.234375 C 37.445312 42.109375 38.34375 41.914062 38.578125 41.832031 C 40.839844 41.105469 41.949219 39.355469 41.585938 37.199219 Z M 41.585938 37.199219 "/>
<path style=" stroke:none;fill-rule:nonzero;fill:rgb(100%,0%,47.843137%);fill-opacity:1;" d="M 43.65625 40.871094 C 43.058594 39.570312 42.929688 38.332031 43.25 37.179688 C 43.292969 37.074219 43.335938 36.945312 43.378906 36.945312 C 43.417969 36.945312 43.570312 37.007812 43.695312 37.09375 C 43.972656 37.285156 44.550781 37.605469 46 38.394531 C 47.855469 39.398438 48.902344 40.167969 49.628906 41.0625 C 50.269531 41.832031 50.652344 42.726562 50.84375 43.8125 C 50.949219 44.433594 50.886719 45.90625 50.738281 46.523438 C 50.226562 48.464844 49.09375 50.023438 47.429688 50.898438 C 47.175781 51.023438 46.980469 51.132812 46.960938 51.132812 C 46.941406 51.132812 47.023438 50.898438 47.175781 50.621094 C 47.730469 49.445312 47.792969 48.335938 47.386719 47.078125 C 47.132812 46.308594 46.621094 45.371094 45.554688 43.792969 C 44.273438 42.023438 43.972656 41.53125 43.65625 40.871094 Z M 43.65625 40.871094 "/>
<path style=" stroke:none;fill-rule:nonzero;fill:rgb(100%,0%,47.843137%);fill-opacity:1;" d="M 26.671875 47.847656 C 28.359375 46.4375 30.425781 45.4375 32.347656 45.117188 C 33.160156 44.988281 34.546875 45.03125 35.292969 45.222656 C 36.507812 45.542969 37.597656 46.226562 38.171875 47.078125 C 38.726562 47.890625 38.960938 48.613281 39.21875 50.171875 C 39.300781 50.789062 39.429688 51.429688 39.453125 51.558594 C 39.644531 52.367188 40.007812 53.007812 40.453125 53.351562 C 41.160156 53.882812 42.394531 53.90625 43.613281 53.4375 C 43.824219 53.371094 43.996094 53.308594 43.996094 53.328125 C 44.039062 53.371094 43.417969 53.777344 43.015625 53.992188 C 42.4375 54.289062 41.992188 54.375 41.371094 54.375 C 40.285156 54.375 39.34375 53.796875 38.597656 52.667969 C 38.449219 52.433594 38.128906 51.773438 37.851562 51.152344 C 37.0625 49.296875 36.636719 48.765625 35.695312 48.144531 C 34.886719 47.613281 33.820312 47.503906 33.03125 47.890625 C 31.984375 48.402344 31.707031 49.746094 32.433594 50.554688 C 32.730469 50.898438 33.285156 51.175781 33.734375 51.238281 C 34.585938 51.34375 35.3125 50.683594 35.3125 49.851562 C 35.3125 49.296875 35.101562 48.976562 34.566406 48.742188 C 33.839844 48.421875 33.03125 48.785156 33.050781 49.488281 C 33.050781 49.789062 33.179688 49.957031 33.476562 50.109375 C 33.671875 50.191406 33.671875 50.191406 33.519531 50.171875 C 32.859375 50.042969 32.710938 49.210938 33.222656 48.699219 C 33.863281 48.058594 35.207031 48.335938 35.65625 49.234375 C 35.847656 49.597656 35.867188 50.320312 35.695312 50.789062 C 35.3125 51.792969 34.226562 52.328125 33.09375 52.027344 C 32.347656 51.8125 32.027344 51.621094 31.109375 50.683594 C 29.511719 49.042969 28.890625 48.722656 26.609375 48.378906 L 26.183594 48.316406 Z M 26.671875 47.847656 "/>
<path style=" stroke:none;fill-rule:evenodd;fill:rgb(100%,0%,47.843137%);fill-opacity:1;" d="M 14.664062 11.152344 C 19.972656 17.617188 28.167969 27.644531 28.570312 28.199219 C 28.914062 28.644531 28.785156 29.09375 28.210938 29.414062 C 27.890625 29.605469 27.226562 29.777344 26.90625 29.777344 C 26.546875 29.777344 26.117188 29.585938 25.820312 29.308594 C 25.605469 29.09375 24.730469 27.792969 22.726562 24.679688 C 21.191406 22.289062 19.890625 20.304688 19.867188 20.285156 C 19.78125 20.242188 19.78125 20.242188 22.554688 25.210938 C 24.304688 28.328125 24.882812 29.457031 24.882812 29.585938 C 24.882812 29.882812 24.796875 30.03125 24.433594 30.460938 C 23.8125 31.140625 23.535156 31.910156 23.34375 33.53125 C 23.109375 35.324219 22.492188 36.605469 20.742188 38.78125 C 19.71875 40.058594 19.546875 40.292969 19.3125 40.804688 C 18.992188 41.445312 18.90625 41.808594 18.863281 42.640625 C 18.824219 43.515625 18.90625 44.050781 19.164062 44.882812 C 19.398438 45.605469 19.632812 46.097656 20.25 47.035156 C 20.785156 47.847656 21.105469 48.464844 21.105469 48.699219 C 21.105469 48.890625 21.148438 48.890625 21.980469 48.699219 C 23.941406 48.25 25.5625 47.460938 26.460938 46.503906 C 27.015625 45.90625 27.140625 45.585938 27.140625 44.773438 C 27.140625 44.242188 27.121094 44.132812 26.992188 43.8125 C 26.757812 43.300781 26.332031 42.898438 25.394531 42.257812 C 24.15625 41.402344 23.644531 40.722656 23.496094 39.824219 C 23.386719 39.058594 23.515625 38.523438 24.199219 37.09375 C 24.902344 35.621094 25.09375 35.003906 25.199219 33.488281 C 25.265625 32.527344 25.394531 32.144531 25.648438 31.847656 C 25.949219 31.527344 26.203125 31.417969 26.90625 31.3125 C 28.082031 31.164062 28.828125 30.863281 29.425781 30.289062 C 29.957031 29.820312 30.171875 29.328125 30.191406 28.625 L 30.214844 28.089844 L 29.914062 27.773438 C 28.847656 26.535156 14 10.214844 13.9375 10.214844 C 13.875 10.171875 14.234375 10.597656 14.664062 11.152344 Z M 21.679688 43.601562 C 21.9375 43.175781 21.789062 42.621094 21.382812 42.34375 C 21 42.085938 20.402344 42.214844 20.402344 42.554688 C 20.402344 42.640625 20.445312 42.746094 20.59375 42.789062 C 20.804688 42.898438 20.828125 43.023438 20.65625 43.257812 C 20.507812 43.515625 20.507812 43.730469 20.699219 43.898438 C 21.019531 44.132812 21.445312 44.007812 21.679688 43.601562 Z M 21.679688 43.601562 "/>
<path style=" stroke:none;fill-rule:evenodd;fill:rgb(100%,0%,47.843137%);fill-opacity:1;" d="M 30.917969 31.589844 C 30.363281 31.738281 29.851562 32.335938 29.679688 32.933594 C 29.597656 33.296875 29.636719 33.957031 29.789062 34.171875 C 30.042969 34.492188 30.257812 34.578125 30.898438 34.578125 C 32.15625 34.578125 33.222656 34.023438 33.328125 33.359375 C 33.4375 32.804688 32.964844 32.058594 32.304688 31.71875 C 31.984375 31.546875 31.28125 31.484375 30.917969 31.589844 Z M 32.367188 32.742188 C 32.5625 32.464844 32.476562 32.167969 32.132812 31.972656 C 31.515625 31.589844 30.578125 31.910156 30.578125 32.507812 C 30.578125 32.804688 31.046875 33.125 31.515625 33.125 C 31.8125 33.105469 32.242188 32.914062 32.367188 32.742188 Z M 32.367188 32.742188 "/>
</g>
</svg>
