<svg width="32" height="32" viewBox="0 0 32 32" fill="none" xmlns="http://www.w3.org/2000/svg">
<circle cx="16" cy="16" r="16" fill="white"/>
<g clip-path="url(#clip0_413:49939)">
<path d="M15.9976 4L15.8403 4.56499V20.9596L15.9976 21.1256L23.1954 16.6272L15.9976 4Z" fill="#5326EC" fill-opacity="0.2"/>
<path d="M15.9977 4L8.7998 16.6272L15.9977 21.1256V13.1681V4Z" fill="#5326EC"/>
<path d="M15.9978 22.5665L15.9092 22.6807V28.5209L15.9978 28.7945L23.1999 18.0704L15.9978 22.5665Z" fill="#5326EC" fill-opacity="0.4"/>
<path d="M15.9977 28.7944V22.5664L8.7998 18.0703L15.9977 28.7944Z" fill="#5326EC"/>
<path d="M15.9976 21.1255L23.1953 16.6272L15.9976 13.1682V21.1255Z" fill="#5326EC"/>
<path d="M8.7998 16.6272L15.9976 21.1256V13.1682L8.7998 16.6272Z" fill="#5326EC" fill-opacity="0.2"/>
</g>
<defs>
<clipPath id="clip0_413:49939">
<rect width="14.4" height="24.8" fill="white" transform="translate(8.7998 4)"/>
</clipPath>
</defs>
</svg>
