<svg width="16" height="16" viewBox="0 0 16 16" fill="none" xmlns="http://www.w3.org/2000/svg">
<path fill-rule="evenodd" clip-rule="evenodd" d="M8 0C12.4185 0 16 3.5815 16 8C16 12.4185 12.4185 16 8 16C3.5815 16 0 12.4185 0 8C0 3.5815 3.5815 0 8 0Z" fill="#303C73"/>
<path d="M12.7997 8.11853C12.7902 8.25345 12.7869 8.38923 12.7704 8.52315C12.5953 9.94532 11.932 11.0849 10.7677 11.9194C9.89799 12.5429 8.91635 12.8339 7.84716 12.7969C6.61076 12.7543 5.54482 12.2941 4.65099 11.4385C4.64277 11.4306 4.64297 11.3991 4.65099 11.3906C5.76582 10.2739 6.88168 9.15839 7.99858 8.04397C8.025 8.01979 8.05917 8.00582 8.09496 8.00457C9.66333 8.00262 11.2317 8.00207 12.8 8.00291L12.7997 8.11853Z" fill="white"/>
<path fill-rule="evenodd" clip-rule="evenodd" d="M10.2713 6.11841V5.64778C10.4278 5.67518 10.603 5.69201 10.8 5.69201C10.997 5.69201 11.1722 5.67518 11.3287 5.64778V6.11841H10.2713ZM10.8 6.78794C10.603 6.78794 10.4278 6.80476 10.2713 6.83222V6.36154H11.3287V6.83222C11.1722 6.80476 10.997 6.78794 10.8 6.78794ZM11.6865 5.55715C11.6886 5.55639 11.6908 5.55557 11.6929 5.55481C11.8508 5.50065 11.9799 5.43634 12.0826 5.37274C12.1314 5.34256 12.16 5.28943 12.16 5.2331C12.16 5.14193 12.0558 5.08869 11.9786 5.14003C11.8617 5.2178 11.6965 5.30105 11.4727 5.36031C11.4659 5.3621 11.4595 5.36405 11.4526 5.36579C11.4217 5.37366 11.3894 5.38093 11.3562 5.38777C11.3461 5.38989 11.3357 5.39179 11.3255 5.39374C11.298 5.39911 11.2697 5.404 11.2406 5.40855C11.2318 5.40991 11.2232 5.41143 11.2142 5.41273C11.1764 5.41816 11.1375 5.42299 11.0971 5.42701C11.0902 5.42766 11.083 5.42815 11.0759 5.4288C11.041 5.432 11.0051 5.43455 10.9683 5.43656C10.9579 5.4371 10.9475 5.4377 10.9369 5.43813C10.8925 5.44003 10.8472 5.44133 10.8 5.44133C10.753 5.44133 10.7078 5.44003 10.6636 5.43813C10.6525 5.4377 10.6417 5.4371 10.6309 5.4365C10.5955 5.43455 10.561 5.43211 10.5274 5.42901C10.5188 5.42825 10.51 5.42766 10.5015 5.42684C10.4625 5.42294 10.425 5.41827 10.3884 5.413C10.3763 5.41127 10.3648 5.40931 10.3529 5.40741C10.3284 5.40351 10.3044 5.39933 10.281 5.39488C10.2669 5.39222 10.2528 5.38956 10.2391 5.38668C10.2154 5.38169 10.1923 5.37637 10.1698 5.37089C10.1489 5.36579 10.1286 5.36047 10.1086 5.35499C9.89473 5.29622 9.73567 5.21562 9.62198 5.14024C9.54451 5.08879 9.44 5.14176 9.44 5.23321C9.44 5.28949 9.46859 5.34251 9.51725 5.37268C9.61987 5.43618 9.74868 5.50038 9.90619 5.55449C9.9088 5.55541 9.91131 5.55639 9.91403 5.55731C9.94557 5.568 9.97855 5.57809 10.0123 5.58797V6.11841H9.89779C9.84685 6.11841 9.80552 6.15873 9.80552 6.20844C9.80552 6.29299 9.87582 6.36154 9.96242 6.36154H10.0123V6.89197C9.97855 6.90185 9.94557 6.912 9.91403 6.92264C9.91131 6.92356 9.9088 6.92454 9.90619 6.92551C9.74868 6.97962 9.61987 7.04377 9.51725 7.10732C9.46859 7.13744 9.44 7.19046 9.44 7.24679C9.44 7.33818 9.54451 7.39115 9.62198 7.33976C9.73567 7.26432 9.89473 7.18378 10.1086 7.12496C10.1286 7.11947 10.1489 7.11416 10.1698 7.10905C10.1923 7.10357 10.2154 7.09825 10.2391 7.09326C10.2528 7.09039 10.2669 7.08773 10.281 7.08507C10.3044 7.08062 10.3284 7.07644 10.3529 7.07259C10.3648 7.07069 10.3763 7.06868 10.3884 7.06694C10.425 7.06168 10.4625 7.05701 10.5015 7.05316C10.51 7.05229 10.5188 7.05169 10.5274 7.05093C10.561 7.04789 10.5955 7.0454 10.6309 7.04344C10.6417 7.0429 10.6525 7.0423 10.6636 7.04181C10.7078 7.03991 10.753 7.03861 10.8 7.03861C10.8472 7.03861 10.8925 7.03991 10.9369 7.04181C10.9475 7.04225 10.9579 7.04284 10.9683 7.04339C11.0051 7.0454 11.041 7.04795 11.0759 7.05115C11.083 7.0518 11.0902 7.05229 11.0971 7.05294C11.1375 7.05696 11.1764 7.06179 11.2142 7.06727C11.2232 7.06857 11.2318 7.07003 11.2406 7.07144C11.2697 7.07595 11.298 7.08089 11.3255 7.08621C11.3357 7.08816 11.3461 7.09011 11.3562 7.09218C11.3894 7.09901 11.4217 7.10629 11.4526 7.11416C11.4595 7.11589 11.4659 7.1179 11.4727 7.11964C11.6965 7.17895 11.8617 7.2622 11.9786 7.33997C12.0558 7.39131 12.16 7.33807 12.16 7.2469C12.16 7.19051 12.1314 7.13738 12.0826 7.10721C11.9799 7.0436 11.8508 6.97929 11.6929 6.92513C11.6908 6.92437 11.6886 6.92356 11.6865 6.92285C11.6548 6.91211 11.6217 6.90191 11.5877 6.89197V6.36154H11.7022C11.7532 6.36154 11.7945 6.32122 11.7945 6.2715C11.7945 6.18695 11.7242 6.11841 11.6375 6.11841H11.5877V5.58797C11.6217 5.57809 11.6548 5.56789 11.6865 5.55715Z" fill="white"/>
<path d="M8.11658 3.2C8.24844 3.21002 8.38056 3.21585 8.51196 3.23005C9.28135 3.31345 9.98994 3.56746 10.6377 3.99207C10.6421 3.99537 10.6463 3.99892 10.6503 4.00269L10.2408 4.41136C10.1517 4.50031 10.0631 4.58986 9.97294 4.67768C9.96137 4.68517 9.94684 4.68644 9.93414 4.68106C9.28197 4.30585 8.57996 4.13327 7.82812 4.16334C6.146 4.23113 4.67958 5.42252 4.27624 7.05622C4.02659 8.06845 4.16548 9.03006 4.67958 9.93769C4.68449 9.94631 4.68475 9.96535 4.67885 9.97085C4.45568 10.1957 4.23174 10.4199 4.00702 10.6436C4.00483 10.6458 4.00211 10.6476 3.99701 10.6517C3.97585 10.6189 3.95456 10.5872 3.93453 10.5548C3.3801 9.65856 3.13535 8.68441 3.21455 7.63291C3.37963 5.44707 5.0065 3.6563 7.17129 3.27602C7.39017 3.23761 7.61402 3.22786 7.83549 3.20484L7.88072 3.2H8.11658Z" fill="white"/>
</svg>
