<svg width="24" height="24" viewBox="0 0 24 24" fill="none" xmlns="http://www.w3.org/2000/svg">
<path fill-rule="evenodd" clip-rule="evenodd" d="M12 0C18.6278 0 24 5.37225 24 12C24 18.6278 18.6278 24 12 24C5.37225 24 0 18.6278 0 12C0 5.37225 5.37225 0 12 0Z" fill="#303C73"/>
<path d="M19.1995 12.1778C19.1854 12.3802 19.1804 12.5838 19.1556 12.7847C18.893 14.918 17.8981 16.6274 16.1516 17.879C14.847 18.8143 13.3745 19.2508 11.7707 19.1953C9.91613 19.1315 8.31722 18.4412 6.97649 17.1577C6.96415 17.1458 6.96445 17.0986 6.97649 17.0859C8.64873 15.4109 10.3225 13.7376 11.9979 12.066C12.0375 12.0297 12.0888 12.0087 12.1424 12.0069C14.495 12.0039 16.8475 12.0031 19.2 12.0044L19.1995 12.1778Z" fill="white"/>
<path fill-rule="evenodd" clip-rule="evenodd" d="M15.407 9.17761V8.47167C15.6417 8.51278 15.9045 8.53801 16.2 8.53801C16.4955 8.53801 16.7583 8.51278 16.9931 8.47167V9.17761H15.407ZM16.2 10.1819C15.9045 10.1819 15.6417 10.2071 15.407 10.2483V9.54231H16.9931V10.2483C16.7583 10.2071 16.4955 10.1819 16.2 10.1819ZM17.5297 8.33572C17.533 8.33458 17.5361 8.33336 17.5394 8.33222C17.7761 8.25098 17.9698 8.15451 18.1239 8.0591C18.197 8.01384 18.24 7.93415 18.24 7.84965C18.24 7.71289 18.0837 7.63303 17.9679 7.71004C17.7926 7.82669 17.5448 7.95157 17.2091 8.04046C17.1989 8.04315 17.1892 8.04608 17.179 8.04868C17.1325 8.06049 17.084 8.0714 17.0342 8.08165C17.0191 8.08483 17.0036 8.08768 16.9883 8.09061C16.947 8.09867 16.9045 8.10599 16.861 8.11283C16.8477 8.11487 16.8348 8.11715 16.8212 8.1191C16.7646 8.12724 16.7062 8.13449 16.6457 8.14051C16.6353 8.14149 16.6244 8.14222 16.6138 8.1432C16.5615 8.148 16.5076 8.15182 16.4524 8.15484C16.4368 8.15565 16.4212 8.15655 16.4054 8.1572C16.3388 8.16005 16.2708 8.162 16.2 8.162C16.1295 8.162 16.0617 8.16005 15.9954 8.1572C15.9788 8.15655 15.9626 8.15565 15.9464 8.15476C15.8933 8.15182 15.8415 8.14816 15.7911 8.14352C15.7781 8.14238 15.765 8.14149 15.7523 8.14027C15.6938 8.1344 15.6375 8.1274 15.5826 8.11951C15.5645 8.1169 15.5471 8.11397 15.5294 8.11112C15.4926 8.10526 15.4566 8.09899 15.4215 8.09232C15.4004 8.08833 15.3792 8.08434 15.3587 8.08003C15.3231 8.07254 15.2885 8.06456 15.2546 8.05634C15.2233 8.04868 15.1929 8.04071 15.163 8.03249C14.8421 7.94432 14.6035 7.82344 14.433 7.71036C14.3168 7.63319 14.16 7.71264 14.16 7.84981C14.16 7.93423 14.2029 8.01376 14.2759 8.05902C14.4298 8.15427 14.623 8.25057 14.8593 8.33173C14.8632 8.33311 14.867 8.33458 14.871 8.33596C14.9184 8.352 14.9678 8.36714 15.0184 8.38196V9.17761H14.8467C14.7703 9.17761 14.7083 9.2381 14.7083 9.31266C14.7083 9.43949 14.8137 9.54231 14.9436 9.54231H15.0184V10.338C14.9678 10.3528 14.9184 10.368 14.871 10.384C14.867 10.3853 14.8632 10.3868 14.8593 10.3883C14.623 10.4694 14.4298 10.5657 14.2759 10.661C14.2029 10.7062 14.16 10.7857 14.16 10.8702C14.16 11.0073 14.3168 11.0867 14.433 11.0096C14.6035 10.8965 14.8421 10.7757 15.163 10.6874C15.1929 10.6792 15.2233 10.6712 15.2546 10.6636C15.2885 10.6554 15.3231 10.6474 15.3587 10.6399C15.3792 10.6356 15.4004 10.6316 15.4215 10.6276C15.4566 10.6209 15.4926 10.6147 15.5294 10.6089C15.5471 10.606 15.5645 10.603 15.5826 10.6004C15.6375 10.5925 15.6938 10.5855 15.7523 10.5797C15.765 10.5784 15.7781 10.5775 15.7911 10.5764C15.8415 10.5718 15.8933 10.5681 15.9464 10.5652C15.9626 10.5643 15.9788 10.5635 15.9954 10.5627C16.0617 10.5599 16.1295 10.5579 16.2 10.5579C16.2708 10.5579 16.3388 10.5599 16.4054 10.5627C16.4212 10.5634 16.4368 10.5643 16.4524 10.5651C16.5076 10.5681 16.5615 10.5719 16.6138 10.5767C16.6244 10.5777 16.6353 10.5784 16.6457 10.5794C16.7062 10.5854 16.7646 10.5927 16.8212 10.6009C16.8348 10.6029 16.8477 10.6051 16.861 10.6072C16.9045 10.6139 16.947 10.6213 16.9883 10.6293C17.0036 10.6322 17.0191 10.6352 17.0342 10.6383C17.084 10.6485 17.1325 10.6594 17.179 10.6712C17.1892 10.6738 17.1989 10.6769 17.2091 10.6795C17.5448 10.7684 17.7926 10.8933 17.9679 11.01C18.0837 11.087 18.24 11.0071 18.24 10.8704C18.24 10.7858 18.197 10.7061 18.1239 10.6608C17.9698 10.5654 17.7761 10.4689 17.5394 10.3877C17.5361 10.3866 17.533 10.3853 17.5297 10.3843C17.4822 10.3682 17.4325 10.3529 17.3816 10.338V9.54231H17.5533C17.6297 9.54231 17.6917 9.48182 17.6917 9.40726C17.6917 9.28043 17.5863 9.17761 17.4563 9.17761H17.3816V8.38196C17.4325 8.36714 17.4822 8.35184 17.5297 8.33572Z" fill="white"/>
<path d="M12.1749 4.8C12.3727 4.81502 12.5708 4.82378 12.7679 4.84507C13.922 4.97018 14.9849 5.35119 15.9566 5.98811C15.9632 5.99306 15.9695 5.99837 15.9755 6.00403L15.3613 6.61704C15.2275 6.75046 15.0947 6.88479 14.9594 7.01652C14.9421 7.02776 14.9203 7.02966 14.9012 7.0216C13.923 6.45877 12.8699 6.19991 11.7422 6.24501C9.219 6.3467 7.01937 8.13379 6.41437 10.5843C6.03988 12.1027 6.24822 13.5451 7.01937 14.9065C7.02673 14.9195 7.02713 14.948 7.01827 14.9563C6.68352 15.2935 6.34761 15.6299 6.01053 15.9654C6.00725 15.9687 6.00317 15.9714 5.99551 15.9775C5.96377 15.9284 5.93184 15.8808 5.90179 15.8323C5.07015 14.4878 4.70303 13.0266 4.82182 11.4494C5.06945 8.1706 7.50976 5.48445 10.7569 4.91402C11.0852 4.85642 11.421 4.84179 11.7532 4.80726L11.8211 4.8H12.1749Z" fill="white"/>
</svg>
