<svg width="32" height="32" viewBox="0 0 32 32" fill="none" xmlns="http://www.w3.org/2000/svg">
<path fill-rule="evenodd" clip-rule="evenodd" d="M16 0C24.837 0 32 7.163 32 16C32 24.837 24.837 32 16 32C7.163 32 0 24.837 0 16C0 7.163 7.163 0 16 0Z" fill="#303C73"/>
<path d="M25.5993 16.2371C25.5805 16.5069 25.5739 16.7785 25.5408 17.0463C25.1906 19.8906 23.8641 22.1698 21.5355 23.8387C19.796 25.0858 17.8327 25.6678 15.6943 25.5937C13.2215 25.5087 11.0896 24.5883 9.30198 22.8769C9.28553 22.8611 9.28593 22.7981 9.30198 22.7813C11.5316 20.5479 13.7634 18.3168 15.9972 16.0879C16.05 16.0396 16.1183 16.0116 16.1899 16.0091C19.3267 16.0052 22.4633 16.0041 25.6 16.0058L25.5993 16.2371Z" fill="white"/>
<path fill-rule="evenodd" clip-rule="evenodd" d="M20.5426 12.2368V11.2956C20.8556 11.3504 21.2061 11.384 21.6001 11.384C21.9941 11.384 22.3444 11.3504 22.6575 11.2956V12.2368H20.5426ZM21.6001 13.5759C21.2061 13.5759 20.8556 13.6095 20.5426 13.6644V12.7231H22.6575V13.6644C22.3444 13.6095 21.9941 13.5759 21.6001 13.5759ZM23.3729 11.1143C23.3773 11.1128 23.3815 11.1111 23.3858 11.1096C23.7015 11.0013 23.9597 10.8727 24.1652 10.7455C24.2627 10.6851 24.32 10.5789 24.32 10.4662C24.32 10.2839 24.1117 10.1774 23.9573 10.2801C23.7234 10.4356 23.3931 10.6021 22.9455 10.7206C22.9319 10.7242 22.919 10.7281 22.9053 10.7316C22.8433 10.7473 22.7787 10.7619 22.7123 10.7755C22.6922 10.7798 22.6715 10.7836 22.651 10.7875C22.596 10.7982 22.5393 10.808 22.4813 10.8171C22.4636 10.8198 22.4463 10.8229 22.4283 10.8255C22.3528 10.8363 22.2749 10.846 22.1943 10.854C22.1804 10.8553 22.1659 10.8563 22.1518 10.8576C22.082 10.864 22.0102 10.8691 21.9365 10.8731C21.9157 10.8742 21.8949 10.8754 21.8738 10.8763C21.785 10.8801 21.6944 10.8827 21.6001 10.8827C21.5059 10.8827 21.4156 10.8801 21.3272 10.8763C21.3051 10.8754 21.2835 10.8742 21.2619 10.873C21.191 10.8691 21.122 10.8642 21.0548 10.858C21.0375 10.8565 21.02 10.8553 21.0031 10.8537C20.9251 10.8459 20.85 10.8365 20.7768 10.826C20.7527 10.8225 20.7295 10.8186 20.7058 10.8148C20.6568 10.807 20.6088 10.7987 20.562 10.7898C20.5339 10.7844 20.5056 10.7791 20.4782 10.7734C20.4307 10.7634 20.3847 10.7527 20.3395 10.7418C20.2977 10.7316 20.2572 10.7209 20.2173 10.71C19.7895 10.5924 19.4713 10.4312 19.244 10.2805C19.089 10.1776 18.88 10.2835 18.88 10.4664C18.88 10.579 18.9372 10.685 19.0345 10.7454C19.2397 10.8724 19.4974 11.0008 19.8124 11.109C19.8176 11.1108 19.8226 11.1128 19.8281 11.1146C19.8911 11.136 19.9571 11.1562 20.0245 11.1759V12.2368H19.7956C19.6937 12.2368 19.611 12.3175 19.611 12.4169C19.611 12.586 19.7516 12.7231 19.9248 12.7231H20.0245V13.7839C19.9571 13.8037 19.8911 13.824 19.8281 13.8453C19.8226 13.8471 19.8176 13.8491 19.8124 13.851C19.4974 13.9592 19.2397 14.0875 19.0345 14.2146C18.9372 14.2749 18.88 14.3809 18.88 14.4936C18.88 14.6764 19.089 14.7823 19.244 14.6795C19.4713 14.5286 19.7895 14.3676 20.2173 14.2499C20.2572 14.2389 20.2977 14.2283 20.3395 14.2181C20.3847 14.2071 20.4307 14.1965 20.4782 14.1865C20.5056 14.1808 20.5339 14.1755 20.562 14.1701C20.6088 14.1612 20.6568 14.1529 20.7058 14.1452C20.7295 14.1414 20.7527 14.1374 20.7768 14.1339C20.85 14.1234 20.9251 14.114 21.0031 14.1063C21.02 14.1046 21.0375 14.1034 21.0548 14.1019C21.122 14.0958 21.191 14.0908 21.2619 14.0869C21.2835 14.0858 21.3051 14.0846 21.3272 14.0836C21.4156 14.0798 21.5059 14.0772 21.6001 14.0772C21.6944 14.0772 21.785 14.0798 21.8738 14.0836C21.8949 14.0845 21.9157 14.0857 21.9365 14.0868C22.0102 14.0908 22.082 14.0959 22.1518 14.1023C22.1659 14.1036 22.1804 14.1046 22.1943 14.1059C22.2749 14.1139 22.3528 14.1236 22.4283 14.1345C22.4463 14.1371 22.4636 14.1401 22.4813 14.1429C22.5393 14.1519 22.596 14.1618 22.651 14.1724C22.6715 14.1763 22.6922 14.1802 22.7123 14.1844C22.7787 14.198 22.8433 14.2126 22.9053 14.2283C22.919 14.2318 22.9319 14.2358 22.9455 14.2393C23.3931 14.3579 23.7234 14.5244 23.9573 14.6799C24.1117 14.7826 24.32 14.6761 24.32 14.4938C24.32 14.381 24.2627 14.2748 24.1652 14.2144C23.9597 14.0872 23.7015 13.9586 23.3858 13.8503C23.3815 13.8487 23.3773 13.8471 23.3729 13.8457C23.3096 13.8242 23.2433 13.8038 23.1755 13.7839V12.7231H23.4044C23.5063 12.7231 23.589 12.6424 23.589 12.543C23.589 12.3739 23.4485 12.2368 23.275 12.2368H23.1755V11.1759C23.2433 11.1562 23.3096 11.1358 23.3729 11.1143Z" fill="white"/>
<path d="M16.2332 6.4C16.4969 6.42003 16.7611 6.43171 17.0239 6.4601C18.5627 6.6269 19.9799 7.13492 21.2755 7.98414C21.2843 7.99075 21.2927 7.99783 21.3007 8.00537L20.4817 8.82271C20.3034 9.00062 20.1263 9.17972 19.9459 9.35536C19.9227 9.37034 19.8937 9.37288 19.8683 9.36213C18.5639 8.61169 17.1599 8.26654 15.6562 8.32668C12.292 8.46227 9.35916 10.845 8.55249 14.1124C8.05318 16.1369 8.33096 18.0601 9.35916 19.8754C9.36897 19.8926 9.3695 19.9307 9.3577 19.9417C8.91136 20.3914 8.46348 20.8398 8.01404 21.2872C8.00967 21.2916 8.00423 21.2951 7.99401 21.3034C7.9517 21.2378 7.90912 21.1744 7.86905 21.1097C6.7602 19.3171 6.2707 17.3688 6.42909 15.2658C6.75927 10.8941 10.013 7.3126 14.3426 6.55203C14.7803 6.47522 15.228 6.45572 15.671 6.40968L15.7614 6.4H16.2332Z" fill="white"/>
</svg>
