<svg width="40" height="40" viewBox="0 0 40 40" fill="none" xmlns="http://www.w3.org/2000/svg">
<path fill-rule="evenodd" clip-rule="evenodd" d="M20 0C31.0463 0 40 8.95375 40 20C40 31.0463 31.0463 40 20 40C8.95375 40 0 31.0463 0 20C0 8.95375 8.95375 0 20 0Z" fill="#303C73"/>
<path d="M31.9992 20.2963C31.9756 20.6336 31.9673 20.9731 31.926 21.3079C31.4883 24.8633 29.8301 27.7123 26.9193 29.7984C24.745 31.3572 22.2909 32.0847 19.6179 31.9922C16.5269 31.8859 13.862 30.7353 11.6275 28.5961C11.6069 28.5764 11.6074 28.4976 11.6275 28.4766C14.4145 25.6849 17.2042 22.896 19.9965 20.1099C20.0625 20.0495 20.1479 20.0145 20.2374 20.0114C24.1583 20.0066 28.0792 20.0052 32 20.0073L31.9992 20.2963Z" fill="white"/>
<path fill-rule="evenodd" clip-rule="evenodd" d="M25.6783 15.296V14.1194C26.0694 14.188 26.5076 14.23 27.0001 14.23C27.4926 14.23 27.9306 14.188 28.3218 14.1194V15.296H25.6783ZM27.0001 16.9698C26.5076 16.9698 26.0694 17.0119 25.6783 17.0806V15.9038H28.3218V17.0806C27.9306 17.0119 27.4926 16.9698 27.0001 16.9698ZM29.2162 13.8929C29.2216 13.891 29.2269 13.8889 29.2323 13.887C29.6269 13.7516 29.9496 13.5909 30.2065 13.4318C30.3284 13.3564 30.4 13.2236 30.4 13.0827C30.4 12.8548 30.1396 12.7217 29.9466 12.8501C29.6543 13.0445 29.2413 13.2526 28.6818 13.4008C28.6649 13.4052 28.6487 13.4101 28.6316 13.4145C28.5542 13.4341 28.4734 13.4523 28.3904 13.4694C28.3652 13.4747 28.3394 13.4795 28.3138 13.4843C28.2449 13.4978 28.1742 13.51 28.1016 13.5214C28.0795 13.5248 28.0579 13.5286 28.0354 13.5318C27.941 13.5454 27.8437 13.5575 27.7428 13.5675C27.7255 13.5691 27.7074 13.5704 27.6897 13.572C27.6026 13.58 27.5127 13.5864 27.4207 13.5914C27.3947 13.5928 27.3687 13.5942 27.3423 13.5953C27.2313 13.6001 27.118 13.6033 27.0001 13.6033C26.8824 13.6033 26.7695 13.6001 26.659 13.5953C26.6313 13.5942 26.6043 13.5928 26.5774 13.5913C26.4888 13.5864 26.4025 13.5803 26.3185 13.5725C26.2969 13.5706 26.275 13.5691 26.2538 13.5671C26.1563 13.5573 26.0625 13.5457 25.971 13.5325C25.9408 13.5282 25.9119 13.5233 25.8823 13.5185C25.821 13.5088 25.761 13.4983 25.7025 13.4872C25.6673 13.4805 25.632 13.4739 25.5978 13.4667C25.5384 13.4542 25.4809 13.4409 25.4244 13.4272C25.3721 13.4145 25.3215 13.4012 25.2716 13.3875C24.7368 13.2405 24.3392 13.0391 24.055 12.8506C23.8613 12.722 23.6 12.8544 23.6 13.083C23.6 13.2237 23.6715 13.3563 23.7931 13.4317C24.0497 13.5904 24.3717 13.7509 24.7655 13.8862C24.772 13.8885 24.7783 13.891 24.7851 13.8933C24.8639 13.92 24.9464 13.9452 25.0306 13.9699V15.296H24.7445C24.6171 15.296 24.5138 15.3968 24.5138 15.5211C24.5138 15.7325 24.6896 15.9038 24.906 15.9038H25.0306V17.2299C24.9464 17.2546 24.8639 17.28 24.7851 17.3066C24.7783 17.3089 24.772 17.3113 24.7655 17.3138C24.3717 17.4491 24.0497 17.6094 23.7931 17.7683C23.6715 17.8436 23.6 17.9761 23.6 18.117C23.6 18.3455 23.8613 18.4779 24.055 18.3494C24.3392 18.1608 24.7368 17.9595 25.2716 17.8124C25.3215 17.7987 25.3721 17.7854 25.4244 17.7726C25.4809 17.7589 25.5384 17.7456 25.5978 17.7332C25.632 17.726 25.6673 17.7193 25.7025 17.7127C25.761 17.7015 25.821 17.6911 25.8823 17.6815C25.9119 17.6767 25.9408 17.6717 25.971 17.6674C26.0625 17.6542 26.1563 17.6425 26.2538 17.6329C26.275 17.6307 26.2969 17.6292 26.3185 17.6273C26.4025 17.6197 26.4888 17.6135 26.5774 17.6086C26.6043 17.6073 26.6313 17.6058 26.659 17.6045C26.7695 17.5998 26.8824 17.5965 27.0001 17.5965C27.118 17.5965 27.2313 17.5998 27.3423 17.6045C27.3687 17.6056 27.3947 17.6071 27.4207 17.6085C27.5127 17.6135 27.6026 17.6199 27.6897 17.6279C27.7074 17.6295 27.7255 17.6307 27.7428 17.6323C27.8437 17.6424 27.941 17.6545 28.0354 17.6682C28.0579 17.6714 28.0795 17.6751 28.1016 17.6786C28.1742 17.6899 28.2449 17.7022 28.3138 17.7155C28.3394 17.7204 28.3652 17.7253 28.3904 17.7304C28.4734 17.7475 28.5542 17.7657 28.6316 17.7854C28.6487 17.7897 28.6649 17.7948 28.6818 17.7991C29.2413 17.9474 29.6543 18.1555 29.9466 18.3499C30.1396 18.4783 30.4 18.3452 30.4 18.1173C30.4 17.9763 30.3284 17.8435 30.2065 17.768C29.9496 17.609 29.6269 17.4482 29.2323 17.3128C29.2269 17.3109 29.2216 17.3089 29.2162 17.3071C29.1371 17.2803 29.0542 17.2548 28.9694 17.2299V15.9038H29.2555C29.3829 15.9038 29.4862 15.803 29.4862 15.6788C29.4862 15.4674 29.3106 15.296 29.0938 15.296H28.9694V13.9699C29.0542 13.9452 29.1371 13.9197 29.2162 13.8929Z" fill="white"/>
<path d="M20.2915 8C20.6211 8.02504 20.9514 8.03963 21.2799 8.07512C23.2034 8.28363 24.9749 8.91864 26.5943 9.98018C26.6053 9.98843 26.6158 9.99729 26.6258 10.0067L25.6021 11.0284C25.3792 11.2508 25.1579 11.4746 24.9324 11.6942C24.9034 11.7129 24.8671 11.7161 24.8354 11.7027C23.2049 10.7646 21.4499 10.3332 19.5703 10.4084C15.365 10.5778 11.6989 13.5563 10.6906 17.6405C10.0665 20.1711 10.4137 22.5752 11.6989 24.8442C11.7112 24.8658 11.7119 24.9134 11.6971 24.9271C11.1392 25.4892 10.5793 26.0498 10.0176 26.609C10.0121 26.6145 10.0053 26.6189 9.99252 26.6292C9.93962 26.5473 9.88639 26.468 9.83632 26.3871C8.45025 24.1464 7.83838 21.711 8.03637 19.0823C8.44909 13.6177 12.5163 9.14075 17.9282 8.19004C18.4754 8.09403 19.0351 8.06965 19.5887 8.01211L19.7018 8H20.2915Z" fill="white"/>
</svg>
