<?xml version="1.0" encoding="UTF-8"?>
<svg width="200px" height="200px" viewBox="0 0 200 200" version="1.1" xmlns="http://www.w3.org/2000/svg" xmlns:xlink="http://www.w3.org/1999/xlink">
    <title>200px_giveth</title>
    <g id="200px_giveth" stroke="none" stroke-width="1" fill="none" fill-rule="evenodd">
        <g id="Group-5">
            <path d="M100,0 C155.23125,0 200,44.76875 200,100 C200,155.23125 155.23125,200 100,200 C44.76875,200 0,155.23125 0,100 C0,44.76875 44.76875,0 100,0" id="Fill-1" fill="#303C73"></path>
            <g id="giveth-logo-blue" transform="translate(40.000000, 40.000000)" fill="#FFFFFF">
                <path d="M119.995855,61.4816064 C119.878124,63.1681012 119.83667,64.865375 119.630227,66.5394325 C117.441434,84.3164472 109.150552,98.5612752 94.5967382,108.992005 C83.7249049,116.786032 71.4543999,120.423521 58.0894984,119.960854 C42.6344657,119.429368 29.3101895,113.676713 18.1373972,102.980654 C18.0345903,102.881985 18.0370776,102.488138 18.1373972,102.382836 C32.0727114,88.4243416 46.0210145,74.4799429 59.9823067,60.5496398 C60.3124803,60.2473608 60.7396134,60.0727314 61.1869719,60.0571236 C80.7915909,60.0328019 100.395934,60.0258923 120,60.0363948 L119.995855,61.4816064 Z" id="Path" fill-rule="nonzero"></path>
                <path d="M88.3915346,36.4800975 L88.3915346,30.5972166 C90.3472038,30.9397967 92.5378591,31.1500935 95.0003476,31.1500935 C97.4628361,31.1500935 99.6527962,30.9397967 101.609161,30.5972166 L101.609161,36.4800975 L88.3915346,36.4800975 Z M95.0003476,44.8492282 C92.5378591,44.8492282 90.3472038,45.0595249 88.3915346,45.4027834 L88.3915346,39.5192241 L101.609161,39.5192241 L101.609161,45.4027834 C99.6527962,45.0595249 97.4628361,44.8492282 95.0003476,44.8492282 L95.0003476,44.8492282 Z M106.080851,29.4643279 C106.107964,29.4548306 106.134383,29.444655 106.161497,29.4351577 C108.134547,28.758138 109.748165,27.9542618 111.032246,27.1592046 C111.641959,26.7820273 112,26.1178967 112,25.4137419 C112,24.2740694 110.697843,23.6085821 109.73287,24.2503262 C108.271506,25.2224397 106.206686,26.2630693 103.409099,27.0038564 C103.324282,27.0262428 103.243636,27.0506644 103.158123,27.0723724 C102.770882,27.170737 102.366956,27.2616395 101.951907,27.3471149 C101.826071,27.3735716 101.696759,27.3973148 101.568838,27.4217363 C101.224701,27.4888956 100.870831,27.5499495 100.507924,27.6069331 C100.397383,27.6238925 100.289623,27.642887 100.176996,27.6591681 C99.7049381,27.7270057 99.2182803,27.7873812 98.7142419,27.8375811 C98.6273387,27.8457216 98.5369594,27.851827 98.4486658,27.8599675 C98.0127594,27.8999917 97.5636438,27.9318754 97.1034046,27.9569754 C96.9733974,27.9637591 96.8433902,27.9712213 96.7112974,27.9766483 C96.1565075,28.0003914 95.5898988,28.0166725 95.0003476,28.0166725 C94.4121869,28.0166725 93.8476638,28.0003914 93.2949596,27.9766483 C93.1566098,27.9712213 93.021736,27.9637591 92.8868623,27.956297 C92.4440037,27.9318754 92.0122687,27.9013485 91.5923525,27.862681 C91.4845926,27.8531838 91.374747,27.8457216 91.2690727,27.835546 C90.7817197,27.7867029 90.3124425,27.7283625 89.8549842,27.66256 C89.7041202,27.6408519 89.5595133,27.6164304 89.4114303,27.5926872 C89.1048359,27.5438441 88.8051937,27.4916091 88.5125038,27.4359822 C88.3366118,27.4027418 88.1600245,27.3695013 87.9889991,27.3335474 C87.6921378,27.2711367 87.4043145,27.2046558 87.122053,27.1361398 C86.8606482,27.0723724 86.6075861,27.0058915 86.3580002,26.9373755 C83.6841632,26.2026938 81.6958184,25.1953047 80.2747776,24.2530398 C79.3063286,23.6099388 78,24.2720343 78,25.4150987 C78,26.1185751 78.3573459,26.7813489 78.9656681,27.1585262 C80.2483591,27.9522267 81.8585012,28.7547461 83.8273796,29.4310875 C83.8600552,29.4426199 83.8913404,29.4548306 83.9254064,29.466363 C84.3195992,29.6000032 84.7318679,29.7261812 85.1531745,29.8496457 L85.1531745,36.4800975 L83.7224006,36.4800975 C83.0855741,36.4800975 82.5690216,36.9841312 82.5690216,37.6055241 C82.5690216,38.6624346 83.4477865,39.5192241 84.5302525,39.5192241 L85.1531745,39.5192241 L85.1531745,46.1496759 C84.7318679,46.2731404 84.3195992,46.3999968 83.9254064,46.5329586 C83.8913404,46.544491 83.8600552,46.5567018 83.8273796,46.5689125 C81.8585012,47.2452539 80.2483591,48.0470949 78.9656681,48.8414738 C78.3573459,49.2179727 78,49.8807465 78,50.5849013 C78,51.7272873 79.3063286,52.3893828 80.2747776,51.7469602 C81.6958184,50.8040169 83.6841632,49.7973062 86.3580002,49.0619461 C86.6075861,48.9934301 86.8606482,48.9269492 87.122053,48.8631818 C87.4043145,48.7946658 87.6921378,48.7281849 87.9889991,48.6657743 C88.1600245,48.6298203 88.3366118,48.5965799 88.5125038,48.5633394 C88.8051937,48.5077125 89.1048359,48.4554775 89.4114303,48.4073128 C89.5595133,48.3835696 89.7041202,48.3584697 89.8549842,48.3367617 C90.3124425,48.2709591 90.7817197,48.2126188 91.2690727,48.164454 C91.374747,48.1536 91.4845926,48.1461379 91.5923525,48.1366406 C92.0122687,48.0986515 92.4440037,48.0674462 92.8868623,48.0430246 C93.021736,48.0362409 93.1566098,48.0287787 93.2949596,48.0226734 C93.8476638,47.9989302 94.4121869,47.9826491 95.0003476,47.9826491 C95.5898988,47.9826491 96.1565075,47.9989302 96.7112974,48.0226734 C96.8433902,48.0281004 96.9733974,48.0355625 97.1034046,48.0423463 C97.5636438,48.0674462 98.0127594,48.0993299 98.4486658,48.1393541 C98.5369594,48.1474946 98.6273387,48.1536 98.7142419,48.1617405 C99.2182803,48.2119404 99.7049381,48.2723159 100.176996,48.3408319 C100.289623,48.357113 100.397383,48.3754291 100.507924,48.3930669 C100.870831,48.4493722 101.224701,48.5111044 101.568838,48.5775853 C101.696759,48.6020069 101.826071,48.6264284 101.951907,48.6522067 C102.366956,48.7376822 102.770882,48.8285846 103.158123,48.9269492 C103.243636,48.9486573 103.324282,48.9737572 103.409099,48.9954652 C106.206686,49.7369307 108.271506,50.7775603 109.73287,51.7496738 C110.697843,52.3914179 112,51.7259306 112,50.5862581 C112,49.8814249 111.641959,49.2172943 111.032246,48.840117 C109.748165,48.0450598 108.134547,47.2411836 106.161497,46.5641639 C106.134383,46.5546666 106.107964,46.544491 106.080851,46.5356721 C105.685267,46.4013536 105.270913,46.2738188 104.846825,46.1496759 L104.846825,39.5192241 L106.277599,39.5192241 C106.914426,39.5192241 107.430978,39.0151904 107.430978,38.3937975 C107.430978,37.336887 106.552909,36.4800975 105.469052,36.4800975 L104.846825,36.4800975 L104.846825,29.8496457 C105.270913,29.7261812 105.685267,29.5986464 106.080851,29.4643279 L106.080851,29.4643279 Z" id="Fill-4"></path>
                <path d="M61.4572546,0 C63.1054819,0.125201923 64.7570255,0.198167282 66.3994492,0.375605768 C76.0168721,1.41812597 84.8742975,4.59322462 92.9717254,9.90090172 C93.0266549,9.94216591 93.0792451,9.98645585 93.1292521,10.033566 L88.0104617,15.1419703 C86.8961672,16.2538629 85.7893345,17.3732178 84.6617745,18.4710148 C84.5171028,18.5646319 84.3354458,18.5804699 84.176758,18.5133015 C76.0246103,13.8230661 67.249541,11.6658895 57.8515501,12.0417717 C36.8250448,12.8891648 18.4947343,27.7815604 13.453049,48.2027403 C10.3323611,60.8555968 12.0684718,72.8758106 18.4947343,84.2210947 C18.5560868,84.3288845 18.5594031,84.566851 18.4856143,84.6356706 C15.6960089,87.4459425 12.8967309,90.2490284 10.0877801,93.0449283 C10.0604202,93.0722903 10.0264276,93.0946774 9.9625878,93.1460848 C9.69810867,92.7364838 9.43197137,92.3401492 9.18158674,91.9355231 C2.25123865,80.7320239 -0.80809673,68.5551005 0.181834555,55.4113861 C2.24543503,28.0883466 22.5813099,5.70373528 49.6410899,0.95020797 C52.3770809,0.470129074 55.1752535,0.348243759 57.9435789,0.0605280819 L58.509017,0 L61.4572546,0 Z" id="Path" fill-rule="nonzero"></path>
            </g>
        </g>
    </g>
</svg>
