<svg width="64" height="64" viewBox="0 0 64 64" fill="none" xmlns="http://www.w3.org/2000/svg">
<path fill-rule="evenodd" clip-rule="evenodd" d="M32 0C49.674 0 64 14.326 64 32C64 49.674 49.674 64 32 64C14.326 64 0 49.674 0 32C0 14.326 14.326 0 32 0Z" fill="#303C73"/>
<path d="M51.1987 32.4741C51.161 33.0138 51.1477 33.5569 51.0817 34.0926C50.3813 39.7813 47.7282 44.3396 43.071 47.6774C39.592 50.1715 35.6654 51.3355 31.3886 51.1875C26.443 51.0174 22.1793 49.1765 18.604 45.7538C18.5711 45.7222 18.5719 45.5962 18.604 45.5625C23.0633 41.0958 27.5267 36.6336 31.9943 32.1759C32.1 32.0792 32.2367 32.0233 32.3798 32.0183C38.6533 32.0105 44.9267 32.0083 51.2 32.0116L51.1987 32.4741Z" fill="white"/>
<path fill-rule="evenodd" clip-rule="evenodd" d="M41.0853 24.4736V22.5911C41.7111 22.7007 42.4121 22.768 43.2001 22.768C43.9881 22.768 44.6889 22.7007 45.3149 22.5911V24.4736H41.0853ZM43.2001 27.1518C42.4121 27.1518 41.7111 27.219 41.0853 27.3289V25.4462H45.3149V27.3289C44.6889 27.219 43.9881 27.1518 43.2001 27.1518ZM46.7459 22.2286C46.7545 22.2255 46.763 22.2223 46.7717 22.2192C47.4031 22.0026 47.9194 21.7454 48.3303 21.4909C48.5254 21.3702 48.64 21.1577 48.64 20.9324C48.64 20.5677 48.2233 20.3547 47.9145 20.5601C47.4469 20.8712 46.7861 21.2042 45.8909 21.4412C45.8638 21.4484 45.838 21.4562 45.8106 21.4632C45.6867 21.4946 45.5574 21.5237 45.4246 21.5511C45.3843 21.5595 45.343 21.5671 45.302 21.575C45.1919 21.5964 45.0787 21.616 44.9625 21.6342C44.9272 21.6396 44.8927 21.6457 44.8566 21.6509C44.7056 21.6726 44.5498 21.692 44.3886 21.708C44.3607 21.7106 44.3318 21.7126 44.3036 21.7152C44.1641 21.728 44.0204 21.7382 43.8731 21.7462C43.8315 21.7484 43.7899 21.7508 43.7476 21.7525C43.5701 21.7601 43.3888 21.7653 43.2001 21.7653C43.0119 21.7653 42.8312 21.7601 42.6544 21.7525C42.6101 21.7508 42.567 21.7484 42.5238 21.746C42.3821 21.7382 42.2439 21.7284 42.1096 21.7161C42.0751 21.713 42.0399 21.7106 42.0061 21.7074C41.8502 21.6917 41.7 21.6731 41.5536 21.652C41.5053 21.6451 41.459 21.6373 41.4117 21.6297C41.3135 21.614 41.2177 21.5973 41.124 21.5795C41.0677 21.5689 41.0112 21.5582 40.9565 21.5467C40.8615 21.5268 40.7694 21.5055 40.6791 21.4836C40.5954 21.4632 40.5144 21.4419 40.4346 21.42C39.5789 21.1849 38.9427 20.8625 38.4879 20.561C38.178 20.3552 37.76 20.5671 37.76 20.9328C37.76 21.1579 37.8744 21.37 38.069 21.4907C38.4795 21.7447 38.9947 22.0015 39.6248 22.2179C39.6352 22.2216 39.6452 22.2255 39.6561 22.2292C39.7823 22.272 39.9142 22.3124 40.049 22.3519V24.4736H39.5912C39.3874 24.4736 39.2221 24.6349 39.2221 24.8338C39.2221 25.172 39.5033 25.4462 39.8497 25.4462H40.049V27.5679C39.9142 27.6074 39.7823 27.648 39.6561 27.6905C39.6452 27.6942 39.6352 27.6981 39.6248 27.702C38.9947 27.9185 38.4795 28.1751 38.069 28.4293C37.8744 28.5498 37.76 28.7618 37.76 28.9872C37.76 29.3527 38.178 29.5646 38.4879 29.359C38.9427 29.0573 39.5789 28.7351 40.4346 28.4998C40.5144 28.4779 40.5954 28.4566 40.6791 28.4362C40.7694 28.4143 40.8615 28.393 40.9565 28.373C41.0112 28.3615 41.0677 28.3509 41.124 28.3403C41.2177 28.3225 41.3135 28.3058 41.4117 28.2903C41.459 28.2827 41.5053 28.2747 41.5536 28.2678C41.7 28.2467 41.8502 28.228 42.0061 28.2126C42.0399 28.2092 42.0751 28.2068 42.1096 28.2037C42.2439 28.1916 42.3821 28.1816 42.5238 28.1738C42.567 28.1716 42.6101 28.1692 42.6544 28.1673C42.8312 28.1597 43.0119 28.1544 43.2001 28.1544C43.3888 28.1544 43.5701 28.1597 43.7476 28.1673C43.7899 28.169 43.8315 28.1714 43.8731 28.1735C44.0204 28.1816 44.1641 28.1918 44.3036 28.2046C44.3318 28.2072 44.3607 28.2092 44.3886 28.2118C44.5498 28.2278 44.7056 28.2471 44.8566 28.2691C44.8927 28.2743 44.9272 28.2801 44.9625 28.2858C45.0787 28.3038 45.1919 28.3236 45.302 28.3448C45.343 28.3526 45.3843 28.3605 45.4246 28.3687C45.5574 28.3961 45.6867 28.4251 45.8106 28.4566C45.838 28.4636 45.8638 28.4716 45.8909 28.4785C46.7861 28.7158 47.4469 29.0488 47.9145 29.3599C48.2233 29.5653 48.64 29.3523 48.64 28.9876C48.64 28.7621 48.5254 28.5495 48.3303 28.4288C47.9194 28.1744 47.4031 27.9172 46.7717 27.7005C46.763 27.6975 46.7545 27.6942 46.7459 27.6914C46.6193 27.6484 46.4867 27.6076 46.351 27.5679V25.4462H46.8088C47.0126 25.4462 47.1779 25.2849 47.1779 25.086C47.1779 24.7478 46.8969 24.4736 46.5501 24.4736H46.351V22.3519C46.4867 22.3124 46.6193 22.2716 46.7459 22.2286Z" fill="white"/>
<path d="M32.4663 12.8C32.9938 12.8401 33.5222 12.8634 34.0478 12.9202C37.1254 13.2538 39.9598 14.2698 42.551 15.9683C42.5685 15.9815 42.5854 15.9957 42.6014 16.0107L40.9633 17.6454C40.6068 18.0012 40.2526 18.3594 39.8918 18.7107C39.8455 18.7407 39.7873 18.7458 39.7366 18.7243C37.1279 17.2234 34.3199 16.5331 31.3125 16.6534C24.584 16.9245 18.7183 21.6901 17.105 28.2249C16.1064 32.2738 16.6619 36.1203 18.7183 39.7507C18.7379 39.7852 18.739 39.8614 18.7154 39.8834C17.8227 40.7827 16.927 41.6797 16.0281 42.5744C16.0193 42.5831 16.0085 42.5903 15.988 42.6067C15.9034 42.4757 15.8182 42.3488 15.7381 42.2194C13.5204 38.6342 12.5414 34.7376 12.8582 30.5316C13.5185 21.7883 20.026 14.6252 28.6851 13.1041C29.5607 12.9504 30.4561 12.9114 31.3419 12.8194L31.5229 12.8H32.4663Z" fill="white"/>
</svg>
