<svg width="16" height="16" viewBox="0 0 16 16" fill="none" xmlns="http://www.w3.org/2000/svg">
<circle cx="8" cy="8" r="8" fill="white"/>
<path d="M12.0341 3.40112C11.9066 3.27395 11.7551 3.17308 11.5885 3.10425C11.4219 3.03542 11.2432 3 11.0629 3C10.8825 3 10.7039 3.03542 10.5373 3.10425C10.3706 3.17308 10.2192 3.27395 10.0917 3.40112L6.74703 6.73534C6.61947 6.86247 6.51828 7.01341 6.44924 7.17952C6.3802 7.34565 6.34463 7.5237 6.34463 7.70351C6.34463 7.88332 6.3802 8.06137 6.44924 8.2275C6.51828 8.39364 6.61947 8.54451 6.74703 8.67169L10.0917 12.0059C10.2192 12.133 10.3706 12.234 10.5373 12.3028C10.7039 12.3716 10.8825 12.407 11.0629 12.407C11.2432 12.407 11.4219 12.3716 11.5885 12.3028C11.7551 12.234 11.9066 12.133 12.0341 12.0059C12.1616 11.8788 12.2629 11.7278 12.3319 11.5617C12.4009 11.3956 12.4365 11.2175 12.4365 11.0377C12.4365 10.8579 12.4009 10.6799 12.3319 10.5138C12.2629 10.3476 12.1616 10.1967 12.0341 10.0696L9.98339 8.02674C9.94066 7.98435 9.90677 7.93397 9.88372 7.8785C9.86058 7.82303 9.84874 7.76357 9.84874 7.70351C9.84874 7.64345 9.86058 7.58398 9.88372 7.52852C9.90677 7.47305 9.94066 7.42267 9.98339 7.38028L12.0341 5.33747C12.1616 5.21034 12.2629 5.05941 12.3319 4.89328C12.4009 4.72716 12.4365 4.5491 12.4365 4.36929C12.4365 4.18948 12.4009 4.01143 12.3319 3.8453C12.2629 3.67919 12.1616 3.52825 12.0341 3.40112Z" fill="#04795B"/>
<path d="M10.0912 12.0055C10.6275 12.5401 11.497 12.5401 12.0333 12.0055C12.5695 11.4709 12.5695 10.6041 12.0333 10.0695L8.68855 6.73519C8.15225 6.20056 7.28275 6.20056 6.74646 6.73519C6.21017 7.2698 6.21017 8.13659 6.74646 8.67123L10.0912 12.0055Z" fill="#0DB50A"/>
<path d="M8.68946 6.73534L5.3448 3.40112C5.21728 3.27395 5.06587 3.17308 4.89923 3.10425C4.73258 3.03542 4.55398 3 4.3736 3C4.19322 3 4.01458 3.03542 3.84794 3.10425C3.6813 3.17308 3.52989 3.27395 3.40236 3.40112C3.2748 3.52825 3.17361 3.67919 3.10457 3.8453C3.03553 4.01143 3 4.18948 3 4.36929C3 4.5491 3.03553 4.72716 3.10457 4.89328C3.17361 5.05941 3.2748 5.21034 3.40236 5.33747L5.4516 7.38028C5.49428 7.42267 5.52811 7.47305 5.55121 7.52852C5.57432 7.58398 5.58623 7.64345 5.58623 7.70351C5.58623 7.76357 5.57432 7.82303 5.55121 7.8785C5.52811 7.93397 5.49428 7.98435 5.4516 8.02674L3.40236 10.0696C3.2748 10.1967 3.17361 10.3476 3.10457 10.5138C3.03553 10.6799 3 10.8579 3 11.0377C3 11.2175 3.03553 11.3956 3.10457 11.5617C3.17361 11.7278 3.2748 11.8788 3.40236 12.0059C3.52989 12.133 3.6813 12.234 3.84794 12.3028C4.01458 12.3716 4.19322 12.407 4.3736 12.407C4.55398 12.407 4.73258 12.3716 4.89923 12.3028C5.06587 12.234 5.21728 12.133 5.3448 12.0059L7.71746 9.6391L8.68946 8.67169C8.817 8.54451 8.91822 8.39364 8.98728 8.2275C9.05624 8.06137 9.09177 7.88332 9.09177 7.70351C9.09177 7.5237 9.05624 7.34565 8.98728 7.17952C8.91822 7.01341 8.817 6.86247 8.68946 6.73534Z" fill="#0AE33A"/>
<path d="M11.0621 5.73903C11.8205 5.73903 12.4354 5.12612 12.4354 4.37006C12.4354 3.614 11.8205 3.00108 11.0621 3.00108C10.3037 3.00108 9.68884 3.614 9.68884 4.37006C9.68884 5.12612 10.3037 5.73903 11.0621 5.73903Z" fill="#0AE33A"/>
</svg>
