<svg width="10" height="10" viewBox="0 0 10 10" fill="none" xmlns="http://www.w3.org/2000/svg">
<path d="M9.0341 0.401124C8.90656 0.273954 8.75515 0.173076 8.58852 0.104248C8.4219 0.0354205 8.24325 0 8.06286 0C7.88248 0 7.70392 0.0354205 7.53729 0.104248C7.37058 0.173076 7.21916 0.273954 7.09171 0.401124L3.74703 3.73534C3.61947 3.86247 3.51828 4.01341 3.44924 4.17952C3.3802 4.34565 3.34463 4.5237 3.34463 4.70351C3.34463 4.88332 3.3802 5.06137 3.44924 5.2275C3.51828 5.39364 3.61947 5.54451 3.74703 5.67169L7.09171 9.00585C7.21916 9.13303 7.37058 9.23397 7.53729 9.30275C7.70392 9.37163 7.88248 9.40698 8.06286 9.40698C8.24325 9.40698 8.4219 9.37163 8.58852 9.30275C8.75515 9.23397 8.90656 9.13303 9.0341 9.00585C9.16165 8.87876 9.26286 8.72781 9.33192 8.56173C9.40088 8.39556 9.4365 8.21754 9.4365 8.03771C9.4365 7.85787 9.40088 7.67986 9.33192 7.51378C9.26286 7.34761 9.16165 7.19665 9.0341 7.06956L6.98339 5.02674C6.94066 4.98435 6.90677 4.93397 6.88372 4.8785C6.86058 4.82303 6.84874 4.76357 6.84874 4.70351C6.84874 4.64345 6.86058 4.58398 6.88372 4.52852C6.90677 4.47305 6.94066 4.42267 6.98339 4.38028L9.0341 2.33747C9.16165 2.21033 9.26286 2.05941 9.33192 1.89328C9.40088 1.72716 9.4365 1.5491 9.4365 1.36929C9.4365 1.18948 9.40088 1.01143 9.33192 0.845302C9.26286 0.679186 9.16165 0.528248 9.0341 0.401124Z" fill="#04795B"/>
<path d="M7.09116 9.00549C7.62748 9.54008 8.49696 9.54008 9.03328 9.00549C9.56951 8.4709 9.56951 7.60406 9.03328 7.06947L5.68855 3.73519C5.15225 3.20056 4.28275 3.20056 3.74646 3.73519C3.21017 4.2698 3.21017 5.13659 3.74646 5.67123L7.09116 9.00549Z" fill="#0DB50A"/>
<path d="M5.68946 3.73534L2.3448 0.401124C2.21728 0.273954 2.06587 0.173076 1.89923 0.104248C1.73258 0.0354205 1.55398 0 1.3736 0C1.19322 0 1.01458 0.0354205 0.847935 0.104248C0.6813 0.173076 0.529888 0.273954 0.402363 0.401124C0.274801 0.528248 0.173614 0.679186 0.104567 0.845302C0.03553 1.01143 0 1.18948 0 1.36929C0 1.5491 0.03553 1.72716 0.104567 1.89328C0.173614 2.05941 0.274801 2.21033 0.402363 2.33747L2.4516 4.38028C2.49428 4.42267 2.52811 4.47305 2.55121 4.52852C2.57432 4.58398 2.58623 4.64345 2.58623 4.70351C2.58623 4.76357 2.57432 4.82303 2.55121 4.8785C2.52811 4.93397 2.49428 4.98435 2.4516 5.02674L0.402363 7.06956C0.274801 7.19665 0.173614 7.34761 0.104567 7.51378C0.03553 7.67986 0 7.85787 0 8.03771C0 8.21754 0.03553 8.39556 0.104567 8.56173C0.173614 8.72781 0.274801 8.87876 0.402363 9.00585C0.529888 9.13303 0.6813 9.23397 0.847935 9.30275C1.01458 9.37163 1.19322 9.40698 1.3736 9.40698C1.55398 9.40698 1.73258 9.37163 1.89923 9.30275C2.06587 9.23397 2.21728 9.13303 2.3448 9.00585L4.71746 6.6391L5.68946 5.67169C5.817 5.54451 5.91822 5.39364 5.98728 5.2275C6.05624 5.06137 6.09177 4.88332 6.09177 4.70351C6.09177 4.5237 6.05624 4.34565 5.98728 4.17952C5.91822 4.01341 5.817 3.86247 5.68946 3.73534Z" fill="#0AE33A"/>
<path d="M8.06212 2.73903C8.82055 2.73903 9.4354 2.12612 9.4354 1.37006C9.4354 0.613997 8.82055 0.00107809 8.06212 0.00107809C7.30369 0.00107809 6.68884 0.613997 6.68884 1.37006C6.68884 2.12612 7.30369 2.73903 8.06212 2.73903Z" fill="#0AE33A"/>
</svg>
