<svg width="24" height="24" viewBox="0 0 24 24" fill="none" xmlns="http://www.w3.org/2000/svg">
<circle cx="12" cy="12" r="12" fill="white"/>
<path d="M18.5512 5.60169C18.3598 5.41093 18.1327 5.25961 17.8828 5.15637C17.6328 5.05313 17.3649 5 17.0943 5C16.8237 5 16.5559 5.05313 16.3059 5.15637C16.0559 5.25961 15.8287 5.41093 15.6376 5.60169L10.6205 10.603C10.4292 10.7937 10.2774 11.0201 10.1739 11.2693C10.0703 11.5185 10.0169 11.7855 10.0169 12.0553C10.0169 12.325 10.0703 12.5921 10.1739 12.8413C10.2774 13.0905 10.4292 13.3168 10.6205 13.5075L15.6376 18.5088C15.8287 18.6995 16.0559 18.851 16.3059 18.9541C16.5559 19.0574 16.8237 19.1105 17.0943 19.1105C17.3649 19.1105 17.6328 19.0574 17.8828 18.9541C18.1327 18.851 18.3598 18.6995 18.5512 18.5088C18.7425 18.3181 18.8943 18.0917 18.9979 17.8426C19.1013 17.5933 19.1548 17.3263 19.1548 17.0566C19.1548 16.7868 19.1013 16.5198 18.9979 16.2707C18.8943 16.0214 18.7425 15.795 18.5512 15.6043L15.4751 12.5401C15.411 12.4765 15.3602 12.401 15.3256 12.3178C15.2909 12.2345 15.2731 12.1454 15.2731 12.0553C15.2731 11.9652 15.2909 11.876 15.3256 11.7928C15.3602 11.7096 15.411 11.634 15.4751 11.5704L18.5512 8.5062C18.7425 8.3155 18.8943 8.08911 18.9979 7.83992C19.1013 7.59075 19.1548 7.32366 19.1548 7.05393C19.1548 6.78422 19.1013 6.51714 18.9979 6.26795C18.8943 6.01878 18.7425 5.79237 18.5512 5.60169Z" fill="#04795B"/>
<path d="M15.6367 18.5082C16.4412 19.3101 17.7454 19.3101 18.5499 18.5082C19.3543 17.7064 19.3543 16.4061 18.5499 15.6042L13.5328 10.6028C12.7284 9.80084 11.4241 9.80084 10.6197 10.6028C9.81525 11.4047 9.81525 12.7049 10.6197 13.5068L15.6367 18.5082Z" fill="#0DB50A"/>
<path d="M13.5342 10.603L8.5172 5.60169C8.32592 5.41093 8.09881 5.25961 7.84884 5.15637C7.59888 5.05313 7.33097 5 7.06041 5C6.78983 5 6.52187 5.05313 6.2719 5.15637C6.02195 5.25961 5.79483 5.41093 5.60354 5.60169C5.4122 5.79237 5.26042 6.01878 5.15685 6.26795C5.05329 6.51714 5 6.78422 5 7.05393C5 7.32366 5.05329 7.59075 5.15685 7.83992C5.26042 8.08911 5.4122 8.3155 5.60354 8.5062L8.6774 11.5704C8.74142 11.634 8.79216 11.7096 8.82682 11.7928C8.86147 11.876 8.87935 11.9652 8.87935 12.0553C8.87935 12.1454 8.86147 12.2345 8.82682 12.3178C8.79216 12.401 8.74142 12.4765 8.6774 12.5401L5.60354 15.6043C5.4122 15.795 5.26042 16.0214 5.15685 16.2707C5.05329 16.5198 5 16.7868 5 17.0566C5 17.3263 5.05329 17.5933 5.15685 17.8426C5.26042 18.0917 5.4122 18.3181 5.60354 18.5088C5.79483 18.6995 6.02195 18.851 6.2719 18.9541C6.52187 19.0574 6.78983 19.1105 7.06041 19.1105C7.33097 19.1105 7.59888 19.0574 7.84884 18.9541C8.09881 18.851 8.32592 18.6995 8.5172 18.5088L12.0762 14.9587L13.5342 13.5075C13.7255 13.3168 13.8773 13.0905 13.9809 12.8413C14.0844 12.5921 14.1377 12.325 14.1377 12.0553C14.1377 11.7855 14.0844 11.5185 13.9809 11.2693C13.8773 11.0201 13.7255 10.7937 13.5342 10.603Z" fill="#0AE33A"/>
<path d="M17.0932 9.10855C18.2308 9.10855 19.1531 8.18919 19.1531 7.05508C19.1531 5.921 18.2308 5.00162 17.0932 5.00162C15.9555 5.00162 15.0333 5.921 15.0333 7.05508C15.0333 8.18919 15.9555 9.10855 17.0932 9.10855Z" fill="#0AE33A"/>
</svg>
