<?xml version="1.0" encoding="UTF-8"?>
<svg xmlns="http://www.w3.org/2000/svg" xmlns:xlink="http://www.w3.org/1999/xlink" width="24pt" height="24pt" viewBox="0 0 20 24" version="1.1">
<defs>
<filter id="alpha" filterUnits="objectBoundingBox" x="0%" y="0%" width="100%" height="100%">
  <feColorMatrix type="matrix" in="SourceGraphic" values="0 0 0 0 1 0 0 0 0 1 0 0 0 0 1 0 0 0 1 0"/>
</filter>
<mask id="mask0">
  <g filter="url(#alpha)">
<rect x="0" y="0" width="20" height="24" style="fill:rgb(0%,0%,0%);fill-opacity:0.4;stroke:none;"/>
  </g>
</mask>
<linearGradient id="linear0" gradientUnits="userSpaceOnUse" x1="199.7294" y1="68.6352" x2="199.7294" y2="342.7659" gradientTransform="matrix(0.0846382,0,0,0.0838095,-6.931866,-4.762328)">
<stop offset="0" style="stop-color:rgb(98.823529%,81.176471%,21.568627%);stop-opacity:1;"/>
<stop offset="1" style="stop-color:rgb(99.215686%,67.45098%,25.490196%);stop-opacity:1;"/>
</linearGradient>
<clipPath id="clip1">
  <rect x="0" y="0" width="20" height="24"/>
</clipPath>
<g id="surface5" clip-path="url(#clip1)">
<path style=" stroke:none;fill-rule:nonzero;fill:url(#linear0);" d="M 8.894531 1.28125 L 1.296875 5.804688 C 0.492188 6.285156 0 7.148438 0 8.078125 L 0 16.976562 C 0 17.824219 0.449219 18.613281 1.175781 19.046875 L 8.894531 23.675781 C 9.539062 24.058594 10.34375 24.058594 10.996094 23.683594 L 18.832031 19.082031 C 19.535156 18.671875 19.957031 17.925781 19.957031 17.121094 L 19.957031 8.101562 C 19.957031 7.179688 19.464844 6.324219 18.671875 5.847656 L 10.976562 1.273438 C 10.335938 0.894531 9.53125 0.894531 8.894531 1.28125 Z M 8.894531 1.28125 "/>
</g>
<linearGradient id="linear1" gradientUnits="userSpaceOnUse" x1="200.2706" y1="57.2341" x2="200.2706" y2="331.3648" gradientTransform="matrix(0.0846382,0,0,0.0838095,-6.931866,-4.762328)">
<stop offset="0" style="stop-color:rgb(98.823529%,81.176471%,21.568627%);stop-opacity:1;"/>
<stop offset="1" style="stop-color:rgb(99.215686%,67.45098%,25.490196%);stop-opacity:1;"/>
</linearGradient>
</defs>
<g id="surface1">
<use xlink:href="#surface5" mask="url(#mask0)"/>
<path style=" stroke:none;fill-rule:nonzero;fill:url(#linear1);" d="M 8.9375 0.324219 L 1.335938 4.851562 C 0.535156 5.328125 0.0429688 6.191406 0.0429688 7.121094 L 0.0429688 16.023438 C 0.0429688 16.867188 0.492188 17.65625 1.21875 18.09375 L 8.9375 22.71875 C 9.582031 23.105469 10.386719 23.105469 11.035156 22.726562 L 18.875 18.125 C 19.578125 17.714844 20 16.96875 20 16.164062 L 20 7.148438 C 20 6.226562 19.507812 5.371094 18.714844 4.890625 L 11.027344 0.324219 C 10.386719 -0.0625 9.582031 -0.0625 8.9375 0.324219 Z M 8.9375 0.324219 "/>
<path style=" stroke:none;fill-rule:nonzero;fill:rgb(100%,100%,100%);fill-opacity:1;" d="M 9.980469 9.921875 L 12.46875 6.996094 L 15.378906 6.996094 L 11.492188 11.722656 L 15.378906 16.457031 L 12.425781 16.457031 L 10.019531 13.492188 L 7.652344 16.457031 L 4.738281 16.457031 L 8.539062 11.722656 L 4.738281 6.996094 L 7.726562 6.996094 Z M 9.980469 9.921875 "/>
</g>
</svg>
