<svg width="15" height="15" viewBox="0 0 15 15" fill="none" xmlns="http://www.w3.org/2000/svg">
<path d="M13.5512 0.601686C13.3598 0.410931 13.1327 0.259614 12.8828 0.156372C12.6328 0.0531307 12.3649 0 12.0943 0C11.8237 0 11.5559 0.0531307 11.3059 0.156372C11.0559 0.259614 10.8287 0.410931 10.6376 0.601686L5.62055 5.60302C5.42921 5.7937 5.27742 6.02011 5.17386 6.26928C5.0703 6.51847 5.01695 6.78555 5.01695 7.05526C5.01695 7.32499 5.0703 7.59206 5.17386 7.84125C5.27742 8.09047 5.42921 8.31676 5.62055 8.50753L10.6376 13.5088C10.8287 13.6995 11.0559 13.851 11.3059 13.9541C11.5559 14.0574 11.8237 14.1105 12.0943 14.1105C12.3649 14.1105 12.6328 14.0574 12.8828 13.9541C13.1327 13.851 13.3598 13.6995 13.5512 13.5088C13.7425 13.3181 13.8943 13.0917 13.9979 12.8426C14.1013 12.5933 14.1548 12.3263 14.1548 12.0566C14.1548 11.7868 14.1013 11.5198 13.9979 11.2707C13.8943 11.0214 13.7425 10.795 13.5512 10.6043L10.4751 7.54011C10.411 7.47652 10.3602 7.40095 10.3256 7.31776C10.2909 7.23455 10.2731 7.14536 10.2731 7.05526C10.2731 6.96518 10.2909 6.87597 10.3256 6.79278C10.3602 6.70958 10.411 6.63401 10.4751 6.57041L13.5512 3.5062C13.7425 3.3155 13.8943 3.08911 13.9979 2.83992C14.1013 2.59075 14.1548 2.32366 14.1548 2.05393C14.1548 1.78422 14.1013 1.51714 13.9979 1.26795C13.8943 1.01878 13.7425 0.792372 13.5512 0.601686Z" fill="#04795B"/>
<path d="M10.6367 13.5082C11.4412 14.3101 12.7454 14.3101 13.5499 13.5082C14.3543 12.7064 14.3543 11.4061 13.5499 10.6042L8.53283 5.60278C7.72838 4.80084 6.42413 4.80084 5.61969 5.60278C4.81525 6.40471 4.81525 7.70488 5.61969 8.50685L10.6367 13.5082Z" fill="#0DB50A"/>
<path d="M8.53419 5.60302L3.5172 0.601686C3.32592 0.410931 3.09881 0.259614 2.84884 0.156372C2.59888 0.0531307 2.33097 0 2.06041 0C1.78983 0 1.52187 0.0531307 1.2719 0.156372C1.02195 0.259614 0.794832 0.410931 0.603544 0.601686C0.412202 0.792372 0.260421 1.01878 0.156851 1.26795C0.0532949 1.51714 0 1.78422 0 2.05393C0 2.32366 0.0532949 2.59075 0.156851 2.83992C0.260421 3.08911 0.412202 3.3155 0.603544 3.5062L3.6774 6.57041C3.74142 6.63401 3.79216 6.70958 3.82682 6.79278C3.86147 6.87597 3.87935 6.96518 3.87935 7.05526C3.87935 7.14536 3.86147 7.23455 3.82682 7.31776C3.79216 7.40095 3.74142 7.47652 3.6774 7.54011L0.603544 10.6043C0.412202 10.795 0.260421 11.0214 0.156851 11.2707C0.0532949 11.5198 0 11.7868 0 12.0566C0 12.3263 0.0532949 12.5933 0.156851 12.8426C0.260421 13.0917 0.412202 13.3181 0.603544 13.5088C0.794832 13.6995 1.02195 13.851 1.2719 13.9541C1.52187 14.0574 1.78983 14.1105 2.06041 14.1105C2.33097 14.1105 2.59888 14.0574 2.84884 13.9541C3.09881 13.851 3.32592 13.6995 3.5172 13.5088L7.07619 9.95866L8.53419 8.50753C8.72551 8.31676 8.87733 8.09047 8.98091 7.84125C9.08436 7.59206 9.13765 7.32499 9.13765 7.05526C9.13765 6.78555 9.08436 6.51847 8.98091 6.26928C8.87733 6.02011 8.72551 5.7937 8.53419 5.60302Z" fill="#0AE33A"/>
<path d="M12.0932 4.10855C13.2308 4.10855 14.1531 3.18919 14.1531 2.05508C14.1531 0.920995 13.2308 0.00161713 12.0932 0.00161713C10.9555 0.00161713 10.0333 0.920995 10.0333 2.05508C10.0333 3.18919 10.9555 4.10855 12.0932 4.10855Z" fill="#0AE33A"/>
</svg>
