<?xml version="1.0" encoding="UTF-8"?>
<svg xmlns="http://www.w3.org/2000/svg" xmlns:xlink="http://www.w3.org/1999/xlink" width="32px" height="32px" viewBox="0 0 26 31" version="1.1">
<defs>
<filter id="alpha" filterUnits="objectBoundingBox" x="0%" y="0%" width="100%" height="100%">
  <feColorMatrix type="matrix" in="SourceGraphic" values="0 0 0 0 1 0 0 0 0 1 0 0 0 0 1 0 0 0 1 0"/>
</filter>
<mask id="mask0">
  <g filter="url(#alpha)">
<rect x="0" y="0" width="26" height="31" style="fill:rgb(0%,0%,0%);fill-opacity:0.4;stroke:none;"/>
  </g>
</mask>
<linearGradient id="linear0" gradientUnits="userSpaceOnUse" x1="199.7294" y1="68.6352" x2="199.7294" y2="342.7659" gradientTransform="matrix(0.11003,0,0,0.108254,-9.011426,-6.151341)">
<stop offset="0" style="stop-color:rgb(98.823529%,81.176471%,21.568627%);stop-opacity:1;"/>
<stop offset="1" style="stop-color:rgb(99.215686%,67.45098%,25.490196%);stop-opacity:1;"/>
</linearGradient>
<clipPath id="clip1">
  <rect x="0" y="0" width="26" height="31"/>
</clipPath>
<g id="surface5" clip-path="url(#clip1)">
<path style=" stroke:none;fill-rule:nonzero;fill:url(#linear0);" d="M 11.5625 1.652344 L 1.683594 7.5 C 0.636719 8.117188 0 9.230469 0 10.433594 L 0 21.929688 C 0 23.023438 0.582031 24.039062 1.53125 24.605469 L 11.5625 30.578125 C 12.398438 31.078125 13.445312 31.078125 14.292969 30.589844 L 24.480469 24.648438 C 25.394531 24.117188 25.945312 23.152344 25.945312 22.113281 L 25.945312 10.464844 C 25.945312 9.273438 25.308594 8.171875 24.273438 7.554688 L 14.269531 1.644531 C 13.433594 1.15625 12.390625 1.15625 11.5625 1.652344 Z M 11.5625 1.652344 "/>
</g>
<linearGradient id="linear1" gradientUnits="userSpaceOnUse" x1="200.2706" y1="57.2341" x2="200.2706" y2="331.3648" gradientTransform="matrix(0.11003,0,0,0.108254,-9.011426,-6.151341)">
<stop offset="0" style="stop-color:rgb(98.823529%,81.176471%,21.568627%);stop-opacity:1;"/>
<stop offset="1" style="stop-color:rgb(99.215686%,67.45098%,25.490196%);stop-opacity:1;"/>
</linearGradient>
</defs>
<g id="surface1">
<use xlink:href="#surface5" mask="url(#mask0)"/>
<path style=" stroke:none;fill-rule:nonzero;fill:url(#linear1);" d="M 11.617188 0.417969 L 1.738281 6.265625 C 0.691406 6.882812 0.0546875 7.996094 0.0546875 9.199219 L 0.0546875 20.695312 C 0.0546875 21.789062 0.636719 22.804688 1.585938 23.371094 L 11.617188 29.34375 C 12.457031 29.84375 13.5 29.84375 14.347656 29.355469 L 24.535156 23.414062 C 25.449219 22.882812 26 21.917969 26 20.878906 L 26 9.230469 C 26 8.039062 25.363281 6.9375 24.328125 6.320312 L 14.335938 0.417969 C 13.5 -0.078125 12.457031 -0.078125 11.617188 0.417969 Z M 11.617188 0.417969 "/>
<path style=" stroke:none;fill-rule:nonzero;fill:rgb(100%,100%,100%);fill-opacity:1;" d="M 12.972656 12.816406 L 16.207031 9.035156 L 19.992188 9.035156 L 14.941406 15.140625 L 19.992188 21.257812 L 16.152344 21.257812 L 13.027344 17.425781 L 9.945312 21.257812 L 6.160156 21.257812 L 11.101562 15.140625 L 6.160156 9.035156 L 10.046875 9.035156 Z M 12.972656 12.816406 "/>
</g>
</svg>
