<svg width="32" height="32" viewBox="0 0 32 32" fill="none" xmlns="http://www.w3.org/2000/svg">
<circle cx="16" cy="16" r="16" fill="white"/>
<path d="M25.0682 7.80225C24.8131 7.54791 24.5103 7.34615 24.177 7.2085C23.8438 7.07084 23.4865 7 23.1257 7C22.765 7 22.4078 7.07084 22.0746 7.2085C21.7412 7.34615 21.4383 7.54791 21.1834 7.80225L14.4941 14.4707C14.2389 14.7249 14.0366 15.0268 13.8985 15.359C13.7604 15.6913 13.6893 16.0474 13.6893 16.407C13.6893 16.7666 13.7604 17.1227 13.8985 17.455C14.0366 17.7873 14.2389 18.089 14.4941 18.3434L21.1834 25.0117C21.4383 25.2661 21.7412 25.4679 22.0746 25.6055C22.4078 25.7433 22.765 25.814 23.1257 25.814C23.4865 25.814 23.8438 25.7433 24.177 25.6055C24.5103 25.4679 24.8131 25.2661 25.0682 25.0117C25.3233 24.7575 25.5257 24.4556 25.6638 24.1235C25.8018 23.7911 25.873 23.4351 25.873 23.0754C25.873 22.7157 25.8018 22.3597 25.6638 22.0276C25.5257 21.6952 25.3233 21.3933 25.0682 21.1391L20.9668 17.0535C20.8813 16.9687 20.8135 16.8679 20.7674 16.757C20.7212 16.6461 20.6975 16.5271 20.6975 16.407C20.6975 16.2869 20.7212 16.168 20.7674 16.057C20.8135 15.9461 20.8813 15.8453 20.9668 15.7606L25.0682 11.6749C25.3233 11.4207 25.5257 11.1188 25.6638 10.7866C25.8018 10.4543 25.873 10.0982 25.873 9.73857C25.873 9.37896 25.8018 9.02286 25.6638 8.6906C25.5257 8.35837 25.3233 8.0565 25.0682 7.80225Z" fill="#04795B"/>
<path d="M21.1823 25.011C22.255 26.0802 23.9939 26.0802 25.0666 25.011C26.139 23.9418 26.139 22.2081 25.0666 21.1389L18.3771 14.4704C17.3045 13.4011 15.5655 13.4011 14.4929 14.4704C13.4203 15.5396 13.4203 17.2732 14.4929 18.3425L21.1823 25.011Z" fill="#0DB50A"/>
<path d="M18.3789 14.4707L11.6896 7.80225C11.4346 7.54791 11.1317 7.34615 10.7985 7.2085C10.4652 7.07084 10.108 7 9.74721 7C9.38644 7 9.02916 7.07084 8.69587 7.2085C8.3626 7.34615 8.05978 7.54791 7.80473 7.80225C7.5496 8.0565 7.34723 8.35837 7.20913 8.6906C7.07106 9.02286 7 9.37896 7 9.73857C7 10.0982 7.07106 10.4543 7.20913 10.7866C7.34723 11.1188 7.5496 11.4207 7.80473 11.6749L11.9032 15.7606C11.9886 15.8453 12.0562 15.9461 12.1024 16.057C12.1486 16.168 12.1725 16.2869 12.1725 16.407C12.1725 16.5271 12.1486 16.6461 12.1024 16.757C12.0562 16.8679 11.9886 16.9687 11.9032 17.0535L7.80473 21.1391C7.5496 21.3933 7.34723 21.6952 7.20913 22.0276C7.07106 22.3597 7 22.7157 7 23.0754C7 23.4351 7.07106 23.7911 7.20913 24.1235C7.34723 24.4556 7.5496 24.7575 7.80473 25.0117C8.05978 25.2661 8.3626 25.4679 8.69587 25.6055C9.02916 25.7433 9.38644 25.814 9.74721 25.814C10.108 25.814 10.4652 25.7433 10.7985 25.6055C11.1317 25.4679 11.4346 25.2661 11.6896 25.0117L16.4349 20.2782L18.3789 18.3434C18.634 18.089 18.8364 17.7873 18.9746 17.455C19.1125 17.1227 19.1835 16.7666 19.1835 16.407C19.1835 16.0474 19.1125 15.6913 18.9746 15.359C18.8364 15.0268 18.634 14.7249 18.3789 14.4707Z" fill="#0AE33A"/>
<path d="M23.1242 12.4781C24.6411 12.4781 25.8708 11.2522 25.8708 9.74011C25.8708 8.22799 24.6411 7.00216 23.1242 7.00216C21.6074 7.00216 20.3777 8.22799 20.3777 9.74011C20.3777 11.2522 21.6074 12.4781 23.1242 12.4781Z" fill="#0AE33A"/>
</svg>
