<svg width="19" height="19" viewBox="0 0 19 19" fill="none" xmlns="http://www.w3.org/2000/svg">
<path d="M18.0682 0.802247C17.8131 0.547908 17.5103 0.346152 17.177 0.208497C16.8438 0.0708409 16.4865 0 16.1257 0C15.765 0 15.4078 0.0708409 15.0746 0.208497C14.7412 0.346152 14.4383 0.547908 14.1834 0.802247L7.49406 7.47069C7.23894 7.72494 7.03657 8.02681 6.89847 8.35904C6.7604 8.69129 6.68927 9.04739 6.68927 9.40701C6.68927 9.76665 6.7604 10.1227 6.89847 10.455C7.03657 10.7873 7.23894 11.089 7.49406 11.3434L14.1834 18.0117C14.4383 18.2661 14.7412 18.4679 15.0746 18.6055C15.4078 18.7433 15.765 18.814 16.1257 18.814C16.4865 18.814 16.8438 18.7433 17.177 18.6055C17.5103 18.4679 17.8131 18.2661 18.0682 18.0117C18.3233 17.7575 18.5257 17.4556 18.6638 17.1235C18.8018 16.7911 18.873 16.4351 18.873 16.0754C18.873 15.7157 18.8018 15.3597 18.6638 15.0276C18.5257 14.6952 18.3233 14.3933 18.0682 14.1391L13.9668 10.0535C13.8813 9.96869 13.8135 9.86794 13.7674 9.75701C13.7212 9.64606 13.6975 9.52714 13.6975 9.40701C13.6975 9.2869 13.7212 9.16796 13.7674 9.05703C13.8135 8.94611 13.8813 8.84535 13.9668 8.76055L18.0682 4.67494C18.3233 4.42067 18.5257 4.11881 18.6638 3.78656C18.8018 3.45433 18.873 3.09821 18.873 2.73857C18.873 2.37896 18.8018 2.02286 18.6638 1.6906C18.5257 1.35837 18.3233 1.0565 18.0682 0.802247Z" fill="#04795B"/>
<path d="M14.1823 18.011C15.255 19.0802 16.9939 19.0802 18.0666 18.011C19.139 16.9418 19.139 15.2081 18.0666 14.1389L11.3771 7.47038C10.3045 6.40113 8.5655 6.40113 7.49292 7.47038C6.42033 8.53961 6.42033 10.2732 7.49292 11.3425L14.1823 18.011Z" fill="#0DB50A"/>
<path d="M11.3789 7.47069L4.6896 0.802247C4.43455 0.547908 4.13175 0.346152 3.79846 0.208497C3.46517 0.0708409 3.10796 0 2.74721 0C2.38644 0 2.02916 0.0708409 1.69587 0.208497C1.3626 0.346152 1.05978 0.547908 0.804725 0.802247C0.549602 1.0565 0.347228 1.35837 0.209135 1.6906C0.0710599 2.02286 0 2.37896 0 2.73857C0 3.09821 0.0710599 3.45433 0.209135 3.78656C0.347228 4.11881 0.549602 4.42067 0.804725 4.67494L4.9032 8.76055C4.98856 8.84535 5.05622 8.94611 5.10243 9.05703C5.14863 9.16796 5.17247 9.2869 5.17247 9.40701C5.17247 9.52714 5.14863 9.64606 5.10243 9.75701C5.05622 9.86794 4.98856 9.96869 4.9032 10.0535L0.804725 14.1391C0.549602 14.3933 0.347228 14.6952 0.209135 15.0276C0.0710599 15.3597 0 15.7157 0 16.0754C0 16.4351 0.0710599 16.7911 0.209135 17.1235C0.347228 17.4556 0.549602 17.7575 0.804725 18.0117C1.05978 18.2661 1.3626 18.4679 1.69587 18.6055C2.02916 18.7433 2.38644 18.814 2.74721 18.814C3.10796 18.814 3.46517 18.7433 3.79846 18.6055C4.13175 18.4679 4.43455 18.2661 4.6896 18.0117L9.43493 13.2782L11.3789 11.3434C11.634 11.089 11.8364 10.7873 11.9746 10.455C12.1125 10.1227 12.1835 9.76665 12.1835 9.40701C12.1835 9.04739 12.1125 8.69129 11.9746 8.35904C11.8364 8.02681 11.634 7.72494 11.3789 7.47069Z" fill="#0AE33A"/>
<path d="M16.1242 5.47807C17.6411 5.47807 18.8708 4.25225 18.8708 2.74011C18.8708 1.22799 17.6411 0.00215618 16.1242 0.00215618C14.6074 0.00215618 13.3777 1.22799 13.3777 2.74011C13.3777 4.25225 14.6074 5.47807 16.1242 5.47807Z" fill="#0AE33A"/>
</svg>
