<svg width="40" height="40" viewBox="0 0 40 40" fill="none" xmlns="http://www.w3.org/2000/svg">
<circle cx="20" cy="20" r="20" fill="white"/>
<path d="M30.5853 9.00281C30.2664 8.68488 29.8879 8.43269 29.4713 8.26062C29.0547 8.08855 28.6081 8 28.1572 8C27.7062 8 27.2598 8.08855 26.8432 8.26062C26.4264 8.43269 26.0479 8.68488 25.7293 9.00281L17.3676 17.3384C17.0487 17.6562 16.7957 18.0335 16.6231 18.4488C16.4505 18.8641 16.3616 19.3092 16.3616 19.7588C16.3616 20.2083 16.4505 20.6534 16.6231 21.0688C16.7957 21.4841 17.0487 21.8613 17.3676 22.1792L25.7293 30.5146C26.0479 30.8326 26.4264 31.0849 26.8432 31.2569C27.2598 31.4291 27.7062 31.5174 28.1572 31.5174C28.6081 31.5174 29.0547 31.4291 29.4713 31.2569C29.8879 31.0849 30.2664 30.8326 30.5853 30.5146C30.9041 30.1969 31.1572 29.8195 31.3298 29.4043C31.5022 28.9889 31.5913 28.5439 31.5913 28.0943C31.5913 27.6447 31.5022 27.1996 31.3298 26.7844C31.1572 26.369 30.9041 25.9916 30.5853 25.6739L25.4585 20.5668C25.3517 20.4609 25.2669 20.3349 25.2093 20.1963C25.1515 20.0576 25.1218 19.9089 25.1218 19.7588C25.1218 19.6086 25.1515 19.46 25.2093 19.3213C25.2669 19.1826 25.3517 19.0567 25.4585 18.9507L30.5853 13.8437C30.9041 13.5258 31.1572 13.1485 31.3298 12.7332C31.5022 12.3179 31.5913 11.8728 31.5913 11.4232C31.5913 10.9737 31.5022 10.5286 31.3298 10.1133C31.1572 9.69797 30.9041 9.32062 30.5853 9.00281Z" fill="#04795B"/>
<path d="M25.7279 30.5137C27.0687 31.8502 29.2424 31.8502 30.5832 30.5137C31.9238 29.1772 31.9238 27.0102 30.5832 25.6737L22.2214 17.338C20.8806 16.0014 18.7069 16.0014 17.3661 17.338C16.0254 18.6745 16.0254 20.8415 17.3661 22.1781L25.7279 30.5137Z" fill="#0DB50A"/>
<path d="M22.2237 17.3384L13.862 9.00281C13.5432 8.68488 13.1647 8.43269 12.7481 8.26062C12.3315 8.08855 11.8849 8 11.434 8C10.9831 8 10.5364 8.08855 10.1198 8.26062C9.70325 8.43269 9.32472 8.68488 9.00591 9.00281C8.687 9.32062 8.43403 9.69797 8.26142 10.1133C8.08882 10.5286 8 10.9737 8 11.4232C8 11.8728 8.08882 12.3179 8.26142 12.7332C8.43403 13.1485 8.687 13.5258 9.00591 13.8437L14.129 18.9507C14.2357 19.0567 14.3203 19.1826 14.378 19.3213C14.4358 19.46 14.4656 19.6086 14.4656 19.7588C14.4656 19.9089 14.4358 20.0576 14.378 20.1963C14.3203 20.3349 14.2357 20.4609 14.129 20.5668L9.00591 25.6739C8.687 25.9916 8.43403 26.369 8.26142 26.7844C8.08882 27.1996 8 27.6447 8 28.0943C8 28.5439 8.08882 28.9889 8.26142 29.4043C8.43403 29.8195 8.687 30.1969 9.00591 30.5146C9.32472 30.8326 9.70325 31.0849 10.1198 31.2569C10.5364 31.4291 10.9831 31.5174 11.434 31.5174C11.8849 31.5174 12.3315 31.4291 12.7481 31.2569C13.1647 31.0849 13.5432 30.8326 13.862 30.5146L19.7937 24.5978L22.2237 22.1792C22.5425 21.8613 22.7955 21.4841 22.9682 21.0688C23.1406 20.6534 23.2294 20.2083 23.2294 19.7588C23.2294 19.3092 23.1406 18.8641 22.9682 18.4488C22.7955 18.0335 22.5425 17.6562 22.2237 17.3384Z" fill="#0AE33A"/>
<path d="M28.1553 14.8476C30.0514 14.8476 31.5885 13.3153 31.5885 11.4251C31.5885 9.53499 30.0514 8.0027 28.1553 8.0027C26.2592 8.0027 24.7221 9.53499 24.7221 11.4251C24.7221 13.3153 26.2592 14.8476 28.1553 14.8476Z" fill="#0AE33A"/>
</svg>
