<?xml version="1.0" encoding="UTF-8"?>
<svg xmlns="http://www.w3.org/2000/svg" xmlns:xlink="http://www.w3.org/1999/xlink" width="40px" height="40px" viewBox="0 0 33 39" version="1.1">
<defs>
<filter id="alpha" filterUnits="objectBoundingBox" x="0%" y="0%" width="100%" height="100%">
  <feColorMatrix type="matrix" in="SourceGraphic" values="0 0 0 0 1 0 0 0 0 1 0 0 0 0 1 0 0 0 1 0"/>
</filter>
<mask id="mask0">
  <g filter="url(#alpha)">
<rect x="0" y="0" width="33" height="39" style="fill:rgb(0%,0%,0%);fill-opacity:0.4;stroke:none;"/>
  </g>
</mask>
<linearGradient id="linear0" gradientUnits="userSpaceOnUse" x1="199.7294" y1="68.6352" x2="199.7294" y2="342.7659" gradientTransform="matrix(0.139653,0,0,0.136191,-11.437579,-7.738784)">
<stop offset="0" style="stop-color:rgb(98.823529%,81.176471%,21.568627%);stop-opacity:1;"/>
<stop offset="1" style="stop-color:rgb(99.215686%,67.45098%,25.490196%);stop-opacity:1;"/>
</linearGradient>
<clipPath id="clip1">
  <rect x="0" y="0" width="33" height="39"/>
</clipPath>
<g id="surface5" clip-path="url(#clip1)">
<path style=" stroke:none;fill-rule:nonzero;fill:url(#linear0);" d="M 14.675781 2.082031 L 2.136719 9.433594 C 0.808594 10.210938 0 11.613281 0 13.125 L 0 27.589844 C 0 28.964844 0.738281 30.246094 1.941406 30.953125 L 14.675781 38.46875 C 15.738281 39.097656 17.066406 39.097656 18.140625 38.484375 L 31.074219 31.007812 C 32.230469 30.339844 32.929688 29.128906 32.929688 27.820312 L 32.929688 13.167969 C 32.929688 11.667969 32.121094 10.277344 30.808594 9.503906 L 18.113281 2.066406 C 17.050781 1.453125 15.726562 1.453125 14.675781 2.082031 Z M 14.675781 2.082031 "/>
</g>
<linearGradient id="linear1" gradientUnits="userSpaceOnUse" x1="200.2706" y1="57.2341" x2="200.2706" y2="331.3648" gradientTransform="matrix(0.139653,0,0,0.136191,-11.437579,-7.738784)">
<stop offset="0" style="stop-color:rgb(98.823529%,81.176471%,21.568627%);stop-opacity:1;"/>
<stop offset="1" style="stop-color:rgb(99.215686%,67.45098%,25.490196%);stop-opacity:1;"/>
</linearGradient>
</defs>
<g id="surface1">
<use xlink:href="#surface5" mask="url(#mask0)"/>
<path style=" stroke:none;fill-rule:nonzero;fill:url(#linear1);" d="M 14.746094 0.527344 L 2.207031 7.882812 C 0.878906 8.660156 0.0703125 10.0625 0.0703125 11.574219 L 0.0703125 26.035156 C 0.0703125 27.410156 0.808594 28.691406 2.011719 29.398438 L 14.746094 36.917969 C 15.808594 37.542969 17.136719 37.542969 18.210938 36.933594 L 31.144531 29.453125 C 32.300781 28.789062 33 27.574219 33 26.269531 L 33 11.613281 C 33 10.117188 32.191406 8.726562 30.878906 7.949219 L 18.195312 0.527344 C 17.136719 -0.0976562 15.808594 -0.0976562 14.746094 0.527344 Z M 14.746094 0.527344 "/>
<path style=" stroke:none;fill-rule:nonzero;fill:rgb(100%,100%,100%);fill-opacity:1;" d="M 16.464844 16.121094 L 20.570312 11.367188 L 25.375 11.367188 L 18.964844 19.050781 L 25.375 26.746094 L 20.5 26.746094 L 16.535156 21.921875 L 12.625 26.746094 L 7.820312 26.746094 L 14.089844 19.050781 L 7.820312 11.367188 L 12.75 11.367188 Z M 16.464844 16.121094 "/>
</g>
</svg>
