<svg width="24" height="24" viewBox="0 0 24 24" fill="none" xmlns="http://www.w3.org/2000/svg">
<path d="M22.5853 1.00281C22.2664 0.684885 21.8879 0.43269 21.4713 0.260621C21.0547 0.0885512 20.6081 0 20.1572 0C19.7062 0 19.2598 0.0885512 18.8432 0.260621C18.4264 0.43269 18.0479 0.684885 17.7293 1.00281L9.36758 9.33836C9.04868 9.65617 8.79571 10.0335 8.62309 10.4488C8.4505 10.8641 8.36158 11.3092 8.36158 11.7588C8.36158 12.2083 8.4505 12.6534 8.62309 13.0687C8.79571 13.4841 9.04868 13.8613 9.36758 14.1792L17.7293 22.5146C18.0479 22.8326 18.4264 23.0849 18.8432 23.2569C19.2598 23.4291 19.7062 23.5174 20.1572 23.5174C20.6081 23.5174 21.0547 23.4291 21.4713 23.2569C21.8879 23.0849 22.2664 22.8326 22.5853 22.5146C22.9041 22.1969 23.1572 21.8195 23.3298 21.4043C23.5022 20.9889 23.5913 20.5439 23.5913 20.0943C23.5913 19.6447 23.5022 19.1996 23.3298 18.7844C23.1572 18.369 22.9041 17.9916 22.5853 17.6739L17.4585 12.5668C17.3517 12.4609 17.2669 12.3349 17.2093 12.1963C17.1515 12.0576 17.1218 11.9089 17.1218 11.7588C17.1218 11.6086 17.1515 11.46 17.2093 11.3213C17.2669 11.1826 17.3517 11.0567 17.4585 10.9507L22.5853 5.84367C22.9041 5.52584 23.1572 5.14851 23.3298 4.7332C23.5022 4.31791 23.5913 3.87276 23.5913 3.42322C23.5913 2.9737 23.5022 2.52857 23.3298 2.11326C23.1572 1.69797 22.9041 1.32062 22.5853 1.00281Z" fill="#04795B"/>
<path d="M17.7279 22.5137C19.0687 23.8502 21.2424 23.8502 22.5832 22.5137C23.9238 21.1772 23.9238 19.0102 22.5832 17.6737L14.2214 9.33797C12.8806 8.00141 10.7069 8.00141 9.36614 9.33797C8.02541 10.6745 8.02541 12.8415 9.36614 14.1781L17.7279 22.5137Z" fill="#0DB50A"/>
<path d="M14.2237 9.33836L5.862 1.00281C5.54319 0.684885 5.16468 0.43269 4.74807 0.260621C4.33146 0.0885512 3.88495 0 3.43401 0C2.98306 0 2.53645 0.0885512 2.11984 0.260621C1.70325 0.43269 1.32472 0.684885 1.00591 1.00281C0.687003 1.32062 0.434035 1.69797 0.261418 2.11326C0.0888249 2.52857 0 2.9737 0 3.42322C0 3.87276 0.0888249 4.31791 0.261418 4.7332C0.434035 5.14851 0.687003 5.52584 1.00591 5.84367L6.129 10.9507C6.23571 11.0567 6.32027 11.1826 6.37803 11.3213C6.43579 11.46 6.46558 11.6086 6.46558 11.7588C6.46558 11.9089 6.43579 12.0576 6.37803 12.1963C6.32027 12.3349 6.23571 12.4609 6.129 12.5668L1.00591 17.6739C0.687003 17.9916 0.434035 18.369 0.261418 18.7844C0.0888249 19.1996 0 19.6447 0 20.0943C0 20.5439 0.0888249 20.9889 0.261418 21.4043C0.434035 21.8195 0.687003 22.1969 1.00591 22.5146C1.32472 22.8326 1.70325 23.0849 2.11984 23.2569C2.53645 23.4291 2.98306 23.5174 3.43401 23.5174C3.88495 23.5174 4.33146 23.4291 4.74807 23.2569C5.16468 23.0849 5.54319 22.8326 5.862 22.5146L11.7937 16.5978L14.2237 14.1792C14.5425 13.8613 14.7955 13.4841 14.9682 13.0687C15.1406 12.6534 15.2294 12.2083 15.2294 11.7588C15.2294 11.3092 15.1406 10.8641 14.9682 10.4488C14.7955 10.0335 14.5425 9.65617 14.2237 9.33836Z" fill="#0AE33A"/>
<path d="M20.1553 6.84758C22.0514 6.84758 23.5885 5.31531 23.5885 3.42514C23.5885 1.53499 22.0514 0.00269522 20.1553 0.00269522C18.2592 0.00269522 16.7221 1.53499 16.7221 3.42514C16.7221 5.31531 18.2592 6.84758 20.1553 6.84758Z" fill="#0AE33A"/>
</svg>
