<svg width="64" height="64" viewBox="0 0 64 64" fill="none" xmlns="http://www.w3.org/2000/svg">
<circle cx="32" cy="32" r="32" fill="white"/>
<path d="M50.0723 13.6905C49.5348 13.1545 48.8967 12.7294 48.1945 12.4393C47.4923 12.1493 46.7394 12 45.9792 12C45.219 12 44.4665 12.1493 43.7643 12.4393C43.0617 12.7294 42.4236 13.1545 41.8865 13.6905L27.7911 27.7418C27.2535 28.2775 26.827 28.9136 26.5361 29.6137C26.2451 30.3138 26.0952 31.0642 26.0952 31.8219C26.0952 32.5797 26.2451 33.3301 26.5361 34.0302C26.827 34.7304 27.2535 35.3661 27.7911 35.9021L41.8865 49.9532C42.4236 50.4892 43.0617 50.9146 43.7643 51.2045C44.4665 51.4947 45.219 51.6437 45.9792 51.6437C46.7394 51.6437 47.4923 51.4947 48.1945 51.2045C48.8967 50.9146 49.5348 50.4892 50.0723 49.9532C50.6098 49.4177 51.0363 48.7815 51.3274 48.0816C51.618 47.3813 51.7681 46.6311 51.7681 45.8732C51.7681 45.1153 51.618 44.3651 51.3274 43.6652C51.0363 42.9649 50.6098 42.3287 50.0723 41.7932L41.43 33.1841C41.2499 33.0055 41.1071 32.7931 41.01 32.5594C40.9125 32.3256 40.8625 32.075 40.8625 31.8219C40.8625 31.5688 40.9125 31.3182 41.01 31.0845C41.1071 30.8507 41.2499 30.6384 41.43 30.4597L50.0723 21.8508C50.6098 21.315 51.0363 20.6789 51.3274 19.9788C51.618 19.2788 51.7681 18.5284 51.7681 17.7706C51.7681 17.0128 51.618 16.2624 51.3274 15.5623C51.0363 14.8623 50.6098 14.2262 50.0723 13.6905Z" fill="#04795B"/>
<path d="M41.8842 49.9517C44.1444 52.2046 47.8086 52.2046 50.0688 49.9517C52.3287 47.6988 52.3287 44.0457 50.0688 41.7928L35.9732 27.7412C33.7131 25.4881 30.0487 25.4881 27.7886 27.7412C25.5286 29.9942 25.5286 33.6471 27.7886 35.9002L41.8842 49.9517Z" fill="#0DB50A"/>
<path d="M35.977 27.7418L21.8817 13.6905C21.3442 13.1545 20.7062 12.7294 20.0039 12.4393C19.3016 12.1493 18.5489 12 17.7888 12C17.0286 12 16.2757 12.1493 15.5734 12.4393C14.8712 12.7294 14.2331 13.1545 13.6957 13.6905C13.1581 14.2262 12.7317 14.8623 12.4407 15.5623C12.1497 16.2624 12 17.0128 12 17.7706C12 18.5284 12.1497 19.2788 12.4407 19.9788C12.7317 20.6789 13.1581 21.315 13.6957 21.8508L22.3317 30.4597C22.5116 30.6384 22.6542 30.8507 22.7515 31.0845C22.8489 31.3182 22.8991 31.5688 22.8991 31.8219C22.8991 32.075 22.8489 32.3256 22.7515 32.5594C22.6542 32.7931 22.5116 33.0055 22.3317 33.1841L13.6957 41.7932C13.1581 42.3287 12.7317 42.9649 12.4407 43.6652C12.1497 44.3651 12 45.1153 12 45.8732C12 46.6311 12.1497 47.3813 12.4407 48.0816C12.7317 48.7815 13.1581 49.4177 13.6957 49.9532C14.2331 50.4892 14.8712 50.9146 15.5734 51.2045C16.2757 51.4947 17.0286 51.6437 17.7888 51.6437C18.5489 51.6437 19.3016 51.4947 20.0039 51.2045C20.7062 50.9146 21.3442 50.4892 21.8817 49.9532L31.8807 39.9791L35.977 35.9021C36.5145 35.3661 36.9411 34.7304 37.2321 34.0302C37.5227 33.3301 37.6725 32.5797 37.6725 31.8219C37.6725 31.0642 37.5227 30.3138 37.2321 29.6137C36.9411 28.9136 36.5145 28.2775 35.977 27.7418Z" fill="#0AE33A"/>
<path d="M45.9761 23.5431C49.1723 23.5431 51.7635 20.9601 51.7635 17.7738C51.7635 14.5876 49.1723 12.0045 45.9761 12.0045C42.7799 12.0045 40.1887 14.5876 40.1887 17.7738C40.1887 20.9601 42.7799 23.5431 45.9761 23.5431Z" fill="#0AE33A"/>
</svg>
