<?xml version="1.0" encoding="UTF-8"?>
<svg xmlns="http://www.w3.org/2000/svg" xmlns:xlink="http://www.w3.org/1999/xlink" width="64px" height="64px" viewBox="0 0 53 64" version="1.1">
<defs>
<filter id="alpha" filterUnits="objectBoundingBox" x="0%" y="0%" width="100%" height="100%">
  <feColorMatrix type="matrix" in="SourceGraphic" values="0 0 0 0 1 0 0 0 0 1 0 0 0 0 1 0 0 0 1 0"/>
</filter>
<mask id="mask0">
  <g filter="url(#alpha)">
<rect x="0" y="0" width="53" height="64" style="fill:rgb(0%,0%,0%);fill-opacity:0.4;stroke:none;"/>
  </g>
</mask>
<linearGradient id="linear0" gradientUnits="userSpaceOnUse" x1="199.7294" y1="68.6352" x2="199.7294" y2="342.7659" gradientTransform="matrix(0.224291,0,0,0.223492,-18.369446,-12.699542)">
<stop offset="0" style="stop-color:rgb(98.823529%,81.176471%,21.568627%);stop-opacity:1;"/>
<stop offset="1" style="stop-color:rgb(99.215686%,67.45098%,25.490196%);stop-opacity:1;"/>
</linearGradient>
<clipPath id="clip1">
  <rect x="0" y="0" width="53" height="64"/>
</clipPath>
<g id="surface5" clip-path="url(#clip1)">
<path style=" stroke:none;fill-rule:nonzero;fill:url(#linear0);" d="M 23.574219 3.414062 L 3.433594 15.484375 C 1.300781 16.757812 0 19.058594 0 21.539062 L 0 45.273438 C 0 47.53125 1.1875 49.632812 3.117188 50.792969 L 23.574219 63.132812 C 25.277344 64.160156 27.410156 64.160156 29.136719 63.152344 L 49.90625 50.882812 C 51.765625 49.789062 52.886719 47.800781 52.886719 45.652344 L 52.886719 21.605469 C 52.886719 19.148438 51.585938 16.867188 49.480469 15.59375 L 29.089844 3.390625 C 27.386719 2.386719 25.253906 2.386719 23.574219 3.414062 Z M 23.574219 3.414062 "/>
</g>
<linearGradient id="linear1" gradientUnits="userSpaceOnUse" x1="200.2706" y1="57.2341" x2="200.2706" y2="331.3648" gradientTransform="matrix(0.224291,0,0,0.223492,-18.369446,-12.699542)">
<stop offset="0" style="stop-color:rgb(98.823529%,81.176471%,21.568627%);stop-opacity:1;"/>
<stop offset="1" style="stop-color:rgb(99.215686%,67.45098%,25.490196%);stop-opacity:1;"/>
</linearGradient>
</defs>
<g id="surface1">
<use xlink:href="#surface5" mask="url(#mask0)"/>
<path style=" stroke:none;fill-rule:nonzero;fill:url(#linear1);" d="M 23.683594 0.867188 L 3.542969 12.933594 C 1.414062 14.207031 0.113281 16.511719 0.113281 18.992188 L 0.113281 42.726562 C 0.113281 44.984375 1.300781 47.085938 3.230469 48.246094 L 23.683594 60.582031 C 25.390625 61.613281 27.519531 61.613281 29.246094 60.605469 L 50.015625 48.335938 C 51.878906 47.242188 53 45.253906 53 43.105469 L 53 19.058594 C 53 16.601562 51.699219 14.320312 49.589844 13.046875 L 29.226562 0.867188 C 27.519531 -0.160156 25.390625 -0.160156 23.683594 0.867188 Z M 23.683594 0.867188 "/>
<path style=" stroke:none;fill-rule:nonzero;fill:rgb(100%,100%,100%);fill-opacity:1;" d="M 26.445312 26.457031 L 33.039062 18.65625 L 40.753906 18.65625 L 30.457031 31.261719 L 40.753906 43.886719 L 32.925781 43.886719 L 26.554688 35.976562 L 20.277344 43.886719 L 12.558594 43.886719 L 22.632812 31.261719 L 12.558594 18.65625 L 20.476562 18.65625 Z M 26.445312 26.457031 "/>
</g>
</svg>
