<svg width="40" height="40" viewBox="0 0 40 40" fill="none" xmlns="http://www.w3.org/2000/svg">
<path d="M38.0723 1.69045C37.5348 1.15452 36.8967 0.729392 36.1945 0.439332C35.4923 0.149272 34.7394 0 33.9792 0C33.219 0 32.4665 0.149272 31.7643 0.439332C31.0617 0.729392 30.4236 1.15452 29.8865 1.69045L15.7911 15.7418C15.2535 16.2775 14.827 16.9136 14.5361 17.6137C14.2451 18.3138 14.0952 19.0642 14.0952 19.8219C14.0952 20.5797 14.2451 21.3301 14.5361 22.0302C14.827 22.7304 15.2535 23.3661 15.7911 23.9021L29.8865 37.9532C30.4236 38.4892 31.0617 38.9146 31.7643 39.2045C32.4665 39.4947 33.219 39.6437 33.9792 39.6437C34.7394 39.6437 35.4923 39.4947 36.1945 39.2045C36.8967 38.9146 37.5348 38.4892 38.0723 37.9532C38.6098 37.4177 39.0363 36.7815 39.3274 36.0816C39.618 35.3813 39.7681 34.6311 39.7681 33.8732C39.7681 33.1153 39.618 32.3651 39.3274 31.6652C39.0363 30.9649 38.6098 30.3287 38.0723 29.7932L29.43 21.1841C29.2499 21.0055 29.1071 20.7932 29.01 20.5594C28.9125 20.3256 28.8625 20.075 28.8625 19.8219C28.8625 19.5688 28.9125 19.3182 29.01 19.0845C29.1071 18.8507 29.2499 18.6384 29.43 18.4597L38.0723 9.85076C38.6098 9.31498 39.0363 8.67892 39.3274 7.97882C39.618 7.27876 39.7681 6.52837 39.7681 5.77057C39.7681 5.0128 39.618 4.26244 39.3274 3.56235C39.0363 2.86229 38.6098 2.22619 38.0723 1.69045Z" fill="#04795B"/>
<path d="M29.8842 37.9517C32.1444 40.2046 35.8086 40.2046 38.0688 37.9517C40.3287 35.6988 40.3287 32.0457 38.0688 29.7928L23.9732 15.7412C21.7131 13.4881 18.0487 13.4881 15.7886 15.7412C13.5286 17.9942 13.5286 21.6471 15.7886 23.9002L29.8842 37.9517Z" fill="#0DB50A"/>
<path d="M23.977 15.7418L9.88166 1.69045C9.34424 1.15452 8.70618 0.729392 8.00389 0.439332C7.30161 0.149272 6.54891 0 5.78876 0C5.02858 0 4.27573 0.149272 3.57344 0.439332C2.87119 0.729392 2.2331 1.15452 1.69567 1.69045C1.15809 2.22619 0.731658 2.86229 0.440677 3.56235C0.149733 4.26244 0 5.0128 0 5.77057C0 6.52837 0.149733 7.27876 0.440677 7.97882C0.731658 8.67892 1.15809 9.31498 1.69567 9.85076L10.3317 18.4597C10.5116 18.6384 10.6542 18.8507 10.7515 19.0845C10.8489 19.3182 10.8991 19.5688 10.8991 19.8219C10.8991 20.075 10.8489 20.3256 10.7515 20.5594C10.6542 20.7932 10.5116 21.0055 10.3317 21.1841L1.69567 29.7932C1.15809 30.3287 0.731658 30.9649 0.440677 31.6652C0.149733 32.3651 0 33.1153 0 33.8732C0 34.6311 0.149733 35.3813 0.440677 36.0816C0.731658 36.7815 1.15809 37.4177 1.69567 37.9532C2.2331 38.4892 2.87119 38.9146 3.57344 39.2045C4.27573 39.4947 5.02858 39.6437 5.78876 39.6437C6.54891 39.6437 7.30161 39.4947 8.00389 39.2045C8.70618 38.9146 9.34424 38.4892 9.88166 37.9532L19.8807 27.9791L23.977 23.9021C24.5145 23.3661 24.9411 22.7304 25.2321 22.0302C25.5227 21.3301 25.6725 20.5797 25.6725 19.8219C25.6725 19.0642 25.5227 18.3138 25.2321 17.6137C24.9411 16.9136 24.5145 16.2775 23.977 15.7418Z" fill="#0AE33A"/>
<path d="M33.9761 11.5431C37.1723 11.5431 39.7635 8.96009 39.7635 5.77381C39.7635 2.58756 37.1723 0.00454337 33.9761 0.00454337C30.7799 0.00454337 28.1887 2.58756 28.1887 5.77381C28.1887 8.96009 30.7799 11.5431 33.9761 11.5431Z" fill="#0AE33A"/>
</svg>
