<svg width="102" height="102" viewBox="0 0 102 102" fill="none" xmlns="http://www.w3.org/2000/svg">
<path d="M97.2105 50.9998C97.2105 76.6011 76.4566 97.3551 50.8553 97.3551C25.254 97.3551 4.5 76.6011 4.5 50.9998C4.5 25.3985 25.254 4.64453 50.8553 4.64453C76.4566 4.64453 97.2105 25.3985 97.2105 50.9998Z" fill="#7832DE" stroke="#FED670" stroke-width="9"/>
<path fill-rule="evenodd" clip-rule="evenodd" d="M19.8257 59.6141L19.8468 59.7012L20.3917 61.4335L20.5631 61.8253L20.5637 61.8284C20.7164 62.1795 20.8766 62.5715 21.0465 62.9853C21.4578 63.9853 21.921 65.1164 22.4456 66.1267L22.4459 66.1269C29.8061 80.3131 45.7832 87.6982 61.3153 84.0711L61.3156 84.0713C68.7763 82.3267 75.0149 78.4889 80.0038 72.7077C80.1369 72.5535 80.2818 72.3766 80.4025 72.2294C80.45 72.1714 80.4939 72.1179 80.5321 72.072L82.4051 69.8147L72.3175 64.5115L71.0801 65.8383C66.6517 70.5864 61.1559 73.2845 54.7376 73.6902C44.4159 74.339 34.6991 67.925 31.195 58.1756L31.1946 58.1752C29.6132 53.7698 29.2449 49.0914 30.2427 44.5747L30.6291 42.8214L29.0477 41.9697C28.4765 41.6619 27.8958 41.3584 27.3319 41.065L27.3308 41.064C27.136 40.9636 26.9445 40.8633 26.7552 40.7651L20.6867 37.5915L19.8901 40.4092C18.3638 45.8114 18.0992 51.3942 19.1996 56.9215L19.2002 56.922C19.3266 57.5565 19.4905 58.228 19.6389 58.8357L19.6396 58.8363C19.7065 59.1115 19.7707 59.3735 19.8257 59.6141ZM78.7018 70.5543C78.6465 70.6208 78.5916 70.6877 78.5381 70.7531C78.4259 70.8898 78.3161 71.0237 78.2033 71.1546" fill="#FED670"/>
<path fill-rule="evenodd" clip-rule="evenodd" d="M32.3898 35.1329L32.0339 33.9987L32.3894 35.1325C30.8225 35.6224 29.1344 35.554 27.6124 34.9389C26.0902 34.3246 24.828 33.2015 24.0408 31.761C23.2545 30.3203 22.9911 28.6518 23.2955 27.0388C23.6007 25.4257 24.4555 23.9681 25.7142 22.914C26.9728 21.8599 28.5578 21.2747 30.1993 21.2582C31.8409 21.2408 33.4377 21.7933 34.7173 22.8217C35.9975 23.849 36.8818 25.2883 37.2198 26.8945C37.5573 28.5012 37.3277 30.1752 36.5701 31.6317L36.5691 31.6334C36.1371 32.4626 35.5456 33.1985 34.8287 33.7987C34.1112 34.3993 33.2825 34.8526 32.3898 35.1329Z" fill="#FED670"/>
</svg>
