<svg width="24" height="24" viewBox="0 0 24 24" fill="none" xmlns="http://www.w3.org/2000/svg">
<path d="M21.7291 18.9998L13.5505 3.38107C13.4022 3.09822 13.1794 2.86132 12.9062 2.69603C12.633 2.53074 12.3197 2.44336 12.0004 2.44336C11.6811 2.44336 11.3678 2.53074 11.0946 2.69603C10.8214 2.86132 10.5986 3.09822 10.4503 3.38107L2.27083 18.9998C2.13111 19.2666 2.06259 19.5648 2.07188 19.8658C2.08117 20.1668 2.16797 20.4603 2.32387 20.7179C2.47978 20.9755 2.69952 21.1885 2.96185 21.3364C3.22418 21.4842 3.52021 21.5619 3.82133 21.5618H20.1786C20.4797 21.5619 20.7757 21.4842 21.0381 21.3364C21.3004 21.1885 21.5201 20.9755 21.676 20.7179C21.832 20.4603 21.9187 20.1668 21.928 19.8658C21.9373 19.5648 21.8688 19.2666 21.7291 18.9998ZM11.125 8.86995C11.125 8.63789 11.2171 8.41533 11.3812 8.25123C11.5453 8.08714 11.7679 7.99495 12 7.99495C12.232 7.99495 12.4546 8.08714 12.6187 8.25123C12.7828 8.41533 12.875 8.63789 12.875 8.86995V14.1199C12.875 14.352 12.7828 14.5746 12.6187 14.7387C12.4546 14.9028 12.232 14.995 12 14.995C11.7679 14.995 11.5453 14.9028 11.3812 14.7387C11.2171 14.5746 11.125 14.352 11.125 14.1199V8.86995ZM12.0437 18.9412H12.0192C11.6741 18.9401 11.3429 18.8056 11.0947 18.5659C10.8465 18.3262 10.7006 17.9998 10.6875 17.6549C10.6812 17.4835 10.7091 17.3124 10.7696 17.1519C10.8302 16.9913 10.9221 16.8444 11.0401 16.7197C11.158 16.5951 11.2996 16.4952 11.4566 16.4259C11.6136 16.3566 11.7829 16.3193 11.9545 16.3162H11.979C12.324 16.3166 12.6554 16.4505 12.904 16.6897C13.1525 16.929 13.2989 17.2551 13.3125 17.5998C13.3192 17.7717 13.2916 17.9432 13.2312 18.1043C13.1707 18.2653 13.0787 18.4126 12.9605 18.5376C12.8423 18.6626 12.7003 18.7627 12.5428 18.832C12.3854 18.9013 12.2157 18.9384 12.0437 18.9412Z" fill="#FED670"/>
</svg>
