<svg width="202" height="273" viewBox="0 0 202 273" fill="none" xmlns="http://www.w3.org/2000/svg">
<path d="M123.553 208.273C118.33 212.759 113.251 217.408 107.891 221.723C76.4974 246.977 41.062 263.714 1.58541 271.933C1.30212 271.973 1.01681 271.998 0.730816 272.006L0.764125 241.889C0.771796 235.333 0.735522 228.777 0.823759 222.224C0.89783 221.878 1.0554 221.556 1.28269 221.285C1.50999 221.015 1.80009 220.804 2.12768 220.671C39.9473 210.473 72.1428 190.981 98.714 162.196C158.144 97.7759 168.277 -0.060498 122.994 -75.0404C94.9272 -121.488 54.4198 -151.77 2.08677 -166.251C1.58867 -166.388 0.878204 -167.078 0.892867 -167.498C0.833493 -183.989 0.823775 -200.487 0.863689 -216.993C0.86371 -217.154 0.897897 -217.32 0.934533 -217.659C2.91956 -217.232 4.87038 -216.849 6.79924 -216.395C60.1994 -203.816 105.065 -176.97 140.852 -135.352C215.23 -48.8197 221.251 76.9846 155.555 170.676C148.91 180.147 141.028 188.747 133.723 197.747L132.236 199.591L123.553 208.273Z" fill="#FED670"/>
</svg>
