<svg width="274" height="246" viewBox="0 0 274 246" fill="none" xmlns="http://www.w3.org/2000/svg">
<path fill-rule="evenodd" clip-rule="evenodd" d="M77.7396 171.842L77.9234 172.056L81.9416 176.074L82.984 176.915L82.9908 176.921C83.9219 177.677 84.9344 178.531 86.0042 179.433C88.5917 181.615 91.5143 184.079 94.4309 186.125L94.4321 186.126C135.38 214.839 190.398 212.22 228.249 179.686L228.25 179.685C246.428 164.054 258.185 144.384 263.663 121.128L263.664 121.126C263.81 120.506 263.957 119.803 264.078 119.223C264.127 118.99 264.172 118.777 264.21 118.597L266.141 109.623L230.479 109.5L228.963 114.976C223.546 134.554 212.2 149.991 194.978 160.398C167.276 177.128 131.034 173.388 107.206 151.406L107.204 151.405C96.4417 141.47 88.6511 129.021 84.8836 115.05L83.4202 109.623L77.8 109.547C75.7699 109.52 73.7192 109.521 71.7305 109.522L71.7295 109.522L71.7224 109.522C71.0384 109.523 70.3617 109.523 69.6958 109.522L48.2642 109.499L50.1311 118.466C53.7117 135.664 61.0543 151.538 72.1066 165.277L72.1083 165.279C73.3776 166.856 74.8038 168.482 76.0946 169.954L76.0947 169.954C76.6799 170.622 77.2373 171.257 77.7396 171.842ZM198.824 166.767C198.824 166.767 198.825 166.767 198.825 166.767C199.12 166.588 199.414 166.408 199.707 166.227C199.414 166.408 199.12 166.588 198.824 166.767ZM203.097 164.016C219.64 152.67 230.69 136.636 236.135 116.96L236.134 116.96C230.69 136.636 219.64 152.67 203.097 164.016ZM149.368 198.253C131.624 196.873 114.1 190.83 98.7042 180.034C96.0667 178.184 93.595 176.098 91.1238 174.013C89.9791 173.047 88.8345 172.081 87.6735 171.138L86.9224 170.532L83.3844 166.994C82.7758 166.286 82.1597 165.583 81.5437 164.881C80.3101 163.475 79.0769 162.07 77.9043 160.613C67.614 147.821 60.7646 133.034 57.4156 116.949L57.4153 116.949C57.9386 119.462 58.5474 121.944 59.2414 124.391C62.9888 137.607 69.2216 149.82 77.904 160.613C79.0765 162.07 80.3096 163.475 81.5431 164.881L81.5436 164.882L81.5443 164.882C82.1599 165.584 82.7757 166.286 83.3841 166.995L86.9221 170.532L87.6732 171.138C88.8339 172.081 89.9783 173.046 91.1228 174.012L91.1234 174.013L91.124 174.013C93.595 176.098 96.0665 178.184 98.7039 180.034C114.1 190.83 131.624 196.873 149.368 198.253Z" fill="#FED670"/>
<path fill-rule="evenodd" clip-rule="evenodd" d="M77.1811 85.7457L74.5531 83.1126L77.1786 85.7482C73.5394 89.3734 68.7563 91.6255 63.6435 92.1211C58.5307 92.6167 53.4042 91.3252 49.1365 88.4664C44.8688 85.6075 41.7236 81.3581 40.2364 76.4414C38.7492 71.5246 39.0118 66.2444 40.9795 61.4995C42.9472 56.7546 46.4984 52.8382 51.0288 50.4169C55.5591 47.9957 60.7885 47.2192 65.8268 48.2196C70.8652 49.2201 75.4012 51.9356 78.6628 55.904C81.9243 59.8725 83.7098 64.8486 83.7154 69.9853L83.7154 69.9889C83.7158 72.9159 83.1389 75.8143 82.0176 78.5181C80.8964 81.2219 79.2528 83.6779 77.1811 85.7457Z" fill="#FED670"/>
</svg>
