<svg width="88" height="88" viewBox="0 0 88 88" fill="none" xmlns="http://www.w3.org/2000/svg">
<g clip-path="url(#clip0_1088_48044)">
<path d="M78.1969 27.3967H68.8133V11.0676C68.8084 8.13217 67.6335 5.31852 65.5462 3.24374C63.4588 1.16895 60.6295 0.00243161 57.6788 3.34187e-05H11.171C9.70605 -0.00354478 8.25478 0.280254 6.90021 0.835191C5.54564 1.39013 4.31435 2.20531 3.27679 3.23411C2.23922 4.2629 1.41575 5.48512 0.853488 6.83082C0.291221 8.17653 0.00119439 9.61931 0 11.0766V48.5339C0.00358823 49.9897 0.295381 51.4305 0.858718 52.7741C1.42206 54.1177 2.2459 55.3378 3.28323 56.3647C4.32055 57.3915 5.55103 58.2051 6.90442 58.7589C8.2578 59.3127 9.70758 59.5959 11.171 59.5923H16.761V72.2928C16.7602 72.7419 16.8935 73.1812 17.1439 73.5549C17.3944 73.9286 17.7508 74.2199 18.1678 74.3919C18.5849 74.5639 19.0439 74.6088 19.4867 74.521C19.9295 74.4331 20.3361 74.2164 20.6549 73.8985L34.972 59.5923H37.7078V65.5615C37.7101 68.1394 38.7375 70.6116 40.5655 72.4387C42.3936 74.2658 44.874 75.2993 47.4653 75.3136H58.7183L70.8195 87.3337C71.1383 87.6517 71.5449 87.8684 71.9877 87.9562C72.4305 88.0441 72.8895 87.9991 73.3066 87.8271C73.7236 87.6552 74.08 87.3638 74.3305 86.9901C74.5809 86.6164 74.7142 86.1772 74.7134 85.728V75.3136H78.1969C80.7961 75.3112 83.2882 74.283 85.1261 72.4547C86.964 70.6263 87.9976 68.1472 88 65.5615V37.1488C87.9976 34.5631 86.964 32.084 85.1261 30.2557C83.2882 28.4273 80.7961 27.3991 78.1969 27.3967ZM34.0236 55.0564C33.724 55.0559 33.4273 55.1141 33.1503 55.2278C32.8734 55.3414 32.6216 55.5082 32.4095 55.7187L21.2841 66.7771V57.3244C21.2841 57.0266 21.2252 56.7316 21.1106 56.4565C20.996 56.1813 20.8281 55.9313 20.6164 55.7207C20.4047 55.5101 20.1534 55.3431 19.8768 55.2291C19.6002 55.1151 19.3037 55.0564 19.0044 55.0564H11.171C10.306 55.0612 9.44861 54.8962 8.64788 54.5707C7.84715 54.2453 7.11883 53.7659 6.50467 53.16C5.8905 52.5541 5.40255 51.8336 5.06878 51.0397C4.73501 50.2459 4.56197 49.3943 4.55959 48.5339V11.0766C4.55957 10.2146 4.73084 9.36113 5.06354 8.56519C5.39624 7.76926 5.88381 7.0466 6.49821 6.43876C7.11262 5.83092 7.84175 5.3499 8.64367 5.02333C9.44559 4.69677 10.3045 4.53112 11.171 4.5359H57.6788C59.4225 4.5359 61.0949 5.22502 62.3279 6.45164C63.561 7.67826 64.2537 9.34192 64.2537 11.0766V48.5339C64.2488 50.2654 63.554 51.9244 62.3215 53.1471C61.089 54.3698 59.4194 55.0565 57.6788 55.0564H34.0236ZM83.4404 65.5615C83.4404 66.945 82.888 68.2717 81.9046 69.25C80.9213 70.2282 79.5876 70.7778 78.1969 70.7778H72.4336C71.8289 70.7778 71.2491 71.0167 70.8215 71.442C70.394 71.8674 70.1538 72.4442 70.1538 73.0457V80.3031L61.2717 71.4854C61.0596 71.2749 60.8079 71.1081 60.5309 70.9944C60.254 70.8808 59.9572 70.8226 59.6576 70.8231H47.4653C46.769 70.8292 46.0785 70.6972 45.4341 70.4349C44.7896 70.1727 44.2041 69.7853 43.7118 69.2955C43.2194 68.8057 42.83 68.2233 42.5664 67.5822C42.3027 66.9411 42.1701 66.2542 42.1762 65.5615V59.5923H57.6788C60.6279 59.5899 63.4559 58.4247 65.5429 56.3518C67.63 54.279 68.806 51.4677 68.8133 48.5339V31.9326H78.1969C79.5876 31.9326 80.9213 32.4821 81.9046 33.4604C82.888 34.4386 83.4404 35.7654 83.4404 37.1488V65.5615Z" fill="#5326EC"/>
<path d="M34.6894 11.7659C33.3493 11.7295 32.0154 11.9608 30.7666 12.4459C29.5178 12.9311 28.3795 13.6604 27.4189 14.5907C26.4582 15.5209 25.6948 16.6333 25.1736 17.8621C24.6525 19.0909 24.3843 20.4112 24.3848 21.7448C24.3848 22.0427 24.4437 22.3376 24.5583 22.6127C24.6729 22.8879 24.8408 23.1379 25.0525 23.3485C25.2642 23.5591 25.5155 23.7262 25.7921 23.8401C26.0687 23.9541 26.3652 24.0128 26.6646 24.0128C26.9639 24.0128 27.2604 23.9541 27.537 23.8401C27.8136 23.7262 28.0649 23.5591 28.2766 23.3485C28.4883 23.1379 28.6562 22.8879 28.7708 22.6127C28.8854 22.3376 28.9444 22.0427 28.9444 21.7448C28.9418 21.019 29.0867 20.3001 29.3703 19.6313C29.654 18.9626 30.0705 18.3577 30.5949 17.853C31.1153 17.3408 31.7359 16.9404 32.4183 16.6767C33.1007 16.413 33.8303 16.2915 34.5618 16.3199C35.776 16.3639 36.941 16.8088 37.873 17.5842C38.805 18.3597 39.451 19.4218 39.7091 20.6029C39.9673 21.784 39.8229 23.017 39.2987 24.1075C38.7746 25.198 37.9004 26.0838 36.8142 26.6254C35.4321 27.2927 34.2637 28.329 33.4392 29.6185C32.6148 30.908 32.1668 32.4001 32.1452 33.9282C32.1452 33.9282 32.1452 33.9282 32.1452 33.9826V35.0531C32.1452 35.6546 32.3854 36.2314 32.8129 36.6567C33.2405 37.0821 33.8203 37.321 34.425 37.321C35.0296 37.321 35.6095 37.0821 36.037 36.6567C36.4646 36.2314 36.7048 35.6546 36.7048 35.0531V34.0189C36.71 33.317 36.9138 32.6308 37.2928 32.0388C37.6717 31.4468 38.2106 30.9729 38.8478 30.6714C40.8508 29.6836 42.4647 28.0585 43.4332 26.0541C44.4018 24.0496 44.6695 21.7808 44.1938 19.6077C43.7182 17.4346 42.5264 15.4819 40.8078 14.0596C39.0892 12.6372 36.9422 11.8267 34.7077 11.7568L34.6894 11.7659Z" fill="#5326EC"/>
<path d="M34.4067 42.1836C33.8021 42.1836 33.2222 42.4225 32.7947 42.8479C32.3671 43.2732 32.127 43.85 32.127 44.4515V45.2771C32.127 45.5749 32.1859 45.8698 32.3005 46.145C32.4151 46.4201 32.583 46.6701 32.7947 46.8807C33.0064 47.0913 33.2577 47.2584 33.5343 47.3724C33.8109 47.4863 34.1074 47.545 34.4067 47.545C34.7061 47.545 35.0026 47.4863 35.2792 47.3724C35.5558 47.2584 35.8071 47.0913 36.0188 46.8807C36.2305 46.6701 36.3984 46.4201 36.513 46.145C36.6276 45.8698 36.6865 45.5749 36.6865 45.2771V44.4515C36.6865 43.85 36.4463 43.2732 36.0188 42.8479C35.5913 42.4225 35.0114 42.1836 34.4067 42.1836Z" fill="#5326EC"/>
</g>
<defs>
<clipPath id="clip0_1088_48044">
<rect width="88" height="88" fill="white"/>
</clipPath>
</defs>
</svg>
