<svg width="83" height="66" fill="none" xmlns="http://www.w3.org/2000/svg"><path d="M34.429 30.51a3.018 3.018 0 0 0-2.401.612L7.201 50.819l-.027.023c-1.25 1.046-1.462 2.661-.528 4.02 1.163 1.693 4.592 2.93 8.532 3.077a22.765 22.765 0 0 0 4.292-.253c3.052-.467 6.71-1.636 10.579-4.187 3.005-1.982 5.594-5.701 6.928-9.95 1.405-4.478 1.19-8.744-.587-11.706a2.837 2.837 0 0 0-.833-.879 2.872 2.872 0 0 0-1.128-.454ZM78.587 40.061l-.033-.013-29.355-11.4a3.03 3.03 0 0 0-2.47.133 2.925 2.925 0 0 0-1.497 1.863c-.856 3.365.154 7.51 2.774 11.37 2.486 3.664 6.023 6.446 9.46 7.441 4.427 1.281 8.259 1.303 11.31.836a22.866 22.866 0 0 0 4.177-1.044c3.726-1.321 6.653-3.531 7.283-5.499.507-1.578-.156-3.06-1.65-3.687Z" fill="#7CE0D6"/><path fill-rule="evenodd" clip-rule="evenodd" d="M26.251 9.513a1.318 1.318 0 0 1 1.11-1.484A8.536 8.536 0 0 1 33.7 9.568a8.365 8.365 0 0 1 3.34 5.548 1.318 1.318 0 0 1-1.11 1.484 1.295 1.295 0 0 1-1.485-1.087 5.799 5.799 0 0 0-2.315-3.846 5.918 5.918 0 0 0-4.393-1.066 1.294 1.294 0 0 1-1.485-1.088ZM47.383 7.637a6.007 6.007 0 0 0-3.897 2.337 5.926 5.926 0 0 0-.996 2.08 5.843 5.843 0 0 0-.123 2.291 1.318 1.318 0 0 1-1.11 1.485 1.295 1.295 0 0 1-1.484-1.087c-.16-1.1-.1-2.224.176-3.306a8.551 8.551 0 0 1 1.437-3 8.647 8.647 0 0 1 5.623-3.372 1.294 1.294 0 0 1 1.485 1.088 1.318 1.318 0 0 1-1.11 1.484Z" fill="#2C3437"/><path d="m56.61 49.877-27.943 4.26 13.75 5.29a5.08 5.08 0 0 0 2.596.283 5.124 5.124 0 0 0 2.403-1.042l11.64-9.164-2.447.373ZM58.112 33.13l-34.626 5.274 1.212 8.272 35.918-5.47-1.211-8.272-1.293.197Z" fill="#2C3437"/><path d="m55.775 25.716-.34-.13-30.296 4.61-.289.228a5.068 5.068 0 0 0-1.562 2.076 4.946 4.946 0 0 0-.313 2.557l.473 3.233 35.916-5.467-.473-3.232a4.917 4.917 0 0 0-1.032-2.352 4.996 4.996 0 0 0-2.084-1.523ZM59.36 41.515l-34.622 5.27.476 3.25a4.912 4.912 0 0 0 1.033 2.357 4.994 4.994 0 0 0 2.092 1.524l.293.113 30.383-4.625.252-.199a5.083 5.083 0 0 0 1.553-2.08 4.962 4.962 0 0 0 .31-2.557l-.477-3.25-1.292.197Z" fill="#FFDD0F"/><path d="M41.693 20.205a5.075 5.075 0 0 0-2.594-.282 5.12 5.12 0 0 0-2.4 1.042l-11.601 9.133 30.303-4.62-13.708-5.273Z" fill="#2C3437"/></svg>