<svg width="152" height="130" fill="none" xmlns="http://www.w3.org/2000/svg"><path d="M66.988 56.058a5.34 5.34 0 0 0-2.075-.823 5.29 5.29 0 0 0-2.222.099L9.031 69.428c-.02.005-.04.01-.059.017-2.738.798-4.196 3.256-3.627 6.116.71 3.565 5.39 8.01 11.647 11.06a40.281 40.281 0 0 0 7.102 2.656c5.246 1.423 11.958 2.147 19.962.787 6.216-1.055 12.963-5.214 18.047-11.127 5.356-6.228 7.955-13.272 7.13-19.325-.1-.715-.351-1.401-.739-2.014a5.149 5.149 0 0 0-1.506-1.54ZM131.754 102.519a.892.892 0 0 0-.043-.044l-39.509-39.37a5.344 5.344 0 0 0-4.079-1.547 5.065 5.065 0 0 0-2.066.57 4.994 4.994 0 0 0-1.634 1.371c-3.704 4.824-4.934 12.24-3.37 20.346 1.484 7.693 5.272 14.71 10.133 18.771 6.261 5.23 12.43 8 17.676 9.423 2.443.667 4.942 1.1 7.462 1.296 6.925.525 13.174-.955 15.549-3.683 1.907-2.188 1.859-5.055-.119-7.133Z" fill="#7CE0D6"/><path fill-rule="evenodd" clip-rule="evenodd" d="M68.663 16.217a2.282 2.282 0 0 1 2.816-1.606 15.248 15.248 0 0 1 9.166 7.01 14.918 14.918 0 0 1 1.564 11.345 2.282 2.282 0 0 1-2.816 1.605c-1.232-.334-1.97-1.595-1.646-2.815a10.34 10.34 0 0 0-1.084-7.864 10.569 10.569 0 0 0-6.354-4.86c-1.232-.334-1.969-1.594-1.646-2.815ZM104.091 28.126a10.508 10.508 0 0 0-4.059-.286c-1.356.17-2.661.604-3.843 1.277a10.196 10.196 0 0 0-4.82 6.261 2.282 2.282 0 0 1-2.817 1.606c-1.232-.334-1.969-1.595-1.646-2.816a14.712 14.712 0 0 1 2.566-5.213 14.767 14.767 0 0 1 4.39-3.82 14.95 14.95 0 0 1 5.543-1.843 15.16 15.16 0 0 1 5.856.413c1.232.334 1.969 1.595 1.646 2.816a2.282 2.282 0 0 1-2.816 1.605Z" fill="#2C3437"/><path d="M89.32 102.852 41.277 89.858l18.523 18.343a9.011 9.011 0 0 0 3.992 2.304 8.943 8.943 0 0 0 4.6.024l25.137-6.54-4.207-1.137ZM103.492 76.897 43.956 60.803l-3.784 14.248 61.759 16.695 3.785-14.248-2.224-.601Z" fill="#2C3437"/><path d="m104.931 63.276-.458-.453-52.09-14.077-.624.162a8.803 8.803 0 0 0-3.962 2.25 8.669 8.669 0 0 0-2.281 3.916l-1.48 5.57L105.79 77.33l1.479-5.569a8.745 8.745 0 0 0-.032-4.539 8.93 8.93 0 0 0-2.306-3.947ZM99.63 91.305 40.1 75.218l-1.488 5.597a8.739 8.739 0 0 0 .031 4.55 8.927 8.927 0 0 0 2.318 3.955l.394.391 52.24 14.117.546-.142a8.83 8.83 0 0 0 3.95-2.264 8.69 8.69 0 0 0 2.273-3.918l1.487-5.598-2.221-.601Z" fill="#FFDD0F"/><path d="M86.087 44.389a9 9 0 0 0-3.99-2.301 8.938 8.938 0 0 0-4.596-.023L52.45 48.583l52.104 14.092-18.466-18.286Z" fill="#2C3437"/></svg>