<svg width="241" height="409" viewBox="0 0 241 409" fill="none" xmlns="http://www.w3.org/2000/svg">
<path d="M232.353 213.061C229.119 218.62 223.921 222.786 217.77 224.746C211.619 226.706 204.954 226.321 199.072 223.667C193.191 221.013 188.512 216.279 185.947 210.385C183.381 204.492 183.113 197.86 185.193 191.78C187.273 185.701 191.554 180.607 197.202 177.492C202.85 174.376 209.462 173.46 215.751 174.922C222.041 176.384 227.559 180.12 231.232 185.402C234.905 190.685 236.47 197.137 235.623 203.504C235.178 206.873 234.066 210.12 232.353 213.061Z" fill="#E1458D"/>
<path d="M105.454 0C108.065 0.178408 110.69 0.245206 113.283 0.561881C126.384 1.89279 139.04 6.02488 150.383 12.675C161.727 19.3251 171.49 28.3356 179.002 39.0888C190.895 55.3718 196.88 75.1836 195.978 95.2867C195.392 118.358 185.994 140.344 169.693 156.776C169.551 156.851 169.392 156.891 169.231 156.891C169.07 156.891 168.911 156.851 168.769 156.776C147.16 135.325 125.574 113.858 104.01 92.3749C103.543 91.8656 103.272 91.2081 103.247 90.5194C103.211 60.3447 103.201 30.1731 103.216 0.00435566L105.454 0Z" fill="#2FC8E0"/>
<path d="M0 104.836C0.179451 107.432 0.24664 110.041 0.565165 112.619C1.90444 125.644 6.06069 138.225 12.7496 149.503C19.4385 160.781 28.5016 170.487 39.3173 177.956C55.6957 189.78 75.6237 195.729 95.8442 194.834C119.051 194.251 141.164 184.908 157.692 168.702C157.768 168.56 157.808 168.403 157.808 168.242C157.808 168.082 157.768 167.924 157.692 167.783C136.116 146.296 114.524 124.835 92.9148 103.399C92.4021 102.936 91.7411 102.668 91.0485 102.642C60.6974 102.606 30.3495 102.595 0.00438112 102.61L0 104.836Z" fill="#2FC8E0"/>
<path d="M305.541 408.999C302.935 408.817 300.306 408.754 297.713 408.438C284.613 407.105 271.958 402.971 260.615 396.321C249.273 389.671 239.51 380.661 231.997 369.91C220.103 353.627 214.117 333.815 215.017 313.712C215.603 290.641 225.001 268.657 241.302 252.227C241.444 252.149 241.602 252.108 241.764 252.108C241.926 252.108 242.085 252.149 242.226 252.227C263.838 273.672 285.425 295.14 306.986 316.629C307.455 317.135 307.726 317.791 307.748 318.479C307.79 348.651 307.801 378.823 307.78 408.995L305.541 408.999Z" fill="#2FC8E0"/>
<path d="M305.541 0C302.935 0.178408 300.306 0.245206 297.713 0.561881C284.613 1.89254 271.957 6.02374 260.614 12.6739C249.271 19.324 239.509 28.3355 231.998 39.0888C220.102 55.3704 214.115 75.1829 215.018 95.2867C215.603 118.358 225.001 140.344 241.303 156.776C241.445 156.851 241.603 156.891 241.764 156.891C241.926 156.891 242.084 156.851 242.227 156.776C263.838 135.325 285.425 113.858 306.986 92.3749C307.457 91.8678 307.727 91.209 307.748 90.5194C307.79 60.3447 307.801 30.1731 307.78 0.00435566L305.541 0Z" fill="#2FC8E0"/>
<path d="M105.454 408.999C108.065 408.817 110.69 408.754 113.283 408.438C126.383 407.104 139.038 402.971 150.382 396.321C161.725 389.671 171.488 380.661 179.002 369.91C190.893 353.626 196.878 333.815 195.978 313.712C195.393 290.641 185.994 268.657 169.693 252.227C169.552 252.149 169.393 252.108 169.231 252.108C169.069 252.108 168.91 252.149 168.769 252.227C147.16 273.672 125.574 295.14 104.01 316.629C103.544 317.137 103.273 317.792 103.247 318.479C103.211 348.651 103.201 378.823 103.216 408.995L105.454 408.999Z" fill="#2FC8E0"/>
<path d="M0 304.163C0.179451 301.567 0.24664 298.954 0.565165 296.381C1.90386 283.356 6.06009 270.774 12.7491 259.496C19.438 248.218 28.5012 238.511 39.3173 231.043C55.6952 219.218 75.6232 213.267 95.8442 214.161C119.05 214.746 141.163 224.089 157.692 240.294C157.768 240.435 157.808 240.592 157.808 240.752C157.808 240.913 157.768 241.071 157.692 241.212C136.116 262.698 114.524 284.16 92.9148 305.595C92.4043 306.062 91.7419 306.331 91.0485 306.353C60.6974 306.395 30.3495 306.407 0.00438112 306.389L0 304.163Z" fill="#2FC8E0"/>
</svg>
