<svg width="113" height="115" viewBox="0 0 113 115" fill="none" xmlns="http://www.w3.org/2000/svg">
<g filter="url(#filter0_d_7061_18236)">
<path d="M25.1906 39.237C25.2719 34.0573 27.528 29.1178 31.4701 25.4889C35.39 21.8388 40.6913 19.7897 46.219 19.788C40.625 19.7843 35.2597 17.7016 31.299 13.997C27.3383 10.2924 25.1054 5.26817 25.0905 0.0256525C25.1013 2.62412 24.5631 5.1987 23.5066 7.60051C22.4502 10.0023 20.8963 12.1841 18.9351 14.0196C16.9877 15.8654 14.669 17.3299 12.1124 18.3289C9.55562 19.328 6.81209 19.8414 4.04145 19.8393C9.57698 19.8266 14.8945 21.8647 18.8355 25.5098C22.7987 29.1244 25.0824 34.057 25.1906 39.237Z" fill="#FCEB90"/>
<path d="M86.3076 63.4005C86.3369 66.2444 86.9208 69.0497 88.0223 71.64C89.1238 74.2303 90.7185 76.549 92.7069 78.45C96.9132 82.5396 102.4 84.8249 108.107 84.8654C102.493 84.5387 96.9815 86.5858 92.7756 90.5584C88.5696 94.5311 86.0111 100.107 85.6586 106.069C85.6838 103.191 85.138 100.34 84.0585 97.7012C82.9789 95.0629 81.3896 92.6962 79.3921 90.7547C75.176 86.5778 69.6349 84.236 63.865 84.192C69.5779 84.3203 75.1372 82.1963 79.4701 78.2303C81.5108 76.3916 83.1717 74.1246 84.3485 71.5723C85.5253 69.0199 86.1923 66.238 86.3076 63.4005Z" fill="#FFD936"/>
</g>
<defs>
<filter id="filter0_d_7061_18236" x="0.0415039" y="0.0253906" width="112.066" height="114.043" filterUnits="userSpaceOnUse" color-interpolation-filters="sRGB">
<feFlood flood-opacity="0" result="BackgroundImageFix"/>
<feColorMatrix in="SourceAlpha" type="matrix" values="0 0 0 0 0 0 0 0 0 0 0 0 0 0 0 0 0 0 127 0" result="hardAlpha"/>
<feOffset dy="4"/>
<feGaussianBlur stdDeviation="2"/>
<feComposite in2="hardAlpha" operator="out"/>
<feColorMatrix type="matrix" values="0 0 0 0 0 0 0 0 0 0 0 0 0 0 0 0 0 0 0.25 0"/>
<feBlend mode="normal" in2="BackgroundImageFix" result="effect1_dropShadow_7061_18236"/>
<feBlend mode="normal" in="SourceGraphic" in2="effect1_dropShadow_7061_18236" result="shape"/>
</filter>
</defs>
</svg>
