<svg width="256" height="226" viewBox="0 0 256 226" fill="none" xmlns="http://www.w3.org/2000/svg">
<path fill-rule="evenodd" clip-rule="evenodd" d="M73.8654 156.041C74.4021 156.653 74.9133 157.236 75.3741 157.773L75.5429 157.969L79.2321 161.658L80.1891 162.43L80.1954 162.435C81.0497 163.129 81.9786 163.912 82.9601 164.74L82.962 164.742C85.3377 166.745 88.021 169.008 90.6988 170.886L90.6999 170.887C128.295 197.249 178.809 194.845 213.561 164.974L213.562 164.973C230.251 150.622 241.046 132.562 246.075 111.21L246.076 111.209C246.209 110.64 246.345 109.995 246.456 109.463L246.456 109.462L246.456 109.462C246.501 109.247 246.542 109.052 246.577 108.887L248.351 100.648L215.608 100.535L214.216 105.562C209.242 123.538 198.825 137.71 183.013 147.265C157.58 162.625 124.305 159.192 102.428 139.01L102.426 139.009C92.5449 129.887 85.3922 118.458 81.9332 105.63L80.5896 100.647L75.4295 100.578C73.5654 100.553 71.6824 100.554 69.8563 100.555L69.8561 100.555L69.8461 100.555C69.2193 100.555 68.5992 100.556 67.9888 100.555L48.312 100.533L50.026 108.766C53.3135 124.556 60.0549 139.13 70.2023 151.745L70.2038 151.747C71.3692 153.194 72.6787 154.688 73.8639 156.039L73.8654 156.041ZM239.899 107.45C239.847 107.694 239.796 107.936 239.745 108.178L239.745 108.178C239.642 108.671 239.54 109.159 239.426 109.644" fill="#FED670"/>
<path fill-rule="evenodd" clip-rule="evenodd" d="M74.8617 78.7258L72.4488 76.3083L74.8594 78.7281C71.5181 82.0566 67.1267 84.1242 62.4325 84.5793C57.7383 85.0343 53.0315 83.8485 49.1132 81.2237C45.195 78.599 42.3073 74.6975 40.9419 70.1833C39.5764 65.6691 39.8175 60.8212 41.6241 56.4648C43.4307 52.1084 46.6912 48.5126 50.8506 46.2896C55.01 44.0666 59.8112 43.3537 64.4371 44.2722C69.063 45.1907 73.2276 47.684 76.2221 51.3275C79.2166 54.971 80.8559 59.5397 80.8611 64.2558L80.8611 64.2591C80.8614 66.9465 80.3317 69.6076 79.3022 72.09C78.2728 74.5724 76.7638 76.8274 74.8617 78.7258Z" fill="#FED670"/>
<path d="M61.1202 44.8379C72.4113 44.8379 81.5788 54.0054 81.5788 65.2965C81.5788 76.5876 72.4113 85.7551 61.1202 85.7551C49.8291 85.7551 40.6616 76.5876 40.6616 65.2965C40.6616 54.0054 49.8291 44.8379 61.1202 44.8379Z" stroke="#FF9803" stroke-width="0.4038"/>
<path d="M61.0587 51.8984C68.4124 51.8984 74.3831 57.8691 74.3831 65.2228C74.3831 72.5765 68.4124 78.5471 61.0587 78.5471C53.705 78.5471 47.7344 72.5765 47.7344 65.2228C47.7344 57.8691 53.705 51.8984 61.0587 51.8984Z" stroke="#FF9803" stroke-width="0.262988"/>
<g opacity="0.186361">
<path d="M121.953 62.7805C121.701 56.3215 120.439 50.1221 118.325 44.3322C117.989 43.4155 117.634 42.5108 117.256 41.6159C114.563 35.2216 110.807 29.3817 106.209 24.3227C105.467 23.5032 104.7 22.706 103.912 21.9279C99.0074 17.0877 93.2821 13.0714 86.966 10.1145C85.452 9.40258 83.9048 8.75527 82.324 8.16933C76.4217 5.98141 70.0844 4.68408 63.4804 4.44134C62.7234 4.41256 61.9637 4.39844 61.1997 4.39844C60.4356 4.39844 59.6759 4.41256 58.9189 4.44134C51.7838 4.70308 44.9659 6.19591 38.6639 8.71454C37.3954 9.21957 36.1453 9.76696 34.9191 10.3572C28.9152 13.2381 23.4587 17.0779 18.7445 21.6775C17.8328 22.5632 16.952 23.4799 16.095 24.4248C11.2956 29.7341 7.41721 35.8949 4.71992 42.6542C4.1557 44.0536 3.6485 45.4824 3.19125 46.9323C1.6224 51.9147 0.679678 57.1784 0.453772 62.6257C0.41793 63.4777 0.398926 64.3374 0.398926 65.1992C0.398926 66.061 0.41793 66.9206 0.453772 67.7726C0.7014 73.7505 1.81301 79.5073 3.67021 84.9187C4.05795 86.0542 4.47935 87.1756 4.93442 88.2801C7.62411 94.8298 11.4216 100.805 16.0972 105.974C17.097 107.078 18.1374 108.147 19.2137 109.178C23.2724 113.052 27.8677 116.37 32.8745 119.01C34.2788 119.753 35.7168 120.441 37.1857 121.072C43.6637 123.86 50.7222 125.555 58.1309 125.924C59.1475 125.974 60.1717 126 61.1997 126C62.2282 126 63.2518 125.974 64.2689 125.924C70.427 125.617 76.3457 124.395 81.888 122.389C83.2 121.915 84.4881 121.396 85.7544 120.836C92.4111 117.896 98.441 113.794 103.586 108.79C104.583 107.821 105.547 106.816 106.479 105.778C110.813 100.943 114.387 95.4103 117.006 89.3657C117.511 88.2084 117.977 87.0328 118.406 85.8375C120.591 79.7859 121.843 73.2867 121.986 66.516C121.996 66.0778 122 65.6396 122 65.1992C122 64.3895 121.984 63.5825 121.953 62.7805ZM103.9 80.6238L93.6584 76.9457L103.324 82.0878C101.248 87.0947 98.3052 91.6513 94.6815 95.5699L84.5711 86.8183L93.3462 96.958C89.2658 101.019 84.4185 104.312 79.0435 106.6L73.4198 94.6701L77.2813 107.307C72.8534 108.978 68.0963 109.978 63.1329 110.185L61.1997 83.3618L59.267 110.185C53.3174 109.937 47.6632 108.549 42.5157 106.233L48.4343 89.7583L40.2545 105.136C36.274 103.076 32.6383 100.443 29.4534 97.3484L39.5594 85.6708L27.8965 95.7627C24.0941 91.6991 21.0302 86.9372 18.914 81.6903L27.5223 77.6311L18.4209 80.412C16.8309 76.1029 15.8735 71.4844 15.6639 66.6752L36.1263 65.1992L15.6286 63.721C15.7095 59.6737 16.3161 55.7551 17.3875 52.0315L32.6714 57.5238L18.1016 49.7724C20.1157 43.9369 23.28 38.6378 27.3295 34.148L36.1263 41.7614L28.4743 32.9218C32.1289 29.1503 36.4309 26.0105 41.1994 23.6776L46.9844 35.9498L42.9827 22.8538C48.2106 20.5708 53.9484 19.242 59.9762 19.0823L61.1997 36.0644L62.4237 19.0823C67.6706 19.2208 72.6937 20.2444 77.3525 22.011L70.5177 41.0376L80.0427 23.1296C85.3852 25.5608 90.1754 28.9891 94.1749 33.1786L88.7993 39.39L94.9769 34.0432C98.6604 38.1046 101.622 42.8323 103.655 48.0271L98.9194 50.2601L103.924 48.7319C105.686 53.4575 106.685 58.5545 106.773 63.8758L96.0842 64.6469L106.773 65.4186C106.685 70.7605 105.678 75.8792 103.9 80.6238Z" fill="#FFAB14"/>
<path d="M18.4199 80.4112L27.5213 77.6309L18.913 81.6896C18.7414 81.2682 18.5774 80.8419 18.4199 80.4112Z" fill="#FFAB14"/>
<path d="M32.6702 57.5229L17.3862 52.0305C17.6051 51.2687 17.8435 50.5165 18.1003 49.7715L32.6702 57.5229Z" fill="#FFAB14"/>
<path d="M36.1252 65.1989L15.6627 66.6749C15.6323 66.0037 15.6177 65.3281 15.6177 64.6471C15.6177 64.3376 15.6204 64.0281 15.6275 63.7207L36.1252 65.1989Z" fill="#FFAB14"/>
<path d="M36.1254 41.7615L27.3281 34.1481C27.6996 33.7316 28.083 33.3216 28.4734 32.9219L36.1254 41.7615Z" fill="#FFAB14"/>
<path d="M27.8955 95.7618L39.5579 85.6699L29.4524 97.3475C28.9191 96.8354 28.4 96.3049 27.8955 95.7618Z" fill="#FFAB14"/>
<path d="M46.9838 35.9495L41.1982 23.6768C41.7864 23.389 42.381 23.1131 42.9811 22.8535L46.9838 35.9495Z" fill="#FFAB14"/>
<path d="M40.2534 105.135L48.4327 89.7578L42.5146 106.233C41.7479 105.887 40.9936 105.523 40.2534 105.135Z" fill="#FFAB14"/>
<path d="M61.1986 36.0647L59.9746 19.0832C60.3813 19.0713 60.7892 19.0664 61.1986 19.0664C61.6081 19.0664 62.0154 19.0713 62.4226 19.0832L61.1986 36.0647Z" fill="#FFAB14"/>
<path d="M61.1989 83.3613L63.1321 110.185C62.4918 110.211 61.8462 110.226 61.1989 110.226C60.5516 110.226 59.9059 110.211 59.2656 110.185L61.1989 83.3613Z" fill="#FFAB14"/>
<path d="M73.4189 94.6699L79.0416 106.599C78.4606 106.847 77.8735 107.083 77.2805 107.308L73.4189 94.6699Z" fill="#FFAB14"/>
<path d="M77.3513 22.0098C78.2637 22.3551 79.1608 22.7293 80.0416 23.1295L70.5166 41.0369L77.3513 22.0098Z" fill="#FFAB14"/>
<path d="M84.5703 86.8184L94.6807 95.5706C94.2473 96.0441 93.8026 96.5057 93.3453 96.9581L84.5703 86.8184Z" fill="#FFAB14"/>
<path d="M94.976 34.0437L88.7983 39.391L94.1734 33.1797C94.4449 33.4626 94.7121 33.751 94.976 34.0437Z" fill="#FFAB14"/>
<path d="M93.6567 76.9453L103.899 80.6233C103.715 81.1164 103.522 81.6046 103.322 82.0879L93.6567 76.9453Z" fill="#FFAB14"/>
<path d="M103.923 48.7322L98.9185 50.2603L103.654 48.0273C103.747 48.2609 103.837 48.4965 103.923 48.7322Z" fill="#FFAB14"/>
<path d="M106.78 64.6461C106.78 64.903 106.777 65.1604 106.772 65.4172L96.083 64.6461L106.772 63.875C106.777 64.1291 106.78 64.3887 106.78 64.6461Z" fill="#FFAB14"/>
<path d="M63.4795 4.44134L62.4228 19.0823L61.1987 36.0644L59.9753 19.0823L58.918 4.44134C59.675 4.41256 60.4347 4.39844 61.1987 4.39844C61.9628 4.39844 62.722 4.41256 63.4795 4.44134Z" fill="#FFAB14"/>
<path d="M64.2674 125.923C63.2508 125.973 62.2267 125.999 61.1987 125.999C60.1702 125.999 59.146 125.973 58.1294 125.923L59.2654 110.185L61.1987 83.3613L63.1314 110.185L64.2674 125.923Z" fill="#FFAB14"/>
<path d="M36.1255 41.7606L27.3287 34.1476L16.0942 24.425C16.9512 23.4796 17.832 22.5629 18.7443 21.6777L28.474 32.9214L36.1255 41.7606Z" fill="#FFAB14"/>
<path d="M106.478 105.778C105.546 106.816 104.583 107.821 103.585 108.79L93.3453 96.9575L84.5703 86.8184L94.6807 95.57L106.478 105.778Z" fill="#FFAB14"/>
<path d="M121.999 65.2C121.999 65.6404 121.994 66.0786 121.985 66.5163L106.772 65.4188L96.083 64.6477L106.772 63.876L121.951 62.7812C121.983 63.5833 121.999 64.3903 121.999 65.2Z" fill="#FFAB14"/>
<path d="M36.1253 65.1985L15.6629 66.6745L0.452798 67.772C0.416956 66.9194 0.397949 66.0603 0.397949 65.1985C0.397949 64.3367 0.416956 63.477 0.452798 62.625L15.6276 63.7198L36.1253 65.1985Z" fill="#FFAB14"/>
<path d="M106.208 24.322L94.976 34.043L88.7983 39.3898L94.1739 33.179L103.911 21.9277C104.699 22.7059 105.466 23.5031 106.208 24.322Z" fill="#FFAB14"/>
<path d="M39.5584 85.6699L29.4523 97.3475L19.2127 109.177C18.1369 108.146 17.0965 107.077 16.0962 105.973L27.8954 95.7618L39.5584 85.6699Z" fill="#FFAB14"/>
<path d="M86.9654 10.1151L80.0416 23.1302L70.5166 41.0382L77.3513 22.0115L82.3224 8.16992C83.9032 8.75587 85.4514 9.40317 86.9654 10.1151Z" fill="#FFAB14"/>
<path d="M48.4334 89.7578L42.5148 106.233L37.1848 121.072C35.7159 120.441 34.2779 119.752 32.873 119.01L40.2535 105.135L48.4334 89.7578Z" fill="#FFAB14"/>
<path d="M46.9833 35.9495L41.1983 23.6773L34.918 10.357C36.1442 9.76672 37.3937 9.21933 38.6628 8.71484L42.9811 22.8535L46.9833 35.9495Z" fill="#FFAB14"/>
<path d="M85.7536 120.836C84.4872 121.396 83.1992 121.915 81.8872 122.388L77.2805 107.307L73.4189 94.6699L79.0427 106.6L85.7536 120.836Z" fill="#FFAB14"/>
<path d="M118.405 85.8376C117.976 87.0329 117.51 88.2086 117.005 89.3658L103.323 82.0879L93.6572 76.9453L103.899 80.6239L118.405 85.8376Z" fill="#FFAB14"/>
<path d="M32.6711 57.5239L17.3872 52.0316L3.19092 46.9324C3.64816 45.4825 4.15536 44.0537 4.71904 42.6543L18.1013 49.7725L32.6711 57.5239Z" fill="#FFAB14"/>
<path d="M118.324 44.3315L103.923 48.7313L98.9185 50.2594L103.653 48.0264L117.254 41.6152C117.633 42.5102 117.988 43.4149 118.324 44.3315Z" fill="#FFAB14"/>
<path d="M27.5216 77.6309L18.9122 81.6901L4.93369 88.2799C4.47862 87.1754 4.05668 86.054 3.66895 84.918L18.4196 80.4118L27.5216 77.6309Z" fill="#FFAB14"/>
</g>
<path d="M97.0724 63.1435C96.9222 59.2918 96.1696 55.5949 94.9089 52.1421C94.7087 51.5955 94.4973 51.056 94.2716 50.5223C92.666 46.7091 90.4257 43.2266 87.6841 40.2097C87.2414 39.721 86.7841 39.2456 86.3139 38.7816C83.3893 35.8952 79.9751 33.5001 76.2086 31.7368C75.3057 31.3123 74.3831 30.9263 73.4404 30.5768C69.9207 29.2721 66.1415 28.4985 62.2033 28.3537C61.7519 28.3365 61.2988 28.3281 60.8432 28.3281C60.3875 28.3281 59.9345 28.3365 59.4831 28.3537C55.2282 28.5098 51.1624 29.4 47.4043 30.902C46.6478 31.2031 45.9023 31.5296 45.1711 31.8816C41.5908 33.5995 38.3369 35.8894 35.5256 38.6323C34.9819 39.1605 34.4566 39.7071 33.9456 40.2706C31.0836 43.4367 28.7707 47.1107 27.1622 51.1415C26.8258 51.976 26.5233 52.828 26.2506 53.6926C25.3151 56.6638 24.7529 59.8028 24.6182 63.0512C24.5968 63.5593 24.5854 64.0719 24.5854 64.5859C24.5854 65.0998 24.5968 65.6124 24.6182 66.1205C24.7658 69.6853 25.4287 73.1183 26.5362 76.3453C26.7675 77.0225 27.0188 77.6912 27.2901 78.3499C28.8941 82.2557 31.1587 85.8189 33.9469 88.9011C34.5431 89.5598 35.1636 90.1975 35.8054 90.8121C38.2258 93.122 40.9661 95.101 43.9519 96.6755C44.7893 97.1185 45.6468 97.5288 46.5228 97.9048C50.3858 99.5674 54.5951 100.578 59.0132 100.798C59.6194 100.828 60.2302 100.844 60.8432 100.844C61.4565 100.844 62.067 100.828 62.6735 100.798C66.3458 100.615 69.8753 99.8867 73.1804 98.6901C73.9628 98.4074 74.7309 98.0981 75.4861 97.7642C79.4557 96.011 83.0516 93.565 86.1196 90.5806C86.7145 90.0028 87.2893 89.4037 87.8447 88.7846C90.4296 85.9011 92.5611 82.6019 94.1226 78.9972C94.4234 78.3071 94.7016 77.606 94.9574 76.8933C96.2606 73.2844 97.0073 69.4088 97.0925 65.3712C97.098 65.1098 97.1009 64.8485 97.1009 64.5859C97.1009 64.103 97.0912 63.6218 97.0724 63.1435ZM86.3071 73.7841L80.1996 71.5908L85.9632 74.6572C84.7255 77.643 82.9706 80.3603 80.8097 82.6971L74.7805 77.4781L80.0134 83.5248C77.58 85.9468 74.6895 87.9102 71.4841 89.2745L68.1305 82.1605L70.4333 89.6962C67.7927 90.6926 64.9559 91.2891 61.996 91.4128L60.8432 75.4169L59.6907 91.4128C56.1427 91.2648 52.7709 90.4371 49.7013 89.0559L53.2308 79.2314L48.3528 88.4015C45.9791 87.1735 43.811 85.6032 41.9117 83.7576L47.9383 76.7939L40.9832 82.812C38.7157 80.3888 36.8887 77.549 35.6267 74.4201L40.7601 71.9995L35.3326 73.6578C34.3844 71.0882 33.8135 68.3339 33.6885 65.466L45.891 64.5859L33.6675 63.7044C33.7157 61.2908 34.0774 58.954 34.7164 56.7335L43.8307 60.0088L35.1422 55.3863C36.3433 51.9064 38.2303 48.7464 40.6452 46.0689L45.891 50.6091L41.3278 45.3377C43.5072 43.0886 46.0727 41.2162 48.9163 39.825L52.3661 47.1434L49.9798 39.3337C53.0973 37.9723 56.519 37.1799 60.1136 37.0847L60.8432 47.2117L61.5731 37.0847C64.702 37.1672 67.6975 37.7777 70.4757 38.8311L66.3999 50.1774L72.08 39.4982C75.2659 40.948 78.1225 42.9924 80.5075 45.4908L77.3019 49.1949L80.9858 46.0064C83.1824 48.4283 84.9486 51.2477 86.1607 54.3455L83.3369 55.6771L86.3214 54.7658C87.3719 57.5839 87.9681 60.6234 88.0205 63.7967L81.6461 64.2565L88.0205 64.7167C87.9681 67.9023 87.3674 70.9548 86.3071 73.7841Z" fill="#FFAB14"/>
<path d="M35.3325 73.658L40.76 72L35.6266 74.4204C35.5242 74.1691 35.4264 73.9148 35.3325 73.658Z" fill="#FFAB14"/>
<path d="M43.8307 60.0092L34.7163 56.7339C34.8468 56.2795 34.989 55.831 35.1422 55.3867L43.8307 60.0092Z" fill="#FFAB14"/>
<path d="M45.891 64.5866L33.6885 65.4668C33.6704 65.0665 33.6616 64.6636 33.6616 64.2575C33.6616 64.073 33.6632 63.8884 33.6675 63.7051L45.891 64.5866Z" fill="#FFAB14"/>
<path d="M45.8912 50.6093L40.645 46.0691C40.8665 45.8207 41.0952 45.5762 41.328 45.3379L45.8912 50.6093Z" fill="#FFAB14"/>
<path d="M40.9834 82.8112L47.9381 76.793L41.9118 83.7568C41.5938 83.4514 41.2842 83.135 40.9834 82.8112Z" fill="#FFAB14"/>
<path d="M52.3667 47.1436L48.9165 39.8249C49.2672 39.6533 49.6218 39.4888 49.9797 39.334L52.3667 47.1436Z" fill="#FFAB14"/>
<path d="M48.3525 88.4002L53.2302 79.2305L49.701 89.055C49.2437 88.8491 48.7939 88.6318 48.3525 88.4002Z" fill="#FFAB14"/>
<path d="M60.8427 47.211L60.1128 37.0843C60.3553 37.0771 60.5985 37.0742 60.8427 37.0742C61.0869 37.0742 61.3298 37.0771 61.5726 37.0843L60.8427 47.211Z" fill="#FFAB14"/>
<path d="M60.8433 75.416L61.9961 91.4119C61.6143 91.4275 61.2293 91.4362 60.8433 91.4362C60.4573 91.4362 60.0722 91.4275 59.6904 91.4119L60.8433 75.416Z" fill="#FFAB14"/>
<path d="M68.1304 82.1602L71.4834 89.2742C71.1369 89.4219 70.7868 89.5627 70.4332 89.6965L68.1304 82.1602Z" fill="#FFAB14"/>
<path d="M70.4757 38.8301C71.0198 39.036 71.5547 39.2592 72.08 39.4978L66.3999 50.1767L70.4757 38.8301Z" fill="#FFAB14"/>
<path d="M74.7803 77.4785L80.8095 82.6978C80.551 82.9802 80.2858 83.2554 80.0132 83.5252L74.7803 77.4785Z" fill="#FFAB14"/>
<path d="M80.9857 46.0055L77.3018 49.1943L80.5071 45.4902C80.669 45.659 80.8283 45.8309 80.9857 46.0055Z" fill="#FFAB14"/>
<path d="M80.1992 71.5898L86.3068 73.7832C86.1973 74.0772 86.0824 74.3684 85.9632 74.6566L80.1992 71.5898Z" fill="#FFAB14"/>
<path d="M86.3214 54.766L83.3369 55.6773L86.1608 54.3457C86.2161 54.485 86.2702 54.6255 86.3214 54.766Z" fill="#FFAB14"/>
<path d="M88.0254 64.2567C88.0254 64.4099 88.0238 64.5634 88.0209 64.7166L81.6465 64.2567L88.0209 63.7969C88.0238 63.9484 88.0254 64.1032 88.0254 64.2567Z" fill="#FFAB14"/>
<path d="M62.2031 28.3537L61.573 37.0847L60.843 47.2117L60.1134 37.0847L59.4829 28.3537C59.9343 28.3365 60.3874 28.3281 60.843 28.3281C61.2987 28.3281 61.7514 28.3365 62.2031 28.3537Z" fill="#FFAB14"/>
<path d="M62.6735 100.797C62.0673 100.827 61.4565 100.843 60.8435 100.843C60.2302 100.843 59.6194 100.827 59.0132 100.797L59.6907 91.4119L60.8435 75.416L61.996 91.4119L62.6735 100.797Z" fill="#FFAB14"/>
<path d="M45.8912 50.6089L40.6453 46.0691L33.9458 40.2711C34.4568 39.7073 34.9821 39.1607 35.5261 38.6328L41.3283 45.3379L45.8912 50.6089Z" fill="#FFAB14"/>
<path d="M87.8445 88.785C87.2891 89.4041 86.7143 90.0032 86.1194 90.5809L80.0132 83.5249L74.7803 77.4785L80.8095 82.6975L87.8445 88.785Z" fill="#FFAB14"/>
<path d="M97.1013 64.5849C97.1013 64.8476 97.0984 65.1089 97.0929 65.3699L88.0209 64.7155L81.6465 64.2556L88.0209 63.7954L97.0728 63.1426C97.0916 63.6209 97.1013 64.1021 97.1013 64.5849Z" fill="#FFAB14"/>
<path d="M45.891 64.5854L33.6885 65.4656L24.6182 66.1201C24.5968 65.6117 24.5854 65.0994 24.5854 64.5854C24.5854 64.0715 24.5968 63.5589 24.6182 63.0508L33.6675 63.7036L45.891 64.5854Z" fill="#FFAB14"/>
<path d="M87.684 40.209L80.9857 46.006L77.3018 49.1945L80.5074 45.4908L86.3141 38.7812C86.784 39.2453 87.2413 39.7207 87.684 40.209Z" fill="#FFAB14"/>
<path d="M47.9386 76.793L41.912 83.7568L35.8058 90.8112C35.1642 90.1966 34.5438 89.5589 33.9473 88.9003L40.9836 82.8112L47.9386 76.793Z" fill="#FFAB14"/>
<path d="M76.2089 31.7362L72.08 39.4976L66.3999 50.1767L70.4757 38.8304L73.4401 30.5762C74.3828 30.9256 75.3061 31.3116 76.2089 31.7362Z" fill="#FFAB14"/>
<path d="M53.2309 79.2305L49.7014 89.055L46.5229 97.9042C45.6469 97.5279 44.7894 97.1173 43.9517 96.6746L48.3529 88.4006L53.2309 79.2305Z" fill="#FFAB14"/>
<path d="M52.3659 47.1434L48.9161 39.825L45.1709 31.8816C45.9021 31.5296 46.6473 31.2032 47.4041 30.9023L49.9792 39.3338L52.3659 47.1434Z" fill="#FFAB14"/>
<path d="M75.486 97.7642C74.7308 98.0978 73.9627 98.4074 73.1803 98.6898L70.4332 89.6962L68.1304 82.1602L71.484 89.2745L75.486 97.7642Z" fill="#FFAB14"/>
<path d="M94.9576 76.8927C94.7018 77.6054 94.4239 78.3065 94.1227 78.9966L85.9637 74.6566L80.1997 71.5898L86.3073 73.7835L94.9576 76.8927Z" fill="#FFAB14"/>
<path d="M43.8311 60.0079L34.7167 56.7326L26.251 53.6918C26.5236 52.8272 26.8261 51.9752 27.1623 51.1406L35.1426 55.3855L43.8311 60.0079Z" fill="#FFAB14"/>
<path d="M94.9089 52.1413L86.3211 54.765L83.3369 55.6763L86.1604 54.3447L94.2713 50.5215C94.4973 51.0552 94.7088 51.5947 94.9089 52.1413Z" fill="#FFAB14"/>
<path d="M40.7603 72L35.6262 74.4207L27.2903 78.3504C27.019 77.6918 26.7674 77.023 26.5361 76.3456L35.3325 73.6584L40.7603 72Z" fill="#FFAB14"/>
<path d="M42.0825 113.231L41.4742 112.99C41.2736 112.91 41.2736 112.626 41.4742 112.547L42.0825 112.306H42.0698L42.3108 111.697C42.3902 111.497 42.6742 111.497 42.7536 111.697L42.9946 112.306L43.603 112.547C43.8036 112.626 43.8036 112.91 43.603 112.99L42.9946 113.231L42.7536 113.839C42.6742 114.04 42.3902 114.04 42.3108 113.839L42.0698 113.231H42.0825Z" fill="#FFAB14"/>
<path d="M79.1353 19.0901L77.9185 18.6081C77.5174 18.4492 77.5174 17.8814 77.9185 17.7224L79.1353 17.2405H79.1097L79.5917 16.0236C79.7507 15.6223 80.3186 15.6223 80.4775 16.0236L80.9594 17.2405L82.1763 17.7224C82.5775 17.8814 82.5775 18.4492 82.1763 18.6081L80.9594 19.0901L80.4775 20.307C80.3186 20.7081 79.7507 20.7081 79.5917 20.307L79.1097 19.0901H79.1353Z" fill="#FFAB14"/>
<path d="M52.7877 104.407L51.2667 103.804C50.7653 103.605 50.7653 102.896 51.2667 102.697L52.7877 102.095H52.7557L53.3582 100.573C53.5568 100.072 54.2667 100.072 54.4654 100.573L55.0678 102.095L56.5889 102.697C57.0904 102.896 57.0904 103.605 56.5889 103.804L55.0678 104.407L54.4654 105.928C54.2667 106.429 53.5568 106.429 53.3582 105.928L52.7557 104.407H52.7877Z" fill="white"/>
<path d="M65.4028 13.8558L64.006 13.3025C63.5455 13.1201 63.5455 12.4683 64.006 12.2858L65.4028 11.7326H65.3734L65.9267 10.3357C66.1091 9.87509 66.7611 9.87509 66.9435 10.3357L67.4967 11.7326L68.8936 12.2858C69.3542 12.4683 69.3542 13.1201 68.8936 13.3025L67.4967 13.8558L66.9435 15.2527C66.7611 15.7132 66.1091 15.7132 65.9267 15.2527L65.3734 13.8558H65.4028Z" fill="white"/>
</svg>
