<svg width="30" height="30" viewBox="0 0 30 30" fill="none" xmlns="http://www.w3.org/2000/svg">
<path d="M12.6367 7.82504V2.3659C12.6366 2.05524 12.6978 1.74753 12.8166 1.4605C12.9354 1.17346 13.1096 0.912476 13.3293 0.692777C13.5489 0.473078 13.8097 0.298996 14.0967 0.180093C14.3837 0.0611897 14.6913 6.51686e-08 15.002 7.49945e-08C15.3127 -7.80817e-05 15.6204 0.0609342 15.9075 0.179802C16.1946 0.298671 16.4554 0.47307 16.6751 0.692777C16.8948 0.912483 17.0691 1.17313 17.1879 1.4602C17.3068 1.74728 17.3679 2.05519 17.3679 2.3659V7.82504C17.3679 8.13575 17.3068 8.44336 17.1879 8.73044C17.0691 9.01751 16.8948 9.27845 16.6751 9.49816C16.4554 9.71786 16.1946 9.89197 15.9075 10.0108C15.6204 10.1297 15.3127 10.191 15.002 10.1909C14.6913 10.1909 14.3837 10.1297 14.0967 10.0108C13.8097 9.89194 13.5489 9.71756 13.3293 9.49787C13.1096 9.27817 12.9354 9.01747 12.8166 8.73044C12.6978 8.4434 12.6366 8.1357 12.6367 7.82504Z" fill="#E1458D"/>
<path d="M12.6367 27.0549V21.5949C12.6367 20.9676 12.8859 20.366 13.3295 19.9224C13.7731 19.4788 14.3747 19.2296 15.002 19.2296C15.3127 19.2295 15.6203 19.2906 15.9073 19.4094C16.1944 19.5282 16.4552 19.7025 16.6749 19.9221C16.8946 20.1417 17.0689 20.4025 17.1878 20.6895C17.3067 20.9765 17.3679 21.2843 17.3679 21.5949V27.0549C17.3679 27.6824 17.1186 28.2841 16.6749 28.7278C16.2312 29.1715 15.6295 29.4205 15.002 29.4205C14.6913 29.4205 14.3837 29.3594 14.0967 29.2405C13.8097 29.1216 13.5489 28.9475 13.3293 28.7278C13.1096 28.5081 12.9354 28.2471 12.8166 27.9601C12.6978 27.673 12.6366 27.3656 12.6367 27.0549Z" fill="#E1458D"/>
<path d="M21.8839 12.3463H27.3414C27.652 12.3463 27.9596 12.4074 28.2466 12.5263C28.5337 12.6452 28.7944 12.8196 29.0141 13.0393C29.2337 13.259 29.4079 13.5197 29.5268 13.8067C29.6456 14.0938 29.7067 14.4015 29.7066 14.7122C29.7066 15.3395 29.4574 15.941 29.0139 16.3847C28.5703 16.8284 27.9687 17.0779 27.3414 17.078H21.8815C21.2541 17.0779 20.6524 16.8283 20.2087 16.3847C19.7651 15.941 19.5158 15.3396 19.5156 14.7122C19.5156 14.4013 19.5769 14.0934 19.6959 13.8062C19.815 13.519 19.9895 13.2579 20.2094 13.0382C20.4294 12.8184 20.6904 12.6442 20.9778 12.5255C21.2651 12.4067 21.573 12.3459 21.8839 12.3463Z" fill="#E1458D"/>
<path d="M2.65431 12.3463H8.11421C8.74167 12.3463 9.34342 12.5953 9.78711 13.039C10.2308 13.4827 10.4801 14.0847 10.4801 14.7122C10.4799 15.3396 10.2306 15.941 9.78693 16.3847C9.34328 16.8283 8.74163 17.0779 8.11421 17.078H2.65431C2.02694 17.0779 1.42536 16.8284 0.981803 16.3847C0.538245 15.941 0.289063 15.3395 0.289063 14.7122C0.288984 14.4015 0.350107 14.0938 0.468938 13.8067C0.587769 13.5197 0.761978 13.259 0.981621 13.0393C1.20127 12.8196 1.46204 12.6452 1.74905 12.5263C2.03606 12.4074 2.34364 12.3463 2.65431 12.3463Z" fill="#E1458D"/>
</svg>
