<svg width="1440" height="840" viewBox="0 0 1440 840" fill="none" xmlns="http://www.w3.org/2000/svg">
<g opacity="0.4">
<g opacity="0.4">
<path d="M96.3 368.1C96.3 383.7 93.7 398.2 88.5 411.6C83.3 425 76.1 436.6 66.9 446.4C57.7 456 46.6 463.6 33.6 469.2C20.8 474.6 6.90001 477.3 -8.09999 477.3C-23.5 477.3 -38 474.5 -51.6 468.9C-65 463.3 -76.7 455.7 -86.7 446.1C-96.5 436.3 -104.3 424.8 -110.1 411.6C-115.7 398.4 -118.5 384.2 -118.5 369C-118.5 353.8 -115.7 339.6 -110.1 326.4C-104.3 313.2 -96.5 301.8 -86.7 292.2C-76.9 282.4 -65.3 274.7 -51.9 269.1C-38.5 263.5 -24.2 260.7 -8.99999 260.7C8.4 260.7 25 264.3 40.8 271.5C56.6 278.5 69.4 288.5 79.2 301.5L42.9 333C36.3 324.2 28.5 317.6 19.5 313.2C10.7 308.8 1.20001 306.6 -8.99999 306.6C-17 306.6 -24.5 308.2 -31.5 311.4C-38.3 314.6 -44.2 319 -49.2 324.6C-54.2 330 -58.1 336.6 -60.9 344.4C-63.7 352 -65.1 360.2 -65.1 369C-65.1 378 -63.7 386.4 -60.9 394.2C-57.9 401.8 -53.8 408.4 -48.6 414C-43.4 419.6 -37.3 424 -30.3 427.2C-23.1 430.4 -15.4 432 -7.2 432C4.60001 432 14.8 428.7 23.4 422.1C32.2 415.5 38 407.1 40.8 396.9H-11.7V353.4H96.3V368.1ZM121.099 474V264H172.699V474H121.099ZM265.284 474L184.584 264H240.384L295.884 420.3L352.284 264H405.984L324.084 474H265.284Z" fill="#EBECF2"/>
<path d="M636.3 368.1C636.3 383.7 633.7 398.2 628.5 411.6C623.3 425 616.1 436.6 606.9 446.4C597.7 456 586.6 463.6 573.6 469.2C560.8 474.6 546.9 477.3 531.9 477.3C516.5 477.3 502 474.5 488.4 468.9C475 463.3 463.3 455.7 453.3 446.1C443.5 436.3 435.7 424.8 429.9 411.6C424.3 398.4 421.5 384.2 421.5 369C421.5 353.8 424.3 339.6 429.9 326.4C435.7 313.2 443.5 301.8 453.3 292.2C463.1 282.4 474.7 274.7 488.1 269.1C501.5 263.5 515.8 260.7 531 260.7C548.4 260.7 565 264.3 580.8 271.5C596.6 278.5 609.4 288.5 619.2 301.5L582.9 333C576.3 324.2 568.5 317.6 559.5 313.2C550.7 308.8 541.2 306.6 531 306.6C523 306.6 515.5 308.2 508.5 311.4C501.7 314.6 495.8 319 490.8 324.6C485.8 330 481.9 336.6 479.1 344.4C476.3 352 474.9 360.2 474.9 369C474.9 378 476.3 386.4 479.1 394.2C482.1 401.8 486.2 408.4 491.4 414C496.6 419.6 502.7 424 509.7 427.2C516.9 430.4 524.6 432 532.8 432C544.6 432 554.8 428.7 563.4 422.1C572.2 415.5 578 407.1 580.8 396.9H528.3V353.4H636.3V368.1ZM661.099 474V264H712.699V474H661.099ZM805.284 474L724.584 264H780.384L835.884 420.3L892.284 264H945.984L864.084 474H805.284Z" fill="#EBECF2"/>
<path d="M1176.3 368.1C1176.3 383.7 1173.7 398.2 1168.5 411.6C1163.3 425 1156.1 436.6 1146.9 446.4C1137.7 456 1126.6 463.6 1113.6 469.2C1100.8 474.6 1086.9 477.3 1071.9 477.3C1056.5 477.3 1042 474.5 1028.4 468.9C1015 463.3 1003.3 455.7 993.3 446.1C983.5 436.3 975.7 424.8 969.9 411.6C964.3 398.4 961.5 384.2 961.5 369C961.5 353.8 964.3 339.6 969.9 326.4C975.7 313.2 983.5 301.8 993.3 292.2C1003.1 282.4 1014.7 274.7 1028.1 269.1C1041.5 263.5 1055.8 260.7 1071 260.7C1088.4 260.7 1105 264.3 1120.8 271.5C1136.6 278.5 1149.4 288.5 1159.2 301.5L1122.9 333C1116.3 324.2 1108.5 317.6 1099.5 313.2C1090.7 308.8 1081.2 306.6 1071 306.6C1063 306.6 1055.5 308.2 1048.5 311.4C1041.7 314.6 1035.8 319 1030.8 324.6C1025.8 330 1021.9 336.6 1019.1 344.4C1016.3 352 1014.9 360.2 1014.9 369C1014.9 378 1016.3 386.4 1019.1 394.2C1022.1 401.8 1026.2 408.4 1031.4 414C1036.6 419.6 1042.7 424 1049.7 427.2C1056.9 430.4 1064.6 432 1072.8 432C1084.6 432 1094.8 428.7 1103.4 422.1C1112.2 415.5 1118 407.1 1120.8 396.9H1068.3V353.4H1176.3V368.1ZM1201.1 474V264H1252.7V474H1201.1ZM1345.28 474L1264.58 264H1320.38L1375.88 420.3L1432.28 264H1485.98L1404.08 474H1345.28Z" fill="#EBECF2"/>
</g>
<g opacity="0.4">
<path d="M96.3 882.1C96.3 897.7 93.7 912.2 88.5 925.6C83.3 939 76.1 950.6 66.9 960.4C57.7 970 46.6 977.6 33.6 983.2C20.8 988.6 6.90001 991.3 -8.09999 991.3C-23.5 991.3 -38 988.5 -51.6 982.9C-65 977.3 -76.7 969.7 -86.7 960.1C-96.5 950.3 -104.3 938.8 -110.1 925.6C-115.7 912.4 -118.5 898.2 -118.5 883C-118.5 867.8 -115.7 853.6 -110.1 840.4C-104.3 827.2 -96.5 815.8 -86.7 806.2C-76.9 796.4 -65.3 788.7 -51.9 783.1C-38.5 777.5 -24.2 774.7 -8.99999 774.7C8.4 774.7 25 778.3 40.8 785.5C56.6 792.5 69.4 802.5 79.2 815.5L42.9 847C36.3 838.2 28.5 831.6 19.5 827.2C10.7 822.8 1.20001 820.6 -8.99999 820.6C-17 820.6 -24.5 822.2 -31.5 825.4C-38.3 828.6 -44.2 833 -49.2 838.6C-54.2 844 -58.1 850.6 -60.9 858.4C-63.7 866 -65.1 874.2 -65.1 883C-65.1 892 -63.7 900.4 -60.9 908.2C-57.9 915.8 -53.8 922.4 -48.6 928C-43.4 933.6 -37.3 938 -30.3 941.2C-23.1 944.4 -15.4 946 -7.2 946C4.60001 946 14.8 942.7 23.4 936.1C32.2 929.5 38 921.1 40.8 910.9H-11.7V867.4H96.3V882.1ZM121.099 988V778H172.699V988H121.099ZM265.284 988L184.584 778H240.384L295.884 934.3L352.284 778H405.984L324.084 988H265.284Z" fill="#EBECF2"/>
<path d="M636.3 882.1C636.3 897.7 633.7 912.2 628.5 925.6C623.3 939 616.1 950.6 606.9 960.4C597.7 970 586.6 977.6 573.6 983.2C560.8 988.6 546.9 991.3 531.9 991.3C516.5 991.3 502 988.5 488.4 982.9C475 977.3 463.3 969.7 453.3 960.1C443.5 950.3 435.7 938.8 429.9 925.6C424.3 912.4 421.5 898.2 421.5 883C421.5 867.8 424.3 853.6 429.9 840.4C435.7 827.2 443.5 815.8 453.3 806.2C463.1 796.4 474.7 788.7 488.1 783.1C501.5 777.5 515.8 774.7 531 774.7C548.4 774.7 565 778.3 580.8 785.5C596.6 792.5 609.4 802.5 619.2 815.5L582.9 847C576.3 838.2 568.5 831.6 559.5 827.2C550.7 822.8 541.2 820.6 531 820.6C523 820.6 515.5 822.2 508.5 825.4C501.7 828.6 495.8 833 490.8 838.6C485.8 844 481.9 850.6 479.1 858.4C476.3 866 474.9 874.2 474.9 883C474.9 892 476.3 900.4 479.1 908.2C482.1 915.8 486.2 922.4 491.4 928C496.6 933.6 502.7 938 509.7 941.2C516.9 944.4 524.6 946 532.8 946C544.6 946 554.8 942.7 563.4 936.1C572.2 929.5 578 921.1 580.8 910.9H528.3V867.4H636.3V882.1ZM661.099 988V778H712.699V988H661.099ZM805.284 988L724.584 778H780.384L835.884 934.3L892.284 778H945.984L864.084 988H805.284Z" fill="#EBECF2"/>
<path d="M1176.3 882.1C1176.3 897.7 1173.7 912.2 1168.5 925.6C1163.3 939 1156.1 950.6 1146.9 960.4C1137.7 970 1126.6 977.6 1113.6 983.2C1100.8 988.6 1086.9 991.3 1071.9 991.3C1056.5 991.3 1042 988.5 1028.4 982.9C1015 977.3 1003.3 969.7 993.3 960.1C983.5 950.3 975.7 938.8 969.9 925.6C964.3 912.4 961.5 898.2 961.5 883C961.5 867.8 964.3 853.6 969.9 840.4C975.7 827.2 983.5 815.8 993.3 806.2C1003.1 796.4 1014.7 788.7 1028.1 783.1C1041.5 777.5 1055.8 774.7 1071 774.7C1088.4 774.7 1105 778.3 1120.8 785.5C1136.6 792.5 1149.4 802.5 1159.2 815.5L1122.9 847C1116.3 838.2 1108.5 831.6 1099.5 827.2C1090.7 822.8 1081.2 820.6 1071 820.6C1063 820.6 1055.5 822.2 1048.5 825.4C1041.7 828.6 1035.8 833 1030.8 838.6C1025.8 844 1021.9 850.6 1019.1 858.4C1016.3 866 1014.9 874.2 1014.9 883C1014.9 892 1016.3 900.4 1019.1 908.2C1022.1 915.8 1026.2 922.4 1031.4 928C1036.6 933.6 1042.7 938 1049.7 941.2C1056.9 944.4 1064.6 946 1072.8 946C1084.6 946 1094.8 942.7 1103.4 936.1C1112.2 929.5 1118 921.1 1120.8 910.9H1068.3V867.4H1176.3V882.1ZM1201.1 988V778H1252.7V988H1201.1ZM1345.28 988L1264.58 778H1320.38L1375.88 934.3L1432.28 778H1485.98L1404.08 988H1345.28Z" fill="#EBECF2"/>
</g>
<g opacity="0.4">
<path d="M96.3 111.1C96.3 126.7 93.7 141.2 88.5 154.6C83.3 168 76.1 179.6 66.9 189.4C57.7 199 46.6 206.6 33.6 212.2C20.8 217.6 6.90001 220.3 -8.09999 220.3C-23.5 220.3 -38 217.5 -51.6 211.9C-65 206.3 -76.7 198.7 -86.7 189.1C-96.5 179.3 -104.3 167.8 -110.1 154.6C-115.7 141.4 -118.5 127.2 -118.5 112C-118.5 96.8 -115.7 82.6 -110.1 69.4C-104.3 56.2 -96.5 44.8 -86.7 35.2C-76.9 25.4 -65.3 17.7 -51.9 12.1C-38.5 6.49999 -24.2 3.69999 -8.99999 3.69999C8.4 3.69999 25 7.29999 40.8 14.5C56.6 21.5 69.4 31.5 79.2 44.5L42.9 76C36.3 67.2 28.5 60.6 19.5 56.2C10.7 51.8 1.20001 49.6 -8.99999 49.6C-17 49.6 -24.5 51.2 -31.5 54.4C-38.3 57.6 -44.2 62 -49.2 67.6C-54.2 73 -58.1 79.6 -60.9 87.4C-63.7 95 -65.1 103.2 -65.1 112C-65.1 121 -63.7 129.4 -60.9 137.2C-57.9 144.8 -53.8 151.4 -48.6 157C-43.4 162.6 -37.3 167 -30.3 170.2C-23.1 173.4 -15.4 175 -7.2 175C4.60001 175 14.8 171.7 23.4 165.1C32.2 158.5 38 150.1 40.8 139.9H-11.7V96.4H96.3V111.1ZM121.099 217V6.99999H172.699V217H121.099ZM265.284 217L184.584 6.99999H240.384L295.884 163.3L352.284 6.99999H405.984L324.084 217H265.284Z" fill="#EBECF2"/>
<path d="M636.3 111.1C636.3 126.7 633.7 141.2 628.5 154.6C623.3 168 616.1 179.6 606.9 189.4C597.7 199 586.6 206.6 573.6 212.2C560.8 217.6 546.9 220.3 531.9 220.3C516.5 220.3 502 217.5 488.4 211.9C475 206.3 463.3 198.7 453.3 189.1C443.5 179.3 435.7 167.8 429.9 154.6C424.3 141.4 421.5 127.2 421.5 112C421.5 96.8 424.3 82.6 429.9 69.4C435.7 56.2 443.5 44.8 453.3 35.2C463.1 25.4 474.7 17.7 488.1 12.1C501.5 6.49999 515.8 3.69999 531 3.69999C548.4 3.69999 565 7.29999 580.8 14.5C596.6 21.5 609.4 31.5 619.2 44.5L582.9 76C576.3 67.2 568.5 60.6 559.5 56.2C550.7 51.8 541.2 49.6 531 49.6C523 49.6 515.5 51.2 508.5 54.4C501.7 57.6 495.8 62 490.8 67.6C485.8 73 481.9 79.6 479.1 87.4C476.3 95 474.9 103.2 474.9 112C474.9 121 476.3 129.4 479.1 137.2C482.1 144.8 486.2 151.4 491.4 157C496.6 162.6 502.7 167 509.7 170.2C516.9 173.4 524.6 175 532.8 175C544.6 175 554.8 171.7 563.4 165.1C572.2 158.5 578 150.1 580.8 139.9H528.3V96.4H636.3V111.1ZM661.099 217V6.99999H712.699V217H661.099ZM805.284 217L724.584 6.99999H780.384L835.884 163.3L892.284 6.99999H945.984L864.084 217H805.284Z" fill="#EBECF2"/>
<path d="M1176.3 111.1C1176.3 126.7 1173.7 141.2 1168.5 154.6C1163.3 168 1156.1 179.6 1146.9 189.4C1137.7 199 1126.6 206.6 1113.6 212.2C1100.8 217.6 1086.9 220.3 1071.9 220.3C1056.5 220.3 1042 217.5 1028.4 211.9C1015 206.3 1003.3 198.7 993.3 189.1C983.5 179.3 975.7 167.8 969.9 154.6C964.3 141.4 961.5 127.2 961.5 112C961.5 96.8 964.3 82.6 969.9 69.4C975.7 56.2 983.5 44.8 993.3 35.2C1003.1 25.4 1014.7 17.7 1028.1 12.1C1041.5 6.49999 1055.8 3.69999 1071 3.69999C1088.4 3.69999 1105 7.29999 1120.8 14.5C1136.6 21.5 1149.4 31.5 1159.2 44.5L1122.9 76C1116.3 67.2 1108.5 60.6 1099.5 56.2C1090.7 51.8 1081.2 49.6 1071 49.6C1063 49.6 1055.5 51.2 1048.5 54.4C1041.7 57.6 1035.8 62 1030.8 67.6C1025.8 73 1021.9 79.6 1019.1 87.4C1016.3 95 1014.9 103.2 1014.9 112C1014.9 121 1016.3 129.4 1019.1 137.2C1022.1 144.8 1026.2 151.4 1031.4 157C1036.6 162.6 1042.7 167 1049.7 170.2C1056.9 173.4 1064.6 175 1072.8 175C1084.6 175 1094.8 171.7 1103.4 165.1C1112.2 158.5 1118 150.1 1120.8 139.9H1068.3V96.4H1176.3V111.1ZM1201.1 217V6.99999H1252.7V217H1201.1ZM1345.28 217L1264.58 6.99999H1320.38L1375.88 163.3L1432.28 6.99999H1485.98L1404.08 217H1345.28Z" fill="#EBECF2"/>
</g>
<g opacity="0.4">
<path d="M96.3 625.1C96.3 640.7 93.7 655.2 88.5 668.6C83.3 682 76.1 693.6 66.9 703.4C57.7 713 46.6 720.6 33.6 726.2C20.8 731.6 6.90001 734.3 -8.09999 734.3C-23.5 734.3 -38 731.5 -51.6 725.9C-65 720.3 -76.7 712.7 -86.7 703.1C-96.5 693.3 -104.3 681.8 -110.1 668.6C-115.7 655.4 -118.5 641.2 -118.5 626C-118.5 610.8 -115.7 596.6 -110.1 583.4C-104.3 570.2 -96.5 558.8 -86.7 549.2C-76.9 539.4 -65.3 531.7 -51.9 526.1C-38.5 520.5 -24.2 517.7 -8.99999 517.7C8.4 517.7 25 521.3 40.8 528.5C56.6 535.5 69.4 545.5 79.2 558.5L42.9 590C36.3 581.2 28.5 574.6 19.5 570.2C10.7 565.8 1.20001 563.6 -8.99999 563.6C-17 563.6 -24.5 565.2 -31.5 568.4C-38.3 571.6 -44.2 576 -49.2 581.6C-54.2 587 -58.1 593.6 -60.9 601.4C-63.7 609 -65.1 617.2 -65.1 626C-65.1 635 -63.7 643.4 -60.9 651.2C-57.9 658.8 -53.8 665.4 -48.6 671C-43.4 676.6 -37.3 681 -30.3 684.2C-23.1 687.4 -15.4 689 -7.2 689C4.60001 689 14.8 685.7 23.4 679.1C32.2 672.5 38 664.1 40.8 653.9H-11.7V610.4H96.3V625.1ZM121.099 731V521H172.699V731H121.099ZM265.284 731L184.584 521H240.384L295.884 677.3L352.284 521H405.984L324.084 731H265.284Z" fill="#EBECF2"/>
<path d="M636.3 625.1C636.3 640.7 633.7 655.2 628.5 668.6C623.3 682 616.1 693.6 606.9 703.4C597.7 713 586.6 720.6 573.6 726.2C560.8 731.6 546.9 734.3 531.9 734.3C516.5 734.3 502 731.5 488.4 725.9C475 720.3 463.3 712.7 453.3 703.1C443.5 693.3 435.7 681.8 429.9 668.6C424.3 655.4 421.5 641.2 421.5 626C421.5 610.8 424.3 596.6 429.9 583.4C435.7 570.2 443.5 558.8 453.3 549.2C463.1 539.4 474.7 531.7 488.1 526.1C501.5 520.5 515.8 517.7 531 517.7C548.4 517.7 565 521.3 580.8 528.5C596.6 535.5 609.4 545.5 619.2 558.5L582.9 590C576.3 581.2 568.5 574.6 559.5 570.2C550.7 565.8 541.2 563.6 531 563.6C523 563.6 515.5 565.2 508.5 568.4C501.7 571.6 495.8 576 490.8 581.6C485.8 587 481.9 593.6 479.1 601.4C476.3 609 474.9 617.2 474.9 626C474.9 635 476.3 643.4 479.1 651.2C482.1 658.8 486.2 665.4 491.4 671C496.6 676.6 502.7 681 509.7 684.2C516.9 687.4 524.6 689 532.8 689C544.6 689 554.8 685.7 563.4 679.1C572.2 672.5 578 664.1 580.8 653.9H528.3V610.4H636.3V625.1ZM661.099 731V521H712.699V731H661.099ZM805.284 731L724.584 521H780.384L835.884 677.3L892.284 521H945.984L864.084 731H805.284Z" fill="#EBECF2"/>
<path d="M1176.3 625.1C1176.3 640.7 1173.7 655.2 1168.5 668.6C1163.3 682 1156.1 693.6 1146.9 703.4C1137.7 713 1126.6 720.6 1113.6 726.2C1100.8 731.6 1086.9 734.3 1071.9 734.3C1056.5 734.3 1042 731.5 1028.4 725.9C1015 720.3 1003.3 712.7 993.3 703.1C983.5 693.3 975.7 681.8 969.9 668.6C964.3 655.4 961.5 641.2 961.5 626C961.5 610.8 964.3 596.6 969.9 583.4C975.7 570.2 983.5 558.8 993.3 549.2C1003.1 539.4 1014.7 531.7 1028.1 526.1C1041.5 520.5 1055.8 517.7 1071 517.7C1088.4 517.7 1105 521.3 1120.8 528.5C1136.6 535.5 1149.4 545.5 1159.2 558.5L1122.9 590C1116.3 581.2 1108.5 574.6 1099.5 570.2C1090.7 565.8 1081.2 563.6 1071 563.6C1063 563.6 1055.5 565.2 1048.5 568.4C1041.7 571.6 1035.8 576 1030.8 581.6C1025.8 587 1021.9 593.6 1019.1 601.4C1016.3 609 1014.9 617.2 1014.9 626C1014.9 635 1016.3 643.4 1019.1 651.2C1022.1 658.8 1026.2 665.4 1031.4 671C1036.6 676.6 1042.7 681 1049.7 684.2C1056.9 687.4 1064.6 689 1072.8 689C1084.6 689 1094.8 685.7 1103.4 679.1C1112.2 672.5 1118 664.1 1120.8 653.9H1068.3V610.4H1176.3V625.1ZM1201.1 731V521H1252.7V731H1201.1ZM1345.28 731L1264.58 521H1320.38L1375.88 677.3L1432.28 521H1485.98L1404.08 731H1345.28Z" fill="#EBECF2"/>
</g>
</g>
</svg>
