<svg width="273" height="280" id="Layer_1" data-name="Layer 1" xmlns="http://www.w3.org/2000/svg" viewBox="0 0 273.5 280.8">
  <defs>
    <style>.cls-1{opacity:0.05;}.cls-2{fill:#2FC8E0;fill-rule:evenodd;}</style>
  </defs>
  <title>Asset8</title>
  <g id="Layer_1-2">
    <g class="cls-1">
      <path class="cls-2" d="M-118.1,231.9l.2.3,6,6,1.6,1.3h0l4.5,3.7h0c3.8,3.3,8.1,6.9,12.5,10h0a162.2,162.2,0,0,0,198.9-9.6h0c27-23.2,44.4-52.4,52.6-87h0c.2-.9.4-2,.6-2.8h0a6.4,6.4,0,0,1,.2-.9l2.9-13.4-53-.2-2.3,8.2c-8,29.1-24.9,52-50.5,67.5-41.2,24.8-95,19.3-130.4-13.4h0a113.2,113.2,0,0,1-33.2-54l-2.2-8.1h-52.2l2.8,13.4a163.3,163.3,0,0,0,32.6,69.4h0c1.9,2.4,4,4.8,5.9,7h0Zm-30.2-81.6h0a99.9,99.9,0,0,0,2.7,11.1,150.7,150.7,0,0,0,27.7,53.8c1.7,2.2,3.6,4.3,5.4,6.4h0l2.7,3.1,5.3,5.2,1.1.9,5.2,4.3h0c3.6,3.1,7.3,6.2,11.2,9A151.3,151.3,0,0,0,66,256.4,151.3,151.3,0,0,1-87,244.1c-3.9-2.8-7.6-5.9-11.2-9l-5.2-4.3-1.1-.9-5.2-5.2-2.8-3.2c-1.8-2-3.7-4.1-5.4-6.3A151.1,151.1,0,0,1-148.3,150.3Zm252.5,31.3a131.2,131.2,0,0,0,13-31.2h0A131.2,131.2,0,0,1,104.2,181.6Z"/>
      <path class="cls-2" d="M154.1,231.9l.3.3,6,6,1.5,1.3h0l4.5,3.7h0c3.8,3.3,8.2,6.9,12.5,10h0a162.2,162.2,0,0,0,198.9-9.6h0c27-23.2,44.5-52.4,52.6-87h0c.2-.9.4-2,.6-2.8h0a5.1,5.1,0,0,0,.2-.9l2.9-13.4-53-.2-2.3,8.2c-8,29.1-24.9,52-50.5,67.5-41.1,24.8-95,19.3-130.4-13.4h0a114.8,114.8,0,0,1-33.2-54l-2.1-8.1H110.4l2.7,13.4a163.3,163.3,0,0,0,32.6,69.4h0c1.9,2.4,4,4.8,5.9,7h0Zm-30.2-81.6h0c.7,3.8,1.7,7.5,2.7,11.1a150.7,150.7,0,0,0,27.7,53.8l5.4,6.4h0c.9,1,1.9,2,2.8,3.1l5.2,5.2,1.1.9,5.2,4.3h0c3.6,3.1,7.3,6.2,11.2,9a151.3,151.3,0,0,0,153,12.3,151.3,151.3,0,0,1-153-12.3c-3.9-2.8-7.6-5.9-11.2-9l-5.2-4.3-1.1-.9-5.3-5.2-2.7-3.1c-1.8-2.1-3.7-4.2-5.4-6.4A151.1,151.1,0,0,1,123.9,150.3Zm252.5,31.3a127.2,127.2,0,0,0,13-31.2h0A127.2,127.2,0,0,1,376.4,181.6Z"/>
      <path class="cls-2" d="M-117.9-48.1l.2.3,6,6,1.6,1.2h0l4.5,3.8h0c3.8,3.2,8.2,6.9,12.5,9.9h0a161.9,161.9,0,0,0,198.8-9.6h0c27-23.2,44.5-52.4,52.7-87h0c.2-.9.4-2,.6-2.8h0c.1-.3.1-.6.2-.9l2.9-13.4-53-.2-2.3,8.2c-8,29.1-24.9,52-50.5,67.5C15.1-40.3-38.7-45.8-74.2-78.5h0a113.8,113.8,0,0,1-33.1-54l-2.2-8.1h-52.2l2.7,13.3a162.6,162.6,0,0,0,32.7,69.6h0c1.9,2.4,4,4.8,5.9,7h0Zm-30.2-81.6h0a103.8,103.8,0,0,0,2.7,11,150.3,150.3,0,0,0,27.7,53.9l5.4,6.4h0l2.8,3.1,5.2,5.3,1.1.9,5.2,4.2h0c3.6,3.1,7.3,6.2,11.2,9a151,151,0,0,0,153,12.4,151,151,0,0,1-153-12.4,119.2,119.2,0,0,1-11.2-9l-5.2-4.2-1.1-.9-5.3-5.3-2.7-3.2c-1.8-2.1-3.7-4.2-5.4-6.3A151.6,151.6,0,0,1-148.1-129.7ZM103.3-96.5a128.2,128.2,0,0,0,14.1-33.2h0A128.2,128.2,0,0,1,103.3-96.5Z"/>
      <path class="cls-2" d="M154.1-48.1l.3.3,6,6,1.5,1.2h0l4.5,3.8h0c3.8,3.2,8.2,6.9,12.5,9.9h0a162,162,0,0,0,198.9-9.6h0c27-23.2,44.5-52.4,52.6-87h0c.2-.9.4-2,.6-2.8h0a2.9,2.9,0,0,0,.2-.9l2.9-13.4-53-.2-2.3,8.2c-8,29.1-24.9,52-50.5,67.5-41.2,24.8-95,19.3-130.4-13.4h0a113.2,113.2,0,0,1-33.2-54l-2.2-8.1H110.3l2.8,13.3a161.2,161.2,0,0,0,32.6,69.6h0l5.9,7h0Zm-30.2-81.6h0c.7,3.7,1.7,7.4,2.7,11a150.3,150.3,0,0,0,27.7,53.9l5.4,6.4h0c.9,1,1.9,2,2.8,3.1l5.2,5.3,1.1.9,5.2,4.2h0c3.6,3.1,7.3,6.2,11.2,9a151.3,151.3,0,0,0,153,12.3,151.3,151.3,0,0,1-153-12.3c-3.9-2.8-7.6-5.9-11.2-9l-5.2-4.2-1.1-.9-5.3-5.3-2.7-3.2c-1.8-2.1-3.7-4.2-5.4-6.3A151.6,151.6,0,0,1,123.9-129.7ZM376-97.6a130.7,130.7,0,0,0,13.4-32.1h0A130.7,130.7,0,0,1,376-97.6Z"/>
      <path class="cls-2" d="M-254.5,92.3l.3.3,6,6,1.5,1.3h0l4.5,3.7h0c3.8,3.2,8.2,6.9,12.5,9.9h0A162.2,162.2,0,0,0-30.8,104h0c27-23.2,44.5-52.5,52.6-87h0c.2-.9.5-2,.6-2.9h0a2.9,2.9,0,0,0,.2-.9L25.5-.1l-53-.2-2.2,8.1c-8.1,29.1-25,52-50.5,67.5-41.2,24.9-95,19.3-130.5-13.3h0A114.8,114.8,0,0,1-243.9,8L-246-.1h-52.2l2.7,13.3a163.1,163.1,0,0,0,32.7,69.6h0l5.9,6.9h0C-256.1,90.5-255.2,91.4-254.5,92.3Zm-30.2-81.6h0c.8,3.8,1.7,7.4,2.7,11.1a150.9,150.9,0,0,0,27.8,53.8c1.7,2.2,3.5,4.3,5.4,6.4h0l2.7,3.1,5.3,5.2,1.1.9,5.1,4.3h0c3.7,3.1,7.3,6.2,11.3,9a151.2,151.2,0,0,0,153,12.3,151.2,151.2,0,0,1-153-12.3c-4-2.8-7.6-5.9-11.3-9l-5.1-4.3-1.2-.9-5.2-5.2-2.7-3.1c-1.9-2.1-3.7-4.2-5.5-6.4A152.2,152.2,0,0,1-284.7,10.7ZM-32.6,42.8A127.8,127.8,0,0,0-19.1,10.7h0A127.8,127.8,0,0,1-32.6,42.8Z"/>
      <path class="cls-2" d="M17.5,92.3l.3.3,6,6,1.5,1.3h0l4.5,3.7h0c3.9,3.2,8.2,6.9,12.5,9.9h0A162.2,162.2,0,0,0,241.2,104h0c27-23.2,44.5-52.5,52.6-87h0c.2-.9.5-2,.6-2.9h0a2.9,2.9,0,0,0,.2-.9L297.5-.1l-53-.2-2.2,8.1c-8.1,29.1-25,52-50.5,67.5C150.6,100.2,96.8,94.6,61.3,62h0A114.8,114.8,0,0,1,28.1,8L26-.1H-26.2l2.8,13.3A162.9,162.9,0,0,0,9.2,82.7h0l5.9,6.9h0C15.9,90.5,16.8,91.4,17.5,92.3ZM-12.7,10.7h0c.8,3.8,1.7,7.4,2.7,11.1A150.9,150.9,0,0,0,17.8,75.6c1.7,2.2,3.5,4.3,5.4,6.4h0l2.7,3.1,5.3,5.2,1.1.9,5.1,4.3h0c3.7,3.1,7.4,6.2,11.3,9a151.2,151.2,0,0,0,153,12.3,151.2,151.2,0,0,1-153-12.3c-4-2.8-7.6-5.9-11.3-9l-5.1-4.3-1.1-.9-5.3-5.2L23.2,82c-1.9-2.1-3.7-4.2-5.4-6.4A151.3,151.3,0,0,1-12.7,10.7ZM239.9,42a134.3,134.3,0,0,0,13-31.3h0A134.3,134.3,0,0,1,239.9,42Z"/>
      <path class="cls-2" d="M293.4,92.3l.3.3,6,6,1.6,1.3h0l4.4,3.7h0c3.9,3.2,8.2,6.9,12.6,9.9h0A162,162,0,0,0,517.1,104h0c27-23.2,44.5-52.5,52.6-87h0c.3-.9.5-2,.7-2.9h0a2.9,2.9,0,0,1,.2-.9L573.4-.1l-53-.2-2.2,8.1c-8.1,29.1-24.9,52-50.5,67.5-41.2,24.9-95,19.3-130.5-13.3h0A113.8,113.8,0,0,1,304.1,8L301.9-.1H249.7l2.7,13.3a163.1,163.1,0,0,0,32.7,69.6h0l5.9,6.9h0ZM263.2,10.7h0c.8,3.8,1.7,7.4,2.7,11.1a152.5,152.5,0,0,0,27.8,53.8c1.7,2.2,3.6,4.3,5.4,6.4h0l2.7,3.1,5.3,5.2,1.1.9,5.1,4.3h0c3.7,3.1,7.4,6.2,11.3,9a151.2,151.2,0,0,0,153,12.3,151.2,151.2,0,0,1-153-12.3c-3.9-2.8-7.6-5.9-11.3-9l-5.1-4.3-1.1-.9-5.3-5.2L299.1,82c-1.9-2.1-3.7-4.2-5.4-6.4a151.3,151.3,0,0,1-30.5-64.9ZM514.6,44a130.6,130.6,0,0,0,14.2-33.3h0A134.2,134.2,0,0,1,514.6,44Z"/>
      <path class="cls-2" d="M-254.5,369.8l.3.4,6,6,1.5,1.2h0l4.5,3.7h0c3.8,3.3,8.2,6.9,12.5,10h0a162.2,162.2,0,0,0,198.9-9.5h0c27-23.3,44.5-52.5,52.6-87h0c.2-1,.5-2,.6-2.9h0a2.9,2.9,0,0,0,.2-.9l2.9-13.3-53-.2-2.2,8.1c-8.1,29.1-25,52-50.5,67.5-41.2,24.9-95,19.3-130.5-13.3h0a115.2,115.2,0,0,1-33.2-54l-2.1-8.1h-52.2l2.7,13.3a163.1,163.1,0,0,0,32.7,69.6h0c1.9,2.3,4,4.8,5.9,6.9h0Zm-30.2-81.5h0c.8,3.7,1.7,7.4,2.7,11a150.5,150.5,0,0,0,27.8,53.9q2.5,3.2,5.4,6.3h0l2.7,3.1,5.3,5.3,1.1.9,5.1,4.3h0a138.1,138.1,0,0,0,11.3,8.9,151.2,151.2,0,0,0,153,12.4,151.2,151.2,0,0,1-153-12.4,138.1,138.1,0,0,1-11.3-8.9l-5.1-4.3-1.1-.9-5.3-5.3-2.7-3.1q-2.8-3.2-5.4-6.3a151.8,151.8,0,0,1-30.5-64.9Zm251.4,33.2a132,132,0,0,0,14.2-33.2h0A132,132,0,0,1-33.3,321.5Z"/>
      <path class="cls-2" d="M17.5,369.8l.3.4,6,6,1.5,1.2h0l4.5,3.7h0c3.9,3.3,8.2,6.9,12.5,10h0a162.2,162.2,0,0,0,198.9-9.5h0c27-23.3,44.5-52.5,52.6-87h0c.2-1,.5-2,.6-2.9h0a2.9,2.9,0,0,0,.2-.9l2.9-13.3-53-.2-2.2,8.1c-8.1,29.1-25,52-50.5,67.5-41.2,24.9-95,19.3-130.5-13.3h0a115.2,115.2,0,0,1-33.2-54L26,277.5H-26.2l2.8,13.3A162.9,162.9,0,0,0,9.2,360.3h0c1.9,2.3,4,4.8,5.9,6.9h0Zm-30.2-81.5h0c.8,3.7,1.7,7.4,2.7,11a150.5,150.5,0,0,0,27.8,53.9q2.6,3.2,5.4,6.3h0l2.7,3.1,5.3,5.3,1.1.9,5.1,4.3h0c3.7,3.1,7.4,6.2,11.3,8.9a151.2,151.2,0,0,0,153,12.4A151.2,151.2,0,0,1,48.7,382a138.1,138.1,0,0,1-11.3-8.9l-5.1-4.3-1.1-.9-5.3-5.3-2.7-3.1q-2.8-3.2-5.4-6.3A153,153,0,0,1-12.7,288.3Zm252.1,32a128.7,128.7,0,0,0,13.5-32h0A128.7,128.7,0,0,1,239.4,320.3Z"/>
      <path class="cls-2" d="M293.4,369.8l.3.4,6,6,1.6,1.2h0l4.4,3.7h0c3.9,3.3,8.2,6.9,12.6,10h0a162,162,0,0,0,198.8-9.5h0c27-23.3,44.5-52.5,52.6-87h0c.3-1,.5-2,.7-2.9h0a2.9,2.9,0,0,1,.2-.9l2.8-13.3-53-.3-2.2,8.2c-8.1,29.1-24.9,52-50.5,67.5-41.2,24.8-95,19.3-130.5-13.4h0a113.8,113.8,0,0,1-33.1-54l-2.2-8.1H249.7l2.8,13.4a161.4,161.4,0,0,0,32.6,69.5h0c1.9,2.4,4,4.8,5.9,7h0Zm-30.2-81.5h0c.8,3.7,1.7,7.4,2.7,11a152.1,152.1,0,0,0,27.8,53.9c1.7,2.1,3.6,4.2,5.4,6.3h0l2.7,3.1,5.3,5.3,1.1.9,5.1,4.3h0c3.7,3.1,7.4,6.2,11.3,8.9a151.3,151.3,0,0,0,153,12.4,151.3,151.3,0,0,1-153-12.4c-3.9-2.7-7.6-5.8-11.3-8.9l-5.1-4.3-1.1-.9-5.3-5.3-2.7-3.1q-2.9-3.2-5.4-6.3a151.8,151.8,0,0,1-30.5-64.9Zm252.6,31.3a138,138,0,0,0,13-31.3h0a138,138,0,0,1-13,31.3Z"/>
    </g>
  </g>
</svg>
