<svg width="88" height="88" viewBox="0 0 88 88" fill="none" xmlns="http://www.w3.org/2000/svg">
<path d="M43.8407 5C21.6748 5 3 22.1493 3 43.3203C3 43.9983 3.01825 83 3.01825 83L43.8407 82.9648C66.0254 82.9648 84 65.1534 84 43.9824C84 22.8114 66.0254 5 43.8407 5ZM43.5 20C57.2638 20 68.4231 30.746 68.4231 44C68.4231 57.254 57.2638 68 43.5 68C39.0762 68 34.9258 66.8767 31.3244 64.9297L18.5769 68L22.0696 56.2109C19.8639 52.6319 18.5769 48.467 18.5769 44C18.5769 30.746 29.7362 20 43.5 20Z" fill="#5326EC"/>
</svg>
