<svg width="88" height="88" viewBox="0 0 88 88" fill="none" xmlns="http://www.w3.org/2000/svg">
<path d="M59.7415 25.8048C56.6946 24.4777 53.4273 23.4999 50.0112 22.9398C49.949 22.929 49.8868 22.9561 49.8548 23.0101C49.4346 23.7196 48.9691 24.6451 48.6432 25.3726C44.9689 24.8504 41.3134 24.8504 37.7144 25.3726C37.3884 24.629 36.9061 23.7196 36.484 23.0101C36.452 22.9579 36.3898 22.9308 36.3276 22.9398C32.9133 23.4981 29.646 24.4759 26.5973 25.8048C26.5709 25.8156 26.5483 25.8337 26.5332 25.8571C20.3359 34.6465 18.6381 43.2199 19.471 51.687C19.4748 51.7284 19.4993 51.768 19.5332 51.7932C23.622 54.6438 27.5828 56.3743 31.47 57.5213C31.5322 57.5394 31.5981 57.5178 31.6377 57.4691C32.5572 56.2771 33.3769 55.0202 34.0797 53.6984C34.1211 53.621 34.0815 53.5291 33.9968 53.4985C32.6966 53.0303 31.4587 52.4595 30.2678 51.8112C30.1736 51.759 30.1661 51.6311 30.2527 51.5699C30.5033 51.3916 30.754 51.2061 30.9933 51.0189C31.0366 50.9847 31.0969 50.9774 31.1478 50.999C38.9712 54.3899 47.441 54.3899 55.1721 50.999C55.223 50.9756 55.2833 50.9829 55.3285 51.0171C55.5679 51.2043 55.8185 51.3916 56.071 51.5699C56.1576 51.6311 56.152 51.759 56.0578 51.8112C54.8669 52.4721 53.6289 53.0303 52.3269 53.4967C52.2421 53.5273 52.2044 53.621 52.2459 53.6984C52.9638 55.0183 53.7834 56.2752 54.686 57.4673C54.7237 57.5178 54.7915 57.5394 54.8537 57.5213C58.7598 56.3743 62.7205 54.6438 66.8093 51.7932C66.8451 51.768 66.8678 51.7302 66.8715 51.6888C67.8683 41.8999 65.202 33.3968 59.8036 25.8588C59.7904 25.8337 59.7679 25.8156 59.7415 25.8048ZM35.248 46.5314C32.8926 46.5314 30.9518 44.4786 30.9518 41.9575C30.9518 39.4365 32.8549 37.3836 35.248 37.3836C37.6598 37.3836 39.5818 39.4545 39.5441 41.9575C39.5441 44.4786 37.6409 46.5314 35.248 46.5314ZM51.1323 46.5314C48.7769 46.5314 46.8362 44.4786 46.8362 41.9575C46.8362 39.4365 48.7392 37.3836 51.1323 37.3836C53.5441 37.3836 55.4661 39.4545 55.4284 41.9575C55.4284 44.4786 53.5441 46.5314 51.1323 46.5314Z" fill="#5326EC"/>
<path d="M16.0829 7H68.9171C73.3726 7 77 10.4742 77 14.7793V82.527L68.5229 75.3519L63.752 71.1224L58.7051 66.6286L60.7949 73.6148H16.0829C11.6274 73.6148 8 70.1406 8 65.8355V14.7793C8 10.4742 11.6274 7 16.0829 7Z" stroke="#5326EC" stroke-width="4"/>
</svg>
