<svg width="90" height="90" viewBox="0 0 90 90" fill="none" xmlns="http://www.w3.org/2000/svg">
<path d="M43.7056 58.8649V56.8567C42.713 57.635 41.6084 58.2266 40.3918 58.6314C39.1751 59.005 37.9105 59.1918 36.5978 59.1918C34.8368 59.1918 33.1719 58.8649 31.6031 58.211C30.0662 57.5572 28.7215 56.6698 27.5689 55.549C26.4163 54.4281 25.5038 53.1049 24.8314 51.5793C24.1911 50.0536 23.8709 48.419 23.8709 46.6755C23.8709 44.9319 24.2071 43.2973 24.8795 41.7717C25.5518 40.2461 26.4643 38.9228 27.6169 37.802C28.7695 36.6811 30.1303 35.8093 31.6991 35.1866C33.3 34.5328 34.9969 34.2059 36.7899 34.2059C38.0065 34.2059 39.1911 34.3771 40.3438 34.7196C41.5284 35.0309 42.617 35.498 43.6095 36.1207V26.173L50.1891 24.7719V58.8649H43.7056ZM30.3544 46.6755C30.3544 48.637 31.0588 50.3027 32.4675 51.6727C33.8763 53.0426 35.6052 53.7276 37.6543 53.7276C38.871 53.7276 39.9756 53.5252 40.9681 53.1204C41.9927 52.7157 42.8731 52.1397 43.6095 51.3924V41.9118C42.9051 41.1957 42.0247 40.6353 40.9681 40.2305C39.9435 39.8258 38.8389 39.6234 37.6543 39.6234C35.5732 39.6234 33.8283 40.3083 32.4195 41.6783C31.0428 43.0171 30.3544 44.6828 30.3544 46.6755Z" fill="#5326EC"/>
<path d="M52.2943 46.7222C52.2943 44.9475 52.6305 43.2973 53.3029 41.7717C54.0073 40.215 54.9518 38.8762 56.1364 37.7553C57.353 36.6033 58.7778 35.7004 60.4107 35.0465C62.0436 34.3927 63.7885 34.0658 65.6455 34.0658C67.5025 34.0658 69.2474 34.3927 70.8803 35.0465C72.5132 35.7004 73.9219 36.6033 75.1066 37.7553C76.3232 38.8762 77.2677 40.215 77.9401 41.7717C78.6445 43.2973 78.9966 44.9475 78.9966 46.7222C78.9966 48.4969 78.6445 50.1626 77.9401 51.7194C77.2677 53.245 76.3232 54.5683 75.1066 55.6891C73.9219 56.81 72.5132 57.6973 70.8803 58.3512C69.2474 59.005 67.5025 59.3319 65.6455 59.3319C63.7885 59.3319 62.0436 59.005 60.4107 58.3512C58.7778 57.6973 57.353 56.81 56.1364 55.6891C54.9518 54.5683 54.0073 53.245 53.3029 51.7194C52.6305 50.1626 52.2943 48.4969 52.2943 46.7222ZM65.6455 53.7743C67.5665 53.7743 69.1994 53.0893 70.5441 51.7194C71.8888 50.3494 72.5612 48.6837 72.5612 46.7222C72.5612 44.7296 71.8888 43.0483 70.5441 41.6783C69.1994 40.3084 67.5665 39.6234 65.6455 39.6234C63.7245 39.6234 62.0916 40.3084 60.7469 41.6783C59.4021 43.0483 58.7298 44.7296 58.7298 46.7222C58.7298 48.6837 59.4021 50.3494 60.7469 51.7194C62.0916 53.0893 63.7245 53.7743 65.6455 53.7743Z" fill="#5326EC"/>
<path d="M38.406 83.9573C39.6138 83.9573 40.7353 83.7224 41.7706 83.2519C42.8403 82.782 43.8583 82.0435 44.8246 81.0365L49.0692 85.3166C47.6889 86.794 46.0324 87.9524 44.0999 88.7915C42.1674 89.5972 40.1659 90 38.0954 90C36.1284 90 34.2649 89.6473 32.505 88.9424C30.7795 88.2374 29.2784 87.2805 28.0016 86.0721C26.7592 84.8637 25.7758 83.4368 25.0511 81.792C24.3264 80.1131 23.964 78.317 23.964 76.4037C23.964 74.4898 24.3264 72.7107 25.0511 71.0654C25.7758 69.3871 26.7592 67.9437 28.0016 66.7347C29.2784 65.4927 30.7795 64.5193 32.505 63.8144C34.2649 63.1094 36.1284 62.7567 38.0954 62.7567C40.2349 62.7567 42.2882 63.1766 44.2552 64.0158C46.2222 64.8214 47.8959 65.9627 49.2763 67.4401L44.9281 71.9217C43.9619 70.8811 42.9266 70.092 41.8223 69.5549C40.7181 69.0178 39.5275 68.7493 38.2507 68.7493C36.2147 68.7493 34.4892 69.4878 33.0743 70.9647C31.694 72.4422 31.0038 74.2549 31.0038 76.4037C31.0038 78.552 31.7113 80.3481 33.1261 81.792C34.5755 83.2354 36.3354 83.9573 38.406 83.9573Z" fill="#5326EC"/>
<path d="M53.3194 86.3742L56.8392 81.792C58.4266 82.799 59.9279 83.554 61.3426 84.058C62.7574 84.528 64.1727 84.763 65.5874 84.763C67.1748 84.763 68.4345 84.511 69.366 84.0074C70.3325 83.5039 70.8152 82.8326 70.8152 81.9934C70.8152 81.3216 70.5391 80.7845 69.9873 80.3817C69.4695 79.9788 68.6241 79.6938 67.4509 79.5254L62.2746 78.7704C59.6172 78.3676 57.5811 77.5284 56.1664 76.2524C54.7861 74.9768 54.0959 73.2814 54.0959 71.1666C54.0959 68.6486 55.1139 66.634 57.1499 65.1235C59.186 63.613 61.9119 62.8574 65.3283 62.8574C67.2953 62.8574 69.2109 63.143 71.0744 63.7137C72.9379 64.2507 74.7148 65.0564 76.4057 66.1305L72.9894 70.5619C71.5056 69.7227 70.0908 69.102 68.7446 68.6987C67.3989 68.2623 66.0357 68.0444 64.6554 68.0444C63.3787 68.0444 62.3437 68.2793 61.5498 68.7493C60.7903 69.2192 60.4111 69.8405 60.4111 70.6125C60.4111 71.3174 60.6873 71.8716 61.2391 72.2744C61.8259 72.6436 62.7749 72.9121 64.0861 73.08L69.2624 73.8355C71.8853 74.2047 73.9039 75.0439 75.3187 76.3531C76.7679 77.6627 77.4928 79.324 77.4928 81.3386C77.4928 82.5806 77.1822 83.7389 76.5613 84.8131C75.9745 85.8541 75.1636 86.7605 74.128 87.5325C73.093 88.3046 71.8508 88.9088 70.4015 89.3452C68.9517 89.7815 67.3819 90 65.691 90C63.2407 90 60.9459 89.6979 58.8063 89.0936C56.6666 88.4559 54.8378 87.5491 53.3194 86.3742Z" fill="#5326EC"/>
<path d="M47.9851 0C49.1258 0.084258 50.2687 0.133362 51.4053 0.252774C58.0609 0.954365 64.1907 3.09113 69.7947 6.66306C69.8327 6.69084 69.8687 6.72066 69.9032 6.75234L66.3608 10.1902C65.5899 10.9385 64.824 11.6918 64.0436 12.4306C63.9941 12.4616 63.938 12.4804 63.8795 12.4854C63.821 12.4903 63.7619 12.4813 63.7079 12.459C58.0664 9.3026 51.9936 7.85087 45.4898 8.10384C30.9386 8.6741 18.2532 18.6964 14.7642 32.4393C12.6045 40.9544 13.806 49.0437 18.2532 56.6786C18.2957 56.7516 18.298 56.9116 18.2469 56.9578C16.3164 58.8493 14.3792 60.7354 12.4353 62.6171C12.4163 62.6356 12.3928 62.6507 12.3487 62.6852C12.1656 62.4094 11.9814 62.1428 11.8082 61.8704C7.01205 54.3308 4.89487 46.136 5.57994 37.2906C7.00804 18.9028 21.0813 3.83848 39.8078 0.639467C41.7012 0.316386 43.6377 0.23436 45.5535 0.040734L45.9448 0H47.9851Z" fill="#5326EC"/>
<path d="M69.0343 24.3754C69.0378 22.6961 69.6391 21.0699 70.7367 19.7735C71.8343 18.477 73.3596 17.5905 75.0535 17.2648C76.7474 16.9391 78.5049 17.1945 80.0272 17.9872C81.5495 18.78 82.7422 20.0612 83.402 21.6129C84.0624 23.1646 84.1489 24.8908 83.6477 26.4977C83.1464 28.1047 82.0878 29.493 80.6525 30.4264C79.2173 31.3598 77.4938 31.7806 75.7749 31.6172C74.0565 31.4538 72.4496 30.7163 71.227 29.5302C70.5311 28.8534 69.9793 28.0497 69.6026 27.1652C69.2264 26.2806 69.0333 25.3326 69.0343 24.3754Z" fill="#5326EC"/>
</svg>
