<svg width="500" height="500" viewBox="0 0 500 500" fill="none" xmlns="http://www.w3.org/2000/svg">
<path fill-rule="evenodd" clip-rule="evenodd" d="M470.848 333.757L470.036 333.546C467.251 332.849 464.85 331.086 463.35 328.637C461.85 326.187 461.37 323.247 462.013 320.448C462.433 318.597 463.329 316.889 464.612 315.491C466.072 313.919 467.947 312.792 470.02 312.241L470.8 312.029L472.131 311.753C474.679 311.238 477.067 310.124 479.099 308.503L479.798 307.902L480.074 307.658L480.691 307.057L480.805 306.894L481.178 306.455C481.503 306.065 481.877 305.643 482.185 305.204C483.696 303.019 484.649 300.498 484.959 297.859C485.27 295.221 484.93 292.547 483.968 290.07C483.006 287.594 481.453 285.392 479.443 283.656C477.433 281.92 475.029 280.703 472.44 280.112H472.148H472.05L470.718 279.836L469.939 279.609C468.094 279.148 466.401 278.215 465.026 276.901C463.65 275.588 462.64 273.939 462.094 272.117C461.553 270.299 461.492 268.373 461.916 266.525C462.34 264.676 463.235 262.97 464.514 261.57C465.974 259.998 467.849 258.871 469.923 258.32L470.735 258.109V258.027L472.034 257.751C474.583 257.241 476.973 256.127 479.002 254.501L479.7 253.916L479.976 253.672L480.593 253.071L480.707 252.924L481.081 252.469C481.406 252.096 481.779 251.657 482.088 251.218C483.599 249.034 484.551 246.512 484.862 243.873C485.173 241.235 484.832 238.561 483.871 236.084C482.909 233.608 481.355 231.406 479.346 229.67C477.336 227.934 474.931 226.717 472.343 226.126H472.05H471.953L470.653 225.85L469.825 225.639C467.995 225.158 466.318 224.219 464.953 222.909C463.583 221.596 462.577 219.952 462.03 218.135C461.484 216.318 461.416 214.391 461.834 212.541C462.267 210.692 463.167 208.985 464.449 207.584C465.909 206.012 467.784 204.885 469.858 204.334L470.67 204.123V198.906L469.338 199.182C466.791 199.698 464.403 200.812 462.37 202.433L461.672 203.018L461.396 203.261L460.795 203.846L460.681 204.009C460.567 204.139 460.437 204.285 460.307 204.464C460.178 204.643 459.609 205.276 459.3 205.699C457.79 207.884 456.837 210.405 456.526 213.044C456.215 215.682 456.556 218.356 457.517 220.833C458.479 223.309 460.033 225.511 462.043 227.247C464.052 228.983 466.457 230.2 469.046 230.791H469.322H469.419L470.718 231.083L471.547 231.311C473.388 231.775 475.077 232.71 476.449 234.023C477.821 235.336 478.829 236.983 479.375 238.802C479.929 240.622 479.991 242.557 479.554 244.409C479.12 246.23 478.226 247.909 476.955 249.284C475.491 250.851 473.617 251.977 471.547 252.534L470.751 252.746L469.435 253.022C466.89 253.544 464.503 254.657 462.468 256.272L461.769 256.873L461.493 257.117L460.908 257.751L460.795 257.897L460.421 258.352C460.096 258.742 459.723 259.181 459.414 259.604C457.903 261.783 456.948 264.299 456.633 266.932C456.317 269.565 456.65 272.236 457.604 274.711C458.557 277.185 460.101 279.389 462.101 281.13C464.101 282.87 466.496 284.094 469.078 284.695H469.37H469.468L470.8 284.988L471.579 285.199C473.424 285.66 475.117 286.593 476.492 287.906C477.868 289.22 478.878 290.869 479.424 292.691C479.97 294.507 480.031 296.434 479.603 298.281C479.179 300.135 478.284 301.848 477.004 303.254C475.544 304.826 473.669 305.953 471.596 306.504L470.816 306.715L469.484 306.992C466.937 307.508 464.549 308.622 462.516 310.242C462.273 310.421 462.045 310.632 461.818 310.827L461.542 311.071L460.941 311.672L460.811 311.818C460.697 311.978 460.572 312.13 460.437 312.273C460.113 312.663 459.755 313.086 459.447 313.525C457.936 315.704 456.981 318.22 456.665 320.853C456.35 323.486 456.683 326.157 457.636 328.632C458.589 331.106 460.133 333.31 462.133 335.051C464.133 336.791 466.529 338.015 469.11 338.616H469.403H469.5L470.832 338.892L470.848 333.757ZM462.614 203.408C462.825 203.229 463.02 203.034 463.247 202.871C463.02 203.099 462.825 203.294 462.614 203.473V203.408ZM460.795 205.374C460.638 205.556 460.492 205.745 460.356 205.943L460.795 205.374ZM473.025 256.175H472.911L473.187 256.093L473.025 256.175ZM484.053 295.811C484.054 294.295 483.824 292.788 483.371 291.342C484.059 293.537 484.226 295.863 483.858 298.135C483.501 300.412 482.622 302.575 481.292 304.456C483.074 301.925 484.038 298.907 484.053 295.811ZM473.025 310.307H472.911H473.171H473.025ZM478.401 307.528C478.623 307.362 478.834 307.183 479.034 306.992C478.834 307.188 478.623 307.373 478.401 307.544V307.528ZM463.263 311.087L462.63 311.623L463.247 311.103L463.263 311.087ZM459.495 315.572C458.506 317.351 457.892 319.315 457.693 321.341C457.898 319.321 458.511 317.364 459.495 315.588V315.572ZM457.66 322.755C457.64 325.423 458.329 328.048 459.658 330.361C458.326 328.049 457.637 325.423 457.66 322.755Z" fill="#FED670"/>
<path d="M469.906 167.395C469.45 168.173 468.72 168.752 467.86 169.02C466.993 169.293 466.056 169.235 465.229 168.858C464.405 168.486 463.751 167.819 463.393 166.989C463.025 166.163 462.984 165.227 463.28 164.373C463.574 163.516 464.175 162.799 464.967 162.361C465.76 161.922 466.686 161.794 467.568 162C468.122 162.127 468.638 162.383 469.076 162.746C469.514 163.11 469.86 163.57 470.087 164.092C470.315 164.613 470.417 165.181 470.385 165.749C470.354 166.317 470.19 166.87 469.906 167.363V167.395Z" fill="#E1458D"/>
<path d="M452.073 137.38H453.177C455.01 137.55 456.786 138.104 458.391 139.005C459.977 139.946 461.344 141.215 462.403 142.726C464.075 145.016 464.917 147.807 464.79 150.64C464.707 153.897 463.389 156.999 461.103 159.318H460.908L451.813 150.234C451.744 150.165 451.703 150.072 451.699 149.974V137.217L452.073 137.38Z" fill="#2FC8E0"/>
<path d="M437.26 152.119C437.26 152.493 437.26 152.851 437.26 153.224C437.414 155.051 437.968 156.821 438.884 158.408C439.825 160.001 441.099 161.371 442.62 162.422C444.921 164.093 447.722 164.929 450.562 164.795C453.819 164.714 456.923 163.402 459.251 161.122C459.261 161.102 459.267 161.08 459.267 161.057C459.267 161.035 459.261 161.013 459.251 160.992L450.156 151.924C450.085 151.858 449.993 151.817 449.896 151.811H437.098L437.26 152.119Z" fill="#2FC8E0"/>
<path d="M480.187 195.006C479.83 195.006 479.457 195.006 479.083 195.006C477.247 194.825 475.472 194.242 473.886 193.299C472.29 192.365 470.916 191.095 469.858 189.578C468.185 187.288 467.343 184.497 467.47 181.664C467.549 178.411 468.868 175.312 471.157 173.002H471.287L480.399 182.07C480.461 182.142 480.495 182.235 480.496 182.33C480.496 186.588 480.496 190.829 480.496 195.087L480.187 195.006Z" fill="#2FC8E0"/>
<path d="M495.016 180.234C495.016 179.876 495.016 179.502 495.016 179.145C494.822 177.307 494.234 175.532 493.292 173.942C492.351 172.352 491.077 170.983 489.559 169.93C487.255 168.266 484.456 167.43 481.617 167.558C478.357 167.64 475.251 168.958 472.927 171.247L482.039 180.331C482.11 180.396 482.203 180.431 482.299 180.429H495.016V180.234Z" fill="#2FC8E0"/>
<path d="M480.187 137.38H479.083C477.256 137.551 475.485 138.104 473.886 139.005C472.29 139.94 470.916 141.209 469.858 142.726C468.185 145.016 467.343 147.807 467.47 150.64C467.553 153.897 468.871 156.999 471.157 159.318H471.287L480.399 150.234C480.463 150.163 480.498 150.07 480.496 149.974C480.496 145.738 480.496 141.486 480.496 137.217L480.187 137.38Z" fill="#2FC8E0"/>
<path d="M495.016 152.119C495.016 152.493 495.016 152.851 495.016 153.224C494.82 155.06 494.231 156.831 493.289 158.418C492.347 160.006 491.075 161.371 489.559 162.422C487.258 164.094 484.457 164.931 481.617 164.795C478.363 164.703 475.262 163.392 472.927 161.122L482.023 151.957C482.092 151.888 482.185 151.847 482.282 151.843H495.016V152.119Z" fill="#2FC8E0"/>
<path d="M452.073 195.006C452.446 195.006 452.804 195.006 453.177 195.006C455.019 194.825 456.798 194.242 458.391 193.299C459.977 192.358 461.344 191.089 462.403 189.578C464.075 187.288 464.917 184.497 464.79 181.664C464.711 178.411 463.392 175.312 461.103 173.002H460.908L451.813 182.07C451.746 182.141 451.706 182.233 451.699 182.33V195.087L452.073 195.006Z" fill="#2FC8E0"/>
<path d="M437.26 180.234C437.26 179.876 437.26 179.502 437.26 179.145C437.416 177.314 437.971 175.539 438.884 173.944C439.825 172.352 441.099 170.982 442.62 169.93C444.925 168.267 447.723 167.431 450.562 167.558C453.822 167.636 456.93 168.956 459.251 171.247L450.156 180.331C450.084 180.393 449.992 180.428 449.896 180.429H437.098L437.26 180.234Z" fill="#2FC8E0"/>
<path d="M341.417 292.837L419.102 215.092C419.937 214.261 420.599 213.274 421.051 212.186C421.503 211.099 421.736 209.932 421.736 208.754C421.736 207.576 421.503 206.41 421.051 205.322C420.599 204.234 419.937 203.247 419.102 202.416L341.417 124.688C340.166 123.431 338.571 122.575 336.834 122.225C335.096 121.876 333.294 122.049 331.655 122.724C330.016 123.399 328.614 124.544 327.625 126.016C326.637 127.488 326.107 129.22 326.101 130.993V154.622C326.101 155.8 325.869 156.967 325.419 158.055C324.968 159.143 324.308 160.132 323.475 160.965C322.643 161.798 321.654 162.459 320.567 162.91C319.479 163.361 318.313 163.593 317.136 163.593H51.3056C48.9306 163.593 46.6526 164.535 44.9718 166.214C43.2909 167.893 42.3444 170.171 42.3401 172.547V244.896C42.3401 246.074 42.572 247.241 43.0225 248.329C43.4731 249.418 44.1335 250.407 44.966 251.24C45.7985 252.073 46.7869 252.733 47.8746 253.184C48.9624 253.635 50.1282 253.867 51.3056 253.867H317.152C319.527 253.867 321.805 254.81 323.486 256.489C325.167 258.167 326.113 260.445 326.117 262.821V286.467C326.113 288.242 326.635 289.979 327.618 291.457C328.601 292.935 330 294.089 331.638 294.771C333.277 295.453 335.08 295.633 336.821 295.289C338.562 294.945 340.161 294.091 341.417 292.837Z" fill="#FFE49D"/>
<path d="M85.3159 206.479L7.63126 284.208C6.79643 285.038 6.1339 286.026 5.68183 287.114C5.22976 288.201 4.99707 289.368 4.99707 290.546C4.99707 291.724 5.22976 292.89 5.68183 293.978C6.1339 295.065 6.79643 296.053 7.63126 296.884L85.3159 374.629C86.5697 375.881 88.1663 376.734 89.9041 377.079C91.6418 377.424 93.4428 377.247 95.0798 376.568C96.7167 375.89 98.1162 374.742 99.1015 373.269C100.087 371.796 100.614 370.063 100.616 368.291V344.645C100.62 342.269 101.567 339.991 103.247 338.313C104.928 336.634 107.206 335.691 109.581 335.691H375.428C377.805 335.691 380.086 334.746 381.767 333.064C383.449 331.381 384.393 329.1 384.393 326.72V254.371C384.389 251.995 383.442 249.717 381.761 248.038C380.081 246.359 377.803 245.417 375.428 245.417H109.581C107.203 245.417 104.923 244.471 103.242 242.789C101.56 241.107 100.616 238.825 100.616 236.446V212.817C100.614 211.044 100.087 209.312 99.1015 207.839C98.1162 206.365 96.7167 205.217 95.0798 204.539C93.4428 203.861 91.6418 203.683 89.9041 204.029C88.1663 204.374 86.5697 205.227 85.3159 206.479Z" fill="#F2CE7E"/>
<path d="M157.527 238.624C152.598 238.668 147.708 237.741 143.137 235.893C138.77 234.124 134.788 231.525 131.41 228.239C128.054 225.006 125.371 221.14 123.517 216.863C121.652 212.415 120.691 207.639 120.691 202.814C120.691 197.99 121.652 193.214 123.517 188.765C125.36 184.507 128.007 180.644 131.313 177.39C134.653 174.088 138.617 171.486 142.974 169.735C147.537 167.897 152.414 166.97 157.332 167.005C162.928 166.977 168.466 168.146 173.574 170.434C178.486 172.567 182.81 175.856 186.178 180.022L176.156 189.253C173.899 186.379 171.009 184.065 167.711 182.492C164.451 180.975 160.895 180.198 157.3 180.217C154.33 180.191 151.387 180.783 148.659 181.956C146.057 183.08 143.696 184.697 141.708 186.718C139.707 188.769 138.139 191.2 137.095 193.868C134.875 199.676 134.875 206.099 137.095 211.907C138.161 214.601 139.764 217.05 141.805 219.106C143.829 221.129 146.222 222.745 148.854 223.868C151.63 225.052 154.623 225.645 157.641 225.606C160.717 225.661 163.768 225.034 166.574 223.77C169.177 222.587 171.473 220.818 173.282 218.602C175.076 216.434 176.319 213.864 176.904 211.111H156.439V198.597H192.366V202.969C192.385 207.817 191.47 212.623 189.67 217.123C188.005 221.356 185.527 225.22 182.377 228.499C179.25 231.715 175.504 234.263 171.365 235.991C166.975 237.785 162.269 238.68 157.527 238.624Z" fill="#8668FC"/>
<path d="M208.056 179.616C206.005 179.603 204.042 178.782 202.591 177.332C201.141 175.881 200.321 173.916 200.308 171.864C200.287 170.837 200.48 169.817 200.875 168.869C201.269 167.921 201.856 167.065 202.598 166.355C203.311 165.636 204.162 165.067 205.1 164.685C206.038 164.302 207.043 164.113 208.056 164.129C209.076 164.114 210.089 164.303 211.035 164.686C211.98 165.069 212.84 165.638 213.562 166.359C214.284 167.081 214.855 167.939 215.24 168.885C215.624 169.83 215.816 170.843 215.803 171.864C215.818 172.881 215.627 173.891 215.242 174.832C214.856 175.773 214.285 176.626 213.561 177.341C212.851 178.081 211.995 178.665 211.047 179.057C210.099 179.448 209.081 179.639 208.056 179.616ZM201.299 237.535V185.775H214.91V237.535H201.299Z" fill="#8668FC"/>
<path d="M242.31 237.535L220.172 185.775H234.968L249.164 220.244L263.261 185.775H277.749L255.514 237.535H242.31Z" fill="#8668FC"/>
<path d="M306.936 238.526C302.02 238.592 297.174 237.359 292.887 234.951C288.782 232.661 285.344 229.339 282.914 225.314C280.447 221.211 279.176 216.5 279.244 211.712C279.168 207.02 280.342 202.393 282.646 198.306C284.95 194.219 288.299 190.819 292.351 188.457C296.442 186.061 301.108 184.826 305.848 184.881C310.512 184.801 315.099 186.077 319.052 188.554C322.899 191.014 326.031 194.444 328.132 198.5C330.378 202.89 331.494 207.772 331.38 212.703V216.278H293.147C293.725 218.314 294.721 220.207 296.07 221.836C297.43 223.508 299.167 224.834 301.138 225.704C303.173 226.646 305.392 227.123 307.634 227.102C309.816 227.128 311.984 226.759 314.034 226.013C315.901 225.34 317.609 224.289 319.052 222.925L327.985 231.051C325.086 233.482 321.789 235.395 318.24 236.706C314.604 237.956 310.78 238.572 306.936 238.526ZM292.936 206.544H318.062C317.634 204.573 316.768 202.723 315.528 201.132C314.35 199.606 312.861 198.349 311.159 197.443C309.43 196.543 307.505 196.085 305.555 196.111C303.559 196.079 301.584 196.519 299.79 197.395C298.083 198.251 296.603 199.498 295.469 201.035C294.267 202.685 293.406 204.557 292.936 206.544Z" fill="#8668FC"/>
<path d="M348.84 236.998C347.434 237.031 346.04 236.742 344.763 236.153C343.645 235.65 342.689 234.845 342.002 233.83C341.331 232.814 340.985 231.618 341.011 230.401C340.972 229.472 341.164 228.547 341.569 227.711C341.974 226.874 342.581 226.151 343.334 225.607C345.232 224.372 347.473 223.774 349.733 223.9C351.528 223.891 353.312 224.182 355.012 224.761V223.136C355.046 222.611 354.96 222.084 354.76 221.597C354.56 221.11 354.252 220.675 353.859 220.325C352.871 219.638 351.681 219.306 350.48 219.382C349.49 219.394 348.507 219.542 347.557 219.821C346.32 220.181 345.11 220.626 343.935 221.154L341.905 217.123C343.472 216.401 345.104 215.824 346.777 215.401C348.301 215.014 349.867 214.817 351.439 214.816C353.863 214.669 356.258 215.408 358.179 216.896C358.989 217.634 359.626 218.544 360.041 219.558C360.457 220.573 360.642 221.668 360.583 222.763V236.625H355.028V235.097C354.174 235.744 353.211 236.234 352.186 236.543C351.099 236.859 349.972 237.013 348.84 236.998ZM346.355 230.287C346.348 230.677 346.444 231.062 346.632 231.404C346.82 231.746 347.094 232.033 347.427 232.237C348.28 232.76 349.27 233.015 350.269 232.968C351.148 232.971 352.023 232.851 352.868 232.611C353.641 232.392 354.367 232.034 355.012 231.554V228.499C354.32 228.22 353.602 228.013 352.868 227.882C352.081 227.734 351.281 227.664 350.48 227.67C349.425 227.611 348.376 227.859 347.459 228.385C347.135 228.586 346.866 228.865 346.679 229.198C346.491 229.53 346.391 229.905 346.387 230.287H346.355Z" fill="#B9A7FF"/>
<path d="M364.871 236.625V215.173H370.523V216.945C372.171 215.47 374.322 214.684 376.532 214.751C378.074 214.723 379.597 215.098 380.95 215.84C382.204 216.547 383.238 217.588 383.939 218.846C384.674 220.219 385.043 221.758 385.011 223.315V236.625H379.375V224.144C379.42 222.944 378.988 221.775 378.173 220.894C377.744 220.479 377.234 220.156 376.675 219.946C376.116 219.737 375.52 219.644 374.924 219.675C374.041 219.66 373.167 219.854 372.374 220.244C371.628 220.618 370.991 221.177 370.523 221.869V236.625H364.871Z" fill="#B9A7FF"/>
<path d="M399.189 236.917C397.254 236.937 395.349 236.426 393.683 235.438C392.052 234.472 390.698 233.101 389.753 231.457C389.017 230.205 388.536 228.82 388.337 227.382C388.138 225.944 388.226 224.48 388.594 223.076C388.962 221.671 389.604 220.353 390.483 219.198C391.362 218.043 392.461 217.073 393.716 216.343C395.429 215.358 397.376 214.853 399.352 214.881C400.395 214.879 401.433 215.022 402.438 215.303C403.415 215.589 404.345 216.016 405.199 216.571V207.795L410.835 206.853V236.625H405.28V234.853C403.549 236.224 401.397 236.953 399.189 236.917ZM400.099 232.042C401.075 232.056 402.045 231.885 402.958 231.538C403.816 231.169 404.581 230.614 405.199 229.913V221.674C404.554 221.033 403.786 220.53 402.941 220.195C402.038 219.833 401.072 219.651 400.099 219.659C398.964 219.626 397.842 219.902 396.851 220.455C395.911 220.979 395.13 221.748 394.593 222.681C394.037 223.673 393.757 224.795 393.781 225.932C393.754 227.068 394.034 228.191 394.593 229.182C395.14 230.107 395.918 230.875 396.851 231.408C397.858 231.924 398.986 232.16 400.115 232.091L400.099 232.042Z" fill="#B9A7FF"/>
<path d="M189.475 289.473C186.943 289.501 184.431 289.026 182.085 288.075C179.849 287.167 177.809 285.837 176.075 284.159C174.351 282.492 172.976 280.497 172.031 278.292C171.066 276.009 170.569 273.556 170.569 271.077C170.569 268.598 171.066 266.144 172.031 263.861C172.97 261.665 174.327 259.673 176.026 257.995C177.743 256.298 179.78 254.961 182.02 254.062C184.359 253.125 186.857 252.65 189.377 252.664C192.28 252.669 195.149 253.295 197.79 254.501C200.308 255.593 202.534 257.264 204.287 259.376L199.138 264.121C197.983 262.644 196.498 261.459 194.802 260.66C193.131 259.872 191.306 259.467 189.458 259.474C187.935 259.465 186.426 259.769 185.024 260.367C183.687 260.949 182.474 261.782 181.451 262.821C180.428 263.875 179.627 265.124 179.096 266.494C178.519 267.963 178.232 269.531 178.252 271.109C178.24 272.694 178.533 274.266 179.112 275.741C179.662 277.126 180.485 278.386 181.532 279.446C182.571 280.485 183.801 281.313 185.154 281.884C186.581 282.493 188.119 282.797 189.67 282.778C191.247 282.803 192.811 282.482 194.25 281.835C195.586 281.229 196.765 280.323 197.693 279.186C198.567 278.047 199.157 276.715 199.415 275.302H188.874V268.802H207.373V271.044C207.401 273.548 206.937 276.032 206.009 278.357C205.152 280.52 203.883 282.496 202.273 284.175C200.661 285.819 198.74 287.128 196.621 288.027C194.359 288.982 191.929 289.474 189.475 289.473Z" fill="#B9A7FF"/>
<path d="M224.947 289.424C222.423 289.462 219.935 288.828 217.736 287.588C215.634 286.438 213.87 284.757 212.62 282.713C211.349 280.573 210.712 278.115 210.784 275.627C210.75 273.179 211.373 270.765 212.587 268.639C213.787 266.56 215.516 264.837 217.6 263.647C219.683 262.456 222.045 261.84 224.444 261.863C226.836 261.825 229.187 262.48 231.216 263.748C233.188 265.013 234.795 266.772 235.878 268.851C237.042 271.104 237.628 273.611 237.583 276.147V277.984H217.866C218.172 279.021 218.68 279.987 219.36 280.828C220.065 281.681 220.953 282.365 221.959 282.826C223.011 283.297 224.152 283.535 225.304 283.525C226.412 283.537 227.512 283.349 228.553 282.973C229.517 282.616 230.397 282.063 231.135 281.348L235.716 285.524C234.223 286.776 232.525 287.76 230.697 288.433C228.85 289.085 226.906 289.42 224.947 289.424ZM217.768 273.011H230.648C230.437 271.996 229.992 271.044 229.349 270.232C228.748 269.447 227.983 268.804 227.107 268.347C226.22 267.885 225.232 267.651 224.233 267.664C223.21 267.645 222.197 267.868 221.276 268.314C220.405 268.757 219.649 269.397 219.068 270.183C218.443 271.025 218 271.988 217.768 273.011Z" fill="#B9A7FF"/>
<path d="M253.63 289.327C251.227 289.506 248.844 288.788 246.939 287.312C246.153 286.557 245.543 285.639 245.15 284.623C244.757 283.606 244.591 282.516 244.665 281.429V268.168H239.208V262.35H244.665V255.573L251.649 253.948V262.301H259.25V268.119H251.649V279.95C251.604 280.418 251.652 280.891 251.792 281.34C251.931 281.789 252.159 282.206 252.461 282.566C253.278 283.185 254.3 283.469 255.319 283.363C255.939 283.364 256.558 283.321 257.171 283.233C257.808 283.132 258.434 282.969 259.039 282.745V288.628C258.166 288.902 257.269 289.087 256.359 289.181C255.454 289.29 254.542 289.339 253.63 289.327Z" fill="#B9A7FF"/>
<path d="M310.801 352.267C304.626 352.323 298.501 351.163 292.773 348.854C287.332 346.624 282.37 343.369 278.155 339.266C273.952 335.189 270.592 330.324 268.264 324.949C265.926 319.374 264.721 313.388 264.721 307.341C264.721 301.295 265.926 295.309 268.264 289.733C270.569 284.382 273.877 279.522 278.009 275.416C282.202 271.287 287.17 268.028 292.627 265.828C298.341 263.531 304.449 262.372 310.607 262.415C317.623 262.38 324.567 263.843 330.974 266.705C337.125 269.388 342.544 273.506 346.777 278.715L334.222 290.253C331.398 286.652 327.779 283.754 323.649 281.786C319.581 279.886 315.144 278.909 310.655 278.926C306.938 278.892 303.254 279.634 299.838 281.104C296.575 282.521 293.615 284.551 291.116 287.084C288.615 289.656 286.649 292.7 285.334 296.038C283.942 299.634 283.247 303.461 283.288 307.317C283.24 311.21 283.958 315.075 285.399 318.692C286.737 322.074 288.749 325.148 291.311 327.728C293.847 330.264 296.847 332.289 300.147 333.692C303.627 335.175 307.377 335.916 311.159 335.87C315.011 335.93 318.83 335.148 322.349 333.578C325.607 332.08 328.479 329.857 330.746 327.078C332.993 324.359 334.548 321.136 335.278 317.685H309.437V302.003H354.476V307.479C354.558 313.592 353.455 319.663 351.227 325.355C349.131 330.635 346.025 335.454 342.083 339.543C338.166 343.582 333.469 346.783 328.278 348.952C322.736 351.225 316.791 352.353 310.801 352.267Z" fill="#8668FC"/>
<path d="M366.787 350.902V263.78H384.816V350.902H366.787Z" fill="#8668FC"/>
<path d="M427.613 350.902L392.287 263.78H411.777L438.397 332.36L465.651 263.78H484.297L448.565 350.902H427.613Z" fill="#8668FC"/>
<path d="M157.625 350.512L152.476 348.887C153.232 347.888 153.936 346.852 154.587 345.783L159.736 347.408C159.087 348.479 158.382 349.515 157.625 350.512Z" fill="#462E99"/>
<path d="M159.736 347.408L154.587 345.783C155.183 344.777 155.725 343.741 156.212 342.679L161.376 344.304C160.898 345.373 160.35 346.41 159.736 347.408Z" fill="#442D94"/>
<path d="M161.376 344.288L156.228 342.663C156.739 341.541 157.183 340.391 157.559 339.217L162.724 340.843C162.336 342.014 161.886 343.164 161.376 344.288Z" fill="#422B8F"/>
<path d="M162.724 340.859L157.576 339.234C158.045 337.778 158.409 336.289 158.664 334.781L163.813 336.406C163.557 337.915 163.194 339.403 162.724 340.859Z" fill="#3F2A8A"/>
<path d="M163.813 336.406L158.664 334.781C159.01 332.686 159.178 330.566 159.168 328.443C159.168 327.63 159.086 326.818 159.038 326.038L164.186 327.663C164.186 328.459 164.3 329.288 164.316 330.068C164.336 332.192 164.167 334.312 163.813 336.406Z" fill="#3D2885"/>
<path d="M164.186 327.63L159.038 326.005L158.957 325.323L164.105 326.948L164.186 327.63Z" fill="#3C2884"/>
<path d="M157.82 328.411L152.671 326.785L158.956 325.339L164.105 326.964L157.82 328.411Z" fill="#ADADAD"/>
<path d="M159.947 318.107L154.815 316.482V316.352C154.993 315.195 154.8 314.012 154.262 312.972C153.752 312.003 152.893 311.265 151.859 310.908H151.777L156.942 312.533C157.981 312.873 158.845 313.609 159.346 314.581C159.895 315.617 160.095 316.803 159.914 317.961L159.947 318.107Z" fill="#3D2885"/>
<path d="M158.355 321.228L153.19 319.602L153.288 319.521L153.661 319.082L158.81 320.708L158.437 321.146L158.355 321.228Z" fill="#49309E"/>
<path d="M159.947 318.107L154.815 316.482V316.352C154.993 315.195 154.8 314.012 154.262 312.972C153.752 312.003 152.893 311.265 151.859 310.908H151.777L156.942 312.533C157.981 312.873 158.845 313.609 159.346 314.581C159.895 315.617 160.095 316.803 159.914 317.961L159.947 318.107Z" fill="#3D2885"/>
<path d="M154.474 322.641L149.325 321.016C149.681 321.065 150.042 321.065 150.397 321.016H150.771L155.919 322.641H155.546C155.19 322.682 154.83 322.682 154.474 322.641Z" fill="#4D33A8"/>
<path d="M155.903 322.593L150.754 320.968C150.899 320.947 151.041 320.909 151.177 320.854L156.325 322.479L155.903 322.609V322.593Z" fill="#5034AD"/>
<path d="M156.406 322.446L151.258 320.821C151.737 320.664 152.188 320.428 152.59 320.122L157.738 321.748C157.336 322.053 156.886 322.289 156.406 322.446Z" fill="#4D33A8"/>
<path d="M157.738 321.748L152.59 320.123C152.805 319.961 153.006 319.782 153.191 319.586L158.356 321.211C158.161 321.403 157.955 321.582 157.738 321.748Z" fill="#4B31A3"/>
<path d="M158.355 321.228L153.19 319.602L153.288 319.521L153.661 319.082L158.81 320.708L158.437 321.146L158.355 321.228Z" fill="#49309E"/>
<path d="M158.81 320.708L153.646 319.082C153.788 318.917 153.913 318.737 154.019 318.546L159.168 320.171L158.81 320.708Z" fill="#462E99"/>
<path d="M159.168 320.171L154.019 318.546C154.132 318.362 154.235 318.172 154.328 317.977L159.476 319.602L159.168 320.171Z" fill="#442D94"/>
<path d="M159.476 319.586L154.328 317.961C154.431 317.751 154.518 317.534 154.588 317.311L159.736 318.936C159.663 319.158 159.576 319.375 159.476 319.586Z" fill="#422B8F"/>
<path d="M159.736 318.92L154.587 317.295C154.668 317.022 154.733 316.746 154.782 316.466L159.915 318.091C159.879 318.372 159.819 318.649 159.736 318.92Z" fill="#3F2A8A"/>
<path d="M159.947 318.107L154.815 316.482V316.352C154.993 315.195 154.8 314.012 154.262 312.972C153.752 312.003 152.893 311.265 151.859 310.908H151.777L156.942 312.533C157.981 312.873 158.845 313.609 159.346 314.581C159.895 315.617 160.095 316.803 159.914 317.961L159.947 318.107Z" fill="#3D2885"/>
<path d="M159.947 318.107L154.815 316.482V316.352C154.993 315.195 154.8 314.012 154.262 312.972C153.752 312.003 152.893 311.265 151.859 310.908H151.777L156.942 312.533C157.981 312.873 158.845 313.609 159.346 314.581C159.895 315.617 160.095 316.803 159.914 317.961L159.947 318.107Z" fill="#3D2885"/>
<path d="M154.766 312.436L149.617 310.811L154.782 312.436H154.766Z" fill="#ADADAD"/>
<path d="M154.847 312.42L149.699 310.794C150.172 310.713 150.655 310.713 151.128 310.794L156.277 312.42C155.804 312.338 155.32 312.338 154.847 312.42Z" fill="#A8A8A8"/>
<path d="M156.277 312.371L151.128 310.746C151.353 310.777 151.576 310.826 151.794 310.892L156.943 312.517C156.725 312.451 156.502 312.402 156.277 312.371Z" fill="#A3A3A3"/>
<path d="M159.947 318.107L154.815 316.482V316.352C154.993 315.195 154.8 314.012 154.262 312.972C153.752 312.003 152.893 311.265 151.859 310.908H151.777L156.942 312.533C157.981 312.873 158.845 313.609 159.346 314.581C159.895 315.617 160.095 316.803 159.914 317.961L159.947 318.107Z" fill="#3D2885"/>
<path d="M153.791 322.495L148.643 320.87C148.862 320.951 149.092 321.001 149.325 321.016L154.473 322.641C154.242 322.616 154.013 322.567 153.791 322.495Z" fill="#4B31A3"/>
<path d="M154.474 322.641L149.325 321.016C149.681 321.065 150.042 321.065 150.397 321.016H150.771L155.919 322.641H155.546C155.19 322.682 154.83 322.682 154.474 322.641Z" fill="#4D33A8"/>
<path d="M159.947 318.107L154.815 316.482V316.352C154.993 315.195 154.8 314.012 154.262 312.972C153.752 312.003 152.893 311.265 151.859 310.908H151.777L156.942 312.533C157.981 312.873 158.845 313.609 159.346 314.581C159.895 315.617 160.095 316.803 159.914 317.961L159.947 318.107Z" fill="#3D2885"/>
<path d="M153.792 322.479L148.643 320.854C148.191 320.713 147.767 320.493 147.392 320.204C146.891 319.822 146.48 319.334 146.19 318.774C145.882 318.198 145.684 317.57 145.606 316.921C145.526 316.382 145.526 315.835 145.606 315.296L150.738 316.921C150.658 317.46 150.658 318.007 150.738 318.546C150.819 319.199 151.017 319.833 151.323 320.415C151.618 320.967 152.028 321.449 152.525 321.829C152.902 322.124 153.332 322.345 153.792 322.479Z" fill="#858585"/>
<path d="M150.803 316.905L145.654 315.28C145.702 315.005 145.767 314.734 145.849 314.467L151.014 316.092C150.919 316.356 150.848 316.628 150.803 316.905Z" fill="#8A8A8A"/>
<path d="M151.014 316.092L145.849 314.467C145.93 314.256 146.012 314.028 146.109 313.817L151.258 315.442C151.157 315.651 151.076 315.869 151.014 316.092Z" fill="#8F8F8F"/>
<path d="M151.241 315.426L146.093 313.801L146.255 313.46L146.401 313.216L151.55 314.841C151.497 314.922 151.454 315.01 151.42 315.101L151.241 315.426Z" fill="#949494"/>
<path d="M151.566 314.857L146.417 313.232C146.531 313.046 146.656 312.867 146.791 312.696L151.94 314.321L151.566 314.857Z" fill="#999999"/>
<path d="M151.94 314.305L146.775 312.68C146.921 312.501 147.067 312.322 147.23 312.159L152.362 313.785L151.94 314.305Z" fill="#9E9E9E"/>
<path d="M152.395 313.785L147.246 312.159C147.431 311.964 147.632 311.784 147.847 311.623L152.996 313.248C152.776 313.404 152.575 313.584 152.395 313.785Z" fill="#A3A3A3"/>
<path d="M153.012 313.265L147.847 311.639C148.124 311.441 148.418 311.267 148.724 311.119L149.179 310.941L154.328 312.566L153.873 312.728C153.566 312.872 153.277 313.052 153.012 313.265Z" fill="#A8A8A8"/>
<path d="M154.327 312.55L149.163 310.924L149.601 310.794L154.75 312.42L154.327 312.55Z" fill="#ADADAD"/>
<path d="M154.766 312.436C155.507 312.256 156.284 312.29 157.007 312.533C158.046 312.89 158.911 313.627 159.427 314.597C159.963 315.631 160.157 316.81 159.98 317.961C159.814 319.151 159.28 320.259 158.453 321.13C157.798 321.846 156.944 322.349 156 322.576L155.546 322.658C154.487 322.786 153.42 322.495 152.573 321.845C152.076 321.465 151.666 320.983 151.372 320.431C151.056 319.847 150.857 319.207 150.787 318.546C150.655 317.357 150.888 316.156 151.453 315.101C152.005 314.074 152.87 313.249 153.921 312.745C154.194 312.618 154.476 312.514 154.766 312.436Z" fill="#DDDDDD"/>
<path d="M147.928 309.007L142.78 307.382L144.68 304.473L149.828 306.098L147.928 309.007Z" fill="#4C32A5"/>
<path d="M146.467 311.006L141.318 309.381C141.529 309.153 141.708 308.942 141.87 308.731L147.019 310.356C146.85 310.585 146.665 310.802 146.467 311.006Z" fill="#49309E"/>
<path d="M147.035 310.323L141.902 308.698C142.222 308.28 142.52 307.846 142.796 307.398L147.961 309.023C147.652 309.462 147.441 309.884 147.035 310.323Z" fill="#462E99"/>
<path d="M146.467 311.006L141.318 309.381C141.529 309.153 141.708 308.942 141.87 308.731L147.019 310.356C146.85 310.585 146.665 310.802 146.467 311.006Z" fill="#49309E"/>
<path d="M146.467 311.006L141.318 309.381C141.529 309.153 141.708 308.942 141.87 308.731L147.019 310.356C146.85 310.585 146.665 310.802 146.467 311.006Z" fill="#49309E"/>
<path d="M146.678 310.924L141.529 309.299L141.139 309.169L146.288 310.794L146.678 310.924Z" fill="#858585"/>
<path d="M138.995 332.75L133.83 331.124L152.671 326.802L157.82 328.427L138.995 332.75Z" fill="#ADADAD"/>
<path d="M129.802 360.636L124.654 359.011C125.819 359.38 127.015 359.647 128.227 359.808L133.392 361.433C132.174 361.274 130.973 361.007 129.802 360.636Z" fill="#4B31A3"/>
<path d="M133.392 361.433L128.227 359.807C130.768 360.141 133.346 360.059 135.86 359.564L136.364 359.45L141.529 361.075L141.009 361.189C138.5 361.684 135.927 361.766 133.392 361.433Z" fill="#4D33A8"/>
<path d="M141.529 361.091L136.38 359.466L136.819 359.369C137.653 359.18 138.478 358.947 139.287 358.67L144.436 360.295C143.64 360.555 142.812 360.783 141.967 360.994L141.529 361.091Z" fill="#5034AD"/>
<path d="M144.436 360.295L139.288 358.67C141.839 357.811 144.24 356.555 146.401 354.948L151.55 356.574C149.389 358.18 146.988 359.436 144.436 360.295Z" fill="#4D33A8"/>
<path d="M151.55 356.574L146.401 354.948C147.554 354.066 148.64 353.099 149.65 352.056L154.798 353.681C153.792 354.728 152.706 355.695 151.55 356.574Z" fill="#4B31A3"/>
<path d="M154.864 353.632L149.699 352.007C150.089 351.617 150.478 351.211 150.852 350.804C151.42 350.154 151.956 349.504 152.476 348.838L157.625 350.463C157.105 351.129 156.569 351.796 156.001 352.397C155.432 352.998 155.237 353.291 154.864 353.632Z" fill="#49309E"/>
<path d="M157.625 350.512L152.476 348.887C153.232 347.888 153.936 346.852 154.587 345.783L159.736 347.408C159.087 348.479 158.382 349.515 157.625 350.512Z" fill="#462E99"/>
<path d="M138.508 333.107L133.343 331.482L138.492 333.107H138.508Z" fill="#999999"/>
<path d="M138.524 333.075L133.375 331.449V331.352L138.54 332.977L138.524 333.075Z" fill="#9E9E9E"/>
<path d="M138.605 332.977L133.44 331.352H133.554L138.703 332.977H138.605Z" fill="#A3A3A3"/>
<path d="M138.719 332.896L133.57 331.271C133.645 331.22 133.727 331.182 133.814 331.157L138.963 332.782L138.719 332.896Z" fill="#A8A8A8"/>
<path d="M138.946 332.782L133.798 331.157L138.963 332.782H138.946Z" fill="#ADADAD"/>
<path d="M149.796 306.13L144.647 304.505C143.784 304.102 142.894 303.76 141.984 303.481L147.132 305.107C148.039 305.397 148.928 305.739 149.796 306.13Z" fill="#3D2885"/>
<path d="M129.819 360.636L124.654 359.011C122.206 358.227 119.906 357.041 117.848 355.501L122.997 357.126C125.059 358.669 127.365 359.856 129.819 360.636Z" fill="#858585"/>
<path d="M122.964 356.882L117.8 355.257C122.975 347.348 128.146 339.429 133.31 331.498L138.475 333.123C133.311 341.011 128.14 348.93 122.964 356.882Z" fill="#999999"/>
<path d="M157.819 328.427L164.105 326.98L164.186 327.663C164.186 328.459 164.3 329.288 164.316 330.068C164.512 338.323 161.536 346.338 156 352.462C152.346 356.724 147.431 359.712 141.967 360.994L141.025 361.189C137.91 361.863 134.687 361.863 131.573 361.189C128.459 360.491 125.534 359.127 122.997 357.191C122.981 357.149 122.981 357.103 122.997 357.061C122.989 357.013 122.989 356.963 122.997 356.915L138.508 333.188C138.629 333.021 138.799 332.896 138.995 332.831L157.819 328.427Z" fill="#DDDDDD"/>
<path d="M123.078 357.126L117.913 355.501C117.897 355.421 117.897 355.338 117.913 355.257L123.078 356.882C123.062 356.924 123.062 356.971 123.078 357.012C123.071 357.03 123.067 357.05 123.067 357.069C123.067 357.089 123.071 357.108 123.078 357.126Z" fill="#858585"/>
<path d="M122.948 356.882L117.8 355.257L122.932 356.882H122.948Z" fill="#8A8A8A"/>
<path d="M122.948 356.882L117.832 355.257L122.981 356.882H122.948Z" fill="#8F8F8F"/>
<path d="M136.072 310.242L130.907 308.617C133.013 308.152 135.184 308.058 137.322 308.341L142.471 309.966C140.338 309.683 138.172 309.776 136.072 310.242Z" fill="#4D33A8"/>
<path d="M142.471 309.982L137.322 308.357C138.36 308.485 139.382 308.714 140.376 309.039L145.541 310.664C144.539 310.349 143.512 310.12 142.471 309.982Z" fill="#4B31A3"/>
<path d="M118.953 353.323L113.82 351.698L116.987 346.823L122.136 348.448C121.113 350.073 120.073 351.698 118.969 353.323" fill="#462E99"/>
<path d="M122.152 348.448L117.004 346.823C117.011 346.769 117.011 346.714 117.004 346.66L122.152 348.286C122.168 348.339 122.168 348.395 122.152 348.448Z" fill="#3D2885"/>
<path d="M135.731 304.522L130.615 302.896C131.313 302.799 132.028 302.669 132.742 302.588C134.613 302.352 136.507 302.352 138.378 302.588L143.527 304.213C141.655 303.985 139.763 303.985 137.891 304.213C137.16 304.294 136.445 304.424 135.731 304.522Z" fill="#A8A8A8"/>
<path d="M143.51 304.278L138.362 302.653C139.614 302.815 140.848 303.092 142.049 303.481L147.197 305.107C145.997 304.717 144.762 304.44 143.51 304.278Z" fill="#A3A3A3"/>
<path d="M134.448 304.879L129.299 303.254L130.549 302.961L135.698 304.587L134.448 304.879Z" fill="#B3B3B3"/>
<path d="M118.953 353.323L113.82 351.698L116.987 346.823L122.136 348.448C121.113 350.073 120.073 351.698 118.969 353.323" fill="#462E99"/>
<path d="M118.953 353.323L113.82 351.698L116.987 346.823L122.136 348.448C121.113 350.073 120.073 351.698 118.969 353.323" fill="#462E99"/>
<path d="M134.236 304.879L129.088 303.254H129.331L134.48 304.879H134.236Z" fill="#B5B5B5"/>
<path d="M125.222 316.255L120.057 314.63C120.914 313.769 121.831 312.971 122.802 312.241L127.967 313.866C126.993 314.592 126.076 315.39 125.222 316.255Z" fill="#4B31A3"/>
<path d="M127.951 313.947L122.802 312.322C124.628 310.958 126.663 309.899 128.828 309.186L133.976 310.811C131.813 311.528 129.779 312.587 127.951 313.947Z" fill="#4D33A8"/>
<path d="M133.977 310.794L128.828 309.169L129.705 308.893L130.598 308.682L130.907 308.601L136.072 310.226H135.747L134.87 310.437L133.977 310.794Z" fill="#5034AD"/>
<path d="M136.072 310.242L130.907 308.617C133.013 308.152 135.184 308.058 137.322 308.341L142.471 309.966C140.338 309.683 138.172 309.776 136.072 310.242Z" fill="#4D33A8"/>
<path d="M132.823 287.312L127.675 285.687L128.081 285.589L133.213 287.214L132.823 287.312Z" fill="#5034AD"/>
<path d="M133.229 287.214L128.081 285.589C132.379 284.646 136.808 284.453 141.172 285.02L146.32 286.645C141.957 286.07 137.526 286.262 133.229 287.214Z" fill="#4D33A8"/>
<path d="M146.337 286.662L141.172 285.036C143.21 285.314 145.22 285.765 147.181 286.385L152.346 288.01C150.386 287.384 148.376 286.933 146.337 286.662Z" fill="#4B31A3"/>
<path d="M122.104 348.286L116.939 346.66C113.532 341.904 112.047 336.036 112.781 330.231C112.781 329.646 112.911 329.061 113.008 328.476L118.157 330.101C118.157 330.686 118.011 331.271 117.929 331.856C117.2 337.663 118.691 343.532 122.104 348.286Z" fill="#3D2885"/>
<path d="M118.206 330.101L113.057 328.476C113.269 327.271 113.562 326.082 113.934 324.917L119.083 326.542C118.709 327.706 118.416 328.896 118.206 330.101Z" fill="#3F2A8A"/>
<path d="M119.05 326.542L113.885 324.917C114.209 323.932 114.589 322.966 115.022 322.024L120.155 323.649C119.725 324.588 119.356 325.555 119.05 326.542Z" fill="#422B8F"/>
<path d="M120.171 323.649L115.038 322.024C115.448 321.139 115.903 320.277 116.403 319.44L121.551 321.065C121.043 321.9 120.582 322.762 120.171 323.649Z" fill="#442D94"/>
<path d="M121.535 321.13L116.37 319.505C116.863 318.666 117.406 317.858 117.995 317.084L123.143 318.709C122.559 319.483 122.022 320.291 121.535 321.13Z" fill="#462E99"/>
<path d="M123.175 318.66L118.027 317.035C118.66 316.223 119.338 315.447 120.057 314.711L125.206 316.336C124.483 317.069 123.805 317.845 123.175 318.66Z" fill="#49309E"/>
<path d="M125.222 316.255L120.057 314.63C120.914 313.769 121.831 312.971 122.802 312.241L127.967 313.866C126.993 314.592 126.076 315.39 125.222 316.255Z" fill="#4B31A3"/>
<path d="M119.001 353.258L113.853 351.633C113.671 351.522 113.516 351.372 113.398 351.194C109.764 346.538 107.699 340.848 107.502 334.943C107.391 332.595 107.532 330.241 107.924 327.923L113.057 329.548C112.668 331.867 112.537 334.221 112.667 336.569C112.866 342.47 114.924 348.158 118.547 352.82C118.668 352.994 118.823 353.143 119.001 353.258Z" fill="#858585"/>
<path d="M113.073 329.548L107.957 327.923C108.217 326.375 108.592 324.849 109.078 323.356L114.226 324.982C113.737 326.475 113.352 328.001 113.073 329.548Z" fill="#8A8A8A"/>
<path d="M114.194 324.982L109.045 323.356C109.434 322.107 109.906 320.886 110.458 319.7L115.607 321.325C115.069 322.517 114.597 323.738 114.194 324.982Z" fill="#8F8F8F"/>
<path d="M115.623 321.341L110.474 319.716C110.98 318.601 111.55 317.516 112.18 316.466L117.328 318.091C116.696 319.14 116.126 320.225 115.623 321.341Z" fill="#949494"/>
<path d="M117.328 318.107L112.164 316.482C112.776 315.447 113.449 314.449 114.178 313.492L119.326 315.117C118.597 316.07 117.93 317.069 117.328 318.107Z" fill="#999999"/>
<path d="M119.375 315.117L114.21 313.492C115.002 312.483 115.848 311.518 116.744 310.599L121.909 312.225C121.004 313.134 120.158 314.101 119.375 315.117Z" fill="#9E9E9E"/>
<path d="M121.876 312.241L116.728 310.616C117.788 309.55 118.928 308.566 120.138 307.674L125.287 309.299C124.077 310.191 122.937 311.175 121.876 312.241Z" fill="#A3A3A3"/>
<path d="M125.287 309.283L120.138 307.658C121.82 306.394 123.647 305.335 125.579 304.505C126.099 304.278 126.619 304.099 127.204 303.904L132.352 305.529L130.728 306.13C128.803 306.977 126.979 308.034 125.287 309.283Z" fill="#A8A8A8"/>
<path d="M132.303 305.529L127.155 303.904L128.779 303.384L133.944 305.009L132.303 305.529Z" fill="#ADADAD"/>
<path d="M133.879 305.009L128.73 303.384L129.088 303.254L134.236 304.879L133.879 305.009Z" fill="#A8A8A8"/>
<path d="M135.731 304.522C136.445 304.408 137.144 304.278 137.858 304.213C141.917 303.743 146.028 304.389 149.747 306.082L147.928 309.023C147.506 309.657 147.1 310.291 146.678 310.908C143.162 309.688 139.375 309.48 135.747 310.307L134.87 310.518C130.26 312.019 126.194 314.844 123.179 318.641C120.164 322.439 118.332 327.04 117.913 331.872C117.183 337.674 118.675 343.538 122.087 348.286C122.095 348.318 122.095 348.351 122.087 348.383C122.095 348.415 122.095 348.448 122.087 348.481C121.048 350.106 120.025 351.731 118.969 353.258C118.792 353.146 118.642 352.997 118.531 352.82C114.896 348.163 112.832 342.473 112.635 336.569C112.273 330.272 113.8 324.011 117.022 318.59C120.243 313.169 125.01 308.836 130.712 306.147C131.849 305.659 133.051 305.334 134.204 304.912H134.447L135.731 304.522Z" fill="#DDDDDD"/>
<path d="M124.15 377.31L119.001 375.685C111.552 373.08 105.02 368.367 100.196 362.118C95.3724 355.87 92.4658 348.355 91.8289 340.485C91.2488 335.551 91.3856 330.559 92.2349 325.664L97.3836 327.289C96.5396 332.185 96.4084 337.177 96.9938 342.11C97.6314 349.977 100.536 357.49 105.357 363.738C110.177 369.986 116.705 374.701 124.15 377.31Z" fill="#3D2885"/>
<path d="M97.3836 327.322L92.2188 325.697C92.6488 323.225 93.2512 320.787 94.0216 318.4L99.1703 320.025C98.4026 322.412 97.8055 324.85 97.3836 327.322Z" fill="#3F2A8A"/>
<path d="M99.1702 320.009L94.0215 318.384C94.6718 316.38 95.4364 314.416 96.3116 312.501L101.46 314.126C100.585 316.041 99.8204 318.006 99.1702 320.009Z" fill="#422B8F"/>
<path d="M101.477 314.126L96.3279 312.501C97.1513 310.712 98.0731 308.971 99.089 307.284L104.238 308.909C103.228 310.599 102.306 312.341 101.477 314.126Z" fill="#442D94"/>
<path d="M104.221 308.909L99.0564 307.284C100.073 305.597 101.185 303.97 102.386 302.409L107.551 304.034C106.344 305.591 105.233 307.219 104.221 308.909Z" fill="#462E99"/>
<path d="M107.535 304.066L102.386 302.441C103.647 300.808 105.003 299.251 106.446 297.777L111.595 299.402C110.147 300.872 108.791 302.43 107.535 304.066Z" fill="#49309E"/>
<path d="M111.595 299.402L106.447 297.777C108.138 296.06 109.963 294.478 111.904 293.048L117.052 294.673C115.115 296.108 113.291 297.689 111.595 299.402Z" fill="#4B31A3"/>
<path d="M117.036 294.673L111.887 293.048C115.555 290.313 119.634 288.18 123.971 286.727L129.12 288.352C124.785 289.811 120.708 291.945 117.036 294.673Z" fill="#4D33A8"/>
<path d="M129.136 288.352L123.988 286.727C125.19 286.337 126.424 285.995 127.691 285.703L132.84 287.328C131.573 287.604 130.338 287.945 129.136 288.352Z" fill="#5034AD"/>
<path d="M96.9775 342.126C99.9822 367.185 120.837 383.258 143.64 378.025C166.444 372.792 182.507 348.253 179.502 323.21C176.497 298.167 155.562 282.128 132.823 287.312C110.085 292.496 93.9727 317.084 96.9775 342.126ZM118.936 353.34C118.807 353.161 118.66 353.015 118.547 352.836C114.912 348.179 112.848 342.489 112.651 336.585C112.289 330.288 113.816 324.028 117.038 318.607C120.259 313.186 125.027 308.852 130.728 306.163C131.881 305.659 133.067 305.318 134.22 304.928L134.447 304.879L135.698 304.587C136.413 304.489 137.127 304.359 137.842 304.278C141.927 303.808 146.063 304.471 149.796 306.195L147.896 309.104C147.467 309.792 146.983 310.444 146.45 311.054C143.027 309.751 139.291 309.514 135.731 310.372C135.429 310.432 135.131 310.508 134.837 310.599C130.233 312.097 126.172 314.917 123.159 318.709C120.147 322.5 118.317 327.095 117.897 331.921C117.183 337.722 118.673 343.58 122.071 348.334C122.078 348.35 122.082 348.366 122.082 348.383C122.082 348.4 122.078 348.417 122.071 348.432C122.078 348.447 122.082 348.464 122.082 348.481C122.082 348.497 122.078 348.514 122.071 348.529C121.048 350.154 120.008 351.78 118.904 353.405L118.936 353.34ZM164.235 327.63C164.235 328.427 164.349 329.256 164.365 330.036C164.558 338.293 161.576 346.309 156.033 352.43C152.384 356.69 147.475 359.678 142.016 360.961L141.058 361.156C137.944 361.839 134.719 361.839 131.605 361.156C128.494 360.452 125.57 359.089 123.029 357.159V357.029C123.021 356.98 123.021 356.931 123.029 356.882C128.194 348.952 133.365 341.038 138.54 333.14C138.66 332.971 138.831 332.846 139.028 332.782L157.868 328.443L164.154 327.013V327.695L164.235 327.63ZM153.938 312.712C154.219 312.583 154.513 312.485 154.815 312.419C155.562 312.24 156.344 312.274 157.072 312.517C158.103 312.872 158.962 313.603 159.476 314.565C160.012 315.605 160.206 316.788 160.028 317.945C159.877 319.16 159.349 320.296 158.518 321.195C157.856 321.907 156.996 322.406 156.049 322.625C155.9 322.667 155.748 322.7 155.594 322.723C155.069 322.788 154.535 322.748 154.025 322.606C153.515 322.463 153.038 322.221 152.622 321.894C152.121 321.518 151.711 321.035 151.42 320.48C151.107 319.901 150.908 319.266 150.835 318.611C150.704 317.417 150.936 316.21 151.501 315.15C152.054 314.122 152.919 313.297 153.97 312.793" fill="#6543DD"/>
<path d="M412.881 141.345L404.419 138.095C404.24 139.037 404.094 139.964 403.899 140.922L412.361 144.173C412.556 143.23 412.702 142.304 412.881 141.345Z" fill="#4B31A3"/>
<path d="M412.345 144.156L403.883 140.906C403.883 141.117 403.883 141.329 403.753 141.524V141.816L412.215 145.066V144.79L412.345 144.156Z" fill="#4D33A8"/>
<path d="M412.183 145.083L403.737 141.832C403.624 142.255 403.526 142.677 403.429 143.1L411.874 146.35C411.939 145.928 412.053 145.489 412.183 145.083Z" fill="#5034AD"/>
<path d="M411.825 146.334L403.38 143.084C403.282 143.506 403.169 143.913 403.039 144.319L411.501 147.569C411.614 147.244 411.728 146.756 411.825 146.334Z" fill="#5236B3"/>
<path d="M411.501 147.585L403.039 144.335C402.925 144.758 402.795 145.164 402.665 145.57L411.127 148.82C411.257 148.414 411.387 148.008 411.501 147.585Z" fill="#5437B8"/>
<path d="M411.111 148.869L402.665 145.619L402.275 146.838L410.721 150.088C410.873 149.655 411.003 149.248 411.111 148.869Z" fill="#5739BD"/>
<path d="M410.721 150.039L402.259 146.789C402.129 147.195 401.983 147.602 401.837 147.992L410.299 151.242C410.445 150.852 410.559 150.494 410.721 150.039Z" fill="#593BC2"/>
<path d="M410.299 151.242L401.853 147.992C401.707 148.398 401.561 148.804 401.398 149.21L409.86 152.461L410.299 151.242Z" fill="#5B3CC7"/>
<path d="M409.844 152.444L401.431 149.194L400.943 150.397L409.405 153.647C409.535 153.257 409.698 152.851 409.844 152.444Z" fill="#5E3ECC"/>
<path d="M409.357 153.744L400.911 150.494C400.748 150.9 400.57 151.307 400.391 151.697L408.853 154.947C409.032 154.459 409.194 154.069 409.357 153.744Z" fill="#603FD1"/>
<path d="M408.935 154.866L400.489 151.616C400.294 152.038 400.115 152.461 399.92 152.867L408.366 156.117C408.48 155.711 408.675 155.37 408.935 154.866Z" fill="#6241D6"/>
<path d="M408.268 156.117L399.823 152.867C399.595 153.322 399.384 153.777 399.157 154.216L407.619 157.466C407.83 156.995 408.057 156.572 408.268 156.117Z" fill="#6542DB"/>
<path d="M412.914 141.101L404.468 137.851V138.078L412.914 141.329V141.101Z" fill="#5236B2"/>
<path d="M413.076 139.915L404.63 136.665L404.468 137.851L412.93 141.101L413.076 139.915Z" fill="#4D33A9"/>
<path d="M413.239 138.062L404.793 134.812C404.793 135.429 404.679 136.047 404.614 136.681L413.076 139.931C413.125 139.297 413.206 138.663 413.239 138.062Z" fill="#442D94"/>
<path d="M413.336 136.388L404.874 133.138C404.874 133.658 404.874 134.194 404.874 134.763L413.32 138.013V137.916C413.287 137.493 413.32 136.908 413.336 136.388Z" fill="#422B8F"/>
<path d="M413.239 138.062L404.793 134.812C404.793 135.429 404.679 136.047 404.614 136.681L413.076 139.931C413.125 139.297 413.206 138.663 413.239 138.062Z" fill="#442D94"/>
<path d="M412.329 128.36L403.867 125.11C404.485 127.029 404.825 129.026 404.874 131.042L413.336 134.292C413.287 132.277 412.948 130.279 412.329 128.36Z" fill="#3D2885"/>
<path d="M413.32 134.243L404.858 130.993C404.858 131.659 404.858 132.358 404.858 133.073L413.32 136.323C413.352 135.673 413.352 134.974 413.32 134.243Z" fill="#3F2A8A"/>
<path d="M413.336 136.388L404.874 133.138C404.874 133.658 404.874 134.194 404.874 134.763L413.32 138.013V137.916C413.287 137.493 413.32 136.908 413.336 136.388Z" fill="#422B8F"/>
<path d="M412.345 128.409L403.883 125.159L402.259 127.792L410.721 131.042L412.345 128.409Z" fill="#E6E6E6"/>
<path d="M412.329 128.36L403.867 125.11C404.485 127.029 404.825 129.026 404.874 131.042L413.336 134.292C413.287 132.277 412.948 130.279 412.329 128.36Z" fill="#3D2885"/>
<path d="M410.786 130.993L402.34 127.743L401.333 129.482L409.796 132.732C410.137 132.212 410.461 131.627 410.786 130.993Z" fill="#E6E6E6"/>
<path d="M409.081 126.231L400.619 122.981V123.241L409.081 126.491V126.231Z" fill="#462E99"/>
<path d="M409.048 126.491L400.586 123.241V123.485L409.032 126.735C409.015 126.638 409.032 126.573 409.048 126.491Z" fill="#49309E"/>
<path d="M409.016 126.735L400.554 123.485V123.712L409.016 126.963C409.009 126.887 409.009 126.811 409.016 126.735Z" fill="#4B31A3"/>
<path d="M408.935 126.963L400.473 123.713V123.94L408.935 127.19V126.963Z" fill="#4D33A8"/>
<path d="M409.081 126.231L400.619 122.981V123.241L409.081 126.491V126.231Z" fill="#462E99"/>
<path d="M408.139 123.225L399.677 119.975C399.922 120.088 400.131 120.268 400.278 120.495C400.441 120.713 400.542 120.971 400.57 121.242C400.634 121.497 400.667 121.759 400.667 122.022L409.13 125.273C409.114 125.011 409.082 124.75 409.032 124.493C409.001 124.217 408.901 123.954 408.74 123.729C408.579 123.518 408.374 123.346 408.139 123.225Z" fill="#3D2885"/>
<path d="M409.113 125.273L400.667 122.022V122.396L409.113 125.646C409.13 125.522 409.13 125.397 409.113 125.273Z" fill="#3F2A8A"/>
<path d="M409.113 125.63L400.651 122.38V122.689L409.113 125.939V125.63Z" fill="#422B8F"/>
<path d="M409.113 125.955L400.651 122.705C400.651 122.802 400.651 122.9 400.651 122.981L409.113 126.231V125.955Z" fill="#442D94"/>
<path d="M409.081 126.231L400.619 122.981V123.241L409.081 126.491V126.231Z" fill="#462E99"/>
<path d="M408.122 123.209L399.66 119.958C399.906 120.072 400.114 120.252 400.261 120.479C400.424 120.697 400.525 120.955 400.554 121.226C400.619 121.481 400.652 121.743 400.651 122.006L409.113 125.256C409.113 124.988 409.081 124.72 409.015 124.46C408.984 124.195 408.883 123.942 408.723 123.729C408.569 123.508 408.362 123.33 408.122 123.209Z" fill="#3D2885"/>
<path d="M408.268 156.117L399.823 152.867C399.595 153.322 399.384 153.777 399.157 154.216L407.619 157.466C407.83 156.995 408.057 156.572 408.268 156.117Z" fill="#6542DB"/>
<path d="M407.619 157.482L399.173 154.232C398.897 154.752 398.637 155.272 398.345 155.776L406.807 159.026C407.083 158.522 407.31 158.002 407.619 157.482Z" fill="#6744E0"/>
<path d="M406.791 159.01L398.345 155.76C397.939 156.491 397.533 157.19 397.11 157.872L405.572 161.122C405.995 160.44 406.401 159.741 406.791 159.01Z" fill="#6945E6"/>
<path d="M405.572 161.139L397.11 157.888C395.69 160.231 394.018 162.411 392.124 164.389L400.586 167.639C402.471 165.653 404.142 163.474 405.572 161.139Z" fill="#6C47EB"/>
<path d="M400.586 167.688L392.124 164.438C391.534 165.066 390.91 165.663 390.256 166.225L398.702 169.475C399.366 168.918 399.995 168.321 400.586 167.688Z" fill="#6945E6"/>
<path d="M398.702 169.459L390.256 166.209C389.818 166.583 389.363 166.924 388.924 167.249L397.37 170.499C397.836 170.182 398.281 169.835 398.702 169.459Z" fill="#6744E0"/>
<path d="M397.403 170.499L388.941 167.249C388.567 167.509 388.21 167.753 387.836 167.98L396.298 171.231C396.656 171.019 397.013 170.759 397.403 170.499Z" fill="#6542DB"/>
<path d="M396.282 171.23L387.836 167.98C387.539 168.172 387.229 168.346 386.911 168.5L395.373 171.751C395.681 171.588 395.99 171.426 396.298 171.23H396.282Z" fill="#6241D6"/>
<path d="M395.275 171.799L386.829 168.549C386.537 168.695 386.245 168.842 385.952 168.955L394.414 172.206C394.709 172.087 394.996 171.951 395.275 171.799Z" fill="#603FD1"/>
<path d="M394.414 172.222L385.952 168.972L385.156 169.28L393.618 172.531C393.878 172.449 394.138 172.336 394.414 172.222Z" fill="#5E3ECC"/>
<path d="M393.619 172.531L385.173 169.28C384.913 169.362 384.669 169.443 384.442 169.492L392.888 172.742L393.619 172.531Z" fill="#5B3CC7"/>
<path d="M392.904 172.742L384.442 169.492L383.76 169.638L392.222 172.888L392.904 172.742Z" fill="#593BC2"/>
<path d="M392.222 172.888L383.76 169.638C383.546 169.687 383.329 169.72 383.11 169.735L391.572 172.986C391.791 172.969 392.008 172.937 392.222 172.888Z" fill="#5739BD"/>
<path d="M391.572 172.969L383.11 169.719H382.477L390.922 172.969H391.572Z" fill="#5437B8"/>
<path d="M390.922 173.002L382.477 169.752H381.843L390.305 173.002C390.51 173.026 390.717 173.026 390.922 173.002Z" fill="#5236B3"/>
<path d="M390.305 172.953L381.843 169.703C381.635 169.688 381.429 169.655 381.226 169.605L389.672 172.856L390.305 172.953Z" fill="#5034AD"/>
<path d="M389.688 172.856L381.226 169.605L380.592 169.443L389.038 172.693L389.688 172.856Z" fill="#4D33A8"/>
<path d="M389.054 172.677L380.592 169.427L380.333 169.345L388.794 172.596L389.054 172.677Z" fill="#4B31A3"/>
<path d="M409.795 132.797L401.35 129.547C401.645 130.882 401.819 132.242 401.869 133.609L410.331 136.86C410.283 135.491 410.103 134.131 409.795 132.797Z" fill="#858585"/>
<path d="M410.315 136.86L401.869 133.609C401.869 134.178 401.869 134.763 401.869 135.348L410.331 138.598C410.347 138.013 410.347 137.493 410.315 136.86Z" fill="#8A8A8A"/>
<path d="M410.348 138.615L401.886 135.365C401.886 135.82 401.886 136.291 401.886 136.778L410.348 140.029C410.299 139.525 410.332 139.118 410.348 138.615Z" fill="#8F8F8F"/>
<path d="M410.25 140.012L401.788 136.762C401.788 137.185 401.788 137.623 401.674 138.046L410.136 141.296C410.185 140.857 410.217 140.435 410.25 140.012Z" fill="#949494"/>
<path d="M410.152 141.28L401.69 138.03C401.69 138.257 401.69 138.501 401.69 138.728C401.69 138.956 401.69 139.086 401.69 139.265L410.152 142.515C410.152 142.336 410.152 142.157 410.25 141.962C410.347 141.767 410.12 141.507 410.152 141.28Z" fill="#999999"/>
<path d="M409.99 142.515L401.528 139.265V139.59L401.398 140.354L409.86 143.604C409.86 143.344 409.958 143.068 409.99 142.824V142.515Z" fill="#9E9E9E"/>
<path d="M409.796 143.604L401.35 140.354C401.35 140.695 401.22 141.036 401.139 141.377L409.601 144.628C409.683 144.29 409.748 143.948 409.796 143.604Z" fill="#A3A3A3"/>
<path d="M409.6 144.628L401.138 141.377C401.138 141.719 400.992 142.06 400.927 142.385L409.373 145.635C409.454 145.294 409.535 144.969 409.6 144.628Z" fill="#A8A8A8"/>
<path d="M409.389 145.619L400.927 142.369C400.846 142.694 400.765 143.019 400.667 143.36L409.13 146.61C409.227 146.285 409.308 145.96 409.389 145.619Z" fill="#ADADAD"/>
<path d="M409.146 146.626L400.684 143.376C400.684 143.701 400.505 144.026 400.408 144.351L408.87 147.602C408.935 147.244 409.065 146.952 409.146 146.626Z" fill="#B3B3B3"/>
<path d="M408.935 147.585L400.489 144.335C400.392 144.66 400.31 144.985 400.213 145.294L408.659 148.544C408.691 148.252 408.789 147.91 408.935 147.585Z" fill="#B8B8B8"/>
<path d="M408.593 148.56L400.131 145.31C400.034 145.635 399.92 145.96 399.823 146.285L408.269 149.535C408.382 149.21 408.496 148.869 408.593 148.56Z" fill="#BDBDBD"/>
<path d="M408.269 149.535L399.807 146.285C399.709 146.61 399.596 146.935 399.482 147.26L407.944 150.51C408.041 150.169 408.155 149.86 408.269 149.535Z" fill="#C2C2C2"/>
<path d="M407.944 150.494L399.482 147.244C399.368 147.569 399.238 147.894 399.125 148.203L407.57 151.453C407.7 151.128 407.814 150.803 407.928 150.494" fill="#C7C7C7"/>
<path d="M407.57 151.453L399.124 148.203L398.734 149.178L407.18 152.428C407.33 152.111 407.46 151.786 407.57 151.453Z" fill="#CCCCCC"/>
<path d="M407.18 152.444L398.735 149.194C398.589 149.535 398.459 149.86 398.312 150.185L406.774 153.436C406.904 153.094 407.034 152.769 407.18 152.444Z" fill="#D1D1D1"/>
<path d="M406.774 153.419L398.312 150.169C398.166 150.51 398.02 150.835 397.857 151.177L406.319 154.427C406.466 154.102 406.612 153.744 406.774 153.419Z" fill="#D6D6D6"/>
<path d="M406.303 154.443L397.841 151.193C397.679 151.551 397.5 151.908 397.321 152.266L405.767 155.516C405.962 155.158 406.124 154.801 406.303 154.443Z" fill="#DBDBDB"/>
<path d="M405.767 155.516L397.322 152.266C397.094 152.688 396.883 153.111 396.656 153.517L405.118 156.767C405.345 156.345 405.556 155.922 405.767 155.516Z" fill="#E0E0E0"/>
<path d="M405.117 156.751L396.655 153.501C396.331 154.086 396.006 154.654 395.648 155.223L404.11 158.473C404.452 157.921 404.793 157.336 405.117 156.751Z" fill="#E6E6E6"/>
<path d="M404.062 158.473L395.6 155.223C394.466 157.097 393.138 158.846 391.637 160.44L400.082 163.69C401.59 162.097 402.924 160.348 404.062 158.473Z" fill="#EBEBEB"/>
<path d="M400.148 163.69L391.686 160.44C391.228 160.92 390.746 161.376 390.24 161.805L398.702 165.055C399.207 164.625 399.689 164.169 400.148 163.69Z" fill="#E6E6E6"/>
<path d="M398.67 165.12L390.208 161.87C389.802 162.179 389.428 162.504 389.055 162.78L397.517 166.03C397.89 165.738 398.264 165.429 398.67 165.12Z" fill="#E0E0E0"/>
<path d="M397.565 166.014L389.103 162.764C388.817 162.981 388.519 163.182 388.21 163.365L396.672 166.615C396.964 166.436 397.257 166.241 397.565 166.014Z" fill="#DBDBDB"/>
<path d="M396.607 166.615L388.145 163.365C387.907 163.524 387.657 163.665 387.398 163.788L395.86 167.038L396.607 166.615Z" fill="#D6D6D6"/>
<path d="M395.941 167.038L387.479 163.788C387.251 163.901 387.024 164.015 386.813 164.096L395.275 167.347C395.405 167.249 395.632 167.168 395.941 167.038Z" fill="#D1D1D1"/>
<path d="M395.194 167.363L386.732 164.113L386.131 164.34L394.593 167.59L395.194 167.363Z" fill="#CCCCCC"/>
<path d="M394.593 167.574L386.131 164.324L385.562 164.503L394.025 167.753C394.219 167.709 394.409 167.649 394.593 167.574Z" fill="#C7C7C7"/>
<path d="M394.008 167.753L385.562 164.503L385.01 164.616L393.472 167.867L394.008 167.753Z" fill="#C2C2C2"/>
<path d="M393.472 167.867L385.027 164.616H384.491L392.953 167.867H393.472Z" fill="#BDBDBD"/>
<path d="M392.953 167.948L384.491 164.698H383.987L392.449 167.948C392.617 167.964 392.785 167.964 392.953 167.948Z" fill="#B8B8B8"/>
<path d="M392.433 167.948L383.971 164.698H383.435L391.897 167.948C392.075 167.964 392.254 167.964 392.433 167.948Z" fill="#B3B3B3"/>
<path d="M391.913 167.932L383.451 164.681L382.915 164.584L391.377 167.834L391.913 167.932Z" fill="#ADADAD"/>
<path d="M391.394 167.834L382.932 164.584C382.749 164.551 382.57 164.502 382.396 164.438L390.858 167.688C391.032 167.752 391.211 167.801 391.394 167.834Z" fill="#A8A8A8"/>
<path d="M390.857 167.688L382.395 164.438L382.168 164.356L390.63 167.607L390.857 167.688Z" fill="#A3A3A3"/>
<path d="M408.935 127.255L400.473 124.005V124.2L408.935 127.45V127.255Z" fill="#5034AD"/>
<path d="M408.935 127.434L400.473 124.184V124.411L408.918 127.661L408.935 127.434Z" fill="#5236B3"/>
<path d="M408.788 127.743L400.326 124.493V124.704L408.788 127.954V127.743Z" fill="#5437B8"/>
<path d="M408.723 127.873L400.277 124.623C400.277 124.623 400.277 124.769 400.277 124.834L408.739 128.084L408.723 127.873Z" fill="#5739BD"/>
<path d="M408.642 128.1L400.196 124.85C400.196 124.85 400.196 124.996 400.196 125.061L408.658 128.312L408.642 128.1Z" fill="#593BC2"/>
<path d="M408.577 128.312L400.115 125.061L400.034 125.289L408.496 128.539L408.577 128.312Z" fill="#5B3CC7"/>
<path d="M408.496 128.523L400.05 125.273L399.953 125.484L408.415 128.734C408.415 128.734 408.463 128.604 408.496 128.523Z" fill="#5E3ECC"/>
<path d="M408.415 128.75L399.969 125.5L399.872 125.711L408.317 128.962L408.415 128.75Z" fill="#603FD1"/>
<path d="M408.333 128.962L399.871 125.711L399.774 125.939L408.22 129.189L408.333 128.962Z" fill="#6241D6"/>
<path d="M408.22 129.189L399.758 125.939L399.644 126.183L408.09 129.433L408.22 129.189Z" fill="#6542DB"/>
<path d="M408.09 129.368L399.628 126.118L399.482 126.394L407.944 129.644C407.986 129.549 408.035 129.457 408.09 129.368Z" fill="#6744E0"/>
<path d="M407.944 129.709L399.498 126.459L399.271 126.849L407.733 130.099C407.814 129.969 407.879 129.839 407.944 129.709Z" fill="#6945E6"/>
<path d="M407.733 130.083L399.271 126.833V126.963C399.027 127.344 398.75 127.703 398.442 128.035L406.904 131.285C407.212 130.959 407.489 130.606 407.733 130.229V130.099" fill="#6C47EB"/>
<path d="M406.823 131.285L398.361 128.035L398.02 128.36L406.482 131.611L406.823 131.285Z" fill="#6945E6"/>
<path d="M406.482 131.61L398.02 128.36L397.792 128.539L406.238 131.789L406.482 131.61Z" fill="#6744E0"/>
<path d="M406.254 131.789L397.792 128.539L397.614 128.685L406.059 131.936C406.12 131.882 406.186 131.833 406.254 131.789Z" fill="#6542DB"/>
<path d="M406.043 131.919L397.581 128.669C397.538 128.716 397.481 128.75 397.419 128.767L405.881 132.017L406.043 131.919Z" fill="#6241D6"/>
<path d="M405.881 132.017L397.419 128.767H397.321L405.767 132.017H405.881Z" fill="#603FD1"/>
<path d="M405.686 132.082L397.224 128.832H397.078L405.54 132.082H405.686Z" fill="#5E3ECC"/>
<path d="M405.588 132.147L397.126 128.897H396.997L405.459 132.147H405.588Z" fill="#5B3CC7"/>
<path d="M405.459 132.163L397.013 128.913H396.883L405.329 132.163H405.459Z" fill="#593BC2"/>
<path d="M405.329 132.196L396.867 128.945H396.753L405.199 132.196H405.329Z" fill="#5739BD"/>
<path d="M405.199 132.228L396.753 128.978H396.623L405.085 132.228H405.199Z" fill="#5437B8"/>
<path d="M405.085 132.228L396.623 128.978H396.509L404.971 132.228H405.085Z" fill="#5236B3"/>
<path d="M404.972 132.212L396.51 128.962H396.412L404.858 132.212H404.972Z" fill="#5034AD"/>
<path d="M404.858 132.196L396.396 128.945H396.298L404.744 132.196H404.858Z" fill="#4D33A8"/>
<path d="M404.744 132.163L396.298 128.913L404.76 132.163H404.744Z" fill="#4B31A3"/>
<path d="M408.122 123.209L399.66 119.958C399.906 120.072 400.114 120.252 400.261 120.479C400.424 120.697 400.525 120.955 400.554 121.226C400.619 121.481 400.652 121.743 400.651 122.006L409.113 125.256C409.113 124.988 409.081 124.72 409.015 124.46C408.984 124.195 408.883 123.942 408.723 123.729C408.569 123.508 408.362 123.33 408.122 123.209Z" fill="#3D2885"/>
<path d="M398.328 147.358L389.883 144.108L398.345 147.358H398.328Z" fill="#4D33A8"/>
<path d="M398.312 147.423L389.867 144.173L398.329 147.423H398.312Z" fill="#5236B3"/>
<path d="M398.313 147.472L389.851 144.221L398.329 147.472H398.313Z" fill="#5437B8"/>
<path d="M398.313 147.504L389.851 144.254L398.296 147.504H398.313Z" fill="#5739BD"/>
<path d="M398.28 147.537L389.851 144.286L398.313 147.537H398.28Z" fill="#593BC2"/>
<path d="M398.199 147.732L389.753 144.481L398.215 147.732H398.199Z" fill="#6542DB"/>
<path d="M390.126 167.395L381.681 164.145C381.835 164.232 381.999 164.303 382.168 164.356L390.63 167.607L390.126 167.395Z" fill="#3D2885"/>
<path d="M387.528 171.848L379.066 168.598C379.116 168.696 379.195 168.775 379.293 168.825C379.623 169.031 379.971 169.205 380.333 169.345L388.795 172.596C388.436 172.448 388.088 172.275 387.755 172.076C387.657 172.026 387.578 171.946 387.528 171.848Z" fill="#858585"/>
<path d="M390.126 167.395L381.665 164.145L390.11 167.395" fill="#C2C2C2"/>
<path d="M390.061 167.412L381.616 164.161L390.078 167.412H390.061Z" fill="#E0E0E0"/>
<path d="M390.061 167.428L381.616 164.178L390.078 167.428H390.061Z" fill="#E6E6E6"/>
<path d="M390.045 167.428L381.616 164.178L390.078 167.428H390.045Z" fill="#EBEBEB"/>
<path d="M390.045 167.444L381.583 164.194L379.066 168.598L387.528 171.848L390.045 167.46V167.444Z" fill="#E6E6E6"/>
<path d="M409.065 126.378C409.178 125.754 409.178 125.116 409.065 124.493C409.046 124.192 408.938 123.904 408.756 123.664C408.564 123.431 408.311 123.257 408.025 123.16C407.699 123.135 407.371 123.185 407.067 123.306C406.761 123.439 406.489 123.639 406.271 123.891C405.572 124.593 405.02 125.427 404.647 126.345C404.258 127.179 403.995 128.066 403.867 128.978C403.859 129.119 403.859 129.26 403.867 129.4C403.754 130.177 403.897 130.97 404.273 131.659C404.354 131.791 404.459 131.907 404.582 132.001C404.712 132.083 404.854 132.144 405.004 132.179C405.338 132.228 405.679 132.171 405.979 132.017C406.725 131.573 407.345 130.947 407.781 130.197C408.35 129.282 408.772 128.284 409.032 127.239L409.065 126.378Z" fill="#A7A7A7"/>
<path d="M408.09 123.192L399.628 119.942H399.53L407.976 123.192H408.09Z" fill="#A8A8A8"/>
<path d="M407.976 123.176L399.531 119.926H399.433L407.879 123.176H407.976Z" fill="#ADADAD"/>
<path d="M407.862 123.16L399.4 119.91H399.287L407.749 123.16H407.862Z" fill="#B3B3B3"/>
<path d="M407.749 123.144L399.287 119.893H399.189L407.651 123.144H407.749Z" fill="#B8B8B8"/>
<path d="M407.635 123.16L399.19 119.91H399.06L407.522 123.16H407.635Z" fill="#BDBDBD"/>
<path d="M407.505 123.176L399.043 119.926H398.913L407.375 123.176H407.505Z" fill="#C2C2C2"/>
<path d="M407.392 123.192L398.93 119.942H398.8L407.246 123.192H407.392Z" fill="#C7C7C7"/>
<path d="M407.31 123.225L398.864 119.975H398.718L407.18 123.225H407.31Z" fill="#CCCCCC"/>
<path d="M407.099 123.29L398.637 120.04H398.491L406.953 123.29H407.099Z" fill="#D1D1D1"/>
<path d="M406.953 123.355L398.491 120.105C398.443 120.147 398.388 120.18 398.329 120.202L406.791 123.453L406.953 123.355Z" fill="#D6D6D6"/>
<path d="M406.774 123.452L398.329 120.202L398.15 120.332L406.596 123.582L406.774 123.452Z" fill="#DBDBDB"/>
<path d="M406.596 123.599L398.134 120.349L397.906 120.527L406.352 123.777L406.596 123.599Z" fill="#E0E0E0"/>
<path d="M406.352 123.777L397.89 120.527L397.728 120.641C397.655 120.698 397.589 120.763 397.533 120.836L405.995 124.086L406.19 123.891L406.352 123.777Z" fill="#E6E6E6"/>
<path d="M406.011 124.103L397.549 120.852C397.21 121.227 396.911 121.635 396.656 122.071L405.118 125.321C405.362 124.879 405.663 124.469 406.011 124.103Z" fill="#EBEBEB"/>
<path d="M405.101 125.305L396.639 122.055L396.428 122.429L404.874 125.679L405.101 125.305Z" fill="#E6E6E6"/>
<path d="M404.874 125.679L396.428 122.429L396.282 122.705L404.728 125.955L404.874 125.679Z" fill="#E0E0E0"/>
<path d="M404.728 125.955L396.282 122.705L396.152 122.949L404.614 126.199C404.659 126.121 404.697 126.039 404.728 125.955Z" fill="#DBDBDB"/>
<path d="M404.614 126.118L396.152 122.867V123.03L404.614 126.28V126.118Z" fill="#D6D6D6"/>
<path d="M404.517 126.41L396.054 123.16L395.957 123.387L404.419 126.638L404.517 126.41Z" fill="#D1D1D1"/>
<path d="M404.436 126.621L395.974 123.371C395.97 123.442 395.97 123.512 395.974 123.582L404.419 126.833L404.436 126.621Z" fill="#CCCCCC"/>
<path d="M404.322 126.849L395.86 123.599L395.779 123.826L404.241 127.076C404.273 127.003 404.3 126.927 404.322 126.849Z" fill="#C7C7C7"/>
<path d="M404.257 127.06L395.811 123.81V124.021L404.273 127.271L404.257 127.06Z" fill="#C2C2C2"/>
<path d="M404.176 127.272L395.714 124.021V124.233L404.176 127.483C404.176 127.483 404.16 127.353 404.176 127.272Z" fill="#BDBDBD"/>
<path d="M404.062 127.515L395.616 124.265V124.476L404.062 127.726V127.515Z" fill="#B8B8B8"/>
<path d="M404.062 127.743L395.616 124.493C395.616 124.493 395.616 124.639 395.616 124.72L404.078 127.97V127.743" fill="#B3B3B3"/>
<path d="M404.062 127.954L395.6 124.704V124.931L404.062 128.182V127.954Z" fill="#ADADAD"/>
<path d="M403.916 128.165L395.454 124.915V125.159L403.916 128.409V128.165Z" fill="#A8A8A8"/>
<path d="M403.867 128.409L395.421 125.159V125.386L403.867 128.637V128.409Z" fill="#A3A3A3"/>
<path d="M403.834 128.637L395.373 125.386V125.63L403.818 128.88V128.637" fill="#9E9E9E"/>
<path d="M403.786 128.88L395.34 125.63V125.89L403.786 129.14V128.978V128.88Z" fill="#999999"/>
<path d="M403.753 129.14L395.308 125.89V126.166L403.77 129.417L403.753 129.14Z" fill="#949494"/>
<path d="M403.721 129.368L395.259 126.118V126.426L403.721 129.677V129.368Z" fill="#8F8F8F"/>
<path d="M403.705 129.725L395.243 126.475V126.849L403.705 130.099V129.725Z" fill="#8A8A8A"/>
<path d="M403.705 130.099L395.259 126.849C395.233 127.421 395.38 127.987 395.681 128.474C395.809 128.697 396.01 128.869 396.25 128.962L404.712 132.212C404.478 132.116 404.28 131.952 404.143 131.741C403.846 131.245 403.694 130.677 403.705 130.099Z" fill="#858585"/>
<path d="M398.166 147.813L389.721 144.563L377.214 166.469L385.676 169.719C389.856 162.428 394.019 155.126 398.166 147.813Z" fill="#6945E6"/>
<path d="M398.166 147.813L389.721 144.563L377.214 166.469L385.676 169.719C389.856 162.428 394.019 155.126 398.166 147.813Z" fill="#6945E6"/>
<path d="M385.676 169.719L377.214 166.469L385.66 169.719H385.676Z" fill="#6C47EB"/>
<path d="M401.528 123.566L393.066 120.316L392.221 126.67L389.899 143.994L398.361 147.244L400.667 129.904L401.528 123.55" fill="#462E99"/>
<path d="M401.528 123.566L393.066 120.316L392.693 120.495L401.155 123.745L401.528 123.566Z" fill="#E2E2E2"/>
<path d="M401.154 123.745L392.709 120.495L391.767 121.047L400.229 124.298C400.537 124.103 400.813 123.94 401.154 123.745Z" fill="#D6D6D6"/>
<path d="M400.229 124.298L391.767 121.047L391.442 121.242C391.27 121.376 391.091 121.501 390.906 121.616L399.368 124.866L399.904 124.493L400.229 124.298Z" fill="#DBDBDB"/>
<path d="M399.368 124.899L390.906 121.649C390.402 122.006 389.915 122.396 389.412 122.819L397.874 126.069C398.361 125.646 398.864 125.256 399.368 124.899Z" fill="#E0E0E0"/>
<path d="M397.874 126.118L389.444 122.867C388.794 123.436 388.145 124.054 387.495 124.704L395.957 127.954C396.574 127.239 397.224 126.638 397.874 126.118Z" fill="#E6E6E6"/>
<path d="M395.941 127.889L387.479 124.639C385.629 126.573 383.995 128.704 382.606 130.993L391.068 134.243C392.457 131.954 394.091 129.823 395.941 127.889Z" fill="#EBEBEB"/>
<path d="M391.068 134.243L382.606 130.993C382.184 131.659 381.778 132.374 381.372 133.106L389.834 136.356C390.273 135.625 390.679 134.909 391.068 134.243Z" fill="#E6E6E6"/>
<path d="M389.867 136.356L381.405 133.106C381.112 133.642 380.82 134.194 380.544 134.731L388.99 137.981C389.293 137.439 389.585 136.897 389.867 136.356Z" fill="#E0E0E0"/>
<path d="M388.99 138.013L380.544 134.763C380.284 135.267 380.041 135.771 379.797 136.291L388.259 139.541L388.99 138.013Z" fill="#DBDBDB"/>
<path d="M388.259 139.525L379.797 136.275V136.453L379.261 137.607L387.723 140.857C387.885 140.484 388.064 140.094 388.243 139.72L388.259 139.525Z" fill="#D6D6D6"/>
<path d="M387.641 140.874L379.179 137.623C379.001 138.046 378.822 138.436 378.66 138.858L387.122 142.109C387.268 141.67 387.479 141.264 387.641 140.874Z" fill="#D1D1D1"/>
<path d="M387.105 142.109L378.643 138.858C378.481 139.248 378.302 139.639 378.172 140.045L386.618 143.295L387.105 142.109Z" fill="#CCCCCC"/>
<path d="M386.618 143.295L378.172 140.045L377.734 141.215L386.196 144.465L386.618 143.295Z" fill="#C7C7C7"/>
<path d="M386.196 144.449L377.75 141.199C377.604 141.589 377.474 141.979 377.344 142.352L385.79 145.603C385.92 145.229 386.066 144.839 386.196 144.449Z" fill="#C2C2C2"/>
<path d="M385.79 145.619L377.344 142.369C377.214 142.759 377.084 143.133 376.971 143.523L385.433 146.773C385.546 146.366 385.66 145.993 385.79 145.619Z" fill="#BDBDBD"/>
<path d="M385.416 146.74L376.954 143.49L376.613 144.644L385.075 147.894L385.416 146.74Z" fill="#B8B8B8"/>
<path d="M385.075 147.91L376.63 144.66C376.516 145.05 376.402 145.44 376.305 145.83L384.767 149.08C384.864 148.69 384.962 148.3 385.075 147.91Z" fill="#B3B3B3"/>
<path d="M384.767 149.08L376.305 145.83L376.012 147.033L384.474 150.283C384.572 149.877 384.653 149.47 384.767 149.08Z" fill="#ADADAD"/>
<path d="M384.474 150.267L376.012 147.016C375.915 147.423 375.818 147.829 375.736 148.252L384.198 151.502C384.28 151.095 384.377 150.689 384.474 150.267Z" fill="#A8A8A8"/>
<path d="M384.182 151.518L375.736 148.268C375.639 148.69 375.558 149.129 375.477 149.568L383.938 152.818L384.182 151.518Z" fill="#A3A3A3"/>
<path d="M383.954 152.818L375.492 149.568C375.492 150.039 375.33 150.494 375.265 150.965L383.711 154.216C383.792 153.744 383.857 153.289 383.954 152.818Z" fill="#9E9E9E"/>
<path d="M383.711 154.216L375.249 150.965V151.616C375.194 151.911 375.156 152.209 375.135 152.509L383.597 155.76C383.597 155.451 383.597 155.191 383.695 154.866L383.711 154.216Z" fill="#999999"/>
<path d="M383.516 155.76L375.054 152.509C375.054 153.078 374.94 153.631 374.892 154.134L383.354 157.385C383.386 156.881 383.451 156.328 383.516 155.76Z" fill="#949494"/>
<path d="M383.353 157.433L374.891 154.183C374.891 154.785 374.891 155.402 374.794 155.971L383.256 159.221C383.257 158.624 383.29 158.027 383.353 157.433Z" fill="#8F8F8F"/>
<path d="M383.256 159.221L374.811 155.971C374.811 156.686 374.811 157.385 374.811 158.035L383.256 161.285C383.24 160.635 383.24 159.936 383.256 159.221Z" fill="#8A8A8A"/>
<path d="M383.273 161.301L374.811 158.051C374.809 161.033 375.588 163.963 377.068 166.55L385.53 169.8C384.054 167.211 383.276 164.282 383.273 161.301Z" fill="#858585"/>
<path d="M413.71 107.884L405.248 104.634L404.874 104.488L413.32 107.738L413.71 107.884Z" fill="#4B31A3"/>
<path d="M413.32 107.754L404.874 104.504L403.883 104.244L412.345 107.494C412.67 107.559 412.995 107.656 413.32 107.754Z" fill="#4D33A8"/>
<path d="M412.329 107.478L403.867 104.228L402.876 104.065L411.322 107.315C411.663 107.348 411.988 107.413 412.329 107.478Z" fill="#5034AD"/>
<path d="M411.338 107.315L402.876 104.065C402.53 104.065 402.189 104.065 401.853 104.065L410.315 107.315H411.338Z" fill="#5236B3"/>
<path d="M410.299 107.25L401.837 104H400.797L409.259 107.25C409.6 107.266 409.958 107.25 410.299 107.25Z" fill="#5437B8"/>
<path d="M409.276 107.299L400.814 104.049C400.448 104.06 400.084 104.103 399.726 104.179L408.188 107.429C408.547 107.362 408.911 107.318 409.276 107.299Z" fill="#5739BD"/>
<path d="M408.171 107.429L399.709 104.179L398.572 104.423L407.034 107.673L408.171 107.429Z" fill="#593BC2"/>
<path d="M407.034 107.673L398.589 104.423C398.199 104.52 397.793 104.65 397.387 104.78L405.849 108.03C406.238 107.9 406.645 107.77 407.034 107.673Z" fill="#5B3CC7"/>
<path d="M405.849 108.03L397.387 104.78C396.981 104.926 396.526 105.089 396.087 105.284L404.549 108.534L405.849 108.03Z" fill="#5E3ECC"/>
<path d="M404.549 108.534L396.087 105.284L395.113 105.723L394.69 105.95L403.152 109.2L403.575 108.973C403.9 108.81 404.224 108.664 404.549 108.534Z" fill="#603FD1"/>
<path d="M403.152 109.2L394.69 105.95C394.187 106.21 393.683 106.503 393.18 106.811L401.642 110.062C402.145 109.737 402.649 109.46 403.152 109.2Z" fill="#6241D6"/>
<path d="M401.642 110.062L393.18 106.811C392.595 107.169 392.01 107.559 391.426 107.982L399.888 111.232C400.473 110.809 401.073 110.403 401.642 110.062Z" fill="#6542DB"/>
<path d="M399.888 111.215L391.426 107.965C390.727 108.469 390.029 109.022 389.331 109.59L397.793 112.841C398.496 112.277 399.195 111.736 399.888 111.215Z" fill="#6744E0"/>
<path d="M397.793 112.873L389.331 109.623C388.259 110.549 387.219 111.524 386.245 112.548L394.707 115.798C395.681 114.742 396.721 113.799 397.793 112.873Z" fill="#6945E6"/>
<path d="M394.69 115.798L386.245 112.548C383.199 115.78 380.504 119.327 378.205 123.127L386.667 126.378C388.96 122.577 391.65 119.031 394.69 115.798Z" fill="#6C47EB"/>
<path d="M386.667 126.361L378.221 123.111C377.539 124.216 376.889 125.321 376.256 126.491L384.718 129.742C385.335 128.593 385.985 127.466 386.667 126.361Z" fill="#6945E6"/>
<path d="M384.702 129.742L376.24 126.491C375.785 127.32 375.346 128.117 374.908 129.027L383.37 132.277C383.792 131.416 384.247 130.57 384.702 129.742Z" fill="#6744E0"/>
<path d="M383.37 132.261L374.908 129.01C374.534 129.742 374.177 130.473 373.82 131.22L382.282 134.471C382.639 133.739 382.948 133.008 383.37 132.261Z" fill="#6542DB"/>
<path d="M382.282 134.487L373.836 131.237C373.511 131.903 373.219 132.569 372.91 133.236L381.372 136.486C381.665 135.868 381.973 135.153 382.282 134.487Z" fill="#6241D6"/>
<path d="M381.323 136.47L372.861 133.219C372.569 133.869 372.293 134.519 372.017 135.186L380.479 138.436L381.323 136.47Z" fill="#603FD1"/>
<path d="M380.528 138.452L372.066 135.202L371.286 137.152L379.748 140.402C380.008 139.752 380.252 139.118 380.528 138.452Z" fill="#5E3ECC"/>
<path d="M379.699 140.402L371.253 137.152L370.522 139.07L378.984 142.32C379.261 141.686 379.504 141.036 379.699 140.402Z" fill="#5B3CC7"/>
<path d="M379.017 142.369L370.555 139.118L369.873 141.052L378.335 144.303L379.017 142.369Z" fill="#593BC2"/>
<path d="M378.351 144.27L369.889 141.02C369.662 141.67 369.467 142.32 369.256 142.97L377.718 146.22C377.913 145.619 378.075 144.904 378.351 144.27Z" fill="#5739BD"/>
<path d="M377.718 146.204L369.272 142.954C369.061 143.62 368.866 144.27 368.687 144.92L377.133 148.17L377.718 146.204Z" fill="#5437B8"/>
<path d="M377.133 148.17L368.671 144.92C368.492 145.57 368.297 146.236 368.135 146.87L376.597 150.12C376.759 149.487 376.938 148.869 377.133 148.17Z" fill="#5236B3"/>
<path d="M376.597 150.153L368.135 146.903C367.957 147.553 367.794 148.235 367.648 148.918L376.094 152.168C376.256 151.485 376.451 150.819 376.597 150.153Z" fill="#5034AD"/>
<path d="M376.11 152.119L367.648 148.869C367.485 149.552 367.339 150.234 367.193 150.933L375.639 154.183C375.785 153.533 375.947 152.851 376.11 152.119Z" fill="#4D33A8"/>
<path d="M375.639 154.232L367.177 150.982C367.047 151.681 366.9 152.379 366.771 153.078L375.216 156.328C375.362 155.63 375.492 154.931 375.639 154.232Z" fill="#4B31A3"/>
<path d="M375.233 156.312L366.787 153.062C366.641 153.809 366.527 154.573 366.414 155.321L374.876 158.571C374.989 157.823 375.103 156.995 375.233 156.312Z" fill="#49309E"/>
<path d="M374.827 158.62L366.365 155.37L366.219 156.345C366.219 156.816 366.105 157.271 366.056 157.742L374.518 160.992C374.518 160.521 374.616 160.066 374.681 159.595L374.827 158.62Z" fill="#462E99"/>
<path d="M374.567 160.944L366.105 157.693C366.007 158.538 365.926 159.319 365.877 160.196L374.323 163.446C374.372 162.601 374.469 161.87 374.567 160.944Z" fill="#442D94"/>
<path d="M374.34 163.495L365.878 160.245C365.878 161.187 365.764 162.13 365.731 163.024L374.193 166.274C374.215 165.331 374.264 164.405 374.34 163.495Z" fill="#422B8F"/>
<path d="M374.177 166.225L365.731 162.975C365.731 164.161 365.731 165.299 365.731 166.404L374.193 169.654C374.193 168.549 374.193 167.412 374.193 166.225" fill="#3F2A8A"/>
<path d="M374.21 169.638L365.748 166.388C366.137 176.138 369.434 182.639 374.616 184.605L383.078 187.855C377.88 185.873 374.599 179.324 374.21 169.638Z" fill="#3D2885"/>
<path d="M422.042 136.226C424.916 114.726 416.649 102.537 403.591 108.973C390.532 115.408 377.604 138.062 374.729 159.53C371.854 180.997 380.138 193.218 393.196 186.783C406.255 180.347 419.183 157.71 422.042 136.226ZM387.495 171.897C388.356 170.369 389.201 168.907 390.045 167.444C392.481 168.663 395.324 167.915 398.588 165.136C404.642 159.128 408.595 151.325 409.86 142.889C409.86 142.612 409.86 142.32 409.974 142.044C410.449 139.061 410.344 136.016 409.665 133.073C410.039 132.277 410.364 131.708 410.705 131.123L412.232 128.442C413.153 131.554 413.468 134.815 413.157 138.046C413.157 138.68 413.044 139.346 412.979 139.996L412.816 141.182V141.41C412.605 142.564 412.426 143.701 412.167 144.871C409.535 156.345 402.974 167.249 396.152 171.377C394.967 172.31 393.538 172.88 392.036 173.019C390.535 173.157 389.025 172.858 387.69 172.157L387.447 171.978L387.495 171.897ZM401.171 123.745L401.528 123.566L400.684 129.904L398.361 147.244C398.328 147.431 398.268 147.611 398.182 147.78L385.676 169.687C385.676 169.687 385.546 169.8 385.53 169.768C383.319 165.441 382.61 160.501 383.516 155.727L383.63 154.833C384.357 149.58 385.891 144.471 388.177 139.687C390.66 133.656 394.715 128.403 399.92 124.476C400.343 124.184 400.765 123.972 401.171 123.729V123.745ZM408.934 127.255C408.682 128.303 408.259 129.302 407.684 130.213C407.252 130.967 406.631 131.594 405.881 132.033C405.584 132.197 405.24 132.255 404.907 132.196C404.755 132.167 404.61 132.106 404.484 132.017C404.361 131.923 404.256 131.808 404.176 131.675C403.799 130.986 403.657 130.194 403.77 129.417V128.994C403.9 128.083 404.162 127.196 404.549 126.361C404.937 125.451 405.487 124.62 406.173 123.907C406.392 123.66 406.664 123.465 406.969 123.339C407.278 123.212 407.611 123.156 407.944 123.176C408.225 123.28 408.473 123.46 408.658 123.696C408.84 123.93 408.948 124.213 408.967 124.509C409.081 125.132 409.081 125.771 408.967 126.394C408.93 126.689 408.876 126.982 408.804 127.271" fill="#4D32A7"/>
<path d="M390.143 167.395C392.579 168.614 395.421 167.867 398.686 165.071C404.731 159.066 408.678 151.269 409.941 142.84C409.941 142.564 409.941 142.271 410.055 141.995C410.535 138.945 410.452 135.833 409.812 132.813L410.802 131.058L412.427 128.425C413.336 131.523 413.645 134.767 413.336 137.981C413.336 138.598 413.222 139.281 413.157 139.931L412.995 141.117V141.345C412.784 142.499 412.605 143.636 412.345 144.79C409.714 156.28 403.152 167.168 396.347 171.296C395.157 172.224 393.725 172.788 392.222 172.921C390.718 173.052 389.209 172.754 387.869 172.059C387.778 171.999 387.705 171.915 387.658 171.816L390.159 167.428L390.143 167.395Z" fill="#A7A7A7"/>
<path d="M400.667 129.92L401.512 123.583L401.171 123.745C400.749 124.005 400.326 124.216 399.904 124.509C394.703 128.44 390.649 133.692 388.161 139.72C385.887 144.502 384.359 149.604 383.63 154.849L383.516 155.743C382.609 160.517 383.317 165.458 385.53 169.784C385.53 169.784 385.644 169.784 385.676 169.784C389.856 162.482 394.024 155.18 398.182 147.878C398.264 147.707 398.324 147.527 398.361 147.342L400.667 129.92Z" fill="#A7A7A7"/>
</svg>
