<svg width="32" height="32" viewBox="0 0 32 32" fill="none" xmlns="http://www.w3.org/2000/svg">
<path d="M27.4286 18.2857V23.365C27.4281 23.8104 27.3105 24.2478 27.0877 24.6334C26.8648 25.019 26.5444 25.3392 26.1587 25.5618L17.2698 30.6412C16.8837 30.8641 16.4458 30.9815 16 30.9815C15.5542 30.9815 15.1162 30.8641 14.7301 30.6412L5.84125 25.5618C5.45555 25.3392 5.1352 25.019 4.91231 24.6334C4.68943 24.2478 4.57187 23.8104 4.57141 23.365V18.5396M26.1587 11.0095L17.2698 5.9301C16.8837 5.70719 16.4458 5.58984 16 5.58984C15.5542 5.58984 15.1162 5.70719 14.7301 5.9301L5.33332 11.4286" stroke="#4F576A" stroke-width="2" stroke-linecap="round" stroke-linejoin="round"/>
<path d="M5.06659 12.038L15.9999 18.2984L27.0856 11.8857" stroke="#4F576A" stroke-width="2" stroke-linecap="round" stroke-linejoin="round"/>
<path d="M16 30.3237V18.2856" stroke="#4F576A" stroke-width="2" stroke-linecap="round" stroke-linejoin="round"/>
<path d="M4.93575 11.6962L2.86413 8.02263C2.4572 7.30104 2.71229 6.38618 3.43389 5.97926L11.8772 1.21784C12.5988 0.810914 13.5137 1.066 13.9206 1.7876L15.9922 5.46117" stroke="#4F576A" stroke-width="2"/>
<path d="M27.0566 11.8056L29.1264 15.4759C29.5333 16.1975 29.2782 17.1124 28.5566 17.5193L20.1132 22.2807C19.3916 22.6877 18.4768 22.4326 18.0698 21.711L16 18.0407" stroke="#4F576A" stroke-width="2"/>
<path d="M27.136 11.3114L29.2066 7.63982C29.6135 6.91822 29.3584 6.00337 28.6368 5.59644L20.8758 1.21984C20.1543 0.81291 19.2394 1.068 18.8325 1.7896L16.762 5.46119" stroke="#4F576A" stroke-width="2"/>
<path d="M5.13738 11.8745L3.06884 15.5426C2.66191 16.2642 2.917 17.179 3.6386 17.5859L12.0819 22.3473C12.8035 22.7543 13.7184 22.4992 14.1253 21.7776L16.1938 18.1095" stroke="#4F576A" stroke-width="2"/>
</svg>
