<svg width="124" height="125" viewBox="0 0 124 125" fill="none" xmlns="http://www.w3.org/2000/svg">
<path d="M84.1818 37.1422C79.8885 35.2721 75.2846 33.8943 70.4709 33.1052C70.3832 33.0899 70.2956 33.128 70.2505 33.2041C69.6584 34.2039 69.0025 35.5081 68.5432 36.5332C63.3658 35.7974 58.215 35.7974 53.1437 36.5332C52.6843 35.4853 52.0046 34.2039 51.4099 33.2041C51.3647 33.1305 51.2771 33.0925 51.1895 33.1052C46.3785 33.8918 41.7745 35.2696 37.4786 37.1422C37.4414 37.1574 37.4095 37.1828 37.3884 37.2158C28.6557 49.6009 26.2634 61.6816 27.437 73.6125C27.4423 73.6708 27.4768 73.7267 27.5246 73.7622C33.2862 77.7789 38.8672 80.2174 44.3447 81.8336C44.4323 81.859 44.5252 81.8286 44.581 81.7601C45.8767 80.0804 47.0317 78.3093 48.0219 76.4467C48.0804 76.3377 48.0246 76.2082 47.9052 76.1651C46.0732 75.5054 44.3287 74.701 42.6507 73.7876C42.518 73.714 42.5073 73.5338 42.6294 73.4475C42.9826 73.1963 43.3358 72.9349 43.673 72.671C43.734 72.6229 43.819 72.6127 43.8907 72.6431C54.9146 77.4211 66.8493 77.4211 77.7431 72.6431C77.8148 72.6102 77.8998 72.6203 77.9635 72.6685C78.3008 72.9324 78.6539 73.1963 79.0097 73.4475C79.1318 73.5338 79.1238 73.714 78.9911 73.7876C77.3131 74.7188 75.5686 75.5054 73.734 76.1626C73.6145 76.2057 73.5614 76.3377 73.6198 76.4467C74.6314 78.3066 75.7864 80.0778 77.0581 81.7575C77.1113 81.8286 77.2068 81.859 77.2945 81.8336C82.7984 80.2174 88.3795 77.7789 94.141 73.7622C94.1915 73.7267 94.2234 73.6734 94.2287 73.615C95.6332 59.8216 91.8762 47.84 84.2694 37.2183C84.2508 37.1828 84.219 37.1574 84.1818 37.1422ZM49.6682 66.3478C46.3492 66.3478 43.6145 63.4552 43.6145 59.9028C43.6145 56.3504 46.2962 53.4578 49.6682 53.4578C53.0666 53.4578 55.7749 56.3758 55.7218 59.9028C55.7218 63.4552 53.0401 66.3478 49.6682 66.3478ZM72.0506 66.3478C68.7318 66.3478 65.997 63.4552 65.997 59.9028C65.997 56.3504 68.6786 53.4578 72.0506 53.4578C75.4492 53.4578 78.1573 56.3758 78.1043 59.9028C78.1043 63.4552 75.4492 66.3478 72.0506 66.3478Z" fill="#5326EC"/>
<path d="M22.6622 10.6446H97.1105C103.389 10.6446 108.5 15.5401 108.5 21.6063V117.069L96.5549 106.959L89.8323 100.999L82.7209 94.6667L85.6655 104.511H22.6622C16.3841 104.511 11.2727 99.6154 11.2727 93.5492V21.6063C11.2727 15.5401 16.3841 10.6446 22.6622 10.6446Z" stroke="#5326EC" stroke-width="4"/>
</svg>
