<svg width="14" height="14" viewBox="0 0 14 14" fill="none" xmlns="http://www.w3.org/2000/svg">
<path d="M12.25 14H1.75C1.28603 13.9995 0.841222 13.8149 0.513148 13.4869C0.185074 13.1588 0.00052934 12.714 0 12.25L0 1.75C0.00052934 1.28603 0.185074 0.841222 0.513148 0.513148C0.841222 0.185074 1.28603 0.00052934 1.75 0L5.75 0C5.94891 0 6.13968 0.0790176 6.28033 0.21967C6.42098 0.360322 6.5 0.551088 6.5 0.75C6.5 0.948912 6.42098 1.13968 6.28033 1.28033C6.13968 1.42098 5.94891 1.5 5.75 1.5H1.75C1.6837 1.5 1.62011 1.52634 1.57322 1.57322C1.52634 1.62011 1.5 1.6837 1.5 1.75V12.25C1.5 12.3163 1.52634 12.3799 1.57322 12.4268C1.62011 12.4737 1.6837 12.5 1.75 12.5H12.25C12.3163 12.5 12.3799 12.4737 12.4268 12.4268C12.4737 12.3799 12.5 12.3163 12.5 12.25V8.25C12.5 8.05109 12.579 7.86032 12.7197 7.71967C12.8603 7.57902 13.0511 7.5 13.25 7.5C13.4489 7.5 13.6397 7.57902 13.7803 7.71967C13.921 7.86032 14 8.05109 14 8.25V12.25C13.9995 12.714 13.8149 13.1588 13.4869 13.4869C13.1588 13.8149 12.714 13.9995 12.25 14Z" fill="#E1458D"/>
<path d="M13.2498 0H9.74985C9.55093 0 9.36017 0.0790176 9.21952 0.21967C9.07887 0.360322 8.99985 0.551088 8.99985 0.75C8.99985 0.948913 9.07887 1.13968 9.21952 1.28033C9.36017 1.42098 9.55093 1.5 9.74985 1.5H11.4388L6.46985 6.47C6.33737 6.61218 6.26524 6.80022 6.26867 6.99452C6.2721 7.18882 6.35081 7.37421 6.48822 7.51162C6.62564 7.64904 6.81102 7.72775 7.00532 7.73118C7.19963 7.7346 7.38767 7.66248 7.52985 7.53L12.4998 2.561V4.25C12.4998 4.44891 12.5789 4.63968 12.7195 4.78033C12.8602 4.92098 13.0509 5 13.2498 5C13.4488 5 13.6395 4.92098 13.7802 4.78033C13.9208 4.63968 13.9998 4.44891 13.9998 4.25V0.75C13.9998 0.551088 13.9208 0.360322 13.7802 0.21967C13.6395 0.0790176 13.4488 0 13.2498 0V0Z" fill="#E1458D"/>
</svg>
