<svg width="88" height="88" viewBox="0 0 88 88" fill="none" xmlns="http://www.w3.org/2000/svg">
<g clip-path="url(#clip0_1088_48067)">
<path d="M34.4067 42.1836C33.8021 42.1836 33.2222 42.4225 32.7947 42.8479C32.3671 43.2732 32.127 43.85 32.127 44.4515V45.2771C32.127 45.5749 32.1859 45.8698 32.3005 46.145C32.4151 46.4201 32.583 46.6701 32.7947 46.8807C33.0064 47.0913 33.2577 47.2584 33.5343 47.3724C33.8109 47.4863 34.1074 47.545 34.4067 47.545C34.7061 47.545 35.0026 47.4863 35.2792 47.3724C35.5558 47.2584 35.8071 47.0913 36.0188 46.8807C36.2305 46.6701 36.3984 46.4201 36.513 46.145C36.6276 45.8698 36.6865 45.5749 36.6865 45.2771V44.4515C36.6865 43.85 36.4463 43.2732 36.0188 42.8479C35.5913 42.4225 35.0114 42.1836 34.4067 42.1836Z" fill="#5326EC"/>
<path d="M59.5324 2.45898H27.9286C13.4205 2.45898 1.68457 13.9437 1.68457 28.1414V45.052C1.68457 58.888 12.9584 70.1919 27.0045 70.7345L34.6745 83.3948C36.615 86.5599 39.9417 88.459 43.7305 88.459C47.4268 88.459 50.846 86.5599 52.6941 83.3948L60.3641 70.7345C74.4102 70.2823 85.684 58.9784 85.684 45.052V28.1414C85.7764 13.9437 74.0405 2.45898 59.5324 2.45898ZM80.4167 45.052C80.4167 56.2655 71.0835 65.399 59.6248 65.399H58.9779C58.0538 65.399 57.1298 65.8512 56.6677 66.6651L48.0737 80.6819C47.1496 82.2192 45.4863 83.1235 43.7305 83.1235C41.8823 83.1235 40.3114 82.2192 39.3873 80.6819L30.8857 66.7555C30.4237 65.9416 29.4996 65.4895 28.5755 65.4895H27.9286C16.47 65.4895 7.13668 56.3559 7.13668 45.1425V28.1414C7.13668 16.928 16.47 7.79442 27.9286 7.79442H59.5324C70.9911 7.79442 80.3243 16.928 80.3243 28.1414V45.052H80.4167Z" fill="#5326EC"/>
<path d="M61.0102 27.8695L52.139 26.6035L48.073 18.5551C47.2413 16.9274 45.6704 15.9326 43.8222 15.9326C41.9741 15.9326 40.4031 16.9274 39.5714 18.5551L35.5055 26.4226L26.357 27.6887C24.5088 27.96 23.1227 29.1356 22.4758 30.8538C21.9214 32.5719 22.3834 34.3806 23.6771 35.6466L30.1458 41.7959L28.5748 50.6582C28.2976 52.3764 29.0368 54.185 30.423 55.1797C31.9015 56.2649 33.8421 56.3553 35.413 55.5415L43.3602 51.4721L51.4921 55.6319C52.2314 55.9936 52.9707 56.1745 53.71 56.1745C54.7264 56.1745 55.6505 55.9032 56.4822 55.2702C57.9608 54.185 58.7 52.4668 58.4228 50.7486L56.9443 42.0672L63.5053 35.737C64.799 34.471 65.261 32.6624 64.7066 30.9442C64.1521 29.226 62.8584 28.1408 61.0102 27.8695ZM52.8783 38.7213C51.8618 39.6256 51.4921 40.982 51.677 42.3385L53.0631 50.3869L45.4856 46.4983C44.8387 46.2271 44.1919 46.0462 43.545 46.0462C42.8981 46.0462 42.2513 46.2271 41.6044 46.4983L34.2117 50.2964L35.6903 42.0672C35.9675 40.7107 35.5055 39.3543 34.489 38.45L28.4824 32.7528L36.984 31.5772C38.3701 31.3963 39.479 30.5825 40.1259 29.3164L43.8222 21.9915L47.611 29.4973C48.2578 30.6729 49.3667 31.5772 50.7529 31.7581L59.0697 32.9337L52.8783 38.7213Z" fill="#5326EC"/>
</g>
<defs>
<clipPath id="clip0_1088_48067">
<rect width="88" height="88" fill="white"/>
</clipPath>
</defs>
</svg>
