<svg width="178" height="178" viewBox="0 0 178 178" fill="none" xmlns="http://www.w3.org/2000/svg">
<path d="M93.5424 94.0594C92.2039 94.8287 90.6402 95.1105 89.1173 94.8566C87.5945 94.6028 86.2067 93.8291 85.1901 92.6672C84.1736 91.5053 83.5911 90.027 83.5418 88.4839C83.4925 86.9409 83.9794 85.4284 84.9198 84.204C85.8601 82.9796 87.1957 82.1189 88.6992 81.7684C90.2028 81.4178 91.7813 81.5992 93.1661 82.2816C94.551 82.9639 95.6566 84.1051 96.2947 85.5109C96.9329 86.9167 97.0642 88.5001 96.6662 89.9918C96.4386 90.8419 96.0455 91.6388 95.5094 92.3367C94.9734 93.0347 94.3049 93.6201 93.5424 94.0594Z" fill="#FED670" stroke="#FED670" stroke-width="7.17101"/>
<path d="M92.8355 29.9138C93.3943 30.2906 93.9721 30.6433 94.509 31.0483C100.211 35.3479 103.477 41.0504 104.177 48.1551C104.701 53.4628 103.511 58.4248 100.687 62.9473C97.422 68.1778 92.7794 71.6317 86.8589 73.3572C86.8043 73.373 86.6688 73.2937 86.6525 73.238C84.6108 65.6437 82.5766 58.0476 80.5498 50.4499C80.5113 50.2757 80.5361 50.0934 80.6199 49.9358C84.5198 43.1617 88.4255 36.3912 92.3373 29.6242L92.8355 29.9138Z" fill="#2FC8E0"/>
<path d="M55.7338 39.8541C55.4383 40.4599 55.1142 41.0542 54.8518 41.6734C52.0637 48.2479 52.0867 54.8193 55.0325 61.3222C57.2327 66.1807 60.7444 69.8829 65.4514 72.3874C70.8938 75.2849 76.6413 75.9548 82.6314 74.4889C82.6866 74.4753 82.7643 74.3389 82.7506 74.2825C80.7216 66.6848 78.6852 59.0893 76.6416 51.4961C76.5879 51.3259 76.4752 51.1805 76.3238 51.0859C69.5594 47.1693 62.7917 43.2587 56.0205 39.3542L55.7338 39.8541Z" fill="#2FC8E0"/>
<path d="M84.4875 147.447C83.9287 147.07 83.3509 146.717 82.814 146.312C77.1121 142.012 73.8464 136.31 73.1461 129.205C72.6222 123.898 73.8124 118.936 76.6365 114.413C79.901 109.183 84.5436 105.729 90.4641 104.003C90.5187 103.987 90.6542 104.067 90.6705 104.122C92.7122 111.717 94.7464 119.313 96.7732 126.91C96.8117 127.085 96.7869 127.267 96.7031 127.425C92.8032 134.199 88.8975 140.969 84.9857 147.736L84.4875 147.447Z" fill="#2FC8E0"/>
<path d="M121.589 137.506C121.885 136.9 122.209 136.306 122.471 135.687C125.259 129.112 125.236 122.541 122.29 116.038C120.09 111.18 116.579 107.477 111.872 104.973C106.429 102.075 100.682 101.406 94.6916 102.871C94.6364 102.885 94.5587 103.021 94.5724 103.078C96.6014 110.676 98.6378 118.271 100.681 125.864C100.735 126.034 100.848 126.18 100.999 126.274C107.764 130.191 114.531 134.102 121.302 138.006L121.589 137.506Z" fill="#2FC8E0"/>
<path d="M137.466 55.6813C136.861 55.3858 136.266 55.0617 135.647 54.7993C129.073 52.0112 122.501 52.0342 115.998 54.9801C111.14 57.1802 107.438 60.6919 104.933 65.3989C102.036 70.8413 101.366 76.5888 102.832 82.5789C102.845 82.6341 102.982 82.7118 103.038 82.6981C110.636 80.6691 118.231 78.6327 125.824 76.5891C125.995 76.5354 126.14 76.4227 126.235 76.2713C130.151 69.5069 134.062 62.7392 137.966 55.968L137.466 55.6813Z" fill="#2FC8E0"/>
<path d="M147.409 92.783C147.032 93.3418 146.679 93.9196 146.274 94.4565C141.975 100.158 136.272 103.424 129.167 104.124C123.86 104.648 118.898 103.458 114.375 100.634C109.145 97.3695 105.691 92.727 103.965 86.8064C103.949 86.7518 104.029 86.6163 104.084 86.6C111.679 84.5583 119.275 82.5241 126.873 80.4973C127.047 80.4588 127.229 80.4836 127.387 80.5674C134.161 84.4673 140.931 88.3731 147.698 92.2848L147.409 92.783Z" fill="#2FC8E0"/>
<path d="M39.8565 121.677C40.4623 121.973 41.0566 122.297 41.6758 122.559C48.2503 125.347 54.8217 125.324 61.3247 122.378C66.1832 120.178 69.8853 116.666 72.3899 111.959C75.2874 106.517 75.9573 100.77 74.4914 94.7795C74.4778 94.7243 74.3413 94.6466 74.2849 94.6603C66.6872 96.6893 59.0917 98.7257 51.4986 100.769C51.3284 100.823 51.1829 100.936 51.0883 101.087C47.1717 107.851 43.2612 114.619 39.3567 121.39L39.8565 121.677Z" fill="#2FC8E0"/>
<path d="M29.9145 84.5754C30.2913 84.0166 30.644 83.4388 31.049 82.9019C35.3487 77.2 41.0512 73.9343 48.1558 73.234C53.4635 72.7101 58.4255 73.9003 62.948 76.7244C68.1785 79.9889 71.6324 84.6315 73.3579 90.552C73.3738 90.6066 73.2944 90.7421 73.2388 90.7584C65.6444 92.8001 58.0484 94.8343 50.4507 96.8611C50.2764 96.8996 50.0941 96.8748 49.9365 96.791C43.1624 92.8911 36.3919 88.9853 29.6249 85.0736L29.9145 84.5754Z" fill="#2FC8E0"/>
</svg>
