<svg width="178" height="281" viewBox="0 0 178 281" fill="none" xmlns="http://www.w3.org/2000/svg">
<g opacity="0.2">
<path d="M204.651 146.68C201.803 150.488 197.224 153.341 191.807 154.683C186.389 156.026 180.519 155.762 175.338 153.944C170.158 152.126 166.037 148.884 163.777 144.848C161.518 140.811 161.281 136.269 163.114 132.105C164.946 127.941 168.716 124.453 173.691 122.319C178.665 120.185 184.489 119.558 190.029 120.559C195.569 121.561 200.429 124.119 203.664 127.737C206.899 131.355 208.277 135.774 207.531 140.134C207.139 142.442 206.16 144.666 204.651 146.68Z" fill="#E1458D"/>
<path d="M92.881 0.756836C95.1807 0.879025 97.4923 0.924775 99.7762 1.14166C111.315 2.05319 122.462 4.8832 132.453 9.43778C142.445 13.9924 151.043 20.1635 157.66 27.5283C168.135 38.6803 173.407 52.2492 172.612 66.0175C172.097 81.8191 163.819 96.8767 149.461 108.131C149.336 108.182 149.196 108.21 149.054 108.21C148.912 108.21 148.772 108.182 148.647 108.131C129.614 93.4393 110.602 78.7369 91.6086 64.0233C91.1972 63.6745 90.959 63.2242 90.9367 62.7525C90.905 42.0862 90.896 21.4221 90.9092 0.759819L92.881 0.756836Z" fill="#FED670"/>
<path d="M0 72.5581C0.158056 74.336 0.217235 76.1234 0.497785 77.889C1.67739 86.8093 5.33812 95.4263 11.2296 103.15C17.121 110.874 25.1036 117.522 34.6298 122.638C49.0556 130.735 66.6077 134.81 84.4175 134.197C104.857 133.798 124.334 127.399 138.892 116.299C138.959 116.202 138.994 116.094 138.994 115.984C138.994 115.875 138.959 115.767 138.892 115.67C119.888 100.954 100.87 86.2555 81.8374 71.5744C81.3858 71.2569 80.8035 71.0732 80.1935 71.0554C53.4609 71.0309 26.7312 71.0236 0.0038588 71.0337L0 72.5581Z" fill="#FED670"/>
<path d="M92.882 280.876C95.1817 280.75 97.4933 280.708 99.7772 280.491C111.315 279.578 122.462 276.747 132.453 272.193C142.444 267.638 151.043 261.467 157.661 254.104C168.135 242.951 173.406 229.382 172.613 215.614C172.098 199.813 163.82 184.757 149.462 173.504C149.338 173.451 149.197 173.423 149.055 173.423C148.913 173.423 148.772 173.451 148.648 173.504C129.615 188.191 110.603 202.894 91.6095 217.612C91.1991 217.96 90.9609 218.409 90.9376 218.879C90.906 239.544 90.897 260.208 90.9101 280.873L92.882 280.876Z" fill="#FED670"/>
<path d="M0 209.075C0.158056 207.298 0.217235 205.508 0.497785 203.745C1.67688 194.825 5.3376 186.207 11.2291 178.483C17.1206 170.759 25.1033 164.111 34.6298 158.996C49.0551 150.898 66.6073 146.822 84.4175 147.434C104.857 147.835 124.333 154.234 138.892 165.332C138.959 165.429 138.994 165.536 138.994 165.646C138.994 165.756 138.959 165.864 138.892 165.961C119.888 180.677 100.87 195.375 81.8374 210.056C81.3877 210.376 80.8043 210.56 80.1935 210.575C53.4609 210.604 26.7312 210.612 0.0038588 210.6L0 209.075Z" fill="#FED670"/>
</g>
</svg>
