<svg width="336" height="342" fill="none" xmlns="http://www.w3.org/2000/svg"><path d="M119.758 250.429a24.902 24.902 0 0 1-12.804 10.826 24.902 24.902 0 0 1-29.889-10.185 24.9 24.9 0 0 1 19.518-37.976 24.896 24.896 0 0 1 25.68 18.374 24.966 24.966 0 0 1-2.505 18.961Z" fill="#FED670" stroke="#FED670" stroke-width="20"/><path d="M-2.127 44.59c2.508.175 5.031.237 7.52.544 26.432 3.254 47.611 15.581 63.12 37.22 11.588 16.165 16.997 34.409 16.309 54.28-.79 22.979-9.344 42.79-25.247 59.402-.147.153-.732.149-.889 0A45662.198 45662.198 0 0 1-3.512 133.82a2.797 2.797 0 0 1-.733-1.791c-.036-29.149-.046-58.297-.03-87.445l2.148.006ZM-103.413 145.871c.176 2.507.237 5.031.544 7.52 3.254 26.431 15.582 47.61 37.22 63.119 16.165 11.588 34.409 16.997 54.28 16.309 22.98-.79 42.79-9.344 59.402-25.247.153-.146.15-.732 0-.889a45851.24 45851.24 0 0 0-62.216-62.198 2.793 2.793 0 0 0-1.791-.732 48092.07 48092.07 0 0 0-87.445-.031l.006 2.149ZM190.055 439.719c-2.507-.175-5.031-.236-7.52-.543-26.431-3.255-47.611-15.582-63.119-37.221-11.589-16.164-16.997-34.408-16.309-54.28.79-22.979 9.343-42.789 25.246-59.401.147-.153.733-.15.889 0a45042.463 45042.463 0 0 1 62.199 62.216c.449.491.709 1.126.732 1.791.036 29.148.046 58.297.031 87.444l-2.149-.006ZM291.341 338.439c-.175-2.508-.237-5.031-.544-7.52-3.254-26.431-15.581-47.611-37.22-63.12-16.164-11.588-34.409-16.996-54.28-16.308-22.979.79-42.79 9.343-59.402 25.246-.152.147-.149.732 0 .889a45605.413 45605.413 0 0 0 62.216 62.199 2.798 2.798 0 0 0 1.792.732c29.148.036 58.296.046 87.444.031l-.006-2.149ZM190.055 44.59c-2.507.175-5.031.237-7.52.544-26.431 3.254-47.611 15.581-63.119 37.22-11.589 16.165-16.997 34.409-16.309 54.28.79 22.979 9.343 42.79 25.247 59.402.146.153.732.149.888 0a45605.413 45605.413 0 0 0 62.199-62.216 2.798 2.798 0 0 0 .732-1.791c.036-29.149.047-58.297.031-87.445l-2.149.006ZM291.341 145.871c-.175 2.507-.236 5.031-.543 7.52-3.255 26.431-15.582 47.61-37.221 63.119-16.164 11.588-34.408 16.997-54.28 16.309-22.978-.79-42.789-9.344-59.401-25.247-.153-.146-.149-.732 0-.889a45604.827 45604.827 0 0 1 62.216-62.198 2.793 2.793 0 0 1 1.791-.732c29.148-.037 58.297-.047 87.444-.031l-.006 2.149ZM-2.127 439.719c2.508-.175 5.031-.236 7.52-.543 26.432-3.255 47.611-15.582 63.12-37.221 11.588-16.164 16.997-34.408 16.309-54.279-.79-22.979-9.344-42.79-25.247-59.402-.147-.153-.732-.149-.889 0A45103.436 45103.436 0 0 0-3.512 350.49a2.797 2.797 0 0 0-.733 1.791c-.036 29.148-.046 58.297-.03 87.444l2.148-.006ZM-103.413 338.439c.176-2.508.237-5.031.544-7.52 3.254-26.431 15.582-47.611 37.22-63.12 16.165-11.588 34.409-16.996 54.28-16.308 22.98.79 42.79 9.343 59.402 25.246.153.147.15.732 0 .889a45282.82 45282.82 0 0 1-62.216 62.199 2.798 2.798 0 0 1-1.791.732c-29.149.036-58.297.046-87.445.031l.006-2.149Z" fill="#2FC8E0"/></svg>