<svg width="202" height="363" viewBox="0 0 202 363" fill="none" xmlns="http://www.w3.org/2000/svg">
<path d="M200.256 187.296C198.096 191.021 194.712 193.882 190.679 195.392C186.647 196.903 182.216 196.969 178.141 195.58C174.065 194.192 170.597 191.433 168.326 187.775C166.055 184.117 165.122 179.785 165.686 175.516C166.25 171.247 168.275 167.306 171.418 164.362C174.561 161.419 178.626 159.656 182.923 159.373C187.219 159.09 191.481 160.304 194.983 162.81C198.485 165.316 201.01 168.957 202.129 173.115C202.764 175.486 202.926 177.959 202.605 180.392C202.283 182.825 201.485 185.171 200.256 187.296Z" fill="#FED670" stroke="#FED670" stroke-width="20"/>
<path d="M109.098 33.3487C110.974 33.4796 112.861 33.5257 114.722 33.7552C134.49 36.1891 150.33 45.4085 161.929 61.5922C170.596 73.6816 174.641 87.3263 174.127 102.188C173.536 119.374 167.139 134.19 155.245 146.614C155.135 146.729 154.697 146.726 154.58 146.614C139.058 131.118 123.552 115.608 108.062 100.083C107.726 99.716 107.532 99.241 107.514 98.7436C107.487 76.9434 107.479 55.1436 107.491 33.3441L109.098 33.3487Z" fill="#2FC8E0"/>
<path d="M33.3467 109.096C33.4776 110.972 33.5237 112.859 33.7533 114.721C36.1872 134.489 45.4066 150.329 61.5903 161.928C73.6796 170.594 87.3243 174.639 102.186 174.125C119.372 173.534 134.188 167.137 146.612 155.243C146.727 155.133 146.724 154.695 146.612 154.578C131.116 139.057 115.606 123.55 100.081 108.06C99.714 107.724 99.2391 107.53 98.7416 107.512C76.9415 107.485 55.1416 107.478 33.3421 107.489L33.3467 109.096Z" fill="#2FC8E0"/>
<path d="M252.831 328.866C250.955 328.735 249.068 328.689 247.207 328.459C227.439 326.025 211.599 316.806 200 300.622C191.333 288.533 187.288 274.888 187.802 260.027C188.393 242.841 194.79 228.024 206.684 215.6C206.794 215.486 207.232 215.489 207.349 215.6C222.871 231.096 238.377 246.607 253.867 262.131C254.203 262.499 254.397 262.974 254.415 263.471C254.442 285.271 254.45 307.071 254.438 328.871L252.831 328.866Z" fill="#2FC8E0"/>
<path d="M252.831 33.3487C250.955 33.4796 249.068 33.5257 247.206 33.7552C227.438 36.1891 211.598 45.4085 199.999 61.5922C191.333 73.6816 187.288 87.3263 187.802 102.188C188.393 119.374 194.79 134.19 206.684 146.614C206.794 146.729 207.232 146.726 207.349 146.614C222.87 131.118 238.377 115.608 253.867 100.083C254.203 99.716 254.397 99.241 254.415 98.7436C254.442 76.9434 254.449 55.1436 254.438 33.3441L252.831 33.3487Z" fill="#2FC8E0"/>
<path d="M109.098 328.866C110.974 328.735 112.861 328.689 114.722 328.459C134.49 326.025 150.33 316.806 161.929 300.622C170.596 288.533 174.641 274.888 174.127 260.027C173.536 242.841 167.139 228.024 155.245 215.6C155.135 215.486 154.697 215.489 154.58 215.6C139.058 231.096 123.552 246.607 108.062 262.131C107.726 262.499 107.532 262.974 107.514 263.471C107.487 285.271 107.479 307.071 107.491 328.871L109.098 328.866Z" fill="#2FC8E0"/>
<path d="M33.347 253.118C33.4779 251.243 33.524 249.356 33.7535 247.494C36.1874 227.726 45.4068 211.886 61.5905 200.287C73.6799 191.62 87.3246 187.576 102.186 188.09C119.372 188.681 134.189 195.078 146.613 206.972C146.727 207.082 146.724 207.519 146.613 207.637C131.117 223.158 115.606 238.664 100.081 254.155C99.7143 254.491 99.2393 254.685 98.7419 254.702C76.9417 254.729 55.1419 254.737 33.3423 254.725L33.347 253.118Z" fill="#2FC8E0"/>
</svg>
