<svg width="72" height="72" viewBox="0 0 72 72" fill="none" xmlns="http://www.w3.org/2000/svg">
<path d="M38.9418 35.8598C38.7611 36.529 38.3542 37.1149 37.7901 37.5177C37.2261 37.9206 36.5399 38.1155 35.8483 38.0694C35.1567 38.0233 34.5025 37.7389 33.997 37.2647C33.4915 36.7904 33.1659 36.1557 33.0757 35.4685C32.9855 34.7812 33.1363 34.084 33.5023 33.4954C33.8684 32.9068 34.4271 32.4633 35.0833 32.2402C35.7396 32.0172 36.4529 32.0285 37.1018 32.2722C37.7506 32.5159 38.295 32.9769 38.6422 33.5768C38.8398 33.919 38.968 34.2967 39.0194 34.6885C39.0708 35.0802 39.0445 35.4783 38.9418 35.8598Z" fill="#FED670" stroke="#FED670" stroke-width="3.21952"/>
<path d="M18.3531 15.7202C18.6501 15.6625 18.9455 15.591 19.2445 15.5491C22.4197 15.104 25.2668 15.8776 27.7446 17.9107C29.5959 19.4294 30.7933 21.3825 31.3325 23.7148C31.9566 26.4117 31.5793 28.982 30.2475 31.4094C30.2352 31.4317 30.167 31.4495 30.1441 31.4371C27.085 29.6743 24.0278 27.9086 20.9723 26.14C20.9048 26.0969 20.8548 26.0312 20.8314 25.9545C19.9189 22.566 19.0094 19.1766 18.103 15.7865L18.3531 15.7202Z" fill="#2FC8E0"/>
<path d="M9.73131 30.6552C9.8298 30.9413 9.9156 31.2329 10.0288 31.5128C11.2309 34.4851 13.3244 36.564 16.3241 37.6932C18.5649 38.5371 20.8551 38.5976 23.1445 37.8984C25.7921 37.0905 27.8294 35.4785 29.2657 33.1115C29.2789 33.0897 29.2602 33.0217 29.238 33.0081C26.1818 31.2403 23.1241 29.4754 20.0647 27.7136C19.9936 27.6767 19.9117 27.6663 19.8336 27.6843C16.4428 28.5884 13.0528 29.4954 9.66363 30.4055L9.73131 30.6552Z" fill="#2FC8E0"/>
<path d="M53.0156 55.6826C52.7185 55.7404 52.4231 55.8118 52.1241 55.8537C48.949 56.2988 46.1019 55.5253 43.6241 53.4921C41.7728 51.9734 40.5754 50.0203 40.0362 47.688C39.412 44.9912 39.7894 42.4208 41.1212 39.9935C41.1335 39.9711 41.2017 39.9533 41.2245 39.9658C44.2836 41.7285 47.3409 43.4942 50.3963 45.2628C50.4639 45.3059 50.5139 45.3717 50.5373 45.4483C51.4498 48.8369 52.3592 52.2262 53.2657 55.6164L53.0156 55.6826Z" fill="#2FC8E0"/>
<path d="M61.6373 40.7477C61.5389 40.4615 61.4531 40.17 61.3398 39.8901C60.1378 36.9178 58.0443 34.8389 55.0446 33.7096C52.8037 32.8657 50.5136 32.8053 48.2242 33.5044C45.5765 34.3124 43.5392 35.9243 42.103 38.2913C42.0897 38.3132 42.1084 38.3812 42.1306 38.3947C45.1868 40.1626 48.2446 41.9274 51.3039 43.6892C51.375 43.7262 51.457 43.7366 51.535 43.7185C54.9259 42.8145 58.3159 41.9074 61.705 40.9973L61.6373 40.7477Z" fill="#2FC8E0"/>
<path d="M40.7025 9.73131C40.4163 9.8298 40.1248 9.9156 39.8449 10.0289C36.8726 11.2309 34.7937 13.3244 33.6645 16.3241C32.8205 18.5649 32.7601 20.8551 33.4593 23.1445C34.2672 25.7921 35.8792 27.8294 38.2462 29.2657C38.268 29.2789 38.336 29.2602 38.3495 29.238C40.1174 26.1818 41.8822 23.1241 43.644 20.0647C43.681 19.9936 43.6914 19.9117 43.6734 19.8336C42.7693 16.4428 41.8622 13.0528 40.9522 9.66363L40.7025 9.73131Z" fill="#2FC8E0"/>
<path d="M55.6379 18.3543C55.6957 18.6513 55.7672 18.9467 55.809 19.2457C56.2542 22.4209 55.4806 25.268 53.4474 27.7458C51.9287 29.5971 49.9756 30.7945 47.6434 31.3337C44.9465 31.9578 42.3761 31.5805 39.9488 30.2487C39.9264 30.2364 39.9086 30.1682 39.9211 30.1453C41.6839 27.0862 43.4496 24.029 45.2181 20.9735C45.2612 20.906 45.327 20.856 45.4036 20.8326C48.7922 19.9201 52.1816 19.0106 55.5717 18.1042L55.6379 18.3543Z" fill="#2FC8E0"/>
<path d="M30.6666 61.6713C30.9528 61.5728 31.2443 61.487 31.5242 61.3737C34.4965 60.1717 36.5754 58.0782 37.7047 55.0785C38.5486 52.8377 38.6091 50.5475 37.9099 48.2581C37.1019 45.6105 35.49 43.5732 33.123 42.1369C33.1011 42.1237 33.0332 42.1424 33.0196 42.1646C31.2517 45.2208 29.4869 48.2785 27.7251 51.3379C27.6881 51.409 27.6777 51.4909 27.6958 51.569C28.5998 54.9598 29.5069 58.3498 30.417 61.739L30.6666 61.6713Z" fill="#2FC8E0"/>
<path d="M15.7312 53.0483C15.6735 52.7512 15.602 52.4559 15.5601 52.1568C15.115 48.9817 15.8885 46.1346 17.9217 43.6568C19.4404 41.8055 21.3935 40.6081 23.7258 40.0689C26.4227 39.4448 28.993 39.8221 31.4204 41.1539C31.4427 41.1662 31.4605 41.2344 31.4481 41.2572C29.6853 44.3163 27.9196 47.3736 26.151 50.429C26.1079 50.4966 26.0422 50.5466 25.9655 50.57C22.5769 51.4825 19.1876 52.3919 15.7975 53.2984L15.7312 53.0483Z" fill="#2FC8E0"/>
</svg>
