<svg width="16" height="17" viewBox="0 0 16 17" fill="none" xmlns="http://www.w3.org/2000/svg">
<path d="M0.533203 15.2C0.257061 15.2 0.0332031 15.4238 0.0332031 15.7C0.0332031 15.9761 0.257061 16.2 0.533203 16.2V15.2ZM14.3999 16.2C14.676 16.2 14.8999 15.9761 14.8999 15.7C14.8999 15.4238 14.676 15.2 14.3999 15.2V16.2ZM10.3999 15.7V16.2H10.8999V15.7H10.3999ZM1.86654 15.7H1.36654V16.2H1.86654V15.7ZM9.0332 7.69999C9.0332 7.42385 8.80935 7.19999 8.5332 7.19999C8.25706 7.19999 8.0332 7.42385 8.0332 7.69999H9.0332ZM8.0332 9.29999C8.0332 9.57613 8.25706 9.79999 8.5332 9.79999C8.80935 9.79999 9.0332 9.57613 9.0332 9.29999H8.0332ZM15.4665 6.06666C15.7427 6.06666 15.9665 5.8428 15.9665 5.56666C15.9665 5.29052 15.7427 5.06666 15.4665 5.06666V6.06666ZM13.9858 6.39481L13.5386 6.1712L13.5386 6.1712L13.9858 6.39481ZM14.2525 5.86148L13.8052 5.63787L13.8052 5.63787L14.2525 5.86148ZM14.2827 6.44371L13.9001 6.7656V6.7656L14.2827 6.44371ZM13.9813 7.01474L14.3348 6.66119L13.9813 7.01474ZM13.8465 6.74153L13.3517 6.66942L13.8465 6.74153ZM0.533203 16.2H14.3999V15.2H0.533203V16.2ZM2.9332 1.53333H9.3332V0.533325H2.9332V1.53333ZM9.89987 2.09999V15.7H10.8999V2.09999H9.89987ZM10.3999 15.2H1.86654V16.2H10.3999V15.2ZM2.36654 15.7V2.09999H1.36654V15.7H2.36654ZM9.3332 1.53333C9.64616 1.53333 9.89987 1.78703 9.89987 2.09999H10.8999C10.8999 1.23475 10.1984 0.533325 9.3332 0.533325V1.53333ZM2.9332 0.533325C2.06796 0.533325 1.36654 1.23475 1.36654 2.09999H2.36654C2.36654 1.78703 2.62024 1.53333 2.9332 1.53333V0.533325ZM4.3 2.90012H7.92V1.90012H4.3V2.90012ZM8.5 3.50012V5.29999H9.5V3.50012H8.5ZM7.92 5.86666H4.3V6.86666H7.92V5.86666ZM3.69 5.29999V3.50012H2.69V5.29999H3.69ZM4.3 5.86666C3.96096 5.86666 3.69 5.58758 3.69 5.29999H2.69C2.69 6.19061 3.46083 6.86666 4.3 6.86666V5.86666ZM8.5 5.29999C8.5 5.60492 8.24107 5.86666 7.92 5.86666V6.86666C8.77714 6.86666 9.5 6.17327 9.5 5.29999H8.5ZM7.92 2.90012C8.22118 2.90012 8.5 3.17523 8.5 3.50012H9.5C9.5 2.6468 8.79702 1.90012 7.92 1.90012V2.90012ZM4.3 1.90012C3.44059 1.90012 2.69 2.62908 2.69 3.50012H3.69C3.69 3.19296 3.9812 2.90012 4.3 2.90012V1.90012ZM8.0332 7.69999V9.29999H9.0332V7.69999H8.0332ZM10.4332 4.23333V5.29999H11.4332V4.23333H10.4332ZM10.4332 5.29999C10.4332 5.3184 10.4183 5.33332 10.3999 5.33332V6.33332C10.9706 6.33332 11.4332 5.87069 11.4332 5.29999H10.4332ZM10.3999 4.19999C10.4183 4.19999 10.4332 4.21492 10.4332 4.23333H11.4332C11.4332 3.66263 10.9706 3.19999 10.3999 3.19999V4.19999ZM10.9332 5.26666H11.1999V4.26666H10.9332V5.26666ZM11.7665 5.83332V11.8333H12.7665V5.83332H11.7665ZM14.6332 11.8333V7.16666H13.6332V11.8333H14.6332ZM14.4868 6.8131L14.3348 6.66119L13.6277 7.36829L13.7796 7.52021L14.4868 6.8131ZM14.7295 6.06666H15.4665V5.06666H14.7295V6.06666ZM14.433 6.61842L14.5283 6.42776L13.6339 5.98055L13.5386 6.1712L14.433 6.61842ZM14.5283 6.42776L14.6997 6.08508L13.8052 5.63787L13.6339 5.98055L14.5283 6.42776ZM14.6653 6.12182L14.4637 5.88227L13.6985 6.52604L13.9001 6.7656L14.6653 6.12182ZM14.3568 7.61387C14.9179 7.3333 15.0692 6.60189 14.6653 6.12182L13.9001 6.7656C13.8981 6.7633 13.8954 6.75866 13.894 6.75284C13.8928 6.74773 13.893 6.74348 13.8936 6.74021C13.8943 6.73693 13.8958 6.73297 13.899 6.72877C13.9026 6.72398 13.9069 6.72079 13.9096 6.71944L14.3568 7.61387ZM14.3413 6.81364C14.3402 6.8207 14.3415 6.80776 14.3604 6.76514C14.3806 6.71973 14.3995 6.68535 14.433 6.61842L13.5386 6.1712C13.5104 6.22757 13.3838 6.44968 13.3517 6.66942L14.3413 6.81364ZM13.1999 13.2667C13.9915 13.2667 14.6332 12.6249 14.6332 11.8333H13.6332C13.6332 12.0726 13.4392 12.2667 13.1999 12.2667V13.2667ZM11.7665 11.8333C11.7665 12.6249 12.4083 13.2667 13.1999 13.2667V12.2667C12.9605 12.2667 12.7665 12.0726 12.7665 11.8333H11.7665ZM14.7295 5.06666C14.3381 5.06666 13.9803 5.28779 13.8052 5.63787L14.6997 6.08508C14.7053 6.07379 14.7169 6.06666 14.7295 6.06666V5.06666ZM11.1999 5.26666C11.5128 5.26666 11.7665 5.52036 11.7665 5.83332H12.7665C12.7665 4.96808 12.0651 4.26666 11.1999 4.26666V5.26666ZM14.3348 6.66119C14.3217 6.64806 14.3142 6.63976 14.3099 6.63463C14.3055 6.6294 14.308 6.63158 14.3132 6.64053C14.3243 6.65989 14.3543 6.72401 14.3413 6.81364L13.3517 6.66942C13.3232 6.8654 13.3826 7.02813 13.446 7.1385C13.5059 7.24285 13.5817 7.32223 13.6277 7.36829L14.3348 6.66119Z" fill="#4F576A"/>
</svg>
