<svg width="22" height="22" viewBox="0 0 22 22" fill="none" xmlns="http://www.w3.org/2000/svg">
<path d="M10.9829 0.256836C8.36824 0.256058 5.83903 1.18954 3.85011 2.88944C1.86119 4.58933 0.543047 6.94411 0.132703 9.53034C-0.277642 12.1166 0.246735 14.7646 1.61154 16.9982C2.97635 19.2319 5.09204 20.9046 7.57819 21.7156H7.84361C7.97311 21.7236 8.10283 21.704 8.22418 21.658C8.34553 21.612 8.45573 21.5407 8.54747 21.4489C8.63921 21.357 8.7104 21.2466 8.75631 21.1251C8.80223 21.0035 8.82182 20.8736 8.81378 20.7439V20.5514C8.81378 20.3956 8.81378 20.1848 8.81378 19.5523C8.8048 19.4922 8.78399 19.4346 8.75257 19.3826C8.72115 19.3307 8.67973 19.2856 8.63073 19.2498C8.57757 19.2067 8.51544 19.1761 8.44892 19.1603C8.38239 19.1444 8.31317 19.1437 8.24633 19.1581C5.79344 19.6898 5.27174 18.1498 5.23513 18.049C4.92798 17.2342 4.37848 16.5335 3.66089 16.0415C3.6179 16.0043 3.57199 15.9706 3.5236 15.9407C3.62996 15.8834 3.75162 15.8609 3.8714 15.8765C4.10144 15.9086 4.31928 15.9997 4.50373 16.1411C4.68817 16.2824 4.83294 16.4692 4.92395 16.6832C5.27801 17.3006 5.8574 17.7564 6.54021 17.9548C7.22301 18.1531 7.95601 18.0784 8.58497 17.7465C8.65246 17.7169 8.71184 17.6715 8.75805 17.6141C8.80426 17.5566 8.83594 17.4888 8.8504 17.4165C8.88544 16.9925 9.06664 16.5939 9.36294 16.289C9.42872 16.2305 9.47627 16.1543 9.49989 16.0694C9.52351 15.9845 9.52221 15.8946 9.49613 15.8105C9.47005 15.7263 9.42031 15.6515 9.35286 15.5949C9.28541 15.5384 9.20311 15.5025 9.11582 15.4915C6.94666 15.244 4.73174 14.4832 4.73174 10.7341C4.71346 9.79262 5.05757 8.88016 5.69276 8.18585C5.75126 8.12113 5.79009 8.04103 5.80469 7.95497C5.81928 7.8689 5.80903 7.78045 5.77513 7.70002C5.52077 6.98827 5.52401 6.20967 5.78429 5.50007C6.62983 5.65018 7.42345 6.0129 8.09073 6.55421C8.14586 6.59318 8.20906 6.61919 8.27561 6.6303C8.34217 6.64141 8.41037 6.63733 8.47514 6.61838C9.29272 6.39626 10.1358 6.28224 10.9829 6.27922C11.8332 6.27993 12.6797 6.39399 13.4999 6.61838C13.5633 6.6359 13.6298 6.63924 13.6947 6.62815C13.7595 6.61706 13.8211 6.59182 13.8751 6.55421C14.5435 6.0146 15.3366 5.65209 16.1816 5.50007C16.4308 6.20587 16.4308 6.97589 16.1816 7.68169C16.1477 7.76212 16.1374 7.85057 16.152 7.93663C16.1666 8.0227 16.2055 8.1028 16.264 8.16751C16.8926 8.85489 17.2362 9.75624 17.225 10.6883C17.225 14.4374 15.0009 15.189 12.8226 15.4365C12.7333 15.4459 12.6486 15.4813 12.5793 15.5385C12.5099 15.5956 12.4589 15.672 12.4325 15.758C12.4062 15.844 12.4057 15.9358 12.4311 16.0221C12.4565 16.1084 12.5067 16.1853 12.5755 16.2432C12.7782 16.4528 12.9331 16.7039 13.0295 16.9793C13.1259 17.2546 13.1615 17.5477 13.1338 17.8382V20.7531C13.1293 20.8964 13.1565 21.0389 13.2134 21.1705C13.2704 21.302 13.3557 21.4193 13.4633 21.5139C13.6003 21.6166 13.7593 21.6859 13.9278 21.7161C14.0962 21.7464 14.2694 21.7368 14.4335 21.6881C16.9029 20.8607 18.9985 19.1815 20.3463 16.95C21.6941 14.7186 22.2065 12.0802 21.792 9.50548C21.3774 6.93079 20.063 4.58737 18.0831 2.89334C16.1033 1.19932 13.5869 0.264907 10.9829 0.256836Z" fill="#5326EC"/>
</svg>
