<svg width="24" height="24" viewBox="0 0 24 24" fill="none" xmlns="http://www.w3.org/2000/svg">
<path d="M11.9997 0.280274C9.14289 0.279425 6.3795 1.29779 4.20642 3.15226C2.03335 5.00673 0.593157 7.57562 0.144818 10.397C-0.303521 13.2184 0.269408 16.1072 1.76058 18.544C3.25176 20.9807 5.56335 22.8055 8.27969 23.6903H8.56969C8.71117 23.6991 8.8529 23.6776 8.98549 23.6275C9.11807 23.5773 9.23847 23.4995 9.33871 23.3993C9.43895 23.2991 9.51673 23.1787 9.56689 23.0461C9.61706 22.9135 9.63846 22.7718 9.62969 22.6303V22.4203C9.62969 22.2503 9.62969 22.0203 9.62969 21.3303C9.61987 21.2648 9.59714 21.2019 9.5628 21.1452C9.52847 21.0886 9.48322 21.0393 9.42969 21.0003C9.3716 20.9533 9.30372 20.9199 9.23104 20.9026C9.15835 20.8853 9.08272 20.8845 9.00969 20.9003C6.32969 21.4803 5.75969 19.8003 5.71969 19.6903C5.3841 18.8014 4.78372 18.037 3.99969 17.5003C3.95271 17.4597 3.90255 17.4229 3.84969 17.3903C3.96589 17.3277 4.09881 17.3032 4.22969 17.3203C4.48102 17.3552 4.71904 17.4546 4.92056 17.6088C5.12208 17.7631 5.28026 17.9668 5.37969 18.2003C5.76654 18.8739 6.39957 19.3711 7.1456 19.5875C7.89162 19.8038 8.69249 19.7224 9.37969 19.3603C9.45343 19.328 9.5183 19.2785 9.56879 19.2158C9.61928 19.1531 9.65389 19.0792 9.66969 19.0003C9.70797 18.5377 9.90595 18.1029 10.2297 17.7703C10.3016 17.7064 10.3535 17.6233 10.3793 17.5307C10.4051 17.4381 10.4037 17.34 10.3752 17.2482C10.3467 17.1564 10.2924 17.0748 10.2187 17.0131C10.145 16.9514 10.0551 16.9122 9.95969 16.9003C7.58969 16.6303 5.16969 15.8003 5.16969 11.7103C5.14971 10.6832 5.52568 9.68772 6.21969 8.93027C6.2836 8.85967 6.32603 8.77229 6.34198 8.6784C6.35792 8.58451 6.34672 8.48801 6.30969 8.40027C6.03177 7.6238 6.0353 6.7744 6.31969 6.00027C7.24351 6.16403 8.11062 6.55974 8.83969 7.15027C8.89992 7.19279 8.96897 7.22116 9.04169 7.23328C9.1144 7.2454 9.18892 7.24095 9.25969 7.22027C10.153 6.97796 11.0741 6.85357 11.9997 6.85027C12.9287 6.85105 13.8535 6.97548 14.7497 7.22027C14.819 7.23939 14.8916 7.24303 14.9625 7.23094C15.0333 7.21884 15.1007 7.1913 15.1597 7.15027C15.8899 6.56159 16.7565 6.16612 17.6797 6.00027C17.9519 6.77025 17.9519 7.61029 17.6797 8.38027C17.6427 8.46801 17.6315 8.56451 17.6474 8.6584C17.6633 8.75229 17.7058 8.83967 17.7697 8.91027C18.4565 9.66015 18.832 10.6435 18.8197 11.6603C18.8197 15.7503 16.3897 16.5703 14.0097 16.8403C13.9121 16.8504 13.8196 16.8891 13.7438 16.9515C13.668 17.0138 13.6123 17.0971 13.5835 17.1909C13.5547 17.2847 13.5541 17.385 13.5819 17.4791C13.6097 17.5732 13.6646 17.6571 13.7397 17.7203C13.9612 17.9489 14.1305 18.2229 14.2358 18.5233C14.3411 18.8237 14.38 19.1434 14.3497 19.4603V22.6403C14.3447 22.7966 14.3744 22.9521 14.4367 23.0956C14.4989 23.2391 14.5922 23.3671 14.7097 23.4703C14.8594 23.5823 15.0331 23.6579 15.2172 23.6909C15.4012 23.7238 15.5904 23.7134 15.7697 23.6603C18.4678 22.7576 20.7574 20.9257 22.23 18.4914C23.7026 16.0571 24.2624 13.1787 23.8095 10.3699C23.3566 7.5611 21.9204 5.00458 19.7573 3.15652C17.5942 1.30846 14.8448 0.289079 11.9997 0.280274Z" fill="#1B1657"/>
</svg>
