<svg width="88" height="88" viewBox="0 0 88 88" fill="none" xmlns="http://www.w3.org/2000/svg">
<path d="M44.0747 1C33.5851 0.996887 23.4386 4.73491 15.4595 11.5419C7.48038 18.3489 2.19229 27.7783 0.546085 38.1346C-1.10012 48.4908 1.00356 59.0944 6.47884 68.0387C11.9541 76.983 20.4418 83.6812 30.4156 86.9288H31.4805C32 86.961 32.5204 86.8824 33.0072 86.6983C33.494 86.5142 33.9361 86.2286 34.3042 85.8607C34.6722 85.4928 34.9578 85.0508 35.142 84.5642C35.3262 84.0775 35.4048 83.5573 35.3726 83.0379V82.2671C35.3726 81.6431 35.3726 80.7989 35.3726 78.2662C35.3365 78.0257 35.2531 77.7948 35.127 77.5868C35.0009 77.3789 34.8348 77.1981 34.6382 77.0549C34.4249 76.8824 34.1757 76.7599 33.9088 76.6964C33.6419 76.6328 33.3642 76.6299 33.0961 76.6878C23.2557 78.8167 21.1627 72.6501 21.0159 72.2464C19.7836 68.9836 17.5792 66.1777 14.7004 64.2078C14.5279 64.0586 14.3437 63.9236 14.1496 63.804C14.5763 63.5744 15.0643 63.4845 15.5449 63.547C16.4677 63.6753 17.3417 64.0402 18.0816 64.6063C18.8216 65.1723 19.4024 65.9202 19.7674 66.7772C21.1879 69.2496 23.5122 71.0749 26.2515 71.869C28.9908 72.6632 31.9314 72.3642 34.4546 71.0351C34.7254 70.9167 34.9636 70.7348 35.149 70.5048C35.3344 70.2747 35.4614 70.0033 35.5194 69.7137C35.66 68.0158 36.387 66.4197 37.5756 65.1988C37.8395 64.9645 38.0303 64.6592 38.1251 64.3193C38.2198 63.9795 38.2146 63.6195 38.11 63.2825C38.0054 62.9456 37.8058 62.6459 37.5352 62.4194C37.2646 62.1929 36.9345 62.0491 36.5843 62.0054C27.8821 61.0143 18.9964 57.9677 18.9964 42.955C18.923 39.1848 20.3035 35.531 22.8518 32.7507C23.0864 32.4916 23.2422 32.1708 23.3008 31.8262C23.3593 31.4815 23.3182 31.1273 23.1822 30.8053C22.1617 27.9552 22.1747 24.8374 23.2189 21.9958C26.611 22.5969 29.7949 24.0494 32.4719 26.217C32.693 26.3731 32.9465 26.4772 33.2136 26.5217C33.4806 26.5662 33.7542 26.5499 34.014 26.474C37.294 25.5845 40.6763 25.1279 44.0747 25.1159C47.4859 25.1187 50.8815 25.5754 54.1722 26.474C54.4266 26.5441 54.6933 26.5575 54.9535 26.5131C55.2137 26.4687 55.4609 26.3676 55.6776 26.217C58.3588 24.0562 61.5408 22.6046 64.9305 21.9958C65.9301 24.8221 65.9301 27.9056 64.9305 30.7319C64.7945 31.0539 64.7534 31.4081 64.812 31.7528C64.8705 32.0974 65.0263 32.4181 65.261 32.6773C67.7829 35.4298 69.1614 39.0391 69.1164 42.7714C69.1164 57.7842 60.1939 60.7941 51.455 61.7852C51.0966 61.8225 50.7571 61.9644 50.4788 62.1933C50.2005 62.4222 49.9958 62.7278 49.8901 63.0722C49.7844 63.4166 49.7824 63.7845 49.8844 64.1301C49.9864 64.4756 50.1878 64.7834 50.4636 65.0153C51.277 65.8545 51.8985 66.8601 52.2852 67.9628C52.6719 69.0655 52.8146 70.2389 52.7034 71.4021V83.0746C52.6853 83.6485 52.7944 84.2193 53.0229 84.746C53.2514 85.2727 53.5938 85.7424 54.0253 86.1212C54.5748 86.5326 55.2129 86.8098 55.8887 86.9309C56.5644 87.052 57.2591 87.0136 57.9174 86.8186C67.8243 83.5054 76.2313 76.7812 81.6385 67.8458C87.0456 58.9103 89.101 48.345 87.438 38.035C85.775 27.725 80.5017 18.3411 72.5591 11.5576C64.6165 4.77405 54.5213 1.03232 44.0747 1Z" fill="#5326EC"/>
</svg>
