<svg id="Layer_1" data-name="Layer 1" xmlns="http://www.w3.org/2000/svg" viewBox="0 0 1432.4 547.9">
  <defs>
    <style>.cls-1{fill:url(#linear-gradient);}.cls-2{mask:url(#mask);}.cls-3{opacity:0.4;}.cls-4{fill:#754dff;}.cls-5{opacity:0.2;}.cls-6{opacity:1;}</style>
    <linearGradient id="linear-gradient" x1="455.9" y1="408.07" x2="937.92" y2="-420.56" gradientTransform="matrix(1, 0, 0, -1, 0, 494)" gradientUnits="userSpaceOnUse">
    <stop offset="0" stop-color="#465187"/>
    <stop offset="1" stop-color="#0a1444"/>
  </linearGradient>
    <mask id="mask" x="-11.59" y="-108.89" width="1613.77" height="1155.79">
      <g id="mask0_1064_57830">
        <rect class="cls-1" x="-11.6" width="1444" height="1046.9"/>
      </g>
    </mask>
  </defs>
  <title>Pattern</title>
  <g class="cls-2"><g class="cls-3">
    <path class="cls-4" d="M160.5,218.8a90.6,90.6,0,0,1-5.8,32.5,79.4,79.4,0,0,1-16.2,26,75.7,75.7,0,0,1-24.9,17.1,79.5,79.5,0,0,1-31.1,6A84,84,0,0,1,50,294.1,78.7,78.7,0,0,1,6.3,251.3,80.7,80.7,0,0,1,49.8,144.9a81.9,81.9,0,0,1,32-6.3,88.4,88.4,0,0,1,37.2,8.1,71.1,71.1,0,0,1,28.7,22.4l-27.1,23.5a48.2,48.2,0,0,0-17.5-14.8,46.9,46.9,0,0,0-21.3-4.9,39.6,39.6,0,0,0-30,13.4A42.8,42.8,0,0,0,43,201.1a52.7,52.7,0,0,0-3.1,18.4A54.9,54.9,0,0,0,43,238.3a47.5,47.5,0,0,0,9.2,14.8A43.3,43.3,0,0,0,65.9,263a41.9,41.9,0,0,0,17.3,3.6,36.5,36.5,0,0,0,22.8-7.4,34.5,34.5,0,0,0,13-18.9H79.8V207.9h80.7ZM179,298V141.1h38.6V298Zm107.7,0L226.4,141.1h41.7l41.5,116.7,42.1-116.7h40.2L330.7,298Z"/>
    <path class="cls-4" d="M563.9,218.8a88.5,88.5,0,0,1-5.8,32.5,80.9,80.9,0,0,1-16.1,26,75.7,75.7,0,0,1-24.9,17.1,80.3,80.3,0,0,1-31.2,6,84.4,84.4,0,0,1-32.5-6.3,82.8,82.8,0,0,1-26.2-17,84.7,84.7,0,0,1-17.5-25.8,83.4,83.4,0,0,1,0-63.6,82.5,82.5,0,0,1,17.5-25.6,80.2,80.2,0,0,1,26-17.2,82,82,0,0,1,32.1-6.3,88.4,88.4,0,0,1,37.2,8.1,70.8,70.8,0,0,1,28.6,22.4L524,192.6a47.4,47.4,0,0,0-17.5-14.8,46.2,46.2,0,0,0-21.2-4.9,40.4,40.4,0,0,0-16.9,3.6,42.1,42.1,0,0,0-13.2,9.8,44.2,44.2,0,0,0-8.7,14.8,52.7,52.7,0,0,0-3.2,18.4,55,55,0,0,0,3.2,18.8,45.7,45.7,0,0,0,9.2,14.8,42.9,42.9,0,0,0,13.6,9.9,42.2,42.2,0,0,0,17.3,3.6,36.9,36.9,0,0,0,22.9-7.4,35,35,0,0,0,13-18.9H483.2V207.9h80.7ZM582.5,298V141.1H621V298Zm107.7,0L629.9,141.1h41.7L713,257.8l42.2-116.7h40.1L734.1,298Z"/><path class="cls-4" d="M967.4,218.8a88.6,88.6,0,0,1-5.9,32.5,77.6,77.6,0,0,1-16.1,26,75.7,75.7,0,0,1-24.9,17.1,79.5,79.5,0,0,1-31.1,6,84.8,84.8,0,0,1-58.8-23.3,82.6,82.6,0,0,1-17.4-25.8,80.8,80.8,0,0,1,17.4-89.2,81.3,81.3,0,0,1,26-17.2,82.4,82.4,0,0,1,32.1-6.3,88.4,88.4,0,0,1,37.2,8.1,71.1,71.1,0,0,1,28.7,22.4l-27.1,23.5A49,49,0,0,0,910,177.8a46.9,46.9,0,0,0-21.3-4.9,39.6,39.6,0,0,0-30,13.4,42.8,42.8,0,0,0-8.8,14.8,52.7,52.7,0,0,0-3.1,18.4,54.9,54.9,0,0,0,3.1,18.8,47.5,47.5,0,0,0,9.2,14.8,42.2,42.2,0,0,0,13.7,9.9,41.8,41.8,0,0,0,17.2,3.6,36.5,36.5,0,0,0,22.9-7.4,34.5,34.5,0,0,0,13-18.9H886.7V207.9h80.7ZM985.9,298V141.1h38.5V298Zm107.7,0-60.3-156.9H1075l41.5,116.7,42.1-116.7h40.1L1137.5,298Z"/><path class="cls-4" d="M1370.8,218.8a88.5,88.5,0,0,1-5.8,32.5,79.4,79.4,0,0,1-16.2,26,74.2,74.2,0,0,1-24.8,17.1,80.3,80.3,0,0,1-31.2,6,84.4,84.4,0,0,1-32.5-6.3,78.7,78.7,0,0,1-43.7-42.8,83.4,83.4,0,0,1,0-63.6,80.9,80.9,0,0,1,43.5-42.8,81.9,81.9,0,0,1,32-6.3,88.4,88.4,0,0,1,37.2,8.1,71.1,71.1,0,0,1,28.7,22.4l-27.1,23.5a48.2,48.2,0,0,0-17.5-14.8,46.3,46.3,0,0,0-21.3-4.9,39.6,39.6,0,0,0-30,13.4,42.6,42.6,0,0,0-8.7,14.8,52.7,52.7,0,0,0-3.2,18.4,55,55,0,0,0,3.2,18.8,47.2,47.2,0,0,0,9.1,14.8,43.3,43.3,0,0,0,13.7,9.9,42.2,42.2,0,0,0,17.3,3.6,36.5,36.5,0,0,0,22.8-7.4,34.5,34.5,0,0,0,13-18.9h-39.2V207.9h80.7Zm18.5,79.2V141.1h38.6V298Zm107.8,0-60.3-156.9h41.7l41.4,116.7,42.2-116.7h40.1L1541,298Z"/></g>
    <g class="cls-5">
      <path class="cls-4" d="M563.9-28.6a89.3,89.3,0,0,1-5.8,32.5,82,82,0,0,1-16.1,26,77,77,0,0,1-24.9,17,80.3,80.3,0,0,1-31.2,6,86.2,86.2,0,0,1-32.5-6.2,84.8,84.8,0,0,1-26.2-17.1A85.4,85.4,0,0,1,409.7,3.9,80.7,80.7,0,0,1,403.4-28a80.6,80.6,0,0,1,6.3-31.8,82.5,82.5,0,0,1,17.5-25.6,80.2,80.2,0,0,1,26-17.2,82,82,0,0,1,32.1-6.3,88.4,88.4,0,0,1,37.2,8.1,70.8,70.8,0,0,1,28.6,22.4L524-54.9a48.4,48.4,0,0,0-17.5-14.8,47.5,47.5,0,0,0-21.2-4.9A40.4,40.4,0,0,0,468.4-71a42.4,42.4,0,0,0-13.2,9.9,42.8,42.8,0,0,0-8.7,14.7A53.1,53.1,0,0,0,443.3-28a55.5,55.5,0,0,0,3.2,18.9,45.2,45.2,0,0,0,9.2,14.7,42.9,42.9,0,0,0,13.6,9.9,42.2,42.2,0,0,0,17.3,3.6,36.9,36.9,0,0,0,22.9-7.4,34.7,34.7,0,0,0,13-18.8H483.2V-39.6h80.7Zm18.6,79.1V-106.4H621V50.5Zm107.7,0L629.9-106.4h41.7L713,10.4l42.2-116.8h40.1L734.1,50.5Z"/><path class="cls-4" d="M967.4-28.6a89.3,89.3,0,0,1-5.9,32.5,80.3,80.3,0,0,1-16.1,26,77,77,0,0,1-24.9,17,79.5,79.5,0,0,1-31.1,6,85.9,85.9,0,0,1-32.5-6.2,85.3,85.3,0,0,1-26.3-17.1A83.4,83.4,0,0,1,813.2,3.9,80.7,80.7,0,0,1,806.9-28a80.6,80.6,0,0,1,6.3-31.8,80.6,80.6,0,0,1,17.4-25.6,81.3,81.3,0,0,1,26-17.2,82.4,82.4,0,0,1,32.1-6.3,88.4,88.4,0,0,1,37.2,8.1,71.1,71.1,0,0,1,28.7,22.4L927.5-54.9A50.1,50.1,0,0,0,910-69.7a48.3,48.3,0,0,0-21.3-4.9A39.6,39.6,0,0,0,871.9-71a40.2,40.2,0,0,0-13.2,9.9,41.5,41.5,0,0,0-8.8,14.7A53.1,53.1,0,0,0,846.8-28a55.5,55.5,0,0,0,3.1,18.9,47,47,0,0,0,9.2,14.7,42.2,42.2,0,0,0,13.7,9.9A41.8,41.8,0,0,0,890,19.1a36.5,36.5,0,0,0,22.9-7.4,34.2,34.2,0,0,0,13-18.8H886.7V-39.6h80.7Zm18.5,79.1V-106.4h38.5V50.5Zm107.7,0-60.3-156.9H1075l41.5,116.8,42.1-116.8h40.1L1137.5,50.5Z"/>
    <path class="cls-4" d="M1370.8-28.6A89.3,89.3,0,0,1,1365,3.9a80.5,80.5,0,0,1-16.2,26,75.5,75.5,0,0,1-24.8,17,80.3,80.3,0,0,1-31.2,6,86.2,86.2,0,0,1-32.5-6.2,84.8,84.8,0,0,1-26.2-17.1,83.6,83.6,0,0,1-17.5-25.7,80.7,80.7,0,0,1-6.3-31.9,80.6,80.6,0,0,1,6.3-31.8,80.9,80.9,0,0,1,17.5-25.6,80.2,80.2,0,0,1,26-17.2,81.9,81.9,0,0,1,32-6.3,88.4,88.4,0,0,1,37.2,8.1A71.1,71.1,0,0,1,1358-78.4l-27.1,23.5a49.2,49.2,0,0,0-17.5-14.8,47.6,47.6,0,0,0-21.3-4.9,40.3,40.3,0,0,0-16.8,3.6,40.2,40.2,0,0,0-13.2,9.9,41.3,41.3,0,0,0-8.7,14.7,53.1,53.1,0,0,0-3.2,18.4,55.5,55.5,0,0,0,3.2,18.9,46.7,46.7,0,0,0,9.1,14.7,43.3,43.3,0,0,0,13.7,9.9,42.2,42.2,0,0,0,17.3,3.6,36.5,36.5,0,0,0,22.8-7.4,34.2,34.2,0,0,0,13-18.8h-39.2V-39.6h80.7Zm18.5,79.1V-106.4h38.6V50.5Zm107.8,0-60.3-156.9h41.7l41.4,116.8,42.2-116.8h40.1L1541,50.5Z"/><path class="cls-4" d="M160.5-28.6a91.4,91.4,0,0,1-5.8,32.5,80.5,80.5,0,0,1-16.2,26,77,77,0,0,1-24.9,17,79.5,79.5,0,0,1-31.1,6A85.9,85.9,0,0,1,50,46.7,83.7,83.7,0,0,1,23.8,29.6,81.9,81.9,0,0,1,6.3,3.9,80.7,80.7,0,0,1,0-28,80.6,80.6,0,0,1,6.3-59.8,79.3,79.3,0,0,1,23.8-85.4a79.2,79.2,0,0,1,26-17.2,81.9,81.9,0,0,1,32-6.3,88.4,88.4,0,0,1,37.2,8.1,71.1,71.1,0,0,1,28.7,22.4L120.6-54.9a49.2,49.2,0,0,0-17.5-14.8,48.3,48.3,0,0,0-21.3-4.9A39.6,39.6,0,0,0,65-71a40.2,40.2,0,0,0-13.2,9.9A41.5,41.5,0,0,0,43-46.4,53.1,53.1,0,0,0,39.9-28,55.5,55.5,0,0,0,43-9.1,47,47,0,0,0,52.2,5.6a43.3,43.3,0,0,0,13.7,9.9,41.9,41.9,0,0,0,17.3,3.6A36.5,36.5,0,0,0,106,11.7,34.2,34.2,0,0,0,119-7.1H79.8V-39.6h80.7ZM179,50.5V-106.4h38.6V50.5Zm107.7,0L226.4-106.4h41.7L309.6,10.4l42.1-116.8h40.1L330.7,50.5Z"/></g><g class="cls-6"><path class="cls-4" d="M160.5,466.3a90.6,90.6,0,0,1-5.8,32.5,79.4,79.4,0,0,1-16.2,26,74,74,0,0,1-24.9,17,77.7,77.7,0,0,1-31.1,6.1,84.3,84.3,0,0,1-58.7-23.3A79.9,79.9,0,0,1,0,467a80.6,80.6,0,0,1,49.8-74.7,83.7,83.7,0,0,1,32-6.2,89.8,89.8,0,0,1,37.2,8c11.8,5.3,21.4,12.7,28.7,22.5l-27.1,23.5a48.2,48.2,0,0,0-17.5-14.8,46.9,46.9,0,0,0-21.3-4.9A41.1,41.1,0,0,0,65,423.9a40.2,40.2,0,0,0-13.2,9.9A41.9,41.9,0,0,0,43,448.6,52.7,52.7,0,0,0,39.9,467,54.9,54.9,0,0,0,43,485.8a47.5,47.5,0,0,0,9.2,14.8,43.3,43.3,0,0,0,13.7,9.9A41.8,41.8,0,0,0,83.2,514c8.8,0,16.4-2.4,22.8-7.3a34.8,34.8,0,0,0,13-18.9H79.8V455.3h80.7ZM179,545.4V388.5h38.6V545.4Zm107.7,0L226.4,388.5h41.7l41.5,116.8,42.1-116.8h40.2L330.7,545.4Z"/><path class="cls-4" d="M1370.8,466.3a88.5,88.5,0,0,1-5.8,32.5,79.4,79.4,0,0,1-16.2,26,72.6,72.6,0,0,1-24.8,17,78.6,78.6,0,0,1-31.2,6.1,84.3,84.3,0,0,1-58.7-23.3,82.9,82.9,0,0,1-17.5-25.8,81,81,0,0,1,43.5-106.5,83.7,83.7,0,0,1,32-6.2,89.8,89.8,0,0,1,37.2,8c11.8,5.3,21.4,12.7,28.7,22.5l-27.1,23.5a48.2,48.2,0,0,0-17.5-14.8,46.3,46.3,0,0,0-21.3-4.9,41.8,41.8,0,0,0-16.8,3.5,40.2,40.2,0,0,0-13.2,9.9,41.7,41.7,0,0,0-8.7,14.8,52.7,52.7,0,0,0-3.2,18.4,55,55,0,0,0,3.2,18.8,47.2,47.2,0,0,0,9.1,14.8,43.3,43.3,0,0,0,13.7,9.9,42.2,42.2,0,0,0,17.3,3.6,36.5,36.5,0,0,0,22.8-7.4,34.8,34.8,0,0,0,13-18.9h-39.2V455.3h80.7Zm18.5,79.1V388.5h38.6V545.4Zm107.8,0-60.3-156.9h41.7l41.4,116.8,42.2-116.8h40.1L1541,545.4Z"/><path class="cls-4" d="M968.1,466.3a88.5,88.5,0,0,1-5.8,32.5,79.4,79.4,0,0,1-16.2,26,72.6,72.6,0,0,1-24.8,17,78.6,78.6,0,0,1-31.2,6.1,84.3,84.3,0,0,1-58.7-23.3,82.9,82.9,0,0,1-17.5-25.8,81,81,0,0,1,43.5-106.5,83.7,83.7,0,0,1,32-6.2,89.8,89.8,0,0,1,37.2,8,70.7,70.7,0,0,1,28.7,22.5l-27.1,23.5a47.4,47.4,0,0,0-17.5-14.8,46.3,46.3,0,0,0-21.3-4.9,41.8,41.8,0,0,0-16.8,3.5,40.2,40.2,0,0,0-13.2,9.9,43.3,43.3,0,0,0-8.7,14.8,52.7,52.7,0,0,0-3.2,18.4,55,55,0,0,0,3.2,18.8,45.7,45.7,0,0,0,9.2,14.8,41,41,0,0,0,30.9,13.5,36.5,36.5,0,0,0,22.8-7.4,34.3,34.3,0,0,0,13-18.9H887.4V455.3h80.7Zm18.5,79.1V388.5h38.6V545.4Zm107.8,0-60.3-156.9h41.7l41.4,116.8,42.2-116.8h40.1l-61.2,156.9Z"/><path class="cls-4" d="M559.8,466.3a88.5,88.5,0,0,1-5.8,32.5,80.9,80.9,0,0,1-16.1,26,74,74,0,0,1-24.9,17,78.6,78.6,0,0,1-31.2,6.1,80.6,80.6,0,0,1-76.2-49.1,80.5,80.5,0,0,1,17.5-89.2,80.5,80.5,0,0,1,26-17.3,83.8,83.8,0,0,1,32.1-6.2,89.8,89.8,0,0,1,37.2,8,72,72,0,0,1,28.7,22.5l-27.2,23.5a47.9,47.9,0,0,0-17.4-14.8,46.9,46.9,0,0,0-21.3-4.9,41.1,41.1,0,0,0-16.8,3.5,41.7,41.7,0,0,0-13.3,9.9,43.3,43.3,0,0,0-8.7,14.8,52.7,52.7,0,0,0-3.1,18.4,54.9,54.9,0,0,0,3.1,18.8,45.7,45.7,0,0,0,9.2,14.8,42.2,42.2,0,0,0,13.7,9.9,41.4,41.4,0,0,0,17.2,3.6,36.9,36.9,0,0,0,22.9-7.4,35.4,35.4,0,0,0,13-18.9H479.2V455.3h80.6Zm18.6,79.1V388.5h38.5V545.4Zm107.7,0L625.8,388.5h41.7L709,505.3l42.1-116.8h40.1L730,545.4Z"/>
  </g>
  </g>
</svg>
