<svg width="392" height="195" viewBox="0 0 392 163" fill="none" xmlns="http://www.w3.org/2000/svg">
  <path d="M160.513 80.8326C160.513 92.4875 158.571 103.321 154.686 113.332C150.801 123.343 145.422 132.01 138.548 139.332C131.675 146.504 123.382 152.182 113.669 156.366C104.106 160.4 93.7213 162.417 82.5146 162.417C71.0091 162.417 60.1759 160.325 50.0152 156.142C40.0039 151.958 31.2626 146.28 23.7915 139.107C16.4698 131.786 10.6423 123.194 6.30905 113.332C2.12522 103.47 0.0332989 92.8611 0.0332989 81.505C0.0332989 70.1489 2.12522 59.5398 6.30905 49.6779C10.6423 39.816 16.4698 31.2989 23.7915 24.1267C31.1132 16.8049 39.7797 11.0522 49.7911 6.86833C59.8024 2.6845 70.4861 0.592579 81.8422 0.592579C94.842 0.592579 107.244 3.28219 119.048 8.66141C130.853 13.8912 140.416 21.3623 147.738 31.0748L120.617 54.6089C115.686 48.0343 109.859 43.1033 103.135 39.816C96.5604 36.5287 89.4628 34.8851 81.8422 34.8851C75.8653 34.8851 70.262 36.0805 65.0322 38.4712C59.9518 40.862 55.5438 44.1493 51.8083 48.3331C48.0727 52.3675 45.159 57.2985 43.067 63.126C40.9751 68.804 39.9292 74.9304 39.9292 81.505C39.9292 88.229 40.9751 94.5048 43.067 100.332C45.3084 106.01 48.3715 110.941 52.2565 115.125C56.1415 119.309 60.6989 122.596 65.9287 124.987C71.3079 127.378 77.0607 128.573 83.187 128.573C92.003 128.573 99.6235 126.108 106.049 121.177C112.623 116.246 116.957 109.97 119.048 102.349H79.825V69.85H160.513V80.8326ZM179.041 159.952V3.05805H217.592V159.952H179.041ZM286.764 159.952L226.472 3.05805H268.161L309.625 119.832L351.763 3.05805H391.883L330.694 159.952H286.764Z" fill="#f1eefd"/>
</svg>
