<svg width="80" height="80" viewBox="0 0 80 80" fill="none" xmlns="http://www.w3.org/2000/svg">
<path d="M27.1999 25.6018C19.9862 25.6018 13.0674 28.4676 7.96653 33.5681C2.86562 38.6694 0 45.588 0 52.8009C0 60.0138 2.8658 66.9329 7.96653 72.0337C13.068 77.1345 19.9867 80 27.1999 80C34.413 80 41.3323 77.1343 46.4332 72.0337C51.5341 66.9324 54.3997 60.0138 54.3997 52.8009C54.3997 45.588 51.5339 38.6689 46.4332 33.5681C41.3318 28.4674 34.413 25.6018 27.1999 25.6018ZM27.1999 76.8015C20.8347 76.8015 14.7297 74.2729 10.2287 69.7723C5.72794 65.2717 3.19934 59.1667 3.19934 52.8017C3.19934 46.4366 5.72794 40.3318 10.2287 35.831C14.7295 31.3303 20.8347 28.8018 27.1999 28.8018C33.5651 28.8018 39.6701 31.3303 44.171 35.831C48.6718 40.3316 51.2004 46.4366 51.2004 52.8017C51.2004 59.1667 48.6718 65.2715 44.171 69.7723C39.6703 74.2729 33.5651 76.8015 27.1999 76.8015Z" fill="#FED670"/>
<path d="M52.8002 0C37.5441 0 25.5996 5.59996 25.5996 12.7999V20.7999C25.5996 21.6834 26.3161 22.3998 27.1996 22.3998C28.0832 22.3998 28.7997 21.6834 28.7997 20.7999V18.9121C33.3441 22.912 42.2879 25.5998 52.8002 25.5998C63.3125 25.5998 72.2567 22.9278 76.8008 18.9121V33.7755C76.8008 37.2311 70.4006 41.5833 58.1928 43.2154C57.3642 43.3333 56.7663 44.069 56.8213 44.904C56.8756 45.739 57.5642 46.3911 58.4007 46.3997H58.6085C66.9287 45.2954 73.2566 42.9598 76.801 39.8798V54.4876C76.801 58.2718 69.5529 62.8154 57.4324 63.8553C56.5488 63.8932 55.8623 64.6396 55.9002 65.5239C55.938 66.4074 56.6845 67.0931 57.5681 67.0553H57.7038C70.8327 65.9117 80.0001 60.7517 80.0001 54.4876V12.8001C80.0001 5.60016 68.0563 0 52.8002 0ZM52.8002 22.3998C38.6555 22.3998 28.7997 17.3442 28.7997 12.7999C28.7997 8.25558 38.6555 3.19998 52.8002 3.19998C66.9449 3.19998 76.8008 8.25558 76.8008 12.7999C76.8008 17.3442 66.9449 22.3998 52.8002 22.3998Z" fill="#FED670"/>
<path d="M55.7711 41.5372C53.3095 35.9989 47.3095 29.999 44.6172 27.6914C63.0788 29.8452 72.3096 25.2555 74.6173 22.6915V33.8451C73.0788 38.768 61.4121 41.0244 55.7711 41.5372Z" fill="#FED670"/>
<path d="M58.0788 62.3059V48.4601C63.9249 49.0755 72.0532 45.6396 75.3865 43.8448V55.383C70.4634 60.3059 61.7967 62.0495 58.0788 62.3059Z" fill="#FED670"/>
<path fill-rule="evenodd" clip-rule="evenodd" d="M18.6833 48.2109H35.1638C36.5547 48.2109 37.6928 49.349 37.6928 50.7398V62.4884C37.6928 63.8792 36.5547 65.0173 35.1638 65.0173H18.6833C17.2924 65.0173 16.1543 63.8792 16.1543 62.4884V50.7398C16.1543 49.349 17.2924 48.2109 18.6833 48.2109ZM26.9241 38.4611C31.2096 38.4611 34.7158 41.9675 34.7158 46.2527V46.9452H31.636V46.2527C31.636 43.6612 29.5154 41.5409 26.924 41.5409C24.3324 41.5409 22.212 43.6614 22.212 46.2527V46.9452H19.1322V46.2527C19.1322 41.9672 22.6387 38.4611 26.9241 38.4611ZM26.2909 54.5643C26.2909 54.215 26.574 53.9311 26.9241 53.9311C27.2733 53.9311 27.5573 54.2143 27.5573 54.5643V58.6644C27.5573 59.0136 27.2741 59.2975 26.9241 59.2975C26.5748 59.2975 26.2909 59.0144 26.2909 58.6644V54.5643Z" fill="#FED670"/>
<path d="M74.6164 12.6926C74.6164 17.1532 65.1455 20.7693 53.4625 20.7693C41.7795 20.7693 32.3086 17.1532 32.3086 12.6926C32.3086 8.23193 41.7795 4.61586 53.4625 4.61586C65.1455 4.61586 74.6164 8.23193 74.6164 12.6926Z" fill="#FED670"/>
</svg>
