<svg id="Layer_1" data-name="Layer 1" xmlns="http://www.w3.org/2000/svg" viewBox="0 0 24 24"><defs><style>.cls-1{fill:#5326ec;}.cls-2{fill:#fcfcff;}</style></defs><title>GIV_menu</title><circle class="cls-1" cx="12" cy="12" r="12"/><path class="cls-2" d="M20.2,12.2v.7a8,8,0,0,1-3.4,5.8,7.7,7.7,0,0,1-5.1,1.5,7.8,7.8,0,0,1-5.5-2.3h0L12,12.1h8.2Z"/><path class="cls-2" d="M12.2,3.8h.7a7.8,7.8,0,0,1,3.6,1.3h.1l-.7.7c-.2.2-.4.3-.5.5h-.1a7.4,7.4,0,0,0-3.6-.9,6.6,6.6,0,0,0-6.1,5,6.5,6.5,0,0,0,.7,4.9h0L5.1,16.5h0a.3.3,0,0,0-.1-.2,7.9,7.9,0,0,1-1.2-5,8.2,8.2,0,0,1,6.8-7.5h1.6Z"/><path class="cls-2" d="M16.4,8.7a1.6,1.6,0,0,1,.3-.9,1.1,1.1,0,0,1,.9-.5,1.7,1.7,0,0,1,1,.1,1.2,1.2,0,0,1,.6.8,1.1,1.1,0,0,1,.1,1,1.6,1.6,0,0,1-.6.8,1.6,1.6,0,0,1-1,.2,1.8,1.8,0,0,1-.9-.4l-.3-.5A1.3,1.3,0,0,1,16.4,8.7Z"/></svg>