<svg width="12" height="15" viewBox="0 0 12 15" fill="none" xmlns="http://www.w3.org/2000/svg">
<path d="M11.5784 3.89182C11.4387 3.78518 11.2765 3.71506 11.1054 3.68738C10.9343 3.65969 10.7593 3.67525 10.5952 3.73273C10.5651 3.74429 10.5391 3.76506 10.5206 3.79232C10.502 3.81959 10.4919 3.85205 10.4914 3.88545V7.01636C10.4914 7.10075 10.4592 7.18168 10.402 7.24135C10.3447 7.30102 10.267 7.33455 10.186 7.33455C10.1051 7.33455 10.0274 7.30102 9.97014 7.24135C9.91288 7.18168 9.88071 7.10075 9.88071 7.01636V2.88C9.88124 2.70477 9.84161 2.53194 9.76514 2.37588C9.68866 2.21981 9.57754 2.08503 9.44102 1.98273C9.29926 1.87297 9.13385 1.80108 8.95926 1.77334C8.78467 1.74561 8.60621 1.76288 8.43951 1.82364C8.40943 1.8352 8.38342 1.85597 8.36489 1.88323C8.34636 1.91049 8.33618 1.94296 8.33569 1.97636V6.06182C8.33569 6.14621 8.30352 6.22714 8.24626 6.28681C8.189 6.34648 8.11134 6.38 8.03036 6.38C7.94937 6.38 7.87171 6.34648 7.81445 6.28681C7.75719 6.22714 7.72502 6.14621 7.72502 6.06182V1.60727C7.72192 1.3168 7.61064 1.03894 7.41466 0.832344C7.21869 0.625749 6.95335 0.506584 6.67465 0.5C6.55148 0.500469 6.42941 0.524185 6.31435 0.57C6.28541 0.58066 6.26041 0.600521 6.24288 0.626782C6.22535 0.653043 6.21617 0.684377 6.21664 0.716364V6.06182C6.21664 6.14621 6.18448 6.22714 6.12721 6.28681C6.06995 6.34648 5.99229 6.38 5.91131 6.38C5.83033 6.38 5.75266 6.34648 5.6954 6.28681C5.63814 6.22714 5.60597 6.14621 5.60597 6.06182V2.88C5.60597 2.58465 5.49337 2.30139 5.29296 2.09254C5.09254 1.88369 4.82072 1.76636 4.53728 1.76636C4.25385 1.76636 3.98203 1.88369 3.78161 2.09254C3.58119 2.30139 3.4686 2.58465 3.4686 2.88V9.24364C3.46919 9.27822 3.45894 9.31205 3.43942 9.34002C3.4199 9.36799 3.39216 9.38857 3.36041 9.39864C3.32865 9.40871 3.29462 9.40773 3.26345 9.39583C3.23229 9.38394 3.20569 9.36179 3.18769 9.33273L1.89305 7.42364C1.72641 7.19847 1.48263 7.04923 1.21277 7.00717C0.9429 6.9651 0.667882 7.03348 0.445308 7.19797C0.222733 7.36246 0.0698679 7.61032 0.0187255 7.88962C-0.0324169 8.16893 0.0221309 8.45803 0.170945 8.69636L3.51135 13.6091C3.69156 13.8832 3.93304 14.1075 4.21496 14.2627C4.49688 14.4179 4.81079 14.4993 5.12964 14.5H8.18302C9.19528 14.5 10.1661 14.081 10.8819 13.3351C11.5976 12.5892 11.9998 11.5776 11.9998 10.5227V4.79545C12.0034 4.6208 11.967 4.44776 11.8938 4.29063C11.8205 4.1335 11.7124 3.9968 11.5784 3.89182ZM9.74636 10.7264L7.82883 12.8327C7.77058 12.8936 7.69151 12.928 7.60899 12.9282C7.56797 12.9292 7.52721 12.9212 7.48934 12.9048C7.45147 12.8883 7.41734 12.8638 7.38914 12.8327L5.44719 10.7264C5.23223 10.502 5.09057 10.2128 5.04233 9.89981C4.9941 9.5868 5.04174 9.26591 5.17849 8.98273C5.2732 8.76486 5.41708 8.5741 5.59785 8.42672C5.77862 8.27934 5.99092 8.17972 6.21664 8.13636C6.44377 8.0976 6.6765 8.11608 6.89536 8.19025C7.11422 8.26443 7.31286 8.39215 7.47464 8.56273L7.57845 8.66455L7.67616 8.56273C7.83888 8.39163 8.03856 8.26363 8.25849 8.18945C8.47842 8.11527 8.7122 8.09707 8.94026 8.13636C9.1681 8.1728 9.38397 8.26661 9.56913 8.40966C9.7543 8.55272 9.90317 8.74069 10.0028 8.95727C10.1454 9.24336 10.1962 9.56951 10.1478 9.88789C10.0994 10.2063 9.95447 10.5001 9.73414 10.7264H9.74636Z" fill="#5326EC"/>
</svg>
