<svg width="500" height="500" viewBox="0 0 500 500" fill="none" xmlns="http://www.w3.org/2000/svg">
<g clip-path="url(#clip0_20097_256384)">
<path d="M379.354 382.038C379.735 382.692 380.29 383.227 380.957 383.584C381.624 383.942 382.377 384.108 383.133 384.065C383.889 384.021 384.618 383.769 385.239 383.337C385.86 382.905 386.35 382.31 386.653 381.617C387.061 380.691 387.103 379.645 386.773 378.689C386.592 378.146 386.298 377.647 385.912 377.225C385.526 376.802 385.055 376.466 384.53 376.236C384.005 376.007 383.437 375.891 382.864 375.894C382.291 375.898 381.726 376.021 381.203 376.257C380.681 376.493 380.215 376.835 379.834 377.262C379.452 377.69 379.165 378.192 378.991 378.737C378.817 379.282 378.759 379.857 378.821 380.426C378.884 380.995 379.065 381.544 379.354 382.038Z" fill="#FFE49D"/>
<path d="M399.318 348.496C398.903 348.496 398.495 348.496 398.088 348.58C396.029 348.79 394.04 349.44 392.256 350.487C390.472 351.534 388.935 352.953 387.75 354.647C385.877 357.206 384.934 360.327 385.078 363.494C385.17 367.128 386.649 370.589 389.213 373.17C389.235 373.179 389.259 373.184 389.283 373.184C389.307 373.184 389.331 373.179 389.354 373.17C392.757 369.79 396.154 366.41 399.543 363.031C399.617 362.952 399.659 362.85 399.663 362.743C399.663 357.991 399.663 353.242 399.663 348.496H399.318Z" fill="#5CD3C9"/>
<path d="M415.907 364.997C415.907 365.404 415.865 365.811 415.816 366.219C415.603 368.271 414.947 370.252 413.895 372.028C412.842 373.804 411.418 375.331 409.719 376.505C407.142 378.368 404.009 379.304 400.83 379.159C397.178 379.059 393.699 377.579 391.098 375.017C391.091 374.994 391.091 374.969 391.098 374.946C391.09 374.924 391.09 374.899 391.098 374.876L401.287 364.765C401.37 364.694 401.474 364.652 401.583 364.646H415.907V364.997Z" fill="#5CD3C9"/>
<path d="M367.842 412.87C368.25 412.87 368.665 412.828 369.072 412.779C371.131 412.57 373.12 411.919 374.904 410.872C376.688 409.825 378.225 408.406 379.41 406.712C381.279 404.154 382.222 401.036 382.082 397.872C381.986 394.237 380.508 390.775 377.947 388.189H377.877H377.8C374.401 391.578 371.011 394.958 367.631 398.329C367.554 398.408 367.509 398.513 367.504 398.624C367.504 403.37 367.504 408.119 367.504 412.87H367.842Z" fill="#5CD3C9"/>
<path d="M351.253 396.37C351.253 395.955 351.253 395.548 351.337 395.141C351.645 392.427 352.709 389.854 354.408 387.713C356.107 385.572 358.373 383.95 360.948 383.031C363.524 382.112 366.306 381.932 368.979 382.513C371.652 383.093 374.109 384.41 376.07 386.315C376.076 386.338 376.076 386.362 376.07 386.385C376.076 386.41 376.076 386.437 376.07 386.462L365.88 396.594C365.799 396.665 365.698 396.707 365.591 396.714H351.267L351.253 396.37Z" fill="#5CD3C9"/>
<path d="M367.842 348.496C368.25 348.496 368.665 348.496 369.073 348.58C371.131 348.79 373.12 349.44 374.904 350.487C376.688 351.534 378.225 352.953 379.41 354.647C381.28 357.208 382.223 360.328 382.082 363.494C381.987 367.127 380.508 370.587 377.947 373.17C377.922 373.177 377.895 373.177 377.87 373.17C377.847 373.177 377.823 373.177 377.8 373.17C374.401 369.79 371.006 366.41 367.617 363.031C367.541 362.953 367.496 362.851 367.49 362.743C367.49 357.991 367.49 353.242 367.49 348.496H367.842Z" fill="#5CD3C9"/>
<path d="M351.253 364.997C351.253 365.404 351.253 365.811 351.337 366.218C351.65 368.93 352.717 371.5 354.417 373.637C356.118 375.774 358.385 377.392 360.96 378.308C363.535 379.224 366.315 379.401 368.986 378.819C371.657 378.238 374.111 376.92 376.07 375.017C376.076 374.994 376.076 374.969 376.07 374.946C376.077 374.924 376.077 374.899 376.07 374.876C372.68 371.492 369.284 368.112 365.88 364.737C365.8 364.666 365.698 364.625 365.592 364.618H351.267L351.253 364.997Z" fill="#5CD3C9"/>
<path d="M399.318 412.87C398.903 412.87 398.495 412.828 398.088 412.779C396.029 412.57 394.04 411.919 392.256 410.872C390.472 409.825 388.935 408.406 387.75 406.712C385.878 404.155 384.935 401.037 385.078 397.872C385.171 394.236 386.65 390.773 389.213 388.189H389.283H389.354C392.757 391.569 396.154 394.949 399.543 398.329C399.618 398.409 399.661 398.514 399.663 398.624C399.663 403.37 399.663 408.119 399.663 412.87H399.318Z" fill="#5CD3C9"/>
<path d="M415.907 396.37C415.907 395.955 415.865 395.548 415.816 395.141C415.605 393.087 414.951 391.103 413.899 389.326C412.846 387.549 411.42 386.021 409.719 384.847C407.141 382.984 404.009 382.047 400.83 382.186C397.182 382.278 393.704 383.749 391.098 386.3C391.091 386.323 391.091 386.348 391.098 386.371C391.091 386.396 391.091 386.423 391.098 386.448L401.287 396.58C401.37 396.651 401.474 396.693 401.583 396.7H415.907V396.37Z" fill="#5CD3C9"/>
<path d="M244.869 83.5063L321.921 6.59803C322.746 5.77363 323.725 5.11964 324.804 4.67343C325.882 4.22723 327.037 3.99756 328.204 3.99756C329.372 3.99756 330.527 4.22723 331.605 4.67343C332.683 5.11964 333.663 5.77363 334.488 6.59803L411.484 83.5063C412.726 84.7466 413.572 86.3267 413.914 88.0468C414.257 89.767 414.081 91.55 413.409 93.1703C412.737 94.7907 411.599 96.1756 410.138 97.1501C408.678 98.1246 406.961 98.6448 405.204 98.645H381.787C379.431 98.645 377.172 99.5794 375.506 101.243C373.841 102.906 372.905 105.161 372.905 107.513V320.685C372.905 321.851 372.675 323.004 372.228 324.081C371.782 325.157 371.127 326.135 370.301 326.959C369.476 327.782 368.496 328.436 367.417 328.881C366.339 329.326 365.183 329.555 364.016 329.554H292.336C291.169 329.555 290.014 329.326 288.935 328.881C287.857 328.436 286.877 327.782 286.052 326.959C285.226 326.135 284.571 325.157 284.124 324.081C283.678 323.004 283.448 321.851 283.448 320.685V107.513C283.448 105.161 282.512 102.906 280.846 101.243C279.181 99.5794 276.921 98.645 274.566 98.645H251.148C249.392 98.6448 247.675 98.1246 246.215 97.1501C244.754 96.1756 243.616 94.7907 242.944 93.1703C242.272 91.55 242.096 89.767 242.438 88.0468C242.781 86.3267 243.627 84.7466 244.869 83.5063Z" fill="#FFE49D"/>
<path d="M158.941 117.302L235.966 40.3933C236.791 39.5689 237.77 38.9149 238.848 38.4687C239.926 38.0225 241.082 37.7928 242.249 37.7928C243.416 37.7928 244.572 38.0225 245.65 38.4687C246.728 38.9149 247.708 39.5689 248.532 40.3933L325.557 117.302C326.799 118.542 327.644 120.122 327.987 121.842C328.33 123.562 328.154 125.345 327.482 126.966C326.81 128.586 325.671 129.971 324.211 130.945C322.751 131.92 321.034 132.44 319.277 132.44H295.86C293.504 132.44 291.245 133.375 289.579 135.038C287.914 136.701 286.978 138.957 286.978 141.309V364.481C286.978 365.646 286.748 366.8 286.301 367.876C285.854 368.953 285.199 369.931 284.374 370.754C283.548 371.578 282.568 372.231 281.49 372.676C280.412 373.121 279.256 373.35 278.089 373.349H206.409C205.242 373.35 204.087 373.121 203.008 372.676C201.93 372.231 200.95 371.578 200.124 370.754C199.299 369.931 198.644 368.953 198.197 367.876C197.75 366.8 197.52 365.646 197.52 364.481V141.309C197.52 140.144 197.291 138.991 196.844 137.915C196.398 136.839 195.744 135.861 194.919 135.038C194.094 134.214 193.115 133.561 192.038 133.115C190.96 132.67 189.805 132.44 188.639 132.44H165.221C163.465 132.44 161.748 131.92 160.287 130.945C158.827 129.971 157.689 128.586 157.016 126.966C156.344 125.345 156.168 123.562 156.511 121.842C156.854 120.122 157.699 118.542 158.941 117.302Z" fill="#B9A7FF"/>
<path d="M70.623 141.224L147.647 64.3161C149.314 62.6528 151.574 61.7185 153.931 61.7185C156.287 61.7185 158.547 62.6528 160.214 64.3161L237.238 141.224C238.48 142.465 239.326 144.045 239.669 145.765C240.011 147.485 239.835 149.268 239.163 150.888C238.491 152.509 237.353 153.894 235.893 154.868C234.432 155.843 232.715 156.363 230.959 156.363H207.541C206.374 156.363 205.219 156.593 204.141 157.039C203.063 157.485 202.083 158.139 201.258 158.963C200.433 159.787 199.78 160.766 199.334 161.843C198.888 162.919 198.659 164.073 198.659 165.239V378.411C198.658 380.762 197.721 383.017 196.056 384.679C194.391 386.342 192.133 387.277 189.778 387.279H118.091C116.924 387.279 115.769 387.05 114.692 386.604C113.614 386.158 112.635 385.505 111.81 384.681C110.986 383.858 110.331 382.88 109.885 381.804C109.439 380.728 109.209 379.575 109.209 378.411V165.239C109.209 162.885 108.273 160.627 106.606 158.963C104.939 157.298 102.678 156.363 100.32 156.363H76.9027C75.1463 156.363 73.4293 155.843 71.9689 154.868C70.5085 153.894 69.3703 152.509 68.6981 150.888C68.026 149.268 67.8501 147.485 68.1927 145.765C68.5353 144.045 69.3811 142.465 70.623 141.224Z" fill="#6879D5"/>
<mask id="mask0_20097_256384" style="mask-type:luminance" maskUnits="userSpaceOnUse" x="61" y="151" width="369" height="368">
<path d="M86.8755 151.448L429.894 176.78L404.608 518.139L61.5897 492.807L86.8755 151.448Z" fill="white"/>
</mask>
<g mask="url(#mask0_20097_256384)">
<path d="M412.482 247.662C413.353 233.546 412.526 219.376 410.021 205.455C409.438 202.058 408.118 198.83 406.153 195.997L405.992 195.765C394.445 191.63 377.581 186.082 358.981 183.92C337.997 181.504 314.115 183.309 292.878 196.98C275.663 208.095 257.512 223.964 240.494 241.055C226.889 238.66 213.119 237.313 199.306 237.025C179.616 236.954 156.838 240.388 141.114 255.063C138.575 257.376 137.014 260.567 136.747 263.988C136.605 265.936 136.881 267.891 137.556 269.724C138.426 272.065 139.85 274.16 141.708 275.831C143.566 277.501 145.802 278.697 148.224 279.316C157.067 281.618 165.716 284.611 174.089 288.269C179.961 290.804 185.514 294.018 190.636 297.846C182.715 307.876 175.38 318.353 168.667 329.226C167.401 331.341 166.648 333.721 166.466 336.178C166.152 340.598 167.609 344.962 170.516 348.311L174.841 353.31L165.636 355.417C164.834 355.55 164.054 355.698 163.273 355.838C96.7196 367.958 81.9167 383.391 81.122 394.162C80.5524 401.816 87.0995 407.096 87.0995 407.096C87.0995 407.096 135.777 473.978 154.447 486.589C173.118 499.2 213.174 413.788 213.174 413.788L217.618 402.764L220.825 406.492C223.039 409.113 226.024 410.97 229.355 411.8C232.687 412.631 236.195 412.393 239.383 411.12C251.113 406.099 262.543 400.407 273.616 394.071C276.542 399.576 278.835 405.395 280.452 411.415C282.857 420.213 284.552 429.19 285.522 438.258C285.789 440.747 286.657 443.134 288.052 445.213C289.448 447.293 291.328 449.002 293.532 450.195C295.887 451.492 298.577 452.057 301.256 451.817C303.935 451.576 306.48 450.542 308.567 448.847C325.444 435.457 332.167 413.465 334.98 394.008C335.62 389.619 336.077 385.21 336.386 380.934C337.181 370.219 337.09 360.416 337.047 353.416C356.513 339.049 375.113 323.391 388.713 307.922C404.888 289.589 410.942 267.843 412.44 247.648L412.482 247.662ZM418.812 248.126C416.927 273.643 408.397 295.171 393.495 312.142C381.245 326.038 364.417 341.072 343.44 356.611C343.489 363.141 343.44 371.869 342.736 381.404C342.385 386.13 341.9 390.68 341.274 394.942C337.392 421.996 327.716 441.818 312.441 453.875C309.38 456.354 305.648 457.867 301.721 458.221C297.795 458.575 293.852 457.754 290.395 455.862C287.299 454.165 284.659 451.747 282.7 448.813C280.742 445.879 279.521 442.516 279.144 439.01C278.209 430.289 276.584 421.656 274.284 413.191C273.31 409.721 272.136 406.31 270.768 402.975C261.355 408.184 251.677 412.902 241.774 417.109C238.19 418.551 234.295 419.054 230.461 418.57C226.627 418.085 222.981 416.63 219.869 414.343L219.109 416.253V416.428V416.604C218.779 417.306 210.832 434.123 200.199 451.902C177.795 489.594 166.444 492.704 162.724 493.723C160.735 494.326 158.636 494.48 156.58 494.171C154.525 493.863 152.563 493.1 150.84 491.939C132.225 479.37 87.5144 418.556 82.3527 411.429C80.1234 409.371 74.0898 402.947 74.7789 393.692C76.1854 374.46 104.786 359.988 162.162 349.582L163.498 349.336C161.007 345.27 159.836 340.534 160.144 335.777C160.4 332.34 161.452 329.008 163.217 326.045C168.839 316.838 174.942 307.931 181.501 299.363C178.285 297.425 174.947 295.696 171.508 294.188C163.468 290.668 155.16 287.794 146.663 285.593C143.23 284.692 140.068 282.971 137.448 280.578C134.829 278.186 132.832 275.193 131.628 271.859C130.665 269.179 130.27 266.329 130.467 263.489C130.851 258.48 133.111 253.8 136.796 250.38C150.952 237.158 172.007 230.515 199.384 230.607C212.415 230.845 225.411 232.047 238.265 234.202C256.704 215.946 273.883 201.586 289.397 191.587C308.742 179.11 332.399 174.384 359.719 177.544C378.58 179.735 395.5 185.184 408.144 189.713L410.063 190.415L411.259 192.114L411.463 192.402C413.974 195.993 415.656 200.097 416.385 204.416C419.006 218.838 419.861 233.525 418.931 248.154L418.812 248.126Z" fill="#8468FA"/>
<path d="M68.9984 393.264C68.1826 404.372 74.7086 412.089 78.0137 415.249C87.0572 427.621 128.794 483.934 147.563 496.637C149.979 498.257 152.723 499.326 155.6 499.768C158.477 500.21 161.416 500.013 164.208 499.193C168.941 497.901 181.508 494.453 205.087 454.773C213.139 441.236 219.672 428.274 222.583 422.333C229.423 425.178 237.11 425.213 243.975 422.432C250.452 419.799 258.56 415.944 267.674 411.155C268.047 412.32 268.377 413.535 268.764 414.771C271.001 422.914 272.588 431.221 273.511 439.614C273.982 444.052 275.525 448.311 278.006 452.024C280.488 455.737 283.834 458.793 287.758 460.932C292.202 463.364 297.271 464.42 302.318 463.965C307.366 463.51 312.163 461.564 316.098 458.376C332.483 445.378 342.821 424.321 347.04 395.763C347.673 391.368 348.186 386.684 348.545 381.832C349.164 373.477 349.248 365.725 349.248 359.482C369.459 344.266 385.816 329.626 397.855 315.948C413.629 298.029 422.644 275.356 424.627 248.54C425.592 233.448 424.724 218.295 422.039 203.412C421.161 198.276 419.169 193.395 416.203 189.109L413.706 185.598L410.084 184.299C397.096 179.665 379.811 174.089 360.373 171.828C331.71 168.514 306.802 173.528 286.295 186.749C271.049 196.58 254.235 210.483 236.31 228.086C224.134 226.133 211.834 225.053 199.503 224.856C170.622 224.751 148.231 231.934 132.971 246.167C128.21 250.57 125.291 256.607 124.799 263.068C124.532 266.713 125.037 270.374 126.283 273.811C127.81 277.996 130.33 281.75 133.629 284.748C136.927 287.747 140.905 289.902 145.221 291.028C153.406 293.166 161.412 295.936 169.166 299.314C170.495 299.918 171.768 300.529 173.02 301.076C166.88 309.502 161.845 316.931 158.252 322.984C156.032 326.706 154.713 330.895 154.398 335.216C154.164 338.483 154.499 341.767 155.39 344.919C98.1401 356.049 70.6158 371.454 68.9984 393.264ZM207.956 411.52C195.073 438.834 171.578 478.647 159.497 481.926C158.315 482.256 157.907 481.989 157.64 481.793C143.048 471.963 105.144 422.053 91.7618 403.677L91.3188 403.052L90.728 402.581C90.728 402.581 86.5509 399.014 86.8814 394.542C87.2119 390.069 93.7871 374.34 164.321 361.491L166.979 360.992L185.439 356.611L174.932 344.442C173.468 342.774 172.559 340.693 172.331 338.487C172.103 336.28 172.567 334.057 173.66 332.126C180.233 321.452 187.42 311.166 195.185 301.322L198.701 296.786L194.166 293.275C188.686 289.16 182.74 285.703 176.451 282.974C167.802 279.188 158.866 276.089 149.729 273.706C148.204 273.332 146.793 272.591 145.62 271.549C144.447 270.506 143.547 269.193 142.999 267.723C142.606 266.648 142.443 265.502 142.521 264.36C142.677 262.384 143.589 260.544 145.066 259.22C156.881 248.182 175.129 242.642 199.306 242.726C212.781 242.997 226.216 244.307 239.489 246.644L242.414 247.115L244.566 245.008C263.265 226.239 280.564 211.669 295.986 201.706C312.906 190.808 333.862 186.742 358.278 189.537C375.043 191.482 390.38 196.271 402.208 200.428C403.258 202.263 403.972 204.269 404.318 206.354C406.773 219.81 407.58 233.514 406.723 247.164C405.035 269.984 397.511 289.125 384.375 304.039C372.188 317.935 355.106 332.955 333.658 348.697L331.274 350.446V353.409C331.337 359.89 331.429 369.692 330.634 380.435C330.31 384.852 329.839 389.149 329.27 393.116C325.81 416.99 317.631 434.221 304.959 444.269C303.761 445.271 302.288 445.887 300.732 446.036C299.177 446.185 297.613 445.86 296.246 445.105C294.881 444.337 293.721 443.252 292.864 441.942C292.007 440.631 291.479 439.135 291.324 437.577C290.311 428.199 288.554 418.915 286.07 409.814C284.332 403.372 281.872 397.146 278.736 391.255L275.923 386.193L270.867 389.002C260.001 395.224 248.787 400.82 237.281 405.762C235.207 406.567 232.933 406.704 230.777 406.156C228.621 405.607 226.69 404.399 225.255 402.701L215.853 391.81L207.956 411.52Z" fill="#8668FC"/>
<path d="M358.946 183.906C377.546 186.061 394.41 191.629 405.985 195.737C405.985 195.737 408.284 196.173 408.369 196.594C408.973 196.811 409.072 200.224 409.072 200.224C413.889 225.523 419.515 272.933 388.721 307.929C375.113 323.377 356.52 339.056 337.054 353.423C337.39 366.987 336.684 380.558 334.945 394.015C332.132 413.472 325.388 435.443 308.532 448.854C306.437 450.558 303.881 451.597 301.19 451.838C298.5 452.08 295.798 451.513 293.433 450.209C291.231 449.016 289.352 447.306 287.958 445.226C286.564 443.147 285.697 440.761 285.431 438.273C284.454 429.205 282.759 420.229 280.36 411.429C278.743 405.409 276.45 399.591 273.525 394.085C262.454 400.425 251.024 406.117 239.292 411.134C236.104 412.41 232.594 412.651 229.261 411.821C225.928 410.992 222.942 409.135 220.727 406.514L217.52 402.785L213.146 413.823C213.146 413.823 173.02 499.192 154.419 486.624C135.819 474.055 87.1135 407.117 87.1135 407.117C87.1135 407.117 49.3644 376.65 163.294 355.859C164.075 355.726 164.792 355.571 165.65 355.445L174.897 353.24L170.565 348.248C168.284 345.683 166.875 342.462 166.543 339.048C166.211 335.634 166.972 332.202 168.716 329.247C175.399 318.362 182.709 307.873 190.607 297.832C185.495 294.002 179.951 290.783 174.089 288.241C165.725 284.583 157.086 281.59 148.252 279.288C145.83 278.669 143.594 277.473 141.737 275.802C139.879 274.132 138.454 272.037 137.584 269.696C136.652 267.176 136.493 264.436 137.127 261.825C137.761 259.214 139.159 256.85 141.142 255.035C156.874 240.36 179.644 236.933 199.335 236.996C213.147 237.285 226.917 238.632 240.522 241.027C257.541 223.936 275.684 208.109 292.906 196.952C314.08 183.232 337.94 181.469 358.946 183.906Z" fill="#FFD669"/>
<path d="M412.482 247.662C413.353 233.546 412.526 219.376 410.021 205.455C409.435 202.059 408.115 198.832 406.153 195.997L405.992 195.765C394.445 191.63 377.567 186.075 358.967 183.934C337.983 181.504 314.101 183.302 292.864 196.98C275.649 208.095 257.498 223.964 240.48 241.055C226.875 238.66 213.105 237.313 199.292 237.025C179.602 236.968 156.824 240.388 141.1 255.063C138.557 257.372 136.994 260.565 136.733 263.988C136.592 265.936 136.868 267.891 137.542 269.725C138.412 272.065 139.836 274.16 141.694 275.831C143.552 277.501 145.788 278.697 148.21 279.316C157.059 281.616 165.712 284.609 174.089 288.269C179.967 290.804 185.528 294.018 190.657 297.846C182.731 307.878 175.396 318.36 168.688 329.24C167.422 331.35 166.669 333.725 166.487 336.178C166.331 338.367 166.608 340.565 167.303 342.647C167.998 344.729 169.097 346.653 170.537 348.311L174.862 353.31L165.657 355.417C164.855 355.55 164.075 355.705 163.294 355.838C96.7407 367.958 81.9377 383.391 81.1431 394.162C80.5735 401.83 87.1205 407.096 87.1205 407.096C87.1205 407.096 135.798 473.978 154.469 486.589C173.139 499.2 213.195 413.788 213.195 413.788L217.618 402.764L220.825 406.492C223.039 409.113 226.024 410.97 229.355 411.8C232.687 412.631 236.195 412.393 239.383 411.12C251.116 406.106 262.547 400.414 273.616 394.071C276.542 399.576 278.835 405.395 280.452 411.415C282.857 420.213 284.552 429.19 285.522 438.259C285.793 440.745 286.663 443.129 288.056 445.208C289.449 447.286 291.326 448.997 293.525 450.195C295.884 451.486 298.574 452.046 301.254 451.804C303.933 451.561 306.479 450.527 308.567 448.833C325.444 435.443 332.167 413.451 334.98 393.994C335.62 389.605 336.077 385.196 336.386 380.92C337.181 370.205 337.09 360.402 337.047 353.402C356.513 339.035 375.113 323.377 388.713 307.908C404.888 289.575 410.942 267.829 412.44 247.634L412.482 247.662ZM418.812 248.126C416.927 273.643 408.397 295.171 393.495 312.142C381.245 326.038 364.417 341.072 343.44 356.611C343.489 363.141 343.44 371.869 342.736 381.404C342.385 386.13 341.9 390.68 341.274 394.942C337.392 421.996 327.716 441.818 312.441 453.875C309.38 456.354 305.648 457.867 301.721 458.221C297.795 458.575 293.852 457.754 290.395 455.862C287.299 454.165 284.659 451.747 282.7 448.813C280.742 445.879 279.521 442.516 279.144 439.01C278.209 430.289 276.584 421.656 274.284 413.191C273.31 409.721 272.136 406.31 270.768 402.975C261.355 408.184 251.677 412.902 241.774 417.109C238.19 418.556 234.295 419.061 230.46 418.577C226.625 418.092 222.979 416.635 219.869 414.343L219.109 416.253V416.428V416.604C218.779 417.306 210.832 434.123 200.199 451.916C177.795 489.594 166.444 492.704 162.724 493.723C160.736 494.331 158.636 494.487 156.579 494.178C154.523 493.869 152.561 493.104 150.84 491.939C132.225 479.37 87.5144 418.556 82.3527 411.429C80.1234 409.371 74.0898 402.947 74.7789 393.692C76.1854 374.46 104.786 359.988 162.162 349.582C162.612 349.512 163.048 349.42 163.498 349.336C161.007 345.27 159.836 340.534 160.144 335.777C160.4 332.34 161.452 329.008 163.217 326.045C168.839 316.838 174.942 307.931 181.501 299.363C178.285 297.425 174.947 295.696 171.508 294.188C163.467 290.671 155.159 287.797 146.663 285.593C143.23 284.692 140.068 282.971 137.448 280.578C134.829 278.186 132.832 275.193 131.628 271.859C130.664 269.18 130.269 266.329 130.467 263.489C130.851 258.48 133.111 253.8 136.796 250.38C150.952 237.158 172.007 230.515 199.384 230.607C212.415 230.845 225.411 232.047 238.265 234.202C256.704 215.946 273.883 201.586 289.397 191.587C308.742 179.11 332.399 174.384 359.719 177.544C378.58 179.735 395.5 185.205 408.144 189.713L410.077 190.415L411.273 192.114L411.463 192.381C413.967 195.976 415.648 200.078 416.385 204.395C419.006 218.817 419.861 233.504 418.931 248.133L418.812 248.126Z" fill="white"/>
<path d="M165.987 401.57C166.901 402.626 167.48 403.929 167.653 405.314C167.825 406.698 167.584 408.103 166.958 409.35C166.538 410.177 165.96 410.915 165.256 411.52L135.72 436.931C134.302 438.153 132.456 438.762 130.588 438.624C128.72 438.487 126.983 437.614 125.759 436.198C124.536 434.781 123.926 432.938 124.064 431.073C124.202 429.207 125.076 427.473 126.494 426.251L156.03 400.833C156.731 400.225 157.546 399.762 158.428 399.471C159.309 399.179 160.239 399.064 161.165 399.132C162.09 399.201 162.993 399.452 163.821 399.871C164.649 400.289 165.385 400.867 165.987 401.57Z" fill="#8668FC"/>
<path d="M146.121 390.125L130.805 403.319C129.386 404.542 127.538 405.153 125.668 405.016C123.798 404.879 122.059 404.006 120.833 402.588C119.608 401.171 118.997 399.326 119.134 397.459C119.271 395.592 120.145 393.855 121.565 392.632L136.895 379.445C137.597 378.838 138.412 378.375 139.293 378.083C140.174 377.791 141.104 377.676 142.03 377.744C142.956 377.813 143.858 378.064 144.687 378.483C145.513 378.9 146.249 379.475 146.853 380.176C147.456 380.878 147.915 381.691 148.203 382.57C148.493 383.449 148.608 384.377 148.54 385.301C148.4 387.167 147.525 388.901 146.107 390.125H146.121Z" fill="#8668FC"/>
<path d="M372.989 276.62C365.843 282.698 356.688 285.905 347.305 285.616C337.922 285.328 328.982 281.564 322.224 275.058C315.466 268.553 311.373 259.769 310.742 250.417C310.111 241.065 312.987 231.813 318.809 224.46C324.632 217.108 332.986 212.181 342.245 210.638C351.504 209.095 361.008 211.047 368.906 216.113C376.804 221.179 382.533 228.997 384.977 238.047C387.422 247.097 386.407 256.732 382.131 265.076C379.88 269.491 376.772 273.414 372.989 276.62ZM330.388 263.854C333.411 267.509 337.455 270.182 342.005 271.533C346.555 272.884 351.405 272.853 355.936 271.442C360.468 270.032 364.477 267.306 367.452 263.613C370.427 259.92 372.234 255.426 372.643 250.704C373.051 245.982 372.043 241.245 369.745 237.097C367.448 232.949 363.967 229.578 359.744 227.413C355.522 225.248 350.749 224.387 346.035 224.939C341.32 225.492 336.877 227.433 333.271 230.516C330.885 232.514 328.918 234.963 327.482 237.723C326.047 240.482 325.171 243.498 324.906 246.596C324.64 249.695 324.991 252.815 325.936 255.778C326.882 258.74 328.404 261.488 330.416 263.861L330.388 263.854Z" fill="#8668FC"/>
<path d="M174.398 422.874C175.275 422.109 176.328 421.572 177.464 421.314C178.6 421.056 179.782 421.083 180.904 421.393C182.027 421.704 183.054 422.288 183.895 423.093C184.736 423.898 185.363 424.899 185.72 426.006C186.011 426.888 186.121 427.819 186.043 428.744C185.976 429.668 185.726 430.569 185.309 431.395C184.891 432.222 184.314 432.958 183.61 433.561L168.294 446.755C166.878 447.98 165.032 448.595 163.163 448.463C161.293 448.332 159.552 447.465 158.322 446.053C157.709 445.355 157.241 444.543 156.944 443.663C156.647 442.783 156.528 441.854 156.594 440.928C156.659 440.002 156.908 439.098 157.325 438.269C157.742 437.439 158.32 436.701 159.025 436.096L174.398 422.874Z" fill="#8668FC"/>
<path d="M358.819 183.765C376.667 185.837 392.912 191.026 404.424 195.084C405.36 195.427 406.168 196.05 406.737 196.868C408.213 199.007 409.213 201.437 409.67 203.995C414.241 230.052 417.869 274.527 388.65 307.796C375.001 323.244 356.534 338.937 336.921 353.275C337.285 366.846 336.599 380.424 334.867 393.889C332.054 413.332 325.289 435.316 308.447 448.714C306.361 450.408 303.816 451.442 301.138 451.685C298.46 451.927 295.77 451.367 293.412 450.076C291.211 448.88 289.332 447.17 287.937 445.091C286.542 443.012 285.673 440.627 285.402 438.139C284.423 429.072 282.731 420.097 280.339 411.295C278.719 405.282 276.424 399.471 273.497 393.973C262.418 400.302 250.986 405.994 239.257 411.021C236.068 412.289 232.56 412.523 229.231 411.69C225.902 410.857 222.919 408.999 220.706 406.38L217.485 402.652L213.068 413.69C212.189 415.909 210.754 417.866 208.899 419.372C207.044 420.878 204.833 421.882 202.477 422.289C200.122 422.696 197.701 422.491 195.448 421.695C193.194 420.899 191.184 419.537 189.609 417.741L155.664 378.455C154.119 376.634 153.068 374.447 152.611 372.104C152.155 369.761 152.309 367.34 153.057 365.074C153.806 362.807 155.125 360.77 156.888 359.158C158.651 357.546 160.798 356.412 163.125 355.866L174.707 353.128L170.383 348.114C168.102 345.55 166.693 342.329 166.36 338.915C166.026 335.502 166.785 332.07 168.526 329.114C175.239 318.237 182.577 307.757 190.502 297.727C185.383 293.886 179.826 290.664 173.948 288.128C165.575 284.46 156.921 281.469 148.069 279.183C145.646 278.546 143.412 277.335 141.559 275.652C139.705 273.968 138.286 271.863 137.422 269.514C136.48 267 136.311 264.263 136.938 261.654C137.564 259.044 138.958 256.68 140.939 254.867C156.677 240.177 179.454 236.751 199.145 236.814C212.957 237.102 226.727 238.45 240.333 240.844C257.351 223.754 275.494 207.927 292.716 196.769C313.953 183.147 337.842 181.329 358.819 183.765ZM293.982 407.447C296.596 416.982 298.442 426.71 299.502 436.538C299.522 436.817 299.614 437.085 299.769 437.318L299.882 437.458C312.202 427.522 318.166 410.249 320.873 391.866C322.168 382.4 322.814 372.856 322.807 363.302C318.902 365.98 315.004 368.599 311.112 371.159C302.519 376.777 294.003 382.085 285.796 386.909C289.302 393.42 292.049 400.311 293.982 407.447ZM166.698 369.53L200.108 408.199L207.14 390.645L197.246 379.185L193.934 375.344L185.157 365.17L166.698 369.53ZM180.762 336.269C180.53 336.698 180.446 337.191 180.523 337.673C180.592 338.124 180.801 338.542 181.121 338.867L204.644 366.006L231.472 397.147C231.752 397.53 232.148 397.812 232.602 397.953C233.055 398.093 233.542 398.084 233.989 397.926C237.829 396.353 242.506 394.219 247.801 391.543L189.025 323.496C185.657 328.405 182.851 332.709 180.748 336.269H180.762ZM199.194 250.97C180.586 250.913 162.626 254.291 150.931 265.013L151.058 265.16C151.264 265.333 151.504 265.462 151.761 265.54C161.344 268.027 170.713 271.274 179.778 275.251C186.717 278.267 193.277 282.09 199.32 286.64C205.277 279.309 211.753 271.676 218.568 264.044C221.796 260.477 225.023 256.917 228.336 253.357C218.687 251.899 208.951 251.102 199.194 250.97ZM300.416 208.664C277.154 223.683 251.359 248.512 229.144 273.418C217.091 286.928 206.247 300.255 197.555 311.819L260.677 384.957C273.405 378.069 288.208 369.334 303.37 359.398C331.295 341.142 359.684 319.297 377.982 298.513C402.595 270.518 400.148 232.222 395.844 207.105C383.318 202.647 370.353 199.533 357.167 197.816C338.06 195.562 317.877 197.401 300.416 208.664Z" fill="#8668FC"/>
<path d="M310.937 310.022C306.985 313.388 301.987 315.282 296.795 315.381C291.602 315.48 286.535 313.777 282.458 310.564C278.381 307.351 275.547 302.825 274.438 297.759C273.328 292.692 274.013 287.398 276.375 282.78C278.737 278.161 282.63 274.503 287.39 272.429C292.151 270.355 297.484 269.993 302.482 271.406C307.479 272.819 311.831 275.918 314.796 280.176C317.761 284.434 319.156 289.587 318.742 294.757C318.515 297.69 317.709 300.549 316.369 303.169C315.029 305.789 313.183 308.118 310.937 310.022ZM289.994 298.668C291.045 299.98 292.465 300.949 294.072 301.449C295.678 301.95 297.398 301.959 299.01 301.476C300.214 301.115 301.322 300.49 302.253 299.646C303.184 298.802 303.915 297.761 304.391 296.599C304.867 295.437 305.078 294.184 305.007 292.93C304.936 291.677 304.585 290.455 303.98 289.354C303.375 288.253 302.532 287.302 301.511 286.568C300.491 285.835 299.319 285.338 298.081 285.115C296.844 284.892 295.572 284.948 294.359 285.278C293.146 285.609 292.023 286.206 291.07 287.026C289.381 288.433 288.319 290.451 288.117 292.639C287.915 294.826 288.591 297.004 289.994 298.696V298.668Z" fill="#8668FC"/>
</g>
<path d="M378.7 129.439C379.209 130.315 380.026 130.97 380.992 131.278C381.959 131.589 383.007 131.529 383.932 131.112C384.858 130.694 385.594 129.947 385.999 129.017C386.403 128.089 386.445 127.044 386.117 126.087C385.789 125.13 385.115 124.329 384.227 123.842C383.445 123.397 382.537 123.223 381.646 123.346C380.754 123.47 379.928 123.885 379.297 124.526C378.666 125.167 378.266 125.999 378.157 126.891C378.049 127.784 378.24 128.687 378.7 129.46V129.439Z" fill="#E1458D"/>
<path d="M398.664 95.9172C398.25 95.9172 397.842 95.9172 397.434 96.0085C395.374 96.2157 393.384 96.8644 391.599 97.9102C389.813 98.956 388.275 100.374 387.089 102.068C385.221 104.63 384.281 107.75 384.424 110.915C384.516 114.549 385.995 118.011 388.559 120.591C388.58 120.605 388.604 120.613 388.629 120.613C388.654 120.613 388.679 120.605 388.7 120.591L398.889 110.459C398.962 110.377 399.004 110.273 399.009 110.164C399.009 105.417 399.009 100.669 399.009 95.9172H398.664Z" fill="#2FC8E0"/>
<path d="M415.253 112.404C415.253 112.811 415.211 113.226 415.162 113.626C414.948 115.678 414.293 117.66 413.241 119.435C412.188 121.211 410.764 122.738 409.065 123.913C406.488 125.776 403.355 126.711 400.176 126.567C396.528 126.477 393.05 125.009 390.444 122.459C390.437 122.434 390.437 122.407 390.444 122.382C390.437 122.359 390.437 122.335 390.444 122.312C393.838 118.927 397.234 115.55 400.633 112.179C400.713 112.103 400.819 112.06 400.929 112.06H415.253V112.404Z" fill="#2FC8E0"/>
<path d="M367.188 160.278C367.596 160.278 368.011 160.236 368.418 160.187C370.477 159.98 372.467 159.332 374.251 158.286C376.035 157.24 377.572 155.821 378.756 154.127C380.626 151.566 381.569 148.446 381.428 145.279C381.333 141.646 379.854 138.186 377.293 135.604C377.27 135.597 377.246 135.597 377.223 135.604C377.198 135.596 377.171 135.596 377.146 135.604C373.751 138.974 370.357 142.351 366.963 145.736C366.887 145.816 366.843 145.921 366.836 146.031C366.836 150.777 366.836 155.526 366.836 160.278H367.188Z" fill="#2FC8E0"/>
<path d="M350.599 143.777C350.599 143.37 350.634 142.955 350.683 142.555C350.994 139.845 352.059 137.276 353.757 135.138C355.455 133.001 357.718 131.381 360.291 130.462C362.863 129.543 365.642 129.361 368.312 129.937C370.983 130.513 373.439 131.824 375.402 133.722C375.409 133.747 375.409 133.774 375.402 133.799C375.408 133.822 375.408 133.846 375.402 133.869C372.012 137.254 368.615 140.631 365.212 144.002C365.135 144.078 365.032 144.121 364.923 144.121H350.599V143.777Z" fill="#2FC8E0"/>
<path d="M367.188 95.9172C367.596 95.9172 368.011 95.9172 368.418 96.0085C370.477 96.2149 372.467 96.8632 374.251 97.9091C376.035 98.9551 377.572 100.374 378.756 102.068C380.626 104.629 381.569 107.749 381.428 110.915C381.333 114.549 379.854 118.009 377.293 120.591C377.268 120.599 377.241 120.599 377.216 120.591C377.193 120.598 377.169 120.598 377.146 120.591L366.956 110.459C366.886 110.376 366.844 110.273 366.836 110.164C366.836 105.417 366.836 100.669 366.836 95.9172H367.188Z" fill="#2FC8E0"/>
<path d="M350.599 112.404C350.599 112.811 350.634 113.226 350.683 113.626C350.994 116.336 352.059 118.905 353.757 121.042C355.455 123.18 357.718 124.8 360.291 125.719C362.863 126.638 365.642 126.82 368.312 126.244C370.983 125.668 373.439 124.357 375.402 122.459C375.408 122.434 375.408 122.407 375.402 122.382C375.408 122.359 375.408 122.335 375.402 122.312C372.012 118.927 368.615 115.55 365.212 112.179C365.135 112.103 365.032 112.06 364.923 112.06H350.599V112.404Z" fill="#2FC8E0"/>
<path d="M398.664 160.278C398.25 160.278 397.842 160.236 397.434 160.186C395.374 159.979 393.384 159.331 391.599 158.285C389.813 157.239 388.275 155.821 387.089 154.127C385.221 151.565 384.281 148.445 384.424 145.279C384.516 141.646 385.995 138.184 388.559 135.604C388.58 135.59 388.604 135.582 388.629 135.582C388.654 135.582 388.679 135.59 388.7 135.604C392.103 138.974 395.5 142.363 398.889 145.771C398.96 145.854 399.003 145.957 399.009 146.066C399.009 150.813 399.009 155.562 399.009 160.313L398.664 160.278Z" fill="#2FC8E0"/>
<path d="M415.253 143.777C415.253 143.37 415.211 142.955 415.162 142.555C414.948 140.503 414.293 138.521 413.241 136.746C412.188 134.97 410.764 133.443 409.065 132.268C406.487 130.408 403.354 129.475 400.176 129.621C396.528 129.711 393.05 131.179 390.444 133.729C390.436 133.754 390.436 133.781 390.444 133.806C390.437 133.829 390.437 133.853 390.444 133.876C393.838 137.261 397.234 140.638 400.633 144.009C400.713 144.085 400.819 144.127 400.929 144.128H415.253V143.777Z" fill="#2FC8E0"/>
<path d="M87.9505 342.946C88.4595 343.823 89.2767 344.478 90.2431 344.786C91.2098 345.097 92.2577 345.037 93.1831 344.619C94.1084 344.202 94.8451 343.455 95.25 342.525C95.6538 341.597 95.6959 340.552 95.3681 339.595C95.0402 338.638 94.3661 337.837 93.4779 337.35C92.6958 336.905 91.7882 336.73 90.8964 336.854C90.0047 336.978 89.179 337.392 88.548 338.034C87.917 338.675 87.5162 339.507 87.4082 340.399C87.3001 341.291 87.4908 342.195 87.9505 342.967V342.946Z" fill="#5CD3C9"/>
<path d="M107.915 309.411C107.5 309.411 107.092 309.453 106.685 309.502C104.626 309.709 102.636 310.357 100.852 311.403C99.0677 312.449 97.5309 313.868 96.3471 315.562C94.4736 318.121 93.531 321.242 93.6748 324.409C93.7665 328.043 95.2457 331.505 97.8098 334.085C97.8306 334.099 97.8551 334.106 97.8801 334.106C97.9052 334.106 97.9296 334.099 97.9504 334.085L108.14 323.953C108.215 323.873 108.258 323.768 108.26 323.658C108.26 318.911 108.26 314.162 108.26 309.411H107.915Z" fill="#FD67AC"/>
<path d="M124.504 325.912C124.504 326.319 124.462 326.733 124.413 327.134C124.199 329.186 123.544 331.168 122.491 332.943C121.439 334.719 120.015 336.246 118.316 337.42C115.739 339.284 112.605 340.219 109.427 340.075C105.779 339.985 102.301 338.517 99.6943 335.967C99.6877 335.942 99.6877 335.915 99.6943 335.89C99.6876 335.867 99.6876 335.842 99.6943 335.819C103.089 332.435 106.485 329.058 109.884 325.687C109.963 325.611 110.069 325.568 110.179 325.568H124.504V325.912Z" fill="#FD67AC"/>
<path d="M76.4386 373.786C76.8464 373.786 77.2613 373.743 77.6692 373.694C79.7279 373.488 81.7176 372.84 83.5018 371.794C85.2861 370.748 86.8228 369.329 88.0066 367.635C89.877 365.074 90.8194 361.954 90.6789 358.787C90.5838 355.154 89.105 351.694 86.5439 349.111C86.5209 349.105 86.4967 349.105 86.4736 349.111C86.4484 349.104 86.4216 349.104 86.3963 349.111L76.2135 359.23C76.138 359.31 76.0932 359.414 76.087 359.525C76.087 364.271 76.087 369.02 76.087 373.772L76.4386 373.786Z" fill="#FD67AC"/>
<path d="M59.8496 357.285C59.8496 356.877 59.8496 356.463 59.9339 356.063C60.2452 353.353 61.31 350.783 63.008 348.646C64.706 346.509 66.9692 344.889 69.5416 343.97C72.114 343.051 74.8927 342.869 77.5633 343.445C80.2338 344.021 82.6894 345.332 84.6523 347.23C84.6595 347.255 84.6595 347.282 84.6523 347.307C84.6586 347.33 84.6586 347.354 84.6523 347.377C81.2627 350.762 77.8662 354.139 74.4625 357.509C74.3861 357.586 74.2824 357.629 74.1743 357.629H59.8496V357.285Z" fill="#FD67AC"/>
<path d="M76.4386 309.411C76.8464 309.411 77.2613 309.453 77.6692 309.502C79.7279 309.709 81.7176 310.357 83.5018 311.403C85.2861 312.449 86.8228 313.868 88.0066 315.562C89.877 318.123 90.8194 321.243 90.6789 324.409C90.5838 328.042 89.105 331.503 86.5439 334.085C86.5209 334.091 86.4967 334.091 86.4736 334.085C86.4484 334.092 86.4216 334.092 86.3963 334.085L76.2135 323.953C76.138 323.872 76.0932 323.768 76.087 323.658C76.087 318.911 76.087 314.162 76.087 309.411H76.4386Z" fill="#FD67AC"/>
<path d="M59.8495 325.912C59.8495 326.319 59.8495 326.733 59.9339 327.134C60.2451 329.844 61.31 332.413 63.008 334.55C64.7059 336.688 66.9692 338.307 69.5416 339.227C72.1139 340.146 74.8927 340.328 77.5633 339.752C80.2338 339.176 82.6894 337.865 84.6523 335.967C84.6585 335.942 84.6585 335.915 84.6523 335.89C84.6586 335.867 84.6586 335.842 84.6523 335.819C81.2627 332.435 77.8661 329.058 74.4625 325.687C74.3861 325.611 74.2824 325.568 74.1743 325.568H59.8495V325.912Z" fill="#FD67AC"/>
<path d="M107.915 373.786C107.5 373.786 107.092 373.743 106.685 373.694C104.626 373.488 102.636 372.84 100.852 371.794C99.0677 370.748 97.5309 369.329 96.3471 367.635C94.4767 365.074 93.5344 361.954 93.6748 358.787C93.7665 355.153 95.2457 351.692 97.8098 349.111C97.8306 349.098 97.8551 349.09 97.8801 349.09C97.9052 349.09 97.9296 349.098 97.9504 349.111L108.14 359.23C108.214 359.311 108.256 359.415 108.26 359.525C108.26 364.271 108.26 369.02 108.26 373.772L107.915 373.786Z" fill="#FD67AC"/>
<path d="M124.504 357.285C124.504 356.877 124.462 356.463 124.413 356.063C124.199 354.011 123.544 352.029 122.491 350.253C121.439 348.478 120.015 346.951 118.316 345.776C115.739 343.913 112.605 342.977 109.427 343.122C105.779 343.212 102.301 344.68 99.6943 347.23C99.6877 347.255 99.6877 347.282 99.6943 347.307C99.6876 347.33 99.6876 347.354 99.6943 347.377C103.089 350.762 106.485 354.139 109.884 357.509C109.963 357.586 110.069 357.628 110.179 357.629H124.504V357.285Z" fill="#FD67AC"/>
</g>
<defs>
<clipPath id="clip0_20097_256384">
<rect width="500" height="500" fill="white" transform="matrix(-1 0 0 1 500 0)"/>
</clipPath>
</defs>
</svg>
