<svg width="16" height="17" viewBox="0 0 16 17" fill="none" xmlns="http://www.w3.org/2000/svg">
<path d="M8 2C4.41031 2 1.5 4.91031 1.5 8.5C1.5 12.0897 4.41031 15 8 15C11.5897 15 14.5 12.0897 14.5 8.5C14.5 4.91031 11.5897 2 8 2Z" stroke="black" stroke-miterlimit="10"/>
<path d="M8 2C6.18531 2 4.47906 4.91031 4.47906 8.5C4.47906 12.0897 6.18531 15 8 15C9.81469 15 11.5209 12.0897 11.5209 8.5C11.5209 4.91031 9.81469 2 8 2Z" stroke="black" stroke-miterlimit="10"/>
<path d="M3.66656 4.1665C4.86156 5.01494 6.36594 5.52088 8 5.52088C9.63406 5.52088 11.1384 5.01494 12.3334 4.1665M12.3334 12.8334C11.1384 11.9849 9.63406 11.479 8 11.479C6.36594 11.479 4.86156 11.9849 3.66656 12.8334" stroke="black" stroke-linecap="round" stroke-linejoin="round"/>
<path d="M8 2V15M14.5 8.5H1.5" stroke="black" stroke-miterlimit="10"/>
</svg>
