<svg width="16" height="17" viewBox="0 0 16 17" fill="none" xmlns="http://www.w3.org/2000/svg">
<path d="M8 2C4.41031 2 1.5 4.91031 1.5 8.5C1.5 12.0897 4.41031 15 8 15C11.5897 15 14.5 12.0897 14.5 8.5C14.5 4.91031 11.5897 2 8 2Z" stroke="#A3B0F6" stroke-miterlimit="10"/>
<path d="M7.99994 2C6.18525 2 4.479 4.91031 4.479 8.5C4.479 12.0897 6.18525 15 7.99994 15C9.81463 15 11.5209 12.0897 11.5209 8.5C11.5209 4.91031 9.81463 2 7.99994 2Z" stroke="#A3B0F6" stroke-miterlimit="10"/>
<path d="M3.6665 4.1665C4.8615 5.01494 6.36588 5.52088 7.99994 5.52088C9.634 5.52088 11.1384 5.01494 12.3334 4.1665M12.3334 12.8334C11.1384 11.9849 9.634 11.479 7.99994 11.479C6.36588 11.479 4.8615 11.9849 3.6665 12.8334" stroke="#A3B0F6" stroke-linecap="round" stroke-linejoin="round"/>
<path d="M8 2V15M14.5 8.5H1.5" stroke="#A3B0F6" stroke-miterlimit="10"/>
</svg>
