<svg width="103" height="63" viewBox="0 0 103 63" fill="none" xmlns="http://www.w3.org/2000/svg">
<path d="M98.7969 0.0556129L75.1616 4.50098C72.3429 5.04323 71.2585 8.51228 73.3185 10.4642L79.1728 16.3184L56.188 39.4116L39.4919 22.7148C37.4317 20.6546 34.0709 20.6546 32.0108 22.7148L1.54511 53.072C-0.515038 55.1322 -0.515038 58.493 1.54511 60.5531C2.52071 61.5287 3.93033 62.0709 5.23116 62.0709C6.53199 62.0709 7.94163 61.5287 8.9172 60.5531L35.5882 33.8821L52.5014 50.579C54.5615 52.6391 57.9223 52.6391 59.9824 50.579L86.6535 23.9079L92.5077 29.7622C94.5678 31.8223 98.0369 30.7378 98.4709 27.9191L102.916 4.28385C103.458 1.79041 101.29 -0.377771 98.7962 0.0555169L98.7969 0.0556129Z" fill="#FED670"/>
</svg>
