<svg width="217" height="102" viewBox="0 0 217 102" fill="none" xmlns="http://www.w3.org/2000/svg">
<path d="M138.037 20.4317C137.16 19.7893 136.142 19.3669 135.068 19.2002C133.994 19.0334 132.896 19.1271 131.865 19.4733C131.677 19.543 131.513 19.6681 131.397 19.8323C131.281 19.9965 131.217 20.1921 131.214 20.3933V39.2533C131.214 39.7617 131.012 40.2492 130.652 40.6086C130.293 40.9681 129.805 41.17 129.297 41.17C128.789 41.17 128.301 40.9681 127.942 40.6086C127.582 40.2492 127.38 39.7617 127.38 39.2533V14.3367C127.384 13.2811 127.135 12.24 126.655 11.2999C126.175 10.3598 125.477 9.54791 124.62 8.93167C123.73 8.27049 122.692 7.83744 121.596 7.67037C120.5 7.50331 119.38 7.60733 118.334 7.97333C118.145 8.04297 117.982 8.16812 117.865 8.33233C117.749 8.49655 117.685 8.69212 117.682 8.89333V33.5033C117.682 34.0117 117.48 34.4992 117.121 34.8586C116.761 35.2181 116.274 35.42 115.765 35.42C115.257 35.42 114.77 35.2181 114.41 34.8586C114.051 34.4992 113.849 34.0117 113.849 33.5033V6.67C113.829 4.92023 113.131 3.24646 111.901 2.00197C110.67 0.757491 109.005 0.0396621 107.255 0C106.482 0.00282398 105.716 0.145686 104.994 0.421667C104.812 0.485878 104.655 0.60552 104.545 0.763711C104.435 0.921901 104.377 1.11065 104.38 1.30333V33.5033C104.38 34.0117 104.178 34.4992 103.819 34.8586C103.46 35.2181 102.972 35.42 102.464 35.42C101.955 35.42 101.468 35.2181 101.108 34.8586C100.749 34.4992 100.547 34.0117 100.547 33.5033V14.3367C100.547 12.5575 99.8402 10.8512 98.5822 9.59316C97.3241 8.3351 95.6178 7.62833 93.8387 7.62833C92.0595 7.62833 90.3532 8.3351 89.0952 9.59316C87.8371 10.8512 87.1303 12.5575 87.1303 14.3367V52.67C87.134 52.8783 87.0697 53.0821 86.9472 53.2506C86.8246 53.4191 86.6505 53.5431 86.4512 53.6037C86.2519 53.6644 86.0382 53.6584 85.8426 53.5868C85.647 53.5151 85.48 53.3817 85.367 53.2067L77.2403 41.7067C76.1943 40.3503 74.664 39.4513 72.97 39.1979C71.276 38.9445 69.5497 39.3564 68.1526 40.3473C66.7554 41.3382 65.7959 42.8312 65.4748 44.5137C65.1538 46.1962 65.4962 47.9376 66.4303 49.3733L87.3987 78.9667C88.5299 80.6178 90.0457 81.969 91.8154 82.9039C93.5851 83.8388 95.5555 84.3294 97.557 84.3333H116.724C123.078 84.3333 129.172 81.8092 133.665 77.3161C138.158 72.823 140.682 66.7291 140.682 60.375V25.875C140.705 24.8229 140.477 23.7805 140.017 22.834C139.557 21.8875 138.878 21.064 138.037 20.4317ZM126.537 61.6017L114.5 74.29C114.135 74.6569 113.638 74.8637 113.12 74.865C112.863 74.8711 112.607 74.823 112.369 74.724C112.132 74.6249 111.917 74.4771 111.74 74.29L99.5503 61.6017C98.201 60.2503 97.3117 58.5082 97.009 56.6227C96.7062 54.7372 97.0052 52.8042 97.8637 51.0983C98.4582 49.7859 99.3613 48.6368 100.496 47.7491C101.631 46.8613 102.963 46.2612 104.38 46C105.806 45.7665 107.267 45.8778 108.641 46.3246C110.015 46.7715 111.261 47.5408 112.277 48.5683L112.929 49.1817L113.542 48.5683C114.563 47.5377 115.817 46.7666 117.197 46.3198C118.578 45.873 120.045 45.7633 121.477 46C122.907 46.2195 124.262 46.7846 125.425 47.6463C126.587 48.508 127.521 49.6403 128.147 50.945C129.042 52.6684 129.36 54.633 129.057 56.5508C128.753 58.4687 127.843 60.2388 126.46 61.6017H126.537Z" fill="#8668FC"/>
<path d="M39.1572 40.9126C38.3055 40.8476 37.4506 40.9881 36.6645 41.3223C35.8784 41.6566 35.1841 42.1748 34.6401 42.8333C34.543 42.9581 34.4859 43.1094 34.4764 43.2673C34.4668 43.4252 34.5053 43.5822 34.5868 43.7178L42.4111 56.3067C42.622 56.646 42.6894 57.0551 42.5986 57.4442C42.5078 57.8332 42.2662 58.1703 41.9269 58.3812C41.5876 58.592 41.1784 58.6595 40.7893 58.5687C40.4003 58.4779 40.0633 58.2363 39.8524 57.897L29.5154 41.2653C29.0797 40.5594 28.4818 39.9676 27.7713 39.5393C27.0609 39.1109 26.2585 38.8584 25.4308 38.8026C24.5625 38.7304 23.6898 38.8721 22.889 39.2152C22.0881 39.5584 21.3836 40.0925 20.8369 40.771C20.7398 40.8958 20.6827 41.0471 20.6732 41.2049C20.6637 41.3628 20.7022 41.5199 20.7836 41.6554L30.9934 58.0824C31.2042 58.4217 31.2717 58.8309 31.1809 59.2199C31.0901 59.6089 30.8485 59.946 30.5092 60.1569C30.1698 60.3678 29.7607 60.4352 29.3716 60.3444C28.9826 60.2536 28.6455 60.012 28.4346 59.6727L17.3025 41.7617C16.5636 40.6018 15.403 39.7743 14.0656 39.454C12.7281 39.1337 11.3186 39.3455 10.1344 40.0448C9.61949 40.3675 9.16729 40.7807 8.79969 41.2646C8.70505 41.3828 8.64993 41.5278 8.64211 41.679C8.63428 41.8303 8.67414 41.9802 8.75607 42.1075L22.1146 63.6007C22.3255 63.94 22.393 64.3492 22.3022 64.7383C22.2114 65.1273 21.9697 65.4643 21.6304 65.6752C21.2911 65.8861 20.8819 65.9536 20.4929 65.8628C20.1038 65.772 19.7668 65.5303 19.5559 65.191L11.6044 52.3975C10.8663 51.2099 9.68664 50.3642 8.32498 50.0463C6.96332 49.7285 5.53118 49.9646 4.34361 50.7027C3.15603 51.4408 2.31032 52.6205 1.99249 53.9821C1.67467 55.3438 1.91079 56.776 2.64889 57.9635L18.5519 83.5507C18.6408 83.6882 18.6824 83.8509 18.6705 84.0142C18.6586 84.1775 18.5938 84.3325 18.486 84.4557C18.3781 84.5788 18.233 84.6635 18.0727 84.6968C17.9124 84.7302 17.7456 84.7104 17.5976 84.6404L7.40219 80.3357C6.14127 79.8643 4.74688 79.8991 3.51103 80.4327C2.27517 80.9664 1.29373 81.9575 0.772229 83.1985C0.250729 84.4395 0.229629 85.8342 0.713345 87.0904C1.19706 88.3467 2.14808 89.367 3.36722 89.9378L29.6405 100.992C31.0806 101.625 32.653 101.898 34.2221 101.788C35.7912 101.678 37.31 101.188 38.6475 100.36L51.4411 92.4085C55.6824 89.7724 58.7029 85.5594 59.838 80.6963C60.973 75.8332 60.1298 70.7184 57.4937 66.4771L43.1809 43.4487C42.7596 42.737 42.1749 42.1359 41.4752 41.6949C40.7756 41.2539 39.981 40.9858 39.1572 40.9126ZM48.5609 73.1641L45.7905 86.627C45.6986 87.0236 45.4531 87.3676 45.1079 87.5833C44.9385 87.6942 44.7478 87.7683 44.5481 87.8008C44.3483 87.8333 44.1439 87.8235 43.9482 87.772L30.5476 84.3599C29.0863 84.0177 27.77 83.2237 26.7856 82.0908C25.8013 80.9578 25.199 79.5435 25.0643 78.0487C24.9166 76.9261 25.0428 75.7844 25.4319 74.7211C25.821 73.6577 26.4616 72.7043 27.299 71.9421C28.1538 71.1948 29.1751 70.663 30.2775 70.3913C31.3799 70.1196 32.5313 70.1159 33.6355 70.3804L34.3249 70.5195L34.4798 69.8556C34.734 68.7439 35.2508 67.7093 35.9869 66.8383C36.723 65.9673 37.6571 65.2853 38.7109 64.8494C39.7566 64.4025 40.8955 64.2176 42.0288 64.3106C43.1621 64.4036 44.2557 64.7717 45.2145 65.383C46.5266 66.1622 47.5545 67.3412 48.1475 68.7473C48.7406 70.1534 48.8675 71.7124 48.5097 73.1959L48.5609 73.1641Z" fill="#8668FC"/>
<path d="M175.67 35.4614C176.538 35.3633 177.416 35.475 178.232 35.7872C179.047 36.0994 179.776 36.603 180.356 37.2555C180.46 37.3794 180.524 37.5318 180.54 37.6927C180.555 37.8536 180.522 38.0155 180.443 38.157L172.919 51.3085C172.716 51.6629 172.662 52.0835 172.77 52.4775C172.877 52.8716 173.136 53.2069 173.491 53.4097C173.845 53.6125 174.266 53.6662 174.66 53.5589C175.054 53.4517 175.389 53.1923 175.592 52.8378L185.533 35.463C185.952 34.7256 186.541 34.0988 187.25 33.6348C187.96 33.1708 188.771 32.8829 189.614 32.7951C190.498 32.6891 191.395 32.8014 192.226 33.1221C193.057 33.4429 193.796 33.9623 194.38 34.635C194.484 34.7589 194.548 34.9113 194.564 35.0723C194.579 35.2332 194.546 35.395 194.468 35.5366L184.649 52.6976C184.446 53.0521 184.392 53.4726 184.5 53.8666C184.607 54.2607 184.866 54.596 185.221 54.7988C185.575 55.0016 185.996 55.0553 186.39 54.9481C186.784 54.8408 187.119 54.5814 187.322 54.227L198.028 35.5156C198.739 34.3032 199.894 33.4147 201.248 33.0377C202.603 32.6607 204.051 32.8247 205.286 33.495C205.824 33.8054 206.302 34.2108 206.695 34.6913C206.796 34.8086 206.858 34.9547 206.872 35.1089C206.885 35.2631 206.85 35.4177 206.771 35.5509L193.924 58.0046C193.722 58.359 193.668 58.7795 193.775 59.1736C193.882 59.5677 194.142 59.903 194.496 60.1058C194.851 60.3086 195.271 60.3623 195.665 60.255C196.059 60.1478 196.395 59.8884 196.597 59.5339L204.244 46.1686C204.954 44.928 206.128 44.0201 207.507 43.6448C208.886 43.2695 210.358 43.4574 211.599 44.1672C212.839 44.877 213.747 46.0506 214.122 47.4298C214.498 48.809 214.31 50.2808 213.6 51.5215L198.306 78.2521C198.221 78.3959 198.184 78.5636 198.202 78.73C198.221 78.8964 198.293 79.0523 198.407 79.1741C198.522 79.296 198.673 79.3771 198.838 79.4051C199.003 79.4332 199.173 79.4068 199.322 79.3298L209.577 74.5529C210.847 74.0245 212.273 74.0081 213.555 74.5072C214.838 75.0064 215.877 75.9824 216.456 77.2307C217.035 78.4791 217.109 79.9031 216.661 81.2044C216.214 82.5057 215.28 83.5835 214.056 84.2119L187.628 96.4822C186.18 97.1822 184.584 97.5197 182.977 97.4656C181.37 97.4115 179.8 96.9674 178.403 96.1716L165.038 88.5247C160.607 85.9896 157.364 81.7982 156.024 76.8725C154.683 71.9468 155.354 66.6903 157.89 62.2595L171.654 38.2019C172.058 37.4592 172.633 36.8234 173.331 36.3468C174.03 35.8703 174.831 35.5668 175.67 35.4614ZM167.264 68.7583L170.595 82.4083C170.703 82.8101 170.967 83.1523 171.328 83.3599C171.505 83.4668 171.702 83.5354 171.908 83.5612C172.113 83.5869 172.321 83.5693 172.52 83.5095L186.082 79.5251C187.562 79.1212 188.877 78.2611 189.841 77.0671C190.804 75.8731 191.367 74.4059 191.449 72.8738C191.558 71.7215 191.386 70.5599 190.949 69.4881C190.512 68.4163 189.822 67.4662 188.939 66.7187C188.038 65.9871 186.975 65.4818 185.838 65.2453C184.702 65.0088 183.526 65.0478 182.407 65.3591L181.708 65.5268L181.525 64.8545C181.224 63.7282 180.658 62.6905 179.873 61.8281C179.089 60.9657 178.109 60.3038 177.017 59.8977C175.932 59.4801 174.762 59.3336 173.607 59.4707C172.453 59.6079 171.35 60.0247 170.393 60.6848C169.081 61.5296 168.075 62.7724 167.522 64.2308C166.968 65.6893 166.897 67.2867 167.317 68.7888L167.264 68.7583Z" fill="#8668FC"/>
</svg>
