<svg width="128" height="128" viewBox="0 0 128 128" fill="none" xmlns="http://www.w3.org/2000/svg">
<path d="M94.92 8.95996C73.01 8.95996 64.96 31.35 64.96 31.35C64.96 31.35 57.02 8.95996 34.95 8.95996C18.37 8.95996 -0.529991 22.1 6.45001 51.97C13.43 81.84 65.01 119.05 65.01 119.05C65.01 119.05 116.4 81.84 123.39 51.97C130.38 22.1 112.83 8.95996 94.92 8.95996V8.95996Z" fill="#E1458D"/>
<path d="M6.44961 51.96C7.36961 55.88 9.05961 59.93 11.2996 64H118.57C120.8 59.93 122.49 55.88 123.4 51.97C123.91 49.8 124.27 47.74 124.53 45.74H5.34961C5.58961 47.73 5.94961 49.8 6.44961 51.96V51.96Z" fill="#FFC107"/>
<path d="M28.6299 49.7501L45.0099 47.6101C50.0399 53.9001 58.7199 61.2501 66.7099 66.0501C67.4299 66.4801 67.2699 67.5601 66.4599 67.7801L59.5899 71.1901L59.5099 80.8501C59.6799 81.6601 58.7999 82.2801 58.0899 81.8601C53.2099 78.9801 45.8099 72.2801 39.3599 65.8501C32.9099 59.4201 28.6299 49.7501 28.6299 49.7501V49.7501Z" fill="#FFE02E"/>
<path d="M35.2897 43.8799L22.3597 54.1699C23.3897 62.1599 22.6297 73.5099 20.5397 82.5899C20.3497 83.4099 21.2397 84.0499 21.9597 83.6099L29.1897 81.0499L36.1897 87.6999C36.6597 88.3899 37.7097 88.1899 37.9097 87.3799C39.2297 81.8699 39.5597 71.8999 39.4197 62.7899C39.2797 53.6799 35.2897 43.8799 35.2897 43.8799V43.8799Z" fill="#FFE02E"/>
<path d="M50.4504 53.4899C48.3904 51.4999 46.5304 49.4999 45.0204 47.6099L35.2904 43.8899L22.3604 54.1699C22.7404 57.1499 22.8804 60.5899 22.7904 64.2099C25.4904 65.0199 32.2904 67.5299 39.3204 73.7899C39.4104 71.2299 39.4503 68.5699 39.4403 65.9199C39.6603 66.1399 39.8904 66.3599 40.1104 66.5899C39.0404 65.5199 36.7904 63.1799 35.6104 61.3699C35.6104 61.3799 45.8604 58.7099 50.4504 53.4899Z" fill="#FFC107"/>
<path d="M16.5902 73.1101C13.0502 74.0901 8.63023 67.6701 5.37023 60.0401C2.11023 52.4101 2.53023 45.9101 4.76023 45.2901C8.15023 43.6301 12.1602 43.35 17.3902 43.64C20.7802 44.16 24.2402 45.1401 27.3202 46.2001C30.7902 47.3901 31.1902 57.0601 31.1902 57.0601C25.4702 67.1601 21.5502 71.7401 16.5902 73.1101V73.1101Z" fill="#FFE02E"/>
<path d="M30.2497 56.0701C30.2497 56.0701 20.0797 62.3601 16.8797 65.3001C12.3597 69.4501 12.1397 72.4201 14.9197 73.0801C22.3797 74.8601 31.3197 57.4001 31.3197 57.4001L30.2497 56.0701Z" fill="#FFA000"/>
<path d="M56.7802 54.67C59.9502 52.81 58.5002 45.14 55.3802 37.46C52.2602 29.78 47.3502 25.52 45.3502 26.69C41.8002 27.96 38.8002 30.65 35.3302 34.61C33.3302 37.41 31.6002 40.58 30.1902 43.53C28.6002 46.86 35.1802 53.92 35.1802 53.92C46.3402 56.88 52.3402 57.27 56.7802 54.67Z" fill="#FFE02E"/>
<path d="M35.1299 52.55C35.1299 52.55 46.7199 49.65 51.0399 49.4C57.1499 49.06 59.4099 50.98 57.9299 53.44C53.9699 60.05 35.3299 54.24 35.3299 54.24L35.1299 52.55Z" fill="#FFA000"/>
<path d="M118.56 64C120.79 59.93 122.48 55.88 123.39 51.97C123.9 49.8 124.26 47.74 124.52 45.74H62.2604C62.8604 54.08 58.6904 56.12 58.6904 56.12L67.1704 64H118.56Z" fill="#FFE02E"/>
<path d="M30.4804 56.9799C27.0804 55.4599 25.0904 50.1399 24.8104 47.3099C24.5304 44.4699 29.0104 42.5099 30.0004 43.1199C31.0004 43.7299 36.1504 52.6899 36.1504 54.0499C36.1504 55.4099 32.6904 57.9699 30.4804 56.9799V56.9799Z" fill="#FFF685"/>
</svg>
