<svg width="57" height="56" viewBox="0 0 57 56" fill="none" xmlns="http://www.w3.org/2000/svg">
<path d="M56.6043 28.6913C56.5494 29.4783 56.5301 30.2703 56.4337 31.0515C55.4123 39.3472 51.5433 45.9946 44.7517 50.8622C39.6784 54.4993 33.9523 56.1967 27.7155 55.9808C20.5033 55.7328 14.2855 53.0483 9.07168 48.0569C9.02371 48.0109 9.02487 47.8271 9.07168 47.778C15.5747 41.2642 22.0837 34.757 28.5988 28.2564C28.7529 28.1153 28.9522 28.0338 29.1609 28.0265C38.3095 28.0152 47.458 28.012 56.6063 28.0169L56.6043 28.6913Z" fill="white"/>
<path d="M29.2877 0C30.0568 0.0584258 30.8275 0.0924753 31.594 0.175278C36.082 0.661773 40.2153 2.14344 43.994 4.62028C44.0196 4.63954 44.0442 4.66021 44.0675 4.68219L41.6788 7.06604C41.1588 7.58491 40.6423 8.10726 40.1161 8.61955C40.0829 8.64107 40.0449 8.65412 40.0054 8.65756C39.966 8.661 39.9263 8.65472 39.8898 8.63929C36.0856 6.45057 31.9907 5.44392 27.6051 5.61933C17.7929 6.01477 9.23904 12.9643 6.88632 22.4939C5.43004 28.3984 6.2402 34.0077 9.23904 39.302C9.26767 39.3523 9.26922 39.4634 9.23478 39.4955C7.933 40.8069 6.62671 42.115 5.3159 43.4197C5.30313 43.4325 5.28727 43.4429 5.25748 43.4669C5.13406 43.2757 5.00986 43.0908 4.89302 42.902C1.65895 37.6738 0.231297 31.9914 0.693252 25.8579C1.65624 13.1075 11.1461 2.66166 23.7736 0.443417C25.0504 0.219387 26.3561 0.162509 27.648 0.0282456L27.9119 0L29.2877 0Z" fill="white"/>
<path d="M43.481 16.9031C43.4832 15.7387 43.8889 14.6111 44.6289 13.7121C45.3689 12.8131 46.3976 12.1984 47.5398 11.9726C48.682 11.7467 49.8672 11.9238 50.8936 12.4735C51.9201 13.0232 52.7243 13.9116 53.1694 14.9876C53.6145 16.0636 53.673 17.2606 53.335 18.3748C52.997 19.4891 52.2833 20.4518 51.3154 21.099C50.3475 21.7463 49.1852 22.0381 48.0264 21.9248C46.8676 21.8114 45.7839 21.3 44.9597 20.4776C44.4903 20.0083 44.1181 19.451 43.8643 18.8376C43.6106 18.2243 43.4803 17.5669 43.481 16.9031Z" fill="white"/>
</svg>
