<svg width="56" height="56" viewBox="0 0 56 56" fill="none" xmlns="http://www.w3.org/2000/svg">
<path d="M55.9959 28.6913C55.941 29.4783 55.9217 30.2703 55.8253 31.0515C54.8039 39.3472 50.9349 45.9946 44.1433 50.8622C39.07 54.4993 33.3439 56.1967 27.1071 55.9808C19.8949 55.7328 13.6771 53.0483 8.46328 48.0569C8.41531 48.0109 8.41647 47.8271 8.46328 47.778C14.9663 41.2642 21.4753 34.757 27.9904 28.2564C28.1445 28.1153 28.3438 28.0338 28.5525 28.0265C37.7011 28.0152 46.8496 28.012 55.9979 28.0169L55.9959 28.6913Z" fill="#092560"/>
<path d="M28.6793 0C29.4484 0.0584258 30.2191 0.0924753 30.9856 0.175278C35.4736 0.661773 39.6069 2.14344 43.3856 4.62028C43.4113 4.63954 43.4358 4.66021 43.4591 4.68219L41.0704 7.06604C40.5504 7.58491 40.0339 8.10726 39.5077 8.61955C39.4745 8.64107 39.4365 8.65412 39.397 8.65756C39.3576 8.661 39.3179 8.65472 39.2814 8.63929C35.4772 6.45057 31.3823 5.44392 26.9967 5.61933C17.1846 6.01477 8.63064 12.9643 6.27792 22.4939C4.82164 28.3984 5.6318 34.0077 8.63064 39.302C8.65927 39.3523 8.66082 39.4634 8.62638 39.4955C7.3246 40.8069 6.01831 42.115 4.7075 43.4197C4.69473 43.4325 4.67887 43.4429 4.64908 43.4669C4.52566 43.2757 4.40147 43.0908 4.28462 42.902C1.05055 37.6738 -0.377102 31.9914 0.0848538 25.8579C1.04784 13.1075 10.5377 2.66166 23.1652 0.443417C24.442 0.219387 25.7477 0.162509 27.0396 0.0282456L27.3035 0L28.6793 0Z" fill="#092560"/>
<path d="M42.8721 16.9031C42.8743 15.7387 43.28 14.6111 44.02 13.7121C44.76 12.8131 45.7887 12.1984 46.9309 11.9726C48.0732 11.7467 49.2583 11.9238 50.2848 12.4735C51.3112 13.0232 52.1154 13.9116 52.5605 14.9876C53.0056 16.0636 53.0642 17.2606 52.7261 18.3748C52.3881 19.4891 51.6744 20.4518 50.7065 21.099C49.7386 21.7463 48.5763 22.0381 47.4175 21.9248C46.2587 21.8114 45.175 21.3 44.3508 20.4776C43.8814 20.0083 43.5092 19.451 43.2555 18.8376C43.0017 18.2243 42.8714 17.5669 42.8721 16.9031Z" fill="#092560"/>
</svg>
