<svg width="91" height="88" viewBox="0 0 91 88" fill="none" xmlns="http://www.w3.org/2000/svg">
<path d="M30.2471 84.5243C30.2471 86.7014 29.2259 88 27.7778 88C27.2672 88 26.698 87.8377 26.0953 87.4939L2.74149 74.0017C1.36872 73.2092 0.24707 71.1085 0.24707 69.342V3.20833C0.24707 1.46094 1.05901 0.429686 2.22252 0.429686C2.63267 0.429686 3.09305 0.553821 3.57017 0.83073L4.39049 1.30816H4.39886L30.1383 16.1753C30.1801 16.204 30.2136 16.2517 30.2471 16.2899V84.5243ZM57.2169 4.60243L58.7906 1.65191C59.3514 0.601563 60.381 0 61.4273 0C61.6701 0 61.9212 0.0381944 62.1639 0.114583C62.3481 0.162326 62.5406 0.238714 62.7415 0.353297L89.8871 16.0321C89.8955 16.0321 89.8955 16.0417 89.8955 16.0417L89.9206 16.0512C89.9374 16.0608 89.9374 16.0894 89.9541 16.099C90.088 16.2231 90.1466 16.4332 90.0545 16.605L63.0177 67.3655L60.2554 72.5408L42.3425 32.5226L57.2169 4.60243ZM34.5328 57.7023V25.8194L53.7766 68.8264L36.4664 58.829L34.5328 57.7023ZM90.2471 84.5243C90.2471 86.5677 89.184 87.7326 87.6187 87.7326C86.9156 87.7326 86.112 87.5035 85.2666 87.0165L81.391 84.7726L64.0808 74.7752L90.2471 25.6571V84.5243Z" fill="#5326EC"/>
</svg>
