<svg width="151" height="152" viewBox="0 0 151 152" fill="none" xmlns="http://www.w3.org/2000/svg">
<g filter="url(#filter0_d_6815_139280)">
<rect x="20" y="17" width="99.0769" height="112" rx="10" fill="white"/>
</g>
<rect x="21.5" y="18.5" width="96.0769" height="109" rx="8.5" stroke="#754DFF" stroke-width="3"/>
<path d="M22.4172 66.1511H119.108" stroke="#754DFF" stroke-width="3"/>
<rect x="30.7692" y="77.3076" width="45.2308" height="6.46154" fill="#B9A7FF"/>
<rect x="30.7692" y="90.2307" width="53.8461" height="6.46154" fill="#B9A7FF"/>
<rect x="30.7692" y="103.154" width="73.2308" height="6.46154" fill="#B9A7FF"/>
<g filter="url(#filter1_d_6815_139280)">
<circle cx="120.829" cy="90.4336" r="21.8653" fill="white"/>
<path d="M120.829 108.655C110.782 108.655 102.608 100.481 102.608 90.4337C102.608 80.3865 110.782 72.2126 120.829 72.2126C130.877 72.2126 139.05 80.3865 139.05 90.4337C139.05 100.481 130.877 108.655 120.829 108.655ZM120.829 74.8156C112.218 74.8156 105.211 81.822 105.211 90.4337C105.211 99.0454 112.218 106.052 120.829 106.052C129.441 106.052 136.447 99.0454 136.447 90.4337C136.447 81.822 129.441 74.8156 120.829 74.8156Z" fill="#E1458D"/>
<path d="M127.337 98.2434C127.004 98.2434 126.671 98.1164 126.417 97.862L113.402 84.8471C112.894 84.3385 112.894 83.515 113.402 83.0068C113.91 82.4985 114.734 82.4983 115.242 83.0068L128.257 96.0217C128.766 96.5302 128.766 97.3537 128.257 97.862C128.003 98.1164 127.67 98.2434 127.337 98.2434Z" fill="#E1458D"/>
<path d="M114.322 98.2435C113.989 98.2435 113.656 98.1165 113.402 97.8621C112.894 97.3538 112.894 96.53 113.402 96.0218L126.417 83.0069C126.925 82.4984 127.749 82.4984 128.257 83.0069C128.765 83.5151 128.766 84.3389 128.257 84.8472L115.242 97.8621C114.988 98.1165 114.655 98.2435 114.322 98.2435Z" fill="#E1458D"/>
</g>
<path d="M71.9594 28.7084C71.3491 27.6512 70.221 27 69.0003 27C67.7796 27 66.6515 27.6513 66.0412 28.7084L53.4578 50.5032C53.0561 51.1989 52.9125 52.0139 53.0519 52.8051C53.1913 53.596 53.6052 54.3125 54.2204 54.8291C54.8357 55.3454 55.6135 55.6282 56.4166 55.6282H81.5834C82.3865 55.6282 83.1643 55.3454 83.7796 54.8291C84.3949 54.3126 84.8087 53.596 84.9481 52.8051C85.0875 52.0139 84.9439 51.1989 84.5422 50.5032L71.9594 28.7084ZM82.6945 52.8532V52.853C82.5836 53.0497 82.4221 53.213 82.2266 53.3256C82.0314 53.4385 81.8091 53.4968 81.5835 53.4946H56.4168C55.9585 53.4946 55.535 53.25 55.3058 52.853C55.0768 52.4563 55.0768 51.9673 55.3058 51.5703L67.8892 29.7748C68.04 29.5136 68.2779 29.3139 68.5613 29.2107C68.8448 29.1075 69.1555 29.1075 69.439 29.2107C69.7224 29.3139 69.9603 29.5136 70.1111 29.7748L82.6945 51.5703C82.8094 51.7646 82.8699 51.9859 82.8699 52.2117C82.8699 52.4372 82.8094 52.6588 82.6945 52.853L82.6945 52.8532Z" fill="#E1458D"/>
<path d="M69.0003 46.2525C69.2831 46.2525 69.5546 46.1399 69.7548 45.9399C69.9548 45.7399 70.0671 45.4685 70.0671 45.1854V35.7758C70.0671 35.3947 69.864 35.0424 69.5337 34.8519C69.2038 34.6613 68.7968 34.6613 68.4669 34.8519C68.1367 35.0424 67.9335 35.3947 67.9335 35.7758V45.1854C67.9335 45.4685 68.0459 45.7399 68.2458 45.9399C68.446 46.1399 68.7175 46.2525 69.0003 46.2525H69.0003Z" fill="#E1458D"/>
<path d="M69.0003 48.3987C68.7008 48.3987 68.4135 48.5178 68.2019 48.7294C67.9901 48.9413 67.8712 49.2283 67.8712 49.5278C67.8712 49.8272 67.9901 50.1145 68.2019 50.3264C68.4136 50.538 68.7009 50.6571 69.0003 50.6571C69.2998 50.6569 69.5871 50.538 69.7987 50.3261C70.0106 50.1145 70.1294 49.8272 70.1294 49.5278C70.1294 49.2283 70.0106 48.9413 69.7987 48.7294C69.587 48.5175 69.2997 48.3987 69.0003 48.3987V48.3987Z" fill="#E1458D"/>
<defs>
<filter id="filter0_d_6815_139280" x="0" y="0" width="139.077" height="152" filterUnits="userSpaceOnUse" color-interpolation-filters="sRGB">
<feFlood flood-opacity="0" result="BackgroundImageFix"/>
<feColorMatrix in="SourceAlpha" type="matrix" values="0 0 0 0 0 0 0 0 0 0 0 0 0 0 0 0 0 0 127 0" result="hardAlpha"/>
<feOffset dy="3"/>
<feGaussianBlur stdDeviation="10"/>
<feColorMatrix type="matrix" values="0 0 0 0 0.832222 0 0 0 0 0.855556 0 0 0 0 0.933333 0 0 0 0.7 0"/>
<feBlend mode="normal" in2="BackgroundImageFix" result="effect1_dropShadow_6815_139280"/>
<feBlend mode="normal" in="SourceGraphic" in2="effect1_dropShadow_6815_139280" result="shape"/>
</filter>
<filter id="filter1_d_6815_139280" x="90.964" y="64.5684" width="59.7305" height="59.7305" filterUnits="userSpaceOnUse" color-interpolation-filters="sRGB">
<feFlood flood-opacity="0" result="BackgroundImageFix"/>
<feColorMatrix in="SourceAlpha" type="matrix" values="0 0 0 0 0 0 0 0 0 0 0 0 0 0 0 0 0 0 127 0" result="hardAlpha"/>
<feOffset dy="4"/>
<feGaussianBlur stdDeviation="4"/>
<feColorMatrix type="matrix" values="0 0 0 0 0.101961 0 0 0 0 0.101961 0 0 0 0 0.101961 0 0 0 0.2 0"/>
<feBlend mode="normal" in2="BackgroundImageFix" result="effect1_dropShadow_6815_139280"/>
<feBlend mode="normal" in="SourceGraphic" in2="effect1_dropShadow_6815_139280" result="shape"/>
</filter>
</defs>
</svg>
