<svg width="81" height="29" viewBox="0 0 81 29" fill="none" xmlns="http://www.w3.org/2000/svg">
<path d="M17.0111 0.00012262V3.06551e-05L14.7957 0C14.7957 0 14.7957 6.13102e-05 14.7957 0.00012262C14.7957 3.34867 12.1092 6.06934 8.77403 6.12538C8.73906 6.12495 8.7042 6.12406 8.66913 6.12406C8.63406 6.12406 8.59921 6.12495 8.56423 6.12538C5.22905 6.06931 2.54256 3.34864 2.54256 0.00012262V3.06551e-05L0.327148 0C0.327148 0 0.327148 6.13102e-05 0.327148 0.00012262C0.327148 3.09285 2.01024 5.79243 4.5104 7.23307C2.01024 8.6737 0.327148 11.3733 0.327148 14.466C0.327148 17.5588 2.01027 20.2584 4.51043 21.699C2.01027 23.1396 0.327148 25.8392 0.327148 28.932V28.9321H2.54256C2.54256 28.9321 2.54256 28.9321 2.54256 28.932C2.54256 25.5827 5.23022 22.8616 8.56641 22.8067C8.60065 22.8071 8.6348 22.808 8.66916 22.808C8.70353 22.808 8.73765 22.8071 8.77192 22.8067C12.1081 22.8616 14.7958 25.5827 14.7958 28.932V28.9321H17.0112C17.0112 28.9321 17.0112 28.9321 17.0112 28.932C17.0112 25.8392 15.3281 23.1396 12.8279 21.699C15.3281 20.2584 17.0112 17.5588 17.0112 14.466C17.0112 11.3733 15.3281 8.67367 12.8279 7.23304C15.328 5.79243 17.0111 3.09285 17.0111 0.00012262ZM14.7957 14.466C14.7957 17.8153 12.1081 20.5364 8.77189 20.5913C8.73765 20.5909 8.7035 20.59 8.66913 20.59C8.63477 20.59 8.60065 20.5909 8.56638 20.5913C5.23018 20.5364 2.54253 17.8153 2.54253 14.466C2.54253 11.1175 5.22905 8.39683 8.56423 8.34079C8.59921 8.34122 8.63406 8.34211 8.66913 8.34211C8.7042 8.34211 8.73906 8.34122 8.77403 8.34079C12.1092 8.39683 14.7957 11.1175 14.7957 14.466Z" fill="#59C7F2"/>
<path d="M27.9545 14.5C31.6342 14.5 33.036 16.2743 33.036 18.7055C33.036 21.1368 31.6342 22.9111 27.9545 22.9111H24.6031V28.7374H23.1357V14.5H27.9545ZM24.6031 15.8579V21.5529H27.9545C30.6485 21.5529 31.5687 20.414 31.5687 18.7055C31.5687 16.9752 30.6485 15.8579 27.9545 15.8579H24.6031Z" fill="#3E3E3E"/>
<path d="M43.2196 23.831H36.035V23.9186C36.035 26.5252 37.3713 27.6204 39.3864 27.6204C40.7223 27.6204 41.8396 27.1603 42.5626 26.6347L43.0879 27.8394C42.0586 28.5403 40.7883 28.9346 39.3864 28.9346C36.5167 28.9346 34.6113 27.3575 34.6113 23.612V22.9111C34.6113 19.1217 36.3419 17.5664 38.9043 17.5664C41.4671 17.5664 43.2195 19.1217 43.2195 22.9111L43.2196 23.831ZM36.0351 22.6921H41.7959V22.5605C41.7959 19.8884 40.613 18.8809 38.9043 18.8809C37.2179 18.8809 36.035 19.8884 36.035 22.5605L36.0351 22.6921Z" fill="#3E3E3E"/>
<path d="M45.3867 13.4062H46.7667V25.5409C46.7667 27.0962 47.3363 27.6218 48.1686 27.6218C48.7381 27.6218 49.0664 27.4684 49.417 27.2275L49.921 28.4322C49.417 28.7607 48.8255 28.936 48.037 28.936C46.5477 28.936 45.3867 28.038 45.3867 25.5191V13.4062Z" fill="#3E3E3E"/>
<path d="M59.2518 23.831H52.0673V23.9186C52.0673 26.5252 53.4036 27.6204 55.4187 27.6204C56.7545 27.6204 57.8718 27.1603 58.5948 26.6347L59.1202 27.8394C58.0907 28.5403 56.8205 28.9346 55.4187 28.9346C52.549 28.9346 50.6436 27.3575 50.6436 23.612V22.9111C50.6436 19.1217 52.3741 17.5664 54.9365 17.5664C57.4993 17.5664 59.2517 19.1217 59.2517 22.9111L59.2518 23.831ZM52.0673 22.6921H57.8281V22.5605C57.8281 19.8884 56.6452 18.8809 54.9365 18.8809C53.2501 18.8809 52.0672 19.8884 52.0672 22.5605L52.0673 22.6921Z" fill="#3E3E3E"/>
<path d="M61.3086 18.4426C61.9661 18.0483 63.1926 17.5664 64.7037 17.5664C65.536 17.5664 66.2809 17.7198 66.8723 18.0265L66.2808 19.253C65.8647 19.0122 65.3612 18.8808 64.7037 18.8808C63.8059 18.8808 63.1047 19.1654 62.6886 19.3407V28.7374H61.3086L61.3086 18.4426Z" fill="#3E3E3E"/>
<path d="M68.9537 13.3125C69.4791 13.3125 69.8734 13.7068 69.8734 14.2543C69.8734 14.758 69.4791 15.1744 68.9537 15.1744C68.4279 15.1744 68.0117 14.758 68.0117 14.2543C68.0117 13.7068 68.4278 13.3125 68.9537 13.3125ZM68.2525 17.7809H69.6325V28.7327H68.2525V17.7809Z" fill="#3E3E3E"/>
<path d="M72.4141 18.4426C73.1589 18.0265 74.4073 17.5664 76.2472 17.5664C79.0071 17.5664 81.0004 19.0998 81.0004 22.9548V28.7374H79.6204V22.8892C79.6204 19.8884 78.2404 18.8808 76.1816 18.8808C75.0643 18.8808 74.3855 19.0998 73.7941 19.3407V28.7374H72.4141V18.4426Z" fill="#3E3E3E"/>
<path d="M23.1348 0H24.4566L27.2137 4.66163L29.9567 0H31.2784V9.23797H30.0562V2.16023L27.2137 7.03504L24.357 2.16023V9.23794H23.1348L23.1348 0Z" fill="#3E3E3E"/>
<path d="M33.0693 0H34.2348V2.13182H37.0772V3.24037H34.2348V6.80767C34.2348 7.73146 34.5901 8.11517 35.1444 8.21467C35.3575 8.24309 35.5991 8.24309 35.8265 8.21467C36.3808 8.17203 36.864 7.97305 37.2051 7.64618C37.333 7.98728 37.461 8.31415 37.6031 8.65525C37.0346 9.12424 36.2956 9.36587 35.4713 9.36587C34.0927 9.36587 33.0694 8.69786 33.0694 6.80767V0H33.0693Z" fill="#3E3E3E"/>
</svg>
