<svg width="80" height="66" viewBox="0 0 80 66" fill="none" xmlns="http://www.w3.org/2000/svg">
<path d="M27.5 27.844H52.5C53.8812 27.844 55 26.921 55 25.7815V23.719C55 22.5795 53.8812 21.6565 52.5 21.6565H27.5C26.1187 21.6565 25 22.5795 25 23.719V25.7815C25 26.921 26.1187 27.844 27.5 27.844ZM25 38.1564C25 39.2959 26.1187 40.2189 27.5 40.2189H52.5C53.8812 40.2189 55 39.2959 55 38.1564V36.0939C55 34.9544 53.8812 34.0314 52.5 34.0314H27.5C26.1187 34.0314 25 34.9544 25 36.0939V38.1564ZM40 53.7707C37.4344 53.7707 34.8687 53.1185 32.6781 51.8127L0 32.3376V59.8125C0 63.2298 3.35781 66 7.5 66H72.5C76.6422 66 80 63.2298 80 59.8125V32.3376L47.3219 51.8127C45.1312 53.1172 42.5656 53.7707 40 53.7707ZM77.1266 21.0055C75.7437 20.1109 74.4328 19.2692 72.5 18.0652V12.3753C72.5 8.95804 69.1422 6.18786 65 6.18786H52.8828C52.4078 5.90427 51.9656 5.63872 51.4703 5.34224C48.8438 3.76057 43.625 -0.0447192 40 0.000397721C36.375 -0.0447192 31.1578 3.76057 28.5297 5.34224C28.0344 5.63872 27.5922 5.90427 27.1172 6.18786H15C10.8578 6.18786 7.5 8.95804 7.5 12.3753V18.0652C5.56719 19.2679 4.25625 20.1109 2.87344 21.0055C1.97837 21.5842 1.25455 22.3233 0.75674 23.1668C0.258926 24.0103 0.000154032 24.9361 0 25.8743L0 27.2471L15 36.1867V12.3753H65V36.1867L80 27.2471V25.8743C80 23.9742 78.9406 22.1786 77.1266 21.0055Z" fill="#5326EC"/>
</svg>
