<svg width="16" height="16" viewBox="0 0 16 16" fill="none" xmlns="http://www.w3.org/2000/svg">
<path d="M10.0993 13.7148C10.124 13.7148 10.1485 13.7198 10.1711 13.7297C10.1938 13.7396 10.2142 13.754 10.2309 13.7722C10.2477 13.7904 10.2605 13.8118 10.2685 13.8352C10.2766 13.8586 10.2796 13.8834 10.2776 13.908C10.231 14.4678 9.97984 14.9909 9.5721 15.3774C9.16435 15.7638 8.62857 15.9866 8.06703 16.0031C7.50548 16.0197 6.95752 15.8288 6.52774 15.467C6.09796 15.1052 5.81647 14.5978 5.73701 14.0417C5.73148 14.0011 5.73467 13.9599 5.74636 13.9206C5.75805 13.8814 5.77797 13.8451 5.80479 13.8142C5.83161 13.7832 5.86472 13.7584 5.9019 13.7412C5.93909 13.7241 5.9795 13.7151 6.02044 13.7148H10.0993Z" fill="#FCFCFF"/>
<path d="M16 11.4286C16 11.277 15.9398 11.1317 15.8326 11.0245C15.7255 10.9173 15.5801 10.8571 15.4286 10.8571C14.7509 10.8571 13.4697 9.73143 13.4697 5.46971C13.4697 4.01906 12.8934 2.62781 11.8677 1.60204C10.8419 0.576272 9.45066 0 8 0C6.54934 0 5.1581 0.576272 4.13233 1.60204C3.10656 2.62781 2.53029 4.01906 2.53029 5.46971C2.53029 9.73143 1.24914 10.8571 0.571429 10.8571C0.419876 10.8571 0.274531 10.9173 0.167368 11.0245C0.0602039 11.1317 0 11.277 0 11.4286C0 11.5801 0.0602039 11.7255 0.167368 11.8326C0.274531 11.9398 0.419876 12 0.571429 12H15.4286C15.5801 12 15.7255 11.9398 15.8326 11.8326C15.9398 11.7255 16 11.5801 16 11.4286Z" fill="#FCFCFF"/>
</svg>
