<svg width="31" height="30" viewBox="0 0 31 30" fill="none" xmlns="http://www.w3.org/2000/svg">
<path d="M13.1367 7.82504V2.3659C13.1366 2.05524 13.1978 1.74753 13.3166 1.4605C13.4354 1.17346 13.6096 0.912476 13.8293 0.692777C14.0489 0.473078 14.3097 0.298996 14.5967 0.180093C14.8837 0.0611897 15.1913 6.51686e-08 15.502 7.49945e-08C15.8127 -7.80817e-05 16.1204 0.0609342 16.4075 0.179802C16.6946 0.298671 16.9554 0.47307 17.1751 0.692777C17.3948 0.912483 17.5691 1.17313 17.6879 1.4602C17.8068 1.74728 17.8679 2.05519 17.8679 2.3659V7.82504C17.8679 8.13575 17.8068 8.44336 17.6879 8.73044C17.5691 9.01751 17.3948 9.27845 17.1751 9.49816C16.9554 9.71786 16.6946 9.89197 16.4075 10.0108C16.1204 10.1297 15.8127 10.191 15.502 10.1909C15.1913 10.1909 14.8837 10.1297 14.5967 10.0108C14.3097 9.89194 14.0489 9.71756 13.8293 9.49787C13.6096 9.27817 13.4354 9.01747 13.3166 8.73044C13.1978 8.4434 13.1366 8.1357 13.1367 7.82504Z" fill="#E1458D"/>
<path d="M13.1367 27.0548V21.5948C13.1367 20.9675 13.3859 20.3658 13.8295 19.9223C14.2731 19.4787 14.8747 19.2295 15.502 19.2295C15.8127 19.2294 16.1203 19.2905 16.4073 19.4093C16.6944 19.5281 16.9552 19.7023 17.1749 19.922C17.3946 20.1416 17.5689 20.4024 17.6878 20.6894C17.8067 20.9764 17.8679 21.2841 17.8679 21.5948V27.0548C17.8679 27.6823 17.6186 28.284 17.1749 28.7276C16.7312 29.1713 16.1295 29.4204 15.502 29.4204C15.1913 29.4204 14.8837 29.3592 14.5967 29.2403C14.3097 29.1214 14.0489 28.9473 13.8293 28.7276C13.6096 28.5079 13.4354 28.247 13.3166 27.9599C13.1978 27.6729 13.1366 27.3655 13.1367 27.0548Z" fill="#E1458D"/>
<path d="M22.3839 12.3467H27.8414C28.152 12.3467 28.4596 12.4079 28.7466 12.5268C29.0337 12.6457 29.2944 12.82 29.5141 13.0397C29.7337 13.2594 29.9079 13.5201 30.0268 13.8072C30.1456 14.0942 30.2067 14.4019 30.2066 14.7126C30.2066 15.3399 29.9574 15.9414 29.5139 16.3851C29.0703 16.8288 28.4687 17.0783 27.8414 17.0785H22.3815C21.7541 17.0783 21.1524 16.8288 20.7087 16.3851C20.2651 15.9415 20.0158 15.34 20.0156 14.7126C20.0156 14.4017 20.0769 14.0938 20.1959 13.8066C20.315 13.5194 20.4895 13.2583 20.7094 13.0386C20.9294 12.8189 21.1904 12.6447 21.4778 12.5259C21.7651 12.4071 22.073 12.3464 22.3839 12.3467Z" fill="#E1458D"/>
<path d="M3.15431 12.3467H8.61421C9.24167 12.3467 9.84342 12.5958 10.2871 13.0395C10.7308 13.4831 10.9801 14.0851 10.9801 14.7126C10.9799 15.34 10.7306 15.9415 10.2869 16.3851C9.84328 16.8288 9.24163 17.0783 8.61421 17.0785H3.15431C2.52694 17.0783 1.92536 16.8288 1.4818 16.3851C1.03825 15.9414 0.789063 15.3399 0.789063 14.7126C0.788984 14.4019 0.850107 14.0942 0.968938 13.8072C1.08777 13.5201 1.26198 13.2594 1.48162 13.0397C1.70127 12.82 1.96204 12.6457 2.24905 12.5268C2.53606 12.4079 2.84364 12.3467 3.15431 12.3467Z" fill="#E1458D"/>
</svg>
