<svg width="165" height="24" viewBox="0 0 165 24" fill="none" xmlns="http://www.w3.org/2000/svg">
<path d="M96.6817 23.9136H77.0666C75.9634 23.9136 75.071 23.0272 75.071 21.9317V2.07004C75.071 0.974498 75.9634 0.0881348 77.0666 0.0881348H96.6817C97.7849 0.0881348 98.6773 0.974498 98.6773 2.07004V21.9352C98.6808 23.0237 97.7849 23.9136 96.6817 23.9136Z" fill="url(#paint0_linear_2041_65604)"/>
<path d="M98.677 14.5176V21.9304C98.677 23.0263 97.7984 23.913 96.7126 23.913H89.368L98.677 14.5176Z" fill="#2970E2"/>
<path d="M83.0542 14.5144L89.9042 7.32778C90.4277 6.79951 91.2461 6.83851 91.7906 7.38806L95.7496 11.2384C96.1676 11.6462 96.1606 12.4545 95.7707 12.8871C95.2648 13.3976 94.6922 13.4366 93.9194 12.9048L91.0494 9.76706L83.8376 16.6949C83.3563 17.0707 82.861 17.3898 82.1022 16.9005C81.8423 16.546 82.3587 15.8546 82.1549 15.649L83.0542 14.5144Z" fill="#D1D9E6"/>
<path d="M82.7414 16.925C82.1548 16.9072 81.6981 16.5208 81.6981 16.0634L81.7332 7.84861C81.7332 7.39479 82.1548 6.8417 82.7414 6.82397C83.5213 6.82397 83.862 7.45861 83.862 7.9337V16.0882C83.862 16.5598 83.3561 16.9427 82.7414 16.925Z" fill="#D1D9E6"/>
<path d="M90.7332 17.1519C90.006 17.1519 89.7039 16.6094 89.7039 16.1804V8.64632C89.7039 8.22087 90.1536 7.70323 90.7332 7.6855C91.3409 7.66778 91.8433 8.18187 91.8433 8.62505V16.0776C91.8398 16.6023 91.4814 17.1519 90.7332 17.1519Z" fill="#D1D9E6"/>
<path d="M82.499 17.0174C82.0494 16.9997 81.6981 16.6133 81.6981 16.1559V7.94107C81.6981 7.48725 82.0494 6.93416 82.499 6.91644C82.9697 6.89871 83.3597 7.44471 83.3597 7.9198V16.1807C83.3597 16.6523 82.9697 17.0352 82.499 17.0174Z" fill="white"/>
<path d="M90.5049 17.1026C90.0483 17.1026 89.6724 16.5637 89.6724 16.0992V8.00141C89.6724 7.5405 90.0448 7.16113 90.5049 7.16113C90.9651 7.16113 91.3375 7.53695 91.3375 8.00141V16.0992C91.334 16.5601 90.9651 17.1026 90.5049 17.1026Z" fill="white"/>
<path d="M82.5308 16.9357C82.2603 16.9357 81.9863 16.8294 81.786 16.6202L78.0133 12.8017C77.6023 12.3834 77.6023 11.7133 78.0168 11.2949C78.4313 10.8801 79.0952 10.8801 79.5097 11.2985L82.5483 14.383L89.8164 7.39848C90.2274 7.00493 90.8667 7.00493 91.2742 7.40202L95.2297 11.2524C95.6477 11.6601 95.6582 12.3337 95.2578 12.7592C94.8573 13.1847 94.1864 13.1917 93.7648 12.7876L90.533 9.6463L83.2544 16.6415C83.0542 16.84 82.7907 16.9357 82.5308 16.9357Z" fill="white"/>
<path d="M89.7779 10.987L89.3177 11.4266C89.3177 11.4266 89.4477 10.6963 89.0753 11.0508C88.7029 11.4089 89.6479 10.1467 89.6479 10.1467L89.8411 10.3914L89.7779 10.987Z" fill="white"/>
<path d="M91.334 10.8726C91.334 10.8726 91.3586 10.4258 91.8398 11.1916V10.5889L91.3164 10.3159L91.334 10.8726Z" fill="white"/>
<path d="M83.3632 12.9933C83.3632 12.9933 83.4335 13.4932 83.8655 12.8479V13.4506L83.3421 13.7236L83.3632 12.9933Z" fill="white"/>
<path d="M108.308 7.87454L108.412 7.90939C108.427 8.1932 108.436 8.72598 108.436 9.50775C108.436 9.55753 108.362 9.57745 108.214 9.57745H107.194C107.1 9.57745 107.051 9.65216 107.051 9.80153V15.9162C107.051 15.9261 107.031 15.941 106.992 15.9709C106.952 16.0008 106.927 16.0107 106.908 16.0107H105.063L104.98 15.941C104.955 15.9162 104.945 14.0589 104.945 10.3692V9.63223C103.998 9.63223 103.525 9.57249 103.525 9.45297V7.93428C103.525 7.92432 103.554 7.90439 103.618 7.86457H105.729C105.838 7.8795 105.907 7.89443 105.926 7.89943C105.951 7.89943 105.961 7.88946 105.961 7.86457H108.308V7.87454ZM111.208 7.85461H114.458C115.202 7.85461 115.858 8.12846 116.425 8.6762C116.992 9.22394 117.279 9.88119 117.279 10.638C117.279 11.2306 117.111 11.7435 116.78 12.1767C116.45 12.6099 116.001 12.9485 115.434 13.1825C115.409 13.1825 115.4 13.2024 115.4 13.2422V13.2522C115.409 13.2622 115.409 13.2671 115.409 13.2771L117.417 15.7518C117.441 15.7917 117.466 15.8365 117.485 15.8813C117.505 15.9261 117.525 15.961 117.54 15.9809C117.55 16.0008 117.56 16.0157 117.56 16.0207C117.56 16.0456 117.431 16.0655 117.17 16.0855C116.914 16.1054 116.741 16.1153 116.652 16.1153C116.588 16.1153 116.549 16.1054 116.524 16.0805H115.266C115.187 16.0705 115.123 16.0307 115.069 15.951L113.437 14.0091C113.427 13.9991 113.412 13.9792 113.387 13.9493C113.363 13.9194 113.338 13.8945 113.319 13.8796C113.294 13.8647 113.269 13.8547 113.249 13.8547C113.235 13.8547 113.215 13.9045 113.19 14.0091V15.9311C113.19 15.9958 113.166 16.0257 113.121 16.0257H111.523C111.381 16.0257 111.287 15.9958 111.242 15.9311C111.193 15.8663 111.163 15.7618 111.149 15.6124C111.149 14.9103 111.154 14.019 111.168 12.9385C111.178 11.858 111.188 11.0464 111.188 10.5036C111.188 10.419 111.183 10.1003 111.178 9.55753L111.154 8.74094C111.173 8.16331 111.193 7.86954 111.208 7.85461ZM115.163 10.6132C115.163 10.3941 115.114 10.1999 115.01 10.0306C114.813 9.72186 114.408 9.56749 113.787 9.56749C113.679 9.56749 113.511 9.57745 113.294 9.59238L113.19 9.7119C113.19 9.81645 113.185 9.97579 113.18 10.1899C113.171 10.409 113.166 10.5932 113.161 10.7426C113.156 10.892 113.156 11.0016 113.156 11.0613C113.156 11.5891 113.205 11.8879 113.299 11.9526H113.427C114.078 11.9377 114.527 11.848 114.783 11.6787C115.039 11.5144 115.163 11.1609 115.163 10.6132ZM122.782 7.75998H124.177C124.217 7.75998 124.33 7.97909 124.513 8.41228C124.695 8.84549 124.789 9.08949 124.789 9.13431C124.952 9.56749 125.839 11.7783 127.452 15.7568C127.452 15.8663 127.403 15.9361 127.309 15.9659C127.215 15.9958 127.042 16.0058 126.791 16.0058L126.194 15.9958C125.795 15.9859 125.494 15.9859 125.292 15.9859C125.277 15.9361 125.243 15.8564 125.198 15.7369C125.149 15.6174 125.114 15.5278 125.085 15.463C125.055 15.3983 125.016 15.3186 124.961 15.224C124.907 15.1294 124.848 15.0448 124.784 14.9651C124.73 14.9651 124.621 14.9551 124.454 14.9352C124.291 14.9153 124.143 14.9053 124.01 14.9053L122.54 14.9302C122.516 14.9302 122.447 14.9253 122.328 14.9203C122.21 14.9103 122.146 14.9103 122.141 14.9103C121.998 14.9103 121.879 15.0946 121.776 15.468C121.672 15.8415 121.588 16.0506 121.519 16.0954C121.307 16.1054 121.046 16.0954 120.74 16.0755C120.43 16.0556 120.173 16.0456 119.961 16.0456C119.631 16.0456 119.468 15.9958 119.468 15.9012C119.468 15.8863 119.468 15.8663 119.473 15.8415C119.478 15.8166 119.478 15.8016 119.478 15.7917L120.158 13.7999C120.262 13.5958 120.385 13.2871 120.528 12.8738C120.671 12.4655 120.765 12.2115 120.804 12.1169C120.962 11.7086 121.228 11.0215 121.608 10.0654C121.988 9.10938 122.274 8.37246 122.471 7.84961C122.486 7.78987 122.585 7.75998 122.782 7.75998ZM122.9 13.292H123.206C123.768 13.2771 124.049 13.2422 124.049 13.1974C124.049 13.053 123.926 12.6945 123.684 12.1169C123.59 11.8879 123.536 11.7634 123.522 11.7385L123.369 11.37C123.329 11.37 123.196 11.6439 122.974 12.1866C122.752 12.7294 122.639 13.053 122.639 13.1477C122.639 13.2422 122.728 13.292 122.9 13.292ZM136.856 12.3061C136.856 12.3211 136.851 12.3559 136.846 12.4107C136.836 12.4655 136.831 12.5203 136.822 12.575L136.812 12.6447C136.812 12.9833 136.822 13.4962 136.836 14.1734C136.851 14.8506 136.861 15.3585 136.861 15.6921C136.861 15.9211 136.812 16.0357 136.718 16.0357H135.194C135.071 16.0357 134.977 15.9909 134.923 15.9062L133.478 13.7252C133.468 13.6954 133.434 13.6406 133.374 13.5709C133.31 13.5012 133.281 13.4614 133.281 13.4514L132.097 11.7236L131.954 11.5692L131.93 11.619C131.93 14.5518 131.895 16.0157 131.826 16.0157H129.972L129.903 15.9809C129.903 15.3734 129.912 14.3278 129.928 12.8439C129.942 11.3601 129.952 10.2646 129.952 9.5426C129.952 8.99986 129.942 8.58657 129.928 8.30772L129.977 7.96417L130.214 7.91435L131.693 7.96417C131.732 7.96417 131.777 8.00398 131.836 8.08365C131.89 8.16331 131.925 8.22805 131.939 8.27287L133.044 9.88619C133.059 9.91604 133.088 9.96086 133.133 10.0206C133.177 10.0804 133.207 10.1252 133.222 10.155L134.736 12.2514C134.76 12.3061 134.79 12.336 134.829 12.336C134.854 12.336 134.864 12.3261 134.864 12.3011V8.02391L134.933 7.96417C134.943 7.9542 135.11 7.9542 135.436 7.9542C136.358 7.9542 136.822 7.96913 136.822 8.00398L136.871 8.07369V12.3061H136.856ZM143.025 13.4115C142.907 13.292 142.759 13.1725 142.572 13.0481C142.389 12.9236 142.177 12.7941 141.936 12.6547C141.699 12.5153 141.551 12.4256 141.496 12.3858C140.485 11.7385 139.983 10.9567 139.983 10.0405C139.983 9.27371 140.249 8.70109 140.782 8.32265C141.314 7.94424 142.004 7.75502 142.848 7.75502C143.311 7.75502 143.775 7.84961 144.243 8.03883C144.327 8.06872 144.47 8.13346 144.658 8.22805C144.85 8.32265 144.944 8.39239 144.944 8.42724L144.934 8.48698C144.934 8.49694 144.924 8.5069 144.909 8.52683C144.894 8.54672 144.885 8.56664 144.885 8.58161C144.643 9.08949 144.406 9.49779 144.179 9.81645C144.169 9.84138 144.15 9.8513 144.12 9.8513C144.09 9.8513 143.908 9.7866 143.582 9.65712C143.252 9.52768 143.001 9.46294 142.818 9.46294C142.645 9.46294 142.488 9.51271 142.335 9.60734C142.187 9.70193 142.113 9.83141 142.113 10.0007C142.113 10.2148 142.231 10.414 142.463 10.6032C142.621 10.7227 142.931 10.9319 143.4 11.2306C143.504 11.3003 143.637 11.3949 143.799 11.5094C143.962 11.624 144.09 11.7136 144.189 11.7833C144.283 11.848 144.386 11.9327 144.505 12.0323C144.623 12.1318 144.722 12.2265 144.796 12.3211C144.983 12.5651 145.111 12.7891 145.175 12.9833C145.239 13.1825 145.274 13.4215 145.274 13.7053C145.274 14.4472 144.998 15.0597 144.441 15.5377C143.883 16.0157 143.223 16.2547 142.458 16.2547C141.62 16.2547 140.836 16.0506 140.101 15.6373C139.771 15.4332 139.608 15.3087 139.608 15.2688V15.219C139.953 14.5867 140.239 14.0987 140.466 13.7501C140.574 13.7501 140.703 13.8049 140.845 13.9145C140.988 14.024 141.072 14.0838 141.097 14.0937C141.511 14.3078 141.985 14.4124 142.517 14.4124C142.981 14.4124 143.208 14.2381 143.208 13.8896C143.228 13.7452 143.158 13.5858 143.025 13.4115ZM150.807 7.75998H152.202C152.242 7.75998 152.355 7.97909 152.538 8.41228C152.72 8.84549 152.814 9.08949 152.814 9.13431C152.977 9.56749 153.864 11.7783 155.477 15.7568C155.477 15.8663 155.428 15.9361 155.334 15.9659C155.24 15.9958 155.068 16.0058 154.816 16.0058L154.22 15.9958C153.82 15.9859 153.519 15.9859 153.317 15.9859C153.302 15.9361 153.268 15.8564 153.223 15.7369C153.174 15.6174 153.139 15.5278 153.11 15.463C153.08 15.3983 153.041 15.3186 152.987 15.224C152.932 15.1294 152.873 15.0448 152.809 14.9651C152.755 14.9651 152.647 14.9551 152.479 14.9352C152.316 14.9153 152.168 14.9053 152.035 14.9053L150.566 14.9302C150.541 14.9302 150.472 14.9253 150.353 14.9203C150.235 14.9103 150.171 14.9103 150.166 14.9103C150.023 14.9103 149.904 15.0946 149.801 15.468C149.697 15.8415 149.614 16.0506 149.545 16.0954C149.333 16.1054 149.071 16.0954 148.766 16.0755C148.455 16.0556 148.198 16.0456 147.986 16.0456C147.656 16.0456 147.493 15.9958 147.493 15.9012C147.493 15.8863 147.493 15.8663 147.498 15.8415C147.503 15.8166 147.503 15.8016 147.503 15.7917L148.183 13.7999C148.287 13.5958 148.41 13.2871 148.553 12.8738C148.696 12.4655 148.79 12.2115 148.829 12.1169C148.987 11.7086 149.253 11.0215 149.633 10.0654C150.013 9.10938 150.299 8.37246 150.496 7.84961C150.511 7.78987 150.615 7.75998 150.807 7.75998ZM150.925 13.292H151.231C151.793 13.2771 152.074 13.2422 152.074 13.1974C152.074 13.053 151.951 12.6945 151.709 12.1169C151.616 11.8879 151.561 11.7634 151.547 11.7385L151.394 11.37C151.354 11.37 151.221 11.6439 150.999 12.1866C150.777 12.7294 150.664 13.053 150.664 13.1477C150.669 13.2422 150.753 13.292 150.925 13.292ZM159.683 7.71021C159.925 7.71021 160.048 7.75502 160.048 7.83969V10.2596C160.048 10.3393 160.058 10.3791 160.073 10.3791C160.127 10.3791 160.196 10.3293 160.28 10.2248C160.364 10.1202 160.448 10.0057 160.532 9.87623C160.615 9.74675 160.685 9.66212 160.729 9.62227L162.045 7.81976C162.085 7.76995 162.139 7.75006 162.208 7.75006H163.944L164.225 7.79983C164.24 7.79983 164.25 7.81476 164.25 7.84961C164.25 7.90439 164.24 7.93924 164.225 7.9542L163.722 8.76083L163.653 8.81064L162.149 10.8372C162.125 10.8621 162.115 10.892 162.115 10.9319C162.115 10.9866 162.125 11.0364 162.149 11.0762L164.428 15.8265C164.428 15.8365 164.428 15.8465 164.428 15.8614L164.437 15.8962C164.437 16.0307 164.201 16.0954 163.732 16.0954C163.456 16.0954 163.14 16.0855 162.775 16.0606C162.41 16.0357 162.208 16.0257 162.169 16.0257L162.085 15.9659C162.036 15.9162 161.602 15.0049 160.769 13.2273C160.759 13.1626 160.704 13.0381 160.606 12.8489C160.581 12.8489 160.492 12.9584 160.329 13.1825C160.167 13.4016 160.083 13.536 160.063 13.5759C160.063 13.7203 160.063 13.9493 160.068 14.263C160.073 14.5767 160.073 14.8755 160.073 15.1493C160.073 15.712 160.009 16.0008 159.886 16.0257C159.728 16.0257 159.536 16.0307 159.299 16.0456C159.062 16.0556 158.904 16.0655 158.815 16.0655C158.682 16.0655 158.505 16.0506 158.278 16.0157C158.051 15.9859 157.938 15.956 157.938 15.9311V11.853C157.987 11.4746 158.007 11.2555 158.007 11.2007C158.007 10.8472 157.992 10.3144 157.958 9.60234C157.928 8.89031 157.908 8.3625 157.908 8.01394C157.908 7.86954 157.938 7.78491 158.002 7.75502C158.416 7.72017 158.969 7.71021 159.683 7.71021Z" fill="url(#paint1_linear_2041_65604)"/>
<path d="M0.84 16V9H3.97C4.67667 9 5.24333 9.20333 5.67 9.61C6.09667 10.0167 6.31 10.54 6.31 11.18C6.31 11.8 6.09667 12.3133 5.67 12.72C5.24333 13.1267 4.67667 13.33 3.97 13.33H2.04V16H0.84ZM3.79 10.01H2.04V12.35H3.78C4.2 12.35 4.52333 12.2433 4.75 12.03C4.98333 11.81 5.1 11.5233 5.1 11.17C5.1 10.83 4.98667 10.5533 4.76 10.34C4.53333 10.12 4.21 10.01 3.79 10.01ZM14.3871 12.5C14.3871 13 14.2938 13.4733 14.1071 13.92C13.9271 14.36 13.6771 14.7433 13.3571 15.07C13.0438 15.39 12.6704 15.6433 12.2371 15.83C11.8038 16.0167 11.3404 16.11 10.8471 16.11C10.3538 16.11 9.89044 16.0167 9.45711 15.83C9.02378 15.6433 8.64711 15.39 8.32711 15.07C8.01378 14.7433 7.76378 14.36 7.57711 13.92C7.39711 13.4733 7.30711 13 7.30711 12.5C7.30711 12 7.39711 11.53 7.57711 11.09C7.76378 10.6433 8.01378 10.26 8.32711 9.94C8.64711 9.61333 9.02378 9.35667 9.45711 9.17C9.89044 8.98333 10.3538 8.89 10.8471 8.89C11.3404 8.89 11.8038 8.98333 12.2371 9.17C12.6704 9.35667 13.0438 9.61333 13.3571 9.94C13.6771 10.26 13.9271 10.6433 14.1071 11.09C14.2938 11.53 14.3871 12 14.3871 12.5ZM13.1571 12.5C13.1571 12.14 13.0971 11.8067 12.9771 11.5C12.8638 11.1867 12.7038 10.9167 12.4971 10.69C12.2904 10.4633 12.0471 10.2867 11.7671 10.16C11.4871 10.0267 11.1838 9.96 10.8571 9.96C10.5304 9.96 10.2238 10.0267 9.93711 10.16C9.65711 10.2867 9.41378 10.4633 9.20711 10.69C9.00044 10.9167 8.83711 11.1867 8.71711 11.5C8.59711 11.8067 8.53711 12.14 8.53711 12.5C8.53711 12.86 8.59711 13.1967 8.71711 13.51C8.83711 13.8167 9.00044 14.0833 9.20711 14.31C9.41378 14.53 9.65711 14.7067 9.93711 14.84C10.2238 14.9667 10.5304 15.03 10.8571 15.03C11.1838 15.03 11.4871 14.9667 11.7671 14.84C12.0471 14.7067 12.2904 14.53 12.4971 14.31C12.7038 14.0833 12.8638 13.8167 12.9771 13.51C13.0971 13.1967 13.1571 12.86 13.1571 12.5ZM17.8961 16H16.6461L15.1161 9H16.3361L17.3761 14.13L18.8761 9H20.0161L21.5161 14.13L22.5561 9H23.7361L22.2061 16H20.9561L19.4261 10.69L17.8961 16ZM24.9416 16V9H29.9516V10.02H26.1416V11.97H28.8016V12.97H26.1416V14.98H29.9916V16H24.9416ZM31.3478 16V9H34.4578C35.1445 9 35.7045 9.19667 36.1378 9.59C36.5778 9.98333 36.7978 10.4933 36.7978 11.12C36.7978 11.5733 36.6711 11.97 36.4178 12.31C36.1711 12.65 35.8378 12.8933 35.4178 13.04L36.8878 16H35.5578L34.2078 13.2H32.5478V16H31.3478ZM34.3578 10.01H32.5478V12.24H34.3578C34.7245 12.24 35.0211 12.14 35.2478 11.94C35.4745 11.7333 35.5878 11.4633 35.5878 11.13C35.5878 10.7967 35.4745 10.5267 35.2478 10.32C35.0211 10.1133 34.7245 10.01 34.3578 10.01ZM38.0666 16V9H43.0766V10.02H39.2666V11.97H41.9266V12.97H39.2666V14.98H43.1166V16H38.0666ZM44.4728 16V9H47.0328C47.5328 9 47.9995 9.09 48.4328 9.27C48.8661 9.45 49.2361 9.69667 49.5428 10.01C49.8561 10.3233 50.0995 10.6967 50.2728 11.13C50.4528 11.5567 50.5428 12.0167 50.5428 12.51C50.5428 13.0033 50.4528 13.4633 50.2728 13.89C50.0995 14.3167 49.8561 14.6867 49.5428 15C49.2361 15.3067 48.8661 15.55 48.4328 15.73C47.9995 15.91 47.5328 16 47.0328 16H44.4728ZM47.0628 10.04H45.6728V14.96H47.0628C47.3761 14.96 47.6695 14.8967 47.9428 14.77C48.2161 14.6433 48.4528 14.4733 48.6528 14.26C48.8528 14.04 49.0095 13.78 49.1228 13.48C49.2428 13.18 49.3028 12.8567 49.3028 12.51C49.3028 12.1633 49.2428 11.84 49.1228 11.54C49.0095 11.2333 48.8528 10.97 48.6528 10.75C48.4528 10.53 48.2161 10.3567 47.9428 10.23C47.6695 10.1033 47.3761 10.04 47.0628 10.04ZM54.1408 9H57.2508C57.9108 9 58.4441 9.17 58.8508 9.51C59.2574 9.85 59.4608 10.2933 59.4608 10.84C59.4608 11.1867 59.3574 11.4967 59.1508 11.77C58.9508 12.0433 58.6808 12.25 58.3408 12.39C58.7541 12.5167 59.0841 12.7267 59.3308 13.02C59.5774 13.3133 59.7008 13.6567 59.7008 14.05C59.7008 14.63 59.4874 15.1 59.0608 15.46C58.6341 15.82 58.0774 16 57.3908 16H54.1408V9ZM57.1308 9.98H55.3408V11.94H57.1308C57.4708 11.94 57.7441 11.8533 57.9508 11.68C58.1574 11.5 58.2608 11.26 58.2608 10.96C58.2608 10.66 58.1574 10.4233 57.9508 10.25C57.7441 10.07 57.4708 9.98 57.1308 9.98ZM57.2508 15.02C57.6241 15.02 57.9241 14.9233 58.1508 14.73C58.3774 14.53 58.4908 14.2667 58.4908 13.94C58.4908 13.6133 58.3774 13.3533 58.1508 13.16C57.9241 12.9667 57.6241 12.87 57.2508 12.87H55.3408V15.02H57.2508ZM62.6933 16V13.23L59.9233 9H61.3133L63.3333 12.2L65.3733 9H66.6833L63.8933 13.26V16H62.6933Z" fill="#121B4B"/>
<defs>
<linearGradient id="paint0_linear_2041_65604" x1="74.3813" y1="2.19839" x2="99.6492" y2="21.6647" gradientUnits="userSpaceOnUse">
<stop offset="0.1304" stop-color="#3495F7"/>
<stop offset="0.3063" stop-color="#2B87F2"/>
<stop offset="0.6392" stop-color="#1461E5"/>
<stop offset="0.7232" stop-color="#0E57E1"/>
</linearGradient>
<linearGradient id="paint1_linear_2041_65604" x1="101.745" y1="8.46702" x2="105.02" y2="26.62" gradientUnits="userSpaceOnUse">
<stop offset="0.1304" stop-color="#3495F7"/>
<stop offset="0.3063" stop-color="#2B87F2"/>
<stop offset="0.6392" stop-color="#1461E5"/>
<stop offset="0.7232" stop-color="#0E57E1"/>
</linearGradient>
</defs>
</svg>
