<svg width="81" height="84" viewBox="0 0 81 84" fill="none" xmlns="http://www.w3.org/2000/svg">
<path d="M47.5309 0C43.8301 0 39.5044 3.30469 38.8521 18.0625C39.4014 18.0469 39.9438 18 40.5 18C41.118 18 41.7565 18.0391 42.3676 18.0625C42.7864 9.19531 44.6403 4 47.5309 4C48.7668 4 49.4672 4.76563 50.7717 6.375C52.296 8.25781 54.2872 10.7031 58.1872 11.625C58.1254 11.1016 58.0773 10.5391 58.0773 10C58.0773 9.15625 58.1528 8.35938 58.297 7.5625C55.8801 6.8125 54.6031 5.22656 53.3534 3.6875C51.9596 1.96875 50.3598 0 47.5309 0ZM68.6237 2C64.7443 2 61.5928 5.59375 61.5928 10C61.5928 14.4062 64.7443 18 68.6237 18C72.5031 18 75.6546 14.4062 75.6546 10C75.6546 5.59375 72.5031 2 68.6237 2ZM40.5 22C19.1738 22 1.82991 34.3594 1.82991 52C1.82991 69.6406 19.1738 84 40.5 84C61.8262 84 79.1701 69.6406 79.1701 52C79.1701 34.3594 61.8262 22 40.5 22ZM9.7397 23.875C7.17177 23.875 4.73429 25.0703 2.87356 27.1875C-0.154405 30.6328 -0.779224 35.5859 0.951043 39.6875C3.60824 33.8359 8.18109 28.8438 14.0791 25.125C12.7402 24.3516 11.2571 23.875 9.7397 23.875ZM71.2603 23.875C69.7429 23.875 68.2598 24.3516 66.9209 25.125C72.8189 28.8438 77.3918 33.8359 80.049 39.6875C81.7792 35.5859 81.1544 30.6328 78.1264 27.1875C76.2657 25.0703 73.8282 23.875 71.2603 23.875ZM26.4381 40C29.3494 40 31.7113 42.6875 31.7113 46C31.7113 49.3125 29.3494 52 26.4381 52C23.5269 52 21.165 49.3125 21.165 46C21.165 42.6875 23.5269 40 26.4381 40ZM54.5619 40C57.4731 40 59.835 42.6875 59.835 46C59.835 49.3125 57.4731 52 54.5619 52C51.6506 52 49.2887 49.3125 49.2887 46C49.2887 42.6875 51.6506 40 54.5619 40ZM24.7903 62C25.2297 62.0859 25.6623 62.3672 25.9438 62.8125C26.1292 63.1094 30.2489 69.375 40.5 69.375C50.8885 69.375 55.015 62.9375 55.0562 62.875C55.6124 61.9766 56.7315 61.7344 57.528 62.375C58.3176 63.0078 58.4687 64.2188 57.9125 65.125C57.7065 65.4609 52.6943 73.375 40.5 73.375C28.2989 73.375 23.2935 65.4609 23.0875 65.125C22.5313 64.2188 22.6755 63.0078 23.472 62.375C23.8702 62.0547 24.3508 61.9141 24.7903 62Z" fill="#5326EC"/>
</svg>
