<svg width="24" height="20" viewBox="0 0 24 20" fill="none" xmlns="http://www.w3.org/2000/svg">
<path d="M24 9.4996C23.9973 8.86819 23.7954 8.25375 23.4231 7.74376C23.0508 7.23377 22.5271 6.85425 21.9266 6.65924C21.3261 6.46423 20.6793 6.46368 20.0784 6.65765C19.4775 6.85163 18.9532 7.23025 18.58 7.7396C16.8136 6.68757 14.814 6.08975 12.76 5.9996C12.82 4.9396 13.13 3.0996 14.14 2.5196C14.77 2.1596 15.69 2.3296 16.85 2.9796C16.91 3.56814 17.1775 4.11612 17.6047 4.52537C18.0319 4.93462 18.5908 5.17839 19.1814 5.21303C19.772 5.24767 20.3556 5.07091 20.8277 4.71441C21.2998 4.35791 21.6296 3.84496 21.7579 3.26746C21.8862 2.68996 21.8048 2.08563 21.5281 1.56273C21.2514 1.03983 20.7976 0.632526 20.2479 0.413779C19.6982 0.195032 19.0887 0.179134 18.5283 0.368934C17.968 0.558734 17.4936 0.94183 17.19 1.4496C16.6287 1.09067 15.985 0.881142 15.3199 0.840888C14.6549 0.800635 13.9905 0.930995 13.39 1.2196C11.62 2.2196 11.3 4.8696 11.25 5.9996C9.19269 6.08853 7.18955 6.68638 5.42002 7.7396C5.04686 7.23025 4.52251 6.85163 3.92163 6.65765C3.32075 6.46368 2.67399 6.46423 2.07345 6.65924C1.47291 6.85425 0.949205 7.23377 0.576921 7.74376C0.204637 8.25375 0.00275456 8.86819 2.23036e-05 9.4996C-0.0023769 10.122 0.188841 10.7297 0.547183 11.2385C0.905526 11.7473 1.41325 12.1321 2.00002 12.3396C1.98549 12.5594 1.98549 12.7798 2.00002 12.9996C2.00002 16.8596 6.49002 19.9996 12 19.9996C17.51 19.9996 22 16.8596 22 12.9996C22.0146 12.7798 22.0146 12.5594 22 12.3396C22.5868 12.1321 23.0945 11.7473 23.4529 11.2385C23.8112 10.7297 24.0024 10.122 24 9.4996ZM6.50002 11.4996C6.50002 11.2029 6.588 10.9129 6.75282 10.6662C6.91764 10.4196 7.15191 10.2273 7.426 10.1138C7.70009 10.0002 8.00169 9.97054 8.29266 10.0284C8.58363 10.0863 8.8509 10.2292 9.06068 10.4389C9.27046 10.6487 9.41332 10.916 9.4712 11.207C9.52908 11.4979 9.49937 11.7995 9.38584 12.0736C9.27231 12.3477 9.08005 12.582 8.83338 12.7468C8.5867 12.9116 8.29669 12.9996 8.00002 12.9996C7.6022 12.9996 7.22067 12.8416 6.93936 12.5603C6.65806 12.279 6.50002 11.8974 6.50002 11.4996ZM15.91 16.4996C14.7136 17.1616 13.3674 17.5059 12 17.4996C10.6255 17.5121 9.27138 17.1675 8.07002 16.4996C7.89763 16.4001 7.77181 16.2363 7.72024 16.044C7.66867 15.8518 7.69557 15.647 7.79502 15.4746C7.89448 15.3022 8.05834 15.1764 8.25057 15.1248C8.44279 15.0732 8.64763 15.1001 8.82002 15.1996C9.80225 15.6985 10.8884 15.9585 11.99 15.9585C13.0917 15.9585 14.1778 15.6985 15.16 15.1996C15.3324 15.1001 15.5373 15.0732 15.7295 15.1248C15.9217 15.1764 16.0856 15.3022 16.185 15.4746C16.2845 15.647 16.3114 15.8518 16.2598 16.044C16.2082 16.2363 16.0824 16.4001 15.91 16.4996ZM16 12.9996C15.7034 12.9996 15.4133 12.9116 15.1667 12.7468C14.92 12.582 14.7277 12.3477 14.6142 12.0736C14.5007 11.7995 14.471 11.4979 14.5288 11.207C14.5867 10.916 14.7296 10.6487 14.9394 10.4389C15.1491 10.2292 15.4164 10.0863 15.7074 10.0284C15.9984 9.97054 16.3 10.0002 16.574 10.1138C16.8481 10.2273 17.0824 10.4196 17.2472 10.6662C17.412 10.9129 17.5 11.2029 17.5 11.4996C17.5 11.8974 17.342 12.279 17.0607 12.5603C16.7794 12.8416 16.3978 12.9996 16 12.9996Z" fill="#1B1657"/>
</svg>
