<svg width="78" height="94" viewBox="0 0 78 94" fill="none" xmlns="http://www.w3.org/2000/svg">
<g clip-path="url(#clip0_1088_48083)">
<path d="M2.73184 5.13663e-05C2.3461 -0.0022905 1.96423 0.0754698 1.61136 0.228216C1.2585 0.380962 0.942646 0.60523 0.684595 0.886253C0.426545 1.16728 0.23215 1.49868 0.114207 1.85866C-0.00373515 2.21863 -0.04255 2.599 0.000318129 2.97474V77.0443C0.000318129 77.8333 0.320078 78.5899 0.889255 79.1478C1.45843 79.7056 2.2304 80.019 3.03534 80.019H29.44C31.6353 84.1761 34.9399 87.6718 39.0018 90.1339C43.0637 92.5959 47.7308 93.932 52.5062 94.0001C59.2954 93.9218 65.7794 91.2233 70.552 86.4899C75.3245 81.7566 78.0008 75.37 78.0003 68.7152C77.9432 63.1671 76.0472 57.7876 72.5983 53.3878C69.1494 48.988 64.3345 45.8064 58.8797 44.3228V2.97474C58.8797 2.1858 58.5599 1.42918 57.9908 0.871319C57.4216 0.313458 56.6496 5.13663e-05 55.8447 5.13663e-05H2.73184ZM6.07036 5.65195H52.8097V43.7279H47.3466L42.4906 45.2152L38.2416 47.8925C35.4821 49.7055 33.1108 52.0297 31.261 54.7342C30.2758 56.0165 29.46 57.4158 28.833 58.8988C27.5202 62.0166 26.8002 65.3435 26.7085 68.7152C26.7603 70.5134 26.9633 72.3042 27.3155 74.0697H6.07036V5.65195ZM21.8525 10.114C21.4421 10.0661 21.0261 10.1102 20.6357 10.2428C20.2452 10.3753 19.8905 10.593 19.5984 10.8794C19.3062 11.1658 19.0841 11.5134 18.9488 11.896C18.8136 12.2787 18.7686 12.6865 18.8174 13.0887C18.8174 13.8776 19.1372 14.6342 19.7064 15.1921C20.2756 15.7499 21.0475 16.0633 21.8525 16.0633H37.0276C37.8325 16.0633 38.6045 15.7499 39.1736 15.1921C39.7428 14.6342 40.0626 13.8776 40.0626 13.0887C40.1114 12.6865 40.0665 12.2787 39.9312 11.896C39.7959 11.5134 39.5738 11.1658 39.2817 10.8794C38.9895 10.593 38.6348 10.3753 38.2444 10.2428C37.8539 10.1102 37.4379 10.0661 37.0276 10.114H21.8525ZM52.5062 49.3798H55.8447C60.4526 50.2149 64.616 52.6069 67.6104 56.1397C70.6049 59.6724 72.2409 64.1224 72.2338 68.7152C72.2338 73.8433 70.1553 78.7614 66.4557 82.3875C62.7561 86.0136 57.7383 88.0507 52.5062 88.0507C48.6024 88.0907 44.7769 86.9768 41.5286 84.8543C38.2802 82.7318 35.7598 79.6992 34.296 76.1519C33.4819 74.3607 32.9695 72.452 32.7785 70.5001V68.7152V66.9304C33.0051 66.2595 33.1079 65.5544 33.082 64.8482C33.3855 64.2532 33.3855 63.6583 33.689 63.0633C33.9925 62.4684 33.9925 61.8735 34.296 61.2785L35.2065 59.4937L36.1171 58.0064C37.6224 55.9369 39.4686 54.1273 41.5801 52.652L44.0081 51.4621L44.9186 50.8671H52.5062V49.3798ZM52.5062 55.3292C52.0958 55.2813 51.6798 55.3254 51.2894 55.4579C50.8989 55.5905 50.5442 55.8082 50.2521 56.0946C49.9599 56.3809 49.7378 56.7286 49.6025 57.1112C49.4673 57.4939 49.4223 57.9017 49.4711 58.3038V68.4178C49.4223 68.8199 49.4673 69.2277 49.6025 69.6104C49.7378 69.9931 49.9599 70.3407 50.2521 70.6271C50.5442 70.9134 50.8989 71.1311 51.2894 71.2637C51.6798 71.3963 52.0958 71.4403 52.5062 71.3925C53.3111 71.3925 54.0831 71.0791 54.6522 70.5212C55.2214 69.9633 55.5412 69.2067 55.5412 68.4178V58.3038C55.5412 57.5149 55.2214 56.7583 54.6522 56.2004C54.0831 55.6426 53.3111 55.3292 52.5062 55.3292ZM52.5062 75.2595C51.5402 75.2595 50.6139 75.6356 49.9309 76.3051C49.2478 76.9745 48.8641 77.8824 48.8641 78.8292C48.8622 79.2851 48.9575 79.7364 49.1439 80.1541C49.3304 80.5718 49.6038 80.9467 49.9467 81.2548C50.2896 81.5629 50.6944 81.7973 51.1352 81.9431C51.5759 82.0889 52.0429 82.1428 52.5062 82.1013C53.3916 82.1013 54.2408 81.7566 54.8669 81.1429C55.4929 80.5293 55.8447 79.697 55.8447 78.8292C55.887 78.3751 55.832 77.9174 55.6833 77.4854C55.5345 77.0535 55.2953 76.6567 54.981 76.3206C54.6667 75.9845 54.2841 75.7165 53.858 75.5338C53.4318 75.3511 52.9713 75.2577 52.5062 75.2595Z" fill="#5326EC"/>
</g>
<defs>
<clipPath id="clip0_1088_48083">
<rect width="78" height="94" fill="white"/>
</clipPath>
</defs>
</svg>
