<svg width="88" height="88" viewBox="0 0 88 88" fill="none" xmlns="http://www.w3.org/2000/svg">
<path d="M18.3327 11C20.3577 11 21.9993 12.6416 21.9993 14.6667C21.9993 16.6917 20.3577 18.3333 18.3327 18.3333C16.3077 18.3333 14.666 16.6917 14.666 14.6667C14.666 12.6416 16.3077 11 18.3327 11Z" fill="#5326EC"/>
<path d="M32.9993 14.6667C32.9993 12.6416 31.3577 11 29.3327 11C27.3077 11 25.666 12.6416 25.666 14.6667C25.666 16.6917 27.3077 18.3333 29.3327 18.3333C31.3577 18.3333 32.9993 16.6917 32.9993 14.6667Z" fill="#5326EC"/>
<path d="M40.3337 11C42.3588 11 44.0003 12.6416 44.0003 14.6667C44.0003 16.6917 42.3588 18.3333 40.3337 18.3333C38.3086 18.3333 36.667 16.6917 36.667 14.6667C36.667 12.6416 38.3086 11 40.3337 11Z" fill="#5326EC"/>
<path d="M57.4151 50.4261C58.939 49.0926 59.0937 46.776 57.7602 45.2521C56.4266 43.7282 54.11 43.5739 52.5861 44.9071L38.4533 57.2733L35.6401 54.3561C34.2344 52.8982 31.9132 52.856 30.4555 54.2618C28.9978 55.6673 28.9556 57.9886 30.3612 59.4465L35.5993 64.8783C36.957 66.2867 39.1812 66.3809 40.6533 65.0928L57.4151 50.4261Z" fill="#5326EC"/>
<path fill-rule="evenodd" clip-rule="evenodd" d="M11 0C4.92488 0 0 4.92485 0 11V77C0 83.0753 4.92485 88 11 88H77C83.0753 88 88 83.0753 88 77V11C88 4.92488 83.0753 0 77 0H11ZM7.33333 11C7.33333 8.97497 8.97494 7.33333 11 7.33333H77C79.0251 7.33333 80.6667 8.97494 80.6667 11V22H7.33333V11ZM7.33333 77V29.3333H80.6667V77C80.6667 79.0251 79.0251 80.6667 77 80.6667H11C8.97497 80.6667 7.33333 79.0251 7.33333 77Z" fill="#5326EC"/>
</svg>
