<svg width="58" height="58" viewBox="0 0 58 58" fill="none" xmlns="http://www.w3.org/2000/svg">
<path d="M39.0343 52.8949L40.2211 54.181L39.0343 52.8949ZM36.6632 51.9056L38.3832 51.5825L36.6632 51.9056ZM5.10359 18.9642L3.81752 17.7774H3.81752L5.10359 18.9642ZM6.09291 21.3353L6.41599 19.6153H6.41599L6.09291 21.3353ZM52.5765 23.9526L51.1804 22.8974V22.8974L52.5765 23.9526ZM25.0826 46.1453L25.8593 47.7135H25.8593L25.0826 46.1453ZM22.9603 45.7642L21.7229 47.0016L22.9603 45.7642ZM33.976 5.35211L35.0312 6.74821V6.74821L33.976 5.35211ZM11.7833 32.8461L10.2151 32.0694V32.0694L11.7833 32.8461ZM12.1645 34.9683L13.4019 33.7309L12.1645 34.9683ZM10.0402 38.6966L9.51097 37.0285H9.51097L10.0402 38.6966ZM9.46304 40.9495L10.7005 39.7121L9.46304 40.9495ZM16.7423 48.2287L15.5048 49.4662L16.7423 48.2287ZM18.9952 47.6516L20.6633 48.1808L20.6633 48.1808L18.9952 47.6516ZM16.0331 27.9207C15.3497 27.2373 14.2417 27.2373 13.5582 27.9207C12.8748 28.6041 12.8748 29.7121 13.5582 30.3955L16.0331 27.9207ZM27.6515 44.4888C28.3349 45.1723 29.443 45.1723 30.1264 44.4888C30.8098 43.8054 30.8098 42.6974 30.1264 42.014L27.6515 44.4888ZM6.16604 46.3076C6.84945 45.6242 6.84945 44.5162 6.16604 43.8327C5.48262 43.1493 4.37458 43.1493 3.69116 43.8327L6.16604 46.3076ZM0.856313 46.6676C0.172896 47.351 0.172896 48.459 0.856313 49.1425C1.53973 49.8259 2.64777 49.8259 3.33119 49.1425L0.856313 46.6676ZM14.2123 54.3539C14.8957 53.6705 14.8957 52.5624 14.2123 51.879C13.5289 51.1956 12.4208 51.1956 11.7374 51.879L14.2123 54.3539ZM8.90257 54.7138C8.21915 55.3973 8.21915 56.5053 8.90257 57.1887C9.58599 57.8721 10.694 57.8721 11.3774 57.1887L8.90257 54.7138ZM10.2601 50.2598C10.9435 49.5764 10.9435 48.4684 10.2601 47.785C9.57667 47.1015 8.46863 47.1015 7.78521 47.785L10.2601 50.2598ZM2.3246 53.2456C1.64118 53.929 1.64118 55.037 2.3246 55.7204C3.00802 56.4038 4.11606 56.4038 4.79947 55.7204L2.3246 53.2456ZM40.9738 33.557C41.0921 35.4298 41.5168 38.8261 41.2609 42.4678C41.0023 46.1469 40.0682 49.5595 37.8475 51.6088L40.2211 54.181C43.458 51.1939 44.4772 46.6268 44.7523 42.7132C45.03 38.7621 44.5689 34.9525 44.4668 33.3364L40.9738 33.557ZM38.3832 51.5825C38.0925 50.0352 37.61 47.9263 36.8538 45.8495C36.1096 43.8059 35.0403 41.6218 33.49 40.0715L31.0151 42.5464C32.0304 43.5617 32.8856 45.1811 33.565 47.0471C34.2324 48.8798 34.6724 50.7864 34.9433 52.2287L38.3832 51.5825ZM37.8475 51.6088C37.8811 51.5778 37.9625 51.526 38.0801 51.5093C38.1889 51.4939 38.2716 51.5162 38.3164 51.5362C38.3925 51.5702 38.3871 51.6034 38.3832 51.5825L34.9433 52.2287C35.1558 53.3599 35.8999 54.2902 36.8893 54.732C37.929 55.1963 39.2274 55.098 40.2211 54.181L37.8475 51.6088ZM24.6621 13.5317C23.046 13.4296 19.2364 12.9685 15.2853 13.2462C11.3717 13.5213 6.80463 14.5405 3.81752 17.7774L6.38965 20.151C8.43902 17.9303 11.8516 16.9962 15.5307 16.7376C19.1724 16.4817 22.5687 16.9064 24.4415 17.0247L24.6621 13.5317ZM5.76984 23.0552C7.21205 23.3261 9.11866 23.7661 10.9514 24.4335C12.8174 25.1129 14.4368 25.9681 15.4521 26.9834L17.927 24.5085C16.3767 22.9582 14.1926 21.8888 12.149 21.1447C10.0722 20.3885 7.96327 19.906 6.41599 19.6153L5.76984 23.0552ZM3.81752 17.7774C2.90047 18.7711 2.80218 20.0695 3.26645 21.1092C3.70828 22.0986 4.63865 22.8427 5.76984 23.0552L6.41599 19.6153C6.39507 19.6114 6.42833 19.606 6.4623 19.6821C6.4823 19.7269 6.50464 19.8096 6.48919 19.9184C6.47247 20.036 6.42069 20.1174 6.38965 20.151L3.81752 17.7774ZM52.3155 2.47408C52.9719 4.7962 53.9359 8.2904 54.0938 12.0633C54.2514 15.8311 53.5965 19.7008 51.1804 22.8974L53.9726 25.0078C57.0544 20.9304 57.7677 16.1462 57.5907 11.917C57.414 7.69275 56.3406 3.84669 55.6835 1.52206L52.3155 2.47408ZM51.1804 22.8974C47.8992 27.2387 42.6353 31.9491 37.3934 35.9689C32.1559 39.9854 27.0936 43.1964 24.3059 44.5771L25.8593 47.7135C28.9263 46.1945 34.1886 42.8373 39.5232 38.7463C44.8534 34.6587 50.4091 29.7226 53.9726 25.0078L51.1804 22.8974ZM24.1978 44.5268L18.4445 38.7735L15.9697 41.2484L21.7229 47.0016L24.1978 44.5268ZM24.3059 44.5771C24.3019 44.5791 24.2996 44.5799 24.2987 44.5801C24.2977 44.5804 24.2972 44.5805 24.2968 44.5806C24.2964 44.5806 24.2929 44.5811 24.2856 44.5797C24.2701 44.5768 24.2358 44.5648 24.1978 44.5268L21.7229 47.0016C22.7654 48.0442 24.4035 48.4345 25.8593 47.7135L24.3059 44.5771ZM55.7957 1.71505C51.2028 0.416798 40.9555 -2.11664 32.9208 3.95602L35.0312 6.74821C41.5446 1.8253 50.1431 3.7544 54.8437 5.08308L55.7957 1.71505ZM32.9208 3.95602C28.206 7.51956 23.2699 13.0752 19.1824 18.4054C15.0914 23.7401 11.7342 29.0023 10.2151 32.0694L13.3515 33.6228C14.7322 30.8351 17.9433 25.7727 21.9597 20.5353C25.9795 15.2934 30.6899 10.0294 35.0312 6.74821L32.9208 3.95602ZM10.927 36.2058L16.6802 41.959L19.1551 39.4841L13.4019 33.7309L10.927 36.2058ZM10.2151 32.0694C9.4941 33.5251 9.88449 35.1632 10.927 36.2058L13.4019 33.7309C13.3638 33.6928 13.3519 33.6586 13.3489 33.643C13.3476 33.6357 13.348 33.6323 13.3481 33.6318C13.3481 33.6315 13.3482 33.6309 13.3485 33.63C13.3488 33.629 13.3496 33.6267 13.3515 33.6228L10.2151 32.0694ZM46.0398 17.2304C44.3044 18.9658 41.5601 18.9584 39.9099 17.3082L37.435 19.783C40.4941 22.8421 45.4548 22.7651 48.5147 19.7053L46.0398 17.2304ZM39.9099 17.3082C38.2596 15.6579 38.2523 12.9136 39.9877 11.1782L37.5128 8.70335C34.4529 11.7632 34.3759 16.724 37.435 19.783L39.9099 17.3082ZM39.9877 11.1782C41.7231 9.44281 44.4674 9.45017 46.1176 11.1004L48.5925 8.62556C45.5334 5.56647 40.5727 5.64348 37.5128 8.70335L39.9877 11.1782ZM46.1176 11.1004C47.7679 12.7507 47.7752 15.495 46.0398 17.2304L48.5147 19.7053C51.5746 16.6454 51.6516 11.6846 48.5925 8.62556L46.1176 11.1004ZM34.2607 24.746C33.7241 25.2826 32.9061 25.2578 32.4332 24.7849L29.9583 27.2597C31.8401 29.1415 34.8746 29.0819 36.7356 27.2208L34.2607 24.746ZM32.4332 24.7849C31.9603 24.312 31.9355 23.4939 32.4721 22.9573L29.9972 20.4825C28.1362 22.3435 28.0766 25.378 29.9583 27.2597L32.4332 24.7849ZM32.4721 22.9573C33.0087 22.4207 33.8267 22.4455 34.2996 22.9184L36.7745 20.4436C34.8927 18.5618 31.8583 18.6214 29.9972 20.4825L32.4721 22.9573ZM34.2996 22.9184C34.7725 23.3914 34.7973 24.2094 34.2607 24.746L36.7356 27.2208C38.5966 25.3598 38.6562 22.3253 36.7745 20.4436L34.2996 22.9184ZM13.954 35.619L9.51097 37.0285L10.5693 40.3646L15.0124 38.9551L13.954 35.619ZM8.2256 42.187L15.5048 49.4662L17.9797 46.9913L10.7005 39.7121L8.2256 42.187ZM20.6633 48.1808L22.0728 43.7378L18.7367 42.6794L17.3271 47.1224L20.6633 48.1808ZM15.5048 49.4662C17.183 51.1443 19.973 50.3568 20.6633 48.1808L17.3271 47.1224C17.3677 46.9945 17.4785 46.9058 17.586 46.8783C17.6952 46.8503 17.8609 46.8726 17.9797 46.9913L15.5048 49.4662ZM9.51097 37.0285C7.33501 37.7188 6.54744 40.5088 8.2256 42.187L10.7005 39.7121C10.8192 39.8308 10.8415 39.9965 10.8135 40.1058C10.786 40.2133 10.6973 40.3241 10.5693 40.3646L9.51097 37.0285ZM13.5582 30.3955L27.6515 44.4888L30.1264 42.014L16.0331 27.9207L13.5582 30.3955ZM3.69116 43.8327L0.856313 46.6676L3.33119 49.1425L6.16604 46.3076L3.69116 43.8327ZM11.7374 51.879L8.90257 54.7138L11.3774 57.1887L14.2123 54.3539L11.7374 51.879ZM7.78521 47.785L2.3246 53.2456L4.79947 55.7204L10.2601 50.2598L7.78521 47.785Z" fill="#FED670"/>
</svg>
