<svg width="32" height="32" viewBox="0 0 32 32" fill="none" xmlns="http://www.w3.org/2000/svg">
<path d="M20.3815 16.4938L17.4127 21.2125C17.2912 21.3808 17.1435 21.5286 16.9752 21.65C16.5688 21.9335 16.0671 22.0453 15.5788 21.9611C15.0905 21.877 14.6551 21.6036 14.3671 21.2004C14.0791 20.7972 13.9618 20.2967 14.0405 19.8075C14.1193 19.3184 14.3877 18.88 14.7877 18.5875L19.5065 15.6188C19.6137 15.544 19.7413 15.5039 19.8721 15.5039C20.0028 15.5039 20.1304 15.544 20.2377 15.6188C20.3724 15.716 20.4632 15.8627 20.4901 16.0266C20.517 16.1906 20.478 16.3585 20.3815 16.4938Z" fill="black"/>
<path d="M16 5C7.71573 5 1 11.7157 1 20C1 21.4627 1.20936 22.8765 1.59976 24.2131C2.11933 25.9919 3.88947 27 5.74266 27H26.2573C28.1105 27 29.8807 25.9919 30.4002 24.2131C30.7906 22.8765 31 21.4627 31 20C31 11.7157 24.2843 5 16 5Z" stroke="#1D1E1F" stroke-width="2"/>
<path d="M16 10V12M26 20H24M8 20H6M10.3431 14.3431L8.92875 12.9288M21.6569 14.3431L23.0713 12.9288" stroke="black" stroke-width="2" stroke-miterlimit="10" stroke-linecap="round"/>
</svg>
