<svg width="22" height="22" viewBox="0 0 22 22" fill="none" xmlns="http://www.w3.org/2000/svg">
<path d="M19.1081 9.90008L13.0452 4.2282C12.9722 4.15945 12.9034 4.12078 12.8046 4.12508C12.6155 4.13367 12.3749 4.26688 12.3749 4.46883V7.31336C12.3749 7.3993 12.3062 7.47664 12.2202 7.48953C6.1917 8.41336 3.65225 12.9251 2.7542 17.6087C2.71983 17.7934 2.96904 17.9653 3.08506 17.8192C5.28506 15.0477 7.96201 13.2388 12.1944 13.2044C12.289 13.2044 12.3749 13.3161 12.3749 13.4106V16.2036C12.3749 16.5044 12.7745 16.6376 12.9979 16.4313L19.1038 10.6606C19.2155 10.5575 19.2499 10.4372 19.2542 10.2997C19.2499 10.1622 19.2155 10.0032 19.1081 9.90008Z" fill="#D7DDEA"/>
<mask id="mask0_1262_14809" style="mask-type:alpha" maskUnits="userSpaceOnUse" x="2" y="4" width="18" height="14">
<path d="M19.1081 9.90008L13.0452 4.2282C12.9722 4.15945 12.9034 4.12078 12.8046 4.12508C12.6155 4.13367 12.3749 4.26688 12.3749 4.46883V7.31336C12.3749 7.3993 12.3062 7.47664 12.2202 7.48953C6.1917 8.41336 3.65225 12.9251 2.7542 17.6087C2.71983 17.7934 2.96904 17.9653 3.08506 17.8192C5.28506 15.0477 7.96201 13.2388 12.1944 13.2044C12.289 13.2044 12.3749 13.3161 12.3749 13.4106V16.2036C12.3749 16.5044 12.7745 16.6376 12.9979 16.4313L19.1038 10.6606C19.2155 10.5575 19.2499 10.4372 19.2542 10.2997C19.2499 10.1622 19.2155 10.0032 19.1081 9.90008Z" fill="white"/>
</mask>
<g mask="url(#mask0_1262_14809)">
</g>
</svg>
