<svg width="640" height="840" viewBox="0 0 640 840" fill="none" xmlns="http://www.w3.org/2000/svg">
<mask id="mask0_3002_86526" style="mask-type:alpha" maskUnits="userSpaceOnUse" x="0" y="0" width="640" height="939">
<rect width="640" height="939" fill="#5326EC"/>
</mask>
<g mask="url(#mask0_3002_86526)">
<g opacity="0.6">
<mask id="mask1_3002_86526" style="mask-type:alpha" maskUnits="userSpaceOnUse" x="-15" y="127" width="655" height="831">
<rect x="-15" y="127" width="655" height="831" fill="url(#paint0_linear_3002_86526)"/>
</mask>
<g mask="url(#mask1_3002_86526)">
<g opacity="0.2">
<path d="M-8.29612 535.676C-8.29612 541.617 -9.2862 547.138 -11.2664 552.241C-13.2465 557.344 -15.9883 561.761 -19.4916 565.493C-22.995 569.149 -27.2219 572.043 -32.1723 574.175C-37.0465 576.231 -42.3397 577.26 -48.0517 577.26C-53.916 577.26 -59.4376 576.193 -64.6165 574.061C-69.7192 571.928 -74.1746 569.034 -77.9826 565.379C-81.7144 561.647 -84.6847 557.268 -86.8933 552.241C-89.0258 547.214 -90.092 541.807 -90.092 536.019C-90.092 530.231 -89.0258 524.823 -86.8933 519.797C-84.6847 514.77 -81.7144 510.429 -77.9826 506.773C-74.2507 503.042 -69.8335 500.109 -64.7307 497.977C-59.628 495.844 -54.1826 494.778 -48.3944 494.778C-41.7685 494.778 -35.4472 496.149 -29.4305 498.891C-23.4139 501.556 -18.5396 505.364 -14.8078 510.315L-28.6309 522.31C-31.1441 518.959 -34.1144 516.446 -37.5416 514.77C-40.8926 513.095 -44.5102 512.257 -48.3944 512.257C-51.4408 512.257 -54.2968 512.866 -56.9624 514.085C-59.5518 515.303 -61.7986 516.979 -63.7026 519.111C-65.6066 521.168 -67.0917 523.681 -68.1579 526.651C-69.2242 529.545 -69.7573 532.668 -69.7573 536.019C-69.7573 539.446 -69.2242 542.645 -68.1579 545.615C-67.0155 548.509 -65.4542 551.022 -63.4741 553.155C-61.4939 555.287 -59.171 556.963 -56.5054 558.181C-53.7637 559.4 -50.8315 560.009 -47.709 560.009C-43.2155 560.009 -39.3313 558.753 -36.0565 556.239C-32.7054 553.726 -30.4968 550.527 -29.4305 546.643H-49.4226V530.078H-8.29612V535.676ZM1.14742 576.003V496.035H20.7967V576.003H1.14742ZM56.0532 576.003L25.3226 496.035H46.5712L67.7057 555.554L89.1828 496.035H109.632L78.4442 576.003H56.0532Z" fill="#754DFF"/>
<path d="M197.338 535.676C197.338 541.617 196.347 547.138 194.367 552.241C192.387 557.344 189.645 561.761 186.142 565.493C182.639 569.149 178.412 572.043 173.461 574.175C168.587 576.231 163.294 577.26 157.582 577.26C151.718 577.26 146.196 576.193 141.017 574.061C135.914 571.928 131.459 569.034 127.651 565.379C123.919 561.647 120.949 557.268 118.74 552.241C116.608 547.214 115.542 541.807 115.542 536.019C115.542 530.231 116.608 524.823 118.74 519.797C120.949 514.77 123.919 510.429 127.651 506.773C131.383 503.042 135.8 500.109 140.903 497.977C146.006 495.844 151.451 494.778 157.239 494.778C163.865 494.778 170.186 496.149 176.203 498.891C182.22 501.556 187.094 505.364 190.826 510.315L177.003 522.31C174.49 518.959 171.519 516.446 168.092 514.77C164.741 513.095 161.123 512.257 157.239 512.257C154.193 512.257 151.337 512.866 148.671 514.085C146.082 515.303 143.835 516.979 141.931 519.111C140.027 521.168 138.542 523.681 137.476 526.651C136.409 529.545 135.876 532.668 135.876 536.019C135.876 539.446 136.409 542.645 137.476 545.615C138.618 548.509 140.179 551.022 142.16 553.155C144.14 555.287 146.463 556.963 149.128 558.181C151.87 559.4 154.802 560.009 157.925 560.009C162.418 560.009 166.302 558.753 169.577 556.239C172.928 553.726 175.137 550.527 176.203 546.643H156.211V530.078H197.338V535.676ZM206.781 576.003V496.035H226.43V576.003H206.781ZM261.687 576.003L230.956 496.035H252.205L273.339 555.554L294.816 496.035H315.265L284.078 576.003H261.687Z" fill="#754DFF"/>
<path d="M402.968 535.676C402.968 541.617 401.978 547.138 399.998 552.241C398.018 557.344 395.276 561.761 391.772 565.493C388.269 569.149 384.042 572.043 379.092 574.175C374.218 576.231 368.924 577.26 363.212 577.26C357.348 577.26 351.827 576.193 346.648 574.061C341.545 571.928 337.09 569.034 333.282 565.379C329.55 561.647 326.579 557.268 324.371 552.241C322.238 547.214 321.172 541.807 321.172 536.019C321.172 530.231 322.238 524.823 324.371 519.797C326.579 514.77 329.55 510.429 333.282 506.773C337.013 503.042 341.431 500.109 346.533 497.977C351.636 495.844 357.082 494.778 362.87 494.778C369.496 494.778 375.817 496.149 381.834 498.891C387.85 501.556 392.724 505.364 396.456 510.315L382.633 522.31C380.12 518.959 377.15 516.446 373.723 514.77C370.372 513.095 366.754 512.257 362.87 512.257C359.823 512.257 356.967 512.866 354.302 514.085C351.712 515.303 349.466 516.979 347.562 519.111C345.658 521.168 344.172 523.681 343.106 526.651C342.04 529.545 341.507 532.668 341.507 536.019C341.507 539.446 342.04 542.645 343.106 545.615C344.249 548.509 345.81 551.022 347.79 553.155C349.77 555.287 352.093 556.963 354.759 558.181C357.5 559.4 360.433 560.009 363.555 560.009C368.049 560.009 371.933 558.753 375.208 556.239C378.559 553.726 380.767 550.527 381.834 546.643H361.842V530.078H402.968V535.676ZM412.412 576.003V496.035H432.061V576.003H412.412ZM467.317 576.003L436.587 496.035H457.835L478.97 555.554L500.447 496.035H520.896L489.708 576.003H467.317Z" fill="#754DFF"/>
<path d="M608.602 535.676C608.602 541.617 607.612 547.138 605.632 552.241C603.652 557.344 600.91 561.761 597.406 565.493C593.903 569.149 589.676 572.043 584.726 574.175C579.852 576.231 574.558 577.26 568.846 577.26C562.982 577.26 557.461 576.193 552.282 574.061C547.179 571.928 542.724 569.034 538.916 565.379C535.184 561.647 532.213 557.268 530.005 552.241C527.872 547.214 526.806 541.807 526.806 536.019C526.806 530.231 527.872 524.823 530.005 519.797C532.213 514.77 535.184 510.429 538.916 506.773C542.647 503.042 547.065 500.109 552.167 497.977C557.27 495.844 562.716 494.778 568.504 494.778C575.13 494.778 581.451 496.149 587.468 498.891C593.484 501.556 598.358 505.364 602.09 510.315L588.267 522.31C585.754 518.959 582.784 516.446 579.357 514.77C576.005 513.095 572.388 512.257 568.504 512.257C565.457 512.257 562.601 512.866 559.936 514.085C557.346 515.303 555.1 516.979 553.196 519.111C551.292 521.168 549.806 523.681 548.74 526.651C547.674 529.545 547.141 532.668 547.141 536.019C547.141 539.446 547.674 542.645 548.74 545.615C549.883 548.509 551.444 551.022 553.424 553.155C555.404 555.287 557.727 556.963 560.393 558.181C563.134 559.4 566.067 560.009 569.189 560.009C573.683 560.009 577.567 558.753 580.842 556.239C584.193 553.726 586.401 550.527 587.468 546.643H567.476V530.078H608.602V535.676ZM618.046 576.003V496.035H637.695V576.003H618.046ZM672.951 576.003L642.221 496.035H663.469L684.604 555.554L706.081 496.035H726.53L695.342 576.003H672.951Z" fill="#754DFF"/>
</g>
<g opacity="0.2">
<path d="M-5.22911 785.53C-5.22911 791.47 -6.21919 796.992 -8.19936 802.095C-10.1795 807.197 -12.9213 811.615 -16.4246 815.346C-19.928 819.002 -24.1549 821.896 -29.1053 824.029C-33.9795 826.085 -39.2727 827.113 -44.9847 827.113C-50.849 827.113 -56.3706 826.047 -61.5495 823.914C-66.6522 821.782 -71.1076 818.888 -74.9156 815.232C-78.6474 811.5 -81.6177 807.121 -83.8263 802.095C-85.9588 797.068 -87.025 791.661 -87.025 785.872C-87.025 780.084 -85.9588 774.677 -83.8263 769.65C-81.6177 764.624 -78.6474 760.283 -74.9156 756.627C-71.1837 752.895 -66.7664 749.963 -61.6637 747.83C-56.561 745.698 -51.1156 744.632 -45.3274 744.632C-38.7015 744.632 -32.3802 746.003 -26.3635 748.744C-20.3469 751.41 -15.4726 755.218 -11.7408 760.168L-25.5639 772.164C-28.0771 768.813 -31.0474 766.299 -34.4746 764.624C-37.8256 762.948 -41.4432 762.11 -45.3274 762.11C-48.3738 762.11 -51.2298 762.72 -53.8954 763.938C-56.4848 765.157 -58.7316 766.832 -60.6356 768.965C-62.5396 771.021 -64.0247 773.534 -65.0909 776.505C-66.1572 779.399 -66.6903 782.521 -66.6903 785.872C-66.6903 789.3 -66.1572 792.498 -65.0909 795.469C-63.9485 798.363 -62.3872 800.876 -60.4071 803.008C-58.4269 805.141 -56.104 806.816 -53.4384 808.035C-50.6967 809.254 -47.7645 809.863 -44.6419 809.863C-40.1485 809.863 -36.2643 808.606 -32.9895 806.093C-29.6384 803.58 -27.4298 800.381 -26.3635 796.497H-46.3555V779.932H-5.22911V785.53ZM4.21443 825.856V745.888H23.8637V825.856H4.21443ZM59.1202 825.856L28.3896 745.888H49.6383L70.7727 805.407L92.2498 745.888H112.699L81.5112 825.856H59.1202Z" fill="#754DFF"/>
<path d="M200.403 785.529C200.403 791.469 199.413 796.991 197.433 802.094C195.453 807.196 192.711 811.614 189.208 815.345C185.704 819.001 181.477 821.895 176.527 824.028C171.653 826.084 166.36 827.112 160.648 827.112C154.783 827.112 149.262 826.046 144.083 823.913C138.98 821.781 134.525 818.887 130.717 815.231C126.985 811.499 124.015 807.12 121.806 802.094C119.674 797.067 118.607 791.66 118.607 785.871C118.607 780.083 119.674 774.676 121.806 769.649C124.015 764.623 126.985 760.282 130.717 756.626C134.449 752.894 138.866 749.962 143.969 747.829C149.071 745.697 154.517 744.631 160.305 744.631C166.931 744.631 173.252 746.002 179.269 748.743C185.285 751.409 190.16 755.217 193.891 760.167L180.068 772.163C177.555 768.812 174.585 766.298 171.158 764.623C167.807 762.947 164.189 762.109 160.305 762.109C157.259 762.109 154.403 762.719 151.737 763.937C149.147 765.156 146.901 766.831 144.997 768.964C143.093 771.02 141.608 773.534 140.541 776.504C139.475 779.398 138.942 782.52 138.942 785.871C138.942 789.299 139.475 792.497 140.541 795.468C141.684 798.362 143.245 800.875 145.225 803.007C147.205 805.14 149.528 806.815 152.194 808.034C154.936 809.253 157.868 809.862 160.99 809.862C165.484 809.862 169.368 808.605 172.643 806.092C175.994 803.579 178.203 800.38 179.269 796.496H159.277V779.931H200.403V785.529ZM209.847 825.855V745.887H229.496V825.855H209.847ZM264.752 825.855L234.022 745.887H255.271L276.405 805.406L297.882 745.887H318.331L287.144 825.855H264.752Z" fill="#754DFF"/>
<path d="M611.668 785.529C611.668 791.469 610.678 796.991 608.698 802.094C606.718 807.196 603.976 811.614 600.472 815.345C596.969 819.001 592.742 821.895 587.792 824.028C582.918 826.084 577.624 827.112 571.912 827.112C566.048 827.112 560.526 826.046 555.348 823.913C550.245 821.781 545.79 818.887 541.982 815.231C538.25 811.499 535.279 807.12 533.071 802.094C530.938 797.067 529.872 791.66 529.872 785.871C529.872 780.083 530.938 774.676 533.071 769.649C535.279 764.623 538.25 760.282 541.982 756.626C545.713 752.894 550.131 749.962 555.233 747.829C560.336 745.697 565.782 744.631 571.57 744.631C578.196 744.631 584.517 746.002 590.534 748.743C596.55 751.409 601.424 755.217 605.156 760.167L591.333 772.163C588.82 768.812 585.85 766.298 582.423 764.623C579.071 762.947 575.454 762.109 571.57 762.109C568.523 762.109 565.667 762.719 563.002 763.937C560.412 765.156 558.166 766.831 556.262 768.964C554.358 771.02 552.872 773.534 551.806 776.504C550.74 779.398 550.207 782.52 550.207 785.871C550.207 789.299 550.74 792.497 551.806 795.468C552.949 798.362 554.51 800.875 556.49 803.007C558.47 805.14 560.793 806.815 563.459 808.034C566.2 809.253 569.133 809.862 572.255 809.862C576.749 809.862 580.633 808.605 583.908 806.092C587.259 803.579 589.467 800.38 590.534 796.496H570.542V779.931H611.668V785.529ZM621.112 825.855V745.887H640.761V825.855H621.112ZM676.017 825.855L645.287 745.887H666.535L687.67 805.406L709.147 745.887H729.596L698.408 825.855H676.017Z" fill="#754DFF"/>
</g>
<g opacity="0.1">
<path d="M-8.29638 409.538C-8.29638 415.479 -9.28646 421.001 -11.2666 426.103C-13.2468 431.206 -15.9885 435.623 -19.4919 439.355C-22.9953 443.011 -27.2222 445.905 -32.1726 448.037C-37.0468 450.094 -42.3399 451.122 -48.0519 451.122C-53.9163 451.122 -59.4379 450.056 -64.6167 447.923C-69.7195 445.791 -74.1748 442.897 -77.9828 439.241C-81.7147 435.509 -84.6849 431.13 -86.8936 426.103C-89.026 421.077 -90.0923 415.669 -90.0923 409.881C-90.0923 404.093 -89.026 398.686 -86.8936 393.659C-84.6849 388.633 -81.7147 384.291 -77.9828 380.636C-74.251 376.904 -69.8337 373.972 -64.731 371.839C-59.6283 369.707 -54.1828 368.641 -48.3947 368.641C-41.7687 368.641 -35.4474 370.011 -29.4308 372.753C-23.4142 375.419 -18.5399 379.227 -14.8081 384.177L-28.6311 396.172C-31.1444 392.821 -34.1146 390.308 -37.5418 388.633C-40.8929 386.957 -44.5105 386.119 -48.3947 386.119C-51.4411 386.119 -54.2971 386.729 -56.9627 387.947C-59.5521 389.166 -61.7988 390.841 -63.7028 392.974C-65.6068 395.03 -67.0919 397.543 -68.1582 400.514C-69.2244 403.408 -69.7576 406.53 -69.7576 409.881C-69.7576 413.308 -69.2244 416.507 -68.1582 419.477C-67.0158 422.371 -65.4545 424.885 -63.4743 427.017C-61.4942 429.15 -59.1713 430.825 -56.5057 432.044C-53.7639 433.262 -50.8318 433.872 -47.7092 433.872C-43.2158 433.872 -39.3316 432.615 -36.0567 430.102C-32.7057 427.588 -30.497 424.39 -29.4308 420.506H-49.4228V403.941H-8.29638V409.538ZM-87.4648 563.865V483.897H-67.8155V563.865H-87.4648ZM-32.559 563.865L-63.2896 483.897H-42.0409L-20.9065 543.416L0.570616 483.897H21.0196L-10.168 563.865H-32.559Z" fill="#754DFF"/>
<path d="M197.337 409.538C197.337 415.479 196.347 421.001 194.367 426.103C192.387 431.206 189.645 435.623 186.141 439.355C182.638 443.011 178.411 445.905 173.461 448.037C168.587 450.094 163.293 451.122 157.581 451.122C151.717 451.122 146.196 450.056 141.017 447.923C135.914 445.791 131.459 442.897 127.651 439.241C123.919 435.509 120.948 431.13 118.74 426.103C116.607 421.077 115.541 415.669 115.541 409.881C115.541 404.093 116.607 398.686 118.74 393.659C120.948 388.633 123.919 384.291 127.651 380.636C131.382 376.904 135.8 373.972 140.902 371.839C146.005 369.707 151.451 368.641 157.239 368.641C163.865 368.641 170.186 370.011 176.203 372.753C182.219 375.419 187.093 379.227 190.825 384.177L177.002 396.172C174.489 392.821 171.519 390.308 168.092 388.633C164.74 386.957 161.123 386.119 157.239 386.119C154.192 386.119 151.336 386.729 148.671 387.947C146.081 389.166 143.835 390.841 141.931 392.974C140.027 395.03 138.541 397.543 137.475 400.514C136.409 403.408 135.876 406.53 135.876 409.881C135.876 413.308 136.409 416.507 137.475 419.477C138.618 422.371 140.179 424.885 142.159 427.017C144.139 429.15 146.462 430.825 149.128 432.044C151.869 433.262 154.802 433.872 157.924 433.872C162.418 433.872 166.302 432.615 169.577 430.102C172.928 427.588 175.136 424.39 176.203 420.506H156.211V403.941H197.337V409.538ZM206.781 449.865V369.897H226.43V449.865H206.781ZM261.686 449.865L230.956 369.897H252.204L273.339 429.416L294.816 369.897H315.265L284.077 449.865H261.686Z" fill="#754DFF"/>
<path d="M402.967 409.538C402.967 415.479 401.977 421.001 399.997 426.103C398.017 431.206 395.275 435.623 391.772 439.355C388.269 443.011 384.042 445.905 379.091 448.037C374.217 450.094 368.924 451.122 363.212 451.122C357.348 451.122 351.826 450.056 346.647 447.923C341.544 445.791 337.089 442.897 333.281 439.241C329.549 435.509 326.579 431.13 324.37 426.103C322.238 421.077 321.172 415.669 321.172 409.881C321.172 404.093 322.238 398.686 324.37 393.659C326.579 388.633 329.549 384.291 333.281 380.636C337.013 376.904 341.43 373.972 346.533 371.839C351.636 369.707 357.081 368.641 362.869 368.641C369.495 368.641 375.816 370.011 381.833 372.753C387.85 375.419 392.724 379.227 396.456 384.177L382.633 396.172C380.119 392.821 377.149 390.308 373.722 388.633C370.371 386.957 366.753 386.119 362.869 386.119C359.823 386.119 356.967 386.729 354.301 387.947C351.712 389.166 349.465 390.841 347.561 392.974C345.657 395.03 344.172 397.543 343.106 400.514C342.039 403.408 341.506 406.53 341.506 409.881C341.506 413.308 342.039 416.507 343.106 419.477C344.248 422.371 345.809 424.885 347.789 427.017C349.77 429.15 352.092 430.825 354.758 432.044C357.5 433.262 360.432 433.872 363.555 433.872C368.048 433.872 371.932 432.615 375.207 430.102C378.558 427.588 380.767 424.39 381.833 420.506H361.841V403.941H402.967V409.538ZM412.411 449.865V369.897H432.06V449.865H412.411ZM467.317 449.865L436.586 369.897H457.835L478.969 429.416L500.446 369.897H520.895L489.708 449.865H467.317Z" fill="#754DFF"/>
<path d="M608.602 409.538C608.602 415.479 607.612 421.001 605.632 426.103C603.651 431.206 600.91 435.623 597.406 439.355C593.903 443.011 589.676 445.905 584.726 448.037C579.851 450.094 574.558 451.122 568.846 451.122C562.982 451.122 557.46 450.056 552.281 447.923C547.179 445.791 542.723 442.897 538.915 439.241C535.183 435.509 532.213 431.13 530.005 426.103C527.872 421.077 526.806 415.669 526.806 409.881C526.806 404.093 527.872 398.686 530.005 393.659C532.213 388.633 535.183 384.291 538.915 380.636C542.647 376.904 547.064 373.972 552.167 371.839C557.27 369.707 562.715 368.641 568.503 368.641C575.129 368.641 581.451 370.011 587.467 372.753C593.484 375.419 598.358 379.227 602.09 384.177L588.267 396.172C585.754 392.821 582.783 390.308 579.356 388.633C576.005 386.957 572.388 386.119 568.503 386.119C565.457 386.119 562.601 386.729 559.935 387.947C557.346 389.166 555.099 390.841 553.195 392.974C551.291 395.03 549.806 397.543 548.74 400.514C547.674 403.408 547.141 406.53 547.141 409.881C547.141 413.308 547.674 416.507 548.74 419.477C549.882 422.371 551.444 424.885 553.424 427.017C555.404 429.15 557.727 430.825 560.392 432.044C563.134 433.262 566.066 433.872 569.189 433.872C573.682 433.872 577.567 432.615 580.841 430.102C584.192 427.588 586.401 424.39 587.467 420.506H567.475V403.941H608.602V409.538ZM618.045 449.865V369.897H637.695V449.865H618.045ZM672.951 449.865L642.22 369.897H663.469L684.604 429.416L706.081 369.897H726.53L695.342 449.865H672.951Z" fill="#754DFF"/>
</g>
<g opacity="0.3">
<path d="M-8.29612 661.814C-8.29612 667.754 -9.2862 673.276 -11.2664 678.379C-13.2465 683.481 -15.9883 687.899 -19.4916 691.631C-22.995 695.286 -27.2219 698.18 -32.1723 700.313C-37.0465 702.369 -42.3397 703.397 -48.0517 703.397C-53.916 703.397 -59.4376 702.331 -64.6165 700.199C-69.7192 698.066 -74.1746 695.172 -77.9826 691.516C-81.7144 687.784 -84.6847 683.405 -86.8933 678.379C-89.0258 673.352 -90.092 667.945 -90.092 662.157C-90.092 656.368 -89.0258 650.961 -86.8933 645.934C-84.6847 640.908 -81.7144 636.567 -77.9826 632.911C-74.2507 629.179 -69.8335 626.247 -64.7307 624.115C-59.628 621.982 -54.1826 620.916 -48.3944 620.916C-41.7685 620.916 -35.4472 622.287 -29.4305 625.029C-23.4139 627.694 -18.5396 631.502 -14.8078 636.453L-28.6309 648.448C-31.1441 645.097 -34.1144 642.583 -37.5416 640.908C-40.8926 639.232 -44.5102 638.395 -48.3944 638.395C-51.4408 638.395 -54.2968 639.004 -56.9624 640.222C-59.5518 641.441 -61.7986 643.117 -63.7026 645.249C-65.6066 647.305 -67.0917 649.819 -68.1579 652.789C-69.2242 655.683 -69.7573 658.806 -69.7573 662.157C-69.7573 665.584 -69.2242 668.783 -68.1579 671.753C-67.0155 674.647 -65.4542 677.16 -63.4741 679.293C-61.4939 681.425 -59.171 683.101 -56.5054 684.319C-53.7637 685.538 -50.8315 686.147 -47.709 686.147C-43.2155 686.147 -39.3313 684.89 -36.0565 682.377C-32.7054 679.864 -30.4968 676.665 -29.4305 672.781H-49.4226V656.216H-8.29612V661.814ZM1.14742 702.141V622.173H20.7967V702.141H1.14742ZM56.0532 702.141L25.3226 622.173H46.5712L67.7057 681.692L89.1828 622.173H109.632L78.4442 702.141H56.0532Z" fill="#754DFF"/>
<path d="M608.602 661.814C608.602 667.754 607.612 673.276 605.632 678.379C603.652 683.481 600.91 687.899 597.406 691.631C593.903 695.286 589.676 698.18 584.726 700.313C579.852 702.369 574.558 703.397 568.846 703.397C562.982 703.397 557.461 702.331 552.282 700.199C547.179 698.066 542.724 695.172 538.916 691.516C535.184 687.784 532.213 683.405 530.005 678.379C527.872 673.352 526.806 667.945 526.806 662.157C526.806 656.368 527.872 650.961 530.005 645.934C532.213 640.908 535.184 636.567 538.916 632.911C542.647 629.179 547.065 626.247 552.167 624.115C557.27 621.982 562.716 620.916 568.504 620.916C575.13 620.916 581.451 622.287 587.468 625.029C593.484 627.694 598.358 631.502 602.09 636.453L588.267 648.448C585.754 645.097 582.784 642.583 579.357 640.908C576.005 639.232 572.388 638.395 568.504 638.395C565.457 638.395 562.601 639.004 559.936 640.222C557.346 641.441 555.1 643.117 553.196 645.249C551.292 647.305 549.806 649.819 548.74 652.789C547.674 655.683 547.141 658.806 547.141 662.157C547.141 665.584 547.674 668.783 548.74 671.753C549.883 674.647 551.444 677.16 553.424 679.293C555.404 681.425 557.727 683.101 560.393 684.319C563.134 685.538 566.067 686.147 569.189 686.147C573.683 686.147 577.567 684.89 580.842 682.377C584.193 679.864 586.401 676.665 587.468 672.781H567.476V656.216H608.602V661.814ZM618.046 702.141V622.173H637.695V702.141H618.046ZM672.951 702.141L642.221 622.173H663.469L684.604 681.692L706.081 622.173H726.53L695.342 702.141H672.951Z" fill="#754DFF"/>
<path d="M403.349 661.814C403.349 667.754 402.359 673.276 400.379 678.379C398.399 683.481 395.657 687.899 392.153 691.631C388.65 695.286 384.423 698.18 379.473 700.313C374.599 702.369 369.305 703.397 363.593 703.397C357.729 703.397 352.207 702.331 347.029 700.199C341.926 698.066 337.47 695.172 333.662 691.516C329.931 687.784 326.96 683.405 324.752 678.379C322.619 673.352 321.553 667.945 321.553 662.157C321.553 656.368 322.619 650.961 324.752 645.934C326.96 640.908 329.931 636.567 333.662 632.911C337.394 629.179 341.812 626.247 346.914 624.115C352.017 621.982 357.463 620.916 363.251 620.916C369.877 620.916 376.198 622.287 382.215 625.029C388.231 627.694 393.105 631.502 396.837 636.453L383.014 648.448C380.501 645.097 377.531 642.583 374.103 640.908C370.752 639.232 367.135 638.395 363.251 638.395C360.204 638.395 357.348 639.004 354.683 640.222C352.093 641.441 349.847 643.117 347.942 645.249C346.038 647.305 344.553 649.819 343.487 652.789C342.421 655.683 341.888 658.806 341.888 662.157C341.888 665.584 342.421 668.783 343.487 671.753C344.63 674.647 346.191 677.16 348.171 679.293C350.151 681.425 352.474 683.101 355.14 684.319C357.881 685.538 360.814 686.147 363.936 686.147C368.43 686.147 372.314 684.89 375.589 682.377C378.94 679.864 381.148 676.665 382.215 672.781H362.223V656.216H403.349V661.814ZM412.792 702.141V622.173H432.442V702.141H412.792ZM467.698 702.141L436.968 622.173H458.216L479.351 681.692L500.828 622.173H521.277L490.089 702.141H467.698Z" fill="#754DFF"/>
<path opacity="0.2" d="M195.255 661.814C195.255 667.754 194.265 673.276 192.285 678.379C190.304 683.481 187.563 687.899 184.059 691.631C180.556 695.286 176.329 698.18 171.379 700.313C166.504 702.369 161.211 703.397 155.499 703.397C149.635 703.397 144.113 702.331 138.934 700.199C133.832 698.066 129.376 695.172 125.568 691.516C121.837 687.784 118.866 683.405 116.658 678.379C114.525 673.352 113.459 667.945 113.459 662.157C113.459 656.368 114.525 650.961 116.658 645.934C118.866 640.908 121.837 636.567 125.568 632.911C129.3 629.179 133.717 626.247 138.82 624.115C143.923 621.982 149.368 620.916 155.157 620.916C161.782 620.916 168.104 622.287 174.12 625.029C180.137 627.694 185.011 631.502 188.743 636.453L174.92 648.448C172.407 645.097 169.437 642.583 166.009 640.908C162.658 639.232 159.041 638.395 155.157 638.395C152.11 638.395 149.254 639.004 146.589 640.222C143.999 641.441 141.752 643.117 139.848 645.249C137.944 647.305 136.459 649.819 135.393 652.789C134.327 655.683 133.794 658.806 133.794 662.157C133.794 665.584 134.327 668.783 135.393 671.753C136.535 674.647 138.097 677.16 140.077 679.293C142.057 681.425 144.38 683.101 147.046 684.319C149.787 685.538 152.719 686.147 155.842 686.147C160.335 686.147 164.22 684.89 167.494 682.377C170.846 679.864 173.054 676.665 174.12 672.781H154.128V656.216H195.255V661.814ZM204.698 702.141V622.173H224.348V702.141H204.698ZM259.604 702.141L228.874 622.173H250.122L271.257 681.692L292.734 622.173H313.183L281.995 702.141H259.604Z" fill="#FCFCFF"/>
</g>
<path opacity="0.3" d="M403.786 784.021C403.786 789.961 402.796 795.483 400.816 800.586C398.835 805.688 396.094 810.106 392.59 813.838C389.087 817.493 384.86 820.387 379.91 822.52C375.035 824.576 369.742 825.604 364.03 825.604C358.166 825.604 352.644 824.538 347.465 822.406C342.363 820.273 337.907 817.379 334.099 813.723C330.368 809.991 327.397 805.612 325.189 800.586C323.056 795.559 321.99 790.152 321.99 784.364C321.99 778.575 323.056 773.168 325.189 768.142C327.397 763.115 330.368 758.774 334.099 755.118C337.831 751.386 342.249 748.454 347.351 746.322C352.454 744.189 357.899 743.123 363.688 743.123C370.313 743.123 376.635 744.494 382.651 747.236C388.668 749.901 393.542 753.709 397.274 758.66L383.451 770.655C380.938 767.304 377.968 764.79 374.54 763.115C371.189 761.439 367.572 760.602 363.688 760.602C360.641 760.602 357.785 761.211 355.12 762.43C352.53 763.648 350.283 765.324 348.379 767.456C346.475 769.512 344.99 772.026 343.924 774.996C342.858 777.89 342.325 781.013 342.325 784.364C342.325 787.791 342.858 790.99 343.924 793.96C345.066 796.854 346.628 799.367 348.608 801.5C350.588 803.632 352.911 805.308 355.577 806.526C358.318 807.745 361.25 808.354 364.373 808.354C368.866 808.354 372.751 807.097 376.025 804.584C379.377 802.071 381.585 798.872 382.651 794.988H362.659V778.423H403.786V784.021ZM413.229 824.348V744.38H432.879V824.348H413.229ZM468.135 824.348L437.405 744.38H458.653L479.788 803.899L501.265 744.38H521.714L490.526 824.348H468.135Z" fill="#754DFF"/>
</g>
</g>
<path d="M161.288 996.827C137.201 1038.36 99.4643 1070.27 54.5014 1087.11C9.53847 1103.95 -39.8721 1104.7 -85.3202 1089.21C-130.768 1073.72 -169.445 1042.96 -194.768 1002.17C-220.09 961.376 -230.493 913.067 -224.207 865.467C-217.92 817.866 -195.331 773.914 -160.286 741.094C-125.241 708.273 -79.9045 688.611 -31.9941 685.455C15.9163 682.298 63.4399 695.843 102.488 723.782C141.536 751.722 169.696 792.33 182.173 838.694C189.261 865.131 191.064 892.706 187.48 919.841C183.897 946.975 174.996 973.137 161.288 996.827Z" fill="#2FC8E0" stroke="#2FC8E0" stroke-width="4.48213"/>
<path fill-rule="evenodd" clip-rule="evenodd" d="M119.742 434.9L119.983 435.181L125.242 440.439L126.606 441.54L126.615 441.547C127.833 442.536 129.158 443.654 130.559 444.835L130.559 444.835C133.945 447.691 137.77 450.916 141.587 453.594L141.589 453.595C195.18 491.174 267.185 487.746 316.724 445.166L316.725 445.165C340.515 424.708 355.903 398.964 363.073 368.527L363.073 368.525C363.264 367.714 363.457 366.793 363.616 366.034C363.68 365.729 363.738 365.45 363.788 365.215L366.316 353.471L319.642 353.309L317.659 360.476C310.568 386.1 295.719 406.302 273.179 419.922C236.924 441.818 189.492 436.923 158.306 408.155L158.304 408.153C144.219 395.15 134.023 378.858 129.092 360.572L127.177 353.47L119.821 353.371C117.164 353.335 114.479 353.337 111.876 353.338C110.978 353.339 110.089 353.339 109.215 353.338L81.1657 353.307L83.609 365.043C88.2952 387.551 97.9049 408.326 112.37 426.308L112.372 426.311C114.033 428.374 115.9 430.503 117.589 432.43C118.355 433.303 119.085 434.135 119.742 434.9ZM151.701 415.31C186.055 447.003 238.229 452.406 278.214 428.258C302.983 413.291 319.321 390.98 327.044 363.073L354.269 363.167C354.269 363.167 354.269 363.167 354.268 363.168L327.044 363.073C319.321 390.981 302.983 413.292 278.214 428.259C238.229 452.407 186.055 447.004 151.701 415.311C136.351 401.141 125.128 383.277 119.69 363.109C117.107 363.074 114.524 363.075 111.94 363.077C111.028 363.077 110.115 363.078 109.203 363.077L93.1425 363.059C93.1425 363.059 93.1424 363.058 93.1424 363.058L109.203 363.076C110.115 363.077 111.027 363.076 111.939 363.076L111.94 363.076C114.524 363.074 117.107 363.073 119.69 363.108C125.128 383.276 136.351 401.14 151.701 415.31Z" fill="#FED670"/>
<path fill-rule="evenodd" clip-rule="evenodd" d="M119.012 322.221L115.572 318.775L119.008 322.224C114.246 326.969 107.986 329.916 101.294 330.565C94.6028 331.213 87.8933 329.523 82.3079 325.782C76.7225 322.04 72.6062 316.479 70.6598 310.044C68.7133 303.609 69.057 296.698 71.6323 290.488C74.2076 284.278 78.8553 279.153 84.7844 275.984C90.7136 272.815 97.5576 271.799 104.152 273.108C110.746 274.417 116.682 277.971 120.951 283.165C125.219 288.359 127.556 294.871 127.564 301.594L127.564 301.599C127.564 305.43 126.809 309.223 125.342 312.762C123.874 316.3 121.723 319.515 119.012 322.221Z" fill="#FED670"/>
<path d="M214.45 289.525H210.95L207.675 302.425L204.575 289.525H202.075L198.925 302.425L195.675 289.525H192.175L197.6 308H200.3L203.35 295.775L206.325 308H209.05L214.45 289.525ZM228.706 301.275C228.706 296.975 225.681 293.825 221.556 293.825C217.481 293.825 214.256 297.05 214.256 301.125C214.256 305.175 217.531 308.325 221.756 308.325C224.556 308.325 227.431 306.75 228.356 303.9H224.731C223.881 304.9 223.056 305.275 221.681 305.275C219.706 305.275 218.256 304.225 217.856 302.55H228.581C228.681 302.075 228.706 301.775 228.706 301.275ZM225.431 299.625H217.756C218.281 297.85 219.631 296.875 221.606 296.875C223.656 296.875 225.006 297.85 225.431 299.625ZM234.047 308V289.525H230.722V308H234.047ZM250.278 303.45H246.528C245.703 304.725 244.753 305.275 243.378 305.275C241.078 305.275 239.353 303.475 239.353 301.05C239.353 298.625 241.003 296.875 243.303 296.875C244.803 296.875 245.853 297.5 246.528 298.775H250.278C249.203 295.6 246.453 293.825 243.303 293.825C239.203 293.825 236.003 297 236.003 301.075C236.003 305.1 239.303 308.325 243.403 308.325C246.628 308.325 249.128 306.55 250.278 303.45ZM266.594 301.175C266.594 297.05 263.369 293.825 259.194 293.825C255.169 293.825 251.869 297.1 251.869 301.075C251.869 305.075 255.169 308.325 259.219 308.325C263.244 308.325 266.594 305.075 266.594 301.175ZM263.244 301.075C263.244 303.4 261.444 305.275 259.244 305.275C256.994 305.275 255.219 303.4 255.219 301.025C255.219 298.75 257.044 296.875 259.219 296.875C261.444 296.875 263.244 298.775 263.244 301.075ZM289.11 308V300C289.11 295.85 287.16 293.825 283.51 293.825C281.56 293.825 280.185 294.475 279.06 295.975C278.11 294.475 276.885 293.825 274.985 293.825C273.36 293.825 272.36 294.275 271.385 295.45V294.15H268.335V308H271.66V301.175C271.66 297.9 272.435 296.875 274.36 296.875C276.11 296.875 277.06 297.675 277.06 300.4V308H280.385V301.175C280.385 297.875 281.335 296.875 283.185 296.875C284.735 296.875 285.785 297.625 285.785 300.4V308H289.11ZM305.571 301.275C305.571 296.975 302.546 293.825 298.421 293.825C294.346 293.825 291.121 297.05 291.121 301.125C291.121 305.175 294.396 308.325 298.621 308.325C301.421 308.325 304.296 306.75 305.221 303.9H301.596C300.746 304.9 299.921 305.275 298.546 305.275C296.571 305.275 295.121 304.225 294.721 302.55H305.446C305.546 302.075 305.571 301.775 305.571 301.275ZM302.296 299.625H294.621C295.146 297.85 296.496 296.875 298.471 296.875C300.521 296.875 301.871 297.85 302.296 299.625ZM320.294 297.175V294.15H318.294V289.525H314.969V294.15H313.344V297.175H314.969V308H318.294V297.175H320.294ZM335.72 301.175C335.72 297.05 332.495 293.825 328.32 293.825C324.295 293.825 320.995 297.1 320.995 301.075C320.995 305.075 324.295 308.325 328.345 308.325C332.37 308.325 335.72 305.075 335.72 301.175ZM332.37 301.075C332.37 303.4 330.57 305.275 328.37 305.275C326.12 305.275 324.345 303.4 324.345 301.025C324.345 298.75 326.17 296.875 328.345 296.875C330.57 296.875 332.37 298.775 332.37 301.075ZM350.168 297.175V294.15H348.168V289.525H344.843V294.15H343.218V297.175H344.843V308H348.168V297.175H350.168ZM364.232 308V300.175C364.232 295.625 362.132 293.8 358.807 293.8C357.382 293.8 356.282 294.2 355.282 295.1V289.525H351.957V308H355.282V300.975C355.282 297.925 356.307 296.875 358.207 296.875C360.157 296.875 360.907 298.025 360.907 300.925V308H364.232ZM380.673 301.275C380.673 296.975 377.648 293.825 373.523 293.825C369.448 293.825 366.223 297.05 366.223 301.125C366.223 305.175 369.498 308.325 373.723 308.325C376.523 308.325 379.398 306.75 380.323 303.9H376.698C375.848 304.9 375.023 305.275 373.648 305.275C371.673 305.275 370.223 304.225 369.823 302.55H380.548C380.648 302.075 380.673 301.775 380.673 301.275ZM377.398 299.625H369.723C370.248 297.85 371.598 296.875 373.573 296.875C375.623 296.875 376.973 297.85 377.398 299.625ZM395.071 292.725V289.575C394.671 289.525 394.471 289.525 394.246 289.525C391.846 289.525 390.046 290.75 389.671 294.4H388.471V297.175H389.671V308H392.996V297.175H394.871V294.4H392.996C393.021 293.15 393.446 292.725 394.746 292.725H395.071ZM408.778 308V294.15H405.453V300.675C405.453 302.525 405.303 303.375 404.928 304C404.428 304.8 403.528 305.275 402.403 305.275C400.803 305.275 399.778 304.6 399.778 300.925V294.15H396.453V301.575C396.453 306.45 398.503 308.325 401.728 308.325C403.403 308.325 404.453 307.9 405.703 306.675V308H408.778ZM417.143 297.175V294.15H415.143V289.525H411.818V294.15H410.193V297.175H411.818V308H415.143V297.175H417.143ZM431.013 308V294.15H427.688V300.675C427.688 302.525 427.538 303.375 427.163 304C426.663 304.8 425.763 305.275 424.638 305.275C423.038 305.275 422.013 304.6 422.013 300.925V294.15H418.688V301.575C418.688 306.45 420.738 308.325 423.963 308.325C425.638 308.325 426.688 307.9 427.938 306.675V308H431.013ZM439.853 297.025V293.825H439.603C438.178 293.825 437.478 294.225 436.603 295.5V294.15H433.553V308H436.878V300.3C436.878 298.15 437.853 297.075 439.853 297.025ZM454.798 301.275C454.798 296.975 451.773 293.825 447.648 293.825C443.573 293.825 440.348 297.05 440.348 301.125C440.348 305.175 443.623 308.325 447.848 308.325C450.648 308.325 453.523 306.75 454.448 303.9H450.823C449.973 304.9 449.148 305.275 447.773 305.275C445.798 305.275 444.348 304.225 443.948 302.55H454.673C454.773 302.075 454.798 301.775 454.798 301.275ZM451.523 299.625H443.848C444.373 297.85 445.723 296.875 447.698 296.875C449.748 296.875 451.098 297.85 451.523 299.625ZM477.821 301.175C477.821 297.05 474.596 293.825 470.421 293.825C466.396 293.825 463.096 297.1 463.096 301.075C463.096 305.075 466.396 308.325 470.446 308.325C474.471 308.325 477.821 305.075 477.821 301.175ZM474.471 301.075C474.471 303.4 472.671 305.275 470.471 305.275C468.221 305.275 466.446 303.4 466.446 301.025C466.446 298.75 468.271 296.875 470.446 296.875C472.671 296.875 474.471 298.775 474.471 301.075ZM485.062 292.725V289.575C484.662 289.525 484.462 289.525 484.237 289.525C481.837 289.525 480.037 290.75 479.662 294.4H478.462V297.175H479.662V308H482.987V297.175H484.862V294.4H482.987C483.012 293.15 483.437 292.725 484.737 292.725H485.062ZM507.251 305.375V294.15H504.076V295.9C503.051 294.5 501.551 293.825 499.551 293.825C495.626 293.825 492.726 296.875 492.726 300.975C492.726 305.25 495.576 308.325 499.526 308.325C501.476 308.325 502.776 307.7 504.076 306.175C503.951 309.15 502.676 310.6 500.201 310.6C498.651 310.6 497.701 310.2 496.726 309.125H492.951C494.076 311.9 496.676 313.525 500.076 313.525C504.376 313.525 507.251 311.325 507.251 305.375ZM503.926 301.125C503.926 303.625 502.351 305.275 499.976 305.275C497.601 305.275 496.076 303.65 496.076 301.125C496.076 298.575 497.601 296.875 499.926 296.875C502.301 296.875 503.926 298.6 503.926 301.125ZM513.029 308V294.15H509.704V308H513.029ZM513.054 292.15V288.825H509.729V292.15H513.054ZM528.06 294.15H524.31L521.16 303.325L517.96 294.15H514.26L519.835 308H522.485L528.06 294.15ZM532.775 308V294.15H529.45V308H532.775ZM532.8 292.15V288.825H529.475V292.15H532.8ZM547.63 308V300.575C547.63 298.1 547.38 296.9 546.63 295.825C545.73 294.525 544.23 293.825 542.305 293.825C540.73 293.825 539.63 294.3 538.405 295.475V294.15H535.33V308H538.655V301.475C538.655 299.625 538.78 298.825 539.205 298.15C539.73 297.325 540.605 296.875 541.655 296.875C543.305 296.875 544.305 297.525 544.305 301.225V308H547.63ZM564.121 305.375V294.15H560.946V295.9C559.921 294.5 558.421 293.825 556.421 293.825C552.496 293.825 549.596 296.875 549.596 300.975C549.596 305.25 552.446 308.325 556.396 308.325C558.346 308.325 559.646 307.7 560.946 306.175C560.821 309.15 559.546 310.6 557.071 310.6C555.521 310.6 554.571 310.2 553.596 309.125H549.821C550.946 311.9 553.546 313.525 556.946 313.525C561.246 313.525 564.121 311.325 564.121 305.375ZM560.796 301.125C560.796 303.625 559.221 305.275 556.846 305.275C554.471 305.275 552.946 303.65 552.946 301.125C552.946 298.575 554.471 296.875 556.796 296.875C559.171 296.875 560.796 298.6 560.796 301.125Z" fill="#E7E1FF"/>
<path d="M458.366 -115.634C464.744 -108.207 471.355 -100.985 477.49 -93.3645C513.4 -48.7244 537.199 1.66215 548.885 57.7951C548.943 58.1979 548.977 58.6035 548.99 59.0102L506.165 58.9628C496.843 58.9519 487.521 59.0035 478.203 58.8781C477.711 58.7727 477.253 58.5487 476.868 58.2255C476.483 57.9023 476.183 57.4898 475.995 57.024C461.494 3.24711 433.778 -42.5325 392.848 -80.3149C301.247 -164.82 162.13 -179.229 55.5142 -114.839C-10.5315 -74.9303 -53.5894 -17.3316 -74.1803 57.0822C-74.3747 57.7904 -75.3572 58.8007 -75.9543 58.7798C-99.403 58.8642 -122.862 58.8781 -146.332 58.8213C-146.561 58.8213 -146.797 58.7726 -147.279 58.7205C-146.672 55.898 -146.127 53.124 -145.481 50.3814C-127.595 -25.5498 -89.4223 -89.3459 -30.2444 -140.233C92.7982 -245.992 271.683 -254.554 404.905 -161.138C418.373 -151.691 430.601 -140.483 443.398 -130.095L446.02 -127.98L458.366 -115.634Z" fill="#E1458D"/>
</g>
<defs>
<linearGradient id="paint0_linear_3002_86526" x1="224.257" y1="167.52" x2="664.341" y2="599.846" gradientUnits="userSpaceOnUse">
<stop stop-color="#465187"/>
<stop offset="1" stop-color="#0A1444"/>
</linearGradient>
</defs>
</svg>
