<svg width="44" height="44" viewBox="0 0 44 44" fill="none" xmlns="http://www.w3.org/2000/svg">
<rect width="44" height="44" rx="8" fill="white"/>
<path d="M26 18C27.5913 18 29.1174 18.6321 30.2426 19.7574C31.3679 20.8826 32 22.4087 32 24V30C32 30.5523 31.5523 31 31 31H29C28.4477 31 28 30.5523 28 30V24C28 23.4696 27.7893 22.9609 27.4142 22.5858C27.0391 22.2107 26.5304 22 26 22C25.4696 22 24.9609 22.2107 24.5858 22.5858C24.2107 22.9609 24 23.4696 24 24V30C24 30.5523 23.5523 31 23 31H21C20.4477 31 20 30.5523 20 30V24C20 22.4087 20.6321 20.8826 21.7574 19.7574C22.8826 18.6321 24.4087 18 26 18Z" fill="#0E76A8"/>
<path d="M15 19H13C12.4477 19 12 19.4477 12 20V30C12 30.5523 12.4477 31 13 31H15C15.5523 31 16 30.5523 16 30V20C16 19.4477 15.5523 19 15 19Z" fill="#0E76A8"/>
<path d="M14 16C15.1046 16 16 15.1046 16 14C16 12.8954 15.1046 12 14 12C12.8954 12 12 12.8954 12 14C12 15.1046 12.8954 16 14 16Z" fill="#0E76A8"/>
</svg>
