<svg width="48" height="48" viewBox="0 0 48 48" fill="none" xmlns="http://www.w3.org/2000/svg">
<rect width="48" height="48" fill="white"/>
<path fill-rule="evenodd" clip-rule="evenodd" d="M9 23.9997C9 15.7157 15.7157 9 24 9C32.2843 9 39 15.7157 39 23.9997C39 31.6522 33.2701 37.9658 25.8667 38.8847V27.2532H29.6011L29.8876 23.5731H25.8667V20.9044C25.8667 18.5737 29.8773 19.7693 29.8773 19.7693L30.3999 16.1506C30.3999 16.1506 28.3387 15.6144 25.8667 15.7222C20.776 15.942 20.9516 20.0153 20.9516 20.0153V23.5731H18.4632V27.2532H20.9516V38.6898C14.129 37.2814 9 31.2398 9 23.9997Z" fill="#1877F2"/>
</svg>
