<svg width="44" height="44" viewBox="0 0 44 44" fill="none" xmlns="http://www.w3.org/2000/svg">
<rect width="44" height="44" rx="8" fill="white"/>
<path d="M33.32 16.4401C33.3912 16.3809 33.4446 16.3032 33.4742 16.2155C33.5038 16.1279 33.5085 16.0337 33.4877 15.9435C33.467 15.8533 33.4217 15.7707 33.3567 15.7048C33.2918 15.6388 33.2099 15.5922 33.12 15.5701L32.33 15.3701C32.2582 15.3521 32.1913 15.3184 32.1341 15.2714C32.0768 15.2243 32.0308 15.1652 31.9992 15.0982C31.9676 15.0313 31.9513 14.9581 31.9515 14.8841C31.9516 14.81 31.9682 14.7369 32 14.6701L32.44 13.7801C32.4816 13.6938 32.4975 13.5975 32.486 13.5024C32.4744 13.4074 32.4357 13.3177 32.3746 13.244C32.3136 13.1702 32.2326 13.1156 32.1414 13.0866C32.0502 13.0575 31.9525 13.0552 31.86 13.0801L29.86 13.6401C29.7855 13.6618 29.707 13.6659 29.6306 13.652C29.5542 13.6381 29.4821 13.6066 29.42 13.5601C28.5546 12.9109 27.5019 12.5601 26.42 12.5601C25.094 12.5601 23.8222 13.0868 22.8845 14.0245C21.9468 14.9622 21.42 16.234 21.42 17.5601V17.9201C21.4205 17.9815 21.3983 18.0409 21.3577 18.087C21.3172 18.1331 21.261 18.1627 21.2 18.1701C18.39 18.5001 15.7 17.0701 12.8 13.7301C12.737 13.6606 12.6561 13.6098 12.5661 13.5834C12.4762 13.5569 12.3806 13.5558 12.29 13.5801C12.2084 13.6176 12.1384 13.6764 12.0874 13.7503C12.0364 13.8242 12.0062 13.9105 12 14.0001C11.5995 15.6454 11.7614 17.3775 12.46 18.9201C12.4807 18.961 12.4897 19.0068 12.4861 19.0525C12.4825 19.0982 12.4664 19.142 12.4396 19.1792C12.4127 19.2163 12.3762 19.2454 12.3339 19.2632C12.2917 19.281 12.2454 19.2868 12.2 19.2801L11.08 19.0601C11.0005 19.0473 10.9191 19.0539 10.8426 19.0794C10.7662 19.1048 10.697 19.1484 10.6411 19.2063C10.5851 19.2643 10.544 19.3349 10.5211 19.4121C10.4983 19.4894 10.4945 19.571 10.51 19.6501C10.5964 20.4175 10.8542 21.1557 11.2645 21.81C11.6747 22.4643 12.2269 23.018 12.88 23.4301C12.9223 23.4505 12.958 23.4825 12.9829 23.5223C13.0078 23.5621 13.0211 23.6081 13.0211 23.6551C13.0211 23.702 13.0078 23.748 12.9829 23.7878C12.958 23.8276 12.9223 23.8596 12.88 23.8801L12.35 24.0901C12.2857 24.1159 12.2274 24.1548 12.1789 24.2043C12.1303 24.2539 12.0927 24.313 12.0682 24.3778C12.0438 24.4427 12.0331 24.512 12.0368 24.5813C12.0406 24.6505 12.0587 24.7182 12.09 24.7801C12.3831 25.4214 12.8274 25.9821 13.3847 26.414C13.9421 26.8459 14.5959 27.1363 15.29 27.2601C15.3383 27.2776 15.38 27.3095 15.4095 27.3516C15.4389 27.3936 15.4547 27.4437 15.4547 27.4951C15.4547 27.5464 15.4389 27.5965 15.4095 27.6385C15.38 27.6806 15.3383 27.7125 15.29 27.7301C13.9304 28.2924 12.4713 28.5747 11 28.5601C10.8674 28.5335 10.7297 28.5608 10.6172 28.6358C10.5047 28.7108 10.4266 28.8275 10.4 28.9601C10.3735 29.0927 10.4008 29.2304 10.4758 29.3429C10.5508 29.4554 10.6674 29.5335 10.8 29.5601C13.3476 30.7683 16.1212 31.4259 18.94 31.4901C21.4195 31.5279 23.8548 30.8321 25.94 29.4901C27.6553 28.3451 29.0606 26.7936 30.0307 24.9737C31.0008 23.1539 31.5056 21.1223 31.5 19.0601V18.1901C31.5007 18.1174 31.5171 18.0458 31.5482 17.9802C31.5792 17.9146 31.6243 17.8565 31.68 17.8101L33.32 16.4401Z" fill="#00ACEE"/>
</svg>
