<svg width="48" height="48" viewBox="0 0 48 48" fill="none" xmlns="http://www.w3.org/2000/svg">
<rect width="48" height="48" fill="white"/>
<path fill-rule="evenodd" clip-rule="evenodd" d="M13.28 8C11.472 8 10 9.472 10 11.296V32.928C10 34.752 11.472 36.224 13.28 36.224H31.424L30.576 33.264L32.624 35.168L34.56 36.96L38 40V11.296C38 9.472 36.528 8 34.72 8H13.28ZM28.5438 28.8964C28.5438 28.8964 27.9678 28.2084 27.4878 27.6004C29.5838 27.0084 30.3838 25.6964 30.3838 25.6964C29.7278 26.1284 29.1038 26.4324 28.5438 26.6404C27.7438 26.9764 26.9758 27.2004 26.2238 27.3284C24.6878 27.6164 23.2798 27.5364 22.0798 27.3124C21.1678 27.1364 20.3838 26.8804 19.7278 26.6244C19.3598 26.4804 18.9598 26.3044 18.5598 26.0804C18.5358 26.0644 18.5118 26.0524 18.4878 26.0404C18.4638 26.0284 18.4398 26.0164 18.4158 26.0004C18.3838 25.9844 18.3678 25.9684 18.3518 25.9524L18.3518 25.9524C18.0638 25.7924 17.9038 25.6804 17.9038 25.6804C17.9038 25.6804 18.6718 26.9604 20.7038 27.5684C20.2238 28.1764 19.6318 28.8964 19.6318 28.8964C16.0958 28.7844 14.7518 26.4644 14.7518 26.4644C14.7518 21.3124 17.0558 17.1364 17.0558 17.1364C19.3598 15.4084 21.5518 15.4564 21.5518 15.4564L21.7118 15.6484C18.8318 16.4804 17.5038 17.7444 17.5038 17.7444C17.5038 17.7444 17.8558 17.5524 18.4478 17.2804C20.1598 16.5284 21.5198 16.3204 22.0798 16.2724L22.1157 16.2664C22.1964 16.2526 22.268 16.2404 22.3518 16.2404C23.3278 16.1124 24.4318 16.0804 25.5838 16.2084C27.1038 16.3844 28.7358 16.8324 30.3998 17.7444C30.3998 17.7444 29.1358 16.5444 26.4158 15.7124L26.6398 15.4564C26.6398 15.4564 28.8318 15.4084 31.1358 17.1364C31.1358 17.1364 33.4398 21.3124 33.4398 26.4644C33.4398 26.4644 32.0798 28.7844 28.5438 28.8964ZM21.1038 21.4244C20.1918 21.4244 19.4718 22.2244 19.4718 23.2004C19.4718 24.1764 20.2078 24.9764 21.1038 24.9764C22.0158 24.9764 22.7358 24.1764 22.7358 23.2004C22.7518 22.2244 22.0158 21.4244 21.1038 21.4244ZM26.9438 21.4244C26.0318 21.4244 25.3118 22.2244 25.3118 23.2004C25.3118 24.1764 26.0478 24.9764 26.9438 24.9764C27.8558 24.9764 28.5758 24.1764 28.5758 23.2004C28.5758 22.2244 27.8558 21.4244 26.9438 21.4244Z" fill="#7289DA"/>
</svg>
