<svg width="48" height="48" viewBox="0 0 48 48" fill="none" xmlns="http://www.w3.org/2000/svg">
<rect width="48" height="48" fill="white"/>
<path d="M37.7516 17.5267C37.8346 17.4577 37.8968 17.367 37.9314 17.2647C37.9659 17.1624 37.9714 17.0526 37.9472 16.9474C37.923 16.8422 37.8701 16.7457 37.7944 16.6688C37.7186 16.5919 37.623 16.5375 37.5182 16.5117L36.5966 16.2783C36.5128 16.2574 36.4347 16.218 36.3679 16.1632C36.3012 16.1083 36.2474 16.0394 36.2106 15.9612C36.1737 15.8831 36.1547 15.7977 36.1549 15.7113C36.1551 15.6249 36.1744 15.5397 36.2116 15.4617L36.7249 14.4233C36.7734 14.3227 36.792 14.2103 36.7785 14.0994C36.7649 13.9886 36.7199 13.8839 36.6486 13.7979C36.5773 13.7119 36.4829 13.6481 36.3764 13.6142C36.27 13.5804 36.1561 13.5777 36.0482 13.6067L33.7149 14.26C33.628 14.2854 33.5363 14.2901 33.4472 14.2739C33.3581 14.2577 33.274 14.221 33.2016 14.1667C32.1918 13.4094 30.9637 13 29.7016 13C28.1545 13 26.6707 13.6146 25.5768 14.7085C24.4828 15.8025 23.8682 17.2862 23.8682 18.8333V19.2533C23.8687 19.325 23.8429 19.3943 23.7955 19.4481C23.7482 19.5019 23.6827 19.5364 23.6116 19.545C20.3332 19.93 17.1949 18.2617 13.8116 14.365C13.7381 14.2839 13.6436 14.2247 13.5387 14.1938C13.4337 14.163 13.3222 14.1616 13.2166 14.19C13.1214 14.2338 13.0397 14.3024 12.9802 14.3886C12.9206 14.4748 12.8854 14.5755 12.8782 14.68C12.4109 16.5996 12.5999 18.6203 13.4149 20.42C13.439 20.4677 13.4495 20.5212 13.4453 20.5745C13.4411 20.6278 13.4223 20.6789 13.391 20.7223C13.3597 20.7656 13.3171 20.7996 13.2678 20.8203C13.2185 20.8411 13.1645 20.8479 13.1116 20.84L11.8049 20.5833C11.7121 20.5684 11.6171 20.5761 11.5279 20.6058C11.4387 20.6356 11.3581 20.6864 11.2928 20.754C11.2275 20.8216 11.1795 20.9039 11.1528 20.9941C11.1262 21.0842 11.1218 21.1794 11.1399 21.2717C11.2406 22.167 11.5414 23.0283 12.02 23.7916C12.4987 24.555 13.1428 25.2009 13.9049 25.6817C13.9542 25.7056 13.9958 25.7428 14.0249 25.7893C14.054 25.8357 14.0694 25.8894 14.0694 25.9442C14.0694 25.999 14.054 26.0526 14.0249 26.0991C13.9958 26.1455 13.9542 26.1828 13.9049 26.2067L13.2866 26.4517C13.2115 26.4818 13.1435 26.5272 13.0868 26.585C13.0302 26.6428 12.9863 26.7117 12.9578 26.7874C12.9292 26.8631 12.9168 26.9439 12.9211 27.0247C12.9255 27.1055 12.9467 27.1845 12.9832 27.2567C13.3252 28.0049 13.8435 28.659 14.4937 29.1629C15.1439 29.6669 15.9067 30.0056 16.7166 30.15C16.7729 30.1704 16.8215 30.2077 16.8559 30.2568C16.8903 30.3058 16.9087 30.3643 16.9087 30.4242C16.9087 30.4841 16.8903 30.5425 16.8559 30.5916C16.8215 30.6406 16.7729 30.6779 16.7166 30.6983C15.1303 31.3544 13.428 31.6837 11.7116 31.6667C11.5568 31.6357 11.3962 31.6675 11.2649 31.755C11.1336 31.8425 11.0425 31.9786 11.0116 32.1333C10.9806 32.288 11.0124 32.4487 11.0999 32.58C11.1874 32.7113 11.3235 32.8024 11.4782 32.8333C14.4504 34.243 17.6863 35.0102 20.9749 35.085C23.8676 35.1291 26.7088 34.3173 29.1416 32.7517C31.1427 31.4159 32.7822 29.6057 33.914 27.4826C35.0458 25.3595 35.6347 22.9893 35.6282 20.5833V19.5683C35.6289 19.4836 35.6481 19.4001 35.6844 19.3235C35.7206 19.247 35.7731 19.1792 35.8382 19.125L37.7516 17.5267Z" fill="#1DA1F2"/>
</svg>
