<svg width="32" height="33" viewBox="0 0 32 33" fill="none" xmlns="http://www.w3.org/2000/svg">
<path d="M25.4773 16.7727C25.7485 16.7727 26.0087 16.665 26.2004 16.4732C26.3922 16.2814 26.5 16.0212 26.5 15.75C26.5 15.4788 26.3922 15.2186 26.2004 15.0268C26.0087 14.835 25.7485 14.7273 25.4773 14.7273C19.1568 14.5841 16.2727 11.6591 16.2727 5.52273C16.2727 5.25148 16.165 4.99135 15.9732 4.79955C15.7814 4.60775 15.5212 4.5 15.25 4.5C14.9788 4.5 14.7186 4.60775 14.5268 4.79955C14.335 4.99135 14.2273 5.25148 14.2273 5.52273C14.2273 11.7102 11.2716 14.6352 5.02273 14.7273C4.75148 14.7273 4.49135 14.835 4.29955 15.0268C4.10775 15.2186 4 15.4788 4 15.75C4 16.0212 4.10775 16.2814 4.29955 16.4732C4.49135 16.665 4.75148 16.7727 5.02273 16.7727C11.2205 16.7727 14.1352 19.6977 14.2273 25.9773C14.2273 26.2485 14.335 26.5087 14.5268 26.7004C14.7186 26.8922 14.9788 27 15.25 27C15.5212 27 15.7814 26.8922 15.9732 26.7004C16.165 26.5087 16.2727 26.2485 16.2727 25.9773C16.5898 19.667 19.4943 16.7727 25.4159 16.7727H25.4773Z" fill="#5326EC"/>
<path d="M19.8182 8.31818H21.1818V9.68182C21.1818 9.89881 21.268 10.1069 21.4215 10.2604C21.5749 10.4138 21.783 10.5 22 10.5C22.217 10.5 22.4251 10.4138 22.5785 10.2604C22.732 10.1069 22.8182 9.89881 22.8182 9.68182V8.31818H24.1818C24.3988 8.31818 24.6069 8.23198 24.7604 8.07854C24.9138 7.9251 25 7.717 25 7.5C25 7.283 24.9138 7.0749 24.7604 6.92146C24.6069 6.76802 24.3988 6.68182 24.1818 6.68182H22.8182V5.31818C22.8182 5.10119 22.732 4.89308 22.5785 4.73964C22.4251 4.5862 22.217 4.5 22 4.5C21.783 4.5 21.5749 4.5862 21.4215 4.73964C21.268 4.89308 21.1818 5.10119 21.1818 5.31818V6.68182H19.8182C19.6012 6.68182 19.3931 6.76802 19.2396 6.92146C19.0862 7.0749 19 7.283 19 7.5C19 7.717 19.0862 7.9251 19.2396 8.07854C19.3931 8.23198 19.6012 8.31818 19.8182 8.31818Z" fill="#5326EC"/>
<path d="M27.1818 24.6818H25.8182V23.3182C25.8182 23.1012 25.732 22.8931 25.5785 22.7396C25.4251 22.5862 25.217 22.5 25 22.5C24.783 22.5 24.5749 22.5862 24.4215 22.7396C24.268 22.8931 24.1818 23.1012 24.1818 23.3182V24.6818H22.8182C22.6012 24.6818 22.3931 24.768 22.2396 24.9215C22.0862 25.0749 22 25.283 22 25.5C22 25.717 22.0862 25.9251 22.2396 26.0785C22.3931 26.232 22.6012 26.3182 22.8182 26.3182H24.1818V27.6818C24.1818 27.8988 24.268 28.1069 24.4215 28.2604C24.5749 28.4138 24.783 28.5 25 28.5C25.217 28.5 25.4251 28.4138 25.5785 28.2604C25.732 28.1069 25.8182 27.8988 25.8182 27.6818V26.3182H27.1818C27.3988 26.3182 27.6069 26.232 27.7604 26.0785C27.9138 25.9251 28 25.717 28 25.5C28 25.283 27.9138 25.0749 27.7604 24.9215C27.6069 24.768 27.3988 24.6818 27.1818 24.6818Z" fill="#5326EC"/>
</svg>
