<svg width="20" height="20" viewBox="0 0 20 20" fill="none" xmlns="http://www.w3.org/2000/svg">
<path d="M1.56296 14.6329C2.48874 14.6329 3.41257 14.6329 4.33835 14.6329C4.47116 14.6329 4.60397 14.6329 4.73483 14.6329C4.93015 14.6329 5.15085 14.4869 5.24069 14.2444C5.4653 13.6395 5.68991 13.032 5.91647 12.4271C6.27585 11.4624 6.63327 10.4951 6.99265 9.53045C7.07468 9.30883 7.15671 9.08721 7.23874 8.8656C6.88132 8.80302 6.5239 8.74045 6.16843 8.67787C6.26022 8.98553 6.35202 9.29319 6.44382 9.60085C6.66452 10.3413 6.88522 11.0818 7.10593 11.8196C7.3735 12.7191 7.64304 13.6187 7.91061 14.5182C8.14108 15.2925 8.3735 16.0669 8.60397 16.8412C8.71725 17.2193 8.82663 17.5947 8.94186 17.9728C8.94382 17.978 8.94577 17.9832 8.94577 17.9884C8.9946 18.1527 9.04733 18.2831 9.15671 18.3952C9.25632 18.4969 9.38327 18.5699 9.51218 18.562C9.76803 18.5464 10.0083 18.33 10.0766 17.9884C10.1762 17.4879 10.2758 16.9873 10.3755 16.4867C10.6118 15.2925 10.8481 14.0984 11.0844 12.9069C11.3696 11.465 11.6567 10.0232 11.9419 8.5814C12.1899 7.33513 12.436 6.08624 12.684 4.83997C12.8051 4.23247 12.936 3.62498 13.0454 3.01487C13.0473 3.00705 13.0493 2.99923 13.0493 2.99141C12.6723 2.99141 12.2954 2.99141 11.9184 2.99141C12.0044 3.35903 12.0903 3.72666 12.1762 4.09429C12.3813 4.97554 12.5883 5.85941 12.7934 6.74067C13.0415 7.80444 13.2895 8.8656 13.5376 9.92936C13.7524 10.8523 13.9673 11.7753 14.184 12.6983C14.2895 13.1467 14.3852 13.5978 14.4985 14.0436C14.5005 14.0489 14.5005 14.0567 14.5024 14.0619C14.5786 14.393 14.8032 14.6355 15.0669 14.6355C15.4458 14.6355 15.8247 14.6355 16.2036 14.6355C16.809 14.6355 17.4126 14.6355 18.018 14.6355C18.1567 14.6355 18.2973 14.6355 18.436 14.6355C18.7426 14.6355 19.0356 14.2757 19.0219 13.8533C19.0083 13.4283 18.7641 13.0711 18.436 13.0711C18.0571 13.0711 17.6782 13.0711 17.2993 13.0711C16.6938 13.0711 16.0903 13.0711 15.4848 13.0711C15.3462 13.0711 15.2055 13.0711 15.0669 13.0711C15.2544 13.2615 15.4438 13.4544 15.6313 13.6447C15.5454 13.2771 15.4594 12.9095 15.3735 12.5419C15.1684 11.6606 14.9614 10.7767 14.7563 9.89547C14.5083 8.8317 14.2602 7.77054 14.0122 6.70677C13.7973 5.7838 13.5825 4.86082 13.3657 3.93785C13.2602 3.4894 13.1645 3.03834 13.0512 2.5925C13.0493 2.58728 13.0493 2.57946 13.0473 2.57425C12.9731 2.25616 12.7446 1.985 12.4829 2.00064C12.227 2.01629 11.9868 2.23269 11.9184 2.57425C11.8188 3.07484 11.7192 3.57544 11.6196 4.07604C11.3833 5.27017 11.1469 6.4643 10.9106 7.65582C10.6255 9.09764 10.3403 10.5395 10.0551 11.9813C9.8071 13.2276 9.561 14.4764 9.31296 15.7227C9.19186 16.3302 9.061 16.9377 8.95163 17.5478C8.94968 17.5556 8.94772 17.5635 8.94772 17.5713C9.32468 17.5713 9.70163 17.5713 10.0786 17.5713C9.98678 17.2636 9.89499 16.956 9.80319 16.6483C9.58249 15.9078 9.36179 15.1674 9.14108 14.4295C8.8735 13.53 8.60397 12.6305 8.33639 11.731C8.10593 10.9566 7.8735 10.1823 7.64304 9.40791C7.52975 9.02986 7.42038 8.65441 7.30515 8.27635C7.30319 8.27114 7.30124 8.26592 7.30124 8.26071C7.21335 7.96348 7.06491 7.74447 6.81491 7.70015C6.59811 7.66104 6.33444 7.79661 6.23093 8.07299C6.00632 8.67787 5.78171 9.28537 5.55515 9.89026C5.19577 10.8549 4.83835 11.8222 4.47897 12.7869C4.39694 13.0086 4.31491 13.2302 4.23288 13.4518C4.40085 13.3214 4.57077 13.1937 4.73874 13.0633C3.81296 13.0633 2.88913 13.0633 1.96335 13.0633C1.83054 13.0633 1.69773 13.0633 1.56687 13.0633C1.26023 13.0633 0.967257 13.4231 0.980929 13.8455C0.990695 14.2757 1.23484 14.6329 1.56296 14.6329Z" fill="#E1458D"/>
<circle cx="10" cy="10" r="9" stroke="#E1458D" stroke-width="2"/>
</svg>