<svg width="248" height="41" viewBox="0 0 248 41" fill="none" xmlns="http://www.w3.org/2000/svg">
<g clip-path="url(#clip0_25564_33561)">
<path d="M33.318 19.4415L18.0125 0.562507C17.4028 -0.189544 16.2553 -0.189544 15.6457 0.562505L0.340047 19.4415C-0.11283 20.0001 -0.113406 20.7993 0.338663 21.3586L15.6442 40.2934C16.2541 41.0478 17.4041 41.0478 18.0138 40.2934L33.3194 21.3586C33.7714 20.7993 33.7709 20.0001 33.318 19.4415Z" fill="#89A8F2"/>
<path fill-rule="evenodd" clip-rule="evenodd" d="M32.4925 20.1107L17.187 1.23172C17.0026 1.00425 16.6556 1.00425 16.4711 1.23172L1.1655 20.1107C1.02853 20.2797 1.02835 20.5214 1.16509 20.6906L16.4707 39.6254C16.6551 39.8535 17.003 39.8535 17.1874 39.6254L32.493 20.6906C32.6298 20.5214 32.6295 20.2797 32.4925 20.1107ZM18.0125 0.562507L33.318 19.4415C33.7709 20.0001 33.7714 20.7993 33.3194 21.3586L18.0138 40.2934C17.4041 41.0478 16.2541 41.0478 15.6442 40.2934L0.338663 21.3586C-0.113406 20.7993 -0.11283 20.0001 0.340047 19.4415L15.6457 0.562505C16.2553 -0.189544 17.4028 -0.189544 18.0125 0.562507Z" fill="white"/>
<path d="M51.1632 19.4415L35.8576 0.562512C35.2479 -0.189541 34.1006 -0.189541 33.4909 0.56251L18.1853 19.4415C17.7323 20.0001 17.7318 20.7993 18.1839 21.3586L33.4895 40.2934C34.0992 41.0478 35.2492 41.0478 35.859 40.2934L51.1647 21.3586C51.6167 20.7993 51.6161 20.0001 51.1632 19.4415Z" fill="#C8B0F5"/>
<path fill-rule="evenodd" clip-rule="evenodd" d="M50.3378 20.1107L35.0322 1.23173C34.8478 1.00426 34.5007 1.00426 34.3164 1.23173L19.0108 20.1107C18.8737 20.2797 18.8736 20.5214 19.0102 20.6906L34.3159 39.6254C34.5003 39.8535 34.8482 39.8535 35.0325 39.6254L50.3382 20.6906C50.4749 20.5214 50.4748 20.2797 50.3378 20.1107ZM18.1853 19.4415L33.4909 0.56251C34.1006 -0.189541 35.2479 -0.189541 35.8576 0.562512L51.1632 19.4415C51.6161 20.0001 51.6167 20.7993 51.1647 21.3586L35.859 40.2934C35.2492 41.0478 34.0992 41.0478 33.4895 40.2934L18.1839 21.3586C17.7318 20.7993 17.7323 20.0001 18.1853 19.4415Z" fill="white"/>
<path d="M68.4623 27.3077C67.1267 27.3077 65.848 27.1203 64.6264 26.7457C63.4049 26.3548 62.4357 25.858 61.719 25.2554L62.8185 22.7878C63.5026 23.3253 64.3495 23.7732 65.3593 24.1315C66.3693 24.4899 67.4035 24.669 68.4623 24.669C69.3581 24.669 70.0829 24.5713 70.6367 24.3758C71.1904 24.1804 71.5977 23.9197 71.8582 23.594C72.1189 23.2519 72.2492 22.8692 72.2492 22.4457C72.2492 21.9244 72.0619 21.5091 71.6873 21.1996C71.3126 20.8739 70.824 20.6214 70.2214 20.4422C69.635 20.2468 68.9753 20.0676 68.2424 19.9047C67.5257 19.7419 66.8009 19.5546 66.0679 19.3428C65.3512 19.1148 64.6916 18.8297 64.0889 18.4877C63.5026 18.1294 63.022 17.657 62.6474 17.0706C62.2729 16.4842 62.0854 15.735 62.0854 14.8229C62.0854 13.8944 62.3298 13.0476 62.8185 12.282C63.3234 11.5001 64.0808 10.8812 65.0906 10.4251C66.1167 9.95279 67.4117 9.71662 68.9753 9.71662C70.0015 9.71662 71.0195 9.84692 72.0293 10.1075C73.0392 10.3681 73.9187 10.7428 74.668 11.2314L73.6663 13.699C72.9008 13.243 72.1108 12.909 71.2964 12.6973C70.482 12.4693 69.7001 12.3553 68.9508 12.3553C68.0714 12.3553 67.3547 12.4611 66.8009 12.6729C66.2634 12.8846 65.8644 13.1615 65.6037 13.5036C65.3593 13.8456 65.2373 14.2365 65.2373 14.6763C65.2373 15.1975 65.4164 15.621 65.7748 15.9467C66.1494 16.2562 66.6299 16.5006 67.2162 16.6798C67.8188 16.859 68.4867 17.0381 69.2196 17.2173C69.9526 17.3801 70.6774 17.5674 71.3941 17.7792C72.127 17.9909 72.7867 18.2678 73.3731 18.6099C73.9758 18.9519 74.4562 19.4162 74.8145 20.0025C75.1892 20.5889 75.3765 21.3299 75.3765 22.2258C75.3765 23.138 75.124 23.9848 74.6191 24.7667C74.1305 25.5323 73.3731 26.1512 72.3469 26.6235C71.3207 27.0795 70.0258 27.3077 68.4623 27.3077Z" fill="white"/>
<path d="M83.1436 27.2338C81.7103 27.2338 80.6028 26.8674 79.8209 26.1343C79.0391 25.3852 78.6482 24.2857 78.6482 22.8361V11.1331H81.7022V22.7627C81.7022 23.3817 81.857 23.8622 82.1663 24.2042C82.4922 24.5463 82.9401 24.7173 83.5101 24.7173C84.1943 24.7173 84.7643 24.5382 85.2204 24.1798L86.0756 26.3542C85.7172 26.6475 85.2774 26.8674 84.7562 27.0139C84.235 27.1605 83.6975 27.2338 83.1436 27.2338ZM76.4982 16.5571V14.1138H85.196V16.5571H76.4982Z" fill="white"/>
<path d="M96.6256 27.0624V24.4237L96.4547 23.8618V19.2442C96.4547 18.3483 96.1859 17.656 95.6484 17.1674C95.1109 16.6625 94.2965 16.4101 93.2052 16.4101C92.4722 16.4101 91.7475 16.524 91.0308 16.7521C90.3303 16.9801 89.7359 17.2977 89.2472 17.7049L88.05 15.4816C88.7504 14.9441 89.5811 14.5451 90.5421 14.2844C91.5194 14.0076 92.5292 13.8691 93.5716 13.8691C95.461 13.8691 96.9188 14.3252 97.945 15.2373C98.9874 16.1331 99.5087 17.5257 99.5087 19.4152V27.0624H96.6256ZM92.5211 27.2334C91.5438 27.2334 90.6887 27.0705 89.9558 26.7448C89.2227 26.4027 88.6527 25.9385 88.2455 25.3521C87.8546 24.7496 87.6591 24.0735 87.6591 23.3243C87.6591 22.5913 87.8301 21.9317 88.1722 21.3454C88.5305 20.759 89.1088 20.2947 89.9069 19.9527C90.7049 19.6106 91.7637 19.4396 93.083 19.4396H96.87V21.4674H93.3029C92.2605 21.4674 91.56 21.6385 91.2017 21.9806C90.8434 22.3063 90.6642 22.7135 90.6642 23.2021C90.6642 23.7559 90.8841 24.1957 91.3239 24.5214C91.7637 24.8473 92.3745 25.0101 93.1563 25.0101C93.9056 25.0101 94.5734 24.8391 95.1598 24.497C95.7624 24.1549 96.194 23.6501 96.4547 22.9822L96.9677 24.8146C96.6746 25.5802 96.1452 26.1746 95.3797 26.5982C94.6304 27.0216 93.6776 27.2334 92.5211 27.2334Z" fill="white"/>
<path d="M105.92 24.1545L105.994 20.3188L112.81 14.0153H116.475L110.685 19.8301L109.072 21.1739L105.92 24.1545ZM103.428 27.062V8.93344H106.482V27.062H103.428ZM113.274 27.062L108.51 21.1739L110.44 18.7306L116.988 27.062H113.274Z" fill="white"/>
<path d="M124.568 27.2334C123.118 27.2334 121.847 26.9484 120.756 26.3783C119.681 25.792 118.842 24.9938 118.24 23.9839C117.653 22.9741 117.36 21.8258 117.36 20.5391C117.36 19.2361 117.645 18.0877 118.215 17.0942C118.802 16.0842 119.6 15.2944 120.61 14.7242C121.636 14.1541 122.8 13.8691 124.103 13.8691C125.374 13.8691 126.506 14.146 127.499 14.6998C128.493 15.2536 129.275 16.0354 129.845 17.0453C130.415 18.0551 130.7 19.2442 130.7 20.6123C130.7 20.7426 130.692 20.8892 130.675 21.0521C130.675 21.215 130.667 21.3697 130.651 21.5163H119.779V19.4884H129.038L127.841 20.1237C127.858 19.3745 127.703 18.7148 127.377 18.1447C127.051 17.5747 126.604 17.1268 126.034 16.8009C125.48 16.4752 124.836 16.3123 124.103 16.3123C123.354 16.3123 122.694 16.4752 122.124 16.8009C121.571 17.1268 121.131 17.5828 120.805 18.1692C120.496 18.7392 120.341 19.4152 120.341 20.197V20.6857C120.341 21.4674 120.52 22.1597 120.878 22.7623C121.237 23.3651 121.742 23.8292 122.393 24.1549C123.045 24.4808 123.794 24.6436 124.641 24.6436C125.374 24.6436 126.034 24.5297 126.62 24.3016C127.206 24.0735 127.728 23.7151 128.184 23.2266L129.821 25.1079C129.234 25.792 128.493 26.3213 127.597 26.6959C126.718 27.0542 125.708 27.2334 124.568 27.2334Z" fill="white"/>
<path d="M144.491 27.0625V11.5237H138.48V9.96008H152.308V11.5237H146.299V27.0625H144.491Z" fill="white"/>
<path d="M158.722 27.1855C157.485 27.1855 156.37 26.9086 155.376 26.3547C154.399 25.7847 153.625 25.011 153.055 24.0338C152.485 23.0401 152.2 21.9081 152.2 20.6377C152.2 19.3509 152.485 18.2189 153.055 17.2416C153.625 16.2643 154.399 15.4988 155.376 14.945C156.353 14.3913 157.468 14.1143 158.722 14.1143C159.993 14.1143 161.117 14.3913 162.094 14.945C163.088 15.4988 163.862 16.2643 164.416 17.2416C164.986 18.2189 165.27 19.3509 165.27 20.6377C165.27 21.9081 164.986 23.0401 164.416 24.0338C163.862 25.011 163.088 25.7847 162.094 26.3547C161.101 26.9086 159.977 27.1855 158.722 27.1855ZM158.722 25.6463C159.652 25.6463 160.474 25.4426 161.191 25.0355C161.908 24.6119 162.47 24.0255 162.877 23.2764C163.3 22.5109 163.512 21.6313 163.512 20.6377C163.512 19.6278 163.3 18.7483 162.877 17.999C162.47 17.2497 161.908 16.6715 161.191 16.2643C160.474 15.8409 159.66 15.6291 158.747 15.6291C157.836 15.6291 157.021 15.8409 156.304 16.2643C155.588 16.6715 155.018 17.2497 154.594 17.999C154.171 18.7483 153.958 19.6278 153.958 20.6377C153.958 21.6313 154.171 22.5109 154.594 23.2764C155.018 24.0255 155.588 24.6119 156.304 25.0355C157.021 25.4426 157.827 25.6463 158.722 25.6463Z" fill="white"/>
<path d="M174.286 31.9253C173.113 31.9253 171.989 31.7543 170.914 31.4122C169.839 31.0701 168.967 30.5816 168.3 29.9462L169.179 28.6269C169.782 29.1644 170.523 29.5879 171.402 29.8974C172.298 30.2232 173.243 30.386 174.237 30.386C175.865 30.386 177.062 30.0033 177.828 29.2378C178.594 28.4885 178.976 27.3158 178.976 25.7195V22.519L179.22 20.3201L179.05 18.1212V14.2365H180.711V25.4996C180.711 27.7149 180.165 29.3355 179.074 30.3617C177.999 31.4041 176.402 31.9253 174.286 31.9253ZM173.967 26.5746C172.745 26.5746 171.647 26.314 170.669 25.7929C169.692 25.2554 168.918 24.5142 168.349 23.5695C167.794 22.6248 167.517 21.5417 167.517 20.3201C167.517 19.0984 167.794 18.0235 168.349 17.0951C168.918 16.1504 169.692 15.4173 170.669 14.8962C171.647 14.3749 172.745 14.1143 173.967 14.1143C175.108 14.1143 176.134 14.3506 177.045 14.8229C177.958 15.2953 178.682 15.9956 179.22 16.924C179.758 17.8525 180.027 18.9845 180.027 20.3201C180.027 21.6557 179.758 22.7877 179.22 23.7161C178.682 24.6445 177.958 25.3531 177.045 25.8417C176.134 26.3304 175.108 26.5746 173.967 26.5746ZM174.139 25.0355C175.084 25.0355 175.923 24.84 176.655 24.4491C177.388 24.0419 177.966 23.488 178.39 22.7877C178.813 22.0711 179.025 21.2484 179.025 20.3201C179.025 19.3916 178.813 18.5773 178.39 17.8768C177.966 17.1765 177.388 16.6308 176.655 16.24C175.923 15.8328 175.084 15.6291 174.139 15.6291C173.211 15.6291 172.372 15.8328 171.623 16.24C170.889 16.6308 170.311 17.1765 169.888 17.8768C169.48 18.5773 169.277 19.3916 169.277 20.3201C169.277 21.2484 169.48 22.0711 169.888 22.7877C170.311 23.488 170.889 24.0419 171.623 24.4491C172.372 24.84 173.211 25.0355 174.139 25.0355Z" fill="white"/>
<path d="M190.986 27.1855C189.65 27.1855 188.477 26.9086 187.468 26.3547C186.457 25.7847 185.669 25.011 185.098 24.0338C184.528 23.0401 184.243 21.9081 184.243 20.6377C184.243 19.3672 184.511 18.2433 185.049 17.2661C185.603 16.2888 186.352 15.5233 187.297 14.9694C188.258 14.3994 189.333 14.1143 190.522 14.1143C191.727 14.1143 192.794 14.3913 193.722 14.945C194.667 15.4826 195.408 16.2481 195.946 17.2416C196.483 18.2189 196.752 19.3509 196.752 20.6377C196.752 20.7192 196.743 20.8088 196.728 20.9065C196.728 20.9879 196.728 21.0775 196.728 21.1752H185.562V19.8803H195.799L195.115 20.3933C195.115 19.465 194.912 18.6424 194.504 17.9257C194.113 17.1928 193.575 16.6227 192.892 16.2155C192.208 15.8083 191.417 15.6047 190.522 15.6047C189.642 15.6047 188.852 15.8083 188.152 16.2155C187.451 16.6227 186.906 17.1928 186.515 17.9257C186.124 18.6587 185.929 19.4975 185.929 20.4422V20.7109C185.929 21.6882 186.14 22.5515 186.564 23.3007C187.004 24.0338 187.606 24.6119 188.372 25.0355C189.154 25.4426 190.041 25.6463 191.035 25.6463C191.817 25.6463 192.541 25.5077 193.209 25.2309C193.894 24.954 194.48 24.5306 194.969 23.9604L195.946 25.0843C195.376 25.7684 194.659 26.2896 193.796 26.648C192.949 27.0063 192.012 27.1855 190.986 27.1855Z" fill="white"/>
<path d="M204.339 27.1852C203.134 27.1852 202.205 26.8595 201.553 26.2079C200.902 25.5565 200.576 24.6361 200.576 23.447V11.4021H202.311V23.3493C202.311 24.0986 202.498 24.6769 202.873 25.084C203.264 25.4912 203.818 25.6949 204.535 25.6949C205.3 25.6949 205.936 25.475 206.44 25.0352L207.051 26.2812C206.709 26.5907 206.294 26.8188 205.806 26.9653C205.333 27.1119 204.844 27.1852 204.339 27.1852ZM198.281 15.6777V14.2362H206.221V15.6777H198.281Z" fill="white"/>
<path d="M216.757 14.113C217.799 14.113 218.711 14.3166 219.493 14.7238C220.291 15.1148 220.91 15.7174 221.349 16.5318C221.805 17.3461 222.034 18.3723 222.034 19.6102V27.062H220.299V19.7813C220.299 18.4294 219.957 17.4114 219.273 16.7273C218.605 16.0269 217.66 15.6766 216.438 15.6766C215.527 15.6766 214.729 15.8639 214.044 16.2386C213.377 16.597 212.855 17.1264 212.481 17.8267C212.123 18.5107 211.943 19.3415 211.943 20.3188V27.062H210.208V8.93344H211.943V17.7535L211.601 17.0938C212.008 16.1653 212.66 15.4405 213.556 14.9192C214.452 14.3817 215.518 14.113 216.757 14.113Z" fill="white"/>
<path d="M232.168 27.1855C230.832 27.1855 229.659 26.9086 228.65 26.3547C227.64 25.7847 226.849 25.011 226.28 24.0338C225.71 23.0401 225.425 21.9081 225.425 20.6377C225.425 19.3672 225.693 18.2433 226.231 17.2661C226.785 16.2888 227.534 15.5233 228.479 14.9694C229.439 14.3994 230.514 14.1143 231.704 14.1143C232.909 14.1143 233.976 14.3913 234.904 14.945C235.849 15.4826 236.59 16.2481 237.128 17.2416C237.665 18.2189 237.933 19.3509 237.933 20.6377C237.933 20.7192 237.926 20.8088 237.909 20.9065C237.909 20.9879 237.909 21.0775 237.909 21.1752H226.744V19.8803H236.981L236.296 20.3933C236.296 19.465 236.093 18.6424 235.685 17.9257C235.295 17.1928 234.757 16.6227 234.073 16.2155C233.39 15.8083 232.6 15.6047 231.704 15.6047C230.823 15.6047 230.034 15.8083 229.333 16.2155C228.633 16.6227 228.088 17.1928 227.696 17.9257C227.306 18.6587 227.11 19.4975 227.11 20.4422V20.7109C227.11 21.6882 227.322 22.5515 227.745 23.3007C228.185 24.0338 228.788 24.6119 229.554 25.0355C230.335 25.4426 231.223 25.6463 232.217 25.6463C232.998 25.6463 233.724 25.5077 234.391 25.2309C235.076 24.954 235.661 24.5306 236.151 23.9604L237.128 25.0843C236.557 25.7684 235.84 26.2896 234.978 26.648C234.131 27.0063 233.194 27.1855 232.168 27.1855Z" fill="white"/>
<path d="M241.463 27.0633V14.2365H243.125V17.7303L242.954 17.1194C243.313 16.1423 243.915 15.4011 244.762 14.8962C245.608 14.3749 246.659 14.1143 247.913 14.1143V15.8002C247.849 15.8002 247.783 15.8002 247.719 15.8002C247.653 15.7839 247.588 15.7757 247.523 15.7757C246.17 15.7757 245.112 16.1911 244.347 17.0217C243.581 17.8361 243.198 19.0007 243.198 20.5155V27.0633H241.463Z" fill="white"/>
</g>
<defs>
<clipPath id="clip0_25564_33561">
<rect width="248" height="40.8607" fill="white"/>
</clipPath>
</defs>
</svg>
