<svg width="483" height="555" viewBox="0 0 483 555" fill="none" xmlns="http://www.w3.org/2000/svg">
<path d="M479.409 41.3643C478.176 38.5136 476.245 36.1182 473.843 34.4603C471.441 32.8023 468.668 31.9508 465.85 32.0059H238.438L296.062 -258.8C297.121 -262.943 296.797 -267.38 295.151 -271.274C293.505 -275.168 290.651 -278.251 287.125 -279.943C283.869 -281.552 280.218 -281.844 276.792 -280.77C273.366 -279.696 270.375 -277.322 268.328 -274.05L-39.8183 211.203C-41.3218 213.905 -42.1191 217.028 -42.1191 220.215C-42.1191 223.402 -41.3218 226.525 -39.8183 229.227C-38.8036 232.158 -37.0851 234.715 -34.8543 236.612C-32.6236 238.509 -29.9682 239.672 -27.1842 239.972H200.228L142.605 530.777C141.545 534.921 141.869 539.357 143.515 543.251C145.161 547.145 148.015 550.228 151.541 551.92C154.814 553.403 158.43 553.629 161.829 552.564C165.227 551.498 168.218 549.201 170.338 546.028L478.484 60.7745C480.386 58.0343 481.494 54.7039 481.659 51.2329C481.825 47.7618 481.039 44.3173 479.409 41.3643V41.3643Z" stroke="#E7E1FF" stroke-width="2"/>
</svg>
