<svg width="487" height="627" viewBox="0 0 487 627" fill="none" xmlns="http://www.w3.org/2000/svg">
<path d="M483.896 126.992C482.755 124.217 480.967 121.884 478.743 120.27C476.519 118.656 473.951 117.827 471.342 117.88H260.775L314.13 -165.267C315.111 -169.302 314.811 -173.622 313.287 -177.413C311.763 -181.204 309.12 -184.206 305.856 -185.854C302.841 -187.421 299.46 -187.705 296.288 -186.66C293.116 -185.614 290.347 -183.302 288.451 -180.117L3.13045 292.359C1.73828 294.989 1 298.03 1 301.133C1 304.237 1.73828 307.277 3.13045 309.908C4.06995 312.762 5.66115 315.252 7.72668 317.099C9.7922 318.946 12.2509 320.079 14.8286 320.37H225.395L172.04 603.518C171.06 607.552 171.36 611.872 172.883 615.663C174.407 619.455 177.05 622.457 180.315 624.104C183.345 625.548 186.694 625.768 189.84 624.731C192.987 623.693 195.757 621.456 197.719 618.367L483.04 145.891C484.801 143.223 485.827 139.981 485.98 136.601C486.133 133.221 485.406 129.868 483.896 126.992V126.992Z" stroke="#5326EC" stroke-width="2"/>
</svg>
