<svg width="88" height="88" viewBox="0 0 88 88" fill="none" xmlns="http://www.w3.org/2000/svg">
<path d="M83.3949 6.07227C81.945 4.83207 79.6676 4.65462 77.313 5.60817H77.3091C74.8327 6.61047 7.20861 35.8684 4.4557 37.0637C3.955 37.2392 -0.417945 38.885 0.0324952 42.551C0.434605 45.8563 3.9492 47.2252 4.37837 47.3831L21.5705 53.3209C22.7111 57.1507 26.9159 71.2805 27.8457 74.2991C28.4257 76.1808 29.371 78.6534 31.0278 79.1624C32.4816 79.7279 33.9277 79.2111 34.8633 78.4701L45.3742 68.6363L62.3421 81.984L62.7462 82.2278C63.8984 82.7426 65.0022 83 66.0558 83C66.8697 83 67.6507 82.8459 68.397 82.5378C70.9392 81.4848 71.956 79.0415 72.0624 78.7646L84.7365 12.3142C85.5098 8.76523 84.435 6.95952 83.3949 6.07227ZM36.7327 55.696L30.9331 71.2961L25.1334 51.796L69.5975 18.6459L36.7327 55.696Z" fill="#5326EC"/>
</svg>
