<svg width="123" height="18" viewBox="0 0 123 18" fill="none" xmlns="http://www.w3.org/2000/svg">
<g clip-path="url(#clip0_3002_85719)">
<path d="M96.8894 10.0004C96.8997 10.7007 96.7759 11.3971 96.5236 12.0574C96.2991 12.6425 95.9486 13.1793 95.4934 13.6351C95.0457 14.0729 94.5023 14.4172 93.8995 14.6449C92.5824 15.1189 91.1214 15.1189 89.8043 14.6449C89.2026 14.4168 88.6603 14.0726 88.2134 13.6351C87.7582 13.1793 87.4077 12.6425 87.1832 12.0574C86.9309 11.3971 86.8071 10.7007 86.8174 10.0004C86.8074 9.30241 86.9313 8.60831 87.1832 7.95041C87.4077 7.36528 87.7582 6.82849 88.2134 6.37263C88.6609 5.93523 89.203 5.59021 89.8043 5.36013C90.4531 5.1143 91.1487 4.99197 91.8497 5.00041C92.5516 4.99226 93.2483 5.11311 93.8995 5.35596C94.5031 5.58415 95.0467 5.92994 95.4934 6.36985C95.9484 6.82697 96.2988 7.3646 96.5236 7.95041C96.7755 8.60831 96.8994 9.30241 96.8894 10.0004ZM96.0932 10.0004C96.1049 9.37578 96.0035 8.75374 95.7933 8.16013C95.6096 7.64937 95.3146 7.179 94.9266 6.77819C94.5522 6.39936 94.0911 6.10279 93.5771 5.91013C92.468 5.51008 91.2373 5.51008 90.1282 5.91013C89.6149 6.10398 89.1541 6.40038 88.7787 6.77819C88.3874 7.18063 88.0898 7.65342 87.9045 8.16708C87.6908 8.75775 87.5859 9.3775 87.5941 10.0004C87.5839 10.6265 87.6883 11.2497 87.903 11.8435C88.0896 12.3537 88.3871 12.823 88.7772 13.2226C89.1519 13.6005 89.613 13.8961 90.1267 14.0879C91.2369 14.4825 92.4654 14.4825 93.5756 14.0879C94.09 13.8973 94.5513 13.6015 94.9251 13.2226C95.3133 12.8228 95.6088 12.3534 95.7933 11.8435C96.0042 11.249 96.1056 10.626 96.0932 10.0004Z" fill="#A5ADBF"/>
<path d="M105.754 15H105.09C105.015 15.0023 104.941 14.989 104.873 14.9611C104.806 14.9288 104.75 14.881 104.709 14.8222L101.245 10.7653C101.208 10.7156 101.166 10.6692 101.119 10.6264C101.076 10.589 101.025 10.5593 100.969 10.5389C100.909 10.5148 100.845 10.4993 100.779 10.4931C100.689 10.4821 100.598 10.477 100.508 10.4778H99.0921V15H98.3064V5H101.068C102.309 5 103.239 5.22269 103.858 5.66806C104.476 6.11343 104.787 6.76713 104.79 7.62917C104.795 7.98754 104.722 8.34315 104.576 8.675C104.436 8.98913 104.227 9.2729 103.962 9.50833C103.68 9.75498 103.352 9.95257 102.994 10.0917C102.585 10.2489 102.155 10.3509 101.715 10.3944C101.842 10.4675 101.953 10.5617 102.043 10.6722L105.754 15ZM100.956 9.94028C101.391 9.94603 101.824 9.89221 102.241 9.78056C102.591 9.68913 102.918 9.53428 103.202 9.325C103.459 9.1334 103.665 8.88898 103.802 8.61111C103.943 8.31503 104.013 7.9943 104.007 7.67083C104.007 6.95972 103.758 6.43241 103.258 6.08889C102.758 5.74537 102.029 5.57315 101.07 5.57222H99.0921V9.94028H100.956Z" fill="#A5ADBF"/>
<path d="M111.058 14.3708C111.531 14.3788 112.001 14.2946 112.438 14.1236C112.83 13.9658 113.181 13.7313 113.466 13.4361C113.754 13.1336 113.973 12.7809 114.111 12.3986C114.261 11.9838 114.335 11.5486 114.33 11.1111V5H115.099V11.1111C115.104 11.6316 115.01 12.1488 114.82 12.6389C114.644 13.0964 114.371 13.5166 114.017 13.875C113.661 14.2332 113.227 14.5172 112.743 14.7083C111.661 15.1084 110.455 15.1084 109.373 14.7083C108.889 14.5176 108.455 14.2335 108.1 13.875C107.745 13.517 107.472 13.0966 107.296 12.6389C107.106 12.1488 107.012 11.6316 107.017 11.1111V5H107.789V11.1028C107.785 11.5409 107.86 11.9766 108.011 12.3917C108.149 12.7733 108.367 13.1259 108.653 13.4292C108.936 13.7268 109.285 13.9638 109.677 14.1236C110.113 14.2961 110.584 14.3804 111.058 14.3708Z" fill="#A5ADBF"/>
<path d="M122.523 6.29905C122.507 6.33414 122.48 6.36404 122.446 6.38503C122.411 6.40602 122.371 6.41718 122.33 6.41711C122.233 6.40219 122.145 6.35711 122.079 6.28933C121.949 6.18719 121.811 6.09433 121.665 6.01155C121.46 5.89317 121.241 5.79716 121.012 5.72544C120.367 5.54126 119.677 5.54611 119.035 5.73933C118.763 5.83041 118.514 5.97223 118.304 6.156C118.109 6.3271 117.956 6.53442 117.854 6.76433C117.753 6.99455 117.702 7.24089 117.704 7.48933C117.691 7.778 117.77 8.06381 117.93 8.31155C118.086 8.53327 118.291 8.72246 118.53 8.86711C118.795 9.02584 119.079 9.15454 119.377 9.25044C119.692 9.35322 120.018 9.456 120.35 9.55738C120.683 9.65877 121.009 9.77127 121.324 9.89211C121.628 10.0082 121.913 10.1629 122.171 10.3518C122.42 10.5376 122.624 10.7694 122.771 11.0324C122.932 11.3459 123.01 11.6908 122.997 12.0379C123.001 12.4331 122.925 12.8255 122.774 13.1949C122.627 13.5486 122.402 13.8699 122.112 14.1379C121.81 14.4134 121.449 14.6284 121.054 14.7699C120.596 14.9304 120.109 15.0087 119.62 15.0004C119 15.0157 118.384 14.8988 117.821 14.6588C117.318 14.4301 116.87 14.1114 116.501 13.7213L116.71 13.4185C116.733 13.3872 116.764 13.3615 116.8 13.3434C116.837 13.3253 116.877 13.3153 116.918 13.3143C116.984 13.3236 117.045 13.3529 117.091 13.3977L117.344 13.6004C117.443 13.6824 117.563 13.7699 117.702 13.8643C117.854 13.9662 118.016 14.0541 118.187 14.1268C118.64 14.3208 119.135 14.4186 119.635 14.4129C120.017 14.419 120.397 14.3592 120.755 14.2366C121.064 14.1283 121.347 13.9629 121.584 13.7504C121.811 13.5469 121.987 13.3006 122.102 13.0282C122.223 12.7435 122.284 12.4398 122.282 12.1338C122.294 11.8348 122.215 11.5386 122.054 11.2796C121.9 11.0564 121.695 10.8668 121.454 10.7241C121.189 10.5676 120.905 10.4413 120.608 10.3477C120.292 10.2463 119.968 10.1477 119.634 10.0504C119.299 9.95322 118.977 9.84627 118.66 9.72544C118.355 9.61197 118.07 9.45754 117.813 9.26711C117.562 9.07788 117.358 8.8411 117.213 8.57266C117.05 8.24498 116.972 7.88624 116.986 7.52544C116.985 7.20061 117.054 6.87887 117.186 6.57822C117.321 6.2754 117.522 6.00162 117.776 5.77405C118.053 5.53206 118.379 5.34325 118.735 5.2185C119.151 5.06951 119.593 4.99549 120.039 5.00044C120.542 4.9932 121.042 5.07523 121.512 5.24211C121.96 5.41067 122.364 5.66265 122.702 5.98239L122.523 6.29905Z" fill="#A5ADBF"/>
<path d="M81.9965 5H76V8.01528H81.9965V5Z" fill="#A5ADBF"/>
<path d="M81.9965 5.00391H78.7411V14.9997H81.9965V5.00391Z" fill="#A5ADBF"/>
<path d="M84.43 8.01389C85.3286 8.01389 86.057 7.33921 86.057 6.50694C86.057 5.67468 85.3286 5 84.43 5C83.5315 5 82.8031 5.67468 82.8031 6.50694C82.8031 7.33921 83.5315 8.01389 84.43 8.01389Z" fill="#A5ADBF"/>
</g>
<path d="M8.36097 13V4.6H11.829C12.637 4.6 13.285 4.828 13.773 5.284C14.261 5.74 14.505 6.34 14.505 7.084C14.505 7.828 14.261 8.428 13.773 8.884C13.285 9.34 12.637 9.568 11.829 9.568H9.28497V13H8.36097ZM11.721 5.416H9.28497V8.776H11.721C12.297 8.776 12.749 8.624 13.077 8.32C13.413 8.016 13.581 7.604 13.581 7.084C13.581 6.572 13.413 6.168 13.077 5.872C12.749 5.568 12.297 5.416 11.721 5.416ZM15.429 10.072C15.429 9.64 15.501 9.24 15.645 8.872C15.789 8.504 15.985 8.184 16.233 7.912C16.489 7.64 16.793 7.428 17.145 7.276C17.497 7.124 17.873 7.048 18.273 7.048C18.681 7.048 19.057 7.124 19.401 7.276C19.753 7.428 20.057 7.64 20.313 7.912C20.569 8.184 20.769 8.504 20.913 8.872C21.057 9.24 21.129 9.64 21.129 10.072C21.129 10.504 21.053 10.908 20.901 11.284C20.757 11.66 20.557 11.984 20.301 12.256C20.053 12.52 19.753 12.732 19.401 12.892C19.049 13.044 18.673 13.12 18.273 13.12C17.873 13.12 17.497 13.044 17.145 12.892C16.801 12.732 16.501 12.516 16.245 12.244C15.997 11.972 15.797 11.652 15.645 11.284C15.501 10.908 15.429 10.504 15.429 10.072ZM18.273 12.34C18.841 12.34 19.313 12.128 19.689 11.704C20.073 11.272 20.265 10.732 20.265 10.084C20.265 9.436 20.073 8.896 19.689 8.464C19.313 8.032 18.841 7.816 18.273 7.816C17.705 7.816 17.233 8.032 16.857 8.464C16.481 8.896 16.293 9.436 16.293 10.084C16.293 10.732 16.481 11.272 16.857 11.704C17.233 12.128 17.705 12.34 18.273 12.34ZM24.4564 13H23.5924L21.9844 7.144H22.8364L24.0604 11.824L25.4644 7.144H26.2444L27.6484 11.824L28.8604 7.144H29.6884L28.0924 13H27.2404L25.8484 8.272L24.4564 13ZM35.6462 12.328C35.3102 12.592 34.9622 12.788 34.6022 12.916C34.2422 13.044 33.8582 13.108 33.4502 13.108C33.0422 13.108 32.6582 13.032 32.2982 12.88C31.9462 12.72 31.6382 12.504 31.3742 12.232C31.1182 11.96 30.9142 11.64 30.7622 11.272C30.6182 10.896 30.5462 10.496 30.5462 10.072C30.5462 9.648 30.6142 9.252 30.7502 8.884C30.8942 8.508 31.0902 8.188 31.3382 7.924C31.5862 7.652 31.8782 7.44 32.2142 7.288C32.5502 7.128 32.9142 7.048 33.3062 7.048C33.6902 7.048 34.0462 7.124 34.3742 7.276C34.7022 7.428 34.9862 7.636 35.2262 7.9C35.4662 8.156 35.6542 8.468 35.7902 8.836C35.9262 9.196 35.9942 9.584 35.9942 10V10.264H31.3982C31.4382 10.856 31.6582 11.352 32.0582 11.752C32.4582 12.144 32.9342 12.34 33.4862 12.34C33.7902 12.34 34.0822 12.288 34.3622 12.184C34.6502 12.072 34.8942 11.924 35.0942 11.74L35.6462 12.328ZM33.2942 7.804C32.8142 7.804 32.4022 7.976 32.0582 8.32C31.7142 8.664 31.5022 9.104 31.4222 9.64H35.1302C35.0662 9.112 34.8622 8.676 34.5182 8.332C34.1822 7.98 33.7742 7.804 33.2942 7.804ZM37.4898 13V7.144H38.3658V8.332C38.5178 7.924 38.7338 7.608 39.0138 7.384C39.3018 7.152 39.6298 7.036 39.9978 7.036C40.1018 7.036 40.1978 7.044 40.2858 7.06C40.3738 7.068 40.4618 7.088 40.5498 7.12V7.912C40.4538 7.88 40.3498 7.856 40.2378 7.84C40.1338 7.816 40.0338 7.804 39.9378 7.804C39.5778 7.804 39.2618 7.908 38.9898 8.116C38.7258 8.324 38.5178 8.616 38.3658 8.992V13H37.4898ZM46.1696 12.328C45.8336 12.592 45.4856 12.788 45.1256 12.916C44.7656 13.044 44.3816 13.108 43.9736 13.108C43.5656 13.108 43.1816 13.032 42.8216 12.88C42.4696 12.72 42.1616 12.504 41.8976 12.232C41.6416 11.96 41.4376 11.64 41.2856 11.272C41.1416 10.896 41.0696 10.496 41.0696 10.072C41.0696 9.648 41.1376 9.252 41.2736 8.884C41.4176 8.508 41.6136 8.188 41.8616 7.924C42.1096 7.652 42.4016 7.44 42.7376 7.288C43.0736 7.128 43.4376 7.048 43.8296 7.048C44.2136 7.048 44.5696 7.124 44.8976 7.276C45.2256 7.428 45.5096 7.636 45.7496 7.9C45.9896 8.156 46.1776 8.468 46.3136 8.836C46.4496 9.196 46.5176 9.584 46.5176 10V10.264H41.9216C41.9616 10.856 42.1816 11.352 42.5816 11.752C42.9816 12.144 43.4576 12.34 44.0096 12.34C44.3136 12.34 44.6056 12.288 44.8856 12.184C45.1736 12.072 45.4176 11.924 45.6176 11.74L46.1696 12.328ZM43.8176 7.804C43.3376 7.804 42.9256 7.976 42.5816 8.32C42.2376 8.664 42.0256 9.104 41.9456 9.64H45.6536C45.5896 9.112 45.3856 8.676 45.0416 8.332C44.7056 7.98 44.2976 7.804 43.8176 7.804ZM52.333 13V12.22C52.109 12.5 51.837 12.716 51.517 12.868C51.197 13.012 50.845 13.084 50.461 13.084C50.085 13.084 49.729 13.008 49.393 12.856C49.065 12.696 48.781 12.484 48.541 12.22C48.301 11.948 48.109 11.628 47.965 11.26C47.829 10.892 47.761 10.5 47.761 10.084C47.761 9.66 47.829 9.264 47.965 8.896C48.109 8.528 48.305 8.212 48.553 7.948C48.801 7.676 49.093 7.464 49.429 7.312C49.765 7.152 50.125 7.072 50.509 7.072C50.869 7.072 51.205 7.144 51.517 7.288C51.829 7.424 52.101 7.624 52.333 7.888V4.42L53.209 4.24V13H52.333ZM48.625 10.072C48.625 10.712 48.821 11.248 49.213 11.68C49.605 12.104 50.093 12.316 50.677 12.316C51.021 12.316 51.337 12.248 51.625 12.112C51.913 11.976 52.149 11.784 52.333 11.536V8.632C52.141 8.384 51.897 8.192 51.601 8.056C51.313 7.912 51.005 7.84 50.677 7.84C50.093 7.84 49.605 8.052 49.213 8.476C48.821 8.9 48.625 9.432 48.625 10.072ZM63.2702 10.072C63.2702 10.496 63.1982 10.892 63.0542 11.26C62.9182 11.628 62.7262 11.948 62.4782 12.22C62.2302 12.484 61.9382 12.696 61.6022 12.856C61.2662 13.008 60.9062 13.084 60.5222 13.084C60.1542 13.084 59.8102 13.012 59.4902 12.868C59.1782 12.716 58.9062 12.504 58.6742 12.232V13H57.8102V4.42L58.6862 4.24V7.948C58.9102 7.676 59.1822 7.464 59.5022 7.312C59.8222 7.152 60.1782 7.072 60.5702 7.072C60.9462 7.072 61.2982 7.152 61.6262 7.312C61.9622 7.464 62.2502 7.676 62.4902 7.948C62.7302 8.212 62.9182 8.528 63.0542 8.896C63.1982 9.264 63.2702 9.656 63.2702 10.072ZM60.3542 7.84C60.0102 7.84 59.6902 7.912 59.3942 8.056C59.1062 8.192 58.8702 8.388 58.6862 8.644V11.512C58.8782 11.768 59.1182 11.968 59.4062 12.112C59.7022 12.256 60.0182 12.328 60.3542 12.328C60.9382 12.328 61.4262 12.116 61.8182 11.692C62.2102 11.26 62.4062 10.724 62.4062 10.084C62.4062 9.444 62.2102 8.912 61.8182 8.488C61.4262 8.056 60.9382 7.84 60.3542 7.84ZM65.7825 13.936L66.1665 12.988L63.9105 7.144H64.8825L66.6585 11.956L68.5425 7.144H69.5145L66.6105 14.2C66.4265 14.672 66.2065 15.004 65.9505 15.196C65.7025 15.396 65.3625 15.496 64.9305 15.496C64.8505 15.496 64.7625 15.488 64.6665 15.472C64.5705 15.464 64.4705 15.444 64.3665 15.412V14.632C64.4865 14.656 64.5785 14.668 64.6425 14.668C64.7145 14.676 64.7825 14.68 64.8465 14.68C65.0705 14.68 65.2545 14.62 65.3985 14.5C65.5505 14.388 65.6785 14.2 65.7825 13.936Z" fill="#A5ADBF"/>
<defs>
<clipPath id="clip0_3002_85719">
<rect width="47" height="10" fill="white" transform="translate(76 5)"/>
</clipPath>
</defs>
</svg>
