<svg width="14" height="16" viewBox="0 0 14 16" fill="none" xmlns="http://www.w3.org/2000/svg">
  <path d="M11.9473 2.60667C11.9004 2.5458 11.8418 2.49487 11.775 2.45684C11.7082 2.41881 11.6346 2.39443 11.5583 2.38512C11.482 2.37582 11.4046 2.38177 11.3306 2.40264C11.2566 2.4235 11.1875 2.45887 11.1273 2.50667C11.0627 2.55101 11.0079 2.60814 10.9662 2.67451C10.9245 2.74089 10.8969 2.8151 10.885 2.89257C10.8731 2.97005 10.8773 3.04913 10.8972 3.12494C10.9171 3.20075 10.9523 3.27167 11.0007 3.33334C11.6884 4.22246 12.0592 5.31596 12.054 6.44V9.58667C12.0523 10.9288 11.5202 12.2159 10.5736 13.1674C9.62707 14.119 8.34281 14.6579 7.00068 14.6667C6.91884 14.6579 6.83607 14.6665 6.75775 14.6918C6.67943 14.7171 6.60732 14.7586 6.54609 14.8136C6.48487 14.8687 6.43591 14.9359 6.4024 15.0111C6.36888 15.0863 6.35156 15.1677 6.35156 15.25C6.35156 15.3323 6.36888 15.4137 6.4024 15.4889C6.43591 15.5641 6.48487 15.6313 6.54609 15.6864C6.60732 15.7414 6.67943 15.7829 6.75775 15.8082C6.83607 15.8335 6.91884 15.8421 7.00068 15.8333C8.65862 15.8316 10.2482 15.1722 11.4205 13.9998C12.5928 12.8275 13.2522 11.2379 13.254 9.58V6.42667C13.2589 5.04287 12.7987 3.69756 11.9473 2.60667V2.60667Z" fill="white"/>
  <path d="M4.9999 14.2601C4.08256 13.8719 3.2996 13.2225 2.74842 12.3928C2.19725 11.5631 1.90217 10.5896 1.8999 9.59347V8.31347C1.8999 8.15788 1.83809 8.00866 1.72807 7.89864C1.61804 7.78862 1.46882 7.72681 1.31323 7.72681C1.15764 7.72681 1.00841 7.78862 0.898393 7.89864C0.788372 8.00866 0.726562 8.15788 0.726562 8.31347V9.57347C0.726562 10.8054 1.09122 12.0098 1.77457 13.0348C2.45792 14.0598 3.4294 14.8597 4.56656 15.3335C4.70981 15.3933 4.87093 15.3939 5.01463 15.3352C5.15833 15.2765 5.2729 15.1632 5.33323 15.0201C5.36219 14.9484 5.37652 14.8717 5.37538 14.7944C5.37425 14.7171 5.35766 14.6408 5.3266 14.5699C5.29555 14.4991 5.25064 14.4353 5.19454 14.382C5.13843 14.3288 5.07225 14.2874 4.9999 14.2601V14.2601Z" fill="white"/>
  <path d="M1.31189 6.66673C1.4608 6.66708 1.60426 6.61079 1.71321 6.50928C1.82215 6.40776 1.88841 6.26862 1.89856 6.12007C1.94199 5.24844 2.20954 4.40275 2.67533 3.66474C3.14112 2.92673 3.78942 2.32136 4.55755 1.90713C5.32569 1.4929 6.18769 1.28382 7.06025 1.3001C7.93281 1.31638 8.78641 1.55747 9.53856 2.00006C9.66962 2.07615 9.82483 2.0992 9.97235 2.06449C10.1199 2.02978 10.2485 1.93994 10.3319 1.8134C10.4094 1.67895 10.4304 1.51928 10.3904 1.36934C10.3504 1.21941 10.2527 1.09142 10.1186 1.0134C9.19491 0.486106 8.15191 0.20338 7.08841 0.192008C6.0249 0.180635 4.9761 0.440993 4.04138 0.948413C3.10666 1.45583 2.31698 2.19351 1.74715 3.09155C1.17732 3.98959 0.846225 5.01825 0.785228 6.08006C0.78293 6.22623 0.835907 6.36786 0.933558 6.47664C1.03121 6.58542 1.16633 6.65331 1.31189 6.66673Z" fill="white"/>
  <path d="M11.3604 9.57332V6.42665C11.3604 5.27031 10.9011 4.16132 10.0834 3.34366C9.26577 2.52601 8.15678 2.06665 7.00044 2.06665C6.54774 2.06968 6.09815 2.14162 5.6671 2.27998C5.59165 2.30134 5.52124 2.33762 5.46004 2.38666C5.39884 2.4357 5.3481 2.49651 5.31081 2.5655C5.27352 2.63449 5.25043 2.71025 5.24293 2.78832C5.23542 2.86638 5.24364 2.94515 5.2671 3.01998C5.29053 3.09279 5.32812 3.16025 5.37772 3.21847C5.42732 3.27669 5.48794 3.32453 5.5561 3.35922C5.62426 3.39392 5.6986 3.4148 5.77486 3.42065C5.85112 3.4265 5.92778 3.41721 6.00044 3.39332C6.4802 3.23512 6.99064 3.19301 7.48984 3.27043C7.98904 3.34785 8.46275 3.5426 8.87206 3.83868C9.28136 4.13476 9.61458 4.52372 9.84435 4.97361C10.0741 5.4235 10.1939 5.92148 10.1938 6.42665V9.57332C10.185 9.65516 10.1936 9.73793 10.2189 9.81625C10.2442 9.89457 10.2857 9.96668 10.3407 10.0279C10.3958 10.0891 10.463 10.1381 10.5382 10.1716C10.6134 10.2051 10.6948 10.2224 10.7771 10.2224C10.8594 10.2224 10.9408 10.2051 11.016 10.1716C11.0912 10.1381 11.1584 10.0891 11.2135 10.0279C11.2685 9.96668 11.31 9.89457 11.3353 9.81625C11.3606 9.73793 11.3692 9.65516 11.3604 9.57332V9.57332Z" fill="white"/>
  <path d="M4.57201 3.47351C4.45606 3.37038 4.30397 3.31738 4.14904 3.32613C3.9941 3.33487 3.84895 3.40465 3.74534 3.52018C3.03221 4.3204 2.63831 5.35497 2.63867 6.42684V9.57351C2.63786 10.4573 2.90566 11.3205 3.40658 12.0487C3.9075 12.7768 4.61789 13.3355 5.44357 13.6508C6.26925 13.966 7.17123 14.0229 8.02996 13.8138C8.88869 13.6047 9.66361 13.1397 10.252 12.4802C10.3546 12.3644 10.4069 12.2126 10.3975 12.0582C10.3881 11.9038 10.3178 11.7594 10.202 11.6568C10.0862 11.5543 9.93439 11.5019 9.77998 11.5113C9.62558 11.5207 9.48122 11.591 9.37867 11.7068C8.94725 12.1891 8.37951 12.5289 7.75063 12.6813C7.12175 12.8337 6.46143 12.7914 5.85711 12.5601C5.2528 12.3288 4.73302 11.9193 4.36661 11.386C4.00021 10.8526 3.80448 10.2206 3.80534 9.57351V6.42684C3.80366 5.63969 4.09338 4.87976 4.61867 4.29351C4.66955 4.23665 4.7087 4.17031 4.73389 4.0983C4.75908 4.02628 4.76982 3.95 4.76548 3.87383C4.76115 3.79766 4.74183 3.72309 4.70863 3.65439C4.67543 3.5857 4.629 3.52423 4.57201 3.47351V3.47351Z" fill="white"/>
  <path d="M5.66667 9.57337C5.65125 9.42941 5.58316 9.29624 5.47547 9.19946C5.36778 9.10269 5.22811 9.04915 5.08333 9.04915C4.93855 9.04915 4.79888 9.10269 4.6912 9.19946C4.58351 9.29624 4.51541 9.42941 4.5 9.57337C4.5 10.2293 4.76058 10.8584 5.22442 11.3223C5.68826 11.7861 6.31736 12.0467 6.97333 12.0467C7.6293 12.0467 8.2584 11.7861 8.72224 11.3223C9.18608 10.8584 9.44667 10.2293 9.44667 9.57337V6.4267C9.44667 5.77073 9.18608 5.14163 8.72224 4.67779C8.2584 4.21395 7.6293 3.95337 6.97333 3.95337C6.31736 3.95337 5.68826 4.21395 5.22442 4.67779C4.76058 5.14163 4.5 5.77073 4.5 6.4267V7.37337C4.51541 7.51733 4.58351 7.6505 4.6912 7.74728C4.79888 7.84405 4.93855 7.89759 5.08333 7.89759C5.22811 7.89759 5.36778 7.84405 5.47547 7.74728C5.58316 7.6505 5.65125 7.51733 5.66667 7.37337V6.4267C5.72787 6.12529 5.89139 5.85431 6.12953 5.65967C6.36767 5.46503 6.66577 5.3587 6.97333 5.3587C7.28089 5.3587 7.579 5.46503 7.81713 5.65967C8.05527 5.85431 8.2188 6.12529 8.28 6.4267V9.57337C8.2188 9.87478 8.05527 10.1458 7.81713 10.3404C7.579 10.535 7.28089 10.6414 6.97333 10.6414C6.66577 10.6414 6.36767 10.535 6.12953 10.3404C5.89139 10.1458 5.72787 9.87478 5.66667 9.57337Z" fill="white"/>
  <path d="M7.58739 9.25996V7.37329C7.58739 7.21769 7.52559 7.06847 7.41556 6.95845C7.30554 6.84843 7.15632 6.78662 7.00073 6.78662C6.84514 6.78662 6.69591 6.84843 6.58589 6.95845C6.47587 7.06847 6.41406 7.21769 6.41406 7.37329V9.25996C6.41406 9.41555 6.47587 9.56477 6.58589 9.67479C6.69591 9.78481 6.84514 9.84662 7.00073 9.84662C7.15632 9.84662 7.30554 9.78481 7.41556 9.67479C7.52559 9.56477 7.58739 9.41555 7.58739 9.25996Z" fill="white"/>
</svg>
