<svg width="14" height="16" viewBox="0 0 14 16" fill="none" xmlns="http://www.w3.org/2000/svg">
<path d="M1 3.99998H2.33333M2.33333 3.99998H13M2.33333 3.99998L2.33333 13.3333C2.33333 13.6869 2.47381 14.0261 2.72386 14.2761C2.97391 14.5262 3.31304 14.6666 3.66667 14.6666H10.3333C10.687 14.6666 11.0261 14.5262 11.2761 14.2761C11.5262 14.0261 11.6667 13.6869 11.6667 13.3333V3.99998L2.33333 3.99998ZM4.33333 3.99998V2.66665C4.33333 2.31302 4.47381 1.97389 4.72386 1.72384C4.97391 1.47379 5.31304 1.33331 5.66667 1.33331H8.33333C8.68696 1.33331 9.02609 1.47379 9.27614 1.72384C9.52619 1.97389 9.66667 2.31302 9.66667 2.66665V3.99998M5.66667 7.33331V11.3333M8.33333 7.33331V11.3333" stroke="#FFB3A9" stroke-linecap="round" stroke-linejoin="round"/>
</svg>
