<svg width="146" height="39" viewBox="0 0 146 39" fill="none" xmlns="http://www.w3.org/2000/svg">
<path fill-rule="evenodd" clip-rule="evenodd" d="M137.727 19.7368L137.382 20.8272C136.662 23.2925 135.223 25.553 133.205 27.3886C131.187 29.2242 128.659 30.5723 125.867 31.3015C123.075 32.0308 120.114 32.1163 117.273 31.5498C114.431 30.9832 111.807 29.784 109.654 28.0689C107.209 26.127 105.446 23.6192 104.57 20.837L104.25 19.792H104.271L103.846 18.0102C103.051 14.6048 101.335 11.4144 98.8415 8.70502C98.5525 8.38977 98.2282 8.06889 97.9335 7.7746L97.5595 7.39925L97.5171 7.35658L96.6026 6.5562L96.3624 6.3899C96.151 6.23821 95.9204 6.06829 95.6762 5.89005C95.0868 5.45666 94.4214 4.96603 93.7544 4.562C89.2358 1.78543 83.7854 0.403554 78.266 0.635114C72.7465 0.866673 67.4731 2.69843 63.2804 5.84047C59.22 8.85584 56.3899 12.9398 55.2152 17.479C55.1824 17.6034 55.1488 17.7432 55.1208 17.8578C55.1095 17.9068 55.0991 17.9487 55.0911 17.9822L54.6507 19.7668H54.7308L54.396 20.8237C53.6764 23.2891 52.2375 25.5499 50.2195 27.3856C48.2015 29.2213 45.6733 30.5694 42.881 31.2986C40.0888 32.0279 37.1277 32.1134 34.2864 31.5468C31.4451 30.9801 28.8203 29.7807 26.6678 28.0654C24.2245 26.1241 22.4622 23.6176 21.5854 20.837L21.2523 19.7584H21.1426L20.7262 18.0109C19.9303 14.6056 18.2145 11.4155 15.7216 8.70571C15.4325 8.39045 15.1082 8.06957 14.8135 7.77529L14.4396 7.39993L14.3979 7.35726L13.4827 6.55697L13.2425 6.39058C13.0303 6.2389 12.8004 6.06906 12.557 5.89082C11.9677 5.45743 11.3023 4.96671 10.6352 4.56268C6.11643 1.78618 0.665993 0.404324 -4.85357 0.635882C-10.3731 0.86744 -15.6466 2.69917 -19.8396 5.84115C-23.9 8.85652 -26.73 12.9405 -27.9047 17.4797C-27.9375 17.6041 -27.9712 17.7439 -27.9992 17.8585C-28.0104 17.9074 -28.0201 17.9494 -28.0289 17.9829L-28.4605 19.7346H-28.5045L-28.8504 20.8251C-29.57 23.2906 -31.0088 25.5513 -33.0267 27.387C-35.0446 29.2228 -37.5728 30.5709 -40.365 31.3002C-43.1572 32.0294 -46.1182 32.1149 -48.9595 31.5482C-51.8008 30.9816 -54.4255 29.7822 -56.5779 28.0668C-59.0211 26.125 -60.7832 23.618 -61.6595 20.837L-61.9925 19.7584L-63.2738 19.7438C-63.7366 19.7403 -64.2034 19.7403 -64.6566 19.7403H-65.1195L-70 19.7346L-69.5748 21.5192C-68.7786 24.9244 -67.0628 28.1145 -64.5701 30.8244C-64.2811 31.1361 -63.956 31.4605 -63.6621 31.7548C-63.5284 31.8876 -63.4018 32.012 -63.2873 32.1273L-63.2457 32.1728L-62.3304 32.9697L-62.0902 33.136V33.1395C-61.878 33.2877 -61.6474 33.4576 -61.404 33.6365C-60.8146 34.0727 -60.1492 34.5606 -59.4822 34.9695C-54.9631 37.7456 -49.5126 39.1268 -43.9931 38.8946C-38.4736 38.6624 -33.2005 36.8301 -29.0082 33.6876C-24.9473 30.6716 -22.1174 26.5865 -20.9438 22.0462C-20.9102 21.9218 -20.8766 21.7827 -20.8494 21.6674L-20.8189 21.543L-20.3873 19.7955H-20.3433L-19.9982 18.7078C-19.2785 16.2423 -17.8396 13.9817 -15.8216 12.146C-13.8036 10.3102 -11.2753 8.96206 -8.48308 8.23282C-5.69083 7.50357 -2.72982 7.41815 0.111519 7.98477C2.95285 8.55139 5.57758 9.75074 7.73009 11.4661C10.1731 13.4068 11.9357 15.9125 12.8133 18.6924L13.1464 19.771H13.256L13.6732 21.5185C14.4695 24.9235 16.185 28.1136 18.6771 30.8237C18.9662 31.1355 19.2905 31.4598 19.5852 31.7541C19.7181 31.8869 19.8454 32.0113 19.9591 32.1267L20.0016 32.1721L20.916 32.9689L21.1562 33.1353V33.1388C21.3684 33.287 21.5983 33.4569 21.8425 33.6359C22.4318 34.072 23.0973 34.5599 23.7643 34.9688C28.2834 37.7448 33.7339 39.126 39.2534 38.8938C44.7728 38.6616 50.0459 36.8293 54.2383 33.6869C58.2997 30.6712 61.1299 26.586 62.3034 22.0456C62.3371 21.9211 62.3707 21.782 62.3979 21.6667C62.4091 21.6213 62.4187 21.5786 62.4283 21.5423L62.868 19.7577H62.7879L63.1226 18.7036C63.8423 16.2382 65.2812 13.9775 67.2991 12.1418C69.3171 10.3061 71.8454 8.95788 74.6376 8.22864C77.4299 7.49939 80.3909 7.41388 83.2322 7.9805C86.0736 8.54712 88.6983 9.74656 90.8508 11.4619C93.2946 13.4022 95.0573 15.908 95.934 18.6882L96.2543 19.7368H96.2319L96.6571 21.5213C97.4537 24.9264 99.1694 28.1165 101.662 30.8265C101.951 31.1383 102.276 31.4626 102.57 31.7568C102.703 31.8897 102.829 32.0141 102.944 32.1295L102.985 32.1749L103.901 32.9717L104.141 33.1381V33.1416C104.353 33.2898 104.584 33.4596 104.827 33.6386C105.416 34.0748 106.082 34.5627 106.749 34.9716C111.268 37.7476 116.719 39.1289 122.238 38.8967C127.758 38.6645 133.031 36.8321 137.224 33.6896C141.285 30.6735 144.115 26.5885 145.289 22.0484C145.322 21.924 145.355 21.7849 145.383 21.6695L145.413 21.545L145.853 19.7605L137.727 19.7368ZM-67.4945 22.697C-67.5065 22.6593 -67.5169 22.6216 -67.5289 22.5838C-67.5001 22.6754 -67.4705 22.7676 -67.44 22.8585C-67.4617 22.8047 -67.4809 22.7509 -67.4985 22.697H-67.4945ZM-62.4161 30.7475C-62.6964 30.4679 -62.9767 30.1883 -63.2449 29.8996C-62.9775 30.1869 -62.6964 30.4686 -62.4161 30.7475ZM-59.3853 33.1794C-59.6712 32.978 -59.953 32.7705 -60.2341 32.5629C-59.9522 32.7726 -59.6736 32.978 -59.3853 33.1794C-59.097 33.3807 -58.808 33.5764 -58.5045 33.7596C-58.812 33.5764 -59.1027 33.3807 -59.3893 33.1794H-59.3853ZM19.0711 18.3156C19.0647 18.2884 19.0567 18.2611 19.0503 18.2346C19.0503 18.2611 19.0607 18.2884 19.0671 18.3156H19.0711ZM18.6555 16.8337C18.6715 16.8834 18.6851 16.9338 18.7003 16.9834C18.6611 16.859 18.6203 16.7352 18.5803 16.6122C18.6011 16.6863 18.6275 16.7596 18.6499 16.8337H18.6555ZM13.5764 8.78608C13.8574 9.06569 14.1369 9.3453 14.4051 9.63399C14.1385 9.3432 13.8574 9.06429 13.5764 8.78608ZM15.7504 22.6964C15.7384 22.6593 15.728 22.6215 15.716 22.5845C15.7448 22.6747 15.7736 22.7648 15.804 22.8543C15.7824 22.8019 15.7672 22.7495 15.7464 22.697L15.7504 22.6964ZM79.5003 2.08885C77.1729 2.08576 74.8583 2.38934 72.6347 2.98923C76.0141 2.07759 79.5879 1.8545 83.0815 2.33715C86.575 2.81981 89.8953 3.99529 92.7871 5.77332C88.8946 3.38431 84.2545 2.09832 79.4963 2.08962L79.5003 2.08885ZM101.774 16.833C101.789 16.8778 101.801 16.9232 101.815 16.9679C101.779 16.8561 101.744 16.745 101.707 16.6339C101.725 16.701 101.748 16.7666 101.767 16.8337L101.774 16.833ZM97.5243 9.63331C97.2568 9.34252 96.9758 9.06361 96.6955 8.7854C96.9718 9.06431 97.2544 9.34252 97.5243 9.63331ZM98.735 22.6964C98.723 22.6586 98.7126 22.6194 98.7006 22.5817C98.7302 22.6753 98.7599 22.7683 98.7911 22.8613C98.7687 22.8068 98.7486 22.7523 98.731 22.697L98.735 22.6964ZM102.985 29.8961C103.251 30.1834 103.533 30.4651 103.814 30.744C103.529 30.4686 103.248 30.1869 102.981 29.8996L102.985 29.8961ZM109.878 34.929C112.617 36.246 115.633 37.0653 118.745 37.3377C115.632 37.067 112.615 36.2491 109.874 34.9332L109.878 34.929ZM120.866 37.4377C124.959 37.4691 128.988 36.5497 132.54 34.7738C128.988 36.5519 124.957 37.4728 120.862 37.4419L120.866 37.4377Z" fill="#FFC9E2"/>
</svg>
