<svg width="193" height="45" viewBox="0 0 193 45" fill="none" xmlns="http://www.w3.org/2000/svg">
<path fill-rule="evenodd" clip-rule="evenodd" d="M207.869 22.2633L207.524 23.5156C206.804 26.347 205.364 28.9432 203.344 31.0513C201.325 33.1595 198.795 34.7077 196.001 35.5452C193.207 36.3827 190.244 36.4809 187.401 35.8302C184.557 35.1796 181.931 33.8023 179.777 31.8326C177.33 29.6024 175.566 26.7222 174.689 23.5269L174.369 22.3267H174.39L173.965 20.2805C173.169 16.3694 171.452 12.7054 168.957 9.59367C168.668 9.23161 168.343 8.86309 168.048 8.52511L167.674 8.09402L167.632 8.04502L166.716 7.12581L166.476 6.93482C166.264 6.76061 166.034 6.56546 165.789 6.36075C165.2 5.86302 164.534 5.29953 163.866 4.83552C159.345 1.64671 153.89 0.059654 148.367 0.325594C142.844 0.591534 137.567 2.69526 133.371 6.30381C129.308 9.76688 126.476 14.4572 125.301 19.6703C125.268 19.8132 125.234 19.9738 125.206 20.1054C125.195 20.1616 125.185 20.2098 125.177 20.2483L124.736 22.2978H124.816L124.481 23.5116C123.761 26.3431 122.321 28.9395 120.302 31.0478C118.282 33.1561 115.752 34.7043 112.958 35.5418C110.164 36.3794 107.201 36.4776 104.358 35.8268C101.514 35.1761 98.8878 33.7985 96.7338 31.8285C94.2889 29.599 92.5253 26.7204 91.648 23.5269L91.3146 22.2882H91.2049L90.7882 20.2812C89.9917 16.3704 88.2748 12.7065 85.7801 9.59446C85.4909 9.2324 85.1663 8.86387 84.8714 8.5259L84.4972 8.09481L84.4556 8.04581L83.5397 7.12669L83.2993 6.9356C83.087 6.76139 82.857 6.56634 82.6134 6.36163C82.0236 5.8639 81.3578 5.30032 80.6903 4.8363C76.1684 1.64756 70.7143 0.060538 65.1909 0.326476C59.6676 0.592414 54.3905 2.69611 50.1946 6.3046C46.1315 9.76766 43.2996 14.458 42.124 19.6711C42.0912 19.814 42.0575 19.9746 42.0294 20.1062C42.0182 20.1624 42.0086 20.2106 41.9998 20.2491L41.5679 22.2609H41.5238L41.1777 23.5133C40.4577 26.3448 39.0179 28.9412 36.9986 31.0495C34.9793 33.1578 32.4494 34.7061 29.6553 35.5436C26.8612 36.3811 23.8981 36.4793 21.0549 35.8285C18.2117 35.1777 15.5852 33.8002 13.4313 31.8302C10.9864 29.6001 9.22312 26.7209 8.34624 23.5269L8.01294 22.2882L6.73084 22.2714C6.26769 22.2674 5.80055 22.2673 5.34701 22.2673H4.88386L0 22.2609L0.425492 24.3104C1.22225 28.2212 2.93918 31.8849 5.43358 34.9972C5.72285 35.3552 6.04815 35.7278 6.34222 36.0657C6.47604 36.2183 6.60266 36.3611 6.71724 36.4936L6.75891 36.5458L7.6748 37.461L7.91517 37.652V37.656C8.12752 37.8262 8.35829 38.0214 8.60188 38.2269C9.19163 38.7278 9.85753 39.2881 10.525 39.7578C15.0472 42.946 20.5014 44.5323 26.0246 44.2656C31.5479 43.999 36.8246 41.8946 41.0198 38.2855C45.0835 34.8217 47.9153 30.13 49.0897 24.9157C49.1233 24.7728 49.157 24.6131 49.1842 24.4806L49.2147 24.3377L49.6466 22.3308H49.6906L50.036 21.0816C50.7561 18.2501 52.196 15.6538 54.2154 13.5455C56.2348 11.4372 58.7648 9.88887 61.5589 9.05136C64.3531 8.21384 67.3161 8.11573 70.1594 8.76648C73.0027 9.41723 75.6292 10.7947 77.7832 12.7647C80.2279 14.9936 81.9917 17.8713 82.8698 21.0639L83.2032 22.3026H83.3129L83.7304 24.3096C84.5272 28.2202 86.2438 31.8839 88.7377 34.9964C89.0269 35.3544 89.3515 35.727 89.6464 36.065C89.7794 36.2175 89.9068 36.3604 90.0206 36.4928L90.063 36.5449L90.9781 37.4601L91.2185 37.6512V37.6553C91.4308 37.8254 91.6608 38.0206 91.9052 38.2261C92.495 38.727 93.1609 39.2874 93.8283 39.757C98.3505 42.9451 103.805 44.5313 109.328 44.2647C114.851 43.998 120.128 41.8937 124.323 38.2847C128.387 34.8212 131.219 30.1295 132.394 24.9149C132.427 24.772 132.461 24.6123 132.488 24.4798C132.5 24.4276 132.509 24.3787 132.519 24.337L132.959 22.2874H132.879L133.214 21.0768C133.934 18.2453 135.374 15.649 137.393 13.5407C139.412 11.4324 141.942 9.88407 144.736 9.04656C147.531 8.20904 150.494 8.11083 153.337 8.76158C156.18 9.41233 158.807 10.7899 160.961 12.7599C163.406 14.9882 165.17 17.8662 166.047 21.0591L166.368 22.2633H166.345L166.771 24.3128C167.568 28.2235 169.285 31.8872 171.779 34.9996C172.068 35.3577 172.394 35.7301 172.688 36.0681C172.821 36.2206 172.947 36.3636 173.062 36.496L173.104 36.5482L174.019 37.4634L174.26 37.6545V37.6585C174.472 37.8287 174.703 38.0237 174.946 38.2292C175.536 38.7302 176.202 39.2905 176.87 39.7601C181.392 42.9483 186.846 44.5347 192.37 44.268C197.893 44.0013 203.17 41.8969 207.365 38.2878C211.429 34.8239 214.261 30.1324 215.436 24.9182C215.469 24.7753 215.502 24.6155 215.53 24.4831L215.56 24.3401L216 22.2906L207.869 22.2633ZM2.50722 25.6631C2.4952 25.6198 2.48481 25.5765 2.47279 25.5331C2.50164 25.6383 2.53126 25.7442 2.56171 25.8486C2.54007 25.7867 2.52084 25.725 2.50321 25.6631H2.50722ZM7.58906 34.9089C7.30861 34.5878 7.02813 34.2666 6.7597 33.9351C7.02733 34.265 7.30861 34.5886 7.58906 34.9089ZM10.6219 37.7018C10.3359 37.4706 10.0538 37.2322 9.77257 36.9938C10.0546 37.2346 10.3335 37.4706 10.6219 37.7018C10.9104 37.933 11.1997 38.1578 11.5033 38.3682C11.1956 38.1578 10.9048 37.933 10.6179 37.7018H10.6219ZM89.1319 20.6312C89.1255 20.5999 89.1175 20.5686 89.1111 20.5381C89.1111 20.5686 89.1215 20.5999 89.1279 20.6312H89.1319ZM88.7161 18.9293C88.7321 18.9863 88.7457 19.0442 88.7609 19.1012C88.7217 18.9583 88.6808 18.8162 88.6407 18.6749C88.6616 18.76 88.688 18.8442 88.7104 18.9293H88.7161ZM83.6334 9.68677C83.9147 10.0079 84.1943 10.329 84.4628 10.6606C84.1959 10.3266 83.9147 10.0063 83.6334 9.68677ZM85.809 25.6624C85.797 25.6198 85.7865 25.5764 85.7745 25.5339C85.8033 25.6374 85.8322 25.741 85.8626 25.8438C85.841 25.7835 85.8258 25.7234 85.805 25.6631L85.809 25.6624ZM149.602 1.99517C147.273 1.99162 144.957 2.34028 142.732 3.02924C146.114 1.98224 149.69 1.72603 153.186 2.28034C156.682 2.83466 160.005 4.18467 162.898 6.22669C159.003 3.48298 154.36 2.00604 149.598 1.99605L149.602 1.99517ZM171.891 18.9285C171.906 18.9799 171.918 19.032 171.932 19.0834C171.897 18.955 171.862 18.8274 171.824 18.6998C171.842 18.7768 171.866 18.8522 171.885 18.9293L171.891 18.9285ZM167.639 10.6598C167.371 10.3258 167.09 10.0055 166.809 9.68599C167.086 10.0063 167.369 10.3258 167.639 10.6598ZM168.85 25.6624C168.838 25.619 168.828 25.574 168.816 25.5307C168.845 25.6382 168.875 25.745 168.906 25.8518C168.884 25.7892 168.864 25.7266 168.846 25.6631L168.85 25.6624ZM173.103 33.9311C173.37 34.261 173.652 34.5845 173.933 34.9049C173.648 34.5886 173.366 34.265 173.099 33.9351L173.103 33.9311ZM180.001 39.7112C182.742 41.2237 185.76 42.1647 188.874 42.4776C185.759 42.1667 182.74 41.2274 179.997 39.716L180.001 39.7112ZM190.996 42.5924C195.092 42.6285 199.124 41.5726 202.678 39.533C199.123 41.575 195.09 42.6327 190.992 42.5972L190.996 42.5924Z" fill="#B9A7FF"/>
</svg>
