<svg width="206" height="44" viewBox="0 0 206 44" fill="none" xmlns="http://www.w3.org/2000/svg">
<path fill-rule="evenodd" clip-rule="evenodd" d="M197.869 21.9665L197.524 23.2188C196.804 26.0501 195.364 28.6463 193.344 30.7544C191.325 32.8626 188.795 34.4108 186.001 35.2483C183.207 36.0858 180.244 36.184 177.401 35.5334C174.557 34.8828 171.931 33.5055 169.777 31.5357C167.33 29.3055 165.566 26.4253 164.689 23.23L164.369 22.0299H164.39L163.965 19.9836C163.169 16.0725 161.452 12.4085 158.957 9.2968C158.668 8.93474 158.343 8.56621 158.048 8.22824L157.674 7.79715L157.632 7.74815L156.716 6.82894L156.476 6.63794C156.264 6.46373 156.034 6.26859 155.789 6.06387C155.2 5.56614 154.534 5.00266 153.866 4.53865C149.345 1.34983 143.89 -0.237221 138.367 0.0287192C132.844 0.294659 127.567 2.39839 123.371 6.00694C119.308 9.47001 116.476 14.1603 115.301 19.3735C115.268 19.5163 115.234 19.6769 115.206 19.8086C115.195 19.8648 115.185 19.9129 115.177 19.9514L114.736 22.001H114.816L114.481 23.2147C113.761 26.0462 112.321 28.6426 110.302 30.7509C108.282 32.8592 105.752 34.4075 102.958 35.245C100.164 36.0825 97.2009 36.1807 94.3576 35.5299C91.5144 34.8792 88.8878 33.5017 86.7338 31.5317C84.2889 29.3021 82.5253 26.4235 81.648 23.23L81.3146 21.9913H81.2049L80.7882 19.9844C79.9917 16.0735 78.2748 12.4097 75.7801 9.29758C75.4909 8.93552 75.1663 8.567 74.8714 8.22902L74.4972 7.79793L74.4556 7.74893L73.5397 6.82982L73.2993 6.63872C73.087 6.46452 72.857 6.26947 72.6134 6.06476C72.0236 5.56702 71.3578 5.00344 70.6903 4.53943C66.1684 1.35069 60.7143 -0.236337 55.1909 0.0296011C49.6676 0.295539 44.3905 2.39923 40.1946 6.00772C36.1315 9.47079 33.2996 14.1611 32.124 19.3742C32.0912 19.5171 32.0575 19.6777 32.0294 19.8093C32.0182 19.8655 32.0086 19.9137 31.9998 19.9522L31.5679 21.964H31.5238L31.1777 23.2164C30.4577 26.0479 29.0179 28.6443 26.9986 30.7526C24.9793 32.8609 22.4494 34.4092 19.6553 35.2467C16.8612 36.0843 13.8981 36.1824 11.0549 35.5316C8.21167 34.8808 5.58516 33.5034 3.43126 31.5333C0.986384 29.3032 -0.77688 26.424 -1.65376 23.23L-1.98706 21.9913L-3.26916 21.9745C-3.73231 21.9705 -4.19945 21.9705 -4.65299 21.9705H-5.11614L-10 21.964L-9.57451 24.0135C-8.77775 27.9243 -7.06082 31.5881 -4.56642 34.7003C-4.27715 35.0583 -3.95185 35.4309 -3.65778 35.7689C-3.52396 35.9214 -3.39734 36.0643 -3.28276 36.1967L-3.24109 36.249L-2.3252 37.1641L-2.08483 37.3551V37.3592C-1.87248 37.5294 -1.64171 37.7245 -1.39812 37.93C-0.808369 38.4309 -0.142473 38.9913 0.525004 39.4609C5.04716 42.6492 10.5014 44.2354 16.0246 43.9688C21.5479 43.7021 26.8246 41.5977 31.0198 37.9886C35.0835 34.5248 37.9153 29.8332 39.0897 24.6188C39.1233 24.476 39.157 24.3162 39.1842 24.1837L39.2147 24.0409L39.6466 22.0339H39.6906L40.036 20.7847C40.7561 17.9532 42.196 15.3569 44.2154 13.2486C46.2348 11.1404 48.7648 9.592 51.5589 8.75448C54.3531 7.91697 57.3161 7.81886 60.1594 8.4696C63.0027 9.12035 65.6292 10.4978 67.7832 12.4678C70.2279 14.6967 71.9917 17.5744 72.8698 20.7671L73.2032 22.0058H73.3129L73.7304 24.0127C74.5272 27.9233 76.2438 31.587 78.7377 34.6995C79.0269 35.0576 79.3515 35.4301 79.6464 35.7681C79.7794 35.9206 79.9068 36.0635 80.0206 36.1959L80.063 36.2481L80.9781 37.1633L81.2185 37.3544V37.3584C81.4308 37.5286 81.6608 37.7237 81.9052 37.9292C82.495 38.4302 83.1609 38.9905 83.8283 39.4601C88.3505 42.6483 93.8048 44.2345 99.328 43.9678C104.851 43.7011 110.128 41.5968 114.323 37.9878C118.387 34.5243 121.219 29.8326 122.394 24.6181C122.427 24.4752 122.461 24.3154 122.488 24.183C122.5 24.1308 122.509 24.0818 122.519 24.0401L122.959 21.9906H122.879L123.214 20.7799C123.934 17.9484 125.374 15.3521 127.393 13.2438C129.412 11.1356 131.942 9.5872 134.736 8.74968C137.531 7.91216 140.494 7.81396 143.337 8.46471C146.18 9.11545 148.807 10.493 150.961 12.463C153.406 14.6913 155.17 17.5693 156.047 20.7623L156.368 21.9665H156.345L156.771 24.016C157.568 27.9266 159.285 31.5903 161.779 34.7028C162.068 35.0608 162.394 35.4332 162.688 35.7712C162.821 35.9237 162.947 36.0667 163.062 36.1992L163.104 36.2513L164.019 37.1665L164.26 37.3576V37.3616C164.472 37.5318 164.703 37.7268 164.946 37.9323C165.536 38.4333 166.202 38.9936 166.87 39.4633C171.392 42.6515 176.846 44.2378 182.37 43.9711C187.893 43.7045 193.17 41.6 197.365 37.991C201.429 34.527 204.261 29.8356 205.436 24.6213C205.469 24.4784 205.502 24.3187 205.53 24.1862L205.56 24.0432L206 21.9937L197.869 21.9665ZM-7.49278 25.3663C-7.5048 25.3229 -7.51519 25.2796 -7.52721 25.2362C-7.49836 25.3414 -7.46874 25.4473 -7.43829 25.5517C-7.45993 25.4899 -7.47916 25.4281 -7.49679 25.3663H-7.49278ZM-2.41094 34.612C-2.69139 34.2909 -2.97187 33.9698 -3.2403 33.6382C-2.97267 33.9682 -2.69139 34.2917 -2.41094 34.612ZM0.621939 37.4049C0.335876 37.1737 0.0538225 36.9353 -0.227431 36.6969C0.0546236 36.9377 0.333472 37.1737 0.621939 37.4049C0.910404 37.6361 1.19965 37.861 1.50334 38.0713C1.19565 37.861 0.904791 37.6361 0.617928 37.4049H0.621939ZM79.1319 20.3343C79.1255 20.303 79.1175 20.2717 79.1111 20.2412C79.1111 20.2717 79.1215 20.303 79.1279 20.3343H79.1319ZM78.7161 18.6324C78.7321 18.6894 78.7457 18.7473 78.7609 18.8043C78.7217 18.6614 78.6808 18.5193 78.6407 18.378C78.6616 18.4631 78.688 18.5473 78.7104 18.6324H78.7161ZM73.6334 9.3899C73.9147 9.71101 74.1943 10.0321 74.4628 10.3637C74.1959 10.0297 73.9147 9.70941 73.6334 9.3899ZM75.809 25.3655C75.797 25.3229 75.7865 25.2796 75.7745 25.237C75.8033 25.3406 75.8322 25.4441 75.8626 25.5469C75.841 25.4867 75.8258 25.4265 75.805 25.3663L75.809 25.3655ZM139.602 1.6983C137.273 1.69474 134.957 2.0434 132.732 2.73236C136.114 1.68537 139.69 1.42915 143.186 1.98347C146.682 2.53778 150.005 3.8878 152.898 5.92981C149.003 3.1861 144.36 1.70917 139.598 1.69918L139.602 1.6983ZM161.891 18.6316C161.906 18.683 161.918 18.7352 161.932 18.7865C161.897 18.6581 161.862 18.5305 161.824 18.4029C161.842 18.48 161.866 18.5553 161.885 18.6324L161.891 18.6316ZM157.639 10.3629C157.371 10.0289 157.09 9.70862 156.809 9.38911C157.086 9.70943 157.369 10.0289 157.639 10.3629ZM158.85 25.3655C158.838 25.3221 158.828 25.2771 158.816 25.2338C158.845 25.3414 158.875 25.4481 158.906 25.5549C158.884 25.4923 158.864 25.4297 158.846 25.3663L158.85 25.3655ZM163.103 33.6342C163.37 33.9641 163.652 34.2877 163.933 34.608C163.648 34.2917 163.366 33.9682 163.099 33.6382L163.103 33.6342ZM170.001 39.4144C172.742 40.9268 175.76 41.8678 178.874 42.1807C175.759 41.8698 172.74 40.9305 169.997 39.4192L170.001 39.4144ZM180.996 42.2956C185.092 42.3316 189.124 41.2757 192.678 39.2361C189.123 41.2782 185.09 42.3358 180.992 42.3004L180.996 42.2956Z" fill="#E8B83D"/>
</svg>
