<svg width="17" height="14" viewBox="0 0 17 14" fill="none" xmlns="http://www.w3.org/2000/svg">
<path d="M16.0466 3.29321C16.0941 3.25378 16.1296 3.20196 16.1494 3.14352C16.1691 3.08508 16.1722 3.0223 16.1584 2.96219C16.1446 2.90207 16.1144 2.84697 16.0711 2.80301C16.0278 2.75905 15.9732 2.72797 15.9133 2.71321L15.3866 2.57988C15.3387 2.56789 15.2941 2.54541 15.256 2.51407C15.2178 2.48273 15.1871 2.44332 15.1661 2.39866C15.145 2.35401 15.1341 2.30524 15.1342 2.25587C15.1343 2.20651 15.1454 2.15778 15.1666 2.11321L15.4599 1.51988C15.4877 1.46238 15.4983 1.39814 15.4906 1.33479C15.4828 1.27143 15.4571 1.21163 15.4163 1.16248C15.3756 1.11334 15.3216 1.07691 15.2608 1.05754C15.2 1.03817 15.1349 1.03667 15.0733 1.05321L13.7399 1.42654C13.6903 1.44103 13.6379 1.44376 13.587 1.4345C13.5361 1.42524 13.488 1.40426 13.4466 1.37321C12.8696 0.940469 12.1678 0.706543 11.4466 0.706543C10.5626 0.706543 9.71471 1.05773 9.08959 1.68285C8.46447 2.30798 8.11328 3.15582 8.11328 4.03988V4.27988C8.11358 4.32082 8.09879 4.36045 8.07174 4.39119C8.04469 4.42193 8.00727 4.44163 7.96661 4.44654C6.09328 4.66654 4.29995 3.71321 2.36661 1.48654C2.32461 1.44022 2.27066 1.40638 2.21067 1.38874C2.15069 1.3711 2.087 1.37034 2.02661 1.38654C1.97221 1.41155 1.92555 1.45075 1.89153 1.50002C1.85751 1.54929 1.83739 1.60681 1.83328 1.66654C1.56625 2.76344 1.67421 3.91816 2.13995 4.94654C2.15373 4.97382 2.15974 5.00436 2.15734 5.03482C2.15493 5.06529 2.14419 5.09451 2.1263 5.11928C2.10841 5.14405 2.08405 5.16343 2.05588 5.1753C2.02772 5.18716 1.99684 5.19105 1.96661 5.18654L1.21995 5.03988C1.16692 5.03135 1.11262 5.03577 1.06167 5.05274C1.01071 5.06972 0.964618 5.09875 0.927303 5.13738C0.889987 5.176 0.862556 5.22307 0.847346 5.27458C0.832137 5.32609 0.829598 5.38051 0.839946 5.43321C0.897505 5.94484 1.0694 6.43698 1.34289 6.87319C1.61639 7.3094 1.98449 7.67851 2.41995 7.95321C2.44812 7.96686 2.47189 7.98817 2.48852 8.0147C2.50515 8.04123 2.51396 8.0719 2.51396 8.10321C2.51396 8.13452 2.50515 8.1652 2.48852 8.19172C2.47189 8.21825 2.44812 8.23956 2.41995 8.25321L2.06661 8.39321C2.0237 8.41041 1.98484 8.43635 1.95249 8.46938C1.92015 8.50241 1.89503 8.54181 1.87873 8.58507C1.86243 8.62833 1.8553 8.67451 1.85781 8.72067C1.86031 8.76683 1.87239 8.81197 1.89328 8.85321C2.08867 9.28076 2.38485 9.65454 2.75641 9.9425C3.12797 10.2305 3.56383 10.424 4.02661 10.5065C4.05879 10.5182 4.08659 10.5395 4.10623 10.5676C4.12588 10.5956 4.13642 10.629 4.13642 10.6632C4.13642 10.6974 4.12588 10.7308 4.10623 10.7589C4.08659 10.7869 4.05879 10.8082 4.02661 10.8199C3.12019 11.1948 2.14746 11.383 1.16661 11.3732C1.07821 11.3555 0.986399 11.3737 0.911384 11.4237C0.836369 11.4737 0.784294 11.5515 0.766612 11.6399C0.748931 11.7283 0.767093 11.8201 0.817103 11.8951C0.867113 11.9701 0.944874 12.0222 1.03328 12.0399C2.73164 12.8454 4.58073 13.2838 6.45995 13.3265C8.11292 13.3518 9.73647 12.8879 11.1266 11.9932C12.2701 11.2299 13.207 10.1955 13.8537 8.98232C14.5004 7.7691 14.837 6.41471 14.8333 5.03988V4.45988C14.8337 4.41147 14.8446 4.36373 14.8654 4.31998C14.8861 4.27623 14.9161 4.23752 14.9533 4.20654L16.0466 3.29321Z" fill="white"/>
</svg>
