<svg width="76" height="70" viewBox="0 0 76 70" fill="none" xmlns="http://www.w3.org/2000/svg">
<path d="M75.4068 14.3465C75.6408 14.1278 75.8162 13.8404 75.9136 13.5162C76.0109 13.1921 76.0264 12.8439 75.9582 12.5105C75.89 12.1771 75.7409 11.8715 75.5274 11.6277C75.3139 11.3839 75.0445 11.2115 74.749 11.1296L72.1511 10.3901C71.9148 10.3236 71.6947 10.199 71.5066 10.0251C71.3184 9.85133 71.1669 9.6327 71.0631 9.38504C70.9593 9.13738 70.9056 8.86688 70.9061 8.59309C70.9066 8.31929 70.9611 8.04903 71.0658 7.80183L72.5128 4.51101C72.6495 4.19212 72.7019 3.83582 72.6638 3.48443C72.6256 3.13305 72.4986 2.80136 72.2977 2.52878C72.0969 2.2562 71.8306 2.05419 71.5306 1.94676C71.2306 1.83932 70.9095 1.83098 70.6054 1.92273L64.0283 3.99335C63.7832 4.07372 63.5249 4.08882 63.2737 4.03748C63.0226 3.98614 62.7855 3.86976 62.5813 3.69755C59.7351 1.29743 56.2733 0 52.7156 0C48.3547 0 44.1723 1.94781 41.0887 5.41493C38.0051 8.88206 36.2727 13.5845 36.2727 18.4877V19.8189C36.2742 20.046 36.2012 20.2657 36.0678 20.4362C35.9343 20.6067 35.7497 20.716 35.5492 20.7432C26.3083 21.9634 17.462 16.6759 7.92516 4.32613C7.71798 4.06923 7.45182 3.88154 7.15592 3.78369C6.86003 3.68583 6.54587 3.68162 6.24798 3.7715C5.97962 3.91019 5.74944 4.12759 5.58163 4.40086C5.41381 4.67413 5.31456 4.99317 5.29429 5.32447C3.97708 11.4082 4.50964 17.8127 6.80704 23.5164C6.87502 23.6677 6.90469 23.8371 6.89282 24.006C6.88094 24.175 6.82798 24.3371 6.73972 24.4745C6.65146 24.6119 6.5313 24.7193 6.39237 24.7851C6.25345 24.8509 6.10111 24.8725 5.95201 24.8475L2.2688 24.0341C2.00724 23.9868 1.73938 24.0113 1.48804 24.1054C1.23669 24.1996 1.00931 24.3606 0.825233 24.5748C0.641159 24.7891 0.505849 25.0501 0.43082 25.3358C0.355792 25.6215 0.343268 25.9233 0.394314 26.2156C0.678246 29.0533 1.52616 31.7828 2.87528 34.2022C4.2244 36.6216 6.0402 38.6688 8.18824 40.1924C8.32724 40.268 8.44447 40.3862 8.52649 40.5334C8.60852 40.6805 8.65202 40.8506 8.65202 41.0243C8.65202 41.1979 8.60852 41.3681 8.52649 41.5152C8.44447 41.6624 8.32724 41.7806 8.18824 41.8562L6.4453 42.6327C6.23363 42.7281 6.04192 42.872 5.88237 43.0552C5.72281 43.2384 5.59889 43.4569 5.51848 43.6968C5.43807 43.9368 5.40293 44.1929 5.41528 44.4489C5.42764 44.705 5.48723 44.9553 5.59027 45.184C6.55412 47.5554 8.01512 49.6285 9.84798 51.2256C11.6808 52.8227 13.8309 53.8962 16.1137 54.354C16.2724 54.4187 16.4096 54.5369 16.5065 54.6923C16.6034 54.8478 16.6554 55.033 16.6554 55.2229C16.6554 55.4127 16.6034 55.598 16.5065 55.7534C16.4096 55.9089 16.2724 56.027 16.1137 56.0918C11.6424 58.1711 6.84408 59.2149 2.00572 59.1608C1.56962 59.0627 1.11675 59.1634 0.746709 59.4408C0.376672 59.7182 0.119789 60.1495 0.0325701 60.6398C-0.0546484 61.1301 0.0349424 61.6393 0.281634 62.0554C0.528325 62.4714 0.911909 62.7603 1.348 62.8583C9.7258 67.3259 18.8471 69.7575 28.117 69.9946C36.2709 70.1344 44.2797 67.5616 51.1371 62.5995C56.7777 58.366 61.3991 52.629 64.5894 45.9001C67.7797 39.1712 69.4397 31.6593 69.4215 24.0341V20.8172C69.4236 20.5487 69.4775 20.2839 69.5798 20.0413C69.682 19.7987 69.83 19.584 70.0135 19.4121L75.4068 14.3465Z" fill="#5326EC"/>
</svg>
