<svg width="22" height="18" viewBox="0 0 22 18" fill="none" xmlns="http://www.w3.org/2000/svg">
<path d="M21.31 3.90328C21.3751 3.84906 21.4239 3.77781 21.451 3.69746C21.4781 3.6171 21.4824 3.53079 21.4635 3.44813C21.4445 3.36547 21.403 3.2897 21.3436 3.22926C21.2841 3.16882 21.2092 3.12608 21.1269 3.10579L20.4039 2.92246C20.3381 2.90598 20.2769 2.87508 20.2245 2.83199C20.1721 2.7889 20.13 2.73469 20.1011 2.6733C20.0722 2.6119 20.0573 2.54484 20.0574 2.47697C20.0575 2.40909 20.0727 2.34209 20.1018 2.28081L20.5046 1.46499C20.5426 1.38594 20.5572 1.29761 20.5466 1.2105C20.536 1.12339 20.5006 1.04116 20.4447 0.973583C20.3888 0.906008 20.3147 0.855929 20.2312 0.829295C20.1477 0.802661 20.0583 0.800593 19.9737 0.823337L18.1432 1.33666C18.075 1.35658 18.0031 1.36033 17.9332 1.3476C17.8633 1.33487 17.7973 1.30602 17.7405 1.26333C16.9483 0.668322 15.9849 0.34668 14.9947 0.34668C13.781 0.34668 12.617 0.829556 11.7588 1.68908C10.9006 2.54861 10.4184 3.71437 10.4184 4.92992V5.25992C10.4188 5.31622 10.3985 5.3707 10.3614 5.41296C10.3243 5.45523 10.2729 5.48233 10.2171 5.48908C7.6452 5.79157 5.18316 4.48077 2.52892 1.41916C2.47126 1.35547 2.39719 1.30894 2.31483 1.28468C2.23248 1.26042 2.14505 1.25938 2.06214 1.28166C1.98745 1.31604 1.92339 1.36994 1.87669 1.43768C1.82998 1.50543 1.80236 1.58452 1.79672 1.66665C1.43012 3.17486 1.57834 4.76257 2.21773 6.17657C2.23665 6.21407 2.24491 6.25606 2.24161 6.29795C2.2383 6.33984 2.22356 6.38001 2.199 6.41408C2.17444 6.44814 2.14099 6.47478 2.10233 6.4911C2.06366 6.50741 2.02126 6.51276 1.97977 6.50656L0.954681 6.3049C0.881883 6.29318 0.807335 6.29924 0.737383 6.32259C0.667431 6.34593 0.604146 6.38585 0.552916 6.43896C0.501685 6.49207 0.464027 6.55679 0.443145 6.62761C0.422264 6.69843 0.418778 6.77326 0.432985 6.84572C0.512007 7.5492 0.747992 8.22588 1.12347 8.82565C1.49895 9.42543 2.00431 9.93295 2.60214 10.3107C2.64083 10.3294 2.67345 10.3587 2.69628 10.3952C2.71911 10.4317 2.73122 10.4739 2.73122 10.5169C2.73122 10.5599 2.71911 10.6021 2.69628 10.6386C2.67345 10.6751 2.64083 10.7044 2.60214 10.7231L2.11706 10.9156C2.05815 10.9393 2.00479 10.975 1.96039 11.0204C1.91598 11.0658 1.88149 11.12 1.85911 11.1794C1.83673 11.2389 1.82695 11.3024 1.83039 11.3659C1.83383 11.4294 1.85041 11.4914 1.87909 11.5481C2.14734 12.136 2.55396 12.6499 3.06407 13.0459C3.57418 13.4418 4.17256 13.7079 4.80791 13.8214C4.85208 13.8375 4.89025 13.8668 4.91722 13.9053C4.94419 13.9438 4.95866 13.9898 4.95866 14.0368C4.95866 14.0839 4.94419 14.1298 4.91722 14.1684C4.89025 14.2069 4.85208 14.2362 4.80791 14.2522C3.56349 14.7677 2.22804 15.0265 0.881461 15.0131C0.76009 14.9888 0.634048 15.0137 0.531061 15.0825C0.428075 15.1513 0.356581 15.2582 0.332307 15.3797C0.308033 15.5013 0.332967 15.6275 0.401625 15.7307C0.470282 15.8338 0.577039 15.9054 0.698409 15.9297C3.03007 17.0373 5.56865 17.6401 8.14859 17.6988C10.4179 17.7335 12.6469 17.0957 14.5554 15.8655C16.1253 14.816 17.4115 13.3938 18.2994 11.7257C19.1873 10.0575 19.6493 8.19526 19.6442 6.3049V5.50741C19.6448 5.44086 19.6598 5.37522 19.6882 5.31506C19.7167 5.25491 19.7579 5.20168 19.809 5.15909L21.31 3.90328Z" fill="#5326EC"/>
</svg>
