<svg width="22" height="18" viewBox="0 0 22 18" fill="none" xmlns="http://www.w3.org/2000/svg">
<path d="M21.3765 3.90335C21.4417 3.84913 21.4906 3.77788 21.5178 3.69752C21.5449 3.61716 21.5492 3.53085 21.5302 3.44819C21.5112 3.36553 21.4696 3.28976 21.4101 3.22932C21.3506 3.16888 21.2755 3.12614 21.1932 3.10585L20.469 2.92251C20.4032 2.90603 20.3418 2.87512 20.2894 2.83203C20.2369 2.78894 20.1947 2.73474 20.1657 2.67334C20.1368 2.61195 20.1219 2.54489 20.122 2.47701C20.1221 2.40913 20.1373 2.34213 20.1665 2.28085L20.5698 1.46501C20.6079 1.38596 20.6225 1.29763 20.6119 1.21051C20.6013 1.1234 20.5659 1.04117 20.5099 0.973595C20.4539 0.906019 20.3797 0.855938 20.2961 0.829304C20.2124 0.80267 20.1229 0.800602 20.0382 0.823346L18.2048 1.33668C18.1365 1.3566 18.0645 1.36035 17.9945 1.34762C17.9245 1.33489 17.8584 1.30604 17.8015 1.26335C17.0081 0.668328 16.0432 0.34668 15.0515 0.34668C13.8359 0.34668 12.6701 0.829565 11.8106 1.68911C10.9511 2.54865 10.4682 3.71444 10.4682 4.93001V5.26001C10.4686 5.31631 10.4482 5.3708 10.411 5.41306C10.3739 5.45533 10.3224 5.48243 10.2665 5.48918C7.69067 5.79168 5.22484 4.48085 2.5665 1.41918C2.50875 1.35549 2.43456 1.30896 2.35208 1.2847C2.26961 1.26044 2.18203 1.2594 2.099 1.28168C2.0242 1.31606 1.96004 1.36996 1.91326 1.43771C1.86648 1.50545 1.83882 1.58455 1.83317 1.66668C1.466 3.17491 1.61445 4.76265 2.25483 6.17668C2.27378 6.21418 2.28205 6.25618 2.27874 6.29807C2.27543 6.33996 2.26067 6.38013 2.23607 6.41419C2.21147 6.44826 2.17797 6.4749 2.13925 6.49121C2.10053 6.50752 2.05806 6.51288 2.0165 6.50668L0.989834 6.30501C0.916924 6.29329 0.842261 6.29936 0.772201 6.3227C0.702141 6.34604 0.638759 6.38597 0.58745 6.43908C0.53614 6.49219 0.498423 6.55691 0.47751 6.62773C0.456596 6.69856 0.453105 6.77338 0.467334 6.84585C0.546478 7.54934 0.782827 8.22603 1.15889 8.82582C1.53494 9.42561 2.04108 9.93314 2.63983 10.3108C2.67858 10.3296 2.71126 10.3589 2.73412 10.3954C2.75698 10.4319 2.76911 10.474 2.76911 10.5171C2.76911 10.5601 2.75698 10.6023 2.73412 10.6388C2.71126 10.6753 2.67858 10.7046 2.63983 10.7233L2.154 10.9158C2.095 10.9395 2.04156 10.9752 1.99709 11.0206C1.95261 11.066 1.91807 11.1202 1.89566 11.1797C1.87324 11.2391 1.86345 11.3026 1.86689 11.3661C1.87034 11.4296 1.88695 11.4916 1.91567 11.5483C2.18433 12.1362 2.59158 12.6502 3.10247 13.0461C3.61337 13.4421 4.21268 13.7082 4.849 13.8217C4.89324 13.8377 4.93147 13.867 4.95848 13.9056C4.98549 13.9441 4.99998 13.99 4.99998 14.0371C4.99998 14.0842 4.98549 14.1301 4.95848 14.1686C4.93147 14.2072 4.89324 14.2365 4.849 14.2525C3.60267 14.768 2.26516 15.0268 0.916501 15.0133C0.794943 14.989 0.668706 15.014 0.565561 15.0828C0.462416 15.1515 0.390812 15.2585 0.366501 15.38C0.342189 15.5016 0.367162 15.6278 0.435925 15.731C0.504689 15.8341 0.61161 15.9057 0.733167 15.93C3.06842 17.0376 5.61092 17.6404 8.19484 17.6992C10.4677 17.7338 12.7001 17.096 14.6115 15.8658C16.1838 14.8163 17.472 13.3941 18.3612 11.7259C19.2505 10.0577 19.7132 8.19541 19.7082 6.30501V5.50751C19.7087 5.44095 19.7238 5.37531 19.7523 5.31516C19.7808 5.255 19.822 5.20178 19.8732 5.15918L21.3765 3.90335Z" fill="#F7F7F9"/>
</svg>
