<svg width="24" height="20" viewBox="0 0 24 20" fill="none" xmlns="http://www.w3.org/2000/svg">
<path d="M23.3205 4.43957C23.3917 4.38043 23.445 4.3027 23.4746 4.21503C23.5042 4.12737 23.5089 4.03321 23.4882 3.94303C23.4675 3.85286 23.4221 3.7702 23.3572 3.70427C23.2923 3.63833 23.2104 3.5917 23.1205 3.56957L22.3305 3.36957C22.2587 3.35159 22.1918 3.31787 22.1345 3.27087C22.0773 3.22386 22.0313 3.16473 21.9997 3.09775C21.9681 3.03077 21.9518 2.95761 21.952 2.88357C21.9521 2.80952 21.9687 2.73643 22.0005 2.66957L22.4405 1.77957C22.4821 1.69333 22.498 1.59697 22.4864 1.50193C22.4748 1.4069 22.4362 1.3172 22.3751 1.24348C22.314 1.16976 22.2331 1.11513 22.1419 1.08607C22.0506 1.05701 21.953 1.05476 21.8605 1.07957L19.8605 1.63957C19.786 1.6613 19.7075 1.66539 19.6311 1.65151C19.5547 1.63762 19.4826 1.60614 19.4205 1.55957C18.5551 0.91046 17.5024 0.55957 16.4205 0.55957C15.0944 0.55957 13.8227 1.08635 12.885 2.02404C11.9473 2.96172 11.4205 4.23349 11.4205 5.55957V5.91957C11.421 5.98099 11.3988 6.04042 11.3582 6.08653C11.3176 6.13264 11.2615 6.1622 11.2005 6.16957C8.39053 6.49957 5.70053 5.06957 2.80053 1.72957C2.73753 1.66009 2.6566 1.60933 2.56662 1.58287C2.47664 1.5564 2.38111 1.55526 2.29053 1.57957C2.20893 1.61708 2.13893 1.67588 2.0879 1.74978C2.03687 1.82369 2.00669 1.90997 2.00053 1.99957C1.59999 3.64491 1.76193 5.37699 2.46053 6.91957C2.4812 6.96049 2.49022 7.0063 2.48661 7.05199C2.483 7.09769 2.4669 7.14151 2.44006 7.17868C2.41322 7.21584 2.37668 7.2449 2.33444 7.2627C2.29219 7.28049 2.24587 7.28633 2.20053 7.27957L1.08053 7.05957C1.00099 7.04678 0.919541 7.0534 0.843112 7.07887C0.766682 7.10433 0.697538 7.14789 0.641564 7.20583C0.58559 7.26376 0.544445 7.33437 0.52163 7.41163C0.498815 7.48889 0.495007 7.57052 0.510529 7.64957C0.596868 8.41702 0.854703 9.15522 1.26495 9.80954C1.67519 10.4639 2.22735 11.0175 2.88053 11.4296C2.9228 11.45 2.95844 11.482 2.98339 11.5218C3.00833 11.5616 3.02156 11.6076 3.02156 11.6546C3.02156 11.7015 3.00833 11.7476 2.98339 11.7873C2.95844 11.8271 2.9228 11.8591 2.88053 11.8796L2.35053 12.0896C2.28616 12.1154 2.22787 12.1543 2.17935 12.2038C2.13083 12.2534 2.09315 12.3125 2.0687 12.3774C2.04425 12.4423 2.03356 12.5115 2.03732 12.5808C2.04108 12.65 2.0592 12.7177 2.09053 12.7796C2.38362 13.4209 2.82789 13.9816 3.38523 14.4135C3.94257 14.8455 4.59636 15.1358 5.29053 15.2596C5.33879 15.2771 5.38049 15.309 5.40996 15.3511C5.43943 15.3931 5.45524 15.4432 5.45524 15.4946C5.45524 15.5459 5.43943 15.596 5.40996 15.6381C5.38049 15.6801 5.33879 15.7121 5.29053 15.7296C3.93089 16.2919 2.47179 16.5742 1.00053 16.5596C0.867921 16.5331 0.730208 16.5603 0.617686 16.6353C0.505164 16.7103 0.427051 16.827 0.400529 16.9596C0.374007 17.0922 0.40125 17.2299 0.476265 17.3424C0.55128 17.4549 0.667921 17.5331 0.800529 17.5596C3.34807 18.7678 6.12171 19.4254 8.94053 19.4896C11.42 19.5274 13.8553 18.8316 15.9405 17.4896C17.6558 16.3446 19.061 14.7931 20.0312 12.9732C21.0013 11.1534 21.5061 9.12182 21.5005 7.05957V6.18957C21.5011 6.11696 21.5176 6.04535 21.5486 5.97973C21.5797 5.91411 21.6247 5.85604 21.6805 5.80957L23.3205 4.43957Z" fill="#1B1657"/>
</svg>
