<svg width="223" height="162" fill="none" xmlns="http://www.w3.org/2000/svg"><path d="M70.074 129.521c-.137.019-.265.104-.377.281-.447.712.663 7.403 3.85 11.024 3.187 3.633 10.236 2.358 15.139 3.127 4.902.768 6.794 4.467 10.093 9.226 5.08 8.257 12.252 8.457 12.252 8.457s7.172-.2 12.252-8.457c3.299-4.759 5.192-8.458 10.094-9.226 4.902-.769 11.954.506 15.141-3.127 3.187-3.621 4.296-10.312 3.849-11.024-.446-.711-1.151.053-1.68.657-2.286 2.613-3.445 4.361-8.666 5.777-5.22 1.417-10.388.07-10.388.07-2.256 1.993-4.104 3.381-8.381 3.526l-12.221.039-12.22-.039c-4.278-.145-6.124-1.533-8.38-3.526 0 0-5.168 1.347-10.388-.07-5.22-1.416-6.38-3.164-8.666-5.777-.396-.453-.891-.995-1.303-.938Z" fill="url(#a)"/><path d="M20.203.027c-9.581-1.351-56.658 48.398 37.71 81.68 9.755 3.445 31.74 9.444 39.077 22.048-5.155 1.156-8.527 1.875-14.375-.214-8.532-3.048-6.464-12.087-6.287-12.155L31.23 74.22s7.772 9.16 18.678 17.166c10.906 8.007 30.389 16.235 38.271 20.883 7.883 4.635 10.088 12.406 10.088 12.406s-2.368-.45-7.607-.595c-5.24-.145-10.149-3.561-11.293-6.655-1.144-3.093-.418-7.498-.461-7.584l-11.19-4.996s.001 7.772-2.267 10.325c-2.268 2.541-12.971-4.565-15.758-6.051-.832-.443-1.67-.318-1.52.683.138.907 5.394 8.664 10.153 12.903 4.746 4.226 10.858 2.747 12.303 2.691 2.354-.091 7.307.013 12.162 2.936 5.601 3.373 6.33 5.383 8.314 7.214 1.416 1.306 3.72 3.401 7.666 3.401l12.262.105 12.262-.105c3.946 0 6.252-2.095 7.668-3.401 1.983-1.831 2.713-3.841 8.314-7.214 4.855-2.923 9.808-3.027 12.162-2.936 1.445.056 7.557 1.535 12.303-2.691 4.759-4.239 10.013-11.996 10.15-12.903.151-1.001-.685-1.126-1.517-.683-2.787 1.486-13.49 8.592-15.758 6.051-2.268-2.553-2.268-10.325-2.268-10.325l-11.189 4.996c-.043.086.683 4.491-.461 7.584-1.144 3.094-6.056 6.51-11.295 6.655-5.239.145-7.605.595-7.605.595s2.205-7.771 10.087-12.406c7.883-4.648 27.365-12.876 38.272-20.883 10.906-8.006 18.676-17.166 18.676-17.166l-45.096 17.166c.177.068 2.245 9.107-6.287 12.155-5.848 2.089-9.22 1.37-14.375.214 7.337-12.604 29.322-18.603 39.076-22.048C261.563 47.352 208.257-4.551 201.056.32c-2.119 1.438-.619 3.63-.619 3.63s7.312 12.196 1.686 23.325c-5.627 11.13-28.788 17.534-36.918 16.654-8.093-.867-11.524-3.426-11.549-3.488-2.85-3.619-6.115-10.174-11.543-6.432-6.383 4.413-13.658 3.016-19.223-3.007-5.577-6.036-11.859-8.383-11.859-8.383s-6.282 2.347-11.86 8.383c-5.564 6.023-12.84 7.42-19.222 3.007-5.428-3.742-8.69 2.813-11.541 6.432-.025.062-3.456 2.62-11.549 3.488-8.13.88-31.291-5.524-36.918-16.654-5.626-11.129 1.686-23.324 1.686-23.324s1.498-2.193-.621-3.631a1.882 1.882 0 0 0-.803-.293Zm49.013 53.61s6.384-.113 17.29 3.134C97.4 60.02 111.03 73.03 111.03 73.03s13.633-13.01 24.527-16.258c10.906-3.247 17.289-3.135 17.289-3.135s-14.501 3.135-26.56 10.67-15.256 16.819-15.256 16.819-3.197-9.284-15.256-16.819c-12.059-7.535-26.559-10.67-26.559-10.67Z" fill="url(#b)"/><path d="M18.434.23C6.126 3.813-31.55 50.155 57.914 81.707c9.754 3.445 31.74 9.445 39.076 22.048-5.154 1.157-8.526 1.875-14.374-.214-8.532-3.048-6.464-12.087-6.288-12.155L31.231 74.22s7.771 9.16 18.677 17.166c10.907 8.007 30.39 16.235 38.272 20.883 7.882 4.635 10.088 12.406 10.088 12.406s-2.368-.45-7.608-.595c-5.239-.145-10.148-3.561-11.292-6.655-1.145-3.094-.418-7.499-.461-7.586l-11.19-4.994s0 7.771-2.267 10.325c-2.269 2.541-12.971-4.565-15.758-6.051-.832-.443-1.67-.318-1.52.683.137.907 5.393 8.664 10.153 12.903 4.746 4.226 10.857 2.747 12.302 2.691 2.354-.092 7.306.012 12.16 2.936 5.602 3.373 6.333 5.383 8.317 7.214 1.415 1.306 3.72 3.401 7.666 3.401l12.172.105h.09l12.171-.105c3.946 0 6.251-2.095 7.666-3.401 1.984-1.831 2.715-3.841 8.317-7.214 4.854-2.924 9.806-3.028 12.16-2.936 1.445.056 7.558 1.535 12.305-2.691 4.759-4.239 10.013-11.996 10.15-12.903.151-1.001-.687-1.126-1.519-.683-2.787 1.486-13.49 8.592-15.758 6.051-2.268-2.554-2.268-10.325-2.268-10.325l-11.189 4.994c-.044.087.683 4.492-.461 7.586-1.144 3.094-6.054 6.51-11.293 6.655-5.239.145-7.608.595-7.608.595s2.208-7.771 10.09-12.406c7.883-4.648 27.363-12.876 38.27-20.883 10.906-8.005 18.677-17.166 18.677-17.166l-45.097 17.166c.177.068 2.244 9.107-6.287 12.155-5.849 2.089-9.221 1.371-14.375.214 7.336-12.603 29.322-18.603 39.076-22.048C253.523 50.155 215.849 3.813 203.541.23c0 0 12.481 16.237 10.574 32.127-1.849 15.89-33.283 31.897-59.632 38.37-7.43 1.827-42.266 16.833-43.483 33.773-1.217-16.94-36.08-31.946-43.51-33.774C41.142 64.254 9.71 48.247 7.86 32.357 5.953 16.467 18.434.23 18.434.23Z" fill="url(#c)"/><path d="M98.806 139.832c-.638 10.773 12.225 17.297 12.225 17.297s12.865-6.524 12.226-17.297l-12.226.039-12.225-.039Z" fill="url(#d)"/><path fill-rule="evenodd" clip-rule="evenodd" d="M94.539 120.953c-.607-1.456-3.899-7.209-11.557-9.451-.84-.246-2.196-.404-2.534 1.532-.297 1.702.27 3.93 1.313 5.28 1.908 2.468 4.083 3.58 6.755 4.09 1.141.217 2.812.569 4.226.471a3.829 3.829 0 0 0 1.549-.422c.645-.328.54-.8.248-1.5ZM92.99 101.338c-2.033-2.331-4.865-6.195-12.313-8.99-.82-.309-2.196-.404-2.534 1.532-.297 1.702.27 3.93 1.314 5.28 1.907 2.468 4.078 3.604 6.754 4.09 1.2.217 2.16.473 4.226.471.577-.001 1.163-.104 1.698-.2 2.047-.367 1.544-1.393.855-2.183ZM127.525 120.953c.607-1.456 3.899-7.209 11.557-9.451.841-.246 2.196-.404 2.534 1.532.297 1.702-.269 3.93-1.313 5.28-1.907 2.468-4.083 3.58-6.754 4.09-1.142.217-2.813.569-4.226.471a3.832 3.832 0 0 1-1.55-.422c-.645-.328-.539-.8-.248-1.5ZM129.073 101.338c2.034-2.331 4.866-6.195 12.313-8.99.821-.309 2.197-.404 2.535 1.532.297 1.702-.27 3.93-1.314 5.28-1.907 2.468-4.078 3.604-6.754 4.09-1.2.217-2.161.473-4.226.471-.577-.001-1.163-.104-1.699-.2-2.046-.367-1.543-1.393-.855-2.183Z" fill="#6E93E5"/><path d="M18.229 22.335s-.904 24.948 35.992 27.948c4.522.385 9.432-.141 13.77-4.623 6.547-6.766 5.935-8.502 10.31-6.817 4.387 1.686 10.139 3.754 16.77-2.133 6.629-5.874 10.222-7.232 15.96-7.232 5.738 0 9.333 1.358 15.963 7.233 6.631 5.886 12.382 3.818 16.77 2.132 4.374-1.685 3.763.051 10.31 6.817 4.338 4.482 9.247 5.008 13.77 4.623 36.895-3 35.99-27.948 35.99-27.948a19.416 19.416 0 0 1-1.709 4.944c-5.626 11.129-28.765 14.441-36.896 13.572-8.092-.865-8.011-3.927-10.584-8.23-2.69-4.498-7.101-4.239-12.53-.496-6.382 4.412-13.683 2.554-19.248-3.47-5.577-6.035-11.836-6.036-11.836-6.036s-6.257.001-11.834 6.037c-5.564 6.023-12.865 7.88-19.248 3.469-5.429-3.743-9.84-4.002-12.53.496-2.573 4.303-2.493 7.365-10.585 8.23-8.131.87-31.268-2.443-36.895-13.572a19.396 19.396 0 0 1-1.71-4.944Z" fill="url(#e)"/><defs><linearGradient id="a" x1="68.192" y1="146.036" x2="154.072" y2="146.036" gradientUnits="userSpaceOnUse"><stop stop-color="#3B60B2"/><stop offset=".497" stop-color="#3B60B2"/><stop offset=".499" stop-color="#4A78DF"/><stop offset="1" stop-color="#4A78DF"/></linearGradient><linearGradient id="b" x1="202.037" y1="49.094" x2="19.877" y2="49.094" gradientUnits="userSpaceOnUse"><stop stop-color="#253C70"/><stop offset=".499" stop-color="#34549C"/><stop offset=".5" stop-color="#3B60B2"/><stop offset="1" stop-color="#2C4886"/></linearGradient><linearGradient id="c" x1="184.305" y1="89.748" x2="40.983" y2="89.748" gradientUnits="userSpaceOnUse"><stop stop-color="#34549C"/><stop offset=".512" stop-color="#436CC9"/><stop offset=".512" stop-color="#4A78DF"/><stop offset="1" stop-color="#3B60B2"/></linearGradient><linearGradient id="d" x1="96.933" y1="144.58" x2="125.495" y2="144.728" gradientUnits="userSpaceOnUse"><stop stop-color="#436CC9"/><stop offset=".494" stop-color="#436CC9"/><stop offset=".494" stop-color="#4A78DF"/><stop offset="1" stop-color="#4A78DF"/></linearGradient><linearGradient id="e" x1="23.866" y1="22.619" x2="197.457" y2="22.619" gradientUnits="userSpaceOnUse"><stop stop-color="#1E3059"/><stop offset=".502" stop-color="#2C4886"/><stop offset=".502" stop-color="#253C70"/><stop offset="1" stop-color="#162443"/></linearGradient></defs></svg>