<svg width="201" height="90" viewBox="0 0 201 90" fill="none" xmlns="http://www.w3.org/2000/svg">
<path fill-rule="evenodd" clip-rule="evenodd" d="M25.8656 56.041C26.4023 56.653 26.9134 57.2359 27.3741 57.7723L27.5429 57.9688L31.2321 61.6581L32.1891 62.43L32.1954 62.4351C33.0497 63.1287 33.9787 63.9121 34.9602 64.7398L34.962 64.7414C37.3377 66.7447 40.021 69.0075 42.6988 70.886L42.6999 70.8868C80.2955 97.2491 130.808 94.8445 165.561 64.974L165.562 64.9731C182.251 50.6222 193.046 32.5622 198.075 11.2101L198.076 11.209C198.21 10.6396 198.345 9.9935 198.456 9.46147C198.501 9.24734 198.542 9.05168 198.577 8.88695L200.351 0.647728L167.608 0.534387L166.216 5.56183C161.242 23.5376 150.825 37.7101 135.013 47.2649C109.58 62.6253 76.3053 59.1915 54.4275 39.0098L54.426 39.0084C44.5449 29.8867 37.3922 18.4574 33.9332 5.62979L32.5896 0.647203L27.4295 0.577715C25.5654 0.552613 23.6824 0.553703 21.8563 0.554782L21.8561 0.554773C21.2258 0.555145 20.6024 0.555505 19.9888 0.554786L0.311966 0.533085L2.02603 8.76597C5.31349 24.5561 12.0549 39.1302 22.2023 51.7445L22.2038 51.7464C23.3692 53.1941 24.6787 54.6874 25.8639 56.039L25.8656 56.041ZM191.899 7.44975C191.847 7.6936 191.796 7.93607 191.745 8.17733L191.745 8.17759C191.642 8.67094 191.54 9.15921 191.426 9.64376" fill="#FED670"/>
</svg>
