<svg width="16" height="16" viewBox="0 0 16 16" fill="none" xmlns="http://www.w3.org/2000/svg">
<path d="M15.1466 6.90011L13.9199 5.91345C13.8216 5.83494 13.7453 5.73222 13.6985 5.61535C13.6518 5.49849 13.6362 5.37148 13.6533 5.24678L13.8199 3.68678C13.8431 3.47949 13.8194 3.26965 13.7506 3.07274C13.6819 2.87583 13.5698 2.69687 13.4226 2.54907C13.2754 2.40127 13.097 2.28839 12.9003 2.21876C12.7037 2.14913 12.494 2.12453 12.2866 2.14678L10.7199 2.31345C10.5952 2.33054 10.4682 2.31495 10.3514 2.26821C10.2345 2.22146 10.1318 2.14516 10.0533 2.04678L9.08661 0.840113C8.95144 0.684655 8.78449 0.560008 8.59702 0.47459C8.40956 0.389172 8.20595 0.344971 7.99995 0.344971C7.79394 0.344971 7.59033 0.389172 7.40287 0.47459C7.2154 0.560008 7.04845 0.684655 6.91328 0.840113L5.92661 2.06678C5.8481 2.16516 5.74538 2.24146 5.62852 2.28821C5.51165 2.33495 5.38465 2.35054 5.25995 2.33345L3.71328 2.16678C3.50589 2.14453 3.29616 2.16913 3.09955 2.23876C2.90294 2.30839 2.72447 2.42127 2.5773 2.56907C2.43014 2.71687 2.31804 2.89583 2.24926 3.09274C2.18049 3.28965 2.1568 3.49949 2.17995 3.70678L2.34661 5.26678C2.36371 5.39148 2.34812 5.51849 2.30137 5.63535C2.25463 5.75222 2.17833 5.85494 2.07995 5.93345L0.853279 6.90011C0.690594 7.03067 0.5593 7.1961 0.469084 7.38417C0.378867 7.57225 0.332031 7.77818 0.332031 7.98678C0.332031 8.19538 0.378867 8.40131 0.469084 8.58939C0.5593 8.77747 0.690594 8.94289 0.853279 9.07345L2.07995 10.0601C2.17782 10.1391 2.25375 10.2418 2.30045 10.3586C2.34715 10.4753 2.36305 10.6021 2.34661 10.7268L2.17995 12.2934C2.15684 12.5003 2.18082 12.7097 2.25009 12.9059C2.31936 13.1022 2.43212 13.2803 2.57995 13.4268C2.72435 13.5775 2.90214 13.6922 3.09899 13.7617C3.29583 13.8312 3.50625 13.8535 3.71328 13.8268L5.27995 13.6601C5.40465 13.643 5.53165 13.6586 5.64852 13.7054C5.76538 13.7521 5.8681 13.8284 5.94661 13.9268L6.93328 15.1534C7.06384 15.3161 7.22926 15.4474 7.41734 15.5376C7.60542 15.6279 7.81135 15.6747 8.01995 15.6747C8.22854 15.6747 8.43447 15.6279 8.62255 15.5376C8.81063 15.4474 8.97605 15.3161 9.10661 15.1534L10.0933 13.9268C10.1718 13.8284 10.2745 13.7521 10.3914 13.7054C10.5082 13.6586 10.6352 13.643 10.7599 13.6601L12.3266 13.8268C12.5336 13.8535 12.7441 13.8312 12.9409 13.7617C13.1378 13.6922 13.3155 13.5775 13.4599 13.4268C13.6078 13.2803 13.7205 13.1022 13.7898 12.9059C13.8591 12.7097 13.8831 12.5003 13.8599 12.2934L13.6933 10.7268C13.6768 10.6021 13.6927 10.4753 13.7394 10.3586C13.7861 10.2418 13.8621 10.1391 13.9599 10.0601L15.1866 9.07345C15.3493 8.94289 15.4806 8.77747 15.5708 8.58939C15.661 8.40131 15.7079 8.19538 15.7079 7.98678C15.7079 7.77818 15.661 7.57225 15.5708 7.38417C15.4806 7.1961 15.3493 7.03067 15.1866 6.90011H15.1466ZM8.26661 10.0334C8.16388 10.1671 8.03399 10.2776 7.88549 10.3574C7.73698 10.4372 7.57325 10.4847 7.40507 10.4967C7.23689 10.5086 7.06808 10.4848 6.90977 10.4268C6.75146 10.3688 6.60724 10.2779 6.48661 10.1601L4.85995 8.53345C4.79779 8.47129 4.74848 8.39749 4.71484 8.31628C4.6812 8.23507 4.66388 8.14802 4.66388 8.06011C4.66388 7.97221 4.6812 7.88516 4.71484 7.80395C4.74848 7.72273 4.79779 7.64894 4.85995 7.58678C4.9221 7.52462 4.9959 7.47531 5.07711 7.44167C5.15833 7.40803 5.24537 7.39072 5.33328 7.39072C5.42119 7.39072 5.50823 7.40803 5.58945 7.44167C5.67066 7.47531 5.74445 7.52462 5.80661 7.58678L7.33328 9.08678L9.93995 5.61345C10.046 5.472 10.204 5.37849 10.379 5.35348C10.4657 5.3411 10.5539 5.34591 10.6387 5.36764C10.7235 5.38937 10.8032 5.42759 10.8733 5.48011C10.9433 5.53264 11.0023 5.59845 11.0469 5.67378C11.0915 5.74912 11.1209 5.8325 11.1332 5.91917C11.1456 6.00583 11.1408 6.09409 11.1191 6.1789C11.0974 6.26371 11.0591 6.34341 11.0066 6.41345L8.26661 10.0334Z" fill="white"/>
</svg>
