<svg width="88" height="88" viewBox="0 0 88 88" fill="none" xmlns="http://www.w3.org/2000/svg">
<g clip-path="url(#clip0_3948_114995)">
<path d="M43.6508 0C35.0175 0 26.5781 2.58055 19.3997 7.41534C12.2214 12.2501 6.62657 19.122 3.32274 27.1619C0.0189133 35.2019 -0.845518 44.0488 0.838758 52.584C2.52303 61.1191 6.68037 68.9592 12.785 75.1127C18.8897 81.2662 26.6676 85.4568 35.135 87.1545C43.6024 88.8523 52.3791 87.9809 60.3553 84.6507C68.3314 81.3204 75.1487 75.6809 79.9452 68.4451C84.7416 61.2093 87.3016 52.7024 87.3016 44C87.3016 32.3305 82.7027 21.1389 74.5166 12.8873C66.3305 4.6357 55.2277 0 43.6508 0V0ZM43.6508 78.5767C36.8665 78.5767 30.2345 76.5488 24.5935 72.7495C18.9525 68.9501 14.5559 63.55 11.9597 57.2319C9.36342 50.9139 8.68412 43.9616 10.0077 37.2544C11.3312 30.5472 14.5982 24.3862 19.3955 19.5506C24.1927 14.715 30.3048 11.4219 36.9588 10.0877C43.6128 8.75356 50.5098 9.4383 56.7777 12.0553C63.0457 14.6724 68.4029 19.1041 72.1721 24.7902C75.9413 30.4763 77.9531 37.1614 77.9531 44C77.9435 53.1673 74.3264 61.9564 67.8956 68.4387C61.4647 74.9209 52.7454 78.567 43.6508 78.5767Z" fill="white"/>
<path d="M60.42 39.27L38.8492 28.27C37.996 27.7682 37.0223 27.5127 36.0346 27.5315C35.047 27.5502 34.0835 27.8425 33.2497 28.3764C32.4159 28.9102 31.7438 29.665 31.3071 30.5581C30.8704 31.4513 30.6859 32.4483 30.7738 33.44V54.56C30.7397 55.5312 30.9565 56.4946 31.4028 57.3559C31.8492 58.2172 32.5099 58.9468 33.3201 59.4734C34.1429 60.0105 35.1045 60.2911 36.0846 60.28C37.0485 60.2763 37.997 60.0373 38.8492 59.5834L60.42 48.5834C61.3569 48.2044 62.1598 47.5513 62.7253 46.7083C63.2908 45.8653 63.593 44.871 63.593 43.8534C63.593 42.8357 63.2908 41.8414 62.7253 40.9984C62.1598 40.1554 61.3569 39.5024 60.42 39.1234V39.27Z" fill="white"/>
</g>
<defs>
<clipPath id="clip0_3948_114995">
<rect width="87.3016" height="88" fill="white"/>
</clipPath>
</defs>
</svg>
