<svg width="32" height="32" viewBox="0 0 32 32" fill="none" xmlns="http://www.w3.org/2000/svg">
<path d="M26 9H6C4.34315 9 3 10.3431 3 12V24C3 25.6569 4.34315 27 6 27H26C27.6569 27 29 25.6569 29 24V12C29 10.3431 27.6569 9 26 9Z" stroke="#030823" stroke-width="2" stroke-linejoin="round"/>
<path d="M25.71 9.00094V7.12594C25.7099 6.66607 25.6082 6.2119 25.4123 5.79584C25.2164 5.37977 24.9311 5.01207 24.5768 4.71896C24.2224 4.42585 23.8077 4.21457 23.3623 4.10018C22.9169 3.98578 22.4517 3.97111 22 4.0572L5.54 6.86657C4.8252 7.00279 4.18035 7.38418 3.71665 7.94497C3.25296 8.50575 2.99951 9.21078 3 9.93844V13.0009" stroke="#030823" stroke-width="2" stroke-linejoin="round"/>
<path d="M23 20C22.6044 20 22.2177 19.8827 21.8889 19.6629C21.56 19.4432 21.3036 19.1308 21.1522 18.7654C21.0009 18.3999 20.9613 17.9978 21.0384 17.6098C21.1156 17.2219 21.3061 16.8655 21.5858 16.5858C21.8655 16.3061 22.2218 16.1156 22.6098 16.0384C22.9978 15.9613 23.3999 16.0009 23.7653 16.1522C24.1308 16.3036 24.4432 16.56 24.6629 16.8889C24.8827 17.2178 25 17.6044 25 18C25 18.5304 24.7893 19.0391 24.4142 19.4142C24.0391 19.7893 23.5304 20 23 20Z" fill="#030823"/>
</svg>
