<svg width="32" height="32" viewBox="0 0 32 32" fill="none" xmlns="http://www.w3.org/2000/svg">
<path d="M28 16C28 16.5523 28.4477 17 29 17C29.5523 17 30 16.5523 30 16H28ZM16 28C16.5523 28 17 27.5523 17 27C17 26.4477 16.5523 26 16 26V28ZM30.0405 20.7071C30.431 20.3166 30.431 19.6834 30.0405 19.2929C29.6499 18.9024 29.0168 18.9024 28.6262 19.2929L30.0405 20.7071ZM22 27.3333L21.2929 28.0404C21.6834 28.431 22.3166 28.431 22.7071 28.0404L22 27.3333ZM19.3738 23.2929C18.9833 22.9024 18.3501 22.9024 17.9596 23.2929C17.5691 23.6834 17.5691 24.3166 17.9596 24.7071L19.3738 23.2929ZM6 10H26V8H6V10ZM26 10C27.1046 10 28 10.8954 28 12H30C30 9.79086 28.2091 8 26 8V10ZM28 12V16H30V12H28ZM16 26H6V28H16V26ZM6 26C4.89543 26 4 25.1046 4 24H2C2 26.2091 3.79086 28 6 28V26ZM4 24V12H2V24H4ZM4 12C4 10.8954 4.89543 10 6 10V8C3.79086 8 2 9.79086 2 12H4ZM28.6262 19.2929L21.2929 26.6262L22.7071 28.0404L30.0405 20.7071L28.6262 19.2929ZM22.7071 26.6262L19.3738 23.2929L17.9596 24.7071L21.2929 28.0404L22.7071 26.6262Z" fill="#030823"/>
<path d="M25.71 8.99996V7.12497C25.7099 6.6651 25.6082 6.21093 25.4123 5.79486C25.2164 5.3788 24.9311 5.01109 24.5768 4.71798C24.2224 4.42488 23.8077 4.21359 23.3623 4.0992C22.9169 3.98481 22.4517 3.97013 22 4.05622L5.54 6.86559C4.8252 7.00181 4.18035 7.3832 3.71665 7.94399C3.25296 8.50478 2.99951 9.2098 3 9.93746V13" stroke="#030823" stroke-width="2" stroke-linejoin="round"/>
<line x1="8.5" y1="14.5" x2="23.5" y2="14.5" stroke="black" stroke-linecap="round"/>
<line x1="8.5" y1="17.5" x2="23.5" y2="17.5" stroke="black" stroke-linecap="round"/>
<line x1="8.5" y1="20.5" x2="15.5" y2="20.5" stroke="black" stroke-linecap="round"/>
</svg>
