<svg width="16" height="17" viewBox="0 0 16 17" fill="none" xmlns="http://www.w3.org/2000/svg">
<path d="M13 5H3C2.17157 5 1.5 5.67157 1.5 6.5V12.5C1.5 13.3284 2.17157 14 3 14H13C13.8284 14 14.5 13.3284 14.5 12.5V6.5C14.5 5.67157 13.8284 5 13 5Z" stroke="#BBC3D5" stroke-linejoin="round"/>
<path d="M12.855 4.99998V4.06248C12.8549 3.83255 12.8041 3.60546 12.7062 3.39743C12.6082 3.1894 12.4656 3.00555 12.2884 2.85899C12.1112 2.71244 11.9039 2.60679 11.6812 2.5496C11.4585 2.4924 11.2259 2.48507 11 2.52811L2.77 3.9328C2.4126 4.0009 2.09017 4.1916 1.85833 4.47199C1.62648 4.75239 1.49975 5.1049 1.5 5.46873V6.99998" stroke="#BBC3D5" stroke-linejoin="round"/>
<path d="M11.5 10.5C11.3022 10.5 11.1089 10.4414 10.9444 10.3315C10.78 10.2216 10.6518 10.0654 10.5761 9.88268C10.5004 9.69996 10.4806 9.49889 10.5192 9.30491C10.5578 9.11093 10.653 8.93275 10.7929 8.79289C10.9327 8.65304 11.1109 8.5578 11.3049 8.51922C11.4989 8.48063 11.6999 8.50043 11.8827 8.57612C12.0654 8.65181 12.2216 8.77998 12.3315 8.94443C12.4413 9.10888 12.5 9.30222 12.5 9.5C12.5 9.76522 12.3946 10.0196 12.2071 10.2071C12.0196 10.3946 11.7652 10.5 11.5 10.5Z" fill="#BBC3D5"/>
</svg>
