<svg width="14" height="13" viewBox="0 0 14 13" fill="none" xmlns="http://www.w3.org/2000/svg">
<path d="M13.8591 10.8919L8.09312 1.08857C7.98862 0.911035 7.83155 0.762339 7.63892 0.658592C7.44629 0.554844 7.22544 0.5 7.00031 0.5C6.77517 0.5 6.55433 0.554844 6.3617 0.658592C6.16907 0.762339 6.012 0.911035 5.9075 1.08857L0.140853 10.8919C0.0423496 11.0593 -0.00596297 11.2466 0.000587593 11.4355C0.00713816 11.6244 0.0683302 11.8086 0.178246 11.9703C0.288162 12.132 0.443083 12.2657 0.628027 12.3585C0.812972 12.4513 1.02168 12.5 1.23397 12.5H12.766C12.9783 12.5 13.187 12.4513 13.372 12.3585C13.5569 12.2657 13.7118 12.132 13.8218 11.9703C13.9317 11.8086 13.9929 11.6244 13.9994 11.4355C14.006 11.2466 13.9577 11.0593 13.8591 10.8919ZM6.38311 4.53375C6.38311 4.38809 6.44811 4.2484 6.5638 4.1454C6.67948 4.0424 6.83639 3.98454 7 3.98454C7.16361 3.98454 7.32052 4.0424 7.4362 4.1454C7.55189 4.2484 7.61689 4.38809 7.61689 4.53375V7.82899C7.61689 7.97465 7.55189 8.11434 7.4362 8.21734C7.32052 8.32034 7.16361 8.3782 7 8.3782C6.83639 8.3782 6.67948 8.32034 6.5638 8.21734C6.44811 8.11434 6.38311 7.97465 6.38311 7.82899V4.53375ZM7.03084 10.8551H7.01357C6.7703 10.8544 6.53674 10.77 6.36176 10.6196C6.18677 10.4691 6.08391 10.2642 6.07467 10.0478C6.07023 9.94015 6.08992 9.8328 6.1326 9.73201C6.17529 9.63123 6.2401 9.53902 6.32327 9.46079C6.40643 9.38256 6.50627 9.31986 6.61696 9.27638C6.72764 9.23289 6.84696 9.20947 6.96792 9.2075H6.98519C7.22842 9.20776 7.46211 9.29177 7.63734 9.44194C7.81258 9.59212 7.91577 9.79681 7.92533 10.0132C7.93011 10.1211 7.91062 10.2287 7.86801 10.3298C7.82539 10.4309 7.76051 10.5234 7.67718 10.6018C7.59384 10.6802 7.49373 10.7431 7.38274 10.7866C7.27175 10.8301 7.1521 10.8534 7.03084 10.8551Z" fill="#EA960D"/>
</svg>
