<svg width="147" height="31" viewBox="0 0 147 31" fill="none" xmlns="http://www.w3.org/2000/svg">
<path fill-rule="evenodd" clip-rule="evenodd" d="M141.072 15.1158L140.838 15.9731C140.349 17.9113 139.372 19.6886 138.001 21.1318C136.631 22.575 134.914 23.6349 133.017 24.2082C131.121 24.7815 129.11 24.8487 127.181 24.4033C125.251 23.9579 123.469 23.0151 122.007 21.6666C120.346 20.1399 119.149 18.1682 118.554 15.9808L118.337 15.1592H118.351L118.063 13.7584C117.523 11.0809 116.357 8.57265 114.664 6.44247C114.468 6.19461 114.247 5.94233 114.047 5.71096L113.793 5.41585L113.764 5.3823L113.143 4.75303L112.98 4.62228C112.837 4.50303 112.68 4.36943 112.514 4.22929C112.114 3.88856 111.662 3.50281 111.209 3.18516C108.14 1.00218 104.439 -0.0842702 100.691 0.0977854C96.9422 0.279841 93.3609 1.72 90.5135 4.19032C87.756 6.56104 85.8341 9.77191 85.0363 13.3407C85.014 13.4385 84.9912 13.5484 84.9721 13.6385C84.9645 13.677 84.9574 13.71 84.952 13.7364L84.6529 15.1394H84.7073L84.48 15.9703C83.9912 17.9087 83.014 19.6861 81.6436 21.1294C80.2731 22.5727 78.5561 23.6326 76.6599 24.2059C74.7636 24.7792 72.7527 24.8465 70.8231 24.401C68.8935 23.9555 67.1109 23.0125 65.6491 21.6639C63.9898 20.1376 62.793 18.167 62.1976 15.9808L61.9714 15.1328H61.8969L61.6141 13.7589C61.0736 11.0816 59.9083 8.57346 58.2153 6.443C58.019 6.19515 57.7988 5.94286 57.5986 5.7115L57.3447 5.41638L57.3164 5.38284L56.6948 4.75364L56.5317 4.62282C56.3876 4.50356 56.2315 4.37004 56.0662 4.2299C55.666 3.88916 55.2141 3.50335 54.7611 3.1857C51.6923 1.00277 47.9908 -0.083665 44.2423 0.0983892C40.4939 0.280443 36.9125 1.72058 34.065 4.19085C31.3075 6.56158 29.3856 9.77245 28.5878 13.3412C28.5655 13.439 28.5426 13.5489 28.5236 13.6391C28.516 13.6775 28.5095 13.7105 28.5035 13.7369L28.2104 15.1141H28.1805L27.9455 15.9715C27.4569 17.9098 26.4798 19.6872 25.1094 21.1305C23.7389 22.5738 22.022 23.6338 20.1258 24.2071C18.2295 24.7805 16.2186 24.8476 14.2891 24.4021C12.3595 23.9566 10.577 23.0136 9.11522 21.665C7.45599 20.1383 6.25934 18.1673 5.66424 15.9808L5.43804 15.1328L4.56793 15.1213C4.25362 15.1185 3.93658 15.1185 3.62879 15.1185H3.31447L0 15.1141L0.288763 16.5171C0.829487 19.1944 1.9947 21.7025 3.68754 23.833C3.88385 24.0781 4.10462 24.3332 4.3042 24.5645C4.39501 24.669 4.48094 24.7668 4.55871 24.8574L4.58699 24.8932L5.20856 25.5197L5.37169 25.6505V25.6532C5.5158 25.7697 5.67241 25.9033 5.83773 26.044C6.23797 26.3869 6.68988 26.7705 7.14287 27.092C10.2119 29.2746 13.9134 30.3605 17.6618 30.178C21.4102 29.9954 24.9913 28.5548 27.8384 26.0841C30.5963 23.7129 32.5181 20.5011 33.3151 16.9315C33.3379 16.8337 33.3607 16.7244 33.3792 16.6337L33.3999 16.5359L33.693 15.1619H33.7229L33.9573 14.3068C34.446 12.3684 35.4232 10.5911 36.7937 9.14779C38.1641 7.70452 39.8812 6.64455 41.7774 6.07121C43.6737 5.49787 45.6846 5.43071 47.6142 5.87619C49.5438 6.32168 51.3263 7.26463 52.7881 8.61324C54.4473 10.1391 55.6443 12.1091 56.2402 14.2947L56.4664 15.1427H56.5409L56.8243 16.5166C57.365 19.1937 58.53 21.7018 60.2225 23.8325C60.4188 24.0776 60.6391 24.3326 60.8392 24.564C60.9295 24.6684 61.0159 24.7662 61.0931 24.8569L61.1219 24.8926L61.743 25.5191L61.9061 25.6499V25.6527C62.0502 25.7692 62.2063 25.9028 62.3722 26.0435C62.7724 26.3864 63.2243 26.77 63.6773 27.0915C66.7463 29.274 70.4479 30.3599 74.1963 30.1773C77.9446 29.9948 81.5257 28.5542 84.3728 26.0836C87.131 23.7126 89.0531 20.5007 89.85 16.931C89.8729 16.8332 89.8957 16.7238 89.9142 16.6331C89.9218 16.5974 89.9283 16.5639 89.9349 16.5353L90.2334 15.1323H90.179L90.4063 14.3035C90.8951 12.3651 91.8723 10.5878 93.2427 9.1445C94.6132 7.70123 96.3302 6.64127 98.2265 6.06792C100.123 5.49458 102.134 5.42735 104.063 5.87284C105.993 6.31832 107.775 7.26134 109.237 8.60996C110.897 10.1354 112.094 12.1056 112.689 14.2914L112.907 15.1158H112.892L113.18 16.5188C113.721 19.196 114.886 21.704 116.579 23.8347C116.775 24.0798 116.996 24.3348 117.196 24.5662C117.286 24.6706 117.372 24.7684 117.45 24.8591L117.478 24.8948L118.1 25.5213L118.263 25.6521V25.6549C118.407 25.7714 118.563 25.9049 118.729 26.0456C119.129 26.3885 119.581 26.7721 120.034 27.0936C123.103 29.2762 126.805 30.3621 130.553 30.1796C134.302 29.997 137.883 28.5564 140.73 26.0857C143.488 23.7144 145.41 20.5028 146.207 16.9332C146.229 16.8354 146.252 16.726 146.271 16.6353L146.291 16.5375L146.59 15.1344L141.072 15.1158ZM1.70155 17.4432C1.69339 17.4135 1.68634 17.3839 1.67818 17.3542C1.69776 17.4262 1.71786 17.4987 1.73852 17.5701C1.72384 17.5278 1.71079 17.4855 1.69882 17.4432H1.70155ZM5.15037 23.7726C4.96004 23.5528 4.76969 23.3329 4.58752 23.106C4.76915 23.3318 4.96004 23.5533 5.15037 23.7726ZM7.20866 25.6845C7.01452 25.5263 6.8231 25.3631 6.63223 25.1998C6.82365 25.3647 7.01289 25.5263 7.20866 25.6845C7.40443 25.8428 7.60073 25.9967 7.80683 26.1407C7.59801 25.9967 7.40062 25.8428 7.20594 25.6845H7.20866ZM60.49 13.9985C60.4857 13.977 60.4803 13.9556 60.4759 13.9347C60.4759 13.9556 60.483 13.977 60.4873 13.9985H60.49ZM60.2078 12.8334C60.2187 12.8724 60.2279 12.912 60.2383 12.951C60.2116 12.8532 60.1839 12.7559 60.1567 12.6592C60.1708 12.7175 60.1888 12.7751 60.204 12.8334H60.2078ZM56.7585 6.5062C56.9493 6.72603 57.1391 6.94586 57.3213 7.17284C57.1402 6.94421 56.9493 6.72493 56.7585 6.5062ZM58.2349 17.4427C58.2268 17.4135 58.2197 17.3838 58.2115 17.3547C58.2311 17.4256 58.2507 17.4965 58.2713 17.5668C58.2566 17.5256 58.2463 17.4844 58.2322 17.4432L58.2349 17.4427ZM101.529 1.24073C99.9482 1.2383 98.3763 1.47698 96.8662 1.94863C99.1612 1.23188 101.588 1.05648 103.961 1.43595C106.333 1.81542 108.588 2.73961 110.552 4.13752C107.909 2.25925 104.757 1.24818 101.526 1.24134L101.529 1.24073ZM116.655 12.8328C116.666 12.868 116.674 12.9037 116.683 12.9389C116.659 12.851 116.635 12.7636 116.61 12.6763C116.622 12.729 116.638 12.7806 116.651 12.8334L116.655 12.8328ZM113.769 7.1723C113.588 6.94368 113.397 6.72439 113.206 6.50566C113.394 6.72494 113.586 6.94368 113.769 7.1723ZM114.591 17.4427C114.583 17.413 114.576 17.3822 114.568 17.3525C114.588 17.4261 114.608 17.4993 114.63 17.5723C114.614 17.5295 114.601 17.4866 114.589 17.4432L114.591 17.4427ZM117.477 23.1032C117.659 23.3291 117.85 23.5506 118.041 23.7698C117.847 23.5533 117.656 23.3318 117.475 23.106L117.477 23.1032ZM122.159 27.0602C124.019 28.0956 126.068 28.7397 128.181 28.9539C126.067 28.7411 124.018 28.098 122.156 27.0634L122.159 27.0602ZM129.621 29.0326C132.401 29.0572 135.137 28.3344 137.549 26.9381C135.137 28.3361 132.399 29.0601 129.618 29.0358L129.621 29.0326Z" fill="#FFCD7A"/>
</svg>
