<svg width="24" height="16" viewBox="0 0 24 16" fill="none" xmlns="http://www.w3.org/2000/svg">
<path d="M23 0H20C19.7348 0 19.4804 0.105357 19.2929 0.292893C19.1054 0.48043 19 0.734783 19 1C19 1.26522 19.1054 1.51957 19.2929 1.70711C19.4804 1.89464 19.7348 2 20 2H20.26L15.11 12.63L13 7.76L16 2H16.53C16.7952 2 17.0496 1.89464 17.2371 1.70711C17.4246 1.51957 17.53 1.26522 17.53 1C17.53 0.734783 17.4246 0.48043 17.2371 0.292893C17.0496 0.105357 16.7952 0 16.53 0H13.53C13.2648 0 13.0104 0.105357 12.8229 0.292893C12.6354 0.48043 12.53 0.734783 12.53 1C12.53 1.26522 12.6354 1.51957 12.8229 1.70711C13.0104 1.89464 13.2648 2 13.53 2H13.74L11.93 5.41L10.42 2H10.5C10.7652 2 11.0196 1.89464 11.2071 1.70711C11.3946 1.51957 11.5 1.26522 11.5 1C11.5 0.734783 11.3946 0.48043 11.2071 0.292893C11.0196 0.105357 10.7652 0 10.5 0H7.5C7.23478 0 6.98043 0.105357 6.79289 0.292893C6.60536 0.48043 6.5 0.734783 6.5 1C6.5 1.26522 6.60536 1.51957 6.79289 1.70711C6.98043 1.89464 7.23478 2 7.5 2H8.24L10.75 7.7L8.18 12.63L3.88 2H4.5C4.76522 2 5.01957 1.89464 5.20711 1.70711C5.39464 1.51957 5.5 1.26522 5.5 1C5.5 0.734783 5.39464 0.48043 5.20711 0.292893C5.01957 0.105357 4.76522 0 4.5 0H1C0.734784 0 0.48043 0.105357 0.292893 0.292893C0.105357 0.48043 0 0.734783 0 1C0 1.26522 0.105357 1.51957 0.292893 1.70711C0.48043 1.89464 0.734784 2 1 2H1.72L7.14 15.39C7.2123 15.5617 7.33112 15.7098 7.48307 15.8176C7.63502 15.9253 7.81406 15.9885 8 16C8.18363 16.0004 8.36382 15.9502 8.52081 15.8549C8.6778 15.7597 8.80553 15.623 8.89 15.46L11.78 10L14.15 15.38C14.2267 15.5558 14.3523 15.7058 14.5119 15.8122C14.6714 15.9186 14.8582 15.9768 15.05 15.98C15.2374 15.9804 15.4212 15.9281 15.5803 15.8291C15.7394 15.73 15.8675 15.5883 15.95 15.42L22.49 2H23C23.2652 2 23.5196 1.89464 23.7071 1.70711C23.8946 1.51957 24 1.26522 24 1C24 0.734783 23.8946 0.48043 23.7071 0.292893C23.5196 0.105357 23.2652 0 23 0Z" fill="#1B1657"/>
</svg>
