<svg width="241" height="362" viewBox="0 0 241 362" fill="none" xmlns="http://www.w3.org/2000/svg">
<path d="M83.6507 188.579C80.8027 193.499 76.2245 197.186 70.8067 198.921C65.389 200.656 59.5189 200.315 54.3383 197.966C49.1578 195.617 45.0368 191.427 42.7774 186.211C40.5179 180.994 40.2814 175.124 42.1137 169.743C43.9459 164.362 47.7159 159.854 52.6906 157.097C57.6653 154.339 63.4889 153.528 69.0288 154.822C74.5686 156.116 79.4289 159.423 82.6639 164.099C85.8988 168.774 87.2773 174.485 86.5313 180.12C86.1389 183.102 85.1599 185.976 83.6507 188.579Z" fill="#E1458D"/>
<path d="M-28.119 0C-25.8193 0.157906 -23.5077 0.217029 -21.2238 0.497313C-9.68494 1.67528 1.4622 5.33254 11.4535 11.2184C21.4448 17.1044 30.0435 25.0794 36.6601 34.597C47.1351 49.0088 52.4066 66.544 51.6125 84.3369C51.0966 104.757 42.8189 124.216 28.4611 138.76C28.336 138.827 28.196 138.862 28.054 138.862C27.912 138.862 27.7721 138.827 27.6469 138.76C8.6143 119.774 -10.3983 100.774 -29.3914 81.7597C-29.8028 81.309 -30.041 80.727 -30.0633 80.1175C-30.095 53.4102 -30.104 26.7058 -30.0908 0.00385514L-28.119 0Z" fill="#FED670"/>
<path d="M-121 92.7882C-120.842 95.0858 -120.783 97.3956 -120.502 99.6773C-119.323 111.205 -115.662 122.341 -109.77 132.323C-103.879 142.304 -95.8964 150.896 -86.3702 157.506C-71.9444 167.971 -54.3922 173.237 -36.5825 172.444C-16.1426 171.929 3.33449 163.659 17.8917 149.315C17.9588 149.19 17.994 149.05 17.994 148.908C17.994 148.767 17.9588 148.627 17.8917 148.502C-1.11195 129.484 -20.13 110.489 -39.1626 91.517C-39.6141 91.1066 -40.1964 90.8692 -40.8064 90.8462C-67.539 90.8146 -94.2688 90.8051 -120.996 90.8182L-121 92.7882Z" fill="#FED670"/>
<path d="M148.114 362C145.818 361.838 143.503 361.783 141.219 361.502C129.681 360.323 118.535 356.664 108.545 350.778C98.5542 344.893 89.9554 336.918 83.3384 327.402C72.8621 312.99 67.5897 295.455 68.3827 277.662C68.8984 257.242 77.1762 237.784 91.534 223.243C91.6585 223.174 91.7982 223.138 91.9406 223.138C92.0831 223.138 92.2233 223.174 92.3477 223.243C111.383 242.223 130.396 261.224 149.387 280.244C149.8 280.692 150.038 281.272 150.058 281.881C150.095 308.586 150.104 335.291 150.086 361.996L148.114 362Z" fill="#FED670"/>
<path d="M241 269.212C240.838 266.914 240.783 264.601 240.503 262.324C239.322 250.796 235.661 239.66 229.769 229.678C223.878 219.697 215.896 211.105 206.37 204.494C191.944 194.029 174.392 188.762 156.582 189.552C136.144 190.069 116.669 198.339 102.112 212.682C102.043 212.806 102.007 212.945 102.007 213.088C102.007 213.23 102.043 213.37 102.112 213.494C121.111 232.512 140.129 251.507 159.167 270.479C159.614 270.893 160.197 271.131 160.807 271.15C187.539 271.187 214.269 271.198 240.996 271.182L241 269.212Z" fill="#FED670"/>
<path d="M148.114 0C145.819 0.157906 143.503 0.217029 141.219 0.497313C129.681 1.67506 118.534 5.33153 108.543 11.2175C98.5528 17.1034 89.9544 25.0794 83.3387 34.597C72.8609 49.0076 67.5884 66.5433 68.383 84.3369C68.8989 104.757 77.1766 124.216 91.5343 138.76C91.6595 138.827 91.7989 138.862 91.9409 138.862C92.083 138.862 92.2229 138.827 92.348 138.76C111.383 119.774 130.396 100.774 149.387 81.7597C149.801 81.3109 150.039 80.7278 150.058 80.1175C150.095 53.4102 150.105 26.7058 150.086 0.00385514L148.114 0Z" fill="#FED670"/>
<path d="M241.001 92.7882C240.839 95.0858 240.784 97.3956 240.503 99.6773C239.322 111.205 235.66 122.34 229.769 132.322C223.877 142.303 215.896 150.894 206.371 157.506C191.944 167.969 174.392 173.235 156.583 172.444C136.144 171.929 116.669 163.659 102.113 149.315C102.044 149.191 102.008 149.051 102.008 148.908C102.008 148.766 102.044 148.626 102.113 148.502C121.111 129.484 140.129 110.489 159.167 91.517C159.617 91.106 160.198 90.8685 160.807 90.8462C187.54 90.8146 214.27 90.8051 240.997 90.8182L241.001 92.7882Z" fill="#FED670"/>
<path d="M-28.119 362C-25.8193 361.838 -23.5077 361.783 -21.2238 361.502C-9.68549 360.322 1.46105 356.664 11.452 350.778C21.443 344.893 30.042 336.918 36.6601 327.402C47.134 312.989 52.4054 295.455 51.6125 277.662C51.0968 257.242 42.819 237.784 28.4611 223.243C28.3367 223.174 28.1965 223.138 28.054 223.138C27.9116 223.138 27.7714 223.174 27.6469 223.243C8.6143 242.223 -10.3983 261.224 -29.3914 280.244C-29.8019 280.694 -30.04 281.273 -30.0633 281.881C-30.095 308.586 -30.104 335.291 -30.0908 361.996L-28.119 362Z" fill="#FED670"/>
<path d="M-121 269.212C-120.842 266.915 -120.783 264.602 -120.502 262.324C-119.323 250.796 -115.662 239.659 -109.771 229.678C-103.879 219.696 -95.8967 211.104 -86.3702 204.494C-71.9449 194.028 -54.3927 188.761 -36.5825 189.552C-16.143 190.07 3.33336 198.34 17.8917 212.682C17.9588 212.807 17.994 212.946 17.994 213.088C17.994 213.23 17.9588 213.37 17.8917 213.495C-1.11195 232.512 -20.13 251.507 -39.1626 270.479C-39.6123 270.893 -40.1957 271.131 -40.8064 271.15C-67.539 271.187 -94.2688 271.198 -120.996 271.182L-121 269.212Z" fill="#FED670"/>
</svg>
