<svg width="363" height="362" viewBox="0 0 363 362" fill="none" xmlns="http://www.w3.org/2000/svg">
<path d="M204.702 188.092C201.853 193 197.274 196.677 191.855 198.408C186.436 200.139 180.564 199.799 175.382 197.455C170.2 195.112 166.078 190.933 163.818 185.73C161.558 180.527 161.322 174.673 163.155 169.305C164.987 163.938 168.758 159.442 173.734 156.691C178.71 153.941 184.535 153.132 190.076 154.423C195.617 155.713 200.479 159.012 203.715 163.675C206.95 168.339 208.329 174.035 207.583 179.655C207.191 182.629 206.211 185.496 204.702 188.092Z" fill="#E1458D"/>
<path d="M92.9045 0C95.2047 0.1575 97.5169 0.21647 99.8013 0.496032C111.343 1.67097 122.493 5.31881 132.487 11.1896C142.48 17.0603 151.081 25.0149 157.7 34.5079C168.177 48.8826 173.45 66.3727 172.656 84.1198C172.14 104.488 163.86 123.897 149.499 138.403C149.373 138.469 149.233 138.505 149.091 138.505C148.949 138.505 148.809 138.469 148.684 138.403C129.647 119.466 110.63 100.515 91.6317 81.5492C91.2203 81.0996 90.982 80.5192 90.9596 79.9112C90.928 53.2727 90.9189 26.6371 90.9321 0.00384521L92.9045 0Z" fill="#FED670"/>
<path d="M0 92.5495C0.158095 94.8411 0.217289 97.145 0.497908 99.4209C1.6778 110.919 5.33945 122.026 11.2324 131.982C17.1253 141.938 25.1098 150.507 34.6384 157.101C49.0678 167.538 66.6242 172.791 84.4384 172C104.883 171.486 124.365 163.238 138.926 148.931C138.993 148.806 139.028 148.667 139.028 148.525C139.028 148.384 138.993 148.244 138.926 148.12C119.918 129.151 100.895 110.205 81.8577 91.2815C81.406 90.8722 80.8235 90.6354 80.2134 90.6125C53.4742 90.581 26.7378 90.5715 0.00385975 90.5846L0 92.5495Z" fill="#FED670"/>
<path d="M269.181 361.068C266.884 360.907 264.568 360.852 262.284 360.572C250.743 359.396 239.594 355.747 229.601 349.876C219.609 344.005 211.008 336.051 204.389 326.56C193.91 312.185 188.636 294.695 189.43 276.948C189.945 256.581 198.225 237.173 212.587 222.669C212.711 222.6 212.851 222.564 212.993 222.564C213.136 222.564 213.276 222.6 213.401 222.669C232.441 241.6 251.458 260.552 270.453 279.523C270.867 279.97 271.105 280.549 271.125 281.156C271.162 307.792 271.172 334.429 271.153 361.065L269.181 361.068Z" fill="#FED670"/>
<path d="M362.089 268.518C361.927 266.226 361.872 263.919 361.591 261.647C360.411 250.149 356.748 239.042 350.856 229.086C344.963 219.13 336.979 210.561 327.451 203.966C313.021 193.529 295.465 188.275 277.651 189.063C257.207 189.579 237.727 197.828 223.167 212.133C223.098 212.258 223.062 212.396 223.062 212.538C223.062 212.68 223.098 212.82 223.167 212.944C242.17 231.912 261.193 250.858 280.236 269.782C280.683 270.195 281.266 270.432 281.876 270.451C308.615 270.488 335.352 270.498 362.086 270.483L362.089 268.518Z" fill="#FED670"/>
<path d="M269.181 0C266.885 0.1575 264.569 0.21647 262.284 0.496032C250.743 1.67075 239.593 5.3178 229.6 11.1886C219.607 17.0594 211.007 25.0148 204.389 34.5079C193.909 48.8814 188.635 66.372 189.43 84.1198C189.946 104.488 198.226 123.897 212.587 138.403C212.712 138.469 212.852 138.505 212.994 138.505C213.136 138.505 213.276 138.469 213.401 138.403C232.441 119.466 251.459 100.515 270.454 81.5492C270.868 81.1015 271.106 80.5199 271.125 79.9112C271.162 53.2727 271.172 26.6371 271.153 0.00384521L269.181 0Z" fill="#FED670"/>
<path d="M362.089 92.5495C361.927 94.8411 361.872 97.145 361.591 99.4209C360.41 110.919 356.747 122.025 350.855 131.981C344.962 141.937 336.978 150.506 327.451 157.101C313.021 167.537 295.464 172.789 277.651 172C257.207 171.486 237.726 163.238 223.167 148.931C223.098 148.807 223.062 148.667 223.062 148.525C223.062 148.383 223.098 148.244 223.167 148.12C242.17 129.151 261.193 110.205 280.236 91.2815C280.685 90.8716 281.267 90.6347 281.876 90.6125C308.615 90.581 335.352 90.5715 362.086 90.5846L362.089 92.5495Z" fill="#FED670"/>
<path d="M92.9045 361.068C95.2047 360.907 97.5169 360.852 99.8013 360.572C111.343 359.395 122.492 355.747 132.485 349.876C142.479 344.005 151.08 336.051 157.7 326.56C168.176 312.184 173.449 294.695 172.656 276.948C172.14 256.581 163.86 237.173 149.499 222.669C149.374 222.6 149.234 222.564 149.091 222.564C148.949 222.564 148.809 222.6 148.684 222.669C129.647 241.6 110.63 260.552 91.6317 279.523C91.2211 279.972 90.9829 280.55 90.9596 281.156C90.928 307.792 90.9189 334.429 90.9321 361.065L92.9045 361.068Z" fill="#FED670"/>
<path d="M0 268.518C0.158095 266.226 0.217289 263.919 0.497908 261.648C1.67729 250.149 5.33892 239.041 11.2319 229.085C17.1248 219.129 25.1095 210.56 34.6384 203.967C49.0673 193.528 66.6238 188.274 84.4384 189.063C104.883 189.58 124.364 197.828 138.926 212.134C138.993 212.258 139.028 212.397 139.028 212.538C139.028 212.68 138.993 212.819 138.926 212.944C119.918 231.912 100.895 250.858 81.8577 269.782C81.4079 270.194 80.8243 270.432 80.2134 270.451C53.4742 270.488 26.7378 270.499 0.00385975 270.483L0 268.518Z" fill="#FED670"/>
</svg>
