<svg width="24" height="18" viewBox="0 0 24 18" fill="none" xmlns="http://www.w3.org/2000/svg">
<path d="M20.06 0.5H3.94C2.89505 0.5 1.89289 0.915106 1.154 1.654C0.415106 2.39289 0 3.39505 0 4.44L0 13.56C0 14.605 0.415106 15.6071 1.154 16.346C1.89289 17.0849 2.89505 17.5 3.94 17.5H20.06C21.105 17.5 22.1071 17.0849 22.846 16.346C23.5849 15.6071 24 14.605 24 13.56V4.44C24 3.39505 23.5849 2.39289 22.846 1.654C22.1071 0.915106 21.105 0.5 20.06 0.5ZM16.54 9L9.77 13.36C9.69452 13.4084 9.6074 13.4357 9.51777 13.4389C9.42814 13.442 9.33931 13.4211 9.26057 13.3781C9.18184 13.3352 9.11611 13.2718 9.07026 13.1948C9.02442 13.1177 9.00015 13.0297 9 12.94V4.28C9.00015 4.19032 9.02442 4.10232 9.07026 4.02524C9.11611 3.94816 9.18184 3.88483 9.26057 3.84188C9.33931 3.79894 9.42814 3.77796 9.51777 3.78115C9.6074 3.78434 9.69452 3.81157 9.77 3.86L16.54 8.19C16.6102 8.23533 16.6679 8.29752 16.7078 8.37088C16.7478 8.44425 16.7687 8.52646 16.7687 8.61C16.7687 8.69354 16.7478 8.77575 16.7078 8.84912C16.6679 8.92248 16.6102 8.98467 16.54 9.03V9Z" fill="#1B1657"/>
</svg>
