<svg width="80" height="66" viewBox="0 0 80 66" fill="none" xmlns="http://www.w3.org/2000/svg">
<path d="M77.7669 11.3438C77.0274 6.80786 73.5037 3.50464 69.4145 2.47339C63.2953 1.03125 51.9703 0 39.7172 0C27.4715 0 15.9652 1.03125 9.83868 2.47339C5.75675 3.50464 2.22585 6.59839 1.48631 11.3438C0.739533 16.5 0 23.7188 0 33C0 42.2812 0.739533 49.5 1.66757 54.6562C2.41436 59.1921 5.93801 62.4954 10.0199 63.5266C16.5162 64.9688 27.6527 66 39.9057 66C52.1588 66 63.2953 64.9688 69.7915 63.5266C73.8735 62.4954 77.3971 59.4016 78.1439 54.6562C78.8835 49.5 79.8115 42.0718 80 33C79.623 23.7188 78.6949 16.5 77.7669 11.3438ZM29.6973 47.4375V18.5625L52.34 33L29.6973 47.4375Z" fill="#5326EC"/>
</svg>
