<svg width="16" height="16" fill="none" xmlns="http://www.w3.org/2000/svg"><g clip-path="url(#a)"><circle cx="8" cy="8" r="8" fill="#fff"/><path d="M11.759 5.11 8.594 3.297a1.214 1.214 0 0 0-1.217.004L4.223 5.135a1.22 1.22 0 0 0-.605 1.054l.013 3.65a1.223 1.223 0 0 0 .612 1.051l3.165 1.812a1.215 1.215 0 0 0 1.217-.003l3.155-1.835a1.225 1.225 0 0 0 .602-1.056L12.37 6.16a1.224 1.224 0 0 0-.611-1.05Z" fill="#FFF19F"/><path d="m10.323 6.214-1.956-1.12a.75.75 0 0 0-.752.002l-1.95 1.133a.754.754 0 0 0-.373.652l.007 2.255a.755.755 0 0 0 .38.65l1.955 1.12a.75.75 0 0 0 .752-.002l1.95-1.133a.757.757 0 0 0 .372-.653L10.7 6.863a.756.756 0 0 0-.377-.65Z" fill="#FFDD0F"/><path d="m9.436 6.896-1.21-.692a.463.463 0 0 0-.464.001l-1.204.7a.466.466 0 0 0-.232.403l.005 1.394a.467.467 0 0 0 .234.402l1.209.692a.464.464 0 0 0 .465-.001l1.205-.7a.468.468 0 0 0 .23-.404l-.005-1.394a.467.467 0 0 0-.233-.401Z" fill="#FFDD0F"/><path d="m21.511 5.076-3.165-1.812a1.214 1.214 0 0 0-1.217.004l-3.153 1.834a1.22 1.22 0 0 0-.606 1.054l.013 3.65a1.223 1.223 0 0 0 .613 1.051l3.164 1.812a1.215 1.215 0 0 0 1.218-.003l3.154-1.835a1.225 1.225 0 0 0 .602-1.056l-.012-3.648a1.223 1.223 0 0 0-.611-1.05Z" fill="#FFF19F"/><path d="M20.075 6.18 18.12 5.06a.75.75 0 0 0-.752.003l-1.949 1.133a.755.755 0 0 0-.374.652l.008 2.255a.756.756 0 0 0 .378.65l1.956 1.12a.75.75 0 0 0 .753-.002l1.95-1.134a.757.757 0 0 0 .371-.652l-.007-2.255a.756.756 0 0 0-.378-.65Z" fill="#FFEB6F"/><path d="m1.854 5.143-3.165-1.812a1.214 1.214 0 0 0-1.217.004L-5.68 5.169a1.22 1.22 0 0 0-.606 1.054l.013 3.649a1.222 1.222 0 0 0 .613 1.052l3.164 1.812a1.214 1.214 0 0 0 1.217-.004l3.155-1.834a1.224 1.224 0 0 0 .602-1.056l-.012-3.649a1.223 1.223 0 0 0-.611-1.05Z" fill="#FFF19F"/><path d="m.418 6.247-1.956-1.12a.75.75 0 0 0-.752.002l-1.949 1.134a.754.754 0 0 0-.374.652l.008 2.255a.755.755 0 0 0 .378.65l1.956 1.12a.75.75 0 0 0 .752-.002l1.95-1.134a.757.757 0 0 0 .372-.652L.796 6.896a.756.756 0 0 0-.378-.649Z" fill="#FFEB6F"/><path d="M16.612-3.576 13.447-5.39a1.214 1.214 0 0 0-1.217.004L9.077-3.55a1.22 1.22 0 0 0-.606 1.053l.013 3.65a1.222 1.222 0 0 0 .613 1.052l3.164 1.812a1.215 1.215 0 0 0 1.218-.004l3.154-1.835a1.224 1.224 0 0 0 .602-1.055l-.012-3.65a1.224 1.224 0 0 0-.61-1.05Z" fill="#FFF19F"/><path d="m15.177-2.472-1.957-1.12a.75.75 0 0 0-.752.002L10.52-2.456a.754.754 0 0 0-.374.651l.008 2.256a.755.755 0 0 0 .379.65l1.955 1.12a.75.75 0 0 0 .753-.002l1.95-1.134a.757.757 0 0 0 .372-.653l-.008-2.255a.756.756 0 0 0-.377-.649Z" fill="#FFEB6F"/><path d="m5.283-2.472-1.956-1.12a.75.75 0 0 0-.752.002L.626-2.456a.754.754 0 0 0-.374.651L.26.451a.755.755 0 0 0 .378.65l1.956 1.12a.75.75 0 0 0 .752-.002l1.95-1.134a.757.757 0 0 0 .372-.653l-.007-2.255a.756.756 0 0 0-.378-.649Z" fill="#FFDD0F"/><path d="M6.689-3.542 3.524-5.355a1.213 1.213 0 0 0-1.217.004L-.846-3.517a1.22 1.22 0 0 0-.606 1.054l.013 3.649a1.222 1.222 0 0 0 .613 1.052L2.338 4.05a1.215 1.215 0 0 0 1.217-.003L6.71 2.212a1.224 1.224 0 0 0 .602-1.056L7.3-2.492a1.223 1.223 0 0 0-.611-1.05ZM16.612 13.795l-3.165-1.812a1.214 1.214 0 0 0-1.217.004L9.077 13.82a1.22 1.22 0 0 0-.606 1.054l.013 3.649a1.222 1.222 0 0 0 .613 1.052l3.164 1.812a1.214 1.214 0 0 0 1.218-.003l3.154-1.835a1.224 1.224 0 0 0 .602-1.056l-.012-3.649a1.224 1.224 0 0 0-.61-1.05Z" fill="#FFF19F"/><path d="m15.177 14.877-1.957-1.12a.75.75 0 0 0-.752.002l-1.949 1.134a.754.754 0 0 0-.374.651l.008 2.256a.756.756 0 0 0 .379.65l1.955 1.12a.75.75 0 0 0 .753-.002l1.95-1.134a.757.757 0 0 0 .372-.653l-.008-2.255a.756.756 0 0 0-.377-.65Z" fill="#FFEB6F"/><path d="m5.272 14.9-1.956-1.12a.75.75 0 0 0-.752.002l-1.95 1.133a.755.755 0 0 0-.374.652l.008 2.255a.755.755 0 0 0 .379.65l1.956 1.12a.751.751 0 0 0 .752-.002l1.95-1.134a.758.758 0 0 0 .372-.652l-.008-2.256a.756.756 0 0 0-.377-.649Z" fill="#FFDD0F"/><path d="m6.708 13.829-3.166-1.813a1.214 1.214 0 0 0-1.216.004l-3.154 1.835a1.22 1.22 0 0 0-.605 1.054l.012 3.649a1.222 1.222 0 0 0 .613 1.052l3.165 1.812a1.215 1.215 0 0 0 1.217-.004l3.154-1.834a1.225 1.225 0 0 0 .603-1.056l-.013-3.649a1.223 1.223 0 0 0-.61-1.05Z" fill="#FFF19F"/><path d="M5.246-2.472 3.29-3.592a.75.75 0 0 0-.752.002L.59-2.456a.754.754 0 0 0-.374.651L.223.451A.755.755 0 0 0 .6 1.1l1.956 1.12a.75.75 0 0 0 .753-.002l1.95-1.134A.757.757 0 0 0 5.63.432l-.007-2.255a.756.756 0 0 0-.378-.649ZM5.246 14.854l-1.956-1.12a.75.75 0 0 0-.752.003L.59 14.87a.753.753 0 0 0-.374.652l.008 2.255a.755.755 0 0 0 .378.65l1.956 1.12a.75.75 0 0 0 .753-.002l1.95-1.134a.756.756 0 0 0 .371-.652l-.007-2.255a.756.756 0 0 0-.378-.65Z" fill="#FFEB6F"/></g><defs><clipPath id="a"><path d="M0 8a8 8 0 1 1 16 0A8 8 0 0 1 0 8Z" fill="#fff"/></clipPath></defs></svg>