<svg width="24" height="24" fill="none" xmlns="http://www.w3.org/2000/svg"><g clip-path="url(#a)"><circle cx="12" cy="12" r="12" fill="#fff"/><path d="M17.638 7.664 12.89 4.946a1.82 1.82 0 0 0-1.825.006l-4.73 2.751a1.83 1.83 0 0 0-.908 1.58l.019 5.474a1.833 1.833 0 0 0 .919 1.578l4.746 2.718a1.822 1.822 0 0 0 1.827-.005l4.731-2.752a1.836 1.836 0 0 0 .904-1.583l-.019-5.474a1.835 1.835 0 0 0-.916-1.575Z" fill="#FFF19F"/><path d="M15.485 9.32 12.55 7.64a1.125 1.125 0 0 0-1.128.004L8.5 9.344a1.131 1.131 0 0 0-.562.978l.012 3.382a1.133 1.133 0 0 0 .568.976l2.934 1.68a1.126 1.126 0 0 0 1.128-.003l2.925-1.701a1.135 1.135 0 0 0 .558-.98l-.011-3.382a1.134 1.134 0 0 0-.566-.974Z" fill="#FFDD0F"/><path d="M14.154 10.344 12.34 9.305a.695.695 0 0 0-.697.003l-1.806 1.05a.699.699 0 0 0-.347.604l.007 2.091a.7.7 0 0 0 .351.603l1.813 1.038a.697.697 0 0 0 .698-.002l1.807-1.05a.702.702 0 0 0 .345-.606l-.007-2.09a.701.701 0 0 0-.35-.602Z" fill="#FFDD0F"/><path d="m32.267 7.615-4.748-2.72a1.82 1.82 0 0 0-1.825.007l-4.73 2.751a1.83 1.83 0 0 0-.908 1.581l.018 5.474a1.832 1.832 0 0 0 .92 1.578l4.746 2.718a1.82 1.82 0 0 0 1.826-.005l4.732-2.752a1.836 1.836 0 0 0 .903-1.584l-.018-5.473a1.835 1.835 0 0 0-.916-1.575Z" fill="#FFF19F"/><path d="m30.113 9.27-2.935-1.68a1.125 1.125 0 0 0-1.128.004l-2.923 1.7a1.131 1.131 0 0 0-.561.978l.011 3.382a1.133 1.133 0 0 0 .568.976l2.934 1.68a1.126 1.126 0 0 0 1.128-.003l2.925-1.701a1.135 1.135 0 0 0 .558-.979l-.011-3.383a1.134 1.134 0 0 0-.566-.973Z" fill="#FFEB6F"/><path d="m2.781 7.715-4.748-2.719a1.82 1.82 0 0 0-1.825.006l-4.73 2.751a1.83 1.83 0 0 0-.908 1.581l.019 5.473a1.834 1.834 0 0 0 .92 1.579l4.746 2.718a1.821 1.821 0 0 0 1.826-.005l4.731-2.753a1.835 1.835 0 0 0 .904-1.583L3.697 9.29a1.835 1.835 0 0 0-.916-1.575Z" fill="#FFF19F"/><path d="m.628 9.37-2.935-1.68a1.125 1.125 0 0 0-1.128.004l-2.923 1.7a1.132 1.132 0 0 0-.561.978l.011 3.383a1.133 1.133 0 0 0 .568.975l2.934 1.68a1.125 1.125 0 0 0 1.128-.003l2.925-1.7a1.135 1.135 0 0 0 .558-.98l-.011-3.382a1.134 1.134 0 0 0-.566-.974Z" fill="#FFEB6F"/><path d="M24.918-5.364 20.17-8.083a1.82 1.82 0 0 0-1.824.006l-4.73 2.751a1.831 1.831 0 0 0-.909 1.581l.019 5.473a1.834 1.834 0 0 0 .92 1.579l4.746 2.718a1.822 1.822 0 0 0 1.826-.005l4.732-2.753a1.837 1.837 0 0 0 .903-1.583l-.019-5.473a1.835 1.835 0 0 0-.916-1.575Z" fill="#FFF19F"/><path d="m22.765-3.708-2.935-1.68a1.125 1.125 0 0 0-1.127.003l-2.924 1.7a1.132 1.132 0 0 0-.561.978l.011 3.383a1.133 1.133 0 0 0 .568.976l2.934 1.68a1.125 1.125 0 0 0 1.129-.004l2.924-1.7a1.135 1.135 0 0 0 .558-.98l-.011-3.382a1.134 1.134 0 0 0-.566-.974Z" fill="#FFEB6F"/><path d="M7.925-3.708 4.99-5.388a1.125 1.125 0 0 0-1.127.003l-2.924 1.7a1.131 1.131 0 0 0-.561.978L.389.676a1.133 1.133 0 0 0 .568.976l2.934 1.68a1.126 1.126 0 0 0 1.129-.004l2.924-1.7a1.135 1.135 0 0 0 .559-.98L8.49-2.733a1.134 1.134 0 0 0-.566-.974Z" fill="#FFDD0F"/><path d="M10.033-5.314 5.285-8.032a1.82 1.82 0 0 0-1.824.006l-4.73 2.75a1.83 1.83 0 0 0-.909 1.582l.019 5.473a1.833 1.833 0 0 0 .92 1.578l4.746 2.718a1.822 1.822 0 0 0 1.826-.005l4.732-2.752a1.836 1.836 0 0 0 .903-1.584l-.019-5.473a1.834 1.834 0 0 0-.916-1.575ZM24.918 20.693l-4.748-2.719a1.82 1.82 0 0 0-1.824.006l-4.73 2.752a1.83 1.83 0 0 0-.909 1.58l.019 5.474a1.833 1.833 0 0 0 .92 1.578l4.746 2.718a1.821 1.821 0 0 0 1.826-.005l4.732-2.752a1.836 1.836 0 0 0 .903-1.584l-.019-5.473a1.835 1.835 0 0 0-.916-1.575Z" fill="#FFF19F"/><path d="m22.765 22.315-2.935-1.68a1.124 1.124 0 0 0-1.127.004l-2.924 1.7a1.132 1.132 0 0 0-.561.978l.011 3.383a1.133 1.133 0 0 0 .568.975l2.934 1.68a1.125 1.125 0 0 0 1.129-.003l2.924-1.701a1.135 1.135 0 0 0 .558-.98l-.011-3.382a1.134 1.134 0 0 0-.566-.974Z" fill="#FFEB6F"/><path d="m7.908 22.349-2.935-1.68a1.126 1.126 0 0 0-1.128.004l-2.923 1.7a1.13 1.13 0 0 0-.561.977l.011 3.383a1.133 1.133 0 0 0 .568.976l2.934 1.68a1.125 1.125 0 0 0 1.128-.004l2.925-1.7a1.135 1.135 0 0 0 .558-.98l-.011-3.382a1.134 1.134 0 0 0-.566-.974Z" fill="#FFDD0F"/><path d="m10.061 20.743-4.748-2.718a1.82 1.82 0 0 0-1.824.005l-4.73 2.752a1.831 1.831 0 0 0-.909 1.581l.019 5.473a1.833 1.833 0 0 0 .92 1.579l4.746 2.718a1.821 1.821 0 0 0 1.826-.006l4.732-2.752a1.836 1.836 0 0 0 .903-1.583l-.019-5.474a1.834 1.834 0 0 0-.916-1.575Z" fill="#FFF19F"/><path d="m7.87-3.708-2.935-1.68a1.125 1.125 0 0 0-1.128.003l-2.923 1.7a1.131 1.131 0 0 0-.561.978L.334.676a1.133 1.133 0 0 0 .568.976l2.934 1.68a1.126 1.126 0 0 0 1.128-.004l2.925-1.7a1.135 1.135 0 0 0 .558-.98l-.011-3.382a1.134 1.134 0 0 0-.567-.974ZM7.87 22.282l-2.935-1.68a1.125 1.125 0 0 0-1.128.003l-2.923 1.7a1.131 1.131 0 0 0-.561.978l.011 3.383a1.133 1.133 0 0 0 .568.975l2.934 1.68a1.127 1.127 0 0 0 1.128-.003l2.925-1.701a1.135 1.135 0 0 0 .558-.979l-.011-3.382a1.134 1.134 0 0 0-.567-.974Z" fill="#FFEB6F"/></g><defs><clipPath id="a"><path d="M0 12C0 5.373 5.373 0 12 0s12 5.373 12 12-5.373 12-12 12S0 18.627 0 12Z" fill="#fff"/></clipPath></defs></svg>