<svg width="32" height="32" fill="none" xmlns="http://www.w3.org/2000/svg"><g clip-path="url(#a)"><circle cx="16" cy="16" r="16" fill="#fff"/><path d="m23.517 10.22-6.33-3.626a2.427 2.427 0 0 0-2.433.008l-6.307 3.669a2.441 2.441 0 0 0-1.21 2.107l.024 7.298a2.445 2.445 0 0 0 1.226 2.105l6.328 3.623a2.43 2.43 0 0 0 2.435-.006l6.31-3.67a2.449 2.449 0 0 0 1.204-2.111l-.025-7.298a2.446 2.446 0 0 0-1.222-2.1Z" fill="#FFF19F"/><path d="m20.646 12.427-3.912-2.24a1.5 1.5 0 0 0-1.504.005l-3.898 2.267a1.509 1.509 0 0 0-.748 1.303l.015 4.51a1.51 1.51 0 0 0 .757 1.301l3.912 2.24a1.5 1.5 0 0 0 1.505-.004l3.899-2.268a1.513 1.513 0 0 0 .744-1.306l-.015-4.51a1.512 1.512 0 0 0-.755-1.298Z" fill="#FFDD0F"/><path d="m18.872 13.792-2.419-1.385a.927.927 0 0 0-.929.003l-2.409 1.402a.933.933 0 0 0-.462.805l.01 2.787a.934.934 0 0 0 .467.804l2.418 1.384a.927.927 0 0 0 .93-.002l2.41-1.402a.935.935 0 0 0 .46-.806l-.01-2.788a.935.935 0 0 0-.466-.802Z" fill="#FFDD0F"/><path d="m43.022 10.153-6.33-3.625a2.428 2.428 0 0 0-2.433.008l-6.308 3.668a2.44 2.44 0 0 0-1.21 2.108l.025 7.298a2.444 2.444 0 0 0 1.226 2.105l6.328 3.624a2.43 2.43 0 0 0 2.435-.007l6.31-3.67a2.45 2.45 0 0 0 1.204-2.111l-.025-7.298a2.446 2.446 0 0 0-1.222-2.1Z" fill="#FFF19F"/><path d="m40.15 12.36-3.912-2.24a1.5 1.5 0 0 0-1.504.005l-3.898 2.268a1.509 1.509 0 0 0-.748 1.303l.015 4.51a1.511 1.511 0 0 0 .757 1.301l3.912 2.24a1.5 1.5 0 0 0 1.505-.004l3.899-2.268a1.514 1.514 0 0 0 .744-1.305l-.015-4.51a1.511 1.511 0 0 0-.755-1.3Z" fill="#FFEB6F"/><path d="m3.708 10.286-6.33-3.625a2.427 2.427 0 0 0-2.434.008l-6.307 3.669a2.442 2.442 0 0 0-1.21 2.107l.024 7.298a2.445 2.445 0 0 0 1.226 2.105l6.33 3.624a2.429 2.429 0 0 0 2.434-.007l6.309-3.67a2.448 2.448 0 0 0 1.204-2.111l-.024-7.298a2.446 2.446 0 0 0-1.222-2.1Z" fill="#FFF19F"/><path d="m.837 12.494-3.913-2.24a1.5 1.5 0 0 0-1.504.005l-3.898 2.267a1.508 1.508 0 0 0-.748 1.303l.015 4.51a1.51 1.51 0 0 0 .758 1.302l3.911 2.24a1.5 1.5 0 0 0 1.505-.005l3.9-2.268a1.514 1.514 0 0 0 .744-1.305l-.016-4.51a1.512 1.512 0 0 0-.754-1.299Z" fill="#FFEB6F"/><path d="m33.224-7.152-6.33-3.625a2.429 2.429 0 0 0-2.433.007L18.154-7.1a2.441 2.441 0 0 0-1.21 2.107l.024 7.297a2.444 2.444 0 0 0 1.226 2.105l6.329 3.624a2.43 2.43 0 0 0 2.434-.007l6.31-3.67a2.449 2.449 0 0 0 1.204-2.11l-.025-7.299a2.447 2.447 0 0 0-1.222-2.1Z" fill="#FFF19F"/><path d="m30.353-4.944-3.913-2.24a1.5 1.5 0 0 0-1.503.004l-3.899 2.268a1.509 1.509 0 0 0-.748 1.303L20.305.9a1.51 1.51 0 0 0 .758 1.301l3.912 2.24a1.501 1.501 0 0 0 1.504-.004l3.9-2.268a1.513 1.513 0 0 0 .744-1.305l-.015-4.51a1.513 1.513 0 0 0-.755-1.299Z" fill="#FFEB6F"/><path d="m10.566-4.944-3.912-2.24a1.5 1.5 0 0 0-1.504.004L1.252-4.912A1.508 1.508 0 0 0 .504-3.61L.519.9a1.51 1.51 0 0 0 .758 1.301l3.911 2.24a1.5 1.5 0 0 0 1.505-.004l3.9-2.268a1.513 1.513 0 0 0 .744-1.305l-.016-4.51a1.511 1.511 0 0 0-.755-1.299Z" fill="#FFDD0F"/><path d="m13.378-7.085-6.33-3.625a2.428 2.428 0 0 0-2.434.008l-6.307 3.669a2.441 2.441 0 0 0-1.21 2.107l.024 7.298a2.444 2.444 0 0 0 1.226 2.105L4.676 8.1a2.43 2.43 0 0 0 2.435-.006l6.308-3.67a2.449 2.449 0 0 0 1.205-2.111l-.025-7.298a2.447 2.447 0 0 0-1.221-2.1ZM33.224 27.59l-6.33-3.624a2.427 2.427 0 0 0-2.433.008l-6.307 3.668a2.44 2.44 0 0 0-1.21 2.108l.024 7.298a2.444 2.444 0 0 0 1.226 2.105l6.329 3.623a2.429 2.429 0 0 0 2.434-.007l6.31-3.67a2.447 2.447 0 0 0 1.204-2.11l-.025-7.298a2.448 2.448 0 0 0-1.222-2.1Z" fill="#FFF19F"/><path d="m30.353 29.754-3.913-2.24a1.5 1.5 0 0 0-1.503.005l-3.899 2.267a1.509 1.509 0 0 0-.748 1.303l.015 4.51a1.511 1.511 0 0 0 .758 1.301l3.912 2.24a1.502 1.502 0 0 0 1.504-.004l3.9-2.269a1.512 1.512 0 0 0 .744-1.304l-.015-4.51a1.513 1.513 0 0 0-.755-1.3Z" fill="#FFEB6F"/><path d="m10.543 29.799-3.912-2.24a1.5 1.5 0 0 0-1.504.005L1.23 29.83a1.509 1.509 0 0 0-.748 1.303l.015 4.51a1.51 1.51 0 0 0 .758 1.301l3.911 2.24a1.5 1.5 0 0 0 1.505-.005l3.899-2.267a1.513 1.513 0 0 0 .745-1.305l-.015-4.511a1.512 1.512 0 0 0-.756-1.298Z" fill="#FFDD0F"/><path d="m13.415 27.657-6.33-3.624a2.428 2.428 0 0 0-2.433.008l-6.308 3.668a2.441 2.441 0 0 0-1.21 2.108l.025 7.298a2.444 2.444 0 0 0 1.225 2.105l6.33 3.623a2.43 2.43 0 0 0 2.434-.006l6.309-3.67a2.447 2.447 0 0 0 1.204-2.111l-.024-7.298a2.446 2.446 0 0 0-1.222-2.1Z" fill="#FFF19F"/><path d="M10.492-4.944 6.58-7.184a1.5 1.5 0 0 0-1.504.004L1.178-4.912A1.508 1.508 0 0 0 .43-3.61L.445.9a1.51 1.51 0 0 0 .758 1.301l3.911 2.24a1.5 1.5 0 0 0 1.505-.004l3.9-2.268a1.512 1.512 0 0 0 .744-1.305l-.016-4.51a1.511 1.511 0 0 0-.755-1.299ZM10.492 29.709l-3.912-2.24a1.5 1.5 0 0 0-1.504.004l-3.898 2.268a1.508 1.508 0 0 0-.748 1.303l.015 4.51a1.51 1.51 0 0 0 .758 1.301l3.911 2.24a1.5 1.5 0 0 0 1.505-.004l3.9-2.268a1.513 1.513 0 0 0 .744-1.305l-.016-4.51a1.511 1.511 0 0 0-.755-1.3Z" fill="#FFEB6F"/></g><defs><clipPath id="a"><path d="M0 16C0 7.163 7.163 0 16 0s16 7.163 16 16-7.163 16-16 16S0 24.837 0 16Z" fill="#fff"/></clipPath></defs></svg>