<svg width="40" height="40" fill="none" xmlns="http://www.w3.org/2000/svg"><g clip-path="url(#a)"><circle cx="20" cy="20" r="20" fill="#fff"/><path d="m29.397 12.774-7.913-4.531a3.035 3.035 0 0 0-3.041.01l-7.884 4.585a3.05 3.05 0 0 0-1.514 2.635l.031 9.122a3.056 3.056 0 0 0 1.533 2.63l7.91 4.53a3.037 3.037 0 0 0 3.044-.008l7.886-4.587a3.06 3.06 0 0 0 1.506-2.64l-.031-9.121a3.057 3.057 0 0 0-1.527-2.625Z" fill="#FFF19F"/><path d="m25.808 15.534-4.89-2.8a1.875 1.875 0 0 0-1.88.005l-4.873 2.835a1.886 1.886 0 0 0-.935 1.628l.019 5.638a1.888 1.888 0 0 0 .946 1.627l4.89 2.8a1.877 1.877 0 0 0 1.88-.006l4.875-2.835a1.891 1.891 0 0 0 .93-1.632l-.019-5.637a1.89 1.89 0 0 0-.943-1.623Z" fill="#FFDD0F"/><path d="m23.59 17.24-3.023-1.731a1.158 1.158 0 0 0-1.162.004l-3.01 1.751a1.165 1.165 0 0 0-.579 1.007l.012 3.485a1.168 1.168 0 0 0 .585 1.004l3.022 1.73a1.16 1.16 0 0 0 1.163-.003l3.012-1.752a1.168 1.168 0 0 0 .576-1.008l-.012-3.485a1.168 1.168 0 0 0-.584-1.002Z" fill="#FFDD0F"/><path d="m53.778 12.69-7.913-4.53a3.035 3.035 0 0 0-3.042.01l-7.884 4.585a3.052 3.052 0 0 0-1.513 2.636l.031 9.122a3.056 3.056 0 0 0 1.533 2.63l7.91 4.53a3.037 3.037 0 0 0 3.044-.008l7.886-4.587a3.06 3.06 0 0 0 1.506-2.64l-.031-9.121a3.058 3.058 0 0 0-1.527-2.626Z" fill="#FFF19F"/><path d="m50.188 15.45-4.89-2.8a1.876 1.876 0 0 0-1.88.007l-4.873 2.834a1.886 1.886 0 0 0-.935 1.629l.02 5.637a1.888 1.888 0 0 0 .946 1.627l4.89 2.8a1.876 1.876 0 0 0 1.88-.006l4.874-2.835a1.892 1.892 0 0 0 .93-1.63l-.018-5.639a1.89 1.89 0 0 0-.944-1.623Z" fill="#FFEB6F"/><path d="m4.635 12.858-7.913-4.531a3.034 3.034 0 0 0-3.041.01l-7.884 4.585a3.051 3.051 0 0 0-1.513 2.635l.03 9.122a3.055 3.055 0 0 0 1.533 2.63l7.91 4.53a3.037 3.037 0 0 0 3.044-.008l7.887-4.587a3.061 3.061 0 0 0 1.505-2.64l-.03-9.121a3.058 3.058 0 0 0-1.528-2.625Z" fill="#FFF19F"/><path d="m1.046 15.618-4.89-2.8a1.874 1.874 0 0 0-1.88.005l-4.873 2.835a1.886 1.886 0 0 0-.935 1.628l.019 5.638a1.889 1.889 0 0 0 .947 1.627l4.889 2.8a1.877 1.877 0 0 0 1.881-.006l4.874-2.835a1.891 1.891 0 0 0 .93-1.63L1.99 17.24a1.89 1.89 0 0 0-.944-1.623Z" fill="#FFEB6F"/><path d="m41.53-8.94-7.913-4.532a3.034 3.034 0 0 0-3.04.01l-7.885 4.586a3.052 3.052 0 0 0-1.513 2.635l.031 9.122a3.056 3.056 0 0 0 1.532 2.63l7.911 4.53a3.037 3.037 0 0 0 3.044-.008l7.886-4.587a3.061 3.061 0 0 0 1.505-2.64l-.03-9.122A3.057 3.057 0 0 0 41.53-8.94Z" fill="#FFF19F"/><path d="m37.941-6.18-4.89-2.8a1.875 1.875 0 0 0-1.88.006L26.3-6.14a1.885 1.885 0 0 0-.936 1.629l.02 5.637a1.89 1.89 0 0 0 .946 1.627l4.89 2.8a1.876 1.876 0 0 0 1.88-.006l4.875-2.835a1.891 1.891 0 0 0 .93-1.63l-.019-5.639a1.89 1.89 0 0 0-.944-1.623Z" fill="#FFEB6F"/><path d="m13.208-6.18-4.89-2.8a1.875 1.875 0 0 0-1.88.006L1.565-6.14A1.886 1.886 0 0 0 .63-4.511l.02 5.637a1.889 1.889 0 0 0 .946 1.627l4.89 2.8a1.876 1.876 0 0 0 1.88-.006l4.875-2.835a1.891 1.891 0 0 0 .93-1.63l-.019-5.639a1.89 1.89 0 0 0-.944-1.623Z" fill="#FFDD0F"/><path d="M16.722-8.856 8.81-13.387a3.033 3.033 0 0 0-3.04.01l-7.885 4.585a3.051 3.051 0 0 0-1.513 2.635l.03 9.122a3.056 3.056 0 0 0 1.533 2.63l7.911 4.53a3.036 3.036 0 0 0 3.044-.008l7.886-4.587a3.06 3.06 0 0 0 1.505-2.64l-.03-9.121a3.057 3.057 0 0 0-1.528-2.625ZM41.53 34.488l-7.913-4.53a3.033 3.033 0 0 0-3.04.009l-7.885 4.586a3.051 3.051 0 0 0-1.513 2.635l.031 9.122a3.055 3.055 0 0 0 1.532 2.63l7.911 4.53a3.037 3.037 0 0 0 3.044-.008l7.886-4.587a3.06 3.06 0 0 0 1.505-2.64l-.03-9.121a3.059 3.059 0 0 0-1.527-2.626Z" fill="#FFF19F"/><path d="m37.941 37.192-4.89-2.8a1.875 1.875 0 0 0-1.88.006L26.3 37.233a1.885 1.885 0 0 0-.936 1.628l.02 5.638a1.89 1.89 0 0 0 .946 1.626l4.89 2.8a1.876 1.876 0 0 0 1.88-.005l4.875-2.836a1.892 1.892 0 0 0 .93-1.63l-.019-5.639a1.89 1.89 0 0 0-.944-1.623Z" fill="#FFEB6F"/><path d="m13.18 37.248-4.891-2.8a1.876 1.876 0 0 0-1.88.007l-4.872 2.834A1.886 1.886 0 0 0 .6 38.917l.02 5.639a1.888 1.888 0 0 0 .946 1.625l4.89 2.8a1.876 1.876 0 0 0 1.88-.005l4.875-2.835a1.892 1.892 0 0 0 .93-1.631l-.018-5.64a1.889 1.889 0 0 0-.944-1.622Z" fill="#FFDD0F"/><path d="M16.769 34.572 8.856 30.04a3.035 3.035 0 0 0-3.042.01l-7.883 4.585a3.052 3.052 0 0 0-1.514 2.636l.031 9.122a3.056 3.056 0 0 0 1.533 2.63l7.91 4.53a3.035 3.035 0 0 0 3.044-.008l7.886-4.587a3.06 3.06 0 0 0 1.506-2.64l-.031-9.122a3.058 3.058 0 0 0-1.527-2.625Z" fill="#FFF19F"/><path d="m13.116-6.18-4.89-2.8a1.875 1.875 0 0 0-1.88.006L1.473-6.14a1.886 1.886 0 0 0-.935 1.629l.019 5.637a1.889 1.889 0 0 0 .947 1.627l4.89 2.8a1.876 1.876 0 0 0 1.88-.006l4.874-2.835a1.891 1.891 0 0 0 .93-1.63l-.018-5.639a1.89 1.89 0 0 0-.944-1.623ZM13.116 37.136l-4.89-2.8a1.875 1.875 0 0 0-1.88.006l-4.873 2.834a1.885 1.885 0 0 0-.935 1.628l.019 5.639a1.888 1.888 0 0 0 .947 1.626l4.89 2.8a1.876 1.876 0 0 0 1.88-.006l4.874-2.835a1.891 1.891 0 0 0 .93-1.63l-.018-5.639a1.89 1.89 0 0 0-.944-1.623Z" fill="#FFEB6F"/></g><defs><clipPath id="a"><path d="M0 20C0 8.954 8.954 0 20 0s20 8.954 20 20-8.954 20-20 20S0 31.046 0 20Z" fill="#fff"/></clipPath></defs></svg>