<svg width="64" height="64" fill="none" xmlns="http://www.w3.org/2000/svg"><g clip-path="url(#a)"><circle cx="32" cy="32" r="32" fill="#fff"/><path d="m47.035 20.438-12.66-7.25a4.854 4.854 0 0 0-4.867.016l-12.614 7.337a4.881 4.881 0 0 0-2.422 4.216l.05 14.595a4.888 4.888 0 0 0 2.452 4.21l12.657 7.247a4.858 4.858 0 0 0 4.87-.014l12.618-7.339a4.898 4.898 0 0 0 2.408-4.223l-.05-14.595a4.893 4.893 0 0 0-2.442-4.2Z" fill="#FFF19F"/><path d="m41.292 24.854-7.825-4.48a3 3 0 0 0-3.007.01l-7.796 4.534a3.018 3.018 0 0 0-1.497 2.606l.03 9.02a3.022 3.022 0 0 0 1.516 2.603l7.822 4.48a3.001 3.001 0 0 0 3.01-.009l7.799-4.536a3.027 3.027 0 0 0 1.489-2.611l-.03-9.02a3.024 3.024 0 0 0-1.51-2.597Z" fill="#FFDD0F"/><path d="m37.743 27.583-4.836-2.769a1.853 1.853 0 0 0-1.859.006l-4.817 2.803a1.865 1.865 0 0 0-.925 1.61l.019 5.576a1.868 1.868 0 0 0 .936 1.608l4.835 2.768a1.856 1.856 0 0 0 1.86-.005l4.82-2.804a1.871 1.871 0 0 0 .92-1.613l-.019-5.575a1.868 1.868 0 0 0-.934-1.605Z" fill="#FFDD0F"/><path d="m86.044 20.305-12.66-7.25a4.855 4.855 0 0 0-4.867.016L55.903 20.41a4.882 4.882 0 0 0-2.421 4.216l.05 14.595a4.889 4.889 0 0 0 2.451 4.21l12.658 7.247a4.859 4.859 0 0 0 4.87-.013l12.617-7.34a4.897 4.897 0 0 0 2.409-4.222l-.05-14.596a4.893 4.893 0 0 0-2.442-4.2Z" fill="#FFF19F"/><path d="m80.3 24.721-7.824-4.48a3 3 0 0 0-3.008.01l-7.796 4.534a3.018 3.018 0 0 0-1.496 2.606l.03 9.02a3.022 3.022 0 0 0 1.515 2.603l7.823 4.48a3.002 3.002 0 0 0 3.01-.009l7.798-4.536a3.025 3.025 0 0 0 1.49-2.61l-.031-9.02a3.024 3.024 0 0 0-1.51-2.598Z" fill="#FFEB6F"/><path d="m7.416 20.573-12.66-7.25a4.856 4.856 0 0 0-4.867.015l-12.614 7.338a4.883 4.883 0 0 0-2.421 4.215l.05 14.595a4.888 4.888 0 0 0 2.451 4.21l12.657 7.247a4.858 4.858 0 0 0 4.87-.014L7.5 43.59a4.897 4.897 0 0 0 2.409-4.223l-.05-14.595a4.892 4.892 0 0 0-2.443-4.2Z" fill="#FFF19F"/><path d="m1.674 24.988-7.825-4.48a3 3 0 0 0-3.008.01l-7.796 4.534a3.016 3.016 0 0 0-1.497 2.606l.031 9.02a3.021 3.021 0 0 0 1.515 2.603l7.823 4.48a3.001 3.001 0 0 0 3.01-.009l7.798-4.536a3.027 3.027 0 0 0 1.489-2.61l-.03-9.02a3.024 3.024 0 0 0-1.51-2.598Z" fill="#FFEB6F"/><path d="m66.449-14.304-12.661-7.25a4.854 4.854 0 0 0-4.866.015l-12.614 7.337a4.881 4.881 0 0 0-2.422 4.216l.05 14.595a4.89 4.89 0 0 0 2.452 4.21l12.657 7.247a4.858 4.858 0 0 0 4.87-.014l12.618-7.34A4.897 4.897 0 0 0 68.94 4.49l-.05-14.595a4.893 4.893 0 0 0-2.442-4.2Z" fill="#FFF19F"/><path d="m60.706-9.888-7.825-4.48a3 3 0 0 0-3.007.009l-7.797 4.535a3.017 3.017 0 0 0-1.496 2.606l.03 9.02a3.021 3.021 0 0 0 1.516 2.603l7.822 4.48a3.002 3.002 0 0 0 3.01-.01l7.799-4.535a3.027 3.027 0 0 0 1.489-2.61l-.03-9.02a3.024 3.024 0 0 0-1.51-2.598Z" fill="#FFEB6F"/><path d="m21.133-9.888-7.825-4.48a3 3 0 0 0-3.007.009L2.505-9.824a3.017 3.017 0 0 0-1.497 2.606l.03 9.02a3.022 3.022 0 0 0 1.516 2.603l7.822 4.48a3.002 3.002 0 0 0 3.01-.01l7.799-4.535a3.027 3.027 0 0 0 1.489-2.61l-.03-9.02a3.023 3.023 0 0 0-1.51-2.598Z" fill="#FFDD0F"/><path d="m26.756-14.17-12.661-7.25a4.853 4.853 0 0 0-4.866.016l-12.615 7.337a4.883 4.883 0 0 0-2.42 4.216l.049 14.595a4.889 4.889 0 0 0 2.451 4.21L9.352 16.2a4.86 4.86 0 0 0 4.87-.014l12.617-7.34a4.896 4.896 0 0 0 2.41-4.222l-.05-14.595a4.892 4.892 0 0 0-2.443-4.2ZM66.449 55.18l-12.661-7.249a4.855 4.855 0 0 0-4.866.016l-12.614 7.337a4.882 4.882 0 0 0-2.422 4.217l.05 14.595a4.89 4.89 0 0 0 2.452 4.209l12.657 7.248a4.858 4.858 0 0 0 4.87-.014l12.618-7.34a4.897 4.897 0 0 0 2.408-4.222l-.05-14.595a4.893 4.893 0 0 0-2.442-4.201Z" fill="#FFF19F"/><path d="m60.706 59.507-7.825-4.48a3 3 0 0 0-3.007.01l-7.797 4.535a3.017 3.017 0 0 0-1.496 2.606l.03 9.02a3.021 3.021 0 0 0 1.516 2.602l7.822 4.48a3.002 3.002 0 0 0 3.01-.009l7.799-4.536a3.026 3.026 0 0 0 1.489-2.61l-.03-9.02a3.024 3.024 0 0 0-1.51-2.598Z" fill="#FFEB6F"/><path d="m21.087 59.597-7.825-4.48a3.002 3.002 0 0 0-3.007.01l-7.797 4.535a3.017 3.017 0 0 0-1.496 2.606l.03 9.02a3.02 3.02 0 0 0 1.516 2.602l7.822 4.48a3.001 3.001 0 0 0 3.01-.009l7.799-4.536a3.028 3.028 0 0 0 1.489-2.61l-.03-9.022a3.024 3.024 0 0 0-1.51-2.596Z" fill="#FFDD0F"/><path d="m26.83 55.315-12.66-7.25a4.854 4.854 0 0 0-4.867.016L-3.31 55.418a4.883 4.883 0 0 0-2.421 4.217l.049 14.595a4.889 4.889 0 0 0 2.452 4.21l12.657 7.247a4.858 4.858 0 0 0 4.87-.014l12.618-7.339a4.896 4.896 0 0 0 2.409-4.223l-.05-14.595a4.893 4.893 0 0 0-2.443-4.201Z" fill="#FFF19F"/><path d="m20.986-9.888-7.826-4.48a3 3 0 0 0-3.007.009L2.357-9.824A3.017 3.017 0 0 0 .86-7.218l.03 9.02a3.022 3.022 0 0 0 1.516 2.603l7.823 4.48a3.002 3.002 0 0 0 3.01-.01l7.798-4.535a3.027 3.027 0 0 0 1.489-2.61l-.03-9.02a3.023 3.023 0 0 0-1.51-2.598ZM20.986 59.417l-7.826-4.48a3 3 0 0 0-3.007.01L2.357 59.48A3.017 3.017 0 0 0 .86 62.087l.03 9.02a3.022 3.022 0 0 0 1.516 2.603l7.823 4.48a3.001 3.001 0 0 0 3.01-.009l7.798-4.536a3.027 3.027 0 0 0 1.489-2.61l-.03-9.02a3.023 3.023 0 0 0-1.51-2.598Z" fill="#FFEB6F"/></g><defs><clipPath id="a"><path d="M0 32C0 14.327 14.327 0 32 0c17.673 0 32 14.327 32 32 0 17.673-14.327 32-32 32C14.327 64 0 49.673 0 32Z" fill="#fff"/></clipPath></defs></svg>