<svg width="16" height="16" viewBox="0 0 16 16" fill="none" xmlns="http://www.w3.org/2000/svg">
<path d="M16 8C16 3.58172 12.4183 0 8 0C3.58172 0 0 3.58172 0 8C0 12.4183 3.58172 16 8 16C12.4183 16 16 12.4183 16 8Z" fill="#04795B"/>
<path d="M5.82646 8.72463C6.14153 8.72463 6.43238 8.61965 6.66668 8.43794L4.74385 6.51581C4.56206 6.74597 4.45705 7.03671 4.45705 7.35573C4.453 8.11085 5.06702 8.72463 5.82646 8.72463Z" fill="#EFEFEF"/>
<path d="M11.5465 7.35164C11.5465 7.03668 11.4415 6.74593 11.2597 6.51172L9.33691 8.43385C9.56715 8.61556 9.85801 8.72055 10.1771 8.72055C10.9325 8.7246 11.5465 8.11081 11.5465 7.35164Z" fill="#EFEFEF"/>
<path d="M12.5156 5.26398L11.6633 6.116C11.946 6.4552 12.1157 6.88326 12.1157 7.35974C12.1157 8.42982 11.2472 9.298 10.1767 9.298C9.7041 9.298 9.27186 9.1284 8.93253 8.84574L7.99941 9.77854L7.06626 8.84574C6.72695 9.1284 6.29874 9.298 5.82207 9.298C4.75159 9.298 3.88311 8.42982 3.88311 7.35974C3.88311 6.88728 4.05277 6.4552 4.33554 6.116L3.89925 5.6799L3.48319 5.26398C2.99845 6.06352 2.71973 6.99632 2.71973 7.99776C2.71973 10.9132 5.08285 13.2715 7.99535 13.2715C10.9079 13.2715 13.271 10.9092 13.271 7.99776C13.2791 6.99227 13.0004 6.05947 12.5156 5.26398Z" fill="#EFEFEF"/>
<path d="M11.8169 4.35539C10.8596 3.34992 9.50225 2.71997 7.99956 2.71997C6.49684 2.71997 5.14359 3.34992 4.18217 4.35539C4.05292 4.49269 3.92769 4.63805 3.81055 4.78747L7.99551 8.97091L12.1805 4.78344C12.0755 4.63805 11.9502 4.48864 11.8169 4.35539ZM7.99956 3.40645C9.23567 3.40645 10.3829 3.88293 11.2433 4.75112L7.99956 7.99369L4.7558 4.75112C5.62025 3.88293 6.76345 3.40645 7.99956 3.40645Z" fill="#EFEFEF"/>
</svg>
