<svg width="24" height="24" viewBox="0 0 24 24" fill="none" xmlns="http://www.w3.org/2000/svg">
<path d="M24 12C24 5.37258 18.6274 0 12 0C5.37258 0 0 5.37258 0 12C0 18.6274 5.37258 24 12 24C18.6274 24 24 18.6274 24 12Z" fill="#04795B"/>
<path d="M8.7397 13.0869C9.2123 13.0869 9.64858 12.9294 10 12.6569L7.11578 9.77368C6.8431 10.1189 6.68558 10.555 6.68558 11.0336C6.6795 12.1662 7.60054 13.0869 8.7397 13.0869Z" fill="#EFEFEF"/>
<path d="M17.3193 11.0275C17.3193 10.555 17.1618 10.1189 16.8891 9.76758L14.0049 12.6508C14.3502 12.9233 14.7865 13.0808 15.2652 13.0808C16.3983 13.0869 17.3193 12.1662 17.3193 11.0275Z" fill="#EFEFEF"/>
<path d="M18.7739 7.896L17.4954 9.17404C17.9196 9.68284 18.174 10.3249 18.174 11.0396C18.174 12.6448 16.8713 13.947 15.2656 13.947C14.5566 13.947 13.9083 13.6926 13.3993 13.2686L11.9996 14.6678L10.5999 13.2686C10.0909 13.6926 9.4486 13.947 8.7336 13.947C7.12788 13.947 5.82516 12.6448 5.82516 11.0396C5.82516 10.331 6.07964 9.68284 6.5038 9.17404L5.84936 8.51988L5.22528 7.896C4.49816 9.09532 4.08008 10.4945 4.08008 11.9967C4.08008 16.3699 7.62476 19.9072 11.9935 19.9072C16.3623 19.9072 19.907 16.3638 19.907 11.9967C19.9191 10.4884 19.501 9.08924 18.7739 7.896Z" fill="#EFEFEF"/>
<path d="M17.7254 6.53314C16.2893 5.02494 14.2534 4.08002 11.9993 4.08002C9.74526 4.08002 7.71538 5.02494 6.27326 6.53314C6.07938 6.7391 5.89154 6.95714 5.71582 7.18126L11.9933 13.4564L18.2707 7.17522C18.1132 6.95714 17.9253 6.73302 17.7254 6.53314ZM11.9993 5.10974C13.8535 5.10974 15.5743 5.82446 16.865 7.12674L11.9993 11.9906L7.1337 7.12674C8.43038 5.82446 10.1452 5.10974 11.9993 5.10974Z" fill="#EFEFEF"/>
</svg>
