<svg width="100" height="100" viewBox="0 0 100 100" fill="none" xmlns="http://www.w3.org/2000/svg">
<path d="M4.95061e-05 49.6551C0.0300044 39.8714 2.95857 30.3161 8.41589 22.1958C13.8732 14.0755 21.6145 7.75458 30.662 4.03127C39.7096 0.307961 49.6576 -0.650707 59.2497 1.27634C68.8418 3.20339 77.6476 7.92972 84.5552 14.8584C91.4628 21.7871 96.1622 30.6074 98.0599 40.2053C99.9576 49.8032 98.9685 59.7482 95.2176 68.7843C91.4666 77.8204 85.122 85.5423 76.9851 90.9748C68.8482 96.4073 59.2839 99.3066 49.5001 99.3066C36.3523 99.285 23.7513 94.0421 14.4686 84.731C5.18586 75.4198 -0.0185169 62.8029 4.95061e-05 49.6551ZM57.7191 76.1072H71.1142C71.331 76.1072 71.5457 76.0643 71.7459 75.9809C71.9461 75.8976 72.1278 75.7755 72.2806 75.6216C72.4334 75.4677 72.5543 75.2851 72.6362 75.0844C72.7181 74.8836 72.7595 74.6686 72.7579 74.4517V39.9673C72.7579 34.488 71.1686 30.2406 67.9898 27.225C67.5078 26.776 66.9935 26.363 66.4509 25.9893C63.7822 24.1554 60.7474 22.9224 57.5558 22.3753C57.2719 22.3208 57.0161 22.1684 56.8329 21.9448C56.6498 21.7211 56.5508 21.4403 56.5532 21.1512V17.7471C56.5532 17.4379 56.4304 17.1414 56.2118 16.9227C55.9932 16.7041 55.6966 16.5813 55.3874 16.5813H44.3006C43.9914 16.5813 43.6949 16.7041 43.4763 16.9227C43.2577 17.1414 43.1348 17.4379 43.1348 17.7471V20.4051C43.1326 20.7203 43.0111 21.0229 42.7948 21.2521C42.5785 21.4814 42.2835 21.6202 41.969 21.6409C39.9866 21.7925 38.0136 22.0493 36.0584 22.4103C32.8874 22.9699 30.4936 23.4712 28.877 23.9142C28.7025 23.9606 28.5483 24.0636 28.4386 24.2071C28.3289 24.3505 28.2699 24.5263 28.2708 24.7069V36.5048C28.2704 36.6518 28.3096 36.7961 28.3844 36.9226C28.4592 37.0491 28.5667 37.153 28.6956 37.2235C28.8246 37.2939 28.9702 37.3282 29.117 37.3228C29.2638 37.3174 29.4065 37.2724 29.5299 37.1927C30.2353 36.7849 30.9721 36.434 31.7333 36.1434C33.5303 35.4136 35.3675 34.787 37.2359 34.2665C39.4221 33.6205 41.6836 33.2639 43.9626 33.2056C48.1983 33.2056 51.3732 33.7652 53.4872 34.8844C53.9833 35.1431 54.4389 35.473 54.8395 35.8637C56.0187 37.1256 56.6551 38.8002 56.6115 40.5269C56.6295 40.6176 56.6264 40.7113 56.6026 40.8007C56.5787 40.8901 56.5347 40.9728 56.474 41.0426C56.4132 41.1124 56.3373 41.1673 56.252 41.2032C56.1667 41.2391 56.0744 41.255 55.982 41.2497C51.5131 41.5683 47.3317 41.9958 43.4379 42.532C39.8007 42.9806 36.2586 44.0078 32.9457 45.5748C30.2228 46.8181 27.9041 48.8015 26.254 51.2989C26.0908 51.567 25.9042 51.9401 25.7177 52.3248C24.7446 54.4472 24.1754 56.7323 24.0389 59.0631C24.0389 59.6577 24.0389 60.2289 24.0389 60.9051C23.9673 63.0898 24.3303 65.2669 25.1068 67.3102C25.8832 69.3535 27.0578 71.2222 28.5623 72.8079C30.0459 74.3423 31.8337 75.5497 33.8112 76.3527C35.7887 77.1558 37.9121 77.5367 40.0454 77.4712C40.7216 77.4712 41.3628 77.4712 41.9574 77.4712C42.2666 77.4712 42.5631 77.594 42.7817 77.8126C43.0003 78.0312 43.1232 78.3278 43.1232 78.637V79.7445C43.1232 80.0537 43.246 80.3502 43.4646 80.5688C43.6833 80.7875 43.9798 80.9103 44.289 80.9103H55.5157C55.8249 80.9103 56.1214 80.7875 56.34 80.5688C56.5587 80.3502 56.6815 80.0537 56.6815 79.7445V77.238C56.6882 76.9558 56.7971 76.6857 56.9879 76.4778C57.1788 76.2698 57.4385 76.1381 57.7191 76.1072ZM49.8965 51.9168C51.2605 51.7535 52.9509 51.567 54.9794 51.3572C55.1729 51.3359 55.3688 51.3556 55.5542 51.415C55.7396 51.4744 55.9104 51.5721 56.0556 51.7019C56.2007 51.8316 56.3169 51.9905 56.3966 52.1681C56.4764 52.3457 56.5178 52.5381 56.5183 52.7328V61.6745C56.518 61.8649 56.4785 62.0532 56.4023 62.2277C56.3261 62.4022 56.2148 62.5592 56.0753 62.6888C55.0441 63.6511 53.8627 64.4386 52.5779 65.0204C51.2133 65.6501 49.7321 65.9876 48.2294 66.0113C46.191 66.1465 44.1593 65.6629 42.4004 64.624C41.0947 63.6914 40.4302 61.9776 40.4302 59.4945C40.3482 58.0383 40.7588 56.5969 41.596 55.4025C42.4456 54.3159 43.5975 53.5047 44.9069 53.0709C46.5186 52.4902 48.1935 52.1028 49.8965 51.9168Z" fill="#6E65D9"/>
</svg>
