<svg width="100" height="100" viewBox="0 0 100 100" fill="none" xmlns="http://www.w3.org/2000/svg">
<path d="M98.994 86.0118C99.1718 90.7563 95.3953 94.7899 88.8737 95.0292L64.373 95.1559C61.1231 95.1432 57.8793 94.8748 54.6723 94.3534C67.3245 90.7211 77.7008 81.2532 80.9865 78.0363L89.9689 77.6773C92.2804 77.605 94.5269 78.4409 96.2179 80.0024C97.9088 81.564 98.9068 83.7244 98.994 86.0118ZM50.3625 93.4524H50.3269H50.2273H50.1064C45.5595 94.5028 40.9072 95.0412 36.2381 95.0574L11.133 94.9306C4.61131 94.7124 0.834861 90.6789 1.00555 85.9062C1.09998 83.62 2.10414 81.4635 3.79893 79.9074C5.49372 78.3512 7.74155 77.5217 10.0519 77.5998L22.0356 78.0715H22.1778C41.2876 79.7609 50.2629 76.0512 50.2629 76.0512C58.6123 73.1087 65.9234 67.8785 70.7027 61.1771C73.078 57.6011 75.1476 51.4276 75.1476 46.8309C75.1476 40.2966 72.5251 34.0299 67.857 29.4095C63.1889 24.789 56.8575 22.1933 50.2558 22.1933C43.6541 22.1933 37.3227 24.789 32.6546 29.4095C27.9865 34.0299 25.364 40.2966 25.364 46.8309C25.2731 51.9302 26.803 56.9288 29.7378 61.1208L29.7947 61.1982C34.5496 67.704 41.1193 72.6947 48.6983 75.5584C31.8145 77.2549 20.8906 75.305 18.8281 74.8545C18.1785 74.1271 17.5432 73.388 16.9221 72.6371C12.0544 66.4663 9.03216 59.0683 8.19847 51.283C7.36479 43.4977 8.75306 35.637 12.2057 28.5934C15.6583 21.5497 21.037 15.6053 27.731 11.4349C34.4251 7.26456 42.1663 5.03536 50.0759 5.00042C57.9855 4.96547 65.7465 7.12617 72.4779 11.2372C79.2093 15.3483 84.6414 21.2449 88.1574 28.2578C91.6734 35.2707 93.1325 43.1188 92.3691 50.9111C91.6057 58.7035 88.6503 66.1279 83.8384 72.3414L83.6322 72.6441C82.0593 74.5751 80.3682 76.4088 78.5685 78.1348C66.0443 89.8764 52.6525 92.9737 50.4265 93.4242" fill="#2199A4"/>
</svg>
