<svg width="100" height="100" viewBox="0 0 100 100" fill="none" xmlns="http://www.w3.org/2000/svg">
<g clip-path="url(#clip0_1140_49626)">
<path d="M53.387 68.4037C69.0258 68.4037 81.7036 55.8014 81.7036 40.2556C81.7036 24.7098 69.0258 12.1074 53.387 12.1074C37.7481 12.1074 25.0703 24.7098 25.0703 40.2556C25.0703 55.8014 37.7481 68.4037 53.387 68.4037Z" fill="url(#paint0_linear_1140_49626)"/>
<path d="M73.274 31.8135C75.3033 34.5445 76.3648 37.7721 76.3648 41.1238C76.3648 45.1893 74.6789 48.9445 71.8066 51.9858L73.555 58.472H78.8624L84.4508 52.172L85.9494 42.9548L86.2616 37.4618L80.7356 31.2549L73.274 31.8135Z" fill="url(#paint1_linear_1140_49626)"/>
<path d="M11.7706 59.2172L12.7384 63.0345C12.7384 63.0345 24.165 86.3413 49.8904 94.9998C49.8904 94.9998 73.9923 85.0688 84.3886 68.2172L69.3405 55.7724C69.3405 55.7724 62.4721 61.2034 52.2631 61.2034C42.0541 61.2034 28.1924 55.1517 28.1924 42.6759C28.1924 30.2001 42.5537 25.6381 42.5537 25.6381L36.4345 24.1484H20.7932L10.8652 47.9207L11.7706 59.2172Z" fill="url(#paint2_linear_1140_49626)"/>
<path d="M98.2195 34.1716C97.7824 33.7371 85.107 20.3923 50.359 8.50619L50.1405 8.41309C16.4852 19.8958 1.99902 34.1716 1.99902 34.1716C3.31027 41.775 6.6196 50.2474 9.61674 56.8267C9.8665 57.3853 13.8627 64.399 16.8286 68.2163C15.0803 64.399 13.1758 61.0784 13.1758 55.368C13.1758 39.2612 25.7263 26.1647 41.4301 25.6061C41.8047 25.6061 42.2106 25.6061 42.5852 25.6371L38.8388 21.913C38.8388 21.913 53.9181 19.3992 73.2746 31.0371C73.2746 31.0371 73.5556 31.6268 73.2746 33.3647C73.2746 33.3647 82.3909 37.275 83.1714 44.8784C83.9519 52.4818 79.1128 56.8267 75.2102 57.4473C75.2102 57.4473 77.2395 54.3129 74.1175 52.637C73.4619 52.2646 72.6814 52.1094 71.9009 52.1405C65.9379 52.1405 65.251 58.906 65.251 58.906C65.1886 59.2473 65.1886 59.5887 65.1886 59.9301C65.1886 59.9301 64.1895 69.83 81.9226 69.6438C81.9226 69.6438 90.914 59.5266 93.2867 50.4336C94.1609 47.0819 94.7853 44.5681 95.1911 42.706C96.1902 40.0681 97.158 37.3371 98.0946 34.513L98.2195 34.1716Z" fill="url(#paint3_linear_1140_49626)"/>
<path d="M65.5631 34.0488C65.8129 33.9247 66.6246 33.5212 67.5612 32.5592C69.4344 32.8074 71.2764 33.3971 71.2764 33.3971C67.8734 31.3488 63.2216 30.1385 58.0703 30.1695C58.0703 30.1695 60.0372 32.9626 65.5007 34.1109C65.5007 34.1109 65.5319 34.0799 65.5631 34.0488Z" fill="#282828"/>
<path d="M49.9846 9.90341C53.2939 10.9275 77.3334 18.8723 96.565 34.6688L98.7192 34.0481L98.5631 33.924C79.7686 18.0965 56.0101 9.87237 51.0773 8.28962L50.609 8.13445L49.9846 7.94824L48.8919 8.28962C43.9591 9.87237 20.2006 18.0965 1.40604 33.924L1.1875 34.1102L3.27925 34.7929C22.5109 18.9034 46.6752 10.9275 49.9846 9.90341Z" fill="#282828"/>
<path d="M98.5629 30.9757C79.7684 15.1482 56.0099 6.92413 51.0771 5.34138L50.6088 5.18621L49.9844 5L48.8917 5.34138C43.9589 6.92413 20.2004 15.1482 1.40586 30.9757L1 31.3171L1.09366 31.8447C1.12488 31.9688 3.15419 43.9791 10.0851 57.5411C14.1749 65.517 19.1389 72.4376 24.821 78.179C31.7831 85.1927 39.9003 90.3755 48.9229 93.603L49.4536 93.7892L49.9844 93.9754L50.5464 93.7582L51.0771 93.572C60.0997 90.3444 68.1857 85.1617 75.179 78.1479C80.8611 72.4376 85.8251 65.4859 89.9149 57.5101C96.8458 43.9791 98.9063 31.9378 98.9063 31.8137L99 31.2861L98.5629 30.9757ZM88.1978 56.6722C84.2017 64.4618 79.3625 71.2583 73.8054 76.8445C66.9057 83.7652 58.9134 88.8548 49.9844 91.9893C41.0554 88.8548 33.0631 83.7962 26.1634 76.8755C20.6062 71.2894 15.7671 64.5239 11.7709 56.7342C5.74546 45.0033 3.49761 34.4826 3.02931 32.0619C22.2921 16.0172 46.6438 8.01033 49.9844 6.95516C53.2937 8.01033 77.6767 16.0172 96.9395 32.0619C96.4712 34.4516 94.1921 44.9722 88.1978 56.6722Z" fill="url(#paint4_linear_1140_49626)" stroke="url(#paint5_linear_1140_49626)" stroke-width="8" stroke-miterlimit="10"/>
</g>
<defs>
<linearGradient id="paint0_linear_1140_49626" x1="64.4674" y1="4.63792" x2="47.8693" y2="58.4428" gradientUnits="userSpaceOnUse">
<stop offset="0.0391965" stop-color="#2CF4E1"/>
<stop offset="1" stop-color="#2CB2E1"/>
</linearGradient>
<linearGradient id="paint1_linear_1140_49626" x1="68.248" y1="32.1958" x2="92.9481" y2="66.1595" gradientUnits="userSpaceOnUse">
<stop offset="0.0391965" stop-color="#2CF4E1"/>
<stop offset="1" stop-color="#2CB2E1"/>
</linearGradient>
<linearGradient id="paint2_linear_1140_49626" x1="26.68" y1="36.42" x2="61.5817" y2="84.4114" gradientUnits="userSpaceOnUse">
<stop stop-color="#2CE5E1"/>
<stop offset="1" stop-color="#2CB2E1"/>
</linearGradient>
<linearGradient id="paint3_linear_1140_49626" x1="50.1011" y1="69.6211" x2="50.1011" y2="8.41309" gradientUnits="userSpaceOnUse">
<stop/>
<stop offset="1" stop-color="#0D0D0D"/>
</linearGradient>
<linearGradient id="paint4_linear_1140_49626" x1="49.971" y1="74.2983" x2="49.971" y2="-8.18115" gradientUnits="userSpaceOnUse">
<stop offset="0.0391965" stop-color="#2CF4E1"/>
<stop offset="1" stop-color="#2CB2E1"/>
</linearGradient>
<linearGradient id="paint5_linear_1140_49626" x1="-0.36073" y1="49.4913" x2="100.303" y2="49.4913" gradientUnits="userSpaceOnUse">
<stop offset="0.0391965" stop-color="#2CF4E1"/>
<stop offset="1" stop-color="#2CB2E1"/>
</linearGradient>
<clipPath id="clip0_1140_49626">
<rect width="100" height="100" fill="white"/>
</clipPath>
</defs>
</svg>
