<svg width="221" height="217" viewBox="0 0 221 217" fill="none" xmlns="http://www.w3.org/2000/svg">
<path d="M113.938 200.679L99.0535 185.01C97.8458 186.042 95.0279 188.587 93.65 189.449C87.6416 193.483 80.4307 195.334 73.2219 194.691C66.0132 194.049 59.2432 190.952 54.0429 185.919C48.8426 180.885 45.5271 174.22 44.6502 167.036C43.7732 159.852 45.388 152.584 49.2247 146.448V146.422L56.3313 135.548L78.8072 101.207C81.9375 96.4164 83.0365 90.5784 81.8625 84.9774C80.6885 79.3764 77.3376 74.4712 72.5469 71.3408L31.0996 134.722L30.6557 135.507C29.9538 136.663 29.2778 137.829 28.6636 139.032C25.1453 145.891 23.1647 153.434 22.8598 161.137C22.555 168.84 23.9332 176.517 26.8986 183.632C36.5134 206.913 61.6884 220.378 86.3782 215.387C93.4027 213.977 100.072 211.169 105.99 207.13C108.033 205.711 110.691 203.461 113.938 200.679Z" fill="#F8B9B6"/>
<path d="M29.2621 143.828L39.584 124.831C38.2525 123.99 34.9392 122.106 33.6954 121.058C27.9918 116.594 23.9947 110.306 22.373 103.247C20.7514 96.1873 21.6036 88.7852 24.7871 82.2792C27.9706 75.7732 33.2921 70.5581 39.8611 67.5066C46.43 64.4552 53.8477 63.7526 60.8728 65.5164H60.9038L73.4448 68.9123L113.019 79.6418C118.543 81.1388 124.436 80.3801 129.401 77.5327C134.366 74.6854 137.996 69.9825 139.494 64.4584L66.3898 44.6611L65.5073 44.4856C64.1964 44.1708 62.8752 43.8921 61.5386 43.6754C53.9278 42.4491 46.1412 42.8966 38.7211 44.9867C31.3009 47.0768 24.4256 50.7593 18.5738 55.7777C-0.59383 72.1172 -5.62055 100.224 6.75535 122.163C10.2607 128.408 14.9852 133.886 20.6485 138.27C22.651 139.767 25.6134 141.599 29.2621 143.828Z" fill="#F8B9B6"/>
<path d="M57.1675 45.7229L78.4202 49.6504C78.8021 48.1279 79.571 44.3965 80.1852 42.8844C82.6721 36.0837 87.4184 30.3429 93.6306 26.6222C99.8427 22.9014 107.144 21.4262 114.313 22.4433C121.483 23.4605 128.086 26.9082 133.018 32.21C137.95 37.5118 140.912 44.3462 141.409 51.5702V51.6064L142.049 64.5809L144.077 105.533C144.362 111.248 146.905 116.617 151.147 120.458C155.388 124.299 160.982 126.299 166.698 126.017L162.93 50.3936L162.827 49.5007C162.719 48.1537 162.579 46.8119 162.368 45.4752C161.185 37.8589 158.355 30.5922 154.077 24.181C149.799 17.7698 144.174 12.3683 137.595 8.35265C116.131 -4.82835 87.8492 -0.937015 70.8078 17.6423C65.9492 22.9058 62.1986 29.0925 59.7789 35.8346C58.9893 38.1828 58.1635 41.5632 57.1675 45.7229Z" fill="#F8B9B6"/>
<path d="M159.09 41.944L161.924 63.3566C163.472 63.2534 167.276 62.8405 168.901 62.9489C176.135 63.2138 183.059 65.9539 188.516 70.7112C193.972 75.4685 197.629 81.9546 198.877 89.0851C200.125 96.2156 198.887 103.558 195.371 109.886C191.855 116.213 186.273 121.142 179.559 123.848H179.533L167.389 128.493L129.064 143.077C126.413 144.086 123.987 145.607 121.924 147.554C119.862 149.501 118.203 151.835 117.043 154.423C115.883 157.012 115.245 159.803 115.164 162.638C115.084 165.473 115.563 168.297 116.575 170.946L187.341 144.001L188.157 143.625C189.406 143.108 190.639 142.556 191.842 141.942C198.721 138.463 204.759 133.525 209.533 127.473C214.308 121.42 217.706 114.399 219.489 106.899C225.393 82.4159 212.94 56.7249 190.03 46.2482C183.522 43.2553 176.479 41.6004 169.319 41.3814C166.827 41.3505 163.353 41.6085 159.09 41.944Z" fill="#F8B9B6"/>
<path d="M194.18 137.717L174.677 147.007C175.26 148.467 176.829 151.935 177.221 153.52C179.21 160.484 178.747 167.92 175.91 174.583C173.072 181.247 168.032 186.734 161.633 190.126C155.233 193.518 147.863 194.609 140.756 193.217C133.648 191.824 127.234 188.033 122.588 182.478V182.452L114.418 172.357L88.7009 140.416C85.1094 135.964 79.8971 133.12 74.2096 132.509C68.5221 131.898 62.8248 133.571 58.3701 137.159L105.851 196.139L106.46 196.804C107.337 197.836 108.24 198.833 109.195 199.787C114.629 205.256 121.19 209.475 128.422 212.149C135.653 214.823 143.38 215.888 151.065 215.27C176.179 213.319 196.765 193.532 199.65 168.512C200.485 161.397 199.881 154.188 197.875 147.311C197.137 144.901 195.816 141.67 194.18 137.717Z" fill="#F8B9B6"/>
</svg>
