<svg width="256" height="256" viewBox="0 0 256 256" fill="none" xmlns="http://www.w3.org/2000/svg">
<path d="M255.707 238.795L128 17.2617L0.29248 238.795H45.0683L68.2381 199.597L131.284 95.6193L191.098 198.372H107.059L86.1823 238.795H255.707Z" fill="#FFC50F"/>
<path d="M255.707 238.795L128 17.2617L0.29248 238.795H45.0683L68.2381 199.597L131.284 95.6193L191.098 198.372H172.906L196.558 238.795H255.707Z" fill="url(#paint0_linear)"/>
<path d="M255.707 238.795L128 17.2617L0.29248 238.795H45.0683L68.2381 199.597L131.284 95.6193L191.098 198.372L214.463 238.795H255.707Z" fill="#F57722"/>
<path d="M153.385 61.2556L128 17.2617L0.29248 238.795H45.0683L68.2381 199.597L131.284 95.6193L153.385 61.2556Z" fill="#ED0014"/>
<path d="M102.81 61.2168L0.29248 238.795H45.0683L68.2381 199.597L131.284 95.6196L102.81 61.2168Z" fill="#F8004C"/>
<defs>
<linearGradient id="paint0_linear" x1="151.769" y1="142.102" x2="173.572" y2="130.93" gradientUnits="userSpaceOnUse">
<stop stop-color="#FFC50F"/>
<stop offset="1" stop-color="#FAAA13"/>
</linearGradient>
</defs>
</svg>
