<svg viewBox="0 0 626.49 700" xmlns="http://www.w3.org/2000/svg"><path d="m469.77 445.82-156.53 90.37-156.52-90.37v-179.61l.39.23 155.16-89.58 156.13 90.14 1.37-.79 156.72-90.21v-.32l-276.9-165.68a70.79 70.79 0 0 0 -72.69 0l-242.45 145.09a70.78 70.78 0 0 0 -34.45 60.75v268.32a70.78 70.78 0 0 0 34.45 60.75l242.45 145.09a70.79 70.79 0 0 0 72.69 0l276.9-165.7v-168.67l-156.72 90.23z" fill="#01192d"/><path d="m156.72 266.21v.45l.39-.22z" fill="#6100c6"/><path d="m312.28 536.17-156.07-90.11v-179.08l156.07 90.1z" fill="#14e014"/><path d="m312.28 357.26-156.07-90.1 156.07-90.29 156.07 90.11z" fill="#0f0"/><path d="m468.35 446.25-156.07 90.1v-179.08l156.07-90.11z" fill="#0fce0f"/></svg>