<svg width="219" height="256" viewBox="0 0 219 256" fill="none" xmlns="http://www.w3.org/2000/svg">
<path d="M218.002 194.504C218.825 215.713 201.869 233.151 180.847 233.151C162.528 233.151 147.311 219.908 144.233 202.482C143.81 200.062 141.436 198.51 139.074 199.168C139.039 199.168 139.015 199.18 138.98 199.192C136.583 199.85 135.314 202.447 136.254 204.75C138.028 209.086 139.015 213.833 139.015 218.815C139.015 239.849 121.554 256.805 100.345 255.97C81.1794 255.218 65.5512 239.684 64.6934 220.531C64.1999 209.65 68.4066 199.756 75.4334 192.659C77.0667 191.014 76.8317 188.299 74.9869 186.901C74.9634 186.877 74.9399 186.866 74.9164 186.842C73.0833 185.456 70.4394 185.949 69.2879 187.935C62.5783 199.415 49.8878 206.971 35.4934 206.336C16.3283 205.479 0.782375 189.85 0.0303423 170.673C-0.803944 149.452 16.1521 131.991 37.1855 131.991C38.4663 131.991 39.7353 132.061 40.9809 132.191C43.4603 132.449 45.6459 130.545 45.6341 128.043V127.996V127.949C45.6341 125.446 43.4603 123.542 40.9809 123.801C39.7353 123.93 38.4663 124 37.1855 124C16.1403 123.989 -0.815695 106.527 0.0303423 85.306C0.782375 66.1644 16.2931 50.5479 35.4347 49.6666C49.8643 49.0086 62.5666 56.5759 69.2879 68.0679C70.4394 70.042 73.0951 70.5238 74.9164 69.149L74.9869 69.0902C76.8317 67.6919 77.055 64.9776 75.4217 63.3207C68.7709 56.5994 64.6582 47.3753 64.6582 37.1641C64.6582 15.7194 82.848 -1.49511 104.645 0.102959C122.764 1.43077 137.429 15.9779 138.898 34.0855C139.391 40.2075 138.404 46.0357 136.254 51.2647C135.314 53.5561 136.583 56.1647 138.98 56.8227L139.074 56.8462C141.436 57.4925 143.81 55.9532 144.233 53.5443C147.3 36.1065 162.528 22.852 180.847 22.852C201.411 22.852 218.085 39.5494 218.026 60.1363C217.979 79.701 202.445 96.1047 182.915 97.1622C171.94 97.7615 161.941 93.5901 154.773 86.5398L154.749 86.575C144.926 78.1969 132.388 73.5789 119.451 73.5789C89.4283 73.5789 65.0107 97.9965 65.0107 128.019C65.0107 158.042 89.4283 182.459 119.451 182.459C132.811 182.459 145.619 177.583 155.584 168.735C162.799 162.049 172.669 158.183 183.432 158.911C202.245 160.18 217.274 175.691 218.002 194.539V194.504Z" fill="#00E046"/>
</svg>
