<svg width="200" height="200" viewBox="0 0 200 200" fill="none" xmlns="http://www.w3.org/2000/svg">
<path d="M85.221 0H0V199.794H85.221C150.484 199.794 198.147 163.175 198.147 100.041C198.147 34.8454 150.463 0 85.221 0ZM154.274 160.268C137.432 174.577 113.558 182.124 85.221 182.124H18.1053V17.732H85.221C144.589 17.732 179.958 48.5361 179.958 100.206C180.021 125.175 171.116 145.959 154.274 160.268Z" fill="#2C0B3F"/>
<path d="M103.453 50.8866V38.9691H85.3474V51.1134C60.5685 55.2371 41.7053 75.2371 41.7053 99.2371C41.7053 123.237 60.6527 143.216 85.3474 147.381V161.443H103.453V147.423C128.716 143.629 148.042 123.464 148.042 99.1546C148.042 74.8453 128.716 54.6804 103.453 50.8866ZM85.3474 129.237C70.6106 125.526 59.8316 113.505 59.8316 99.2165C59.8316 84.9278 70.6527 72.9072 85.3474 69.1959V129.237ZM103.453 129.464V68.9072C118.653 72.3505 129.937 84.5773 129.937 99.1546C129.937 113.732 118.653 125.959 103.453 129.402V129.464Z" fill="#2C0B3F"/>
</svg>
