<svg width="100" height="100" viewBox="0 0 100 100" fill="none" xmlns="http://www.w3.org/2000/svg">
<path d="M46.4284 3H6V99H46.4284C77.3889 99 100 81.405 100 51.0693C100 19.743 77.3789 3 46.4284 3ZM79.1866 80.008C71.1968 86.8836 59.8712 90.5096 46.4284 90.5096H14.589V11.5201H46.4284C74.5924 11.5201 91.371 26.3214 91.371 51.1486C91.401 63.1461 87.1764 73.1325 79.1866 80.008Z" fill="#2C0B3F"/>
<path d="M55.0778 27.4509V21.7246H46.4887V27.5599C34.7337 29.5413 25.7852 39.1512 25.7852 50.6831C25.7852 62.215 34.7737 71.815 46.4887 73.8162V80.5729H55.0778V73.8361C67.0625 72.0132 76.2308 62.324 76.2308 50.6435C76.2308 38.963 67.0625 29.2738 55.0778 27.4509ZM46.4887 65.098C39.4977 63.3147 34.3842 57.5388 34.3842 50.6732C34.3842 43.8076 39.5176 38.0317 46.4887 36.2484V65.098ZM55.0778 65.207V36.1097C62.2886 37.7642 67.6417 43.6392 67.6417 50.6435C67.6417 57.6478 62.2886 63.5228 55.0778 65.1772V65.207Z" fill="#2C0B3F"/>
</svg>
