<svg width="100" height="100" viewBox="0 0 100 100" fill="none" xmlns="http://www.w3.org/2000/svg">
<g clip-path="url(#clip0_1140_49548)">
<path d="M92.2836 64.3715C88.3837 64.1574 90.5503 58.0559 88.817 51.0981C86.7587 43.391 89.792 38.0389 93.8002 38.253C95.6825 38.5429 97.4663 39.2773 99 40.3938C98.3037 37.0417 97.0597 33.824 95.3168 30.867C91.7419 24.9796 83.9422 16.4162 74.1925 9.67249V74.2194C74.194 75.7017 73.6842 77.1403 72.7472 78.2979C71.8102 79.4555 70.5019 80.2629 69.0381 80.5871C67.5743 80.9113 66.0424 80.7329 64.695 80.0813C63.3476 79.4296 62.2652 78.3437 61.6262 77.0025C57.7602 79.3702 53.3275 80.6819 48.7808 80.8038C44.234 80.9257 39.736 79.8533 35.7457 77.6962C31.7554 75.539 28.4157 72.3744 26.0676 68.5252C23.7195 64.676 22.447 60.2802 22.3799 55.7863C22.3129 51.2923 23.4537 46.8613 25.686 42.9454C27.9183 39.0295 31.162 35.769 35.0862 33.4965C39.0104 31.2241 43.4746 30.0212 48.023 30.0106C52.5714 30 57.0412 31.182 60.9763 33.436V8.38797C60.9583 7.42523 61.1638 6.47122 61.5769 5.59913C61.9901 4.72704 62.5998 3.96003 63.3595 3.35695C50.6849 -2.42337 36.4938 -3.60085 24.3608 6.99641C3.99484 24.8726 -6.18816 49.8136 3.99484 74.6476C4.2115 75.1828 4.42816 75.718 4.64482 76.1462C4.94254 75.5454 5.34603 75.0017 5.83644 74.5406C11.1446 69.1884 16.9944 80.1068 29.4523 86.4223C37.3604 90.3829 41.9102 95.628 43.6435 100.552C55.2348 101.944 67.1511 100.124 76.6841 94.6646C89.142 87.5998 96.4001 74.7546 99 61.6954C97.129 63.3076 94.763 64.2503 92.2836 64.3715ZM49.8183 13.6331C52.7432 13.526 55.4515 16.9514 55.5598 18.5571C55.6681 20.1627 53.0682 19.5204 50.2516 20.4838C47.1101 21.5543 44.8351 20.5909 44.7268 18.9852C44.6185 17.3796 46.7851 13.7401 49.8183 13.6331Z" fill="#2C398F"/>
<path d="M43.4267 64.7991C49.7098 68.3316 57.2929 66.94 58.7012 59.0188C59.4595 54.416 59.0262 47.2441 54.9097 44.9962C41.2601 37.2891 29.7772 57.092 43.4267 64.7991Z" fill="#2C398F"/>
</g>
<defs>
<clipPath id="clip0_1140_49548">
<rect width="100" height="100" fill="white"/>
</clipPath>
</defs>
</svg>
