<svg xmlns="http://www.w3.org/2000/svg" width="200" height="200" fill="none" viewBox="0 0 50 50">
    <circle cx="25" cy="25" r="25" fill="#2B2B2B"/>
    <path fill="#fff" d="M19.666 11v28h8.8c7.4 0 11.56-3.72 11.56-11.4v-5.2c0-7.68-4.16-11.4-11.56-11.4h-8.8zm3.96 3.56h4.88c5 0 7.56 2.52 7.56 7.72v5.44c0 5.16-2.48 7.72-7.56 7.72h-4.88V14.56zM9.666 17.452c0 1.8 1.36 3.12 3.12 3.12 1.8 0 3.12-1.32 3.12-3.12s-1.32-3.12-3.12-3.12c-1.76 0-3.12 1.32-3.12 3.12zm0 14.72c0 1.8 1.36 3.12 3.12 3.12 1.8 0 3.12-1.32 3.12-3.12s-1.32-3.12-3.12-3.12c-1.76 0-3.12 1.32-3.12 3.12z"/>
</svg>
