<svg width="1088" height="1088" viewBox="0 0 1088 1088" fill="none" xmlns="http://www.w3.org/2000/svg">
    <g filter="url(#filter0_d_3351_9181)">
        <path fill-rule="evenodd" clip-rule="evenodd" d="M472.054 5.0202L338.803 40.7241L446.453 442.474L44.7043 334.827L9 468.076L277.491 540.017L9.00409 611.957L44.7084 745.205L44.7225 745.202L44.7235 745.206L446.448 637.565L338.81 1039.27L338.811 1039.27L338.799 1039.32L472.05 1075.02L472.06 1074.98L543.086 809.912L513.136 690.352C498.037 630.079 450.974 583.017 390.701 567.918L262.724 535.859L390.701 503.801C450.974 488.702 498.037 441.64 513.136 381.367L542.011 266.1L472.054 5.0202ZM547.191 261.596L576.971 383.929C592.158 446.316 641.499 494.638 704.19 508.519L826.766 535.66L1079 468.075L1043.3 334.826L641.542 442.475L749.183 40.7553L615.933 5.05132L547.191 261.596ZM810.771 540.091L699.688 567.918C639.414 583.017 592.352 630.079 577.253 690.352L546.146 814.528L615.937 1074.99L749.187 1039.28L641.545 637.564L1043.28 745.206L1078.98 611.957L810.771 540.091ZM258.726 309.613C307.787 296.467 336.902 246.039 323.756 196.978C310.61 147.917 260.181 118.802 211.12 131.948C162.059 145.094 132.943 195.522 146.089 244.583C159.235 293.644 209.664 322.759 258.726 309.613ZM323.756 822.614C336.902 871.675 307.787 922.104 258.726 935.25C209.664 948.396 159.235 919.281 146.089 870.22C132.943 821.159 162.059 770.73 211.12 757.585C260.181 744.439 310.61 773.554 323.756 822.614ZM877.626 309.613C926.687 296.467 955.802 246.039 942.656 196.978C929.51 147.917 879.081 118.802 830.02 131.948C780.958 145.094 751.843 195.522 764.989 244.583C778.135 293.644 828.564 322.759 877.626 309.613ZM942.656 822.615C955.802 871.676 926.687 922.104 877.626 935.25C828.564 948.396 778.135 919.281 764.989 870.22C751.843 821.159 780.959 770.731 830.02 757.585C879.081 744.439 929.51 773.554 942.656 822.615Z" fill="url(#paint0_linear_3351_9181)"/>
    </g>
    <defs>
        <filter id="filter0_d_3351_9181" x="0.481751" y="0.761078" width="1087.04" height="1087.04" filterUnits="userSpaceOnUse" color-interpolation-filters="sRGB">
            <feFlood flood-opacity="0" result="BackgroundImageFix"/>
            <feColorMatrix in="SourceAlpha" type="matrix" values="0 0 0 0 0 0 0 0 0 0 0 0 0 0 0 0 0 0 127 0" result="hardAlpha"/>
            <feOffset dy="4.25912"/>
            <feGaussianBlur stdDeviation="4.25912"/>
            <feColorMatrix type="matrix" values="0 0 0 0 0.284644 0 0 0 0 0.0651215 0 0 0 0 0.504167 0 0 0 0.1 0"/>
            <feBlend mode="normal" in2="BackgroundImageFix" result="effect1_dropShadow_3351_9181"/>
            <feBlend mode="normal" in="SourceGraphic" in2="effect1_dropShadow_3351_9181" result="shape"/>
        </filter>
        <linearGradient id="paint0_linear_3351_9181" x1="544" y1="5.0202" x2="544" y2="1075.02" gradientUnits="userSpaceOnUse">
            <stop stop-color="#52ACDE"/>
            <stop offset="0.3125" stop-color="#A99FFF"/>
            <stop offset="0.671875" stop-color="#F76464"/>
            <stop offset="1" stop-color="#FF9548"/>
        </linearGradient>
    </defs>
</svg>
