<svg width="200" height="200" viewBox="0 0 200 200" fill="none" xmlns="http://www.w3.org/2000/svg">
<path d="M200 100C200 44.7715 155.228 0 100 0C44.7715 0 0 44.7715 0 100C0 155.228 44.7715 200 100 200C155.228 200 200 155.228 200 100Z" fill="#04795B"/>
<path d="M72.8308 109.058C76.7691 109.058 80.4048 107.745 83.3335 105.474L59.2981 81.4473C57.0258 84.3243 55.7131 87.9587 55.7131 91.9463C55.6625 101.385 63.3378 109.058 72.8308 109.058Z" fill="#EFEFEF"/>
<path d="M144.33 91.8957C144.33 87.9587 143.018 84.3243 140.745 81.3967L116.71 105.423C119.588 107.695 123.224 109.007 127.213 109.007C136.655 109.058 144.33 101.385 144.33 91.8957Z" fill="#EFEFEF"/>
<path d="M156.449 65.8L145.794 76.4503C149.329 80.6903 151.45 86.041 151.45 91.997C151.45 105.373 140.593 116.225 127.212 116.225C121.305 116.225 115.902 114.105 111.66 110.572L99.996 122.232L88.3317 110.572C84.0903 114.105 78.7377 116.225 72.7793 116.225C59.3983 116.225 48.5423 105.373 48.5423 91.997C48.5423 86.0913 50.663 80.6903 54.1977 76.4503L48.744 70.999L43.5433 65.8C37.484 75.7943 34 87.4543 34 99.9723C34 136.416 63.539 165.894 99.9453 165.894C136.352 165.894 165.891 136.365 165.891 99.9723C165.992 87.4037 162.508 75.7437 156.449 65.8Z" fill="#EFEFEF"/>
<path d="M147.713 54.4427C135.746 41.8743 118.78 34 99.9965 34C81.2125 34 64.2968 41.8743 52.2791 54.4427C50.6635 56.159 49.0981 57.976 47.6338 59.8437L99.9458 112.137L152.258 59.7933C150.945 57.976 149.38 56.1083 147.713 54.4427ZM99.9965 42.581C115.448 42.581 129.788 48.537 140.543 59.3893L99.9965 99.9214L59.4495 59.3893C70.2551 48.537 84.5451 42.581 99.9965 42.581Z" fill="#EFEFEF"/>
</svg>
