<svg width="100" height="100" viewBox="0 0 100 100" fill="none" xmlns="http://www.w3.org/2000/svg">
<g clip-path="url(#clip0_1140_49602)">
<path d="M42.9162 78.8995C42.4786 78.9158 42.0423 78.8446 41.6335 78.6903C41.2246 78.5359 40.8518 78.3017 40.5374 78.0015C40.2231 77.7014 39.9738 77.3417 39.8045 76.9442C39.6353 76.5466 39.5496 76.1193 39.5527 75.6882V50.2992L11.7271 31.433V75.6882C11.7218 76.1169 11.6304 76.5404 11.4582 76.9342C11.2861 77.328 11.0365 77.6844 10.7239 77.9828C10.4113 78.2813 10.0418 78.516 9.63669 78.6733C9.2316 78.8306 8.79892 78.9075 8.36353 78.8995C7.92815 78.9075 7.49546 78.8306 7.09038 78.6733C6.6853 78.516 6.31581 78.2813 6.0032 77.9828C5.69058 77.6844 5.44101 77.328 5.26884 76.9342C5.09667 76.5404 5.0053 76.1169 5 75.6882V25.2111C5.0053 24.7824 5.09667 24.359 5.26884 23.9652C5.44101 23.5714 5.69058 23.215 6.0032 22.9165C6.31581 22.6181 6.6853 22.3834 7.09038 22.2261C7.49546 22.0688 7.92815 21.9919 8.36353 21.9999C9.05899 21.9838 9.74017 22.1956 10.3001 22.602L44.8528 46.1847C45.299 46.4616 45.6649 46.8473 45.9149 47.3045C46.1649 47.7617 46.2906 48.2747 46.2797 48.7939V75.7886C46.2452 76.6377 45.8734 77.4396 45.2443 78.0214C44.6152 78.6033 43.7791 78.9186 42.9162 78.8995Z" fill="#1AAB9B"/>
<path d="M57.0833 78.9004C56.6458 78.9167 56.2094 78.8456 55.8006 78.6912C55.3918 78.5369 55.0189 78.3026 54.7046 78.0025C54.3902 77.7024 54.1409 77.3427 53.9717 76.9451C53.8024 76.5475 53.7167 76.1203 53.7198 75.6892V48.7948C53.7446 48.2826 53.8856 47.7823 54.1325 47.3308C54.3795 46.8793 54.726 46.488 55.1468 46.1857L89.6994 22.7033C90.2662 22.3103 90.9428 22.0999 91.636 22.1011C92.0714 22.0932 92.5041 22.1701 92.9092 22.3274C93.3142 22.4847 93.6837 22.7193 93.9963 23.0178C94.3089 23.3163 94.5585 23.6727 94.7307 24.0665C94.9029 24.4603 94.9942 24.8837 94.9995 25.3124V75.7895C94.9995 76.6678 94.6452 77.5102 94.0144 78.1312C93.3836 78.7523 92.5281 79.1012 91.636 79.1012C90.7439 79.1012 89.8884 78.7523 89.2576 78.1312C88.6268 77.5102 88.2725 76.6678 88.2725 75.7895V31.5342L60.4469 50.3001V75.6892C60.4416 76.1179 60.3502 76.5413 60.178 76.9351C60.0059 77.3289 59.7563 77.6853 59.4437 77.9838C59.1311 78.2822 58.7616 78.5169 58.3565 78.6742C57.9514 78.8315 57.5187 78.9084 57.0833 78.9004Z" fill="#1AAB9B"/>
</g>
<defs>
<clipPath id="clip0_1140_49602">
<rect width="90" height="57" fill="white" transform="translate(5 22)"/>
</clipPath>
</defs>
</svg>
