<svg width="100" height="100" viewBox="0 0 100 100" fill="none" xmlns="http://www.w3.org/2000/svg">
<path d="M50 99C77.062 99 99 77.062 99 50C99 22.938 77.062 1 50 1C22.938 1 1 22.938 1 50C1 77.062 22.938 99 50 99Z" fill="#007896"/>
<path d="M55.1037 62.3379C53.783 63.6809 51.9784 64.4373 50.0948 64.4373C48.2113 64.4373 46.4066 63.6809 45.086 62.3379L38.701 55.8837C37.8793 55.0477 36.7562 54.5769 35.584 54.5769C34.4118 54.5769 33.2887 55.0477 32.467 55.8837C29.7011 58.6979 29.7011 63.2095 32.467 66.0237L45.1064 78.7813C46.427 80.1243 48.2317 80.8807 50.1152 80.8807C51.9988 80.8807 53.8034 80.1243 55.1241 78.7813L67.7308 66.0074C70.4967 63.1932 70.4967 58.6816 67.7308 55.8674C66.9091 55.0314 65.786 54.5605 64.6138 54.5605C63.4416 54.5605 62.3185 55.0314 61.4968 55.8674L55.1037 62.3379Z" fill="white"/>
<path d="M31.1463 39.8722C32.4058 38.5636 34.1382 37.8156 35.9544 37.7965C37.7706 37.7773 39.5184 38.4885 40.8052 39.7703L46.8966 45.9228C47.6965 46.7199 48.7831 47.1624 49.9123 47.1509C51.0415 47.1394 52.1188 46.6749 52.9023 45.8617C55.6007 43.1723 55.6407 38.8148 52.992 36.0764L40.9561 23.9059C39.6693 22.624 37.9215 21.9129 36.1052 21.932C34.289 21.9512 32.5566 22.6991 31.2972 24.0078L19.0288 36.4392C16.3304 39.1287 16.2905 43.4861 18.9391 46.2246C19.7391 47.0216 20.8256 47.4641 21.9548 47.4526C23.084 47.4411 24.1613 46.9766 24.9448 46.1634L31.1463 39.8722Z" fill="white"/>
<path d="M59.2218 39.5949C60.4813 38.2862 62.2137 37.5383 64.0299 37.5191C65.8461 37.5 67.5939 38.2112 68.8808 39.493L74.9721 45.6537C75.7721 46.4507 76.8586 46.8932 77.9878 46.8817C79.117 46.8702 80.1943 46.4057 80.9779 45.5925C83.6763 42.9031 83.7162 38.5456 81.0676 35.8072L69.0235 23.6285C67.7366 22.3467 65.9888 21.6355 64.1726 21.6547C62.3564 21.6738 60.624 22.4218 59.3645 23.7305L47.0962 36.1619C44.3978 38.8513 44.3578 43.2088 47.0065 45.9472C47.8064 46.7443 48.893 47.1867 50.0222 47.1752C51.1514 47.1637 52.2287 46.6993 53.0122 45.8861L59.2218 39.5949Z" fill="white"/>
</svg>
