<svg width="100" height="100" viewBox="0 0 100 100" fill="none" xmlns="http://www.w3.org/2000/svg">
<path d="M50 100C77.6142 100 100 77.6142 100 50C100 22.3858 77.6142 0 50 0C22.3858 0 0 22.3858 0 50C0 77.6142 22.3858 100 50 100Z" fill="url(#paint0_linear_1140_49566)"/>
<path opacity="0.2" d="M95.3125 50.4687L79.6875 88.75L71.4062 69.2187L78.9062 50.7812H74.6875L68.5938 66.0937L62.5 50.7812H58.5938L66.0938 69.2187L57.8125 88.75L42.1875 50.4687L34.375 31.875L42.5 12.3438L58.125 50.625H62.8125L44.375 7.34375H40.625L31.4062 28.5938L22.3438 7.34375H18.5938L0.3125 50.625H4.84375L20.625 12.1875L28.9062 31.7188L21.4062 50.1562H25.4687L31.5625 34.8437L37.6562 50.3125L55.7812 93.75H59.5312L68.75 72.3438L77.8125 93.75H81.5625L99.8438 50.4687H95.3125Z" fill="white"/>
<path d="M53.5937 69.5312C52.4189 69.8308 51.2124 69.9882 50 70C41.25 70 33.9062 63.2813 33.2812 53.4375C33.4412 51.5402 33.7547 49.6591 34.2187 47.8125L20.625 42.1875C19.2069 46.0416 18.4668 50.1121 18.4375 54.2188C18.4375 71.0938 32.9687 84.8438 49.8437 84.8438C53.7485 84.8279 57.6164 84.0861 61.25 82.6563L53.5937 69.5312Z" fill="url(#paint1_linear_1140_49566)"/>
<path d="M50 21.8752C45.6244 21.8579 41.3002 22.8188 37.3438 24.6877L45 37.5002C46.6589 36.9363 48.4048 36.6717 50.1562 36.719C57.8125 36.719 66.0938 43.1252 66.875 51.094L45 51.2502L79.2188 65.7815C80.9262 61.6782 81.7257 57.2541 81.5625 52.8127C81.4063 35.9377 66.875 21.8752 50 21.8752Z" fill="url(#paint2_linear_1140_49566)"/>
<path d="M53.5938 66.2502C52.4189 66.5498 51.2124 66.7072 50 66.719C41.25 66.719 33.9062 60.0002 33.2812 50.1565C33.4412 48.2592 33.7547 46.3781 34.2188 44.5315L20.625 38.7502C19.2069 42.6043 18.4668 46.6749 18.4375 50.7815C18.4375 67.6565 32.9687 81.4065 49.8438 81.4065C53.7486 81.3906 57.6164 80.6488 61.25 79.219L53.5938 66.2502ZM50 18.594C45.6244 18.5766 41.3002 19.5376 37.3438 21.4065L45 34.3752C46.6396 33.736 48.4008 33.4691 50.1563 33.594C57.8125 33.594 66.0938 40.0002 66.875 47.969L45 48.1252L78.9063 62.5002C80.6137 58.3969 81.4132 53.9728 81.25 49.5315C81.4063 32.5002 66.875 18.594 50 18.594Z" fill="white"/>
<defs>
<linearGradient id="paint0_linear_1140_49566" x1="82.4844" y1="2.1875" x2="-8.48437" y2="136.062" gradientUnits="userSpaceOnUse">
<stop stop-color="#1ABC9C"/>
<stop offset="1" stop-color="#1A5DAF"/>
</linearGradient>
<linearGradient id="paint1_linear_1140_49566" x1="1383.73" y1="-40410.9" x2="1002.01" y2="-42969.4" gradientUnits="userSpaceOnUse">
<stop stop-color="#1ABC9C"/>
<stop offset="1" stop-color="#1A5DAF"/>
</linearGradient>
<linearGradient id="paint2_linear_1140_49566" x1="1880.81" y1="-41681.4" x2="1488.93" y2="-44315.3" gradientUnits="userSpaceOnUse">
<stop stop-color="#1ABC9C"/>
<stop offset="1" stop-color="#1A5DAF"/>
</linearGradient>
</defs>
</svg>
