<svg width="200" height="78" viewBox="0 0 200 78" fill="none" xmlns="http://www.w3.org/2000/svg">
<path d="M198.034 28.9058C197.423 27.8453 196.599 26.9213 195.615 26.1912C194.631 25.4611 193.506 24.9404 192.312 24.6613C190.387 24.0682 188.315 24.1567 186.447 24.9116C185.246 25.4163 184.185 26.2044 183.357 27.208C182.218 26.1962 180.85 25.4745 179.37 25.1049C177.891 24.7352 176.343 24.7287 174.861 25.0857C174.516 23.4495 173.688 21.9534 172.483 20.7897C171.279 19.626 169.753 18.8481 168.1 18.5559C166.888 18.2617 165.628 18.2121 164.396 18.4103C163.164 18.6084 161.984 19.0501 160.926 19.7095C160.486 19.9971 160.076 20.329 159.702 20.6998C156.716 17.1428 152.468 14.8703 147.843 14.3549C145.487 13.9313 143.069 13.9837 140.734 14.5091C138.398 15.0344 136.192 16.022 134.247 17.4131C133.816 17.7497 133.408 18.1132 133.023 18.5014C132.624 17.8056 132.164 17.1464 131.647 16.5316C130.271 15.0253 128.602 13.8127 126.742 12.9672C124.882 12.1217 122.869 11.6608 120.825 11.6123H120.235C120.294 9.60429 119.565 7.65254 118.204 6.17075C117.3 5.24871 116.22 4.51654 115.027 4.01746C113.834 3.51838 112.553 3.26251 111.259 3.26494C109.994 3.17741 108.724 3.34216 107.524 3.74954C106.324 4.15692 105.218 4.79876 104.27 5.63748C103.495 6.38421 102.882 7.28137 102.469 8.27344C102.055 9.26552 101.851 10.3315 101.867 11.4056V13.9958C99.258 11.9521 95.9838 10.9406 92.6721 11.1553C89.9513 11.138 87.2686 11.7924 84.8636 13.0598C83.3597 12.3604 81.7046 12.0462 80.0481 12.1456C78.5244 12.2297 77.0481 12.6978 75.7562 13.506C76.1612 12.3922 76.3173 11.2037 76.2149 10.0234C76.1145 8.92295 75.793 7.85386 75.2693 6.87977C74.7463 5.90567 74.0311 5.04645 73.1675 4.35326C72.0516 3.46891 70.7696 2.81437 69.3976 2.42764C68.0254 2.04091 66.5897 1.92968 65.1739 2.10043C63.7728 2.22996 62.4114 2.63525 61.1686 3.29284C59.9257 3.95043 58.8262 4.84724 57.9336 5.93132C57.2283 6.79285 56.7043 7.7871 56.3929 8.85472C56.0814 9.92234 55.9889 11.0416 56.1207 12.1456C56.3319 13.7142 56.9872 15.1903 58.01 16.401C57.6971 16.677 57.4085 16.9792 57.1473 17.3043C54.1004 15.3126 50.3546 14.725 45.7243 15.5085C38.8007 16.5969 35.3934 19.0129 33.8537 20.5584C32.9021 19.062 31.6258 17.7975 30.1187 16.8581C25.7505 14.1808 20.4758 14.6815 16.7738 15.6827C13.3775 16.5316 9.93747 17.4784 6.55211 18.5014C5.36853 18.8213 4.25979 19.3704 3.28917 20.1174C2.31856 20.8643 1.50509 21.7944 0.895234 22.8547C0.401908 23.7779 0.102895 24.7917 0.0165155 25.8341C-0.0698638 26.8764 0.0582088 27.9254 0.392887 28.9167L6.42106 48.2344C6.77977 49.435 7.42362 50.5317 8.29811 51.4317C9.1726 52.3316 10.2519 53.0081 11.4445 53.4039C12.4093 53.7239 13.4199 53.8856 14.4368 53.8828C15.4277 53.8813 16.4133 53.7384 17.3635 53.4583C18.8966 53.0868 20.3065 52.3247 21.4551 51.2467C22.6037 50.1689 23.4517 48.812 23.9158 47.3093C25.0732 48.3966 26.4922 49.1681 28.0359 49.5494C29.5797 49.9307 31.196 49.9089 32.7288 49.486C33.8516 49.2377 34.9132 48.768 35.851 48.1045C36.7888 47.4409 37.5838 46.597 38.1891 45.6224C40.1497 46.5782 42.3079 47.0627 44.4903 47.0372C45.4494 47.046 46.4073 46.9658 47.3515 46.7978C49.5603 46.362 51.6563 45.4805 53.5107 44.2076C55.0213 44.712 56.6286 44.861 58.2066 44.6429C60.3074 44.3572 62.2404 43.3439 63.6669 41.7806C65.1835 42.7901 66.9764 43.3072 68.7996 43.2607C69.1708 43.2607 69.5421 43.2607 69.8916 43.2607C71.2036 43.1724 72.4792 42.7969 73.629 42.1611C74.7781 41.5253 75.7732 40.6448 76.5421 39.5822C77.3795 40.4333 78.3859 41.0998 79.4983 41.5385C80.6099 41.9772 81.8014 42.1784 82.9965 42.1289H83.6191C84.8665 42.0933 86.0926 41.8003 87.2205 41.2683C88.3484 40.7363 89.3527 39.9769 90.171 39.038C91.0311 39.9128 92.065 40.599 93.2064 41.0526C94.3477 41.5061 95.5718 41.717 96.8 41.6718H96.9308C98.1414 41.6968 99.3442 41.4806 100.469 41.0358C101.595 40.591 102.619 39.9265 103.483 39.0816C104.23 39.8958 105.14 40.5457 106.153 40.9898C107.167 41.434 108.262 41.6625 109.37 41.6609C110.428 41.7058 111.487 41.5583 112.493 41.2256C114.324 41.9536 116.259 42.3906 118.226 42.5207H119.165C121.363 42.5482 123.543 42.1181 125.564 41.2578C127.586 40.3976 129.405 39.1264 130.905 37.5253C131.548 38.5989 132.33 39.5832 133.231 40.4529C136.054 42.9794 139.581 44.5923 143.343 45.0783C144.382 45.2282 145.429 45.3046 146.478 45.3068C149.213 45.3452 151.919 44.7373 154.373 43.5328C155.774 42.8305 157.045 41.8957 158.13 40.7685C158.574 42.2594 159.232 43.6781 160.085 44.9803C161.516 47.1607 163.726 48.717 166.266 49.3336C168.635 49.8996 171.131 49.5083 173.211 48.2453L173.343 48.169C173.364 48.2149 173.389 48.2586 173.419 48.2997C174.264 49.7073 175.463 50.8706 176.898 51.6743C178.332 52.4779 179.953 52.8941 181.599 52.8815C183.355 52.8833 185.087 52.4732 186.654 51.6844C192.738 48.5065 197.237 39.3754 198.46 35.4466C198.846 34.3861 199.007 33.2575 198.934 32.1318C198.86 31.0061 198.554 29.9077 198.034 28.9058ZM49.6885 34.4236V33.912C49.7218 34.0034 49.7438 34.0984 49.754 34.195C49.7593 34.2929 49.7593 34.391 49.754 34.4889L49.6885 34.4236Z" fill="#21458E"/>
<path d="M199.115 26.8924C198.5 25.8324 197.674 24.9085 196.688 24.1769C195.702 23.4453 194.577 22.9214 193.382 22.637C191.455 22.0474 189.384 22.1397 187.517 22.8982C186.32 23.4036 185.262 24.1917 184.438 25.1946C183.301 24.1762 181.932 23.4504 180.449 23.0804C178.966 22.7105 177.415 22.7077 175.931 23.0724C175.588 21.437 174.763 19.9411 173.56 18.7774C172.357 17.6136 170.832 16.8353 169.182 16.5424C167.971 16.2414 166.713 16.1826 165.479 16.3694C164.246 16.5562 163.062 16.9849 161.996 17.6308C161.557 17.925 161.148 18.2603 160.773 18.632C157.787 15.0732 153.539 12.8003 148.913 12.2871C143.726 11.5144 138.768 12.6027 135.317 15.2909C134.886 15.6274 134.478 15.991 134.094 16.3792C133.698 15.681 133.238 15.0214 132.718 14.4093C131.343 12.9038 129.676 11.6918 127.818 10.8463C125.96 10.0008 123.948 9.53944 121.907 9.49011H121.317C121.368 7.48137 120.635 5.53102 119.274 4.04852C118.369 3.12942 117.288 2.40062 116.095 1.90524C114.902 1.40986 113.621 1.15797 112.329 1.16446C111.064 1.07694 109.794 1.24169 108.594 1.64907C107.394 2.05645 106.288 2.69828 105.34 3.53701C104.566 4.28184 103.955 5.17733 103.544 6.16777C103.132 7.1582 102.929 8.22244 102.948 9.2942V11.8953C100.321 9.85046 97.0234 8.85339 93.6983 9.09836C90.9873 9.10096 88.3195 9.77408 85.9336 11.0573C84.434 10.3579 82.7817 10.0436 81.1287 10.1431C79.6043 10.2272 78.1244 10.6912 76.8262 11.4926C77.2312 10.3786 77.3909 9.19097 77.2955 8.01001C77.1951 6.90763 76.875 5.83633 76.3541 4.85892C75.8326 3.88152 75.1209 3.01769 74.2601 2.31808C73.1414 1.43394 71.858 0.779601 70.4838 0.392914C69.1098 0.00622409 67.6725 -0.10514 66.255 0.0652615C64.8463 0.189183 63.4765 0.591811 62.2259 1.2496C60.9751 1.90738 59.8686 2.80711 58.9709 3.89615C58.2671 4.75821 57.7448 5.75278 57.4352 6.82049C57.1256 7.88816 57.0351 9.00715 57.1691 10.1105C57.3683 11.6791 58.0252 13.1549 59.0584 14.3549C58.7417 14.6345 58.4494 14.9403 58.1847 15.2691C55.1379 13.2775 51.403 12.6898 46.7726 13.4734C39.8708 14.6161 36.4746 16.9778 34.9456 18.5014C33.997 17.0028 32.7201 15.7376 31.2108 14.8011C26.8425 12.1238 21.5679 12.6789 17.8767 13.6257C14.4695 14.4964 11.0295 15.4433 7.66593 16.4336C6.47794 16.7498 5.3645 17.2973 4.38985 18.0444C3.4152 18.7916 2.59863 19.7236 1.98725 20.7869C1.49844 21.7138 1.20291 22.7296 1.11846 23.7732C1.034 24.8169 1.16237 25.8668 1.49582 26.8597L7.50211 46.2209C7.85893 47.4208 8.50091 48.5172 9.37349 49.4172C10.2461 50.3171 11.3237 50.994 12.5147 51.3905C13.4796 51.7105 14.4901 51.8722 15.507 51.8693C16.5014 51.8672 17.4905 51.7242 18.4446 51.4449C19.9772 51.0723 21.3866 50.31 22.535 49.2322C23.6835 48.1544 24.5318 46.7981 24.997 45.2959C26.1542 46.3832 27.5733 47.1547 29.117 47.536C30.6608 47.9173 32.2771 47.8954 33.8099 47.4725C34.9469 47.2207 36.0208 46.7417 36.9668 46.0646C37.9129 45.3874 38.7113 44.5262 39.3139 43.5328C41.2745 44.4886 43.4326 44.9732 45.615 44.9476C46.5637 44.9518 47.5105 44.868 48.4435 44.6973C50.6457 44.288 52.7413 43.4363 54.6028 42.1942C56.1134 42.6982 57.7206 42.8471 59.2986 42.6295C61.4213 42.354 63.3784 41.3403 64.8244 39.7673C66.3199 40.7697 68.0897 41.2866 69.8916 41.2474C70.2519 41.2474 70.6232 41.2474 70.9838 41.2474C72.2934 41.1575 73.5676 40.7813 74.7146 40.1455C75.8623 39.5098 76.8552 38.6301 77.6234 37.5689C78.4502 38.4212 79.4467 39.0927 80.5485 39.5406C81.6502 39.9883 82.8333 40.2027 84.0227 40.1699H84.6453C85.8919 40.1317 87.1174 39.8376 88.2453 39.3057C89.3725 38.7739 90.3774 38.0158 91.1979 37.0791C92.0545 37.9583 93.0877 38.6474 94.2298 39.1012C95.3725 39.555 96.5979 39.7635 97.8262 39.7128H97.9464C99.157 39.7391 100.36 39.5233 101.486 39.0785C102.611 38.6336 103.636 37.9685 104.499 37.1226C105.247 37.9357 106.157 38.585 107.17 39.029C108.183 39.473 109.279 39.7022 110.385 39.7019C111.471 39.7249 112.553 39.5478 113.574 39.1795C115.405 39.9076 117.34 40.3446 119.307 40.4747H120.235C122.434 40.5041 124.614 40.0749 126.635 39.2146C128.657 38.3543 130.476 37.0819 131.975 35.4792C132.623 36.5655 133.412 37.5609 134.323 38.4395C137.142 40.9657 140.665 42.5788 144.425 43.0648C145.463 43.2144 146.51 43.2907 147.559 43.2934C150.291 43.3313 152.993 42.7234 155.444 41.5194C156.844 40.8171 158.115 39.8823 159.2 38.7551C159.648 40.2442 160.307 41.6623 161.155 42.9669C162.59 45.148 164.804 46.7041 167.347 47.3202C169.712 47.8808 172.204 47.4897 174.282 46.2318L174.413 46.1557L174.489 46.2863C175.768 48.3795 177.811 49.897 180.189 50.5199C180.988 50.7282 181.811 50.8307 182.636 50.8246C184.396 50.8265 186.132 50.4164 187.703 49.6274C193.775 46.4495 198.274 37.3185 199.498 33.3897C199.883 32.3382 200.048 31.2191 199.982 30.1015C199.917 28.984 199.621 27.8917 199.115 26.8924ZM50.7587 32.4102V31.8987C50.7905 31.9911 50.816 32.0857 50.8351 32.1816C50.8405 32.2795 50.8405 32.3776 50.8351 32.4754L50.7587 32.4102Z" fill="url(#paint0_linear_15_19)"/>
<path d="M20.6294 37.2423L22.0381 42.1616C22.8681 45.1 20.6621 47.0808 18.2705 47.81C16.0864 48.4847 13.0614 48.082 12.1003 45.1762C10.0181 38.7551 7.92506 32.334 5.821 25.9129C4.84907 22.9527 6.91307 20.9937 9.29375 20.2863C12.6136 19.2633 15.9444 18.302 19.2861 17.4023C27.8479 15.1168 32.2379 18.6538 33.33 23.4968C33.6501 24.9107 33.6111 26.3818 33.2164 27.7767C32.8216 29.1717 32.0836 30.4464 31.0694 31.4852C34.018 33.1503 36.5297 35.6752 37.0648 38.0151C37.2385 38.6112 37.2848 39.237 37.2007 39.852C37.1167 40.467 36.9042 41.0577 36.577 41.5858C36.2497 42.1139 35.815 42.5678 35.3009 42.9182C34.7868 43.2686 34.2046 43.5076 33.5921 43.6199C32.4883 43.9678 31.3022 43.9572 30.2048 43.5894C29.1076 43.2216 28.156 42.5158 27.4875 41.5739C25.4344 39.1252 23.9055 37.7103 21.1863 37.0791L20.6294 37.2423ZM18.4998 30.473C19.3844 30.2118 20.2799 29.9615 21.1754 29.7221C21.5159 29.6551 21.8388 29.5189 22.1241 29.322C22.4093 29.125 22.6506 28.8715 22.8331 28.5773C23.0156 28.2831 23.1352 27.9546 23.1843 27.6122C23.2336 27.2699 23.2114 26.9211 23.1193 26.5877C23.0365 26.2495 22.8817 25.933 22.6653 25.6597C22.449 25.3863 22.1762 25.1626 21.8654 25.0036C21.5547 24.8447 21.2133 24.7542 20.8643 24.7383C20.5154 24.7224 20.167 24.7816 19.8431 24.9117L17.1129 25.6735C17.5716 27.2734 18.0412 28.8731 18.4998 30.473Z" fill="white"/>
<path d="M49.8085 25.9564C49.8085 25.6844 49.7102 25.4014 49.6665 25.1293C49.5355 24.3893 48.913 24.2369 47.7554 24.4437C46.2735 24.8788 44.8449 25.4774 43.4964 26.2285C42.8125 26.611 42.0769 26.8933 41.3122 27.0665C38.9753 27.5454 37.359 26.4788 36.944 24.5525C36.8469 24.0398 36.8608 23.5123 36.9852 23.0055C37.1095 22.4987 37.3412 22.0243 37.6647 21.614C39.4011 19.1653 44.4137 17.6634 47.7444 17.0866C51.4356 16.4336 54.2204 16.8146 56.481 18.3382C58.0317 19.4265 58.9381 21.2549 59.2876 23.7798C59.5278 25.4123 59.7572 27.0447 59.9865 28.6772C60.3141 30.9518 62.8477 30.6906 63.2627 33.6944C63.5902 36.2737 61.7883 38.2435 59.1237 38.6354C58.3123 38.7718 57.4806 38.7286 56.6879 38.5085C55.8952 38.2884 55.1608 37.897 54.5371 37.362C52.8782 39.1666 50.6733 40.3819 48.2577 40.8229C44.4901 41.5303 39.3465 40.5073 38.2763 35.8057C38.0726 34.9677 38.049 34.0961 38.2071 33.2484C38.3652 32.4006 38.7014 31.5957 39.1936 30.8865C41.1375 28.0569 45.0362 26.8053 48.6181 26.1632C48.9567 26.1197 49.3717 26.0326 49.8085 25.9564ZM51.0097 30.7342C49.2843 30.8539 47.1329 31.1695 47.4168 32.6931C47.5806 33.5638 48.1813 33.9229 49.5245 33.6726C50.2922 33.5027 50.9986 33.1263 51.5667 32.5843C51.2929 32.0373 51.1122 31.4489 51.0316 30.843L51.0097 30.7342Z" fill="white"/>
<path d="M65.4248 33.2045C65.0207 30.0593 64.6276 26.9031 64.2344 23.7579C63.3229 23.7105 62.4564 23.3475 61.7846 22.7317C61.1127 22.1158 60.6776 21.2855 60.5542 20.3841C60.3031 18.5557 61.3296 16.2485 64.4529 15.8676C66.1237 15.6608 67.8055 15.4758 69.4764 15.3016C72.5993 14.9861 73.8446 16.7817 73.9866 18.5666C74.4014 23.0795 74.8127 27.5924 75.2205 32.1053C75.5046 35.3703 73.0368 36.8069 70.7322 37.0572C68.4279 37.3075 65.8397 36.4477 65.4248 33.2045ZM66.6697 3.62396C70.1971 3.26482 73.1675 5.24556 73.4516 8.05341C73.7357 10.8613 71.1802 13.3862 67.7836 13.7563C64.3873 14.1262 61.4716 12.1782 61.1002 9.40295C60.7289 6.62773 63.2407 3.99399 66.6697 3.62396Z" fill="white"/>
<path d="M78.7159 23.7797C78.5633 21.8534 76.9795 20.591 76.805 18.4578C76.7689 17.8444 76.8594 17.2302 77.0693 16.6526C77.2799 16.075 77.6057 15.546 78.0276 15.0981C78.4495 14.6501 78.959 14.2924 79.5237 14.0467C80.0891 13.801 80.6982 13.6726 81.3152 13.6692C82.171 13.614 83.029 13.7417 83.8311 14.0439C84.6332 14.3461 85.3619 14.8158 85.9668 15.4214C87.2233 14.0936 89.7018 12.7115 93.6113 12.6135C99.0721 12.483 102.752 15.2582 102.698 20.9501C102.698 24.2913 102.698 27.6324 102.698 30.9844C102.698 34.3365 100.022 35.4574 97.7725 35.4901C95.523 35.5227 92.9675 34.4997 92.858 31.1368C92.7491 27.7739 92.6615 24.6068 92.5739 21.4072C92.5739 20.395 92.1265 19.9488 91.176 19.9815C90.694 20.0043 90.2219 20.1333 89.7958 20.3591C89.3689 20.5849 88.9972 20.9019 88.7081 21.2875L89.1343 31.2673C89.265 34.5323 86.7096 35.8601 84.4163 36.0016C82.123 36.143 79.6007 35.0983 79.3491 31.8442C79.1308 29.1452 78.9195 26.457 78.7159 23.7797Z" fill="white"/>
<path d="M106.509 9.07662C106.509 5.68107 109.327 4.63627 111.893 4.72334C114.459 4.8104 117.276 6.04021 117.102 9.43577L116.872 13.7891C118.253 13.2158 119.749 12.9735 121.24 13.0817C126.701 13.419 132.391 16.6187 131.418 25.6735C130.501 34.0427 123.949 36.6438 119.002 36.35C116.919 36.2312 114.895 35.6233 113.094 34.576C112.27 35.2469 111.216 35.571 110.156 35.4793C108.114 35.414 106.083 34.391 106.127 31.126C106.265 23.7617 106.392 16.4119 106.509 9.07662ZM115.9 28.6664C116.409 29.1844 117.096 29.4915 117.823 29.5262C119.471 29.6241 120.902 28.5794 121.099 24.8573C121.317 21.81 120.607 20.1557 118.587 20.036C118.12 20.0192 117.657 20.1226 117.242 20.3361C116.827 20.5496 116.474 20.8661 116.217 21.2549C116.151 23.6711 116.021 26.1198 115.9 28.612V28.6664Z" fill="white"/>
<path d="M144.151 39.0489C138.615 38.1783 132.281 34.6194 133.231 25.8149C134.181 17.0104 141.672 14.997 147.744 15.9438C153.816 16.8907 160.434 21.0046 158.665 29.6893C156.896 38.3742 149.721 39.8652 144.151 39.0489ZM145.298 32.1707C146.772 32.3992 148.006 31.6265 148.575 27.8936C149.142 24.1607 148.214 23.0723 146.685 22.8438C145.156 22.6152 143.911 23.3662 143.409 27.11C142.907 30.8539 143.835 31.9531 145.309 32.1707H145.298Z" fill="white"/>
<path d="M174.894 39.3973C173.931 40.8044 172.662 41.9763 171.181 42.8255C170.575 43.2011 169.898 43.4507 169.193 43.5592C168.487 43.6677 167.767 43.6328 167.075 43.4568C165.514 43.0435 164.165 42.0608 163.296 40.7033C160.337 36.1868 160.642 27.404 161.341 23.9431C161.997 20.6782 164.618 19.5899 167.534 20.232C168.15 20.3326 168.739 20.5576 169.265 20.8931C169.791 21.2286 170.242 21.6676 170.592 22.1832C170.942 22.6987 171.182 23.2801 171.298 23.8915C171.415 24.5029 171.404 25.1316 171.269 25.7389C170.908 27.9809 170.023 31.3546 170.548 34.4455C170.548 34.5761 170.69 34.6087 170.766 34.4999C172.611 32.2253 171.946 28.6883 174.61 27.2299C175.809 26.6182 177.193 26.4699 178.495 26.8134C179.797 27.157 180.927 27.9681 181.665 29.0909C183.27 31.6594 180.868 34.5325 181.425 37.2969C181.425 37.384 181.501 37.4928 181.632 37.2969C183.63 34.9243 184.559 31.5614 185.334 29.3848C185.501 28.7925 185.789 28.2409 186.18 27.7649C186.572 27.2889 187.057 26.8986 187.607 26.6185C188.156 26.3384 188.758 26.1747 189.375 26.1376C189.991 26.1005 190.608 26.1907 191.187 26.4027C194.093 27.2843 195.665 29.2216 194.628 32.3668C193.536 35.7188 189.408 43.7615 184.592 46.232C183.146 46.9518 181.493 47.148 179.917 46.787C179.208 46.5969 178.543 46.268 177.962 45.8196C177.381 45.3712 176.895 44.8122 176.532 44.1751C175.671 42.7204 175.17 41.0829 175.069 39.3973C175.058 39.3103 174.97 39.2885 174.894 39.3973Z" fill="white"/>
<path d="M31.4183 31.2131C31.5058 31.1043 31.604 30.9954 31.6913 30.8757C31.604 30.9954 31.5058 31.1043 31.4183 31.2131Z" fill="#84D1EC"/>
<path d="M23.4576 26.3047C23.3732 25.9675 23.2174 25.6521 23.0007 25.3798C22.7841 25.1075 22.5114 24.8845 22.2012 24.7257C21.8909 24.567 21.5501 24.4762 21.2018 24.4595C20.8535 24.4428 20.5056 24.5005 20.1814 24.6287L17.4622 25.3906V25.532L19.9957 24.8246C20.3198 24.6945 20.668 24.6354 21.0169 24.6513C21.3659 24.6671 21.7073 24.7576 22.0181 24.9166C22.3289 25.0755 22.6017 25.2993 22.818 25.5726C23.0343 25.8459 23.1892 26.1624 23.2719 26.5006C23.3717 26.8561 23.3931 27.2288 23.3347 27.5933C23.2762 27.9577 23.1393 28.3052 22.9334 28.612C23.1999 28.2974 23.3867 27.9236 23.4778 27.5221C23.5691 27.1206 23.5622 26.703 23.4576 26.3047Z" fill="#84D1EC"/>
<path d="M33.9296 43.3369C32.8325 43.6916 31.6509 43.6909 30.5543 43.3352C29.4576 42.9793 28.5021 42.2865 27.8249 41.3562C25.7828 38.9075 24.243 37.4818 21.5238 36.8615L20.9668 37.0029V37.1444L21.3272 37.0356C24.0464 37.6668 25.5753 39.0816 27.6284 41.5303C28.3054 42.4734 29.2669 43.1763 30.3729 43.5365C31.479 43.8968 32.6715 43.8954 33.7766 43.5328C34.8831 43.2868 35.8705 42.668 36.5723 41.7806C35.8768 42.5627 34.9524 43.1071 33.9296 43.3369Z" fill="#84D1EC"/>
<path d="M18.6193 47.5379C16.4352 48.2126 13.4102 47.81 12.4492 44.9042C10.3524 38.4831 8.2593 32.0583 6.16982 25.63C5.9349 25.0214 5.85975 24.3631 5.95148 23.7175C6.04321 23.0718 6.29878 22.4603 6.69401 21.9406C6.23962 22.4669 5.93592 23.1054 5.81486 23.7892C5.69378 24.4728 5.75982 25.1764 6.00601 25.8259L12.2963 45.0892C13.2464 48.0059 16.2386 48.3542 18.4664 47.7338C19.6899 47.3914 20.7794 46.6852 21.5897 45.7095C20.7884 46.5811 19.7601 47.2141 18.6193 47.5379Z" fill="#84D1EC"/>
<path d="M51.3814 30.6145L51.3268 30.473C49.9945 30.571 48.4001 30.7886 47.8868 31.5613C48.5093 30.9192 49.9508 30.7342 51.163 30.6472V30.8104C51.2341 31.4052 51.4078 31.9832 51.6762 32.5191C51.6762 32.4646 51.7964 32.4102 51.8401 32.3558C51.5892 31.8055 51.4342 31.2166 51.3814 30.6145Z" fill="#84D1EC"/>
<path d="M59.4189 38.3306C58.6058 38.4643 57.7731 38.4196 56.9791 38.1996C56.1851 37.9798 55.4487 37.5899 54.8213 37.0573C53.1625 38.8619 50.9576 40.0771 48.542 40.5181C44.7743 41.2146 39.6417 40.1917 38.5714 35.501C38.366 34.6619 38.3406 33.7891 38.4967 32.9395C38.6529 32.09 38.9873 31.2829 39.4779 30.5709C39.5692 30.4388 39.6676 30.3116 39.7727 30.1899C39.6089 30.375 39.4669 30.5709 39.325 30.7668C38.8353 31.4772 38.5006 32.282 38.3426 33.1294C38.1846 33.9767 38.2067 34.8477 38.4076 35.686C39.4997 40.3876 44.6215 41.4106 48.3891 40.7031C50.8047 40.2621 53.0096 39.0469 54.6685 37.2423C55.2943 37.7774 56.0305 38.1689 56.825 38.389C57.6195 38.609 58.4528 38.6522 59.266 38.5156C60.5498 38.3535 61.7224 37.7068 62.5422 36.709C61.7221 37.5952 60.6176 38.1687 59.4189 38.3306Z" fill="#84D1EC"/>
<path d="M41.4979 26.9794C42.2642 26.8009 43.0001 26.5112 43.6819 26.1196C45.0306 25.3685 46.4591 24.7698 47.941 24.3348C49.0986 24.128 49.721 24.2804 49.8521 25.0204L49.9722 25.6843H50.1579C50.1579 25.4122 50.0596 25.1401 50.005 24.868C49.874 24.1171 49.2515 23.9756 48.0939 24.1824C46.6125 24.619 45.1841 25.2176 43.8349 25.9672C43.1514 26.3481 42.4155 26.6268 41.6507 26.7944C39.3138 27.2733 37.6865 26.2176 37.2825 24.2912C37.1873 23.776 37.2034 23.2466 37.3296 22.738C37.4557 22.2295 37.6891 21.7535 38.0142 21.3419L38.0906 21.233C38.0142 21.331 37.9268 21.4289 37.8504 21.5378C37.5287 21.949 37.2981 22.4235 37.1739 22.93C37.0497 23.4365 37.0345 23.9635 37.1296 24.4762C37.5009 26.3917 39.1171 27.4582 41.4979 26.9794Z" fill="#84D1EC"/>
<path d="M67.9695 13.6693C68.8754 13.588 69.7559 13.3265 70.5587 12.9004C71.3618 12.4742 72.0706 11.8918 72.6438 11.1879C71.4826 12.4945 69.8661 13.3117 68.1224 13.4733C64.8462 13.8325 61.8212 11.9062 61.439 9.12003C61.3046 7.93204 61.646 6.73922 62.3891 5.80066C61.9728 6.2772 61.6607 6.8349 61.4728 7.43825C61.2847 8.04159 61.2248 8.6774 61.297 9.30505C61.6683 12.0911 64.6715 14.0283 67.9695 13.6693Z" fill="#84D1EC"/>
<path d="M71.0821 36.8287C68.7448 37.0791 66.1784 36.1758 65.7635 32.9325C65.3485 29.6894 64.9772 26.6312 64.5731 23.4751C63.8743 23.4347 63.1989 23.2092 62.6167 22.8216C62.0346 22.4342 61.5669 21.8988 61.2618 21.2708C60.9568 20.6429 60.8256 19.9452 60.8816 19.2497C60.9377 18.5543 61.1792 17.8865 61.5808 17.3152C61.1269 17.8757 60.8372 18.5505 60.744 19.2649C60.6507 19.9793 60.7575 20.7054 61.0524 21.3632C61.3473 22.0209 61.819 22.5845 62.4153 22.9918C63.0116 23.399 63.7092 23.6341 64.4312 23.671C64.8243 26.8162 65.2283 29.9723 65.6215 33.1176C66.0146 36.2629 68.5919 37.2641 70.9838 37.0029C71.6941 36.9533 72.3881 36.7609 73.022 36.4373C73.6566 36.1137 74.2184 35.6657 74.675 35.1201C73.74 36.1262 72.4545 36.7376 71.0821 36.8287Z" fill="#84D1EC"/>
<path d="M84.7442 35.686C82.4403 35.8275 79.9286 34.8262 79.7209 31.5612C79.5138 28.8839 79.3173 26.2067 79.1096 23.5294C78.9675 21.6031 77.3732 20.3406 77.1986 18.2184C77.1074 17.1895 77.3986 16.1631 78.0177 15.3344C77.6608 15.7568 77.3908 16.2455 77.2241 16.7722C77.0573 17.2989 76.9965 17.8533 77.0452 18.4034C77.2205 20.5801 78.8149 21.799 78.9569 23.7253C79.164 26.4026 79.3604 29.0799 79.5682 31.7572C79.8304 35.0221 82.3421 36.0451 84.6354 35.9145C85.371 35.8878 86.0926 35.7051 86.7513 35.3786C87.4106 35.0521 87.9922 34.5892 88.4573 34.0208C87.9802 34.5297 87.4064 34.939 86.7689 35.2248C86.1315 35.5107 85.4431 35.6675 84.7442 35.686Z" fill="#84D1EC"/>
<path d="M98.0884 35.2071C95.7845 35.2071 93.2834 34.2167 93.1746 30.8538C93.065 27.4909 92.9887 24.3239 92.8905 21.1242C92.8905 20.123 92.4424 19.6659 91.5039 19.6985C91.0375 19.7235 90.5817 19.8458 90.1654 20.0577C89.7499 20.2695 89.3838 20.5662 89.0898 20.9283C89.6848 20.3172 90.487 19.9487 91.34 19.8944C92.2898 19.8944 92.7046 20.308 92.7378 21.3202C92.8396 24.5633 92.9343 27.8065 93.0212 31.0497C93.1308 34.4453 95.6318 35.403 97.9357 35.403C98.7096 35.4341 99.4799 35.2896 100.189 34.9804C100.899 34.6712 101.529 34.2054 102.031 33.6182C101.522 34.1439 100.909 34.5571 100.23 34.8309C99.5506 35.1046 98.8212 35.2328 98.0884 35.2071Z" fill="#84D1EC"/>
<path d="M120.323 28.2963C121.105 27.1801 121.517 25.8484 121.502 24.4872C121.71 21.429 121.011 19.7748 118.98 19.6659C118.537 19.6447 118.096 19.733 117.696 19.9229C117.295 20.1128 116.949 20.3984 116.686 20.7542C116.955 20.4443 117.293 20.1998 117.671 20.0395C118.049 19.8791 118.46 19.8072 118.871 19.8292C120.902 19.9489 121.601 21.6031 121.393 24.6504C121.378 25.9404 121.008 27.2014 120.323 28.2963Z" fill="#84D1EC"/>
<path d="M119.351 36.0777C117.274 35.9536 115.254 35.3461 113.454 34.3038C112.622 34.9664 111.567 35.2858 110.505 35.1962C108.464 35.1309 106.433 34.1079 106.487 30.843C106.611 23.5077 106.734 16.1687 106.858 8.82616C106.838 7.89655 107.117 6.98503 107.655 6.2251C107.011 7.00879 106.674 7.99859 106.705 9.01118C106.574 16.3537 106.45 23.6963 106.334 31.0388C106.279 34.3038 108.31 35.3921 110.353 35.3921C111.416 35.4844 112.474 35.1604 113.301 34.4888C115.099 35.536 117.119 36.1439 119.199 36.2628C121.047 36.3991 122.902 36.0963 124.611 35.3793C126.319 34.6622 127.833 33.5514 129.027 32.138C127.826 33.4916 126.329 34.5511 124.651 35.2344C122.973 35.9176 121.16 36.2062 119.351 36.0777Z" fill="#84D1EC"/>
<path d="M147.657 31.2129C148.406 30.1524 148.857 28.913 148.968 27.6215C149.58 23.8994 148.607 22.8002 147.09 22.5716C146.681 22.4813 146.254 22.515 145.865 22.6682C145.476 22.8215 145.142 23.0872 144.905 23.4314C145.154 23.1437 145.476 22.9289 145.838 22.81C146.199 22.6911 146.587 22.6727 146.958 22.7567C148.476 22.9961 149.448 24.0844 148.837 27.8173C148.705 29.0234 148.303 30.1842 147.657 31.2129Z" fill="#84D1EC"/>
<path d="M144.512 38.7661C138.964 37.9063 132.641 34.3367 133.536 25.543C133.705 23.4135 134.46 21.3719 135.721 19.6443C134.377 21.407 133.577 23.5205 133.416 25.728C132.521 34.5325 138.877 38.0914 144.337 38.962C148.389 39.5606 153.27 38.962 156.35 35.1529C153.292 38.7444 148.519 39.3538 144.512 38.7661Z" fill="#84D1EC"/>
<path d="M171.105 34.2277C172.601 32.3885 172.459 29.733 173.747 28.0026C172.327 29.6786 172.491 32.3558 171.071 34.2712L171.105 34.2277Z" fill="#84D1EC"/>
<path d="M181.982 37.09C183.98 34.6522 184.864 31.2784 185.673 29.1562C185.874 28.6022 186.158 28.0814 186.513 27.6107C186.085 28.1304 185.749 28.7194 185.519 29.3521C184.734 31.4199 183.859 34.6848 181.96 37.1009L181.982 37.09Z" fill="#84D1EC"/>
<path d="M184.93 46.0033C183.486 46.7195 181.837 46.9119 180.266 46.5475C178.847 46.1571 177.642 45.2217 176.914 43.9464C176.047 42.4955 175.531 40.8635 175.407 39.1795C175.407 39.0489 175.309 39.0271 175.233 39.1795L175.145 39.3101C175.199 39.3101 175.243 39.3101 175.254 39.4081C175.361 41.0927 175.862 42.729 176.717 44.1858C177.081 44.8218 177.568 45.38 178.149 45.8282C178.73 46.2764 179.394 46.6059 180.103 46.7978C181.677 47.1575 183.328 46.9654 184.777 46.2536C186.61 45.1876 188.208 43.7621 189.473 42.0636C188.238 43.6662 186.693 45.0059 184.93 46.0033Z" fill="#84D1EC"/>
<path d="M171.519 42.5424C170.915 42.9196 170.241 43.1709 169.537 43.2812C168.833 43.3916 168.114 43.3587 167.423 43.1845C165.857 42.7765 164.505 41.7878 163.645 40.4202C160.686 35.9037 160.98 27.1209 161.679 23.6709C161.825 22.8464 162.17 22.0696 162.684 21.4072C162.086 22.1059 161.686 22.9514 161.526 23.8559C160.828 27.3168 160.533 36.0995 163.481 40.6161C164.346 41.9765 165.697 42.9602 167.26 43.3696C167.951 43.5456 168.672 43.5804 169.377 43.4719C170.083 43.3635 170.76 43.1139 171.366 42.7383C172.671 41.985 173.816 40.9871 174.741 39.7998C173.844 40.9029 172.752 41.8325 171.519 42.5424Z" fill="#84D1EC"/>
<path d="M137.085 62.0342C137.104 61.2549 136.965 60.4798 136.678 59.7547C136.391 59.0295 135.962 58.3688 135.415 57.8115C132.969 55.3628 128.677 55.1016 126.951 55.1016C124.734 55.0605 122.541 55.5732 120.574 56.5926V56.375C120.588 55.4868 120.42 54.6051 120.081 53.7839C119.741 52.9626 119.237 52.219 118.599 51.5986C117.961 50.9782 117.203 50.4939 116.37 50.1756C115.538 49.8573 114.65 49.7115 113.759 49.7471C112.866 49.7288 111.977 49.8866 111.146 50.2116C110.313 50.5366 109.554 51.0223 108.91 51.6408C108.259 51.0191 107.49 50.5319 106.648 50.207C105.807 49.882 104.909 49.7258 104.007 49.7471C103.121 49.7109 102.236 49.857 101.408 50.1762C100.581 50.4954 99.8282 50.9811 99.1971 51.6028C98.566 52.2246 98.0699 52.9691 97.7406 53.7901C97.4106 54.6112 97.2537 55.491 97.2798 56.375V56.7668C95.2841 55.6914 93.0508 55.1282 90.7823 55.1282C88.5137 55.1282 86.2805 55.6914 84.2848 56.7668C83.8289 55.7335 83.1759 54.7983 82.3625 54.0133C81.26 53.0177 79.971 52.2501 78.5682 51.755C77.166 51.2599 75.6791 51.0472 74.1936 51.1293H67.9255C67.0631 51.0947 66.2029 51.237 65.398 51.5474C64.5931 51.8578 63.8608 52.3297 63.2465 52.9337C62.6321 53.5378 62.1489 54.2612 61.8266 55.0591C61.5043 55.857 61.35 56.7124 61.3731 57.5721V71.2961C61.3795 72.1759 61.5643 73.0459 61.9164 73.8533C62.2687 74.66 62.7809 75.388 63.4226 75.993C64.0642 76.598 64.8219 77.0674 65.6501 77.3724C66.4783 77.6781 67.36 77.8137 68.2422 77.7715C69.2224 77.8004 70.1981 77.6261 71.1074 77.2614C72.0176 76.896 72.8409 76.3472 73.5279 75.6494C74.2077 76.3528 75.0289 76.9058 75.9378 77.2712C76.8466 77.6366 77.8226 77.8074 78.8021 77.7715C79.6763 77.7891 80.5441 77.6331 81.3569 77.3113C82.1689 76.9901 82.9081 76.5102 83.5307 75.8995C85.6749 77.3064 88.1936 78.0379 90.7604 77.9999C93.5328 78.0526 96.2438 77.1876 98.4706 75.5405C98.7286 75.343 98.9766 75.1322 99.2134 74.9094C100.042 75.8848 101.082 76.662 102.254 77.182C103.426 77.702 104.701 77.9521 105.984 77.9128C107.636 77.9402 109.245 77.3851 110.526 76.3458C112.061 77.4033 113.892 77.9521 115.758 77.9128C117.231 77.9332 118.673 77.4961 119.885 76.6613C122.112 77.5867 124.507 78.0421 126.919 77.9999C129.28 78.0245 131.601 77.3956 133.624 76.1827C134.839 75.4681 135.845 74.4492 136.542 73.2272C137.24 72.0059 137.604 70.6229 137.599 69.2172C137.614 67.6721 137.17 66.1572 136.322 64.8639C136.819 64.0031 137.083 63.0277 137.085 62.0342Z" fill="#21458E"/>
<path d="M138.135 60.8153C138.146 60.0332 137.999 59.2568 137.705 58.5317C137.411 57.8066 136.974 57.1474 136.421 56.5927C133.963 54.144 129.683 53.8828 127.946 53.8828C125.753 53.8476 123.585 54.3522 121.634 55.352V55.1343C121.647 54.247 121.478 53.3666 121.138 52.5466C120.797 51.7266 120.293 50.9843 119.655 50.365C119.018 49.7458 118.26 49.2626 117.428 48.9449C116.597 48.6272 115.71 48.4817 114.82 48.5173C113.926 48.4972 113.037 48.6542 112.205 48.9793C111.372 49.3044 110.613 49.791 109.971 50.411C108.648 49.158 106.881 48.4773 105.057 48.5173C104.172 48.4827 103.289 48.6296 102.464 48.9489C101.638 49.2681 100.888 49.753 100.258 50.3734C99.6283 50.9938 99.1329 51.7366 98.8036 52.5555C98.4735 53.3744 98.3159 54.2522 98.3407 55.1343V55.537C96.3449 54.4616 94.1117 53.8984 91.8424 53.8984C89.5739 53.8984 87.3407 54.4616 85.3449 55.537C84.8855 54.5059 84.2332 53.5713 83.4226 52.7835C82.3216 51.786 81.0325 51.0164 79.6304 50.5193C78.2276 50.0224 76.7407 49.808 75.2544 49.8886H68.986C68.1226 49.854 67.2614 49.9965 66.4558 50.3076C65.6501 50.6186 64.9173 51.0916 64.3028 51.6968C63.6883 52.302 63.2053 53.0268 62.8837 53.8259C62.5622 54.6251 62.4089 55.4817 62.4336 56.3424V70.1096C62.4325 70.9941 62.6119 71.8703 62.9608 72.6834C63.3098 73.4971 63.8209 74.2314 64.4633 74.8421C65.1057 75.4527 65.8659 75.927 66.6978 76.2362C67.5297 76.5447 68.4159 76.6825 69.3026 76.6396C70.2869 76.6614 71.265 76.4787 72.1746 76.1041C73.0848 75.7296 73.9067 75.1709 74.588 74.4626C75.2601 75.1773 76.0771 75.7408 76.9852 76.1161C77.8926 76.4913 78.87 76.6698 79.8516 76.6396C80.7279 76.6579 81.5993 76.5005 82.4135 76.1765C83.2276 75.8533 83.9682 75.3705 84.5915 74.757C86.7336 76.1688 89.253 76.9045 91.8212 76.868C94.593 76.9186 97.3039 76.0542 99.5308 74.4085C99.771 74.2125 100.023 74.0059 100.274 73.7662C101.102 74.7353 102.139 75.5047 103.307 76.0177C104.476 76.53 105.746 76.7724 107.023 76.7267C108.674 76.7513 110.282 76.1969 111.565 75.1597C113.117 76.225 114.968 76.7738 116.851 76.7267C118.324 76.7443 119.765 76.3072 120.979 75.4752C123.203 76.3957 125.593 76.8518 128.001 76.8139C130.366 76.8525 132.695 76.2341 134.728 75.029C135.943 74.308 136.947 73.2828 137.641 72.0552C138.334 70.8275 138.693 69.4399 138.681 68.0309C138.687 66.5042 138.243 65.0093 137.404 63.7321C137.904 62.8422 138.156 61.8352 138.135 60.8153Z" fill="url(#paint1_linear_15_19)"/>
<path d="M72.7315 66.6271V70.1097C72.7315 72.1886 70.9626 73.0698 69.3027 73.0698C68.8847 73.1092 68.4631 73.0621 68.064 72.9321C67.6649 72.8014 67.2969 72.5913 66.9827 72.3137C66.6684 72.0368 66.4146 71.6974 66.237 71.3187C66.0594 70.9392 65.9617 70.5281 65.9501 70.1097V56.3425C65.9302 55.9438 65.9959 55.5455 66.1427 55.1742C66.2894 54.8028 66.5139 54.467 66.8012 54.1889C67.0884 53.9108 67.4319 53.697 67.8087 53.5617C68.1854 53.4263 68.5868 53.3726 68.986 53.404H75.2545C80.5725 53.404 82.6912 56.3425 82.6912 59.7271C82.7032 60.6949 82.4778 61.651 82.034 62.5121C81.5908 63.3732 80.9428 64.1133 80.147 64.6681C81.7195 66.2353 82.9972 68.2813 82.9972 69.9138C83.029 70.33 82.9711 70.7474 82.8283 71.1395C82.6848 71.5316 82.4594 71.8893 82.1675 72.1879C81.8749 72.4859 81.5223 72.7192 81.1322 72.8716C80.7428 73.0234 80.3244 73.0909 79.9067 73.0698C79.1287 73.1366 78.3513 72.9433 77.6947 72.5224C77.0389 72.1008 76.5414 71.474 76.2813 70.7411C75.3965 68.7711 74.6757 67.5739 73.1032 66.6598L72.7315 66.6271ZM72.6227 61.8167H74.359C74.5859 61.8229 74.8113 61.7824 75.0219 61.6978C75.2318 61.6132 75.4226 61.4862 75.5817 61.3248C75.7407 61.1634 75.8643 60.9711 75.9449 60.7599C76.0262 60.5486 76.0622 60.323 76.0516 60.0971C76.0643 59.8728 76.0297 59.6483 75.9484 59.4384C75.8679 59.2285 75.7435 59.0381 75.5838 58.8797C75.4234 58.7213 75.2318 58.5986 75.0205 58.5195C74.8092 58.4405 74.5838 58.4069 74.359 58.4211H72.6227V61.8167Z" fill="white"/>
<path d="M91.8205 73.2981C88.0417 73.2981 83.5428 71.3615 83.5428 65.3428C83.5428 59.3243 88.0417 57.4198 91.8205 57.4198C95.5993 57.4198 100.088 59.3352 100.088 65.3428C100.088 71.3502 95.588 73.2981 91.8205 73.2981ZM91.8205 68.5642C92.7923 68.5642 93.5025 67.9112 93.5025 65.2993C93.5025 62.6873 92.7923 62.1105 91.8205 62.1105C90.8488 62.1105 90.1279 62.7417 90.1279 65.2993C90.1279 67.8568 90.9032 68.5642 91.8749 68.5642H91.8205Z" fill="white"/>
<path d="M101.857 55.1671C101.83 54.7453 101.895 54.3226 102.047 53.9281C102.2 53.5337 102.436 53.1769 102.741 52.8822C103.045 52.5875 103.409 52.3618 103.809 52.2209C104.209 52.0798 104.634 52.0268 105.057 52.0654C105.483 52.0245 105.913 52.0753 106.319 52.2143C106.724 52.3535 107.094 52.5776 107.404 52.8717C107.715 53.1658 107.959 53.5229 108.119 53.9189C108.279 54.3149 108.352 54.7405 108.333 55.1671V66.6598C108.31 66.8572 108.331 67.0574 108.395 67.2457C108.459 67.434 108.565 67.6055 108.704 67.7481C108.879 67.9223 109.218 68.0855 109.501 68.3684C110.016 68.9072 110.295 69.6274 110.276 70.3708C110.264 70.7783 110.167 71.1789 109.992 71.5471C109.818 71.916 109.57 72.2449 109.263 72.514C108.956 72.7838 108.597 72.9876 108.208 73.1127C107.818 73.2385 107.408 73.2828 107.001 73.2441C106.298 73.2842 105.595 73.1731 104.939 72.9188C104.283 72.6644 103.69 72.273 103.199 71.7705C102.709 71.2681 102.332 70.6666 102.095 70.0061C101.857 69.346 101.765 68.6427 101.824 67.944L101.857 55.1671Z" fill="white"/>
<path d="M111.608 55.1671C111.582 54.7443 111.647 54.3206 111.8 53.9253C111.953 53.5301 112.19 53.1726 112.495 52.8777C112.801 52.5828 113.167 52.3574 113.568 52.2171C113.969 52.0769 114.396 52.0252 114.819 52.0654C115.246 52.0245 115.676 52.0753 116.081 52.2143C116.486 52.3535 116.857 52.5776 117.167 52.8717C117.478 53.1658 117.722 53.5229 117.882 53.9189C118.042 54.3149 118.114 54.7405 118.095 55.1671V66.6598C118.073 66.8572 118.094 67.0574 118.158 67.2457C118.223 67.434 118.328 67.6056 118.467 67.7481C118.642 67.9222 118.98 68.0855 119.264 68.3684C119.521 68.6338 119.722 68.9477 119.854 69.2916C119.988 69.6355 120.051 70.0025 120.04 70.3708C120.028 70.779 119.932 71.1803 119.758 71.5492C119.584 71.9188 119.336 72.2484 119.029 72.5182C118.722 72.7874 118.362 72.9911 117.972 73.1162C117.582 73.2413 117.171 73.2849 116.763 73.2441C116.06 73.2856 115.355 73.1759 114.699 72.9223C114.042 72.6686 113.447 72.2772 112.955 71.7748C112.463 71.2723 112.086 70.6701 111.847 70.0089C111.609 69.3479 111.517 68.6437 111.576 67.944L111.608 55.1671Z" fill="white"/>
<path d="M127.946 57.4198C129.78 57.4198 132.608 57.7898 133.93 59.1067C134.152 59.3326 134.327 59.5997 134.445 59.8928C134.563 60.186 134.622 60.4995 134.618 60.8153C134.628 61.1036 134.577 61.3908 134.471 61.6589C134.364 61.9271 134.204 62.1707 133.999 62.3746C133.794 62.5786 133.55 62.7386 133.281 62.8448C133.011 62.951 132.724 63.0011 132.434 62.992C131.757 62.9805 131.089 62.8363 130.469 62.5676C129.737 62.2394 128.944 62.0723 128.142 62.0778C127.717 62.0778 127.487 62.2193 127.487 62.4479C127.487 62.6764 127.804 62.905 128.579 63.0464C130.469 63.3947 132.608 63.7865 134.04 65.1578C134.403 65.5435 134.686 65.9967 134.874 66.4916C135.061 66.9864 135.148 67.5131 135.131 68.0418C135.131 71.7424 131.386 73.3094 127.979 73.3094C126.067 73.3094 122.715 72.9391 121.339 71.5786C121.091 71.3376 120.897 71.0474 120.769 70.727C120.641 70.4065 120.582 70.0626 120.596 69.7178C120.587 69.4152 120.64 69.1139 120.754 68.8332C120.868 68.5524 121.039 68.2985 121.257 68.0875C121.475 67.8765 121.734 67.7131 122.02 67.6078C122.305 67.5025 122.608 67.4576 122.911 67.4759C123.761 67.541 124.593 67.7547 125.368 68.1071C126.122 68.4622 126.939 68.6656 127.771 68.7057C128.295 68.7057 128.634 68.5642 128.634 68.2813C128.634 67.9983 128.23 67.7044 127.378 67.563C125.433 67.3849 123.587 66.6263 122.081 65.3863C121.687 64.9952 121.377 64.5281 121.171 64.0134C120.964 63.4988 120.865 62.9475 120.88 62.3935C120.88 58.8237 124.495 57.4198 127.946 57.4198Z" fill="white"/>
<path d="M80.4841 64.3851C80.9209 64.0426 81.3103 63.6437 81.6417 63.1989C81.3039 63.6382 80.9152 64.0363 80.4841 64.3851Z" fill="#84D1EC"/>
<path d="M80.2 72.7979C79.4248 72.8478 78.6545 72.6426 78.0078 72.214C77.3605 71.7853 76.8728 71.1571 76.6184 70.4256C75.7336 68.4663 75.0241 67.2692 73.4516 66.355H73.0799V66.54H73.2983C74.8707 67.4542 75.581 68.6513 76.4658 70.621C76.7195 71.3532 77.2078 71.9814 77.8545 72.41C78.5018 72.8387 79.2721 73.0439 80.0474 72.994C80.5251 73.0066 80.9986 72.9083 81.4311 72.7066C81.8636 72.5042 82.2424 72.2034 82.5371 71.8296C82.2375 72.1451 81.8749 72.3939 81.4721 72.5611C81.0693 72.7277 80.6361 72.8085 80.2 72.7979Z" fill="#84D1EC"/>
<path d="M76.4446 59.8577C76.4601 59.633 76.4276 59.4075 76.3492 59.1963C76.2707 58.9851 76.147 58.7932 75.988 58.6333C75.829 58.4735 75.6368 58.3495 75.4255 58.2698C75.2142 58.19 74.988 58.1562 74.7626 58.1708H73.0149V58.3667H74.6092C74.8354 58.3521 75.0615 58.3859 75.2728 58.4657C75.4841 58.5455 75.6757 58.6694 75.8354 58.8292C75.9944 58.989 76.1174 59.181 76.1965 59.3921C76.275 59.6034 76.3075 59.8289 76.2912 60.0536C76.3011 60.4403 76.1909 60.8205 75.9746 61.1419C76.294 60.7916 76.4622 60.3305 76.4446 59.8577Z" fill="#84D1EC"/>
<path d="M69.6414 72.7979C69.2234 72.8352 68.8021 72.7867 68.4036 72.6553C68.005 72.5239 67.6378 72.3124 67.3246 72.0341C67.0114 71.7551 66.7588 71.4157 66.5826 71.0362C66.4062 70.6568 66.31 70.2449 66.2997 69.8267V56.0594C66.2768 55.4237 66.4607 54.7976 66.8239 54.2745C66.3564 54.8265 66.1147 55.5337 66.1469 56.2553V70.0225C66.1571 70.4411 66.2534 70.8521 66.4296 71.2323C66.606 71.6118 66.8585 71.9512 67.1718 72.2294C67.485 72.5084 67.8522 72.7199 68.2507 72.8513C68.6491 72.9827 69.0705 73.0312 69.4886 72.994C70.0383 73.0172 70.5861 72.9146 71.0898 72.6939C71.5937 72.4733 72.0396 72.1402 72.3937 71.7207C72.034 72.0791 71.6043 72.3601 71.1308 72.5456C70.6569 72.7312 70.1499 72.8169 69.6414 72.7979Z" fill="#84D1EC"/>
<path d="M93.9166 65.0707C93.9166 62.5022 93.1958 61.8819 92.2241 61.8819C91.993 61.8673 91.7619 61.9139 91.5548 62.0172C91.3477 62.1204 91.1718 62.2765 91.0446 62.4696C91.1739 62.3299 91.3308 62.219 91.506 62.1439C91.6806 62.069 91.87 62.0316 92.0601 62.0343C93.0325 62.0343 93.7527 62.6655 93.7527 65.2339C93.8333 66.1402 93.6516 67.0505 93.229 67.8568C93.7852 67.0401 94.0297 66.0515 93.9166 65.0707Z" fill="#84D1EC"/>
<path d="M92.1598 73.0262C88.3817 73.0262 83.8926 71.0888 83.8926 65.0707C83.817 63.2671 84.3555 61.491 85.422 60.0317C84.2432 61.5285 83.646 63.3989 83.74 65.2993C83.74 71.3067 88.2283 73.244 92.0071 73.244C93.275 73.3009 94.54 73.0698 95.7053 72.5687C96.8707 72.067 97.906 71.3081 98.7343 70.3489C97.8976 71.242 96.8764 71.944 95.7414 72.4064C94.6064 72.8681 93.3845 73.0796 92.1598 73.0262Z" fill="#84D1EC"/>
<path d="M107.382 72.9174C106.679 72.9574 105.976 72.8464 105.32 72.592C104.664 72.3376 104.07 71.9462 103.578 71.4445C103.086 70.9421 102.709 70.3406 102.47 69.6803C102.232 69.0202 102.138 68.3168 102.195 67.6174V54.8949C102.173 54.2105 102.368 53.5366 102.752 52.9686C102.264 53.5621 102.011 54.3133 102.042 55.08V67.8243C101.983 68.5244 102.076 69.229 102.314 69.8906C102.551 70.5521 102.929 71.155 103.42 71.6581C103.912 72.162 104.507 72.5541 105.164 72.8092C105.821 73.0635 106.526 73.1753 107.23 73.1352C107.758 73.1542 108.283 73.0453 108.761 72.8183C109.238 72.5906 109.654 72.2512 109.97 71.8296C109.642 72.1845 109.241 72.4648 108.794 72.6525C108.348 72.8401 107.866 72.9307 107.382 72.9174Z" fill="#84D1EC"/>
<path d="M117.134 72.9174C116.432 72.9574 115.729 72.8464 115.073 72.592C114.418 72.3384 113.824 71.9462 113.334 71.4438C112.842 70.9414 112.466 70.3399 112.228 69.6796C111.991 69.0194 111.899 68.3162 111.958 67.6175V54.8949C111.933 54.2117 112.124 53.538 112.504 52.9686C112.02 53.5637 111.771 54.3147 111.805 55.08V67.8243C111.746 68.5234 111.838 69.2271 112.076 69.8877C112.313 70.5486 112.69 71.1508 113.18 71.6539C113.671 72.1571 114.264 72.5499 114.919 72.8056C115.575 73.0607 116.278 73.1732 116.982 73.1352C117.511 73.15 118.037 73.0389 118.515 72.812C118.993 72.585 119.411 72.2484 119.734 71.8296C119.402 72.1831 118.999 72.4634 118.551 72.6511C118.102 72.8387 117.62 72.9293 117.134 72.9174Z" fill="#84D1EC"/>
<path d="M132.729 62.709C132.047 62.6991 131.374 62.5509 130.752 62.2736C130.022 61.9539 129.233 61.7907 128.437 61.7947C128.054 61.7947 127.836 61.9036 127.782 62.0886C127.938 62.013 128.11 61.9757 128.283 61.9798C129.082 61.9745 129.871 62.1415 130.599 62.4696C131.223 62.7383 131.895 62.8825 132.575 62.894C132.927 62.9061 133.277 62.8333 133.594 62.6816C133.912 62.5301 134.188 62.3042 134.399 62.0233C134.186 62.2498 133.926 62.4282 133.638 62.5464C133.35 62.6647 133.04 62.7201 132.729 62.709Z" fill="#84D1EC"/>
<path d="M128.296 73.0262C126.374 73.0262 123.032 72.6566 121.656 71.2849C121.408 71.046 121.214 70.7579 121.086 70.4389C120.958 70.1202 120.9 69.778 120.914 69.4348C120.908 68.9581 121.049 68.491 121.317 68.0962C120.951 68.5192 120.753 69.0612 120.76 69.6199C120.746 69.9648 120.804 70.3089 120.932 70.6293C121.06 70.9504 121.255 71.2407 121.503 71.481C122.869 72.8414 126.221 73.211 128.143 73.211C130.524 73.211 133.068 72.4493 134.389 70.7192C133.589 71.5035 132.635 72.1134 131.586 72.5104C130.537 72.9075 129.416 73.0831 128.296 73.0262Z" fill="#84D1EC"/>
<path d="M127.564 67.4759C128.426 67.6174 128.82 67.846 128.82 68.1942C128.825 68.223 128.825 68.2525 128.82 68.2813C128.87 68.2535 128.912 68.2124 128.941 68.1625C128.97 68.1126 128.984 68.0559 128.983 67.9983C128.983 67.6609 128.59 67.4323 127.727 67.2909C125.788 67.1035 123.948 66.3459 122.442 65.1143C122.045 64.7255 121.733 64.2587 121.526 63.7436C121.319 63.2284 121.222 62.676 121.24 62.1214C121.219 61.1847 121.515 60.2681 122.081 59.5203C121.412 60.2975 121.054 61.2934 121.077 62.3172C121.066 62.872 121.17 63.4231 121.383 63.9361C121.595 64.449 121.911 64.913 122.311 65.2992C123.809 66.5249 125.635 67.2822 127.564 67.4759Z" fill="#84D1EC"/>
<defs>
<linearGradient id="paint0_linear_15_19" x1="3.43968" y1="70.4143" x2="208.238" y2="-11.355" gradientUnits="userSpaceOnUse">
<stop stop-color="#FFF100"/>
<stop offset="0.13" stop-color="#EC1C24"/>
<stop offset="0.18" stop-color="#EC1A2D"/>
<stop offset="0.27" stop-color="#EC1345"/>
<stop offset="0.37" stop-color="#EB086D"/>
<stop offset="0.44" stop-color="#EB008B"/>
<stop offset="0.45" stop-color="#E2078F"/>
<stop offset="0.48" stop-color="#C91999"/>
<stop offset="0.5" stop-color="#A236AA"/>
<stop offset="0.54" stop-color="#6A5FC1"/>
<stop offset="0.57" stop-color="#2492DF"/>
<stop offset="0.59" stop-color="#00ADEE"/>
<stop offset="0.62" stop-color="#00ADEB"/>
<stop offset="0.64" stop-color="#00ACE0"/>
<stop offset="0.66" stop-color="#00ABCE"/>
<stop offset="0.68" stop-color="#00AAB5"/>
<stop offset="0.7" stop-color="#00A895"/>
<stop offset="0.72" stop-color="#00A66E"/>
<stop offset="0.73" stop-color="#00A551"/>
<stop offset="0.74" stop-color="#09A84E"/>
<stop offset="0.77" stop-color="#22AF46"/>
<stop offset="0.8" stop-color="#4ABB3A"/>
<stop offset="0.84" stop-color="#81CB28"/>
<stop offset="0.88" stop-color="#C7E012"/>
<stop offset="0.91" stop-color="#FFF100"/>
</linearGradient>
<linearGradient id="paint1_linear_15_19" x1="38.0151" y1="87.5772" x2="225.651" y2="12.6612" gradientUnits="userSpaceOnUse">
<stop stop-color="#FFF100"/>
<stop offset="0.13" stop-color="#EC1C24"/>
<stop offset="0.18" stop-color="#EC1A2D"/>
<stop offset="0.27" stop-color="#EC1345"/>
<stop offset="0.37" stop-color="#EB086D"/>
<stop offset="0.44" stop-color="#EB008B"/>
<stop offset="0.45" stop-color="#E2078F"/>
<stop offset="0.48" stop-color="#C91999"/>
<stop offset="0.5" stop-color="#A236AA"/>
<stop offset="0.54" stop-color="#6A5FC1"/>
<stop offset="0.57" stop-color="#2492DF"/>
<stop offset="0.59" stop-color="#00ADEE"/>
<stop offset="0.62" stop-color="#00ADEB"/>
<stop offset="0.64" stop-color="#00ACE0"/>
<stop offset="0.66" stop-color="#00ABCE"/>
<stop offset="0.68" stop-color="#00AAB5"/>
<stop offset="0.7" stop-color="#00A895"/>
<stop offset="0.72" stop-color="#00A66E"/>
<stop offset="0.73" stop-color="#00A551"/>
<stop offset="0.74" stop-color="#09A84E"/>
<stop offset="0.76" stop-color="#22AF46"/>
<stop offset="0.78" stop-color="#4ABB3A"/>
<stop offset="0.81" stop-color="#81CB28"/>
<stop offset="0.84" stop-color="#C7E012"/>
<stop offset="0.87" stop-color="#FFF100"/>
</linearGradient>
</defs>
</svg>
