<svg width="100" height="100" viewBox="0 0 100 100" fill="none" xmlns="http://www.w3.org/2000/svg">
<path d="M22.6514 44.578C24.0851 32.1799 29.1303 22.098 37.7415 14.0233C49.3926 3.11481 63.285 -1.92617 79.2372 0.671527C92.3402 2.806 99.0006 10.7444 99.0006 23.0971C99.0006 34.6414 91.7413 42.8886 79.2826 45.3955C69.2195 47.4119 59.1473 46.6671 49.0932 45.2683C40.3228 44.1765 31.4667 43.9453 22.6514 44.578Z" fill="#5C6EED"/>
<path d="M77.0229 55.4051C77.3587 59.9465 75.8342 63.7068 74.455 67.4671C66.4698 89.266 42.2148 103.481 20.4008 99.2571C7.688 96.6957 1.06393 89.0752 1.00041 76.877C0.936896 65.2963 8.178 57.0128 20.6004 54.4968C30.963 52.3896 41.3346 53.2525 51.6519 54.6875C60.0363 55.8502 68.4389 55.6503 77.0229 55.4051Z" fill="#5C6EED"/>
</svg>
