<svg width="100" height="100" viewBox="0 0 100 100" fill="none" xmlns="http://www.w3.org/2000/svg">
<path d="M100 0H0V100H100V0Z" fill="#EFD96F"/>
<path d="M70.9099 36.335C59.4999 36.335 50.1049 45.5 41.6249 53.105C39.0315 50.8404 36.5973 48.3996 34.3399 45.8C34.2701 45.694 34.1643 45.6168 34.0421 45.5828C33.9198 45.5488 33.7894 45.5602 33.6749 45.615C33.5832 45.6911 33.5247 45.7999 33.5117 45.9183C33.4986 46.0368 33.532 46.1557 33.6049 46.25C35.5499 48.675 38.1799 51.53 40.6049 54C36.0549 58.325 29.1049 63.5 23.5199 63.5C12.2199 63.5 12.1749 47.835 22.0599 44.92C22.5099 44.795 22.5199 44.29 22.0599 44.42C9.08988 47.6 9.81988 65.86 23.7849 65.86C30.4399 65.86 36.5549 61.415 42.6749 56.18C49.3199 62.18 57.7449 67.09 68.5099 67.09C95.8949 67.045 95.1199 36.335 70.9099 36.335ZM68.3049 64.71C59.6699 64.66 51.2349 60.845 43.9199 55.1C52.2899 47.825 60.7399 39.525 70.6849 39.525C90.0299 39.525 90.5749 64.83 68.3049 64.705V64.71Z" fill="#333333"/>
<path d="M27.9502 45.5947C29.491 45.5947 30.7402 44.3455 30.7402 42.8046C30.7402 41.2638 29.491 40.0146 27.9502 40.0146C26.4093 40.0146 25.1602 41.2638 25.1602 42.8046C25.1602 44.3455 26.4093 45.5947 27.9502 45.5947Z" fill="#333333"/>
</svg>
