<svg width="200" height="200" viewBox="0 0 100 100" fill="none" xmlns="http://www.w3.org/2000/svg">
<g clip-path="url(#clip0_1140_49583)">
<path d="M42.0766 4.82748V5.32258L42.5175 5.54265L42.9584 5.32258V4.82748L42.5175 4.60742L42.0766 4.82748ZM48.9658 34.0398V35.2501L50.013 35.8552L51.0601 35.2501V34.0398L50.013 33.4347L48.9658 34.0398ZM41.1396 15.3351V14.5099L41.8561 14.0698L42.5726 14.5099V15.3351L41.8561 15.7752L41.1396 15.3351ZM67.0431 64.7375V66.773L68.8068 67.7632L70.5704 66.773V64.7375L68.8068 63.7472L67.0431 64.7375ZM62.3584 54.2849V52.4694L63.9016 51.5892L65.4449 52.4694V54.2849L63.9016 55.1651L62.3584 54.2849ZM55.3039 42.2918V43.8322L56.6266 44.6024L57.9493 43.8322V42.2918L56.6266 41.5216L55.3039 42.2918ZM43.5095 25.2375V24.1373L44.4465 23.5871L45.3834 24.1373V25.2375L44.4465 25.7877L43.5095 25.2375ZM67.0431 77.1708V77.7756L67.5391 78.0508L68.0352 77.7756V77.1708L67.5391 76.8956L67.0431 77.1708Z" fill="url(#paint0_linear_1140_49583)"/>
<path d="M63.0742 85.7535V85.368L63.4049 85.2031L63.7356 85.368V85.7535L63.4049 85.9183L63.0742 85.7535Z" fill="url(#paint1_linear_1140_49583)"/>
<path d="M30.778 16.766V17.2611L31.2189 17.4811L31.6598 17.2611V16.766L31.2189 16.5459L30.778 16.766ZM49.9025 82.5623V83.0575L50.3434 83.2775L50.7843 83.0575V82.5623L50.3434 82.3423L49.9025 82.5623ZM48.0287 74.8058V73.8706L48.8553 73.3754L49.6821 73.8706V74.8058L48.8553 75.3009L48.0287 74.8058ZM43.1786 64.4079V65.8382L44.4462 66.5534L45.7138 65.8382V64.4079L44.4462 63.6927L43.1786 64.4079ZM37.6121 57.1461V55.4957L39.0451 54.6705L40.4781 55.4957V57.1461L39.0451 57.9713L37.6121 57.1461ZM32.707 46.2534V48.1788L34.3604 49.114L36.0138 48.1788V46.2534L34.3604 45.3181L32.707 46.2534ZM29.6758 37.6162V36.4059L30.7229 35.8007L31.77 36.4059V37.6162L30.7229 38.2213L29.6758 37.6162ZM29.1797 25.7882V26.6134L29.8962 27.0536L30.6127 26.6134V25.7882L29.8962 25.3481L29.1797 25.7882Z" fill="url(#paint2_linear_1140_49583)"/>
<path d="M17.1096 37.6712V38.1663L17.5505 38.3864L17.9914 38.1663V37.6712L17.5505 37.4512L17.1096 37.6712ZM16.4482 45.7583V46.5835L17.1647 47.0236L17.8812 46.5835V45.7583L17.1647 45.3181L16.4482 45.7583ZM16.834 55.7708V54.5605L17.8812 53.9553L18.9284 54.5605V55.7708L17.8812 56.3759L16.834 55.7708ZM18.8181 62.3724V64.1879L20.3613 65.0681L21.9045 64.1879V62.3724L20.3613 61.4922L18.8181 62.3724ZM23.3375 71.3396V69.799L24.6602 69.0293L25.9829 69.799V71.3396L24.6602 72.11L23.3375 71.3396ZM29.0142 76.841V78.0514L30.0613 78.6562L31.1085 78.0514V76.841L30.0613 76.2362L29.0142 76.841ZM35.0767 83.3879V82.5624L35.7932 82.1224L36.5097 82.5624V83.3879L35.7932 83.8279L35.0767 83.3879ZM40.3676 88.2838V88.6693L40.6983 88.8341L41.029 88.6693V88.2838L40.6983 88.1189L40.3676 88.2838Z" fill="url(#paint3_linear_1140_49583)"/>
<path d="M51.1699 0.976891V1.47202L51.6108 1.69207L52.0517 1.47202V0.976891L51.6108 0.756836L51.1699 0.976891ZM53.5398 9.44898V10.2742L54.2563 10.7144L54.9728 10.2742V9.44898L54.2563 9.00891L53.5398 9.44898ZM57.4528 18.6913V17.1509L58.7756 16.3808L60.0983 17.1509V18.6913L58.7756 19.4615L57.4528 18.6913ZM64.4523 24.8528V26.8884L66.216 27.8786L67.9796 26.8884V24.8528L66.216 23.8626L64.4523 24.8528ZM72.8296 34.5903V33.27L73.987 32.6098L75.1444 33.27V34.5903L73.987 35.2504L72.8296 34.5903ZM79.1675 40.3668V40.9169L79.6636 41.192L80.1596 40.9169V40.3668L79.6636 40.0917L79.1675 40.3668Z" fill="url(#paint4_linear_1140_49583)"/>
<path d="M47.3674 -1.99398C46.9816 -2.04899 46.6509 -1.71891 46.5958 -1.33381C43.289 13.2448 44.6117 24.1926 62.7992 42.8972C88.1517 68.9738 66.9879 88.9435 55.9101 96.0959C55.7447 96.2055 55.4691 96.5359 55.6344 96.9759C55.7998 97.471 56.2959 97.471 56.4612 97.471C81.8133 91.3097 98.1271 61.2719 73.1607 38.9912C59.3822 26.6682 48.9106 19.2963 48.0288 -1.16877C48.0288 -1.60888 47.7532 -1.93897 47.3674 -1.99398Z" fill="url(#paint5_linear_1140_49583)"/>
<path d="M40.8089 0.206643C40.4783 -0.0134121 40.0373 0.151629 39.8169 0.481712C29.1248 17.2609 31.2742 34.8653 41.4703 48.7288C59.6028 73.3201 54.0914 89.3291 49.8476 96.7008C49.7374 96.8656 49.6271 97.3056 49.9578 97.5808C50.2885 97.9111 50.7294 97.7463 50.8948 97.636C63.1851 87.6787 69.6335 67.5987 52.9891 45.428C43.8953 33.3249 33.5891 23.2024 41.1396 1.14187C41.2499 0.866809 41.1396 0.426698 40.8089 0.206643Z" fill="url(#paint6_linear_1140_49583)"/>
<path d="M32.4308 6.75335C32.1001 6.53328 31.6593 6.69832 31.4388 6.97342C18.928 24.7978 17.7155 43.6676 23.1166 58.3562C30.7223 76.456 45.2723 85.2029 46.2644 96.9208C46.3195 97.196 46.4297 97.6911 46.9809 97.6911C47.532 97.6911 47.6974 97.2511 47.7525 97.0311C49.957 79.1511 38.9343 67.3235 33.4229 57.421C26.699 44.2177 22.5655 29.7491 32.7616 7.63356C32.8166 7.35845 32.7064 6.91838 32.4308 6.75335Z" fill="url(#paint7_linear_1140_49583)"/>
<path d="M42.5722 96.37C42.7927 97.0852 42.1314 97.6907 41.4149 97.5804C28.1324 95.2148 10 85.0376 10 60.1712C10 53.0744 11.6534 46.1427 13.5824 40.0912C13.6926 39.7061 14.0784 39.431 14.4642 39.541C14.7949 39.5961 15.0705 39.9261 15.0154 40.3112C12.9761 54.2297 14.2989 70.1838 26.8097 80.2514C35.0768 86.9079 40.9739 90.8686 42.5722 96.37Z" fill="url(#paint8_linear_1140_49583)"/>
<path d="M65.6646 17.976C59.3816 10.9343 56.1299 4.49763 55.193 0.591655C55.0827 0.206559 55.4685 -0.178538 55.8543 -0.0134963C66.2157 4.33259 76.0811 19.6264 81.6476 35.5804C81.7029 35.6904 81.7029 36.1305 81.2621 36.2405C80.9311 36.3506 80.6554 36.0755 80.6002 35.9655C77.6242 29.6389 71.8373 24.8528 65.6646 17.976Z" fill="url(#paint9_linear_1140_49583)"/>
</g>
<defs>
<linearGradient id="paint0_linear_1140_49583" x1="55.855" y1="25.5018" x2="55.855" y2="78.1308" gradientUnits="userSpaceOnUse">
<stop stop-color="#67DE69"/>
<stop offset="1" stop-color="#0047B0"/>
</linearGradient>
<linearGradient id="paint1_linear_1140_49583" x1="63.4049" y1="25.5023" x2="63.4049" y2="78.1314" gradientUnits="userSpaceOnUse">
<stop stop-color="#67DE69"/>
<stop offset="1" stop-color="#0047B0"/>
</linearGradient>
<linearGradient id="paint2_linear_1140_49583" x1="39.9821" y1="35.3747" x2="39.9821" y2="83.2678" gradientUnits="userSpaceOnUse">
<stop stop-color="#67DE69"/>
<stop offset="1" stop-color="#0047B0"/>
</linearGradient>
<linearGradient id="paint3_linear_1140_49583" x1="28.7386" y1="52.3359" x2="28.7386" y2="88.8169" gradientUnits="userSpaceOnUse">
<stop stop-color="#67DE69"/>
<stop offset="1" stop-color="#0047B0"/>
</linearGradient>
<linearGradient id="paint4_linear_1140_49583" x1="65.6648" y1="12.3635" x2="65.6648" y2="41.9114" gradientUnits="userSpaceOnUse">
<stop stop-color="#67DE69"/>
<stop offset="1" stop-color="#0047B0"/>
</linearGradient>
<linearGradient id="paint5_linear_1140_49583" x1="65.3786" y1="26.3774" x2="65.3786" y2="97.729" gradientUnits="userSpaceOnUse">
<stop stop-color="#67DE69"/>
<stop offset="1" stop-color="#0047B0"/>
</linearGradient>
<linearGradient id="paint6_linear_1140_49583" x1="47.8843" y1="27.2046" x2="47.8843" y2="95.9711" gradientUnits="userSpaceOnUse">
<stop stop-color="#67DE69"/>
<stop offset="1" stop-color="#0047B0"/>
</linearGradient>
<linearGradient id="paint7_linear_1140_49583" x1="34.0566" y1="31.4585" x2="34.0566" y2="94.4366" gradientUnits="userSpaceOnUse">
<stop stop-color="#67DE69"/>
<stop offset="1" stop-color="#0047B0"/>
</linearGradient>
<linearGradient id="paint8_linear_1140_49583" x1="26.2926" y1="55.9891" x2="26.2926" y2="97.8073" gradientUnits="userSpaceOnUse">
<stop stop-color="#67DE69"/>
<stop offset="1" stop-color="#0047B0"/>
</linearGradient>
<linearGradient id="paint9_linear_1140_49583" x1="68.1825" y1="9.84599" x2="68.9315" y2="36.617" gradientUnits="userSpaceOnUse">
<stop stop-color="#67DE69"/>
<stop offset="1" stop-color="#0047B0"/>
</linearGradient>
<clipPath id="clip0_1140_49583">
<rect width="100" height="100" fill="white"/>
</clipPath>
</defs>
</svg>
