<svg xmlns="http://www.w3.org/2000/svg" viewBox="0 0 534.15 455.95"><defs><style>.cls-1{fill:#231f20;}.cls-2{fill:#fff;}.cls-3{fill:none;stroke:#231f20;stroke-miterlimit:10;stroke-width:2px;}</style></defs><title>whg</title><g id="Layer_2" data-name="Layer 2"><g id="Layer_2-2" data-name="Layer 2"><path class="cls-1" d="M424.5,146.7s11.55,49.29,9,65.67C412.83,345,124.83,404,95.5,290.7c-4.94-19.09-4.88-56.36-4.88-56.36C111.66,348.39,419,272.43,424.5,146.7Z"/><path class="cls-2" d="M424.5,146.7c-3.62-26.44-24-44.33-23.33-65,257.66,83.67,62.64,259.64,40,277.67C141.83,597.7-164.89,339.28,105,139.23,89,179.59,89.5,220,89.5,220a71.37,71.37,0,0,0,1.12,14.31s-.06,37.27,4.88,56.36C124.83,404,412.83,345,433.5,212.37,436,196,424.5,146.7,424.5,146.7Z"/><path class="cls-2" d="M401.17,81.7c-.67,20.67,19.71,38.56,23.33,65C419,272.43,111.66,348.39,90.62,234.34A71.37,71.37,0,0,1,89.5,220S89,179.59,105,139.23A444.86,444.86,0,0,1,128.25,84h0c-32.66,85.91-6.1,89.38,3.57,78.07C193,90.56,357.46,37.24,357.5,12.24a65.8,65.8,0,0,1,8,3.13C390.27,27.15,401.17,81.7,401.17,81.7Z"/><path class="cls-2" d="M284.83,1.37c10.68.89,49.1,3.13,72.67,10.87,0,25-164.51,78.32-225.67,149.79-9.67,11.31-36.23,7.84-3.57-78.07h0c10.27-20.21,23.34-41,37.92-52.93C205.28-.88,272.83.37,284.83,1.37Z"/><path class="cls-3" d="M401.17,81.7c257.66,83.67,62.64,259.64,40,277.67C141.83,597.7-164.89,339.28,105,139.23A444.86,444.86,0,0,1,128.25,84c10.27-20.21,23.34-41,37.92-52.93C205.28-.88,272.83.37,284.83,1.37c10.68.89,49.1,3.13,72.67,10.87a65.8,65.8,0,0,1,8,3.13C390.27,27.15,401.17,81.7,401.17,81.7Z"/><path class="cls-3" d="M128.26,84c-32.66,85.91-6.1,89.38,3.57,78.07C193,90.56,357.46,37.24,357.5,12.24h0"/><path class="cls-3" d="M105,139.23C89,179.59,89.5,220,89.5,220a71.37,71.37,0,0,0,1.12,14.31c21,114,328.43,38.09,333.88-87.64,0,0,11.55,49.29,9,65.67C412.83,345,124.83,404,95.5,290.7c-4.94-19.09-4.88-56.36-4.88-56.36"/><path class="cls-3" d="M401.17,81.7c-.67,20.67,19.71,38.56,23.33,65"/></g></g></svg>