<svg width="173" height="173" viewBox="0 0 173 173" fill="none" xmlns="http://www.w3.org/2000/svg">
<path d="M86.5001 0C72.8464 0.00584783 59.7536 5.43235 50.099 15.087C40.4443 24.7416 35.0178 37.8344 35.012 51.4881V70.0238H6.17868C5.96429 70.0128 5.74947 70.0128 5.53508 70.0238C4.01017 70.1818 2.59907 70.9031 1.57785 72.0466C0.553346 73.1874 -0.00918084 74.6691 0.000113358 76.2024V166.821C-0.000145387 167.633 0.159527 168.436 0.470003 169.186C0.780479 169.936 1.23567 170.617 1.80955 171.191C2.38321 171.764 3.06435 172.22 3.81404 172.53C4.56372 172.841 5.36725 173 6.17868 173H166.821C168.46 173 170.032 172.349 171.19 171.19C172.349 170.032 173 168.46 173 166.821V76.2024C173 74.5637 172.349 72.9922 171.19 71.8335C170.032 70.6748 168.46 70.0238 166.821 70.0238H137.988V51.4881C137.982 37.8344 132.556 24.7416 122.901 15.087C113.247 5.43235 100.154 0.00584783 86.5001 0ZM86.5001 12.3571C91.647 12.3279 96.7486 13.32 101.509 15.2762C106.27 17.2323 110.596 20.1136 114.235 23.7531C117.875 27.3926 120.756 31.718 122.712 36.4788C124.668 41.2396 125.66 46.3412 125.631 51.4881V70.0238H47.3691V51.4881C47.3399 46.3412 48.332 41.2396 50.2882 36.4788C52.2443 31.718 55.1256 27.3926 58.7651 23.7531C62.4045 20.1136 66.7299 17.2323 71.4907 15.2762C76.2515 13.32 81.3531 12.3279 86.5001 12.3571V12.3571ZM12.3572 82.381H160.643V160.643H12.3572V82.381Z" fill="#FFBF56"/>
<path d="M106.437 121.159C106.394 121.738 106.377 122.321 106.304 122.895C105.524 128.997 102.644 133.88 97.6093 137.449C93.8482 140.115 89.6103 141.353 85.0004 141.182C79.6697 140.985 75.0812 138.998 71.2417 135.315C71.2063 135.281 71.2077 135.146 71.2425 135.11C76.0689 130.33 80.8998 125.555 85.7352 120.785C85.8495 120.681 85.9971 120.622 86.1514 120.617C92.9144 120.626 99.6773 120.641 106.44 120.663L106.437 121.159Z" fill="#FED670"/>
<path d="M86.3283 99.9984C86.8967 100.043 87.4663 100.069 88.0326 100.132C91.3489 100.499 94.4001 101.597 97.1861 103.426C97.205 103.441 97.2231 103.456 97.2403 103.472L95.4674 105.221C95.0815 105.602 94.6981 105.986 94.3077 106.361C94.283 106.377 94.2549 106.387 94.2257 106.389C94.1965 106.392 94.1672 106.387 94.1403 106.376C91.3345 104.758 88.3104 104.009 85.0678 104.13C77.8132 104.402 71.4694 109.498 69.7021 116.505C68.6081 120.847 69.1905 124.975 71.3917 128.877C71.4127 128.914 71.4135 128.995 71.388 129.019C70.4218 129.981 69.4523 130.941 68.4794 131.899C68.47 131.908 68.4582 131.916 68.4361 131.933C68.3454 131.792 68.2542 131.656 68.1684 131.517C65.793 127.664 64.7544 123.48 65.114 118.968C65.8635 109.589 72.9095 101.922 82.2508 100.314C83.1953 100.152 84.1607 100.112 85.1161 100.016L85.3112 99.9957L86.3283 99.9984Z" fill="#FED670"/>
<path d="M96.7616 112.456C96.7667 111.6 97.0699 110.771 97.6196 110.111C98.1693 109.451 98.9315 109 99.7766 108.836C100.622 108.673 101.497 108.805 102.254 109.212C103.012 109.618 103.603 110.273 103.929 111.066C104.255 111.858 104.295 112.739 104.042 113.558C103.789 114.377 103.258 115.084 102.541 115.559C101.823 116.033 100.963 116.245 100.107 116.16C99.2507 116.074 98.451 115.696 97.8442 115.089C97.4986 114.743 97.2251 114.332 97.0393 113.88C96.8535 113.429 96.7592 112.945 96.7616 112.456Z" fill="#FED670"/>
</svg>
