<svg width="173" height="173" viewBox="0 0 173 173" fill="none" xmlns="http://www.w3.org/2000/svg">
<path d="M86.4861 -2.02921e-05C66.4479 -0.0194502 47.0232 6.91112 31.5229 19.6104C16.0226 32.3096 5.40627 49.9914 1.48345 69.6418C-2.43938 89.2923 0.574138 109.695 10.0103 127.372C19.4465 145.05 34.7213 158.907 53.231 166.583C71.7407 174.259 92.3396 175.278 111.517 169.467C130.693 163.655 147.261 151.373 158.396 134.713C169.531 118.053 174.544 98.0475 172.579 78.1059C170.615 58.1642 161.796 39.5209 147.624 25.3538C131.413 9.13055 109.421 0.010697 86.4861 -2.02921e-05ZM86.4861 158.336C72.9085 158.341 59.6081 154.495 48.1283 147.244C36.6485 139.994 27.46 129.637 21.6291 117.376C15.7983 105.114 13.5641 91.45 15.1859 77.9696C16.8076 64.4892 22.2189 51.7451 30.7917 41.2162L131.781 142.205C118.999 152.653 102.994 158.353 86.4861 158.336ZM142.193 131.802L41.1915 30.8133C54.9751 19.6061 72.4247 13.9077 90.1661 14.8198C107.908 15.7319 124.681 23.1898 137.242 35.7515C149.804 48.3132 157.262 65.0863 158.174 82.8277C159.086 100.569 153.388 118.019 142.18 131.802H142.193Z" fill="#FFCD7A"/>
</svg>
