<svg width="173" height="148" viewBox="0 0 173 148" fill="none" xmlns="http://www.w3.org/2000/svg">
<g clip-path="url(#clip0_4136_109709)">
<path d="M26.3774 21.2839C26.3774 22.1834 26.1107 23.0627 25.611 23.8106C25.1113 24.5585 24.401 25.1414 23.57 25.4856C22.739 25.8298 21.8245 25.9199 20.9423 25.7444C20.0601 25.5689 19.2498 25.1358 18.6138 24.4997C17.9777 23.8637 17.5446 23.0534 17.3691 22.1712C17.1936 21.289 17.2837 20.3746 17.6279 19.5435C17.9721 18.7125 18.555 18.0023 19.3029 17.5025C20.0508 17.0028 20.9301 16.7361 21.8296 16.7361C23.0357 16.7361 24.1925 17.2152 25.0454 18.0681C25.8983 18.921 26.3774 20.0778 26.3774 21.2839Z" fill="#FFCD7A"/>
<path d="M39.6572 21.2839C39.6572 22.1834 39.3905 23.0627 38.8908 23.8106C38.391 24.5585 37.6808 25.1414 36.8498 25.4856C36.0187 25.8298 35.1043 25.9199 34.2221 25.7444C33.3399 25.5689 32.5296 25.1358 31.8936 24.4997C31.2575 23.8637 30.8244 23.0534 30.6489 22.1712C30.4734 21.289 30.5635 20.3746 30.9077 19.5435C31.2519 18.7125 31.8348 18.0023 32.5827 17.5025C33.3306 17.0028 34.2099 16.7361 35.1094 16.7361C36.3155 16.7361 37.4723 17.2152 38.3252 18.0681C39.1781 18.921 39.6572 20.0778 39.6572 21.2839Z" fill="#FFCD7A"/>
<path d="M52.7549 21.2839C52.7549 22.1834 52.4881 23.0627 51.9884 23.8106C51.4887 24.5585 50.7784 25.1414 49.9474 25.4856C49.1164 25.8298 48.202 25.9199 47.3198 25.7444C46.4376 25.5689 45.6272 25.1358 44.9912 24.4997C44.3552 23.8637 43.922 23.0534 43.7466 22.1712C43.5711 21.289 43.6611 20.3746 44.0054 19.5435C44.3496 18.7125 44.9325 18.0023 45.6804 17.5025C46.4283 17.0028 47.3075 16.7361 48.207 16.7361C49.4132 16.7361 50.57 17.2152 51.4228 18.0681C52.2757 18.921 52.7549 20.0778 52.7549 21.2839Z" fill="#FFCD7A"/>
<path d="M160.799 -3.28157e-05H12.0193C10.44 -0.00345877 8.87549 0.305091 7.4157 0.907904C5.9559 1.51072 4.62954 2.39592 3.51276 3.5127C2.39598 4.62948 1.51078 5.95584 0.907965 7.41563C0.305152 8.87543 -0.00339774 10.4399 2.82195e-05 12.0193V135.526C-0.00339774 137.105 0.305152 138.67 0.907965 140.129C1.51078 141.589 2.39598 142.916 3.51276 144.032C4.62954 145.149 5.9559 146.034 7.4157 146.637C8.87549 147.24 10.44 147.548 12.0193 147.545H160.994C162.573 147.548 164.138 147.24 165.597 146.637C167.057 146.034 168.384 145.149 169.5 144.032C170.617 142.916 171.502 141.589 172.105 140.129C172.708 138.67 173.016 137.105 173.013 135.526V12.0063C172.818 5.45738 167.543 -3.28157e-05 160.799 -3.28157e-05ZM12.0193 9.27757H160.994C161.712 9.29489 162.396 9.58793 162.904 10.096C163.412 10.604 163.705 11.288 163.722 12.0063V33.2902H9.27763V12.0063C9.29495 11.288 9.58799 10.604 10.096 10.096C10.604 9.58793 11.2881 9.29489 12.0063 9.27757H12.0193ZM160.799 138.073H12.0193C11.3011 138.055 10.617 137.762 10.109 137.254C9.60099 136.746 9.30794 136.062 9.29063 135.344V42.3859H163.541V135.344C163.523 136.062 163.23 136.746 162.722 137.254C162.214 137.762 161.53 138.055 160.812 138.073H160.799Z" fill="#FFCD7A"/>
<path d="M61.6688 85.3176L66.7624 80.224L71.856 85.3176C72.7498 86.1366 73.9181 86.591 75.1304 86.591C76.3428 86.591 77.5111 86.1366 78.4049 85.3176C78.837 84.8888 79.18 84.3787 79.4141 83.8167C79.6482 83.2547 79.7687 82.6519 79.7687 82.0431C79.7687 81.4344 79.6482 80.8316 79.4141 80.2696C79.18 79.7076 78.837 79.1975 78.4049 78.7687L73.3113 73.6751L78.4049 68.5815C79.2367 67.7057 79.6936 66.5396 79.678 65.3318C79.6625 64.124 79.1757 62.97 78.3216 62.1159C77.4675 61.2617 76.3135 60.775 75.1057 60.7595C73.8979 60.7439 72.7318 61.2008 71.856 62.0326L66.7624 67.1262L61.6688 62.0326C60.793 61.2008 59.6269 60.7439 58.4191 60.7595C57.2112 60.775 56.0573 61.2617 55.2032 62.1159C54.349 62.97 53.8623 64.124 53.8468 65.3318C53.8312 66.5396 54.2881 67.7057 55.1199 68.5815L60.2135 73.6751L55.1199 78.7687C54.6878 79.1975 54.3448 79.7076 54.1107 80.2696C53.8766 80.8316 53.7561 81.4344 53.7561 82.0431C53.7561 82.6519 53.8766 83.2547 54.1107 83.8167C54.3448 84.3787 54.6878 84.8888 55.1199 85.3176C56.0137 86.1366 57.182 86.591 58.3944 86.591C59.6067 86.591 60.775 86.1366 61.6688 85.3176Z" fill="#FFCD7A"/>
<path d="M117.698 62.2145C117.27 61.7824 116.759 61.4394 116.197 61.2053C115.635 60.9712 115.033 60.8507 114.424 60.8507C113.815 60.8507 113.212 60.9712 112.65 61.2053C112.088 61.4394 111.578 61.7824 111.149 62.2145L106.056 67.3081L100.962 62.2145C100.086 61.3827 98.9203 60.9258 97.7125 60.9414C96.5047 60.9569 95.3507 61.4436 94.4966 62.2978C93.6425 63.1519 93.1558 64.3059 93.1402 65.5137C93.1247 66.7215 93.5815 67.8876 94.4134 68.7634L99.507 73.857L94.4134 78.9506C93.9812 79.3794 93.6382 79.8895 93.4041 80.4515C93.1701 81.0135 93.0496 81.6163 93.0496 82.225C93.0496 82.8338 93.1701 83.4366 93.4041 83.9986C93.6382 84.5606 93.9812 85.0707 94.4134 85.4995C95.3072 86.3185 96.4755 86.7729 97.6878 86.7729C98.9001 86.7729 100.068 86.3185 100.962 85.4995L106.056 80.4059L111.149 85.4995C112.043 86.3183 113.21 86.7726 114.422 86.7726C115.634 86.7726 116.802 86.3183 117.695 85.4995C118.127 85.0707 118.47 84.5606 118.704 83.9986C118.938 83.4366 119.059 82.8338 119.059 82.225C119.059 81.6163 118.938 81.0135 118.704 80.4515C118.47 79.8895 118.127 79.3794 117.695 78.9506L112.605 73.6751L117.698 68.5815C119.517 66.9573 119.517 64.0337 117.698 62.2145Z" fill="#FFCD7A"/>
<path d="M86.4091 94.4132C80.276 94.4303 74.2797 96.227 69.1478 99.5853C64.0158 102.944 59.9688 107.719 57.4977 113.332C57.2589 113.882 57.1305 114.473 57.1201 115.072C57.1096 115.671 57.2173 116.266 57.4369 116.824C57.6565 117.381 57.9837 117.89 58.3999 118.321C58.8162 118.752 59.3132 119.097 59.8626 119.335C60.4121 119.574 61.0032 119.703 61.6022 119.713C62.2013 119.723 62.7965 119.616 63.354 119.396C63.9114 119.177 64.4202 118.849 64.8511 118.433C65.2821 118.017 65.6269 117.52 65.8658 116.971C67.5477 112.98 70.3691 109.575 73.977 107.18C77.5849 104.786 81.819 103.508 86.1492 103.508C90.4794 103.508 94.7134 104.786 98.3213 107.18C101.929 109.575 104.751 112.98 106.433 116.971C106.781 117.789 107.365 118.485 108.11 118.971C108.855 119.456 109.727 119.71 110.617 119.699C111.238 119.667 111.851 119.543 112.436 119.332C114.801 118.241 115.892 115.697 114.801 113.329C110.253 101.872 98.9741 94.4132 86.4221 94.4132H86.4091Z" fill="#FFCD7A"/>
</g>
<defs>
<clipPath id="clip0_4136_109709">
<rect width="173" height="147.532" fill="white"/>
</clipPath>
</defs>
</svg>
