<svg width="173" height="174" viewBox="0 0 173 174" fill="none" xmlns="http://www.w3.org/2000/svg">
<path fill-rule="evenodd" clip-rule="evenodd" d="M139.728 145.551C139.282 145.551 138.841 145.639 138.43 145.81C138.019 145.981 137.645 146.232 137.331 146.548C137.017 146.864 136.769 147.238 136.6 147.65C136.431 148.063 136.346 148.504 136.348 148.95V153.027C136.348 153.924 136.704 154.783 137.338 155.417C137.972 156.051 138.831 156.407 139.728 156.407C140.624 156.407 141.484 156.051 142.118 155.417C142.751 154.783 143.108 153.924 143.108 153.027V148.934C143.11 148.489 143.024 148.047 142.856 147.635C142.687 147.223 142.438 146.848 142.124 146.532C141.81 146.216 141.437 145.966 141.025 145.795C140.614 145.624 140.173 145.536 139.728 145.536V145.551ZM35.1907 125.387H17.5197C17.067 125.373 16.6162 125.451 16.194 125.615C15.7719 125.778 15.3868 126.025 15.0618 126.341C14.7368 126.656 14.4784 127.033 14.302 127.45C14.1255 127.867 14.0346 128.316 14.0346 128.768C14.0346 129.221 14.1255 129.669 14.302 130.087C14.4784 130.504 14.7368 130.881 15.0618 131.196C15.3868 131.512 15.7719 131.758 16.194 131.922C16.6162 132.086 17.067 132.163 17.5197 132.15H35.1907C36.0698 132.123 36.9039 131.755 37.5164 131.124C38.1288 130.493 38.4713 129.648 38.4713 128.768C38.4713 127.889 38.1288 127.044 37.5164 126.413C36.9039 125.782 36.0698 125.414 35.1907 125.387ZM63.4643 125.387H45.7933C44.9142 125.414 44.08 125.782 43.4676 126.413C42.8552 127.044 42.5127 127.889 42.5127 128.768C42.5127 129.648 42.8552 130.493 43.4676 131.124C44.08 131.755 44.9142 132.123 45.7933 132.15H63.4643C63.917 132.163 64.3677 132.086 64.7899 131.922C65.2121 131.758 65.5971 131.512 65.9221 131.196C66.2472 130.881 66.5056 130.504 66.682 130.087C66.8585 129.669 66.9494 129.221 66.9494 128.768C66.9494 128.316 66.8585 127.867 66.682 127.45C66.5056 127.033 66.2472 126.656 65.9221 126.341C65.5971 126.025 65.2121 125.778 64.7899 125.615C64.3677 125.451 63.917 125.373 63.4643 125.387ZM35.1907 72.2103H17.5197C17.067 72.1966 16.6162 72.2739 16.194 72.4377C15.7719 72.6015 15.3868 72.8484 15.0618 73.1637C14.7368 73.479 14.4784 73.8564 14.302 74.2735C14.1255 74.6905 14.0346 75.1387 14.0346 75.5916C14.0346 76.0444 14.1255 76.4927 14.302 76.9097C14.4784 77.3268 14.7368 77.7041 15.0618 78.0195C15.3868 78.3348 15.7719 78.5817 16.194 78.7454C16.6162 78.9092 17.067 78.9865 17.5197 78.9729H35.1907C36.0698 78.9463 36.9039 78.5784 37.5164 77.9472C38.1288 77.316 38.4713 76.4711 38.4713 75.5916C38.4713 74.7121 38.1288 73.8672 37.5164 73.236C36.9039 72.6048 36.0698 72.2369 35.1907 72.2103ZM63.4643 72.2103H45.7933C44.9142 72.2369 44.08 72.6048 43.4676 73.236C42.8552 73.8672 42.5127 74.7121 42.5127 75.5916C42.5127 76.4711 42.8552 77.316 43.4676 77.9472C44.08 78.5784 44.9142 78.9463 45.7933 78.9729H63.4643C63.917 78.9865 64.3677 78.9092 64.7899 78.7454C65.2121 78.5817 65.5971 78.3348 65.9221 78.0195C66.2472 77.7041 66.5056 77.3268 66.682 76.9097C66.8585 76.4927 66.9494 76.0444 66.9494 75.5916C66.9494 75.1387 66.8585 74.6905 66.682 74.2735C66.5056 73.8564 66.2472 73.479 65.9221 73.1637C65.5971 72.8484 65.2121 72.6015 64.7899 72.4377C64.3677 72.2739 63.917 72.1966 63.4643 72.2103ZM123.549 72.2103H116.468C115.589 72.2369 114.755 72.6048 114.142 73.236C113.53 73.8672 113.188 74.7121 113.188 75.5916C113.188 76.4711 113.53 77.316 114.142 77.9472C114.755 78.5784 115.589 78.9463 116.468 78.9729H123.537C123.989 78.9865 124.44 78.9092 124.862 78.7454C125.284 78.5817 125.669 78.3348 125.994 78.0195C126.319 77.7041 126.578 77.3268 126.754 76.9097C126.931 76.4927 127.022 76.0444 127.022 75.5916C127.022 75.1387 126.931 74.6905 126.754 74.2735C126.578 73.8564 126.319 73.479 125.994 73.1637C125.669 72.8484 125.284 72.6015 124.862 72.4377C124.44 72.2739 123.989 72.1966 123.537 72.2103H123.549ZM17.5166 25.7991H35.1907C36.0698 25.7726 36.9039 25.4047 37.5164 24.7734C38.1288 24.1422 38.4713 23.2973 38.4713 22.4178C38.4713 21.5384 38.1288 20.6935 37.5164 20.0622C36.9039 19.431 36.0698 19.0631 35.1907 19.0366H17.5166C16.6375 19.0631 15.8033 19.431 15.1909 20.0622C14.5785 20.6935 14.236 21.5384 14.236 22.4178C14.236 23.2973 14.5785 24.1422 15.1909 24.7734C15.8033 25.4047 16.6375 25.7726 17.5166 25.7991ZM45.7933 25.7991H63.4643C64.3434 25.7726 65.1776 25.4047 65.79 24.7734C66.4024 24.1422 66.7449 23.2973 66.7449 22.4178C66.7449 21.5384 66.4024 20.6935 65.79 20.0622C65.1776 19.431 64.3434 19.0631 63.4643 19.0366H45.7933C45.3407 19.0229 44.8899 19.1002 44.4677 19.264C44.0455 19.4277 43.6605 19.6746 43.3355 19.99C43.0105 20.3053 42.7521 20.6827 42.5756 21.0997C42.3992 21.5168 42.3083 21.965 42.3083 22.4178C42.3083 22.8707 42.3992 23.3189 42.5756 23.736C42.7521 24.153 43.0105 24.5304 43.3355 24.8457C43.6605 25.1611 44.0455 25.4079 44.4677 25.5717C44.8899 25.7355 45.3407 25.8128 45.7933 25.7991ZM116.484 25.7991H123.549C124.002 25.8128 124.452 25.7355 124.875 25.5717C125.297 25.4079 125.682 25.1611 126.007 24.8457C126.332 24.5304 126.59 24.153 126.767 23.736C126.943 23.3189 127.034 22.8707 127.034 22.4178C127.034 21.965 126.943 21.5168 126.767 21.0997C126.59 20.6827 126.332 20.3053 126.007 19.99C125.682 19.6746 125.297 19.4277 124.875 19.264C124.452 19.1002 124.002 19.0229 123.549 19.0366H116.484C116.031 19.0229 115.58 19.1002 115.158 19.264C114.736 19.4277 114.351 19.6746 114.026 19.99C113.701 20.3053 113.442 20.6827 113.266 21.0997C113.089 21.5168 112.999 21.965 112.999 22.4178C112.999 22.8707 113.089 23.3189 113.266 23.736C113.442 24.153 113.701 24.5304 114.026 24.8457C114.351 25.1611 114.736 25.4079 115.158 25.5717C115.58 25.7355 116.031 25.8128 116.484 25.7991ZM139.725 166.237C133.854 166.229 128.152 164.276 123.508 160.684C118.865 157.091 115.542 152.062 114.058 146.382C114.052 146.35 114.044 146.318 114.034 146.287C113.828 145.496 113.662 144.689 113.536 143.868L113.499 143.614C113.441 143.222 113.388 142.826 113.348 142.428C113.308 142.033 113.28 141.634 113.258 141.235C113.258 141.133 113.258 141.035 113.243 140.927C113.224 140.525 113.212 140.123 113.212 139.715C113.227 133.411 115.48 127.317 119.571 122.519C123.661 117.722 129.322 114.533 135.545 113.521H135.579C135.959 113.462 136.342 113.413 136.728 113.37L136.913 113.345C137.262 113.308 137.618 113.283 137.973 113.258L138.26 113.237C138.597 113.218 138.94 113.212 139.28 113.206C139.428 113.206 139.589 113.206 139.728 113.206C146.764 113.206 153.511 116.001 158.486 120.976C163.461 125.951 166.256 132.698 166.256 139.734C166.256 146.77 163.461 153.517 158.486 158.492C153.511 163.467 146.764 166.262 139.728 166.262L139.725 166.237ZM106.768 144.334H6.75948V113.113H13.9515C14.129 113.144 14.3088 113.16 14.489 113.16H119.669C116.11 115.85 113.127 119.228 110.898 123.093C108.67 126.958 107.24 131.231 106.693 135.659C106.693 135.712 106.693 135.761 106.675 135.814C106.647 136.064 106.619 136.32 106.598 136.574C106.598 136.663 106.579 136.75 106.573 136.839C106.554 137.062 106.536 137.284 106.52 137.507C106.52 137.609 106.52 137.711 106.502 137.816C106.502 138.041 106.48 138.264 106.471 138.489V138.77C106.471 139.079 106.471 139.388 106.471 139.715C106.471 140.043 106.471 140.414 106.486 140.763C106.486 140.859 106.486 140.954 106.486 141.05C106.486 141.325 106.511 141.6 106.53 141.875C106.53 141.955 106.53 142.036 106.545 142.119C106.57 142.471 106.598 142.823 106.635 143.172C106.633 143.201 106.633 143.23 106.635 143.259C106.669 143.568 106.706 143.898 106.749 144.214C106.749 144.257 106.749 144.297 106.765 144.34L106.768 144.334ZM17.8687 106.351H125.069V97.9692H17.8687V106.351ZM6.75948 59.9302H136.184V91.1325H6.75948V59.9302ZM17.8811 53.1676H125.081V44.7461H17.8811V53.1676ZM6.75948 6.75643H136.184V37.9958H6.75948V6.75643ZM140.256 106.428C140.026 106.377 139.791 106.351 139.555 106.351H131.831V97.9291H139.555C140 97.9291 140.441 97.841 140.852 97.67C141.264 97.499 141.637 97.2484 141.951 96.9326C142.265 96.6168 142.514 96.242 142.683 95.8299C142.851 95.4177 142.937 94.9762 142.935 94.5308V56.5566C142.935 55.6602 142.578 54.8006 141.945 54.1668C141.311 53.5329 140.451 53.1769 139.555 53.1769H131.831V44.7461H139.555C140.451 44.7461 141.311 44.39 141.945 43.7562C142.578 43.1223 142.935 42.2627 142.935 41.3663V3.39522C142.937 2.95087 142.852 2.5104 142.684 2.09901C142.516 1.68763 142.268 1.31341 141.956 0.997766C141.643 0.682125 141.271 0.431259 140.861 0.259527C140.451 0.0877947 140.012 -0.00143374 139.567 -0.00305176L3.39827 -0.00305176C2.497 -0.00305176 1.63263 0.35498 0.995331 0.99228C0.358031 1.62958 3.82274e-10 2.49394 3.82274e-10 3.39522V41.3941C-6.6983e-06 41.8395 0.0880241 42.2805 0.25903 42.6918C0.430035 43.103 0.680643 43.4765 0.996446 43.7905C1.31225 44.1046 1.68702 44.3532 2.09921 44.5219C2.5114 44.6907 2.95288 44.7763 3.39827 44.7739H11.1216V53.2047H3.39827C2.95288 53.2022 2.5114 53.2878 2.09921 53.4566C1.68702 53.6254 1.31225 53.8739 0.996446 54.188C0.680643 54.5021 0.430035 54.8755 0.25903 55.2867C0.0880241 55.698 -6.6983e-06 56.139 3.82274e-10 56.5844V94.5308C3.82274e-10 95.4321 0.358031 96.2964 0.995331 96.9337C1.63263 97.571 2.497 97.9291 3.39827 97.9291H11.1216V106.357H3.39827C2.49967 106.357 1.63763 106.713 1.00078 107.347C0.363918 107.981 0.00408458 108.841 3.82274e-10 109.74V147.739C0.00408458 148.637 0.363918 149.498 1.00078 150.131C1.63763 150.765 2.49967 151.121 3.39827 151.121H108.457C110.534 156.818 114.128 161.839 118.851 165.643C123.574 169.446 129.246 171.886 135.255 172.7C141.263 173.514 147.381 172.671 152.945 170.262C158.51 167.853 163.31 163.969 166.828 159.03C170.346 154.092 172.448 148.285 172.906 142.239C173.365 136.193 172.162 130.136 169.429 124.723C166.696 119.311 162.536 114.747 157.398 111.527C152.261 108.306 146.341 106.551 140.278 106.449L140.256 106.428ZM139.715 121.544C138.82 121.548 137.961 121.906 137.328 122.539C136.694 123.173 136.337 124.031 136.333 124.927V139.549C136.319 140.001 136.396 140.452 136.56 140.874C136.724 141.296 136.971 141.681 137.286 142.006C137.601 142.331 137.979 142.59 138.396 142.766C138.813 142.943 139.261 143.034 139.714 143.034C140.167 143.034 140.615 142.943 141.032 142.766C141.449 142.59 141.826 142.331 142.142 142.006C142.457 141.681 142.704 141.296 142.868 140.874C143.032 140.452 143.109 140.001 143.095 139.549V124.927C143.096 124.483 143.008 124.043 142.839 123.632C142.669 123.222 142.42 122.849 142.106 122.535C141.792 122.221 141.42 121.972 141.01 121.802C140.599 121.632 140.16 121.544 139.715 121.544Z" fill="#FFCD7A"/>
</svg>
