<svg width="173" height="148" viewBox="0 0 173 148" fill="none" xmlns="http://www.w3.org/2000/svg">
<g clip-path="url(#clip0_4136_109990)">
<path d="M26.3807 21.2839C26.3807 22.1834 26.114 23.0627 25.6143 23.8106C25.1146 24.5585 24.4043 25.1414 23.5733 25.4856C22.7423 25.8298 21.8278 25.9199 20.9456 25.7444C20.0635 25.5689 19.2531 25.1358 18.6171 24.4997C17.9811 23.8637 17.5479 23.0534 17.3724 22.1712C17.1969 21.289 17.287 20.3746 17.6312 19.5435C17.9754 18.7125 18.5583 18.0023 19.3062 17.5025C20.0541 17.0028 20.9334 16.7361 21.8329 16.7361C23.039 16.7361 24.1958 17.2152 25.0487 18.0681C25.9016 18.921 26.3807 20.0778 26.3807 21.2839Z" fill="#FFCD7A"/>
<path d="M39.6604 21.2839C39.6604 22.1834 39.3937 23.0627 38.8939 23.8106C38.3942 24.5585 37.6839 25.1414 36.8529 25.4856C36.0219 25.8298 35.1075 25.9199 34.2253 25.7444C33.3431 25.5689 32.5328 25.1358 31.8967 24.4997C31.2607 23.8637 30.8276 23.0534 30.6521 22.1712C30.4766 21.289 30.5667 20.3746 30.9109 19.5435C31.2551 18.7125 31.838 18.0023 32.5859 17.5025C33.3338 17.0028 34.213 16.7361 35.1125 16.7361C36.3187 16.7361 37.4755 17.2152 38.3283 18.0681C39.1812 18.921 39.6604 20.0778 39.6604 21.2839Z" fill="#FFCD7A"/>
<path d="M52.7583 21.2839C52.7583 22.1834 52.4915 23.0627 51.9918 23.8106C51.4921 24.5585 50.7818 25.1414 49.9508 25.4856C49.1198 25.8298 48.2054 25.9199 47.3232 25.7444C46.441 25.5689 45.6306 25.1358 44.9946 24.4997C44.3586 23.8637 43.9255 23.0534 43.75 22.1712C43.5745 21.289 43.6646 20.3746 44.0088 19.5435C44.353 18.7125 44.9359 18.0023 45.6838 17.5025C46.4317 17.0028 47.311 16.7361 48.2104 16.7361C49.4166 16.7361 50.5734 17.2152 51.4263 18.0681C52.2792 18.921 52.7583 20.0778 52.7583 21.2839Z" fill="#FFCD7A"/>
<path d="M160.812 5.46866e-05H12.0063C10.4269 -0.00337127 8.86243 0.305178 7.40263 0.907991C5.94284 1.5108 4.61648 2.39601 3.4997 3.51279C2.38292 4.62957 1.49772 5.95592 0.894906 7.41572C0.292093 8.87552 -0.0164593 10.44 -0.0130333 12.0194V135.526C-0.0164593 137.105 0.292093 138.67 0.894906 140.129C1.49772 141.589 2.38292 142.916 3.4997 144.032C4.61648 145.149 5.94284 146.034 7.40263 146.637C8.86243 147.24 10.4269 147.549 12.0063 147.545H160.994C162.573 147.548 164.137 147.239 165.597 146.636C167.056 146.033 168.383 145.148 169.499 144.031C170.616 142.915 171.501 141.589 172.104 140.129C172.707 138.669 173.016 137.105 173.013 135.526V12.0064C172.831 5.45747 167.559 -0.0129395 160.825 -0.0129395L160.812 5.46866e-05ZM12.0063 9.27766H160.994C161.712 9.29497 162.396 9.58802 162.904 10.096C163.412 10.6041 163.705 11.2881 163.722 12.0064V33.2903H9.26457V12.0064C9.28271 11.2878 9.57646 10.6038 10.085 10.0958C10.5936 9.58788 11.278 9.29494 11.9965 9.27766H12.0063ZM160.812 138.073H12.0063C11.2883 138.055 10.6047 137.762 10.0971 137.254C9.58964 136.746 9.2973 136.062 9.28081 135.344V42.386H163.544V135.344C163.526 136.062 163.233 136.746 162.725 137.254C162.217 137.762 161.533 138.055 160.815 138.073H160.812Z" fill="#FFCD7A"/>
<path d="M73.4996 82.813C73.0517 82.3833 72.4531 82.1463 71.8324 82.153C71.2117 82.1597 70.6183 82.4095 70.1797 82.8488L62.3184 90.71C60.9625 92.0134 59.8838 93.5772 59.1469 95.3076C58.4101 97.0381 58.0303 98.8995 58.0303 100.78C58.0303 102.661 58.4101 104.522 59.1469 106.253C59.8838 107.983 60.9625 109.547 62.3184 110.85C65.1081 113.521 68.8209 115.011 72.6827 115.011C76.5444 115.011 80.2572 113.521 83.0469 110.85L92.279 101.937C92.5106 101.713 92.6948 101.446 92.8206 101.15C92.9464 100.854 93.0112 100.535 93.0112 100.213C93.0112 99.8917 92.9464 99.5733 92.8206 99.2772C92.6948 98.9811 92.5106 98.7134 92.279 98.4901L88.7707 95.1117C88.3281 94.6884 87.7393 94.4521 87.1269 94.4521C86.5145 94.4521 85.9258 94.6884 85.4832 95.1117L80.2304 100.15L79.5808 100.767L76.1276 104.123C75.1977 105.013 73.9601 105.51 72.6729 105.51C71.3856 105.51 70.1481 105.013 69.2182 104.123C68.7664 103.689 68.407 103.167 68.1615 102.591C67.916 102.014 67.7894 101.394 67.7894 100.767C67.7894 100.141 67.916 99.5203 68.1615 98.9437C68.407 98.3671 68.7664 97.846 69.2182 97.4116L77.0664 89.5926C77.2902 89.3694 77.4671 89.1036 77.5866 88.811C77.7061 88.5183 77.7657 88.2047 77.7621 87.8887C77.7585 87.5726 77.6916 87.2604 77.5654 86.9706C77.4392 86.6808 77.2563 86.4192 77.0275 86.2012L73.4996 82.813Z" fill="#FFCD7A"/>
<path d="M99.3184 92.0192C99.763 92.4635 100.366 92.7131 100.995 92.7131C101.623 92.7131 102.226 92.4635 102.671 92.0192L110.685 84.0052C112.041 82.7018 113.119 81.138 113.856 79.4076C114.593 77.6772 114.973 75.8157 114.973 73.935C114.973 72.0542 114.593 70.1928 113.856 68.4624C113.119 66.7319 112.041 65.1681 110.685 63.8647C107.895 61.1944 104.182 59.7039 100.321 59.7039C96.4588 59.7039 92.746 61.1944 89.9563 63.8647L81.3089 72.1841C81.0804 72.4054 80.8987 72.6705 80.7747 72.9635C80.6506 73.2564 80.5867 73.5713 80.5867 73.8895C80.5867 74.2077 80.6506 74.5226 80.7747 74.8155C80.8987 75.1085 81.0804 75.3735 81.3089 75.5949L84.8205 79.0026C85.2628 79.4276 85.8524 79.665 86.4659 79.665C87.0793 79.665 87.6689 79.4276 88.1112 79.0026L92.7857 74.5359L93.4354 73.9187L96.8885 70.5631C97.8184 69.673 99.056 69.1761 100.343 69.1761C101.631 69.1761 102.868 69.673 103.798 70.5631C104.25 70.9974 104.609 71.5185 104.855 72.0951C105.1 72.6718 105.227 73.292 105.227 73.9187C105.227 74.5454 105.1 75.1657 104.855 75.7423C104.609 76.3189 104.25 76.84 103.798 77.2744L95.8783 85.1941C95.6573 85.4144 95.4819 85.6762 95.3623 85.9644C95.2426 86.2526 95.1811 86.5616 95.1811 86.8736C95.1811 87.1856 95.2426 87.4946 95.3623 87.7828C95.4819 88.071 95.6573 88.3327 95.8783 88.553L99.3184 92.0192Z" fill="#FFCD7A"/>
<path d="M59.7619 61.4349C60.717 60.4798 62.4451 60.6618 63.2215 61.4349L72.2652 70.4819C72.4932 70.7086 72.6741 70.9781 72.7976 71.275C72.921 71.5718 72.9846 71.8902 72.9846 72.2117C72.9846 72.5332 72.921 72.8515 72.7976 73.1484C72.6741 73.4452 72.4932 73.7148 72.2652 73.9415C71.3102 74.8965 69.582 74.7178 68.8057 73.9415L59.7619 64.9042C59.3029 64.4449 59.045 63.8222 59.045 63.1728C59.045 62.5235 59.3029 61.9007 59.7619 61.4414V61.4349Z" fill="#FFCD7A"/>
<path d="M79.2365 54.9607C80.5359 54.9607 81.6079 56.2601 81.6079 57.3321V62.0781C81.6079 62.707 81.358 63.3102 80.9133 63.7549C80.4686 64.1996 79.8654 64.4494 79.2365 64.4494C77.9371 64.4494 76.8651 63.1501 76.8651 62.0781V57.3321C76.8651 56.7031 77.115 56.1 77.5597 55.6553C78.0044 55.2105 78.6076 54.9607 79.2365 54.9607Z" fill="#FFCD7A"/>
<path d="M55.6591 78.6875H60.4052C61.7046 78.6875 62.7765 79.9869 62.7765 81.0589C62.7765 81.6878 62.5267 82.291 62.082 82.7357C61.6373 83.1804 61.0341 83.4302 60.4052 83.4302H55.6591C54.3598 83.4302 53.2845 82.1309 53.2845 81.0589C53.2854 80.4296 53.536 79.8265 53.9812 79.3819C54.4264 78.9372 55.0299 78.6875 55.6591 78.6875Z" fill="#FFCD7A"/>
<path d="M113.092 114.93C112.137 115.886 110.409 115.704 109.632 114.93L100.589 105.884C100.361 105.656 100.181 105.387 100.058 105.09C99.9352 104.793 99.8719 104.475 99.8719 104.154C99.8719 103.832 99.9352 103.514 100.058 103.218C100.181 102.921 100.361 102.651 100.589 102.424C101.544 101.469 103.275 101.651 104.048 102.424L113.092 111.471C113.319 111.698 113.499 111.968 113.622 112.264C113.745 112.561 113.808 112.879 113.808 113.201C113.808 113.522 113.745 113.84 113.622 114.137C113.499 114.434 113.319 114.703 113.092 114.93Z" fill="#FFCD7A"/>
<path d="M93.6206 121.392C92.3212 121.392 91.246 120.092 91.246 119.02V114.281C91.246 113.969 91.3074 113.66 91.4268 113.373C91.5462 113.085 91.7211 112.823 91.9417 112.603C92.1622 112.383 92.424 112.208 92.7121 112.089C93.0002 111.97 93.3089 111.909 93.6206 111.909C94.92 111.909 95.992 113.209 95.992 114.281V119.027C95.9903 119.655 95.7397 120.256 95.2951 120.699C94.8506 121.143 94.2484 121.392 93.6206 121.392Z" fill="#FFCD7A"/>
<path d="M112.598 92.9222H117.344C118.644 92.9222 119.716 94.2216 119.716 95.2936C119.716 95.9225 119.466 96.5257 119.021 96.9704C118.576 97.4152 117.973 97.665 117.344 97.665H112.598C111.299 97.665 110.227 96.3656 110.227 95.2936C110.227 94.6647 110.477 94.0615 110.921 93.6168C111.366 93.1721 111.969 92.9222 112.598 92.9222Z" fill="#FFCD7A"/>
</g>
<defs>
<clipPath id="clip0_4136_109990">
<rect width="173" height="147.532" fill="white"/>
</clipPath>
</defs>
</svg>
