<svg width="173" height="154" viewBox="0 0 173 154" fill="none" xmlns="http://www.w3.org/2000/svg">
<g clip-path="url(#clip0_4136_110012)">
<path d="M150.419 22.5546C138.548 10.6722 123.112 2.99186 106.464 0.683995C89.8156 -1.62387 72.8685 1.56729 58.2051 9.77118C43.5416 17.9751 31.9659 30.7418 25.2419 46.1257C18.518 61.5097 17.0146 78.6673 20.9608 94.9837L30.6804 78.1727C30.6804 77.7835 30.6804 77.3909 30.6804 76.9983C30.7019 59.7286 37.5798 43.1723 49.806 30.9595C62.0322 18.7467 78.6088 11.8743 95.9011 11.8493C104.87 11.8393 113.744 13.6763 121.97 17.2454C130.196 20.8145 137.597 26.0392 143.71 32.593C149.824 39.1469 154.518 46.8892 157.501 55.3364C160.484 63.7836 161.69 72.7543 161.046 81.6882C160.401 90.6221 157.919 99.3272 153.754 107.26C149.59 115.193 143.832 122.183 136.841 127.794C129.85 133.404 121.775 137.515 113.122 139.87C104.469 142.224 95.4222 142.771 86.5475 141.477C84.6776 143.148 82.2582 144.074 79.7492 144.08H58.1209C69.6547 150.566 82.6644 153.982 95.9011 154C111.15 154 126.057 149.485 138.736 141.024C151.415 132.563 161.298 120.538 167.133 106.468C172.969 92.3981 174.496 76.916 171.521 61.9795C168.546 47.043 161.202 33.323 150.419 22.5546Z" fill="#FED670"/>
<path d="M115.432 104.88C116.553 105.942 118.046 106.525 119.591 106.505C121.137 106.484 122.613 105.862 123.706 104.77C124.799 103.679 125.422 102.204 125.442 100.661C125.463 99.1174 124.879 97.6269 123.816 96.5068L101.832 74.5479V29.6181C101.832 28.0473 101.207 26.5408 100.095 25.43C98.9823 24.3192 97.4738 23.6952 95.9009 23.6952C94.328 23.6952 92.8195 24.3192 91.7073 25.43C90.5951 26.5408 89.9702 28.0473 89.9702 29.6181V77.0017C89.9699 77.7795 90.1233 78.5497 90.4216 79.2681C90.7199 79.9866 91.1574 80.6391 91.7088 81.1884L115.432 104.88Z" fill="#FED670"/>
<path d="M53.7793 68.6892C52.8849 67.1408 51.5979 65.8548 50.0478 64.9607C48.4978 64.0667 46.7394 63.5959 44.9494 63.5959C43.1594 63.5959 41.401 64.0667 39.8509 64.9607C38.3009 65.8548 37.0139 67.1408 36.1194 68.6892L1.34862 128.809C0.453436 130.358 -0.0174287 132.115 -0.0166005 133.904C-0.0157723 135.692 0.45672 137.449 1.35334 138.998C2.24995 140.546 3.53907 141.831 5.09098 142.724C6.6429 143.617 8.40287 144.086 10.1938 144.083H79.7049C81.2838 144.083 82.8411 143.717 84.2539 143.013C85.6668 142.309 86.8967 141.287 87.8466 140.028C88.7966 138.768 89.4406 137.306 89.728 135.755C90.0153 134.205 89.9381 132.609 89.5024 131.093L53.7793 68.6892ZM77.0649 132.376H12.8372L44.9511 76.8256L77.0649 132.376Z" fill="#FED670"/>
<path d="M39.9526 97.0247V111.731C39.9858 112.972 40.5029 114.151 41.3938 115.018C42.2847 115.884 43.4791 116.369 44.7226 116.369C45.9661 116.369 47.1605 115.884 48.0514 115.018C48.9424 114.151 49.4594 112.972 49.4926 111.731V97.0247C49.4594 95.7832 48.9424 94.6038 48.0514 93.7374C47.1605 92.871 45.9661 92.3862 44.7226 92.3862C43.4791 92.3862 42.2847 92.871 41.3938 93.7374C40.5029 94.6038 39.9858 95.7832 39.9526 97.0247Z" fill="#FED670"/>
<path d="M44.7277 116.719C43.7838 116.719 42.8609 116.997 42.0758 117.521C41.2906 118.044 40.6785 118.788 40.3168 119.659C39.9552 120.529 39.8602 121.488 40.0439 122.412C40.2276 123.337 40.6818 124.186 41.349 124.853C42.0162 125.52 42.8664 125.974 43.7922 126.158C44.7179 126.342 45.6775 126.248 46.5496 125.888C47.4217 125.527 48.1671 124.916 48.6916 124.133C49.216 123.349 49.496 122.427 49.496 121.485C49.4942 120.222 48.9913 119.011 48.0976 118.118C47.2039 117.225 45.9921 116.722 44.7277 116.719Z" fill="#FED670"/>
</g>
<defs>
<clipPath id="clip0_4136_110012">
<rect width="173" height="154" fill="white"/>
</clipPath>
</defs>
</svg>
