<svg width="1419" height="837" viewBox="0 0 1419 837" fill="none" xmlns="http://www.w3.org/2000/svg">
<g opacity="0.1">
<path fill-rule="evenodd" clip-rule="evenodd" d="M180.29 372.3L180.563 372.618L186.532 378.583L188.08 379.831L188.09 379.839C189.473 380.961 190.976 382.228 192.564 383.566L192.567 383.568C196.411 386.808 200.752 390.466 205.085 393.504L205.087 393.505C265.916 436.13 347.646 432.242 403.874 383.944L403.876 383.943C430.879 360.739 448.345 331.538 456.483 297.014L456.483 297.013C456.7 296.092 456.919 295.048 457.099 294.188L457.099 294.187C457.171 293.841 457.238 293.525 457.295 293.258L460.164 279.936L407.186 279.753L404.935 287.882C396.887 316.947 380.033 339.862 354.449 355.311C313.298 380.147 259.46 374.595 224.062 341.963L224.059 341.961C208.072 327.212 196.499 308.733 190.902 287.992L188.728 279.935L180.379 279.823C177.363 279.783 174.317 279.784 171.362 279.786C170.342 279.787 169.333 279.787 168.34 279.786L136.503 279.751L139.277 293.063C144.596 318.593 155.503 342.158 171.922 362.554L171.924 362.557C173.81 364.898 175.929 367.312 177.846 369.498C178.715 370.488 179.544 371.432 180.29 372.3ZM150.098 290.811C150.875 294.542 151.779 298.227 152.81 301.86C158.377 321.478 167.636 339.608 180.534 355.631C182.276 357.793 184.107 359.879 185.94 361.966L185.941 361.968C184.108 359.88 182.276 357.793 180.534 355.631C165.248 336.641 155.073 314.69 150.098 290.811Z" fill="#5326EC"/>
<path fill-rule="evenodd" clip-rule="evenodd" d="M453.848 372.3L454.121 372.618L460.09 378.583L461.639 379.831L461.649 379.839C463.031 380.961 464.535 382.228 466.123 383.566L466.125 383.568C469.969 386.808 474.311 390.466 478.643 393.504L478.645 393.505C539.474 436.13 621.204 432.242 677.432 383.945L677.434 383.943C704.437 360.739 721.903 331.538 730.041 297.014L730.042 297.013C730.258 296.092 730.477 295.048 730.657 294.188L730.657 294.187C730.73 293.841 730.796 293.525 730.854 293.258L733.722 279.936L680.745 279.753L678.494 287.882C670.446 316.947 653.591 339.862 628.008 355.311C586.856 380.147 533.018 374.595 497.62 341.963L497.618 341.961C481.63 327.212 470.057 308.733 464.461 287.992L462.287 279.935L453.938 279.823C450.922 279.783 447.875 279.784 444.92 279.786C443.901 279.787 442.892 279.787 441.899 279.786L410.062 279.751L412.835 293.063C418.154 318.593 429.062 342.158 445.48 362.554L445.483 362.557C447.368 364.898 449.487 367.312 451.405 369.498C452.274 370.488 453.102 371.432 453.848 372.3ZM423.656 290.811C424.434 294.542 425.338 298.227 426.369 301.86C431.936 321.478 441.194 339.608 454.092 355.631C455.834 357.793 457.666 359.879 459.498 361.966L459.499 361.968C457.666 359.88 455.834 357.793 454.092 355.631C438.806 336.641 428.631 314.69 423.656 290.811Z" fill="#5326EC"/>
<path fill-rule="evenodd" clip-rule="evenodd" d="M727.751 372.3L728.024 372.618L733.993 378.583L735.542 379.831L735.552 379.839C736.934 380.961 738.438 382.228 740.026 383.566L740.028 383.568C743.872 386.808 748.214 390.466 752.546 393.504L752.548 393.505C813.377 436.13 895.107 432.242 951.335 383.945L951.337 383.943C978.34 360.739 995.806 331.538 1003.94 297.014L1003.94 297.013C1004.16 296.092 1004.38 295.048 1004.56 294.188L1004.56 294.187C1004.63 293.841 1004.7 293.525 1004.76 293.258L1007.63 279.936L954.648 279.753L952.397 287.882C944.349 316.947 927.494 339.862 901.91 355.311C860.759 380.147 806.921 374.595 771.523 341.963L771.521 341.961C755.533 327.212 743.96 308.733 738.364 287.992L736.19 279.935L727.841 279.823C724.825 279.783 721.778 279.784 718.823 279.786C717.804 279.787 716.795 279.787 715.802 279.786L683.965 279.751L686.738 293.063C692.057 318.593 702.965 342.158 719.383 362.554L719.386 362.557C721.271 364.898 723.39 367.312 725.308 369.498C726.177 370.488 727.005 371.432 727.751 372.3ZM697.559 290.811C698.337 294.542 699.241 298.227 700.272 301.86C705.838 321.478 715.097 339.608 727.995 355.631C729.737 357.793 731.569 359.879 733.401 361.966L733.402 361.968C731.569 359.88 729.737 357.793 727.995 355.631C712.709 336.641 702.534 314.69 697.559 290.811Z" fill="#5326EC"/>
<path fill-rule="evenodd" clip-rule="evenodd" d="M999.859 372.3L1000.13 372.618L1006.1 378.583L1007.65 379.831L1007.66 379.839C1009.04 380.961 1010.55 382.228 1012.13 383.566L1012.14 383.568C1015.98 386.808 1020.32 390.466 1024.65 393.504L1024.66 393.505C1085.49 436.13 1167.22 432.242 1223.44 383.945L1223.45 383.943C1250.45 360.739 1267.91 331.538 1276.05 297.014L1276.05 297.013C1276.27 296.092 1276.49 295.048 1276.67 294.188L1276.67 294.187C1276.74 293.841 1276.81 293.525 1276.86 293.258L1279.73 279.936L1226.76 279.753L1224.51 287.882C1216.46 316.947 1199.6 339.862 1174.02 355.311C1132.87 380.147 1079.03 374.595 1043.63 341.963L1043.63 341.961C1027.64 327.212 1016.07 308.733 1010.47 287.992L1008.3 279.935L999.949 279.823C996.933 279.783 993.886 279.784 990.932 279.786C989.912 279.787 988.903 279.787 987.91 279.786L956.073 279.751L958.846 293.063C964.166 318.593 975.073 342.158 991.492 362.554L991.494 362.557C993.38 364.898 995.498 367.312 997.416 369.498C998.285 370.488 999.113 371.432 999.859 372.3ZM969.668 290.811C970.445 294.542 971.349 298.227 972.38 301.86C977.947 321.478 987.206 339.608 1000.1 355.631C1001.85 357.793 1003.68 359.879 1005.51 361.966L1005.51 361.968C1003.68 359.88 1001.85 357.793 1000.1 355.631C984.817 336.641 974.643 314.69 969.668 290.811Z" fill="#5326EC"/>
<path fill-rule="evenodd" clip-rule="evenodd" d="M180.29 648.129L180.563 648.447L186.532 654.412L188.08 655.66L188.091 655.669C189.474 656.791 190.978 658.058 192.567 659.398C196.411 662.637 200.752 666.295 205.085 669.333L205.087 669.334C265.916 711.959 347.646 708.071 403.874 659.774L403.876 659.772C430.879 636.569 448.345 607.367 456.483 572.844L456.483 572.842C456.7 571.921 456.919 570.876 457.099 570.016C457.172 569.67 457.238 569.354 457.295 569.087L460.164 555.765L407.186 555.582L404.935 563.711C396.887 592.776 380.033 615.691 354.449 631.14C313.298 655.976 259.46 650.424 224.062 617.793L224.06 617.79C208.072 603.042 196.499 584.562 190.902 563.821L188.728 555.765L180.38 555.652C177.363 555.612 174.316 555.613 171.362 555.615C170.342 555.616 169.333 555.616 168.341 555.615L136.504 555.58L139.277 568.892C144.596 594.423 155.503 617.987 171.922 638.383L171.924 638.386C173.81 640.727 175.928 643.141 177.846 645.326C178.715 646.317 179.544 647.261 180.29 648.129ZM150.098 566.64C150.875 570.372 151.779 574.056 152.81 577.689C158.377 597.307 167.636 615.437 180.534 631.46C182.276 633.622 184.108 635.709 185.941 637.797C186.856 638.839 187.771 639.881 188.675 640.933L193.931 646.185L195.046 647.085C196.771 648.484 198.471 649.917 200.171 651.351L200.173 651.352C203.843 654.448 207.515 657.544 211.433 660.29C207.514 657.544 203.842 654.447 200.171 651.351C198.471 649.917 196.771 648.484 195.046 647.085L193.931 646.185L188.675 640.933C187.771 639.881 186.856 638.839 185.941 637.797C184.108 635.709 182.276 633.622 180.534 631.46C165.248 612.47 155.073 590.519 150.098 566.64Z" fill="#5326EC"/>
<path fill-rule="evenodd" clip-rule="evenodd" d="M453.848 648.129L454.121 648.447L460.09 654.412L461.639 655.66L461.649 655.669C463.031 656.79 464.535 658.057 466.123 659.395L466.125 659.398C469.969 662.637 474.311 666.295 478.643 669.333L478.645 669.334C539.474 711.959 621.204 708.071 677.432 659.774L677.434 659.772C704.437 636.569 721.903 607.367 730.041 572.844L730.042 572.842C730.258 571.922 730.477 570.877 730.657 570.017L730.657 570.016C730.73 569.67 730.796 569.354 730.854 569.087L733.722 555.766L680.745 555.582L678.494 563.711C670.446 592.776 653.591 615.691 628.008 631.14C586.856 655.976 533.018 650.424 497.62 617.793L497.618 617.79C481.63 603.042 470.057 584.562 464.461 563.821L462.287 555.765L453.938 555.652C450.922 555.612 447.875 555.614 444.92 555.615C443.901 555.616 442.892 555.616 441.899 555.615L410.062 555.58L412.835 568.892C418.154 594.423 429.062 617.987 445.48 638.383L445.483 638.386C447.368 640.727 449.487 643.141 451.405 645.327C452.274 646.317 453.102 647.261 453.848 648.129ZM423.656 566.64C424.434 570.372 425.338 574.056 426.369 577.689C431.936 597.307 441.195 615.437 454.092 631.46C455.834 633.622 457.666 635.708 459.498 637.796L459.499 637.797C457.666 635.709 455.834 633.622 454.092 631.46C438.806 612.47 428.631 590.519 423.656 566.64Z" fill="#5326EC"/>
<path fill-rule="evenodd" clip-rule="evenodd" d="M727.959 648.129L728.232 648.447L734.202 654.412L735.75 655.66L735.76 655.668C737.143 656.79 738.646 658.057 740.234 659.395L740.237 659.398C744.08 662.637 748.422 666.295 752.755 669.333L752.756 669.334C813.586 711.959 895.315 708.071 951.544 659.774L951.546 659.772C978.548 636.568 996.014 607.367 1004.15 572.844L1004.15 572.842C1004.37 571.921 1004.59 570.877 1004.77 570.017L1004.77 570.016C1004.84 569.67 1004.91 569.354 1004.96 569.087L1007.83 555.765L954.856 555.582L952.605 563.711C944.557 592.776 927.702 615.691 902.119 631.14C860.967 655.976 807.13 650.424 771.732 617.793L771.729 617.79C755.742 603.042 744.169 584.562 738.572 563.821L736.398 555.765L728.049 555.652C725.033 555.612 721.986 555.613 719.032 555.615C718.012 555.616 717.003 555.616 716.01 555.615L684.173 555.58L686.946 568.892C692.266 594.422 703.173 617.987 719.591 638.383L719.594 638.386C721.48 640.727 723.598 643.141 725.516 645.327C726.385 646.317 727.213 647.261 727.959 648.129ZM697.768 566.64C698.545 570.372 699.449 574.056 700.48 577.689C706.047 597.307 715.306 615.437 728.204 631.46C729.945 633.622 731.777 635.708 733.609 637.796L733.61 637.797C731.778 635.709 729.946 633.622 728.204 631.46C712.917 612.47 702.743 590.519 697.768 566.64Z" fill="#5326EC"/>
<path fill-rule="evenodd" clip-rule="evenodd" d="M999.86 648.129L1000.13 648.447L1006.1 654.412L1007.65 655.66L1007.66 655.668C1009.04 656.79 1010.55 658.057 1012.13 659.395L1012.14 659.398C1015.98 662.637 1020.32 666.295 1024.65 669.333L1024.66 669.334C1085.49 711.959 1167.22 708.071 1223.44 659.774L1223.45 659.772C1250.45 636.568 1267.91 607.367 1276.05 572.844L1276.05 572.842C1276.27 571.921 1276.49 570.877 1276.67 570.017L1276.67 570.016C1276.74 569.67 1276.81 569.354 1276.86 569.087L1279.73 555.765L1226.76 555.582L1224.51 563.711C1216.46 592.776 1199.6 615.691 1174.02 631.14C1132.87 655.976 1079.03 650.424 1043.63 617.793L1043.63 617.79C1027.64 603.042 1016.07 584.562 1010.47 563.821L1008.3 555.765L999.949 555.652C996.933 555.612 993.886 555.613 990.932 555.615C989.912 555.616 988.903 555.616 987.91 555.615L956.073 555.58L958.847 568.892C964.166 594.422 975.073 617.987 991.492 638.383L991.494 638.386C993.38 640.727 995.498 643.141 997.416 645.327C998.285 646.317 999.113 647.261 999.86 648.129ZM969.668 566.64C970.445 570.372 971.349 574.056 972.38 577.689C977.947 597.307 987.206 615.437 1000.1 631.46C1001.85 633.622 1003.68 635.708 1005.51 637.796L1005.51 637.797C1003.68 635.709 1001.85 633.622 1000.1 631.46C984.817 612.47 974.643 590.519 969.668 566.64Z" fill="#5326EC"/>
<path fill-rule="evenodd" clip-rule="evenodd" d="M180.29 92.5493L180.563 92.867L186.532 98.832L188.08 100.08L188.091 100.088C189.473 101.21 190.976 102.477 192.564 103.815L192.567 103.817C196.411 107.057 200.752 110.715 205.085 113.753L205.087 113.754C265.916 156.379 347.646 152.491 403.874 104.194L403.876 104.192C430.879 80.9884 448.345 51.7873 456.483 17.2634L456.483 17.2617C456.7 16.3414 456.919 15.2972 457.099 14.4371L457.099 14.4362C457.172 14.0899 457.238 13.7736 457.295 13.5072L460.164 0.185345L407.186 0.00208223L404.935 8.13089C396.887 37.1956 380.033 60.1109 354.449 75.56C313.298 100.396 259.46 94.8439 224.062 62.2124L224.059 62.2102C208.072 47.4614 196.499 28.9816 190.902 8.24076L188.728 0.184489L180.379 0.072151C177.363 0.031559 174.317 0.0333291 171.362 0.0350411C170.342 0.0356338 169.333 0.0362322 168.34 0.0350753L136.503 0L139.277 13.3116C144.596 38.8424 155.503 62.4071 171.922 82.8029L171.924 82.806C173.81 85.1467 175.929 87.5613 177.846 89.7467C178.716 90.7373 179.544 91.6811 180.29 92.5493ZM150.098 11.0603C150.875 14.7914 151.779 18.4755 152.81 22.1086C158.377 41.7266 167.636 59.8572 180.534 75.8797C182.276 78.0418 184.107 80.1283 185.94 82.2155L185.941 82.2165C184.108 80.1289 182.276 78.0422 180.534 75.8797C165.248 56.8901 155.073 34.9389 150.098 11.0603Z" fill="#5326EC"/>
<path fill-rule="evenodd" clip-rule="evenodd" d="M453.848 92.5493L454.121 92.867L460.09 98.832L461.638 100.08L461.649 100.088C463.031 101.21 464.534 102.477 466.122 103.815L466.125 103.817C469.969 107.057 474.31 110.715 478.643 113.753L478.645 113.754C539.474 156.379 621.204 152.491 677.432 104.194L677.434 104.192C704.437 80.9884 721.903 51.7873 730.041 17.2634L730.041 17.2617C730.258 16.3414 730.477 15.2972 730.657 14.4371L730.657 14.4362C730.73 14.0899 730.796 13.7736 730.853 13.5072L733.722 0.185348L680.744 0.00208583L678.493 8.13089C670.445 37.1956 653.591 60.1109 628.007 75.56C586.856 100.396 533.018 94.8439 497.62 62.2124L497.618 62.2102C481.63 47.4614 470.057 28.9816 464.46 8.24077L462.286 0.184493L453.937 0.0721546C450.921 0.0315626 447.875 0.0333327 444.92 0.0350447C443.9 0.0356374 442.891 0.0362358 441.899 0.0350789L410.062 3.60534e-06L412.835 13.3116C418.154 38.8424 429.061 62.4071 445.48 82.8029L445.482 82.806C447.368 85.1467 449.487 87.5613 451.404 89.7467C452.274 90.7373 453.102 91.6811 453.848 92.5493ZM423.656 11.0603C424.433 14.7914 425.337 18.4755 426.368 22.1086C431.935 41.7266 441.194 59.8572 454.092 75.8797C455.834 78.0418 457.665 80.1283 459.498 82.2155L459.499 82.2165C457.666 80.129 455.834 78.0422 454.092 75.8797C438.806 56.8901 428.631 34.9389 423.656 11.0603Z" fill="#5326EC"/>
<path fill-rule="evenodd" clip-rule="evenodd" d="M727.959 92.55L728.232 92.8678L734.202 98.8328L735.75 100.081L735.76 100.089C737.143 101.211 738.646 102.478 740.234 103.816L740.237 103.818C744.08 107.057 748.422 110.716 752.755 113.753L752.756 113.755C813.586 156.379 895.315 152.491 951.544 104.194L951.545 104.193C978.548 80.9892 996.014 51.7881 1004.15 17.2642L1004.15 17.2624C1004.37 16.3421 1004.59 15.2979 1004.77 14.4379L1004.77 14.4369C1004.84 14.0907 1004.91 13.7743 1004.96 13.508L1007.83 0.186087L954.856 0.00282426L952.605 8.13163C944.557 37.1964 927.702 60.1116 902.119 75.5607C860.967 100.397 807.13 94.8446 771.732 62.2132L771.729 62.2109C755.742 47.4622 744.169 28.9823 738.572 8.24151L736.398 0.185231L728.049 0.0728931C725.033 0.032301 721.986 0.0340711 719.032 0.0357831C718.012 0.0363759 717.003 0.0369743 716.01 0.0358173L684.173 0.000742037L686.946 13.3124C692.266 38.8431 703.173 62.4078 719.591 82.8037L719.594 82.8068C721.479 85.1475 723.598 87.5621 725.516 89.7474C726.385 90.738 727.213 91.6818 727.959 92.55ZM697.768 11.061C698.545 14.7922 699.449 18.4763 700.48 22.1094C706.047 41.7273 715.306 59.858 728.204 75.8805C729.945 78.0425 731.777 80.129 733.609 82.2162L733.61 82.2173C731.778 80.1297 729.946 78.0429 728.204 75.8805C712.917 56.8909 702.743 34.9396 697.768 11.061Z" fill="#5326EC"/>
<path fill-rule="evenodd" clip-rule="evenodd" d="M999.859 92.5493L1000.13 92.867L1006.1 98.832L1007.65 100.08L1007.66 100.088C1009.04 101.21 1010.55 102.477 1012.13 103.815L1012.14 103.817C1015.98 107.057 1020.32 110.715 1024.65 113.753L1024.66 113.754C1085.49 156.379 1167.22 152.491 1223.44 104.194L1223.45 104.192C1250.45 80.9884 1267.91 51.7873 1276.05 17.2634L1276.05 17.2617C1276.27 16.3414 1276.49 15.2972 1276.67 14.4371L1276.67 14.4362C1276.74 14.0899 1276.81 13.7736 1276.86 13.5072L1279.73 0.185347L1226.76 0.00208488L1224.51 8.13089C1216.46 37.1956 1199.6 60.1109 1174.02 75.56C1132.87 100.396 1079.03 94.8439 1043.63 62.2124L1043.63 62.2102C1027.64 47.4614 1016.07 28.9816 1010.47 8.24077L1008.3 0.184492L999.949 0.0721537C996.933 0.0315617 993.886 0.0333317 990.932 0.0350437C989.912 0.0356365 988.903 0.0362349 987.91 0.0350779L956.073 2.6527e-06L958.847 13.3116C964.166 38.8424 975.073 62.4071 991.492 82.8029L991.494 82.806C993.38 85.1467 995.498 87.5613 997.416 89.7467C998.285 90.7373 999.113 91.6811 999.859 92.5493ZM969.668 11.0603C970.445 14.7914 971.349 18.4755 972.38 22.1086C977.947 41.7266 987.206 59.8572 1000.1 75.8797C1001.85 78.0418 1003.68 80.1283 1005.51 82.2155L1005.51 82.2165C1003.68 80.1289 1001.85 78.0422 1000.1 75.8797C984.817 56.8901 974.643 34.9389 969.668 11.0603Z" fill="#5326EC"/>
<path fill-rule="evenodd" clip-rule="evenodd" d="M43.7863 232.825L44.0593 233.143L50.0284 239.108L51.5769 240.356L51.587 240.364C52.9695 241.486 54.4727 242.753 56.0609 244.091L56.0635 244.093C59.9072 247.332 64.2488 250.991 68.5815 254.028L68.5833 254.03C129.413 296.654 211.142 292.766 267.371 244.469L267.372 244.468C294.375 221.264 311.841 192.063 319.979 157.539L319.98 157.537C320.196 156.617 320.415 155.573 320.595 154.713L320.596 154.712C320.668 154.366 320.734 154.049 320.792 153.783L323.661 140.461L270.683 140.278L268.432 148.407C260.384 177.471 243.529 200.387 217.946 215.836C176.794 240.672 122.956 235.12 87.5585 202.488L87.556 202.486C71.5685 187.737 59.9954 169.257 54.3988 148.517L52.2249 140.46L43.8759 140.348C40.8598 140.307 37.8131 140.309 34.8585 140.311C33.8388 140.311 32.8297 140.312 31.837 140.311L7.62626e-06 140.276L2.77336 153.587C8.09243 179.118 18.9999 202.683 35.4183 223.079L35.4208 223.082C37.3064 225.423 39.4252 227.837 41.3428 230.022C42.212 231.013 43.0402 231.957 43.7863 232.825ZM13.5946 151.336C14.3719 155.067 15.2758 158.751 16.3068 162.384C21.8736 182.002 31.1326 200.133 44.0305 216.156C45.7722 218.318 47.604 220.404 49.4363 222.491L49.4372 222.492C47.6045 220.405 45.7725 218.318 44.0305 216.156C28.7441 197.166 18.5695 175.215 13.5946 151.336Z" fill="#5326EC"/>
<path fill-rule="evenodd" clip-rule="evenodd" d="M317.345 232.825L317.618 233.143L323.587 239.108L325.135 240.356L325.146 240.364C326.528 241.486 328.031 242.753 329.619 244.091L329.622 244.093C333.466 247.332 337.807 250.991 342.14 254.028L342.142 254.03C402.971 296.654 484.701 292.766 540.929 244.469L540.931 244.468C567.934 221.264 585.4 192.063 593.538 157.539L593.538 157.538C593.755 156.617 593.974 155.573 594.154 154.713L594.154 154.712C594.227 154.366 594.293 154.049 594.35 153.783L597.219 140.461L544.241 140.278L541.99 148.407C533.942 177.471 517.088 200.387 491.504 215.836C450.353 240.672 396.515 235.12 361.117 202.488L361.115 202.486C345.127 187.737 333.554 169.257 327.957 148.517L325.783 140.46L317.434 140.348C314.418 140.307 311.372 140.309 308.417 140.311C307.397 140.311 306.388 140.312 305.396 140.311L273.559 140.276L276.332 153.587C281.651 179.118 292.558 202.683 308.977 223.079L308.979 223.082C310.865 225.423 312.984 227.837 314.901 230.023C315.771 231.013 316.599 231.957 317.345 232.825ZM287.153 151.336C287.93 155.067 288.834 158.751 289.865 162.384C295.432 182.002 304.691 200.133 317.589 216.156C319.331 218.318 321.162 220.404 322.995 222.491L322.996 222.492C321.163 220.405 319.331 218.318 317.589 216.156C302.303 197.166 292.128 175.215 287.153 151.336Z" fill="#5326EC"/>
<path fill-rule="evenodd" clip-rule="evenodd" d="M591.456 232.825L591.729 233.143L597.698 239.108L599.247 240.356L599.257 240.364C600.639 241.486 602.142 242.753 603.731 244.091L603.733 244.093C607.577 247.332 611.918 250.991 616.251 254.028L616.253 254.03C677.082 296.654 758.812 292.766 815.04 244.469L815.042 244.468C842.045 221.264 859.511 192.063 867.649 157.539L867.649 157.537C867.866 156.617 868.085 155.573 868.265 154.713L868.265 154.712C868.338 154.366 868.404 154.049 868.461 153.783L871.33 140.461L818.352 140.278L816.102 148.407C808.054 177.471 791.199 200.387 765.615 215.836C724.464 240.672 670.626 235.12 635.228 202.488L635.226 202.486C619.238 187.737 607.665 169.257 602.068 148.517L599.895 140.46L591.546 140.348C588.529 140.307 585.483 140.309 582.528 140.311C581.508 140.311 580.499 140.312 579.507 140.311L547.67 140.276L550.443 153.587C555.762 179.118 566.67 202.683 583.088 223.079L583.09 223.082C584.976 225.423 587.095 227.837 589.012 230.022C589.882 231.013 590.71 231.957 591.456 232.825ZM561.264 151.336C562.042 155.067 562.945 158.751 563.976 162.384C569.543 182.002 578.802 200.133 591.7 216.156C593.442 218.318 595.274 220.404 597.106 222.491L597.107 222.492C595.274 220.405 593.442 218.318 591.7 216.156C576.414 197.166 566.239 175.215 561.264 151.336Z" fill="#5326EC"/>
<path fill-rule="evenodd" clip-rule="evenodd" d="M863.357 232.825L863.63 233.143L869.599 239.108L871.148 240.356L871.158 240.364C872.54 241.486 874.043 242.753 875.632 244.091L875.634 244.093C879.478 247.332 883.819 250.991 888.152 254.028L888.154 254.03C948.983 296.654 1030.71 292.766 1086.94 244.469L1086.94 244.468C1113.95 221.264 1131.41 192.063 1139.55 157.539L1139.55 157.538C1139.77 156.617 1139.99 155.573 1140.17 154.713L1140.17 154.712C1140.24 154.366 1140.3 154.049 1140.36 153.783L1143.23 140.461L1090.25 140.278L1088 148.407C1079.95 177.471 1063.1 200.387 1037.52 215.836C996.365 240.672 942.527 235.12 907.129 202.488L907.127 202.486C891.139 187.737 879.566 169.257 873.969 148.517L871.796 140.46L863.447 140.348C860.43 140.307 857.384 140.309 854.429 140.311C853.409 140.311 852.4 140.312 851.408 140.311L819.571 140.276L822.344 153.587C827.663 179.118 838.571 202.683 854.989 223.079L854.991 223.082C856.877 225.423 858.996 227.837 860.913 230.023C861.783 231.013 862.611 231.957 863.357 232.825ZM833.165 151.336C833.943 155.067 834.846 158.751 835.877 162.384C841.444 182.002 850.703 200.133 863.601 216.156C865.343 218.318 867.175 220.404 869.007 222.491L869.008 222.492C867.175 220.405 865.343 218.318 863.601 216.156C848.315 197.166 838.14 175.215 833.165 151.336Z" fill="#5326EC"/>
<path fill-rule="evenodd" clip-rule="evenodd" d="M1139.13 232.825L1139.4 233.143L1145.37 239.108L1146.92 240.356L1146.93 240.364C1148.31 241.486 1149.81 242.753 1151.4 244.091L1151.4 244.093C1155.25 247.332 1159.59 250.991 1163.92 254.028L1163.92 254.03C1224.75 296.654 1306.48 292.766 1362.71 244.469L1362.71 244.468C1389.71 221.264 1407.18 192.063 1415.32 157.539L1415.32 157.537C1415.54 156.617 1415.75 155.573 1415.93 154.713L1415.93 154.712C1416.01 154.366 1416.07 154.049 1416.13 153.783L1419 140.461L1366.02 140.278L1363.77 148.407C1355.72 177.471 1338.87 200.387 1313.29 215.836C1272.13 240.672 1218.3 235.12 1182.9 202.488L1182.9 202.486C1166.91 187.737 1155.33 169.257 1149.74 148.517L1147.56 140.46L1139.22 140.348C1136.2 140.307 1133.15 140.309 1130.2 140.311C1129.18 140.311 1128.17 140.312 1127.18 140.311L1095.34 140.276L1098.11 153.587C1103.43 179.118 1114.34 202.683 1130.76 223.079L1130.76 223.082C1132.65 225.423 1134.76 227.837 1136.68 230.022C1137.55 231.013 1138.38 231.957 1139.13 232.825ZM1108.93 151.336C1109.71 155.067 1110.62 158.751 1111.65 162.384C1117.21 182.002 1126.47 200.133 1139.37 216.156C1141.11 218.318 1142.94 220.404 1144.78 222.491L1144.78 222.492C1142.94 220.405 1141.11 218.318 1139.37 216.156C1124.08 197.166 1113.91 175.215 1108.93 151.336Z" fill="#5326EC"/>
<path fill-rule="evenodd" clip-rule="evenodd" d="M43.7863 510.065L44.0593 510.383L50.0284 516.348L51.5769 517.596L51.587 517.604C52.9695 518.726 54.4727 519.993 56.0609 521.331L56.0635 521.333C59.9072 524.572 64.2488 528.231 68.5815 531.268L68.5833 531.27C129.413 573.895 211.142 570.007 267.371 521.709L267.372 521.708C294.375 498.504 311.841 469.303 319.979 434.779L319.98 434.778C320.196 433.857 320.415 432.813 320.595 431.953L320.595 431.952C320.668 431.606 320.734 431.289 320.792 431.023L323.661 417.701L270.683 417.518L268.432 425.647C260.384 454.712 243.529 477.627 217.946 493.076C176.794 517.912 122.956 512.36 87.5585 479.728L87.556 479.726C71.5685 464.977 59.9954 446.497 54.3988 425.757L52.2249 417.7L43.8759 417.588C40.8598 417.547 37.8131 417.549 34.8585 417.551C33.8388 417.552 32.8297 417.552 31.837 417.551L0 417.516L2.77335 430.827C8.09242 456.358 18.9999 479.923 35.4183 500.319L35.4208 500.322C37.3064 502.663 39.4252 505.077 41.3428 507.263C42.212 508.253 43.0401 509.197 43.7863 510.065ZM13.5946 428.576C14.3719 432.307 15.2758 435.991 16.3068 439.624C21.8736 459.242 31.1326 477.373 44.0305 493.396C45.7722 495.558 47.6039 497.644 49.4363 499.731L49.4372 499.732C47.6045 497.645 45.7725 495.558 44.0305 493.396C28.7441 474.406 18.5695 452.455 13.5946 428.576Z" fill="#5326EC"/>
<path fill-rule="evenodd" clip-rule="evenodd" d="M317.345 510.065L317.618 510.383L323.587 516.348L325.136 517.596L325.146 517.604C326.528 518.726 328.032 519.993 329.62 521.331L329.622 521.333C333.466 524.572 337.808 528.231 342.14 531.268L342.142 531.27C402.971 573.895 484.701 570.007 540.93 521.709L540.931 521.708C567.934 498.504 585.4 469.303 593.538 434.779L593.539 434.778C593.755 433.857 593.974 432.813 594.154 431.953L594.154 431.952C594.227 431.606 594.293 431.289 594.351 431.023L597.219 417.701L544.242 417.518L541.991 425.647C533.943 454.712 517.088 477.627 491.505 493.076C450.353 517.912 396.515 512.36 361.117 479.728L361.115 479.726C345.127 464.977 333.554 446.497 327.958 425.757L325.784 417.7L317.435 417.588C314.419 417.547 311.372 417.549 308.417 417.551C307.398 417.552 306.389 417.552 305.396 417.551L273.559 417.516L276.332 430.827C281.651 456.358 292.559 479.923 308.977 500.319L308.98 500.322C310.865 502.663 312.984 505.077 314.902 507.263C315.771 508.253 316.599 509.197 317.345 510.065ZM287.153 428.576C287.931 432.307 288.835 435.991 289.866 439.624C295.433 459.242 304.691 477.373 317.589 493.396C319.331 495.558 321.163 497.644 322.995 499.731L322.996 499.732C321.163 497.645 319.331 495.558 317.589 493.396C302.303 474.406 292.128 452.455 287.153 428.576Z" fill="#5326EC"/>
<path fill-rule="evenodd" clip-rule="evenodd" d="M591.456 510.065L591.729 510.383L597.698 516.348L599.246 517.596L599.256 517.604C600.639 518.726 602.142 519.993 603.73 521.331L603.733 521.333C607.577 524.572 611.918 528.231 616.251 531.268L616.253 531.27C677.082 573.895 758.811 570.007 815.04 521.709L815.042 521.708C842.044 498.504 859.51 469.303 867.649 434.779L867.649 434.778C867.866 433.857 868.084 432.813 868.265 431.953L868.265 431.952C868.337 431.606 868.404 431.289 868.461 431.023L871.33 417.701L818.352 417.518L816.101 425.647C808.053 454.712 791.198 477.627 765.615 493.076C724.464 517.912 670.626 512.36 635.228 479.728L635.225 479.726C619.238 464.977 607.665 446.497 602.068 425.757L599.894 417.7L591.545 417.588C588.529 417.547 585.482 417.549 582.528 417.551C581.508 417.552 580.499 417.552 579.506 417.551L547.669 417.516L550.443 430.827C555.762 456.358 566.669 479.923 583.088 500.319L583.09 500.322C584.976 502.663 587.094 505.077 589.012 507.263C589.881 508.253 590.709 509.197 591.456 510.065ZM561.264 428.576C562.041 432.307 562.945 435.991 563.976 439.624C569.543 459.242 578.802 477.373 591.7 493.396C593.442 495.558 595.273 497.644 597.106 499.731L597.107 499.732C595.274 497.645 593.442 495.558 591.7 493.396C576.413 474.406 566.239 452.455 561.264 428.576Z" fill="#5326EC"/>
<path fill-rule="evenodd" clip-rule="evenodd" d="M863.357 510.065L863.63 510.383L869.599 516.348L871.148 517.596L871.158 517.604C872.54 518.726 874.043 519.993 875.632 521.331L875.634 521.333C879.478 524.572 883.819 528.231 888.152 531.268L888.154 531.27C948.983 573.895 1030.71 570.007 1086.94 521.709L1086.94 521.708C1113.95 498.504 1131.41 469.303 1139.55 434.779L1139.55 434.778C1139.77 433.857 1139.99 432.813 1140.17 431.953L1140.17 431.952C1140.24 431.606 1140.3 431.289 1140.36 431.023L1143.23 417.701L1090.25 417.518L1088 425.647C1079.95 454.712 1063.1 477.627 1037.52 493.076C996.365 517.912 942.527 512.36 907.129 479.728L907.127 479.726C891.139 464.977 879.566 446.497 873.969 425.757L871.796 417.7L863.447 417.588C860.43 417.547 857.384 417.549 854.429 417.551C853.409 417.551 852.4 417.552 851.408 417.551L819.571 417.516L822.344 430.827C827.663 456.358 838.571 479.923 854.989 500.319L854.991 500.322C856.877 502.663 858.996 505.077 860.913 507.263C861.783 508.253 862.611 509.197 863.357 510.065ZM833.165 428.576C833.943 432.307 834.846 435.991 835.877 439.624C841.444 459.242 850.703 477.373 863.601 493.396C865.343 495.558 867.175 497.644 869.007 499.731L869.008 499.732C867.175 497.645 865.343 495.558 863.601 493.396C848.315 474.406 838.14 452.455 833.165 428.576Z" fill="#5326EC"/>
<path fill-rule="evenodd" clip-rule="evenodd" d="M1139.13 510.065L1139.4 510.383L1145.37 516.348L1146.92 517.596L1146.93 517.604C1148.31 518.726 1149.81 519.993 1151.4 521.331L1151.4 521.333C1155.25 524.572 1159.59 528.231 1163.92 531.268L1163.92 531.27C1224.75 573.895 1306.48 570.007 1362.71 521.709L1362.71 521.708C1389.71 498.504 1407.18 469.303 1415.32 434.779L1415.32 434.778C1415.54 433.857 1415.75 432.813 1415.93 431.953L1415.93 431.952C1416.01 431.606 1416.07 431.289 1416.13 431.023L1419 417.701L1366.02 417.518L1363.77 425.647C1355.72 454.712 1338.87 477.627 1313.29 493.076C1272.13 517.912 1218.3 512.36 1182.9 479.728L1182.9 479.726C1166.91 464.977 1155.33 446.497 1149.74 425.757L1147.56 417.7L1139.22 417.588C1136.2 417.547 1133.15 417.549 1130.2 417.551C1129.18 417.552 1128.17 417.552 1127.18 417.551L1095.34 417.516L1098.11 430.827C1103.43 456.358 1114.34 479.923 1130.76 500.319L1130.76 500.322C1132.65 502.663 1134.76 505.077 1136.68 507.263C1137.55 508.253 1138.38 509.197 1139.13 510.065ZM1108.93 428.576C1109.71 432.307 1110.62 435.991 1111.65 439.624C1117.21 459.242 1126.47 477.373 1139.37 493.396C1141.11 495.558 1142.94 497.644 1144.78 499.731L1144.78 499.732C1142.94 497.645 1141.11 495.558 1139.37 493.396C1124.08 474.406 1113.91 452.455 1108.93 428.576Z" fill="#5326EC"/>
<path fill-rule="evenodd" clip-rule="evenodd" d="M43.7864 786.293L44.0595 786.611L50.0286 792.576L51.577 793.824L51.5871 793.833C52.9696 794.954 54.4728 796.221 56.0611 797.559L56.0636 797.562C59.9073 800.801 64.2489 804.46 68.5816 807.497L68.5834 807.498C129.413 850.123 211.142 846.235 267.371 797.938L267.373 797.936C294.375 774.733 311.841 745.532 319.979 711.008L319.98 711.006C320.197 710.086 320.415 709.041 320.595 708.181L320.596 708.18C320.668 707.834 320.734 707.518 320.792 707.251L323.661 693.93L270.683 693.746L268.432 701.875C260.384 730.94 243.529 753.855 217.946 769.304C176.794 794.14 122.957 788.588 87.5586 755.957L87.5561 755.954C71.5686 741.206 59.9955 722.726 54.3989 701.985L52.225 693.929L43.876 693.816C40.8599 693.776 37.8132 693.778 34.8586 693.779C33.8389 693.78 32.8298 693.78 31.8371 693.779L0.00012202 693.744L2.77347 707.056C8.09254 732.587 19 756.151 35.4184 776.547L35.4209 776.55C37.3065 778.891 39.4253 781.306 41.3429 783.491C42.2121 784.482 43.0403 785.425 43.7864 786.293ZM13.5947 704.805C14.372 708.536 15.276 712.22 16.3069 715.853C21.8738 735.471 31.1327 753.601 44.0306 769.624C45.7723 771.786 47.6041 773.872 49.4365 775.96L49.4373 775.961C47.6046 773.873 45.7726 771.786 44.0306 769.624C28.7442 750.634 18.5696 728.683 13.5947 704.805Z" fill="#5326EC"/>
<path fill-rule="evenodd" clip-rule="evenodd" d="M317.345 786.293L317.618 786.611L323.587 792.576L325.136 793.824L325.146 793.833C326.529 794.954 328.032 796.221 329.62 797.559L329.623 797.562C333.466 800.801 337.808 804.46 342.141 807.497L342.142 807.498C402.972 850.123 484.701 846.235 540.93 797.938L540.931 797.936C567.934 774.733 585.4 745.532 593.538 711.008L593.539 711.006C593.755 710.086 593.974 709.041 594.154 708.181L594.154 708.18C594.227 707.834 594.293 707.518 594.351 707.251L597.22 693.93L544.242 693.746L541.991 701.875C533.943 730.94 517.088 753.855 491.505 769.304C450.353 794.14 396.515 788.588 361.118 755.957L361.115 755.954C345.128 741.206 333.554 722.726 327.958 701.985L325.784 693.929L317.435 693.816C314.419 693.776 311.372 693.778 308.418 693.779C307.398 693.78 306.389 693.78 305.396 693.779L273.559 693.744L276.332 707.056C281.651 732.587 292.559 756.151 308.977 776.547L308.98 776.55C310.865 778.891 312.984 781.306 314.902 783.491C315.771 784.482 316.599 785.425 317.345 786.293ZM287.154 704.805C287.931 708.536 288.835 712.22 289.866 715.853C295.433 735.471 304.692 753.601 317.589 769.624C319.331 771.786 321.163 773.872 322.995 775.96L322.996 775.961C321.164 773.873 319.332 771.786 317.589 769.624C302.303 750.634 292.128 728.683 287.154 704.805Z" fill="#5326EC"/>
<path fill-rule="evenodd" clip-rule="evenodd" d="M591.456 786.293L591.729 786.611L597.698 792.576L599.246 793.824L599.256 793.833C600.639 794.954 602.142 796.221 603.73 797.559L603.733 797.562C607.577 800.801 611.918 804.46 616.251 807.497L616.253 807.498C677.082 850.123 758.812 846.235 815.04 797.938L815.042 797.936C842.045 774.733 859.511 745.532 867.649 711.008L867.649 711.006C867.866 710.086 868.085 709.041 868.265 708.181L868.265 708.18C868.337 707.834 868.404 707.518 868.461 707.251L871.33 693.93L818.352 693.746L816.101 701.875C808.053 730.94 791.198 753.855 765.615 769.304C724.464 794.14 670.626 788.588 635.228 755.957L635.225 755.954C619.238 741.206 607.665 722.726 602.068 701.985L599.894 693.929L591.545 693.816C588.529 693.776 585.482 693.778 582.528 693.779C581.508 693.78 580.499 693.78 579.506 693.779L547.669 693.744L550.443 707.056C555.762 732.587 566.669 756.151 583.088 776.547L583.09 776.55C584.976 778.891 587.095 781.306 589.012 783.491C589.881 784.482 590.71 785.425 591.456 786.293ZM561.264 704.805C562.041 708.536 562.945 712.22 563.976 715.853C569.543 735.471 578.802 753.601 591.7 769.624C593.442 771.786 595.273 773.872 597.106 775.96L597.107 775.961C595.274 773.873 593.442 771.786 591.7 769.624C576.414 750.634 566.239 728.683 561.264 704.805Z" fill="#5326EC"/>
<path fill-rule="evenodd" clip-rule="evenodd" d="M863.357 786.293L863.63 786.611L869.599 792.576L871.148 793.824L871.158 793.833C872.54 794.954 874.043 796.221 875.632 797.559L875.634 797.562C879.478 800.801 883.82 804.46 888.152 807.497L888.154 807.498C948.983 850.123 1030.71 846.235 1086.94 797.938L1086.94 797.936C1113.95 774.733 1131.41 745.532 1139.55 711.008L1139.55 711.006C1139.77 710.086 1139.99 709.041 1140.17 708.181L1140.17 708.18C1140.24 707.834 1140.31 707.518 1140.36 707.251L1143.23 693.93L1090.25 693.746L1088 701.875C1079.95 730.94 1063.1 753.855 1037.52 769.304C996.365 794.14 942.527 788.588 907.129 755.957L907.127 755.954C891.139 741.206 879.566 722.726 873.97 701.985L871.796 693.929L863.447 693.816C860.431 693.776 857.384 693.778 854.429 693.779C853.41 693.78 852.401 693.78 851.408 693.779L819.571 693.744L822.344 707.056C827.663 732.587 838.571 756.151 854.989 776.547L854.992 776.55C856.877 778.891 858.996 781.306 860.914 783.491C861.783 784.482 862.611 785.425 863.357 786.293ZM833.165 704.805C833.943 708.536 834.847 712.22 835.878 715.853C841.444 735.471 850.703 753.601 863.601 769.624C865.343 771.786 867.175 773.872 869.007 775.96L869.008 775.961C867.175 773.873 865.343 771.786 863.601 769.624C848.315 750.634 838.14 728.683 833.165 704.805Z" fill="#5326EC"/>
<path fill-rule="evenodd" clip-rule="evenodd" d="M1139.13 786.293L1139.4 786.611L1145.37 792.576L1146.92 793.824L1146.93 793.833C1148.31 794.954 1149.81 796.221 1151.4 797.559L1151.4 797.562C1155.25 800.801 1159.59 804.46 1163.92 807.497L1163.92 807.498C1224.75 850.123 1306.48 846.235 1362.71 797.938L1362.71 797.936C1389.71 774.733 1407.18 745.532 1415.32 711.008L1415.32 711.006C1415.54 710.086 1415.75 709.041 1415.93 708.181L1415.93 708.18C1416.01 707.834 1416.07 707.518 1416.13 707.251L1419 693.93L1366.02 693.746L1363.77 701.875C1355.72 730.94 1338.87 753.855 1313.29 769.304C1272.13 794.14 1218.3 788.588 1182.9 755.957L1182.9 755.954C1166.91 741.206 1155.33 722.726 1149.74 701.985L1147.56 693.929L1139.22 693.816C1136.2 693.776 1133.15 693.778 1130.2 693.779C1129.18 693.78 1128.17 693.78 1127.18 693.779L1095.34 693.744L1098.11 707.056C1103.43 732.587 1114.34 756.151 1130.76 776.547L1130.76 776.55C1132.65 778.891 1134.76 781.306 1136.68 783.491C1137.55 784.482 1138.38 785.425 1139.13 786.293ZM1108.93 704.805C1109.71 708.536 1110.62 712.22 1111.65 715.853C1117.21 735.471 1126.47 753.601 1139.37 769.624C1141.11 771.786 1142.94 773.872 1144.78 775.96L1144.78 775.961C1142.94 773.873 1141.11 771.786 1139.37 769.624C1124.08 750.634 1113.91 728.683 1108.93 704.805Z" fill="#5326EC"/>
</g>
</svg>
