<svg width="1076" height="314" viewBox="0 0 1076 314" fill="none" xmlns="http://www.w3.org/2000/svg">
<g clip-path="url(#clip0_9381_178944)">
<path d="M-399.951 252.541C-397.902 275.657 -394.983 299.083 -386.508 320.803C-376.325 347.208 -358.38 370.759 -337.393 391.3C-243.169 483.671 -96.7563 513.148 40.8702 530.183C145.588 543.153 251.61 551.903 356.98 543.991C474.954 535.303 589.979 506.291 705.874 484.013C784.823 468.809 864.735 456.677 945.362 452.798C984.604 450.874 1024.31 450.905 1062.53 442.683C1094.2 435.919 1124.06 423.631 1153.25 410.63C1165.14 405.324 1177.4 399.584 1185.38 389.997C1194.69 378.733 1196.8 363.871 1197.8 349.66C1199.32 325.054 1204.01 285.431 1193.26 262.221C1182.52 239.012 1145.36 224.398 1122.73 211.986C1100.56 199.947 1077.8 188.901 1054.61 178.631C1040.7 172.425 1026.65 166.54 1012.45 160.976C1004.3 157.749 996.091 154.584 987.833 151.481C982.306 149.412 976.749 147.344 971.161 145.275L966.224 143.476L956.569 140.063L948.839 137.394L941.667 134.912L934.061 132.337L926.02 129.637L922.543 128.489L916.334 126.379L905.778 122.966L892.956 118.87L881.811 115.395L863.928 109.934C859.333 108.569 854.615 107.172 850.082 105.838C845.549 104.504 841.606 103.356 837.353 102.115C829.964 100.005 822.575 97.8949 815.155 95.909C803.544 92.8062 791.84 89.7034 780.166 86.6005C773.678 84.894 767.158 83.2184 760.67 81.5739C748.251 78.4504 735.709 75.3992 723.042 72.4205C712.445 69.9382 701.827 67.5181 691.189 65.16C671.112 60.7126 650.974 56.5134 630.774 52.5624C611.525 48.777 592.235 45.219 572.904 41.8887C546.494 37.3171 519.981 33.18 493.364 29.4773C472.667 26.5606 451.97 23.8612 431.272 21.3789C349.911 11.6774 268.157 5.34757 186.01 2.38953C102.993 -0.692624 20.1212 -0.630575 -62.6058 2.5757C-89.4916 3.5686 -116.564 4.93371 -143.325 7.66421C-182.443 11.6669 -220.94 18.6484 -257.388 31.8665C-318.797 54.176 -374.338 97.0262 -393.245 154.429C-404.049 185.892 -402.9 219.62 -399.951 252.541Z" fill="#D7DDEA"/>
<g style="mix-blend-mode:overlay" opacity="0.2">
<path d="M905.406 123.059L915.962 126.472C853.87 139.845 729.407 187.536 622.516 357.851L535.401 356.424C535.401 356.424 688.83 145.803 905.406 123.059ZM708.171 360.644L782.868 364.894C782.868 364.894 831.92 194.611 933.937 132.43L925.896 129.73C880.569 147.385 790.909 200.94 708.171 360.644ZM911.988 366.291C911.988 366.291 910.591 235.072 948.715 137.487L941.544 135.005C918.321 161.348 873.243 229.021 860.638 366.291H911.988ZM960.202 371.907H1008.45C1008.45 371.907 999.413 226.073 966.101 143.569L956.446 140.156C958.681 188.653 963.959 317.607 960.202 371.907ZM971.037 145.399C994.26 184.371 1036.67 267.745 1048.9 373.365H1094.01C1094.01 373.365 1077.59 247.483 987.709 151.512C982.183 149.444 976.625 147.396 971.037 145.368V145.399ZM1012.33 160.914C1058.06 200.071 1117.64 269.513 1136.02 376.096H1187.37C1187.37 376.096 1153.99 260.515 1054.49 178.569C1040.58 172.446 1026.53 166.582 1012.33 160.976V160.914ZM351.889 349.38C351.889 349.38 358.098 347.984 431.242 347.984C622.888 158.928 801.62 123.214 892.677 118.963L881.532 115.488C573.898 110.958 351.889 349.38 351.889 349.38ZM193.213 352.204H280.328C520.965 146.206 748.655 112.075 863.649 110.027C859.055 108.662 854.336 107.266 849.803 105.931C473.464 93.7372 193.213 352.204 193.213 352.204ZM37.6418 349.38H123.204C392 116.946 685.135 94.637 837.074 102.208C829.685 100.098 822.296 97.988 814.876 96.0022C330.063 53.5864 37.6418 349.38 37.6418 349.38ZM-141.99 341.685H-39.321C278.092 88.2141 618.045 74.8408 779.888 86.6626C773.399 84.9561 766.879 83.2806 760.391 81.6361C203.117 22.9923 -141.99 341.685 -141.99 341.685ZM-153.663 193.804V257.195C236.739 69.6281 548.378 56.9995 722.763 72.3586C712.166 69.8763 701.548 67.456 690.91 65.0979C274.305 24.6058 -153.663 193.68 -153.663 193.68V193.804ZM-150.248 109.5V154.925C184.737 51.4764 477.097 45.6741 630.495 52.5314C611.246 48.7459 591.956 45.188 572.625 41.8576C232.703 23.706 -150.155 109.375 -150.155 109.375L-150.248 109.5ZM-147.92 42.9746V78.8745C110.817 30.5322 355.024 26.4675 493.054 29.4152C472.357 26.4985 451.66 23.7991 430.962 21.3168C167.755 13.5287 -147.92 42.8505 -147.92 42.8505V42.9746ZM-146.771 17.6244C-31.4664 5.64744 86.9117 2.26536 185.42 2.32742C102.652 -0.77542 19.6973 -0.558229 -62.9469 2.51358C-89.8327 3.50649 -116.905 4.87179 -143.666 7.60229C-145.28 10.6915 -146.332 14.0431 -146.771 17.5004V17.6244Z" fill="#F7F7F9"/>
</g>
</g>
<defs>
<clipPath id="clip0_9381_178944">
<path d="M0 0H1077V298C1077 306.837 1069.84 314 1061 314H16C7.16346 314 0 306.837 0 298V0Z" fill="white"/>
</clipPath>
</defs>
</svg>
