<svg width="1920" height="1102" fill="none" xmlns="http://www.w3.org/2000/svg"><path fill-rule="evenodd" clip-rule="evenodd" d="m170.737 168.728-.011.011c-8.513 8.771-18.766 15.692-30.718 20.776l-.011.005-.011.004c-11.83 4.928-24.643 7.375-38.404 7.375-14.122 0-27.46-2.537-39.984-7.629l-.007-.003-.008-.003c-12.289-5.071-23.052-11.968-32.262-20.698l-.023-.022-.023-.022c-9.025-8.911-16.197-19.36-21.52-31.319l-.008-.019-.007-.018C2.572 125.139 0 112.223 0 98.45s2.572-26.69 7.74-38.717l.007-.018.008-.018c5.323-11.96 12.498-22.326 21.532-31.067 9.039-8.922 19.726-15.918 32.029-20.995C73.666 2.54 86.83 0 100.78 0c15.958 0 31.199 3.262 45.693 9.78 14.539 6.364 26.384 15.486 35.461 27.375l1.763 2.309-37.125 31.809-2.022-2.661c-5.617-7.395-12.197-12.87-19.734-16.509l-.013-.006-.012-.006c-7.395-3.651-15.384-5.484-24.011-5.484-6.696 0-12.932 1.318-18.744 3.938-5.676 2.64-10.59 6.26-14.763 10.875l-.02.021-.019.021c-4.137 4.412-7.41 9.85-9.782 16.375l-.004.012-.005.012c-2.358 6.32-3.552 13.174-3.552 20.589 0 7.58 1.19 14.604 3.544 21.095 2.54 6.338 5.988 11.799 10.331 16.417 4.35 4.626 9.447 8.258 15.31 10.906 5.998 2.63 12.424 3.953 19.309 3.953 9.896 0 18.305-2.718 25.377-8.077l.013-.01.014-.01c6.129-4.539 10.46-10.064 13.059-16.613H95.235V81.618h102.579v16.04c0 14.085-2.379 27.234-7.168 39.419-4.772 12.143-11.4 22.701-19.898 31.639l-.011.012Zm-25.55-45.714a42.024 42.024 0 0 1-.99 3.097c-2.758 7.598-7.6 13.962-14.526 19.09-7.668 5.811-16.764 8.717-27.286 8.717-7.312 0-14.178-1.409-20.599-4.226-6.242-2.818-11.681-6.692-16.318-11.622-4.637-4.931-8.293-10.742-10.968-17.433-2.497-6.868-3.745-14.263-3.745-22.187 0-7.748 1.248-14.968 3.745-21.66 2.496-6.867 5.974-12.678 10.433-17.432 4.458-4.93 9.72-8.805 15.783-11.622 6.242-2.818 12.93-4.226 20.064-4.226 9.095 0 17.567 1.937 25.414 5.81 7.16 3.457 13.469 8.455 18.925 14.995.66.79 1.306 1.603 1.941 2.439l32.369-27.735c-8.739-11.445-20.153-20.25-34.242-26.413-14.089-6.34-28.891-9.509-44.407-9.509-13.554 0-26.306 2.465-38.255 7.396-11.949 4.93-22.293 11.71-31.032 20.338-8.738 8.452-15.694 18.49-20.866 30.112-4.993 11.621-7.49 24.124-7.49 37.507 0 13.382 2.497 25.885 7.49 37.507 5.172 11.622 12.128 21.747 20.866 30.375 8.918 8.452 19.35 15.144 31.3 20.074 12.127 4.931 25.057 7.396 38.789 7.396 13.376 0 25.771-2.377 37.185-7.132 11.592-4.93 21.49-11.621 29.694-20.074 8.204-8.628 14.624-18.841 19.261-30.639 4.637-11.798 6.956-24.565 6.956-38.3V84.715H98.372v38.299h46.815Zm68.468 70.98V2.905h52.286v191.089h-52.286Zm129.554 0L268.836 2.905h56.539l47.299 131.522L420.74 2.905h54.679L399.94 193.994h-56.731Zm29.441-50.377L323.16 6.003h-49.758l71.962 184.894h52.433L470.828 6.003h-47.885L372.65 143.617Zm-155.859 47.28h46.013V6.003h-46.013v184.894Zm435.473-22.169-.011.011c-8.513 8.771-18.766 15.692-30.718 20.776l-.011.005-.011.004c-11.83 4.928-24.643 7.375-38.404 7.375-14.122 0-27.46-2.537-39.984-7.629l-.007-.003-.008-.003c-12.289-5.071-23.052-11.968-32.262-20.698l-.023-.022-.023-.022c-9.025-8.911-16.197-19.36-21.52-31.319l-.008-.019-.007-.018c-5.168-12.027-7.74-24.943-7.74-38.716s2.572-26.69 7.74-38.717l.007-.018.008-.018c5.323-11.96 12.498-22.326 21.532-31.067 9.039-8.922 19.726-15.918 32.029-20.995C555.193 2.54 568.357 0 582.307 0 598.265 0 613.506 3.262 628 9.78c14.539 6.364 26.384 15.486 35.461 27.375l1.763 2.309-37.125 31.809-2.022-2.661c-5.617-7.395-12.197-12.87-19.734-16.509l-.013-.006-.012-.006c-7.395-3.651-15.384-5.484-24.011-5.484-6.696 0-12.932 1.318-18.744 3.938-5.675 2.64-10.59 6.26-14.763 10.875l-.019.021-.02.021c-4.137 4.412-7.41 9.85-9.782 16.375l-.004.012-.005.012c-2.358 6.32-3.552 13.174-3.552 20.589 0 7.58 1.191 14.604 3.544 21.095 2.541 6.338 5.989 11.799 10.331 16.417 4.351 4.626 9.447 8.258 15.31 10.906 5.998 2.63 12.424 3.953 19.309 3.953 9.896 0 18.305-2.718 25.377-8.077l.013-.01.014-.01c6.129-4.539 10.46-10.064 13.059-16.613h-45.613V81.618h102.579v16.04c0 14.085-2.379 27.234-7.167 39.419-4.773 12.143-11.401 22.701-19.899 31.639l-.011.012Zm-25.55-45.714a42.024 42.024 0 0 1-.99 3.097c-2.758 7.598-7.6 13.962-14.526 19.09-7.668 5.811-16.764 8.717-27.286 8.717-7.312 0-14.178-1.409-20.599-4.226-6.242-2.818-11.681-6.692-16.318-11.622-4.637-4.931-8.293-10.742-10.968-17.433-2.497-6.868-3.746-14.263-3.746-22.187 0-7.748 1.249-14.968 3.746-21.66 2.497-6.867 5.974-12.678 10.433-17.432 4.458-4.93 9.72-8.805 15.783-11.622 6.242-2.818 12.93-4.226 20.064-4.226 9.095 0 17.567 1.937 25.414 5.81 7.16 3.457 13.469 8.455 18.925 14.995.66.79 1.307 1.603 1.941 2.439l32.369-27.735c-8.739-11.445-20.153-20.25-34.242-26.413-14.089-6.34-28.891-9.509-44.407-9.509-13.554 0-26.306 2.465-38.255 7.396-11.949 4.93-22.293 11.71-31.032 20.338-8.738 8.452-15.694 18.49-20.866 30.112-4.993 11.621-7.49 24.124-7.49 37.507 0 13.382 2.497 25.885 7.49 37.507 5.172 11.622 12.128 21.747 20.866 30.375 8.918 8.452 19.351 15.144 31.3 20.074 12.127 4.931 25.057 7.396 38.789 7.396 13.376 0 25.771-2.377 37.185-7.132 11.592-4.93 21.49-11.621 29.694-20.074 8.204-8.628 14.624-18.841 19.261-30.639 4.637-11.798 6.956-24.565 6.956-38.3V84.715h-96.306v38.299h46.815Zm68.468 70.98V2.905h52.286v191.089h-52.286Zm129.554 0L750.363 2.905h56.539l47.299 131.522L902.267 2.905h54.679l-75.479 191.089h-56.731Zm29.441-50.377L804.687 6.003h-49.758l71.962 184.894h52.433L952.355 6.003H904.47l-50.293 137.614Zm-155.859 47.28h46.013V6.003h-46.013v184.894Zm435.462-22.158.01-.011.01-.012c8.5-8.938 15.13-19.496 19.9-31.639 4.79-12.185 7.17-25.334 7.17-39.42v-16.04h-102.58v44.494h45.61c-2.6 6.549-6.93 12.074-13.06 16.613l-.01.01-.01.01c-7.08 5.359-15.48 8.077-25.38 8.077-6.89 0-13.31-1.323-19.31-3.953-5.86-2.648-10.96-6.28-15.31-10.906-4.34-4.618-7.79-10.079-10.33-16.417-2.35-6.491-3.54-13.515-3.54-21.095 0-7.415 1.19-14.269 3.55-20.589v-.012l.01-.012c2.37-6.525 5.64-11.963 9.78-16.375l.02-.02.02-.022c4.17-4.615 9.08-8.235 14.76-10.875 5.81-2.62 12.05-3.938 18.74-3.938 8.63 0 16.62 1.833 24.02 5.484l.01.006.01.006c7.54 3.638 14.12 9.114 19.73 16.509l2.03 2.66 37.12-31.808-1.76-2.309c-9.08-11.889-20.92-21.011-35.46-27.374-14.5-6.519-29.74-9.781-45.7-9.781-13.95 0-27.11 2.54-39.46 7.635-12.3 5.077-22.99 12.073-32.029 20.995-9.034 8.74-16.209 19.107-21.531 31.067l-.008.018-.008.018c-5.168 12.027-7.74 24.944-7.74 38.717s2.572 26.689 7.74 38.716l.008.018.008.019c5.322 11.959 12.494 22.408 21.52 31.319l.022.022.023.022c9.205 8.73 19.975 15.627 32.265 20.698v.003l.01.003c12.53 5.092 25.86 7.629 39.99 7.629 13.76 0 26.57-2.447 38.4-7.375l.01-.004.01-.005c11.95-5.084 22.21-12.005 30.72-20.776Zm-26.53-42.628c.37-1.01.7-2.043.99-3.097h-46.81v-38.3h96.3v12.943c0 13.735-2.32 26.502-6.95 38.3-4.64 11.798-11.06 22.011-19.26 30.639-8.21 8.453-18.11 15.144-29.7 20.074-11.41 4.755-23.81 7.132-37.18 7.132-13.74 0-26.67-2.465-38.79-7.396-11.95-4.93-22.39-11.622-31.302-20.074-8.739-8.628-15.695-18.753-20.867-30.375-4.993-11.622-7.49-24.125-7.49-37.507 0-13.383 2.497-25.886 7.49-37.507 5.172-11.622 12.128-21.66 20.867-30.112 8.742-8.628 19.082-15.408 31.032-20.338 11.95-4.93 24.7-7.396 38.25-7.396 15.52 0 30.32 3.17 44.41 9.509 14.09 6.163 25.5 14.968 34.24 26.413l-32.37 27.735a62.77 62.77 0 0 0-1.94-2.439c-5.45-6.54-11.76-11.538-18.92-14.994-7.85-3.874-16.32-5.811-25.42-5.811-7.13 0-13.82 1.408-20.06 4.226-6.06 2.817-11.32 6.691-15.78 11.622-4.46 4.754-7.94 10.565-10.44 17.433-2.49 6.691-3.74 13.91-3.74 21.659 0 7.924 1.25 15.319 3.74 22.187 2.68 6.691 6.34 12.502 10.97 17.433 4.64 4.93 10.08 8.804 16.32 11.622 6.42 2.817 13.29 4.226 20.6 4.226 10.52 0 19.62-2.906 27.29-8.717 6.92-5.128 11.76-11.492 14.52-19.09Zm69.46-123.206v191.089h52.28V2.905h-52.28Zm55.18 0 74.37 191.089h56.73l75.48-191.089h-54.68l-48.06 131.522-47.3-131.522h-56.54Zm54.32 3.098 49.49 137.614L1386 6.003h47.88l-73.03 184.894h-52.43L1236.46 6.003h49.75Zm-60.35 184.894h-46.01V6.003h46.01v184.894Zm389.46-22.169-.01.011c-8.52 8.771-18.77 15.692-30.72 20.776l-.01.005-.01.004c-11.83 4.928-24.65 7.375-38.41 7.375-14.12 0-27.46-2.537-39.98-7.629l-.01-.003-.01-.003c-12.28-5.071-23.05-11.968-32.26-20.698l-.02-.022-.02-.022c-9.03-8.911-16.2-19.36-21.52-31.319l-.01-.019-.01-.018c-5.17-12.027-7.74-24.943-7.74-38.716s2.57-26.69 7.74-38.717l.01-.018.01-.018c5.32-11.96 12.49-22.326 21.53-31.067 9.04-8.922 19.72-15.918 32.03-20.995C1518.25 2.54 1531.41 0 1545.36 0c15.96 0 31.2 3.262 45.69 9.78 14.54 6.364 26.39 15.486 35.47 27.375l1.76 2.309-37.13 31.809-2.02-2.661c-5.62-7.395-12.2-12.87-19.73-16.509l-.02-.006-.01-.006c-7.39-3.651-15.38-5.484-24.01-5.484-6.69 0-12.93 1.318-18.74 3.938a45.68 45.68 0 0 0-14.77 10.875l-.01.021-.02.021c-4.14 4.412-7.41 9.85-9.79 16.375v.012l-.01.012c-2.35 6.32-3.55 13.174-3.55 20.589 0 7.58 1.19 14.604 3.55 21.095 2.54 6.338 5.98 11.799 10.33 16.417 4.35 4.626 9.44 8.258 15.31 10.906 6 2.63 12.42 3.953 19.31 3.953 9.89 0 18.3-2.718 25.37-8.077l.02-.01.01-.01c6.13-4.539 10.46-10.064 13.06-16.613h-45.61V81.618h102.58v16.04c0 14.085-2.38 27.234-7.17 39.419-4.77 12.143-11.4 22.701-19.9 31.639l-.01.012Zm-25.55-45.714a39.345 39.345 0 0 1-.99 3.097c-2.76 7.598-7.6 13.962-14.53 19.09-7.67 5.811-16.76 8.717-27.28 8.717-7.32 0-14.18-1.409-20.6-4.226-6.24-2.818-11.68-6.692-16.32-11.622-4.64-4.931-8.29-10.742-10.97-17.433-2.5-6.868-3.74-14.263-3.74-22.187 0-7.748 1.24-14.968 3.74-21.66 2.5-6.867 5.98-12.678 10.43-17.432 4.46-4.93 9.72-8.805 15.79-11.622 6.24-2.818 12.93-4.226 20.06-4.226 9.1 0 17.57 1.937 25.42 5.81 7.16 3.457 13.46 8.455 18.92 14.995.66.79 1.31 1.603 1.94 2.439l32.37-27.735c-8.74-11.445-20.15-20.25-34.24-26.413-14.09-6.34-28.89-9.509-44.41-9.509-13.55 0-26.3 2.465-38.25 7.396-11.95 4.93-22.3 11.71-31.04 20.338-8.73 8.452-15.69 18.49-20.86 30.112-5 11.621-7.49 24.124-7.49 37.507 0 13.382 2.49 25.885 7.49 37.507 5.17 11.622 12.13 21.747 20.86 30.375 8.92 8.452 19.36 15.144 31.3 20.074 12.13 4.931 25.06 7.396 38.79 7.396 13.38 0 25.77-2.377 37.19-7.132 11.59-4.93 21.49-11.621 29.69-20.074 8.21-8.628 14.63-18.841 19.26-30.639 4.64-11.798 6.96-24.565 6.96-38.3V84.715h-96.31v38.299h46.82Zm68.47 70.98V2.905h52.28v191.089h-52.28Zm129.55 0L1713.42 2.905h56.54l47.3 131.522 48.06-131.522H1920l-75.48 191.089h-56.73Zm29.44-50.377L1767.74 6.003h-49.76l71.97 184.894h52.43l73.03-184.894h-47.89l-50.29 137.614Zm-155.86 47.28h46.02V6.003h-46.02v184.894ZM170.737 395.003l-.011.011c-8.513 8.77-18.766 15.692-30.718 20.776l-.011.004-.011.005c-11.83 4.928-24.643 7.375-38.404 7.375-14.122 0-27.46-2.537-39.984-7.629l-.007-.003-.008-.003c-12.289-5.071-23.052-11.968-32.262-20.698l-.023-.022-.023-.022c-9.025-8.911-16.197-19.36-21.52-31.32l-.008-.018-.007-.018C2.572 351.414 0 338.498 0 324.724c0-13.773 2.572-26.689 7.74-38.716l.007-.018.008-.019c5.323-11.959 12.498-22.326 21.532-31.066 9.039-8.922 19.726-15.918 32.029-20.995 12.35-5.096 25.514-7.635 39.464-7.635 15.958 0 31.199 3.262 45.693 9.781 14.539 6.362 26.384 15.485 35.461 27.374l1.763 2.309-37.125 31.808-2.022-2.66c-5.617-7.395-12.197-12.871-19.734-16.509l-.013-.006-.012-.006c-7.395-3.651-15.384-5.484-24.011-5.484-6.696 0-12.932 1.318-18.744 3.938-5.676 2.64-10.59 6.26-14.763 10.875l-.02.021-.019.021c-4.137 4.412-7.41 9.85-9.782 16.375l-.004.012-.005.012c-2.358 6.32-3.552 13.174-3.552 20.588 0 7.581 1.19 14.604 3.544 21.096 2.54 6.338 5.988 11.799 10.331 16.417 4.35 4.626 9.447 8.258 15.31 10.906 5.998 2.63 12.424 3.953 19.309 3.953 9.896 0 18.305-2.718 25.377-8.077l.013-.01.014-.01c6.129-4.539 10.46-10.064 13.059-16.613H95.235v-44.494h102.579v16.04c0 14.085-2.379 27.235-7.168 39.42-4.772 12.142-11.4 22.701-19.898 31.639l-.011.012Zm-25.55-45.714a42.024 42.024 0 0 1-.99 3.097c-2.758 7.598-7.6 13.961-14.526 19.09-7.668 5.811-16.764 8.717-27.286 8.717-7.312 0-14.178-1.409-20.599-4.226-6.242-2.818-11.681-6.692-16.318-11.622-4.637-4.931-8.293-10.742-10.968-17.433-2.497-6.868-3.745-14.264-3.745-22.188 0-7.747 1.248-14.967 3.745-21.659 2.496-6.867 5.974-12.678 10.433-17.432 4.458-4.931 9.72-8.805 15.783-11.622 6.242-2.818 12.93-4.226 20.064-4.226 9.095 0 17.567 1.937 25.414 5.811 7.16 3.456 13.469 8.454 18.925 14.994.66.79 1.306 1.603 1.941 2.438l32.369-27.734c-8.739-11.446-20.153-20.25-34.242-26.413-14.089-6.339-28.891-9.509-44.407-9.509-13.554 0-26.306 2.465-38.255 7.396-11.949 4.93-22.293 11.71-31.032 20.338-8.738 8.452-15.694 18.489-20.866 30.111-4.993 11.622-7.49 24.125-7.49 37.507 0 13.383 2.497 25.886 7.49 37.508 5.172 11.621 12.128 21.747 20.866 30.375 8.918 8.452 19.35 15.144 31.3 20.074 12.127 4.931 25.057 7.396 38.789 7.396 13.376 0 25.771-2.377 37.185-7.132 11.592-4.93 21.49-11.622 29.694-20.074 8.204-8.628 14.624-18.841 19.261-30.639 4.637-11.798 6.956-24.565 6.956-38.3V310.99H98.372v38.299h46.815Zm68.468-120.109h52.286v191.089h-52.286V229.18Zm55.181 0h56.539l47.299 131.522L420.74 229.18h54.679L399.94 420.269h-56.731L268.836 229.18ZM372.65 369.891l-49.49-137.614h-49.758l71.962 184.894h52.433l73.031-184.894h-47.885L372.65 369.891Zm-155.859 47.28h46.013V232.277h-46.013v184.894Zm435.473-22.168-.011.011c-8.512 8.77-18.765 15.692-30.718 20.776l-.011.004-.01.005c-11.83 4.928-24.643 7.375-38.404 7.375-14.123 0-27.46-2.537-39.984-7.629l-.008-.003-.008-.003c-12.288-5.071-23.052-11.968-32.262-20.698l-.023-.022-.022-.022c-9.026-8.911-16.198-19.36-21.52-31.32l-.008-.018-.008-.018c-5.168-12.027-7.74-24.943-7.74-38.717 0-13.773 2.572-26.689 7.74-38.716l.008-.018.008-.019c5.322-11.959 12.497-22.326 21.531-31.066 9.039-8.922 19.726-15.918 32.029-20.995 12.35-5.096 25.514-7.635 39.464-7.635 15.958 0 31.199 3.262 45.693 9.781 14.54 6.362 26.384 15.485 35.461 27.374l1.763 2.309-37.125 31.808-2.021-2.66c-5.617-7.395-12.198-12.871-19.735-16.509l-.012-.006-.013-.006c-7.395-3.651-15.384-5.484-24.011-5.484-6.696 0-12.931 1.318-18.743 3.938-5.676 2.64-10.591 6.26-14.764 10.875l-.019.021-.019.021c-4.138 4.412-7.41 9.85-9.783 16.375l-.004.012-.005.012c-2.358 6.32-3.551 13.174-3.551 20.588 0 7.581 1.19 14.604 3.544 21.096 2.54 6.338 5.988 11.799 10.331 16.417 4.35 4.626 9.446 8.258 15.309 10.906 5.999 2.63 12.424 3.953 19.309 3.953 9.897 0 18.305-2.718 25.377-8.077l.014-.01.014-.01c6.128-4.539 10.459-10.064 13.058-16.613h-45.612v-44.494h102.579v16.04c0 14.085-2.379 27.235-7.168 39.42-4.772 12.142-11.401 22.701-19.899 31.639l-.011.012Zm-25.549-45.714a42.024 42.024 0 0 1-.99 3.097c-2.758 7.598-7.6 13.961-14.526 19.09-7.669 5.811-16.764 8.717-27.287 8.717-7.312 0-14.178-1.409-20.598-4.226-6.242-2.818-11.682-6.692-16.319-11.622-4.637-4.931-8.293-10.742-10.968-17.433-2.497-6.868-3.745-14.264-3.745-22.188 0-7.747 1.248-14.967 3.745-21.659 2.497-6.867 5.975-12.678 10.433-17.432 4.459-4.931 9.72-8.805 15.783-11.622 6.242-2.818 12.93-4.226 20.064-4.226 9.096 0 17.567 1.937 25.414 5.811 7.16 3.456 13.469 8.454 18.926 14.994.659.79 1.306 1.603 1.94 2.438l32.37-27.734c-8.739-11.446-20.153-20.25-34.242-26.413-14.09-6.339-28.892-9.509-44.408-9.509-13.554 0-26.306 2.465-38.255 7.396-11.948 4.93-22.292 11.71-31.031 20.338-8.739 8.452-15.694 18.489-20.866 30.111-4.994 11.622-7.491 24.125-7.491 37.507 0 13.383 2.497 25.886 7.491 37.508 5.172 11.621 12.127 21.747 20.866 30.375 8.917 8.452 19.35 15.144 31.299 20.074 12.127 4.931 25.057 7.396 38.79 7.396 13.375 0 25.77-2.377 37.184-7.132 11.593-4.93 21.491-11.622 29.694-20.074 8.204-8.628 14.625-18.841 19.262-30.639 4.636-11.798 6.955-24.565 6.955-38.3V310.99h-96.306v38.299h46.816Zm68.467-120.109h52.286v191.089h-52.286V229.18Zm55.182 0h56.538l47.299 131.522 48.067-131.522h54.678l-75.478 191.089h-56.732L750.364 229.18Zm103.814 140.711-49.491-137.614H754.93l71.961 184.894h52.433l73.032-184.894H904.47l-50.292 137.614Zm-155.859 47.28h46.012V232.277h-46.012v184.894Zm435.461-22.157.01-.011.01-.012c8.5-8.938 15.13-19.497 19.9-31.639 4.79-12.185 7.17-25.335 7.17-39.42v-16.04h-102.58v44.494h45.61c-2.6 6.549-6.93 12.074-13.06 16.613l-.01.01-.01.01c-7.08 5.359-15.48 8.077-25.38 8.077-6.89 0-13.31-1.323-19.31-3.953-5.86-2.648-10.96-6.28-15.31-10.906-4.34-4.618-7.79-10.079-10.33-16.417-2.35-6.492-3.54-13.515-3.54-21.096 0-7.414 1.19-14.268 3.55-20.588v-.012l.01-.012c2.37-6.525 5.64-11.963 9.78-16.375l.02-.021.02-.021c4.17-4.615 9.08-8.235 14.76-10.875 5.81-2.62 12.05-3.938 18.74-3.938 8.63 0 16.62 1.833 24.02 5.484l.01.006.01.006c7.54 3.638 14.12 9.114 19.73 16.509l2.03 2.66 37.12-31.808-1.76-2.309c-9.08-11.889-20.92-21.012-35.46-27.374-14.5-6.519-29.74-9.781-45.7-9.781-13.95 0-27.11 2.539-39.46 7.635-12.3 5.077-22.99 12.073-32.029 20.995-9.034 8.74-16.209 19.107-21.531 31.066l-.008.019-.008.018c-5.168 12.027-7.74 24.943-7.74 38.716 0 13.774 2.572 26.69 7.74 38.717l.008.018.008.018c5.322 11.96 12.494 22.409 21.52 31.32l.022.022.023.022c9.205 8.73 19.975 15.627 32.265 20.698v.003l.01.003c12.53 5.092 25.86 7.629 39.99 7.629 13.76 0 26.57-2.447 38.4-7.375l.01-.005.01-.004c11.95-5.084 22.21-12.006 30.72-20.776Zm-26.53-42.628c.37-1.01.7-2.043.99-3.097h-46.81V310.99h96.3v12.942c0 13.735-2.32 26.502-6.95 38.3-4.64 11.798-11.06 22.011-19.26 30.639-8.21 8.452-18.11 15.144-29.7 20.074-11.41 4.755-23.81 7.132-37.18 7.132-13.74 0-26.67-2.465-38.79-7.396-11.95-4.93-22.39-11.622-31.302-20.074-8.739-8.628-15.695-18.754-20.867-30.375-4.993-11.622-7.49-24.125-7.49-37.508 0-13.382 2.497-25.885 7.49-37.507 5.172-11.622 12.128-21.659 20.867-30.111 8.742-8.628 19.082-15.408 31.032-20.338 11.95-4.931 24.7-7.396 38.25-7.396 15.52 0 30.32 3.17 44.41 9.509 14.09 6.163 25.5 14.967 34.24 26.413l-32.37 27.734a62.847 62.847 0 0 0-1.94-2.438c-5.45-6.54-11.76-11.538-18.92-14.994-7.85-3.874-16.32-5.811-25.42-5.811-7.13 0-13.82 1.408-20.06 4.226-6.06 2.817-11.32 6.691-15.78 11.622-4.46 4.754-7.94 10.565-10.44 17.432-2.49 6.692-3.74 13.912-3.74 21.659 0 7.924 1.25 15.32 3.74 22.188 2.68 6.691 6.34 12.502 10.97 17.433 4.64 4.93 10.08 8.804 16.32 11.622 6.42 2.817 13.29 4.226 20.6 4.226 10.52 0 19.62-2.906 27.29-8.717 6.92-5.129 11.76-11.492 14.52-19.09Zm121.74-123.206h-52.28v191.089h52.28V229.18Zm59.44 0h-56.54l74.37 191.089h56.73l75.48-191.089h-54.68l-48.06 131.522-47.3-131.522Zm-2.22 3.097 49.49 137.614 50.3-137.614h47.88l-73.03 184.894h-52.43l-71.96-184.894h49.75Zm-60.35 184.894h-46.01V232.277h46.01v184.894Zm389.46-22.168-.01.011c-8.52 8.77-18.77 15.692-30.72 20.776l-.01.004-.01.005c-11.83 4.928-24.65 7.375-38.41 7.375-14.12 0-27.46-2.537-39.98-7.629l-.01-.003-.01-.003c-12.28-5.071-23.05-11.968-32.26-20.698l-.02-.022-.02-.022c-9.03-8.911-16.2-19.36-21.52-31.32l-.01-.018-.01-.018c-5.17-12.027-7.74-24.943-7.74-38.717 0-13.773 2.57-26.689 7.74-38.716l.01-.018.01-.019c5.32-11.959 12.49-22.326 21.53-31.066 9.04-8.922 19.72-15.918 32.03-20.995 12.35-5.096 25.51-7.635 39.46-7.635 15.96 0 31.2 3.262 45.69 9.781 14.54 6.362 26.39 15.485 35.47 27.374l1.76 2.309-37.13 31.808-2.02-2.66c-5.62-7.395-12.2-12.871-19.73-16.509l-.01-.006-.02-.006c-7.39-3.651-15.38-5.484-24.01-5.484-6.69 0-12.93 1.318-18.74 3.938a45.687 45.687 0 0 0-14.77 10.875l-.01.021-.02.021c-4.14 4.412-7.41 9.85-9.79 16.375v.012l-.01.012c-2.35 6.32-3.55 13.174-3.55 20.588 0 7.581 1.19 14.604 3.55 21.096 2.54 6.338 5.99 11.799 10.33 16.417 4.35 4.626 9.44 8.258 15.31 10.906 6 2.63 12.42 3.953 19.31 3.953 9.89 0 18.3-2.718 25.37-8.077l.02-.01.01-.01c6.13-4.539 10.46-10.064 13.06-16.613h-45.61v-44.494h102.58v16.04c0 14.085-2.38 27.235-7.17 39.42-4.77 12.142-11.4 22.701-19.9 31.639l-.01.012Zm-25.55-45.714a39.345 39.345 0 0 1-.99 3.097c-2.76 7.598-7.6 13.961-14.53 19.09-7.67 5.811-16.76 8.717-27.28 8.717-7.32 0-14.18-1.409-20.6-4.226-6.24-2.818-11.68-6.692-16.32-11.622-4.64-4.931-8.29-10.742-10.97-17.433-2.5-6.868-3.74-14.264-3.74-22.188 0-7.747 1.24-14.967 3.74-21.659 2.5-6.867 5.98-12.678 10.43-17.432 4.46-4.931 9.72-8.805 15.79-11.622 6.24-2.818 12.93-4.226 20.06-4.226 9.1 0 17.57 1.937 25.42 5.811 7.16 3.456 13.46 8.454 18.92 14.994.66.79 1.31 1.603 1.94 2.438l32.37-27.734c-8.74-11.446-20.15-20.25-34.24-26.413-14.09-6.339-28.89-9.509-44.41-9.509-13.55 0-26.3 2.465-38.25 7.396-11.95 4.93-22.3 11.71-31.04 20.338-8.73 8.452-15.69 18.489-20.86 30.111-4.99 11.622-7.49 24.125-7.49 37.507 0 13.383 2.5 25.886 7.49 37.508 5.17 11.621 12.13 21.747 20.86 30.375 8.92 8.452 19.36 15.144 31.3 20.074 12.13 4.931 25.06 7.396 38.79 7.396 13.38 0 25.77-2.377 37.19-7.132 11.59-4.93 21.49-11.622 29.69-20.074 8.21-8.628 14.63-18.841 19.26-30.639 4.64-11.798 6.96-24.565 6.96-38.3V310.99h-96.31v38.299h46.82Zm68.47-120.109h52.28v191.089h-52.28V229.18Zm55.18 0h56.54l47.3 131.522 48.06-131.522H1920l-75.48 191.089h-56.73l-74.37-191.089Zm103.81 140.711-49.49-137.614h-49.76l71.97 184.894h52.43l73.03-184.894h-47.89l-50.29 137.614Zm-155.86 47.28h46.02V232.277h-46.02v184.894ZM170.726 621.29l.011-.012.011-.011c8.498-8.938 15.126-19.497 19.898-31.639 4.789-12.185 7.168-25.335 7.168-39.42v-16.04H95.235v44.494h45.613c-2.599 6.549-6.93 12.074-13.059 16.612l-.014.011-.013.01c-7.072 5.359-15.481 8.076-25.377 8.076-6.886 0-13.31-1.322-19.309-3.952-5.863-2.649-10.96-6.28-15.31-10.906-4.343-4.618-7.79-10.079-10.33-16.417-2.354-6.492-3.545-13.515-3.545-21.096 0-7.414 1.194-14.268 3.552-20.588l.005-.012.004-.012c2.372-6.525 5.645-11.963 9.782-16.375l.02-.021.019-.021c4.173-4.615 9.087-8.235 14.763-10.875 5.812-2.621 12.048-3.939 18.744-3.939 8.627 0 16.616 1.834 24.011 5.484l.012.007.013.006c7.537 3.638 14.117 9.114 19.734 16.508l2.022 2.661 37.125-31.809-1.763-2.308c-9.077-11.889-20.922-21.012-35.461-27.374-14.494-6.519-29.735-9.781-45.693-9.781-13.95 0-27.115 2.539-39.464 7.635-12.303 5.076-22.99 12.073-32.03 20.995-9.033 8.74-16.208 19.106-21.53 31.066l-.009.018-.007.019C2.572 524.311 0 537.227 0 551s2.572 26.69 7.74 38.717l.007.018.008.018c5.323 11.96 12.495 22.409 21.52 31.32l.023.022.023.022c9.21 8.729 19.973 15.627 32.262 20.698l.008.003.007.003c12.524 5.092 25.862 7.629 39.984 7.629 13.761 0 26.574-2.448 38.404-7.375l.011-.005.011-.004c11.952-5.084 22.205-12.006 30.718-20.776Zm-26.529-42.628c.367-1.011.697-2.043.99-3.097H98.372v-38.3h96.306v12.943c0 13.735-2.319 26.501-6.956 38.299-4.637 11.798-11.057 22.012-19.261 30.64-8.204 8.452-18.102 15.144-29.694 20.074-11.414 4.755-23.809 7.132-37.185 7.132-13.732 0-26.662-2.465-38.79-7.396-11.948-4.931-22.382-11.622-31.299-20.074-8.738-8.629-15.694-18.754-20.866-30.376-4.993-11.622-7.49-24.124-7.49-37.507s2.497-25.885 7.49-37.507c5.172-11.622 12.128-21.659 20.866-30.111 8.74-8.628 19.083-15.408 31.032-20.338 11.95-4.931 24.7-7.396 38.255-7.396 15.516 0 30.318 3.169 44.407 9.509 14.089 6.163 25.503 14.967 34.242 26.413l-32.369 27.734a68.033 68.033 0 0 0-1.941-2.438c-5.456-6.54-11.765-11.538-18.925-14.995-7.847-3.874-16.319-5.811-25.414-5.811-7.134 0-13.822 1.409-20.064 4.226-6.063 2.818-11.325 6.692-15.783 11.622-4.459 4.755-7.937 10.566-10.433 17.433-2.497 6.692-3.745 13.911-3.745 21.659 0 7.924 1.248 15.32 3.745 22.188 2.675 6.691 6.33 12.502 10.968 17.432 4.637 4.931 10.076 8.805 16.318 11.622 6.42 2.818 13.287 4.227 20.599 4.227 10.522 0 19.618-2.906 27.286-8.717 6.926-5.129 11.768-11.492 14.526-19.09Zm121.744-123.206h-52.286v191.088h52.286V455.456Zm59.434 0h-56.539l74.373 191.088h56.731l75.479-191.088H420.74l-48.066 131.522-47.299-131.522Zm-2.215 3.097 49.49 137.614 50.293-137.614h47.885l-73.031 184.894h-52.433l-71.962-184.894h49.758Zm-60.356 184.894h-46.013V458.553h46.013v184.894ZM1615.31 621.29l.01-.012.01-.011c8.5-8.938 15.13-19.497 19.9-31.639 4.79-12.185 7.17-25.335 7.17-39.42v-16.04h-102.58v44.494h45.61c-2.6 6.549-6.93 12.074-13.06 16.612l-.01.011-.02.01c-7.07 5.359-15.48 8.076-25.37 8.076-6.89 0-13.31-1.322-19.31-3.952-5.87-2.649-10.96-6.28-15.31-10.906-4.34-4.618-7.79-10.079-10.33-16.417-2.36-6.492-3.55-13.515-3.55-21.096 0-7.414 1.2-14.268 3.55-20.588l.01-.012v-.012c2.38-6.525 5.65-11.963 9.79-16.375l.02-.021.01-.021a45.687 45.687 0 0 1 14.77-10.875c5.81-2.621 12.05-3.939 18.74-3.939 8.63 0 16.62 1.834 24.01 5.484l.02.007.01.006c7.53 3.638 14.11 9.114 19.73 16.508l2.02 2.661 37.13-31.809-1.76-2.308c-9.08-11.889-20.93-21.012-35.47-27.374-14.49-6.519-29.73-9.781-45.69-9.781-13.95 0-27.11 2.539-39.46 7.635-12.31 5.076-22.99 12.073-32.03 20.995-9.04 8.74-16.21 19.106-21.53 31.066l-.01.018-.01.019c-5.17 12.027-7.74 24.943-7.74 38.716s2.57 26.69 7.74 38.717l.01.018.01.018c5.32 11.96 12.49 22.409 21.52 31.32l.02.022.02.022c9.21 8.729 19.98 15.627 32.26 20.698l.01.003.01.003c12.52 5.092 25.86 7.629 39.98 7.629 13.76 0 26.58-2.448 38.41-7.375l.01-.005.01-.004c11.95-5.084 22.2-12.006 30.72-20.776Zm-26.53-42.628c.37-1.011.7-2.043.99-3.097h-46.82v-38.3h96.31v12.943c0 13.735-2.32 26.501-6.96 38.299-4.63 11.798-11.05 22.012-19.26 30.64-8.2 8.452-18.1 15.144-29.69 20.074-11.42 4.755-23.81 7.132-37.19 7.132-13.73 0-26.66-2.465-38.79-7.396-11.94-4.931-22.38-11.622-31.3-20.074-8.73-8.629-15.69-18.754-20.86-30.376-4.99-11.622-7.49-24.124-7.49-37.507s2.5-25.885 7.49-37.507c5.17-11.622 12.13-21.659 20.86-30.111 8.74-8.628 19.09-15.408 31.04-20.338 11.95-4.931 24.7-7.396 38.25-7.396 15.52 0 30.32 3.169 44.41 9.509 14.09 6.163 25.5 14.967 34.24 26.413l-32.37 27.734a62.847 62.847 0 0 0-1.94-2.438c-5.46-6.54-11.76-11.538-18.92-14.995-7.85-3.874-16.32-5.811-25.42-5.811-7.13 0-13.82 1.409-20.06 4.226-6.07 2.818-11.33 6.692-15.79 11.622-4.45 4.755-7.93 10.566-10.43 17.433-2.5 6.692-3.74 13.911-3.74 21.659 0 7.924 1.24 15.32 3.74 22.188 2.68 6.691 6.33 12.502 10.97 17.432 4.64 4.931 10.08 8.805 16.32 11.622 6.42 2.818 13.28 4.227 20.6 4.227 10.52 0 19.61-2.906 27.28-8.717 6.93-5.129 11.77-11.492 14.53-19.09Zm121.74-123.206h-52.28v191.088h52.28V455.456Zm59.44 0h-56.54l74.37 191.088h56.73L1920 455.456h-54.68l-48.06 131.522-47.3-131.522Zm-2.22 3.097 49.49 137.614 50.29-137.614h47.89l-73.03 184.894h-52.43l-71.97-184.894h49.76Zm-60.35 184.894h-46.02V458.553h46.02v184.894Zm-572.71-22.169-.01.012c-8.51 8.77-18.76 15.692-30.72 20.776l-.01.004-.01.005c-11.83 4.927-24.64 7.375-38.4 7.375-14.12 0-27.46-2.537-39.99-7.629v-.003l-.01-.003c-12.29-5.071-23.05-11.969-32.263-20.698l-.023-.022-.022-.022c-9.026-8.911-16.198-19.36-21.52-31.32l-.008-.018-.008-.018c-5.168-12.027-7.74-24.944-7.74-38.717s2.572-26.689 7.74-38.716l.008-.019.008-.018c5.322-11.96 12.497-22.326 21.531-31.066 9.037-8.922 19.727-15.919 32.027-20.995 12.35-5.096 25.52-7.635 39.47-7.635 15.95 0 31.2 3.262 45.69 9.781 14.54 6.362 26.38 15.485 35.46 27.374l1.76 2.308-37.12 31.809-2.02-2.661c-5.62-7.394-12.2-12.87-19.74-16.508l-.01-.006-.01-.007c-7.4-3.65-15.39-5.484-24.01-5.484-6.7 0-12.94 1.318-18.75 3.939-5.67 2.64-10.59 6.26-14.76 10.875l-.02.021-.02.021c-4.14 4.412-7.41 9.85-9.78 16.375l-.01.012v.012c-2.36 6.32-3.55 13.174-3.55 20.588 0 7.581 1.19 14.604 3.54 21.096 2.54 6.338 5.99 11.799 10.33 16.417 4.35 4.626 9.45 8.257 15.31 10.906 6 2.63 12.43 3.952 19.31 3.952 9.9 0 18.31-2.717 25.38-8.076l.01-.01.02-.011c6.12-4.538 10.45-10.063 13.05-16.612h-45.61v-44.494h102.58v16.04c0 14.085-2.38 27.235-7.17 39.42-4.77 12.142-11.4 22.701-19.9 31.639l-.01.011Zm-25.55-45.713a39.48 39.48 0 0 1-.99 3.097c-2.75 7.598-7.6 13.961-14.52 19.09-7.67 5.811-16.77 8.717-27.29 8.717-7.31 0-14.18-1.409-20.6-4.227-6.24-2.817-11.68-6.691-16.32-11.622-4.63-4.93-8.29-10.741-10.96-17.432-2.5-6.868-3.75-14.264-3.75-22.188 0-7.748 1.25-14.967 3.75-21.659 2.49-6.867 5.97-12.678 10.43-17.433 4.46-4.93 9.72-8.804 15.78-11.622 6.24-2.817 12.93-4.226 20.07-4.226 9.09 0 17.56 1.937 25.41 5.811 7.16 3.457 13.47 8.455 18.93 14.995.65.79 1.3 1.603 1.94 2.438l32.37-27.734c-8.74-11.446-20.16-20.25-34.25-26.413-14.09-6.34-28.89-9.509-44.4-9.509-13.56 0-26.31 2.465-38.26 7.396-11.95 4.93-22.29 11.71-31.03 20.338-8.739 8.452-15.695 18.489-20.867 30.111-4.993 11.622-7.49 24.124-7.49 37.507s2.497 25.885 7.49 37.507c5.172 11.622 12.128 21.747 20.867 30.376 8.92 8.452 19.35 15.143 31.3 20.074 12.13 4.931 25.06 7.396 38.79 7.396 13.37 0 25.77-2.377 37.18-7.132 11.6-4.93 21.49-11.622 29.7-20.074 8.2-8.628 14.62-18.842 19.26-30.64 4.64-11.798 6.95-24.564 6.95-38.299v-12.943h-96.3v38.3h46.81Zm68.47 70.979V455.456h52.29v191.088h-52.29Zm129.56 0-74.38-191.088h56.54l47.3 131.522 48.07-131.522h54.67l-75.47 191.088h-56.73Zm29.44-50.377-49.49-137.614h-49.76l71.96 184.894h52.43l73.03-184.894h-47.88l-50.29 137.614Zm-155.86 47.28h46.01V458.553h-46.01v184.894ZM647.377 621.29l.011-.012.011-.011c8.498-8.938 15.127-19.497 19.899-31.639 4.789-12.185 7.168-25.335 7.168-39.42v-16.04H571.887v44.494h45.612c-2.599 6.549-6.93 12.074-13.058 16.612l-.014.011-.014.01c-7.072 5.359-15.48 8.076-25.377 8.076-6.885 0-13.31-1.322-19.309-3.952-5.863-2.649-10.959-6.28-15.309-10.906-4.343-4.618-7.791-10.079-10.331-16.417-2.354-6.492-3.544-13.515-3.544-21.096 0-7.414 1.193-14.268 3.551-20.588l.005-.012.004-.012c2.373-6.525 5.645-11.963 9.783-16.375l.019-.021.019-.021c4.173-4.615 9.088-8.235 14.764-10.875 5.812-2.621 12.047-3.939 18.743-3.939 8.627 0 16.616 1.834 24.011 5.484l.013.007.012.006c7.537 3.638 14.118 9.114 19.735 16.508l2.021 2.661 37.125-31.809-1.763-2.308c-9.077-11.889-20.921-21.012-35.461-27.374-14.494-6.519-29.735-9.781-45.693-9.781-13.949 0-27.114 2.539-39.464 7.635-12.303 5.076-22.99 12.073-32.029 20.995-9.034 8.74-16.209 19.106-21.531 31.066l-.008.018-.008.019c-5.168 12.027-7.74 24.943-7.74 38.716s2.572 26.69 7.74 38.717l.008.018.008.018c5.322 11.96 12.494 22.409 21.52 31.32l.022.022.023.022c9.21 8.729 19.974 15.627 32.262 20.698l.008.003.008.003c12.524 5.092 25.861 7.629 39.984 7.629 13.761 0 26.574-2.448 38.404-7.375l.01-.005.011-.004c11.953-5.084 22.206-12.006 30.718-20.776Zm-26.528-42.628c.367-1.011.697-2.043.99-3.097h-46.816v-38.3h96.306v12.943c0 13.735-2.319 26.501-6.955 38.299-4.637 11.798-11.058 22.012-19.262 30.64-8.203 8.452-18.101 15.144-29.694 20.074-11.414 4.755-23.809 7.132-37.184 7.132-13.733 0-26.663-2.465-38.79-7.396-11.949-4.931-22.382-11.622-31.299-20.074-8.739-8.629-15.694-18.754-20.866-30.376-4.994-11.622-7.491-24.124-7.491-37.507s2.497-25.885 7.491-37.507c5.172-11.622 12.127-21.659 20.866-30.111 8.739-8.628 19.083-15.408 31.032-20.338 11.948-4.931 24.7-7.396 38.254-7.396 15.516 0 30.319 3.169 44.408 9.509 14.089 6.163 25.503 14.967 34.242 26.413l-32.37 27.734a68.012 68.012 0 0 0-1.94-2.438c-5.457-6.54-11.766-11.538-18.926-14.995-7.847-3.874-16.318-5.811-25.414-5.811-7.134 0-13.822 1.409-20.064 4.226-6.063 2.818-11.324 6.692-15.783 11.622-4.458 4.755-7.936 10.566-10.433 17.433-2.497 6.692-3.745 13.911-3.745 21.659 0 7.924 1.248 15.32 3.745 22.188 2.675 6.691 6.331 12.502 10.968 17.432 4.637 4.931 10.077 8.805 16.319 11.622 6.42 2.818 13.286 4.227 20.598 4.227 10.523 0 19.618-2.906 27.287-8.717 6.926-5.129 11.768-11.492 14.526-19.09Zm69.457-123.206v191.088h52.286V455.456h-52.286Zm55.182 0 74.372 191.088h56.732l75.478-191.088h-54.678l-48.067 131.522-47.299-131.522h-56.538Zm54.323 3.097 49.491 137.614 50.292-137.614h47.886l-73.032 184.894h-52.433l-71.961-184.894h49.757Zm-60.356 184.894h-46.012V458.553h46.012v184.894Zm394.325 204.118.01-.011.01-.012c8.5-8.938 15.13-19.497 19.9-31.639 4.79-12.185 7.17-25.335 7.17-39.42v-16.04h-102.58v44.494h45.61c-2.6 6.549-6.93 12.074-13.06 16.613l-.01.01-.01.01c-7.08 5.359-15.48 8.077-25.38 8.077-6.89 0-13.31-1.323-19.31-3.953-5.86-2.648-10.96-6.28-15.31-10.906-4.34-4.618-7.79-10.079-10.33-16.417-2.35-6.492-3.54-13.515-3.54-21.095 0-7.415 1.19-14.269 3.55-20.589v-.012l.01-.012c2.37-6.525 5.64-11.963 9.78-16.375l.02-.021.02-.021c4.17-4.615 9.08-8.235 14.76-10.875 5.81-2.62 12.05-3.938 18.74-3.938 8.63 0 16.62 1.833 24.02 5.484l.01.006.01.006c7.54 3.638 14.12 9.114 19.73 16.509l2.03 2.66 37.12-31.808-1.76-2.309c-9.08-11.889-20.92-21.012-35.46-27.374-14.5-6.519-29.74-9.781-45.7-9.781-13.95 0-27.11 2.539-39.46 7.635-12.3 5.077-22.99 12.073-32.029 20.995-9.034 8.74-16.209 19.107-21.531 31.067l-.008.018-.008.018c-5.168 12.027-7.74 24.943-7.74 38.717 0 13.773 2.572 26.689 7.74 38.716l.008.018.008.018c5.322 11.96 12.494 22.409 21.52 31.32l.022.022.023.022c9.205 8.73 19.975 15.627 32.265 20.698v.003l.01.003c12.53 5.092 25.86 7.629 39.99 7.629 13.76 0 26.57-2.447 38.4-7.375l.01-.005.01-.004c11.95-5.084 22.21-12.006 30.72-20.776Zm-26.53-42.628c.37-1.01.7-2.043.99-3.097h-46.81v-38.299h96.3v12.942c0 13.735-2.32 26.502-6.95 38.3-4.64 11.798-11.06 22.011-19.26 30.639-8.21 8.452-18.11 15.144-29.7 20.074-11.41 4.755-23.81 7.132-37.18 7.132-13.74 0-26.67-2.465-38.79-7.396-11.95-4.93-22.39-11.622-31.302-20.074-8.739-8.628-15.695-18.754-20.867-30.375-4.993-11.622-7.49-24.125-7.49-37.507 0-13.383 2.497-25.886 7.49-37.508 5.172-11.622 12.128-21.659 20.867-30.111 8.742-8.628 19.082-15.408 31.032-20.338 11.95-4.931 24.7-7.396 38.25-7.396 15.52 0 30.32 3.17 44.41 9.509 14.09 6.163 25.5 14.967 34.24 26.413l-32.37 27.734a63.616 63.616 0 0 0-1.94-2.438c-5.45-6.54-11.76-11.538-18.92-14.995-7.85-3.873-16.32-5.81-25.42-5.81-7.13 0-13.82 1.408-20.06 4.226-6.06 2.817-11.32 6.691-15.78 11.622-4.46 4.754-7.94 10.565-10.44 17.432-2.49 6.692-3.74 13.912-3.74 21.66 0 7.924 1.25 15.319 3.74 22.187 2.68 6.691 6.34 12.502 10.97 17.433 4.64 4.93 10.08 8.804 16.32 11.622 6.42 2.817 13.29 4.226 20.6 4.226 10.52 0 19.62-2.906 27.29-8.717 6.92-5.129 11.76-11.492 14.52-19.09Zm121.74-123.206h-52.28V872.82h52.28V681.731Zm59.44 0h-56.54l74.37 191.089h56.73l75.48-191.089h-54.68l-48.06 131.522-47.3-131.522Zm-2.22 3.097 49.49 137.615 50.3-137.615h47.88l-73.03 184.894h-52.43l-71.96-184.894h49.75Zm-60.35 184.894h-46.01V684.828h46.01v184.894ZM170.737 847.554l-.011.012c-8.513 8.77-18.766 15.692-30.718 20.775l-.011.005-.011.004c-11.83 4.928-24.643 7.376-38.404 7.376-14.122 0-27.46-2.538-39.984-7.629l-.007-.003-.008-.004c-12.289-5.07-23.052-11.968-32.262-20.697l-.023-.022-.023-.022c-9.025-8.912-16.197-19.36-21.52-31.32l-.008-.018-.007-.018C2.572 803.965 0 791.049 0 777.276s2.572-26.69 7.74-38.717l.007-.018.008-.018c5.323-11.96 12.498-22.326 21.532-31.067 9.039-8.921 19.726-15.918 32.029-20.994 12.35-5.096 25.514-7.636 39.464-7.636 15.958 0 31.199 3.262 45.693 9.781 14.539 6.363 26.384 15.486 35.461 27.374l1.763 2.309-37.125 31.809-2.022-2.661c-5.617-7.395-12.197-12.87-19.734-16.509l-.013-.006-.012-.006c-7.395-3.651-15.384-5.484-24.011-5.484-6.696 0-12.932 1.318-18.744 3.939-5.676 2.639-10.59 6.26-14.763 10.875l-.02.021-.019.02c-4.137 4.413-7.41 9.851-9.782 16.375l-.004.013-.005.012c-2.358 6.32-3.552 13.174-3.552 20.588 0 7.58 1.19 14.604 3.544 21.095 2.54 6.339 5.988 11.8 10.331 16.418 4.35 4.625 9.447 8.257 15.31 10.906 5.998 2.629 12.424 3.952 19.309 3.952 9.896 0 18.305-2.718 25.377-8.076l.013-.011.014-.01c6.129-4.538 10.46-10.064 13.059-16.612H95.235v-44.494h102.579v16.04c0 14.085-2.379 27.235-7.168 39.42-4.772 12.142-11.4 22.701-19.898 31.638l-.011.012Zm-25.55-45.714a42.05 42.05 0 0 1-.99 3.098c-2.758 7.598-7.6 13.961-14.526 19.09-7.668 5.811-16.764 8.716-27.286 8.716-7.312 0-14.178-1.409-20.599-4.226-6.242-2.817-11.681-6.691-16.318-11.622-4.637-4.93-8.293-10.741-10.968-17.433-2.497-6.867-3.745-14.263-3.745-22.187 0-7.748 1.248-14.968 3.745-21.659 2.496-6.868 5.974-12.678 10.433-17.433 4.458-4.93 9.72-8.804 15.783-11.622 6.242-2.817 12.93-4.226 20.064-4.226 9.095 0 17.567 1.937 25.414 5.811 7.16 3.456 13.469 8.455 18.925 14.995.66.79 1.306 1.603 1.941 2.438l32.369-27.734c-8.739-11.446-20.153-20.251-34.242-26.414-14.089-6.339-28.891-9.508-44.407-9.508-13.554 0-26.306 2.465-38.255 7.395-11.949 4.931-22.293 11.71-31.032 20.339-8.738 8.452-15.694 18.489-20.866 30.111-4.993 11.622-7.49 24.124-7.49 37.507s2.497 25.885 7.49 37.507c5.172 11.622 12.128 21.747 20.866 30.376 8.918 8.452 19.35 15.143 31.3 20.074 12.127 4.93 25.057 7.395 38.789 7.395 13.376 0 25.771-2.377 37.185-7.131 11.592-4.931 21.49-11.622 29.694-20.074 8.204-8.629 14.624-18.842 19.261-30.64 4.637-11.798 6.956-24.564 6.956-38.299v-12.943H98.372v38.299h46.815Zm68.468-120.108h52.286V872.82h-52.286V681.732Zm55.181 0h56.539l47.299 131.521 48.066-131.521h54.679L399.94 872.82h-56.731l-74.373-191.088ZM372.65 822.443l-49.49-137.614h-49.758l71.962 184.894h52.433l73.031-184.894h-47.885L372.65 822.443Zm-155.859 47.28h46.013V684.829h-46.013v184.894Zm437.533-22.169-.011.012c-8.513 8.77-18.766 15.692-30.718 20.775l-.011.005-.011.004c-11.83 4.928-24.643 7.376-38.404 7.376-14.122 0-27.46-2.538-39.984-7.629l-.007-.003-.008-.004c-12.289-5.07-23.052-11.968-32.262-20.697l-.023-.022-.023-.022c-9.025-8.912-16.197-19.36-21.52-31.32l-.008-.018-.008-.018c-5.167-12.028-7.739-24.944-7.739-38.717s2.572-26.69 7.739-38.717l.008-.018.008-.018c5.323-11.96 12.498-22.326 21.531-31.067 9.04-8.921 19.727-15.918 32.03-20.994 12.349-5.096 25.514-7.636 39.464-7.636 15.958 0 31.199 3.262 45.693 9.781 14.539 6.363 26.384 15.486 35.461 27.374l1.763 2.309-37.125 31.809-2.022-2.661c-5.617-7.395-12.197-12.87-19.734-16.509l-.013-.006-.012-.006c-7.396-3.651-15.384-5.484-24.011-5.484-6.696 0-12.932 1.318-18.744 3.939-5.676 2.639-10.59 6.26-14.764 10.875l-.018.021-.02.02c-4.137 4.413-7.41 9.851-9.782 16.375l-.005.013-.004.012c-2.358 6.32-3.552 13.174-3.552 20.588 0 7.58 1.191 14.604 3.544 21.095 2.54 6.339 5.988 11.8 10.331 16.418 4.351 4.625 9.447 8.257 15.31 10.906 5.998 2.629 12.423 3.952 19.309 3.952 9.896 0 18.305-2.718 25.377-8.076l.013-.011.014-.01c6.129-4.538 10.46-10.064 13.059-16.612h-45.613v-44.494h102.579v16.04c0 14.085-2.379 27.235-7.168 39.42-4.772 12.142-11.4 22.701-19.898 31.638l-.011.012Zm-25.55-45.714a42.05 42.05 0 0 1-.99 3.098c-2.758 7.598-7.6 13.961-14.526 19.09-7.668 5.811-16.764 8.716-27.286 8.716-7.312 0-14.179-1.409-20.599-4.226-6.242-2.817-11.681-6.691-16.318-11.622-4.637-4.93-8.293-10.741-10.968-17.433-2.497-6.867-3.746-14.263-3.746-22.187 0-7.748 1.249-14.968 3.746-21.659 2.496-6.868 5.974-12.678 10.433-17.433 4.458-4.93 9.719-8.804 15.783-11.622 6.242-2.817 12.93-4.226 20.064-4.226 9.095 0 17.567 1.937 25.414 5.811 7.16 3.456 13.469 8.455 18.925 14.995.66.79 1.306 1.603 1.941 2.438l32.369-27.734c-8.739-11.446-20.153-20.251-34.242-26.414-14.089-6.339-28.891-9.508-44.407-9.508-13.554 0-26.306 2.465-38.255 7.395-11.949 4.931-22.293 11.71-31.032 20.339-8.739 8.452-15.694 18.489-20.866 30.111-4.994 11.622-7.49 24.124-7.49 37.507s2.496 25.885 7.49 37.507c5.172 11.622 12.127 21.747 20.866 30.376 8.917 8.452 19.351 15.143 31.3 20.074 12.127 4.93 25.057 7.395 38.789 7.395 13.376 0 25.771-2.377 37.185-7.131 11.592-4.931 21.49-11.622 29.694-20.074 8.204-8.629 14.624-18.842 19.261-30.64 4.637-11.798 6.955-24.564 6.955-38.299v-12.943h-96.305v38.299h46.815Zm68.468-120.108h52.286V872.82h-52.286V681.732Zm55.181 0h56.539l47.299 131.521 48.066-131.521h54.678L883.527 872.82h-56.731l-74.373-191.088Zm103.814 140.711-49.49-137.614h-49.758l71.962 184.894h52.433l73.031-184.894H906.53l-50.293 137.614Zm-155.859 47.28h46.013V684.829h-46.013v184.894Zm914.942-22.169-.01.011c-8.52 8.77-18.77 15.692-30.72 20.776l-.01.004-.01.005c-11.83 4.928-24.65 7.375-38.41 7.375-14.12 0-27.46-2.537-39.98-7.629l-.01-.003-.01-.003c-12.28-5.071-23.05-11.968-32.26-20.698l-.02-.022-.02-.022c-9.03-8.911-16.2-19.36-21.52-31.32l-.01-.018-.01-.018c-5.17-12.027-7.74-24.943-7.74-38.716 0-13.774 2.57-26.69 7.74-38.717l.01-.018.01-.018c5.32-11.96 12.49-22.327 21.53-31.067 9.04-8.922 19.72-15.918 32.03-20.995 12.35-5.096 25.51-7.635 39.46-7.635 15.96 0 31.2 3.262 45.69 9.781 14.54 6.362 26.39 15.485 35.47 27.374l1.76 2.309-37.13 31.808-2.02-2.66c-5.62-7.395-12.2-12.871-19.73-16.509l-.01-.006-.02-.006c-7.39-3.651-15.38-5.484-24.01-5.484-6.69 0-12.93 1.318-18.74 3.938a45.687 45.687 0 0 0-14.77 10.875l-.01.021-.02.021c-4.14 4.412-7.41 9.85-9.79 16.375v.012l-.01.012c-2.35 6.32-3.55 13.174-3.55 20.589 0 7.58 1.19 14.603 3.55 21.095 2.54 6.338 5.99 11.799 10.33 16.417 4.35 4.626 9.44 8.258 15.31 10.906 6 2.63 12.42 3.953 19.31 3.953 9.89 0 18.3-2.718 25.37-8.077l.02-.01.01-.01c6.13-4.539 10.46-10.064 13.06-16.613h-45.61v-44.494h102.58v16.04c0 14.085-2.38 27.235-7.17 39.42-4.77 12.142-11.4 22.701-19.9 31.639l-.01.012Zm-25.55-45.714a39.345 39.345 0 0 1-.99 3.097c-2.76 7.598-7.6 13.961-14.53 19.09-7.67 5.811-16.76 8.717-27.28 8.717-7.32 0-14.18-1.409-20.6-4.226-6.24-2.818-11.68-6.692-16.32-11.622-4.64-4.931-8.29-10.742-10.97-17.433-2.5-6.868-3.74-14.263-3.74-22.187 0-7.748 1.24-14.968 3.74-21.66 2.5-6.867 5.98-12.678 10.43-17.432 4.46-4.931 9.72-8.805 15.79-11.622 6.24-2.818 12.93-4.226 20.06-4.226 9.1 0 17.57 1.937 25.42 5.81 7.16 3.457 13.46 8.455 18.92 14.995.66.791 1.31 1.603 1.94 2.438l32.37-27.734c-8.74-11.446-20.15-20.25-34.24-26.413-14.09-6.339-28.89-9.509-44.41-9.509-13.55 0-26.3 2.465-38.25 7.396-11.95 4.93-22.3 11.71-31.04 20.338-8.73 8.452-15.69 18.489-20.86 30.111-4.99 11.622-7.49 24.125-7.49 37.508 0 13.382 2.5 25.885 7.49 37.507 5.17 11.621 12.13 21.747 20.86 30.375 8.92 8.452 19.36 15.144 31.3 20.074 12.13 4.931 25.06 7.396 38.79 7.396 13.38 0 25.77-2.377 37.19-7.132 11.59-4.93 21.49-11.622 29.69-20.074 8.21-8.628 14.63-18.841 19.26-30.639 4.64-11.798 6.96-24.565 6.96-38.3v-12.942h-96.31v38.299h46.82Zm68.47-120.109h52.28V872.82h-52.28V681.731Zm55.18 0h56.54l47.3 131.522 48.06-131.522H1920l-75.48 191.089h-56.73l-74.37-191.089Zm103.81 140.712-49.49-137.615h-49.76l71.97 184.894h52.43l73.03-184.894h-47.89l-50.29 137.615Zm-155.86 47.279h46.02V684.828h-46.02v184.894ZM170.726 1073.84l.011-.01.011-.01c8.498-8.94 15.126-19.5 19.898-31.64 4.789-12.19 7.168-25.34 7.168-39.42v-16.042H95.235v44.492h45.613c-2.599 6.55-6.93 12.08-13.059 16.61l-.014.01-.013.02c-7.072 5.35-15.481 8.07-25.377 8.07-6.886 0-13.31-1.32-19.309-3.95-5.863-2.65-10.96-6.28-15.31-10.91-4.343-4.61-7.79-10.08-10.33-16.41-2.354-6.5-3.545-13.52-3.545-21.1 0-7.414 1.194-14.268 3.552-20.588l.005-.012.004-.012c2.372-6.525 5.645-11.963 9.782-16.375l.02-.021.019-.021c4.173-4.615 9.087-8.235 14.763-10.875 5.812-2.62 12.048-3.938 18.744-3.938 8.627 0 16.616 1.833 24.011 5.484l.012.006.013.006c7.537 3.638 14.117 9.114 19.734 16.509l2.022 2.66 37.125-31.809-1.763-2.308c-9.077-11.889-20.922-21.012-35.461-27.374-14.494-6.519-29.735-9.781-45.693-9.781-13.95 0-27.115 2.539-39.464 7.635-12.303 5.076-22.99 12.073-32.03 20.995-9.033 8.74-16.208 19.107-21.53 31.066l-.009.019-.007.018C2.572 976.861 0 989.777 0 1003.55c0 13.77 2.572 26.69 7.74 38.72l.007.02.008.01c5.323 11.96 12.495 22.41 21.52 31.32l.023.03.023.02c9.21 8.73 19.973 15.62 32.262 20.69l.008.01h.007c12.524 5.09 25.862 7.63 39.984 7.63 13.761 0 26.574-2.45 38.404-7.38h.022c11.952-5.09 22.205-12.01 30.718-20.78Zm-26.529-42.63c.367-1.01.697-2.04.99-3.1H98.372v-38.295h96.306v12.945c0 13.73-2.319 26.5-6.956 38.3-4.637 11.8-11.057 22.01-19.261 30.64-8.204 8.45-18.102 15.14-29.694 20.07-11.414 4.76-23.809 7.13-37.185 7.13-13.732 0-26.662-2.46-38.79-7.39-11.948-4.93-22.382-11.62-31.299-20.08-8.738-8.63-15.694-18.75-20.866-30.37-4.993-11.62-7.49-24.13-7.49-37.51 0-13.382 2.497-25.885 7.49-37.507 5.172-11.622 12.128-21.659 20.866-30.111 8.74-8.628 19.083-15.408 31.032-20.338 11.95-4.931 24.7-7.396 38.255-7.396 15.516 0 30.318 3.17 44.407 9.509 14.089 6.163 25.503 14.967 34.242 26.413l-32.369 27.734a68.033 68.033 0 0 0-1.941-2.438c-5.456-6.54-11.765-11.538-18.925-14.995-7.847-3.874-16.319-5.811-25.414-5.811-7.134 0-13.822 1.409-20.064 4.227-6.063 2.817-11.325 6.691-15.783 11.621-4.459 4.755-7.937 10.566-10.433 17.433-2.497 6.692-3.745 13.911-3.745 21.659 0 7.92 1.248 15.32 3.745 22.19 2.675 6.69 6.33 12.5 10.968 17.43 4.637 4.93 10.076 8.8 16.318 11.62 6.42 2.82 13.287 4.23 20.599 4.23 10.522 0 19.618-2.91 27.286-8.72 6.926-5.13 11.768-11.49 14.526-19.09Zm69.458-123.204v191.084h52.286V908.006h-52.286Zm55.181 0 74.373 191.084h56.731l75.479-191.084H420.74l-48.066 131.524-47.299-131.524h-56.539Zm54.324 3.097 49.49 137.617 50.293-137.617h47.885L397.797 1096h-52.433l-71.962-184.897h49.758ZM262.804 1096h-46.013V911.103h46.013V1096Zm389.449-22.16.011-.01.011-.01c8.498-8.94 15.127-19.5 19.899-31.64 4.789-12.19 7.168-25.34 7.168-39.42v-16.042H576.763v44.492h45.612c-2.599 6.55-6.93 12.08-13.058 16.61l-.014.01-.014.02c-7.072 5.35-15.48 8.07-25.377 8.07-6.885 0-13.31-1.32-19.309-3.95-5.863-2.65-10.959-6.28-15.309-10.91-4.343-4.61-7.791-10.08-10.331-16.41-2.354-6.5-3.544-13.52-3.544-21.1 0-7.414 1.193-14.268 3.551-20.588l.005-.012.004-.012c2.373-6.525 5.645-11.963 9.783-16.375l.019-.021.019-.021c4.173-4.615 9.088-8.235 14.764-10.875 5.812-2.62 12.047-3.938 18.743-3.938 8.627 0 16.616 1.833 24.011 5.484l.013.006.012.006c7.537 3.638 14.118 9.114 19.735 16.509l2.021 2.66 37.125-31.809-1.763-2.308c-9.077-11.889-20.921-21.012-35.461-27.374-14.494-6.519-29.735-9.781-45.693-9.781-13.95 0-27.114 2.539-39.464 7.635-12.303 5.076-22.99 12.073-32.029 20.995-9.034 8.74-16.209 19.107-21.531 31.066l-.008.019-.008.018c-5.168 12.027-7.74 24.943-7.74 38.716 0 13.77 2.572 26.69 7.74 38.72l.008.02.008.01c5.322 11.96 12.494 22.41 21.52 31.32l.022.03.023.02c9.21 8.73 19.974 15.62 32.262 20.69l.008.01h.008c12.524 5.09 25.861 7.63 39.984 7.63 13.761 0 26.574-2.45 38.404-7.38H621.535c11.953-5.09 22.206-12.01 30.718-20.78Zm-26.528-42.63c.367-1.01.697-2.04.99-3.1h-46.816v-38.295h96.306v12.945c0 13.73-2.319 26.5-6.955 38.3-4.637 11.8-11.058 22.01-19.262 30.64-8.203 8.45-18.101 15.14-29.694 20.07-11.414 4.76-23.809 7.13-37.184 7.13-13.733 0-26.663-2.46-38.79-7.39-11.949-4.93-22.382-11.62-31.299-20.08-8.739-8.63-15.694-18.75-20.866-30.37-4.994-11.62-7.491-24.13-7.491-37.51 0-13.382 2.497-25.885 7.491-37.507 5.172-11.622 12.127-21.659 20.866-30.111 8.739-8.628 19.083-15.408 31.031-20.338 11.949-4.931 24.701-7.396 38.255-7.396 15.516 0 30.318 3.17 44.408 9.509 14.089 6.163 25.503 14.967 34.242 26.413l-32.37 27.734a68.012 68.012 0 0 0-1.94-2.438c-5.457-6.54-11.766-11.538-18.926-14.995-7.847-3.874-16.318-5.811-25.414-5.811-7.134 0-13.822 1.409-20.064 4.227-6.063 2.817-11.324 6.691-15.783 11.621-4.458 4.755-7.936 10.566-10.433 17.433-2.497 6.692-3.745 13.911-3.745 21.659 0 7.92 1.248 15.32 3.745 22.19 2.675 6.69 6.331 12.5 10.968 17.43s10.077 8.8 16.319 11.62c6.42 2.82 13.286 4.23 20.598 4.23 10.523 0 19.618-2.91 27.287-8.72 6.926-5.13 11.768-11.49 14.526-19.09Zm69.457-123.204v191.084h52.286V908.006h-52.286Zm55.182 0 74.372 191.084h56.732l75.478-191.084h-54.678l-48.067 131.524-47.299-131.524h-56.538Zm54.323 3.097 49.491 137.617 50.292-137.617h47.886L879.324 1096h-52.433L754.93 911.103h49.757ZM744.331 1096h-46.012V911.103h46.012V1096Zm389.459-22.17-.01.01c-8.51 8.77-18.77 15.69-30.72 20.78h-.02c-11.83 4.93-24.64 7.38-38.4 7.38-14.13 0-27.46-2.54-39.99-7.63h-.01v-.01c-12.29-5.07-23.06-11.96-32.265-20.69l-.023-.02-.022-.03c-9.026-8.91-16.198-19.36-21.52-31.32l-.008-.01-.008-.02c-5.168-12.03-7.74-24.95-7.74-38.72 0-13.773 2.572-26.689 7.74-38.716l.008-.018.008-.019c5.322-11.959 12.497-22.326 21.531-31.066 9.039-8.922 19.729-15.919 32.029-20.995 12.35-5.096 25.51-7.635 39.46-7.635 15.96 0 31.2 3.262 45.7 9.781 14.54 6.362 26.38 15.485 35.46 27.374l1.76 2.308-37.12 31.809-2.03-2.66c-5.61-7.395-12.19-12.871-19.73-16.509l-.01-.006-.01-.006c-7.4-3.651-15.39-5.484-24.02-5.484-6.69 0-12.93 1.318-18.74 3.938-5.68 2.64-10.59 6.26-14.76 10.875l-.02.021-.02.021c-4.14 4.412-7.41 9.85-9.78 16.375l-.01.012v.012c-2.36 6.32-3.55 13.174-3.55 20.588 0 7.58 1.19 14.6 3.54 21.1 2.54 6.33 5.99 11.8 10.33 16.41 4.35 4.63 9.45 8.26 15.31 10.91 6 2.63 12.42 3.95 19.31 3.95 9.9 0 18.3-2.72 25.38-8.07l.01-.02.01-.01c6.13-4.53 10.46-10.06 13.06-16.61h-45.61v-44.492h102.58v16.042c0 14.08-2.38 27.23-7.17 39.42-4.77 12.14-11.4 22.7-19.9 31.64l-.01.01Zm-25.55-45.72a38.63 38.63 0 0 1-.99 3.1c-2.76 7.6-7.6 13.96-14.52 19.09-7.67 5.81-16.77 8.72-27.29 8.72-7.31 0-14.18-1.41-20.6-4.23-6.24-2.82-11.68-6.69-16.32-11.62-4.63-4.93-8.29-10.74-10.97-17.43-2.49-6.87-3.74-14.27-3.74-22.19 0-7.748 1.25-14.967 3.74-21.659 2.5-6.867 5.98-12.678 10.44-17.433 4.46-4.93 9.72-8.804 15.78-11.621 6.24-2.818 12.93-4.227 20.06-4.227 9.1 0 17.57 1.937 25.42 5.811 7.16 3.457 13.47 8.455 18.92 14.995.66.79 1.31 1.603 1.94 2.438l32.37-27.734c-8.74-11.446-20.15-20.25-34.24-26.413-14.09-6.339-28.89-9.509-44.41-9.509-13.55 0-26.3 2.465-38.25 7.396-11.95 4.93-22.29 11.71-31.032 20.338-8.739 8.452-15.695 18.489-20.867 30.111-4.993 11.622-7.49 24.125-7.49 37.507 0 13.38 2.497 25.89 7.49 37.51 5.172 11.62 12.128 21.74 20.867 30.37 8.912 8.46 19.352 15.15 31.302 20.08 12.12 4.93 25.05 7.39 38.79 7.39 13.37 0 25.77-2.37 37.18-7.13 11.59-4.93 21.49-11.62 29.7-20.07 8.2-8.63 14.62-18.84 19.26-30.64 4.63-11.8 6.95-24.57 6.95-38.3v-12.945h-96.3v38.295h46.81Zm68.47 70.98V908.006h52.28v191.084h-52.28Zm129.55 0-74.37-191.084h56.54l47.3 131.524 48.06-131.524h54.68l-75.48 191.084h-56.73Zm29.44-50.37-49.49-137.617h-49.75L1308.42 1096h52.43l73.03-184.897H1386l-50.3 137.617ZM1179.85 1096h46.01V911.103h-46.01V1096Zm435.46-22.16.01-.01.01-.01c8.5-8.94 15.13-19.5 19.9-31.64 4.79-12.19 7.17-25.34 7.17-39.42v-16.042h-102.58v44.492h45.61c-2.6 6.55-6.93 12.08-13.06 16.61l-.01.01-.02.02c-7.07 5.35-15.48 8.07-25.37 8.07-6.89 0-13.31-1.32-19.31-3.95-5.87-2.65-10.96-6.28-15.31-10.91-4.34-4.61-7.79-10.08-10.33-16.41-2.36-6.5-3.55-13.52-3.55-21.1 0-7.414 1.2-14.268 3.55-20.588l.01-.012v-.012c2.38-6.525 5.65-11.963 9.79-16.375l.02-.021.01-.021a45.687 45.687 0 0 1 14.77-10.875c5.81-2.62 12.05-3.938 18.74-3.938 8.63 0 16.62 1.833 24.01 5.484l.02.006.01.006c7.53 3.638 14.11 9.114 19.73 16.509l2.02 2.66 37.13-31.809-1.76-2.308c-9.08-11.889-20.93-21.012-35.47-27.374-14.49-6.519-29.73-9.781-45.69-9.781-13.95 0-27.11 2.539-39.46 7.635-12.31 5.076-22.99 12.073-32.03 20.995-9.04 8.74-16.21 19.107-21.53 31.066l-.01.019-.01.018c-5.17 12.027-7.74 24.943-7.74 38.716 0 13.77 2.57 26.69 7.74 38.72l.01.02.01.01c5.32 11.96 12.49 22.41 21.52 31.32l.02.03.02.02c9.21 8.73 19.98 15.62 32.26 20.69l.01.01h.01c12.52 5.09 25.86 7.63 39.98 7.63 13.76 0 26.58-2.45 38.41-7.38h.02c11.95-5.09 22.2-12.01 30.72-20.78Zm-26.53-42.63c.37-1.01.7-2.04.99-3.1h-46.82v-38.295h96.31v12.945c0 13.73-2.32 26.5-6.96 38.3-4.63 11.8-11.05 22.01-19.26 30.64-8.2 8.45-18.1 15.14-29.69 20.07-11.42 4.76-23.81 7.13-37.19 7.13-13.73 0-26.66-2.46-38.79-7.39-11.94-4.93-22.38-11.62-31.3-20.08-8.73-8.63-15.69-18.75-20.86-30.37-4.99-11.62-7.49-24.13-7.49-37.51 0-13.382 2.5-25.885 7.49-37.507 5.17-11.622 12.13-21.659 20.86-30.111 8.74-8.628 19.09-15.408 31.04-20.338 11.95-4.931 24.7-7.396 38.25-7.396 15.52 0 30.32 3.17 44.41 9.509 14.09 6.163 25.5 14.967 34.24 26.413l-32.37 27.734a62.847 62.847 0 0 0-1.94-2.438c-5.46-6.54-11.76-11.538-18.92-14.995-7.85-3.874-16.32-5.811-25.42-5.811-7.13 0-13.82 1.409-20.06 4.227-6.07 2.817-11.33 6.691-15.79 11.621-4.45 4.755-7.93 10.566-10.43 17.433-2.5 6.692-3.74 13.911-3.74 21.659 0 7.92 1.24 15.32 3.74 22.19 2.68 6.69 6.33 12.5 10.97 17.43 4.64 4.93 10.08 8.8 16.32 11.62 6.42 2.82 13.28 4.23 20.6 4.23 10.52 0 19.61-2.91 27.28-8.72 6.93-5.13 11.77-11.49 14.53-19.09Zm69.46-123.204v191.084h52.28V908.006h-52.28Zm55.18 0 74.37 191.084h56.73L1920 908.006h-54.68l-48.06 131.524-47.3-131.524h-56.54Zm54.32 3.097 49.49 137.617 50.29-137.617h47.89L1842.38 1096h-52.43l-71.97-184.897h49.76ZM1707.39 1096h-46.02V911.103h46.02V1096Z" fill="url(#a)"/><defs><linearGradient id="a" x1="960" y1="-15.744" x2="960" y2="1101.9" gradientUnits="userSpaceOnUse"><stop stop-color="#5326EC" stop-opacity=".4"/><stop offset="1" stop-color="#5326EC" stop-opacity="0"/></linearGradient></defs></svg>