<svg width="388" height="135" viewBox="0 0 388 135" fill="none" xmlns="http://www.w3.org/2000/svg">
<g opacity="0.02">
<path d="M91.5099 21.7232L90.8237 23.2254H90.8404L91.5099 21.7232Z" fill="#5326EC"/>
<path d="M109.555 35.8069L110.638 37.0527L111.804 36.041L110.875 34.8091L109.555 35.8069Z" fill="#5326EC"/>
<path d="M92.501 50.5947L91.1787 51.5869L92.2444 53.0055L93.5864 51.8433L92.501 50.5947Z" fill="#5326EC"/>
<path d="M57.5391 40.4411L56.8527 38.9389H56.8361L57.5391 40.4411Z" fill="#5326EC"/>
<path d="M43.7218 79.3239L42.1652 79.8813V79.9314L43.7218 79.3239Z" fill="#5326EC"/>
<path d="M58.0996 94.8171L57.4134 96.3194H57.4301L58.0996 94.8171Z" fill="#5326EC"/>
<path d="M91.5102 80.5918L93.1032 81.0294L93.6778 78.9391H91.5102V80.5918Z" fill="#5326EC"/>
<path d="M66.842 80.5923H65.1877V82.2451H66.842V80.5923Z" fill="#5326EC"/>
<path d="M66.842 58.5181H65.1877V60.1709H66.842V58.5181Z" fill="#5326EC"/>
<path d="M119.249 58.5181H117.595V60.1709H119.249V58.5181Z" fill="#5326EC"/>
<path d="M115.938 67.0719C116 73.8436 114.795 80.5673 112.383 86.8964L115.452 88.0892C118.012 81.38 119.293 74.2517 119.229 67.0719H115.938Z" fill="#5326EC"/>
<path d="M112.383 86.8964C110.168 92.7495 106.835 98.1168 102.569 102.699L104.979 104.96C109.536 100.068 113.098 94.3386 115.466 88.0895L112.383 86.8964Z" fill="#5326EC"/>
<path d="M102.582 102.688C98.2954 107.114 93.1556 110.628 87.4729 113.017L88.7815 116.052C94.8676 113.487 100.371 109.718 104.962 104.973L102.582 102.688Z" fill="#5326EC"/>
<path d="M87.4806 113.011C81.4752 115.5 75.028 116.749 68.5267 116.684V119.987C75.4697 120.052 82.354 118.714 88.7667 116.054L87.4806 113.011Z" fill="#5326EC"/>
<path d="M68.5321 116.685C61.7423 116.729 55.0108 115.431 48.7247 112.867L47.4663 115.933C54.1523 118.662 61.3124 120.044 68.5348 119.999L68.5321 116.685Z" fill="#5326EC"/>
<path d="M48.7308 112.869C42.8015 110.436 37.3793 106.919 32.7426 102.498L30.455 104.881C35.3856 109.584 41.1512 113.327 47.4559 115.918L48.7308 112.869Z" fill="#5326EC"/>
<path d="M32.7664 102.522C28.2623 98.0048 24.649 92.6818 22.115 86.8304L19.088 88.157C21.787 94.3847 25.634 100.05 30.4285 104.857L32.7664 102.522Z" fill="#5326EC"/>
<path d="M22.1238 86.849C19.5514 80.723 18.253 74.1384 18.3074 67.4955H15.0015C14.948 74.5817 16.3355 81.6049 19.0801 88.1394L22.1238 86.849Z" fill="#5326EC"/>
<path d="M18.3074 67.4955C18.2528 60.8517 19.5512 54.2662 22.1238 48.1394L19.0801 46.8518C16.3355 53.3862 14.948 60.4093 15.0015 67.4955H18.3074Z" fill="#5326EC"/>
<path d="M22.115 48.159C24.6273 42.3436 28.2403 37.0676 32.7554 32.6211L30.4398 30.2604C25.6245 35.0039 21.7702 40.6304 19.088 46.8322L22.115 48.159Z" fill="#5326EC"/>
<path d="M32.7655 32.6073C37.2984 28.1072 42.6742 24.5434 48.5862 22.1196L47.3115 19.0733C41.0018 21.6617 35.2645 25.4671 30.4277 30.2718L32.7655 32.6073Z" fill="#5326EC"/>
<path d="M48.5875 22.1192C54.776 19.5551 61.4166 18.2576 68.116 18.3037V15.001C60.9807 14.9567 53.9089 16.3413 47.3181 19.0729L48.5875 22.1192Z" fill="#5326EC"/>
<path d="M68.1094 18.3038C75.9483 18.2818 83.6983 19.9608 90.8237 23.2254L92.1965 20.2186C84.6397 16.7597 76.4216 14.9796 68.1094 15.0012V18.3038Z" fill="#5326EC"/>
<path d="M90.8432 23.2305C97.7186 26.1748 103.712 30.8505 108.238 36.8008L110.877 34.8108C106.013 28.4128 99.5737 23.3831 92.1851 20.2122L90.8432 23.2305Z" fill="#5326EC"/>
<path d="M108.473 34.5587L91.4166 49.3457L93.5834 51.8401L110.64 37.0531L108.473 34.5587Z" fill="#5326EC"/>
<path d="M93.8204 49.603C90.7965 45.4603 86.8213 42.1035 82.2289 39.8147L80.7752 42.783C84.898 44.8417 88.4651 47.8604 91.1757 51.5846L93.8204 49.603Z" fill="#5326EC"/>
<path d="M82.2397 39.8227C77.8529 37.6362 73.0117 36.5142 68.1094 36.5479V39.8506C72.4985 39.8167 76.8336 40.8195 80.7612 42.777L82.2397 39.8227Z" fill="#5326EC"/>
<path d="M68.1113 36.5399C64.2279 36.5161 60.3857 37.3368 56.8517 38.9451L58.2242 41.9468C61.3281 40.537 64.7018 39.819 68.1113 39.8426V36.5399Z" fill="#5326EC"/>
<path d="M56.8328 38.9594C53.4674 40.5337 50.4583 42.7764 47.989 45.5508L50.4524 47.7498C52.6278 45.3083 55.2779 43.3349 58.2415 41.9499L56.8328 38.9594Z" fill="#5326EC"/>
<path d="M48.007 45.5277C45.4103 48.3846 43.4227 51.7396 42.1652 55.3883L45.2757 56.5032C46.3862 53.2745 48.1401 50.3041 50.4313 47.7712L48.007 45.5277Z" fill="#5326EC"/>
<path d="M42.1707 55.3743C40.7637 59.2594 40.0608 63.3638 40.095 67.4952H43.4009C43.3664 63.7537 44.0004 60.036 45.2729 56.5169L42.1707 55.3743Z" fill="#5326EC"/>
<path d="M40.095 67.4952C40.0612 71.7134 40.7616 75.9058 42.165 79.8842L45.2756 78.7694C44.0028 75.1491 43.3685 71.3355 43.4009 67.4985L40.095 67.4952Z" fill="#5326EC"/>
<path d="M42.1847 79.9312C43.5852 83.5559 45.6559 86.885 48.2887 89.7446L50.7132 87.4958C48.3589 84.939 46.5083 81.961 45.259 78.7189L42.1847 79.9312Z" fill="#5326EC"/>
<path d="M48.2887 89.7446C50.8637 92.5193 53.9664 94.7545 57.4147 96.3195L58.7873 93.315C55.7354 91.931 52.9902 89.9527 50.7132 87.4958L48.2887 89.7446Z" fill="#5326EC"/>
<path d="M57.429 96.3255C61.0588 97.9292 64.9874 98.7461 68.9563 98.7223V95.4197C65.4506 95.4434 61.9799 94.7234 58.7736 93.3071L57.429 96.3255Z" fill="#5326EC"/>
<path d="M68.9563 98.7223C74.5013 98.8409 79.9232 97.0822 84.3416 93.733L82.3274 91.1131C78.4868 94.0195 73.7729 95.5381 68.9563 95.4197V98.7223Z" fill="#5326EC"/>
<path d="M84.3269 93.7447C88.6165 90.6282 91.7137 86.1429 93.1065 81.0301L89.9177 80.1549C88.7173 84.5606 86.0445 88.4235 82.3434 91.1024L84.3269 93.7447Z" fill="#5326EC"/>
<path d="M91.5116 78.9419H66.8414L66.842 82.2451L91.5116 82.2446V78.9419Z" fill="#5326EC"/>
<path d="M68.4936 60.1704L65.1877 60.1709V80.5913H68.4936V60.1704Z" fill="#5326EC"/>
<path d="M117.593 58.5182L66.842 58.5181L66.8414 61.8208H117.593V58.5182Z" fill="#5326EC"/>
<path d="M119.243 60.1704H115.937L115.938 67.0719L119.243 67.0712V60.1704Z" fill="#5326EC"/>
<path d="M129.247 116.788H127.593V118.441H129.247V116.788Z" fill="#5326EC"/>
<path d="M129.247 16.551H127.593V18.2037H129.247V16.551Z" fill="#5326EC"/>
<path d="M155.148 16.551H153.494V18.2037H155.148V16.551Z" fill="#5326EC"/>
<path d="M155.148 116.788H153.494V118.441H155.148V116.788Z" fill="#5326EC"/>
<path d="M130.899 18.2013H127.593V116.786H130.899V18.2013Z" fill="#5326EC"/>
<path d="M153.495 16.551H129.247L129.247 19.8537H153.495V16.551Z" fill="#5326EC"/>
<path d="M155.146 18.2013H151.84V116.786H155.146V18.2013Z" fill="#5326EC"/>
<path d="M153.495 115.136H129.247V118.438H153.495V115.136Z" fill="#5326EC"/>
<path d="M196.997 116.788L195.455 117.382L195.862 118.441H196.997V116.788Z" fill="#5326EC"/>
<path d="M159.076 18.2008V16.5481H156.665L157.527 18.7916L159.076 18.2008Z" fill="#5326EC"/>
<path d="M185.297 18.2007L186.854 17.6432L186.463 16.5451H185.297V18.2007Z" fill="#5326EC"/>
<path d="M211.382 91.5788L209.825 92.1362L211.371 96.484L212.939 92.1446L211.382 91.5788Z" fill="#5326EC"/>
<path d="M237.882 18.2008V16.5481H236.732L236.339 17.6378L237.882 18.2008Z" fill="#5326EC"/>
<path d="M263.118 18.2008L264.658 18.8L265.537 16.5481H263.118V18.2008Z" fill="#5326EC"/>
<path d="M224.633 116.788V118.441H225.749L226.159 117.39L224.633 116.788Z" fill="#5326EC"/>
<path d="M160.621 17.609L157.535 18.7937L195.457 117.378L198.543 116.194L160.621 17.609Z" fill="#5326EC"/>
<path d="M185.297 16.551H159.076V19.8537H185.297V16.551Z" fill="#5326EC"/>
<path d="M186.856 17.6506L183.741 18.7557L209.821 92.1325L212.936 91.0273L186.856 17.6506Z" fill="#5326EC"/>
<path d="M236.296 17.6136L209.825 91.0186L212.936 92.1382L239.406 18.7332L236.296 17.6136Z" fill="#5326EC"/>
<path d="M263.117 16.551H237.884V19.8537H263.117V16.551Z" fill="#5326EC"/>
<path d="M261.578 17.6044L223.092 116.189L226.172 117.389L264.658 18.8044L261.578 17.6044Z" fill="#5326EC"/>
<path d="M224.63 115.136H197V118.438H224.63V115.136Z" fill="#5326EC"/>
<path d="M345.257 21.7232L344.571 23.2254H344.587L345.257 21.7232Z" fill="#5326EC"/>
<path d="M363.31 35.807L364.392 37.0557L365.558 36.0439L364.629 34.812L363.31 35.807Z" fill="#5326EC"/>
<path d="M346.256 50.5947L344.933 51.5869L345.999 53.0055L347.341 51.8433L346.256 50.5947Z" fill="#5326EC"/>
<path d="M311.294 40.4411L310.607 38.9389H310.591L311.294 40.4411Z" fill="#5326EC"/>
<path d="M297.476 79.3239L295.92 79.8813V79.9287L297.476 79.3239Z" fill="#5326EC"/>
<path d="M311.854 94.8171L311.168 96.3194H311.185L311.854 94.8171Z" fill="#5326EC"/>
<path d="M345.257 80.5919L346.85 81.0295L347.425 78.942H345.257V80.5919Z" fill="#5326EC"/>
<path d="M320.597 80.5923H318.942V82.2451H320.597V80.5923Z" fill="#5326EC"/>
<path d="M320.597 58.5181H318.942V60.1709H320.597V58.5181Z" fill="#5326EC"/>
<path d="M373 58.5181H371.346V60.1709H373V58.5181Z" fill="#5326EC"/>
<path d="M369.692 67.0719C369.755 73.8436 368.549 80.5675 366.138 86.8966L369.207 88.0892C371.767 81.38 373.048 74.2517 372.984 67.0719H369.692Z" fill="#5326EC"/>
<path d="M366.138 86.8966C363.922 92.7497 360.589 98.1168 356.324 102.699L358.734 104.96C363.291 100.068 366.852 94.3384 369.221 88.0895L366.138 86.8966Z" fill="#5326EC"/>
<path d="M356.334 102.688C352.048 107.114 346.909 110.628 341.228 113.017L342.536 116.052C348.622 113.487 354.126 109.718 358.717 104.973L356.334 102.688Z" fill="#5326EC"/>
<path d="M341.239 113.011C335.234 115.499 328.787 116.749 322.285 116.684V119.987C329.228 120.052 336.112 118.714 342.525 116.054L341.239 113.011Z" fill="#5326EC"/>
<path d="M322.287 116.685C315.497 116.729 308.765 115.431 302.479 112.867L301.221 115.933C307.907 118.662 315.067 120.044 322.289 119.999L322.287 116.685Z" fill="#5326EC"/>
<path d="M302.484 112.869C296.555 110.436 291.133 106.919 286.496 102.498L284.206 104.881C289.141 109.585 294.913 113.327 301.224 115.915L302.484 112.869Z" fill="#5326EC"/>
<path d="M286.521 102.521C282.017 98.0039 278.404 92.6809 275.87 86.8294L272.843 88.156C275.542 94.3833 279.388 100.049 284.182 104.856L286.521 102.521Z" fill="#5326EC"/>
<path d="M275.878 86.849C273.308 80.7225 272.009 74.1383 272.062 67.4955H268.756C268.703 74.5817 270.09 81.605 272.835 88.1394L275.878 86.849Z" fill="#5326EC"/>
<path d="M272.062 67.4955C272.009 60.8518 273.307 54.2667 275.878 48.1394L272.835 46.8518C270.09 53.3862 268.703 60.4093 268.756 67.4955H272.062Z" fill="#5326EC"/>
<path d="M275.87 48.159C278.381 42.3437 281.993 37.0678 286.507 32.6211L284.194 30.2604C279.379 35.0039 275.525 40.6304 272.843 46.8322L275.87 48.159Z" fill="#5326EC"/>
<path d="M286.52 32.6073C291.053 28.1066 296.429 24.5427 302.341 22.1196L301.066 19.0733C294.756 21.6606 289.018 25.4661 284.182 30.2718L286.52 32.6073Z" fill="#5326EC"/>
<path d="M302.342 22.1192C308.531 19.5551 315.171 18.2576 321.871 18.3037V15.001C314.735 14.9567 307.664 16.3413 301.073 19.0729L302.342 22.1192Z" fill="#5326EC"/>
<path d="M321.864 18.3039C329.703 18.2818 337.453 19.9612 344.578 23.2258L345.951 20.2186C338.394 16.7592 330.176 14.9791 321.864 15.0012V18.3039Z" fill="#5326EC"/>
<path d="M344.598 23.2305C351.473 26.174 357.466 30.8487 361.992 36.798L364.631 34.8108C359.768 28.4128 353.328 23.3831 345.94 20.2122L344.598 23.2305Z" fill="#5326EC"/>
<path d="M362.228 34.5587L345.171 49.3457L347.338 51.8401L364.395 37.0531L362.228 34.5587Z" fill="#5326EC"/>
<path d="M347.575 49.603C344.551 45.4602 340.576 42.1033 335.983 39.8147L334.53 42.783C338.653 44.8411 342.22 47.8599 344.93 51.5846L347.575 49.603Z" fill="#5326EC"/>
<path d="M335.994 39.8227C331.608 37.6362 326.766 36.5142 321.864 36.5479V39.8506C326.253 39.8167 330.588 40.8195 334.516 42.777L335.994 39.8227Z" fill="#5326EC"/>
<path d="M321.865 36.5398C317.981 36.5167 314.138 37.3364 310.602 38.9423L311.978 41.9468C315.082 40.537 318.455 39.819 321.865 39.8426V36.5398Z" fill="#5326EC"/>
<path d="M310.586 38.9594C307.22 40.5343 304.211 42.7769 301.74 45.5508L304.206 47.7498C306.381 45.3083 309.031 43.3349 311.995 41.9499L310.586 38.9594Z" fill="#5326EC"/>
<path d="M301.762 45.5277C299.165 48.3846 297.177 51.7396 295.92 55.3883L299.03 56.5032C300.14 53.2742 301.894 50.3037 304.186 47.7712L301.762 45.5277Z" fill="#5326EC"/>
<path d="M295.925 55.3743C294.518 59.2594 293.815 63.3638 293.85 67.4952H297.156C297.121 63.7537 297.755 60.036 299.028 56.5169L295.925 55.3743Z" fill="#5326EC"/>
<path d="M293.85 67.4952C293.816 71.7134 294.516 75.9058 295.92 79.8842L299.03 78.7694C297.757 75.1491 297.123 71.3355 297.156 67.4985L293.85 67.4952Z" fill="#5326EC"/>
<path d="M295.935 79.9312C297.338 83.5555 299.41 86.8843 302.042 89.7446L304.467 87.4954C302.112 84.9386 300.262 81.961 299.013 78.7189L295.935 79.9312Z" fill="#5326EC"/>
<path d="M302.044 89.7448C304.618 92.5201 307.721 94.7552 311.169 96.3195L312.542 93.315C309.49 91.931 306.745 89.9526 304.468 87.4956L302.044 89.7448Z" fill="#5326EC"/>
<path d="M311.184 96.3255C314.813 97.9292 318.742 98.7461 322.711 98.7223V95.4197C319.205 95.4434 315.735 94.7234 312.528 93.3071L311.184 96.3255Z" fill="#5326EC"/>
<path d="M322.711 98.7223C328.256 98.8409 333.678 97.0822 338.096 93.733L336.082 91.1131C332.241 94.0195 327.528 95.5381 322.711 95.4197V98.7223Z" fill="#5326EC"/>
<path d="M338.082 93.7447C342.371 90.6288 345.468 86.1432 346.858 81.0301L343.672 80.1549C342.472 84.5606 339.799 88.4235 336.098 91.1024L338.082 93.7447Z" fill="#5326EC"/>
<path d="M345.266 78.9419H320.596L320.597 82.2451L345.266 82.2446V78.9419Z" fill="#5326EC"/>
<path d="M322.248 60.1704L318.942 60.1709V80.5913H322.248V60.1704Z" fill="#5326EC"/>
<path d="M371.348 58.5182L320.597 58.5181L320.596 61.8208H371.348V58.5182Z" fill="#5326EC"/>
<path d="M372.998 60.1704H369.692L369.692 67.0719L372.998 67.0712V60.1704Z" fill="#5326EC"/>
</g>
</svg>
