<svg width="769" height="701" viewBox="0 0 769 701" fill="none" xmlns="http://www.w3.org/2000/svg">
<g opacity="0.55">
<g opacity="0.4">
<path d="M42.4992 190.923C37.2992 190.923 32.4659 190.023 27.9992 188.223C23.5992 186.357 19.6992 183.79 16.2992 180.523C12.9659 177.19 10.3659 173.357 8.49922 169.023C6.63255 164.623 5.69922 159.89 5.69922 154.823C5.69922 149.757 6.63255 145.057 8.49922 140.723C10.3659 136.323 12.9326 132.49 16.1992 129.223C19.5326 125.89 23.3992 123.323 27.7992 121.523C32.2659 119.657 37.0659 118.723 42.1992 118.723C48.0659 118.723 53.5992 119.923 58.7992 122.323C64.0659 124.657 68.3326 127.99 71.5992 132.323L59.4992 142.823C57.2992 139.89 54.7326 137.69 51.7992 136.223C48.8659 134.757 45.6659 134.023 42.1992 134.023C39.5326 134.023 37.0326 134.557 34.6992 135.623C32.4326 136.623 30.4659 138.09 28.7992 140.023C27.1326 141.89 25.8326 144.09 24.8992 146.623C23.9659 149.09 23.4992 151.823 23.4992 154.823C23.4992 157.823 23.9659 160.623 24.8992 163.223C25.8992 165.757 27.2659 167.957 28.9992 169.823C30.7326 171.69 32.7659 173.157 35.0992 174.223C37.4326 175.29 39.9992 175.823 42.7992 175.823C45.4659 175.823 47.8659 175.323 49.9992 174.323C52.1992 173.323 54.0659 171.957 55.5992 170.223C57.1326 168.423 58.1992 166.39 58.7992 164.123H41.2992V149.623H77.2992V154.523C77.2992 159.79 76.4326 164.657 74.6992 169.123C73.0326 173.523 70.6326 177.357 67.4992 180.623C64.3659 183.89 60.6659 186.423 56.3992 188.223C52.1992 190.023 47.5659 190.923 42.4992 190.923ZM85.5656 189.823V119.823H102.766V189.823H85.5656ZM133.627 189.823L106.727 119.823H125.327L143.827 171.923L162.627 119.823H180.527L153.227 189.823H133.627Z" fill="#EBECF2"/>
<path d="M235.398 190.923C230.198 190.923 225.364 190.023 220.898 188.223C216.498 186.357 212.598 183.79 209.198 180.523C205.864 177.19 203.264 173.357 201.398 169.023C199.531 164.623 198.598 159.89 198.598 154.823C198.598 149.757 199.531 145.057 201.398 140.723C203.264 136.323 205.831 132.49 209.098 129.223C212.431 125.89 216.298 123.323 220.698 121.523C225.164 119.657 229.964 118.723 235.098 118.723C240.964 118.723 246.498 119.923 251.698 122.323C256.964 124.657 261.231 127.99 264.498 132.323L252.398 142.823C250.198 139.89 247.631 137.69 244.698 136.223C241.764 134.757 238.564 134.023 235.098 134.023C232.431 134.023 229.931 134.557 227.598 135.623C225.331 136.623 223.364 138.09 221.698 140.023C220.031 141.89 218.731 144.09 217.798 146.623C216.864 149.09 216.398 151.823 216.398 154.823C216.398 157.823 216.864 160.623 217.798 163.223C218.798 165.757 220.164 167.957 221.898 169.823C223.631 171.69 225.664 173.157 227.998 174.223C230.331 175.29 232.898 175.823 235.698 175.823C238.364 175.823 240.764 175.323 242.898 174.323C245.098 173.323 246.964 171.957 248.498 170.223C250.031 168.423 251.098 166.39 251.698 164.123H234.198V149.623H270.198V154.523C270.198 159.79 269.331 164.657 267.598 169.123C265.931 173.523 263.531 177.357 260.398 180.623C257.264 183.89 253.564 186.423 249.298 188.223C245.098 190.023 240.464 190.923 235.398 190.923ZM278.464 189.823V119.823H295.664V189.823H278.464ZM326.526 189.823L299.626 119.823H318.226L336.726 171.923L355.526 119.823H373.426L346.126 189.823H326.526Z" fill="#EBECF2"/>
<path d="M428.3 190.923C423.1 190.923 418.267 190.023 413.8 188.223C409.4 186.357 405.5 183.79 402.1 180.523C398.767 177.19 396.167 173.357 394.3 169.023C392.433 164.623 391.5 159.89 391.5 154.823C391.5 149.757 392.433 145.057 394.3 140.723C396.167 136.323 398.733 132.49 402 129.223C405.333 125.89 409.2 123.323 413.6 121.523C418.067 119.657 422.867 118.723 428 118.723C433.867 118.723 439.4 119.923 444.6 122.323C449.867 124.657 454.133 127.99 457.4 132.323L445.3 142.823C443.1 139.89 440.533 137.69 437.6 136.223C434.667 134.757 431.467 134.023 428 134.023C425.333 134.023 422.833 134.557 420.5 135.623C418.233 136.623 416.267 138.09 414.6 140.023C412.933 141.89 411.633 144.09 410.7 146.623C409.767 149.09 409.3 151.823 409.3 154.823C409.3 157.823 409.767 160.623 410.7 163.223C411.7 165.757 413.067 167.957 414.8 169.823C416.533 171.69 418.567 173.157 420.9 174.223C423.233 175.29 425.8 175.823 428.6 175.823C431.267 175.823 433.667 175.323 435.8 174.323C438 173.323 439.867 171.957 441.4 170.223C442.933 168.423 444 166.39 444.6 164.123H427.1V149.623H463.1V154.523C463.1 159.79 462.233 164.657 460.5 169.123C458.833 173.523 456.433 177.357 453.3 180.623C450.167 183.89 446.467 186.423 442.2 188.223C438 190.023 433.367 190.923 428.3 190.923ZM471.366 189.823V119.823H488.566V189.823H471.366ZM519.428 189.823L492.528 119.823H511.128L529.628 171.923L548.428 119.823H566.328L539.028 189.823H519.428Z" fill="#EBECF2"/>
<path d="M621.202 190.923C616.002 190.923 611.169 190.023 606.702 188.223C602.302 186.357 598.402 183.79 595.002 180.523C591.669 177.19 589.069 173.357 587.202 169.023C585.336 164.623 584.402 159.89 584.402 154.823C584.402 149.757 585.336 145.057 587.202 140.723C589.069 136.323 591.636 132.49 594.902 129.223C598.236 125.89 602.102 123.323 606.502 121.523C610.969 119.657 615.769 118.723 620.902 118.723C626.769 118.723 632.302 119.923 637.502 122.323C642.769 124.657 647.036 127.99 650.302 132.323L638.202 142.823C636.002 139.89 633.436 137.69 630.502 136.223C627.569 134.757 624.369 134.023 620.902 134.023C618.236 134.023 615.736 134.557 613.402 135.623C611.136 136.623 609.169 138.09 607.502 140.023C605.836 141.89 604.536 144.09 603.602 146.623C602.669 149.09 602.202 151.823 602.202 154.823C602.202 157.823 602.669 160.623 603.602 163.223C604.602 165.757 605.969 167.957 607.702 169.823C609.436 171.69 611.469 173.157 613.802 174.223C616.136 175.29 618.702 175.823 621.502 175.823C624.169 175.823 626.569 175.323 628.702 174.323C630.902 173.323 632.769 171.957 634.302 170.223C635.836 168.423 636.902 166.39 637.502 164.123H620.002V149.623H656.002V154.523C656.002 159.79 655.136 164.657 653.402 169.123C651.736 173.523 649.336 177.357 646.202 180.623C643.069 183.89 639.369 186.423 635.102 188.223C630.902 190.023 626.269 190.923 621.202 190.923ZM664.269 189.823V119.823H681.469V189.823H664.269ZM712.33 189.823L685.43 119.823H704.03L722.53 171.923L741.33 119.823H759.23L731.93 189.823H712.33Z" fill="#EBECF2"/>
</g>
<g opacity="0.4">
<path d="M42.4992 99.1166C37.2992 99.1166 32.4659 98.2166 27.9992 96.4166C23.5992 94.5499 19.6992 91.9833 16.2992 88.7166C12.9659 85.3833 10.3659 81.5499 8.49922 77.2166C6.63255 72.8166 5.69922 68.0833 5.69922 63.0166C5.69922 57.9499 6.63255 53.2499 8.49922 48.9166C10.3659 44.5166 12.9326 40.6833 16.1992 37.4166C19.5326 34.0833 23.3992 31.5166 27.7992 29.7166C32.2659 27.8499 37.0659 26.9166 42.1992 26.9166C48.0659 26.9166 53.5992 28.1166 58.7992 30.5166C64.0659 32.8499 68.3326 36.1833 71.5992 40.5166L59.4992 51.0166C57.2992 48.0833 54.7326 45.8833 51.7992 44.4166C48.8659 42.9499 45.6659 42.2166 42.1992 42.2166C39.5326 42.2166 37.0326 42.7499 34.6992 43.8166C32.4326 44.8166 30.4659 46.2833 28.7992 48.2166C27.1326 50.0833 25.8326 52.2833 24.8992 54.8166C23.9659 57.2833 23.4992 60.0166 23.4992 63.0166C23.4992 66.0166 23.9659 68.8166 24.8992 71.4166C25.8992 73.9499 27.2659 76.1499 28.9992 78.0166C30.7326 79.8833 32.7659 81.3499 35.0992 82.4166C37.4326 83.4833 39.9992 84.0166 42.7992 84.0166C45.4659 84.0166 47.8659 83.5166 49.9992 82.5166C52.1992 81.5166 54.0659 80.1499 55.5992 78.4166C57.1326 76.6166 58.1992 74.5833 58.7992 72.3166H41.2992V57.8166H77.2992V62.7166C77.2992 67.9833 76.4326 72.8499 74.6992 77.3166C73.0326 81.7166 70.6326 85.5499 67.4992 88.8166C64.3659 92.0833 60.6659 94.6166 56.3992 96.4166C52.1992 98.2166 47.5659 99.1166 42.4992 99.1166ZM85.5656 98.0166V28.0166H102.766V98.0166H85.5656ZM133.627 98.0166L106.727 28.0166H125.327L143.827 80.1166L162.627 28.0166H180.527L153.227 98.0166H133.627Z" fill="#EBECF2"/>
<path d="M235.398 99.1166C230.198 99.1166 225.364 98.2166 220.898 96.4166C216.498 94.5499 212.598 91.9833 209.198 88.7166C205.864 85.3833 203.264 81.5499 201.398 77.2166C199.531 72.8166 198.598 68.0833 198.598 63.0166C198.598 57.9499 199.531 53.2499 201.398 48.9166C203.264 44.5166 205.831 40.6833 209.098 37.4166C212.431 34.0833 216.298 31.5166 220.698 29.7166C225.164 27.8499 229.964 26.9166 235.098 26.9166C240.964 26.9166 246.498 28.1166 251.698 30.5166C256.964 32.8499 261.231 36.1833 264.498 40.5166L252.398 51.0166C250.198 48.0833 247.631 45.8833 244.698 44.4166C241.764 42.9499 238.564 42.2166 235.098 42.2166C232.431 42.2166 229.931 42.7499 227.598 43.8166C225.331 44.8166 223.364 46.2833 221.698 48.2166C220.031 50.0833 218.731 52.2833 217.798 54.8166C216.864 57.2833 216.398 60.0166 216.398 63.0166C216.398 66.0166 216.864 68.8166 217.798 71.4166C218.798 73.9499 220.164 76.1499 221.898 78.0166C223.631 79.8833 225.664 81.3499 227.998 82.4166C230.331 83.4833 232.898 84.0166 235.698 84.0166C238.364 84.0166 240.764 83.5166 242.898 82.5166C245.098 81.5166 246.964 80.1499 248.498 78.4166C250.031 76.6166 251.098 74.5833 251.698 72.3166H234.198V57.8166H270.198V62.7166C270.198 67.9833 269.331 72.8499 267.598 77.3166C265.931 81.7166 263.531 85.5499 260.398 88.8166C257.264 92.0833 253.564 94.6166 249.298 96.4166C245.098 98.2166 240.464 99.1166 235.398 99.1166ZM278.464 98.0166V28.0166H295.664V98.0166H278.464ZM326.526 98.0166L299.626 28.0166H318.226L336.726 80.1166L355.526 28.0166H373.426L346.126 98.0166H326.526Z" fill="#EBECF2"/>
<path d="M428.3 99.1166C423.1 99.1166 418.267 98.2166 413.8 96.4166C409.4 94.5499 405.5 91.9833 402.1 88.7166C398.767 85.3833 396.167 81.5499 394.3 77.2166C392.433 72.8166 391.5 68.0833 391.5 63.0166C391.5 57.9499 392.433 53.2499 394.3 48.9166C396.167 44.5166 398.733 40.6833 402 37.4166C405.333 34.0833 409.2 31.5166 413.6 29.7166C418.067 27.8499 422.867 26.9166 428 26.9166C433.867 26.9166 439.4 28.1166 444.6 30.5166C449.867 32.8499 454.133 36.1833 457.4 40.5166L445.3 51.0166C443.1 48.0833 440.533 45.8833 437.6 44.4166C434.667 42.9499 431.467 42.2166 428 42.2166C425.333 42.2166 422.833 42.7499 420.5 43.8166C418.233 44.8166 416.267 46.2833 414.6 48.2166C412.933 50.0833 411.633 52.2833 410.7 54.8166C409.767 57.2833 409.3 60.0166 409.3 63.0166C409.3 66.0166 409.767 68.8166 410.7 71.4166C411.7 73.9499 413.067 76.1499 414.8 78.0166C416.533 79.8833 418.567 81.3499 420.9 82.4166C423.233 83.4833 425.8 84.0166 428.6 84.0166C431.267 84.0166 433.667 83.5166 435.8 82.5166C438 81.5166 439.867 80.1499 441.4 78.4166C442.933 76.6166 444 74.5833 444.6 72.3166H427.1V57.8166H463.1V62.7166C463.1 67.9833 462.233 72.8499 460.5 77.3166C458.833 81.7166 456.433 85.5499 453.3 88.8166C450.167 92.0833 446.467 94.6166 442.2 96.4166C438 98.2166 433.367 99.1166 428.3 99.1166ZM471.366 98.0166V28.0166H488.566V98.0166H471.366ZM519.428 98.0166L492.528 28.0166H511.128L529.628 80.1166L548.428 28.0166H566.328L539.028 98.0166H519.428Z" fill="#EBECF2"/>
<path d="M621.202 99.1166C616.002 99.1166 611.169 98.2166 606.702 96.4166C602.302 94.5499 598.402 91.9833 595.002 88.7166C591.669 85.3833 589.069 81.5499 587.202 77.2166C585.336 72.8166 584.402 68.0833 584.402 63.0166C584.402 57.9499 585.336 53.2499 587.202 48.9166C589.069 44.5166 591.636 40.6833 594.902 37.4166C598.236 34.0833 602.102 31.5166 606.502 29.7166C610.969 27.8499 615.769 26.9166 620.902 26.9166C626.769 26.9166 632.302 28.1166 637.502 30.5166C642.769 32.8499 647.036 36.1833 650.302 40.5166L638.202 51.0166C636.002 48.0833 633.436 45.8833 630.502 44.4166C627.569 42.9499 624.369 42.2166 620.902 42.2166C618.236 42.2166 615.736 42.7499 613.402 43.8166C611.136 44.8166 609.169 46.2833 607.502 48.2166C605.836 50.0833 604.536 52.2833 603.602 54.8166C602.669 57.2833 602.202 60.0166 602.202 63.0166C602.202 66.0166 602.669 68.8166 603.602 71.4166C604.602 73.9499 605.969 76.1499 607.702 78.0166C609.436 79.8833 611.469 81.3499 613.802 82.4166C616.136 83.4833 618.702 84.0166 621.502 84.0166C624.169 84.0166 626.569 83.5166 628.702 82.5166C630.902 81.5166 632.769 80.1499 634.302 78.4166C635.836 76.6166 636.902 74.5833 637.502 72.3166H620.002V57.8166H656.002V62.7166C656.002 67.9833 655.136 72.8499 653.402 77.3166C651.736 81.7166 649.336 85.5499 646.202 88.8166C643.069 92.0833 639.369 94.6166 635.102 96.4166C630.902 98.2166 626.269 99.1166 621.202 99.1166ZM664.269 98.0166V28.0166H681.469V98.0166H664.269ZM712.33 98.0166L685.43 28.0166H704.03L722.53 80.1166L741.33 28.0166H759.23L731.93 98.0166H712.33Z" fill="#EBECF2"/>
</g>
<path d="M42.3 283.1C37.1 283.1 32.2667 282.2 27.8 280.4C23.4 278.533 19.5 275.967 16.1 272.7C12.7667 269.367 10.1667 265.533 8.3 261.2C6.43333 256.8 5.5 252.067 5.5 247C5.5 241.933 6.43333 237.233 8.3 232.9C10.1667 228.5 12.7333 224.667 16 221.4C19.3333 218.067 23.2 215.5 27.6 213.7C32.0667 211.833 36.8667 210.9 42 210.9C47.8667 210.9 53.4 212.1 58.6 214.5C63.8667 216.833 68.1333 220.167 71.4 224.5L59.3 235C57.1 232.067 54.5333 229.867 51.6 228.4C48.6667 226.933 45.4667 226.2 42 226.2C39.3333 226.2 36.8333 226.733 34.5 227.8C32.2333 228.8 30.2667 230.267 28.6 232.2C26.9333 234.067 25.6333 236.267 24.7 238.8C23.7667 241.267 23.3 244 23.3 247C23.3 250 23.7667 252.8 24.7 255.4C25.7 257.933 27.0667 260.133 28.8 262C30.5333 263.867 32.5667 265.333 34.9 266.4C37.2333 267.467 39.8 268 42.6 268C45.2667 268 47.6667 267.5 49.8 266.5C52 265.5 53.8667 264.133 55.4 262.4C56.9333 260.6 58 258.567 58.6 256.3H41.1V241.8H77.1V246.7C77.1 251.967 76.2333 256.833 74.5 261.3C72.8333 265.7 70.4333 269.533 67.3 272.8C64.1667 276.067 60.4667 278.6 56.2 280.4C52 282.2 47.3667 283.1 42.3 283.1ZM85.3664 282V212H102.566V282H85.3664ZM133.428 282L106.528 212H125.128L143.628 264.1L162.428 212H180.328L153.028 282H133.428Z" fill="#EBECF2"/>
<path d="M621.3 283.1C616.1 283.1 611.267 282.2 606.8 280.4C602.4 278.533 598.5 275.967 595.1 272.7C591.767 269.367 589.167 265.533 587.3 261.2C585.433 256.8 584.5 252.067 584.5 247C584.5 241.933 585.433 237.233 587.3 232.9C589.167 228.5 591.733 224.667 595 221.4C598.333 218.067 602.2 215.5 606.6 213.7C611.067 211.833 615.867 210.9 621 210.9C626.867 210.9 632.4 212.1 637.6 214.5C642.867 216.833 647.133 220.167 650.4 224.5L638.3 235C636.1 232.067 633.533 229.867 630.6 228.4C627.667 226.933 624.467 226.2 621 226.2C618.333 226.2 615.833 226.733 613.5 227.8C611.233 228.8 609.267 230.267 607.6 232.2C605.933 234.067 604.633 236.267 603.7 238.8C602.767 241.267 602.3 244 602.3 247C602.3 250 602.767 252.8 603.7 255.4C604.7 257.933 606.067 260.133 607.8 262C609.533 263.867 611.567 265.333 613.9 266.4C616.233 267.467 618.8 268 621.6 268C624.267 268 626.667 267.5 628.8 266.5C631 265.5 632.867 264.133 634.4 262.4C635.933 260.6 637 258.567 637.6 256.3H620.1V241.8H656.1V246.7C656.1 251.967 655.233 256.833 653.5 261.3C651.833 265.7 649.433 269.533 646.3 272.8C643.167 276.067 639.467 278.6 635.2 280.4C631 282.2 626.367 283.1 621.3 283.1ZM664.366 282V212H681.566V282H664.366ZM712.428 282L685.528 212H704.128L722.628 264.1L741.428 212H759.328L732.028 282H712.428Z" fill="#EBECF2"/>
<path d="M428.3 283.1C423.1 283.1 418.267 282.2 413.8 280.4C409.4 278.533 405.5 275.967 402.1 272.7C398.767 269.367 396.167 265.533 394.3 261.2C392.433 256.8 391.5 252.067 391.5 247C391.5 241.933 392.433 237.233 394.3 232.9C396.167 228.5 398.733 224.667 402 221.4C405.333 218.067 409.2 215.5 413.6 213.7C418.067 211.833 422.867 210.9 428 210.9C433.867 210.9 439.4 212.1 444.6 214.5C449.867 216.833 454.133 220.167 457.4 224.5L445.3 235C443.1 232.067 440.533 229.867 437.6 228.4C434.667 226.933 431.467 226.2 428 226.2C425.333 226.2 422.833 226.733 420.5 227.8C418.233 228.8 416.267 230.267 414.6 232.2C412.933 234.067 411.633 236.267 410.7 238.8C409.767 241.267 409.3 244 409.3 247C409.3 250 409.767 252.8 410.7 255.4C411.7 257.933 413.067 260.133 414.8 262C416.533 263.867 418.567 265.333 420.9 266.4C423.233 267.467 425.8 268 428.6 268C431.267 268 433.667 267.5 435.8 266.5C438 265.5 439.867 264.133 441.4 262.4C442.933 260.6 444 258.567 444.6 256.3H427.1V241.8H463.1V246.7C463.1 251.967 462.233 256.833 460.5 261.3C458.833 265.7 456.433 269.533 453.3 272.8C450.167 276.067 446.467 278.6 442.2 280.4C438 282.2 433.367 283.1 428.3 283.1ZM471.366 282V212H488.566V282H471.366ZM519.428 282L492.528 212H511.128L529.628 264.1L548.428 212H566.328L539.028 282H519.428Z" fill="#EBECF2"/>
<path d="M235.3 283.1C230.1 283.1 225.267 282.2 220.8 280.4C216.4 278.533 212.5 275.967 209.1 272.7C205.767 269.367 203.167 265.533 201.3 261.2C199.433 256.8 198.5 252.067 198.5 247C198.5 241.933 199.433 237.233 201.3 232.9C203.167 228.5 205.733 224.667 209 221.4C212.333 218.067 216.2 215.5 220.6 213.7C225.067 211.833 229.867 210.9 235 210.9C240.867 210.9 246.4 212.1 251.6 214.5C256.867 216.833 261.133 220.167 264.4 224.5L252.3 235C250.1 232.067 247.533 229.867 244.6 228.4C241.667 226.933 238.467 226.2 235 226.2C232.333 226.2 229.833 226.733 227.5 227.8C225.233 228.8 223.267 230.267 221.6 232.2C219.933 234.067 218.633 236.267 217.7 238.8C216.767 241.267 216.3 244 216.3 247C216.3 250 216.767 252.8 217.7 255.4C218.7 257.933 220.067 260.133 221.8 262C223.533 263.867 225.567 265.333 227.9 266.4C230.233 267.467 232.8 268 235.6 268C238.267 268 240.667 267.5 242.8 266.5C245 265.5 246.867 264.133 248.4 262.4C249.933 260.6 251 258.567 251.6 256.3H234.1V241.8H270.1V246.7C270.1 251.967 269.233 256.833 267.5 261.3C265.833 265.7 263.433 269.533 260.3 272.8C257.167 276.067 253.467 278.6 249.2 280.4C245 282.2 240.367 283.1 235.3 283.1ZM278.366 282V212H295.566V282H278.366ZM326.428 282L299.528 212H318.128L336.628 264.1L355.428 212H373.328L346.028 282H326.428Z" fill="#EBECF2"/>
<g opacity="0.4">
<path d="M42.4992 374.536C37.2992 374.536 32.4659 373.636 27.9992 371.836C23.5992 369.969 19.6992 367.403 16.2992 364.136C12.9659 360.803 10.3659 356.969 8.49922 352.636C6.63255 348.236 5.69922 343.503 5.69922 338.436C5.69922 333.369 6.63255 328.669 8.49922 324.336C10.3659 319.936 12.9326 316.103 16.1992 312.836C19.5326 309.503 23.3992 306.936 27.7992 305.136C32.2659 303.269 37.0659 302.336 42.1992 302.336C48.0659 302.336 53.5992 303.536 58.7992 305.936C64.0659 308.269 68.3326 311.603 71.5992 315.936L59.4992 326.436C57.2992 323.503 54.7326 321.303 51.7992 319.836C48.8659 318.369 45.6659 317.636 42.1992 317.636C39.5326 317.636 37.0326 318.169 34.6992 319.236C32.4326 320.236 30.4659 321.703 28.7992 323.636C27.1326 325.503 25.8326 327.703 24.8992 330.236C23.9659 332.703 23.4992 335.436 23.4992 338.436C23.4992 341.436 23.9659 344.236 24.8992 346.836C25.8992 349.369 27.2659 351.569 28.9992 353.436C30.7326 355.303 32.7659 356.769 35.0992 357.836C37.4326 358.903 39.9992 359.436 42.7992 359.436C45.4659 359.436 47.8659 358.936 49.9992 357.936C52.1992 356.936 54.0659 355.569 55.5992 353.836C57.1326 352.036 58.1992 350.003 58.7992 347.736H41.2992V333.236H77.2992V338.136C77.2992 343.403 76.4326 348.269 74.6992 352.736C73.0326 357.136 70.6326 360.969 67.4992 364.236C64.3659 367.503 60.6659 370.036 56.3992 371.836C52.1992 373.636 47.5659 374.536 42.4992 374.536ZM85.5656 373.436V303.436H102.766V373.436H85.5656ZM133.627 373.436L106.727 303.436H125.327L143.827 355.536L162.627 303.436H180.527L153.227 373.436H133.627Z" fill="#EBECF2"/>
<path d="M428.3 374.536C423.1 374.536 418.267 373.636 413.8 371.836C409.4 369.969 405.5 367.403 402.1 364.136C398.767 360.803 396.167 356.969 394.3 352.636C392.433 348.236 391.5 343.503 391.5 338.436C391.5 333.369 392.433 328.669 394.3 324.336C396.167 319.936 398.733 316.103 402 312.836C405.333 309.503 409.2 306.936 413.6 305.136C418.067 303.269 422.867 302.336 428 302.336C433.867 302.336 439.4 303.536 444.6 305.936C449.867 308.269 454.133 311.603 457.4 315.936L445.3 326.436C443.1 323.503 440.533 321.303 437.6 319.836C434.667 318.369 431.467 317.636 428 317.636C425.333 317.636 422.833 318.169 420.5 319.236C418.233 320.236 416.267 321.703 414.6 323.636C412.933 325.503 411.633 327.703 410.7 330.236C409.767 332.703 409.3 335.436 409.3 338.436C409.3 341.436 409.767 344.236 410.7 346.836C411.7 349.369 413.067 351.569 414.8 353.436C416.533 355.303 418.567 356.769 420.9 357.836C423.233 358.903 425.8 359.436 428.6 359.436C431.267 359.436 433.667 358.936 435.8 357.936C438 356.936 439.867 355.569 441.4 353.836C442.933 352.036 444 350.003 444.6 347.736H427.1V333.236H463.1V338.136C463.1 343.403 462.233 348.269 460.5 352.736C458.833 357.136 456.433 360.969 453.3 364.236C450.167 367.503 446.467 370.036 442.2 371.836C438 373.636 433.367 374.536 428.3 374.536ZM471.366 373.436V303.436H488.566V373.436H471.366ZM519.428 373.436L492.528 303.436H511.128L529.628 355.536L548.428 303.436H566.328L539.028 373.436H519.428Z" fill="#EBECF2"/>
<path d="M235.155 374.536C229.955 374.536 225.122 373.636 220.655 371.836C216.255 369.969 212.355 367.403 208.955 364.136C205.622 360.803 203.022 356.969 201.155 352.636C199.289 348.236 198.355 343.503 198.355 338.436C198.355 333.369 199.289 328.669 201.155 324.336C203.022 319.936 205.589 316.103 208.855 312.836C212.189 309.503 216.055 306.936 220.455 305.136C224.922 303.269 229.722 302.336 234.855 302.336C240.722 302.336 246.255 303.536 251.455 305.936C256.722 308.269 260.989 311.603 264.255 315.936L252.155 326.436C249.955 323.503 247.389 321.303 244.455 319.836C241.522 318.369 238.322 317.636 234.855 317.636C232.189 317.636 229.689 318.169 227.355 319.236C225.089 320.236 223.122 321.703 221.455 323.636C219.789 325.503 218.489 327.703 217.555 330.236C216.622 332.703 216.155 335.436 216.155 338.436C216.155 341.436 216.622 344.236 217.555 346.836C218.555 349.369 219.922 351.569 221.655 353.436C223.389 355.303 225.422 356.769 227.755 357.836C230.089 358.903 232.655 359.436 235.455 359.436C238.122 359.436 240.522 358.936 242.655 357.936C244.855 356.936 246.722 355.569 248.255 353.836C249.789 352.036 250.855 350.003 251.455 347.736H233.955V333.236H269.955V338.136C269.955 343.403 269.089 348.269 267.355 352.736C265.689 357.136 263.289 360.969 260.155 364.236C257.022 367.503 253.322 370.036 249.055 371.836C244.855 373.636 240.222 374.536 235.155 374.536ZM278.222 373.436V303.436H295.422V373.436H278.222ZM326.284 373.436L299.384 303.436H317.984L336.484 355.536L355.284 303.436H373.184L345.884 373.436H326.284Z" fill="#EBECF2"/>
<path d="M621.202 374.536C616.002 374.536 611.169 373.636 606.702 371.836C602.302 369.969 598.402 367.403 595.002 364.136C591.669 360.803 589.069 356.969 587.202 352.636C585.336 348.236 584.402 343.503 584.402 338.436C584.402 333.369 585.336 328.669 587.202 324.336C589.069 319.936 591.636 316.103 594.902 312.836C598.236 309.503 602.102 306.936 606.502 305.136C610.969 303.269 615.769 302.336 620.902 302.336C626.769 302.336 632.302 303.536 637.502 305.936C642.769 308.269 647.036 311.603 650.302 315.936L638.202 326.436C636.002 323.503 633.436 321.303 630.502 319.836C627.569 318.369 624.369 317.636 620.902 317.636C618.236 317.636 615.736 318.169 613.402 319.236C611.136 320.236 609.169 321.703 607.502 323.636C605.836 325.503 604.536 327.703 603.602 330.236C602.669 332.703 602.202 335.436 602.202 338.436C602.202 341.436 602.669 344.236 603.602 346.836C604.602 349.369 605.969 351.569 607.702 353.436C609.436 355.303 611.469 356.769 613.802 357.836C616.136 358.903 618.702 359.436 621.502 359.436C624.169 359.436 626.569 358.936 628.702 357.936C630.902 356.936 632.769 355.569 634.302 353.836C635.836 352.036 636.902 350.003 637.502 347.736H620.002V333.236H656.002V338.136C656.002 343.403 655.136 348.269 653.402 352.736C651.736 357.136 649.336 360.969 646.202 364.236C643.069 367.503 639.369 370.036 635.102 371.836C630.902 373.636 626.269 374.536 621.202 374.536ZM664.269 373.436V303.436H681.469V373.436H664.269ZM712.33 373.436L685.43 303.436H704.03L722.53 355.536L741.33 303.436H759.23L731.93 373.436H712.33Z" fill="#EBECF2"/>
</g>
<g opacity="0.4">
<path d="M42.4992 466.343C37.2992 466.343 32.4659 465.443 27.9992 463.643C23.5992 461.776 19.6992 459.21 16.2992 455.943C12.9659 452.61 10.3659 448.776 8.49922 444.443C6.63255 440.043 5.69922 435.31 5.69922 430.243C5.69922 425.176 6.63255 420.476 8.49922 416.143C10.3659 411.743 12.9326 407.91 16.1992 404.643C19.5326 401.31 23.3992 398.743 27.7992 396.943C32.2659 395.076 37.0659 394.143 42.1992 394.143C48.0659 394.143 53.5992 395.343 58.7992 397.743C64.0659 400.076 68.3326 403.41 71.5992 407.743L59.4992 418.243C57.2992 415.31 54.7326 413.11 51.7992 411.643C48.8659 410.176 45.6659 409.443 42.1992 409.443C39.5326 409.443 37.0326 409.976 34.6992 411.043C32.4326 412.043 30.4659 413.51 28.7992 415.443C27.1326 417.31 25.8326 419.51 24.8992 422.043C23.9659 424.51 23.4992 427.243 23.4992 430.243C23.4992 433.243 23.9659 436.043 24.8992 438.643C25.8992 441.176 27.2659 443.376 28.9992 445.243C30.7326 447.11 32.7659 448.576 35.0992 449.643C37.4326 450.71 39.9992 451.243 42.7992 451.243C45.4659 451.243 47.8659 450.743 49.9992 449.743C52.1992 448.743 54.0659 447.376 55.5992 445.643C57.1326 443.843 58.1992 441.81 58.7992 439.543H41.2992V425.043H77.2992V429.943C77.2992 435.21 76.4326 440.076 74.6992 444.543C73.0326 448.943 70.6326 452.776 67.4992 456.043C64.3659 459.31 60.6659 461.843 56.3992 463.643C52.1992 465.443 47.5659 466.343 42.4992 466.343ZM85.5656 465.243V395.243H102.766V465.243H85.5656ZM133.627 465.243L106.727 395.243H125.327L143.827 447.343L162.627 395.243H180.527L153.227 465.243H133.627Z" fill="#EBECF2"/>
<path d="M235.398 466.343C230.198 466.343 225.364 465.443 220.898 463.643C216.498 461.776 212.598 459.21 209.198 455.943C205.864 452.61 203.264 448.776 201.398 444.443C199.531 440.043 198.598 435.31 198.598 430.243C198.598 425.176 199.531 420.476 201.398 416.143C203.264 411.743 205.831 407.91 209.098 404.643C212.431 401.31 216.298 398.743 220.698 396.943C225.164 395.076 229.964 394.143 235.098 394.143C240.964 394.143 246.498 395.343 251.698 397.743C256.964 400.076 261.231 403.41 264.498 407.743L252.398 418.243C250.198 415.31 247.631 413.11 244.698 411.643C241.764 410.176 238.564 409.443 235.098 409.443C232.431 409.443 229.931 409.976 227.598 411.043C225.331 412.043 223.364 413.51 221.698 415.443C220.031 417.31 218.731 419.51 217.798 422.043C216.864 424.51 216.398 427.243 216.398 430.243C216.398 433.243 216.864 436.043 217.798 438.643C218.798 441.176 220.164 443.376 221.898 445.243C223.631 447.11 225.664 448.576 227.998 449.643C230.331 450.71 232.898 451.243 235.698 451.243C238.364 451.243 240.764 450.743 242.898 449.743C245.098 448.743 246.964 447.376 248.498 445.643C250.031 443.843 251.098 441.81 251.698 439.543H234.198V425.043H270.198V429.943C270.198 435.21 269.331 440.076 267.598 444.543C265.931 448.943 263.531 452.776 260.398 456.043C257.264 459.31 253.564 461.843 249.298 463.643C245.098 465.443 240.464 466.343 235.398 466.343ZM278.464 465.243V395.243H295.664V465.243H278.464ZM326.526 465.243L299.626 395.243H318.226L336.726 447.343L355.526 395.243H373.426L346.126 465.243H326.526Z" fill="#EBECF2"/>
<path d="M428.3 466.343C423.1 466.343 418.267 465.443 413.8 463.643C409.4 461.776 405.5 459.21 402.1 455.943C398.767 452.61 396.167 448.776 394.3 444.443C392.433 440.043 391.5 435.31 391.5 430.243C391.5 425.176 392.433 420.476 394.3 416.143C396.167 411.743 398.733 407.91 402 404.643C405.333 401.31 409.2 398.743 413.6 396.943C418.067 395.076 422.867 394.143 428 394.143C433.867 394.143 439.4 395.343 444.6 397.743C449.867 400.076 454.133 403.41 457.4 407.743L445.3 418.243C443.1 415.31 440.533 413.11 437.6 411.643C434.667 410.176 431.467 409.443 428 409.443C425.333 409.443 422.833 409.976 420.5 411.043C418.233 412.043 416.267 413.51 414.6 415.443C412.933 417.31 411.633 419.51 410.7 422.043C409.767 424.51 409.3 427.243 409.3 430.243C409.3 433.243 409.767 436.043 410.7 438.643C411.7 441.176 413.067 443.376 414.8 445.243C416.533 447.11 418.567 448.576 420.9 449.643C423.233 450.71 425.8 451.243 428.6 451.243C431.267 451.243 433.667 450.743 435.8 449.743C438 448.743 439.867 447.376 441.4 445.643C442.933 443.843 444 441.81 444.6 439.543H427.1V425.043H463.1V429.943C463.1 435.21 462.233 440.076 460.5 444.543C458.833 448.943 456.433 452.776 453.3 456.043C450.167 459.31 446.467 461.843 442.2 463.643C438 465.443 433.367 466.343 428.3 466.343ZM471.366 465.243V395.243H488.566V465.243H471.366ZM519.428 465.243L492.528 395.243H511.128L529.628 447.343L548.428 395.243H566.328L539.028 465.243H519.428Z" fill="#EBECF2"/>
<path d="M621.202 466.343C616.002 466.343 611.169 465.443 606.702 463.643C602.302 461.776 598.402 459.21 595.002 455.943C591.669 452.61 589.069 448.776 587.202 444.443C585.336 440.043 584.402 435.31 584.402 430.243C584.402 425.176 585.336 420.476 587.202 416.143C589.069 411.743 591.636 407.91 594.902 404.643C598.236 401.31 602.102 398.743 606.502 396.943C610.969 395.076 615.769 394.143 620.902 394.143C626.769 394.143 632.302 395.343 637.502 397.743C642.769 400.076 647.036 403.41 650.302 407.743L638.202 418.243C636.002 415.31 633.436 413.11 630.502 411.643C627.569 410.176 624.369 409.443 620.902 409.443C618.236 409.443 615.736 409.976 613.402 411.043C611.136 412.043 609.169 413.51 607.502 415.443C605.836 417.31 604.536 419.51 603.602 422.043C602.669 424.51 602.202 427.243 602.202 430.243C602.202 433.243 602.669 436.043 603.602 438.643C604.602 441.176 605.969 443.376 607.702 445.243C609.436 447.11 611.469 448.576 613.802 449.643C616.136 450.71 618.702 451.243 621.502 451.243C624.169 451.243 626.569 450.743 628.702 449.743C630.902 448.743 632.769 447.376 634.302 445.643C635.836 443.843 636.902 441.81 637.502 439.543H620.002V425.043H656.002V429.943C656.002 435.21 655.136 440.076 653.402 444.543C651.736 448.943 649.336 452.776 646.202 456.043C643.069 459.31 639.369 461.843 635.102 463.643C630.902 465.443 626.269 466.343 621.202 466.343ZM664.269 465.243V395.243H681.469V465.243H664.269ZM712.33 465.243L685.43 395.243H704.03L722.53 447.343L741.33 395.243H759.23L731.93 465.243H712.33Z" fill="#EBECF2"/>
</g>
<g opacity="0.4">
<path d="M42.4992 556.343C37.2992 556.343 32.4659 555.443 27.9992 553.643C23.5992 551.776 19.6992 549.21 16.2992 545.943C12.9659 542.61 10.3659 538.776 8.49922 534.443C6.63255 530.043 5.69922 525.31 5.69922 520.243C5.69922 515.176 6.63255 510.476 8.49922 506.143C10.3659 501.743 12.9326 497.91 16.1992 494.643C19.5326 491.31 23.3992 488.743 27.7992 486.943C32.2659 485.076 37.0659 484.143 42.1992 484.143C48.0659 484.143 53.5992 485.343 58.7992 487.743C64.0659 490.076 68.3326 493.41 71.5992 497.743L59.4992 508.243C57.2992 505.31 54.7326 503.11 51.7992 501.643C48.8659 500.176 45.6659 499.443 42.1992 499.443C39.5326 499.443 37.0326 499.976 34.6992 501.043C32.4326 502.043 30.4659 503.51 28.7992 505.443C27.1326 507.31 25.8326 509.51 24.8992 512.043C23.9659 514.51 23.4992 517.243 23.4992 520.243C23.4992 523.243 23.9659 526.043 24.8992 528.643C25.8992 531.176 27.2659 533.376 28.9992 535.243C30.7326 537.11 32.7659 538.576 35.0992 539.643C37.4326 540.71 39.9992 541.243 42.7992 541.243C45.4659 541.243 47.8659 540.743 49.9992 539.743C52.1992 538.743 54.0659 537.376 55.5992 535.643C57.1326 533.843 58.1992 531.81 58.7992 529.543H41.2992V515.043H77.2992V519.943C77.2992 525.21 76.4326 530.076 74.6992 534.543C73.0326 538.943 70.6326 542.776 67.4992 546.043C64.3659 549.31 60.6659 551.843 56.3992 553.643C52.1992 555.443 47.5659 556.343 42.4992 556.343ZM85.5656 555.243V485.243H102.766V555.243H85.5656ZM133.627 555.243L106.727 485.243H125.327L143.827 537.343L162.627 485.243H180.527L153.227 555.243H133.627Z" fill="#EBECF2"/>
<path d="M235.398 556.343C230.198 556.343 225.364 555.443 220.898 553.643C216.498 551.776 212.598 549.21 209.198 545.943C205.864 542.61 203.264 538.776 201.398 534.443C199.531 530.043 198.598 525.31 198.598 520.243C198.598 515.176 199.531 510.476 201.398 506.143C203.264 501.743 205.831 497.91 209.098 494.643C212.431 491.31 216.298 488.743 220.698 486.943C225.164 485.076 229.964 484.143 235.098 484.143C240.964 484.143 246.498 485.343 251.698 487.743C256.964 490.076 261.231 493.41 264.498 497.743L252.398 508.243C250.198 505.31 247.631 503.11 244.698 501.643C241.764 500.176 238.564 499.443 235.098 499.443C232.431 499.443 229.931 499.976 227.598 501.043C225.331 502.043 223.364 503.51 221.698 505.443C220.031 507.31 218.731 509.51 217.798 512.043C216.864 514.51 216.398 517.243 216.398 520.243C216.398 523.243 216.864 526.043 217.798 528.643C218.798 531.176 220.164 533.376 221.898 535.243C223.631 537.11 225.664 538.576 227.998 539.643C230.331 540.71 232.898 541.243 235.698 541.243C238.364 541.243 240.764 540.743 242.898 539.743C245.098 538.743 246.964 537.376 248.498 535.643C250.031 533.843 251.098 531.81 251.698 529.543H234.198V515.043H270.198V519.943C270.198 525.21 269.331 530.076 267.598 534.543C265.931 538.943 263.531 542.776 260.398 546.043C257.264 549.31 253.564 551.843 249.298 553.643C245.098 555.443 240.464 556.343 235.398 556.343ZM278.464 555.243V485.243H295.664V555.243H278.464ZM326.526 555.243L299.626 485.243H318.226L336.726 537.343L355.526 485.243H373.426L346.126 555.243H326.526Z" fill="#EBECF2"/>
<path d="M428.3 556.343C423.1 556.343 418.267 555.443 413.8 553.643C409.4 551.776 405.5 549.21 402.1 545.943C398.767 542.61 396.167 538.776 394.3 534.443C392.433 530.043 391.5 525.31 391.5 520.243C391.5 515.176 392.433 510.476 394.3 506.143C396.167 501.743 398.733 497.91 402 494.643C405.333 491.31 409.2 488.743 413.6 486.943C418.067 485.076 422.867 484.143 428 484.143C433.867 484.143 439.4 485.343 444.6 487.743C449.867 490.076 454.133 493.41 457.4 497.743L445.3 508.243C443.1 505.31 440.533 503.11 437.6 501.643C434.667 500.176 431.467 499.443 428 499.443C425.333 499.443 422.833 499.976 420.5 501.043C418.233 502.043 416.267 503.51 414.6 505.443C412.933 507.31 411.633 509.51 410.7 512.043C409.767 514.51 409.3 517.243 409.3 520.243C409.3 523.243 409.767 526.043 410.7 528.643C411.7 531.176 413.067 533.376 414.8 535.243C416.533 537.11 418.567 538.576 420.9 539.643C423.233 540.71 425.8 541.243 428.6 541.243C431.267 541.243 433.667 540.743 435.8 539.743C438 538.743 439.867 537.376 441.4 535.643C442.933 533.843 444 531.81 444.6 529.543H427.1V515.043H463.1V519.943C463.1 525.21 462.233 530.076 460.5 534.543C458.833 538.943 456.433 542.776 453.3 546.043C450.167 549.31 446.467 551.843 442.2 553.643C438 555.443 433.367 556.343 428.3 556.343ZM471.366 555.243V485.243H488.566V555.243H471.366ZM519.428 555.243L492.528 485.243H511.128L529.628 537.343L548.428 485.243H566.328L539.028 555.243H519.428Z" fill="#EBECF2"/>
<path d="M621.202 556.343C616.002 556.343 611.169 555.443 606.702 553.643C602.302 551.776 598.402 549.21 595.002 545.943C591.669 542.61 589.069 538.776 587.202 534.443C585.336 530.043 584.402 525.31 584.402 520.243C584.402 515.176 585.336 510.476 587.202 506.143C589.069 501.743 591.636 497.91 594.902 494.643C598.236 491.31 602.102 488.743 606.502 486.943C610.969 485.076 615.769 484.143 620.902 484.143C626.769 484.143 632.302 485.343 637.502 487.743C642.769 490.076 647.036 493.41 650.302 497.743L638.202 508.243C636.002 505.31 633.436 503.11 630.502 501.643C627.569 500.176 624.369 499.443 620.902 499.443C618.236 499.443 615.736 499.976 613.402 501.043C611.136 502.043 609.169 503.51 607.502 505.443C605.836 507.31 604.536 509.51 603.602 512.043C602.669 514.51 602.202 517.243 602.202 520.243C602.202 523.243 602.669 526.043 603.602 528.643C604.602 531.176 605.969 533.376 607.702 535.243C609.436 537.11 611.469 538.576 613.802 539.643C616.136 540.71 618.702 541.243 621.502 541.243C624.169 541.243 626.569 540.743 628.702 539.743C630.902 538.743 632.769 537.376 634.302 535.643C635.836 533.843 636.902 531.81 637.502 529.543H620.002V515.043H656.002V519.943C656.002 525.21 655.136 530.076 653.402 534.543C651.736 538.943 649.336 542.776 646.202 546.043C643.069 549.31 639.369 551.843 635.102 553.643C630.902 555.443 626.269 556.343 621.202 556.343ZM664.269 555.243V485.243H681.469V555.243H664.269ZM712.33 555.243L685.43 485.243H704.03L722.53 537.343L741.33 485.243H759.23L731.93 555.243H712.33Z" fill="#EBECF2"/>
</g>
<g opacity="0.4">
<path d="M42.4992 642.1C37.2992 642.1 32.4659 641.2 27.9992 639.4C23.5992 637.533 19.6992 634.967 16.2992 631.7C12.9659 628.367 10.3659 624.533 8.49922 620.2C6.63255 615.8 5.69922 611.067 5.69922 606C5.69922 600.933 6.63255 596.233 8.49922 591.9C10.3659 587.5 12.9326 583.667 16.1992 580.4C19.5326 577.067 23.3992 574.5 27.7992 572.7C32.2659 570.833 37.0659 569.9 42.1992 569.9C48.0659 569.9 53.5992 571.1 58.7992 573.5C64.0659 575.833 68.3326 579.167 71.5992 583.5L59.4992 594C57.2992 591.067 54.7326 588.867 51.7992 587.4C48.8659 585.933 45.6659 585.2 42.1992 585.2C39.5326 585.2 37.0326 585.733 34.6992 586.8C32.4326 587.8 30.4659 589.267 28.7992 591.2C27.1326 593.067 25.8326 595.267 24.8992 597.8C23.9659 600.267 23.4992 603 23.4992 606C23.4992 609 23.9659 611.8 24.8992 614.4C25.8992 616.933 27.2659 619.133 28.9992 621C30.7326 622.867 32.7659 624.333 35.0992 625.4C37.4326 626.467 39.9992 627 42.7992 627C45.4659 627 47.8659 626.5 49.9992 625.5C52.1992 624.5 54.0659 623.133 55.5992 621.4C57.1326 619.6 58.1992 617.567 58.7992 615.3H41.2992V600.8H77.2992V605.7C77.2992 610.967 76.4326 615.833 74.6992 620.3C73.0326 624.7 70.6326 628.533 67.4992 631.8C64.3659 635.067 60.6659 637.6 56.3992 639.4C52.1992 641.2 47.5659 642.1 42.4992 642.1ZM85.5656 641V571H102.766V641H85.5656ZM133.627 641L106.727 571H125.327L143.827 623.1L162.627 571H180.527L153.227 641H133.627Z" fill="#EBECF2"/>
<path d="M235.398 642.1C230.198 642.1 225.364 641.2 220.898 639.4C216.498 637.533 212.598 634.967 209.198 631.7C205.864 628.367 203.264 624.533 201.398 620.2C199.531 615.8 198.598 611.067 198.598 606C198.598 600.933 199.531 596.233 201.398 591.9C203.264 587.5 205.831 583.667 209.098 580.4C212.431 577.067 216.298 574.5 220.698 572.7C225.164 570.833 229.964 569.9 235.098 569.9C240.964 569.9 246.498 571.1 251.698 573.5C256.964 575.833 261.231 579.167 264.498 583.5L252.398 594C250.198 591.067 247.631 588.867 244.698 587.4C241.764 585.933 238.564 585.2 235.098 585.2C232.431 585.2 229.931 585.733 227.598 586.8C225.331 587.8 223.364 589.267 221.698 591.2C220.031 593.067 218.731 595.267 217.798 597.8C216.864 600.267 216.398 603 216.398 606C216.398 609 216.864 611.8 217.798 614.4C218.798 616.933 220.164 619.133 221.898 621C223.631 622.867 225.664 624.333 227.998 625.4C230.331 626.467 232.898 627 235.698 627C238.364 627 240.764 626.5 242.898 625.5C245.098 624.5 246.964 623.133 248.498 621.4C250.031 619.6 251.098 617.567 251.698 615.3H234.198V600.8H270.198V605.7C270.198 610.967 269.331 615.833 267.598 620.3C265.931 624.7 263.531 628.533 260.398 631.8C257.264 635.067 253.564 637.6 249.298 639.4C245.098 641.2 240.464 642.1 235.398 642.1ZM278.464 641V571H295.664V641H278.464ZM326.526 641L299.626 571H318.226L336.726 623.1L355.526 571H373.426L346.126 641H326.526Z" fill="#EBECF2"/>
<path d="M428.3 642.1C423.1 642.1 418.267 641.2 413.8 639.4C409.4 637.533 405.5 634.967 402.1 631.7C398.767 628.367 396.167 624.533 394.3 620.2C392.433 615.8 391.5 611.067 391.5 606C391.5 600.933 392.433 596.233 394.3 591.9C396.167 587.5 398.733 583.667 402 580.4C405.333 577.067 409.2 574.5 413.6 572.7C418.067 570.833 422.867 569.9 428 569.9C433.867 569.9 439.4 571.1 444.6 573.5C449.867 575.833 454.133 579.167 457.4 583.5L445.3 594C443.1 591.067 440.533 588.867 437.6 587.4C434.667 585.933 431.467 585.2 428 585.2C425.333 585.2 422.833 585.733 420.5 586.8C418.233 587.8 416.267 589.267 414.6 591.2C412.933 593.067 411.633 595.267 410.7 597.8C409.767 600.267 409.3 603 409.3 606C409.3 609 409.767 611.8 410.7 614.4C411.7 616.933 413.067 619.133 414.8 621C416.533 622.867 418.567 624.333 420.9 625.4C423.233 626.467 425.8 627 428.6 627C431.267 627 433.667 626.5 435.8 625.5C438 624.5 439.867 623.133 441.4 621.4C442.933 619.6 444 617.567 444.6 615.3H427.1V600.8H463.1V605.7C463.1 610.967 462.233 615.833 460.5 620.3C458.833 624.7 456.433 628.533 453.3 631.8C450.167 635.067 446.467 637.6 442.2 639.4C438 641.2 433.367 642.1 428.3 642.1ZM471.366 641V571H488.566V641H471.366ZM519.428 641L492.528 571H511.128L529.628 623.1L548.428 571H566.328L539.028 641H519.428Z" fill="#EBECF2"/>
<path d="M621.202 642.1C616.002 642.1 611.169 641.2 606.702 639.4C602.302 637.533 598.402 634.967 595.002 631.7C591.669 628.367 589.069 624.533 587.202 620.2C585.336 615.8 584.402 611.067 584.402 606C584.402 600.933 585.336 596.233 587.202 591.9C589.069 587.5 591.636 583.667 594.902 580.4C598.236 577.067 602.102 574.5 606.502 572.7C610.969 570.833 615.769 569.9 620.902 569.9C626.769 569.9 632.302 571.1 637.502 573.5C642.769 575.833 647.036 579.167 650.302 583.5L638.202 594C636.002 591.067 633.436 588.867 630.502 587.4C627.569 585.933 624.369 585.2 620.902 585.2C618.236 585.2 615.736 585.733 613.402 586.8C611.136 587.8 609.169 589.267 607.502 591.2C605.836 593.067 604.536 595.267 603.602 597.8C602.669 600.267 602.202 603 602.202 606C602.202 609 602.669 611.8 603.602 614.4C604.602 616.933 605.969 619.133 607.702 621C609.436 622.867 611.469 624.333 613.802 625.4C616.136 626.467 618.702 627 621.502 627C624.169 627 626.569 626.5 628.702 625.5C630.902 624.5 632.769 623.133 634.302 621.4C635.836 619.6 636.902 617.567 637.502 615.3H620.002V600.8H656.002V605.7C656.002 610.967 655.136 615.833 653.402 620.3C651.736 624.7 649.336 628.533 646.202 631.8C643.069 635.067 639.369 637.6 635.102 639.4C630.902 641.2 626.269 642.1 621.202 642.1ZM664.269 641V571H681.469V641H664.269ZM712.33 641L685.43 571H704.03L722.53 623.1L741.33 571H759.23L731.93 641H712.33Z" fill="#EBECF2"/>
</g>
</g>
</svg>
