<svg width="2132" height="726" viewBox="0 0 2132 726" fill="none" xmlns="http://www.w3.org/2000/svg">
<g opacity="0.6">
<mask id="mask0_341_42148" style="mask-type:alpha" maskUnits="userSpaceOnUse" x="0" y="-2" width="2132" height="728">
<rect y="-2" width="2132" height="728" fill="url(#paint0_linear_341_42148)"/>
</mask>
<g mask="url(#mask0_341_42148)">
<path d="M214.792 362.102C214.792 377.598 212.209 392.003 207.043 405.314C201.878 418.626 194.725 430.149 185.586 439.884C176.447 449.421 165.42 456.97 152.506 462.533C139.791 467.898 125.983 470.58 111.082 470.58C95.7834 470.58 81.3792 467.798 67.8691 462.235C54.5576 456.672 42.9349 449.123 33.001 439.586C23.2658 429.851 15.5173 418.427 9.75563 405.314C4.19263 392.201 1.41113 378.095 1.41113 362.996C1.41113 347.896 4.19263 333.79 9.75563 320.677C15.5173 307.564 23.2658 296.24 33.001 286.703C42.7362 276.968 54.2596 269.319 67.571 263.756C80.8825 258.193 95.088 255.411 110.188 255.411C127.473 255.411 143.963 258.987 159.658 266.14C175.354 273.094 188.07 283.028 197.805 295.942L161.745 327.233C155.188 318.492 147.44 311.935 138.499 307.564C129.757 303.193 120.32 301.008 110.188 301.008C102.24 301.008 94.79 302.597 87.8362 305.776C81.0812 308.955 75.2202 313.326 70.2532 318.889C65.2862 324.253 61.412 330.81 58.6305 338.558C55.849 346.108 54.4583 354.254 54.4583 362.996C54.4583 371.936 55.849 380.281 58.6305 388.029C61.6107 395.579 65.6836 402.135 70.8492 407.698C76.0149 413.261 82.0746 417.632 89.0283 420.811C96.1807 423.99 103.83 425.579 111.976 425.579C123.698 425.579 133.83 422.301 142.373 415.745C151.115 409.188 156.877 400.844 159.658 390.711H107.505V347.499H214.792V362.102Z" fill="#5326EC" fill-opacity="0.2"/>
<path d="M239.427 467.302V258.689H290.686V467.302H239.427Z" fill="#5326EC" fill-opacity="0.2"/>
<path d="M382.659 467.302L302.493 258.689H357.924L413.057 413.957L469.085 258.689H522.43L441.071 467.302H382.659Z" fill="#5326EC" fill-opacity="0.2"/>
<path d="M751.223 362.102C751.223 377.598 748.641 392.003 743.475 405.314C738.309 418.626 731.157 430.149 722.018 439.884C712.878 449.421 701.852 456.97 688.938 462.533C676.222 467.898 662.414 470.58 647.513 470.58C632.215 470.58 617.811 467.798 604.301 462.235C590.989 456.672 579.367 449.123 569.433 439.586C559.697 429.851 551.949 418.427 546.187 405.314C540.624 392.201 537.843 378.095 537.843 362.996C537.843 347.896 540.624 333.79 546.187 320.677C551.949 307.564 559.697 296.24 569.433 286.703C579.168 276.968 590.691 269.319 604.003 263.756C617.314 258.193 631.52 255.411 646.619 255.411C663.904 255.411 680.395 258.987 696.09 266.14C711.786 273.094 724.501 283.028 734.236 295.942L698.176 327.233C691.62 318.492 683.871 311.935 674.931 307.564C666.189 303.193 656.752 301.008 646.619 301.008C638.672 301.008 631.222 302.597 624.268 305.776C617.513 308.955 611.652 313.326 606.685 318.889C601.718 324.253 597.844 330.81 595.062 338.558C592.281 346.108 590.89 354.254 590.89 362.996C590.89 371.936 592.281 380.281 595.062 388.029C598.042 395.579 602.115 402.135 607.281 407.698C612.447 413.261 618.506 417.632 625.46 420.811C632.612 423.99 640.262 425.579 648.407 425.579C660.129 425.579 670.262 422.301 678.805 415.745C687.547 409.188 693.309 400.844 696.09 390.711H643.937V347.499H751.223V362.102Z" fill="#5326EC" fill-opacity="0.2"/>
<path d="M775.859 467.302V258.689H827.118V467.302H775.859Z" fill="#5326EC" fill-opacity="0.2"/>
<path d="M919.091 467.302L838.924 258.689H894.356L949.489 413.957L1005.52 258.689H1058.86L977.503 467.302H919.091Z" fill="#5326EC" fill-opacity="0.2"/>
<path d="M1287.66 362.102C1287.66 377.598 1285.07 392.003 1279.91 405.314C1274.74 418.626 1267.59 430.149 1258.45 439.884C1249.31 449.421 1238.28 456.97 1225.37 462.533C1212.65 467.898 1198.85 470.58 1183.95 470.58C1168.65 470.58 1154.24 467.798 1140.73 462.235C1127.42 456.672 1115.8 449.123 1105.86 439.586C1096.13 429.851 1088.38 418.427 1082.62 405.314C1077.06 392.201 1074.27 378.095 1074.27 362.996C1074.27 347.896 1077.06 333.79 1082.62 320.677C1088.38 307.564 1096.13 296.24 1105.86 286.703C1115.6 276.968 1127.12 269.319 1140.43 263.756C1153.75 258.193 1167.95 255.411 1183.05 255.411C1200.34 255.411 1216.83 258.987 1232.52 266.14C1248.22 273.094 1260.93 283.028 1270.67 295.942L1234.61 327.233C1228.05 318.492 1220.3 311.935 1211.36 307.564C1202.62 303.193 1193.18 301.008 1183.05 301.008C1175.1 301.008 1167.65 302.597 1160.7 305.776C1153.94 308.955 1148.08 313.326 1143.12 318.889C1138.15 324.253 1134.28 330.81 1131.49 338.558C1128.71 346.108 1127.32 354.254 1127.32 362.996C1127.32 371.936 1128.71 380.281 1131.49 388.029C1134.47 395.579 1138.55 402.135 1143.71 407.698C1148.88 413.261 1154.94 417.632 1161.89 420.811C1169.04 423.99 1176.69 425.579 1184.84 425.579C1196.56 425.579 1206.69 422.301 1215.24 415.745C1223.98 409.188 1229.74 400.844 1232.52 390.711H1180.37V347.499H1287.66V362.102Z" fill="#5326EC" fill-opacity="0.2"/>
<path d="M1312.29 467.302V258.689H1363.55V467.302H1312.29Z" fill="#5326EC" fill-opacity="0.2"/>
<path d="M1455.52 467.302L1375.36 258.689H1430.79L1485.92 413.957L1541.95 258.689H1595.29L1513.93 467.302H1455.52Z" fill="#5326EC" fill-opacity="0.2"/>
<path d="M1824.09 362.102C1824.09 377.598 1821.5 392.003 1816.34 405.314C1811.17 418.626 1804.02 430.149 1794.88 439.884C1785.74 449.421 1774.72 456.97 1761.8 462.533C1749.09 467.898 1735.28 470.58 1720.38 470.58C1705.08 470.58 1690.67 467.798 1677.16 462.235C1663.85 456.672 1652.23 449.123 1642.3 439.586C1632.56 429.851 1624.81 418.427 1619.05 405.314C1613.49 392.201 1610.71 378.095 1610.71 362.996C1610.71 347.896 1613.49 333.79 1619.05 320.677C1624.81 307.564 1632.56 296.24 1642.3 286.703C1652.03 276.968 1663.55 269.319 1676.87 263.756C1690.18 258.193 1704.38 255.411 1719.48 255.411C1736.77 255.411 1753.26 258.987 1768.95 266.14C1784.65 273.094 1797.36 283.028 1807.1 295.942L1771.04 327.233C1764.48 318.492 1756.73 311.935 1747.79 307.564C1739.05 303.193 1729.62 301.008 1719.48 301.008C1711.54 301.008 1704.09 302.597 1697.13 305.776C1690.38 308.955 1684.52 313.326 1679.55 318.889C1674.58 324.253 1670.71 330.81 1667.93 338.558C1665.14 346.108 1663.75 354.254 1663.75 362.996C1663.75 371.936 1665.14 380.281 1667.93 388.029C1670.91 395.579 1674.98 402.135 1680.14 407.698C1685.31 413.261 1691.37 417.632 1698.32 420.811C1705.48 423.99 1713.13 425.579 1721.27 425.579C1732.99 425.579 1743.13 422.301 1751.67 415.745C1760.41 409.188 1766.17 400.844 1768.95 390.711H1716.8V347.499H1824.09V362.102Z" fill="#5326EC" fill-opacity="0.2"/>
<path d="M1848.72 467.302V258.689H1899.98V467.302H1848.72Z" fill="#5326EC" fill-opacity="0.2"/>
<path d="M1991.95 467.302L1911.79 258.689H1967.22L2022.35 413.957L2078.38 258.689H2131.72L2050.37 467.302H1991.95Z" fill="#5326EC" fill-opacity="0.2"/>
<path d="M214.792 106.8C214.792 122.297 212.209 136.701 207.043 150.012C201.878 163.324 194.725 174.847 185.586 184.582C176.447 194.119 165.42 201.669 152.506 207.232C139.791 212.596 125.983 215.278 111.082 215.278C95.7834 215.278 81.3792 212.497 67.8691 206.934C54.5576 201.371 42.9349 193.821 33.001 184.284C23.2658 174.549 15.5173 163.125 9.75563 150.012C4.19263 136.9 1.41113 122.793 1.41113 107.694C1.41113 92.5943 4.19263 78.4881 9.75563 65.3753C15.5173 52.2626 23.2658 40.9379 33.001 31.4013C42.7362 21.6661 54.2596 14.017 67.571 8.45396C80.8825 2.89096 95.088 0.109467 110.188 0.109467C127.473 0.109467 143.963 3.68568 159.658 10.8381C175.354 17.7918 188.07 27.7258 197.805 40.6399L161.745 71.9317C155.188 63.1899 147.44 56.6335 138.499 52.2626C129.757 47.8916 120.32 45.7062 110.188 45.7062C102.24 45.7062 94.79 47.2956 87.8362 50.4744C81.0812 53.6533 75.2202 58.0242 70.2532 63.5872C65.2862 68.9515 61.412 75.5079 58.6305 83.2564C55.849 90.8062 54.4583 98.952 54.4583 107.694C54.4583 116.634 55.849 124.979 58.6305 132.727C61.6107 140.277 65.6836 146.833 70.8492 152.396C76.0149 157.959 82.0746 162.33 89.0283 165.509C96.1807 168.688 103.83 170.278 111.976 170.278C123.698 170.278 133.83 166.999 142.373 160.443C151.115 153.887 156.877 145.542 159.658 135.409H107.505V92.1969H214.792V106.8Z" fill="#5326EC" fill-opacity="0.1"/>
<path d="M239.427 212V3.38765H290.686V212H239.427Z" fill="#5326EC" fill-opacity="0.1"/>
<path d="M382.659 212L302.493 3.38765H357.924L413.057 158.655L469.085 3.38765H522.43L441.071 212H382.659Z" fill="#5326EC" fill-opacity="0.1"/>
<path d="M751.223 106.8C751.223 122.297 748.641 136.701 743.475 150.012C738.309 163.324 731.157 174.847 722.018 184.582C712.878 194.119 701.852 201.669 688.938 207.232C676.222 212.596 662.414 215.278 647.513 215.278C632.215 215.278 617.811 212.497 604.301 206.934C590.989 201.371 579.367 193.821 569.433 184.284C559.697 174.549 551.949 163.125 546.187 150.012C540.624 136.9 537.843 122.793 537.843 107.694C537.843 92.5943 540.624 78.4881 546.187 65.3753C551.949 52.2626 559.697 40.9379 569.433 31.4013C579.168 21.6661 590.691 14.017 604.003 8.45396C617.314 2.89096 631.52 0.109467 646.619 0.109467C663.904 0.109467 680.395 3.68568 696.09 10.8381C711.786 17.7918 724.501 27.7258 734.236 40.6399L698.176 71.9317C691.62 63.1899 683.871 56.6335 674.931 52.2626C666.189 47.8916 656.752 45.7062 646.619 45.7062C638.672 45.7062 631.222 47.2956 624.268 50.4744C617.513 53.6533 611.652 58.0242 606.685 63.5872C601.718 68.9515 597.844 75.5079 595.062 83.2564C592.281 90.8062 590.89 98.952 590.89 107.694C590.89 116.634 592.281 124.979 595.062 132.727C598.042 140.277 602.115 146.833 607.281 152.396C612.447 157.959 618.506 162.33 625.46 165.509C632.612 168.688 640.262 170.278 648.407 170.278C660.129 170.278 670.262 166.999 678.805 160.443C687.547 153.887 693.309 145.542 696.09 135.409H643.937V92.1969H751.223V106.8Z" fill="#5326EC" fill-opacity="0.1"/>
<path d="M775.859 212V3.38765H827.118V212H775.859Z" fill="#5326EC" fill-opacity="0.1"/>
<path d="M919.091 212L838.924 3.38765H894.356L949.489 158.655L1005.52 3.38765H1058.86L977.503 212H919.091Z" fill="#5326EC" fill-opacity="0.1"/>
<path d="M1287.66 106.8C1287.66 122.297 1285.07 136.701 1279.91 150.012C1274.74 163.324 1267.59 174.847 1258.45 184.582C1249.31 194.119 1238.28 201.669 1225.37 207.232C1212.65 212.596 1198.85 215.278 1183.95 215.278C1168.65 215.278 1154.24 212.497 1140.73 206.934C1127.42 201.371 1115.8 193.821 1105.86 184.284C1096.13 174.549 1088.38 163.125 1082.62 150.012C1077.06 136.9 1074.27 122.793 1074.27 107.694C1074.27 92.5943 1077.06 78.4881 1082.62 65.3753C1088.38 52.2626 1096.13 40.9379 1105.86 31.4013C1115.6 21.6661 1127.12 14.017 1140.43 8.45396C1153.75 2.89096 1167.95 0.109467 1183.05 0.109467C1200.34 0.109467 1216.83 3.68568 1232.52 10.8381C1248.22 17.7918 1260.93 27.7258 1270.67 40.6399L1234.61 71.9317C1228.05 63.1899 1220.3 56.6335 1211.36 52.2626C1202.62 47.8916 1193.18 45.7062 1183.05 45.7062C1175.1 45.7062 1167.65 47.2956 1160.7 50.4744C1153.94 53.6533 1148.08 58.0242 1143.12 63.5872C1138.15 68.9515 1134.28 75.5079 1131.49 83.2564C1128.71 90.8062 1127.32 98.952 1127.32 107.694C1127.32 116.634 1128.71 124.979 1131.49 132.727C1134.47 140.277 1138.55 146.833 1143.71 152.396C1148.88 157.959 1154.94 162.33 1161.89 165.509C1169.04 168.688 1176.69 170.278 1184.84 170.278C1196.56 170.278 1206.69 166.999 1215.24 160.443C1223.98 153.887 1229.74 145.542 1232.52 135.409H1180.37V92.1969H1287.66V106.8Z" fill="#5326EC" fill-opacity="0.1"/>
<path d="M1312.29 212V3.38765H1363.55V212H1312.29Z" fill="#5326EC" fill-opacity="0.1"/>
<path d="M1455.52 212L1375.36 3.38765H1430.79L1485.92 158.655L1541.95 3.38765H1595.29L1513.93 212H1455.52Z" fill="#5326EC" fill-opacity="0.1"/>
<path d="M1824.09 106.8C1824.09 122.297 1821.5 136.701 1816.34 150.012C1811.17 163.324 1804.02 174.847 1794.88 184.582C1785.74 194.119 1774.72 201.669 1761.8 207.232C1749.09 212.596 1735.28 215.278 1720.38 215.278C1705.08 215.278 1690.67 212.497 1677.16 206.934C1663.85 201.371 1652.23 193.821 1642.3 184.284C1632.56 174.549 1624.81 163.125 1619.05 150.012C1613.49 136.9 1610.71 122.793 1610.71 107.694C1610.71 92.5943 1613.49 78.4881 1619.05 65.3753C1624.81 52.2626 1632.56 40.9379 1642.3 31.4013C1652.03 21.6661 1663.55 14.017 1676.87 8.45396C1690.18 2.89096 1704.38 0.109467 1719.48 0.109467C1736.77 0.109467 1753.26 3.68568 1768.95 10.8381C1784.65 17.7918 1797.36 27.7258 1807.1 40.6399L1771.04 71.9317C1764.48 63.1899 1756.73 56.6335 1747.79 52.2626C1739.05 47.8916 1729.62 45.7062 1719.48 45.7062C1711.54 45.7062 1704.09 47.2956 1697.13 50.4744C1690.38 53.6533 1684.52 58.0242 1679.55 63.5872C1674.58 68.9515 1670.71 75.5079 1667.93 83.2564C1665.14 90.8062 1663.75 98.952 1663.75 107.694C1663.75 116.634 1665.14 124.979 1667.93 132.727C1670.91 140.277 1674.98 146.833 1680.14 152.396C1685.31 157.959 1691.37 162.33 1698.32 165.509C1705.48 168.688 1713.13 170.278 1721.27 170.278C1732.99 170.278 1743.13 166.999 1751.67 160.443C1760.41 153.887 1766.17 145.542 1768.95 135.409H1716.8V92.1969H1824.09V106.8Z" fill="#5326EC" fill-opacity="0.1"/>
<path d="M1848.72 212V3.38765H1899.98V212H1848.72Z" fill="#5326EC" fill-opacity="0.1"/>
<path d="M1991.95 212L1911.79 3.38765H1967.22L2022.35 158.655L2078.38 3.38765H2131.72L2050.37 212H1991.95Z" fill="#5326EC" fill-opacity="0.1"/>
<path d="M214.792 617.403C214.792 632.9 212.209 647.304 207.043 660.616C201.878 673.927 194.725 685.451 185.586 695.186C176.447 704.722 165.42 712.272 152.506 717.835C139.791 723.2 125.983 725.882 111.082 725.882C95.7834 725.882 81.3792 723.1 67.8691 717.537C54.5576 711.974 42.9349 704.424 33.001 694.888C23.2658 685.153 15.5173 673.729 9.75563 660.616C4.19263 647.503 1.41113 633.397 1.41113 618.297C1.41113 603.198 4.19263 589.092 9.75563 575.979C15.5173 562.866 23.2658 551.541 33.001 542.005C42.7362 532.27 54.2596 524.62 67.571 519.057C80.8825 513.494 95.088 510.713 110.188 510.713C127.473 510.713 143.963 514.289 159.658 521.442C175.354 528.395 188.07 538.329 197.805 551.243L161.745 582.535C155.188 573.793 147.44 567.237 138.499 562.866C129.757 558.495 120.32 556.31 110.188 556.31C102.24 556.31 94.79 557.899 87.8362 561.078C81.0812 564.257 75.2202 568.628 70.2532 574.191C65.2862 579.555 61.412 586.111 58.6305 593.86C55.849 601.41 54.4583 609.555 54.4583 618.297C54.4583 627.238 55.849 635.582 58.6305 643.331C61.6107 650.881 65.6836 657.437 70.8492 663C76.0149 668.563 82.0746 672.934 89.0283 676.113C96.1807 679.292 103.83 680.881 111.976 680.881C123.698 680.881 133.83 677.603 142.373 671.046C151.115 664.49 156.877 656.146 159.658 646.013H107.505V602.8H214.792V617.403Z" fill="#5326EC" fill-opacity="0.4"/>
<path d="M239.427 722.603V513.991H290.686V722.603H239.427Z" fill="#5326EC" fill-opacity="0.4"/>
<path d="M382.659 722.603L302.493 513.991H357.924L413.057 669.258L469.085 513.991H522.43L441.071 722.603H382.659Z" fill="#5326EC" fill-opacity="0.4"/>
<path d="M1824.09 617.403C1824.09 632.9 1821.5 647.304 1816.34 660.616C1811.17 673.927 1804.02 685.451 1794.88 695.186C1785.74 704.722 1774.72 712.272 1761.8 717.835C1749.09 723.2 1735.28 725.882 1720.38 725.882C1705.08 725.882 1690.67 723.1 1677.16 717.537C1663.85 711.974 1652.23 704.424 1642.3 694.888C1632.56 685.153 1624.81 673.729 1619.05 660.616C1613.49 647.503 1610.71 633.397 1610.71 618.297C1610.71 603.198 1613.49 589.092 1619.05 575.979C1624.81 562.866 1632.56 551.541 1642.3 542.005C1652.03 532.27 1663.55 524.62 1676.87 519.057C1690.18 513.494 1704.38 510.713 1719.48 510.713C1736.77 510.713 1753.26 514.289 1768.95 521.442C1784.65 528.395 1797.36 538.329 1807.1 551.243L1771.04 582.535C1764.48 573.793 1756.73 567.237 1747.79 562.866C1739.05 558.495 1729.62 556.31 1719.48 556.31C1711.54 556.31 1704.09 557.899 1697.13 561.078C1690.38 564.257 1684.52 568.628 1679.55 574.191C1674.58 579.555 1670.71 586.111 1667.93 593.86C1665.14 601.41 1663.75 609.555 1663.75 618.297C1663.75 627.238 1665.14 635.582 1667.93 643.331C1670.91 650.881 1674.98 657.437 1680.14 663C1685.31 668.563 1691.37 672.934 1698.32 676.113C1705.48 679.292 1713.13 680.881 1721.27 680.881C1732.99 680.881 1743.13 677.603 1751.67 671.046C1760.41 664.49 1766.17 656.146 1768.95 646.013H1716.8V602.8H1824.09V617.403Z" fill="#5326EC" fill-opacity="0.4"/>
<path d="M1848.72 722.603V513.991H1899.98V722.603H1848.72Z" fill="#5326EC" fill-opacity="0.4"/>
<path d="M1991.95 722.603L1911.79 513.991H1967.22L2022.35 669.258L2078.38 513.991H2131.72L2050.37 722.603H1991.95Z" fill="#5326EC" fill-opacity="0.4"/>
<path d="M1288.65 617.403C1288.65 632.9 1286.07 647.304 1280.9 660.616C1275.73 673.927 1268.58 685.451 1259.44 695.186C1250.3 704.722 1239.28 712.272 1226.36 717.835C1213.65 723.2 1199.84 725.882 1184.94 725.882C1169.64 725.882 1155.24 723.1 1141.73 717.537C1128.41 711.974 1116.79 704.424 1106.86 694.888C1097.12 685.153 1089.37 673.729 1083.61 660.616C1078.05 647.503 1075.27 633.397 1075.27 618.297C1075.27 603.198 1078.05 589.092 1083.61 575.979C1089.37 562.866 1097.12 551.541 1106.86 542.005C1116.59 532.27 1128.12 524.62 1141.43 519.057C1154.74 513.494 1168.94 510.713 1184.04 510.713C1201.33 510.713 1217.82 514.289 1233.52 521.442C1249.21 528.395 1261.93 538.329 1271.66 551.243L1235.6 582.535C1229.05 573.793 1221.3 567.237 1212.36 562.866C1203.61 558.495 1194.18 556.31 1184.04 556.31C1176.1 556.31 1168.65 557.899 1161.69 561.078C1154.94 564.257 1149.08 568.628 1144.11 574.191C1139.14 579.555 1135.27 586.111 1132.49 593.86C1129.71 601.41 1128.32 609.555 1128.32 618.297C1128.32 627.238 1129.71 635.582 1132.49 643.331C1135.47 650.881 1139.54 657.437 1144.71 663C1149.87 668.563 1155.93 672.934 1162.89 676.113C1170.04 679.292 1177.69 680.881 1185.83 680.881C1197.55 680.881 1207.69 677.603 1216.23 671.046C1224.97 664.49 1230.73 656.146 1233.52 646.013H1181.36V602.8H1288.65V617.403Z" fill="#5326EC" fill-opacity="0.4"/>
<path d="M1313.28 722.603V513.991H1364.54V722.603H1313.28Z" fill="#5326EC" fill-opacity="0.4"/>
<path d="M1456.52 722.603L1376.35 513.991H1431.78L1486.91 669.258L1542.94 513.991H1596.29L1514.93 722.603H1456.52Z" fill="#5326EC" fill-opacity="0.4"/>
<path d="M745.792 617.403C745.792 632.9 743.209 647.304 738.043 660.616C732.878 673.927 725.725 685.451 716.586 695.186C707.447 704.722 696.42 712.272 683.506 717.835C670.791 723.2 656.982 725.882 642.082 725.882C626.783 725.882 612.379 723.1 598.869 717.537C585.558 711.974 573.935 704.424 564.001 694.888C554.266 685.153 546.517 673.729 540.756 660.616C535.193 647.503 532.411 633.397 532.411 618.297C532.411 603.198 535.193 589.092 540.756 575.979C546.517 562.866 554.266 551.541 564.001 542.005C573.736 532.27 585.26 524.62 598.571 519.057C611.883 513.494 626.088 510.713 641.188 510.713C658.473 510.713 674.963 514.289 690.659 521.442C706.354 528.395 719.07 538.329 728.805 551.243L692.745 582.535C686.188 573.793 678.44 567.237 669.499 562.866C660.757 558.495 651.32 556.31 641.188 556.31C633.24 556.31 625.79 557.899 618.836 561.078C612.081 564.257 606.22 568.628 601.253 574.191C596.286 579.555 592.412 586.111 589.63 593.86C586.849 601.41 585.458 609.555 585.458 618.297C585.458 627.238 586.849 635.582 589.63 643.331C592.611 650.881 596.684 657.437 601.849 663C607.015 668.563 613.075 672.934 620.028 676.113C627.181 679.292 634.83 680.881 642.976 680.881C654.698 680.881 664.83 677.603 673.373 671.046C682.115 664.49 687.877 656.146 690.659 646.013H638.505V602.8H745.792V617.403Z" fill="#5326EC" fill-opacity="0.4"/>
<path d="M770.427 722.603V513.991H821.686V722.603H770.427Z" fill="#5326EC" fill-opacity="0.4"/>
<path d="M913.659 722.603L833.493 513.991H888.924L944.057 669.258L1000.08 513.991H1053.43L972.071 722.603H913.659Z" fill="#5326EC" fill-opacity="0.4"/>
<path d="M1289.79 615.8C1289.79 631.297 1287.21 645.701 1282.04 659.012C1276.88 672.324 1269.72 683.847 1260.59 693.582C1251.45 703.119 1240.42 710.669 1227.51 716.232C1214.79 721.596 1200.98 724.278 1186.08 724.278C1170.78 724.278 1156.38 721.497 1142.87 715.934C1129.56 710.371 1117.93 702.821 1108 693.284C1098.27 683.549 1090.52 672.125 1084.76 659.012C1079.19 645.9 1076.41 631.793 1076.41 616.694C1076.41 601.594 1079.19 587.488 1084.76 574.375C1090.52 561.263 1098.27 549.938 1108 540.401C1117.74 530.666 1129.26 523.017 1142.57 517.454C1155.88 511.891 1170.09 509.109 1185.19 509.109C1202.47 509.109 1218.96 512.686 1234.66 519.838C1250.35 526.792 1263.07 536.726 1272.8 549.64L1236.74 580.932C1230.19 572.19 1222.44 565.634 1213.5 561.263C1204.76 556.892 1195.32 554.706 1185.19 554.706C1177.24 554.706 1169.79 556.296 1162.84 559.474C1156.08 562.653 1150.22 567.024 1145.25 572.587C1140.29 577.952 1136.41 584.508 1133.63 592.256C1130.85 599.806 1129.46 607.952 1129.46 616.694C1129.46 625.634 1130.85 633.979 1133.63 641.727C1136.61 649.277 1140.68 655.833 1145.85 661.396C1151.01 666.959 1157.07 671.33 1164.03 674.509C1171.18 677.688 1178.83 679.278 1186.98 679.278C1198.7 679.278 1208.83 675.999 1217.37 669.443C1226.11 662.887 1231.88 654.542 1234.66 644.41H1182.5V601.197H1289.79V615.8Z" fill="#5326EC"/>
<path d="M1314.43 721V512.388H1365.69V721H1314.43Z" fill="#5326EC"/>
<path d="M1457.66 721L1377.49 512.388H1432.92L1488.06 667.655L1544.08 512.388H1597.43L1516.07 721H1457.66Z" fill="#5326EC"/>
</g>
</g>
<defs>
<linearGradient id="paint0_linear_341_42148" x1="778.772" y1="33.4975" x2="872.704" y2="666.853" gradientUnits="userSpaceOnUse">
<stop stop-color="#090446"/>
<stop offset="1" stop-color="#0A1444"/>
</linearGradient>
</defs>
</svg>
