<svg width="999" height="678" viewBox="0 0 999 678" fill="none" xmlns="http://www.w3.org/2000/svg">
    <g opacity="0.3">
        <path
            d="M982 1.23662H17C8.16344 1.23662 1 8.40004 1 17.2366V660.754C1 669.59 8.16343 676.754 17 676.754H982C990.837 676.754 998 669.59 998 660.754V17.2366C998 8.40007 990.837 1.23662 982 1.23662Z"
            fill="#FFF2D0" />
        <path
            d="M348.013 234.685L10.0813 2.09836M995.883 670.148L598.963 408.7M991.883 4.64496L648.953 241.476M6.08228 673.543L348.013 441.806M130.057 676.939L390.005 438.41M216.04 676.939L414 441.806M285.026 676.939L434.996 443.503M369.009 676.939L454.992 443.503M435.996 676.939L478.987 443.503M502.982 676.939V443.503M563.97 676.939L527.977 439.259M630.956 676.939L545.973 443.503M703.941 676.939L569.969 439.259M783.925 676.939L594.963 443.503M864.345 677L618.931 443.455M899.091 1L631 237.011M789.36 1.03181L582.231 237.025M704.013 1.05593L551.75 237.033M636.956 1.07511L539.555 232.823M563.8 1.09698L515.17 232.831M502.837 1.11455L502.976 232.835M435.779 1.13373L478.596 239.161M362.626 1.15457L454.212 239.168M295.566 1.17395L435.918 232.854M222.412 1.19474L411.536 237.073M124.873 1.22314L381.058 241.296M1.08325 81.0419L349.013 259.302M1.08325 194.789L357.011 300.896M1.08325 249.964L351.013 312.78M1.08325 291.558L357.011 325.512M1.08325 338.245H357.011M1.5481 385.728L352.06 351.922M1.08325 433.317L346.014 369.653M1.08325 490.19L352.012 388.328M1.08325 544.517L351.013 406.154M1.08325 611.577L357.011 418.886M1.08325 143.857L351.013 275.43M997.882 81.8908L657.951 257.604M997.882 194.789L645.953 300.047M997.882 249.964L651.952 312.78M997.882 291.558L645.953 325.512M997.882 338.245H645.953M997.882 384.083L645.953 350.978M997.882 426.526L651.952 363.711M997.882 490.19L645.953 388.328M997.882 540.273L645.953 401.06M997.882 608.181L639.954 413.793M997.882 144.706L651.952 274.581M17 1.23662H982C990.837 1.23662 998 8.40007 998 17.2366V660.754C998 669.59 990.837 676.754 982 676.754H17C8.16343 676.754 1 669.59 1 660.754V17.2366C1 8.40004 8.16344 1.23662 17 1.23662ZM349.279 224.187H653.971C662.807 224.187 669.971 231.351 669.971 240.187V436.312C669.971 445.149 662.807 452.312 653.971 452.312H349.279C340.442 452.312 333.279 445.149 333.279 436.312V240.187C333.279 231.351 340.442 224.187 349.279 224.187ZM330.397 211.393H672.854C681.69 211.393 688.854 218.557 688.854 227.393V449.107C688.854 457.943 681.69 465.107 672.854 465.107H330.397C321.56 465.107 314.397 457.943 314.397 449.107V227.393C314.397 218.557 321.56 211.393 330.397 211.393ZM314.737 200.783H688.513C697.349 200.783 704.513 207.947 704.513 216.783V459.717C704.513 468.553 697.349 475.717 688.513 475.717H314.737C305.9 475.717 298.737 468.553 298.737 459.717V216.783C298.737 207.947 305.9 200.783 314.737 200.783ZM283.102 179.349H720.147C728.984 179.349 736.147 186.513 736.147 195.349V481.151C736.147 489.988 728.984 497.151 720.147 497.151H283.102C274.265 497.151 267.102 489.988 267.102 481.151V195.349C267.102 186.513 274.265 179.349 283.102 179.349ZM254.695 160.101H748.557C757.394 160.101 764.557 167.264 764.557 176.101V500.399C764.557 509.235 757.394 516.399 748.557 516.399H254.695C245.858 516.399 238.695 509.235 238.695 500.399V176.101C238.695 167.264 245.858 160.101 254.695 160.101ZM224.469 139.622H778.78C787.617 139.622 794.78 146.786 794.78 155.622V520.878C794.78 529.715 787.617 536.878 778.78 536.878H224.469C215.632 536.878 208.469 529.715 208.469 520.878V155.622C208.469 146.786 215.632 139.622 224.469 139.622ZM186.061 113.6H817.187C826.024 113.6 833.187 120.763 833.187 129.6V546.9C833.187 555.736 826.024 562.9 817.187 562.9H186.061C177.225 562.9 170.061 555.736 170.061 546.9V129.6C170.061 120.763 177.225 113.6 186.061 113.6ZM150.69 89.6335H852.559C861.396 89.6335 868.559 96.7969 868.559 105.633V570.866C868.559 579.703 861.396 586.866 852.559 586.866H150.69C141.853 586.866 134.69 579.703 134.69 570.866V105.633C134.69 96.7969 141.853 89.6335 150.69 89.6335ZM111.24 62.9046H892.007C900.844 62.9046 908.007 70.068 908.007 78.9046V597.595C908.007 606.432 900.844 613.595 892.007 613.595H111.24C102.403 613.595 95.2397 606.432 95.2397 597.595V78.9046C95.2397 70.068 102.403 62.9046 111.24 62.9046ZM66.6423 32.6878H936.605C945.442 32.6878 952.605 39.8512 952.605 48.6878V627.812C952.605 636.649 945.442 643.812 936.605 643.812H66.6424C57.8058 643.812 50.6423 636.648 50.6423 627.812V48.6877C50.6423 39.8512 57.8058 32.6878 66.6423 32.6878Z"
            stroke="#1B1657" stroke-miterlimit="10" />
    </g>
</svg>
    