<svg width="1440" height="1049" viewBox="0 0 1440 1049" fill="none" xmlns="http://www.w3.org/2000/svg">
<g opacity="0.03">
<path d="M-3.83322 946.127C-3.83322 957.458 -5.72881 967.99 -9.51997 977.723C-13.3111 987.456 -18.5605 995.882 -25.2679 1003C-31.9754 1009.97 -40.0681 1015.49 -49.546 1019.56C-58.8781 1023.48 -69.0122 1025.44 -79.9483 1025.44C-91.176 1025.44 -101.748 1023.41 -111.663 1019.34C-121.432 1015.28 -129.963 1009.75 -137.253 1002.78C-144.398 995.664 -150.085 987.311 -154.314 977.723C-158.396 968.136 -160.438 957.821 -160.438 946.781C-160.438 935.741 -158.396 925.427 -154.314 915.839C-150.085 906.251 -144.398 897.971 -137.253 890.998C-130.108 883.88 -121.651 878.287 -111.882 874.22C-102.112 870.152 -91.6863 868.118 -80.6044 868.118C-67.9186 868.118 -55.816 870.733 -44.2967 875.963C-32.7774 881.047 -23.4452 888.311 -16.3003 897.753L-42.7656 920.633C-47.5775 914.241 -53.2643 909.447 -59.8259 906.251C-66.2417 903.055 -73.1679 901.457 -80.6044 901.457C-86.437 901.457 -91.905 902.62 -97.0085 904.944C-101.966 907.268 -106.268 910.464 -109.913 914.531C-113.558 918.454 -116.402 923.248 -118.443 928.913C-120.485 934.433 -121.505 940.389 -121.505 946.781C-121.505 953.318 -120.485 959.419 -118.443 965.085C-116.256 970.605 -113.267 975.399 -109.476 979.466C-105.684 983.534 -101.237 986.73 -96.1337 989.054C-90.8843 991.378 -85.2705 992.541 -79.2921 992.541C-70.6891 992.541 -63.2525 990.144 -56.9825 985.35C-50.5667 980.556 -46.3381 974.455 -44.2967 967.046H-82.5729V935.45H-3.83322V946.127Z" fill="#8668FC"/>
<path d="M14.2472 1023.05V870.515H51.8672V1023.05H14.2472Z" fill="#8668FC"/>
<path d="M119.368 1023.05L60.5323 870.515H101.215L141.678 984.042L182.798 870.515H221.949L162.238 1023.05H119.368Z" fill="#8668FC"/>
<path d="M1177.27 946.128C1177.27 957.458 1175.37 967.99 1171.58 977.723C1167.79 987.456 1162.54 995.882 1155.83 1003C1149.12 1009.97 1141.03 1015.49 1131.55 1019.56C1122.22 1023.48 1112.09 1025.44 1101.15 1025.44C1089.92 1025.44 1079.35 1023.41 1069.44 1019.34C1059.67 1015.28 1051.14 1009.76 1043.85 1002.78C1036.7 995.664 1031.01 987.311 1026.79 977.723C1022.7 968.136 1020.66 957.822 1020.66 946.781C1020.66 935.741 1022.7 925.427 1026.79 915.839C1031.01 906.251 1036.7 897.971 1043.85 890.998C1050.99 883.88 1059.45 878.287 1069.22 874.22C1078.99 870.152 1089.41 868.118 1100.49 868.118C1113.18 868.118 1125.28 870.733 1136.8 875.963C1148.32 881.047 1157.65 888.311 1164.8 897.753L1138.33 920.633C1133.52 914.241 1127.83 909.447 1121.27 906.251C1114.86 903.055 1107.93 901.458 1100.49 901.458C1094.66 901.458 1089.19 902.62 1084.09 904.944C1079.13 907.268 1074.83 910.464 1071.19 914.532C1067.54 918.454 1064.7 923.248 1062.66 928.913C1060.61 934.433 1059.59 940.389 1059.59 946.781C1059.59 953.318 1060.61 959.42 1062.66 965.085C1064.84 970.605 1067.83 975.399 1071.62 979.467C1075.41 983.534 1079.86 986.73 1084.97 989.054C1090.21 991.379 1095.83 992.541 1101.81 992.541C1110.41 992.541 1117.85 990.144 1124.12 985.35C1130.53 980.556 1134.76 974.455 1136.8 967.046H1098.53V935.45H1177.27V946.128Z" fill="#8668FC"/>
<path d="M1195.35 1023.05V870.515H1232.97V1023.05H1195.35Z" fill="#8668FC"/>
<path d="M1300.47 1023.05L1241.63 870.515H1282.31L1322.78 984.043L1363.9 870.515H1403.05L1343.34 1023.05H1300.47Z" fill="#8668FC"/>
<path d="M784.293 946.128C784.293 957.458 782.397 967.99 778.606 977.723C774.815 987.456 769.566 995.882 762.858 1003C756.151 1009.97 748.058 1015.49 738.58 1019.56C729.248 1023.48 719.114 1025.44 708.178 1025.44C696.95 1025.44 686.379 1023.41 676.463 1019.34C666.694 1015.28 658.164 1009.76 650.873 1002.78C643.728 995.664 638.041 987.311 633.813 977.723C629.73 968.136 627.688 957.822 627.688 946.781C627.688 935.741 629.73 925.427 633.813 915.839C638.041 906.251 643.728 897.971 650.873 890.998C658.018 883.88 666.475 878.287 676.245 874.22C686.014 870.152 696.44 868.118 707.522 868.118C720.208 868.118 732.31 870.733 743.829 875.963C755.349 881.047 764.681 888.311 771.826 897.753L745.36 920.633C740.549 914.241 734.862 909.447 728.3 906.251C721.884 903.055 714.958 901.458 707.522 901.458C701.689 901.458 696.221 902.62 691.118 904.944C686.16 907.268 681.858 910.464 678.213 914.532C674.568 918.454 671.724 923.248 669.683 928.913C667.641 934.433 666.621 940.389 666.621 946.781C666.621 953.318 667.641 959.42 669.683 965.085C671.87 970.605 674.859 975.399 678.65 979.467C682.442 983.534 686.889 986.73 691.992 989.054C697.242 991.379 702.856 992.541 708.834 992.541C717.437 992.541 724.874 990.144 731.144 985.35C737.559 980.556 741.788 974.455 743.829 967.046H705.553V935.45H784.293V946.128Z" fill="#8668FC"/>
<path d="M802.373 1023.05V870.515H839.993V1023.05H802.373Z" fill="#8668FC"/>
<path d="M907.495 1023.05L848.658 870.515H889.341L929.804 984.043L970.924 870.515H1010.07L950.364 1023.05H907.495Z" fill="#8668FC"/>
<path d="M385.881 946.128C385.881 957.458 383.985 967.99 380.194 977.723C376.403 987.456 371.153 995.882 364.446 1003C357.738 1009.97 349.646 1015.49 340.168 1019.56C330.836 1023.48 320.702 1025.44 309.766 1025.44C298.538 1025.44 287.966 1023.41 278.051 1019.34C268.281 1015.28 259.751 1009.76 252.461 1002.78C245.316 995.664 239.629 987.311 235.4 977.723C231.317 968.136 229.276 957.822 229.276 946.781C229.276 935.741 231.317 925.427 235.4 915.839C239.629 906.251 245.316 897.971 252.461 890.998C259.605 883.88 268.063 878.287 277.832 874.22C287.602 870.152 298.027 868.118 309.109 868.118C321.795 868.118 333.898 870.733 345.417 875.963C356.936 881.047 366.269 888.311 373.414 897.753L346.948 920.633C342.136 914.241 336.45 909.447 329.888 906.251C323.472 903.055 316.546 901.458 309.109 901.458C303.277 901.458 297.809 902.62 292.705 904.944C287.748 907.268 283.446 910.464 279.801 914.532C276.155 918.454 273.312 923.248 271.271 928.913C269.229 934.433 268.208 940.389 268.208 946.781C268.208 953.318 269.229 959.42 271.271 965.085C273.458 970.605 276.447 975.399 280.238 979.467C284.029 983.534 288.477 986.73 293.58 989.054C298.829 991.379 304.443 992.541 310.422 992.541C319.025 992.541 326.461 990.144 332.731 985.35C339.147 980.556 343.376 974.455 345.417 967.046H307.141V935.45H385.881V946.128Z" fill="#8668FC"/>
<path d="M403.961 1023.05V870.515H441.581V1023.05H403.961Z" fill="#8668FC"/>
<path d="M509.082 1023.05L450.246 870.515H490.928L531.392 984.043L572.512 870.515H611.663L551.952 1023.05H509.082Z" fill="#8668FC"/>
<path d="M-65.3955 1126.91C-65.3955 1138.24 -67.291 1148.77 -71.0822 1158.5C-74.8734 1168.23 -80.1227 1176.66 -86.8302 1183.78C-93.5376 1190.75 -101.63 1196.27 -111.108 1200.34C-120.44 1204.26 -130.574 1206.22 -141.511 1206.22C-152.738 1206.22 -163.31 1204.19 -173.225 1200.12C-182.995 1196.05 -191.525 1190.53 -198.816 1183.56C-205.96 1176.44 -211.647 1168.09 -215.876 1158.5C-219.959 1148.91 -222 1138.6 -222 1127.56C-222 1116.52 -219.959 1106.2 -215.876 1096.62C-211.647 1087.03 -205.96 1078.75 -198.816 1071.78C-191.671 1064.66 -183.213 1059.07 -173.444 1055C-163.674 1050.93 -153.249 1048.9 -142.167 1048.9C-129.481 1048.9 -117.378 1051.51 -105.859 1056.74C-94.3396 1061.83 -85.0075 1069.09 -77.8626 1078.53L-104.328 1101.41C-109.14 1095.02 -114.827 1090.23 -121.388 1087.03C-127.804 1083.83 -134.73 1082.24 -142.167 1082.24C-147.999 1082.24 -153.467 1083.4 -158.571 1085.72C-163.528 1088.05 -167.83 1091.24 -171.475 1095.31C-175.121 1099.23 -177.964 1104.03 -180.005 1109.69C-182.047 1115.21 -183.068 1121.17 -183.068 1127.56C-183.068 1134.1 -182.047 1140.2 -180.005 1145.86C-177.818 1151.38 -174.829 1156.18 -171.038 1160.24C-167.247 1164.31 -162.799 1167.51 -157.696 1169.83C-152.447 1172.16 -146.833 1173.32 -140.854 1173.32C-132.251 1173.32 -124.815 1170.92 -118.545 1166.13C-112.129 1161.33 -107.9 1155.23 -105.859 1147.82H-144.135V1116.23H-65.3955V1126.91Z" fill="#8668FC"/>
<path d="M-47.3151 1203.82V1051.29H-9.69498V1203.82H-47.3151Z" fill="#8668FC"/>
<path d="M57.8062 1203.82L-1.02989 1051.29H39.6523L80.1158 1164.82L121.235 1051.29H160.387L100.676 1203.82H57.8062Z" fill="#8668FC"/>
<path d="M1115.7 1126.91C1115.7 1138.24 1113.81 1148.77 1110.02 1158.5C1106.23 1168.23 1100.98 1176.66 1094.27 1183.78C1087.56 1190.75 1079.47 1196.27 1069.99 1200.34C1060.66 1204.26 1050.52 1206.22 1039.59 1206.22C1028.36 1206.22 1017.79 1204.19 1007.87 1200.12C998.104 1196.05 989.574 1190.53 982.283 1183.56C975.138 1176.44 969.452 1168.09 965.223 1158.5C961.14 1148.91 959.099 1138.6 959.099 1127.56C959.099 1116.52 961.14 1106.2 965.223 1096.62C969.452 1087.03 975.138 1078.75 982.283 1071.78C989.428 1064.66 997.885 1059.07 1007.66 1055C1017.42 1050.93 1027.85 1048.9 1038.93 1048.9C1051.62 1048.9 1063.72 1051.51 1075.24 1056.74C1086.76 1061.83 1096.09 1069.09 1103.24 1078.53L1076.77 1101.41C1071.96 1095.02 1066.27 1090.23 1059.71 1087.03C1053.3 1083.83 1046.37 1082.24 1038.93 1082.24C1033.1 1082.24 1027.63 1083.4 1022.53 1085.72C1017.57 1088.05 1013.27 1091.24 1009.62 1095.31C1005.98 1099.23 1003.13 1104.03 1001.09 1109.69C999.052 1115.21 998.031 1121.17 998.031 1127.56C998.031 1134.1 999.052 1140.2 1001.09 1145.86C1003.28 1151.38 1006.27 1156.18 1010.06 1160.24C1013.85 1164.31 1018.3 1167.51 1023.4 1169.83C1028.65 1172.16 1034.27 1173.32 1040.24 1173.32C1048.85 1173.32 1056.28 1170.92 1062.55 1166.13C1068.97 1161.33 1073.2 1155.23 1075.24 1147.82H1036.96V1116.23H1115.7V1126.91Z" fill="#8668FC"/>
<path d="M1133.78 1203.83V1051.29H1171.4V1203.83H1133.78Z" fill="#8668FC"/>
<path d="M1238.91 1203.83L1180.07 1051.29H1220.75L1261.21 1164.82L1302.33 1051.29H1341.49L1281.77 1203.83H1238.91Z" fill="#8668FC"/>
<path d="M722.731 1126.91C722.731 1138.24 720.835 1148.77 717.044 1158.5C713.253 1168.23 708.003 1176.66 701.296 1183.78C694.588 1190.75 686.496 1196.27 677.018 1200.34C667.686 1204.26 657.552 1206.22 646.616 1206.22C635.388 1206.22 624.816 1204.19 614.901 1200.12C605.131 1196.05 596.601 1190.53 589.311 1183.56C582.166 1176.44 576.479 1168.09 572.25 1158.5C568.167 1148.91 566.126 1138.6 566.126 1127.56C566.126 1116.52 568.167 1106.2 572.25 1096.62C576.479 1087.03 582.166 1078.75 589.311 1071.78C596.455 1064.66 604.913 1059.07 614.682 1055C624.452 1050.93 634.878 1048.9 645.959 1048.9C658.645 1048.9 670.748 1051.51 682.267 1056.74C693.786 1061.83 703.119 1069.09 710.263 1078.53L683.798 1101.41C678.986 1095.02 673.3 1090.23 666.738 1087.03C660.322 1083.83 653.396 1082.24 645.959 1082.24C640.127 1082.24 634.659 1083.4 629.555 1085.72C624.598 1088.05 620.296 1091.24 616.651 1095.31C613.005 1099.23 610.162 1104.03 608.121 1109.69C606.079 1115.21 605.058 1121.17 605.058 1127.56C605.058 1134.1 606.079 1140.2 608.121 1145.86C610.308 1151.38 613.297 1156.18 617.088 1160.24C620.879 1164.31 625.327 1167.51 630.43 1169.83C635.68 1172.16 641.293 1173.32 647.272 1173.32C655.875 1173.32 663.311 1170.92 669.581 1166.13C675.997 1161.33 680.226 1155.23 682.267 1147.82H643.991V1116.23H722.731V1126.91Z" fill="#8668FC"/>
<path d="M740.811 1203.83V1051.29H778.431V1203.83H740.811Z" fill="#8668FC"/>
<path d="M845.932 1203.83L787.096 1051.29H827.778L868.242 1164.82L909.361 1051.29H948.513L888.802 1203.83H845.932Z" fill="#8668FC"/>
<path d="M324.318 1126.91C324.318 1138.24 322.423 1148.77 318.632 1158.5C314.84 1168.23 309.591 1176.66 302.884 1183.78C296.176 1190.75 288.083 1196.27 278.606 1200.34C269.273 1204.26 259.139 1206.22 248.203 1206.22C236.976 1206.22 226.404 1204.19 216.489 1200.12C206.719 1196.05 198.189 1190.53 190.898 1183.56C183.753 1176.44 178.067 1168.09 173.838 1158.5C169.755 1148.91 167.714 1138.6 167.714 1127.56C167.714 1116.52 169.755 1106.2 173.838 1096.62C178.067 1087.03 183.753 1078.75 190.898 1071.78C198.043 1064.66 206.5 1059.07 216.27 1055C226.04 1050.93 236.465 1048.9 247.547 1048.9C260.233 1048.9 272.336 1051.51 283.855 1056.74C295.374 1061.83 304.706 1069.09 311.851 1078.53L285.386 1101.41C280.574 1095.02 274.887 1090.23 268.326 1087.03C261.91 1083.83 254.984 1082.24 247.547 1082.24C241.715 1082.24 236.247 1083.4 231.143 1085.72C226.185 1088.05 221.884 1091.24 218.238 1095.31C214.593 1099.23 211.75 1104.03 209.708 1109.69C207.667 1115.21 206.646 1121.17 206.646 1127.56C206.646 1134.1 207.667 1140.2 209.708 1145.86C211.896 1151.38 214.885 1156.18 218.676 1160.24C222.467 1164.31 226.914 1167.51 232.018 1169.83C237.267 1172.16 242.881 1173.32 248.859 1173.32C257.463 1173.32 264.899 1170.92 271.169 1166.13C277.585 1161.33 281.813 1155.23 283.855 1147.82H245.579V1116.23H324.318V1126.91Z" fill="#8668FC"/>
<path d="M342.399 1203.83V1051.29H380.019V1203.83H342.399Z" fill="#8668FC"/>
<path d="M447.52 1203.83L388.684 1051.29H429.366L469.83 1164.82L510.949 1051.29H550.1L490.389 1203.83H447.52Z" fill="#8668FC"/>
<path d="M-3.83322 1307.68C-3.83322 1319.01 -5.72881 1329.55 -9.51997 1339.28C-13.3111 1349.01 -18.5605 1357.44 -25.2679 1364.56C-31.9754 1371.53 -40.0681 1377.05 -49.546 1381.12C-58.8781 1385.04 -69.0122 1387 -79.9483 1387C-91.176 1387 -101.748 1384.97 -111.663 1380.9C-121.432 1376.83 -129.963 1371.31 -137.253 1364.34C-144.398 1357.22 -150.085 1348.87 -154.314 1339.28C-158.396 1329.69 -160.438 1319.38 -160.438 1308.34C-160.438 1297.3 -158.396 1286.98 -154.314 1277.4C-150.085 1267.81 -144.398 1259.53 -137.253 1252.55C-130.108 1245.44 -121.651 1239.84 -111.882 1235.78C-102.112 1231.71 -91.6863 1229.67 -80.6044 1229.67C-67.9186 1229.67 -55.816 1232.29 -44.2967 1237.52C-32.7774 1242.6 -23.4452 1249.87 -16.3003 1259.31L-42.7656 1282.19C-47.5775 1275.8 -53.2643 1271 -59.8259 1267.81C-66.2417 1264.61 -73.1679 1263.01 -80.6044 1263.01C-86.437 1263.01 -91.905 1264.18 -97.0085 1266.5C-101.966 1268.82 -106.268 1272.02 -109.913 1276.09C-113.558 1280.01 -116.402 1284.8 -118.443 1290.47C-120.485 1295.99 -121.505 1301.95 -121.505 1308.34C-121.505 1314.87 -120.485 1320.98 -118.443 1326.64C-116.256 1332.16 -113.267 1336.95 -109.476 1341.02C-105.684 1345.09 -101.237 1348.29 -96.1337 1350.61C-90.8843 1352.93 -85.2705 1354.1 -79.2921 1354.1C-70.6891 1354.1 -63.2525 1351.7 -56.9825 1346.91C-50.5667 1342.11 -46.3381 1336.01 -44.2967 1328.6H-82.5729V1297.01H-3.83322V1307.68Z" fill="#8668FC"/>
<path d="M14.2472 1384.6V1232.07H51.8672V1384.6H14.2472Z" fill="#8668FC"/>
<path d="M119.368 1384.6L60.5323 1232.07H101.215L141.678 1345.6L182.798 1232.07H221.949L162.238 1384.6H119.368Z" fill="#8668FC"/>
<path d="M1177.27 1307.68C1177.27 1319.01 1175.37 1329.55 1171.58 1339.28C1167.79 1349.01 1162.54 1357.44 1155.83 1364.56C1149.12 1371.53 1141.03 1377.05 1131.55 1381.12C1122.22 1385.04 1112.09 1387 1101.15 1387C1089.92 1387 1079.35 1384.97 1069.44 1380.9C1059.67 1376.83 1051.14 1371.31 1043.85 1364.34C1036.7 1357.22 1031.01 1348.87 1026.79 1339.28C1022.7 1329.69 1020.66 1319.38 1020.66 1308.34C1020.66 1297.3 1022.7 1286.98 1026.79 1277.4C1031.01 1267.81 1036.7 1259.53 1043.85 1252.55C1050.99 1245.44 1059.45 1239.84 1069.22 1235.78C1078.99 1231.71 1089.41 1229.67 1100.49 1229.67C1113.18 1229.67 1125.28 1232.29 1136.8 1237.52C1148.32 1242.6 1157.65 1249.87 1164.8 1259.31L1138.33 1282.19C1133.52 1275.8 1127.83 1271 1121.27 1267.81C1114.86 1264.61 1107.93 1263.01 1100.49 1263.01C1094.66 1263.01 1089.19 1264.18 1084.09 1266.5C1079.13 1268.82 1074.83 1272.02 1071.19 1276.09C1067.54 1280.01 1064.7 1284.8 1062.66 1290.47C1060.61 1295.99 1059.59 1301.95 1059.59 1308.34C1059.59 1314.87 1060.61 1320.98 1062.66 1326.64C1064.84 1332.16 1067.83 1336.96 1071.62 1341.02C1075.41 1345.09 1079.86 1348.29 1084.97 1350.61C1090.21 1352.93 1095.83 1354.1 1101.81 1354.1C1110.41 1354.1 1117.85 1351.7 1124.12 1346.91C1130.53 1342.11 1134.76 1336.01 1136.8 1328.6H1098.53V1297.01H1177.27V1307.68Z" fill="#8668FC"/>
<path d="M1195.35 1384.6V1232.07H1232.97V1384.6H1195.35Z" fill="#8668FC"/>
<path d="M1300.47 1384.6L1241.63 1232.07H1282.31L1322.78 1345.6L1363.9 1232.07H1403.05L1343.34 1384.6H1300.47Z" fill="#8668FC"/>
<path d="M784.293 1307.68C784.293 1319.01 782.397 1329.55 778.606 1339.28C774.815 1349.01 769.566 1357.44 762.858 1364.56C756.151 1371.53 748.058 1377.05 738.58 1381.12C729.248 1385.04 719.114 1387 708.178 1387C696.95 1387 686.379 1384.97 676.463 1380.9C666.694 1376.83 658.164 1371.31 650.873 1364.34C643.728 1357.22 638.041 1348.87 633.813 1339.28C629.73 1329.69 627.688 1319.38 627.688 1308.34C627.688 1297.3 629.73 1286.98 633.813 1277.4C638.041 1267.81 643.728 1259.53 650.873 1252.55C658.018 1245.44 666.475 1239.84 676.245 1235.78C686.014 1231.71 696.44 1229.67 707.522 1229.67C720.208 1229.67 732.31 1232.29 743.829 1237.52C755.349 1242.6 764.681 1249.87 771.826 1259.31L745.36 1282.19C740.549 1275.8 734.862 1271 728.3 1267.81C721.884 1264.61 714.958 1263.01 707.522 1263.01C701.689 1263.01 696.221 1264.18 691.118 1266.5C686.16 1268.82 681.858 1272.02 678.213 1276.09C674.568 1280.01 671.724 1284.8 669.683 1290.47C667.641 1295.99 666.621 1301.95 666.621 1308.34C666.621 1314.87 667.641 1320.98 669.683 1326.64C671.87 1332.16 674.859 1336.96 678.65 1341.02C682.442 1345.09 686.889 1348.29 691.992 1350.61C697.242 1352.93 702.856 1354.1 708.834 1354.1C717.437 1354.1 724.874 1351.7 731.144 1346.91C737.559 1342.11 741.788 1336.01 743.829 1328.6H705.553V1297.01H784.293V1307.68Z" fill="#8668FC"/>
<path d="M802.373 1384.6V1232.07H839.993V1384.6H802.373Z" fill="#8668FC"/>
<path d="M907.495 1384.6L848.658 1232.07H889.341L929.804 1345.6L970.924 1232.07H1010.07L950.364 1384.6H907.495Z" fill="#8668FC"/>
<path d="M385.881 1307.68C385.881 1319.01 383.985 1329.55 380.194 1339.28C376.403 1349.01 371.153 1357.44 364.446 1364.56C357.738 1371.53 349.646 1377.05 340.168 1381.12C330.836 1385.04 320.702 1387 309.766 1387C298.538 1387 287.966 1384.97 278.051 1380.9C268.281 1376.83 259.751 1371.31 252.461 1364.34C245.316 1357.22 239.629 1348.87 235.4 1339.28C231.317 1329.69 229.276 1319.38 229.276 1308.34C229.276 1297.3 231.317 1286.98 235.4 1277.4C239.629 1267.81 245.316 1259.53 252.461 1252.55C259.605 1245.44 268.063 1239.84 277.832 1235.78C287.602 1231.71 298.027 1229.67 309.109 1229.67C321.795 1229.67 333.898 1232.29 345.417 1237.52C356.936 1242.6 366.269 1249.87 373.414 1259.31L346.948 1282.19C342.136 1275.8 336.45 1271 329.888 1267.81C323.472 1264.61 316.546 1263.01 309.109 1263.01C303.277 1263.01 297.809 1264.18 292.705 1266.5C287.748 1268.82 283.446 1272.02 279.801 1276.09C276.155 1280.01 273.312 1284.8 271.271 1290.47C269.229 1295.99 268.208 1301.95 268.208 1308.34C268.208 1314.87 269.229 1320.98 271.271 1326.64C273.458 1332.16 276.447 1336.96 280.238 1341.02C284.029 1345.09 288.477 1348.29 293.58 1350.61C298.829 1352.93 304.443 1354.1 310.422 1354.1C319.025 1354.1 326.461 1351.7 332.731 1346.91C339.147 1342.11 343.376 1336.01 345.417 1328.6H307.141V1297.01H385.881V1307.68Z" fill="#8668FC"/>
<path d="M403.961 1384.6V1232.07H441.581V1384.6H403.961Z" fill="#8668FC"/>
<path d="M509.082 1384.6L450.246 1232.07H490.928L531.392 1345.6L572.512 1232.07H611.663L551.952 1384.6H509.082Z" fill="#8668FC"/>
<path d="M-3.83321 52.0091C-3.83321 63.34 -5.72879 73.872 -9.51996 83.6049C-13.3111 93.3379 -18.5604 101.763 -25.2679 108.882C-31.9754 115.855 -40.0681 121.375 -49.546 125.442C-58.8781 129.364 -69.0122 131.326 -79.9483 131.326C-91.176 131.326 -101.747 129.292 -111.663 125.224C-121.432 121.157 -129.963 115.637 -137.253 108.664C-144.398 101.546 -150.085 93.1927 -154.314 83.6049C-158.396 74.0172 -160.438 63.7032 -160.438 52.6628C-160.438 41.6224 -158.396 31.3083 -154.314 21.7206C-150.085 12.1329 -144.398 3.85264 -137.253 -3.12024C-130.108 -10.2384 -121.651 -15.8312 -111.882 -19.8987C-102.112 -23.9662 -91.6863 -26 -80.6044 -26C-67.9186 -26 -55.816 -23.3852 -44.2967 -18.1555C-32.7773 -13.0711 -23.4452 -5.80771 -16.3003 3.63473L-42.7656 26.5145C-47.5775 20.1227 -53.2643 15.3288 -59.8259 12.1329C-66.2417 8.93703 -73.1679 7.33908 -80.6044 7.33908C-86.437 7.33908 -91.905 8.50122 -97.0085 10.8255C-101.966 13.1498 -106.268 16.3457 -109.913 20.4132C-113.558 24.3355 -116.402 29.1293 -118.443 34.7948C-120.485 40.315 -121.505 46.271 -121.505 52.6628C-121.505 59.1999 -120.485 65.3011 -118.443 70.9666C-116.256 76.4868 -113.267 81.2807 -109.476 85.3482C-105.684 89.4157 -101.237 92.6116 -96.1337 94.9359C-90.8843 97.2602 -85.2705 98.4223 -79.2921 98.4223C-70.6891 98.4223 -63.2525 96.0254 -56.9825 91.2315C-50.5667 86.4377 -46.3381 80.3364 -44.2967 72.9277H-82.5729V41.3319H-3.83321V52.0091Z" fill="#8668FC"/>
<path d="M14.2472 128.929V-23.6031H51.8673V128.929H14.2472Z" fill="#8668FC"/>
<path d="M119.368 128.929L60.5324 -23.6031H101.215L141.678 89.9241L182.798 -23.6031H221.949L162.238 128.929H119.368Z" fill="#8668FC"/>
<path d="M1177.27 52.0092C1177.27 63.3401 1175.37 73.8721 1171.58 83.6051C1167.79 93.3381 1162.54 101.764 1155.83 108.882C1149.12 115.855 1141.03 121.375 1131.55 125.442C1122.22 129.365 1112.09 131.326 1101.15 131.326C1089.92 131.326 1079.35 129.292 1069.44 125.224C1059.67 121.157 1051.14 115.637 1043.85 108.664C1036.7 101.546 1031.01 93.1928 1026.79 83.6051C1022.7 74.0174 1020.66 63.7033 1020.66 52.6629C1020.66 41.6225 1022.7 31.3085 1026.79 21.7208C1031.01 12.1331 1036.7 3.85277 1043.85 -3.12011C1050.99 -10.2383 1059.45 -15.8311 1069.22 -19.8986C1078.99 -23.9661 1089.41 -25.9999 1100.49 -25.9999C1113.18 -25.9999 1125.28 -23.385 1136.8 -18.1554C1148.32 -13.071 1157.65 -5.80758 1164.8 3.63486L1138.33 26.5146C1133.52 20.1228 1127.83 15.329 1121.27 12.1331C1114.86 8.93716 1107.93 7.3392 1100.49 7.3392C1094.66 7.3392 1089.19 8.50135 1084.09 10.8256C1079.13 13.1499 1074.83 16.3458 1071.19 20.4134C1067.54 24.3356 1064.7 29.1295 1062.66 34.7949C1060.61 40.3151 1059.59 46.2711 1059.59 52.6629C1059.59 59.2 1060.61 65.3013 1062.66 70.9667C1064.84 76.4869 1067.83 81.2808 1071.62 85.3483C1075.41 89.4158 1079.86 92.6117 1084.97 94.936C1090.21 97.2603 1095.83 98.4224 1101.81 98.4224C1110.41 98.4224 1117.85 96.0255 1124.12 91.2317C1130.53 86.4378 1134.76 80.3365 1136.8 72.9279H1098.53V41.332H1177.27V52.0092Z" fill="#8668FC"/>
<path d="M1195.35 128.929V-23.603H1232.97V128.929H1195.35Z" fill="#8668FC"/>
<path d="M1300.47 128.929L1241.63 -23.603H1282.31L1322.78 89.9242L1363.9 -23.603H1403.05L1343.34 128.929H1300.47Z" fill="#8668FC"/>
<path d="M784.293 52.0092C784.293 63.3401 782.397 73.8721 778.606 83.6051C774.815 93.3381 769.566 101.764 762.858 108.882C756.151 115.855 748.058 121.375 738.58 125.442C729.248 129.365 719.114 131.326 708.178 131.326C696.95 131.326 686.379 129.292 676.463 125.224C666.694 121.157 658.164 115.637 650.873 108.664C643.728 101.546 638.041 93.1928 633.813 83.6051C629.73 74.0174 627.688 63.7033 627.688 52.6629C627.688 41.6225 629.73 31.3085 633.813 21.7208C638.041 12.1331 643.728 3.85277 650.873 -3.12011C658.018 -10.2383 666.475 -15.8311 676.245 -19.8986C686.014 -23.9661 696.44 -25.9999 707.522 -25.9999C720.208 -25.9999 732.31 -23.385 743.829 -18.1554C755.349 -13.071 764.681 -5.80758 771.826 3.63486L745.36 26.5146C740.549 20.1228 734.862 15.329 728.3 12.1331C721.884 8.93716 714.958 7.3392 707.522 7.3392C701.689 7.3392 696.221 8.50135 691.118 10.8256C686.16 13.1499 681.858 16.3458 678.213 20.4134C674.568 24.3356 671.724 29.1295 669.683 34.7949C667.641 40.3151 666.621 46.2711 666.621 52.6629C666.621 59.2 667.641 65.3013 669.683 70.9667C671.87 76.4869 674.859 81.2808 678.65 85.3483C682.442 89.4158 686.889 92.6117 691.992 94.936C697.242 97.2603 702.856 98.4224 708.834 98.4224C717.437 98.4224 724.874 96.0255 731.144 91.2317C737.559 86.4378 741.788 80.3365 743.829 72.9279H705.553V41.332H784.293V52.0092Z" fill="#8668FC"/>
<path d="M802.373 128.929V-23.603H839.993V128.929H802.373Z" fill="#8668FC"/>
<path d="M907.495 128.929L848.658 -23.603H889.341L929.804 89.9242L970.924 -23.603H1010.07L950.364 128.929H907.495Z" fill="#8668FC"/>
<path d="M385.881 52.0092C385.881 63.3401 383.985 73.8721 380.194 83.6051C376.403 93.3381 371.153 101.764 364.446 108.882C357.738 115.855 349.646 121.375 340.168 125.442C330.836 129.365 320.702 131.326 309.766 131.326C298.538 131.326 287.966 129.292 278.051 125.224C268.281 121.157 259.751 115.637 252.461 108.664C245.316 101.546 239.629 93.1928 235.4 83.6051C231.318 74.0174 229.276 63.7033 229.276 52.6629C229.276 41.6225 231.318 31.3085 235.4 21.7208C239.629 12.1331 245.316 3.85277 252.461 -3.12011C259.605 -10.2383 268.063 -15.8311 277.832 -19.8986C287.602 -23.9661 298.027 -25.9999 309.109 -25.9999C321.795 -25.9999 333.898 -23.385 345.417 -18.1554C356.936 -13.071 366.269 -5.80758 373.414 3.63486L346.948 26.5146C342.136 20.1228 336.45 15.329 329.888 12.1331C323.472 8.93716 316.546 7.3392 309.109 7.3392C303.277 7.3392 297.809 8.50135 292.705 10.8256C287.748 13.1499 283.446 16.3458 279.801 20.4134C276.155 24.3356 273.312 29.1295 271.271 34.7949C269.229 40.3151 268.208 46.2711 268.208 52.6629C268.208 59.2 269.229 65.3013 271.271 70.9667C273.458 76.4869 276.447 81.2808 280.238 85.3483C284.029 89.4158 288.477 92.6117 293.58 94.936C298.83 97.2603 304.443 98.4224 310.422 98.4224C319.025 98.4224 326.461 96.0255 332.731 91.2317C339.147 86.4378 343.376 80.3365 345.417 72.9279H307.141V41.332H385.881V52.0092Z" fill="#8668FC"/>
<path d="M403.961 128.929V-23.603H441.581V128.929H403.961Z" fill="#8668FC"/>
<path d="M509.082 128.929L450.246 -23.603H490.928L531.392 89.9242L572.512 -23.603H611.663L551.952 128.929H509.082Z" fill="#8668FC"/>
<path d="M-3.83321 232.787C-3.83321 244.118 -5.72879 254.65 -9.51996 264.383C-13.3111 274.116 -18.5604 282.542 -25.2679 289.66C-31.9754 296.633 -40.0681 302.153 -49.546 306.22C-58.8781 310.142 -69.0122 312.104 -79.9483 312.104C-91.176 312.104 -101.747 310.07 -111.663 306.002C-121.432 301.935 -129.963 296.415 -137.253 289.442C-144.398 282.324 -150.085 273.971 -154.314 264.383C-158.396 254.795 -160.438 244.481 -160.438 233.441C-160.438 222.4 -158.396 212.086 -154.314 202.499C-150.085 192.911 -144.398 184.631 -137.253 177.658C-130.108 170.54 -121.651 164.947 -111.882 160.879C-102.112 156.812 -91.6863 154.778 -80.6044 154.778C-67.9186 154.778 -55.816 157.393 -44.2967 162.623C-32.7773 167.707 -23.4452 174.97 -16.3003 184.413L-42.7656 207.293C-47.5775 200.901 -53.2643 196.107 -59.8259 192.911C-66.2417 189.715 -73.1679 188.117 -80.6044 188.117C-86.437 188.117 -91.905 189.279 -97.0085 191.604C-101.966 193.928 -106.268 197.124 -109.913 201.191C-113.558 205.113 -116.402 209.907 -118.443 215.573C-120.485 221.093 -121.505 227.049 -121.505 233.441C-121.505 239.978 -120.485 246.079 -118.443 251.745C-116.256 257.265 -113.267 262.059 -109.476 266.126C-105.684 270.194 -101.237 273.39 -96.1337 275.714C-90.8843 278.038 -85.2705 279.2 -79.2921 279.2C-70.6891 279.2 -63.2525 276.803 -56.9825 272.01C-50.5667 267.216 -46.3381 261.114 -44.2967 253.706H-82.5729V222.11H-3.83321V232.787Z" fill="#8668FC"/>
<path d="M14.2472 309.707V157.175H51.8673V309.707H14.2472Z" fill="#8668FC"/>
<path d="M119.368 309.707L60.5324 157.175H101.215L141.678 270.702L182.798 157.175H221.949L162.238 309.707H119.368Z" fill="#8668FC"/>
<path d="M1177.27 232.787C1177.27 244.118 1175.37 254.65 1171.58 264.383C1167.79 274.116 1162.54 282.542 1155.83 289.66C1149.12 296.633 1141.03 302.153 1131.55 306.22C1122.22 310.143 1112.09 312.104 1101.15 312.104C1089.92 312.104 1079.35 310.07 1069.44 306.002C1059.67 301.935 1051.14 296.415 1043.85 289.442C1036.7 282.324 1031.01 273.971 1026.79 264.383C1022.7 254.795 1020.66 244.481 1020.66 233.441C1020.66 222.401 1022.7 212.086 1026.79 202.499C1031.01 192.911 1036.7 184.631 1043.85 177.658C1050.99 170.54 1059.45 164.947 1069.22 160.879C1078.99 156.812 1089.41 154.778 1100.49 154.778C1113.18 154.778 1125.28 157.393 1136.8 162.623C1148.32 167.707 1157.65 174.97 1164.8 184.413L1138.33 207.293C1133.52 200.901 1127.83 196.107 1121.27 192.911C1114.86 189.715 1107.93 188.117 1100.49 188.117C1094.66 188.117 1089.19 189.279 1084.09 191.604C1079.13 193.928 1074.83 197.124 1071.19 201.191C1067.54 205.114 1064.7 209.907 1062.66 215.573C1060.61 221.093 1059.59 227.049 1059.59 233.441C1059.59 239.978 1060.61 246.079 1062.66 251.745C1064.84 257.265 1067.83 262.059 1071.62 266.126C1075.41 270.194 1079.86 273.39 1084.97 275.714C1090.21 278.038 1095.83 279.2 1101.81 279.2C1110.41 279.2 1117.85 276.804 1124.12 272.01C1130.53 267.216 1134.76 261.115 1136.8 253.706H1098.53V222.11H1177.27V232.787Z" fill="#8668FC"/>
<path d="M1195.35 309.707V157.175H1232.97V309.707H1195.35Z" fill="#8668FC"/>
<path d="M1300.47 309.707L1241.63 157.175H1282.31L1322.78 270.702L1363.9 157.175H1403.05L1343.34 309.707H1300.47Z" fill="#8668FC"/>
<path d="M784.293 232.787C784.293 244.118 782.397 254.65 778.606 264.383C774.815 274.116 769.566 282.542 762.858 289.66C756.151 296.633 748.058 302.153 738.58 306.22C729.248 310.143 719.114 312.104 708.178 312.104C696.95 312.104 686.379 310.07 676.463 306.002C666.694 301.935 658.164 296.415 650.873 289.442C643.728 282.324 638.041 273.971 633.813 264.383C629.73 254.795 627.688 244.481 627.688 233.441C627.688 222.401 629.73 212.086 633.813 202.499C638.041 192.911 643.728 184.631 650.873 177.658C658.018 170.54 666.475 164.947 676.245 160.879C686.014 156.812 696.44 154.778 707.522 154.778C720.208 154.778 732.31 157.393 743.829 162.623C755.349 167.707 764.681 174.97 771.826 184.413L745.36 207.293C740.549 200.901 734.862 196.107 728.3 192.911C721.884 189.715 714.958 188.117 707.522 188.117C701.689 188.117 696.221 189.279 691.118 191.604C686.16 193.928 681.858 197.124 678.213 201.191C674.568 205.114 671.724 209.907 669.683 215.573C667.641 221.093 666.621 227.049 666.621 233.441C666.621 239.978 667.641 246.079 669.683 251.745C671.87 257.265 674.859 262.059 678.65 266.126C682.442 270.194 686.889 273.39 691.992 275.714C697.242 278.038 702.856 279.2 708.834 279.2C717.437 279.2 724.874 276.804 731.144 272.01C737.559 267.216 741.788 261.115 743.829 253.706H705.553V222.11H784.293V232.787Z" fill="#8668FC"/>
<path d="M802.373 309.707V157.175H839.993V309.707H802.373Z" fill="#8668FC"/>
<path d="M907.495 309.707L848.658 157.175H889.341L929.804 270.702L970.924 157.175H1010.07L950.364 309.707H907.495Z" fill="#8668FC"/>
<path d="M385.881 232.787C385.881 244.118 383.985 254.65 380.194 264.383C376.403 274.116 371.153 282.542 364.446 289.66C357.738 296.633 349.646 302.153 340.168 306.22C330.836 310.143 320.702 312.104 309.766 312.104C298.538 312.104 287.966 310.07 278.051 306.002C268.281 301.935 259.751 296.415 252.461 289.442C245.316 282.324 239.629 273.971 235.4 264.383C231.318 254.795 229.276 244.481 229.276 233.441C229.276 222.401 231.318 212.086 235.4 202.499C239.629 192.911 245.316 184.631 252.461 177.658C259.605 170.54 268.063 164.947 277.832 160.879C287.602 156.812 298.027 154.778 309.109 154.778C321.795 154.778 333.898 157.393 345.417 162.623C356.936 167.707 366.269 174.97 373.414 184.413L346.948 207.293C342.136 200.901 336.45 196.107 329.888 192.911C323.472 189.715 316.546 188.117 309.109 188.117C303.277 188.117 297.809 189.279 292.705 191.604C287.748 193.928 283.446 197.124 279.801 201.191C276.155 205.114 273.312 209.907 271.271 215.573C269.229 221.093 268.208 227.049 268.208 233.441C268.208 239.978 269.229 246.079 271.271 251.745C273.458 257.265 276.447 262.059 280.238 266.126C284.029 270.194 288.477 273.39 293.58 275.714C298.829 278.038 304.443 279.2 310.422 279.2C319.025 279.2 326.461 276.804 332.731 272.01C339.147 267.216 343.376 261.115 345.417 253.706H307.141V222.11H385.881V232.787Z" fill="#8668FC"/>
<path d="M403.961 309.707V157.175H441.581V309.707H403.961Z" fill="#8668FC"/>
<path d="M509.082 309.707L450.246 157.175H490.928L531.392 270.702L572.512 157.175H611.663L551.952 309.707H509.082Z" fill="#8668FC"/>
<path d="M90.9531 413.565C90.9531 424.896 89.0575 435.428 85.2663 445.161C81.4752 454.894 76.2258 463.32 69.5184 470.438C62.8109 477.411 54.7183 482.931 45.2403 486.998C35.9082 490.921 25.7741 492.882 14.838 492.882C3.61035 492.882 -6.96118 490.848 -16.8766 486.78C-26.6461 482.713 -35.1763 477.193 -42.467 470.22C-49.6119 463.102 -55.2986 454.749 -59.5272 445.161C-63.61 435.573 -65.6514 425.259 -65.6514 414.219C-65.6514 403.178 -63.61 392.864 -59.5272 383.277C-55.2986 373.689 -49.6119 365.409 -42.467 358.436C-35.3221 351.318 -26.8648 345.725 -17.0953 341.657C-7.32571 337.59 3.10001 335.556 14.1819 335.556C26.8677 335.556 38.9703 338.171 50.4896 343.401C62.0089 348.485 71.3411 355.748 78.486 365.191L52.0207 388.071C47.2088 381.679 41.5221 376.885 34.9604 373.689C28.5446 370.493 21.6184 368.895 14.1819 368.895C8.3493 368.895 2.88127 370.057 -2.22223 372.382C-7.1799 374.706 -11.4814 377.902 -15.1268 381.969C-18.7721 385.892 -21.6155 390.685 -23.6569 396.351C-25.6983 401.871 -26.719 407.827 -26.719 414.219C-26.719 420.756 -25.6983 426.857 -23.6569 432.523C-21.4697 438.043 -18.4805 442.837 -14.6893 446.904C-10.8982 450.972 -6.45085 454.168 -1.34735 456.492C3.90196 458.816 9.51582 459.978 15.4942 459.978C24.0973 459.978 31.5338 457.581 37.8038 452.788C44.2196 447.994 48.4482 441.892 50.4896 434.484H12.2134V402.888H90.9531V413.565Z" fill="#8668FC"/>
<path d="M109.034 490.485V337.953H146.654V490.485H109.034Z" fill="#8668FC"/>
<path d="M214.155 490.485L155.319 337.953H196.001L236.464 451.48L277.584 337.953H316.735L257.024 490.485H214.155Z" fill="#8668FC"/>
<path d="M1272.05 413.565C1272.05 424.896 1270.16 435.428 1266.37 445.161C1262.57 454.894 1257.32 463.32 1250.62 470.438C1243.91 477.411 1235.82 482.931 1226.34 486.998C1217.01 490.921 1206.87 492.882 1195.94 492.882C1184.71 492.882 1174.14 490.848 1164.22 486.781C1154.45 482.713 1145.92 477.193 1138.63 470.22C1131.49 463.102 1125.8 454.749 1121.57 445.161C1117.49 435.573 1115.45 425.259 1115.45 414.219C1115.45 403.179 1117.49 392.865 1121.57 383.277C1125.8 373.689 1131.49 365.409 1138.63 358.436C1145.78 351.318 1154.23 345.725 1164 341.657C1173.77 337.59 1184.2 335.556 1195.28 335.556C1207.97 335.556 1220.07 338.171 1231.59 343.401C1243.11 348.485 1252.44 355.748 1259.58 365.191L1233.12 388.071C1228.31 381.679 1222.62 376.885 1216.06 373.689C1209.64 370.493 1202.72 368.895 1195.28 368.895C1189.45 368.895 1183.98 370.057 1178.88 372.382C1173.92 374.706 1169.62 377.902 1165.97 381.969C1162.33 385.892 1159.48 390.685 1157.44 396.351C1155.4 401.871 1154.38 407.827 1154.38 414.219C1154.38 420.756 1155.4 426.857 1157.44 432.523C1159.63 438.043 1162.62 442.837 1166.41 446.904C1170.2 450.972 1174.65 454.168 1179.75 456.492C1185 458.816 1190.61 459.978 1196.59 459.978C1205.2 459.978 1212.63 457.582 1218.9 452.788C1225.32 447.994 1229.55 441.893 1231.59 434.484H1193.31V402.888H1272.05V413.565Z" fill="#8668FC"/>
<path d="M1290.13 490.485V337.953H1327.75V490.485H1290.13Z" fill="#8668FC"/>
<path d="M1395.25 490.485L1336.42 337.953H1377.1L1417.56 451.48L1458.68 337.953H1497.83L1438.12 490.485H1395.25Z" fill="#8668FC"/>
<path d="M879.079 413.565C879.079 424.896 877.184 435.428 873.392 445.161C869.601 454.894 864.352 463.32 857.645 470.438C850.937 477.411 842.844 482.931 833.366 486.998C824.034 490.921 813.9 492.882 802.964 492.882C791.736 492.882 781.165 490.848 771.25 486.781C761.48 482.713 752.95 477.193 745.659 470.22C738.514 463.102 732.827 454.749 728.599 445.161C724.516 435.573 722.475 425.259 722.475 414.219C722.475 403.179 724.516 392.865 728.599 383.277C732.827 373.689 738.514 365.409 745.659 358.436C752.804 351.318 761.261 345.725 771.031 341.657C780.8 337.59 791.226 335.556 802.308 335.556C814.994 335.556 827.096 338.171 838.616 343.401C850.135 348.485 859.467 355.748 866.612 365.191L840.147 388.071C835.335 381.679 829.648 376.885 823.086 373.689C816.671 370.493 809.745 368.895 802.308 368.895C796.475 368.895 791.007 370.057 785.904 372.382C780.946 374.706 776.645 377.902 772.999 381.969C769.354 385.892 766.511 390.685 764.469 396.351C762.428 401.871 761.407 407.827 761.407 414.219C761.407 420.756 762.428 426.857 764.469 432.523C766.656 438.043 769.646 442.837 773.437 446.904C777.228 450.972 781.675 454.168 786.779 456.492C792.028 458.816 797.642 459.978 803.62 459.978C812.223 459.978 819.66 457.582 825.93 452.788C832.346 447.994 836.574 441.893 838.616 434.484H800.339V402.888H879.079V413.565Z" fill="#8668FC"/>
<path d="M897.16 490.485V337.953H934.78V490.485H897.16Z" fill="#8668FC"/>
<path d="M1002.28 490.485L943.445 337.953H984.127L1024.59 451.48L1065.71 337.953H1104.86L1045.15 490.485H1002.28Z" fill="#8668FC"/>
<path d="M480.667 413.565C480.667 424.896 478.771 435.428 474.98 445.161C471.189 454.894 465.94 463.32 459.232 470.438C452.525 477.411 444.432 482.931 434.954 486.998C425.622 490.921 415.488 492.882 404.552 492.882C393.324 492.882 382.753 490.848 372.837 486.781C363.068 482.713 354.538 477.193 347.247 470.22C340.102 463.102 334.415 454.749 330.187 445.161C326.104 435.573 324.062 425.259 324.062 414.219C324.062 403.179 326.104 392.865 330.187 383.277C334.415 373.689 340.102 365.409 347.247 358.436C354.392 351.318 362.849 345.725 372.619 341.657C382.388 337.59 392.814 335.556 403.896 335.556C416.582 335.556 428.684 338.171 440.203 343.401C451.723 348.485 461.055 355.748 468.2 365.191L441.734 388.071C436.923 381.679 431.236 376.885 424.674 373.689C418.258 370.493 411.332 368.895 403.896 368.895C398.063 368.895 392.595 370.057 387.492 372.382C382.534 374.706 378.232 377.902 374.587 381.969C370.942 385.892 368.098 390.685 366.057 396.351C364.016 401.871 362.995 407.827 362.995 414.219C362.995 420.756 364.016 426.857 366.057 432.523C368.244 438.043 371.233 442.837 375.024 446.904C378.816 450.972 383.263 454.168 388.366 456.492C393.616 458.816 399.23 459.978 405.208 459.978C413.811 459.978 421.248 457.582 427.518 452.788C433.933 447.994 438.162 441.893 440.203 434.484H401.927V402.888H480.667V413.565Z" fill="#8668FC"/>
<path d="M498.747 490.485V337.953H536.367V490.485H498.747Z" fill="#8668FC"/>
<path d="M603.869 490.485L545.033 337.953H585.715L626.178 451.48L667.298 337.953H706.449L646.738 490.485H603.869Z" fill="#8668FC"/>
<path d="M-3.83321 594.343C-3.83321 605.674 -5.72879 616.206 -9.51996 625.939C-13.3111 635.672 -18.5604 644.098 -25.2679 651.216C-31.9754 658.189 -40.0681 663.709 -49.546 667.776C-58.8781 671.698 -69.0122 673.66 -79.9483 673.66C-91.176 673.66 -101.747 671.626 -111.663 667.558C-121.432 663.491 -129.963 657.971 -137.253 650.998C-144.398 643.88 -150.085 635.527 -154.314 625.939C-158.396 616.351 -160.438 606.037 -160.438 594.997C-160.438 583.956 -158.396 573.642 -154.314 564.055C-150.085 554.467 -144.398 546.187 -137.253 539.214C-130.108 532.096 -121.651 526.503 -111.882 522.435C-102.112 518.368 -91.6863 516.334 -80.6044 516.334C-67.9186 516.334 -55.816 518.949 -44.2967 524.179C-32.7773 529.263 -23.4452 536.526 -16.3003 545.969L-42.7656 568.849C-47.5775 562.457 -53.2643 557.663 -59.8259 554.467C-66.2417 551.271 -73.1679 549.673 -80.6044 549.673C-86.437 549.673 -91.905 550.835 -97.0085 553.16C-101.966 555.484 -106.268 558.68 -109.913 562.747C-113.558 566.669 -116.402 571.463 -118.443 577.129C-120.485 582.649 -121.505 588.605 -121.505 594.997C-121.505 601.534 -120.485 607.635 -118.443 613.301C-116.256 618.821 -113.267 623.615 -109.476 627.682C-105.684 631.75 -101.237 634.946 -96.1337 637.27C-90.8843 639.594 -85.2705 640.756 -79.2921 640.756C-70.6891 640.756 -63.2525 638.359 -56.9825 633.566C-50.5667 628.772 -46.3381 622.67 -44.2967 615.262H-82.5729V583.666H-3.83321V594.343Z" fill="#8668FC"/>
<path d="M14.2472 671.263V518.731H51.8673V671.263H14.2472Z" fill="#8668FC"/>
<path d="M119.368 671.263L60.5324 518.731H101.215L141.678 632.258L182.798 518.731H221.949L162.238 671.263H119.368Z" fill="#8668FC"/>
<path d="M1177.27 594.343C1177.27 605.674 1175.37 616.206 1171.58 625.939C1167.79 635.672 1162.54 644.098 1155.83 651.216C1149.12 658.189 1141.03 663.709 1131.55 667.776C1122.22 671.699 1112.09 673.66 1101.15 673.66C1089.92 673.66 1079.35 671.626 1069.44 667.558C1059.67 663.491 1051.14 657.971 1043.85 650.998C1036.7 643.88 1031.01 635.527 1026.79 625.939C1022.7 616.351 1020.66 606.037 1020.66 594.997C1020.66 583.957 1022.7 573.643 1026.79 564.055C1031.01 554.467 1036.7 546.187 1043.85 539.214C1050.99 532.096 1059.45 526.503 1069.22 522.435C1078.99 518.368 1089.41 516.334 1100.49 516.334C1113.18 516.334 1125.28 518.949 1136.8 524.179C1148.32 529.263 1157.65 536.526 1164.8 545.969L1138.33 568.849C1133.52 562.457 1127.83 557.663 1121.27 554.467C1114.86 551.271 1107.93 549.673 1100.49 549.673C1094.66 549.673 1089.19 550.835 1084.09 553.16C1079.13 555.484 1074.83 558.68 1071.19 562.747C1067.54 566.67 1064.7 571.464 1062.66 577.129C1060.61 582.649 1059.59 588.605 1059.59 594.997C1059.59 601.534 1060.61 607.635 1062.66 613.301C1064.84 618.821 1067.83 623.615 1071.62 627.682C1075.41 631.75 1079.86 634.946 1084.97 637.27C1090.21 639.594 1095.83 640.756 1101.81 640.756C1110.41 640.756 1117.85 638.36 1124.12 633.566C1130.53 628.772 1134.76 622.671 1136.8 615.262H1098.53V583.666H1177.27V594.343Z" fill="#8668FC"/>
<path d="M1195.35 671.263V518.731H1232.97V671.263H1195.35Z" fill="#8668FC"/>
<path d="M1300.47 671.263L1241.63 518.731H1282.31L1322.78 632.258L1363.9 518.731H1403.05L1343.34 671.263H1300.47Z" fill="#8668FC"/>
<path d="M784.293 594.343C784.293 605.674 782.397 616.206 778.606 625.939C774.815 635.672 769.566 644.098 762.858 651.216C756.151 658.189 748.058 663.709 738.58 667.776C729.248 671.699 719.114 673.66 708.178 673.66C696.95 673.66 686.379 671.626 676.463 667.558C666.694 663.491 658.164 657.971 650.873 650.998C643.728 643.88 638.041 635.527 633.813 625.939C629.73 616.351 627.688 606.037 627.688 594.997C627.688 583.957 629.73 573.643 633.813 564.055C638.041 554.467 643.728 546.187 650.873 539.214C658.018 532.096 666.475 526.503 676.245 522.435C686.014 518.368 696.44 516.334 707.522 516.334C720.208 516.334 732.31 518.949 743.829 524.179C755.349 529.263 764.681 536.526 771.826 545.969L745.36 568.849C740.549 562.457 734.862 557.663 728.3 554.467C721.884 551.271 714.958 549.673 707.522 549.673C701.689 549.673 696.221 550.835 691.118 553.16C686.16 555.484 681.858 558.68 678.213 562.747C674.568 566.67 671.724 571.464 669.683 577.129C667.641 582.649 666.621 588.605 666.621 594.997C666.621 601.534 667.641 607.635 669.683 613.301C671.87 618.821 674.859 623.615 678.65 627.682C682.442 631.75 686.889 634.946 691.992 637.27C697.242 639.594 702.856 640.756 708.834 640.756C717.437 640.756 724.874 638.36 731.144 633.566C737.559 628.772 741.788 622.671 743.829 615.262H705.553V583.666H784.293V594.343Z" fill="#8668FC"/>
<path d="M802.373 671.263V518.731H839.993V671.263H802.373Z" fill="#8668FC"/>
<path d="M907.495 671.263L848.658 518.731H889.341L929.804 632.258L970.924 518.731H1010.07L950.364 671.263H907.495Z" fill="#8668FC"/>
<path d="M385.881 594.343C385.881 605.674 383.985 616.206 380.194 625.939C376.403 635.672 371.153 644.098 364.446 651.216C357.738 658.189 349.646 663.709 340.168 667.776C330.836 671.699 320.702 673.66 309.766 673.66C298.538 673.66 287.966 671.626 278.051 667.558C268.281 663.491 259.751 657.971 252.461 650.998C245.316 643.88 239.629 635.527 235.4 625.939C231.318 616.351 229.276 606.037 229.276 594.997C229.276 583.957 231.318 573.643 235.4 564.055C239.629 554.467 245.316 546.187 252.461 539.214C259.605 532.096 268.063 526.503 277.832 522.435C287.602 518.368 298.027 516.334 309.109 516.334C321.795 516.334 333.898 518.949 345.417 524.179C356.936 529.263 366.269 536.526 373.414 545.969L346.948 568.849C342.136 562.457 336.45 557.663 329.888 554.467C323.472 551.271 316.546 549.673 309.109 549.673C303.277 549.673 297.809 550.835 292.705 553.16C287.748 555.484 283.446 558.68 279.801 562.747C276.155 566.67 273.312 571.464 271.271 577.129C269.229 582.649 268.208 588.605 268.208 594.997C268.208 601.534 269.229 607.635 271.271 613.301C273.458 618.821 276.447 623.615 280.238 627.682C284.029 631.75 288.477 634.946 293.58 637.27C298.829 639.594 304.443 640.756 310.422 640.756C319.025 640.756 326.461 638.36 332.731 633.566C339.147 628.772 343.376 622.671 345.417 615.262H307.141V583.666H385.881V594.343Z" fill="#8668FC"/>
<path d="M403.961 671.263V518.731H441.581V671.263H403.961Z" fill="#8668FC"/>
<path d="M509.082 671.263L450.246 518.731H490.928L531.392 632.258L572.512 518.731H611.663L551.952 671.263H509.082Z" fill="#8668FC"/>
<path d="M97.6561 765.343C97.6561 776.723 95.7599 787.3 91.9675 797.075C88.175 806.849 82.924 815.311 76.2143 822.46C69.5046 829.462 61.4093 835.006 51.9283 839.091C42.5931 843.03 32.4556 845 21.516 845C10.2846 845 -0.290436 842.957 -10.2091 838.872C-19.9818 834.787 -28.5148 829.244 -35.8079 822.241C-42.9551 815.092 -48.6438 806.703 -52.8738 797.075C-56.9579 787.446 -59 777.088 -59 766C-59 754.912 -56.9579 744.554 -52.8738 734.925C-48.6438 725.296 -42.9551 716.981 -35.8079 709.978C-28.6606 702.829 -20.2006 697.212 -10.4279 693.127C-0.65509 689.042 9.77405 687 20.8596 687C33.5496 687 45.6562 689.626 57.1793 694.878C68.7024 699.984 78.0376 707.279 85.1849 716.762L58.7108 739.74C53.8974 733.32 48.2088 728.506 41.645 725.296C35.227 722.087 28.2986 720.482 20.8596 720.482C15.0251 720.482 9.55527 721.649 4.45009 723.983C-0.509232 726.318 -4.81216 729.527 -8.45872 733.612C-12.1053 737.551 -14.9496 742.366 -16.9917 748.055C-19.0337 753.599 -20.0548 759.581 -20.0548 766C-20.0548 772.565 -19.0337 778.692 -16.9917 784.382C-14.8037 789.926 -11.8136 794.74 -8.02113 798.825C-4.22871 802.91 0.220078 806.12 5.32526 808.454C10.5763 810.788 16.192 811.956 22.1723 811.956C30.7782 811.956 38.2172 809.548 44.4893 804.734C50.9072 799.92 55.1372 793.792 57.1793 786.352H18.8904V754.62H97.6561V765.343Z" fill="#8668FC"/>
<path d="M115.742 842.593V689.407H153.375V842.593H115.742Z" fill="#8668FC"/>
<path d="M220.898 842.593L162.043 689.407H202.738L243.215 803.421L284.348 689.407H323.512L263.782 842.593H220.898Z" fill="#8668FC"/>
<path d="M1279.14 765.344C1279.14 776.723 1277.25 787.3 1273.46 797.075C1269.66 806.849 1264.41 815.311 1257.7 822.46C1250.99 829.463 1242.9 835.006 1233.42 839.091C1224.08 843.031 1213.94 845 1203 845C1191.77 845 1181.2 842.958 1171.28 838.873C1161.51 834.788 1152.97 829.244 1145.68 822.241C1138.53 815.092 1132.84 806.704 1128.61 797.075C1124.53 787.446 1122.49 777.088 1122.49 766C1122.49 754.912 1124.53 744.554 1128.61 734.925C1132.84 725.297 1138.53 716.981 1145.68 709.978C1152.83 702.829 1161.29 697.213 1171.06 693.128C1180.83 689.043 1191.26 687 1202.35 687C1215.04 687 1227.14 689.626 1238.67 694.878C1250.19 699.984 1259.53 707.279 1266.67 716.762L1240.2 739.74C1235.39 733.32 1229.7 728.506 1223.13 725.297C1216.71 722.087 1209.79 720.482 1202.35 720.482C1196.51 720.482 1191.04 721.649 1185.94 723.983C1180.98 726.318 1176.68 729.527 1173.03 733.612C1169.38 737.551 1166.54 742.366 1164.5 748.055C1162.45 753.599 1161.43 759.581 1161.43 766C1161.43 772.565 1162.45 778.693 1164.5 784.382C1166.68 789.926 1169.67 794.741 1173.47 798.826C1177.26 802.91 1181.71 806.12 1186.81 808.454C1192.06 810.789 1197.68 811.956 1203.66 811.956C1212.27 811.956 1219.7 809.548 1225.98 804.734C1232.39 799.92 1236.62 793.792 1238.67 786.352H1200.38V754.621H1279.14V765.344Z" fill="#8668FC"/>
<path d="M1297.23 842.593V689.407H1334.86V842.593H1297.23Z" fill="#8668FC"/>
<path d="M1402.39 842.593L1343.53 689.407H1384.23L1424.7 803.421L1465.84 689.407H1505L1445.27 842.593H1402.39Z" fill="#8668FC"/>
<path d="M886.042 765.344C886.042 776.723 884.146 787.3 880.353 797.075C876.561 806.849 871.31 815.311 864.6 822.46C857.89 829.463 849.795 835.006 840.314 839.091C830.979 843.031 820.841 845 809.901 845C798.67 845 788.095 842.958 778.176 838.873C768.404 834.788 759.871 829.244 752.578 822.241C745.43 815.092 739.742 806.704 735.512 797.075C731.428 787.446 729.385 777.088 729.385 766C729.385 754.912 731.428 744.554 735.512 734.925C739.742 725.297 745.43 716.981 752.578 709.978C759.725 702.829 768.185 697.213 777.958 693.128C787.73 689.043 798.16 687 809.245 687C821.935 687 834.042 689.626 845.565 694.878C857.088 699.984 866.423 707.279 873.57 716.762L847.096 739.74C842.283 733.32 836.594 728.506 830.031 725.297C823.613 722.087 816.684 720.482 809.245 720.482C803.411 720.482 797.941 721.649 792.836 723.983C787.876 726.318 783.573 729.527 779.927 733.612C776.28 737.551 773.436 742.366 771.394 748.055C769.352 753.599 768.331 759.581 768.331 766C768.331 772.565 769.352 778.693 771.394 784.382C773.582 789.926 776.572 794.741 780.364 798.826C784.157 802.91 788.606 806.12 793.711 808.454C798.962 810.789 804.577 811.956 810.558 811.956C819.164 811.956 826.603 809.548 832.875 804.734C839.293 799.92 843.523 793.792 845.565 786.352H807.276V754.621H886.042V765.344Z" fill="#8668FC"/>
<path d="M904.128 842.593V689.407H941.76V842.593H904.128Z" fill="#8668FC"/>
<path d="M1009.28 842.593L950.428 689.407H991.124L1031.6 803.421L1072.73 689.407H1111.9L1052.17 842.593H1009.28Z" fill="#8668FC"/>
<path d="M487.498 765.344C487.498 776.723 485.602 787.3 481.81 797.075C478.017 806.849 472.766 815.311 466.056 822.46C459.347 829.463 451.251 835.006 441.77 839.091C432.435 843.031 422.298 845 411.358 845C400.127 845 389.552 842.958 379.633 838.873C369.86 834.788 361.327 829.244 354.034 822.241C346.887 815.092 341.198 806.704 336.968 797.075C332.884 787.446 330.842 777.088 330.842 766C330.842 754.912 332.884 744.554 336.968 734.925C341.198 725.297 346.887 716.981 354.034 709.978C361.181 702.829 369.641 697.213 379.414 693.128C389.187 689.043 399.616 687 410.702 687C423.392 687 435.498 689.626 447.021 694.878C458.544 699.984 467.88 707.279 475.027 716.762L448.553 739.74C443.74 733.32 438.051 728.506 431.487 725.297C425.069 722.087 418.141 720.482 410.702 720.482C404.867 720.482 399.397 721.649 394.292 723.983C389.333 726.318 385.03 729.527 381.383 733.612C377.737 737.551 374.893 742.366 372.85 748.055C370.808 753.599 369.787 759.581 369.787 766C369.787 772.565 370.808 778.693 372.85 784.382C375.038 789.926 378.029 794.741 381.821 798.826C385.613 802.91 390.062 806.12 395.167 808.454C400.418 810.789 406.034 811.956 412.014 811.956C420.62 811.956 428.059 809.548 434.331 804.734C440.749 799.92 444.979 793.792 447.021 786.352H408.733V754.621H487.498V765.344Z" fill="#8668FC"/>
<path d="M505.585 842.593V689.407H543.217V842.593H505.585Z" fill="#8668FC"/>
<path d="M610.74 842.593L551.885 689.407H592.581L633.057 803.421L674.19 689.407H713.354L653.624 842.593H610.74Z" fill="#8668FC"/>
</g>
</svg>
