<svg width="273" height="838" viewBox="0 0 273 838" fill="none" xmlns="http://www.w3.org/2000/svg">
<g opacity="0.1">
<path d="M10.0928 279.987C9.07337 279.988 8.0649 279.988 7.07243 279.987L1.17609e-07 279.979L0 347.924C3.24635 353.053 6.79762 358.021 10.6528 362.815L10.6553 362.818C12.5396 365.16 14.6568 367.575 16.5732 369.761L16.5748 369.763L16.5758 369.764L16.5765 369.765L16.5791 369.768L16.5849 369.774C17.4506 370.762 18.2752 371.703 19.0186 372.569L19.2916 372.887L25.2592 378.856L26.8072 380.105L26.8174 380.113C28.1993 381.236 29.702 382.503 31.2896 383.842L31.2918 383.844L31.2927 383.845C35.1354 387.087 39.4759 390.748 43.8075 393.788L43.8093 393.789C104.623 436.445 186.331 432.554 242.545 384.221L242.547 384.22C254.589 373.862 264.734 362.31 273 349.624L273 327.152C264.112 345.608 251.586 361.867 235.343 375.839C182.979 420.861 106.849 424.506 50.1533 384.739C46.2365 381.99 42.5659 378.892 38.896 375.794L38.8939 375.792C37.1944 374.357 35.495 372.923 33.7714 371.523L32.6558 370.623L27.4015 365.367C26.4979 364.315 25.5833 363.272 24.669 362.229L24.6681 362.228C25.5828 363.271 26.4976 364.314 27.4015 365.367L32.6558 370.623L33.7714 371.523C35.4956 372.923 37.1952 374.357 38.8952 375.793C42.5653 378.891 46.2363 381.99 50.1533 384.739C106.849 424.506 182.979 420.861 235.343 375.839C251.587 361.867 264.112 345.607 273 327.15V280.048L245.857 279.954L243.606 288.089C235.56 317.175 218.71 340.107 193.133 355.567C151.992 380.421 98.1684 374.865 62.7796 342.21L62.7771 342.207C46.7937 327.448 35.2236 308.955 29.6284 288.199L27.4551 280.137L19.1083 280.024C16.098 279.984 13.0573 279.985 10.1082 279.987L10.0955 279.987H10.0928Z" fill="#5326EC"/>
<path d="M10.3006 556.017C9.28119 556.018 8.27272 556.018 7.28026 556.017L0.000742079 556.009L0.000401608 600.477L0.000736003 623.626C3.30298 628.871 6.9233 633.949 10.8606 638.845L10.8631 638.848C12.7474 641.19 14.8646 643.605 16.7811 645.791L16.7826 645.793L16.7836 645.794C17.6526 646.785 18.4805 647.73 19.2265 648.599L19.4994 648.917L25.467 654.886L27.0151 656.135L27.0252 656.143C28.4071 657.266 29.9098 658.533 31.4974 659.872L31.4996 659.874L31.5005 659.875C35.3433 663.117 39.6837 666.778 44.0153 669.818L44.0171 669.819C104.831 712.475 186.539 708.584 242.753 660.251L242.755 660.25C254.696 649.979 264.772 638.533 273 625.972L273 603.611C264.125 621.89 251.668 638.005 235.55 651.869C183.186 696.891 107.057 700.536 50.3612 660.769C46.4444 658.02 42.7739 654.922 39.1041 651.824L39.1032 651.823L39.1017 651.822C37.4022 650.387 35.7028 648.953 33.9792 647.553L32.8636 646.653L27.6093 641.397C26.7064 640.346 25.7927 639.304 24.879 638.262L24.8768 638.259L24.8759 638.258C25.7905 639.301 26.7055 640.344 27.6093 641.397L32.8636 646.653L33.9792 647.553C35.7034 648.953 37.4032 650.388 39.1032 651.823C42.7733 654.921 46.4441 658.02 50.3612 660.769C107.057 700.536 183.186 696.891 235.55 651.869C251.668 638.005 264.125 621.889 273 603.61L273 556.077L246.064 555.984L243.814 564.119C235.768 593.205 218.918 616.137 193.341 631.597C152.2 656.451 98.3762 650.895 62.9874 618.24L62.9849 618.237C47.0015 603.478 35.4314 584.985 29.8362 564.229L27.6629 556.167L19.3161 556.054C16.3009 556.013 13.2543 556.015 10.3006 556.017Z" fill="#5326EC"/>
<path d="M10.3003 0.0330026C9.28083 0.0336037 8.27236 0.0341839 7.27989 0.0330309L0.000863075 0.0249981L3.56058e-05 44.4931L0.00086468 44.495L0.000861691 67.6432C3.30297 72.8873 6.92314 77.9655 10.8603 82.8613L10.8628 82.8644C12.7476 85.2064 14.8655 87.6224 16.7823 89.8091L16.7832 89.8101L16.784 89.811L16.7868 89.8142L16.7917 89.8198L16.7961 89.8248C17.6605 90.8109 18.4838 91.7502 19.2261 92.6147L19.4991 92.9327L25.4667 98.9021L27.0147 100.151L27.0248 100.159C28.4068 101.282 29.9094 102.549 31.497 103.888L31.4993 103.89L31.5002 103.891C35.3429 107.133 39.6833 110.794 44.015 113.834L44.0167 113.835C104.83 156.491 186.539 152.6 242.753 104.267L242.755 104.266C254.696 93.9947 264.771 82.5491 273 69.9876V47.6269C264.124 65.9063 251.668 82.0211 235.55 95.885C183.186 140.907 107.057 144.552 50.3608 104.785C46.4439 102.036 42.7734 98.9377 39.1035 95.8397L39.1013 95.8379C37.4018 94.4033 35.7024 92.9688 33.9788 91.5692L32.8633 90.6691L27.6089 85.4131C26.7062 84.3617 25.7925 83.3198 24.8789 82.2782L24.8756 82.2744C25.7902 83.3172 26.7051 84.3605 27.6089 85.4131L32.8633 90.6691L33.9788 91.5692C35.703 92.9692 37.4027 94.4035 39.1028 95.8386C42.7728 98.9367 46.4438 102.036 50.3608 104.785C107.057 144.552 183.186 140.907 235.55 95.885C251.668 82.021 264.124 65.9052 273 47.6256V0.0932709L246.064 0L243.814 8.13474C235.768 37.2207 218.917 60.1527 193.341 75.613C152.2 100.467 98.3759 94.911 62.987 62.2557L62.9845 62.2535C47.0012 47.494 35.4311 29.0006 29.8359 8.2447L27.6625 0.182554L19.3157 0.0701239C16.3005 0.0295179 13.2539 0.0312872 10.3003 0.0330026Z" fill="#5326EC"/>
<path d="M107.346 148.512C99.2999 177.598 82.4494 200.53 56.8727 215.99C39.4073 226.541 19.6562 231.612 7.54521e-05 231.455L8.60747e-05 272.679C35.4231 272.881 70.7347 260.634 99.0818 236.261C124.267 214.599 140.512 187.44 148.124 155.116C148.309 154.331 148.474 153.541 148.641 152.742C148.722 152.352 148.804 151.961 148.889 151.567C148.805 151.956 148.724 152.344 148.644 152.73L148.641 152.742L148.641 152.744C148.474 153.542 148.308 154.332 148.124 155.116C147.528 157.646 146.88 160.144 146.178 162.611C137.915 191.658 122.296 216.294 99.0818 236.261C70.7347 260.634 35.4231 272.881 8.60747e-05 272.679L6.02117e-05 283.733C37.9932 283.935 75.8705 270.795 106.285 244.645L106.287 244.643C133.282 221.422 150.744 192.2 158.88 157.651L158.88 157.649C159.097 156.728 159.316 155.683 159.496 154.822L159.497 154.815C159.569 154.471 159.635 154.157 159.692 153.892L162.56 140.56L109.596 140.377L107.346 148.512Z" fill="#5326EC"/>
<path d="M154.589 232.992L154.862 233.31L160.829 239.279L162.378 240.528L162.388 240.536C163.77 241.659 165.273 242.927 166.861 244.266L166.863 244.268C170.706 247.51 175.046 251.171 179.378 254.211L179.38 254.212C207.628 274.026 240.384 283.796 273 283.735V272.682V272.68L273 242.511L273 231.458C245.961 231.528 219.013 221.7 198.35 202.633L198.347 202.631C182.364 187.871 170.794 169.378 165.199 148.622L163.025 140.56L154.679 140.447C151.663 140.407 148.617 140.408 145.663 140.41C144.644 140.411 143.635 140.411 142.643 140.41L110.814 140.375L113.587 153.696C118.904 179.246 129.809 202.828 146.223 223.238L146.226 223.241C148.11 225.583 150.228 227.999 152.145 230.186L152.146 230.187L152.147 230.188C153.016 231.179 153.843 232.123 154.589 232.992Z" fill="#5326EC"/>
<path d="M107.346 425.954C99.2999 455.04 82.4494 477.972 56.8727 493.432C39.4073 503.983 19.6562 509.054 7.54521e-05 508.897L7.84491e-05 550.121C35.423 550.323 70.7347 538.076 99.0818 513.703C124.267 492.041 140.512 464.882 148.124 432.558C148.309 431.774 148.474 430.983 148.641 430.184C148.722 429.795 148.804 429.403 148.889 429.009C148.805 429.399 148.724 429.786 148.644 430.172L148.641 430.184L148.641 430.186C148.474 430.984 148.308 431.774 148.124 432.558C147.528 435.088 146.88 437.587 146.178 440.053C137.915 469.1 122.296 493.736 99.0818 513.703C70.7347 538.076 35.423 550.323 7.84491e-05 550.121L6.02117e-05 561.175C37.9932 561.377 75.8705 548.237 106.285 522.087L106.287 522.085C133.282 498.865 150.744 469.642 158.88 435.093L158.88 435.091C159.097 434.17 159.316 433.125 159.496 432.264L159.497 432.258C159.569 431.914 159.635 431.599 159.692 431.334L162.56 418.003L109.596 417.819L107.346 425.954Z" fill="#5326EC"/>
<path fill-rule="evenodd" clip-rule="evenodd" d="M154.589 510.434L154.862 510.752L160.83 516.721L162.378 517.97L162.388 517.979C163.77 519.101 165.273 520.369 166.861 521.708L166.863 521.71C170.706 524.952 175.046 528.613 179.378 531.653L179.38 531.654C207.628 551.468 240.384 561.239 273 561.177V550.124C242.601 550.185 212.065 541.08 185.724 522.604C181.807 519.855 178.136 516.757 174.466 513.659L174.465 513.657C172.765 512.223 171.065 510.788 169.342 509.388L168.226 508.488L162.972 503.232C162.068 502.18 161.154 501.138 160.24 500.095L160.238 500.093C161.152 501.136 162.068 502.18 162.972 503.232L168.226 508.488L169.342 509.388C171.066 510.788 172.766 512.224 174.466 513.659C178.136 516.757 181.807 519.855 185.724 522.604C212.065 541.08 242.601 550.185 273 550.124V508.901C245.961 508.97 219.013 499.142 198.35 480.075L198.347 480.073C182.364 465.313 170.794 446.82 165.199 426.064L163.025 418.002L154.679 417.889C151.663 417.849 148.617 417.85 145.663 417.852C144.644 417.853 143.635 417.853 142.643 417.852L110.814 417.817L113.587 431.138C118.904 456.688 129.809 480.27 146.223 500.68L146.226 500.684C148.11 503.025 150.228 505.441 152.145 507.628L152.146 507.629L152.147 507.63C153.016 508.621 153.843 509.565 154.589 510.434Z" fill="#5326EC"/>
<path d="M107.346 702.384C99.2999 731.47 82.4494 754.402 56.8727 769.862C39.4073 780.414 19.6562 785.484 7.54521e-05 785.328L8.60747e-05 826.551C35.4231 826.753 70.7347 814.506 99.0818 790.134C124.267 768.471 140.512 741.312 148.124 708.988C148.309 708.204 148.474 707.413 148.641 706.615C148.722 706.225 148.804 705.833 148.889 705.439C148.805 705.829 148.724 706.216 148.644 706.602L148.641 706.615L148.641 706.616C148.474 707.415 148.308 708.204 148.124 708.988C147.528 711.518 146.88 714.017 146.178 716.483C137.915 745.53 122.296 770.166 99.0818 790.134C70.7347 814.506 35.4231 826.753 8.60747e-05 826.551L6.02117e-05 837.605C37.9932 837.807 75.8705 824.667 106.285 798.517L106.287 798.515C133.282 775.295 150.744 746.072 158.88 711.523L158.88 711.522C159.097 710.6 159.316 709.555 159.496 708.694L159.497 708.688C159.569 708.344 159.635 708.029 159.692 707.764L162.56 694.433L109.596 694.249L107.346 702.384Z" fill="#5326EC"/>
<path fill-rule="evenodd" clip-rule="evenodd" d="M154.589 786.864L154.862 787.182L160.83 793.151L162.378 794.4L162.388 794.409C163.77 795.531 165.273 796.799 166.861 798.138L166.863 798.14C170.706 801.382 175.046 805.043 179.378 808.083L179.38 808.084C207.628 827.898 240.384 837.669 273 837.607V826.554C242.601 826.616 212.065 817.51 185.724 799.034C181.807 796.285 178.136 793.187 174.466 790.089L174.465 790.088C172.765 788.653 171.065 787.218 169.342 785.819L168.226 784.918L162.972 779.662C162.068 778.61 161.154 777.568 160.24 776.526L160.238 776.523C161.152 777.566 162.068 778.61 162.972 779.662L168.226 784.918L169.342 785.819C171.066 787.219 172.766 788.654 174.466 790.089C178.136 793.187 181.807 796.285 185.724 799.034C212.065 817.51 242.601 826.616 273 826.554V785.331C245.961 785.4 219.013 775.572 198.35 756.505L198.347 756.503C182.364 741.743 170.794 723.25 165.199 702.494L163.025 694.432L154.679 694.319C151.663 694.279 148.617 694.281 145.663 694.282C144.644 694.283 143.635 694.284 142.643 694.282L110.814 694.247L113.587 707.569C118.904 733.118 129.809 756.7 146.223 777.111L146.226 777.114C148.11 779.456 150.228 781.871 152.145 784.058L152.146 784.059L152.147 784.06C153.016 785.051 153.843 785.995 154.589 786.864Z" fill="#5326EC"/>
</g>
</svg>
