<svg width="32" height="32" viewBox="0 0 32 32" fill="none" xmlns="http://www.w3.org/2000/svg">
<g clip-path="url(#clip0_4767_67604)">
<path d="M7.61505 18.0334L8.46168 11.6723L1.11816 6.57441L7.82784 8.84719L9.41245 6.41595L15.1985 2.82568L27.9523 9.85228L28.6134 20.5733L22.9314 28.4691L18.4402 29.1573L20.7628 24.906V20.8132L19.074 17.6169L17.3581 16.4805L14.7186 19.2015V22.0809L12.6586 24.0096L10.0418 24.3265L8.88274 24.983L6.98121 24.3763L6.18891 21.524L7.61505 19.5184V18.0334Z" fill="white"/>
<path d="M19.3414 6.52039C17.9424 6.23064 16.4121 6.3076 16.4121 6.3076C16.4121 6.3076 15.9096 8.63018 12.7947 9.24139C12.8173 9.24139 16.9101 10.6404 19.3414 6.52039Z" fill="#94A6C3"/>
<path d="M20.609 27.5954C22.2978 26.2734 23.5655 24.4534 24.1495 22.3934C24.1767 22.3164 24.4121 22.1806 24.5705 22.0765C24.8331 21.918 25.1003 21.7867 25.1501 21.5739C25.2542 20.9672 25.3085 20.3334 25.3085 19.6996C25.3085 19.4641 25.0686 19.2242 24.8331 18.9888C24.6475 18.8303 24.4619 18.6447 24.4619 18.5134C24.1993 16.1093 23.0901 13.8637 21.3198 12.2293L21.1342 12.4149C22.8501 14.0267 23.9593 16.218 24.1993 18.5405C24.2265 18.7533 24.4347 18.9616 24.6475 19.1744C24.8331 19.3328 25.0459 19.5728 25.0459 19.6769C25.0459 20.2836 24.9916 20.8903 24.8875 21.497C24.8603 21.6011 24.6249 21.7097 24.4393 21.8139C24.1767 21.9452 23.9367 22.0765 23.8869 22.2893C23.2531 24.5349 21.7998 26.4907 19.8711 27.7584C20.2151 27.0204 21.2972 24.6164 21.8767 23.3985L21.7726 19.4913L18.4177 16.2451L16.5162 16.5077L14.4291 19.8897C14.4291 19.8897 15.407 21.1302 14.0306 22.5835C12.686 24.0097 11.6266 24.3266 11.6266 24.3266L10.6486 23.7969C10.9384 23.4257 11.5224 22.8733 11.9707 22.5021C12.7358 21.8682 13.5009 21.8139 13.5009 21.1302C13.5326 19.6996 11.9978 20.0934 11.9978 20.0934L11.4409 20.6232L11.2055 22.579L10.0465 24.0323L9.9152 24.0052L8.01367 23.5841C8.01367 23.5841 9.17723 22.9774 9.36285 22.2893C9.54848 21.6283 8.9916 19.437 8.96444 19.3057C8.9916 19.3328 9.52131 19.7811 9.75674 20.519C10.1778 19.3555 10.7347 18.2462 10.8931 18.1421C11.0516 18.038 13.1885 16.9016 13.1885 16.9016L12.4777 18.776L13.0074 18.4862L14.2751 15.3713C14.2751 15.3713 15.5157 14.7646 16.4393 14.7646C18.1008 14.7375 20.5592 12.7047 19.45 9.06006C19.7669 9.19135 25.2587 11.9395 26.2095 17.3272C26.9203 21.4698 24.5705 25.3498 20.609 27.5954Z" fill="#94A6C3"/>
<path d="M14.3248 7.09982C14.9315 6.38449 14.6961 5.32959 14.6961 5.32959L12.9259 7.94645C12.8987 7.94645 13.5552 7.97362 14.3248 7.09982Z" fill="#1B314F"/>
<path d="M8.38037 21.3884L8.59316 20.3335C8.59316 20.3335 7.71936 21.8638 7.6424 22.0766C7.5609 22.3165 7.69672 22.7376 8.03628 22.7104C8.38037 22.6832 8.80142 22.1807 8.80142 21.814C8.80142 21.3386 8.38037 21.3884 8.38037 21.3884Z" fill="#1B314F"/>
<path d="M24.068 4.5915C24.068 4.5915 25.39 4.64583 26.7618 4.80429C23.6696 2.37305 20.7403 1.66224 18.3634 1.66224C15.0901 1.66224 12.8716 3.01142 12.7358 3.08839L13.768 1.44945C13.768 1.44945 9.64806 1.05104 8.19475 5.41097C7.8235 4.48737 7.48394 3.13819 7.48394 3.13819C7.48394 3.13819 5.34246 5.01708 6.34755 8.13197C3.88915 7.23553 0.380374 5.99048 0.24455 5.96785C0.0589247 5.94068 0.00459533 6.02218 0.00459533 6.02218C0.00459533 6.02218 -0.049734 6.09914 0.108727 6.23497C0.403011 6.46587 5.94913 10.5632 7.16702 11.3555C6.90443 12.3063 6.90443 12.7545 7.16702 13.2027C7.53827 13.8094 7.5609 14.1263 7.5111 14.5745C7.45677 15.0227 6.98139 18.9073 6.87726 19.3827C6.77313 19.8581 5.6639 21.5468 5.71371 22.0493C5.76804 22.5519 6.45168 24.6888 7.06289 24.9288C7.5111 25.0873 8.62033 25.4313 9.3583 25.4313C9.62089 25.4313 9.86085 25.377 9.96498 25.2729C10.4132 24.879 10.5445 24.7975 10.8614 24.7975C10.8886 24.7975 10.9157 24.7975 10.9384 24.7975C11.0697 24.7975 11.2281 24.8247 11.4138 24.8247C11.8348 24.8247 12.3917 24.7432 12.7856 24.3765C13.3651 23.7969 14.3702 23.0046 14.6871 22.6334C15.0855 22.1308 15.2938 21.4472 15.1897 20.759C15.1082 20.1252 15.4522 19.5683 15.8507 19.016C16.3532 18.3549 17.2768 17.1688 17.2768 17.1688C19.1014 18.536 20.2378 20.6232 20.2378 22.9458C20.2378 27.0658 16.6475 30.3934 12.2106 30.3934C11.5224 30.3934 10.8659 30.3165 10.2049 30.158C12.2378 30.8688 13.9537 31.1088 15.3572 31.1088C18.3408 31.1088 19.9254 30.0267 19.9254 30.0267C19.9254 30.0267 19.373 30.742 18.4721 31.557C18.4992 31.557 18.4992 31.557 18.4992 31.557C23.4387 30.8688 25.8427 26.8032 25.8427 26.8032C25.8427 26.8032 25.6571 28.1252 25.4217 29.0216C31.991 24.0822 30.8818 17.9022 30.8546 17.6939C30.909 17.7709 31.57 18.5632 31.9095 18.9888C32.9689 8.1048 24.068 4.5915 24.068 4.5915ZM13.9537 21.9724C13.8495 22.1037 13.4013 22.5021 13.0844 22.7918C12.7675 23.0816 12.4234 23.3714 12.1608 23.6385C12.0567 23.7426 11.8439 23.7969 11.5269 23.7969C11.4228 23.7969 11.3142 23.7969 11.2372 23.7969C11.1829 23.7969 11.1331 23.7969 11.0787 23.7969C11.0244 23.7969 10.9972 23.7969 10.9746 23.7969C10.8931 23.7969 10.8161 23.7969 10.7346 23.7969C11.1331 23.2672 12.2921 22.0539 12.6905 21.7913C13.1659 21.4744 13.4058 21.1574 13.1116 20.6051C12.8218 20.0482 12.0567 20.184 12.0567 20.184C12.0567 20.184 12.5049 19.9984 12.9033 19.9984C12.4007 19.8671 11.7669 19.9984 11.4771 20.2882C11.1602 20.5779 11.2146 21.6102 11.0833 22.2667C10.952 22.9548 10.5037 23.2989 9.81557 23.9328C9.44432 24.2768 9.18173 24.381 8.96894 24.381C8.52072 24.304 7.99101 24.1682 7.61976 24.0369C7.35717 23.6928 6.95875 22.5564 6.85462 22.081C6.93159 21.8184 7.24851 21.2616 7.40697 20.9446C7.72389 20.338 7.90952 19.9939 7.96385 19.677C8.06798 19.2287 8.41207 16.4534 8.54336 15.2944C8.88745 15.7426 9.36283 16.4851 9.25417 16.9605C10.0193 15.8784 9.46696 14.819 9.19984 14.398C8.96441 13.9769 8.64749 13.1303 8.91008 12.2338C9.17268 11.3374 10.1234 8.85183 10.1234 8.85183C10.1234 8.85183 10.4404 9.40871 10.8886 9.30005C11.3368 9.19592 14.9542 3.75393 14.9542 3.75393C14.9542 3.75393 15.9322 5.89088 14.8999 7.45285C13.845 9.01029 12.8127 9.30005 12.8127 9.30005C12.8127 9.30005 14.2661 9.56264 15.6107 8.58471C16.1631 9.87956 16.6928 11.2242 16.7199 11.4098C16.6384 11.5955 15.5835 14.1308 15.4794 14.2893C15.4251 14.3436 15.0584 14.4478 14.7912 14.5021C14.343 14.6334 14.0804 14.7149 13.9718 14.7918C13.7861 14.9503 12.9395 17.2729 12.5456 18.4093C12.0702 18.5406 11.5949 18.8077 11.2508 19.3329C11.4364 19.2016 12.0159 19.1201 12.4415 19.0703C12.8127 19.0431 13.9446 19.6498 14.2389 20.7862C14.2389 20.8133 14.2389 20.8133 14.2389 20.8405C14.2977 21.257 14.1665 21.6555 13.9537 21.9724ZM11.4726 22.2893C11.7126 21.9452 11.6854 21.3657 11.7126 21.1801C11.7397 20.9944 11.7895 20.6504 12.0023 20.6006C12.2151 20.5462 12.7177 20.6277 12.7177 20.9944C12.7177 21.3385 12.3464 21.4155 12.0838 21.6555C11.8937 21.8366 11.5224 22.235 11.4726 22.2893ZM22.008 17.2412C22.2706 15.8965 22.2977 14.733 22.2208 13.7822C23.2485 15.154 23.8824 16.8201 24.068 18.536C24.0951 18.7488 24.3034 18.9571 24.5162 19.1699C24.7018 19.3283 24.9146 19.5411 24.9146 19.6724C24.9146 20.2791 24.8603 20.8858 24.7562 21.497C24.729 21.574 24.4936 21.7098 24.3079 21.8139C24.0453 21.9452 23.8054 22.0765 23.7556 22.2893C23.1761 24.3221 21.931 26.1195 20.2695 27.3872C22.7233 24.8247 23.9095 20.596 22.008 17.2412ZM20.3464 27.6226C22.0623 26.3006 23.3843 24.4534 23.9638 22.3663C23.991 22.2893 24.2264 22.1535 24.3849 22.0493C24.6475 21.918 24.9146 21.7596 24.9644 21.5468C25.0685 20.9401 25.1229 20.3063 25.1229 19.6724C25.1229 19.437 24.8829 19.1971 24.6475 18.9616C24.5162 18.8032 24.3034 18.6175 24.3034 18.4862C24.0906 16.5575 23.3255 14.7375 22.1393 13.2299C21.6096 10.0607 19.4998 9.08273 19.4455 9.05557C19.4998 9.13706 20.8716 11.1156 19.9208 13.4381C18.9429 15.7879 16.4347 15.4212 16.2219 15.4438C16.0091 15.4438 15.1942 16.4987 14.1619 18.4545C14.0306 18.4002 13.4738 18.2689 12.8399 18.3776C13.3153 17.0556 14.0306 15.1812 14.1619 15.0227C14.2163 14.9684 14.6101 14.8643 14.8773 14.7873C15.3798 14.656 15.6152 14.5745 15.6967 14.4704C15.7511 14.3889 16.0137 13.7822 16.2762 13.1484C16.5162 13.1484 17.1229 13.0941 17.1727 13.0669C17.227 13.0126 17.7296 11.7222 17.7296 11.5638C17.7296 11.4325 16.6973 8.86994 16.3034 7.89201C16.489 7.67922 16.6747 7.41663 16.8558 7.12687C22.2706 7.71091 26.4992 12.3063 26.4992 17.875C26.4992 22.1535 23.991 25.8796 20.3464 27.6226Z" fill="#1B314F"/>
<path d="M13.3197 13.3613C13.8222 12.7818 13.5596 11.6997 12.6315 11.5141C12.8715 10.9618 13.211 9.85254 13.211 9.85254C13.211 9.85254 10.5172 14.0766 10.2818 14.1581C10.0418 14.2396 9.80638 13.3115 9.80638 13.3115C9.30383 15.2402 10.653 15.5028 10.8115 14.8961C11.5494 14.706 12.8171 13.9137 13.3197 13.3613Z" fill="#1B314F"/>
<path d="M11.0198 14.3888L12.3916 12.0391C12.3916 12.0391 13.1839 12.4375 12.7855 13.0713C12.2875 13.8093 11.0198 14.3888 11.0198 14.3888Z" fill="#FFD923"/>
<path d="M28.0022 25.2727C27.6038 25.8024 27.1556 26.3548 26.6304 26.8845C30.035 20.3333 26.7888 14.3389 26.6575 14.1035C26.8975 14.3435 27.1329 14.6061 27.3457 14.8415C29.958 17.7436 30.275 22.1035 28.0022 25.2727Z" fill="#D82122"/>
<path d="M31.1715 16.8473C29.9808 13.6509 28.292 10.9299 24.5705 8.47604C20.9802 6.09913 17.1228 6.28475 16.91 6.31192C16.8829 6.31192 16.8557 6.31192 16.8557 6.31192C16.987 6.25759 17.1183 6.23042 17.2496 6.20779C18.0691 5.9452 19.124 5.73241 20.1834 5.60111C22.9859 5.19817 25.811 6.14893 27.7397 8.18628C27.7669 8.21345 27.7669 8.21345 27.794 8.24061C29.9853 10.5632 31.1217 13.4653 31.1715 16.8473Z" fill="#D82122"/>
<path d="M23.7239 3.7719C19.7895 3.03392 17.2542 3.40065 15.4296 4.08882C15.3753 3.87603 15.1896 3.45498 15.0312 3.11089C14.4834 3.7719 13.8993 4.5642 13.5326 5.06675C12.5275 5.75492 12.1064 6.41593 12.1064 6.41593C12.686 4.43291 14.3792 2.95696 16.4392 2.58571C17.0187 2.48158 17.6526 2.42725 18.3407 2.42725C20.1608 2.45441 21.9808 2.90263 23.7239 3.7719Z" fill="#D82122"/>
<path d="M9.17261 8.84273C6.08489 8.7386 7.11262 5.14381 7.16695 4.93555C7.16695 4.96271 7.37521 7.76067 9.17261 8.84273Z" fill="#D82122"/>
<path d="M12.2104 2.37305C9.8335 3.79919 10.3089 7.20383 10.3089 7.20383C8.0361 3.74939 12.0248 2.45454 12.2104 2.37305Z" fill="#D82122"/>
<path d="M8.3034 9.79359C8.46187 9.92488 8.62033 10.1648 8.4347 10.5089C8.33057 10.6946 8.17211 10.6674 7.93215 10.5633C7.61523 10.4048 5.71371 9.29557 3.9978 8.15918C5.95366 8.84735 7.93215 9.58533 8.24908 9.74379C8.24908 9.74379 8.27624 9.77095 8.3034 9.79359Z" fill="white"/>
</g>
<defs>
<clipPath id="clip0_4767_67604">
<rect width="32" height="32" fill="white"/>
</clipPath>
</defs>
</svg>
