<svg width="32" height="32" viewBox="0 0 32 32" fill="none" xmlns="http://www.w3.org/2000/svg">
<g clip-path="url(#clip0_4767_67382)">
<path d="M16 31.52C24.5714 31.52 31.52 24.5714 31.52 16C31.52 7.42852 24.5714 0.47998 16 0.47998C7.42852 0.47998 0.47998 7.42852 0.47998 16C0.47998 24.5714 7.42852 31.52 16 31.52Z" fill="url(#paint0_linear_4767_67382)"/>
<path d="M22.7919 22.184L17.5439 9.49602C17.2479 8.84002 16.8079 8.52002 16.2279 8.52002H15.7639C15.1839 8.52002 14.7439 8.84002 14.4479 9.49602L12.1639 15.024H10.4359C9.91987 15.028 9.49987 15.444 9.49587 15.964V15.976C9.49987 16.492 9.91987 16.912 10.4359 16.916H11.3639L9.18387 22.184C9.14387 22.3 9.11987 22.42 9.11987 22.544C9.11987 22.84 9.21187 23.072 9.37587 23.252C9.53987 23.432 9.77587 23.52 10.0719 23.52C10.2679 23.516 10.4559 23.456 10.6119 23.34C10.7799 23.224 10.8959 23.056 10.9879 22.864L13.3879 16.912H15.0519C15.5679 16.908 15.9879 16.492 15.9919 15.972V15.948C15.9879 15.432 15.5679 15.012 15.0519 15.008H14.1639L15.9959 10.444L20.9879 22.86C21.0799 23.052 21.1959 23.22 21.3639 23.336C21.5199 23.452 21.7119 23.512 21.9039 23.516C22.1999 23.516 22.4319 23.428 22.5999 23.248C22.7679 23.068 22.8559 22.836 22.8559 22.54C22.8599 22.42 22.8399 22.296 22.7919 22.184Z" fill="white"/>
</g>
<defs>
<linearGradient id="paint0_linear_4767_67382" x1="27.5715" y1="6.26344" x2="4.47771" y2="25.6945" gradientUnits="userSpaceOnUse">
<stop stop-color="#B6509E"/>
<stop offset="1" stop-color="#2EBAC6"/>
</linearGradient>
<clipPath id="clip0_4767_67382">
<rect width="32" height="32" fill="white"/>
</clipPath>
</defs>
</svg>
