<svg width="32" height="32" viewBox="0 0 32 32" fill="none" xmlns="http://www.w3.org/2000/svg">
<g clip-path="url(#clip0_174_4438)">
<path d="M16 31.52C24.5715 31.52 31.52 24.5714 31.52 16C31.52 7.42852 24.5715 0.47998 16 0.47998C7.42855 0.47998 0.480011 7.42852 0.480011 16C0.480011 24.5714 7.42855 31.52 16 31.52Z" fill="url(#paint0_linear_174_4438)"/>
<path d="M22.792 22.184L17.544 9.49602C17.248 8.84002 16.808 8.52002 16.228 8.52002H15.764C15.184 8.52002 14.744 8.84002 14.448 9.49602L12.164 15.024H10.436C9.92003 15.028 9.50003 15.444 9.49603 15.964V15.976C9.50003 16.492 9.92003 16.912 10.436 16.916H11.364L9.18403 22.184C9.14403 22.3 9.12003 22.42 9.12003 22.544C9.12003 22.84 9.21203 23.072 9.37603 23.252C9.54003 23.432 9.77603 23.52 10.072 23.52C10.268 23.516 10.456 23.456 10.612 23.34C10.78 23.224 10.896 23.056 10.988 22.864L13.388 16.912H15.052C15.568 16.908 15.988 16.492 15.992 15.972V15.948C15.988 15.432 15.568 15.012 15.052 15.008H14.164L15.996 10.444L20.988 22.86C21.08 23.052 21.196 23.22 21.364 23.336C21.52 23.452 21.712 23.512 21.904 23.516C22.2 23.516 22.432 23.428 22.6 23.248C22.768 23.068 22.856 22.836 22.856 22.54C22.86 22.42 22.84 22.296 22.792 22.184Z" fill="white"/>
</g>
<defs>
<linearGradient id="paint0_linear_174_4438" x1="27.5715" y1="6.26344" x2="4.47774" y2="25.6945" gradientUnits="userSpaceOnUse">
<stop stop-color="#B6509E"/>
<stop offset="1" stop-color="#2EBAC6"/>
</linearGradient>
<clipPath id="clip0_174_4438">
<rect width="32" height="32" fill="white"/>
</clipPath>
</defs>
</svg>
