<svg width="32" height="32" viewBox="0 0 32 32" fill="none" xmlns="http://www.w3.org/2000/svg">
<g clip-path="url(#clip0_174_4405)">
<path d="M15.9871 31.4584C24.5317 31.4584 31.4585 24.5316 31.4585 15.987C31.4585 7.4424 24.5317 0.515625 15.9871 0.515625C7.4425 0.515625 0.515717 7.4424 0.515717 15.987C0.515717 24.5316 7.4425 31.4584 15.9871 31.4584Z" fill="#F2E3EE"/>
<path d="M15.9871 31.9742C24.8165 31.9742 31.9742 24.8165 31.9742 15.9871C31.9742 7.15767 24.8165 0 15.9871 0C7.15767 0 0 7.15767 0 15.9871C0 24.8165 7.15767 31.9742 15.9871 31.9742Z" fill="#D9327C"/>
<path fill-rule="evenodd" clip-rule="evenodd" d="M15.3682 8.43181C15.2393 8.53495 15.0846 8.71545 14.9815 9.05066C14.8783 9.38588 14.311 11.0362 13.589 13.099H18.411C17.689 11.0362 17.1217 9.38588 17.0185 9.05066C16.9154 8.71545 16.7607 8.53495 16.6317 8.43181C16.5028 8.32866 16.3223 8.25131 15.9871 8.25131C15.6519 8.25131 15.4972 8.32866 15.3682 8.43181ZM8.2514 13.099H11.5262C12.3255 10.7525 13.0217 8.79281 13.1249 8.43181C13.3312 7.81295 13.6664 7.27145 14.1821 6.88467C14.6978 6.49788 15.3167 6.31738 15.9613 6.31738C16.606 6.31738 17.2248 6.4721 17.7405 6.88467C18.2562 7.27145 18.5915 7.81295 18.7977 8.43181C18.9267 8.79281 19.5971 10.7267 20.3964 13.099H23.7228C24.2643 13.099 24.7026 13.5374 24.7026 14.0789C24.7026 14.6204 24.2643 15.0587 23.7228 15.0587H21.1184H19.0814H12.9186H10.8815H8.2514C7.7099 15.0587 7.29733 14.6204 7.29733 14.0789C7.29733 13.5374 7.73569 13.099 8.2514 13.099ZM8.2514 16.9669C7.7099 16.9669 7.29733 17.4052 7.29733 17.9467C7.29733 18.4882 7.73569 18.9266 8.2514 18.9266H9.54068L9.02497 20.4221L8.50926 21.9177L8.30297 22.485C8.12247 23.0007 8.40612 23.5422 8.89604 23.7227C9.41176 23.9032 9.95326 23.6196 10.1338 23.1296L10.34 22.5623L10.8558 21.0668C11.062 20.4479 11.3199 19.7259 11.6035 18.9266H20.4222C20.6801 19.7001 20.9379 20.4479 21.17 21.0668L21.6857 22.5623L21.892 23.1296C22.0725 23.6453 22.614 23.9032 23.1297 23.7227C23.6454 23.5422 23.9033 23.0007 23.7228 22.485L23.5165 21.9177L23.0008 20.4221L22.4851 18.9266H23.7744C24.3159 18.9266 24.7542 18.4882 24.7542 17.9467C24.7542 17.4052 24.3159 16.9669 23.7744 16.9669H21.8147H19.7776H12.2998H10.2627H8.2514ZM22.7687 22.7686L23.6712 22.4592C23.6712 22.4592 23.6712 22.4592 22.7687 22.7686ZM22.7687 22.7686C21.8662 23.0781 21.8662 23.0781 21.8662 23.0781L22.7687 22.7686ZM9.23126 22.7686L10.1338 23.0781C10.1338 23.0781 10.1338 23.0781 9.23126 22.7686ZM9.23126 22.7686C8.32876 22.4592 8.32876 22.4592 8.32876 22.4592L9.23126 22.7686Z" fill="white"/>
</g>
<defs>
<clipPath id="clip0_174_4405">
<rect width="32" height="32" fill="white"/>
</clipPath>
</defs>
</svg>
