<svg width="32" height="32" viewBox="0 0 32 32" fill="none" xmlns="http://www.w3.org/2000/svg">
<path fill-rule="evenodd" clip-rule="evenodd" d="M18.12 0.48L28.6 5.84C30.12 6.64 31.08 8.16 31.08 9.92V12.4H27.24V9.92C27.24 9.68 27.08 9.44 26.84 9.28L16.36 3.92C16.2 3.84 15.96 3.84 15.72 3.92L5.24 9.28C5 9.36 4.84 9.6 4.84 9.92V12.4H1V9.92C1 8.24 1.96 6.64 3.48 5.84L13.96 0.48C15.24 -0.16 16.76 -0.16 18.12 0.48ZM19.32 15.84C19.32 14 17.8 12.56 16.04 12.56C14.2 12.56 12.76 14 12.76 15.84C12.76 17.68 14.28 19.12 16.04 19.12C17.8 19.12 19.32 17.68 19.32 15.84ZM26.76 22.72C27 22.64 27.16 22.4 27.16 22.08V19.6H31V22.08C31 23.76 30.04 25.36 28.52 26.16L18.04 31.52C17.4 31.84 16.68 32 15.96 32C15.24 32 14.52 31.84 13.88 31.52L3.48 26.16C1.96 25.36 1 23.84 1 22.08V19.6H4.84V22.08C4.84 22.32 5 22.56 5.24 22.72L14.12 27.2V22.72C11.08 21.84 8.92 19.12 8.92 15.84C8.92 11.92 12.12 8.64 16.12 8.64C20.04 8.64 23.32 11.84 23.32 15.84C23.32 19.12 21.08 21.92 18.12 22.72V27.2L26.76 22.72Z" fill="#245AE5" fill-opacity="0.9"/>
</svg>
