<svg width="32" height="32" viewBox="0 0 32 32" fill="none" xmlns="http://www.w3.org/2000/svg">
<g clip-path="url(#clip0_171_16364)">
<path d="M16 32C24.8366 32 32 24.8366 32 16C32 7.16344 24.8366 0 16 0C7.16344 0 0 7.16344 0 16C0 24.8366 7.16344 32 16 32Z" fill="url(#paint0_linear_171_16364)" fill-opacity="0.05"/>
<path d="M28.5 14.9402C28.61 12.6352 27 11.1052 25.18 10.0552L24 17.0002C24.2436 16.9663 24.4917 16.9854 24.7273 17.0562C24.9628 17.1269 25.1803 17.2477 25.365 17.4102C25.5766 17.6178 25.7031 17.8968 25.7197 18.1928C25.7363 18.4887 25.642 18.7802 25.455 19.0102C26.595 18.8202 28.37 17.7252 28.5 14.9402Z" fill="url(#paint1_linear_171_16364)"/>
<path fill-rule="evenodd" clip-rule="evenodd" d="M13 6.86477L11.6 5.44977C13.72 5.18977 19.315 5.51977 24.73 8.91477C24.7795 9.21776 24.7795 9.52678 24.73 9.82977L25.185 10.0598C25.5487 10.6631 25.7883 11.3331 25.8896 12.0302C25.9909 12.7274 25.952 13.4378 25.775 14.1198C25.305 15.9998 24.5 16.8298 24.14 16.9998C23.415 16.9998 22.18 17.4198 21.78 19.2798C21.38 21.1398 20.61 21.5448 20.28 21.5148L12.28 21.6098L6.99999 18.4998L6.23999 12.0648L7.73999 10.0648L10.42 7.87477L12.33 7.09477L13 6.86477ZM22.455 9.49977C22.2291 9.73922 21.9656 9.9402 21.675 10.0948C19.62 9.65477 18.875 8.59477 18.875 8.59477C20.6225 8.54257 22.3511 8.96782 23.875 9.82477C23.411 9.67915 22.9362 9.57048 22.455 9.49977V9.49977Z" fill="url(#paint2_linear_171_16364)"/>
<path fill-rule="evenodd" clip-rule="evenodd" d="M21.71 19.2801C20.188 20.0121 18.5188 20.3866 16.83 20.3751C11.785 20.3751 7.7 17.2051 7.7 13.3001C7.7 10.4101 9.93 7.93008 13.125 6.83008C7.045 7.18008 2.155 12.0651 2.155 18.0951C2.155 25.0551 8.36 30.8051 16 30.8051C18.6551 30.7831 21.2564 30.0539 23.536 28.6926C25.8157 27.3314 27.6914 25.3871 28.97 23.0601C25.545 23.8301 21.5 22.3651 21.71 19.2801Z" fill="url(#paint3_linear_171_16364)"/>
</g>
<defs>
<linearGradient id="paint0_linear_171_16364" x1="16" y1="11.195" x2="16" y2="32.42" gradientUnits="userSpaceOnUse">
<stop stop-color="#01E8F8"/>
<stop offset="1" stop-color="#01E8F8" stop-opacity="0"/>
</linearGradient>
<linearGradient id="paint1_linear_171_16364" x1="25.95" y1="12.0852" x2="26.66" y2="20.5702" gradientUnits="userSpaceOnUse">
<stop stop-color="#01E8F7"/>
<stop offset="1" stop-color="#00C2FF"/>
</linearGradient>
<linearGradient id="paint2_linear_171_16364" x1="11.975" y1="7.52477" x2="20.215" y2="20.6048" gradientUnits="userSpaceOnUse">
<stop stop-color="#01E8F7"/>
<stop offset="1" stop-color="#00B3EC"/>
</linearGradient>
<linearGradient id="paint3_linear_171_16364" x1="15.315" y1="13.6201" x2="16.05" y2="34.7301" gradientUnits="userSpaceOnUse">
<stop stop-color="#01E8F7"/>
<stop offset="1" stop-color="#00C2FF"/>
</linearGradient>
<clipPath id="clip0_171_16364">
<rect width="32" height="32" fill="white"/>
</clipPath>
</defs>
</svg>
