<svg width="32" height="32" viewBox="0 0 32 32" fill="none" xmlns="http://www.w3.org/2000/svg">
<g clip-path="url(#clip0_4767_68269)">
<path d="M16 32C24.8366 32 32 24.8366 32 16C32 7.16344 24.8366 0 16 0C7.16344 0 0 7.16344 0 16C0 24.8366 7.16344 32 16 32Z" fill="url(#paint0_linear_4767_68269)" fill-opacity="0.05"/>
<path d="M28.5 14.9399C28.61 12.6349 27 11.1049 25.18 10.0549L24 16.9999C24.2436 16.9661 24.4917 16.9852 24.7273 17.0559C24.9628 17.1267 25.1803 17.2474 25.365 17.4099C25.5766 17.6175 25.7031 17.8966 25.7197 18.1925C25.7363 18.4884 25.642 18.7799 25.455 19.0099C26.595 18.8199 28.37 17.7249 28.5 14.9399Z" fill="url(#paint1_linear_4767_68269)"/>
<path fill-rule="evenodd" clip-rule="evenodd" d="M13 6.86501L11.6 5.45001C13.72 5.19001 19.315 5.52001 24.73 8.91501C24.7795 9.218 24.7795 9.52702 24.73 9.83001L25.185 10.06C25.5487 10.6634 25.7883 11.3333 25.8896 12.0305C25.9909 12.7277 25.952 13.4381 25.775 14.12C25.305 16 24.5 16.83 24.14 17C23.415 17 22.18 17.42 21.78 19.28C21.38 21.14 20.61 21.545 20.28 21.515L12.28 21.61L6.99999 18.5L6.23999 12.065L7.73999 10.065L10.42 7.87501L12.33 7.09501L13 6.86501ZM22.455 9.50001C22.2291 9.73947 21.9656 9.94044 21.675 10.095C19.62 9.65501 18.875 8.59501 18.875 8.59501C20.6225 8.54282 22.3511 8.96807 23.875 9.82501C23.411 9.6794 22.9362 9.57073 22.455 9.50001Z" fill="url(#paint2_linear_4767_68269)"/>
<path fill-rule="evenodd" clip-rule="evenodd" d="M21.71 19.2801C20.188 20.0121 18.5189 20.3866 16.83 20.3751C11.785 20.3751 7.70003 17.2051 7.70003 13.3001C7.70003 10.4101 9.93003 7.93008 13.125 6.83008C7.04503 7.18008 2.15503 12.0651 2.15503 18.0951C2.15503 25.0551 8.36003 30.8051 16 30.8051C18.6551 30.7831 21.2564 30.0539 23.5361 28.6926C25.8157 27.3314 27.6914 25.3871 28.97 23.0601C25.545 23.8301 21.5 22.3651 21.71 19.2801Z" fill="url(#paint3_linear_4767_68269)"/>
</g>
<defs>
<linearGradient id="paint0_linear_4767_68269" x1="16" y1="11.195" x2="16" y2="32.42" gradientUnits="userSpaceOnUse">
<stop stop-color="#01E8F8"/>
<stop offset="1" stop-color="#01E8F8" stop-opacity="0"/>
</linearGradient>
<linearGradient id="paint1_linear_4767_68269" x1="25.95" y1="12.0849" x2="26.66" y2="20.5699" gradientUnits="userSpaceOnUse">
<stop stop-color="#01E8F7"/>
<stop offset="1" stop-color="#00C2FF"/>
</linearGradient>
<linearGradient id="paint2_linear_4767_68269" x1="11.975" y1="7.52501" x2="20.215" y2="20.605" gradientUnits="userSpaceOnUse">
<stop stop-color="#01E8F7"/>
<stop offset="1" stop-color="#00B3EC"/>
</linearGradient>
<linearGradient id="paint3_linear_4767_68269" x1="15.315" y1="13.6201" x2="16.05" y2="34.7301" gradientUnits="userSpaceOnUse">
<stop stop-color="#01E8F7"/>
<stop offset="1" stop-color="#00C2FF"/>
</linearGradient>
<clipPath id="clip0_4767_68269">
<rect width="32" height="32" fill="white"/>
</clipPath>
</defs>
</svg>
