<svg width="32" height="32" viewBox="0 0 32 32" fill="none" xmlns="http://www.w3.org/2000/svg">
<g clip-path="url(#clip0_4799_63933)">
<path d="M32 0H0V32H32V0Z" fill="black"/>
<path fill-rule="evenodd" clip-rule="evenodd" d="M4.0704 26.56H8.896L13.3248 9.77917L3.8784 26.2272C3.7504 26.3552 3.8784 26.56 4.0832 26.56H4.0704Z" fill="url(#paint0_linear_4799_63933)"/>
<path fill-rule="evenodd" clip-rule="evenodd" d="M25.7408 22.1312L8.83203 26.56H27.9296C28.1344 26.56 28.2624 26.3552 28.1344 26.2272L25.7536 22.1312H25.7408Z" fill="url(#paint1_linear_4799_63933)"/>
<path fill-rule="evenodd" clip-rule="evenodd" d="M23.1679 19.5584L25.7407 22.1312L16.1023 5.54241C16.0383 5.41441 15.7695 5.41441 15.7055 5.54241L13.2607 9.76641L23.1679 19.5456V19.5584Z" fill="url(#paint2_linear_4799_63933)"/>
<path fill-rule="evenodd" clip-rule="evenodd" d="M12.3392 25.6256V13.3376L8.83203 26.56L12.3392 25.6256Z" fill="url(#paint3_linear_4799_63933)"/>
<path fill-rule="evenodd" clip-rule="evenodd" d="M12.3392 13.3376L23.168 19.5584L13.2608 9.76636L12.3392 13.3376Z" fill="url(#paint4_linear_4799_63933)"/>
<path fill-rule="evenodd" clip-rule="evenodd" d="M12.3392 25.6255L25.7408 22.1311L23.168 19.5583L12.3392 25.6255Z" fill="url(#paint5_linear_4799_63933)"/>
<path fill-rule="evenodd" clip-rule="evenodd" d="M12.3392 25.6256L14.6432 24.3072L12.3392 15.9872V25.6256Z" fill="url(#paint6_linear_4799_63933)"/>
<path fill-rule="evenodd" clip-rule="evenodd" d="M23.168 19.5584L20.8512 18.2272L14.6432 24.3072L23.168 19.5584Z" fill="url(#paint7_linear_4799_63933)"/>
<path fill-rule="evenodd" clip-rule="evenodd" d="M12.3392 13.3505V15.9873L20.9408 18.2785L12.3392 13.3505Z" fill="url(#paint8_linear_4799_63933)"/>
<path fill-rule="evenodd" clip-rule="evenodd" d="M12.864 17.7664H17.7536H19.072L12.3392 15.9872L12.864 17.7664Z" fill="url(#paint9_linear_4799_63933)"/>
<path fill-rule="evenodd" clip-rule="evenodd" d="M12.7999 17.7664L14.6431 24.3072L15.9615 23.0528L13.5167 18.8928L12.7999 17.7664Z" fill="url(#paint10_linear_4799_63933)"/>
<path fill-rule="evenodd" clip-rule="evenodd" d="M19.0719 17.7664L15.9615 23.0528L20.8511 18.2272L19.0719 17.7664Z" fill="url(#paint11_linear_4799_63933)"/>
<path fill-rule="evenodd" clip-rule="evenodd" d="M17.7535 17.7664H12.7999L13.5167 18.9568L17.7535 17.7664Z" fill="url(#paint12_linear_4799_63933)"/>
<path fill-rule="evenodd" clip-rule="evenodd" d="M16.6271 21.9904L13.5167 18.9568L15.9615 23.1168L16.6271 21.9904Z" fill="url(#paint13_linear_4799_63933)"/>
<path fill-rule="evenodd" clip-rule="evenodd" d="M19.072 17.7664H17.7536L16.6272 21.9264L19.072 17.7664Z" fill="url(#paint14_linear_4799_63933)"/>
<path fill-rule="evenodd" clip-rule="evenodd" d="M4.07038 26.56H8.89598L13.2608 9.76636L3.86558 26.2272C3.73758 26.3552 3.86558 26.56 4.07038 26.56Z" fill="url(#paint15_linear_4799_63933)"/>
<path fill-rule="evenodd" clip-rule="evenodd" d="M25.7408 22.1312L8.83203 26.56H27.9296C28.1344 26.56 28.2624 26.3552 28.1344 26.2272L25.7536 22.1312H25.7408Z" fill="url(#paint16_linear_4799_63933)"/>
<path fill-rule="evenodd" clip-rule="evenodd" d="M23.1679 19.5584L25.7407 22.1312L16.1023 5.54241C16.0383 5.41441 15.7695 5.41441 15.7055 5.54241L13.2607 9.76641L23.1679 19.5456V19.5584Z" fill="url(#paint17_linear_4799_63933)"/>
<path fill-rule="evenodd" clip-rule="evenodd" d="M12.3392 25.6256V13.3376L8.83203 26.56L12.3392 25.6256Z" fill="url(#paint18_linear_4799_63933)"/>
<path fill-rule="evenodd" clip-rule="evenodd" d="M12.3392 25.6255L25.7408 22.1311L23.168 19.5583L12.3392 25.6255Z" fill="url(#paint19_linear_4799_63933)"/>
<path fill-rule="evenodd" clip-rule="evenodd" d="M12.3392 25.6256L14.6432 24.3072L12.3392 15.9872V25.6256Z" fill="url(#paint20_linear_4799_63933)"/>
<path fill-rule="evenodd" clip-rule="evenodd" d="M23.168 19.5584L20.8512 18.2272L14.6432 24.3072L23.168 19.5584Z" fill="url(#paint21_linear_4799_63933)"/>
<path fill-rule="evenodd" clip-rule="evenodd" d="M12.7999 17.7664L14.6431 24.3072L15.9615 23.0528L13.5167 18.8928L12.7999 17.7664Z" fill="url(#paint22_linear_4799_63933)"/>
<path fill-rule="evenodd" clip-rule="evenodd" d="M19.0719 17.7664L15.9615 23.0528L20.8511 18.2272L19.0719 17.7664Z" fill="url(#paint23_linear_4799_63933)"/>
<path fill-rule="evenodd" clip-rule="evenodd" d="M16.6271 21.9904L13.5167 18.9568L15.9615 23.0528L16.6271 21.9904Z" fill="url(#paint24_linear_4799_63933)"/>
<path fill-rule="evenodd" clip-rule="evenodd" d="M19.072 17.7664H17.7536L16.6272 21.9264L19.072 17.7664Z" fill="url(#paint25_linear_4799_63933)"/>
</g>
<defs>
<linearGradient id="paint0_linear_4799_63933" x1="9.44371" y1="26.4835" x2="7.7785" y2="10.3309" gradientUnits="userSpaceOnUse">
<stop stop-color="#C3C4C3"/>
<stop offset="0.0901961" stop-color="#D8D8D8"/>
<stop offset="0.2118" stop-color="#E9EAE9"/>
<stop offset="0.349" stop-color="#F6F6F6"/>
<stop offset="0.549" stop-color="#FDFDFD"/>
<stop offset="1" stop-color="white"/>
</linearGradient>
<linearGradient id="paint1_linear_4799_63933" x1="24.9022" y1="22.1051" x2="24.147" y2="32.0256" gradientUnits="userSpaceOnUse">
<stop stop-color="#C3C4C3"/>
<stop offset="0.0901961" stop-color="#D8D8D8"/>
<stop offset="0.2118" stop-color="#E9EAE9"/>
<stop offset="0.349" stop-color="#F6F6F6"/>
<stop offset="0.549" stop-color="#FDFDFD"/>
<stop offset="1" stop-color="white"/>
</linearGradient>
<linearGradient id="paint2_linear_4799_63933" x1="13.2521" y1="10.3291" x2="28.7701" y2="14.2781" gradientUnits="userSpaceOnUse">
<stop stop-color="#C3C4C3"/>
<stop offset="0.0901961" stop-color="#D8D8D8"/>
<stop offset="0.2118" stop-color="#E9EAE9"/>
<stop offset="0.349" stop-color="#F6F6F6"/>
<stop offset="0.549" stop-color="#FDFDFD"/>
<stop offset="1" stop-color="white"/>
</linearGradient>
<linearGradient id="paint3_linear_4799_63933" x1="11.2487" y1="26.3051" x2="4.45345" y2="21.7222" gradientUnits="userSpaceOnUse">
<stop stop-color="#B7B8B8"/>
<stop offset="0.1098" stop-color="#C9CACA"/>
<stop offset="0.302" stop-color="#E1E1E1"/>
<stop offset="0.502" stop-color="#F2F2F2"/>
<stop offset="0.7294" stop-color="#FCFCFC"/>
<stop offset="1" stop-color="white"/>
</linearGradient>
<linearGradient id="paint4_linear_4799_63933" x1="12.2757" y1="12.0151" x2="24.1819" y2="17.3224" gradientUnits="userSpaceOnUse">
<stop stop-color="#B7B8B8"/>
<stop offset="0.1098" stop-color="#C9CACA"/>
<stop offset="0.302" stop-color="#E1E1E1"/>
<stop offset="0.502" stop-color="#F2F2F2"/>
<stop offset="0.7294" stop-color="#FCFCFC"/>
<stop offset="1" stop-color="white"/>
</linearGradient>
<linearGradient id="paint5_linear_4799_63933" x1="24.2354" y1="20.0772" x2="21.5026" y2="29.8323" gradientUnits="userSpaceOnUse">
<stop stop-color="#B7B8B8"/>
<stop offset="0.1098" stop-color="#C9CACA"/>
<stop offset="0.302" stop-color="#E1E1E1"/>
<stop offset="0.502" stop-color="#F2F2F2"/>
<stop offset="0.7294" stop-color="#FCFCFC"/>
<stop offset="1" stop-color="white"/>
</linearGradient>
<linearGradient id="paint6_linear_4799_63933" x1="13.5525" y1="25.3985" x2="9.35994" y2="23.706" gradientUnits="userSpaceOnUse">
<stop stop-color="#B7B8B8"/>
<stop offset="0.2118" stop-color="#CECECE"/>
<stop offset="0.5216" stop-color="#E9E9E9"/>
<stop offset="0.7882" stop-color="#F9F9F9"/>
<stop offset="1" stop-color="white"/>
</linearGradient>
<linearGradient id="paint7_linear_4799_63933" x1="22.1146" y1="18.5819" x2="18.227" y2="26.5627" gradientUnits="userSpaceOnUse">
<stop stop-color="#B7B8B8"/>
<stop offset="0.2118" stop-color="#CECECE"/>
<stop offset="0.5216" stop-color="#E9E9E9"/>
<stop offset="0.7882" stop-color="#F9F9F9"/>
<stop offset="1" stop-color="white"/>
</linearGradient>
<linearGradient id="paint8_linear_4799_63933" x1="11.986" y1="14.6348" x2="21.2276" y2="16.9772" gradientUnits="userSpaceOnUse">
<stop stop-color="#B7B8B8"/>
<stop offset="0.2118" stop-color="#CECECE"/>
<stop offset="0.5216" stop-color="#E9E9E9"/>
<stop offset="0.7882" stop-color="#F9F9F9"/>
<stop offset="1" stop-color="white"/>
</linearGradient>
<linearGradient id="paint9_linear_4799_63933" x1="12.2493" y1="16.8492" x2="19.1101" y2="17.3868" gradientUnits="userSpaceOnUse">
<stop stop-color="#ABACAC"/>
<stop offset="0.1804" stop-color="#BDBDBD"/>
<stop offset="0.7294" stop-color="#EDEDED"/>
<stop offset="1" stop-color="white"/>
</linearGradient>
<linearGradient id="paint10_linear_4799_63933" x1="15.4312" y1="23.9741" x2="10.8678" y2="21.5333" gradientUnits="userSpaceOnUse">
<stop stop-color="#ABACAC"/>
<stop offset="0.1804" stop-color="#BDBDBD"/>
<stop offset="0.7294" stop-color="#EDEDED"/>
<stop offset="1" stop-color="white"/>
</linearGradient>
<linearGradient id="paint11_linear_4799_63933" x1="20.1199" y1="17.7598" x2="15.9846" y2="23.0487" gradientUnits="userSpaceOnUse">
<stop stop-color="#ABACAC"/>
<stop offset="0.1804" stop-color="#BDBDBD"/>
<stop offset="0.7294" stop-color="#EDEDED"/>
<stop offset="1" stop-color="white"/>
</linearGradient>
<linearGradient id="paint12_linear_4799_63933" x1="13.1282" y1="18.5736" x2="17.4546" y2="16.948" gradientUnits="userSpaceOnUse">
<stop stop-color="#9FA0A0"/>
<stop offset="0.1686" stop-color="#A5A6A6"/>
<stop offset="0.4" stop-color="#B6B6B6"/>
<stop offset="0.6588" stop-color="#D1D1D1"/>
<stop offset="0.9412" stop-color="#F6F6F6"/>
<stop offset="1" stop-color="white"/>
</linearGradient>
<linearGradient id="paint13_linear_4799_63933" x1="16.4546" y1="22.4864" x2="12.9858" y2="19.5552" gradientUnits="userSpaceOnUse">
<stop stop-color="#9FA0A0"/>
<stop offset="0.1686" stop-color="#A5A6A6"/>
<stop offset="0.4" stop-color="#B6B6B6"/>
<stop offset="0.6588" stop-color="#D1D1D1"/>
<stop offset="0.9412" stop-color="#F6F6F6"/>
<stop offset="1" stop-color="white"/>
</linearGradient>
<linearGradient id="paint14_linear_4799_63933" x1="18.2268" y1="17.7577" x2="16.2788" y2="21.4831" gradientUnits="userSpaceOnUse">
<stop stop-color="#9FA0A0"/>
<stop offset="0.1686" stop-color="#A5A6A6"/>
<stop offset="0.4" stop-color="#B6B6B6"/>
<stop offset="0.6588" stop-color="#D1D1D1"/>
<stop offset="0.9412" stop-color="#F6F6F6"/>
<stop offset="1" stop-color="white"/>
</linearGradient>
<linearGradient id="paint15_linear_4799_63933" x1="9.40541" y1="26.4847" x2="7.74141" y2="10.3311" gradientUnits="userSpaceOnUse">
<stop stop-color="#C3C4C3"/>
<stop offset="0.0901961" stop-color="#D8D8D8"/>
<stop offset="0.2118" stop-color="#E9EAE9"/>
<stop offset="0.349" stop-color="#F6F6F6"/>
<stop offset="0.549" stop-color="#FDFDFD"/>
<stop offset="1" stop-color="white"/>
</linearGradient>
<linearGradient id="paint16_linear_4799_63933" x1="24.9022" y1="22.1051" x2="24.147" y2="32.0256" gradientUnits="userSpaceOnUse">
<stop stop-color="#C3C4C3"/>
<stop offset="0.0901961" stop-color="#D8D8D8"/>
<stop offset="0.2118" stop-color="#E9EAE9"/>
<stop offset="0.349" stop-color="#F6F6F6"/>
<stop offset="0.549" stop-color="#FDFDFD"/>
<stop offset="1" stop-color="white"/>
</linearGradient>
<linearGradient id="paint17_linear_4799_63933" x1="13.2521" y1="10.3291" x2="28.7701" y2="14.2781" gradientUnits="userSpaceOnUse">
<stop stop-color="#C3C4C3"/>
<stop offset="0.0901961" stop-color="#D8D8D8"/>
<stop offset="0.2118" stop-color="#E9EAE9"/>
<stop offset="0.349" stop-color="#F6F6F6"/>
<stop offset="0.549" stop-color="#FDFDFD"/>
<stop offset="1" stop-color="white"/>
</linearGradient>
<linearGradient id="paint18_linear_4799_63933" x1="11.2487" y1="26.3051" x2="4.45345" y2="21.7222" gradientUnits="userSpaceOnUse">
<stop stop-color="#B7B8B8"/>
<stop offset="0.1098" stop-color="#C9CACA"/>
<stop offset="0.302" stop-color="#E1E1E1"/>
<stop offset="0.502" stop-color="#F2F2F2"/>
<stop offset="0.7294" stop-color="#FCFCFC"/>
<stop offset="1" stop-color="white"/>
</linearGradient>
<linearGradient id="paint19_linear_4799_63933" x1="24.2354" y1="20.0772" x2="21.5026" y2="29.8323" gradientUnits="userSpaceOnUse">
<stop stop-color="#B7B8B8"/>
<stop offset="0.1098" stop-color="#C9CACA"/>
<stop offset="0.302" stop-color="#E1E1E1"/>
<stop offset="0.502" stop-color="#F2F2F2"/>
<stop offset="0.7294" stop-color="#FCFCFC"/>
<stop offset="1" stop-color="white"/>
</linearGradient>
<linearGradient id="paint20_linear_4799_63933" x1="13.5525" y1="25.3985" x2="9.35994" y2="23.706" gradientUnits="userSpaceOnUse">
<stop stop-color="#B7B8B8"/>
<stop offset="0.2118" stop-color="#CECECE"/>
<stop offset="0.5216" stop-color="#E9E9E9"/>
<stop offset="0.7882" stop-color="#F9F9F9"/>
<stop offset="1" stop-color="white"/>
</linearGradient>
<linearGradient id="paint21_linear_4799_63933" x1="22.1146" y1="18.5819" x2="18.227" y2="26.5627" gradientUnits="userSpaceOnUse">
<stop stop-color="#B7B8B8"/>
<stop offset="0.2118" stop-color="#CECECE"/>
<stop offset="0.5216" stop-color="#E9E9E9"/>
<stop offset="0.7882" stop-color="#F9F9F9"/>
<stop offset="1" stop-color="white"/>
</linearGradient>
<linearGradient id="paint22_linear_4799_63933" x1="15.4312" y1="23.9741" x2="10.8678" y2="21.5333" gradientUnits="userSpaceOnUse">
<stop stop-color="#ABACAC"/>
<stop offset="0.1804" stop-color="#BDBDBD"/>
<stop offset="0.7294" stop-color="#EDEDED"/>
<stop offset="1" stop-color="white"/>
</linearGradient>
<linearGradient id="paint23_linear_4799_63933" x1="20.1199" y1="17.7598" x2="15.9846" y2="23.0487" gradientUnits="userSpaceOnUse">
<stop stop-color="#ABACAC"/>
<stop offset="0.1804" stop-color="#BDBDBD"/>
<stop offset="0.7294" stop-color="#EDEDED"/>
<stop offset="1" stop-color="white"/>
</linearGradient>
<linearGradient id="paint24_linear_4799_63933" x1="16.4578" y1="22.4317" x2="12.989" y2="19.5517" gradientUnits="userSpaceOnUse">
<stop stop-color="#9FA0A0"/>
<stop offset="0.1686" stop-color="#A5A6A6"/>
<stop offset="0.4" stop-color="#B6B6B6"/>
<stop offset="0.6588" stop-color="#D1D1D1"/>
<stop offset="0.9412" stop-color="#F6F6F6"/>
<stop offset="1" stop-color="white"/>
</linearGradient>
<linearGradient id="paint25_linear_4799_63933" x1="18.2268" y1="17.7577" x2="16.2788" y2="21.4831" gradientUnits="userSpaceOnUse">
<stop stop-color="#9FA0A0"/>
<stop offset="0.1686" stop-color="#A5A6A6"/>
<stop offset="0.4" stop-color="#B6B6B6"/>
<stop offset="0.6588" stop-color="#D1D1D1"/>
<stop offset="0.9412" stop-color="#F6F6F6"/>
<stop offset="1" stop-color="white"/>
</linearGradient>
<clipPath id="clip0_4799_63933">
<rect width="32" height="32" fill="white"/>
</clipPath>
</defs>
</svg>
