<svg width="32" height="32" viewBox="0 0 32 32" fill="none" xmlns="http://www.w3.org/2000/svg">
<g clip-path="url(#clip0_4767_64132)">
<path d="M16 32C24.8366 32 32 24.8366 32 16C32 7.16344 24.8366 0 16 0C7.16344 0 0 7.16344 0 16C0 24.8366 7.16344 32 16 32Z" fill="#2E3148"/>
<path d="M16 25.284C21.1274 25.284 25.284 21.1274 25.284 16C25.284 10.8726 21.1274 6.71606 16 6.71606C10.8726 6.71606 6.71606 10.8726 6.71606 16C6.71606 21.1274 10.8726 25.284 16 25.284Z" fill="#1B1E36"/>
<path d="M16.0328 2.04126C14.3057 2.04126 12.9053 8.30558 12.9053 16.0331C12.9053 23.7606 14.3057 30.0249 16.0328 30.0249C17.7599 30.0249 19.1604 23.7606 19.1604 16.0331C19.1604 8.30558 17.7599 2.04126 16.0328 2.04126ZM16.2488 29.2352C16.0513 29.4987 15.8538 29.301 15.8538 29.301C15.0584 28.3794 14.6607 26.6673 14.6607 26.6673C13.2694 22.19 13.6006 12.5768 13.6006 12.5768C14.2544 4.94494 15.4438 3.14206 15.8485 2.7418C15.8898 2.70095 15.9443 2.67599 16.0022 2.67131C16.0601 2.66662 16.1178 2.68252 16.1652 2.7162C16.7524 3.13233 17.245 4.87262 17.245 4.87262C18.6994 10.2718 18.5677 15.3417 18.5677 15.3417C18.6994 19.7533 17.8389 24.6915 17.8389 24.6915C17.1765 28.4445 16.2488 29.2352 16.2488 29.2352Z" fill="#6F7390"/>
<path d="M28.1693 9.06988C27.3094 7.57126 21.1794 9.4741 14.4733 13.3195C7.76729 17.1649 3.03692 21.4973 3.89618 22.9953C4.75545 24.4932 10.8861 22.591 17.5922 18.7457C24.2982 14.9003 29.0286 10.5679 28.1693 9.06988ZM4.68953 22.7897C4.36031 22.7482 4.43468 22.4776 4.43468 22.4776C4.83852 21.3293 6.12364 20.1323 6.12364 20.1323C9.31634 16.6973 17.8202 12.2008 17.8202 12.2008C24.7647 8.96978 26.9217 9.1061 27.4689 9.25676C27.5251 9.27244 27.5739 9.30749 27.6067 9.3557C27.6395 9.40392 27.6542 9.46218 27.6481 9.52018C27.5823 10.237 26.3147 11.5298 26.3147 11.5298C22.358 15.4797 17.8945 17.889 17.8945 17.889C14.1335 20.1994 9.42181 21.9093 9.42181 21.9093C5.83666 23.2012 4.68965 22.7897 4.68965 22.7897H4.68953Z" fill="#6F7390"/>
<path d="M28.1389 23.0454C29.0054 21.5507 24.287 17.1984 17.6045 13.3241C10.922 9.44983 4.7927 7.52343 3.9269 9.02065C3.06111 10.5179 7.77881 14.8676 14.4651 18.7419C21.1515 22.6162 27.2731 24.5427 28.1389 23.0454ZM4.50111 9.59818C4.37311 9.29469 4.64332 9.22161 4.64332 9.22161C5.83961 8.99569 7.51999 9.5105 7.51999 9.5105C12.0915 10.5515 20.2432 15.6577 20.2432 15.6577C26.5194 20.0495 27.482 21.984 27.6262 22.5331C27.6409 22.5894 27.6352 22.6491 27.6101 22.7016C27.5851 22.7542 27.5423 22.7962 27.4893 22.8202C26.8348 23.1198 25.082 22.6734 25.082 22.6734C19.6795 21.2248 15.3588 18.5707 15.3588 18.5707C11.4767 16.4769 7.63801 13.2551 7.63801 13.2551C4.72114 10.7992 4.50201 9.60151 4.50201 9.60151L4.50111 9.59818Z" fill="#6F7390"/>
<path d="M16.0001 17.6462C16.9092 17.6462 17.6462 16.9092 17.6462 16.0001C17.6462 15.091 16.9092 14.354 16.0001 14.354C15.091 14.354 14.354 15.091 14.354 16.0001C14.354 16.9092 15.091 17.6462 16.0001 17.6462Z" fill="#B7B9C8"/>
<path d="M22.7489 10.6667C23.2762 10.6667 23.7037 10.2245 23.7037 9.67905C23.7037 9.13359 23.2762 8.69141 22.7489 8.69141C22.2216 8.69141 21.7942 9.13359 21.7942 9.67905C21.7942 10.2245 22.2216 10.6667 22.7489 10.6667Z" fill="#B7B9C8"/>
<path d="M7.07804 14.0246C7.60534 14.0246 8.0328 13.5824 8.0328 13.037C8.0328 12.4915 7.60534 12.0493 7.07804 12.0493C6.55075 12.0493 6.12329 12.4915 6.12329 13.037C6.12329 13.5824 6.55075 14.0246 7.07804 14.0246Z" fill="#B7B9C8"/>
<path d="M14.0575 26.1398C14.5848 26.1398 15.0123 25.6977 15.0123 25.1522C15.0123 24.6067 14.5848 24.1646 14.0575 24.1646C13.5302 24.1646 13.1028 24.6067 13.1028 25.1522C13.1028 25.6977 13.5302 26.1398 14.0575 26.1398Z" fill="#B7B9C8"/>
</g>
<defs>
<clipPath id="clip0_4767_64132">
<rect width="32" height="32" fill="white"/>
</clipPath>
</defs>
</svg>
