<svg width="32" height="32" viewBox="0 0 32 32" fill="none" xmlns="http://www.w3.org/2000/svg">
<g clip-path="url(#clip0_176_4472)">
<path d="M16 32C24.8366 32 32 24.8366 32 16C32 7.16344 24.8366 0 16 0C7.16344 0 0 7.16344 0 16C0 24.8366 7.16344 32 16 32Z" fill="#2E3148"/>
<path d="M16 25.2838C21.1274 25.2838 25.2839 21.1272 25.2839 15.9998C25.2839 10.8724 21.1274 6.71582 16 6.71582C10.8726 6.71582 6.716 10.8724 6.716 15.9998C6.716 21.1272 10.8726 25.2838 16 25.2838Z" fill="#1B1E36"/>
<path d="M16.0329 2.04102C14.3058 2.04102 12.9053 8.30533 12.9053 16.0328C12.9053 23.7603 14.3058 30.0246 16.0329 30.0246C17.76 30.0246 19.1604 23.7603 19.1604 16.0328C19.1604 8.30533 17.76 2.04102 16.0329 2.04102ZM16.2488 29.235C16.0513 29.4984 15.8538 29.3008 15.8538 29.3008C15.0584 28.3792 14.6607 26.6671 14.6607 26.6671C13.2695 22.1897 13.6006 12.5766 13.6006 12.5766C14.2545 4.9447 15.4438 3.14182 15.8486 2.74156C15.8899 2.70071 15.9443 2.67575 16.0022 2.67106C16.0602 2.66638 16.1179 2.68228 16.1652 2.71596C16.7525 3.13209 17.245 4.87238 17.245 4.87238C18.6995 10.2715 18.5678 15.3415 18.5678 15.3415C18.6995 19.753 17.839 24.6913 17.839 24.6913C17.1766 28.4442 16.2488 29.235 16.2488 29.235Z" fill="#6F7390"/>
<path d="M28.1692 9.07012C27.3093 7.5715 21.1793 9.47435 14.4732 13.3197C7.76716 17.1651 3.0368 21.4975 3.89606 22.9955C4.75532 24.4935 10.886 22.5913 17.5921 18.7459C24.2981 14.9005 29.0285 10.5681 28.1692 9.07012V9.07012ZM4.6894 22.7899C4.36019 22.7485 4.43456 22.4779 4.43456 22.4779C4.8384 21.3296 6.12352 20.1325 6.12352 20.1325C9.31622 16.6975 17.82 12.201 17.82 12.201C24.7645 8.97003 26.9216 9.10635 27.4688 9.257C27.525 9.27268 27.5738 9.30773 27.6066 9.35595C27.6394 9.40416 27.654 9.46243 27.648 9.52043C27.5822 10.2372 26.3146 11.53 26.3146 11.53C22.3579 15.48 17.8944 17.8892 17.8944 17.8892C14.1334 20.1996 9.42169 21.9095 9.42169 21.9095C5.83654 23.2015 4.68953 22.7899 4.68953 22.7899H4.6894Z" fill="#6F7390"/>
<path d="M28.1389 23.0451C29.0054 21.5504 24.287 17.1982 17.6045 13.3239C10.922 9.44959 4.7927 7.52319 3.9269 9.0204C3.06111 10.5176 7.77881 14.8673 14.4651 18.7416C21.1515 22.6159 27.2731 24.5424 28.1389 23.0451ZM4.50111 9.59794C4.37311 9.29445 4.64332 9.22136 4.64332 9.22136C5.83961 8.99544 7.51999 9.51026 7.51999 9.51026C12.0915 10.5513 20.2432 15.6575 20.2432 15.6575C26.5194 20.0493 27.482 21.9837 27.6262 22.5328C27.6409 22.5892 27.6352 22.6489 27.6101 22.7014C27.5851 22.7539 27.5423 22.7959 27.4893 22.82C26.8348 23.1196 25.082 22.6731 25.082 22.6731C19.6795 21.2246 15.3588 18.5705 15.3588 18.5705C11.4767 16.4767 7.63801 13.2549 7.63801 13.2549C4.72114 10.799 4.50201 9.60127 4.50201 9.60127L4.50111 9.59794Z" fill="#6F7390"/>
<path d="M16 17.6462C16.9091 17.6462 17.6461 16.9092 17.6461 16.0001C17.6461 15.091 16.9091 14.354 16 14.354C15.0909 14.354 14.3539 15.091 14.3539 16.0001C14.3539 16.9092 15.0909 17.6462 16 17.6462Z" fill="#B7B9C8"/>
<path d="M22.7489 10.6667C23.2762 10.6667 23.7037 10.2245 23.7037 9.67905C23.7037 9.13359 23.2762 8.69141 22.7489 8.69141C22.2216 8.69141 21.7942 9.13359 21.7942 9.67905C21.7942 10.2245 22.2216 10.6667 22.7489 10.6667Z" fill="#B7B9C8"/>
<path d="M7.07816 14.0246C7.60546 14.0246 8.03292 13.5824 8.03292 13.037C8.03292 12.4915 7.60546 12.0493 7.07816 12.0493C6.55087 12.0493 6.12341 12.4915 6.12341 13.037C6.12341 13.5824 6.55087 14.0246 7.07816 14.0246Z" fill="#B7B9C8"/>
<path d="M14.0576 26.1398C14.5849 26.1398 15.0123 25.6977 15.0123 25.1522C15.0123 24.6067 14.5849 24.1646 14.0576 24.1646C13.5303 24.1646 13.1028 24.6067 13.1028 25.1522C13.1028 25.6977 13.5303 26.1398 14.0576 26.1398Z" fill="#B7B9C8"/>
</g>
<defs>
<clipPath id="clip0_176_4472">
<rect width="32" height="32" fill="white"/>
</clipPath>
</defs>
</svg>
