<svg width="32" height="32" viewBox="0 0 32 32" fill="none" xmlns="http://www.w3.org/2000/svg">
<g clip-path="url(#clip0_4774_63870)">
<path d="M22.9458 15.5139L18.9314 8.48708L14.4157 0.707244C14.1648 0.456223 13.9138 0.2052 13.6629 0.2052C13.412 0.2052 13.161 0.456223 12.9101 0.707244L4.38064 15.5139L0.868125 21.5371C0.868125 21.7882 0.617188 21.7882 0.617188 22.0392C0.617188 22.5412 1.11906 22.7923 1.37 22.7923H7.89316C8.1441 22.7923 8.39504 22.5412 8.64597 22.2902L12.1585 16.2669L12.6604 15.2628C12.9113 15.0118 13.1622 15.0118 13.4132 15.0118C13.6641 15.0118 13.9151 15.2628 14.166 15.5139L17.6785 21.7882L18.4313 23.0433V23.2943V23.5453C18.4313 24.0474 17.9294 24.2984 17.6785 24.2984H9.90005C9.64912 24.2984 9.39818 24.5494 9.14724 24.8004L5.88566 30.5727C5.88566 30.8237 5.88566 30.8237 5.88566 31.0747C5.88566 31.5768 6.38754 31.8278 6.63847 31.8278H30.723C31.2249 31.8278 31.4758 31.3258 31.4758 31.0747C31.4758 30.8237 31.4758 30.8237 31.4758 30.5727L22.9458 15.7649V15.5139Z" fill="url(#paint0_linear_4774_63870)"/>
<mask id="mask0_4774_63870" style="mask-type:luminance" maskUnits="userSpaceOnUse" x="0" y="0" width="32" height="32">
<path d="M22.9458 15.5139L18.9314 8.48708L14.4157 0.707244C14.1648 0.456223 13.9138 0.2052 13.6629 0.2052C13.412 0.2052 13.161 0.456223 12.9101 0.707244L4.38064 15.5139L0.868125 21.5371C0.868125 21.7882 0.617188 21.7882 0.617188 22.0392C0.617188 22.5412 1.11906 22.7923 1.37 22.7923H7.89316C8.1441 22.7923 8.39504 22.5412 8.64597 22.2902L12.1585 16.2669L12.6604 15.2628C12.9113 15.0118 13.1622 15.0118 13.4132 15.0118C13.6641 15.0118 13.9151 15.2628 14.166 15.5139L17.6785 21.7882L18.4313 23.0433V23.2943V23.5453C18.4313 24.0474 17.9294 24.2984 17.6785 24.2984H9.90005C9.64912 24.2984 9.39818 24.5494 9.14724 24.8004L5.88566 30.5727C5.88566 30.8237 5.88566 30.8237 5.88566 31.0747C5.88566 31.5768 6.38754 31.8278 6.63847 31.8278H30.723C31.2249 31.8278 31.4758 31.3258 31.4758 31.0747C31.4758 30.8237 31.4758 30.8237 31.4758 30.5727L22.9458 15.7649V15.5139Z" fill="white"/>
</mask>
<g mask="url(#mask0_4774_63870)">
<path fill-rule="evenodd" clip-rule="evenodd" d="M2.37362 18.7766L5.6352 13.0043L7.89303 12.7533L10.9037 17.0194L12.4087 20.5331L14.9175 24.0468L17.4262 26.3054L19.1822 27.0585L23.1966 26.8075L26.4582 25.5523L27.7128 25.0503H28.4657L29.7203 27.3089C26.4588 29.8185 22.9469 30.8226 18.9325 30.3205C15.169 29.8185 12.9112 27.0579 12.6602 26.8068C12.4093 26.5558 10.9043 24.2972 10.9043 24.2972C10.9043 24.2972 9.14833 20.7835 7.89364 19.529C6.63895 18.2739 4.63206 17.7725 2.12329 18.525L2.37362 18.7766Z" fill="#811BC7"/>
<path fill-rule="evenodd" clip-rule="evenodd" d="M2.1228 18.5255L5.38438 12.7533C5.38438 12.7533 5.38438 12.7533 5.63532 12.5022L7.89315 12.2512H8.14409L11.1547 16.5174L12.6598 20.0311L15.1685 23.5447L17.6773 25.8033L19.4332 26.5564H23.4476L26.7092 25.3013L27.9639 24.7992C27.9639 24.7992 27.9639 24.7992 28.2148 24.7992H28.9677C28.9677 24.7992 29.2186 24.7992 29.2186 25.0503L30.4733 27.3089V27.5599C26.9608 30.0695 23.6998 31.0736 19.4345 30.5715C15.671 30.0695 13.6641 27.5599 13.1622 27.0578C12.9113 26.8068 11.4063 24.5482 11.4063 24.5482C11.4063 24.5482 9.65032 21.0345 8.39563 19.78C7.64282 19.278 6.89061 18.7759 6.1378 18.5249C5.13405 18.2739 4.13091 18.2739 2.87622 18.776C2.62528 18.776 2.62528 18.7759 2.62528 18.5249V18.2739L2.1228 18.5255ZM2.37374 18.7766L5.63532 13.0043L7.89315 12.7533L10.9038 17.0194L12.4088 20.5331L14.9176 24.0468L17.4264 26.3054L19.1823 27.0584L23.1967 26.8074L26.4583 25.5523L27.713 25.0503H28.4658L29.7205 27.3089C26.4589 29.8185 22.947 30.8225 18.9326 30.3205C15.1691 29.8185 12.9113 27.0578 12.6604 26.8068C12.4094 26.5558 10.9044 24.2972 10.9044 24.2972C10.9044 24.2972 9.14844 20.7835 7.89376 19.529C6.63907 18.2739 4.63218 17.7725 2.12341 18.5249L2.37374 18.7766Z" fill="#7319BC"/>
<path fill-rule="evenodd" clip-rule="evenodd" d="M5.63525 13.0043L7.64215 9.49065L9.64904 9.23962L12.1578 13.2554L14.4156 15.5139L19.1822 24.5489L26.4576 23.5448L27.2104 23.2938L28.2142 25.3013C25.2035 28.062 21.4407 28.815 17.6772 27.5599C14.4156 26.3048 13.1616 23.0428 11.1541 20.0311C11.1541 20.0311 9.89937 17.2705 9.14717 16.0154C8.39496 15.0119 7.39121 13.2554 5.63525 13.0043Z" fill="#5312B7"/>
<path fill-rule="evenodd" clip-rule="evenodd" d="M5.38436 12.7533L7.39125 9.23959C7.39125 9.23959 7.39125 9.23959 7.64219 8.98857L9.64908 8.73755C9.64908 8.73755 9.90002 8.73755 9.90002 8.98857L12.4088 12.7533L14.6666 15.0119L19.1823 24.0468L26.2067 23.0427L26.9595 22.7917C26.9595 22.7917 27.2105 22.7917 27.2105 23.0427L28.2142 25.0503V25.3013C26.7092 26.8068 24.9526 27.5599 23.1967 28.0619C21.4407 28.564 19.4332 28.313 17.4263 27.5599C14.6666 26.5558 13.4119 24.0462 11.9069 21.5366C11.656 21.0346 11.1541 20.5325 10.9032 19.7801C10.9032 19.7801 9.64847 17.0194 8.89627 15.7643C8.14346 14.7602 7.14031 13.2547 5.38375 13.0037C5.13281 13.0037 5.13281 12.7527 5.13281 12.7527H5.38436V12.7533ZM5.63529 13.0043L7.64219 9.49061L9.64908 9.23959L12.1578 13.2553L14.4157 15.5139L19.1823 24.5489L26.4576 23.5448L27.2105 23.2937L28.2142 25.3013C25.2036 28.0619 21.4407 28.815 17.6773 27.5599C14.4157 26.3048 13.1616 23.0427 11.1541 20.0311C11.1541 20.0311 9.89941 17.2704 9.14721 16.0153C8.395 15.0119 7.39125 13.2553 5.63529 13.0043Z" fill="#A823D8"/>
<path fill-rule="evenodd" clip-rule="evenodd" d="M7.64233 9.24017L9.90017 5.47546L13.6636 5.72648L18.6812 17.7731L21.1899 21.2868L24.7024 21.7888L26.4584 21.2868L27.4622 22.7923C27.4622 22.7923 25.9571 24.5488 23.9496 25.0509C21.9427 25.5529 20.4371 25.5529 18.1793 24.2978C15.9215 22.7923 12.4089 19.2786 12.4089 19.2786L12.6599 15.7649C11.4052 13.0043 9.90017 10.4947 7.89327 8.98915L7.64233 9.24017Z" fill="#791AC4"/>
<path fill-rule="evenodd" clip-rule="evenodd" d="M7.39136 9.24022L9.64919 5.47551L9.90013 5.22449L13.6636 5.47551C13.6636 5.47551 13.9145 5.47551 13.9145 5.72653L18.9321 17.7731L21.1899 21.2868L24.7024 21.5378L26.4584 21.0358C26.4584 21.0358 26.7093 21.0358 26.7093 21.2868L27.713 22.7923V23.0434C27.4621 23.2944 25.9571 24.7999 23.9496 25.3019C22.9458 25.553 22.1936 25.804 21.1899 25.553C20.1861 25.553 19.183 25.0509 18.1792 24.2979C15.9214 22.7923 12.4089 19.2786 12.4089 19.2786V19.0276L12.6598 15.7649C12.158 14.2594 11.4051 13.0043 10.402 12.0002C9.64919 10.9962 8.64604 9.99267 7.89323 9.23961C7.89323 9.23961 7.64229 8.98859 7.89323 8.98859L7.39136 9.24022ZM7.64229 9.49063L9.90013 5.72592L13.6636 5.97694L18.6811 18.0235L21.1899 21.5372L24.7024 22.0393L26.4584 21.5372L27.4621 23.0427C27.4621 23.0427 25.9571 24.7993 23.9496 25.3013C21.9427 25.8034 20.4371 25.8034 18.1792 24.5483C15.9214 23.0427 12.4089 19.5291 12.4089 19.5291L12.6598 16.0154C11.4051 13.2547 9.90013 10.7451 7.89323 9.23961L7.64229 9.49063Z" fill="#5710AF"/>
<path fill-rule="evenodd" clip-rule="evenodd" d="M9.89999 5.72655L12.1578 1.71082L16.1722 6.47901L17.9282 10.2437L18.9319 12.5023L24.9532 20.0311H25.4551L26.4588 21.7877C26.4588 21.7877 24.9538 23.2932 24.201 23.5442C23.4482 23.7952 22.9463 24.2973 20.6885 23.5442C18.6816 22.5401 16.925 18.525 16.925 18.274C16.925 18.0229 14.6672 13.5058 13.9144 11.7486C13.1616 9.99209 11.6566 8.23494 11.4056 7.98392C11.1547 7.7329 9.64966 5.97635 9.64966 5.97635L9.89999 5.72655Z" fill="#A11FD0"/>
<path fill-rule="evenodd" clip-rule="evenodd" d="M9.64917 5.47549L11.907 1.45975C11.907 1.20873 12.1579 1.20873 12.1579 1.45975L16.1723 6.22794L17.9283 9.99265L18.932 12.0002L24.9533 19.278H25.4552C25.4552 19.278 25.7061 19.278 25.7061 19.529L26.7099 21.2856V21.5366C26.7099 21.5366 25.2049 23.0421 24.2011 23.2931H23.9502C23.1974 23.5442 22.6955 23.7952 20.6886 23.0421C19.9358 22.7911 19.1836 22.038 18.6817 21.2856C17.678 19.7801 16.6748 18.0229 16.6748 17.7719C16.6748 17.7719 16.1729 16.7678 15.6711 15.5133C14.9183 14.0078 14.166 12.2506 13.6642 11.2472C12.9114 9.49061 11.6573 7.98448 11.4063 7.48244C11.1548 7.23203 9.64917 5.47549 9.64917 5.47549ZM9.90011 5.7265L12.1579 1.71077L16.1723 6.47896L17.9283 10.2437L18.932 12.5023L24.9533 20.0311H25.4552L26.459 21.7876C26.459 21.7876 24.9539 23.2931 24.2011 23.5442C23.4483 23.7952 22.9464 24.2972 20.6886 23.5442C18.6817 22.5401 16.9251 18.5249 16.9251 18.2739C16.9251 18.0229 14.6673 13.5057 13.9145 11.7486C13.1617 9.99204 11.6567 8.2349 11.4057 7.98388C11.1548 7.73286 9.64978 5.97631 9.64978 5.97631L9.90011 5.7265Z" fill="#901FCE"/>
<path fill-rule="evenodd" clip-rule="evenodd" d="M12.1578 1.45969L12.6596 0.455608C12.6596 0.455608 12.6596 0.20459 13.1615 0.20459C13.6634 0.20459 13.9143 0.455608 13.9143 0.455608L14.6671 1.71071L24.9531 19.78C23.9494 21.2855 22.4444 21.5365 20.9388 21.0351C19.1828 20.282 18.43 17.5214 18.179 15.7649C17.9281 14.5098 16.4231 9.74157 15.9212 8.48707C14.6665 5.22441 13.9143 3.9699 11.6565 1.4603H12.1578V1.45969Z" fill="#D100D2"/>
<path fill-rule="evenodd" clip-rule="evenodd" d="M11.9068 1.45974L12.4087 0.455654C12.4087 0.455654 12.6596 -0.0463867 13.1615 -0.0463867C13.6634 -0.0463867 14.1653 0.204635 14.1653 0.204635L14.4162 0.455654L15.169 1.96118L25.706 20.0305V20.2815C25.2041 21.0345 24.4513 21.5366 23.6991 21.787C22.9463 22.038 22.194 22.038 21.1903 21.536C19.1834 20.7829 18.6815 18.0223 18.4306 16.2657C18.4306 16.0147 18.4306 16.2657 18.4306 16.0147C18.1797 15.2617 17.9287 14.0072 17.4268 12.501C16.925 10.9955 16.4231 9.48938 16.1722 8.98734C15.4193 7.48182 14.9175 6.22671 14.4162 5.22263C13.9149 4.21855 13.1615 3.21507 11.9074 1.95996L11.6565 1.70894V1.45792H11.9068V1.45974ZM12.1578 1.71076L12.6596 0.706676C12.6596 0.706676 12.6596 0.455654 13.1615 0.455654C13.6634 0.455654 13.9143 0.706676 13.9143 0.706676L14.6671 1.96178L24.9531 20.0311C23.9494 21.5366 22.4444 21.7876 20.9388 21.2862C19.1828 20.5331 18.43 17.7725 18.179 16.0159C17.9281 14.7608 16.4231 9.99264 15.9212 8.73814C14.6665 5.47547 13.9143 4.22097 11.6565 1.71137H12.1578V1.71076Z" fill="#C02BDC"/>
<path fill-rule="evenodd" clip-rule="evenodd" d="M12.4089 1.71078C13.4127 1.20874 16.4233 7.23204 16.9246 8.73756C17.4265 10.2431 18.1793 12.0002 18.9315 14.2588C19.1824 15.2629 19.6843 17.7725 20.4365 18.776C21.4403 20.2815 22.6943 20.5325 23.6981 20.5325C24.4509 20.5325 25.705 19.5284 25.454 19.7795C25.2031 20.5325 23.6981 21.787 21.4397 21.0346C19.4328 20.2815 18.9309 17.5209 18.6799 15.7643C18.429 14.5092 16.924 9.74104 16.4221 8.48654C15.1686 5.22447 14.6668 4.22039 12.4089 1.71078Z" fill="url(#paint1_linear_4774_63870)"/>
</g>
</g>
<defs>
<linearGradient id="paint0_linear_4774_63870" x1="0.61769" y1="16.0129" x2="31.4763" y2="16.0129" gradientUnits="userSpaceOnUse">
<stop stop-color="#270C84"/>
<stop offset="1" stop-color="#3112A1"/>
</linearGradient>
<linearGradient id="paint1_linear_4774_63870" x1="12.3842" y1="11.9874" x2="25.4302" y2="10.7334" gradientUnits="userSpaceOnUse">
<stop stop-color="#E200DB"/>
<stop offset="1" stop-color="#D100D2"/>
</linearGradient>
<clipPath id="clip0_4774_63870">
<rect width="32" height="32" fill="white"/>
</clipPath>
</defs>
</svg>
