<svg width="32" height="32" viewBox="0 0 32 32" fill="none" xmlns="http://www.w3.org/2000/svg">
<g clip-path="url(#clip0_4767_67275)">
<path fill-rule="evenodd" clip-rule="evenodd" d="M16 0C24.8352 0 32 7.1648 32 16C32 24.8352 24.8352 32 16 32C7.1648 32 0 24.8352 0 16C0 7.1648 7.1648 0 16 0Z" fill="#0055D5"/>
<path fill-rule="evenodd" clip-rule="evenodd" d="M8.70407 10.5856C8.70407 10.5856 6.98247 9.20956 6.86407 12.608C6.74567 15.2416 6.74887 20.3552 7.96807 22.7712C8.48327 23.68 9.17127 23.4016 10.4513 22.496C11.5649 21.6736 15.5937 17.9616 17.2993 16.3328C19.0049 14.704 22.4641 10.032 23.1841 13.2064C23.4689 14.5408 23.8209 15.6736 23.5521 18.6336C23.4689 19.5456 23.0785 20.2368 21.2993 19.0016C19.9553 18.1376 18.6785 17.2096 18.6785 17.2096C18.6785 17.2096 18.4321 16.768 17.8497 17.4848C17.3921 18.0576 17.1617 18.1984 17.8945 18.6336C18.6305 19.0688 22.3521 21.6352 23.7793 22.0352C24.9569 22.3776 25.6289 22.3712 25.6641 20.0576C25.6577 18.2208 25.5521 12.9632 24.8833 10.7232C24.3777 9.32796 23.6353 8.69436 22.0321 10.2624C20.4289 11.8304 15.3729 16.7328 12.6081 18.9536C10.7745 20.3296 9.99047 21.5712 9.29927 19.2768C8.81287 17.5392 8.18247 12.1312 10.1729 13.1616C11.4177 13.7568 12.0385 13.7536 11.5521 14.128C11.0657 14.4992 9.66727 15.7824 9.66727 15.7824C9.66727 15.7824 9.23527 16.1312 9.43687 16.8864C9.63847 17.4144 9.63847 17.6768 10.7233 16.656C11.8081 15.6352 12.6081 14.864 12.6081 14.864C12.6081 14.864 12.7809 14.592 13.2961 15.0944C13.8113 15.5968 13.8945 15.7376 13.8945 15.7376C13.8945 15.7376 14.0321 16.112 14.5825 15.4624C15.1361 14.8128 15.4913 14.416 14.4449 13.808C13.4017 13.1936 8.70407 10.5856 8.70407 10.5856Z" fill="white"/>
</g>
<defs>
<clipPath id="clip0_4767_67275">
<rect width="32" height="32" fill="white"/>
</clipPath>
</defs>
</svg>
