<?xml version="1.0" encoding="utf-8"?>
<!-- Generator: Adobe Adobe Illustrator 24.2.0, SVG Export Plug-In . SVG Version: 6.00 Build 0)  -->
<svg version="1.1" id="Layer_1" xmlns="http://www.w3.org/2000/svg" xmlns:xlink="http://www.w3.org/1999/xlink" x="0px" y="0px"
	 width="30px" height="30px" viewBox="0 0 30 30" style="enable-background:new 0 0 30 30;" xml:space="preserve">
<style type="text/css">
	.st0{fill:url(#SVGID_1_);}
</style>
<path d="M28.2,21.9V8.1c0-0.4-0.2-0.8-0.6-1.1L15.7,0.2c-0.4-0.2-0.8-0.2-1.2,0L2.5,7.1C2.1,7.3,1.9,7.7,1.9,8.1v13.8
	c0,0.4,0.2,0.8,0.6,1.1l11.9,6.9c0.4,0.2,0.8,0.2,1.2,0l11.9-6.9C28,22.7,28.2,22.3,28.2,21.9z"/>
<linearGradient id="SVGID_1_" gradientUnits="userSpaceOnUse" x1="15.0482" y1="6.2099" x2="15.0482" y2="28.0277" gradientTransform="matrix(1 0 0 -1 0 32)">
	<stop  offset="1.640000e-02" style="stop-color:#81CDFD"/>
	<stop  offset="0.2292" style="stop-color:#7FCBFF"/>
	<stop  offset="1" style="stop-color:#AAFFD7"/>
</linearGradient>
<path class="st0" d="M17.9,14.9c0.3,0,4.7,0,6.5,0c0.2,0,0.3,0.1,0.3,0.3c0,1.3,0,2.6,0,3.9c0,0.5-0.2,1.5-1,2c-1.5,0.9-4.4,2.6-7,4
	c-1.5,0.9-2,0.9-3.6-0.1c-3.4-2-5.4-3.1-6.8-3.9c-1.1-0.6-1.2-1.6-0.6-2.1c0.5-0.3,6.3-4,6.4-4.1l0,0l0,0c-0.3,0-4.7,0-6.5,0
	c-0.2,0-0.3-0.1-0.3-0.3c0-1.3,0-2.6,0-3.9c0-0.5,0.2-1.6,1.1-2c1.5-0.9,4.1-2.4,6.8-3.9c1.7-1,1.9-1.1,3.7,0.1
	c3.5,2.1,5.6,3.2,6.9,4.1c1.1,0.6,1.1,1.5,0.5,1.9C23.9,11.1,18.1,14.8,17.9,14.9L17.9,14.9L17.9,14.9z"/>
</svg>
