<svg width="32" height="32" viewBox="0 0 32 32" fill="none" xmlns="http://www.w3.org/2000/svg">
<g clip-path="url(#clip0_174_4390)">
<path fill-rule="evenodd" clip-rule="evenodd" d="M16 0C24.8352 0 32 7.1648 32 16C32 24.8352 24.8352 32 16 32C7.1648 32 0 24.8352 0 16C0 7.1648 7.1648 0 16 0Z" fill="#1E1E1E"/>
<path d="M16.24 22.6879C11.1232 22.6879 6.97595 21.2095 6.97595 19.2287C6.97595 18.1951 8.10555 17.2639 9.91355 16.6079C11.3248 17.5135 13.6928 17.9775 16.3776 17.9775C18.9984 17.9775 21.3152 17.4111 22.7392 16.5439C24.4448 17.1935 25.504 18.0991 25.504 19.0975C25.504 21.0815 21.3568 22.6879 16.24 22.6879Z" fill="white"/>
<path d="M16.2944 17.5326C12.416 17.5326 9.27039 16.3166 9.27039 14.8158C9.27039 13.9838 10.24 13.2382 11.76 12.7422C12.8448 13.3086 14.4704 13.6702 16.2944 13.6702C18.1184 13.6702 19.744 13.3086 20.8288 12.7422C22.352 13.2414 23.3184 13.9838 23.3184 14.8158C23.3216 16.3166 20.176 17.5326 16.2944 17.5326V17.5326Z" fill="white"/>
<path d="M16.2688 13.2193C13.2704 13.2193 10.8384 12.2145 10.8384 10.9793C10.8384 9.74406 13.2704 8.73926 16.2688 8.73926C19.2672 8.73926 21.6992 9.74406 21.6992 10.9793C21.6992 12.2145 19.2672 13.2193 16.2688 13.2193V13.2193Z" fill="white"/>
</g>
<defs>
<clipPath id="clip0_174_4390">
<rect width="32" height="32" fill="white"/>
</clipPath>
</defs>
</svg>
