<svg width="32" height="32" viewBox="0 0 32 32" fill="none" xmlns="http://www.w3.org/2000/svg">
<g clip-path="url(#clip0_4767_67721)">
<path fill-rule="evenodd" clip-rule="evenodd" d="M16 0C24.8352 0 32 7.1648 32 16C32 24.8352 24.8352 32 16 32C7.1648 32 0 24.8352 0 16C0 7.1648 7.1648 0 16 0Z" fill="#1E1E1E"/>
<path d="M16.2401 22.6879C11.1233 22.6879 6.97607 21.2095 6.97607 19.2287C6.97607 18.1951 8.10567 17.2639 9.91367 16.6079C11.3249 17.5135 13.6929 17.9775 16.3777 17.9775C18.9985 17.9775 21.3153 17.4111 22.7393 16.5439C24.4449 17.1935 25.5041 18.0991 25.5041 19.0975C25.5041 21.0815 21.3569 22.6879 16.2401 22.6879Z" fill="white"/>
<path d="M16.2945 17.5328C12.4161 17.5328 9.27051 16.3168 9.27051 14.816C9.27051 13.984 10.2401 13.2384 11.7601 12.7424C12.8449 13.3088 14.4705 13.6704 16.2945 13.6704C18.1185 13.6704 19.7441 13.3088 20.8289 12.7424C22.3521 13.2416 23.3185 13.984 23.3185 14.816C23.3217 16.3168 20.1761 17.5328 16.2945 17.5328Z" fill="white"/>
<path d="M16.2688 13.2193C13.2704 13.2193 10.8384 12.2145 10.8384 10.9793C10.8384 9.74406 13.2704 8.73926 16.2688 8.73926C19.2672 8.73926 21.6992 9.74406 21.6992 10.9793C21.6992 12.2145 19.2672 13.2193 16.2688 13.2193Z" fill="white"/>
</g>
<defs>
<clipPath id="clip0_4767_67721">
<rect width="32" height="32" fill="white"/>
</clipPath>
</defs>
</svg>
