<svg width="32" height="32" viewBox="0 0 32 32" fill="none" xmlns="http://www.w3.org/2000/svg">
<path d="M1.6991 8.10229C3.48317 8.10229 5.26724 8.10229 7.07963 8.10229C7.07963 8.21557 7.07963 8.32884 7.07963 8.44212C7.07963 8.92353 7.05131 9.40495 7.07963 9.88637C7.16458 10.7642 7.39113 11.6138 7.75927 12.435C8.0991 13.1713 8.52387 13.8226 9.09025 14.389C9.76989 15.097 10.5911 15.635 11.554 15.9182C11.6389 15.9465 11.6672 15.9749 11.6672 16.0598C11.6389 16.5129 11.7239 16.9377 11.6106 17.3908C11.4407 18.1271 11.0159 18.6368 10.3646 18.92C10.0531 19.0616 9.74157 19.1182 9.40175 19.1182C8.32565 19.1182 7.22122 19.1182 6.14511 19.1182C5.63538 19.1182 5.15396 19.0333 4.72919 18.7218C4.10618 18.2687 3.82299 17.6173 3.82299 16.8244C3.82299 14.7005 3.82299 12.5483 3.82299 10.4244C3.82299 10.3678 3.82299 10.3111 3.82299 10.2545C3.82299 9.943 3.62476 9.77309 3.34157 9.68814C2.60529 9.46159 2.06724 8.95185 1.72742 8.27221C1.72742 8.24389 1.6991 8.18725 1.6991 8.15893C1.6991 8.15893 1.6991 8.13061 1.6991 8.10229ZM4.84246 12.8881C4.84246 13.2846 5.12565 13.5961 5.52211 13.5961C5.89025 13.5961 6.23007 13.2846 6.23007 12.8881C6.23007 12.4917 5.91857 12.1802 5.52211 12.1519C5.18228 12.1802 4.81414 12.4634 4.84246 12.8881Z" fill="white"/>
<path d="M10.7893 12.8881C10.7893 13.228 10.4778 13.5395 10.138 13.5395C9.7982 13.5395 9.48669 13.228 9.48669 12.8598C9.48669 12.52 9.7982 12.2085 10.138 12.2085C10.5062 12.2368 10.846 12.5766 10.7893 12.8881Z" fill="white"/>
<path d="M4.84248 12.8881C4.81416 12.4634 5.1823 12.1802 5.52213 12.1802C5.91859 12.1802 6.23009 12.52 6.23009 12.9165C6.23009 13.3129 5.89027 13.6244 5.52213 13.6244C5.12567 13.5961 4.84248 13.2846 4.84248 12.8881Z" fill="black"/>
<path d="M31.0938 20.2226C31.1221 20.2226 31.1221 20.2226 31.0938 20.2226C31.1504 20.2226 31.1504 20.2226 31.1787 20.2226C31.207 20.2226 31.2637 20.1943 31.292 20.1943C31.3203 20.166 31.3203 20.166 31.3486 20.1377C31.6601 19.9394 31.6318 19.6279 31.6318 19.3164C31.6318 17.9005 31.6318 16.4563 31.6318 15.0403C31.6318 14.5872 31.5752 14.1341 31.4336 13.681C30.9239 12.1235 29.4796 10.9908 27.7805 10.9908C25.9681 10.9624 24.1557 10.9624 22.3433 10.9624C19.2283 10.9624 16.1132 10.9624 13.0265 10.9341C12.9982 10.9341 12.9416 10.9341 12.9132 10.9341C12.8566 10.9341 12.8283 10.9058 12.7716 10.9058C12.715 10.7642 12.7716 10.6793 12.9132 10.6226C12.9699 10.5943 12.9982 10.5943 13.0548 10.566C13.9044 10.1412 14.4991 9.43324 14.8672 8.55537C15.0088 8.24386 15.1221 7.90404 15.1504 7.56422C15.1504 7.16776 14.9522 6.94121 14.5557 6.94121C13.7911 6.94121 13.0265 6.94121 12.2619 6.91289C12.177 6.91289 12.1203 6.91289 12.0354 6.91289C12.0354 6.82793 12.0354 6.77129 12.0354 6.68634C12.0354 6.3182 12.0354 5.95006 12.0354 5.61023C12.0354 5.44032 12.007 5.27041 11.9787 5.12882C11.7805 4.42085 11.0725 3.93944 10.2513 4.10935C9.68492 4.22262 9.17518 4.76068 9.14686 5.32705C9.11854 5.78014 9.11854 6.23324 9.11854 6.68634C9.11854 6.77129 9.11854 6.85625 9.11854 6.91289H6.42828C6.42828 6.82793 6.42828 6.74298 6.42828 6.65802C6.42828 6.26156 6.42828 5.8651 6.42828 5.46864C6.39996 4.50581 5.46545 3.79784 4.4743 4.13767C3.87961 4.3359 3.48315 4.93059 3.48315 5.58191C3.48315 5.95006 3.48315 6.3182 3.48315 6.68634C3.48315 6.77129 3.48315 6.82793 3.48315 6.91289C3.39819 6.91289 3.31324 6.91289 3.22828 6.91289C2.46368 6.91289 1.69908 6.91289 0.934474 6.94121C0.566332 6.94121 0.339784 7.16775 0.368102 7.5359C0.396421 7.76245 0.453058 7.98899 0.509695 8.18722C0.849518 9.23501 1.50085 10.0563 2.492 10.566C2.69023 10.6793 2.74686 10.7642 2.74686 10.9908C2.74686 13.0014 2.74686 14.9837 2.74686 16.9943C2.74686 17.2775 2.77518 17.5607 2.86014 17.8155C3.2566 19.1182 4.10616 19.9394 5.40881 20.1943C5.43713 20.1943 5.46545 20.2226 5.49377 20.2226H5.52208C5.52208 20.2226 5.5504 20.2226 5.57872 20.2226C5.60704 20.2226 5.63536 20.2226 5.63536 20.2509C5.66368 20.2509 5.692 20.2509 5.72031 20.2509C5.83359 20.2509 5.91854 20.2509 6.03182 20.2509C6.06014 20.2509 6.08846 20.2509 6.11678 20.2509C6.28669 20.2509 6.4566 20.2509 6.62651 20.2509C6.68315 20.2509 6.71146 20.2509 6.7681 20.2509H8.83536C8.86368 20.2509 8.892 20.2509 8.92031 20.2509C9.2035 20.2509 9.37341 20.3925 9.51501 20.6191C9.57164 20.7607 9.6566 20.9306 9.6566 21.1005C9.6566 21.1288 9.6566 21.1288 9.6566 21.1571C9.6566 21.2704 9.6566 21.412 9.6566 21.5253C9.6566 21.5536 9.6566 21.5536 9.6566 21.5819C9.68492 22.035 9.68492 22.5164 9.71323 22.9695C9.74155 23.6775 9.76987 24.3855 9.79819 25.0934C9.82651 25.6315 9.82651 26.1695 9.82651 26.7076C9.85483 27.2456 10.223 27.6421 10.7044 27.6704C11.8371 27.6704 12.9416 27.6704 14.0743 27.6704C14.4708 27.6704 14.8106 27.3872 14.8955 26.9908C15.0088 26.5093 15.1221 25.9996 15.207 25.5182C15.3203 25.0085 15.4336 24.527 15.5469 24.0173C15.6035 24.0173 15.6035 23.989 15.6318 23.989C17.9539 23.989 20.2477 23.989 22.5699 23.989C22.7115 23.989 22.7398 24.0456 22.7681 24.1589C22.8247 24.4704 22.9097 24.7819 22.9663 25.1217C23.1079 25.7164 23.2212 26.3394 23.3628 26.9341C23.4477 27.3306 23.8159 27.6704 24.2124 27.6987C25.3451 27.6987 26.4495 27.6987 27.5823 27.6987C28.0354 27.6987 28.4318 27.3023 28.4601 26.8209C28.4885 26.2545 28.5168 25.6881 28.5451 25.0934C28.5734 24.3855 28.63 23.6775 28.6584 22.9412C28.6867 22.5164 28.6867 22.12 28.715 21.6952C28.7433 20.9589 28.8 20.2509 28.8283 19.5147C28.8849 18.7217 28.9132 17.9005 28.9416 17.1076C28.9699 16.4279 29.0265 15.7483 29.0265 15.0686C29.0265 14.0775 28.6867 13.1996 28.092 12.4633C28.0637 12.435 28.0354 12.3784 28.007 12.3217C28.0637 12.3217 28.092 12.3217 28.1203 12.3217C29.338 12.4916 30.3008 13.6244 30.3008 14.8704C30.3008 16.3713 30.3008 17.8439 30.3008 19.3447C30.3008 19.6279 30.3292 19.9111 30.5557 20.1093C30.7823 20.1943 30.9239 20.2226 31.0938 20.2226ZM10.223 5.5536C10.223 5.38368 10.3929 5.21377 10.5628 5.21377C10.7044 5.21377 10.9026 5.32705 10.9026 5.49696C10.9026 5.97837 10.9026 6.43147 10.9026 6.91289H10.223C10.223 6.43147 10.223 5.97837 10.223 5.5536ZM10.1663 12.2368C10.5062 12.2368 10.846 12.5766 10.8177 12.9164C10.8177 13.2563 10.5062 13.5678 10.1663 13.5678C9.82651 13.5678 9.51501 13.2563 9.51501 12.8881C9.51501 12.5483 9.82651 12.2368 10.1663 12.2368ZM4.58757 5.63855C4.58757 5.5536 4.58757 5.46864 4.64421 5.412C4.70085 5.27041 4.87076 5.18545 4.98403 5.21377C5.15394 5.24209 5.26722 5.38368 5.26722 5.5536C5.26722 5.97837 5.26722 6.40315 5.26722 6.82793C5.26722 6.85625 5.26722 6.85625 5.2389 6.91289H4.61589C4.61589 6.85625 4.58757 6.82793 4.58757 6.77129C4.58757 6.40315 4.58757 6.00669 4.58757 5.63855ZM10.3646 18.9483C10.0531 19.0899 9.74155 19.1465 9.40173 19.1465C8.32562 19.1465 7.2212 19.1465 6.14509 19.1465C5.63536 19.1465 5.15394 19.0616 4.72916 18.7501C4.10616 18.297 3.82297 17.6456 3.82297 16.8527C3.82297 14.7288 3.82297 12.5766 3.82297 10.4527C3.82297 10.3961 3.82297 10.3394 3.82297 10.2828C3.82297 9.97129 3.62474 9.80138 3.34155 9.71643C2.60527 9.48988 2.06722 8.98014 1.72739 8.3005C1.72739 8.24386 1.69908 8.18722 1.69908 8.15891C1.69908 8.15891 1.69908 8.13059 1.69908 8.10227H7.07961C7.07961 8.21554 7.07961 8.32882 7.07961 8.44209C7.07961 8.92351 7.05129 9.40492 7.07961 9.88634C7.16456 10.7642 7.39111 11.6138 7.75925 12.435C8.09908 13.1713 8.52385 13.8226 9.09023 14.389C9.76987 15.097 10.5911 15.635 11.5539 15.9182C11.6389 15.9465 11.6672 15.9748 11.6672 16.0598C11.6389 16.5129 11.7239 16.9377 11.6106 17.3908C11.469 18.127 11.0442 18.6368 10.3646 18.9483ZM27.8088 15.4368C27.7522 16.1447 27.7239 16.8527 27.6955 17.5607C27.6389 18.4669 27.6106 19.3731 27.5539 20.2793C27.4973 21.2987 27.4407 22.3465 27.384 23.366C27.3557 23.989 27.2991 24.612 27.2708 25.235C27.2424 25.6315 27.2141 25.9996 27.1858 26.4244H24.5805C24.269 25.2067 24.0424 23.989 23.7309 22.743C23.646 22.743 23.5893 22.7147 23.5327 22.7147C20.5876 22.7147 17.6424 22.7147 14.7256 22.7147C14.4991 22.7147 14.4991 22.743 14.4424 22.9412C14.3292 23.4793 14.1876 24.0456 14.0743 24.5837C13.961 25.0934 13.8477 25.6315 13.7345 26.1412C13.6778 26.3961 13.6778 26.3961 13.4513 26.3961C12.715 26.3961 12.007 26.3961 11.2991 26.3961C11.0725 26.3961 11.0725 26.3961 11.0725 26.1412C11.0725 24.7253 11.0442 23.3093 11.0442 21.9217C11.0442 21.2987 11.0442 20.6757 11.0159 20.0527C11.0159 19.9111 11.0442 19.8262 11.1858 19.7695C11.8938 19.3447 12.4035 18.7217 12.6584 17.9005C12.7433 17.6456 12.7716 17.3908 12.7716 17.1359C12.7716 15.6067 12.7716 14.0775 12.7716 12.5483C12.7716 12.4916 12.7716 12.435 12.7716 12.3784C12.7716 12.2651 12.8283 12.2368 12.9132 12.2368C12.9699 12.2368 13.0265 12.2368 13.0831 12.2368C14.0177 12.2368 14.9239 12.2368 15.8584 12.2368H24.6938V12.2651C25.1469 12.2651 25.5716 12.2651 26.0247 12.2651C26.1663 12.2651 26.2796 12.3217 26.3646 12.435C26.5628 12.6616 26.7327 12.8598 26.9309 13.058C27.5539 13.7093 27.8938 14.5023 27.8088 15.4368Z" fill="black"/>
<path d="M31.1221 20.5907H31.0938C30.9239 20.5907 30.6973 20.5624 30.4708 20.4491L30.3292 20.3925L30.3009 20.3076C30.046 20.0244 30.0177 19.6562 30.0177 19.3447C30.0177 18.0138 30.0177 16.6828 30.0177 15.3518V14.8704C30.0177 14.0775 29.5646 13.3412 28.885 12.9447C29.2531 13.6244 29.4513 14.3323 29.423 15.0969C29.423 15.5784 29.3947 16.0598 29.3664 16.5129C29.3664 16.7394 29.3381 16.9376 29.3381 17.1642L29.3097 18.0138C29.2814 18.5518 29.2531 19.0615 29.2248 19.5996C29.1965 20.0244 29.1681 20.4208 29.1398 20.8456C29.1115 21.1571 29.1115 21.4686 29.0832 21.7801C29.0832 22.0067 29.0549 22.2332 29.0549 22.4598C29.0549 22.658 29.0265 22.8279 29.0265 23.0261C28.9982 23.4509 28.9699 23.8474 28.9699 24.2722L28.885 25.5748C28.8566 25.9996 28.8283 26.4527 28.8283 26.8775C28.8 27.5288 28.2336 28.0668 27.6106 28.0668C26.4779 28.0668 25.3734 28.0668 24.2407 28.0668C23.6743 28.0668 23.1646 27.6138 23.0513 27.0474C22.9664 26.6509 22.8814 26.2261 22.7965 25.8297L22.6265 25.0651C22.5699 24.8385 22.5416 24.6403 22.485 24.4137C20.7575 24.4137 19.0584 24.4137 17.3593 24.4137H15.8584L15.8018 24.612C15.7168 24.9518 15.6319 25.2916 15.5752 25.6598C15.5469 25.858 15.4903 26.0279 15.4619 26.2261C15.4053 26.5376 15.3204 26.8208 15.2637 27.1323C15.1221 27.6987 14.6407 28.0952 14.1027 28.0952C13.508 28.0952 12.9416 28.0952 12.3752 28.0952C11.8088 28.0952 11.2708 28.0952 10.7327 28.0952C10.0531 28.0952 9.51504 27.5288 9.51504 26.7925C9.51504 26.5376 9.51504 26.2545 9.48672 25.9996C9.48672 25.7164 9.48672 25.4615 9.45841 25.1784C9.45841 24.6969 9.43009 24.2155 9.40177 23.7341L9.31681 21.6102V21.5819C9.31681 21.4686 9.31681 21.3553 9.31681 21.2421V21.2138V21.1571C9.31681 21.1005 9.28849 21.0155 9.20354 20.8173C9.1469 20.704 9.06195 20.6474 8.92035 20.6474H8.89203C8.86372 20.6474 8.8354 20.6474 8.8354 20.6474H8.52389H6.76814C6.73982 20.6474 6.68318 20.6474 6.65487 20.6474H6.62655H6.51327C6.37168 20.6474 6.23009 20.6474 6.08849 20.6474C6.06018 20.6474 6.06018 20.6474 6.03186 20.6474C5.91858 20.6474 5.80531 20.6474 5.72035 20.6474L5.4938 20.6191L5.35221 20.5624C3.93628 20.2792 2.97345 19.4014 2.54867 17.9571C2.46372 17.7022 2.4354 17.3907 2.4354 17.0226C2.4354 15.0969 2.4354 13.0863 2.4354 11.0191C2.4354 10.9624 2.4354 10.9341 2.4354 10.9341C2.4354 10.9341 2.40708 10.9341 2.37876 10.9058C1.33097 10.3677 0.623008 9.51817 0.226547 8.32879C0.141592 8.10225 0.0849545 7.84738 0.0566359 7.59251C0.0283173 7.33764 0.113273 7.08278 0.283185 6.91287C0.453096 6.74295 0.707963 6.62968 0.962831 6.62968C1.5292 6.62968 2.09557 6.62968 2.66195 6.62968H3.17168V6.51641C3.17168 6.2049 3.17168 5.8934 3.17168 5.61021C3.17168 4.78897 3.6531 4.08101 4.38938 3.82614C4.95575 3.62791 5.55044 3.71287 6.03186 4.05269C6.48495 4.39251 6.76814 4.90225 6.79646 5.46862C6.79646 5.7518 6.79646 6.03499 6.79646 6.28986C6.79646 6.37481 6.79646 6.45977 6.79646 6.57304H8.80708C8.80708 6.45977 8.80708 6.34649 8.80708 6.23322C8.80708 5.92172 8.80708 5.61021 8.8354 5.29871C8.86372 4.56242 9.45841 3.9111 10.1947 3.74118C11.1292 3.54295 12.0637 4.10933 12.3186 5.01552C12.3752 5.18543 12.3752 5.35534 12.4035 5.58189C12.4035 5.83676 12.4035 6.06331 12.4035 6.31818C12.4035 6.40313 12.4035 6.48809 12.4035 6.54472H13.2248C13.6779 6.54472 14.131 6.54472 14.5841 6.54472C14.8673 6.54472 15.1221 6.62968 15.292 6.79959C15.4619 6.9695 15.5469 7.22437 15.5186 7.50756C15.5186 7.93233 15.3487 8.30048 15.2071 8.6403C14.8673 9.43322 14.3575 10.0562 13.7062 10.5093H15.8584C18.0389 10.5093 20.1911 10.5093 22.3717 10.5093C24.3823 10.5093 26.0814 10.5093 27.8088 10.5376C29.6212 10.566 31.2071 11.727 31.7734 13.4828C31.915 13.9076 31.9717 14.389 32 14.9553C32 15.8332 32 16.7111 32 17.589C32 18.127 32 18.6934 32 19.2314C32 19.458 32 19.7412 31.8584 19.9961L31.1221 20.5907ZM9.99646 21.6385L10.0814 23.6775C10.1097 24.1589 10.1097 24.6403 10.1381 25.1217C10.1381 25.4049 10.1381 25.6598 10.1664 25.943C10.1664 26.1978 10.1664 26.481 10.1947 26.7359C10.1947 27.0757 10.4496 27.3306 10.7327 27.3589C11.7805 27.3589 12.885 27.3589 14.1027 27.3589C14.3292 27.3589 14.5558 27.189 14.6124 26.9341C14.669 26.6226 14.754 26.3394 14.8106 26.0279C14.8389 25.8297 14.8956 25.6314 14.9239 25.4615C15.0088 25.1217 15.0938 24.7819 15.1504 24.4137L15.292 23.7624L15.5186 23.7058C15.5469 23.7058 15.6035 23.6775 15.6602 23.6775H17.3593C19.115 23.6775 20.8425 23.6775 22.5982 23.6775C22.8814 23.6775 23.0796 23.8474 23.1363 24.1306C23.1929 24.3854 23.2496 24.6403 23.3062 24.8668L23.4761 25.6314C23.5611 26.0562 23.646 26.4527 23.731 26.8775C23.7876 27.1323 24.0142 27.3589 24.269 27.3589C25.4018 27.3589 26.5062 27.3589 27.6389 27.3589C27.8938 27.3589 28.1487 27.104 28.177 26.8208C28.2053 26.396 28.2336 25.943 28.2336 25.5182L28.3186 24.2155C28.3469 23.7907 28.3752 23.3943 28.3752 22.9695C28.3752 22.7713 28.4035 22.6014 28.4035 22.4031C28.4035 22.1766 28.4319 21.95 28.4319 21.7235C28.4602 21.412 28.4602 21.1005 28.4885 20.789C28.5168 20.3642 28.5451 19.9677 28.5735 19.543C28.6018 19.0049 28.6301 18.4952 28.6584 17.9571L28.6867 17.1076C28.6867 16.881 28.715 16.6828 28.715 16.4562C28.7434 16.0031 28.7717 15.5217 28.7717 15.0686C28.7717 14.2191 28.4885 13.3978 27.9221 12.6899C27.8938 12.6615 27.8655 12.6049 27.8372 12.5766L27.469 12.0385L28.092 11.9819C28.1204 11.9819 28.177 11.9819 28.2336 11.9819C29.5929 12.1801 30.7257 13.4545 30.7257 14.8704V15.3518C30.7257 16.6828 30.7257 18.0138 30.7257 19.3447C30.7257 19.5713 30.754 19.7129 30.8389 19.8261C30.8956 19.8545 30.9522 19.8545 31.0088 19.8545H31.1221H31.1504C31.1504 19.8545 31.1504 19.8545 31.1788 19.8545H31.2071C31.3487 19.7695 31.3487 19.6562 31.3487 19.3447C31.3487 18.7784 31.3487 18.2403 31.3487 17.6739C31.3487 16.7961 31.3487 15.9182 31.3487 15.0403C31.3487 14.5589 31.292 14.1624 31.1788 13.7943C30.6973 12.35 29.3664 11.3589 27.8655 11.3306C26.1381 11.3022 24.4389 11.3022 22.4283 11.3022C20.2478 11.3022 18.0956 11.3022 15.915 11.3022H13.1115H13.0265C12.9699 11.3022 12.9416 11.3022 12.885 11.3022C12.8283 11.3022 12.8 11.2739 12.7434 11.2739L12.5168 11.2173L12.4602 11.0191C12.3469 10.7076 12.4885 10.4244 12.8 10.3111C12.8283 10.2828 12.885 10.2828 12.9133 10.2545C13.6496 9.858 14.2159 9.26331 14.5841 8.41375C14.6973 8.13056 14.8106 7.84738 14.8389 7.56419C14.8389 7.45092 14.8389 7.39428 14.7823 7.36596C14.754 7.33764 14.669 7.30933 14.5841 7.30933C14.131 7.30933 13.6779 7.30933 13.2248 7.30933H12.2903C12.2336 7.30933 12.177 7.30933 12.1204 7.30933L11.7239 7.28101L11.6956 6.88455C11.6956 6.82791 11.6956 6.77127 11.6956 6.71464C11.6956 6.60136 11.6956 6.45977 11.6956 6.34649C11.6956 6.11995 11.6956 5.86508 11.6956 5.63853C11.6956 5.52525 11.6956 5.35534 11.6389 5.24207C11.4973 4.76065 10.9876 4.33587 10.308 4.44915C9.88319 4.5341 9.48672 4.95888 9.45841 5.35534C9.43009 5.63853 9.43009 5.95003 9.43009 6.26154C9.43009 6.40313 9.43009 6.54472 9.43009 6.68632C9.43009 6.74295 9.43009 6.79959 9.40177 6.85623L9.37345 7.25269H6.06018V6.658C6.06018 6.54472 6.06018 6.40313 6.06018 6.28986C6.06018 6.03499 6.06018 5.7518 6.06018 5.49694C6.06018 5.12879 5.89026 4.81729 5.57876 4.61906C5.29557 4.42083 4.89911 4.36419 4.55929 4.47747C4.10619 4.61906 3.82301 5.07216 3.82301 5.58189C3.82301 5.8934 3.82301 6.2049 3.82301 6.51641V6.71464C3.82301 6.77127 3.82301 6.82791 3.82301 6.88455L3.79469 7.28101H2.63363C2.06726 7.28101 1.50088 7.28101 0.934512 7.28101C0.849556 7.28101 0.792919 7.30933 0.736282 7.33764C0.707963 7.36596 0.707963 7.45092 0.707963 7.50756C0.707963 7.70579 0.792919 7.90402 0.849556 8.07393C1.16106 9.06508 1.78407 9.80136 2.63363 10.2261C2.94513 10.3961 3.08672 10.6226 3.08672 10.9624C3.08672 13.0297 3.08672 15.0403 3.08672 16.966C3.08672 17.2491 3.11504 17.504 3.17168 17.7022C3.53982 18.8916 4.2761 19.5996 5.46549 19.8261C5.52212 19.8261 5.57876 19.8545 5.60708 19.8828C5.60708 19.8828 5.60708 19.8828 5.6354 19.8828H5.66372C5.69203 19.8828 5.69203 19.8828 5.72035 19.8828C5.80531 19.8828 5.89026 19.8828 6.00354 19.8828C6.00354 19.8828 6.03186 19.8828 6.06018 19.8828C6.20177 19.8828 6.34336 19.8828 6.51327 19.8828H6.56991C6.62655 19.8828 6.68318 19.8828 6.73982 19.8828H9.1469V19.9111C9.43009 19.9677 9.65664 20.166 9.79823 20.4491C9.85487 20.5907 9.96814 20.8173 9.96814 21.0438C9.96814 21.0722 9.96814 21.1005 9.96814 21.1571C9.96814 21.2704 9.96814 21.3837 9.96814 21.4969C9.99646 21.5819 9.99646 21.6102 9.99646 21.6385ZM5.46549 20.5907C5.46549 20.5907 5.4938 20.5907 5.46549 20.5907V20.5907ZM11.2991 26.7925C10.8743 26.7925 10.7327 26.6226 10.7327 26.1978L10.7044 21.7235C10.7044 21.1854 10.7044 20.6191 10.6761 20.081C10.6761 19.8261 10.7894 19.6279 11.0159 19.4863C11.6673 19.0899 12.1204 18.5235 12.3469 17.8155C12.4035 17.6173 12.4319 17.3907 12.4319 17.1359C12.4319 15.9748 12.4319 14.8421 12.4319 13.681V12.5199V12.4916C12.4319 12.4633 12.4319 12.435 12.4319 12.3784C12.4319 12.1801 12.4885 12.0668 12.5735 12.0102C12.6301 11.9536 12.7434 11.8686 12.9416 11.8686H13.6496C14.3009 11.8686 14.9522 11.8686 15.6319 11.8686H15.8584H25.0336V11.9253C25.3451 11.9253 25.685 11.9253 25.9965 11.9253C26.2513 11.9253 26.4496 12.0102 26.5911 12.2084C26.7611 12.4067 26.9593 12.6049 27.1575 12.8315C27.8938 13.5677 28.2336 14.4739 28.1487 15.4934C28.1204 15.9748 28.092 16.4845 28.0637 16.966L27.8938 20.3076C27.8372 21.327 27.7805 22.3748 27.7239 23.3943C27.6956 23.904 27.6673 24.4137 27.6389 24.9518L27.5257 26.7925H24.354L24.2973 26.5376C24.1274 25.8863 23.9858 25.2067 23.8442 24.5553C23.731 24.0739 23.6177 23.5925 23.5044 23.1111C20.6159 23.1111 17.7274 23.1111 14.8106 23.1111C14.7257 23.4509 14.669 23.7907 14.5841 24.1306L14.4142 24.8385C14.3009 25.3199 14.1876 25.8014 14.0743 26.3111C13.9894 26.7076 13.8478 26.8208 13.4513 26.8208L11.2991 26.7925ZM11.3841 20.081C11.3841 20.6474 11.3841 21.1854 11.4124 21.7235V26.0845H13.423C13.5363 25.6031 13.6496 25.1217 13.7345 24.6403L13.9044 23.9323C13.9894 23.5925 14.0743 23.2527 14.131 22.8845C14.2159 22.5447 14.3292 22.3748 14.7257 22.3748C17.6708 22.3748 20.6159 22.3748 23.5327 22.3748C23.5894 22.3748 23.646 22.3748 23.7027 22.3748L24.0142 22.4031L24.0708 22.658C24.2124 23.2244 24.3257 23.7907 24.4673 24.3571C24.5805 24.9235 24.7221 25.4899 24.8637 26.0562H26.9027L26.9876 24.8668C27.0159 24.3571 27.0442 23.8474 27.0726 23.3376C27.1292 22.3182 27.1858 21.2704 27.2425 20.2509L27.4124 16.9093C27.4407 16.3996 27.469 15.9182 27.4973 15.4084C27.554 14.5872 27.2991 13.9076 26.7044 13.2845C26.5062 13.058 26.2796 12.8598 26.1097 12.6332C26.0814 12.6049 26.0814 12.6049 26.0248 12.6049C25.5717 12.6049 25.1469 12.6049 24.6938 12.6049H24.354V12.5766H15.8867C15.1504 12.5766 14.4142 12.5766 13.6779 12.5766H13.1681V13.7093C13.1681 14.8704 13.1681 16.0031 13.1681 17.1642C13.1681 17.4757 13.1115 17.7872 13.0265 18.0421C12.715 18.9199 12.177 19.5996 11.3841 20.081ZM6.14513 19.4863C5.4938 19.4863 4.98407 19.3447 4.53097 19.0049C3.82301 18.4952 3.48318 17.7589 3.45487 16.8244C3.45487 15.3235 3.45487 13.8226 3.45487 12.35V10.3677C3.45487 10.3394 3.45487 10.2828 3.45487 10.2545C3.45487 10.1695 3.42655 10.0845 3.22832 10.0279C2.4354 9.77304 1.84071 9.23499 1.41593 8.44207C1.38761 8.38543 1.35929 8.32879 1.35929 8.27216C1.33097 8.1872 1.33097 8.10225 1.35929 8.07393L1.41593 7.79074L1.69911 7.76242H7.41947V8.44207C7.41947 8.58366 7.41947 8.75357 7.41947 8.89517C7.41947 9.23499 7.41947 9.54649 7.44779 9.858C7.50442 10.6509 7.73097 11.4722 8.09911 12.2651C8.41062 12.973 8.8354 13.6244 9.34513 14.1341C10.0531 14.8704 10.7894 15.3235 11.6389 15.5784C12.0071 15.6916 12.0071 15.9748 12.0071 16.0598C12.0071 16.2014 12.0071 16.343 12.0071 16.4845C12.0071 16.7961 12.0354 17.1076 11.9504 17.4474C11.7805 18.2686 11.2708 18.8633 10.5062 19.2314C10.1947 19.373 9.85487 19.458 9.40177 19.458H8.21239C7.53274 19.458 6.8531 19.458 6.14513 19.4863ZM2.23717 8.44207C2.54867 8.89517 2.94513 9.20667 3.45487 9.34826C4.04956 9.54649 4.16283 9.97127 4.16283 10.2261C4.16283 10.2828 4.16283 10.3394 4.16283 10.3677V12.3217C4.16283 13.8226 4.16283 15.2952 4.16283 16.7961C4.16283 17.4757 4.4177 18.0138 4.92743 18.4102C5.23894 18.6368 5.6354 18.75 6.14513 18.75C6.82478 18.75 7.53274 18.75 8.21239 18.75H9.40177C9.74159 18.75 9.99646 18.6934 10.223 18.6084C10.7894 18.3536 11.1575 17.9288 11.2708 17.3058C11.3274 17.0509 11.3274 16.7961 11.2991 16.5129C11.2991 16.4279 11.2991 16.3146 11.2991 16.2297C10.3929 15.9465 9.57168 15.4084 8.8354 14.6438C8.26903 14.0775 7.81593 13.3695 7.44779 12.5766C7.05133 11.6987 6.82478 10.8208 6.73982 9.91464C6.7115 9.57481 6.7115 9.20667 6.7115 8.89517C6.7115 8.75357 6.7115 8.61198 6.7115 8.47039H2.23717V8.44207ZM10.1664 13.9076C9.9115 13.9076 9.65664 13.7943 9.45841 13.5961C9.26018 13.3978 9.17522 13.143 9.17522 12.8881C9.17522 12.35 9.62832 11.8969 10.1664 11.8969C10.4496 11.8969 10.7327 12.0385 10.9027 12.2651C11.0726 12.4633 11.1575 12.7182 11.1292 12.9447C11.1292 13.4545 10.6761 13.9076 10.1664 13.9076ZM10.1381 12.5766C9.99646 12.5766 9.85487 12.7182 9.85487 12.8881C9.85487 12.9447 9.88318 13.0297 9.93982 13.0863C9.99646 13.143 10.0814 13.1996 10.1664 13.1996C10.308 13.1996 10.4496 13.058 10.4496 12.8881V12.8598C10.4496 12.8031 10.4212 12.7465 10.3929 12.6899C10.3363 12.6332 10.223 12.5766 10.1381 12.5766ZM5.52212 7.28101H4.33274L4.2761 6.9695C4.2761 6.94118 4.24779 6.88455 4.24779 6.79959C4.24779 6.40313 4.24779 6.03499 4.24779 5.63853C4.24779 5.49694 4.2761 5.35534 4.33274 5.27039C4.44602 4.9872 4.78584 4.81729 5.06903 4.87393C5.40885 4.93056 5.6354 5.21375 5.6354 5.55357C5.6354 5.8934 5.6354 6.23322 5.6354 6.54472V6.82791C5.6354 6.91287 5.60708 6.9695 5.60708 6.99782L5.52212 7.28101ZM11.2425 7.25269H9.88319V6.51641C9.88319 6.17658 9.88319 5.86508 9.88319 5.55357C9.88319 5.18543 10.1664 4.90225 10.5345 4.87393C10.7044 4.87393 10.9027 4.93056 11.0442 5.04384C11.1858 5.15711 11.2425 5.32702 11.2708 5.49694C11.2708 5.83676 11.2708 6.17658 11.2708 6.51641L11.2425 7.25269Z" fill="black"/>
<path d="M26.9309 13.0581C26.7327 12.8598 26.5345 12.6333 26.3645 12.435C26.2796 12.3218 26.1663 12.2651 26.0247 12.2651C25.7132 12.2651 25.4017 12.2651 25.1185 12.2651V12.2368H16.5946C16.5097 12.2368 16.453 12.2368 16.3681 12.2368C15.2637 12.2368 14.1592 12.2368 13.0548 12.2368C12.9982 12.2368 12.9415 12.2368 12.8849 12.2368C12.7716 12.2368 12.7433 12.2935 12.7433 12.3784C12.7433 12.435 12.7433 12.4917 12.7433 12.5483C12.7433 14.0775 12.7433 15.6067 12.7433 17.1359C12.7433 17.3908 12.715 17.674 12.63 17.9005C12.3752 18.6935 11.8937 19.3165 11.1575 19.7696C11.0442 19.8545 10.9875 19.9112 10.9875 20.0527C10.9875 20.6758 10.9875 21.2988 11.0159 21.9218C11.0159 23.3377 11.0442 24.7536 11.0442 26.1412C11.0442 26.3678 11.0442 26.3961 11.2707 26.3961C12.007 26.3961 12.715 26.3961 13.4229 26.3961C13.6495 26.3961 13.6495 26.3961 13.7061 26.1412C13.8194 25.6315 13.9327 25.0935 14.046 24.5837C14.1592 24.0457 14.3008 23.4793 14.4141 22.9412C14.4707 22.7147 14.4707 22.7147 14.6973 22.7147C17.6424 22.7147 20.5875 22.7147 23.5044 22.7147C23.561 22.7147 23.646 22.7147 23.7026 22.743C23.9858 23.989 24.2406 25.2067 24.5521 26.4244C25.43 26.4244 26.2796 26.4244 27.1575 26.4244C27.1858 25.9996 27.2141 25.6315 27.2424 25.235C27.2707 24.612 27.3274 23.989 27.3557 23.366C27.4123 22.3466 27.469 21.2988 27.5256 20.2793C27.5822 19.3731 27.6106 18.4669 27.6672 17.5607C27.6955 16.8527 27.7238 16.1448 27.7805 15.4368C27.8937 14.5023 27.5539 13.7094 26.9309 13.0581Z" fill="white"/>
<path d="M17.3876 16.0881C18.6619 16.0881 19.7097 15.0403 19.7097 13.7376C19.7097 12.435 18.6902 11.3589 17.3876 11.3589C16.1132 11.3589 15.0654 12.4067 15.0654 13.7093C15.0654 15.012 16.1132 16.0881 17.3876 16.0881Z" fill="black"/>
<path d="M24.0425 20.7606C25.1186 20.7606 25.9965 19.8827 25.9965 18.7783C25.9965 17.6739 25.1186 16.796 24.0425 16.796C22.9664 16.796 22.0885 17.6739 22.0885 18.7783C22.0885 19.8827 22.9664 20.7606 24.0425 20.7606Z" fill="black"/>
<path d="M17.4443 23.4793C18.5204 23.451 19.5965 23.5926 20.6443 23.7342C20.6726 23.7342 20.7009 23.7342 20.7292 23.7342C20.7576 23.5642 20.7576 23.4226 20.7576 23.2527C20.7576 21.497 19.3699 20.0811 17.6425 20.0811C15.9151 20.0811 14.5275 21.497 14.5275 23.2527C14.5275 23.5642 14.5841 23.8474 14.6407 24.1306C15.377 23.4226 16.5098 23.5076 17.4443 23.4793Z" fill="black"/>
<path d="M18.9168 11.2173C18.8319 11.2173 18.7752 11.2173 18.7186 11.189C18.4354 11.5005 18.2938 11.8403 18.2938 12.2368C18.2938 13.2845 19.4549 14.1341 20.8991 14.1341C22.3434 14.1341 23.5044 13.2845 23.5044 12.2368C23.5044 11.8686 23.3628 11.5005 23.108 11.2173H18.9168Z" fill="black"/>
<path d="M9.51509 12.8881C9.48677 12.4634 9.85491 12.1802 10.1947 12.1802C10.5912 12.1802 10.9027 12.52 10.9027 12.9165C10.9027 13.3129 10.5629 13.6244 10.1947 13.6244C9.79827 13.5961 9.51509 13.2846 9.51509 12.8881Z" fill="white"/>
<path d="M5.32392 6.60141C5.01241 6.60141 4.70091 6.60141 4.3894 6.60141C4.3894 6.54477 4.36108 6.48813 4.36108 6.4315C4.36108 5.95008 4.36108 6.09167 4.36108 5.58194C4.36108 5.46866 4.3894 5.35539 4.41772 5.27043C4.50268 5.10052 4.75754 4.98725 4.92746 5.01557C5.18232 5.0722 5.38055 5.24212 5.38055 5.49698C5.38055 6.03504 5.38055 5.95008 5.38055 6.51645C5.38055 6.51645 5.35223 6.54477 5.32392 6.60141Z" fill="white"/>
<path d="M11.0443 6.60141C10.7327 6.60141 10.4212 6.60141 10.1097 6.60141C10.1097 6.54477 10.0814 6.48813 10.0814 6.4315C10.0814 5.95008 10.0814 6.09167 10.0814 5.58194C10.0814 5.46866 10.1097 5.35539 10.1381 5.27043C10.223 5.10052 10.4779 4.98725 10.6478 5.01557C10.9027 5.04389 11.0726 5.24212 11.0726 5.46866C11.0726 6.00672 11.0726 5.92176 11.0726 6.48813C11.0726 6.51645 11.0443 6.54477 11.0443 6.60141Z" fill="white"/>
</svg>
