<svg width="32" height="32" viewBox="0 0 32 32" fill="none" xmlns="http://www.w3.org/2000/svg">
<g clip-path="url(#clip0_172_16396)">
<path d="M16 32C24.8366 32 32 24.8366 32 16C32 7.16344 24.8366 0 16 0C7.16344 0 0 7.16344 0 16C0 24.8366 7.16344 32 16 32Z" fill="#000D2B"/>
<path d="M15.92 5.87988L11.402 8.52688L15.92 11.1749L20.523 8.52688L15.92 5.87988ZM16.663 20.0139V25.3089L22.8 21.8079V16.5119L16.663 20.0139V20.0139ZM21.266 10.1919V15.4879L16.662 18.1359V12.8399L21.266 10.1919ZM10.184 15.4879L14.788 18.1359V12.8399L10.184 10.1919V15.4879ZM10.184 22.6619L14.788 25.3089V20.0139L10.184 17.3669V22.6609V22.6619Z" fill="white"/>
</g>
<defs>
<clipPath id="clip0_172_16396">
<rect width="32" height="32" fill="white"/>
</clipPath>
</defs>
</svg>
