<svg width="32" height="32" viewBox="0 0 32 32" fill="none" xmlns="http://www.w3.org/2000/svg">
<g clip-path="url(#clip0_4767_68050)">
<path d="M16 32C24.8366 32 32 24.8366 32 16C32 7.16344 24.8366 0 16 0C7.16344 0 0 7.16344 0 16C0 24.8366 7.16344 32 16 32Z" fill="#000D2B"/>
<path d="M15.9201 5.87988L11.4021 8.52688L15.9201 11.1749L20.5231 8.52688L15.9201 5.87988ZM16.6631 20.0139V25.3089L22.8001 21.8079V16.5119L16.6631 20.0139ZM21.2661 10.1919V15.4879L16.6621 18.1359V12.8399L21.2661 10.1919ZM10.1841 15.4879L14.7881 18.1359V12.8399L10.1841 10.1919V15.4879ZM10.1841 22.6619L14.7881 25.3089V20.0139L10.1841 17.3669V22.6609V22.6619Z" fill="white"/>
</g>
<defs>
<clipPath id="clip0_4767_68050">
<rect width="32" height="32" fill="white"/>
</clipPath>
</defs>
</svg>
