<svg width="34" height="32" viewBox="0 0 34 32" fill="none" xmlns="http://www.w3.org/2000/svg">
    <g clip-path="url(#clip0_5848_6595)">
        <path
            d="M16.6667 23.8667C18 23.8667 19.3334 23.4667 20.6667 22.8C24.4 20.6667 25.7334 15.7334 23.6 12C21.4667 8.26671 16.5334 6.93338 12.8 9.06671C10.9334 10.1334 9.73338 11.8667 9.06672 13.8667C8.53338 15.8667 8.80005 18 9.86672 19.8667C11.2 22.5334 13.8667 23.8667 16.6667 23.8667ZM11.4667 14.6667C11.8667 13.3334 12.6667 12.1334 14 11.4667C14.8 10.9334 15.7334 10.8 16.6667 10.8C18.5334 10.8 20.2667 11.7334 21.3334 13.4667C22.8 16 21.8667 19.3334 19.3334 20.8C16.8 22.2667 13.4667 21.3334 12 18.8C11.3334 17.4667 11.0667 16 11.4667 14.6667Z"
            fill="#1A1A1D" />
        <path
            d="M25.4667 10.8001C26.5334 12.5334 28.1334 13.8667 30.1334 14.4001C30.8 14.5334 31.4667 14.6667 32.1334 14.6667C32.5334 14.6667 32.8 14.6667 33.2 14.5334C33.0667 13.7334 32.9334 12.9334 32.8 12.0001C32.1334 12.1334 31.4667 12.0001 30.8 11.8667C29.4667 11.4667 28.4 10.6667 27.6 9.46672C26.9334 8.26672 26.6667 6.93339 27.0667 5.60006C27.2 4.93339 27.6 4.40006 28 3.86672C27.3334 3.33339 26.8 2.80006 26 2.26672C25.3334 3.06672 24.9334 4.00006 24.6667 4.93339C24.1334 7.06672 24.4 9.06672 25.4667 10.8001Z"
            fill="#1A1A1D" />
        <path
            d="M30.1334 17.6C28.1334 18.1333 26.5334 19.3333 25.4667 21.2C24.4 22.9333 24.1334 25.0666 24.6667 27.0666C24.9334 28.1333 25.4667 28.9333 26 29.7333C26.6667 29.2 27.3334 28.6666 28 28.1333C27.6 27.6 27.3334 27.0666 27.0667 26.4C26.6667 25.0666 26.9334 23.7333 27.6 22.5333C28.2667 21.3333 29.4667 20.5333 30.8 20.1333C31.4667 20 32.1334 19.8666 32.8 20C32.9334 19.2 33.0667 18.4 33.2 17.4666C32.1334 17.2 31.2 17.3333 30.1334 17.6Z"
            fill="#1A1A1D" />
        <path
            d="M16.5333 28.8001C18.6666 28.8001 20.5333 30.1334 21.3333 32.0001C22.1333 31.7334 22.9333 31.4667 23.7333 31.0667C22.5333 28.2667 19.8666 26.2667 16.6666 26.2667C13.4666 26.2667 10.6666 28.2667 9.59998 31.0667C10.4 31.4667 11.2 31.7334 12 32.0001C12.6666 30.1334 14.4 28.8001 16.5333 28.8001Z"
            fill="#1A1A1D" />
        <path
            d="M16.5333 5.73333C19.7333 5.73333 22.5333 3.73333 23.6 0.933333C22.8 0.533333 22.1333 0.266667 21.2 0C20.4 1.86667 18.5333 3.2 16.4 3.2C14.2666 3.2 12.4 1.86667 11.6 0C10.8 0.266667 9.99995 0.533333 9.19995 0.933333C10.6666 3.73333 13.3333 5.73333 16.5333 5.73333Z"
            fill="#1A1A1D" />
        <path
            d="M7.73333 21.1999C6.66667 19.4666 5.06667 18.1333 3.06667 17.5999C2 17.3333 1.06667 17.3333 0 17.4666C0.133333 18.2666 0.266667 19.0666 0.4 19.9999C0.666667 19.9999 0.8 19.9999 1.06667 19.9999C1.46667 19.9999 2 19.9999 2.4 20.1333C3.73333 20.5333 4.8 21.3333 5.6 22.5333C6.66667 24.3999 6.4 26.6666 5.2 28.2666C5.86667 28.7999 6.4 29.3333 7.2 29.8666C8.93333 27.3333 9.33333 23.8666 7.73333 21.1999Z"
            fill="#1A1A1D" />
        <path
            d="M3.06667 14.4001C5.06667 13.8667 6.66667 12.6667 7.73333 10.8001C8.8 9.06672 9.06667 6.93339 8.53333 4.93339C8.26667 3.86672 7.73333 3.06672 7.2 2.26672C6.4 2.80006 5.73333 3.33339 5.2 3.86672C5.6 4.40006 5.86667 4.93339 6.13333 5.60006C6.53333 6.93339 6.26667 8.26672 5.6 9.46672C4.93333 10.6667 3.73333 11.4667 2.4 11.8667C1.73333 12.0001 1.06667 12.1334 0.4 12.0001C0.266667 12.8001 0.133333 13.6001 0 14.5334C0.4 14.5334 0.666667 14.6667 1.06667 14.6667C1.73333 14.6667 2.4 14.6667 3.06667 14.4001Z"
            fill="#1A1A1D" />
    </g>
    <defs>
        <clipPath id="clip0_5848_6595">
            <rect width="33.2" height="32" fill="white" />
        </clipPath>
    </defs>
</svg>
    