<svg width="70" height="70" viewBox="0 0 70 70" fill="none" xmlns="http://www.w3.org/2000/svg">
<path fill-rule="evenodd" clip-rule="evenodd" d="M55.3131 18.3921C53.3389 16.4186 50.6627 15.3082 47.871 15.3044C45.0781 15.3058 42.4002 16.4162 40.4259 18.3913C38.4517 20.3663 37.3428 23.0444 37.3432 25.8367C37.3406 27.597 37.7845 29.3292 38.6333 30.8714C39.9478 29.8012 41.4437 28.9754 43.0499 28.4333C42.6139 27.636 42.3884 26.7408 42.3947 25.8322C42.3843 25.1065 42.5183 24.386 42.7888 23.7126C43.0594 23.0391 43.4612 22.4261 43.9708 21.9093C44.4804 21.3924 45.0877 20.982 45.7573 20.7019C46.427 20.4218 47.1457 20.2775 47.8716 20.2775C48.5975 20.2775 49.3162 20.4218 49.9858 20.7019C50.6555 20.982 51.2628 21.3924 51.7724 21.9093C52.282 22.4261 52.6837 23.0391 52.9543 23.7126C53.2249 24.386 53.3589 25.1065 53.3485 25.8322C53.346 26.738 53.1218 27.6295 52.6955 28.4288C54.3017 28.9709 55.7976 29.7967 57.1121 30.8669C57.9609 29.3247 58.4048 27.5925 58.4023 25.8322C58.3981 23.0411 57.2872 20.3656 55.3131 18.3921ZM14.6862 51.609C16.6602 53.5825 19.3363 54.6929 22.1279 54.6968C23.5113 54.6974 24.8813 54.4255 26.1596 53.8968C27.438 53.368 28.5996 52.5927 29.5783 51.6151C30.5569 50.6375 31.3334 49.4767 31.8633 48.1991C32.3933 46.9215 32.6664 45.552 32.667 44.1689H27.6098C27.6098 44.8881 27.4681 45.6002 27.1929 46.2646C26.9176 46.929 26.5141 47.5327 26.0055 48.0412C25.4969 48.5497 24.893 48.9531 24.2285 49.2283C23.5639 49.5035 22.8517 49.6452 22.1324 49.6452C21.413 49.6452 20.7008 49.5035 20.0362 49.2283C19.3717 48.9531 18.7678 48.5497 18.2592 48.0412C17.7506 47.5327 17.3471 46.929 17.0718 46.2646C16.7966 45.6002 16.6549 44.8881 16.6549 44.1689H11.5977C11.6016 46.9599 12.7123 49.6354 14.6862 51.609ZM15.293 37.8316C17.3155 39.1851 19.6941 39.9086 22.1279 39.9106C23.744 39.9119 25.3445 39.5949 26.8381 38.9778C28.3317 38.3607 29.689 37.4555 30.8327 36.3138C31.9763 35.1722 32.8839 33.8165 33.5034 32.3242C34.123 30.8319 34.4425 29.2322 34.4437 27.6165C34.4455 25.1832 33.7255 22.804 32.3749 20.7798C31.0242 18.7556 29.1036 17.1773 26.8557 16.2444C24.6079 15.3116 22.1339 15.066 19.7465 15.5389C17.3591 16.0118 15.1655 17.1819 13.4433 18.9011C11.721 20.6204 10.5473 22.8116 10.0706 25.1977C9.59389 27.5839 9.83562 30.0578 10.7652 32.3066C11.6948 34.5554 13.2704 36.4781 15.293 37.8316ZM41.0303 52.6269C43.0555 53.9782 45.4362 54.6986 47.871 54.6968C51.1307 54.6905 54.2551 53.3931 56.56 51.0887C58.865 48.7842 60.1627 45.6605 60.1689 42.4015C60.1707 39.9672 59.4502 37.5871 58.0986 35.5623C56.7469 33.5375 54.825 31.959 52.5758 31.0266C50.3267 30.0942 47.8514 29.8498 45.4633 30.3243C43.0751 30.7988 40.8815 31.9708 39.1598 33.6921C37.4381 35.4135 36.2658 37.6067 35.7912 39.9943C35.3166 42.3819 35.5611 44.8566 36.4937 47.1053C37.4263 49.354 39.0051 51.2756 41.0303 52.6269ZM53.9092 46.4353C54.7072 45.2413 55.1331 43.8375 55.1331 42.4015C55.1337 41.4479 54.9462 40.5035 54.5815 39.6223C54.2168 38.7412 53.6819 37.9406 53.0074 37.2663C52.3329 36.5919 51.5321 36.0571 50.6508 35.6925C49.7695 35.3278 48.8249 35.1404 47.871 35.141C46.4347 35.141 45.0307 35.5668 43.8364 36.3646C42.6422 37.1624 41.7114 38.2964 41.1617 39.6231C40.6121 40.9497 40.4683 42.4096 40.7485 43.818C41.0287 45.2264 41.7203 46.5201 42.736 47.5355C43.7516 48.5509 45.0456 49.2424 46.4543 49.5225C47.863 49.8027 49.3231 49.6589 50.6501 49.1094C51.9771 48.5598 53.1112 47.6292 53.9092 46.4353ZM28.166 31.6502C28.964 30.4562 29.3899 29.0524 29.3899 27.6165C29.387 25.6918 28.6209 23.8467 27.2596 22.4858C25.8984 21.1248 24.053 20.3589 22.1279 20.3559C20.6916 20.3559 19.2875 20.7818 18.0933 21.5796C16.899 22.3773 15.9682 23.5113 15.4186 24.838C14.8689 26.1647 14.7251 27.6245 15.0053 29.0329C15.2855 30.4413 15.9772 31.735 16.9928 32.7504C18.0084 33.7658 19.3024 34.4573 20.7111 34.7375C22.1198 35.0176 23.58 34.8738 24.9069 34.3243C26.2339 33.7748 27.3681 32.8442 28.166 31.6502ZM35 70C54.33 70 70 54.33 70 35C70 15.67 54.33 0 35 0C15.67 0 0 15.67 0 35C0 54.33 15.67 70 35 70Z" fill="url(#paint0_linear_64_1734)"/>
<defs>
<linearGradient id="paint0_linear_64_1734" x1="66.4309" y1="3.56914" x2="4.53637" y2="65.4636" gradientUnits="userSpaceOnUse">
<stop stop-color="#F1D961"/>
<stop offset="1" stop-color="#CDA146"/>
</linearGradient>
</defs>
</svg>
