<svg width="32" height="32" viewBox="0 0 32 32" fill="none" xmlns="http://www.w3.org/2000/svg">
    <g clip-path="url(#clip0_5932_422)">
        <path fill-rule="evenodd" clip-rule="evenodd" d="M5.7 5C5.2 2.4 7.2 0 9.8 0C12.1 0 14 1.9 14 4.2V9.4C14.6 9.4 15.2 9.3 15.8 9.3C16.4 9.3 16.9 9.3 17.5 9.4V4.2C17.5 1.9 19.4 0 21.7 0C24.3 0 26.3 2.4 25.9 5L24.8 11.1C28.7 12.8 31.7 15.8 31.7 19.5V21.8C31.7 24.9 29.7 27.5 26.8 29.2C23.9 31 20.1 32 15.8 32C11.5 32 7.7 31 4.8 29.2C2 27.5 0 24.9 0 21.8V19.5C0 15.8 2.9 12.8 6.8 11.1L5.7 5ZM23.3 11.9L24.6 4.7C24.9 2.9 23.6 1.2 21.7 1.2C20.1 1.2 18.8 2.5 18.8 4.1V10.7C18.4 10.6 17.9 10.6 17.5 10.6C16.9 10.6 16.4 10.5 15.8 10.5C15.2 10.5 14.6 10.5 14 10.6C13.6 10.6 13.1 10.7 12.7 10.7V4.2C12.7 2.6 11.4 1.3 9.8 1.3C8 1.3 6.6 3 7 4.8L8.3 12C4.1 13.6 1.3 16.4 1.3 19.6V21.9C1.3 26.8 7.8 30.8 15.8 30.8C23.8 30.8 30.3 26.8 30.3 21.9V19.6C30.4 16.3 27.6 13.5 23.3 11.9Z" fill="#633001"/>
        <path d="M30.3999 21.8C30.3999 26.7 23.8999 30.7 15.8999 30.7C7.8999 30.7 1.3999 26.7 1.3999 21.8V19.5H30.4999V21.8H30.3999Z" fill="#FEDC90"/>
        <path fill-rule="evenodd" clip-rule="evenodd" d="M6.9999 4.80005C6.5999 3.00005 7.9999 1.30005 9.7999 1.30005C11.3999 1.30005 12.6999 2.60005 12.6999 4.20005V10.8C13.6999 10.7 14.6999 10.6 15.7999 10.6C16.7999 10.6 17.7999 10.7 18.7999 10.8V4.20005C18.7999 2.60005 20.0999 1.30005 21.6999 1.30005C23.4999 1.30005 24.8999 3.00005 24.5999 4.80005L23.2999 12C27.4999 13.6 30.3999 16.4001 30.3999 19.6C30.3999 24.5 23.8999 28.5 15.8999 28.5C7.8999 28.5 1.3999 24.5 1.3999 19.6C1.3999 16.4001 4.1999 13.6 8.3999 12L6.9999 4.80005Z" fill="#D1884F"/>
        <path d="M11.8001 18.9C11.8001 20.2 11.1001 21.3 10.2001 21.3C9.3001 21.3 8.6001 20.2 8.6001 18.9C8.6001 17.6 9.3001 16.5 10.2001 16.5C11.1001 16.5 11.8001 17.6 11.8001 18.9Z" fill="#633001"/>
        <path d="M22.9 18.9C22.9 20.2 22.1999 21.3 21.2999 21.3C20.3999 21.3 19.7 20.2 19.7 18.9C19.7 17.6 20.3999 16.5 21.2999 16.5C22.1999 16.5 22.9 17.6 22.9 18.9Z" fill="#633001"/>
    </g>
    <defs>
        <clipPath id="clip0_5932_422">
            <rect width="32" height="32" fill="white"/>
        </clipPath>
    </defs>
</svg>
