<svg width="32" height="32" viewBox="0 0 32 32" fill="none" xmlns="http://www.w3.org/2000/svg">
<g clip-path="url(#clip0_4767_67730)">
<path d="M24.014 13.2548C24.4428 13.2548 24.7904 12.9071 24.7904 12.4783C24.7904 12.0495 24.4428 11.7019 24.014 11.7019C23.5852 11.7019 23.2375 12.0495 23.2375 12.4783C23.2375 12.9071 23.5852 13.2548 24.014 13.2548Z" fill="#262761"/>
<path d="M16.0277 0C7.15425 0 0 7.15425 0 16.0277C0 24.9012 7.15425 32.0555 16.0277 32.0555C24.9012 32.0555 32.0555 24.9012 32.0555 16.0277C32.0555 7.15425 24.8458 0 16.0277 0ZM23.2929 22.6828C21.4073 24.7903 18.6898 25.9549 15.9168 25.9549C13.0884 25.9549 10.3709 24.7348 8.48527 22.6274C6.54419 20.4645 5.71231 17.747 5.9896 14.8631C6.48874 10.26 10.149 6.59965 14.7522 6.04506C15.1404 5.9896 15.5286 5.9896 15.9168 5.9896C18.1352 5.9896 20.2426 6.71057 22.0173 8.09705C22.1283 8.15251 22.1837 8.31889 22.1837 8.42981C22.1837 8.59619 22.1283 8.70711 22.0173 8.81802L20.9636 9.76083C20.8527 9.87175 20.6863 9.92721 20.5199 9.92721C20.409 9.92721 20.2426 9.87175 20.1872 9.81629C18.9116 8.92894 17.4142 8.48527 15.9168 8.48527C13.7539 8.48527 11.7019 9.42808 10.3154 11.0364C8.87348 12.6447 8.20797 14.7522 8.48527 16.9151C8.87348 20.3536 11.6464 23.1265 15.0849 23.5147C15.3622 23.5702 15.6395 23.5702 15.9723 23.5702C17.9688 23.5702 19.8544 22.7938 21.2964 21.3518C21.4073 21.2409 21.5737 21.1854 21.74 21.1854C21.851 21.1854 21.9619 21.2409 22.0728 21.2964L23.2374 22.0728C23.3484 22.1283 23.4038 22.2392 23.4593 22.4055C23.4038 22.461 23.3484 22.5719 23.2929 22.6828ZM24.0139 14.9185C22.6828 14.9185 21.5737 13.8094 21.5737 12.4783C21.5737 11.1473 22.6828 10.0381 24.0139 10.0381C25.3449 10.0381 26.4541 11.1473 26.4541 12.4783C26.4541 13.8094 25.3449 14.9185 24.0139 14.9185Z" fill="#262761"/>
</g>
<defs>
<clipPath id="clip0_4767_67730">
<rect width="32" height="32" fill="white"/>
</clipPath>
</defs>
</svg>
