<svg width="32" height="32" viewBox="0 0 32 32" fill="none" xmlns="http://www.w3.org/2000/svg">
<path fill-rule="evenodd" clip-rule="evenodd" d="M18.9708 5.19232L17.1976 6.21143V14.7465L18.1657 15.2968V8.78977L21.4931 10.6751L22.1351 11.042L22.6753 10.7363V10.2267L18.1708 7.67895V6.77194L18.9759 6.31334L23.6434 8.96302V11.3223L21.4014 12.586L21.3249 12.5503C21.1955 12.4846 21.0523 12.4499 20.9071 12.4484C20.3731 12.4484 19.9334 12.8876 19.9334 13.4216C19.9334 13.4318 19.9334 13.442 19.9339 13.4522V13.4573C19.9339 13.9893 20.37 14.428 20.902 14.4305C21.3983 14.4275 21.8156 14.0433 21.86 13.549V13.4624L24.1224 12.1834L26.2218 13.3758V18.6395L24.1224 19.8318L15.5925 14.9809V6.20124L13.8192 5.18213L8.18863 8.39742V11.3172L5.6001 12.7847V19.2051L8.18863 20.6777V23.6025L13.8192 26.8025L15.5925 25.7834V17.2331L14.6243 16.6828V23.2102L10.6549 20.9579L10.1147 21.2637V21.7732L14.6192 24.321V25.2229L13.8141 25.6815L9.1466 23.0318V20.6675L11.3886 19.4038L11.4651 19.4395C11.5945 19.5052 11.7377 19.5398 11.8829 19.5414H11.888C12.422 19.5414 12.8612 19.1021 12.8612 18.5681C12.8612 18.5615 12.8612 18.5544 12.8612 18.5477C12.8612 18.5462 12.8612 18.5442 12.8612 18.5426C12.8612 18.0107 12.4251 17.5719 11.8931 17.5694C11.3968 17.5725 10.9795 17.9567 10.9351 18.4509V18.5375L8.67271 19.8165L6.57844 18.6242V13.3605L8.67781 12.1681L17.2027 17.0191V25.7987L18.9759 26.8178L24.6116 23.6178V20.6828L27.2001 19.2153V12.7949L24.6116 11.3223V8.39742L18.9708 5.19232ZM9.15679 8.96812L13.8243 6.31843L14.6294 6.77703V7.66366L9.15679 10.7668V8.96812ZM9.66634 11.6076L14.6345 8.78977V14.4305L9.66634 11.6076ZM18.1759 17.5694L23.1441 20.3923L18.1759 23.2102V17.5694ZM18.1759 25.2127V24.3363L23.6485 21.2331V23.0318L18.9708 25.6815L18.1657 25.2229L18.1759 25.2127Z" fill="#03C18C"/>
</svg>
