<svg width="32" height="32" viewBox="0 0 32 32" fill="none" xmlns="http://www.w3.org/2000/svg">
<g clip-path="url(#clip0_4767_67654)">
<path d="M16 32C24.8368 32 32 24.8368 32 16C32 7.1632 24.8368 0 16 0C7.1632 0 0 7.1632 0 16C0 24.8368 7.1632 32 16 32Z" fill="#070A0E"/>
<path fill-rule="evenodd" clip-rule="evenodd" d="M9.24325 21.3649C8.76485 21.0721 8.47205 20.5521 8.47205 19.9921V16.8657C8.47205 16.4945 8.77445 16.1937 9.14565 16.1953C9.26405 16.1953 9.38085 16.2273 9.48325 16.2865L16.5376 20.4001C16.9504 20.6401 17.2048 21.0817 17.2048 21.5601V24.7985C17.2064 25.2433 16.8464 25.6049 16.4016 25.6049C16.2528 25.6049 16.1056 25.5633 15.9792 25.4865L9.24325 21.3649ZM19.7584 15.4305C20.1712 15.6705 20.424 16.1137 20.4256 16.5905V23.1633C20.4256 23.3569 20.3216 23.5361 20.152 23.6305L18.608 24.4993C18.5888 24.5105 18.568 24.5185 18.5456 24.5249V20.8753C18.5456 20.4033 18.2976 19.9649 17.8912 19.7217L11.696 16.0161V11.8961C11.696 11.5249 11.9984 11.2241 12.3696 11.2257C12.488 11.2257 12.6048 11.2577 12.7072 11.3169L19.7584 15.4305ZM22.8464 10.5761C23.2608 10.8161 23.5152 11.2593 23.5152 11.7377V21.3377C23.5136 21.5345 23.4048 21.7153 23.232 21.8097L21.768 22.6001V15.9169C21.768 15.4449 21.52 15.0081 21.1168 14.7649L14.784 10.9665V7.05929C14.784 6.94089 14.816 6.82409 14.8736 6.72169C15.0608 6.40169 15.472 6.29289 15.792 6.47849L22.8464 10.5761Z" fill="#00D395"/>
</g>
<defs>
<clipPath id="clip0_4767_67654">
<rect width="32" height="32" fill="white"/>
</clipPath>
</defs>
</svg>
