<svg width="32" height="32" viewBox="0 0 32 32" fill="none" xmlns="http://www.w3.org/2000/svg">
<g clip-path="url(#clip0_174_4404)">
<path d="M16 32C24.8368 32 32 24.8368 32 16C32 7.1632 24.8368 0 16 0C7.1632 0 0 7.1632 0 16C0 24.8368 7.1632 32 16 32Z" fill="#070A0E"/>
<path fill-rule="evenodd" clip-rule="evenodd" d="M9.2432 21.3647C8.7648 21.0719 8.472 20.5519 8.472 19.9919V16.8654C8.472 16.4942 8.7744 16.1935 9.1456 16.1951C9.264 16.1951 9.3808 16.2271 9.4832 16.2863L16.5376 20.3999C16.9504 20.6399 17.2048 21.0815 17.2048 21.5599V24.7983C17.2064 25.2431 16.8464 25.6047 16.4016 25.6047C16.2528 25.6047 16.1056 25.5631 15.9792 25.4863L9.2432 21.3647ZM19.7584 15.4303C20.1712 15.6703 20.424 16.1135 20.4256 16.5903V23.163C20.4256 23.3566 20.3216 23.5359 20.152 23.6303L18.608 24.499C18.5888 24.5102 18.568 24.5183 18.5456 24.5247V20.875C18.5456 20.403 18.2976 19.9646 17.8912 19.7214L11.696 16.0159V11.8958C11.696 11.5246 11.9984 11.2238 12.3696 11.2254C12.488 11.2254 12.6048 11.2574 12.7072 11.3166L19.7584 15.4303ZM22.8464 10.5758C23.2608 10.8158 23.5152 11.259 23.5152 11.7374V21.3374C23.5136 21.5342 23.4048 21.715 23.232 21.8094L21.768 22.5999V15.9166C21.768 15.4446 21.52 15.0078 21.1168 14.7646L14.784 10.9662V7.05905C14.784 6.94065 14.816 6.82385 14.8736 6.72145C15.0608 6.40145 15.472 6.29265 15.792 6.47825L22.8464 10.5758Z" fill="#00D395"/>
</g>
<defs>
<clipPath id="clip0_174_4404">
<rect width="32" height="32" fill="white"/>
</clipPath>
</defs>
</svg>
