<?xml version="1.0" encoding="UTF-8"?>
<svg version="1.1" xmlns="http://www.w3.org/2000/svg" width="64" height="64">
<path d="M0 0 C1.23943359 -0.00386719 1.23943359 -0.00386719 2.50390625 -0.0078125 C3.35855469 -0.00007812 4.21320312 0.00765625 5.09375 0.015625 C6.37572266 0.00402344 6.37572266 0.00402344 7.68359375 -0.0078125 C8.50988281 -0.00523438 9.33617187 -0.00265625 10.1875 0 C10.93708984 0.00225586 11.68667969 0.00451172 12.45898438 0.00683594 C14.93723818 0.30726469 16.50132529 0.90655815 18.59375 2.265625 C19.78501117 4.7077104 20.71969795 6.96338112 21.59375 9.515625 C21.97394287 10.57849731 21.97394287 10.57849731 22.36181641 11.6628418 C28.59375 29.38576631 28.59375 29.38576631 28.59375 35.265625 C29.769375 35.3584375 29.769375 35.3584375 30.96875 35.453125 C33.59375 36.265625 33.59375 36.265625 34.96875 38.328125 C35.80296445 42.24893291 36.14753995 45.49213512 34.59375 49.265625 C25.00102807 56.36423923 9.10853313 57.60172853 -2.40625 56.265625 C-9.35783961 54.77599865 -17.31076008 52.99570092 -23.40625 49.265625 C-24.97795996 46.12220507 -24.63800783 42.70791049 -24.40625 39.265625 C-24.07625 38.275625 -23.74625 37.285625 -23.40625 36.265625 C-19.84375 35.078125 -19.84375 35.078125 -16.40625 34.265625 C-16.32375 32.96625 -16.24125 31.666875 -16.15625 30.328125 C-15.64944851 25.27459017 -14.66309966 20.39620766 -13.53125 15.453125 C-13.36979492 14.72424072 -13.20833984 13.99535645 -13.04199219 13.24438477 C-12.06885746 9.13596111 -11.01648656 5.67658631 -8.40625 2.265625 C-5.52640535 0.50606225 -3.35369971 0.01009282 0 0 Z " fill="#211F1B" transform="translate(26.40625,0.734375)"/>
<path d="M0 0 C0.98484375 0.00902344 1.9696875 0.01804687 2.984375 0.02734375 C4.10585938 0.04474609 4.10585938 0.04474609 5.25 0.0625 C5.25 0.7225 5.25 1.3825 5.25 2.0625 C6.24 1.7325 7.23 1.4025 8.25 1.0625 C11.10053991 8.53932598 13.62630011 15.98380596 15.5625 23.75 C15.73362305 24.43255859 15.90474609 25.11511719 16.08105469 25.81835938 C16.76445166 28.64571899 17.25 31.14194445 17.25 34.0625 C4.41498927 37.88569469 -5.91498927 37.88569469 -18.75 34.0625 C-18.42 33.4025 -18.09 32.7425 -17.75 32.0625 C-17.09 32.0625 -16.43 32.0625 -15.75 32.0625 C-15.7075415 31.46969238 -15.66508301 30.87688477 -15.62133789 30.26611328 C-15.06349977 23.64041513 -13.80254777 17.37959532 -12.1875 10.9375 C-11.95353516 9.98101562 -11.71957031 9.02453125 -11.47851562 8.0390625 C-10.90838044 5.71198012 -10.33214777 3.38660068 -9.75 1.0625 C-6.40278514 0.15674617 -3.47693522 -0.04139209 0 0 Z " fill="#E79D07" transform="translate(31.75,8.9375)"/>
<path d="M0 0 C1.23943359 -0.00386719 1.23943359 -0.00386719 2.50390625 -0.0078125 C3.35855469 -0.00007812 4.21320312 0.00765625 5.09375 0.015625 C6.37572266 0.00402344 6.37572266 0.00402344 7.68359375 -0.0078125 C8.50988281 -0.00523438 9.33617187 -0.00265625 10.1875 0 C10.93708984 0.00225586 11.68667969 0.00451172 12.45898438 0.00683594 C14.93723818 0.30726469 16.50132529 0.90655815 18.59375 2.265625 C19.78501117 4.7077104 20.71969795 6.96338112 21.59375 9.515625 C21.97394287 10.57849731 21.97394287 10.57849731 22.36181641 11.6628418 C28.59375 29.38576631 28.59375 29.38576631 28.59375 35.265625 C29.769375 35.3584375 29.769375 35.3584375 30.96875 35.453125 C33.59375 36.265625 33.59375 36.265625 34.96875 38.328125 C35.80296445 42.24893291 36.14753995 45.49213512 34.59375 49.265625 C25.00102807 56.36423923 9.10853313 57.60172853 -2.40625 56.265625 C-9.35783961 54.77599865 -17.31076008 52.99570092 -23.40625 49.265625 C-24.97795996 46.12220507 -24.63800783 42.70791049 -24.40625 39.265625 C-24.07625 38.275625 -23.74625 37.285625 -23.40625 36.265625 C-19.84375 35.078125 -19.84375 35.078125 -16.40625 34.265625 C-16.32375 32.96625 -16.24125 31.666875 -16.15625 30.328125 C-15.64944851 25.27459017 -14.66309966 20.39620766 -13.53125 15.453125 C-13.36979492 14.72424072 -13.20833984 13.99535645 -13.04199219 13.24438477 C-12.06885746 9.13596111 -11.01648656 5.67658631 -8.40625 2.265625 C-5.52640535 0.50606225 -3.35369971 0.01009282 0 0 Z M-7.40625 6.265625 C-9.8893145 12.16290318 -11.18090568 18.3540234 -12.59375 24.578125 C-12.77292969 25.36711182 -12.95210937 26.15609863 -13.13671875 26.96899414 C-13.30171875 27.72301514 -13.46671875 28.47703613 -13.63671875 29.25390625 C-13.78520264 29.92977783 -13.93368652 30.60564941 -14.08666992 31.30200195 C-14.51334112 33.59205758 -14.51334112 33.59205758 -14.40625 37.265625 C-15.19 37.224375 -15.97375 37.183125 -16.78125 37.140625 C-19.56741119 36.97833766 -19.56741119 36.97833766 -21.40625 39.265625 C-21.89514194 43.27948094 -21.89514194 43.27948094 -20.28515625 46.82421875 C-12.46178153 52.82593449 1.72652913 54.09528924 11.27734375 52.94140625 C13.74130624 52.46091434 16.15802763 51.87160439 18.59375 51.265625 C21.18324032 50.80843568 23.77388535 50.36081402 26.3671875 49.92578125 C28.98488502 49.1496569 30.58621831 48.10586239 32.59375 46.265625 C33.154818 42.5251717 32.74137184 41.48705776 30.59375 38.265625 C28.03092258 37.53597134 28.03092258 37.53597134 25.59375 37.265625 C25.366875 35.986875 25.14 34.708125 24.90625 33.390625 C23.85578923 28.16833431 22.54256952 23.03183977 21.15625 17.890625 C20.95104736 17.10574707 20.74584473 16.32086914 20.53442383 15.51220703 C19.00577841 9.90524986 19.00577841 9.90524986 15.59375 5.265625 C14.93375 5.265625 14.27375 5.265625 13.59375 5.265625 C13.59375 4.605625 13.59375 3.945625 13.59375 3.265625 C10.84315619 3.18454854 8.09495979 3.12509687 5.34375 3.078125 C4.17779297 3.04041992 4.17779297 3.04041992 2.98828125 3.00195312 C-2.83068964 2.89770075 -2.83068964 2.89770075 -7.40625 6.265625 Z " fill="#0C0C0C" transform="translate(26.40625,0.734375)"/>
<path d="M0 0 C0.80179688 0.00451172 1.60359375 0.00902344 2.4296875 0.01367188 C4.41149006 0.02546832 6.39325433 0.04340395 8.375 0.0625 C8.375 0.7225 8.375 1.3825 8.375 2.0625 C9.28572266 2.32740234 9.28572266 2.32740234 10.21484375 2.59765625 C13.45530911 4.79507851 13.94751668 7.89431127 14.9375 11.5 C15.14656982 12.21631592 15.35563965 12.93263184 15.57104492 13.6706543 C16.18740393 15.79731903 16.78234072 17.92913024 17.375 20.0625 C17.86226562 21.74472656 17.86226562 21.74472656 18.359375 23.4609375 C20.375 30.55365566 20.375 30.55365566 20.375 34.0625 C21.550625 34.2171875 21.550625 34.2171875 22.75 34.375 C25.375 35.0625 25.375 35.0625 27.375 38.0625 C27.75 40.5625 27.75 40.5625 27.375 43.0625 C19.86662375 49.96396362 6.01968035 50.40491469 -3.625 50.0625 C-21.31132708 47.37617292 -21.31132708 47.37617292 -26.625 42.0625 C-26.875 39.0625 -26.875 39.0625 -26.625 36.0625 C-24.625 34.0625 -24.625 34.0625 -22 33.9375 C-21.21625 33.97875 -20.4325 34.02 -19.625 34.0625 C-19.5425 32.763125 -19.46 31.46375 -19.375 30.125 C-18.86468282 25.10089143 -17.91631414 20.23340553 -16.8125 15.3125 C-16.65942383 14.59199463 -16.50634766 13.87148926 -16.34863281 13.12915039 C-15.2483753 8.41383887 -13.65494093 4.9436817 -10.625 1.0625 C-7.31505287 -0.59247356 -3.63377 -0.03834335 0 0 Z M-11.625 7.0625 C-12.91535015 10.62311518 -13.69052153 14.22954787 -14.4375 17.9375 C-14.76137695 19.38962891 -14.76137695 19.38962891 -15.09179688 20.87109375 C-16.1984439 26.03544655 -16.88232251 30.78371255 -16.625 36.0625 C-20.09 36.5575 -20.09 36.5575 -23.625 37.0625 C-23.625 38.7125 -23.625 40.3625 -23.625 42.0625 C-22.9959375 42.24425781 -22.366875 42.42601562 -21.71875 42.61328125 C-16.92675766 44.02056816 -12.28135755 45.49818911 -7.70703125 47.51171875 C-0.79408044 49.34047309 6.06831287 47.18601935 12.8125 45.5625 C13.83021484 45.32402344 14.84792969 45.08554687 15.89648438 44.83984375 C18.39103368 44.25426879 20.88368641 43.66166458 23.375 43.0625 C23.705 41.7425 24.035 40.4225 24.375 39.0625 C23.59253906 38.67449219 22.81007812 38.28648438 22.00390625 37.88671875 C18.86545307 35.70892138 18.38391757 34.48791973 17.3125 30.875 C16.83490234 29.29138672 16.83490234 29.29138672 16.34765625 27.67578125 C15.08019982 22.96735878 13.87378277 18.24486096 12.76928711 13.49536133 C11.22684114 6.67823182 11.22684114 6.67823182 6.375 2.0625 C3.34661839 1.6303045 3.34661839 1.6303045 0 1.625 C-1.12148438 1.58503906 -2.24296875 1.54507812 -3.3984375 1.50390625 C-7.80636191 2.26702149 -9.01579068 3.42583001 -11.625 7.0625 Z " fill="#CECDCC" transform="translate(31.625,3.9375)"/>
<path d="M0 0 C0.66 0 1.32 0 2 0 C2 1.65 2 3.3 2 5 C2.66 5 3.32 5 4 5 C4 4.01 4 3.02 4 2 C4.99 2 5.98 2 7 2 C7 3.65 7 5.3 7 7 C8.32 7.66 9.64 8.32 11 9 C11.20086443 12.71599191 11.1519437 13.77208445 9 17 C9.66 17 10.32 17 11 17 C10.25 23.75 10.25 23.75 8 26 C4.375 26.125 4.375 26.125 1 26 C1 27.32 1 28.64 1 30 C0.01 30 -0.98 30 -2 30 C-2 28.35 -2 26.7 -2 25 C-2.66 25 -3.32 25 -4 25 C-4 25.99 -4 26.98 -4 28 C-4.66 28 -5.32 28 -6 28 C-6 26.35 -6 24.7 -6 23 C-7.65 23 -9.3 23 -11 23 C-10.505 21.515 -10.505 21.515 -10 20 C-9.01 19.67 -8.02 19.34 -7 19 C-5.96452953 15.97717357 -5.96452953 15.97717357 -5.3125 12.4375 C-5.06113281 11.23996094 -4.80976563 10.04242188 -4.55078125 8.80859375 C-4.36902344 7.88175781 -4.18726563 6.95492188 -4 6 C-4.66 6 -5.32 6 -6 6 C-6 5.01 -6 4.02 -6 3 C-3.03 3.495 -3.03 3.495 0 4 C0 2.68 0 1.36 0 0 Z " fill="#FDF6E9" transform="translate(30,13)"/>
<path d="M0 0 C1.68609375 -0.02900391 1.68609375 -0.02900391 3.40625 -0.05859375 C7.17233114 0.54531067 8.23927043 1.41120519 10.5 4.4375 C11.625 6.890625 11.625 6.890625 12.5 9.6875 C12.99306641 11.25757813 12.99306641 11.25757813 13.49609375 12.859375 C14.80950949 17.54065446 15.9723074 22.25630312 17.01757812 27.00488281 C17.89604042 30.79584351 18.87958191 33.52757396 21.5 36.4375 C20.84 36.4375 20.18 36.4375 19.5 36.4375 C19.5 37.0975 19.5 37.7575 19.5 38.4375 C18.18 38.1075 16.86 37.7775 15.5 37.4375 C16.16 37.4375 16.82 37.4375 17.5 37.4375 C17.10167969 36.18646484 17.10167969 36.18646484 16.6953125 34.91015625 C13.45981905 24.60144902 13.45981905 24.60144902 12.5 19.75 C11.47401198 14.73198588 9.51750202 10.12868188 7.5 5.4375 C6.84 5.4375 6.18 5.4375 5.5 5.4375 C5.5 4.7775 5.5 4.1175 5.5 3.4375 C3.8954444 3.57898989 2.29136233 3.72585686 0.6875 3.875 C-0.65248047 3.99681641 -0.65248047 3.99681641 -2.01953125 4.12109375 C-4.62743559 4.37239767 -4.62743559 4.37239767 -7.5 5.4375 C-8.16 5.1075 -8.82 4.7775 -9.5 4.4375 C-9.59796875 4.99953125 -9.6959375 5.5615625 -9.796875 6.140625 C-10.12492524 7.98449359 -10.46202475 9.82675975 -10.8046875 11.66796875 C-11.18688128 13.73997434 -11.5647399 15.81285688 -11.92285156 17.88916016 C-12.39061426 20.59592711 -12.88166997 23.29778717 -13.375 26 C-13.52420898 26.89299805 -13.67341797 27.78599609 -13.82714844 28.70605469 C-13.98473633 29.5468457 -14.14232422 30.38763672 -14.3046875 31.25390625 C-14.43858887 32.01131104 -14.57249023 32.76871582 -14.71044922 33.54907227 C-15.5 35.4375 -15.5 35.4375 -17.57470703 36.69897461 C-18.21005371 36.94268799 -18.84540039 37.18640137 -19.5 37.4375 C-19.995 35.9525 -19.995 35.9525 -20.5 34.4375 C-19.18 34.4375 -17.86 34.4375 -16.5 34.4375 C-16.54060547 32.93316406 -16.54060547 32.93316406 -16.58203125 31.3984375 C-16.40792707 22.9916929 -15.03764127 8.01705944 -8.80859375 1.73046875 C-5.75777962 0.02180635 -3.48243907 0.00399362 0 0 Z " fill="#615239" transform="translate(31.5,5.5625)"/>
<path d="M0 0 C1.05832031 -0.01417969 2.11664063 -0.02835938 3.20703125 -0.04296875 C6.1079626 0.18134966 7.73568353 0.68553979 10.1875 2.1875 C9.8575 3.1775 9.5275 4.1675 9.1875 5.1875 C9.1875 4.5275 9.1875 3.8675 9.1875 3.1875 C8.1975 3.1875 7.2075 3.1875 6.1875 3.1875 C6.1875 4.1775 6.1875 5.1675 6.1875 6.1875 C5.5275 6.1875 4.8675 6.1875 4.1875 6.1875 C4.1875 4.5375 4.1875 2.8875 4.1875 1.1875 C3.5275 1.1875 2.8675 1.1875 2.1875 1.1875 C2.1875 2.5075 2.1875 3.8275 2.1875 5.1875 C-0.7825 4.6925 -0.7825 4.6925 -3.8125 4.1875 C-3.8125 5.1775 -3.8125 6.1675 -3.8125 7.1875 C-3.1525 7.1875 -2.4925 7.1875 -1.8125 7.1875 C-1.43439556 12.22889251 -2.26443124 16.79391642 -4.8125 21.1875 C-5.8025 21.5175 -6.7925 21.8475 -7.8125 22.1875 C-8.4725 22.8475 -9.1325 23.5075 -9.8125 24.1875 C-11.42435368 19.16831005 -10.12676559 14.89933657 -8.9375 9.9375 C-8.75058594 9.10992187 -8.56367188 8.28234375 -8.37109375 7.4296875 C-6.66305141 0.04028447 -6.66305141 0.04028447 0 0 Z " fill="#E8A012" transform="translate(27.8125,11.8125)"/>
<path d="M0 0 C0.98484375 0.00902344 1.9696875 0.01804687 2.984375 0.02734375 C4.10585938 0.04474609 4.10585938 0.04474609 5.25 0.0625 C5.25 0.7225 5.25 1.3825 5.25 2.0625 C6.24 1.7325 7.23 1.4025 8.25 1.0625 C12.85493827 13.15046296 12.85493827 13.15046296 10.25 19.5 C9.92 20.015625 9.59 20.53125 9.25 21.0625 C8.59 21.0625 7.93 21.0625 7.25 21.0625 C7.58 18.4225 7.91 15.7825 8.25 13.0625 C7.26 12.4025 6.27 11.7425 5.25 11.0625 C5.0625 7.9375 5.0625 7.9375 5.25 5.0625 C2.08754459 4.0083482 -0.61948218 3.74974328 -3.9375 3.5 C-5.56751953 3.37431641 -5.56751953 3.37431641 -7.23046875 3.24609375 C-8.06191406 3.18550781 -8.89335937 3.12492188 -9.75 3.0625 C-9.75 2.4025 -9.75 1.7425 -9.75 1.0625 C-6.43929162 0.06140485 -3.44915231 -0.04106134 0 0 Z " fill="#EDA81E" transform="translate(31.75,8.9375)"/>
<path d="M0 0 C2.31 0.33 4.62 0.66 7 1 C7 2.65 7 4.3 7 6 C7.66 6 8.32 6 9 6 C9 5.01 9 4.02 9 3 C9.66 3 10.32 3 11 3 C11 4.65 11 6.3 11 8 C7.58044297 10.42218623 4.84494445 9.99895628 0.90234375 9.484375 C-1 9 -1 9 -4 7 C-3.01 6.67 -2.02 6.34 -1 6 C-0.67 4.02 -0.34 2.04 0 0 Z " fill="#E39E14" transform="translate(17,35)"/>
<path d="M0 0 C2.375 0.3125 2.375 0.3125 5 1 C7.14762184 4.22143276 7.561068 5.2595467 7 9 C3.97797047 11.83583813 0.97939252 12.77504883 -3 13.75 C-4.03125 14.01296875 -5.0625 14.2759375 -6.125 14.546875 C-8.91150058 14.98605172 -10.4113544 15.04008082 -13 14 C-13.66 13.34 -14.32 12.68 -15 12 C-9.06 10.68 -3.12 9.36 3 8 C3 7.01 3 6.02 3 5 C2.34 4.34 1.68 3.68 1 3 C0.67 2.01 0.34 1.02 0 0 Z " fill="#AEAEAD" transform="translate(52,38)"/>
<path d="M0 0 C0.23460937 0.62777344 0.46921875 1.25554688 0.7109375 1.90234375 C2.3899263 4.63451644 3.55558883 4.80702573 6.625 5.5625 C9.82489531 6.3909224 12.70128662 7.28299525 15.6875 8.6875 C21.68347129 11.07099169 28.65366057 10.2231135 35 10 C32.19416604 12.80583396 30.17692957 12.99161731 26.2578125 13.01953125 C5.65821095 11.65821095 5.65821095 11.65821095 0 6 C-0.125 2.875 -0.125 2.875 0 0 Z " fill="#D3D3D3" transform="translate(6,41)"/>
<path d="M0 0 C1.91635217 -0.05423638 3.83314925 -0.09289963 5.75 -0.125 C7.35101563 -0.15980469 7.35101563 -0.15980469 8.984375 -0.1953125 C11.92470106 -0.00487687 13.52361878 0.47329896 16 2 C15.67 2.99 15.34 3.98 15 5 C15 4.34 15 3.68 15 3 C14.01 3 13.02 3 12 3 C12 3.99 12 4.98 12 6 C11.34 6 10.68 6 10 6 C10 4.35 10 2.7 10 1 C9.34 1 8.68 1 8 1 C8 2.32 8 3.64 8 5 C5.03 4.505 5.03 4.505 2 4 C2 4.99 2 5.98 2 7 C1.34 7 0.68 7 0 7 C0 4.69 0 2.38 0 0 Z " fill="#F0AA1E" transform="translate(22,12)"/>
<path d="M0 0 C0.33 0 0.66 0 1 0 C1.33 3.96 1.66 7.92 2 12 C-0.31 12.33 -2.62 12.66 -5 13 C-5.12375 13.639375 -5.2475 14.27875 -5.375 14.9375 C-5.58125 15.618125 -5.7875 16.29875 -6 17 C-6.66 17.33 -7.32 17.66 -8 18 C-8.125 15.125 -8.125 15.125 -8 12 C-7.34 11.34 -6.68 10.68 -6 10 C-4.35 10 -2.7 10 -1 10 C-0.67 6.7 -0.34 3.4 0 0 Z " fill="#AFAEAE" transform="translate(13,28)"/>
<path d="M0 0 C0.33 0 0.66 0 1 0 C0.5697663 7.6700283 -0.74231361 14.65896942 -3 22 C-3.33 22 -3.66 22 -4 22 C-4.4089405 13.89691968 -3.64976813 7.29953625 0 0 Z " fill="#D1D0D0" transform="translate(18,13)"/>
<path d="M0 0 C0.80179688 0.00451172 1.60359375 0.00902344 2.4296875 0.01367188 C4.41149006 0.02546832 6.39325433 0.04340395 8.375 0.0625 C8.375 0.3925 8.375 0.7225 8.375 1.0625 C7.33859375 1.07667969 6.3021875 1.09085937 5.234375 1.10546875 C3.86453943 1.15238093 2.49474913 1.20062827 1.125 1.25 C0.10212891 1.25870117 0.10212891 1.25870117 -0.94140625 1.26757812 C-4.70612583 1.43205617 -6.32785432 1.77297344 -9.0625 4.4375 C-10.62801387 7.0675633 -11.27952973 9.03963514 -11.625 12.0625 C-12.615 11.7325 -13.605 11.4025 -14.625 11.0625 C-14.06018386 7.10878701 -12.90503407 4.34574906 -10.625 1.0625 C-7.31505287 -0.59247356 -3.63377 -0.03834335 0 0 Z " fill="#B0B0B0" transform="translate(31.625,3.9375)"/>
<path d="M0 0 C2.56428515 -0.13559675 5.12135216 -0.23433188 7.6875 -0.3125 C8.40873047 -0.35439453 9.12996094 -0.39628906 9.87304688 -0.43945312 C14.03190114 -0.53440414 15.56437851 -0.33125384 19 2.28125 C21.52910605 5.71925353 21.40906759 7.82751056 21 12 C19 10 19 10 18.0625 6.4375 C17.711875 5.303125 17.36125 4.16875 17 3 C13.53287889 1.84429296 10.4585044 1.67164707 6.8125 1.4375 C5.54019531 1.35371094 4.26789062 1.26992187 2.95703125 1.18359375 C1.98121094 1.12300781 1.00539063 1.06242188 0 1 C0 0.67 0 0.34 0 0 Z " fill="#D8D8D8" transform="translate(24,5)"/>
<path d="M0 0 C0.98484375 0.00902344 1.9696875 0.01804687 2.984375 0.02734375 C4.10585938 0.04474609 4.10585938 0.04474609 5.25 0.0625 C5.25 1.0525 5.25 2.0425 5.25 3.0625 C0.3 3.0625 -4.65 3.0625 -9.75 3.0625 C-9.75 2.4025 -9.75 1.7425 -9.75 1.0625 C-6.43929162 0.06140485 -3.44915231 -0.04106134 0 0 Z " fill="#B27701" transform="translate(31.75,8.9375)"/>
<path d="M0 0 C1.67542976 0.28604898 3.34385343 0.61781233 5 1 C5.33 2.65 5.66 4.3 6 6 C3.69 6 1.38 6 -1 6 C-1.042721 4.33388095 -1.04063832 2.66617115 -1 1 C-0.67 0.67 -0.34 0.34 0 0 Z " fill="#F1AC28" transform="translate(29,29)"/>
<path d="M0 0 C0.22429688 0.62390625 0.44859375 1.2478125 0.6796875 1.890625 C2.45273948 4.72331159 3.93696227 4.93255443 7.125 5.75 C8.03507813 5.99234375 8.94515625 6.2346875 9.8828125 6.484375 C10.58148438 6.65453125 11.28015625 6.8246875 12 7 C11.67 7.99 11.34 8.98 11 10 C9.53984709 9.71758359 8.08190207 9.42373386 6.625 9.125 C5.81289062 8.96257813 5.00078125 8.80015625 4.1640625 8.6328125 C2 8 2 8 0 6 C-0.125 2.875 -0.125 2.875 0 0 Z " fill="#C8C8C8" transform="translate(6,41)"/>
<path d="M0 0 C2.17905326 3.26857989 3.09373811 6.21786148 4.21875 9.94140625 C4.90777029 12.18124242 4.90777029 12.18124242 7 14 C6.34 14 5.68 14 5 14 C5 14.66 5 15.32 5 16 C3.68 15.67 2.36 15.34 1 15 C1.66 15 2.32 15 3 15 C2.7834375 14.33613281 2.566875 13.67226563 2.34375 12.98828125 C1.92609375 11.66376953 1.92609375 11.66376953 1.5 10.3125 C1.2215625 9.44238281 0.943125 8.57226562 0.65625 7.67578125 C0.00149195 5.00608323 -0.11831495 2.73603316 0 0 Z " fill="#5F481E" transform="translate(46,28)"/>
<path d="M0 0 C1.98 0.495 1.98 0.495 4 1 C4.33 2.32 4.66 3.64 5 5 C1.25 6.125 1.25 6.125 -1 5 C-0.67 3.35 -0.34 1.7 0 0 Z " fill="#F1AF30" transform="translate(31,21)"/>
<path d="M0 0 C2.42130331 2.42130331 2.52840504 3.80111377 3.125 7.125 C3.29257812 8.03507812 3.46015625 8.94515625 3.6328125 9.8828125 C3.81457031 10.93082031 3.81457031 10.93082031 4 12 C3.01 12.66 2.02 13.32 1 14 C0.63659714 12.23103898 0.28459117 10.45973374 -0.0625 8.6875 C-0.25972656 7.70136719 -0.45695312 6.71523438 -0.66015625 5.69921875 C-1 3 -1 3 0 0 Z " fill="#BBBABA" transform="translate(45,14)"/>
<path d="M0 0 C5.28 0 10.56 0 16 0 C15.67 0.99 15.34 1.98 15 3 C14.34 3 13.68 3 13 3 C13 2.34 13 1.68 13 1 C11.3954444 1.14148989 9.79136233 1.28835686 8.1875 1.4375 C6.84751953 1.55931641 6.84751953 1.55931641 5.48046875 1.68359375 C2.87256441 1.93489767 2.87256441 1.93489767 0 3 C0 2.01 0 1.02 0 0 Z " fill="#6F4A03" transform="translate(24,8)"/>
<path d="M0 0 C2.31 0.33 4.62 0.66 7 1 C7.33 2.32 7.66 3.64 8 5 C7.67 4.34 7.34 3.68 7 3 C6.01 3 5.02 3 4 3 C4 3.99 4 4.98 4 6 C3.34 6 2.68 6 2 6 C2 4.35 2 2.7 2 1 C1.34 0.67 0.68 0.34 0 0 Z " fill="#F2B441" transform="translate(30,12)"/>
</svg>
