<svg width="32" height="32" viewBox="0 0 32 32" fill="none" xmlns="http://www.w3.org/2000/svg">
<path d="M15.8207 0.0827637L2.05518 8.0276V23.9173L15.8207 31.8621L29.5862 23.9173V8.0276L15.8207 0.0827637ZM15.8207 0.0827637L2.05518 8.0276V23.9173L15.8207 31.8621L29.5862 23.9173V8.0276L15.8207 0.0827637Z" fill="white"/>
<path d="M21.2552 25.6552H19.2966L16.9517 23.5035V22.4L19.3793 20.0828V16.4138L22.5517 14.3448L26.1655 17.0759L21.2552 25.6552ZM13.1448 19.8621L13.5035 16.4138L12.3172 13.3241H19.3241L18.1655 16.4138L18.4966 19.8621H15.7931H13.1448ZM14.7448 23.5035L12.4 25.6828H10.4138L5.47586 17.0759L9.11724 14.3724L12.3172 16.4138V20.0828L14.7448 22.4V23.5035ZM10.3862 6.95174H21.2276L22.5241 12.469H9.11724L10.3862 6.95174ZM15.8207 0.0827637L2.05518 8.0276V23.9173L15.8207 31.8621L29.5862 23.9173V8.0276L15.8207 0.0827637Z" fill="#03316C"/>
</svg>
