<svg width="32" height="32" viewBox="0 0 32 32" fill="none" xmlns="http://www.w3.org/2000/svg">
<g clip-path="url(#clip0_4797_63742)">
<path fill-rule="evenodd" clip-rule="evenodd" d="M0 0H32V32H0V0Z" fill="#2992FB"/>
<path fill-rule="evenodd" clip-rule="evenodd" d="M22.14 9.28497L21.565 9.85997C20.1414 8.6809 18.3485 8.04017 16.5 8.04997C14.4824 8.05014 12.54 8.81549 11.0646 10.1916C9.58913 11.5678 8.69052 13.4523 8.55003 15.465H7.72503C7.85908 13.2308 8.84274 11.1325 10.4743 9.60043C12.1059 8.0683 14.2618 7.2184 16.5 7.22497C18.5638 7.2356 20.5595 7.96389 22.145 9.28497H22.14ZM16.5 10.15C17.4319 10.1499 18.3505 10.3699 19.1812 10.7922C20.0119 11.2145 20.731 11.827 21.28 12.58L21.855 12C21.0119 10.876 19.8364 10.0457 18.4952 9.62686C17.154 9.208 15.7149 9.22174 14.382 9.66614C13.049 10.1105 11.8896 10.9631 11.068 12.103C10.2465 13.2429 9.8044 14.6124 9.8044 16.0175C9.8044 17.4226 10.2465 18.7921 11.068 19.932C11.8896 21.0719 13.049 21.9244 14.382 22.3688C15.7149 22.8132 17.154 22.8269 18.4952 22.4081C19.8364 21.9892 21.0119 21.159 21.855 20.035L21.28 19.46C20.6928 20.2804 19.9046 20.9362 18.9909 21.3642C18.0772 21.7922 17.0689 21.9781 16.0627 21.9041C15.0564 21.8301 14.0861 21.4986 13.2449 20.9416C12.4037 20.3845 11.7199 19.6205 11.2591 18.7229C10.7982 17.8254 10.5759 16.8244 10.6134 15.8161C10.6509 14.8079 10.947 13.8262 11.4733 12.9654C11.9996 12.1046 12.7383 11.3935 13.6186 10.9005C14.4988 10.4074 15.4911 10.149 16.5 10.15ZM22.805 9.90497L22.225 10.5C22.415 10.6963 22.5936 10.9033 22.76 11.12L23.335 10.5C23.1687 10.2832 22.9901 10.0762 22.8 9.87997L22.805 9.90497ZM7.68002 16.575C7.78101 18.1983 8.33066 19.7617 9.26774 21.091C10.2048 22.4204 11.4926 23.4635 12.9875 24.1042C14.4824 24.7449 16.1259 24.958 17.7348 24.7198C19.3437 24.4816 20.8549 23.8014 22.1 22.755L21.5 22.18C20.0831 23.3582 18.2978 24.0023 16.455 24C14.435 24.0009 12.4899 23.2347 11.0132 21.8564C9.53642 20.478 8.63816 18.5903 8.50003 16.575H7.68002ZM22.22 21.575L22.795 22.15C22.9877 21.9441 23.168 21.7271 23.335 21.5L22.76 20.925C22.5937 21.1417 22.415 21.3487 22.225 21.545L22.22 21.575ZM16.5 25.97C13.8558 25.97 11.3199 24.9196 9.45017 23.0498C7.58043 21.1801 6.53003 18.6442 6.53003 16C6.53003 13.3558 7.58043 10.8199 9.45017 8.95012C11.3199 7.08038 13.8558 6.02997 16.5 6.02997C17.9656 6.02922 19.413 6.35404 20.7377 6.98094C22.0624 7.60785 23.2314 8.52119 24.16 9.65497L24.735 9.07997C23.5687 7.69192 22.071 6.62046 20.3807 5.96474C18.6904 5.30901 16.862 5.0902 15.0647 5.32855C13.2674 5.56689 11.5593 6.25469 10.0983 7.32832C8.63735 8.40194 7.47076 9.82671 6.7065 11.4708C5.94223 13.1149 5.60497 14.9252 5.72592 16.7341C5.84687 18.5431 6.42213 20.2924 7.39847 21.8201C8.37481 23.3478 9.72068 24.6046 11.3116 25.4742C12.9025 26.3437 14.687 26.798 16.5 26.795C18.0747 26.7994 19.6307 26.4541 21.0557 25.784C22.4807 25.1138 23.7391 24.1356 24.74 22.92L24.165 22.345C23.242 23.4865 22.0736 24.4052 20.7465 25.0328C19.4194 25.6604 17.968 25.9807 16.5 25.97Z" fill="white"/>
</g>
<defs>
<clipPath id="clip0_4797_63742">
<rect width="32" height="32" fill="white"/>
</clipPath>
</defs>
</svg>
