<svg width="32" height="32" viewBox="0 0 32 32" fill="none" xmlns="http://www.w3.org/2000/svg">
<g clip-path="url(#clip0_170_16268)">
<path fill-rule="evenodd" clip-rule="evenodd" d="M0 0H32V32H0V0Z" fill="#2992FB"/>
<path fill-rule="evenodd" clip-rule="evenodd" d="M22.14 9.28485L21.565 9.85985C20.1414 8.68077 18.3484 8.04004 16.5 8.04985C14.4824 8.05002 12.54 8.81537 11.0645 10.1915C9.58911 11.5677 8.6905 13.4522 8.55 15.4649H7.725C7.85905 13.2307 8.84272 11.1324 10.4743 9.6003C12.1059 8.06818 14.2618 7.21828 16.5 7.22485C18.5637 7.23547 20.5595 7.96377 22.145 9.28485V9.28485H22.14ZM16.5 10.1499C17.4318 10.1497 18.3505 10.3698 19.1812 10.7921C20.0118 11.2144 20.731 11.8269 21.28 12.5799L21.855 11.9999C21.0118 10.8758 19.8364 10.0456 18.4952 9.62674C17.1539 9.20788 15.7149 9.22162 14.3819 9.66602C13.049 10.1104 11.8896 10.9629 11.068 12.1028C10.2465 13.2427 9.80438 14.6122 9.80438 16.0174C9.80438 17.4225 10.2465 18.792 11.068 19.9319C11.8896 21.0718 13.049 21.9243 14.3819 22.3687C15.7149 22.8131 17.1539 22.8268 18.4952 22.408C19.8364 21.9891 21.0118 21.1589 21.855 20.0349L21.28 19.4598C20.6928 20.2803 19.9045 20.936 18.9909 21.3641C18.0772 21.7921 17.0689 21.978 16.0626 21.904C15.0564 21.83 14.0861 21.4985 13.2449 20.9414C12.4037 20.3843 11.7199 19.6203 11.2591 18.7228C10.7982 17.8252 10.5759 16.8243 10.6134 15.816C10.6509 14.8078 10.947 13.8261 11.4733 12.9653C11.9995 12.1045 12.7383 11.3934 13.6185 10.9004C14.4988 10.4073 15.4911 10.1489 16.5 10.1499V10.1499ZM22.805 9.90485L22.225 10.4999C22.415 10.6962 22.5936 10.9032 22.76 11.1199L23.335 10.4999C23.1687 10.2831 22.9901 10.0761 22.8 9.87985L22.805 9.90485ZM7.68 16.5749C7.78099 18.1982 8.33063 19.7616 9.26772 21.0909C10.2048 22.4203 11.4925 23.4634 12.9875 24.1041C14.4824 24.7448 16.1259 24.9579 17.7348 24.7197C19.3437 24.4814 20.8549 23.8012 22.1 22.7549L21.5 22.1799C20.0831 23.3581 18.2978 24.0022 16.455 23.9999C14.4349 24.0008 12.4899 23.2346 11.0131 21.8562C9.53639 20.4779 8.63814 18.5902 8.5 16.5749H7.68ZM22.22 21.5749L22.795 22.1499C22.9876 21.944 23.1679 21.727 23.335 21.4999L22.76 20.9248C22.5936 21.1416 22.415 21.3486 22.225 21.5449V21.5449L22.22 21.5749ZM16.5 25.9699C13.8558 25.9699 11.3199 24.9194 9.45015 23.0497C7.58041 21.18 6.53 18.6441 6.53 15.9999C6.53 13.3556 7.58041 10.8197 9.45015 8.95C11.3199 7.08026 13.8558 6.02985 16.5 6.02985C17.9656 6.0291 19.413 6.35391 20.7377 6.98082C22.0624 7.60772 23.2313 8.52106 24.16 9.65485L24.735 9.07985C23.5686 7.6918 22.071 6.62034 20.3807 5.96462C18.6904 5.30889 16.862 5.09008 15.0647 5.32842C13.2674 5.56677 11.5593 6.25457 10.0983 7.3282C8.63733 8.40182 7.47074 9.82659 6.70647 11.4707C5.94221 13.1147 5.60495 14.925 5.7259 16.734C5.84685 18.543 6.42211 20.2923 7.39845 21.82C8.37478 23.3477 9.72066 24.6045 11.3116 25.474C12.9024 26.3436 14.687 26.7979 16.5 26.7949C18.0747 26.7993 19.6307 26.454 21.0557 25.7838C22.4807 25.1137 23.7391 24.1355 24.74 22.9199L24.165 22.3449C23.242 23.4864 22.0735 24.4051 20.7465 25.0327C19.4194 25.6603 17.9679 25.9806 16.5 25.9699Z" fill="white"/>
</g>
<defs>
<clipPath id="clip0_170_16268">
<rect width="32" height="32" fill="white"/>
</clipPath>
</defs>
</svg>
