<svg width="32" height="32" viewBox="0 0 32 32" fill="none" xmlns="http://www.w3.org/2000/svg">
<g clip-path="url(#clip0_168_16156)">
<path d="M16 0C24.8352 0 32 7.1648 32 16C32 24.8352 24.8352 32 16 32C7.1648 32 0 24.8352 0 16C0 7.1648 7.1648 0 16 0Z" fill="#1E0B49"/>
<path d="M10.3872 12.7999C11.0944 11.5967 12.2272 10.8831 13.2224 10.9023L13.6256 10.2207C14.32 9.03993 14.08 7.59993 13.088 7.01753C12.096 6.43513 10.7232 6.92793 10.0256 8.10233L9.62565 8.78393C10.1248 9.64473 10.048 10.9759 9.34085 12.1855C8.63365 13.3951 7.50085 14.1023 6.50565 14.0831L6.10245 14.7647C5.40805 15.9455 5.64805 17.3855 6.64005 17.9679C7.62885 18.5503 9.00485 18.0607 9.70245 16.8831L10.1024 16.2015C9.60325 15.3407 9.68005 14.0031 10.3872 12.7999Z" fill="#1E90FF"/>
<path d="M9.34402 19.7088C8.63682 18.5056 7.50402 17.792 6.50882 17.8112L6.10562 17.1296C5.41122 15.9488 5.65122 14.5088 6.64322 13.9264C7.63522 13.344 9.00802 13.8304 9.70562 15.0112L10.1056 15.6928C9.60642 16.5536 9.68322 17.8848 10.3904 19.0944C11.1008 20.304 12.2304 21.0112 13.2256 20.992L13.6288 21.6736C14.3232 22.8544 14.0832 24.2944 13.0912 24.8768C12.1024 25.4592 10.7264 24.9728 10.0288 23.792L9.62882 23.1104C10.1248 22.2496 10.048 20.912 9.34402 19.7088Z" fill="url(#paint0_linear_168_16156)"/>
<path d="M17.3984 19.7088C16.6912 18.5056 15.5584 17.792 14.5632 17.8112L14.16 17.1296C13.4656 15.9488 13.7056 14.5088 14.6976 13.9264C15.6896 13.344 17.0624 13.8304 17.7568 15.0112L18.16 15.6928C17.6608 16.5536 17.7376 17.8848 18.4448 19.0944C19.1552 20.304 20.2848 21.0112 21.28 20.992L21.6832 21.6736C22.3776 22.8544 22.1376 24.2944 21.1456 24.8768C20.1568 25.4592 18.7808 24.9728 18.0832 23.792L17.6832 23.1104C18.1856 22.2496 18.112 20.912 17.3984 19.7088Z" fill="url(#paint1_linear_168_16156)"/>
<path d="M22.4352 19.8273C23.1424 18.6273 24.2752 17.9105 25.2704 17.9297L25.6736 17.2481C26.368 16.0673 26.128 14.6273 25.136 14.0449C24.144 13.4625 22.7712 13.9521 22.0736 15.1297L21.6736 15.8113C22.1728 16.6721 22.096 18.0033 21.3888 19.2129C20.6784 20.4225 19.5488 21.1297 18.5536 21.1105L18.1504 21.7921C17.456 22.9729 17.696 24.4129 18.688 24.9953C19.68 25.5777 21.0528 25.0881 21.7504 23.9105L22.1504 23.2289C21.6448 22.3649 21.728 21.0273 22.4352 19.8273Z" fill="url(#paint2_linear_168_16156)"/>
<path d="M11.9008 6.56006C10.56 6.56006 9.47522 7.66406 9.50722 9.01126C9.53602 10.2817 10.5728 11.3153 11.8432 11.3473C13.1904 11.3793 14.2944 10.2945 14.2944 8.95366C14.2944 7.63206 13.2224 6.56006 11.9008 6.56006Z" fill="#1E90FF"/>
<path d="M11.9008 20.6079C10.56 20.6079 9.4784 21.7119 9.5104 23.0623C9.5424 24.3583 10.6176 25.4015 11.9136 25.3951C13.2288 25.3887 14.2944 24.3231 14.2976 23.0047C14.2976 21.6831 13.2256 20.6079 11.9008 20.6079Z" fill="#4B0082"/>
<path d="M19.9232 6.56006C18.5824 6.56006 17.4976 7.66406 17.5296 9.01126C17.5584 10.2817 18.5952 11.3153 19.8656 11.3473C21.2128 11.3793 22.3168 10.2945 22.3168 8.95366C22.3168 7.63206 21.2448 6.56006 19.9232 6.56006Z" fill="#1E90FF"/>
<path d="M19.9232 20.6079C18.5824 20.6079 17.4976 21.7119 17.5296 23.0591C17.5584 24.3551 18.6368 25.4015 19.9328 25.3951C21.248 25.3887 22.3136 24.3231 22.3168 23.0047C22.3168 21.6831 21.248 20.6111 19.9232 20.6079Z" fill="#4B0082"/>
<path d="M15.856 13.584C14.5152 13.584 13.4304 14.688 13.4624 16.0352C13.4912 17.3056 14.528 18.3392 15.7984 18.3712C17.1456 18.4032 18.2496 17.3184 18.2496 15.9776C18.2496 14.656 17.1776 13.584 15.856 13.584Z" fill="#8B008B"/>
<path d="M23.968 13.584C22.6272 13.584 21.5424 14.6848 21.5744 16.0352C21.6032 17.3056 22.64 18.3424 23.9072 18.3712C25.2544 18.4032 26.3584 17.3216 26.3584 15.9808C26.3584 14.656 25.2896 13.5872 23.968 13.584Z" fill="#8B008B"/>
<path d="M7.74402 13.584C6.40322 13.584 5.31842 14.688 5.35042 16.0352C5.37922 17.3056 6.41602 18.3392 7.68642 18.3712C9.03362 18.4032 10.1376 17.3184 10.1376 15.9776C10.1376 14.656 9.06562 13.584 7.74402 13.584Z" fill="#1E90FF"/>
</g>
<defs>
<linearGradient id="paint0_linear_168_16156" x1="8.99981" y1="17.9173" x2="10.7796" y2="20.9628" gradientUnits="userSpaceOnUse">
<stop offset="0.21" stop-color="#1E90FF"/>
<stop offset="1" stop-color="#4B0082"/>
</linearGradient>
<linearGradient id="paint1_linear_168_16156" x1="17.0561" y1="17.9155" x2="18.7308" y2="20.7725" gradientUnits="userSpaceOnUse">
<stop stop-color="#8B008B"/>
<stop offset="1" stop-color="#4B0082"/>
</linearGradient>
<linearGradient id="paint2_linear_168_16156" x1="22.8441" y1="18.1826" x2="20.8653" y2="20.8051" gradientUnits="userSpaceOnUse">
<stop stop-color="#8B008B"/>
<stop offset="1" stop-color="#4B0082"/>
</linearGradient>
<clipPath id="clip0_168_16156">
<rect width="32" height="32" fill="white"/>
</clipPath>
</defs>
</svg>
