<svg width="32" height="32" viewBox="0 0 32 32" fill="none" xmlns="http://www.w3.org/2000/svg">
<g clip-path="url(#clip0_4767_69711)">
<path d="M16 0C24.8352 0 32 7.1648 32 16C32 24.8352 24.8352 32 16 32C7.1648 32 0 24.8352 0 16C0 7.1648 7.1648 0 16 0Z" fill="#1E0B49"/>
<path d="M10.3871 12.8002C11.0943 11.597 12.2271 10.8834 13.2223 10.9026L13.6255 10.221C14.3199 9.04017 14.0799 7.60017 13.0879 7.01777C12.0959 6.43537 10.7231 6.92817 10.0255 8.10257L9.62546 8.78417C10.1247 9.64497 10.0479 10.9762 9.34066 12.1858C8.63346 13.3954 7.50066 14.1026 6.50546 14.0834L6.10226 14.765C5.40786 15.9458 5.64786 17.3858 6.63986 17.9682C7.62866 18.5506 9.00466 18.061 9.70226 16.8834L10.1023 16.2018C9.60306 15.341 9.67986 14.0034 10.3871 12.8002Z" fill="#1E90FF"/>
<path d="M9.34384 19.7088C8.63664 18.5056 7.50384 17.792 6.50864 17.8112L6.10544 17.1296C5.41104 15.9488 5.65104 14.5088 6.64304 13.9264C7.63504 13.344 9.00784 13.8304 9.70544 15.0112L10.1054 15.6928C9.60624 16.5536 9.68304 17.8848 10.3902 19.0944C11.1006 20.304 12.2302 21.0112 13.2254 20.992L13.6286 21.6736C14.323 22.8544 14.083 24.2944 13.091 24.8768C12.1022 25.4592 10.7262 24.9728 10.0286 23.792L9.62864 23.1104C10.1246 22.2496 10.0478 20.912 9.34384 19.7088Z" fill="url(#paint0_linear_4767_69711)"/>
<path d="M17.3983 19.7088C16.6911 18.5056 15.5583 17.792 14.5631 17.8112L14.1599 17.1296C13.4655 15.9488 13.7055 14.5088 14.6975 13.9264C15.6895 13.344 17.0623 13.8304 17.7567 15.0112L18.1599 15.6928C17.6607 16.5536 17.7375 17.8848 18.4447 19.0944C19.1551 20.304 20.2847 21.0112 21.2799 20.992L21.6831 21.6736C22.3775 22.8544 22.1375 24.2944 21.1455 24.8768C20.1567 25.4592 18.7807 24.9728 18.0831 23.792L17.6831 23.1104C18.1855 22.2496 18.1119 20.912 17.3983 19.7088Z" fill="url(#paint1_linear_4767_69711)"/>
<path d="M22.4352 19.8273C23.1424 18.6273 24.2752 17.9105 25.2704 17.9297L25.6736 17.2481C26.368 16.0673 26.128 14.6273 25.136 14.0449C24.144 13.4625 22.7712 13.9521 22.0736 15.1297L21.6736 15.8113C22.1728 16.6721 22.096 18.0033 21.3888 19.2129C20.6784 20.4225 19.5488 21.1297 18.5536 21.1105L18.1504 21.7921C17.456 22.9729 17.696 24.4129 18.688 24.9953C19.68 25.5777 21.0528 25.0881 21.7504 23.9105L22.1504 23.2289C21.6448 22.3649 21.728 21.0273 22.4352 19.8273Z" fill="url(#paint2_linear_4767_69711)"/>
<path d="M11.9006 6.56006C10.5598 6.56006 9.47504 7.66406 9.50704 9.01126C9.53584 10.2817 10.5726 11.3153 11.843 11.3473C13.1902 11.3793 14.2942 10.2945 14.2942 8.95366C14.2942 7.63206 13.2222 6.56006 11.9006 6.56006Z" fill="#1E90FF"/>
<path d="M11.9006 20.608C10.5598 20.608 9.47821 21.712 9.51021 23.0624C9.54221 24.3584 10.6174 25.4016 11.9134 25.3952C13.2286 25.3888 14.2942 24.3232 14.2974 23.0048C14.2974 21.6832 13.2254 20.608 11.9006 20.608Z" fill="#4B0082"/>
<path d="M19.9231 6.56006C18.5823 6.56006 17.4975 7.66406 17.5295 9.01126C17.5583 10.2817 18.5951 11.3153 19.8655 11.3473C21.2127 11.3793 22.3167 10.2945 22.3167 8.95366C22.3167 7.63206 21.2447 6.56006 19.9231 6.56006Z" fill="#1E90FF"/>
<path d="M19.9231 20.608C18.5823 20.608 17.4975 21.712 17.5295 23.0592C17.5583 24.3552 18.6367 25.4016 19.9327 25.3952C21.2479 25.3888 22.3135 24.3232 22.3167 23.0048C22.3167 21.6832 21.2479 20.6112 19.9231 20.608Z" fill="#4B0082"/>
<path d="M15.856 13.584C14.5152 13.584 13.4304 14.688 13.4624 16.0352C13.4912 17.3056 14.528 18.3392 15.7984 18.3712C17.1456 18.4032 18.2496 17.3184 18.2496 15.9776C18.2496 14.656 17.1776 13.584 15.856 13.584Z" fill="#8B008B"/>
<path d="M23.968 13.584C22.6272 13.584 21.5424 14.6848 21.5744 16.0352C21.6032 17.3056 22.64 18.3424 23.9072 18.3712C25.2544 18.4032 26.3584 17.3216 26.3584 15.9808C26.3584 14.656 25.2896 13.5872 23.968 13.584Z" fill="#8B008B"/>
<path d="M7.7439 13.584C6.4031 13.584 5.3183 14.688 5.3503 16.0352C5.3791 17.3056 6.4159 18.3392 7.6863 18.3712C9.0335 18.4032 10.1375 17.3184 10.1375 15.9776C10.1375 14.656 9.0655 13.584 7.7439 13.584Z" fill="#1E90FF"/>
</g>
<defs>
<linearGradient id="paint0_linear_4767_69711" x1="8.99963" y1="17.9173" x2="10.7794" y2="20.9628" gradientUnits="userSpaceOnUse">
<stop offset="0.21" stop-color="#1E90FF"/>
<stop offset="1" stop-color="#4B0082"/>
</linearGradient>
<linearGradient id="paint1_linear_4767_69711" x1="17.056" y1="17.9155" x2="18.7307" y2="20.7725" gradientUnits="userSpaceOnUse">
<stop stop-color="#8B008B"/>
<stop offset="1" stop-color="#4B0082"/>
</linearGradient>
<linearGradient id="paint2_linear_4767_69711" x1="22.844" y1="18.1826" x2="20.8653" y2="20.8051" gradientUnits="userSpaceOnUse">
<stop stop-color="#8B008B"/>
<stop offset="1" stop-color="#4B0082"/>
</linearGradient>
<clipPath id="clip0_4767_69711">
<rect width="32" height="32" fill="white"/>
</clipPath>
</defs>
</svg>
