<svg width="32" height="32" viewBox="0 0 32 32" fill="none" xmlns="http://www.w3.org/2000/svg">
<g clip-path="url(#clip0_176_4494)">
<path d="M16 0C24.8374 0 32 7.16407 32 16C32 24.8374 24.8374 32 16 32C7.16407 32 0 24.8366 0 16C0 7.16407 7.16407 0 16 0Z" fill="#F5AC37"/>
<path d="M16.5897 17.1298H22.6694C22.799 17.1298 22.8602 17.1298 22.8696 16.9599C22.9193 16.3414 22.9193 15.7193 22.8696 15.1001C22.8696 14.9799 22.8098 14.9302 22.6795 14.9302H10.5798C10.43 14.9302 10.3897 14.9799 10.3897 15.1203V16.9001C10.3897 17.1298 10.3897 17.1298 10.6295 17.1298H16.5897V17.1298ZM22.1906 12.8501C22.2079 12.8047 22.2079 12.7551 22.1906 12.7104C22.0891 12.4894 21.9689 12.2784 21.8292 12.0804C21.6189 11.742 21.3713 11.4302 21.089 11.1502C20.9558 10.981 20.8017 10.829 20.6289 10.7002C19.7635 9.96359 18.7346 9.44231 17.6287 9.18022C17.0707 9.05494 16.5004 8.99518 15.9287 9.00022H10.5589C10.4092 9.00022 10.389 9.05998 10.389 9.1903V12.7399C10.389 12.8897 10.389 12.93 10.5791 12.93H22.1186C22.1186 12.93 22.2187 12.9099 22.2389 12.8501H22.1899H22.1906ZM22.1906 19.2099C22.0207 19.1912 21.8494 19.1912 21.6794 19.2099H10.5899C10.4401 19.2099 10.3897 19.2099 10.3897 19.4101V22.8805C10.3897 23.0404 10.3897 23.0807 10.5899 23.0807H15.7098C15.9547 23.0994 16.1995 23.0821 16.4392 23.031C17.1823 22.9777 17.9131 22.8164 18.61 22.5508C18.8635 22.4629 19.1083 22.3484 19.3394 22.2109H19.4092C20.6095 21.5867 21.5844 20.606 22.1993 19.4022C22.1993 19.4022 22.2691 19.251 22.1906 19.2114V19.2099ZM8.38018 24.88V24.8202V22.4903V21.7004V19.3503C8.38018 19.22 8.38018 19.2006 8.22033 19.2006H6.05023C5.92999 19.2006 5.88031 19.2006 5.88031 19.0407V17.1406H8.20017C8.32977 17.1406 8.38018 17.1406 8.38018 16.9707V15.0908C8.38018 14.9705 8.38018 14.941 8.22033 14.941H6.05023C5.92999 14.941 5.88031 14.941 5.88031 14.7812V13.0215C5.88031 12.9113 5.88031 12.8818 6.04015 12.8818H8.19009C8.33985 12.8818 8.38018 12.8818 8.38018 12.6917V7.30172C8.38018 7.14188 8.38018 7.10156 8.58034 7.10156H16.0799C16.6243 7.12316 17.165 7.18292 17.6999 7.28156C18.8023 7.48533 19.8614 7.87917 20.8298 8.4415C21.4721 8.8195 22.0632 9.27598 22.5895 9.80159C22.9855 10.2127 23.3426 10.6577 23.6594 11.1314C23.9741 11.6117 24.2355 12.1251 24.4407 12.6615C24.4659 12.8011 24.5998 12.8955 24.7395 12.8717H26.5294C26.7591 12.8717 26.7591 12.8717 26.7692 13.092V14.7322C26.7692 14.892 26.7094 14.9324 26.5488 14.9324H25.1686C25.0289 14.9324 24.9886 14.9324 24.9987 15.1124C25.0534 15.7215 25.0534 16.3328 24.9987 16.9419C24.9987 17.1118 24.9987 17.132 25.1895 17.132H26.7684C26.8383 17.222 26.7684 17.312 26.7684 17.4027C26.7785 17.5186 26.7785 17.636 26.7684 17.7519V18.9622C26.7684 19.1322 26.7188 19.1826 26.5683 19.1826H24.6783C24.5465 19.1574 24.4183 19.2416 24.3881 19.3726C23.9381 20.5427 23.2181 21.5917 22.2878 22.4327C21.948 22.7387 21.5909 23.0267 21.2179 23.2924C20.8176 23.5228 20.4281 23.7625 20.0177 23.9526C19.2624 24.2925 18.4704 24.543 17.6575 24.7021C16.8856 24.8404 16.103 24.903 15.3174 24.8922H8.3773V24.8821L8.38018 24.88Z" fill="#FEFEFD"/>
</g>
<defs>
<clipPath id="clip0_176_4494">
<rect width="32" height="32" fill="white"/>
</clipPath>
</defs>
</svg>
