<svg width="32" height="32" viewBox="0 0 32 32" fill="none" xmlns="http://www.w3.org/2000/svg">
<g clip-path="url(#clip0_4767_63965)">
<path d="M16 0C24.8374 0 32 7.16407 32 16C32 24.8374 24.8374 32 16 32C7.16407 32 0 24.8366 0 16C0 7.16407 7.16407 0 16 0Z" fill="#F5AC37"/>
<path d="M16.5898 17.1297H22.6695C22.7991 17.1297 22.8603 17.1297 22.8697 16.9598C22.9193 16.3413 22.9193 15.7192 22.8697 15.1C22.8697 14.9798 22.8099 14.9301 22.6796 14.9301H10.5799C10.4301 14.9301 10.3898 14.9798 10.3898 15.1202V16.9C10.3898 17.1297 10.3898 17.1297 10.6295 17.1297H16.5898ZM22.1907 12.85C22.208 12.8046 22.208 12.7549 22.1907 12.7103C22.0892 12.4893 21.9689 12.2783 21.8293 12.0803C21.619 11.7419 21.3713 11.4301 21.0891 11.15C20.9559 10.9808 20.8018 10.8289 20.629 10.7C19.7636 9.96347 18.7347 9.44218 17.6287 9.1801C17.0707 9.05482 16.5005 8.99506 15.9288 9.0001H10.559C10.4092 9.0001 10.3891 9.05986 10.3891 9.19018V12.7398C10.3891 12.8896 10.3891 12.9299 10.5791 12.9299H22.1187C22.1187 12.9299 22.2188 12.9097 22.2389 12.85H22.19H22.1907ZM22.1907 19.2098C22.0208 19.1911 21.8494 19.1911 21.6795 19.2098H10.5899C10.4402 19.2098 10.3898 19.2098 10.3898 19.41V22.8804C10.3898 23.0402 10.3898 23.0806 10.5899 23.0806H15.7099C15.9547 23.0993 16.1995 23.082 16.4393 23.0309C17.1823 22.9776 17.9131 22.8163 18.6101 22.5506C18.8635 22.4628 19.1083 22.3483 19.3395 22.2108H19.4093C20.6096 21.5865 21.5844 20.6059 22.1993 19.402C22.1993 19.402 22.2692 19.2508 22.1907 19.2112V19.2098ZM8.38024 24.8799V24.8201V22.4902V21.7003V19.3502C8.38024 19.2199 8.38024 19.2004 8.22039 19.2004H6.05029C5.93005 19.2004 5.88037 19.2004 5.88037 19.0406V17.1405H8.20023C8.32984 17.1405 8.38024 17.1405 8.38024 16.9706V15.0906C8.38024 14.9704 8.38024 14.9409 8.22039 14.9409H6.05029C5.93005 14.9409 5.88037 14.9409 5.88037 14.781V13.0213C5.88037 12.9112 5.88037 12.8817 6.04021 12.8817H8.19015C8.33992 12.8817 8.38024 12.8817 8.38024 12.6916V7.3016C8.38024 7.14176 8.38024 7.10144 8.5804 7.10144H16.08C16.6243 7.12304 17.165 7.1828 17.7 7.28144C18.8023 7.4852 19.8615 7.87905 20.8299 8.44137C21.4721 8.81938 22.0633 9.27586 22.5896 9.80147C22.9856 10.2126 23.3427 10.6576 23.6595 11.1313C23.9742 11.6116 24.2355 12.1249 24.4407 12.6613C24.4659 12.801 24.5998 12.8953 24.7395 12.8716H26.5295C26.7591 12.8716 26.7591 12.8716 26.7692 13.0919V14.7321C26.7692 14.8919 26.7095 14.9322 26.5489 14.9322H25.1686C25.029 14.9322 24.9886 14.9322 24.9987 15.1122C25.0534 15.7214 25.0534 16.3327 24.9987 16.9418C24.9987 17.1117 24.9987 17.1319 25.1895 17.1319H26.7685C26.8383 17.2219 26.7685 17.3119 26.7685 17.4026C26.7786 17.5185 26.7786 17.6359 26.7685 17.7518V18.9621C26.7685 19.132 26.7188 19.1824 26.5683 19.1824H24.6783C24.5466 19.1572 24.4184 19.2415 24.3882 19.3725C23.9382 20.5425 23.2181 21.5916 22.2879 22.4326C21.9481 22.7386 21.5909 23.0266 21.218 23.2922C20.8176 23.5226 20.4281 23.7624 20.0177 23.9525C19.2624 24.2923 18.4704 24.5429 17.6575 24.702C16.8857 24.8403 16.103 24.9029 15.3175 24.8921H8.37736V24.882L8.38024 24.8799Z" fill="#FEFEFD"/>
</g>
<defs>
<clipPath id="clip0_4767_63965">
<rect width="32" height="32" fill="white"/>
</clipPath>
</defs>
</svg>
