<svg width="32" height="32" viewBox="0 0 32 32" fill="none" xmlns="http://www.w3.org/2000/svg">
<g clip-path="url(#clip0_4767_68814)">
<path d="M20.0074 1.47889V0.556384C20.0076 0.409137 19.9494 0.267835 19.8454 0.163514C19.7415 0.0591922 19.6005 0.000381838 19.4532 0L19.4309 0C16.4339 0.144556 13.5995 1.40552 11.4854 3.53477C9.37139 5.66402 8.13077 8.50737 8.0077 11.5053C8.02139 11.8952 8.33634 11.9968 8.52156 11.9968H9.45848C9.60111 11.9965 9.73817 11.9414 9.84142 11.843C9.94466 11.7446 10.0062 11.6103 10.0134 11.4678C10.1442 8.99754 11.1852 6.66319 12.9356 4.9151C14.686 3.16701 17.0216 2.12903 19.4921 2.0014C19.8827 1.95167 20.0074 1.73834 20.0074 1.47889ZM11.5752 12.0012H12.4681C12.6082 12.0002 12.7427 11.9464 12.8447 11.8504C12.9466 11.7544 13.0086 11.6234 13.018 11.4837C13.1428 9.80078 13.8708 8.21941 15.0681 7.03018C16.2654 5.84095 17.8516 5.12374 19.5354 5.01034C19.6677 5.00161 19.7913 4.94114 19.8793 4.84201C19.9674 4.74287 20.0129 4.61305 20.006 4.48062V3.56388C20.0056 3.41606 19.9466 3.27444 19.8418 3.17012C19.7371 3.0658 19.5953 3.00731 19.4474 3.0075C19.4352 3.00678 19.4229 3.00678 19.4107 3.0075C17.2319 3.15193 15.1797 4.08278 13.6358 5.62694C12.0919 7.1711 11.1614 9.22344 11.0174 11.4023C11.0075 11.5498 11.0566 11.6953 11.1539 11.8066C11.2512 11.918 11.3887 11.9861 11.5363 11.9961H11.573M20.0053 6.57499V7.49533C20.0053 7.87009 19.6795 8.00559 19.5209 8.02432C18.6348 8.1326 17.8103 8.53378 17.1782 9.16418C16.5461 9.79458 16.1427 10.6181 16.032 11.5039C16.016 11.6397 15.9509 11.765 15.849 11.8562C15.747 11.9474 15.6153 11.9982 15.4785 11.999H14.5856C14.4385 11.9996 14.2972 11.9418 14.1928 11.8383C14.0883 11.7347 14.0292 11.594 14.0285 11.4469C14.0274 11.4292 14.0274 11.4114 14.0285 11.3936C14.168 10.0167 14.7786 8.73014 15.7572 7.75144C16.7358 6.77275 18.0222 6.16192 19.3992 6.02221C19.4716 6.01546 19.5446 6.02305 19.6141 6.04454C19.6835 6.06602 19.7481 6.10099 19.804 6.14744C19.86 6.19389 19.9063 6.25091 19.9402 6.31525C19.9741 6.37958 19.995 6.44996 20.0017 6.52238C20.0027 6.54038 20.0027 6.55843 20.0017 6.57643L20.0053 6.57499ZM30.5189 19.9801C30.2594 19.9801 30.0461 19.8547 29.9957 19.4648C29.8682 16.994 28.8304 14.6578 27.0824 12.907C25.3343 11.1561 22.9998 10.1146 20.5292 9.9832C20.3868 9.97617 20.2525 9.91464 20.1541 9.81134C20.0558 9.70804 20.0009 9.57088 20.0009 9.42826V8.49134C20.0009 8.30612 20.1026 7.99117 20.4917 7.97748C23.4897 8.10032 26.3332 9.34061 28.4628 11.4543C30.5924 13.5681 31.854 16.4022 31.9992 19.3992C32.0049 19.5464 31.9519 19.6897 31.8519 19.7979C31.7519 19.906 31.6131 19.97 31.4659 19.9758H31.4436L30.5189 19.9801ZM19.9966 11.5478C19.9966 11.4747 20.0111 11.4022 20.0391 11.3346C20.0672 11.267 20.1083 11.2056 20.1601 11.1539C20.2119 11.1022 20.2734 11.0613 20.3411 11.0334C20.4087 11.0055 20.4813 10.9913 20.5544 10.9915C20.5669 10.9908 20.5794 10.9908 20.5919 10.9915C22.7717 11.1347 24.8252 12.0652 26.3702 13.6096C27.9151 15.154 28.8463 17.2072 28.9903 19.387C29 19.5343 28.9509 19.6796 28.8538 19.7909C28.7567 19.9022 28.6194 19.9705 28.4721 19.9808H28.4353H27.5222C27.3898 19.9877 27.26 19.9422 27.1608 19.8542C27.0617 19.7661 27.0012 19.6425 26.9925 19.5102C26.8789 17.8264 26.1614 16.2401 24.9719 15.0429C23.7824 13.8457 22.2008 13.118 20.5177 12.9936C20.3779 12.9845 20.2468 12.9226 20.1509 12.8205C20.055 12.7184 20.0014 12.5838 20.0009 12.4437L19.9966 11.5478ZM25.4185 19.9801H24.5039C24.1284 19.9801 23.9936 19.6543 23.9742 19.4951C23.8658 18.6091 23.4645 17.7847 22.8341 17.1527C22.2037 16.5208 21.3803 16.1175 20.4946 16.0068C20.3587 15.9913 20.2332 15.9265 20.142 15.8246C20.0507 15.7227 20 15.5908 19.9995 15.4541V14.5582C19.9991 14.4854 20.0131 14.4133 20.0406 14.3459C20.0681 14.2785 20.1086 14.2172 20.1598 14.1655C20.211 14.1138 20.2719 14.0726 20.339 14.0444C20.4061 14.0162 20.4781 14.0015 20.5508 14.0011C20.5686 14.0001 20.5864 14.0001 20.6042 14.0011C21.9809 14.1407 23.2673 14.7512 24.2458 15.7297C25.2244 16.7081 25.8351 17.9944 25.9749 19.3711C25.9883 19.5172 25.9431 19.6627 25.8493 19.7755C25.7556 19.8884 25.6208 19.9594 25.4747 19.9729C25.4572 19.974 25.4396 19.974 25.4221 19.9729L25.4185 19.9801ZM1.47956 11.9954C1.73901 11.9954 1.95234 12.1201 2.00279 12.51C2.13044 14.981 3.16867 17.3171 4.91718 19.0678C6.66569 20.8184 9.00058 21.8595 11.4714 21.9901C11.6137 21.9975 11.7478 22.0592 11.8461 22.1624C11.9443 22.2656 11.9993 22.4026 11.9997 22.5451V23.482C11.9997 23.6679 11.8981 23.9829 11.5089 23.9959C8.5107 23.8735 5.66685 22.6336 3.53693 20.5199C1.40701 18.4063 0.145258 15.572 -4.98799e-05 12.5749C-0.0029465 12.502 0.0085329 12.4293 0.0337327 12.3609C0.0589324 12.2925 0.0973589 12.2298 0.146817 12.1762C0.196276 12.1227 0.255797 12.0794 0.321982 12.0489C0.388167 12.0184 0.459719 12.0012 0.532551 11.9983H0.555613L1.47956 11.9954ZM12.0018 20.4276C12.0017 20.5008 11.9871 20.5732 11.9589 20.6407C11.9307 20.7083 11.8895 20.7696 11.8377 20.8212C11.7858 20.8728 11.7243 20.9136 11.6566 20.9415C11.5889 20.9693 11.5165 20.9835 11.4433 20.9833H11.4065C9.22758 20.8396 7.17497 19.9094 5.63054 18.3656C4.0861 16.8218 3.15496 14.7696 3.01033 12.5907C3.00513 12.5178 3.01436 12.4445 3.03749 12.3752C3.06061 12.3058 3.09718 12.2417 3.14511 12.1865C3.19303 12.1312 3.25137 12.086 3.31679 12.0533C3.38221 12.0207 3.45342 12.0012 3.52636 11.9961H4.47841C4.61107 11.9892 4.7411 12.0349 4.84028 12.1233C4.93945 12.2117 4.99976 12.3356 5.00812 12.4682C5.12188 14.152 5.83942 15.7382 7.0289 16.9353C8.21838 18.1325 9.79992 18.8602 11.4829 18.9848C11.6227 18.9939 11.7538 19.0558 11.8497 19.1579C11.9457 19.2599 11.9992 19.3946 11.9997 19.5347L12.0018 20.4276ZM6.57998 11.9954H7.49528C7.87076 11.9954 8.00553 12.3212 8.02499 12.4797C8.13351 13.3657 8.53477 14.1902 9.16512 14.8222C9.79547 15.4543 10.6188 15.8577 11.5046 15.9686C11.6404 15.984 11.7659 16.0487 11.8571 16.1505C11.9484 16.2523 11.9991 16.384 11.9997 16.5207V17.4165C11.9999 17.5634 11.9419 17.7044 11.8385 17.8087C11.735 17.9129 11.5945 17.972 11.4476 17.9729C11.4296 17.9729 11.4123 17.9729 11.395 17.9729C10.0181 17.8333 8.73165 17.2226 7.75298 16.244C6.77431 15.2655 6.16344 13.9791 6.0236 12.6022C6.01687 12.5295 6.02461 12.4561 6.04636 12.3864C6.06812 12.3167 6.10347 12.2519 6.15037 12.1959C6.19727 12.1399 6.25479 12.0937 6.31962 12.0601C6.38445 12.0264 6.4553 12.0059 6.52809 11.9997C6.54539 11.9997 6.56268 11.9997 6.5807 11.9997L6.57998 11.9954ZM12.0047 30.5175C12.0047 30.2581 12.1294 30.0447 12.5193 29.995C14.9894 29.8671 17.3247 28.8294 19.0751 27.0818C20.8254 25.3342 21.8669 23.0006 21.9987 20.5307C22.0058 20.3882 22.0673 20.2538 22.1705 20.1554C22.2738 20.0569 22.411 20.0019 22.5537 20.0017H23.4906C23.6758 20.0017 23.9908 20.1033 24.0045 20.4932C23.8814 23.4911 22.6409 26.3345 20.527 28.4638C18.4132 30.5932 15.5789 31.8544 12.582 31.9993C12.4349 32.0047 12.2916 31.9517 12.1836 31.8517C12.0755 31.7518 12.0114 31.613 12.0054 31.466V30.5175H12.0047ZM20.437 19.9952C20.5101 19.9952 20.5826 20.0097 20.6501 20.0377C20.7177 20.0658 20.779 20.1069 20.8306 20.1587C20.8823 20.2106 20.9232 20.2721 20.951 20.3397C20.9788 20.4074 20.9929 20.4799 20.9926 20.5531C20.9926 20.5653 20.9926 20.5776 20.9926 20.5905C20.8497 22.7705 19.9195 24.8242 18.3752 26.3695C16.8309 27.9147 14.7777 28.8461 12.5979 28.9903C12.4504 29.0002 12.3049 28.9513 12.1935 28.8541C12.082 28.757 12.0136 28.6196 12.0033 28.4722C12.0033 28.4599 12.0033 28.4476 12.0033 28.4354V27.5223C11.9964 27.3898 12.0419 27.26 12.1299 27.1609C12.218 27.0617 12.3416 27.0013 12.4739 26.9925C14.1576 26.879 15.7438 26.1617 16.941 24.9725C18.1383 23.7833 18.8663 22.2021 18.9912 20.5192C19.0002 20.3793 19.062 20.248 19.1641 20.1519C19.2662 20.0558 19.4009 20.0022 19.5411 20.0017L20.437 19.9952ZM12.0047 25.4164V24.504C12.0047 24.1292 12.3312 23.9937 12.4898 23.975C13.3757 23.8663 14.2001 23.465 14.8321 22.8347C15.4642 22.2044 15.8677 21.3811 15.9787 20.4954C15.9944 20.3596 16.0593 20.2342 16.1611 20.1429C16.263 20.0517 16.3947 20.001 16.5315 20.0003H17.4273C17.5742 19.9997 17.7153 20.0574 17.8196 20.1608C17.9239 20.2642 17.9829 20.4047 17.9837 20.5516C17.9837 20.5699 17.9837 20.5879 17.9837 20.6057C17.8436 21.9824 17.2326 23.2685 16.2539 24.2469C15.2753 25.2252 13.989 25.8359 12.6123 25.9756C12.5396 25.9823 12.4662 25.9745 12.3965 25.9527C12.3268 25.9309 12.2621 25.8955 12.2062 25.8486C12.1502 25.8017 12.104 25.7443 12.0703 25.6795C12.0366 25.6147 12.016 25.5439 12.0098 25.4711C12.0087 25.4536 12.0087 25.436 12.0098 25.4185L12.0047 25.4164Z" fill="#FF5C00"/>
</g>
<defs>
<clipPath id="clip0_4767_68814">
<rect width="32" height="31.9993" fill="white"/>
</clipPath>
</defs>
</svg>
