<svg width="32" height="32" viewBox="0 0 32 32" fill="none" xmlns="http://www.w3.org/2000/svg">
<g clip-path="url(#clip0_171_16283)">
<path d="M20.0075 1.47889V0.556384C20.0077 0.409137 19.9494 0.267835 19.8455 0.163514C19.7416 0.0591922 19.6005 0.000381838 19.4533 0L19.4309 0C16.4339 0.144556 13.5995 1.40552 11.4855 3.53477C9.37145 5.66402 8.13083 8.50737 8.00776 11.5053C8.02145 11.8952 8.3364 11.9968 8.52162 11.9968H9.45854C9.60117 11.9965 9.73823 11.9414 9.84148 11.843C9.94472 11.7446 10.0063 11.6103 10.0135 11.4678C10.1443 8.99754 11.1853 6.66319 12.9357 4.9151C14.686 3.16701 17.0217 2.12903 19.4922 2.0014C19.8828 1.95167 20.0075 1.73834 20.0075 1.47889M11.5752 12.0012H12.4682C12.6082 12.0002 12.7427 11.9464 12.8447 11.8504C12.9467 11.7544 13.0086 11.6234 13.0181 11.4837C13.1429 9.80078 13.8708 8.21941 15.0681 7.03018C16.2654 5.84095 17.8517 5.12374 19.5354 5.01034C19.6677 5.00161 19.7913 4.94114 19.8794 4.84201C19.9675 4.74287 20.013 4.61305 20.006 4.48062V3.56388C20.0057 3.41606 19.9466 3.27444 19.8419 3.17012C19.7372 3.0658 19.5953 3.00731 19.4475 3.0075C19.4353 3.00678 19.423 3.00678 19.4107 3.0075C17.2319 3.15193 15.1798 4.08278 13.6359 5.62694C12.092 7.1711 11.1615 9.22344 11.0174 11.4023C11.0075 11.5498 11.0566 11.6953 11.1539 11.8066C11.2512 11.918 11.3888 11.9861 11.5363 11.9961H11.5731M20.0053 6.57499V7.49533C20.0053 7.87009 19.6796 8.00559 19.521 8.02432C18.6349 8.1326 17.8103 8.53378 17.1782 9.16418C16.5461 9.79458 16.1427 10.6181 16.0321 11.5039C16.0161 11.6397 15.951 11.765 15.8491 11.8562C15.7471 11.9474 15.6154 11.9982 15.4786 11.999H14.5856C14.4386 11.9996 14.2973 11.9418 14.1928 11.8383C14.0884 11.7347 14.0293 11.594 14.0285 11.4469C14.0274 11.4292 14.0274 11.4114 14.0285 11.3936C14.1681 10.0167 14.7787 8.73014 15.7573 7.75144C16.7358 6.77275 18.0223 6.16192 19.3992 6.02221C19.4716 6.01546 19.5446 6.02305 19.6141 6.04454C19.6836 6.06602 19.7482 6.10099 19.8041 6.14744C19.8601 6.19389 19.9063 6.25091 19.9402 6.31525C19.9741 6.37958 19.995 6.44996 20.0017 6.52238C20.0028 6.54038 20.0028 6.55843 20.0017 6.57643L20.0053 6.57499ZM30.519 19.9801C30.2595 19.9801 30.0462 19.8547 29.9957 19.4648C29.8683 16.994 28.8305 14.6578 27.0824 12.907C25.3344 11.1561 22.9999 10.1146 20.5293 9.9832C20.3868 9.97617 20.2525 9.91464 20.1542 9.81134C20.0559 9.70804 20.001 9.57088 20.001 9.42826V8.49134C20.001 8.30612 20.1026 7.99117 20.4918 7.97748C23.4898 8.10032 26.3333 9.34061 28.4629 11.4543C30.5925 13.5681 31.854 16.4022 31.9993 19.3992C32.0049 19.5464 31.9519 19.6897 31.8519 19.7979C31.7519 19.906 31.6131 19.97 31.466 19.9758H31.4436L30.519 19.9801ZM19.9967 11.5478C19.9967 11.4747 20.0111 11.4022 20.0392 11.3346C20.0672 11.267 20.1083 11.2056 20.1601 11.1539C20.212 11.1022 20.2735 11.0613 20.3411 11.0334C20.4088 11.0055 20.4813 10.9913 20.5545 10.9915C20.567 10.9908 20.5795 10.9908 20.592 10.9915C22.7718 11.1347 24.8253 12.0652 26.3702 13.6096C27.9152 15.154 28.8463 17.2072 28.9903 19.387C29 19.5343 28.951 19.6796 28.8539 19.7909C28.7567 19.9022 28.6195 19.9705 28.4722 19.9808H28.4354H27.5223C27.3898 19.9877 27.26 19.9422 27.1609 19.8542C27.0617 19.7661 27.0013 19.6425 26.9926 19.5102C26.8789 17.8264 26.1615 16.2401 24.9719 15.0429C23.7824 13.8457 22.2008 13.118 20.5177 12.9936C20.378 12.9845 20.2469 12.9226 20.1509 12.8205C20.055 12.7184 20.0014 12.5838 20.001 12.4437L19.9967 11.5478ZM25.4185 19.9801H24.504C24.1285 19.9801 23.9937 19.6543 23.9742 19.4951C23.8658 18.6091 23.4646 17.7847 22.8342 17.1527C22.2038 16.5208 21.3804 16.1175 20.4947 16.0068C20.3588 15.9913 20.2333 15.9265 20.142 15.8246C20.0508 15.7227 20.0001 15.5908 19.9996 15.4541V14.5582C19.9992 14.4854 20.0131 14.4133 20.0406 14.3459C20.0681 14.2785 20.1086 14.2172 20.1598 14.1655C20.211 14.1138 20.2719 14.0726 20.339 14.0444C20.4061 14.0162 20.4781 14.0015 20.5509 14.0011C20.5687 14.0001 20.5865 14.0001 20.6042 14.0011C21.981 14.1407 23.2673 14.7512 24.2459 15.7297C25.2245 16.7081 25.8352 17.9944 25.9749 19.3711C25.9883 19.5172 25.9432 19.6627 25.8494 19.7755C25.7556 19.8884 25.6209 19.9594 25.4747 19.9729C25.4572 19.974 25.4397 19.974 25.4221 19.9729L25.4185 19.9801ZM1.47962 11.9954C1.73907 11.9954 1.9524 12.1201 2.00285 12.51C2.1305 14.981 3.16873 17.3171 4.91724 19.0678C6.66575 20.8184 9.00064 21.8595 11.4715 21.9901C11.6138 21.9975 11.7479 22.0592 11.8461 22.1624C11.9444 22.2656 11.9994 22.4026 11.9997 22.5451V23.482C11.9997 23.6679 11.8981 23.9829 11.5089 23.9959C8.51076 23.8735 5.66691 22.6336 3.53699 20.5199C1.40707 18.4063 0.145319 15.572 1.11553e-05 12.5749C-0.00288546 12.502 0.00859394 12.4293 0.0337937 12.3609C0.0589935 12.2925 0.09742 12.2298 0.146878 12.1762C0.196337 12.1227 0.255858 12.0794 0.322043 12.0489C0.388228 12.0184 0.45978 12.0012 0.532612 11.9983H0.555674L1.47962 11.9954ZM12.0019 20.4276C12.0017 20.5008 11.9871 20.5732 11.9589 20.6407C11.9308 20.7083 11.8896 20.7696 11.8377 20.8212C11.7858 20.8728 11.7243 20.9136 11.6567 20.9415C11.589 20.9693 11.5165 20.9835 11.4434 20.9833H11.4066C9.22764 20.8396 7.17504 19.9094 5.6306 18.3656C4.08616 16.8218 3.15503 14.7696 3.01039 12.5907C3.00519 12.5178 3.01442 12.4445 3.03755 12.3752C3.06067 12.3058 3.09724 12.2417 3.14517 12.1865C3.19309 12.1312 3.25143 12.086 3.31685 12.0533C3.38227 12.0207 3.45348 12.0012 3.52642 11.9961H4.47847C4.61113 11.9892 4.74116 12.0349 4.84034 12.1233C4.93951 12.2117 4.99983 12.3356 5.00819 12.4682C5.12194 14.152 5.83948 15.7382 7.02896 16.9353C8.21844 18.1325 9.79998 18.8602 11.483 18.9848C11.6228 18.9939 11.7539 19.0558 11.8498 19.1579C11.9457 19.2599 11.9993 19.3946 11.9997 19.5347L12.0019 20.4276ZM6.58004 11.9954H7.49534C7.87082 11.9954 8.0056 12.3212 8.02505 12.4797C8.13357 13.3657 8.53483 14.1902 9.16518 14.8222C9.79553 15.4543 10.6189 15.8577 11.5046 15.9687C11.6405 15.984 11.7659 16.0487 11.8572 16.1505C11.9485 16.2523 11.9992 16.384 11.9997 16.5207V17.4165C11.9999 17.5634 11.942 17.7044 11.8385 17.8087C11.7351 17.9129 11.5946 17.972 11.4477 17.9729C11.4297 17.9729 11.4124 17.9729 11.3951 17.9729C10.0182 17.8333 8.73171 17.2226 7.75304 16.244C6.77437 15.2655 6.16351 13.9791 6.02366 12.6022C6.01693 12.5295 6.02467 12.4561 6.04643 12.3864C6.06818 12.3167 6.10353 12.2519 6.15043 12.1959C6.19733 12.1399 6.25485 12.0937 6.31968 12.0601C6.38451 12.0264 6.45536 12.0059 6.52815 11.9997C6.54545 11.9997 6.56275 11.9997 6.58076 11.9997L6.58004 11.9954ZM12.0048 30.5175C12.0048 30.2581 12.1295 30.0447 12.5194 29.995C14.9895 29.8671 17.3248 28.8294 19.0751 27.0818C20.8255 25.3342 21.867 23.0006 21.9988 20.5307C22.0058 20.3882 22.0673 20.2538 22.1706 20.1554C22.2739 20.0569 22.411 20.0019 22.5537 20.0017H23.4907C23.6759 20.0017 23.9908 20.1033 24.0045 20.4932C23.8815 23.4911 22.641 26.3345 20.5271 28.4638C18.4132 30.5932 15.579 31.8544 12.5821 31.9993C12.435 32.0047 12.2917 31.9517 12.1836 31.8517C12.0756 31.7518 12.0115 31.613 12.0055 31.466V30.5175H12.0048ZM20.437 19.9952C20.5102 19.9952 20.5826 20.0097 20.6502 20.0377C20.7177 20.0658 20.7791 20.1069 20.8307 20.1587C20.8823 20.2106 20.9232 20.2721 20.951 20.3397C20.9788 20.4074 20.993 20.4799 20.9927 20.5531C20.9927 20.5653 20.9927 20.5776 20.9927 20.5905C20.8498 22.7705 19.9196 24.8242 18.3753 26.3695C16.831 27.9147 14.7778 28.8461 12.5979 28.9903C12.4504 29.0002 12.305 28.9513 12.1935 28.8541C12.0821 28.757 12.0137 28.6196 12.0033 28.4722C12.0033 28.4599 12.0033 28.4476 12.0033 28.4354V27.5223C11.9964 27.3898 12.0419 27.26 12.13 27.1609C12.2181 27.0617 12.3416 27.0013 12.474 26.9925C14.1576 26.879 15.7438 26.1617 16.9411 24.9725C18.1384 23.7833 18.8664 22.2021 18.9913 20.5192C19.0002 20.3793 19.062 20.248 19.1641 20.1519C19.2662 20.0558 19.401 20.0022 19.5412 20.0017L20.437 19.9952ZM12.0048 25.4164V24.504C12.0048 24.1292 12.3313 23.9937 12.4898 23.975C13.3758 23.8663 14.2002 23.465 14.8322 22.8347C15.4642 22.2044 15.8677 21.3811 15.9787 20.4954C15.9944 20.3596 16.0593 20.2342 16.1612 20.1429C16.263 20.0517 16.3948 20.001 16.5315 20.0003H17.4274C17.5742 19.9997 17.7153 20.0574 17.8196 20.1608C17.924 20.2642 17.983 20.4047 17.9837 20.5516C17.9837 20.5699 17.9837 20.5879 17.9837 20.6057C17.8436 21.9824 17.2326 23.2685 16.254 24.2469C15.2754 25.2252 13.9891 25.8359 12.6123 25.9756C12.5396 25.9823 12.4663 25.9745 12.3966 25.9527C12.3269 25.9309 12.2622 25.8955 12.2062 25.8486C12.1502 25.8017 12.1041 25.7443 12.0704 25.6795C12.0366 25.6147 12.0161 25.5439 12.0098 25.4711C12.0088 25.4536 12.0088 25.436 12.0098 25.4185L12.0048 25.4164Z" fill="#FF5C00"/>
</g>
<defs>
<clipPath id="clip0_171_16283">
<rect width="32" height="31.9993" fill="white"/>
</clipPath>
</defs>
</svg>
