<svg width="32" height="32" viewBox="0 0 32 32" fill="none" xmlns="http://www.w3.org/2000/svg">
    <g clip-path="url(#clip0_5848_6567)">
    <circle cx="16" cy="16" r="16" fill="#A36EFD"/>
    <path d="M21.7255 8.3893C20.346 8.23084 19.4262 8.15161 16.0334 8.15161C13.1226 8.15161 11.7039 8.25707 10.3413 8.3893C9.70427 8.45104 9.1962 8.93571 9.24298 9.57665L9.99638 19.8399L16.0329 22.0032L22.0699 19.8399L22.8233 9.57665C22.8706 8.93571 22.3609 8.46252 21.725 8.3893H21.7255Z" fill="#4C2897"/>
    <path d="M23.6126 17.2545C23.6126 17.2545 22.3261 18.0271 21.8605 18.2042C20.4614 18.7369 16.034 19.5762 16.034 19.5762C16.034 19.5762 11.6061 18.7375 10.2075 18.2042C9.74187 18.0266 8.45537 17.2545 8.45537 17.2545C7.65355 16.8201 6.75872 17.4441 6.75708 18.3593C6.75436 19.8407 7.9114 21.3619 9.47206 22.3208C11.2318 23.4022 13.8587 23.8508 16.034 23.8508C18.2094 23.8508 20.8362 23.4022 22.596 22.3208C24.1566 21.3619 25.3136 19.8401 25.3109 18.3593C25.3093 17.4441 24.4145 16.8201 23.6126 17.2545Z" fill="#4C2897"/>
    <path d="M22.3484 16.4892C21.3573 16.769 19.8118 17.5466 16.0334 17.5466C12.255 17.5466 10.7095 16.769 9.71843 16.4892C9.55197 16.4423 9.38932 16.5734 9.39857 16.7472L9.53293 19.1945C9.53783 19.2874 9.57264 19.3749 9.63139 19.4464C10.0421 19.9437 11.8834 21.6785 16.0329 21.6785C20.1823 21.6785 22.0013 19.9661 22.4273 19.4557C22.4915 19.3787 22.5285 19.2831 22.5344 19.1825L22.6683 16.7472C22.678 16.5739 22.5149 16.4423 22.3484 16.4892Z" fill="#A36EFD"/>
    </g>
    <defs>
    <clipPath id="clip0_5848_6567">
    <rect width="32" height="32" fill="white"/>
    </clipPath>
    </defs>
    </svg>
    