<svg width="32" height="32" viewBox="0 0 32 32" fill="none" xmlns="http://www.w3.org/2000/svg">
<g clip-path="url(#clip0_4775_63932)">
<path d="M14.1309 23.0262H10.5418V8.81794H14.1309V0.0327148C6.17493 0.958137 0 7.719 0 15.9233C0 24.1276 6.17493 30.8879 14.1309 31.8114V23.0262Z" fill="#7B32E8"/>
<path d="M17.5699 0V8.84684C18.2584 8.89838 18.9359 9.04849 19.5817 9.29257C23.9661 10.973 23.9976 15.9981 23.9976 15.9981C23.9385 18.6021 22.886 19.994 21.8173 21.0861C20.6913 22.2359 19.1655 22.896 17.5674 23.0073V31.8466C25.6699 31.057 32.0001 24.2301 32.0001 15.9233C32.0001 7.6165 25.6699 0.788998 17.5699 0Z" fill="#1CB7ED"/>
</g>
<defs>
<clipPath id="clip0_4775_63932">
<rect width="32" height="32" fill="white"/>
</clipPath>
</defs>
</svg>
