<svg width="32" height="32" viewBox="0 0 32 32" fill="none" xmlns="http://www.w3.org/2000/svg">
    <g clip-path="url(#clip0_5849_6668)">
        <path
            d="M16 32C24.8366 32 32 24.8366 32 16C32 7.16344 24.8366 0 16 0C7.16344 0 0 7.16344 0 16C0 24.8366 7.16344 32 16 32Z"
            fill="#161E53" />
        <path
            d="M21.6668 10.8284L22.8262 8.00154H20.9216L20.1568 9.86054C19.7378 9.65903 19.2976 9.49683 18.8431 9.37649L19.4086 8H17.5041L17.042 9.12301C16.9815 9.12301 16.9203 9.11993 16.8586 9.11993H14.6455C14.3515 9.08614 14.0621 9.02545 13.7814 8.93853C13.6837 8.90857 13.5884 8.87669 13.4944 8.84097L12.8658 10.3676L8 22.2001H11.6651L10.9244 24H12.8289L13.5701 22.2001H15.0835L14.3427 24H16.2473L16.9881 22.199C20.9273 22.1374 24.0661 19.1614 23.9989 15.5519C23.9654 13.75 23.1215 12.0407 21.6667 10.8281L21.6668 10.8284ZM10.5758 20.5674L14.6127 10.7555C14.794 10.771 14.9758 10.7779 15.1576 10.7779C15.3393 10.7779 15.5302 10.77 15.7115 10.754H16.374L12.3376 20.5674H10.5758ZM14.2409 20.5674L18.2158 10.9122C18.6743 11.023 19.1148 11.1888 19.5259 11.4055L15.7539 20.5675H14.2409V20.5674ZM20.6486 19.129C19.8468 19.8687 18.8067 20.3529 17.6819 20.51L20.9706 12.5174C22.7488 14.465 22.6091 17.3344 20.6485 19.129H20.6486Z"
            fill="#FFBB51" />
    </g>
    <defs>
        <clipPath id="clip0_5849_6668">
            <rect width="32" height="32" fill="white" />
        </clipPath>
    </defs>
</svg>
    