<svg width="32" height="32" viewBox="0 0 32 32" fill="none" xmlns="http://www.w3.org/2000/svg">
<g clip-path="url(#clip0_4767_69200)">
<path d="M21.8105 8.00305C21.8105 8.00305 22.3153 7.4983 22.5449 6.99354C22.5449 6.99354 21.994 6.35095 22.5449 5.7086C22.5449 5.7086 22.6825 4.88352 22.0857 4.42366C22.0857 4.42366 23.1414 3.59858 24.3346 5.02014C24.3346 5.02014 24.7015 4.74496 25.0228 5.20385C25.0228 5.20385 28.5563 6.12163 27.4092 12.5005L21.8105 8.00305Z" fill="#1797E5" stroke="#122A44" stroke-width="0.5" stroke-miterlimit="10"/>
<path d="M23.7608 7.29144C23.7608 7.29144 24.1733 7.42903 24.4031 7.19971C24.4031 7.19971 25.2139 8.74455 24.6249 10.2666L22.7971 9.03527C22.7971 9.03527 23.7608 8.57613 23.7608 7.29144Z" fill="url(#paint0_linear_4767_69200)" stroke="#122A44" stroke-width="0.5" stroke-linejoin="round"/>
<path d="M24.7354 6.9656C24.7354 6.9656 25.1479 6.96754 25.3794 6.64746C25.3794 6.64746 27.345 8.20225 26.387 11.7081L25.0399 10.363C25.0399 10.363 25.8279 8.76064 24.7354 6.9656Z" fill="url(#paint1_linear_4767_69200)" stroke="#122A44" stroke-width="0.5" stroke-linejoin="round"/>
<path d="M4.17902 10.8428C4.17902 10.8428 1.34341 11.9037 1.75644 13.4182C1.75644 13.4182 1.8438 13.9167 2.74095 13.7822C2.74095 13.7822 4.71775 10.9748 4.17902 10.8428Z" fill="#1797E5" stroke="#122A44" stroke-width="0.5" stroke-miterlimit="10"/>
<path d="M3.12043 21.1284C3.12043 21.1284 1.92649 22.5488 2.97798 24.0977C3.01027 24.1457 3.05737 24.1818 3.1121 24.2005C3.16682 24.2192 3.22617 24.2195 3.28107 24.2014C3.62785 24.0854 4.38183 23.6917 5.06058 22.3668L3.12043 21.1284ZM5.0004 24.9539C4.90333 25.4484 4.79243 26.5701 5.6209 27.2168C5.64687 27.2372 5.67759 27.2507 5.71018 27.256C5.74277 27.2613 5.77618 27.2582 5.80728 27.2471C6.03539 27.1658 6.59668 26.8795 7.08275 25.9428C7.09484 25.9196 7.10221 25.8943 7.10442 25.8683C7.10664 25.8423 7.10367 25.8162 7.09568 25.7913C7.08768 25.7665 7.07483 25.7435 7.05786 25.7236C7.04089 25.7038 7.02015 25.6876 6.99685 25.6758L5.28068 24.8177C5.25375 24.8042 5.22407 24.7971 5.19394 24.7969C5.16382 24.7968 5.13405 24.8035 5.10695 24.8167C5.07985 24.8298 5.05615 24.849 5.03767 24.8728C5.01919 24.8966 5.00644 24.9244 5.0004 24.9539Z" fill="#1797E5" stroke="#122A44" stroke-width="0.5" stroke-miterlimit="10"/>
<path d="M23.8296 7.36057C23.8296 7.36057 23.7954 8.5135 23.1016 8.83189L23.4765 8.8712C23.4765 8.8712 23.922 8.32422 23.922 7.40644L23.8296 7.36057ZM24.8393 7.03928C24.8393 7.03928 25.7112 8.41595 25.2065 9.79262L25.4817 9.93045C25.4817 9.93045 26.0784 8.55378 25.0228 6.99414L24.8393 7.03928Z" fill="#7DA4B7"/>
<path d="M2.77758 15.5385C2.77758 15.5385 0.494293 17.774 1.53996 19.0424C1.53996 19.0424 1.83723 19.4809 2.64557 18.9657C2.6446 18.9657 3.35514 15.432 2.77758 15.5385Z" fill="#1797E5" stroke="#122A44" stroke-width="0.5" stroke-miterlimit="10"/>
<path d="M8.19531 28.7493C8.19531 28.7493 8.51855 29.9068 9.31839 30.2708C9.31839 30.2708 10.6164 30.548 9.81417 28.2275L8.19531 28.7493Z" fill="#122A44"/>
<path d="M3.63788 11.5822C3.63788 11.5822 1.98578 12.2707 2.16924 13.5098C2.16924 13.5098 1.84819 13.4639 1.98578 12.9133C1.98578 12.9133 2.07751 12.1331 3.54615 11.3988L3.91332 11.2153L3.68375 11.5822H3.63788ZM2.49054 16.2631C2.49054 16.2631 0.884544 18.007 1.80232 18.9247C1.80232 18.9247 1.75646 17.1809 2.76597 16.5386L2.49054 16.2631ZM3.36245 21.5405C3.36245 21.5405 2.7201 22.6878 3.31659 23.7893C3.31659 23.7893 3.59202 23.6973 3.63788 23.6056C3.63788 23.6056 3.59202 23.8352 3.22534 23.9728C3.22534 23.9728 2.2617 23.0091 3.17948 21.449L3.36245 21.5405ZM5.33585 25.5331C5.33585 25.5331 5.38171 26.5426 5.8406 26.8639C5.8406 26.8639 5.88647 26.8639 5.9782 26.8181C5.9782 26.8181 5.93233 26.9557 5.74888 27.0015C5.74888 27.0015 5.06042 26.4968 5.19801 25.5331H5.33585Z" fill="#5DC5F9"/>
<path d="M27.6384 20.3475C27.6384 20.3475 29.887 16.1714 27.3174 12.6379L26.5831 11.2612C26.5831 11.2612 26.4913 11.0317 26.2618 11.0775C26.2618 11.0775 25.6194 9.97629 24.8392 9.79259C24.8392 9.79259 24.2425 8.87481 23.1405 8.82894C23.1405 8.82894 22.8651 7.54279 21.3967 7.77357C21.3967 7.77357 21.0754 6.48863 19.7446 7.03925C19.7446 7.03925 19.5153 6.35079 18.6892 6.58036C18.6892 6.58036 18.6434 5.34128 15.4768 6.30492C15.4768 6.30492 5.97742 4.97412 4.09551 10.7104C4.09551 10.7104 4.00984 10.9249 4.25251 10.9807C4.25506 10.9812 4.25743 10.9824 4.25938 10.9841C4.26134 10.9858 4.2628 10.988 4.26364 10.9905C4.26448 10.9929 4.26465 10.9955 4.26415 10.9981C4.26364 11.0006 4.26248 11.003 4.26077 11.005C3.94398 11.3713 3.75684 11.8319 3.72835 12.3154C3.72835 12.3154 2.12211 13.4169 2.90327 15.2066C2.90327 15.2066 2.35265 16.4927 2.995 17.3634C2.995 17.3634 2.07722 18.5566 3.08697 19.7037C3.08697 19.7037 2.44438 21.0345 3.82105 21.7689C3.82105 21.7689 3.27043 23.1455 4.5095 23.6044C4.5095 23.6044 4.46364 25.2565 5.9779 25.7157C5.9779 25.7157 6.02377 26.6334 6.98765 26.7713C6.98765 26.7713 6.52876 28.0574 8.18062 28.5151C8.18062 28.5151 8.96081 30.0752 10.1082 29.2951C10.1082 29.2951 10.8422 30.3048 12.5402 30.0752C12.5402 30.0752 13.5958 30.993 15.2938 30.5341C15.2938 30.5341 16.4409 31.085 17.9095 30.2589C17.9095 30.2589 18.7814 30.6715 19.5616 29.9835C19.5616 29.9835 20.8924 30.0294 21.3513 29.5246C21.3513 29.5246 22.1315 29.8 22.7739 29.3409C22.7739 29.3409 24.2423 29.0199 24.6553 29.6622C24.6553 29.6622 25.2061 30.7178 24.1505 31.8649C24.1505 31.8649 26.7204 32.4158 26.9041 29.2033C26.9041 29.2033 27.0417 27.4595 24.9766 27.0006L27.6384 20.3475Z" fill="url(#paint2_linear_4767_69200)" stroke="#122A44" stroke-width="0.5" stroke-miterlimit="10"/>
<path d="M16.3952 29.4336C22.3258 29.4336 27.1336 24.7081 27.1336 18.8789C27.1336 13.0497 22.3258 8.32422 16.3952 8.32422C10.4645 8.32422 5.65674 13.0497 5.65674 18.8789C5.65674 24.7081 10.4645 29.4336 16.3952 29.4336Z" fill="url(#paint3_linear_4767_69200)"/>
<path d="M18.51 12.4312L19.2405 13.2805C19.2405 13.2805 19.7911 11.3532 18.5062 18.925L17.7718 21.0819L8.61684 20.2325C8.61684 20.2325 7.37777 20.003 7.53769 18.6091L18.51 12.4312Z" fill="url(#paint4_linear_4767_69200)" stroke="#122A44" stroke-width="0.5" stroke-linejoin="round"/>
<path d="M8.18089 13.6932L8.63978 10.8481L18.5521 12.1331L18.1391 15.0701L17.405 19.8427L7.49268 18.6037L8.18089 13.6932Z" fill="#C91111" stroke="#122A44" stroke-width="0.5" stroke-miterlimit="10"/>
<path d="M8.08925 15.9419L7.95166 16.8138L10.9804 17.1807L15.5693 18.1905V17.6857L17.8038 18.1247L17.9099 17.1807L8.08925 15.9419Z" fill="#750606"/>
<path d="M16.895 12.5911L10.2002 11.6284C9.86311 12.5911 8.91524 12.6838 8.91524 12.6838L8.18311 17.213C9.24212 17.5018 9.28362 18.5579 9.28362 18.5579L16.0299 19.4757C16.3669 18.4164 17.2675 18.6037 17.2675 18.6037L17.9559 13.9229C16.704 13.4895 16.895 12.5911 16.895 12.5911ZM17.1289 18.42C17.1289 18.42 16.2111 18.2824 15.8898 19.292L9.46586 18.42C9.46586 18.42 9.42073 17.4096 8.41049 17.1351L9.00819 13.6933L9.14602 12.8682C9.14602 12.8682 10.0638 12.7306 10.3849 11.8128L16.7186 12.7306C16.7186 12.7306 16.5332 13.6482 17.7261 14.0607L17.1289 18.42Z" fill="#3D0000"/>
<path d="M15.2482 14.7949L18.2769 15.2997L19.8371 17.5483L18.4604 18.3284L18.0474 17.4107L15.0645 16.86L15.2482 14.7949Z" fill="url(#paint5_linear_4767_69200)" stroke="#4F1A00" stroke-width="0.5" stroke-miterlimit="10"/>
<path d="M7.69926 13.854L11.0032 14.2665L10.6827 16.3322L7.60801 15.965L7.51604 16.4239C7.51604 16.4239 7.46969 14.3129 7.69926 13.854Z" fill="url(#paint6_linear_4767_69200)" stroke="#4F1A00" stroke-width="0.5" stroke-linejoin="round"/>
<path d="M10.7508 13.2344L10.2461 17.1351L15.1104 17.8235L15.6613 13.877L10.7508 13.2344Z" fill="#F7AE2D" stroke="#4F1A00" stroke-width="0.5" stroke-miterlimit="10"/>
<path opacity="0.63" d="M15.3398 14.5653L15.2022 15.4833L13.596 17.2272L13.4123 16.5615L15.3398 14.5653ZM12.9534 13.7393L10.5845 16.2519L10.5022 16.9403L10.6131 16.9517L13.6877 13.8312L12.9534 13.7393ZM13.9173 13.8771L10.7507 16.9976L11.1179 16.7683L14.0549 13.8771H13.9173Z" fill="white"/>
<path d="M12.7242 15.5288L12.2195 16.5383L13.3843 16.6514L13.1822 15.5747C13.1822 15.5747 13.5493 15.5288 13.5947 15.1158C13.5947 15.1158 13.6864 14.5191 13.0899 14.4274C13.0899 14.4274 12.5852 14.3815 12.4474 14.8862C12.4488 14.8855 12.3571 15.3451 12.7242 15.5288Z" fill="#4F1A00"/>
<path d="M13.1821 14.3359C13.1821 14.3359 13.7786 14.4277 13.7786 15.0242C13.7786 15.0242 13.8245 15.5291 13.4115 15.7126L13.5044 16.9971H13.6879L13.5044 15.8039C13.5044 15.8039 14.0172 15.5277 13.8359 14.8657C13.7995 14.7292 13.7218 14.6073 13.6134 14.5167C13.4905 14.4154 13.3405 14.3526 13.1821 14.3359Z" fill="#4F1A00"/>
<path d="M13.0913 14.3818C13.0913 14.3818 13.6431 14.4733 13.6431 15.0703C13.6431 15.0703 13.6431 15.4372 13.2306 15.6209L13.4141 17.0434H13.5978L13.3682 15.6668C13.3682 15.6668 13.6674 15.5496 13.7213 15.1603C13.7343 15.0702 13.7292 14.9784 13.7062 14.8903C13.6832 14.8022 13.6428 14.7196 13.5873 14.6474C13.5319 14.5751 13.4626 14.5147 13.3834 14.4697C13.3043 14.4247 13.2169 14.396 13.1265 14.3852L13.0913 14.3818Z" fill="white"/>
<path d="M16.9461 18.7873C16.9461 18.7873 16.4003 18.7249 16.0535 19.674L17.1295 19.5675L16.9461 18.7873ZM17.1754 12.1791C17.1754 12.1791 16.8082 13.3723 18.0932 13.7854L18.3227 12.3167L17.1754 12.1791ZM8.82341 11.0776L8.59384 12.4545C8.59384 12.4545 9.74119 12.4084 9.87878 11.2155L8.82341 11.0776ZM7.85976 17.3647L7.72192 18.4201L9.05273 18.6038C9.05273 18.6038 8.86927 17.5941 7.85976 17.3647Z" fill="#3D0000"/>
<path d="M15.9365 6.80956C15.9365 6.80956 16.9001 6.02962 18.3687 6.80956L18.2782 6.99326C18.2782 6.99326 19.196 6.85567 19.8384 8.18647C19.8384 8.18647 20.1138 6.35067 21.1692 8.18647C21.1692 8.18647 22.5461 8.00277 22.7295 8.96642C22.7295 8.96642 22.5 9.42555 22.7754 9.7466C22.7754 9.7466 22.5919 9.05839 23.0508 9.10425C23.0508 9.10425 23.8308 9.15012 24.3816 9.88444L24.5651 10.022C24.5651 10.022 25.1618 10.1138 25.9418 11.2152C26.1897 11.5392 26.4135 11.8809 26.6113 12.2376C26.723 12.4418 26.845 12.64 26.977 12.8317C27.4255 13.483 28.4114 15.1446 28.0528 16.7219C28.0528 16.7219 27.9152 19.2001 27.3645 19.8885C27.3645 19.8885 28.1896 18.4658 28.3282 16.7219C28.3282 16.7219 28.5116 14.4733 27.0891 12.6836L26.3089 11.2152L26.0337 11.0774C26.0337 11.0774 25.437 10.1138 24.5634 9.88444V9.79247C24.5634 9.79247 24.0586 9.01252 22.9572 8.96739L22.9113 8.78393C22.9113 8.78393 22.5902 7.68245 21.2126 8.00374C21.2126 8.00374 21.075 6.7188 19.7442 7.26966C19.7442 7.26966 18.9191 6.81053 18.4134 6.9025C18.4134 6.9025 18.964 5.93862 16.853 6.21405C16.853 6.21405 16.0068 6.35965 15.7646 6.47006L15.9365 6.80956Z" fill="#5DC5F9"/>
<path d="M5.24414 9.07153C5.24414 9.07153 8.54713 5.20336 12.4947 6.67224C15.4897 7.78658 15.2941 8.78348 15.2941 8.78348C15.2941 8.78348 13.262 9.10186 12.3187 10.3897C12.3187 10.3897 10.479 8.38064 8.12052 10.0806C8.12052 10.081 8.07489 7.39322 5.24414 9.07153Z" fill="url(#paint7_linear_4767_69200)"/>
<path d="M18.8275 29.7551C18.8275 29.7551 18.5254 30.1433 17.6898 29.6505C17.6898 29.6505 16.9461 30.2601 15.2481 29.8932C15.2481 29.8932 14.1007 30.6272 12.7243 29.4806C12.7243 29.4806 10.8426 29.8932 10.3838 28.3791C10.3838 28.3791 9.23665 29.4806 8.68506 27.9202C8.68506 27.9202 7.53771 28.0581 7.3989 26.5894C7.3989 26.5894 7.67409 26.1305 7.3989 25.9012C7.3989 25.9012 6.48088 26.8649 6.48088 25.2586C6.48088 25.2586 4.0947 24.5243 5.6558 23.3772C5.6558 23.3772 3.40697 23.3772 4.46259 21.5875C4.46259 21.5875 2.90222 20.8991 3.72827 19.5224C3.72827 19.5224 2.76462 19.0635 3.26938 17.5031L3.59067 17.3655C3.59067 17.3655 2.71876 16.356 3.45284 15.3921L3.49894 15.2087C3.49894 15.2087 2.76462 13.1894 3.95783 13.0059L4.41673 12.9601C4.41673 12.9601 4.00419 11.8586 4.82927 11.1243C4.82927 11.1243 4.4621 9.33458 7.9039 7.49902H7.26301C7.26301 7.49902 4.87683 8.55464 4.2801 10.895L4.4638 11.1243C4.4638 11.1243 4.07553 11.3577 3.94158 12.2537C3.91876 12.4058 3.84451 12.5509 3.71735 12.6383C3.31646 12.9135 2.49162 13.8182 3.133 15.2079C3.133 15.2079 2.58214 16.4012 3.22473 17.3648C3.22473 17.3648 2.26108 18.6039 3.36232 19.6592C3.36232 19.6592 2.53724 20.8983 4.09664 21.6785C4.09664 21.6785 3.40819 23.0552 4.73899 23.4682C4.73899 23.4682 4.55553 25.1669 6.16177 25.5333C6.16177 25.5333 6.1159 26.4511 7.12541 26.5887L7.21714 26.8183C7.21714 26.8183 6.71239 27.9195 8.31863 28.3325C8.31863 28.3325 9.0527 29.9388 10.1542 29.021C10.1542 29.021 10.7965 30.1222 12.5404 29.8461L12.7699 29.9837C12.7699 29.9837 13.8253 30.7639 15.2937 30.305C15.2937 30.305 16.4408 30.8556 17.9095 30.0295C17.9095 30.0295 18.6896 30.4421 19.3779 29.8461L18.8275 29.7551Z" fill="#5DC5F9"/>
<path d="M12.8158 23.2385C12.8158 23.2385 10.246 22.5503 10.5673 20.3022C10.5673 20.3022 9.78707 19.2466 10.1084 18.191C10.1084 18.191 10.2918 17.4567 10.5209 17.5025C10.5209 17.5025 11.2091 16.5848 11.8517 16.6775C11.8517 16.6775 11.8059 17.1363 11.9893 17.2283C11.9893 17.2283 12.7695 16.081 13.5038 16.1727C13.5038 16.1727 13.1825 17.0446 13.5038 17.4576C13.5038 17.4576 14.1003 16.4481 14.7429 16.4481C14.7429 16.4481 14.6509 17.0446 14.7888 17.32C14.7888 17.32 15.5228 17.0905 15.5228 19.4313C15.5228 19.4313 16.0737 19.6147 16.3479 20.1195L16.2562 22.6894L12.8158 23.2385Z" fill="#1797E5" stroke="#122A44" stroke-width="0.5" stroke-miterlimit="10"/>
<path d="M14.1544 17.7575C14.1544 17.7575 15.7075 21.2651 13.6877 22.3663L15.8446 22.0443L15.9363 19.8875C15.9363 19.8875 15.6573 19.6426 15.3149 19.5815C15.3149 19.5815 15.4316 18.1436 14.9727 17.5928L14.1544 17.7575Z" fill="url(#paint8_linear_4767_69200)"/>
<path d="M10.6131 17.6857C10.6131 17.6857 9.97051 18.9246 10.9344 20.2556C10.9344 20.2556 10.6131 22.2288 12.9534 22.8714L12.3569 22.9179C12.3569 22.9179 10.3835 22.0443 10.7507 20.2556C10.7507 20.2556 9.69533 19.1083 10.5672 17.5938L10.6131 17.6857ZM21.724 29.1517L22.8199 28.8828C22.8199 28.8828 23.9214 28.6076 24.7933 29.0206C24.7933 29.0206 25.8946 29.7088 24.9309 31.6822H24.5633C24.5633 31.6822 25.068 31.1316 25.0222 30.2597C25.0222 30.2597 25.0222 29.8472 24.8387 29.5254C24.8387 29.5254 24.5174 28.8828 23.049 29.0665L22.6818 29.1582C22.5121 29.2819 22.3152 29.3631 22.1075 29.3951C21.8999 29.427 21.6877 29.4087 21.4886 29.3417L21.724 29.1517Z" fill="#5DC5F9"/>
<path d="M19.1033 17.5939C19.1033 17.5939 17.4971 17.5022 17.1758 19.4756L16.2121 19.659C16.2121 19.659 15.7074 20.3016 16.1204 21.0357C16.1204 21.0357 15.9367 21.6324 16.1663 21.9996C16.1663 21.9996 12.4032 21.7242 11.5771 24.5234C11.5771 24.5234 11.0724 29.4338 18.5983 29.709C18.5983 29.709 23.0957 29.9386 26.4458 25.7624L27.1799 25.5331L28.1896 27.5063C28.1896 27.5063 28.5565 24.7071 30.6217 23.8351C30.6217 23.8351 28.3272 21.5866 29.4746 18.7876L27.1799 20.1643C27.1799 20.1643 26.7207 18.6956 26.3077 18.6956C26.3077 18.6956 26.2619 18.3743 25.9864 18.2831C25.9864 18.2831 25.7112 17.7325 26.0325 16.8147C26.0325 16.8147 25.1145 16.3558 23.8757 17.7783C23.8757 17.7783 23.4168 17.5946 23.2789 18.0996L22.7283 17.9159C22.7283 17.9159 22.5449 17.2736 22.0857 17.3194C22.0857 17.3194 21.9023 17.1357 22.407 15.5756C22.407 15.5756 21.0762 15.3919 20.2043 16.8147C20.2043 16.8147 19.6996 16.631 19.562 17.1357C19.562 17.135 19.2407 17.1809 19.1033 17.5939Z" fill="#1797E5" stroke="#122A44" stroke-width="0.5" stroke-linejoin="round"/>
<path d="M18.8275 20.6225L16.8083 20.21L17.5042 20.0365C17.5285 20.0337 17.5513 20.0236 17.5697 20.0077C17.5882 19.9917 17.6014 19.9705 17.6076 19.9469C17.6986 19.5968 18.1362 18.2019 19.3791 17.9614L19.2415 17.8238C19.2415 17.8238 17.8648 17.778 17.406 19.7052L16.3503 19.9348V20.7145L18.5531 21.2651L18.8275 20.6225Z" fill="url(#paint9_linear_4767_69200)"/>
<path d="M15.6613 28.8829C15.6613 28.8829 13.8713 26.1755 15.9365 26.3592C15.9365 26.3592 16.3953 26.3592 18.1392 26.8639C18.1392 26.8639 18.69 26.9557 18.0474 26.2213C18.0474 26.2213 17.1297 25.4411 16.4412 25.2118C16.4412 25.2118 15.8447 24.4775 17.2214 24.7993L18.0016 24.9369C18.0016 24.9369 18.7359 25.1206 18.9194 24.2945C18.9194 24.2945 19.057 23.4694 17.9098 23.5602C17.9098 23.5602 17.772 23.5602 17.5886 23.6978C17.5886 23.6978 18.2311 22.78 19.3324 23.3767C19.4968 23.4478 19.6511 23.5404 19.7913 23.6519L20.3409 23.1467L20.8459 23.055L20.4334 21.7242C20.4334 21.7242 19.9284 21.8618 20.2497 21.357L21.397 21.1277C21.397 21.1277 22.1313 20.8981 22.4065 20.6227C22.4065 20.6227 23.6927 19.5673 25.2518 19.6132C25.2518 19.6132 26.1696 19.5673 26.2155 18.7881C26.2155 18.7881 26.5827 19.1094 26.9498 20.1648C26.9498 20.1648 26.9957 20.3943 27.225 20.3943L28.6645 19.5176L28.9477 19.9561C28.9477 19.9561 28.4194 21.4487 29.8878 23.6514C29.8878 23.6514 28.557 25.1201 28.0523 26.6344L27.3895 25.1436L26.1708 25.579C26.1708 25.579 23.3707 30.7187 15.6613 28.8829Z" fill="url(#paint10_radial_4767_69200)"/>
<path d="M16.7625 8.14074C16.7625 8.14074 16.6708 6.71796 16.0743 7.45228C16.0743 7.45228 14.9728 5.70845 16.7625 3.32203C16.7625 3.32203 17.5876 2.90949 17.3131 2.12906C17.3131 2.12906 17.451 1.67017 18.4146 1.4406C18.4146 1.4406 17.864 0.247394 16.2578 0.660419C16.2578 0.660419 15.8452 0.0180699 15.0187 0.614554C15.0187 0.614554 7.26319 -1.03755 3.95923 8.04877C3.95923 8.04877 7.17146 6.94753 8.41053 7.54401C8.41053 7.54401 8.96115 7.77358 8.7777 8.73722C8.7777 8.73722 11.2097 7.40642 12.403 9.14976C12.403 9.14976 13.8714 7.58939 14.8811 7.95655C14.8811 7.95655 15.2936 8.14025 15.5235 8.73674" fill="#1797E5"/>
<path d="M16.7625 8.14074C16.7625 8.14074 16.6708 6.71796 16.0743 7.45228C16.0743 7.45228 14.9728 5.70845 16.7625 3.32203C16.7625 3.32203 17.5876 2.90949 17.3131 2.12906C17.3131 2.12906 17.451 1.67017 18.4146 1.4406C18.4146 1.4406 17.864 0.247394 16.2578 0.660419C16.2578 0.660419 15.8452 0.0180699 15.0187 0.614554C15.0187 0.614554 7.26319 -1.03755 3.95923 8.04877C3.95923 8.04877 7.17146 6.94753 8.41053 7.54401C8.41053 7.54401 8.96115 7.77358 8.7777 8.73722C8.7777 8.73722 11.2097 7.40642 12.403 9.14976C12.403 9.14976 13.8714 7.58939 14.8811 7.95655C14.8811 7.95655 15.2936 8.14025 15.5235 8.73674" stroke="#122A44" stroke-width="0.5" stroke-miterlimit="10"/>
<path d="M17.2673 10.6184C17.2673 10.6184 15.5686 8.55354 13.642 9.97608C13.642 9.97608 12.3801 9.95303 11.8293 11.1004C11.8293 11.1004 11.7375 11.238 11.7375 11.3297C11.7375 11.3297 12.4719 11.5134 12.4719 12.4312C12.4719 12.4312 12.6553 12.4312 13.1142 11.238C13.1142 11.238 13.8485 11.3758 13.9393 12.3853C13.9393 12.3853 14.123 12.4312 14.536 12.1099C14.536 12.1099 14.6736 11.3297 14.9029 11.238C14.9029 11.238 15.4997 11.238 15.6373 12.2477C15.6373 12.2477 15.729 12.4312 16.555 11.6969L17.7941 11.8347C17.7941 11.8347 18.0247 11.4675 17.2673 10.6184Z" fill="#1797E5" stroke="#122A44" stroke-width="0.5" stroke-miterlimit="10"/>
<path d="M18.8274 20.3474C18.8274 20.3474 18.6906 21.0356 18.5061 21.0815L16.441 20.5767C16.441 20.5767 16.3952 20.2095 16.5789 19.9802L17.4503 19.8557C17.4758 19.8522 17.4993 19.8401 17.517 19.8214C17.5347 19.8027 17.5454 19.7785 17.5474 19.7528C17.5748 19.3942 17.7755 18.0736 19.241 17.9151L19.1439 17.8234C19.1439 17.8234 17.7269 17.6858 17.4059 19.4296C17.4059 19.4296 17.36 19.6589 17.1763 19.7048L16.3512 19.8426C16.3512 19.8426 16.0299 20.3015 16.2595 20.8063L18.5081 21.4027C18.5081 21.4027 18.9192 21.4945 18.8274 20.3474ZM20.663 20.8521C20.663 20.8521 20.2505 21.2647 20.2505 21.6323C20.2505 21.6323 23.0499 21.5403 24.5183 22.4123L20.0207 21.8158C20.0207 21.8158 19.6994 21.4945 20.663 20.8521ZM17.4508 24.1102C17.4508 24.1102 17.6109 23.5489 18.1567 23.5882C18.248 23.5947 18.3335 23.6357 18.3957 23.7028C18.503 23.818 18.6442 24.0508 18.6442 24.4774C18.644 24.4774 18.3686 23.5137 17.4508 24.1102ZM14.9268 23.2844C14.9268 23.2844 15.0872 22.7238 15.6329 22.7622C15.7243 22.7686 15.8097 22.8096 15.872 22.8767C15.9792 22.992 16.1205 23.2247 16.1205 23.6513C16.12 23.6513 15.8445 22.6877 14.9268 23.2844Z" fill="#5DC5F9"/>
<path d="M17.5196 24.1332C17.5196 24.1332 18.2539 23.4906 18.4376 24.4545M15.075 23.3547C15.075 23.3547 15.6872 22.6995 15.944 23.5639M20.6632 20.8066C20.6632 20.8066 19.8764 21.183 19.8978 21.6698C19.9008 21.7343 19.9265 21.7956 19.9703 21.843C20.014 21.8905 20.0731 21.921 20.1371 21.9292L24.518 22.5053" stroke="#122A44" stroke-width="0.5" stroke-miterlimit="10" stroke-linecap="round"/>
<path d="M20.5636 21.9849C20.5636 21.9849 20.3321 22.9784 21.4027 23.4618C21.7907 23.6351 22.2214 23.6897 22.6404 23.6188C23.1541 23.5333 23.8421 23.2628 24.0444 22.4421L20.5636 21.9849Z" fill="#F3F5F7" stroke="#122A44" stroke-width="0.5" stroke-linejoin="round"/>
<path d="M18.9194 20.3477C18.9194 20.3477 18.9922 20.9461 18.841 21.2958C18.8043 21.3768 18.7398 21.4419 18.6591 21.4795C18.5785 21.517 18.4871 21.5244 18.4015 21.5003L16.0859 20.8798" stroke="#122A44" stroke-width="0.5" stroke-linecap="round" stroke-linejoin="round"/>
<path d="M18.231 21.4945C18.231 21.4945 18.5979 22.0453 18.139 22.5501C18.139 22.5501 17.2213 22.0912 15.9822 22.0912L16.1668 20.9438L18.231 21.4945Z" fill="#F3F5F7" stroke="#122A44" stroke-width="0.5" stroke-linecap="round" stroke-linejoin="round"/>
<path d="M18.6907 23.0092C18.6907 23.0092 18.1981 22.5056 17.572 22.3438" stroke="#122A44" stroke-width="0.5" stroke-linecap="round" stroke-linejoin="round"/>
<path d="M27.2439 12.5003C27.2439 12.5003 25.8252 11.9737 26.0094 14.0835C26.0094 14.0835 26.1701 12.1331 27.4754 12.8653L27.2439 12.5003Z" fill="#122A44"/>
<path d="M14.6055 1.25732C14.6055 1.25732 14.4908 1.87686 14.7203 2.24281C14.7203 2.24281 11.5998 3.29843 9.2134 7.42844C9.2134 7.42844 8.66278 5.77658 5.26685 7.10738C5.26685 7.10835 6.64351 1.37186 14.6055 1.25732Z" fill="url(#paint11_linear_4767_69200)" stroke="#122A44" stroke-width="0.5" stroke-linejoin="round"/>
<path d="M14.8122 2.56494L15.2247 2.97748C15.2247 2.97748 12.7939 5.54785 12.2423 7.93427C12.2423 7.93427 11.2786 7.24581 9.71851 7.79643C9.71826 7.79643 11.3245 4.17118 14.8122 2.56494Z" fill="url(#paint12_linear_4767_69200)" stroke="#122A44" stroke-width="0.5" stroke-linejoin="round"/>
<path d="M15.5463 3.34521C15.5463 3.34521 13.9859 5.36448 15.5463 7.79652C15.5463 7.79652 14.3072 6.69528 12.793 7.98022C12.7937 7.98022 13.7107 4.67602 15.5463 3.34521Z" fill="url(#paint13_linear_4767_69200)" stroke="#122A44" stroke-width="0.5" stroke-linejoin="round"/>
<path d="M22.7677 22.2744C22.7677 22.2744 22.2476 23.1631 23.1994 23.453C23.1994 23.453 23.9046 23.0058 23.982 22.4338L22.7677 22.2744ZM17.3653 21.2637C17.3653 21.2637 16.8543 21.9075 17.2683 22.1829L18.1402 22.4122C18.1402 22.4122 18.52 21.7886 18.0089 21.435L17.3653 21.2637Z" fill="#122A44"/>
<path d="M22.7283 23.2843C22.8551 23.2843 22.9579 23.1815 22.9579 23.0548C22.9579 22.928 22.8551 22.8252 22.7283 22.8252C22.6016 22.8252 22.4988 22.928 22.4988 23.0548C22.4988 23.1815 22.6016 23.2843 22.7283 23.2843Z" fill="white"/>
<path d="M17.1754 21.9538C17.3022 21.9538 17.4049 21.851 17.4049 21.7242C17.4049 21.5974 17.3022 21.4946 17.1754 21.4946C17.0486 21.4946 16.9458 21.5974 16.9458 21.7242C16.9458 21.851 17.0486 21.9538 17.1754 21.9538Z" fill="white"/>
<path d="M23.0037 15.2536C23.0037 15.2536 23.0495 14.703 23.4626 14.6571C23.4626 14.6571 24.0132 14.6571 24.059 15.1619C24.059 15.1619 23.9214 14.3368 24.5179 14.1982" stroke="black" stroke-width="0.5" stroke-linecap="round" stroke-linejoin="round"/>
<path d="M28.549 16.5731C28.549 16.5731 27.914 15.988 27.0879 17.7777C27.0879 17.7777 28.1673 16.6539 28.5454 16.7568L28.549 16.5731ZM28.4388 15.2605C28.4388 15.2605 27.638 14.1063 27.1338 15.7126C27.1338 15.7126 27.382 15.2782 27.649 15.0981C27.6995 15.064 27.7597 15.0472 27.8205 15.0503C27.8814 15.0533 27.9396 15.076 27.9865 15.1149C28.1404 15.2445 28.3721 15.558 28.5464 16.3129L28.4388 15.2605ZM26.2136 11.0004C26.2136 11.0004 25.1601 11.1703 25.527 12.2249C25.527 12.2249 25.4581 11.212 26.5948 11.2824L26.2136 11.0004ZM24.9599 9.82878C24.9599 9.82878 24.2603 9.88726 24.7282 10.9805C24.7456 11.0213 24.7482 11.067 24.7355 11.1095C24.7229 11.1521 24.6957 11.1888 24.6588 11.2135C24.6209 11.2388 24.5751 11.2497 24.5299 11.2441C24.4846 11.2385 24.4429 11.2169 24.4122 11.1831C24.3122 11.073 24.121 10.8512 23.9405 10.7274C23.9206 10.7136 23.8977 10.7048 23.8736 10.7018C23.8496 10.6989 23.8252 10.7018 23.8026 10.7103C23.78 10.7189 23.7597 10.7328 23.7437 10.7509C23.7276 10.769 23.7162 10.7908 23.7104 10.8143C23.6692 10.99 23.6675 11.368 23.8296 12.179C23.8296 12.179 23.2277 11.2761 23.4898 10.6284C23.5842 10.3944 23.8689 10.2933 24.0829 10.427C24.1622 10.4788 24.2321 10.5436 24.2899 10.6187C24.2899 10.6187 23.9793 9.4058 24.9599 9.82878ZM23.4228 8.86077C23.4228 8.86077 22.3308 8.94036 22.7732 9.72904C22.7888 9.75626 22.8086 9.78084 22.8319 9.80184L23.0125 9.96686C23.0368 9.99655 23.0513 10.033 23.0541 10.0713C23.0569 10.1096 23.0478 10.1478 23.028 10.1807C23.0085 10.2133 22.9794 10.2392 22.9447 10.2548C22.9099 10.2704 22.8713 10.2749 22.8339 10.2678C22.6033 10.2231 22.0862 10.0224 21.7775 10.509C21.7543 10.5447 21.7393 10.5852 21.7336 10.6275C21.7279 10.6697 21.7316 10.7127 21.7445 10.7534C21.7883 10.8869 21.8765 11.0014 21.9945 11.0778C21.9945 11.0778 21.2604 10.7106 21.811 10.16C21.811 10.16 21.9945 9.9307 22.4992 9.9307C22.4992 9.9307 21.8166 8.7307 23.1217 8.7569L23.4228 8.86077ZM17.8172 7.31447C17.8172 7.31447 18.8699 6.30545 19.6459 7.54695C19.679 7.60023 19.7056 7.65726 19.7253 7.71682L19.8362 8.04976C19.8362 8.04976 19.2856 8.0039 19.0111 8.50865L18.8276 8.32519C18.8276 8.32519 18.9194 8.87581 19.6996 9.656C19.6996 9.656 19.7454 9.28884 19.2407 8.73822C19.2407 8.73822 19.7913 7.91314 20.388 8.46279C20.388 8.46279 20.6632 8.60062 21.168 9.42667C21.168 9.42667 21.0304 8.64649 20.1584 8.09563C20.1584 8.09563 19.883 6.90266 19.0111 6.67309C19.0111 6.67212 18.185 6.48939 17.8172 7.31447ZM15.9338 0.408065C15.9338 0.408065 15.5698 0.706307 15.8906 1.71606C15.8906 1.71606 15.4781 1.07347 15.6154 0.385254L15.9338 0.408065ZM16.1202 2.03711C16.1202 2.03711 16.7329 2.68092 17.3672 2.38195L17.3318 2.68723C17.3318 2.68723 16.3495 2.67946 16.1202 2.03711Z" fill="#122A44"/>
<path d="M14.8809 1.30311C14.8809 1.30311 15.0643 0.798353 15.6611 0.478027L14.9726 0.523892C14.9726 0.523892 14.8352 0.70638 14.8809 1.30311ZM15.8448 2.63391C15.8448 2.63391 16.166 3.27626 17.1756 2.54218L17.0838 3.18453C17.0838 3.18453 16.0743 3.36823 15.8448 2.63391Z" fill="#122A44"/>
<path d="M18.231 1.39492C18.231 1.39492 17.313 1.67035 17.1754 2.26708C17.1754 2.26708 15.8905 1.85454 16.1659 0.752571C16.1669 0.752328 17.817 0.339546 18.231 1.39492Z" fill="url(#paint14_linear_4767_69200)"/>
<path d="M22.2693 4.51518C22.2693 4.51518 22.8517 5.16578 22.6818 5.75425C22.6818 5.75425 23.968 6.02968 24.242 5.1119C24.2424 5.1119 23.1424 3.7925 22.2693 4.51518Z" fill="url(#paint15_linear_4767_69200)"/>
<path d="M25.8368 16.9349C25.8368 16.9349 25.4813 17.8532 25.8028 18.3742C25.8028 18.3742 24.5167 18.7414 23.9214 18.007C23.9214 18.007 24.9309 16.5845 25.8368 16.9349Z" fill="url(#paint16_linear_4767_69200)"/>
<path d="M22.1777 15.8041C22.1777 15.8041 21.7188 16.6761 21.9023 17.5028C21.9023 17.5028 20.7511 17.8397 20.2417 17.0279C20.2417 17.0272 21.168 15.3911 22.1777 15.8041Z" fill="url(#paint17_linear_4767_69200)"/>
<path d="M14.6931 16.5C14.6931 16.5 14.5046 17.0443 14.7902 17.5481C14.7902 17.5481 14.1835 17.9779 13.6887 17.5481C13.6878 17.5481 13.9632 16.722 14.6931 16.5Z" fill="url(#paint18_linear_4767_69200)"/>
<path d="M13.2994 16.3506C13.2994 16.3506 13.0502 16.8697 13.2751 17.4026C13.2751 17.4026 12.6235 17.7605 12.1809 17.2771C12.1809 17.2771 12.5488 16.4875 13.2994 16.3506Z" fill="url(#paint19_linear_4767_69200)"/>
<path d="M11.6458 12.9819C11.6458 12.9819 11.9069 12.5109 12.4709 12.3855C12.4709 12.3855 12.3889 11.5322 11.7385 11.4517C11.7395 11.4517 11.3226 12.2906 11.6458 12.9819Z" fill="url(#paint20_linear_4767_69200)" stroke="#122A44" stroke-width="0.5" stroke-linejoin="round"/>
<path d="M13.1009 12.8085C13.1009 12.8085 13.3293 12.4652 13.8942 12.3397C13.8942 12.3397 13.7794 11.3989 13.1829 11.3071C13.182 11.3071 12.724 12.1332 13.1009 12.8085Z" fill="url(#paint21_linear_4767_69200)" stroke="#122A44" stroke-width="0.5" stroke-linejoin="round"/>
<path d="M14.7532 12.8085C14.7532 12.8085 15.0315 12.3045 15.5964 12.1788C15.5964 12.1788 15.5314 11.3875 14.881 11.3071C14.8808 11.3071 14.4299 12.1172 14.7532 12.8085Z" fill="url(#paint22_linear_4767_69200)" stroke="#122A44" stroke-width="0.5" stroke-linejoin="round"/>
<path d="M11.8063 16.814C11.8063 16.814 11.4896 17.2365 11.7148 17.7696C11.7148 17.7696 11.1082 18.0365 10.6665 17.5512C10.6665 17.5524 11.072 16.7679 11.8063 16.814Z" fill="url(#paint23_linear_4767_69200)"/>
<path d="M16.2289 0.62207C16.2289 0.62207 15.9823 1.62406 17.2672 2.26665L17.1755 2.40424C17.1755 2.40424 15.7988 1.9917 16.0743 0.660412L16.2289 0.62207ZM24.6097 4.97388C24.6097 4.97388 24.7476 5.6155 23.9674 6.07658C23.9674 6.07658 24.7476 5.84701 24.7925 5.11293L24.6097 4.97388Z" fill="#122A44"/>
<path d="M10.9804 28.6076C10.9804 28.6076 4.32608 24.6611 5.97818 15.6665L4.18848 17.4094C4.18848 17.4094 3.86719 25.0292 10.9804 28.6076Z" fill="url(#paint24_radial_4767_69200)"/>
<path d="M6.25366 14.0146C6.25366 14.0146 6.6662 14.6111 7.21731 14.0146C7.21731 14.0146 6.73561 14.7948 6.25366 14.0146Z" fill="#5DC5F9"/>
<path d="M24.8352 5.27002C24.8352 5.27002 25.0417 5.67989 24.8915 6.25914C24.8915 6.25914 25.1206 6.02036 25.1805 5.42509L24.8352 5.27002ZM22.4988 6.0769C22.4988 6.0769 22.8659 6.62752 23.692 6.21449C23.692 6.21449 22.8669 6.3982 22.5449 5.93906L22.4988 6.0769Z" fill="#122A44"/>
<path d="M22.4987 6.16733C22.4987 6.16733 22.6365 6.99241 23.5084 6.90165C23.5084 6.90165 23.0321 7.18606 22.5135 6.95213L22.4987 6.16733ZM24.2425 5.01999C24.2425 5.01999 23.9673 6.0756 22.5907 5.66258L22.5448 5.8919C22.5448 5.8919 24.1049 6.35079 24.5638 4.97412L24.2425 5.01999ZM14.2843 29.3419C14.2843 29.3419 15.6471 29.3048 15.6772 30.6542L15.1409 30.5732C15.1409 30.5732 15.4775 29.6644 14.2843 29.3419ZM12.1274 28.3782C12.1274 28.3782 13.151 28.8789 12.731 30.2119L12.4038 30.0922C12.4038 30.0922 12.7695 28.7454 12.1274 28.3782ZM7.63027 25.4419C7.63027 25.4419 8.22675 26.6351 6.89595 26.9564L6.62076 26.5439C6.62076 26.5439 7.67613 26.8181 7.63027 25.4419ZM5.38168 23.1926C5.38168 23.1926 5.33582 23.7893 4.4639 23.6515L4.50686 23.3935C4.50712 23.3916 4.50785 23.3897 4.50898 23.3881C4.51011 23.3864 4.51161 23.3851 4.51336 23.3841C4.51511 23.3832 4.51706 23.3827 4.51905 23.3826C4.52104 23.3826 4.52302 23.383 4.52481 23.3838C4.6112 23.4249 5.05262 23.6047 5.38168 23.1926ZM4.37314 16.0338C4.37314 16.0338 4.00501 17.6859 3.08699 17.2729L2.90329 17.6398C2.90329 17.6398 4.37314 18.2366 4.37314 16.0338ZM2.85767 14.7948C2.85767 14.7948 3.49953 16.1256 4.09674 14.0146C4.09674 14.0146 4.18847 15.896 2.90353 15.4832L2.85767 14.7948ZM3.95915 12.179C3.95915 12.179 3.86718 13.1885 5.06039 12.7755C5.06039 12.7755 4.00501 13.7704 3.52307 12.6073L3.95915 12.179ZM4.32607 10.6186C4.32607 10.6186 4.64736 11.5823 6.0699 10.1597C6.0699 10.1597 4.69323 12.179 5.97817 12.271C5.97817 12.271 4.83106 12.4547 5.33582 11.1236C5.33582 11.1236 4.80316 11.6364 4.19769 11.0817L4.32607 10.6186ZM5.47341 14.5652C5.47341 14.5652 5.97817 14.703 6.20773 14.1063C6.20773 14.1063 6.48292 14.6111 6.98792 14.3359C6.98792 14.3359 7.17138 14.2441 7.30897 13.8311C7.30897 13.8311 6.98792 14.5652 6.48389 14.2437C6.48389 14.2437 6.2087 14.1058 6.2087 13.6928C6.20773 13.6933 6.0699 14.5652 5.47341 14.5652Z" fill="#122A44"/>
<path d="M15.3857 1.25694C15.3857 1.25694 15.707 2.08202 16.028 2.4499C16.028 2.4499 15.2022 2.17472 15.3857 1.25694ZM4.73901 7.36034C4.73901 7.36034 6.43771 3.18423 9.69532 1.99101C9.69532 1.99101 12.2191 0.93564 14.7429 1.02737C14.7429 1.02737 10.475 0.522614 7.90514 2.72606C7.90562 2.72534 5.65704 4.4233 4.73901 7.36034ZM16.028 3.41379C16.028 3.41379 14.6055 4.97392 15.7529 7.58967C15.7529 7.58967 14.1008 5.43281 16.028 3.41379ZM23.2388 6.51585C23.2388 6.51585 24.2094 6.5969 24.7836 5.93538C24.7836 5.93538 24.4089 6.99512 23.2388 6.51585ZM25.6194 6.25886C25.6194 6.25886 27.1336 7.6814 26.9055 11.1693C26.9043 11.1693 27.6842 7.77337 25.6194 6.25886Z" fill="#5DC5F9"/>
<path d="M19.5158 18.2366C19.5158 18.2366 19.6075 18.5579 20.0205 18.7873C20.0205 18.7873 19.3779 17.6399 20.7546 17.594L19.9283 16.9971C19.9283 16.9971 19.3323 17.5482 19.5158 18.2366Z" fill="url(#paint25_linear_4767_69200)"/>
<path d="M5.70285 6.90208L5.33569 7.03968C5.33569 7.03968 6.02318 4.51542 8.54695 2.95529C8.54695 2.95529 10.7955 1.25659 14.5586 1.30319C14.5312 1.36064 14.5156 1.42304 14.5128 1.48665C14.5128 1.48665 7.63014 1.48665 5.70285 6.90208ZM9.83311 7.68178C9.83311 7.68178 11.4852 4.14826 14.7894 2.63424L14.8807 2.72572C14.8807 2.72572 12.3569 3.5508 10.0163 7.63592L9.83311 7.68178Z" fill="#7DA4B7"/>
<path d="M19.9283 16.9971C19.9171 17.0613 19.9195 17.1272 19.9353 17.1904C19.9512 17.2537 19.9801 17.3129 20.0203 17.3642C20.0203 17.3642 19.4695 17.7768 19.6078 18.4196C19.6078 18.4201 19.1033 17.3647 19.9283 16.9971Z" fill="#5DC5F9"/>
<path d="M15.2934 3.64307C15.2934 3.64307 13.7789 4.88214 12.907 7.81918L13.0907 7.68135C13.0907 7.68135 13.5044 5.84579 15.2934 3.64307Z" fill="#7DA4B7"/>
<path d="M20.1582 16.9058C20.1582 16.9058 20.7089 17.7308 22.0397 17.4105L22.2234 17.5022C22.2234 17.5022 20.8926 18.2366 19.8828 16.9516L20.1582 16.9058Z" fill="#122A44"/>
<path d="M19.7911 17.0435C19.7911 17.0435 20.1124 17.8685 20.8467 17.9612C20.8467 17.9612 20.1583 18.0071 19.6077 17.1811L19.7911 17.0435Z" fill="#122A44"/>
<path d="M23.5627 17.9961C23.5627 17.9961 22.9116 19.0168 23.1871 19.3839C23.1871 19.3839 23.2329 19.6133 23.5996 19.705C23.5996 19.705 23.4162 19.0626 23.8289 18.6955C24.0487 18.8352 24.2789 18.9579 24.5174 19.0626L24.7474 18.6957C24.7474 18.6957 24.2136 18.6734 23.5627 17.9963" fill="url(#paint26_linear_4767_69200)"/>
<path d="M21.2145 18.0529C21.2145 18.0529 22.2243 18.099 22.2243 17.4105L22.4078 17.6398C22.4078 17.6398 22.3153 18.1907 21.2145 18.0529ZM19.6078 17.2271C19.6078 17.2271 19.2865 17.6859 19.6078 18.42C19.6078 18.42 19.0111 17.8694 19.057 17.5481L19.6078 17.2271Z" fill="#122A44"/>
<path d="M21.4893 18.7869C21.4893 18.7869 22.4988 19.1541 22.6825 17.8691L22.407 17.502C22.407 17.502 22.407 18.6954 21.4893 18.7869ZM23.4627 18.1904C23.4627 18.1904 23.0038 18.8328 23.2331 19.4754C23.2331 19.4754 22.7283 19.1999 23.1872 18.0526L23.4627 18.1904ZM24.3804 19.9342C24.3804 19.9342 26.1175 20.8947 26.3961 18.7165L26.1701 18.4197C26.1701 18.4197 26.1701 20.439 24.3804 19.9342Z" fill="#122A44"/>
<path d="M11.0262 17.8233C11.0262 17.8233 10.6137 19.613 12.7249 20.7145C12.7249 20.7145 11.9906 19.1614 11.8071 17.7954L11.0262 17.8233Z" fill="url(#paint27_linear_4767_69200)"/>
<path d="M12.5634 17.4565C12.5634 17.4565 12.2193 19.5677 14.009 20.6687L13.9173 20.0264C13.9173 20.0264 13.3205 18.4201 13.4123 17.4097L12.5634 17.4565Z" fill="url(#paint28_linear_4767_69200)"/>
<path d="M24.8851 19.108C24.8851 19.108 26.0203 19.3039 26.164 18.5404L26.0783 18.3737C26.0783 18.3737 25.9863 19.0624 24.8851 19.108ZM23.4626 17.9609C23.4626 17.9609 23.3706 18.3735 24.1508 18.8787C24.1508 18.8787 23.646 18.8329 23.3257 18.1446L23.4626 17.9609Z" fill="#122A44"/>
<path d="M23.8757 17.8706C23.8757 17.8706 24.4722 18.7884 25.8947 18.2378L26.0784 18.5591C26.0784 18.5591 24.4263 19.339 23.5085 17.9165L23.8757 17.8706Z" fill="#122A44"/>
<path d="M23.692 19.3837C23.692 19.3837 24.3346 19.7047 25.6195 19.5213C25.6195 19.5205 24.3804 20.3473 23.692 19.3837ZM20.1584 18.2363C20.1584 18.2363 20.7549 18.5115 22.0399 18.3281C22.0396 18.3281 21.0304 19.2 20.1584 18.2363Z" fill="#5DC5F9"/>
<path d="M10.4756 17.6861C10.4756 17.6861 10.9345 18.145 11.8523 17.9154L11.9899 17.2272L11.6744 17.0947C11.6744 17.0947 11.5288 17.4102 11.5759 17.732C11.5759 17.732 11.0252 17.8696 10.6122 17.5024L10.4756 17.6861Z" fill="#122A44"/>
<path d="M10.4983 17.7085C10.4983 17.7085 10.5442 18.0298 11.0489 18.0757C11.0489 18.0757 10.6121 18.1446 10.3835 17.7774L10.4983 17.7085ZM11.3016 18.0987C11.3016 18.0987 11.7605 18.1446 11.8522 17.8233L11.8981 18.0987C11.8038 18.1391 11.7023 18.1599 11.5998 18.1599C11.4973 18.1599 11.3958 18.1391 11.3016 18.0987Z" fill="#122A44"/>
<path d="M12.1273 17.319C12.1273 17.319 11.8521 18.4661 12.1734 19.2004C12.1734 19.2004 11.5767 18.3285 11.898 17.2731L12.1273 17.319ZM12.2193 17.1353C12.2193 17.1353 12.6782 17.5478 13.4122 17.2731V17.4097C13.4122 17.4097 12.6323 17.8223 12.1734 17.2721L12.2193 17.1353Z" fill="#122A44"/>
<path d="M12.0815 17.2729C12.2189 17.4831 12.4331 17.6311 12.6782 17.6855C12.6782 17.6855 12.2193 17.6855 11.9897 17.4101L12.0815 17.2729ZM12.9993 17.686C12.9993 17.686 13.4118 17.594 13.4118 17.3647L13.4579 17.594C13.4579 17.594 13.3206 17.7318 12.9993 17.686Z" fill="#122A44"/>
<path d="M13.4123 17.5479C13.4123 17.5479 12.9534 18.3729 13.7794 19.613C13.7794 19.613 13.2747 18.2363 13.596 17.5479H13.4123Z" fill="#122A44"/>
<path d="M13.6432 17.4565C13.6432 17.4565 14.2856 17.8691 14.8365 17.4565L15.0199 17.5941C15.0199 17.5941 14.3776 18.145 13.5515 17.64L13.6432 17.4565Z" fill="#122A44"/>
<path d="M13.5043 17.64C13.5043 17.64 13.6419 17.9154 14.2384 18.0072C14.2384 18.0072 13.7795 18.053 13.4584 17.8696L13.5043 17.64ZM14.4682 17.9613C14.4682 17.9613 14.8353 17.9613 15.0188 17.5488L15.1564 17.7783C14.9583 17.9239 14.7125 17.9893 14.4682 17.9613ZM14.6514 18.3285C14.6514 18.3285 15.1103 18.2826 15.2481 17.9159L15.2933 18.145C15.2933 18.145 15.1103 18.3743 14.6514 18.3285ZM14.9268 11.1697C14.9268 11.1697 14.9268 10.2978 16.3035 10.3446C16.3035 10.3446 14.5597 9.97743 14.7434 11.4L14.9268 11.1697ZM15.6612 11.5371C15.6612 11.5371 15.8446 11.8125 15.7529 12.2255L15.9558 12.1639C15.9558 12.1639 15.9363 11.6744 15.6612 11.5371ZM13.2112 11.2682C13.2112 11.2682 13.4584 10.2975 15.0644 10.1599C15.0644 10.1599 13.1371 10.1141 13.0454 11.2614L13.2112 11.2682Z" fill="#122A44"/>
<path d="M16.6708 10.1597C16.6708 10.1597 17.8182 11.0316 17.772 11.7659L16.5344 11.6283C16.5344 11.6283 17.1756 11.2153 16.6708 10.1597Z" fill="url(#paint29_linear_4767_69200)"/>
<path d="M13.1821 25.9462C13.1821 25.9462 14.1458 24.4775 17.3582 26.2672C17.3592 26.267 14.6515 23.8352 13.1821 25.9462Z" fill="#122A44"/>
<path d="M13.1821 26.2215C13.1821 26.2215 14.054 24.8448 17.4046 26.4969C17.4046 26.4969 14.5139 24.2483 13.1821 26.2215Z" fill="#5DC5F9"/>
<path d="M18.5521 23.1925C18.5521 23.1925 14.7837 21.1924 12.561 23.7431C12.3459 23.9908 12.2001 24.291 12.1383 24.6133C12.0765 24.9355 12.101 25.2684 12.2092 25.5781C12.6118 26.7379 13.7477 28.5497 16.9461 29.0675C16.9461 29.0675 22.3152 30.2149 26.0324 25.5798L26.7206 24.9373C26.7206 24.9373 23.0036 31.4069 15.1562 28.9289C15.1562 28.9289 11.6047 27.8816 11.7588 24.608C11.7603 24.579 11.7646 24.5504 11.7716 24.5223C11.8525 24.2029 12.4404 22.3545 15.2486 22.2288C15.2486 22.2288 17.7265 21.9995 18.5975 23.1007L18.6907 23.2844C18.6493 23.2471 18.6026 23.2161 18.5521 23.1925Z" fill="#5DC5F9"/>
<path d="M28.9468 19.9561C28.9468 19.9561 28.6214 21.722 30.0922 23.559L29.933 23.9727C29.933 23.9727 28.7398 24.6153 28.0972 26.818L27.3631 25.3953C27.3631 25.3953 27.2712 25.2577 26.996 25.3494L26.4912 25.5331L26.5371 25.3494L27.0877 25.1201C27.0877 25.1201 27.409 25.0284 27.5466 25.3035L28.0513 26.3592C28.0513 26.3592 28.3726 24.7988 29.7952 23.7893C29.7952 23.7893 28.5102 21.77 28.7398 20.2558L28.9468 19.9561Z" fill="#5DC5F9"/>
<path d="M25.7112 26.2667C25.7112 26.2667 26.8583 24.8901 26.9503 24.4771C26.9503 24.4771 26.629 25.6244 26.1252 26.2667H25.7112Z" fill="#122A44"/>
<path d="M26.9502 21.5865C26.9502 21.5865 28.0514 20.944 28.6489 19.5214L29.0158 19.4297C29.0158 19.4297 29.1071 21.2194 26.9502 21.5865Z" fill="#5DC5F9"/>
<path d="M28.8316 19.1084C28.8316 19.1084 28.4645 20.7605 26.9502 21.5866C26.9502 21.5866 28.5103 20.8981 29.1988 19.3377L28.8316 19.1084ZM27.455 22.8717C27.455 22.8717 28.6513 23.8111 30.3476 23.525V23.9671C30.3476 23.9671 28.6482 24.0188 27.455 22.8717Z" fill="#122A44"/>
<path opacity="0.63" d="M8.41035 15.8957L9.92461 14.2897H9.83288L8.31862 15.8957H8.41035ZM8.04319 15.8499L9.69529 14.2439L9.28226 14.1978L7.67603 15.804L8.04319 15.8499Z" fill="white"/>
<path d="M9.00688 14.3818L10.3835 14.6572V14.5194L9.00688 14.3818ZM8.73169 15.6668L10.246 15.8043L10.2001 15.9422L8.73169 15.6668ZM12.9995 14.0146L15.0644 14.3359L14.7434 16.9517L14.9268 16.86L15.2481 14.2442L12.9995 14.0146ZM15.6611 15.162L16.992 15.4372L15.615 15.3455L15.6611 15.162ZM15.4316 16.4928L16.7624 16.7682L15.4316 16.6304V16.4928Z" fill="#4F1A00"/>
<path d="M15.9822 15.2075L18.139 15.5288L19.1029 16.9513L18.231 15.8499L18.0932 17.1348H18.0014L18.0932 15.6664L15.9822 15.2075Z" fill="white"/>
<path d="M17.7261 16.9055C17.7261 16.9055 18.3228 16.9055 18.4604 17.5479C18.4604 17.5479 18.4604 16.8597 17.7261 16.9055Z" fill="#4F1A00"/>
<path d="M11.2556 13.9688C11.2556 13.9688 11.0721 15.9421 10.8887 16.6762C10.8887 16.6762 11.0263 14.6111 11.2556 13.9688Z" fill="white"/>
<path d="M12.5865 13.8311L11.072 13.6932C11.072 13.6932 10.8424 15.8959 10.6595 16.814C10.6595 16.814 10.797 14.3817 10.9807 13.5098L12.5865 13.8311ZM7.72192 15.7584L7.99736 14.198L10.2459 14.4734L7.85976 14.0604L7.72192 15.7584Z" fill="white"/>
<path opacity="0.63" d="M15.0187 13.5556L14.6057 13.9687L14.2385 13.9228L14.6515 13.5098L15.0187 13.5556Z" fill="white"/>
</g>
<defs>
<linearGradient id="paint0_linear_4767_69200" x1="24.9084" y1="8.86443" x2="23.0684" y2="8.25168" gradientUnits="userSpaceOnUse">
<stop offset="0.33" stop-color="#F3F5F7"/>
<stop offset="0.78" stop-color="#8099B9"/>
</linearGradient>
<linearGradient id="paint1_linear_4767_69200" x1="26.5499" y1="9.21146" x2="24.4324" y2="9.10356" gradientUnits="userSpaceOnUse">
<stop offset="0.33" stop-color="#F3F5F7"/>
<stop offset="0.37" stop-color="#E4E9EF"/>
<stop offset="0.48" stop-color="#C0CCDC"/>
<stop offset="0.59" stop-color="#A4B6CC"/>
<stop offset="0.7" stop-color="#90A6C2"/>
<stop offset="0.81" stop-color="#849CBB"/>
<stop offset="0.91" stop-color="#8099B9"/>
</linearGradient>
<linearGradient id="paint2_linear_4767_69200" x1="23.3099" y1="22.9291" x2="27.7615" y2="25.4371" gradientUnits="userSpaceOnUse">
<stop offset="0.12" stop-color="#1797E5"/>
<stop offset="0.14" stop-color="#1693E1"/>
<stop offset="0.33" stop-color="#0A6FBA"/>
<stop offset="0.48" stop-color="#0358A2"/>
<stop offset="0.57" stop-color="#005099"/>
<stop offset="0.71" stop-color="#0663AD"/>
<stop offset="0.99" stop-color="#1694E2"/>
<stop offset="1" stop-color="#1797E5"/>
</linearGradient>
<linearGradient id="paint3_linear_4767_69200" x1="9.39338" y1="12.3695" x2="25.1228" y2="26.9926" gradientUnits="userSpaceOnUse">
<stop offset="0.13" stop-color="#1797E5"/>
<stop offset="0.26" stop-color="#1693E1"/>
<stop offset="0.4" stop-color="#1287D4"/>
<stop offset="0.54" stop-color="#0B73BE"/>
<stop offset="0.69" stop-color="#0257A0"/>
<stop offset="0.72" stop-color="#005099"/>
</linearGradient>
<linearGradient id="paint4_linear_4767_69200" x1="17.0072" y1="23.6124" x2="11.9028" y2="12.9354" gradientUnits="userSpaceOnUse">
<stop offset="0.33" stop-color="#F3F5F7"/>
<stop offset="0.78" stop-color="#8099B9"/>
</linearGradient>
<linearGradient id="paint5_linear_4767_69200" x1="18.7613" y1="16.8998" x2="14.0986" y2="15.8818" gradientUnits="userSpaceOnUse">
<stop offset="0.17" stop-color="#F7AE2D"/>
<stop offset="0.86" stop-color="#B04211"/>
</linearGradient>
<linearGradient id="paint6_linear_4767_69200" x1="7.51289" y1="15.1307" x2="10.9911" y2="15.4348" gradientUnits="userSpaceOnUse">
<stop offset="0.17" stop-color="#F7AE2D"/>
<stop offset="0.86" stop-color="#B04211"/>
</linearGradient>
<linearGradient id="paint7_linear_4767_69200" x1="8.68909" y1="13.8898" x2="11.5262" y2="4.97913" gradientUnits="userSpaceOnUse">
<stop offset="0.26" stop-color="#1797E5"/>
<stop offset="0.4" stop-color="#1694E2"/>
<stop offset="0.51" stop-color="#138BD8"/>
<stop offset="0.61" stop-color="#0E7CC8"/>
<stop offset="0.7" stop-color="#0767B1"/>
<stop offset="0.77" stop-color="#005099"/>
</linearGradient>
<linearGradient id="paint8_linear_4767_69200" x1="16.5073" y1="20.6344" x2="14.3539" y2="19.9872" gradientUnits="userSpaceOnUse">
<stop offset="0.26" stop-color="#1797E5"/>
<stop offset="0.77" stop-color="#005099"/>
</linearGradient>
<linearGradient id="paint9_linear_4767_69200" x1="19.4954" y1="19.3895" x2="16.5457" y2="20.0765" gradientUnits="userSpaceOnUse">
<stop offset="0.26" stop-color="#1797E5"/>
<stop offset="0.77" stop-color="#005099"/>
</linearGradient>
<radialGradient id="paint10_radial_4767_69200" cx="0" cy="0" r="1" gradientUnits="userSpaceOnUse" gradientTransform="translate(24.1717 23.5498) rotate(6.68) scale(9.8102 6.76904)">
<stop offset="0.26" stop-color="#1797E5"/>
<stop offset="0.77" stop-color="#005099"/>
</radialGradient>
<linearGradient id="paint11_linear_4767_69200" x1="5.45977" y1="3.72698" x2="13.8283" y2="4.579" gradientUnits="userSpaceOnUse">
<stop offset="0.33" stop-color="#F3F5F7"/>
<stop offset="0.78" stop-color="#8099B9"/>
</linearGradient>
<linearGradient id="paint12_linear_4767_69200" x1="9.71826" y1="5.24961" x2="15.2252" y2="5.24961" gradientUnits="userSpaceOnUse">
<stop offset="0.33" stop-color="#F3F5F7"/>
<stop offset="0.78" stop-color="#8099B9"/>
</linearGradient>
<linearGradient id="paint13_linear_4767_69200" x1="12.793" y1="5.66272" x2="15.5463" y2="5.66272" gradientUnits="userSpaceOnUse">
<stop offset="0.33" stop-color="#F3F5F7"/>
<stop offset="0.78" stop-color="#8099B9"/>
</linearGradient>
<linearGradient id="paint14_linear_4767_69200" x1="17.819" y1="2.35298" x2="16.5379" y2="0.358474" gradientUnits="userSpaceOnUse">
<stop offset="0.33" stop-color="#F3F5F7"/>
<stop offset="0.78" stop-color="#8099B9"/>
</linearGradient>
<linearGradient id="paint15_linear_4767_69200" x1="24.0403" y1="4.4725" x2="22.2388" y2="5.41759" gradientUnits="userSpaceOnUse">
<stop offset="0.33" stop-color="#F3F5F7"/>
<stop offset="0.78" stop-color="#8099B9"/>
</linearGradient>
<linearGradient id="paint16_linear_4767_69200" x1="26.1345" y1="18.3358" x2="24.1976" y2="17.0492" gradientUnits="userSpaceOnUse">
<stop offset="0.33" stop-color="#F3F5F7"/>
<stop offset="0.78" stop-color="#8099B9"/>
</linearGradient>
<linearGradient id="paint17_linear_4767_69200" x1="22.3641" y1="16.8613" x2="20.372" y2="16.242" gradientUnits="userSpaceOnUse">
<stop offset="0.33" stop-color="#F3F5F7"/>
<stop offset="0.78" stop-color="#8099B9"/>
</linearGradient>
<linearGradient id="paint18_linear_4767_69200" x1="13.6419" y1="17.1815" x2="14.9709" y2="17.0829" gradientUnits="userSpaceOnUse">
<stop offset="0.33" stop-color="#F3F5F7"/>
<stop offset="0.78" stop-color="#8099B9"/>
</linearGradient>
<linearGradient id="paint19_linear_4767_69200" x1="12.1771" y1="16.9067" x2="13.5088" y2="16.9599" gradientUnits="userSpaceOnUse">
<stop offset="0.33" stop-color="#F3F5F7"/>
<stop offset="0.78" stop-color="#8099B9"/>
</linearGradient>
<linearGradient id="paint20_linear_4767_69200" x1="11.403" y1="11.6396" x2="12.2809" y2="12.7741" gradientUnits="userSpaceOnUse">
<stop offset="0.33" stop-color="#F3F5F7"/>
<stop offset="0.78" stop-color="#8099B9"/>
</linearGradient>
<linearGradient id="paint21_linear_4767_69200" x1="12.835" y1="11.4983" x2="13.7613" y2="12.6952" gradientUnits="userSpaceOnUse">
<stop offset="0.33" stop-color="#F3F5F7"/>
<stop offset="0.78" stop-color="#8099B9"/>
</linearGradient>
<linearGradient id="paint22_linear_4767_69200" x1="14.5322" y1="11.4958" x2="15.3663" y2="12.5737" gradientUnits="userSpaceOnUse">
<stop offset="0.33" stop-color="#F3F5F7"/>
<stop offset="0.78" stop-color="#8099B9"/>
</linearGradient>
<linearGradient id="paint23_linear_4767_69200" x1="10.6579" y1="17.2923" x2="12.0031" y2="17.3461" gradientUnits="userSpaceOnUse">
<stop offset="0.33" stop-color="#F3F5F7"/>
<stop offset="0.78" stop-color="#8099B9"/>
</linearGradient>
<radialGradient id="paint24_radial_4767_69200" cx="0" cy="0" r="1" gradientUnits="userSpaceOnUse" gradientTransform="translate(7.5832 22.1812) scale(9.13436 5.75465)">
<stop offset="0.17" stop-color="#3FC0E5"/>
<stop offset="0.62" stop-color="#20A1E6"/>
</radialGradient>
<linearGradient id="paint25_linear_4767_69200" x1="20.7551" y1="18.2898" x2="19.4503" y2="17.6253" gradientUnits="userSpaceOnUse">
<stop offset="0.26" stop-color="#1797E5"/>
<stop offset="0.77" stop-color="#005099"/>
</linearGradient>
<linearGradient id="paint26_linear_4767_69200" x1="24.7982" y1="19.4825" x2="23.1354" y2="18.636" gradientUnits="userSpaceOnUse">
<stop offset="0.26" stop-color="#1797E5"/>
<stop offset="0.77" stop-color="#005099"/>
</linearGradient>
<linearGradient id="paint27_linear_4767_69200" x1="14.0414" y1="20.0003" x2="10.1946" y2="18.3858" gradientUnits="userSpaceOnUse">
<stop offset="0.26" stop-color="#1797E5"/>
<stop offset="0.77" stop-color="#005099"/>
</linearGradient>
<linearGradient id="paint28_linear_4767_69200" x1="15.374" y1="19.6556" x2="11.1375" y2="18.087" gradientUnits="userSpaceOnUse">
<stop offset="0.26" stop-color="#1797E5"/>
<stop offset="0.77" stop-color="#005099"/>
</linearGradient>
<linearGradient id="paint29_linear_4767_69200" x1="16.1731" y1="10.6016" x2="18.1249" y2="11.9324" gradientUnits="userSpaceOnUse">
<stop offset="0.26" stop-color="#1797E5"/>
<stop offset="0.77" stop-color="#005099"/>
</linearGradient>
<clipPath id="clip0_4767_69200">
<rect width="32" height="32" fill="white"/>
</clipPath>
</defs>
</svg>
