<svg width="32" height="32" viewBox="0 0 32 32" fill="none" xmlns="http://www.w3.org/2000/svg">
<g clip-path="url(#clip0_4797_63820)">
<path fill-rule="evenodd" clip-rule="evenodd" d="M3.52117 5.19685C3.19141 5.41077 3.07317 5.42645 2.51669 5.33061C1.85845 5.21717 1.44901 5.40885 0.173173 6.42805C-0.136427 6.67541 -0.0028273 7.48549 0.347893 7.48549C0.551893 7.48549 0.992533 7.26501 1.09157 7.11349C1.13109 7.05317 1.42869 7.14085 1.76901 7.31349C2.10277 7.48261 2.49061 7.59909 2.63077 7.57221C2.85941 7.52853 3.00117 7.75669 4.01173 9.79397L5.13781 12.0642L7.30389 14.2279C9.95989 16.8805 9.96085 16.8866 8.19061 17.3108L7.11349 17.569L6.90981 18.1143L6.70629 18.6596L7.05365 19.2241C7.24469 19.5345 7.40085 19.817 7.40085 19.8519C7.40085 19.8868 6.55397 20.9615 5.51893 22.2401L3.63701 24.5645L2.83589 24.5201C1.47749 24.4433 1.47589 24.4791 2.80293 25.4001L4.00997 26.2373L4.14405 25.914C4.21781 25.7362 5.18165 24.698 6.28581 23.6085L8.29349 21.6263L8.42757 22.1593C8.50197 22.4541 8.78309 22.9799 9.05749 23.3367C9.33189 23.6935 9.72517 24.3178 9.93525 24.7287L10.3173 25.4761L10.5202 24.0965C10.7836 22.3045 10.7959 22.4298 10.3549 22.4298C10.0029 22.4298 9.93989 22.3673 9.48709 21.5714L8.99877 20.7121L10.0093 19.5002C10.5652 18.8338 11.0973 18.2649 11.1933 18.2362C11.2893 18.2076 13.0025 17.8213 15.0013 17.3783L18.6367 16.5727L20.1741 16.6458C21.6393 16.7156 21.7369 16.7356 22.2553 17.0738L22.7993 17.4287L22.8013 18.7041C22.8031 19.8241 22.8308 20.0044 23.0292 20.1837C23.2706 20.4023 24.4441 23.2929 24.3892 23.5321C24.3709 23.6106 23.8036 24.265 23.1282 24.9863L21.9005 26.2983L21.0805 26.4445C20.1029 26.6194 20.0919 26.6023 21.5708 27.2125C22.8869 27.7565 22.9178 27.7545 22.9225 27.1645C22.9257 26.7738 23.0623 26.6017 24.6468 24.9901C25.5929 24.0268 26.3679 23.2081 26.3679 23.1684C26.3679 23.1287 26.1301 22.3495 25.8399 21.4354C25.0399 18.9161 25.0044 18.9324 27.5679 20.6263L29.6869 22.0265L29.9749 22.7737C30.134 23.1845 30.3479 24.0122 30.4505 24.6137C30.553 25.2151 30.6607 25.8092 30.6897 25.9356C30.7308 26.1141 30.6007 26.2556 30.1074 26.5679C29.2487 27.1119 29.282 27.1426 30.7357 27.1426C31.4313 27.1426 31.9997 27.1201 31.9997 27.0925C31.9997 27.065 31.9482 26.9069 31.8852 26.7405C31.8221 26.5741 31.6922 25.7828 31.5972 24.9805C31.5021 24.1783 31.3401 22.9524 31.2391 22.2569L31.0556 20.9929L29.7036 19.6133L28.3519 18.2332L27.5039 15.313L26.6559 12.3927L25.6596 11.5197L24.6633 10.6466L24.0501 9.18581L23.4372 7.72485L22.2325 7.05925C21.5698 6.69301 20.9695 6.37813 20.8985 6.35941C20.8274 6.34069 20.3445 6.97333 19.8265 7.76501C18.7477 9.41173 18.8541 9.30885 18.3017 9.23957L17.8786 9.18645L17.1705 7.50261C16.3578 5.57077 16.4345 5.68581 15.9085 5.59381L15.5047 5.52325L13.9527 7.84053C12.2477 10.3868 12.3485 10.2969 10.9644 10.5089L9.98725 10.6585L8.42661 10.0463L6.86597 9.43413L6.42101 8.33333C6.03701 7.38325 6.00037 7.21893 6.15333 7.13333C6.37589 7.00869 6.06501 5.60485 5.83445 5.69333C5.76117 5.72149 5.58789 5.62389 5.44933 5.47637C5.31077 5.32885 5.00789 5.17413 4.77605 5.13221C4.54421 5.09029 4.25125 5.03317 4.12485 5.00533C3.99845 4.97749 3.72677 5.06405 3.52117 5.19685Z" fill="#F5A623"/>
</g>
<defs>
<clipPath id="clip0_4797_63820">
<rect width="32" height="32" fill="white"/>
</clipPath>
</defs>
</svg>
