<svg width="32" height="32" viewBox="0 0 32 32" fill="none" xmlns="http://www.w3.org/2000/svg">
<g clip-path="url(#clip0_4767_68089)">
<path d="M25.2959 22.1786C28.9968 22.1786 31.997 19.1784 31.997 15.4775C31.997 11.7766 28.9968 8.77637 25.2959 8.77637C21.5949 8.77637 18.5947 11.7766 18.5947 15.4775C18.5947 19.1784 21.5949 22.1786 25.2959 22.1786Z" fill="#2B5EBA"/>
<path d="M16.8279 6.26121C18.6124 6.26121 20.0591 4.81456 20.0591 3.03002C20.0591 1.24548 18.6124 -0.201172 16.8279 -0.201172C15.0433 -0.201172 13.5967 1.24548 13.5967 3.03002C13.5967 4.81456 15.0433 6.26121 16.8279 6.26121Z" fill="#2B5EBA"/>
<path d="M16.8279 31.1719C18.6124 31.1719 20.0591 29.7252 20.0591 27.9407C20.0591 26.1561 18.6124 24.7095 16.8279 24.7095C15.0433 24.7095 13.5967 26.1561 13.5967 27.9407C13.5967 29.7252 15.0433 31.1719 16.8279 31.1719Z" fill="#2B5EBA"/>
<path d="M15.3475 20.3159C15.5385 20.3796 15.7454 20.4114 15.9523 20.4114C17.0666 20.4114 17.9738 19.5041 17.9738 18.3899C17.9738 17.2757 17.0666 16.3684 15.9523 16.3684C15.2361 16.3684 14.6153 16.7345 14.2492 17.2916V17.3075C14.1855 17.3871 14.1378 17.4826 14.106 17.5781C11.8775 21.5097 7.40481 18.8834 7.40481 18.8834C6.67262 18.4536 5.82901 18.1989 4.90581 18.1989C2.21581 18.1989 0.035149 20.3796 0.035149 23.0696C0.035149 25.7596 2.21581 27.9402 4.90581 27.9402C6.78404 27.9402 8.42351 26.8738 9.21937 25.3139V25.298C9.36263 25.0274 9.47405 24.7409 9.56955 24.4385C11.8935 19.1062 15.3475 20.3159 15.3475 20.3159ZM14.2015 13.1691C14.297 13.3442 14.4243 13.5193 14.5676 13.6625C15.3634 14.4584 16.6368 14.4584 17.4167 13.6625C18.2126 12.8666 18.2126 11.5933 17.4167 10.8133C16.9074 10.304 16.207 10.1289 15.5703 10.2721H15.5544C15.4589 10.2881 15.3475 10.3199 15.252 10.3676C10.8907 11.5774 9.58547 6.54752 9.58547 6.54752C9.37855 5.71983 8.94878 4.93988 8.31209 4.3032C6.40203 2.39313 3.33001 2.39313 1.43586 4.28728C-0.458284 6.18143 -0.474201 9.26936 1.43586 11.1635C2.77291 12.5006 4.66705 12.8985 6.35428 12.3573H6.37019C6.6567 12.2618 6.94321 12.1345 7.22972 11.9912C12.6257 9.8583 14.2015 13.1691 14.2015 13.1691Z" fill="#2B5EBA"/>
</g>
<defs>
<clipPath id="clip0_4767_68089">
<rect width="32" height="32" fill="white"/>
</clipPath>
</defs>
</svg>
