<svg width="32" height="32" viewBox="0 0 32 32" fill="none" xmlns="http://www.w3.org/2000/svg">
<g clip-path="url(#clip0_4767_64158)">
<path d="M16.0113 32.0226C24.8541 32.0226 32.0226 24.8541 32.0226 16.0113C32.0226 7.1685 24.8541 0 16.0113 0C7.1685 0 0 7.1685 0 16.0113C0 24.8541 7.1685 32.0226 16.0113 32.0226Z" fill="#7866D5"/>
<path d="M22.4926 8.22009C23.0346 8.28784 23.5992 8.33301 24.1412 8.42334C25.2026 8.62659 25.5639 9.16858 25.3832 10.2526C25.3381 10.659 25.0219 10.9752 24.6154 11.043C24.367 11.0881 24.096 11.1107 23.8476 11.0881C20.3247 11.0881 16.8243 11.1107 13.3014 11.1107C12.782 11.1107 12.24 11.1559 11.7206 11.2462C9.98167 11.5172 9.30418 12.2399 9.16869 14.0013C9.10094 14.8143 9.10094 14.8143 9.93651 14.8143H23.9379C24.0734 14.8143 24.2089 14.8143 24.3444 14.8143C24.5702 14.8143 24.7735 14.8821 24.9767 14.995C25.6091 15.4015 25.451 16.0564 25.4284 16.6435C25.4058 17.1178 25.1122 17.3888 24.6154 17.4791C24.4122 17.5243 24.2089 17.5243 23.9831 17.5243C19.1955 17.5243 14.4079 17.5243 9.62035 17.5243C9.10094 17.5243 9.10094 17.5243 9.1461 18.0437C9.16869 18.5179 9.21385 18.9921 9.32677 19.4664C9.5526 20.3245 10.072 20.8665 10.9527 21.1149C11.9012 21.3859 12.8949 21.4311 13.8659 21.4537C17.276 21.4537 20.7086 21.4537 24.1412 21.4537C24.5702 21.4537 24.9767 21.4989 25.2477 21.9053C25.6768 22.5828 25.451 23.4636 24.7735 23.8926C24.6832 23.9604 24.5928 24.0056 24.4799 24.0281C23.7347 24.2766 22.9669 24.3217 22.1764 24.3443C18.9471 24.412 15.7403 24.412 12.5335 24.3443C11.5399 24.3217 10.5462 24.2088 9.57518 24.0056C7.29431 23.5313 6.14258 22.357 5.75867 20.0535C5.66833 19.5341 5.62317 18.9921 5.55542 18.4502V14.2497C5.60059 13.8432 5.64575 13.4142 5.69092 13.0077C5.9845 10.4106 7.15881 9.12341 9.71068 8.53625C10.614 8.33301 11.5625 8.28784 12.4658 8.19751L22.4926 8.22009Z" fill="white"/>
<path d="M17.3437 24.796C15.7177 24.796 14.1143 24.7734 12.511 24.7508C11.4947 24.7282 10.4785 24.6153 9.48485 24.3895C7.02331 23.8701 5.75866 22.5602 5.35217 20.1213C5.28442 19.7374 5.23926 19.3535 5.21667 18.9921C5.19409 18.8341 5.17151 18.676 5.14893 18.4953V18.4502V14.2046L5.19409 13.7981C5.21667 13.5045 5.26184 13.2335 5.28442 12.9625C5.60058 10.1848 6.91039 8.76208 9.64293 8.15234C10.3656 7.99426 11.0657 7.92651 11.7657 7.85876C11.9916 7.83618 12.2174 7.8136 12.4432 7.79102H12.4884H22.5378H22.5604C22.7184 7.8136 22.8991 7.83618 23.0572 7.83618C23.4411 7.88135 23.825 7.90393 24.2315 7.99426C25.5187 8.24267 26.0155 8.96533 25.7897 10.2751C25.722 10.8397 25.2703 11.314 24.6606 11.4043C24.3896 11.4494 24.1186 11.472 23.825 11.472C20.3246 11.4946 16.8017 11.5172 13.3014 11.5172C12.8045 11.5172 12.2851 11.5624 11.7883 11.6527C10.2301 11.9011 9.71068 12.4657 9.57518 14.0465C9.57518 14.182 9.5526 14.3175 9.5526 14.4304C9.64293 14.4304 9.80101 14.4304 9.93651 14.4304H24.3444C24.638 14.4304 24.9316 14.5207 25.18 14.6562C25.9478 15.153 25.88 15.8983 25.8349 16.4403C25.8349 16.508 25.8123 16.5984 25.8123 16.6661C25.7671 17.2984 25.3832 17.7275 24.6832 17.863C24.4347 17.9082 24.2089 17.9082 23.9831 17.9082H9.64293C9.62034 17.9082 9.57518 17.9082 9.5526 17.9082C9.5526 17.9307 9.5526 17.9533 9.5526 17.9759V17.9985C9.57518 18.4727 9.62034 18.9244 9.73326 19.3761C9.91392 20.0761 10.343 20.5052 11.0657 20.7084C12.0367 20.9794 13.0304 21.0246 13.8885 21.0246C16.5533 21.0472 19.2633 21.0472 21.9055 21.0472H24.1637C24.5025 21.0472 25.2026 21.0472 25.6091 21.7021C25.88 22.1312 25.9478 22.628 25.8349 23.1022C25.722 23.5765 25.4284 23.983 24.9993 24.254C24.8864 24.3217 24.7509 24.3895 24.6154 24.4346C23.7798 24.7056 22.9217 24.7508 22.199 24.7734C20.5956 24.7734 18.9697 24.796 17.3437 24.796ZM5.96191 18.4276C5.98449 18.5857 6.00708 18.7437 6.00708 18.9018C6.05224 19.2631 6.09741 19.6245 6.14257 19.9858C6.5039 22.1086 7.52013 23.1474 9.64293 23.5991C10.5914 23.8023 11.5625 23.9152 12.5335 23.9378C15.7177 24.0056 18.9697 24.0056 22.1764 23.9378C22.8314 23.9152 23.6218 23.8701 24.3444 23.6442C24.4122 23.6216 24.4799 23.5765 24.5477 23.5539C24.7735 23.3958 24.9541 23.17 25.0219 22.899C25.0896 22.628 25.0445 22.357 24.8864 22.1086C24.7509 21.9053 24.5702 21.8376 24.1412 21.8376H21.8829C19.2633 21.8376 16.5307 21.8376 13.8659 21.815C12.9626 21.815 11.9012 21.7698 10.8398 21.4537C9.82359 21.1827 9.19127 20.5278 8.94286 19.5116C8.82994 19.0147 8.76219 18.4953 8.76219 17.9985V17.9759C8.73961 17.6598 8.71703 17.4339 8.89769 17.2307C9.07835 17.0274 9.32677 17.0274 9.64293 17.0274H24.0057C24.1863 17.0274 24.3896 17.0274 24.5702 16.9823C24.9316 16.9145 25.0219 16.7564 25.0445 16.5306C25.0445 16.4403 25.0671 16.3725 25.0671 16.2822C25.1122 15.7176 25.1122 15.4466 24.7961 15.2434C24.6832 15.1756 24.5251 15.1305 24.3896 15.1305H9.93651C9.43968 15.1305 9.1461 15.1305 8.92027 14.9046C8.69444 14.6788 8.73961 14.3626 8.76219 13.8884C8.92027 11.9463 9.73326 11.0655 11.6528 10.772C12.1948 10.6816 12.7368 10.6365 13.3014 10.6139C16.8243 10.6139 20.3246 10.5913 23.8476 10.5913C24.096 10.5913 24.3218 10.5913 24.5477 10.5461C24.7735 10.5235 24.9541 10.3429 24.9767 10.1171C25.1348 9.21374 24.909 8.92016 24.0508 8.7395C23.6895 8.67175 23.3282 8.62658 22.9669 8.604C22.8088 8.58142 22.6281 8.55884 22.47 8.55884H12.4884C12.2625 8.58142 12.0367 8.604 11.8109 8.62658C11.1108 8.69433 10.4559 8.7395 9.77842 8.89758C7.40722 9.48474 6.3684 10.6365 6.09741 13.0754C6.07483 13.3464 6.02966 13.6174 6.00708 13.911L5.96191 14.2949V18.4276Z" fill="white"/>
</g>
<defs>
<clipPath id="clip0_4767_64158">
<rect width="32" height="32" fill="white"/>
</clipPath>
</defs>
</svg>
