<svg width="32" height="32" viewBox="0 0 32 32" fill="none" xmlns="http://www.w3.org/2000/svg">
<g clip-path="url(#clip0_176_4466)">
<path d="M16.0113 32.0226C24.8541 32.0226 32.0226 24.8541 32.0226 16.0113C32.0226 7.1685 24.8541 0 16.0113 0C7.1685 0 0 7.1685 0 16.0113C0 24.8541 7.1685 32.0226 16.0113 32.0226Z" fill="#7866D5"/>
<path d="M22.4926 8.21985C23.0346 8.2876 23.5991 8.33276 24.1411 8.42309C25.2025 8.62634 25.5639 9.16833 25.3832 10.2523C25.338 10.6588 25.0219 10.975 24.6154 11.0427C24.367 11.0879 24.096 11.1105 23.8476 11.0879C20.3246 11.0879 16.8243 11.1105 13.3013 11.1105C12.7819 11.1105 12.2399 11.1556 11.7205 11.246C9.98164 11.517 9.30415 12.2396 9.16866 14.0011C9.10091 14.8141 9.10091 14.8141 9.93648 14.8141H23.9379C24.0734 14.8141 24.2089 14.8141 24.3444 14.8141C24.5702 14.8141 24.7735 14.8818 24.9767 14.9947C25.609 15.4012 25.4509 16.0561 25.4284 16.6433C25.4058 17.1175 25.1122 17.3885 24.6154 17.4788C24.4121 17.524 24.2089 17.524 23.9831 17.524C19.1955 17.524 14.4079 17.524 9.62031 17.524C9.10091 17.524 9.10091 17.524 9.14607 18.0434C9.16866 18.5177 9.21382 18.9919 9.32674 19.4661C9.55257 20.3243 10.072 20.8663 10.9527 21.1147C11.9012 21.3857 12.8948 21.4309 13.8659 21.4534C17.2759 21.4534 20.7085 21.4534 24.1411 21.4534C24.5702 21.4534 24.9767 21.4986 25.2477 21.9051C25.6768 22.5826 25.4509 23.4633 24.7735 23.8924C24.6831 23.9601 24.5928 24.0053 24.4799 24.0279C23.7346 24.2763 22.9668 24.3215 22.1764 24.3441C18.9471 24.4118 15.7403 24.4118 12.5335 24.3441C11.5399 24.3215 10.5462 24.2086 9.57515 24.0053C7.29427 23.5311 6.14255 22.3568 5.75864 20.0533C5.6683 19.5339 5.62314 18.9919 5.55539 18.4499V14.2495C5.60056 13.843 5.64572 13.4139 5.69089 13.0074C5.98446 10.4104 7.15878 9.12317 9.71065 8.53601C10.614 8.33276 11.5624 8.2876 12.4658 8.19727L22.4926 8.21985Z" fill="white"/>
<path d="M17.3437 24.796C15.7177 24.796 14.1143 24.7734 12.5109 24.7508C11.4947 24.7282 10.4785 24.6153 9.48482 24.3895C7.02328 23.8701 5.75863 22.5602 5.35214 20.1213C5.28439 19.7374 5.23923 19.3535 5.21664 18.9921C5.19406 18.8341 5.17148 18.676 5.1489 18.4953V18.4502V14.2046L5.19406 13.7981C5.21664 13.5045 5.26181 13.2335 5.28439 12.9625C5.60055 10.1848 6.91036 8.76208 9.6429 8.15234C10.3656 7.99426 11.0656 7.92651 11.7657 7.85876C11.9915 7.83618 12.2173 7.8136 12.4432 7.79102H12.4883H22.5377H22.5603C22.7184 7.8136 22.8991 7.83618 23.0572 7.83618C23.4411 7.88135 23.825 7.90393 24.2315 7.99426C25.5187 8.24267 26.0155 8.96533 25.7897 10.2751C25.7219 10.8397 25.2703 11.314 24.6605 11.4043C24.3895 11.4494 24.1185 11.472 23.825 11.472C20.3246 11.4946 16.8017 11.5172 13.3013 11.5172C12.8045 11.5172 12.2851 11.5624 11.7883 11.6527C10.2301 11.9011 9.71065 12.4657 9.57515 14.0465C9.57515 14.182 9.55256 14.3175 9.55256 14.4304C9.6429 14.4304 9.80098 14.4304 9.93647 14.4304H24.3444C24.638 14.4304 24.9315 14.5207 25.1799 14.6562C25.9478 15.153 25.88 15.8983 25.8349 16.4403C25.8349 16.508 25.8123 16.5984 25.8123 16.6661C25.7671 17.2984 25.3832 17.7275 24.6831 17.863C24.4347 17.9082 24.2089 17.9082 23.9831 17.9082H9.6429C9.62031 17.9082 9.57515 17.9082 9.55256 17.9082C9.55256 17.9307 9.55256 17.9533 9.55256 17.9759V17.9985C9.57515 18.4727 9.62031 18.9244 9.73323 19.3761C9.91389 20.0761 10.343 20.5052 11.0656 20.7084C12.0367 20.9794 13.0303 21.0246 13.8885 21.0246C16.5533 21.0472 19.2632 21.0472 21.9054 21.0472H24.1637C24.5025 21.0472 25.2025 21.0472 25.609 21.7021C25.88 22.1312 25.9478 22.628 25.8349 23.1022C25.7219 23.5765 25.4284 23.983 24.9993 24.254C24.8864 24.3217 24.7509 24.3895 24.6154 24.4346C23.7798 24.7056 22.9217 24.7508 22.199 24.7734C20.5956 24.7734 18.9696 24.796 17.3437 24.796ZM5.96188 18.4276C5.98446 18.5857 6.00705 18.7437 6.00705 18.9018C6.05221 19.2631 6.09738 19.6245 6.14254 19.9858C6.50387 22.1086 7.5201 23.1474 9.6429 23.5991C10.5914 23.8023 11.5624 23.9152 12.5335 23.9378C15.7177 24.0056 18.9696 24.0056 22.1764 23.9378C22.8313 23.9152 23.6217 23.8701 24.3444 23.6442C24.4121 23.6216 24.4799 23.5765 24.5476 23.5539C24.7735 23.3958 24.9541 23.17 25.0219 22.899C25.0896 22.628 25.0444 22.357 24.8864 22.1086C24.7509 21.9053 24.5702 21.8376 24.1411 21.8376H21.8828C19.2632 21.8376 16.5307 21.8376 13.8659 21.815C12.9626 21.815 11.9012 21.7698 10.8398 21.4537C9.82356 21.1827 9.19124 20.5278 8.94283 19.5116C8.82991 19.0147 8.76216 18.4953 8.76216 17.9985V17.9759C8.73958 17.6598 8.717 17.4339 8.89766 17.2307C9.07832 17.0274 9.32674 17.0274 9.6429 17.0274H24.0056C24.1863 17.0274 24.3895 17.0274 24.5702 16.9823C24.9315 16.9145 25.0219 16.7564 25.0445 16.5306C25.0445 16.4403 25.067 16.3725 25.067 16.2822C25.1122 15.7176 25.1122 15.4466 24.796 15.2434C24.6831 15.1756 24.525 15.1305 24.3895 15.1305H9.93647C9.43965 15.1305 9.14607 15.1305 8.92024 14.9046C8.69441 14.6788 8.73958 14.3626 8.76216 13.8884C8.92024 11.9463 9.73323 11.0655 11.6528 10.772C12.1948 10.6816 12.7368 10.6365 13.3013 10.6139C16.8243 10.6139 20.3246 10.5913 23.8476 10.5913C24.096 10.5913 24.3218 10.5913 24.5476 10.5461C24.7735 10.5235 24.9541 10.3429 24.9767 10.1171C25.1348 9.21374 24.909 8.92016 24.0508 8.7395C23.6895 8.67175 23.3281 8.62658 22.9668 8.604C22.8087 8.58142 22.6281 8.55884 22.47 8.55884H12.4883C12.2625 8.58142 12.0367 8.604 11.8109 8.62658C11.1108 8.69433 10.4559 8.7395 9.77839 8.89758C7.40719 9.48474 6.36837 10.6365 6.09738 13.0754C6.0748 13.3464 6.02963 13.6174 6.00705 13.911L5.96188 14.2949V18.4276Z" fill="white"/>
</g>
<defs>
<clipPath id="clip0_176_4466">
<rect width="32" height="32" fill="white"/>
</clipPath>
</defs>
</svg>
