<svg width="32" height="32" viewBox="0 0 32 32" fill="none" xmlns="http://www.w3.org/2000/svg">
<g clip-path="url(#clip0_5189_10887)">
<path d="M6.12097 17.4272C9.60257 19.2755 13.2339 21.2109 16.0397 22.7085L25.8778 17.4272C22.3155 22.7187 19.3472 27.1245 16.0397 32C12.7271 27.1347 9.06753 21.7664 6.12097 17.4272ZM6.49985 15.9667L16.0512 10.871L25.4784 15.9309L16.0563 21.033L6.49985 15.9667ZM16.041 9.23776L6.12225 14.4589L15.9975 0L25.8791 14.4922L16.041 9.23776Z" fill="#10B981"/>
<path d="M16.041 22.7085L25.879 17.4272C22.3168 22.7187 16.041 32 16.041 32V22.7085ZM16.0512 10.871L25.4784 15.9309L16.0563 21.033L16.0512 10.871ZM16.041 9.23776L15.9974 0L25.879 14.4922L16.041 9.23776Z" fill="#10B981"/>
<path d="M6.49988 15.968L16.0525 16.7513L25.4784 15.9347L16.0564 21.0381L6.49988 15.968Z" fill="#10B981"/>
<path d="M16.0513 16.7513L25.4785 15.9347L16.0564 21.0381L16.0513 16.7513Z" fill="#10B981"/>
</g>
<defs>
<clipPath id="clip0_5189_10887">
<rect width="32" height="32" fill="white"/>
</clipPath>
</defs>
</svg>
