<svg width="32" height="32" viewBox="0 0 32 32" fill="none" xmlns="http://www.w3.org/2000/svg">
<path d="M6.12012 17.427C9.60117 19.2757 13.2336 21.2108 16.0391 22.7081L25.8768 17.427C22.3147 22.7188 19.3468 27.1243 16.0391 32C12.7255 27.1351 9.06608 21.767 6.12012 17.427ZM6.49848 15.9674L16.0498 10.8707L25.4768 15.9301L16.0552 21.0324L6.49848 15.9674ZM16.0391 9.23777L6.12012 14.4594L15.9958 0L25.8768 14.4918L16.0391 9.23777Z" fill="#3AB83A"/>
<path d="M16.0391 22.7081L25.8769 17.427C22.3148 22.7188 16.0391 32 16.0391 32V22.7081ZM16.0499 10.8707L25.4769 15.9301L16.0553 21.0324L16.0499 10.8707ZM16.0391 9.23816L15.9958 0L25.8769 14.4918L16.0391 9.23816Z" fill="#0B8311"/>
<path d="M6.49854 15.9675L16.0504 16.7513L25.4774 15.9351L16.0553 21.0377L6.49854 15.9675Z" fill="#0B8311"/>
<path d="M16.0498 16.7513L25.4768 15.9351L16.0552 21.0377L16.0498 16.7513Z" fill="#146714"/>
</svg>
