<svg width="32" height="32" viewBox="0 0 32 32" fill="none" xmlns="http://www.w3.org/2000/svg">
    <g clip-path="url(#clip0_5933_436)">
        <mask id="mask0_5933_436" style="mask-type:luminance" maskUnits="userSpaceOnUse" x="0" y="0" width="33" height="33">
            <path d="M32.1335 0.00012207H0.133545V32.0001H32.1335V0.00012207Z" fill="white"/>
        </mask>
        <g mask="url(#mask0_5933_436)">
            <path d="M16.0734 31.8837C24.8786 31.8837 32.0165 24.7457 32.0165 15.9406C32.0165 7.13551 24.8786 -0.00244141 16.0734 -0.00244141C7.26832 -0.00244141 0.130371 7.13551 0.130371 15.9406C0.130371 24.7457 7.26832 31.8837 16.0734 31.8837Z" fill="url(#paint0_linear_5933_436)"/>
            <path d="M24.7703 13.745L16.0619 4.85254L7.35278 13.745L11.7069 18.1908L16.0619 13.745L20.4161 18.1908L24.7703 13.745Z" fill="white"/>
            <path d="M15.7111 26.2234C15.2782 26.2234 14.9057 26.1454 14.5937 25.9894C14.2866 25.8283 14.05 25.6018 13.8839 25.3099C13.7229 25.0129 13.6423 24.6631 13.6423 24.2604V20.8326H14.639V24.2906C14.639 24.6127 14.7296 24.8669 14.9108 25.0532C15.097 25.2394 15.3638 25.3325 15.7111 25.3325C16.0584 25.3325 16.3226 25.2394 16.5038 25.0532C16.6901 24.8669 16.7832 24.6127 16.7832 24.2906V20.8326H17.7798V24.2604C17.7798 24.6631 17.6967 25.0129 17.5306 25.3099C17.3696 25.6018 17.133 25.8283 16.8209 25.9894C16.5139 26.1454 16.1439 26.2234 15.7111 26.2234Z" fill="#1F2333"/>
            <path d="M20.0583 26.1177V20.8326H22.3536C22.6858 20.8326 22.9752 20.8905 23.2218 21.0063C23.4685 21.1221 23.6598 21.2857 23.7957 21.497C23.9316 21.7084 23.9995 21.9576 23.9995 22.2445V22.3351C23.9995 22.6522 23.924 22.9089 23.773 23.1052C23.622 23.3015 23.4358 23.445 23.2143 23.5356V23.6715C23.4156 23.6816 23.5717 23.752 23.6824 23.8829C23.7931 24.0087 23.8485 24.1773 23.8485 24.3887V26.1177H22.8519V24.5322C22.8519 24.4114 22.8192 24.3132 22.7538 24.2377C22.6933 24.1622 22.5902 24.1245 22.4442 24.1245H21.055V26.1177H20.0583ZM21.055 23.2185H22.2479C22.4845 23.2185 22.6682 23.1556 22.7991 23.0297C22.935 22.8988 23.0029 22.7277 23.0029 22.5163V22.4408C23.0029 22.2294 22.9375 22.0608 22.8066 21.9349C22.6757 21.8041 22.4895 21.7387 22.2479 21.7387H21.055V23.2185Z" fill="#1F2333"/>
            <path fill-rule="evenodd" clip-rule="evenodd" d="M8.05444 26.2422V20.7083H11.7008V21.8631H9.29988V22.8751H11.4894V24.03H9.29988V25.0873H11.7461V26.2422H8.05444ZM14.5369 26.1001L14.5358 26.0996C14.2084 25.9278 13.954 25.6848 13.7758 25.3714L13.7752 25.3703L13.7745 25.3692C13.6019 25.0508 13.5179 24.6798 13.5179 24.2604V20.7083H14.7633V24.2906C14.7633 24.5882 14.8462 24.8081 14.9993 24.9658C15.1555 25.1216 15.3863 25.2081 15.711 25.2081C16.0365 25.2081 16.2639 25.1213 16.4146 24.9664L16.4158 24.9652C16.5737 24.8073 16.6587 24.5876 16.6587 24.2906V20.7083H17.9042V24.2604C17.9042 24.6803 17.8175 25.0517 17.6394 25.3702C17.4658 25.6848 17.2106 25.9283 16.878 26.0999L16.8773 26.1003C16.5489 26.2672 16.1586 26.3479 15.711 26.3479C15.2634 26.3479 14.871 26.2672 14.538 26.1007L14.5369 26.1001ZM17.5307 25.3099C17.6968 25.0129 17.7798 24.6631 17.7798 24.2604V20.8327H16.7832V24.2906C16.7832 24.6128 16.6901 24.8669 16.5039 25.0532C16.3227 25.2394 16.0584 25.3325 15.7111 25.3325C15.3638 25.3325 15.097 25.2394 14.9108 25.0532C14.7296 24.8669 14.639 24.6128 14.639 24.2906V20.8327H13.6424V24.2604C13.6424 24.6631 13.7229 25.0129 13.884 25.3099C14.0501 25.6018 14.2866 25.8283 14.5937 25.9894C14.9058 26.1454 15.2782 26.2234 15.7111 26.2234C16.144 26.2234 16.5139 26.1454 16.821 25.9894C17.133 25.8283 17.3696 25.6018 17.5307 25.3099ZM19.9339 26.2422V20.7083H22.3535C22.7001 20.7083 23.0083 20.7686 23.2747 20.8937C23.5407 21.0185 23.7507 21.197 23.9003 21.4298C24.0509 21.664 24.1239 21.9372 24.1239 22.2445V22.3351C24.1239 22.6719 24.0435 22.9576 23.8716 23.1811C23.7438 23.3473 23.5917 23.4796 23.4159 23.5768C23.5588 23.615 23.6808 23.6888 23.7766 23.8016C23.9116 23.9555 23.9729 24.1557 23.9729 24.3888V26.2422H22.7274V24.5322C22.7274 24.4348 22.7016 24.3676 22.6597 24.3192L22.6581 24.3174L22.6566 24.3155C22.6298 24.282 22.572 24.2489 22.4441 24.2489H21.1793V26.2422H19.9339ZM21.055 24.1245H22.4442C22.5902 24.1245 22.6934 24.1622 22.7538 24.2378C22.8192 24.3133 22.8519 24.4114 22.8519 24.5322V26.1178H23.8485V24.3888C23.8485 24.1774 23.7932 24.0087 23.6824 23.8829C23.5717 23.752 23.4157 23.6816 23.2143 23.6715V23.5356C23.4358 23.445 23.622 23.3015 23.773 23.1052C23.924 22.9089 23.9995 22.6522 23.9995 22.3351V22.2445C23.9995 21.9576 23.9316 21.7085 23.7957 21.4971C23.6598 21.2857 23.4685 21.1221 23.2219 21.0063C22.9752 20.8905 22.6858 20.8327 22.3536 20.8327H20.0584V26.1178H21.055V24.1245ZM22.7195 22.0238L22.7186 22.023C22.6176 21.9219 22.467 21.8631 22.2479 21.8631H21.1793V23.0941H22.2479C22.4623 23.0941 22.6114 23.0375 22.7128 22.9401C22.8212 22.8356 22.8785 22.6984 22.8785 22.5163V22.4408C22.8785 22.2572 22.8228 22.1232 22.7203 22.0246L22.7195 22.0238ZM22.7991 23.0297C22.6682 23.1556 22.4845 23.2185 22.2479 23.2185H21.055V21.7387H22.2479C22.4895 21.7387 22.6757 21.8041 22.8066 21.935C22.9375 22.0608 23.0029 22.2294 23.0029 22.4408V22.5163C23.0029 22.7277 22.935 22.8989 22.7991 23.0297Z" fill="#1F2333"/>
        </g>
    </g>
    <defs>
        <linearGradient id="paint0_linear_5933_436" x1="5.30057" y1="25.6023" x2="23.109" y2="9.76352" gradientUnits="userSpaceOnUse">
            <stop offset="0.0729167" stop-color="#AAC4FD"/>
            <stop offset="1" stop-color="#76A0FC"/>
        </linearGradient>
        <clipPath id="clip0_5933_436">
            <rect width="32" height="32" fill="white"/>
        </clipPath>
    </defs>
</svg>
