<svg width="32" height="32" viewBox="0 0 32 32" fill="none" xmlns="http://www.w3.org/2000/svg">
<g clip-path="url(#clip0_4774_63765)">
<path fill-rule="evenodd" clip-rule="evenodd" d="M16.0243 32C7.1744 32 0 24.8256 0 15.9757C0 7.12576 7.1744 -0.0473633 16.0243 -0.0473633C17.2198 -0.0473633 18.368 0.0959967 19.4688 0.335357C17.1251 1.14816 15.0682 2.39232 13.3466 4.01792C11.625 5.64352 10.2362 7.60576 9.42336 9.85344H5.97888L4.30464 13.6806H8.46592C8.41856 14.2067 8.36992 14.7328 8.36992 15.2589C8.36992 16.1203 8.46592 16.9805 8.60928 17.7946H5.50016L4.06528 21.6218H9.8048C10.6662 23.4394 11.8618 25.0662 13.344 26.4525C15.6877 28.6528 18.7008 30.231 22.0979 30.8058C20.233 31.5699 18.176 32 16.0243 32ZM24.2995 2.24768C28.9869 4.92672 32 10.6662 32 16.0243C32 20.7117 29.8957 25.1123 26.4038 28.2214C22.4333 29.0342 18.7981 27.1219 15.9283 24.2509C15.3549 23.6774 14.8762 22.72 14.3974 21.9546C14.3501 21.8586 14.2541 21.7638 14.2067 21.6678H14.2541H23.5341L24.9216 17.9853H12.5325C12.3891 17.3632 12.2931 16.6938 12.2458 16.0243C12.2458 15.785 12.1984 15.5456 12.1984 15.3062V15.2589V15.2115C12.1984 14.6381 12.2458 14.0634 12.2944 13.5373H26.6445L28.1267 9.90208H13.5859C14.208 8.70656 14.9734 7.17568 15.9296 6.21952C18.2259 3.9232 21.0483 2.1056 24.2522 2.24896H24.2995V2.24768Z" fill="url(#paint0_linear_4774_63765)"/>
</g>
<defs>
<linearGradient id="paint0_linear_4774_63765" x1="5.29101" y1="27.8746" x2="26.7199" y2="4.10195" gradientUnits="userSpaceOnUse">
<stop stop-color="#15BCFF"/>
<stop offset="0.3608" stop-color="#219BF6"/>
<stop offset="0.502" stop-color="#2D79ED"/>
<stop offset="0.7216" stop-color="#725DED"/>
<stop offset="1" stop-color="#B741EE"/>
</linearGradient>
<clipPath id="clip0_4774_63765">
<rect width="32" height="32" fill="white"/>
</clipPath>
</defs>
</svg>
