<svg width="32" height="32" viewBox="0 0 32 32" fill="none" xmlns="http://www.w3.org/2000/svg">
    <g clip-path="url(#clip0_5851_6693)">
        <path
            d="M15.9996 31.9991C24.8359 31.9991 31.9991 24.8359 31.9991 15.9996C31.9991 7.16325 24.8359 0 15.9996 0C7.16325 0 0 7.16325 0 15.9996C0 24.8359 7.16325 31.9991 15.9996 31.9991Z"
            fill="url(#paint0_linear_5851_6693)" />
        <path opacity="0.75"
            d="M21.5712 20.0105L19.1133 23.8799H16.165L20.2587 18.5453L16.1411 13.2192H18.9837L21.5695 16.7398H21.6352L24.0855 13.2192H26.7993L22.8761 18.5462L26.7993 23.8799H24.0445L21.6369 20.0105H21.5712Z"
            fill="white" />
        <path opacity="0.25"
            d="M23.3922 17.852L22.8805 18.5513L21.6277 16.7441H21.6371L22.1309 16.0328L23.3922 17.852Z"
            fill="black" />
        <path
            d="M14.6529 21.4919H10.618C9.74043 21.4919 9.01891 21.2668 8.47564 20.8241C8.21428 20.6176 8.00471 20.353 7.86361 20.0512C7.72251 19.7495 7.65378 19.419 7.66287 19.086C7.66287 18.2988 7.94943 17.7283 8.53705 17.3428C9.12467 16.9573 10.0662 16.7586 11.3242 16.7586H13.7173V14.6094H11.3242C10.3008 14.6094 9.45813 14.3996 8.82105 13.9851C8.18397 13.5706 7.87864 13.0094 7.87864 12.2623C7.87864 11.6261 8.09527 11.1374 8.52255 10.8125C8.94983 10.4875 9.59544 10.311 10.4227 10.311H14.6554V8.11829H10.1276C8.68971 8.11829 7.53324 8.46796 6.69062 9.15706C5.84799 9.84617 5.41133 10.8039 5.41133 11.9894C5.41133 12.8252 5.61005 13.5697 6.00236 14.2017C6.36899 14.7911 6.90033 15.2602 7.53068 15.5509C6.85065 15.7876 6.26268 16.2329 5.85055 16.8234C5.4173 17.4502 5.19727 18.2314 5.19727 19.1474C5.19727 20.5273 5.70898 21.642 6.72047 22.4599C7.73195 23.2778 9.05644 23.6855 10.6769 23.6855L14.6588 23.6948L14.6529 21.4919Z"
            fill="white" />
        <path opacity="0.25"
            d="M10.4756 17.0034C10.4526 17.0401 9.03086 16.6495 8.38696 16.3211C7.92757 16.0835 7.48248 15.8192 7.05394 15.5297C6.80004 15.647 6.56285 15.7976 6.34863 15.9774C6.87039 16.3984 7.473 16.7078 8.11916 16.8866C9.2364 17.1944 10.4756 17.0034 10.4756 17.0034Z"
            fill="black" />
    </g>
    <defs>
        <linearGradient id="paint0_linear_5851_6693" x1="16.2375" y1="-2.51422" x2="15.7173"
            y2="38.0331" gradientUnits="userSpaceOnUse">
            <stop stop-color="#208FFF" />
            <stop offset="1" stop-color="#2D65FF" />
        </linearGradient>
        <clipPath id="clip0_5851_6693">
            <rect width="32" height="32" fill="white" />
        </clipPath>
    </defs>
</svg>
    