<svg width="32" height="32" viewBox="0 0 32 32" fill="none" xmlns="http://www.w3.org/2000/svg">
<g clip-path="url(#clip0_4767_68416)">
<path d="M0.5 0V32H31.5V0H0.5ZM11.3374 3.712H14.2358V6.784H11.3374V3.712ZM4.02846 3.712H7.05285V6.784H4.02846V3.712ZM6.92683 11.136V14.208H3.90244V11.136H6.92683ZM6.17073 28.032H4.91057V26.88H6.04472V28.032H6.17073ZM7.05285 21.888H4.02846V18.944H7.05285V21.888ZM13.4797 28.032H12.3455V26.88H13.4797V28.032ZM13.4797 20.864H12.3455V19.712H13.4797V20.864ZM14.3618 14.336H11.3374V11.264H14.3618V14.336ZM20.7886 28.032H19.6545V26.88H20.7886V28.032ZM20.7886 20.864H19.6545V19.712H20.7886V20.864ZM20.7886 13.312H19.6545V12.16H20.7886V13.312ZM21.7967 6.784H18.7724V3.712H21.7967V6.784ZM28.2236 28.032H27.0894V26.88H28.2236V28.032ZM28.2236 20.864H27.0894V19.712H28.2236V20.864ZM28.2236 13.312H27.0894V12.16H28.2236V13.312ZM28.2236 5.888H27.0894V4.736H28.2236V5.888Z" fill="#202944"/>
</g>
<defs>
<clipPath id="clip0_4767_68416">
<rect width="32" height="32" fill="white"/>
</clipPath>
</defs>
</svg>
