<svg width="32" height="32" viewBox="0 0 32 32" fill="none" xmlns="http://www.w3.org/2000/svg">
<g clip-path="url(#clip0_4767_68761)">
<path fill-rule="evenodd" clip-rule="evenodd" d="M28.5213 2.67541L27.1049 11.1738L22.0689 5.2459L28.5213 2.67541ZM27.1049 14.7934L28.364 19.4623L18.7115 22.1377L27.1049 14.7934ZM6.12134 12.4852L11.3148 5.71803H20.2853L26.0033 12.4852H6.12134ZM25.3738 14.1115L16.0361 22.2951L6.48855 14.1115H25.3738ZM9.58363 5.2459L4.96724 11.2787L3.55084 2.67541L9.58363 5.2459ZM13.2558 22.1377L3.49838 19.4623L4.80986 14.8984L13.2558 22.1377ZM15.0394 24.341L13.2033 26.3344C11.6295 24.8656 9.95084 23.5541 8.11478 22.4L15.0394 24.341ZM23.9574 22.4C22.1213 23.5541 20.4426 24.8656 18.8689 26.3344L16.9804 24.2885L23.9574 22.4ZM30.6197 0L20.4951 4.03934H11.0525L1.40002 0L3.6033 13.2721L1.50494 20.459L7.01314 23.7639C9.63609 25.3377 11.9443 27.2787 13.9377 29.5344L16.0885 32L18.3443 29.4295C20.2853 27.2262 22.541 25.3377 25.0066 23.7639L30.3574 20.4066L28.4164 13.2721L30.6197 0Z" fill="#131D27"/>
</g>
<defs>
<clipPath id="clip0_4767_68761">
<rect width="32" height="32" fill="white"/>
</clipPath>
</defs>
</svg>
