<svg width="32" height="32" viewBox="0 0 32 32" fill="none" xmlns="http://www.w3.org/2000/svg">
<g clip-path="url(#clip0_4767_67905)">
<path d="M15.9976 31.0015C24.2832 31.0015 31.0001 24.2847 31.0001 15.9991C31.0001 7.71342 24.2832 0.996582 15.9976 0.996582C7.71195 0.996582 0.995117 7.71342 0.995117 15.9991C0.995117 24.2847 7.71195 31.0015 15.9976 31.0015Z" fill="black" stroke="black" stroke-width="1.2373" stroke-miterlimit="11.3386"/>
<path d="M7.7215 7.65461C7.08893 8.31881 6.56706 8.87758 6.56179 8.88812C6.55651 8.90394 7.12583 9.46271 7.82693 10.1269C8.52803 10.7964 9.13951 11.3815 9.18168 11.4184L9.26075 11.4922L9.11843 11.7294C7.8691 13.7958 7.6108 16.2839 8.39624 18.5717C8.54384 19.004 8.79687 19.5575 9.013 19.9212C9.11843 20.1004 9.16587 20.2164 9.15533 20.2375C9.14478 20.2586 8.50694 20.9333 7.73731 21.7399C6.96769 22.5411 6.34039 23.2106 6.32984 23.2211C6.32457 23.2369 8.48058 25.3192 8.68617 25.4878L8.76524 25.5564L9.98294 24.286C10.6524 23.5849 11.2797 22.9259 11.3746 22.8258L11.5538 22.6465L11.7225 22.752C12.5818 23.3002 13.5886 23.6797 14.7009 23.8801C15.2596 23.9802 16.3245 24.0066 16.9201 23.9328C18.0693 23.801 19.2079 23.4162 20.141 22.8521L20.3835 22.7045L20.6418 22.9576C21.2058 23.5058 23.3144 25.5089 23.3355 25.5195C23.3565 25.53 25.6707 23.1104 25.6654 23.0788C25.6602 23.063 24.0735 21.5395 23.1035 20.6276L22.782 20.3218L22.9296 20.0794C24.1683 18.0182 24.4266 15.5196 23.6254 13.216C23.5094 12.8786 23.1562 12.1195 22.9506 11.7716L22.8505 11.5976L24.2052 10.1796C24.9485 9.40472 25.5547 8.75634 25.5495 8.74052C25.5284 8.68781 23.1562 6.44746 23.1246 6.44746C23.1035 6.44746 22.5078 7.05367 21.7962 7.80221C21.0846 8.54548 20.4942 9.15697 20.4783 9.16224C20.4678 9.16751 20.3993 9.13588 20.336 9.08844C20.1568 8.9672 19.7034 8.71944 19.4504 8.60347C18.6808 8.25028 17.9639 8.03415 17.131 7.91291C16.6987 7.84965 15.402 7.83911 15.0013 7.8971C14.0419 8.03415 13.2565 8.27137 12.4552 8.672C12.2233 8.7827 11.9545 8.9303 11.849 8.99355L11.6593 9.10952L11.4431 8.89867C11.3272 8.7827 10.8 8.28718 10.2781 7.7864C9.75627 7.29088 9.22386 6.78483 9.09734 6.65831L8.8654 6.43164L7.7215 7.65461ZM16.5722 11.0916C17.4104 11.1917 18.1589 11.4764 18.8495 11.9614C19.2027 12.2091 19.7298 12.7363 19.9776 13.0894C21.385 15.082 21.1162 17.7916 19.345 19.4521C17.8321 20.8648 15.6444 21.1811 13.8047 20.2428C12.4763 19.5628 11.538 18.3187 11.2375 16.8269C11.1427 16.3525 11.1427 15.4669 11.2375 14.9977C11.3272 14.5338 11.4484 14.2017 11.6751 13.7378C12.5818 11.9139 14.548 10.8491 16.5722 11.0916Z" fill="white"/>
</g>
<defs>
<clipPath id="clip0_4767_67905">
<rect width="32" height="32" fill="white"/>
</clipPath>
</defs>
</svg>
