<svg width="32" height="32" viewBox="0 0 32 32" fill="none" xmlns="http://www.w3.org/2000/svg">
<g clip-path="url(#clip0_5488_585)">
<path d="M16 32C13.8404 32 11.7451 31.5767 9.77182 30.7424C7.86622 29.9364 6.15593 28.7826 4.68609 27.3139C3.21739 25.8452 2.06364 24.1338 1.2576 22.2282C0.42334 20.2549 0 18.1596 0 16C0 13.8404 0.42334 11.7451 1.2576 9.77182C2.06364 7.86622 3.21739 6.15593 4.68609 4.68609C6.15593 3.21739 7.86622 2.06364 9.77182 1.2576C11.7451 0.42334 13.8404 0 16 0C18.1596 0 20.2549 0.42334 22.2282 1.2576C24.1338 2.06364 25.8441 3.21739 27.3139 4.68609C28.7826 6.1548 29.9364 7.86622 30.7424 9.77182C31.5767 11.7451 32 13.8404 32 16C32 18.1596 31.5767 20.2549 30.7424 22.2282C29.9364 24.1338 28.7826 25.8441 27.3139 27.3139C25.8452 28.7826 24.1338 29.9364 22.2282 30.7424C20.2549 31.5778 18.1596 32 16 32Z" fill="white"/>
<path d="M16.0001 31.1522C24.3684 31.1522 31.1523 24.3683 31.1523 16C31.1523 7.63165 24.3684 0.847778 16.0001 0.847778C7.63177 0.847778 0.8479 7.63165 0.8479 16C0.8479 24.3683 7.63177 31.1522 16.0001 31.1522Z" fill="black"/>
<path d="M16.3726 13.1541V20.1352L23.207 15.9933L16.3726 13.1541Z" fill="white"/>
<path d="M16.3726 12.366L23.1449 15.1804L21.526 12.541L24.9681 9.09897L22.9112 7.04097L19.9625 9.9908L16.3726 4.13855V12.366Z" fill="white"/>
<path d="M15.6454 20.1352V13.1541L8.81104 15.9933L15.6454 20.1352Z" fill="white"/>
<path d="M8.87323 15.1804L15.6455 12.366V4.13855L12.0568 9.9908L9.10692 7.04097L7.05005 9.09897L10.4921 12.5399L8.87323 15.1804Z" fill="white"/>
<path d="M23.1302 18.1664L16.3726 22.2621V27.6865L19.1531 23.768L22.0555 26.6704L24.1123 24.6136L20.8611 21.3623L23.1302 18.1664Z" fill="white"/>
<path d="M15.6455 22.2621L8.88791 18.1664L11.157 21.3623L7.90576 24.6136L9.96263 26.6704L12.8651 23.7691L15.6455 27.6853V22.2621Z" fill="white"/>
</g>
<defs>
<clipPath id="clip0_5488_585">
<rect width="32" height="32" fill="white"/>
</clipPath>
</defs>
</svg>
