<svg width="32" height="32" viewBox="0 0 32 32" fill="none" xmlns="http://www.w3.org/2000/svg">
<g clip-path="url(#clip0_5488_611)">
<path d="M16 32C13.8404 32 11.7451 31.5767 9.77182 30.7424C7.86622 29.9364 6.15593 28.7826 4.68609 27.3139C3.21739 25.8452 2.06364 24.1338 1.2576 22.2282C0.42334 20.2549 0 18.1596 0 16C0 13.8404 0.42334 11.7451 1.2576 9.77182C2.06364 7.86622 3.21739 6.15593 4.68609 4.68609C6.15593 3.21739 7.86622 2.06364 9.77182 1.2576C11.7451 0.42334 13.8404 0 16 0C18.1596 0 20.2549 0.42334 22.2282 1.2576C24.1338 2.06364 25.8441 3.21739 27.3139 4.68609C28.7826 6.1548 29.9364 7.86622 30.7424 9.77182C31.5767 11.7451 32 13.8404 32 16C32 18.1596 31.5767 20.2549 30.7424 22.2282C29.9364 24.1338 28.7826 25.8441 27.3139 27.3139C25.8452 28.7826 24.1338 29.9364 22.2282 30.7424C20.2549 31.5778 18.1596 32 16 32Z" fill="white"/>
<path d="M16.0001 31.1522C24.3684 31.1522 31.1523 24.3683 31.1523 16C31.1523 7.63165 24.3684 0.847778 16.0001 0.847778C7.63177 0.847778 0.8479 7.63165 0.8479 16C0.8479 24.3683 7.63177 31.1522 16.0001 31.1522Z" fill="black"/>
<path d="M22.1538 19.6768C22.1538 18.2759 21.5713 17.1255 20.4232 16.2551C19.5742 15.6117 18.3877 15.0845 16.463 14.4929C12.9983 13.4283 12.9983 12.8154 12.9983 12.322C12.9983 11.6402 14.0076 10.6953 15.9008 10.6953C17.0218 10.6953 18.9025 10.9775 18.9025 12.8695H22.0544C22.0544 11.9777 21.8546 11.1457 21.4764 10.4198L24.0052 7.89106L21.7767 5.6626L19.1994 8.24102C18.2647 7.78269 17.1459 7.54449 15.9019 7.54449C14.7425 7.54449 13.6768 7.76801 12.7579 8.19812L10.2235 5.66373L7.99503 7.89219L10.3996 10.2968C10.0406 10.9244 9.84756 11.6176 9.84756 12.3231C9.84756 13.7241 10.4301 14.8745 11.5782 15.7449C12.4271 16.3883 13.6102 16.9144 15.535 17.506C18.9996 18.5694 19.0019 19.1846 19.0019 19.678C19.0019 20.3598 17.9926 21.3047 16.0995 21.3047C14.9784 21.3047 13.0977 21.0225 13.0977 19.1305H9.94578C9.94578 20.0257 10.1467 20.8599 10.5272 21.5881L7.9939 24.1214L10.2224 26.3498L12.8087 23.7635C13.7423 24.2196 14.8577 24.4566 16.0983 24.4566C17.2543 24.4566 18.3166 24.2342 19.2333 23.8075L21.7767 26.3509L24.0052 24.1225L21.5961 21.7134C21.9585 21.0812 22.1538 20.3869 22.1538 19.6768Z" fill="white"/>
</g>
<defs>
<clipPath id="clip0_5488_611">
<rect width="32" height="32" fill="white"/>
</clipPath>
</defs>
</svg>
