<svg width="32" height="32" viewBox="0 0 32 32" fill="none" xmlns="http://www.w3.org/2000/svg">
<circle cx="16" cy="16" r="16" fill="#5326EC"/>
<path d="M28.9543 18.1549C28.8766 18.513 28.815 18.8757 28.7186 19.2283C27.6955 22.9731 25.4669 25.7721 22.0069 27.5598C19.4222 28.8958 16.665 29.2971 13.7991 28.7854C10.4849 28.1944 7.7918 26.5494 5.71573 23.9107C5.69663 23.8864 5.70938 23.802 5.73427 23.7825C9.1704 21.2192 12.6089 18.6592 16.0497 16.1027C16.1303 16.0481 16.2277 16.0238 16.3246 16.0343C20.5504 16.6342 24.7755 17.2378 29 17.8451L28.9543 18.1549Z" fill="#FCFCFF"/>
<path d="M18.2461 3.16441C18.5974 3.24214 18.9511 3.30876 19.2995 3.39751C21.3398 3.91793 23.1502 4.87223 24.7306 6.26042C24.7412 6.27097 24.7512 6.28209 24.7605 6.29373L23.4989 7.23127C23.2243 7.43532 22.951 7.64121 22.674 7.84184C22.6572 7.84953 22.6387 7.85301 22.6203 7.85198C22.6018 7.85095 22.5839 7.84544 22.5681 7.83594C20.9567 6.57847 19.1325 5.84501 17.0955 5.63554C12.5379 5.16828 8.12559 7.79627 6.40567 12.0201C5.34068 14.6372 5.342 17.2686 6.37502 19.9C6.3849 19.925 6.37823 19.9762 6.3602 19.9887C5.67185 20.5052 4.98163 21.02 4.28956 21.5329C4.28282 21.5379 4.2748 21.5416 4.25944 21.5507C4.21515 21.4547 4.17009 21.3615 4.12868 21.267C2.98263 18.6504 2.701 15.9446 3.32202 13.1564C4.61421 7.36052 9.69107 3.18769 15.6701 3.00348C16.2746 2.98497 16.8815 3.0452 17.487 3.06894L17.6107 3.07341L18.2461 3.16441Z" fill="#FCFCFF"/>
<path d="M23.6722 11.8664C23.7507 11.3314 24.0129 10.84 24.4145 10.4758C24.816 10.1116 25.3319 9.89719 25.8744 9.86895C26.4169 9.84072 26.9525 10.0005 27.39 10.321C27.8274 10.6415 28.1398 11.103 28.2738 11.6269C28.4079 12.1508 28.3553 12.7048 28.1252 13.1945C27.895 13.6842 27.5014 14.0794 27.0114 14.3128C26.5214 14.5463 25.9653 14.6035 25.4376 14.4748C24.91 14.346 24.4435 14.0393 24.1175 13.6069C23.932 13.3601 23.7971 13.0794 23.7207 12.7808C23.6443 12.4821 23.6278 12.1714 23.6722 11.8664Z" fill="#FCFCFF"/>
</svg>
