<svg width="32" height="32" viewBox="0 0 32 32" fill="none" xmlns="http://www.w3.org/2000/svg">
<g clip-path="url(#clip0_4767_67444)">
<path d="M9.40565 18.2205C10.3253 18.2205 11.2225 17.914 11.9477 17.3533L6.11593 11.5215C4.71033 13.3383 5.04677 15.9551 6.8636 17.3607C7.59631 17.914 8.48603 18.2205 9.40565 18.2205Z" fill="#00193C"/>
<path d="M26.7514 14.056C26.7514 13.1363 26.4449 12.2391 25.8841 11.5139L20.0524 17.3457C21.8692 18.7513 24.4785 18.4149 25.8841 16.598C26.4449 15.8728 26.7514 14.9756 26.7514 14.056Z" fill="#00193C"/>
<path d="M29.6897 7.7085L27.1103 10.2879C29.1888 12.7777 28.8598 16.4861 26.3701 18.5646C24.1869 20.3889 21.0168 20.3889 18.8336 18.5646L16 21.3982L13.1738 18.572C10.6841 20.6506 6.9757 20.3216 4.8972 17.8319C3.0729 15.6487 3.0729 12.4786 4.8972 10.2954L3.57383 8.97205L2.31776 7.7085C0.8 10.2057 0 13.0767 0 16.0001C0 24.8375 7.16262 32.0001 16 32.0001C24.8374 32.0001 32 24.8375 32 16.0001C32.0075 13.0767 31.2 10.2057 29.6897 7.7085Z" fill="#00193C"/>
<path d="M27.5738 4.95692C21.4804 -1.43561 11.357 -1.67486 4.9645 4.4186C4.77758 4.59804 4.59815 4.77748 4.42618 4.95692C4.02992 5.37561 3.65609 5.80925 3.30469 6.26533L16 18.9681L28.6953 6.26533C28.3514 5.80925 27.9701 5.37561 27.5738 4.95692ZM16 2.09337C19.7383 2.09337 23.2224 3.53636 25.8393 6.16813L16 16.0074L6.16076 6.16813C8.77758 3.53636 12.2617 2.09337 16 2.09337Z" fill="#00193C"/>
</g>
<defs>
<clipPath id="clip0_4767_67444">
<rect width="32" height="32" fill="white"/>
</clipPath>
</defs>
</svg>
