<svg width="32" height="32" viewBox="0 0 32 32" fill="none" xmlns="http://www.w3.org/2000/svg">
<g clip-path="url(#clip0_174_4423)">
<path d="M9.40561 18.2205C10.3252 18.2205 11.2224 17.914 11.9477 17.3533L6.11589 11.5215C4.71028 13.3383 5.04673 15.9551 6.86355 17.3607C7.59626 17.914 8.48598 18.2205 9.40561 18.2205Z" fill="#00193C"/>
<path d="M26.7514 14.0562C26.7514 13.1366 26.4449 12.2394 25.8841 11.5142L20.0523 17.3459C21.8692 18.7515 24.4785 18.4151 25.8841 16.5983C26.4449 15.873 26.7514 14.9758 26.7514 14.0562Z" fill="#00193C"/>
<path d="M29.6897 7.7085L27.1103 10.2879C29.1888 12.7777 28.8598 16.4861 26.3701 18.5646C24.1869 20.3889 21.0168 20.3889 18.8336 18.5646L16 21.3982L13.1738 18.572C10.6841 20.6506 6.9757 20.3216 4.8972 17.8319C3.0729 15.6487 3.0729 12.4786 4.8972 10.2954L3.57383 8.97205L2.31776 7.7085C0.8 10.2057 0 13.0767 0 16.0001C0 24.8375 7.16262 32.0001 16 32.0001C24.8374 32.0001 32 24.8375 32 16.0001C32.0075 13.0767 31.2 10.2057 29.6897 7.7085Z" fill="#00193C"/>
<path d="M27.5738 4.95692C21.4804 -1.43561 11.357 -1.67486 4.96449 4.4186C4.77757 4.59804 4.59813 4.77748 4.42617 4.95692C4.02991 5.37561 3.65607 5.80925 3.30467 6.26533L16 18.9681L28.6953 6.26533C28.3514 5.80925 27.9701 5.37561 27.5738 4.95692ZM16 2.09337C19.7383 2.09337 23.2224 3.53636 25.8393 6.16813L16 16.0074L6.16075 6.16813C8.77757 3.53636 12.2617 2.09337 16 2.09337Z" fill="#00193C"/>
</g>
<defs>
<clipPath id="clip0_174_4423">
<rect width="32" height="32" fill="white"/>
</clipPath>
</defs>
</svg>
