<svg width="32" height="32" viewBox="0 0 32 32" fill="none" xmlns="http://www.w3.org/2000/svg">
<g clip-path="url(#clip0_4767_67665)">
<path d="M16.0011 0C7.17759 0 0 7.17759 0 16.0011C0 24.8247 7.17759 32.0023 16.0011 32.0023C24.8247 32.0023 32.0023 24.8247 32.0023 16.0011C32.0023 7.17759 24.8224 0 16.0011 0ZM16.0011 31.0946C7.67883 31.0946 0.907641 24.3234 0.907641 16.0011C0.907641 7.67883 7.67657 0.907641 16.0011 0.907641C24.3257 0.907641 31.0946 7.67883 31.0946 16.0011C31.0946 24.3234 24.3234 31.0946 16.0011 31.0946ZM19.0492 9.25026L17.6448 10.6546C17.1684 10.3137 16.5859 10.115 15.956 10.115C14.3484 10.115 13.0411 11.4223 13.0411 13.0298C13.0411 14.4726 14.0933 15.6715 15.4705 15.904V16.9584C14.0933 17.191 13.0411 18.3899 13.0411 19.8326C13.0411 21.4402 14.3484 22.7475 15.956 22.7475C17.5635 22.7475 18.8708 21.4402 18.8708 19.8326C18.8708 18.3899 17.8187 17.191 16.4414 16.9584V15.904C17.8187 15.6715 18.8708 14.4726 18.8708 13.0298C18.8708 12.4022 18.6699 11.8197 18.3312 11.341L19.7356 9.93664L19.0492 9.25026ZM17.9 19.8349C17.9 20.9074 17.0284 21.7789 15.956 21.7789C14.8835 21.7789 14.012 20.9074 14.012 19.8349C14.012 18.7624 14.8835 17.8909 15.956 17.8909C17.0284 17.8909 17.9 18.7624 17.9 19.8349ZM15.956 14.9738C14.8835 14.9738 14.012 14.1023 14.012 13.0298C14.012 11.9574 14.8835 11.0859 15.956 11.0859C17.0284 11.0859 17.9 11.9574 17.9 13.0298C17.9 14.1023 17.0284 14.9738 15.956 14.9738Z" fill="#181EA9"/>
</g>
<defs>
<clipPath id="clip0_4767_67665">
<rect width="32" height="32" fill="white"/>
</clipPath>
</defs>
</svg>
