<svg width="32" height="32" viewBox="0 0 32 32" fill="none" xmlns="http://www.w3.org/2000/svg">
<g clip-path="url(#clip0_4767_67283)">
<path d="M16 32C24.8366 32 32 24.8366 32 16C32 7.16344 24.8366 0 16 0C7.16344 0 0 7.16344 0 16C0 24.8366 7.16344 32 16 32Z" fill="#6747ED"/>
<path fill-rule="evenodd" clip-rule="evenodd" d="M15.7667 18.0666C13.4 18.0666 11.5 16.1666 11.5 13.7999C11.5 11.4332 13.4 9.53324 15.7667 9.53324C18.1334 9.53324 20.0334 11.4332 20.0334 13.7999C20.0334 16.1666 18.1334 18.0666 15.7667 18.0666ZM15.7667 7.3999C19.3 7.3999 22.1667 10.2666 22.1667 13.7999C22.1667 17.3332 19.3 20.1999 15.7667 20.1999C12.2334 20.1999 9.3667 17.3332 9.3667 13.7999C9.3667 10.2666 12.2334 7.3999 15.7667 7.3999ZM21.8667 20.5332C22.3 20.9666 22.3 21.6332 21.8667 22.0332L17.6 26.2999C17.1667 26.7332 16.5 26.7332 16.1 26.2999C15.6667 25.8666 15.6667 25.1999 16.1 24.7999L20.3667 20.5332C20.7667 20.0999 21.4667 20.0999 21.8667 20.5332ZM24.3334 8.46657C24.3334 9.06657 23.8667 9.53324 23.2667 9.53324C22.6667 9.53324 22.2 9.06657 22.2 8.46657C22.2 7.86657 22.6667 7.3999 23.2667 7.3999C23.8334 7.3999 24.3334 7.86657 24.3334 8.46657Z" fill="white"/>
</g>
<defs>
<clipPath id="clip0_4767_67283">
<rect width="32" height="32" fill="white"/>
</clipPath>
</defs>
</svg>
