<svg width="32" height="32" viewBox="0 0 32 32" fill="none" xmlns="http://www.w3.org/2000/svg">
<g clip-path="url(#clip0_176_4457)">
<path d="M16 32C24.8366 32 32 24.8366 32 16C32 7.16344 24.8366 0 16 0C7.16344 0 0 7.16344 0 16C0 24.8366 7.16344 32 16 32Z" fill="#6747ED"/>
<path fill-rule="evenodd" clip-rule="evenodd" d="M15.7666 18.0666C13.4 18.0666 11.5 16.1666 11.5 13.7999C11.5 11.4332 13.4 9.53324 15.7666 9.53324C18.1333 9.53324 20.0333 11.4332 20.0333 13.7999C20.0333 16.1666 18.1333 18.0666 15.7666 18.0666ZM15.7666 7.3999C19.3 7.3999 22.1666 10.2666 22.1666 13.7999C22.1666 17.3332 19.3 20.1999 15.7666 20.1999C12.2333 20.1999 9.36664 17.3332 9.36664 13.7999C9.36664 10.2666 12.2333 7.3999 15.7666 7.3999ZM21.8666 20.5332C22.3 20.9666 22.3 21.6332 21.8666 22.0332L17.6 26.2999C17.1666 26.7332 16.5 26.7332 16.1 26.2999C15.6666 25.8666 15.6666 25.1999 16.1 24.7999L20.3666 20.5332C20.7666 20.0999 21.4666 20.0999 21.8666 20.5332ZM24.3333 8.46657C24.3333 9.06657 23.8666 9.53324 23.2666 9.53324C22.6666 9.53324 22.2 9.06657 22.2 8.46657C22.2 7.86657 22.6666 7.3999 23.2666 7.3999C23.8333 7.3999 24.3333 7.86657 24.3333 8.46657Z" fill="white"/>
</g>
<defs>
<clipPath id="clip0_176_4457">
<rect width="32" height="32" fill="white"/>
</clipPath>
</defs>
</svg>
