<svg width="32" height="32" viewBox="0 0 32 32" fill="none" xmlns="http://www.w3.org/2000/svg">
<g clip-path="url(#clip0_4767_68696)">
<path d="M16 31.0122C24.2911 31.0122 31.0124 24.291 31.0124 15.9999C31.0124 7.70881 24.2911 0.987549 16 0.987549C7.70893 0.987549 0.987671 7.70881 0.987671 15.9999C0.987671 24.291 7.70893 31.0122 16 31.0122Z" stroke="#0E0333" stroke-width="2"/>
<path fill-rule="evenodd" clip-rule="evenodd" d="M19.6543 13.7284C20.2469 14.5185 20.5432 15.6049 20.5432 16.5926C20.5432 17.5802 20.2469 18.5679 19.6543 19.358L20.8395 20.2469C21.6296 19.1605 22.0247 17.8765 22.0247 16.4938C22.0247 15.1111 21.5308 13.7284 20.7407 12.5432L20.0494 13.1358L19.6543 13.7284Z" fill="#02E2AC"/>
<path fill-rule="evenodd" clip-rule="evenodd" d="M21.9259 21.1358L17.7778 17.9753C18.0741 17.5803 18.2716 17.0865 18.2716 16.5926C18.2716 16.0988 18.1729 15.605 17.8766 15.2099L19.8519 13.4321L21.9259 11.4568C22.0247 11.3581 22.0247 11.0618 21.9259 10.963L21.7284 10.7655C20.2469 9.28399 18.2716 8.3951 16.1976 8.29633V7.11115C16.1976 7.01238 16.1976 6.91362 16.1976 6.91362C16.1976 6.81485 16.0988 6.81485 16.0988 6.71609C16.0988 6.61732 16 6.61732 15.9013 6.61732C15.8025 6.61732 15.8025 6.51855 15.7037 6.51855C15.605 6.51855 15.5062 6.51855 15.5062 6.61732C15.4074 6.61732 15.4074 6.71609 15.3087 6.71609C15.2099 6.81485 15.2099 6.91362 15.1111 6.91362C15.1111 7.01238 15.1111 7.11115 15.1111 7.11115V8.29633C14.6173 8.3951 14.1235 8.3951 13.6297 8.59263V7.11115C13.6297 7.01238 13.6297 6.91362 13.6297 6.91362C13.6297 6.81485 13.5309 6.81485 13.5309 6.71609C13.4321 6.61732 13.4321 6.61732 13.3334 6.61732C13.2346 6.61732 13.2346 6.51855 13.1358 6.51855C13.0371 6.51855 12.9383 6.51855 12.9383 6.61732C12.8395 6.61732 12.8395 6.71609 12.7408 6.71609C12.642 6.81485 12.642 6.91362 12.642 6.91362C12.642 7.01238 12.642 7.11115 12.642 7.11115V8.98769C10.963 9.77781 9.58027 11.0618 8.69138 12.7408C7.80249 14.4198 7.60496 16.2963 7.90126 18.1729C8.29632 20.0494 9.28397 21.6297 10.6667 22.8148C12.0494 24 13.9259 24.6914 15.8025 24.6914H21.8272C22.0247 24.6914 22.1235 24.4939 22.1235 24.3951V21.3334C22.1235 21.3334 22.0247 21.2346 21.9259 21.1358ZM15.9013 23.3087C14.4198 23.3087 12.9383 22.8148 11.8519 21.926C10.6667 21.0371 9.87657 19.7531 9.4815 18.2716C9.08644 16.7902 9.18521 15.3087 9.7778 13.926C10.3704 12.5432 11.358 11.4568 12.642 10.6667V12.8395C12.642 12.9383 12.642 13.0371 12.642 13.0371C12.642 13.1358 12.7408 13.1358 12.7408 13.2346C12.8395 13.3334 12.8395 13.3334 12.9383 13.3334C13.0371 13.3334 13.0371 13.4321 13.1358 13.4321C13.2346 13.4321 13.3334 13.4321 13.3334 13.3334C13.4321 13.3334 13.4321 13.2346 13.5309 13.2346C13.6297 13.1358 13.6297 13.1358 13.6297 13.0371C13.6297 12.9383 13.6297 12.8395 13.6297 12.8395V10.0741C14.4198 9.77781 15.1111 9.67905 15.9013 9.67905C17.3827 9.67905 18.7655 10.1729 19.9506 11.0618C20.0494 11.1605 20.0494 11.2593 19.9506 11.3581L16.7901 14.321C16.4938 14.2223 16.1976 14.1235 15.9013 14.1235C15.605 14.1235 15.2099 14.2223 14.9136 14.321C14.6173 14.4198 14.321 14.7161 14.1235 14.9136C13.9259 15.2099 13.7284 15.5062 13.6297 15.8025C13.5309 16.0988 13.5309 16.4939 13.5309 16.7902C13.6297 17.1852 13.7284 17.4815 13.9259 17.7778C14.1235 18.0741 14.321 18.2716 14.6173 18.4692C14.9136 18.6667 15.2099 18.7655 15.605 18.8642C15.9013 18.963 16.2963 18.8642 16.5926 18.7655L20.642 21.8272L20.7408 21.926V23.0124C20.7408 23.1111 20.642 23.2099 20.5432 23.2099L15.9013 23.3087ZM16.8889 16.5926C16.8889 16.7902 16.7901 16.9877 16.6914 17.0865C16.5926 17.284 16.3951 17.3828 16.2963 17.4815C16.0988 17.5803 15.9013 17.5803 15.7037 17.5803C15.5062 17.5803 15.3087 17.4815 15.2099 17.284C15.1111 17.1852 15.0124 16.9877 14.9136 16.7902C14.9136 16.5926 14.9136 16.3951 15.0124 16.1976C15.1111 16 15.2099 15.9013 15.4074 15.8025C15.605 15.7037 15.7037 15.605 15.9013 15.605C16.1976 15.605 16.3951 15.7037 16.5926 15.9013C16.7901 16 16.8889 16.2963 16.8889 16.5926Z" fill="#02E2AC"/>
</g>
<defs>
<clipPath id="clip0_4767_68696">
<rect width="32" height="32" fill="white"/>
</clipPath>
</defs>
</svg>
