<svg width="32" height="32" viewBox="0 0 32 32" fill="none" xmlns="http://www.w3.org/2000/svg">
<g clip-path="url(#clip0_4767_67755)">
<path d="M16 32C24.8366 32 32 24.8366 32 16C32 7.16344 24.8366 0 16 0C7.16344 0 0 7.16344 0 16C0 24.8366 7.16344 32 16 32Z" fill="#00DCFA"/>
<path d="M19.378 5C15.508 5 12.221 7.976 11.808 11.807C7.975 12.221 5 15.508 5 19.377C5.00106 21.3982 5.8044 23.3364 7.23354 24.7658C8.66269 26.1951 10.6008 26.9987 12.622 27C16.492 27 19.792 24.024 20.192 20.193C24.024 19.779 27 16.492 27 12.623C26.9989 10.6018 26.1956 8.66358 24.7665 7.23425C23.3373 5.80492 21.3992 5.00132 19.378 5ZM25.214 13.476C25.0237 14.7261 24.4388 15.8826 23.5447 16.7767C22.6506 17.6708 21.4941 18.2557 20.244 18.446V13.476H25.214ZM6.786 18.524C6.97375 17.2716 7.55753 16.1122 8.45185 15.2155C9.34618 14.3188 10.5041 13.732 11.756 13.541V18.511H6.786V18.524ZM18.459 20.244C18.2525 21.6442 17.5492 22.9233 16.4775 23.8478C15.4058 24.7722 14.0373 25.2802 12.622 25.279C11.207 25.2802 9.8387 24.7723 8.76719 23.8481C7.69569 22.9238 6.99247 21.6449 6.786 20.245H18.459V20.244ZM18.524 13.476V18.511H13.476V13.476H18.524ZM25.214 11.756H13.541C13.7475 10.3558 14.4508 9.07668 15.5225 8.15224C16.5942 7.2278 17.9627 6.71978 19.378 6.721C20.793 6.71978 22.1613 7.22769 23.2328 8.15195C24.3043 9.0762 25.0075 10.3551 25.214 11.755V11.756Z" fill="white"/>
</g>
<defs>
<clipPath id="clip0_4767_67755">
<rect width="32" height="32" fill="white"/>
</clipPath>
</defs>
</svg>
