<svg width="32" height="32" viewBox="0 0 32 32" fill="none" xmlns="http://www.w3.org/2000/svg">
<g clip-path="url(#clip0_176_4981)">
<circle cx="16" cy="16" r="16" fill="white"/>
<path d="M23.5174 10.2193L17.187 6.59441C16.8166 6.38151 16.3966 6.27012 15.9694 6.2715C15.5422 6.27288 15.1229 6.38697 14.7539 6.60226L8.44675 10.2708C8.07843 10.4858 7.77286 10.7935 7.56045 11.1633C7.34805 11.5331 7.23622 11.9521 7.23611 12.3785L7.26085 19.6763C7.26342 20.1036 7.37796 20.5228 7.59306 20.8921C7.80816 21.2613 8.11629 21.5677 8.48674 21.7808L14.8153 25.4047C15.1859 25.6179 15.6061 25.7296 16.0337 25.7284C16.4612 25.7272 16.8809 25.6131 17.2502 25.3978L23.5592 21.7282C23.9264 21.5116 24.2307 21.2028 24.4419 20.8325C24.6531 20.4622 24.764 20.0431 24.7636 19.6168L24.7388 12.3192C24.7357 11.8931 24.6214 11.4752 24.4071 11.1069C24.1929 10.7386 23.8862 10.4326 23.5174 10.2193V10.2193Z" fill="#FFF19F"/>
<path d="M20.6461 12.4273L16.7335 10.1869C16.5046 10.0553 16.245 9.98646 15.981 9.98731C15.717 9.98816 15.4578 10.0587 15.2297 10.1917L11.3317 12.4591C11.104 12.592 10.9151 12.7822 10.7838 13.0108C10.6525 13.2394 10.5834 13.4985 10.5835 13.7621L10.5987 18.2725C10.6002 18.5366 10.6709 18.7958 10.8038 19.0241C10.9368 19.2524 11.1272 19.4419 11.3562 19.5736L15.2676 21.8135C15.4966 21.9453 15.7564 22.0143 16.0207 22.0135C16.2849 22.0127 16.5443 21.9423 16.7725 21.8092L20.6718 19.5412C20.8988 19.4072 21.087 19.2164 21.2175 18.9874C21.3481 18.7584 21.4166 18.4993 21.4162 18.2357L21.401 13.7253C21.3991 13.462 21.3285 13.2036 21.1961 12.9759C21.0637 12.7483 20.8741 12.5591 20.6461 12.4273V12.4273Z" fill="#FFDD0F"/>
<path d="M18.8715 13.7912L16.4533 12.4066C16.3119 12.3252 16.1514 12.2827 15.9883 12.2832C15.8251 12.2837 15.665 12.3273 15.524 12.4096L13.1152 13.811C12.9745 13.8931 12.8578 14.0106 12.7766 14.1519C12.6955 14.2932 12.6528 14.4533 12.6528 14.6162L12.6623 17.4038C12.6633 17.5671 12.707 17.7272 12.7892 17.8682C12.8713 18.0093 12.989 18.1264 13.1305 18.2078L15.5479 19.592C15.6894 19.6734 15.8499 19.7161 16.0133 19.7156C16.1766 19.7152 16.3369 19.6716 16.4779 19.5894L18.8879 18.1877C19.0282 18.1049 19.1444 17.987 19.2251 17.8455C19.3058 17.7041 19.3482 17.544 19.3481 17.3811L19.3386 14.5935C19.3374 14.4307 19.2936 14.271 19.2117 14.1302C19.1298 13.9895 19.0125 13.8726 18.8715 13.7912V13.7912Z" fill="#FFDD0F"/>
<path d="M43.0222 10.1529L36.6918 6.52806C36.3214 6.31514 35.9014 6.20373 35.4742 6.20509C35.047 6.20645 34.6277 6.32053 34.2587 6.5358L27.9515 10.2045C27.5831 10.4195 27.2775 10.7273 27.0651 11.0972C26.8527 11.4671 26.741 11.8862 26.741 12.3127L26.7657 19.6104C26.7682 20.0377 26.8828 20.4569 27.0979 20.8262C27.313 21.1955 27.6211 21.5019 27.9916 21.7149L34.3203 25.3389C34.6909 25.5521 35.1111 25.6638 35.5387 25.6625C35.9662 25.6613 36.3858 25.5473 36.7552 25.332L43.0641 21.6623C43.4313 21.4457 43.7355 21.137 43.9468 20.7667C44.158 20.3964 44.2689 19.9773 44.2685 19.551L44.2437 12.2533C44.2407 11.8272 44.1265 11.4092 43.9122 11.0407C43.698 10.6723 43.3912 10.3662 43.0222 10.1529V10.1529Z" fill="#FFF19F"/>
<path d="M40.1503 12.3608L36.2379 10.1205C36.009 9.9889 35.7494 9.92006 35.4853 9.92091C35.2213 9.92176 34.9622 9.99227 34.7341 10.1253L30.8359 12.3927C30.6083 12.5256 30.4194 12.7158 30.2881 12.9444C30.1568 13.1731 30.0877 13.4321 30.0877 13.6957L30.1031 18.206C30.1046 18.4701 30.1753 18.7293 30.3082 18.9576C30.4411 19.1859 30.6316 19.3754 30.8606 19.5071L34.7719 21.7469C35.001 21.8787 35.2607 21.9477 35.5249 21.947C35.7892 21.9462 36.0485 21.8758 36.2768 21.7427L40.176 19.4746C40.403 19.3408 40.5911 19.15 40.7216 18.9211C40.8522 18.6922 40.9208 18.4332 40.9205 18.1697L40.9052 13.6594C40.9034 13.3959 40.8328 13.1375 40.7004 12.9097C40.568 12.6819 40.3784 12.4927 40.1503 12.3608V12.3608Z" fill="#FFEB6F"/>
<path d="M3.70802 10.2857L-2.62246 6.66082C-2.99284 6.44791 -3.41284 6.33652 -3.84005 6.3379C-4.26726 6.33928 -4.68655 6.45338 -5.05555 6.66867L-11.3627 10.3372C-11.731 10.5522 -12.0366 10.8599 -12.249 11.2297C-12.4613 11.5995 -12.5732 12.0185 -12.5732 12.4449L-12.5485 19.7427C-12.5459 20.17 -12.4314 20.5892 -12.2163 20.9585C-12.0012 21.3277 -11.6931 21.6341 -11.3226 21.8472L-4.99393 25.4711C-4.62336 25.6843 -4.20308 25.796 -3.77555 25.7948C-3.34801 25.7936 -2.92838 25.6795 -2.55903 25.4642L3.74987 21.7947C4.11706 21.578 4.42131 21.2693 4.63255 20.8989C4.84378 20.5286 4.95469 20.1096 4.95426 19.6832L4.92953 12.3856C4.92643 11.9595 4.81208 11.5416 4.59784 11.1733C4.38359 10.805 4.07686 10.499 3.70802 10.2857V10.2857Z" fill="#FFF19F"/>
<path d="M0.836617 12.4937L-3.07584 10.2534C-3.30474 10.1218 -3.56431 10.0529 -3.82835 10.0537C-4.09239 10.0545 -4.35154 10.1251 -4.5796 10.2581L-8.47775 12.5255C-8.70543 12.6584 -8.89434 12.8486 -9.02561 13.0772C-9.15689 13.3059 -9.22597 13.5649 -9.22598 13.8285L-9.21062 18.3389C-9.20917 18.603 -9.13844 18.8622 -9.00553 19.0905C-8.87262 19.3188 -8.68214 19.5083 -8.45313 19.64L-4.54177 21.8799C-4.31274 22.0116 -4.05299 22.0806 -3.78876 22.0799C-3.52453 22.0791 -3.26518 22.0087 -3.03691 21.8756L0.862319 19.6076C1.08927 19.4737 1.27733 19.2829 1.4079 19.054C1.53847 18.8252 1.60702 18.5662 1.60677 18.3027L1.59152 13.7924C1.58976 13.5289 1.51918 13.2704 1.38676 13.0426C1.25435 12.8148 1.0647 12.6256 0.836617 12.4937V12.4937Z" fill="#FFEB6F"/>
<path d="M33.2243 -7.15249L26.8939 -10.7776C26.5235 -10.9905 26.1035 -11.102 25.6763 -11.1006C25.2491 -11.0992 24.8298 -10.9851 24.4608 -10.7698L18.1537 -7.10119C17.7853 -6.88624 17.4798 -6.57854 17.2674 -6.20874C17.055 -5.83895 16.9432 -5.41996 16.9431 -4.9935L16.9679 2.30416C16.9704 2.73151 17.085 3.15072 17.3001 3.52C17.5152 3.88928 17.8233 4.19571 18.1938 4.40873L24.5224 8.03266C24.893 8.24591 25.3133 8.35757 25.7408 8.35636C26.1684 8.35515 26.588 8.24112 26.9574 8.02578L33.2662 4.35614C33.6334 4.13952 33.9377 3.83078 34.1489 3.46047C34.3602 3.09016 34.4711 2.67112 34.4706 2.2448L34.4459 -5.05286C34.4427 -5.47891 34.3283 -5.89674 34.1141 -6.265C33.8998 -6.63326 33.5931 -6.93918 33.2243 -7.15249V-7.15249Z" fill="#FFF19F"/>
<path d="M30.353 -4.94478L26.4404 -7.18517C26.2115 -7.31676 25.952 -7.38561 25.6879 -7.38476C25.4239 -7.38391 25.1648 -7.31339 24.9368 -7.18033L21.0386 -4.91295C20.8109 -4.78009 20.622 -4.58987 20.4907 -4.36125C20.3594 -4.13262 20.2903 -3.87359 20.2904 -3.60995L20.3056 0.900398C20.3071 1.16458 20.3778 1.42375 20.5107 1.65206C20.6437 1.88037 20.8341 2.06985 21.0631 2.20157L24.9746 4.44132C25.2036 4.57315 25.4634 4.64219 25.7276 4.64145C25.9918 4.64071 26.2512 4.57023 26.4795 4.43712L30.3787 2.1691C30.6056 2.03523 30.7937 1.84442 30.9243 1.61554C31.0549 1.38667 31.1234 1.12766 31.1232 0.864158L31.1079 -3.64608C31.1061 -3.90957 31.0355 -4.16802 30.9031 -4.39582C30.7707 -4.62363 30.5811 -4.81287 30.353 -4.94478Z" fill="#FFEB6F"/>
<path d="M10.5665 -4.94478L6.65394 -7.18517C6.42505 -7.31676 6.16548 -7.38561 5.90146 -7.38476C5.63744 -7.38391 5.37833 -7.31339 5.15029 -7.18033L1.25214 -4.91295C1.02443 -4.78009 0.835505 -4.58987 0.704222 -4.36125C0.572939 -4.13262 0.503879 -3.87359 0.503906 -3.60995L0.51916 0.900398C0.52064 1.16458 0.591368 1.42375 0.72428 1.65206C0.857192 1.88037 1.04766 2.06985 1.27666 2.20157L5.18815 4.44132C5.41715 4.57315 5.67689 4.64219 5.94113 4.64145C6.20537 4.64071 6.46472 4.57023 6.69298 4.43712L10.5922 2.1691C10.8192 2.03523 11.0072 1.84442 11.1378 1.61554C11.2684 1.38667 11.337 1.12766 11.3367 0.864158L11.3214 -3.64608C11.3197 -3.90957 11.2491 -4.16802 11.1167 -4.39582C10.9842 -4.62363 10.7946 -4.81287 10.5665 -4.94478V-4.94478Z" fill="#FFDD0F"/>
<path d="M13.3777 -7.08542L7.0472 -10.7102C6.67685 -10.9232 6.25685 -11.0346 5.82965 -11.0332C5.40245 -11.0318 4.98318 -10.9177 4.61421 -10.7024L-1.69293 -7.03381C-2.06125 -6.81885 -2.36682 -6.51115 -2.57923 -6.14136C-2.79163 -5.77156 -2.90346 -5.35257 -2.90356 -4.92612L-2.87883 2.37154C-2.87629 2.79889 -2.76175 3.21811 -2.54665 3.58738C-2.33154 3.95665 -2.02339 4.26308 -1.65292 4.47611L4.67572 8.10005C5.04629 8.31329 5.46657 8.42494 5.89411 8.42373C6.32164 8.42252 6.7413 8.3085 7.11065 8.09317L13.4195 4.42353C13.7867 4.20693 14.091 3.8982 14.3023 3.52788C14.5135 3.15757 14.6244 2.73851 14.6239 2.31218L14.5992 -4.98548C14.5961 -5.41157 14.4818 -5.82948 14.2676 -6.19781C14.0533 -6.56614 13.7466 -6.87211 13.3777 -7.08542V-7.08542Z" fill="#FFF19F"/>
<path d="M33.2243 27.5904L26.8939 23.9656C26.5235 23.7526 26.1035 23.6412 25.6763 23.6426C25.2491 23.644 24.8298 23.7581 24.4608 23.9734L18.1537 27.642C17.7853 27.857 17.4796 28.1648 17.2672 28.5347C17.0548 28.9046 16.9431 29.3237 16.9431 29.7502L16.9679 37.0479C16.9704 37.4752 17.085 37.8944 17.3001 38.2637C17.5152 38.633 17.8233 38.9394 18.1938 39.1524L24.5224 42.7764C24.893 42.9896 25.3133 43.1013 25.7408 43.1C26.1684 43.0988 26.588 42.9848 26.9574 42.7695L33.2662 39.0998C33.6334 38.8832 33.9377 38.5745 34.1489 38.2042C34.3602 37.8339 34.4711 37.4148 34.4706 36.9885L34.4459 29.6908C34.4429 29.2647 34.3286 28.8466 34.1143 28.4782C33.9 28.1098 33.5932 27.8037 33.2243 27.5904Z" fill="#FFF19F"/>
<path d="M30.353 29.7529L26.4404 27.5131C26.2115 27.3815 25.952 27.3126 25.6879 27.3135C25.4239 27.3143 25.1648 27.3849 24.9368 27.5179L21.0386 29.7853C20.8109 29.9182 20.622 30.1084 20.4907 30.337C20.3594 30.5656 20.2903 30.8247 20.2904 31.0883L20.3056 35.5986C20.3072 35.8627 20.378 36.1218 20.5109 36.35C20.6438 36.5782 20.8342 36.7676 21.0631 36.8993L24.9746 39.139C25.2036 39.2709 25.4634 39.3399 25.7276 39.3392C25.9918 39.3384 26.2512 39.2679 26.4795 39.1348L30.3787 36.8668C30.6056 36.7329 30.7937 36.5421 30.9243 36.3132C31.0549 36.0844 31.1234 35.8254 31.1232 35.5619L31.1079 31.0516C31.1061 30.7881 31.0355 30.5297 30.9031 30.3019C30.7707 30.0741 30.5811 29.8848 30.353 29.7529Z" fill="#FFEB6F"/>
<path d="M10.5434 29.7978L6.63094 27.558C6.40203 27.4264 6.14244 27.3576 5.87841 27.3584C5.61437 27.3593 5.35522 27.4298 5.12716 27.5628L1.229 29.8302C1.00133 29.9631 0.812446 30.1533 0.681169 30.3819C0.549891 30.6106 0.4808 30.8696 0.480774 31.1332L0.496159 35.6435C0.4977 35.9076 0.568447 36.1667 0.701358 36.3949C0.834268 36.6231 1.02469 36.8125 1.25363 36.9442L5.16501 39.1839C5.39402 39.3157 5.65376 39.3848 5.918 39.384C6.18223 39.3833 6.44159 39.3128 6.66985 39.1797L10.5691 36.9117C10.796 36.7778 10.9841 36.587 11.1147 36.3581C11.2453 36.1293 11.3139 35.8703 11.3137 35.6068L11.2986 31.0959C11.2967 30.8325 11.226 30.5741 11.0936 30.3464C10.9611 30.1188 10.7714 29.9296 10.5434 29.7978V29.7978Z" fill="#FFDD0F"/>
<path d="M13.4151 27.6568L7.08455 24.032C6.7142 23.819 6.29421 23.7076 5.86701 23.709C5.43981 23.7104 5.02053 23.8245 4.65157 24.0398L-1.65557 27.7084C-2.02397 27.9234 -2.32959 28.2312 -2.542 28.6011C-2.75441 28.971 -2.8662 29.3901 -2.86621 29.8166L-2.84148 37.1143C-2.83894 37.5416 -2.72439 37.9608 -2.50929 38.3301C-2.29419 38.6994 -1.98604 39.0058 -1.61556 39.2188L4.71308 42.8428C5.08364 43.056 5.50392 43.1677 5.93146 43.1665C6.359 43.1652 6.77865 43.0512 7.14801 42.8359L13.4569 39.1663C13.8241 38.9497 14.1284 38.6409 14.3396 38.2706C14.5509 37.9003 14.6617 37.4812 14.6613 37.0549L14.6365 29.7572C14.6336 29.3311 14.5193 28.913 14.3051 28.5446C14.0908 28.1762 13.784 27.8701 13.4151 27.6568V27.6568Z" fill="#FFF19F"/>
<path d="M10.4926 -4.94478L6.58006 -7.18517C6.35117 -7.31676 6.0916 -7.38561 5.82758 -7.38476C5.56356 -7.38391 5.30445 -7.31339 5.0764 -7.18033L1.17825 -4.91295C0.950544 -4.78009 0.761622 -4.58987 0.630339 -4.36125C0.499056 -4.13262 0.429995 -3.87359 0.430023 -3.60995L0.445277 0.900398C0.446757 1.16458 0.517485 1.42375 0.650397 1.65206C0.783309 1.88037 0.973778 2.06985 1.20277 2.20157L5.11426 4.44132C5.34326 4.57315 5.60301 4.64219 5.86725 4.64145C6.13148 4.64071 6.39084 4.57023 6.6191 4.43712L10.5183 2.1691C10.7453 2.03523 10.9334 1.84442 11.0639 1.61554C11.1945 1.38667 11.2631 1.12766 11.2628 0.864158L11.2475 -3.64608C11.2458 -3.90957 11.1752 -4.16802 11.0428 -4.39582C10.9104 -4.62363 10.7207 -4.81287 10.4926 -4.94478Z" fill="#FFEB6F"/>
<path d="M10.4926 29.7085L6.58006 27.4681C6.35117 27.3366 6.0916 27.2677 5.82758 27.2686C5.56356 27.2694 5.30445 27.3399 5.0764 27.473L1.17825 29.7404C0.950544 29.8732 0.761622 30.0634 0.630339 30.2921C0.499056 30.5207 0.429995 30.7797 0.430023 31.0434L0.445277 35.5537C0.446757 35.8179 0.517485 36.0771 0.650397 36.3054C0.783309 36.5337 0.973778 36.7232 1.20277 36.8549L5.11426 39.0946C5.34326 39.2265 5.60301 39.2955 5.86725 39.2948C6.13148 39.294 6.39084 39.2236 6.6191 39.0904L10.5183 36.8224C10.7453 36.6886 10.9334 36.4977 11.0639 36.2689C11.1945 36.04 11.2631 35.781 11.2628 35.5175L11.2475 31.0072C11.2458 30.7438 11.1752 30.4853 11.0428 30.2575C10.9104 30.0297 10.7207 29.8405 10.4926 29.7085Z" fill="#FFEB6F"/>
</g>
<defs>
<clipPath id="clip0_176_4981">
<rect width="32" height="32" rx="16" fill="white"/>
</clipPath>
</defs>
</svg>
