<svg width="32" height="32" viewBox="0 0 32 32" fill="none" xmlns="http://www.w3.org/2000/svg">
<g clip-path="url(#clip0_4767_71263)">
<circle cx="16" cy="16" r="16" fill="white"/>
<path d="M23.5173 10.2193L17.1869 6.59441C16.8166 6.38151 16.3966 6.27012 15.9694 6.2715C15.5421 6.27288 15.1229 6.38697 14.7539 6.60226L8.44672 10.2708C8.0784 10.4858 7.77283 10.7935 7.56042 11.1633C7.34802 11.5331 7.23618 11.9521 7.23608 12.3785L7.26081 19.6763C7.26339 20.1036 7.37793 20.5228 7.59303 20.8921C7.80813 21.2613 8.11626 21.5677 8.48671 21.7808L14.8153 25.4047C15.1858 25.6179 15.6061 25.7296 16.0336 25.7284C16.4612 25.7272 16.8808 25.6131 17.2502 25.3978L23.5592 21.7282C23.9264 21.5116 24.2306 21.2028 24.4419 20.8325C24.6531 20.4622 24.764 20.0431 24.7636 19.6168L24.7387 12.3192C24.7357 11.8931 24.6213 11.4752 24.4071 11.1069C24.1929 10.7386 23.8862 10.4326 23.5173 10.2193Z" fill="#FFF19F"/>
<path d="M20.6461 12.4273L16.7336 10.1869C16.5046 10.0553 16.2451 9.98646 15.981 9.98731C15.717 9.98816 15.4578 10.0587 15.2298 10.1917L11.3317 12.4591C11.104 12.592 10.9151 12.7822 10.7838 13.0108C10.6526 13.2394 10.5835 13.4985 10.5835 13.7621L10.5988 18.2725C10.6002 18.5366 10.671 18.7958 10.8039 19.0241C10.9368 19.2524 11.1272 19.4419 11.3562 19.5736L15.2676 21.8135C15.4967 21.9453 15.7564 22.0143 16.0207 22.0135C16.2849 22.0127 16.5443 21.9423 16.7726 21.8092L20.6718 19.5412C20.8989 19.4072 21.087 19.2164 21.2176 18.9874C21.3481 18.7584 21.4166 18.4993 21.4163 18.2357L21.401 13.7253C21.3991 13.462 21.3285 13.2036 21.1961 12.9759C21.0637 12.7483 20.8741 12.5591 20.6461 12.4273Z" fill="#FFDD0F"/>
<path d="M18.8715 13.7914L16.4533 12.4068C16.3119 12.3255 16.1514 12.2829 15.9883 12.2835C15.8251 12.284 15.665 12.3276 15.524 12.4098L13.1152 13.8112C12.9745 13.8933 12.8578 14.0109 12.7766 14.1522C12.6955 14.2934 12.6528 14.4535 12.6528 14.6164L12.6623 17.4041C12.6633 17.5673 12.707 17.7274 12.7892 17.8685C12.8713 18.0095 12.989 18.1266 13.1305 18.208L15.5479 19.5922C15.6894 19.6737 15.8499 19.7163 16.0133 19.7159C16.1766 19.7154 16.3369 19.6719 16.4779 19.5896L18.8879 18.1879C19.0282 18.1051 19.1444 17.9872 19.2251 17.8458C19.3058 17.7043 19.3482 17.5442 19.3481 17.3814L19.3386 14.5937C19.3374 14.4309 19.2936 14.2712 19.2117 14.1305C19.1298 13.9898 19.0125 13.8729 18.8715 13.7914Z" fill="#FFDD0F"/>
<path d="M43.0222 10.1529L36.6918 6.52806C36.3214 6.31514 35.9014 6.20373 35.4742 6.20509C35.047 6.20645 34.6277 6.32053 34.2587 6.5358L27.9515 10.2045C27.5831 10.4195 27.2775 10.7273 27.0651 11.0972C26.8527 11.4671 26.741 11.8862 26.741 12.3127L26.7657 19.6104C26.7682 20.0377 26.8828 20.4569 27.0979 20.8262C27.313 21.1955 27.6211 21.5019 27.9916 21.7149L34.3203 25.3389C34.6909 25.5521 35.1111 25.6638 35.5387 25.6625C35.9662 25.6613 36.3858 25.5473 36.7552 25.332L43.0641 21.6623C43.4313 21.4457 43.7355 21.137 43.9468 20.7667C44.158 20.3964 44.2689 19.9773 44.2685 19.551L44.2437 12.2533C44.2407 11.8272 44.1265 11.4092 43.9122 11.0407C43.698 10.6723 43.3912 10.3662 43.0222 10.1529Z" fill="#FFF19F"/>
<path d="M40.1502 12.3608L36.2378 10.1205C36.0089 9.9889 35.7493 9.92006 35.4853 9.92091C35.2212 9.92176 34.9621 9.99227 34.734 10.1253L30.8359 12.3927C30.6082 12.5256 30.4193 12.7158 30.288 12.9444C30.1568 13.1731 30.0877 13.4321 30.0876 13.6957L30.103 18.206C30.1045 18.4701 30.1752 18.7293 30.3081 18.9576C30.441 19.1859 30.6315 19.3754 30.8605 19.5071L34.7719 21.7469C35.0009 21.8787 35.2606 21.9477 35.5249 21.947C35.7891 21.9462 36.0485 21.8758 36.2767 21.7427L40.176 19.4746C40.4029 19.3408 40.591 19.15 40.7216 18.9211C40.8522 18.6922 40.9207 18.4332 40.9204 18.1697L40.9051 13.6594C40.9034 13.3959 40.8328 13.1375 40.7004 12.9097C40.568 12.6819 40.3783 12.4927 40.1502 12.3608Z" fill="#FFEB6F"/>
<path d="M3.70802 10.286L-2.62246 6.66106C-2.99284 6.44816 -3.41284 6.33677 -3.84005 6.33815C-4.26726 6.33953 -4.68655 6.45362 -5.05555 6.66891L-11.3627 10.3375C-11.731 10.5524 -12.0366 10.8602 -12.249 11.2299C-12.4613 11.5997 -12.5732 12.0187 -12.5732 12.4452L-12.5485 19.7429C-12.5459 20.1703 -12.4314 20.5895 -12.2163 20.9587C-12.0012 21.328 -11.6931 21.6344 -11.3226 21.8474L-4.99393 25.4713C-4.62336 25.6846 -4.20308 25.7962 -3.77555 25.795C-3.34801 25.7938 -2.92838 25.6798 -2.55903 25.4644L3.74987 21.7949C4.11706 21.5783 4.42131 21.2695 4.63255 20.8992C4.84378 20.5289 4.95469 20.1098 4.95426 19.6835L4.92953 12.3858C4.92643 11.9597 4.81208 11.5419 4.59784 11.1736C4.38359 10.8052 4.07686 10.4993 3.70802 10.286Z" fill="#FFF19F"/>
<path d="M0.836647 12.4939L-3.07581 10.2536C-3.30471 10.122 -3.56428 10.0531 -3.82832 10.054C-4.09236 10.0548 -4.35151 10.1253 -4.57957 10.2584L-8.47772 12.5257C-8.7054 12.6586 -8.8943 12.8489 -9.02558 13.0775C-9.15686 13.3061 -9.22594 13.5651 -9.22595 13.8287L-9.21059 18.3391C-9.20913 18.6033 -9.13841 18.8625 -9.0055 19.0908C-8.87259 19.3191 -8.68211 19.5086 -8.4531 19.6403L-4.54174 21.8801C-4.31271 22.0119 -4.05296 22.0809 -3.78873 22.0801C-3.5245 22.0794 -3.26515 22.0089 -3.03688 21.8758L0.86235 19.6078C1.0893 19.4739 1.27736 19.2831 1.40793 19.0543C1.5385 18.8254 1.60705 18.5664 1.6068 18.303L1.59155 13.7926C1.58979 13.5291 1.51921 13.2707 1.38679 13.0429C1.25438 12.8151 1.06473 12.6258 0.836647 12.4939Z" fill="#FFEB6F"/>
<path d="M33.2242 -7.15249L26.8939 -10.7776C26.5235 -10.9905 26.1035 -11.102 25.6763 -11.1006C25.249 -11.0992 24.8298 -10.9851 24.4608 -10.7698L18.1536 -7.10119C17.7853 -6.88624 17.4797 -6.57854 17.2673 -6.20874C17.0549 -5.83895 16.9431 -5.41996 16.943 -4.9935L16.9678 2.30416C16.9704 2.73151 17.0849 3.15072 17.3 3.52C17.5151 3.88928 17.8232 4.19571 18.1937 4.40873L24.5224 8.03267C24.893 8.24591 25.3132 8.35757 25.7408 8.35636C26.1683 8.35515 26.588 8.24112 26.9573 8.02578L33.2662 4.35614C33.6334 4.13952 33.9376 3.83078 34.1489 3.46047C34.3601 3.09016 34.471 2.67112 34.4706 2.2448L34.4458 -5.05286C34.4427 -5.47891 34.3283 -5.89674 34.114 -6.265C33.8998 -6.63326 33.593 -6.93918 33.2242 -7.15249Z" fill="#FFF19F"/>
<path d="M30.353 -4.94478L26.4404 -7.18517C26.2116 -7.31676 25.952 -7.38561 25.688 -7.38476C25.4239 -7.38391 25.1648 -7.31339 24.9368 -7.18033L21.0386 -4.91295C20.8109 -4.78009 20.622 -4.58987 20.4907 -4.36125C20.3594 -4.13262 20.2904 -3.87359 20.2904 -3.60995L20.3057 0.900398C20.3071 1.16458 20.3779 1.42375 20.5108 1.65206C20.6437 1.88037 20.8342 2.06985 21.0632 2.20157L24.9746 4.44132C25.2036 4.57315 25.4634 4.64219 25.7276 4.64145C25.9919 4.64071 26.2512 4.57023 26.4795 4.43712L30.3787 2.1691C30.6057 2.03523 30.7937 1.84442 30.9243 1.61554C31.0549 1.38667 31.1235 1.12766 31.1232 0.864159L31.1079 -3.64608C31.1062 -3.90957 31.0356 -4.16802 30.9032 -4.39582C30.7707 -4.62363 30.5811 -4.81287 30.353 -4.94478Z" fill="#FFEB6F"/>
<path d="M10.5665 -4.94478L6.65394 -7.18517C6.42505 -7.31676 6.16548 -7.38561 5.90146 -7.38476C5.63744 -7.38391 5.37833 -7.31339 5.15029 -7.18033L1.25214 -4.91295C1.02443 -4.78009 0.835505 -4.58987 0.704222 -4.36125C0.572939 -4.13262 0.503879 -3.87359 0.503906 -3.60995L0.51916 0.900398C0.52064 1.16458 0.591368 1.42375 0.72428 1.65206C0.857192 1.88037 1.04766 2.06985 1.27666 2.20157L5.18815 4.44132C5.41715 4.57315 5.67689 4.64219 5.94113 4.64145C6.20537 4.64071 6.46472 4.57023 6.69298 4.43712L10.5922 2.1691C10.8192 2.03523 11.0072 1.84442 11.1378 1.61554C11.2684 1.38667 11.337 1.12766 11.3367 0.864159L11.3214 -3.64608C11.3197 -3.90957 11.2491 -4.16802 11.1167 -4.39582C10.9842 -4.62363 10.7946 -4.81287 10.5665 -4.94478Z" fill="#FFDD0F"/>
<path d="M13.3777 -7.0853L7.0472 -10.7101C6.67685 -10.923 6.25685 -11.0344 5.82965 -11.0331C5.40245 -11.0317 4.98318 -10.9176 4.61421 -10.7022L-1.69293 -7.03368C-2.06125 -6.81873 -2.36682 -6.51103 -2.57923 -6.14124C-2.79163 -5.77144 -2.90346 -5.35245 -2.90356 -4.926L-2.87883 2.37167C-2.87629 2.79901 -2.76175 3.21823 -2.54665 3.5875C-2.33154 3.95678 -2.02339 4.26321 -1.65292 4.47624L4.67572 8.10017C5.04629 8.31341 5.46657 8.42506 5.89411 8.42385C6.32164 8.42264 6.7413 8.30862 7.11065 8.09329L13.4195 4.42365C13.7867 4.20705 14.091 3.89832 14.3023 3.528C14.5135 3.15769 14.6244 2.73863 14.6239 2.31231L14.5992 -4.98536C14.5961 -5.41145 14.4818 -5.82936 14.2676 -6.19769C14.0533 -6.56601 13.7466 -6.87199 13.3777 -7.0853Z" fill="#FFF19F"/>
<path d="M33.2244 27.5904L26.894 23.9656C26.5236 23.7526 26.1036 23.6412 25.6764 23.6426C25.2492 23.644 24.8299 23.7581 24.4609 23.9734L18.1537 27.642C17.7853 27.857 17.4797 28.1648 17.2673 28.5347C17.0549 28.9046 16.9431 29.3237 16.9431 29.7502L16.968 37.0479C16.9705 37.4752 17.085 37.8944 17.3001 38.2637C17.5152 38.633 17.8234 38.9394 18.1938 39.1524L24.5225 42.7764C24.8931 42.9896 25.3134 43.1013 25.7409 43.1C26.1684 43.0988 26.5881 42.9848 26.9574 42.7695L33.2663 39.0998C33.6335 38.8832 33.9378 38.5745 34.149 38.2042C34.3602 37.8339 34.4711 37.4148 34.4707 36.9885L34.446 29.6908C34.4429 29.2647 34.3286 28.8466 34.1144 28.4782C33.9001 28.1098 33.5933 27.8037 33.2244 27.5904Z" fill="#FFF19F"/>
<path d="M30.353 29.7529L26.4404 27.5131C26.2116 27.3815 25.952 27.3126 25.688 27.3135C25.4239 27.3143 25.1648 27.3849 24.9368 27.5179L21.0386 29.7853C20.8109 29.9182 20.622 30.1084 20.4907 30.337C20.3594 30.5656 20.2904 30.8247 20.2904 31.0883L20.3057 35.5986C20.3072 35.8627 20.378 36.1218 20.5109 36.35C20.6438 36.5782 20.8342 36.7676 21.0632 36.8993L24.9746 39.139C25.2036 39.2709 25.4634 39.3399 25.7276 39.3392C25.9919 39.3384 26.2512 39.2679 26.4795 39.1348L30.3787 36.8668C30.6057 36.7329 30.7937 36.5421 30.9243 36.3132C31.0549 36.0844 31.1235 35.8254 31.1232 35.5619L31.1079 31.0516C31.1062 30.7881 31.0356 30.5297 30.9032 30.3019C30.7707 30.0741 30.5811 29.8848 30.353 29.7529Z" fill="#FFEB6F"/>
<path d="M10.5433 29.7978L6.63088 27.558C6.40196 27.4264 6.14238 27.3576 5.87835 27.3584C5.61431 27.3593 5.35516 27.4298 5.12709 27.5628L1.22894 29.8302C1.00127 29.9631 0.812385 30.1533 0.681107 30.3819C0.54983 30.6106 0.480739 30.8696 0.480713 31.1332L0.496098 35.6435C0.497639 35.9076 0.568386 36.1667 0.701297 36.3949C0.834207 36.6231 1.02463 36.8125 1.25357 36.9442L5.16495 39.1839C5.39396 39.3158 5.6537 39.3848 5.91794 39.3841C6.18217 39.3833 6.44153 39.3128 6.66979 39.1797L10.569 36.9117C10.796 36.7778 10.9841 36.587 11.1146 36.3581C11.2452 36.1293 11.3138 35.8703 11.3136 35.6068L11.2986 31.0959C11.2967 30.8325 11.226 30.5741 11.0935 30.3464C10.961 30.1188 10.7714 29.9296 10.5433 29.7978Z" fill="#FFDD0F"/>
<path d="M13.4151 27.6568L7.08455 24.032C6.7142 23.819 6.29421 23.7076 5.86701 23.709C5.43981 23.7104 5.02053 23.8245 4.65157 24.0398L-1.65557 27.7084C-2.02397 27.9234 -2.32959 28.2312 -2.542 28.6011C-2.75441 28.971 -2.8662 29.3901 -2.86621 29.8166L-2.84148 37.1143C-2.83894 37.5416 -2.72439 37.9608 -2.50929 38.3301C-2.29419 38.6994 -1.98604 39.0058 -1.61556 39.2188L4.71308 42.8428C5.08364 43.056 5.50392 43.1677 5.93146 43.1665C6.359 43.1652 6.77865 43.0512 7.14801 42.8359L13.4569 39.1663C13.8241 38.9497 14.1284 38.6409 14.3396 38.2706C14.5509 37.9003 14.6617 37.4812 14.6613 37.0549L14.6365 29.7572C14.6336 29.3311 14.5193 28.913 14.3051 28.5446C14.0908 28.1762 13.784 27.8701 13.4151 27.6568Z" fill="#FFF19F"/>
<path d="M10.4927 -4.94478L6.58009 -7.18517C6.3512 -7.31676 6.09163 -7.38561 5.82761 -7.38476C5.56359 -7.38391 5.30448 -7.31339 5.07644 -7.18033L1.17828 -4.91295C0.950575 -4.78009 0.761653 -4.58987 0.63037 -4.36125C0.499086 -4.13262 0.430026 -3.87359 0.430054 -3.60995L0.445307 0.900398C0.446788 1.16458 0.517516 1.42375 0.650427 1.65206C0.783339 1.88037 0.973809 2.06985 1.20281 2.20157L5.11429 4.44132C5.3433 4.57315 5.60304 4.64219 5.86728 4.64145C6.13151 4.64071 6.39087 4.57023 6.61913 4.43712L10.5184 2.1691C10.7453 2.03523 10.9334 1.84442 11.064 1.61554C11.1945 1.38667 11.2631 1.12766 11.2628 0.864159L11.2476 -3.64608C11.2458 -3.90957 11.1752 -4.16802 11.0428 -4.39582C10.9104 -4.62363 10.7207 -4.81287 10.4927 -4.94478Z" fill="#FFEB6F"/>
<path d="M10.4927 29.7084L6.58009 27.468C6.3512 27.3364 6.09163 27.2676 5.82761 27.2684C5.56359 27.2693 5.30448 27.3398 5.07644 27.4729L1.17828 29.7402C0.950575 29.8731 0.761653 30.0633 0.63037 30.292C0.499086 30.5206 0.430026 30.7796 0.430054 31.0432L0.445307 35.5536C0.446788 35.8178 0.517516 36.0769 0.650427 36.3053C0.783339 36.5336 0.973809 36.723 1.20281 36.8548L5.11429 39.0945C5.3433 39.2263 5.60304 39.2954 5.86728 39.2946C6.13151 39.2939 6.39087 39.2234 6.61913 39.0903L10.5184 36.8223C10.7453 36.6884 10.9334 36.4976 11.064 36.2687C11.1945 36.0399 11.2631 35.7809 11.2628 35.5174L11.2476 31.0071C11.2458 30.7436 11.1752 30.4852 11.0428 30.2574C10.9104 30.0296 10.7207 29.8403 10.4927 29.7084Z" fill="#FFEB6F"/>
</g>
<defs>
<clipPath id="clip0_4767_71263">
<rect width="32" height="32" rx="16" fill="white"/>
</clipPath>
</defs>
</svg>
