<svg width="32" height="32" viewBox="0 0 32 32" fill="none" xmlns="http://www.w3.org/2000/svg">
<g clip-path="url(#clip0_4767_67486)">
<path d="M0.83667 5.02542C0.352102 5.06353 -0.0208521 5.13975 0.000109556 5.19692C0.193392 5.65699 1.38848 8.36567 1.40481 8.382C1.42115 8.39834 1.69882 8.41739 2.0255 8.431C3.47375 8.48545 4.61984 8.76857 5.85848 9.38108C6.74867 9.81937 7.40747 10.2903 8.09348 10.9736C9.10345 11.9809 9.76225 13.0997 10.1488 14.469C10.1924 14.6269 10.2278 14.7685 10.2278 14.7903C10.2278 14.8202 10.0073 14.8257 9.03267 14.8257C8.37388 14.8257 7.80764 14.8366 7.77225 14.8502C7.72053 14.8692 7.58441 15.1632 7.01818 16.4618C6.63706 17.3356 6.32127 18.0706 6.31583 18.0951C6.29677 18.1659 6.52544 18.2285 7.09713 18.3129C7.21418 18.332 7.91653 18.351 8.74683 18.3619L10.1924 18.3783L10.1053 18.6777C9.13068 21.9826 6.10621 24.2938 2.40117 24.5715C2.19155 24.5851 1.9166 24.5987 1.78866 24.5987H1.55726L0.84402 26.2402C0.231504 27.6422 0.136224 27.8818 0.177059 27.8954C0.362174 27.9634 0.775963 27.9879 1.73421 27.9879C2.95924 27.9879 3.55542 27.9335 4.56539 27.7266C8.68967 26.88 12.117 24.2557 13.6687 20.7494C13.9682 20.0742 14.3194 18.9636 14.382 18.498L14.401 18.3646H17.4963L17.5072 18.4245C17.7304 19.5189 17.9727 20.2566 18.3919 21.1278C19.6523 23.7521 22.0153 25.8945 24.9418 27.0705C26.7188 27.7822 28.6224 28.124 30.5361 28.0751C31.3364 28.0506 31.9734 27.9607 31.9408 27.8763C31.9135 27.8056 30.5578 24.694 30.5497 24.6858C30.5415 24.6776 30.2611 24.6668 29.9208 24.6531C28.9653 24.615 28.2466 24.5034 27.4354 24.272C26.1858 23.9127 24.9499 23.2621 24.0026 22.4671C22.8102 21.4626 21.9472 20.2131 21.4899 18.8274C21.4382 18.6695 21.3864 18.5035 21.3783 18.4545L21.3592 18.3674L22.5244 18.3592C23.1641 18.3538 23.7086 18.3401 23.7303 18.3293C23.7657 18.3102 25.1595 15.1496 25.1595 15.087C25.1595 15.0462 24.8084 14.9427 24.4898 14.891C24.2557 14.8529 23.959 14.842 22.7748 14.8338L21.3402 14.8202L21.3946 14.6269C22.1895 11.8121 24.6287 9.57709 27.7729 8.7849C28.4671 8.61067 29.1422 8.52084 30.0188 8.48545C30.5415 8.46367 30.6068 8.4555 30.6395 8.41195C30.6613 8.382 30.9825 7.66059 31.3527 6.80852C31.8074 5.76588 32.017 5.25137 31.9979 5.23775C31.938 5.20509 31.5569 5.13703 31.2575 5.10708C30.8219 5.06081 29.5506 5.06897 28.9898 5.11797C25.7829 5.40381 22.8919 6.6969 20.7249 8.8094C19.4019 10.0998 18.4736 11.548 17.9019 13.2195C17.7549 13.6415 17.578 14.3057 17.5235 14.6269L17.4908 14.8257H14.4481L14.4372 14.7631C14.4291 14.7304 14.3991 14.5752 14.3665 14.4173C13.9173 12.185 12.6487 10.0154 10.8574 8.41739C8.81843 6.59618 6.27581 5.45554 3.47729 5.10899C2.63611 5.00636 1.55182 4.97097 0.83667 5.02542Z" fill="#007F88"/>
</g>
<defs>
<clipPath id="clip0_4767_67486">
<rect width="32" height="32" fill="white"/>
</clipPath>
</defs>
</svg>
