<svg width="32" height="32" viewBox="0 0 32 32" fill="none" xmlns="http://www.w3.org/2000/svg">
<path d="M19.1065 9.87193C19.1065 5.44431 16.9905 1.62974 15.3697 0.38092C15.3697 0.38092 15.2572 0.312802 15.2572 0.494448C15.1221 9.05452 10.8225 11.3932 8.43637 14.5039C2.96624 21.7243 8.05369 29.626 13.2312 31.0791C16.1351 31.8965 12.5559 29.626 12.1056 24.8577C11.5654 19.0678 19.1065 14.6629 19.1065 9.87193Z" fill="#282E5B"/>
<path d="M21.9428 12.801C21.9203 12.7783 21.8753 12.7783 21.8302 12.801C21.8302 12.801 21.8302 12.801 21.8077 12.8237C21.7177 13.8908 20.5471 16.2068 19.0839 18.3185C14.109 25.4935 16.9454 28.9448 18.5437 30.8066C19.4666 31.8965 18.5437 30.8066 20.8623 29.6941C21.0424 29.6032 25.3644 27.2872 25.8372 22.0422C26.3099 16.9334 23.0908 13.7319 21.9428 12.801Z" fill="#059BDC"/>
</svg>
