<svg width="32" height="32" viewBox="0 0 32 32" fill="none" xmlns="http://www.w3.org/2000/svg">
<g clip-path="url(#clip0_4767_67410)">
<path d="M19.61 9.84232C19.61 5.25071 17.3966 1.29486 15.7012 -0.000208866C15.7012 -0.000208866 15.5835 -0.070849 15.5835 0.117525C15.4422 8.99464 10.9448 11.42 8.44883 14.6459C2.72698 22.1337 8.04854 30.328 13.4643 31.835C16.5018 32.6826 12.7579 30.328 12.287 25.3832C11.7218 19.3787 19.61 14.8107 19.61 9.84232Z" fill="#282E5B"/>
<path d="M22.577 12.88C22.5534 12.8564 22.5063 12.8564 22.4592 12.88C22.4592 12.88 22.4592 12.88 22.4357 12.9035C22.3415 14.0102 21.1171 16.412 19.5865 18.6018C14.3827 26.0426 17.3496 29.6217 19.0214 31.5525C19.9868 32.6828 19.0214 31.5525 21.4467 30.3987C21.6351 30.3045 26.1561 27.9028 26.6506 22.4635C27.145 17.1655 23.7779 13.8454 22.577 12.88Z" fill="#059BDC"/>
</g>
<defs>
<clipPath id="clip0_4767_67410">
<rect width="32" height="32" fill="white"/>
</clipPath>
</defs>
</svg>
