<svg width="32" height="32" viewBox="0 0 32 32" fill="none" xmlns="http://www.w3.org/2000/svg">
<g clip-path="url(#clip0_172_16385)">
<path fill-rule="evenodd" clip-rule="evenodd" d="M4.4928 14.7762L9.4112 3.08496L23.3824 4.69456L26.2432 13.3234L24.8128 25.2594C22.7568 27.4658 21.4448 28.5682 20.8784 28.5682C20.312 28.5682 16.0208 27.7858 8.0032 26.221L4.4944 17.5474L4.4928 14.7762Z" fill="#F9F9F9"/>
<mask id="mask0_172_16385" style="mask-type:alpha" maskUnits="userSpaceOnUse" x="0" y="0" width="32" height="32">
<path fill-rule="evenodd" clip-rule="evenodd" d="M0 0H32V32H0V0Z" fill="white"/>
</mask>
<g mask="url(#mask0_172_16385)">
<path fill-rule="evenodd" clip-rule="evenodd" d="M22.704 25.2704H19.2976V19.4064C19.2976 18.4672 18.5376 17.704 17.5984 17.704H17.5968H12.7008C10.8208 17.704 9.296 16.1792 9.296 14.2992V6.7312H12.7008V12.5968C12.7008 13.536 13.4624 14.2992 14.4016 14.2992H19.2976C21.1776 14.3008 22.7008 15.824 22.7024 17.704L22.704 25.2704ZM12.8192 25.2704H9.4128V19.552C11.2928 19.552 12.8176 21.0752 12.8176 22.9568L12.8192 25.2704ZM19.1808 6.7296H22.5856V12.4512C20.704 12.4512 19.1808 10.9264 19.1808 9.0464V6.7296ZM16 0C7.1632 0 0 7.1648 0 16C0 24.8352 7.1632 32 16 32C24.8368 32 32 24.8368 32 16C32 7.1632 24.8368 0 16 0Z" fill="#005FFA"/>
</g>
</g>
<defs>
<clipPath id="clip0_172_16385">
<rect width="32" height="32" fill="white"/>
</clipPath>
</defs>
</svg>
