<svg width="32" height="32" viewBox="0 0 32 32" fill="none" xmlns="http://www.w3.org/2000/svg">
<g clip-path="url(#clip0_171_16332)">
<path fill-rule="evenodd" clip-rule="evenodd" d="M0 0H32V32H0V0Z" fill="#662BC9"/>
<path fill-rule="evenodd" clip-rule="evenodd" d="M7.15405 22.3229L7.46342 22.7193L9.11659 24.8461H22.255H22.8834L24.8459 22.3229L19.9347 16.0002L24.5462 10.0739L24.8556 9.67756L22.8834 7.1543H9.11659L8.80722 7.56034L7.15405 9.68723L12.0652 16.0099L7.15405 22.3229ZM13.0803 21.0564C12.6646 21.0564 12.4326 20.5827 12.6936 20.254L14.0374 18.5235L16 21.0467H13.0803V21.0564ZM19.6157 15.5942L23.9081 10.0739H15.9516C15.6906 10.0739 15.5456 10.3736 15.7099 10.5767L16 10.944H18.9196C19.3353 10.944 19.5673 11.4177 19.3063 11.7464L17.9625 13.477L19.6157 15.5942ZM7.78245 9.67756L17.4598 22.1199L17.5275 22.2069C17.6821 22.4099 17.5371 22.7096 17.2858 22.7096H16.9861H8.09182L9.44529 24.4498H21.9456L9.11659 7.95671L7.78245 9.67756Z" fill="white"/>
</g>
<defs>
<clipPath id="clip0_171_16332">
<rect width="32" height="32" fill="white"/>
</clipPath>
</defs>
</svg>
