<svg width="32" height="32" viewBox="0 0 32 32" fill="none" xmlns="http://www.w3.org/2000/svg">
<g clip-path="url(#clip0_4767_68462)">
<path fill-rule="evenodd" clip-rule="evenodd" d="M0 0H32V32H0V0Z" fill="#662BC9"/>
<path fill-rule="evenodd" clip-rule="evenodd" d="M7.15405 22.3226L7.46342 22.719L9.11659 24.8459H22.255H22.8834L24.8459 22.3226L19.9347 16L24.5462 10.0737L24.8556 9.67732L22.8834 7.15405H9.11659L8.80722 7.56009L7.15405 9.68698L12.0652 16.0096L7.15405 22.3226ZM13.0803 21.0562C12.6646 21.0562 12.4326 20.5825 12.6936 20.2538L14.0374 18.5232L16 21.0465H13.0803V21.0562ZM19.6157 15.5939L23.9081 10.0737H15.9516C15.6906 10.0737 15.5456 10.3734 15.7099 10.5764L16 10.9438H18.9196C19.3353 10.9438 19.5673 11.4175 19.3063 11.7462L17.9625 13.4767L19.6157 15.5939ZM7.78245 9.67732L17.4598 22.1196L17.5275 22.2066C17.6821 22.4096 17.5371 22.7093 17.2858 22.7093H16.9861H8.09182L9.44529 24.4495H21.9456L9.11659 7.95647L7.78245 9.67732Z" fill="white"/>
</g>
<defs>
<clipPath id="clip0_4767_68462">
<rect width="32" height="32" fill="white"/>
</clipPath>
</defs>
</svg>
