<svg width="32" height="32" viewBox="0 0 32 32" fill="none" xmlns="http://www.w3.org/2000/svg">
<g clip-path="url(#clip0_4767_68314)">
<path d="M20.2146 30.9246C20.1365 30.8465 20.0585 30.7685 19.9804 30.7685C18.1853 30.3782 16.3902 29.7538 14.8292 28.8172C11.5511 26.866 9.36577 23.9782 9.28772 20.6221C9.28772 19.3733 9.52187 18.1246 10.0682 16.9538C10.3804 16.1733 12.2536 13.5197 12.4877 13.0514C13.7365 11.1002 13.3463 11.2563 11.5511 8.83675L9.05358 5.16846L7.41455 2.6709C6.47797 3.29529 5.54138 4.07578 4.68284 4.85626C2.96577 6.57334 1.63894 8.7587 0.858454 11.1002C0.0779659 13.4416 -0.15618 15.9392 0.156015 18.3587C0.46821 20.7782 1.4048 23.1197 2.80967 25.1489C4.21455 27.1782 6.08772 28.8953 8.19504 30.066C2.65358 26.0075 0.0779659 19.8416 2.18528 13.6758C2.73162 12.0368 3.59016 10.4758 4.68284 9.0709L6.47797 11.7246C6.55602 11.8807 6.63406 12.0368 6.63406 12.2709C6.63406 12.427 6.55602 12.6611 6.47797 12.8172C5.61943 13.9099 4.91699 15.0807 4.4487 16.4075C2.10723 23.1977 8.42918 30.2221 15.0633 31.3929C16.3121 31.627 18.6536 31.8611 19.9024 31.5489C19.9804 31.5489 20.0585 31.4709 20.0585 31.4709C20.1365 31.3928 20.1365 31.3929 20.1365 31.3148C20.1365 31.2368 20.1365 31.1587 20.1365 31.0807C20.2926 31.0807 20.2926 31.0026 20.2146 30.9246Z" fill="url(#paint0_linear_4767_68314)"/>
<path d="M11.7853 1.42183C11.8634 1.49988 11.9414 1.57793 12.0195 1.57793C13.8146 1.96818 15.6097 2.59257 17.1707 3.52915C20.4487 5.48037 22.6341 8.36818 22.7122 11.7243C22.7122 12.9731 22.478 14.2218 21.9317 15.3926C21.6195 16.1731 19.7463 18.8267 19.5122 19.295C18.2634 21.2462 18.6536 21.0901 20.4487 23.5096L22.9463 27.1779L24.6634 29.6755C25.6 29.0511 26.5365 28.2706 27.3951 27.4901C29.1122 25.7731 30.439 23.5877 31.2195 21.2462C32 18.9048 32.2341 16.4072 31.9219 13.9877C31.6097 11.5682 30.6731 9.22671 29.2682 7.19744C27.8634 5.16818 25.9902 3.4511 23.8829 2.28037C29.4243 6.33891 32 12.5048 29.8146 18.6706C29.2683 20.3096 28.4097 21.8706 27.317 23.2755L25.5219 20.6218C25.4439 20.4657 25.3658 20.3096 25.3658 20.0755C25.3658 19.9194 25.4439 19.6852 25.5219 19.5292C26.3804 18.4365 27.0829 17.2657 27.5512 15.9389C29.8926 9.14866 23.5707 2.12427 16.9365 0.953542C15.6878 0.719396 13.3463 0.485249 12.0975 0.797445C12.0195 0.797445 11.9414 0.875493 11.9414 0.875493C11.7853 0.875493 11.7073 0.953542 11.7073 1.03159C11.7073 1.10964 11.7073 1.18769 11.7073 1.26574C11.7073 1.26574 11.7073 1.34379 11.7853 1.42183Z" fill="url(#paint1_linear_4767_68314)"/>
</g>
<defs>
<linearGradient id="paint0_linear_4767_68314" x1="5.98243" y1="28.8404" x2="17.6734" y2="8.58965" gradientUnits="userSpaceOnUse">
<stop stop-color="#174E5B"/>
<stop offset="0.07" stop-color="#195A6C"/>
<stop offset="0.21" stop-color="#1E779A"/>
<stop offset="0.4" stop-color="#27A7E3"/>
<stop offset="0.47" stop-color="#2ABAFF"/>
<stop offset="0.7" stop-color="#1DDAF0"/>
<stop offset="1" stop-color="#0EFFE0"/>
</linearGradient>
<linearGradient id="paint1_linear_4767_68314" x1="26.0196" y1="3.5066" x2="14.3278" y2="23.7558" gradientUnits="userSpaceOnUse">
<stop stop-color="#174E5B"/>
<stop offset="0.07" stop-color="#195A6C"/>
<stop offset="0.21" stop-color="#1E779A"/>
<stop offset="0.4" stop-color="#27A7E3"/>
<stop offset="0.47" stop-color="#2ABAFF"/>
<stop offset="0.7" stop-color="#1DDAF0"/>
<stop offset="1" stop-color="#0EFFE0"/>
</linearGradient>
<clipPath id="clip0_4767_68314">
<rect width="32" height="32" fill="white"/>
</clipPath>
</defs>
</svg>
