<svg width="32" height="32" viewBox="0 0 32 32" fill="none" xmlns="http://www.w3.org/2000/svg">
<g clip-path="url(#clip0_176_4453)">
<path d="M16 32C24.8366 32 32 24.8366 32 16C32 7.16344 24.8366 0 16 0C7.16344 0 0 7.16344 0 16C0 24.8366 7.16344 32 16 32Z" fill="#0093DD"/>
<path fill-rule="evenodd" clip-rule="evenodd" d="M13.5 16.0002L18.7 21.3002L22 18.0002C22.6 17.4002 23.5 17.4002 24 18.0002C24.6 18.6002 24.6 19.6002 24 20.2002L19.7 24.6002C19.1 25.2002 18.2 25.2002 17.6 24.6002L11.4 18.2002V22.0002C11.4 22.8002 10.7 23.5002 9.90002 23.5002C9.10002 23.5002 8.40002 22.8002 8.40002 22.0002V10.0002C8.40002 9.2002 9.10002 8.5002 9.90002 8.5002C10.7 8.5002 11.4 9.2002 11.4 10.0002V13.8002L17.6 7.4002C18.2 6.8002 19.1 6.8002 19.7 7.4002L24 11.8002C24.6 12.4002 24.6 13.4002 24 14.0002C23.4 14.6002 22.5 14.6002 22 14.0002L18.7 10.6002L13.5 16.0002ZM18.7 14.5002C19.5 14.5002 20.2 15.2002 20.2 16.0002C20.2 16.8002 19.5 17.5002 18.7 17.5002C17.9 17.5002 17.2 16.8002 17.2 16.0002C17.2 15.2002 17.9 14.5002 18.7 14.5002Z" fill="white"/>
</g>
<defs>
<clipPath id="clip0_176_4453">
<rect width="32" height="32" fill="white"/>
</clipPath>
</defs>
</svg>
