<svg width="32" height="32" viewBox="0 0 32 32" fill="none" xmlns="http://www.w3.org/2000/svg">
<path d="M14.4226 16.0091L25.6902 22.4632C25.7808 22.5176 25.8842 22.5469 25.9898 22.5481C26.0955 22.5494 26.1995 22.5224 26.2913 22.4701C26.3831 22.4178 26.4593 22.342 26.5121 22.2505C26.5649 22.1589 26.5923 22.055 26.5916 21.9494V10.0598C26.593 9.95395 26.5658 9.84971 26.5131 9.75797C26.4603 9.66622 26.3838 9.59035 26.2917 9.53829C26.1995 9.48623 26.0951 9.45989 25.9893 9.46204C25.8835 9.46418 25.7802 9.49473 25.6902 9.55048L14.4226 16.0091Z" fill="#31CB9E"/>
<path d="M25.4514 6.69299L17.7488 1.02763C17.6691 0.966406 17.5755 0.925738 17.4763 0.909213C17.3771 0.892689 17.2754 0.900817 17.1801 0.932879C17.0848 0.964942 16.9989 1.01996 16.9298 1.09307C16.8608 1.16618 16.8108 1.25516 16.7843 1.35214L13.9719 13.9719L25.3838 7.662C25.4706 7.61733 25.5444 7.55103 25.5982 7.46949C25.6519 7.38796 25.6837 7.29395 25.6905 7.19653C25.6973 7.09912 25.6789 7.00161 25.637 6.9134C25.5951 6.82519 25.5311 6.74928 25.4514 6.69299Z" fill="#31CB9E"/>
<path d="M17.7398 30.9859L25.4514 25.3206C25.5322 25.2638 25.5971 25.1871 25.6399 25.098C25.6826 25.0089 25.7017 24.9103 25.6954 24.8116C25.689 24.713 25.6575 24.6176 25.6037 24.5347C25.5499 24.4518 25.4757 24.3841 25.3883 24.3381L13.9719 18.0282L16.7843 30.6479C16.8076 30.746 16.855 30.8367 16.922 30.9119C16.9891 30.9872 17.0738 31.0446 17.1685 31.079C17.2633 31.1134 17.3651 31.1237 17.4648 31.1091C17.5645 31.0944 17.659 31.0552 17.7398 30.995" fill="#31CB9E"/>
<path d="M11.4929 15.7746L14.4225 2.07321C14.4448 1.95968 14.4328 1.84204 14.388 1.73537C14.3431 1.6287 14.2674 1.53785 14.1706 1.47444C14.0738 1.41103 13.9603 1.37795 13.8446 1.37944C13.7288 1.38093 13.6162 1.41692 13.5211 1.48279L6.01683 7.23829C5.82681 7.38407 5.67303 7.57177 5.56749 7.78676C5.46195 8.00176 5.4075 8.23822 5.40838 8.47772V23.0805C5.4047 23.3231 5.4578 23.5631 5.56345 23.7814C5.6691 23.9998 5.82436 24.1904 6.01683 24.338L13.485 30.0755C13.5801 30.1413 13.6928 30.1773 13.8085 30.1788C13.9242 30.1803 14.0377 30.1472 14.1345 30.0838C14.2313 30.0204 14.307 29.9296 14.3519 29.8229C14.3968 29.7162 14.4088 29.5986 14.3864 29.485L11.4929 15.7746Z" fill="#31CB9E"/>
</svg>
