<svg width="32" height="32" viewBox="0 0 32 32" fill="none" xmlns="http://www.w3.org/2000/svg">
<g clip-path="url(#clip0_4797_63788)">
<path d="M16 32C24.832 32 32 24.832 32 16C32 7.168 24.832 0 16 0C7.168 0 0 7.168 0 16C0 24.832 7.168 32 16 32Z" fill="#31CB9E"/>
<path d="M14.272 17.504L23.68 22.56C24 22.72 24.032 23.136 23.744 23.328L17.376 27.904C17.088 28.128 16.672 27.968 16.576 27.616L14.272 17.504ZM13.984 4.60802C14.368 4.35202 14.88 4.64002 14.784 5.08802L12.256 16L14.752 26.912C14.848 27.328 14.336 27.648 13.952 27.392L7.55204 22.816C7.23204 22.592 7.04004 22.208 7.04004 21.824V10.176C7.04004 9.79202 7.23204 9.40802 7.55204 9.18402L13.984 4.60802ZM24.288 10.848C24.608 10.656 25.056 10.88 25.056 11.264V20.736C25.056 21.088 24.64 21.312 24.288 21.152L14.72 16L24.288 10.848ZM16.576 4.38402C16.64 4.03202 17.088 3.90402 17.376 4.09602L23.744 8.64002C24.032 8.83202 24 9.24802 23.68 9.40802L14.272 14.496L16.576 4.38402Z" fill="white"/>
</g>
<defs>
<clipPath id="clip0_4797_63788">
<rect width="32" height="32" fill="white"/>
</clipPath>
</defs>
</svg>
