<svg width="32" height="32" viewBox="0 0 32 32" fill="none" xmlns="http://www.w3.org/2000/svg">
<g clip-path="url(#clip0_174_4415)">
<path d="M14.5452 15.9978L26.4766 22.8321C26.5724 22.8897 26.682 22.9208 26.7938 22.9221C26.9057 22.9234 27.0159 22.8949 27.1131 22.8395C27.2103 22.7841 27.291 22.7038 27.3468 22.6069C27.4027 22.51 27.4318 22.3999 27.4311 22.288V9.69803C27.4325 9.58597 27.4037 9.47558 27.3479 9.37844C27.292 9.28129 27.211 9.20094 27.1135 9.14582C27.0159 9.09069 26.9053 9.0628 26.7932 9.06507C26.6812 9.06734 26.5718 9.09969 26.4766 9.15873L14.5452 15.9978Z" fill="#31CB9E"/>
<path d="M26.2236 6.13284L18.0673 0.133734C17.9828 0.068899 17.8837 0.0258348 17.7787 0.00833712C17.6737 -0.00916055 17.566 -0.000554331 17.465 0.0333972C17.3641 0.0673487 17.2731 0.125603 17.2 0.203025C17.127 0.280447 17.074 0.37466 17.0459 0.477358L14.0679 13.8405L26.152 7.15894C26.2439 7.11164 26.3221 7.04143 26.379 6.95509C26.4359 6.86875 26.4696 6.7692 26.4768 6.66605C26.484 6.5629 26.4645 6.45964 26.4201 6.36624C26.3758 6.27283 26.3081 6.19245 26.2236 6.13284" fill="#31CB9E"/>
<path d="M18.0577 31.8568L26.2236 25.8577C26.3092 25.7976 26.3779 25.7164 26.4232 25.622C26.4684 25.5276 26.4886 25.4232 26.4819 25.3188C26.4752 25.2144 26.4418 25.1134 26.3849 25.0256C26.3279 24.9378 26.2494 24.8661 26.1568 24.8173L14.0679 18.1357L17.0459 31.4989C17.0707 31.6027 17.1208 31.6988 17.1918 31.7785C17.2628 31.8581 17.3525 31.9189 17.4528 31.9554C17.5531 31.9918 17.6609 32.0027 17.7665 31.9872C17.8721 31.9717 17.9722 31.9302 18.0577 31.8664" fill="#31CB9E"/>
<path d="M11.4429 15.7496L14.5451 1.24104C14.5688 1.12081 14.556 0.99625 14.5085 0.883295C14.461 0.770341 14.3809 0.674134 14.2784 0.606991C14.1758 0.539848 14.0556 0.504823 13.9331 0.506399C13.8106 0.507974 13.6913 0.54608 13.5905 0.615837L5.64424 6.71039C5.44303 6.86476 5.28019 7.06353 5.16843 7.29118C5.05667 7.51884 4.99901 7.76924 4.99995 8.02285V23.4859C4.99604 23.7428 5.05227 23.9969 5.16415 24.2281C5.27602 24.4593 5.44043 24.6612 5.64424 24.8175L13.5524 30.8929C13.6531 30.9627 13.7724 31.0008 13.8949 31.0024C14.0175 31.004 14.1377 30.9689 14.2402 30.9018C14.3427 30.8346 14.4228 30.7384 14.4703 30.6255C14.5178 30.5125 14.5306 30.388 14.5069 30.2677L11.4429 15.7496Z" fill="#31CB9E"/>
</g>
<defs>
<clipPath id="clip0_174_4415">
<rect width="32" height="32" fill="white"/>
</clipPath>
</defs>
</svg>
