<svg width="32" height="32" viewBox="0 0 32 32" fill="none" xmlns="http://www.w3.org/2000/svg">
<g clip-path="url(#clip0_4797_63755)">
<path d="M16 32C24.8366 32 32 24.8366 32 16C32 7.16344 24.8366 0 16 0C7.16344 0 0 7.16344 0 16C0 24.8366 7.16344 32 16 32Z" fill="#F69988"/>
<path fill-rule="evenodd" clip-rule="evenodd" d="M16.0074 4.6875L21.6199 13.4521L16.0071 16.7154L10.395 13.452L16.0074 4.6875ZM12.1131 13.0376L16.0074 6.95606L19.9018 13.0376L16.0071 15.3019L12.1131 13.0376Z" fill="white"/>
<path d="M15.9992 18.6418L9.48849 14.856L9.31074 15.1336C7.30549 18.2651 7.7533 22.3662 10.3874 24.9936C13.4872 28.0855 18.5128 28.0855 21.6126 24.9936C24.2467 22.3662 24.6945 18.2651 22.6892 15.1336L22.5114 14.856L15.9994 18.642L15.9992 18.6418Z" fill="white"/>
</g>
<defs>
<clipPath id="clip0_4797_63755">
<rect width="32" height="32" fill="white"/>
</clipPath>
</defs>
</svg>
