<svg width="32" height="32" viewBox="0 0 32 32" fill="none" xmlns="http://www.w3.org/2000/svg">
<g clip-path="url(#clip0_4767_64145)">
<path d="M8.63906 13.7104H8.65347L8.89829 13.7968L9.12871 13.8832L9.37354 13.9552L9.60396 14.056L9.84879 14.1424L10.0792 14.2288L10.324 14.3152L10.5545 14.4017L10.7849 14.4881L11.0153 14.5745L11.2601 14.6609L11.4906 14.7617L11.7354 14.8337L11.9658 14.9201L12.2106 15.0065L12.441 15.1073L12.6859 15.1937L12.9163 15.2657L13.1467 15.3522L13.3915 15.453L13.6364 15.5394V15.1649V15.1073V14.8049V14.5889V14.4305V14.056V13.696V13.3215V12.9615V12.5727V12.2126V12.1694H13.3483H13.0747H13.0459H12.7435H12.5131H12.4266H12.1242H11.9658H11.8074H11.4906H11.4041H11.1881H10.8857H10.8713H10.8569H10.5689H10.3096H10.2664H9.9496H9.74798H9.20072H8.65347H8.63906H8.32223L8.09181 12.2846L7.54456 12.5727L6.9829 12.8751L6.42124 13.1487L5.88839 13.4368L5.32673 13.7392L4.76508 14.0128L4.21782 14.3152L3.65617 14.6033L3.10891 14.8769L2.56166 15.1793L2.05761 15.4386L2 23.6906L2.56166 24.0794L3.10891 24.4683L3.65617 24.8427L4.21782 25.2459L4.76508 25.6348L5.32673 26.0236L5.57156 26.2108L5.88839 25.8076L6.42124 25.0875L6.47885 25.0155L6.42124 24.9723L5.88839 24.5835L5.32673 24.1946L4.76508 23.8058L4.21782 23.417L3.65617 23.0137L3.51215 22.9273L3.55536 16.245L3.65617 16.1874L4.21782 15.9138L4.76508 15.6402L5.32673 15.3666L5.88839 15.0929L6.42124 14.8049L6.9829 14.5313L7.54456 14.272L8.09181 13.984L8.63906 13.7104Z" fill="url(#paint0_linear_4767_64145)"/>
<path d="M18.1728 29.4511L17.7119 29.6383L17.1935 29.8543L16.675 30.0559L16.1566 30.272L15.9261 30.3584L15.6525 30.2288L15.1341 29.9551L14.6156 29.7103L14.1116 29.4367L13.5931 29.1774L13.0747 28.9326L12.5562 28.659L12.0378 28.3998L11.5193 28.1405L11.0009 27.8813L10.4824 27.6077L9.99275 27.3629L9.4743 27.1036L9.4167 27.0748V20.335H8.95585H8.4374H7.91895V27.9965L8.4374 28.2414L8.95585 28.5006L9.4743 28.7742L9.99275 29.019L10.4824 29.2927L11.0009 29.5519L11.5193 29.8111L12.0378 30.0703L12.5562 30.3296L13.0747 30.5888L13.5931 30.848L14.1116 31.1216L14.6156 31.3665L15.1341 31.6401L15.6525 31.8849L15.8541 32.0001L16.1566 31.8561L16.675 31.6689L17.1935 31.4529L17.7119 31.2369L18.216 31.0352L18.7344 30.8336L18.216 29.5375L18.1728 29.4511Z" fill="url(#paint1_linear_4767_64145)"/>
<path d="M27.3753 20.09L27.4041 23.2583L27.2745 23.3735L26.396 23.9783L25.5176 24.612L24.6391 25.2457L23.7606 25.8649L22.8821 26.4842L22.018 27.1179L21.1395 27.7371L20.6211 28.1116L20.261 27.8379L19.3969 27.1611L18.5185 26.4986L17.64 25.8217L16.7759 25.1593L16.6175 25.044V21.6309L16.7759 21.4869L17.64 20.5652L18.5185 19.6579L19.3969 18.7362L20.261 17.8289L21.1107 16.936H20.261H19.3969H18.5185H17.64H16.7759H15.883H15.0045H14.1404H13.2619H12.3834H11.5194H10.6409L11.5194 17.8577L12.3834 18.765L13.2619 19.6723L14.1404 20.594L15.0045 21.5013L15.1341 21.6309V25.7641L15.883 26.3546L16.7759 27.0314L17.64 27.6939L18.5185 28.3708L19.3969 29.0332L20.261 29.7101L20.5779 29.9549L21.1395 29.5517L22.018 28.9468L22.8821 28.3132L23.7606 27.6795L24.6391 27.0746L25.5176 26.441L26.396 25.8073L27.2745 25.2025L28.153 24.5688L28.8731 24.0359L29.0171 20.1476L28.153 20.1188L27.3753 20.09Z" fill="url(#paint2_linear_4767_64145)"/>
<path d="M3.42575 12.7163H3.52656L3.54096 8.48223L4.10262 8.12219L4.80829 7.70455L5.49956 7.28691L6.19082 6.85486L6.88209 6.43722L7.58776 6.00518L8.26463 5.58754L8.9703 5.1699L9.66157 4.73785L10.3672 4.30581H10.3816L11.0441 4.69465L11.7498 5.08349L12.4411 5.48673L13.1323 5.87557L13.8236 6.26441L14.5149 6.65324L15.2061 7.05648L15.883 7.44532L15.9118 7.38772L16.6031 6.13479L15.9118 5.73155L15.2061 5.34271L14.5149 4.95387L13.8236 4.56504L13.1323 4.1618L12.4411 3.77296L11.7498 3.38412L11.0441 2.98088L10.3672 2.59204L10.3384 2.57764L9.66157 2.98088L8.9703 3.41292L8.26463 3.84496L7.58776 4.27701L6.88209 4.69465L6.19082 5.11229L5.49956 5.54433L4.80829 5.96198L4.10262 6.39402L3.42575 6.81166L2.72008 7.2293L2.05761 7.64694L2.02881 12.7018H2.72008L3.42575 12.7163Z" fill="url(#paint3_linear_4767_64145)"/>
<path d="M30.5004 8.8427L30.1404 8.55467L29.7804 8.26664L29.4203 7.96421L29.0603 7.67619L28.7003 7.38816L28.3258 7.10013L27.9658 6.8121L27.6058 6.52407L27.2313 6.22164L26.9577 6.02002L26.8569 6.13523L26.4968 6.58168L26.1368 7.04252L26.036 7.15773L26.1368 7.25854L26.4968 7.56097L26.8569 7.8634L27.2313 8.16583L27.6058 8.46826L27.9658 8.7851L28.3258 9.08753L28.7003 9.38996L28.8731 9.53397L28.8875 16.3459L28.7003 16.4755L28.3258 16.7059L27.9658 16.9363L27.6058 17.1667L27.2313 17.3972L26.8569 17.6276L26.4968 17.858L26.1368 18.0884L25.7768 18.3188L25.4167 18.5493L25.0567 18.7797L24.6823 19.0101L24.3222 19.2405L23.9622 19.471L23.6022 19.7014L23.2277 19.9318L22.8677 20.1622L23.2277 20.7383L23.6022 21.3143L23.6598 21.4152L23.9622 21.2279L24.3222 21.0119L24.6823 20.7815L25.0567 20.5655L25.4167 20.3206L25.7768 20.1046L26.1368 19.8742L26.4968 19.6582L26.8569 19.4278L27.2313 19.2117L27.6058 18.9669L27.9658 18.7509L28.3258 18.5205L28.7003 18.3044L29.0603 18.074L29.4203 17.858L29.7804 17.6132L30.1404 17.3972L30.5004 17.1667V8.8427Z" fill="url(#paint4_linear_4767_64145)"/>
<path d="M18.6194 12.9037V13.2781V13.6526V14.027V14.4158V14.8047V15.1791V15.5536V15.8416L18.7346 15.7984L19.2242 15.6112L19.7139 15.4095L20.1891 15.2223L20.6788 15.0207L21.1684 14.8191L21.6437 14.6319L22.1333 14.4302L22.623 14.243L23.0982 14.0414L23.5879 13.8542L24.0631 13.6526V13.2781V13.1341V12.1404V4.73807L23.5159 4.39244L22.9542 4.07561L22.3925 3.75878L21.8453 3.41314L21.2836 3.09631L20.722 2.77948L20.1747 2.44824L19.6131 2.11701L19.0658 1.78578L18.5042 1.46895L17.9425 1.13771L17.3952 0.806481L16.848 0.489649L16.2863 0.172817L15.9839 0L15.7247 0.144014L15.163 0.446445L14.6014 0.734473L14.0685 1.05131L13.5069 1.35374L12.9452 1.64176L12.3835 1.9586L12.9452 2.27543L13.5069 2.59226L13.8525 2.80828L14.0685 2.69307L14.6014 2.40504L15.163 2.10261L15.7247 1.81458L15.9407 1.69937L16.2863 1.90099L16.848 2.21782L17.3952 2.53465L17.9425 2.86589L18.5042 3.19712L19.0658 3.51395L19.6131 3.84518L20.1747 4.17642L20.722 4.49325L21.2836 4.81008L21.8453 5.15572L22.3925 5.47255L22.5798 5.57336V12.1404H22.4502H22.3925H22.1333H21.8453H21.8165H21.4853H21.2836H21.1684H20.8516H20.722H20.5348H20.2179H20.1747H19.9011H19.6131H19.5843H19.253H19.0658H18.9362H18.6914H18.6482" fill="url(#paint5_linear_4767_64145)"/>
<path d="M18.6191 15.8418L24.0629 13.6528L18.6191 12.1406" fill="url(#paint6_linear_4767_64145)"/>
<path d="M13.6365 15.8418V12.1982L8.65356 13.6816L13.6365 15.8274" fill="url(#paint7_linear_4767_64145)"/>
</g>
<defs>
<linearGradient id="paint0_linear_4767_64145" x1="7.81458" y1="12.1738" x2="7.81458" y2="26.2051" gradientUnits="userSpaceOnUse">
<stop stop-color="#F6E93D"/>
<stop offset="0.13" stop-color="#F8E330"/>
<stop offset="0.35" stop-color="#F7C730"/>
<stop offset="0.64" stop-color="#F59C2E"/>
<stop offset="0.98" stop-color="#EB5E2C"/>
<stop offset="1" stop-color="#EB5C2C"/>
</linearGradient>
<linearGradient id="paint1_linear_4767_64145" x1="13.3288" y1="20.3407" x2="13.3288" y2="31.9987" gradientUnits="userSpaceOnUse">
<stop stop-color="#F6E93D"/>
<stop offset="0.13" stop-color="#F8E330"/>
<stop offset="0.35" stop-color="#F7C730"/>
<stop offset="0.64" stop-color="#F59C2E"/>
<stop offset="0.98" stop-color="#EB5E2C"/>
<stop offset="1" stop-color="#EB5C2C"/>
</linearGradient>
<linearGradient id="paint2_linear_4767_64145" x1="19.8283" y1="16.9346" x2="19.8283" y2="29.9593" gradientUnits="userSpaceOnUse">
<stop stop-color="#F6E93D"/>
<stop offset="0.13" stop-color="#F8E330"/>
<stop offset="0.35" stop-color="#F7C730"/>
<stop offset="0.64" stop-color="#F59C2E"/>
<stop offset="0.98" stop-color="#EB5E2C"/>
<stop offset="1" stop-color="#EB5C2C"/>
</linearGradient>
<linearGradient id="paint3_linear_4767_64145" x1="9.31522" y1="2.58196" x2="9.31522" y2="12.7177" gradientUnits="userSpaceOnUse">
<stop stop-color="#F6E93D"/>
<stop offset="0.13" stop-color="#F8E330"/>
<stop offset="0.35" stop-color="#F7C730"/>
<stop offset="0.64" stop-color="#F59C2E"/>
<stop offset="0.98" stop-color="#EB5E2C"/>
<stop offset="1" stop-color="#EB5C2C"/>
</linearGradient>
<linearGradient id="paint4_linear_4767_64145" x1="26.6898" y1="6.01714" x2="26.6898" y2="21.4166" gradientUnits="userSpaceOnUse">
<stop stop-color="#F6E93D"/>
<stop offset="0.13" stop-color="#F8E330"/>
<stop offset="0.35" stop-color="#F7C730"/>
<stop offset="0.64" stop-color="#F59C2E"/>
<stop offset="0.98" stop-color="#EB5E2C"/>
<stop offset="1" stop-color="#EB5C2C"/>
</linearGradient>
<linearGradient id="paint5_linear_4767_64145" x1="18.2219" y1="0" x2="18.2219" y2="15.8459" gradientUnits="userSpaceOnUse">
<stop stop-color="#F6E93D"/>
<stop offset="0.13" stop-color="#F8E330"/>
<stop offset="0.35" stop-color="#F7C730"/>
<stop offset="0.64" stop-color="#F59C2E"/>
<stop offset="0.98" stop-color="#EB5E2C"/>
<stop offset="1" stop-color="#EB5C2C"/>
</linearGradient>
<linearGradient id="paint6_linear_4767_64145" x1="21.3353" y1="12.1507" x2="21.3353" y2="15.8504" gradientUnits="userSpaceOnUse">
<stop stop-color="#F6E93D"/>
<stop offset="0.13" stop-color="#F8E330"/>
<stop offset="0.35" stop-color="#F7C730"/>
<stop offset="0.64" stop-color="#F59C2E"/>
<stop offset="0.98" stop-color="#EB5E2C"/>
<stop offset="1" stop-color="#EB5C2C"/>
</linearGradient>
<linearGradient id="paint7_linear_4767_64145" x1="11.0849" y1="14.9269" x2="12.2601" y2="11.6981" gradientUnits="userSpaceOnUse">
<stop stop-color="#F6E93D"/>
<stop offset="0.13" stop-color="#F8E330"/>
<stop offset="0.35" stop-color="#F7C730"/>
<stop offset="0.64" stop-color="#F59C2E"/>
<stop offset="0.98" stop-color="#EB5E2C"/>
<stop offset="1" stop-color="#EB5C2C"/>
</linearGradient>
<clipPath id="clip0_4767_64145">
<rect width="32" height="32" fill="white"/>
</clipPath>
</defs>
</svg>
