<svg width="32" height="32" viewBox="0 0 32 32" fill="none" xmlns="http://www.w3.org/2000/svg">
<g clip-path="url(#clip0_5495_802)">
<path fill-rule="evenodd" clip-rule="evenodd" d="M16 32C24.8365 32 32 24.8365 32 16C32 7.16344 24.8365 0 16 0C7.16344 0 0 7.16344 0 16C0 24.8365 7.16344 32 16 32Z" fill="#848FB7" fill-opacity="0.1"/>
<path d="M21.2104 18.8166C21.8286 17.8891 22.1723 16.7897 22.1723 15.6102C22.1723 12.3008 19.3896 9.60974 15.9427 9.60974C14.4083 9.60974 12.9997 10.148 11.9233 11.0297C11.889 11.0526 11.8546 11.0755 11.8203 11.1099C11.8088 11.1213 11.7974 11.1328 11.7745 11.1442C11.763 11.1557 11.7401 11.1786 11.7287 11.19C11.6828 11.2244 11.6485 11.2587 11.6027 11.3045C11.5454 11.3618 11.4882 11.419 11.4424 11.4763C10.7782 12.1748 10.3201 13.0795 10.0797 14.0528C10.0797 14.0643 10.0682 14.0758 10.0682 14.0986C9.5987 15.6789 9.55291 17.6828 10.5721 19.8471C12.2554 23.4543 16.4008 25.4126 21.0041 25.2865C21.0157 25.2865 21.0157 25.2865 21.0272 25.2865C21.5539 25.2751 21.7485 25.9737 21.2905 26.2142C19.7102 27.0387 17.9009 27.4966 16 27.4966C9.63307 27.4966 4.47998 22.3436 4.47998 15.9767C4.47998 10.0334 8.99179 5.1323 14.7747 4.52537C15.1755 4.47956 15.5877 4.45667 16 4.45667C18.5307 4.45667 20.8782 5.26971 22.7792 6.65531C23.2944 7.03321 23.7753 7.44545 24.2221 7.9035C25.287 9.10588 25.9283 10.6518 25.9283 12.3466C25.9283 15.3354 23.9587 17.8775 21.2104 18.8166Z" fill="url(#paint0_linear_5495_802)"/>
<path d="M27.3828 15.9202C27.3828 15.9431 27.3828 15.966 27.3828 15.9889C27.3599 19.7221 24.8521 22.8941 21.3595 23.6269C20.9358 23.7186 20.4662 23.7759 20.1111 23.8101C15.8857 24.1538 12.6679 22.1727 11.2365 18.9547C11.0303 18.4968 10.8815 18.0387 10.7784 17.6035C10.6868 17.2371 10.6181 16.8821 10.5837 16.5271C10.5837 16.5157 10.5837 16.5042 10.5837 16.4928C10.4921 15.6339 10.5723 14.8323 10.7441 14.1109C10.7441 14.0995 10.7441 14.088 10.7441 14.0766C10.7555 14.0422 10.767 14.0078 10.767 13.9735C10.8242 13.733 10.9387 13.5154 11.0647 13.3208C11.4655 12.7368 12.3587 12.92 12.5076 13.6071C12.6564 14.3399 12.8854 15.1873 13.1717 15.6912C14.3398 17.7525 16.5383 19.1495 19.0692 19.1495C19.8707 19.1495 20.6494 19.012 21.3708 18.7487C23.9932 17.7983 25.8598 15.2675 25.8598 12.2902C25.8598 10.5954 25.2414 9.04945 24.2337 7.84705C25.8827 9.61055 27.0163 11.9352 27.3027 14.5232C27.3599 14.9927 27.3828 15.4507 27.3828 15.9202Z" fill="url(#paint1_linear_5495_802)"/>
</g>
<defs>
<linearGradient id="paint0_linear_5495_802" x1="4.47998" y1="15.9827" x2="25.9248" y2="15.9827" gradientUnits="userSpaceOnUse">
<stop stop-color="#2D2D4C"/>
<stop offset="1" stop-color="#1E1E3A"/>
</linearGradient>
<linearGradient id="paint1_linear_5495_802" x1="10.543" y1="15.8505" x2="27.3828" y2="15.8505" gradientUnits="userSpaceOnUse">
<stop stop-color="#8592B9"/>
<stop offset="1" stop-color="#6D5D91"/>
</linearGradient>
<clipPath id="clip0_5495_802">
<rect width="32" height="32" fill="white"/>
</clipPath>
</defs>
</svg>
