<svg width="32" height="32" viewBox="0 0 32 32" fill="none" xmlns="http://www.w3.org/2000/svg">
<g clip-path="url(#clip0_5488_642)">
<path d="M15.9997 31.9993C24.8361 31.9993 31.9993 24.8361 31.9993 15.9997C31.9993 7.1633 24.8361 0 15.9997 0C7.1633 0 0 7.1633 0 15.9997C0 24.8361 7.1633 31.9993 15.9997 31.9993Z" fill="#172852"/>
<path d="M12.8878 7.15006C14.761 6.44949 16.8698 6.44755 18.7798 7.02056C21.2642 7.7917 23.362 9.66678 24.4582 12.0203C24.7605 12.6911 25.05 13.3904 25.0784 14.1356C23.6818 13.3263 22.1506 12.8012 20.6161 12.3227C18.1621 11.4383 15.5923 10.8238 13.2692 9.60786C12.7286 9.28413 12.039 8.95327 11.8914 8.2799C11.8325 7.69717 12.4482 7.37344 12.8885 7.14682" fill="#FFD83D"/>
<path d="M7.2316 12.8141C7.77418 11.3424 8.66381 9.97554 9.87199 8.96289C10.1789 11.488 11.2543 13.9309 13.0304 15.7678C15.1599 17.9802 18.1933 19.3386 21.2798 19.2875C22.5055 19.3263 23.7039 19.0427 24.8992 18.8142C23.7227 23.0635 19.0654 25.8846 14.75 25.206C12.1453 24.8732 9.74056 23.3283 8.28957 21.1535C6.65276 18.7468 6.23773 15.5516 7.2316 12.8141Z" fill="#FFD83D"/>
<path d="M20.6155 12.324C22.15 12.8025 23.6813 13.3276 25.0779 14.1369L25.1724 14.1868C25.3019 15.158 25.3964 16.1544 25.2235 17.1308C24.521 16.833 23.9519 16.3098 23.3562 15.8475C22.2109 14.8938 21.0415 13.8028 20.6155 12.324Z" fill="#FF6F03"/>
</g>
<defs>
<clipPath id="clip0_5488_642">
<rect width="32" height="32" fill="white"/>
</clipPath>
</defs>
</svg>
