<svg width="32" height="32" viewBox="0 0 32 32" fill="none" xmlns="http://www.w3.org/2000/svg">
<g clip-path="url(#clip0_176_4480)">
<path d="M16 32C24.8366 32 32 24.8366 32 16C32 7.16344 24.8366 0 16 0C7.16344 0 0 7.16344 0 16C0 24.8366 7.16344 32 16 32Z" fill="url(#paint0_linear_176_4480)"/>
<path fill-rule="evenodd" clip-rule="evenodd" d="M11.336 10.3999V22.3999H21.336L11.336 10.3999Z" fill="url(#paint1_linear_176_4480)"/>
<path fill-rule="evenodd" clip-rule="evenodd" d="M1.336 22.3999H11.336V10.3999L1.336 22.3999Z" fill="white"/>
<path fill-rule="evenodd" clip-rule="evenodd" d="M3.20001 25.6001C4.11201 26.8081 5.19201 27.8881 6.40001 28.8001H25.6C26.808 27.8881 27.888 26.8081 28.8 25.6001H3.20001Z" fill="#FC9965"/>
<path fill-rule="evenodd" clip-rule="evenodd" d="M6.39999 28.7998C9.07199 30.8078 12.4 31.9998 16 31.9998C19.6 31.9998 22.928 30.8078 25.6 28.7998H6.39999Z" fill="#FF2D55"/>
<path fill-rule="evenodd" clip-rule="evenodd" d="M21.464 16.7998V25.5998H28.8L21.464 16.7998Z" fill="url(#paint2_linear_176_4480)"/>
<path fill-rule="evenodd" clip-rule="evenodd" d="M21.464 22.3999H1.336C1.832 23.5439 2.464 24.6159 3.2 25.5999H21.472V22.3999H21.464V22.3999Z" fill="#FFBC5B"/>
<path fill-rule="evenodd" clip-rule="evenodd" d="M14.136 25.5998H21.464V16.7998L14.136 25.5998Z" fill="white"/>
<path d="M21.464 14.3999C23.6731 14.3999 25.464 12.609 25.464 10.3999C25.464 8.19076 23.6731 6.3999 21.464 6.3999C19.2548 6.3999 17.464 8.19076 17.464 10.3999C17.464 12.609 19.2548 14.3999 21.464 14.3999Z" fill="#FFC95B"/>
<path d="M11.336 8C12.4406 8 13.336 7.10457 13.336 6C13.336 4.89543 12.4406 4 11.336 4C10.2314 4 9.336 4.89543 9.336 6C9.336 7.10457 10.2314 8 11.336 8Z" fill="#FFC95B"/>
</g>
<defs>
<linearGradient id="paint0_linear_176_4480" x1="27.3136" y1="4.6864" x2="4.6864" y2="27.3136" gradientUnits="userSpaceOnUse">
<stop stop-color="#FF2D55"/>
<stop offset="1" stop-color="#FFBC5B"/>
</linearGradient>
<linearGradient id="paint1_linear_176_4480" x1="16.3326" y1="10.3999" x2="16.3326" y2="22.3999" gradientUnits="userSpaceOnUse">
<stop stop-color="#A524B3"/>
<stop offset="1" stop-color="#FF2D55"/>
</linearGradient>
<linearGradient id="paint2_linear_176_4480" x1="25.1295" y1="16.7998" x2="25.1295" y2="25.5998" gradientUnits="userSpaceOnUse">
<stop stop-color="#A524B3"/>
<stop offset="1" stop-color="#FF2D55"/>
</linearGradient>
<clipPath id="clip0_176_4480">
<rect width="32" height="32" fill="white"/>
</clipPath>
</defs>
</svg>
