<svg width="32" height="32" viewBox="0 0 32 32" fill="none" xmlns="http://www.w3.org/2000/svg">
<g clip-path="url(#clip0_4767_68541)">
<path d="M16.0352 32C24.8967 32 32.0703 24.8264 32.0703 15.9648C32 7.17363 24.8264 0 16.0352 0C7.24396 0 0 7.17363 0 16.0352C0 24.8264 7.17362 32 16.0352 32Z" fill="#1C68F3"/>
<path fill-rule="evenodd" clip-rule="evenodd" d="M25.6703 12.0967V17.4417H9.49446H8.79116C9.49446 20.6769 12.4483 23.0681 15.9648 23.0681C18.8483 23.0681 21.3802 21.4505 22.5758 19.0593H25.7406V23.4901C25.7406 24.545 24.8967 25.389 23.7714 25.389H8.1582C7.10325 25.389 6.18896 24.545 6.18896 23.4901V12.0967H25.6703ZM20.6769 18.989C19.6219 20.4659 17.934 21.4505 15.9648 21.4505C13.9956 21.4505 12.2373 20.4659 11.2527 18.989H20.6769ZM11.8153 13.3626C10.2681 13.3626 9.00215 14.4879 8.79116 15.8945H10.4791C10.6901 15.3318 11.1824 14.9098 11.8153 14.9098C12.4483 14.9098 12.9406 15.3318 13.1516 15.8945H14.7692C14.5582 14.4175 13.2923 13.3626 11.8153 13.3626ZM20.1142 13.3626C18.567 13.3626 17.3011 14.4879 17.0901 15.8945H18.778C18.989 15.3318 19.4813 14.9098 20.1142 14.9098C20.7472 14.9098 21.2395 15.3318 21.4505 15.8945H23.1384C22.8571 14.4175 21.5912 13.3626 20.1142 13.3626ZM23.7011 6.18896C24.756 6.18896 25.6703 7.03292 25.6703 8.08787V10.4087H6.18896V8.08787C6.18896 7.03292 7.03292 6.18896 8.1582 6.18896H23.7011Z" fill="white"/>
</g>
<defs>
<clipPath id="clip0_4767_68541">
<rect width="32" height="32" fill="white"/>
</clipPath>
</defs>
</svg>
