<svg width="32" height="32" viewBox="0 0 32 32" fill="none" xmlns="http://www.w3.org/2000/svg">
<g clip-path="url(#clip0_4797_63765)">
<path d="M16 32C24.8366 32 32 24.8366 32 16C32 7.16344 24.8366 0 16 0C7.16344 0 0 7.16344 0 16C0 24.8366 7.16344 32 16 32Z" fill="url(#paint0_radial_4797_63765)"/>
<mask id="mask0_4797_63765" style="mask-type:luminance" maskUnits="userSpaceOnUse" x="8" y="6" width="16" height="22">
<path d="M23.4597 6.69763H8.9303V27.0387H23.4597V6.69763Z" fill="white"/>
</mask>
<g mask="url(#mask0_4797_63765)">
<path d="M16.1354 13.1017C15.7959 12.7872 15.1226 12.3536 13.9546 12.3592C12.7865 12.3649 12.9773 12.9778 12.9773 12.9778C12.9773 12.9778 12.9535 13.4779 13.7164 13.4935C14.4793 13.509 15.2972 13.5398 15.9608 13.7927C16.6243 14.0456 16.4753 13.4156 16.1354 13.1017Z" fill="#1F1C1C"/>
<path d="M13.3748 14.244C13.3046 14.2871 13.2867 14.4083 13.3681 14.4235C13.8294 14.5092 14.5591 14.6647 15.3732 14.531C15.4501 14.5184 15.4387 14.4113 15.3829 14.3559C15.0942 14.0683 14.3185 13.6652 13.3748 14.244Z" fill="#1F1C1C"/>
<path d="M22.9719 22.2866C22.9612 22.2713 22.9466 22.2592 22.9297 22.2517C22.9127 22.2444 22.8941 22.2419 22.8759 22.2446C22.8575 22.2472 22.8404 22.255 22.8262 22.2671C22.812 22.2791 22.8014 22.2949 22.7955 22.3126C22.3207 23.7491 21.932 23.3972 21.7524 23.0883C21.69 22.9793 21.6434 22.8615 21.6142 22.7388C21.1612 20.9038 21.576 19.2135 21.576 19.2135C21.8226 19.9946 22.4695 20.2262 22.8008 20.2939C22.8197 20.2978 22.8392 20.2962 22.8571 20.2892C22.8751 20.2822 22.8907 20.2702 22.9023 20.2544C22.9137 20.2388 22.9206 20.22 22.922 20.2005C22.9234 20.181 22.9193 20.1615 22.9101 20.1442C21.6407 17.6118 22.3912 16.5387 22.3912 16.5387C22.6097 16.7859 22.9698 16.808 23.1968 16.7952C23.2159 16.7941 23.2343 16.7874 23.2499 16.7762C23.2655 16.7649 23.2776 16.7494 23.285 16.7314C23.2922 16.7133 23.2944 16.6936 23.2912 16.6744C23.288 16.6552 23.2795 16.6373 23.2668 16.6228C22.3468 15.5892 22.2769 15.2385 22.241 13.4877C22.2213 12.5175 21.8865 12.0073 21.5751 11.7416C21.2188 11.4378 20.9345 11.0509 20.7789 10.6043C19.5377 7.05333 17.2154 6.58409 15.0604 6.71696C12.3851 6.88216 10.9606 8.96621 10.2844 10.0047C9.56915 11.1026 9.01174 12.7261 9.04937 13.2229C9.08699 13.7197 9.53741 13.6418 9.53741 14.2161C9.53741 14.7905 8.66537 15.268 9.0082 16.8826C9.15955 17.5939 9.77257 18.1272 9.49685 19.7522C9.00379 22.6727 11.2031 26.2213 11.7512 26.7507C11.8176 26.8144 11.9344 26.763 11.9223 26.6708C11.8367 26.019 11.962 25.1146 11.962 25.1146C13.0639 27.5186 16.1467 27.0727 17.1122 26.8665C17.1327 26.8623 17.1513 26.8516 17.1656 26.836C17.18 26.8206 17.1891 26.8009 17.1921 26.7799C17.195 26.7588 17.1915 26.7374 17.1819 26.7184C17.1724 26.6995 17.1575 26.684 17.139 26.6741C16.1641 26.1471 15.9412 25.0763 15.9412 25.0763C16.9114 25.5438 17.5329 25.4654 17.8325 25.3652C17.8507 25.3589 17.8668 25.3476 17.879 25.3325C17.8911 25.3173 17.8988 25.299 17.9011 25.2796C17.9034 25.2602 17.9003 25.2405 17.892 25.2229C17.8838 25.2053 17.8708 25.1903 17.8546 25.1799C17.5623 24.9931 17.1169 24.2223 16.78 23.4678C16.6417 23.1565 16.5926 22.8117 16.6385 22.4733C16.6844 22.1348 16.8233 21.8165 17.0393 21.5549C17.4335 21.0761 17.9507 20.4079 18.5387 19.6977C18.6616 19.5481 18.8327 19.6942 18.8974 19.8563C19.7564 22.0454 20.8739 23.6955 21.6442 24.1505C22.2027 24.5014 22.8146 24.5646 23.0895 24.3438C23.8474 23.7353 23.2465 22.6858 22.9719 22.2866ZM13.6722 20.2492C12.7507 20.3058 12.9607 19.0869 12.2839 19.1169C11.5589 19.1497 11.7762 20.0793 11.2899 20.1359C10.8037 20.1924 10.8604 18.7709 11.2017 18.606C11.7394 18.3469 12.3691 18.2846 12.8734 18.3026C13.4707 18.3235 14.0415 18.2998 14.3092 18.8847C14.6264 19.5744 14.5932 20.1942 13.6722 20.2492ZM19.4989 11.5389C18.2738 12.2799 18.2018 12.6462 18.0262 13.9492C17.9875 14.2356 17.948 14.5708 18.0768 14.7602C18.3676 15.1879 18.9206 15.5045 18.7689 16.2266C18.4073 17.9452 17.4539 19.9602 16.175 20.5898C16.0209 20.6655 15.8445 20.5123 15.8086 20.3423C15.666 19.6612 15.3268 18.4229 15.2351 18.0186C14.7796 15.7026 12.6093 15.6706 12.5485 16.1135C12.5305 16.2452 12.988 16.4187 13.2785 16.5151C13.5452 16.6049 13.5543 16.9921 13.2888 17.0837C13.2191 17.1061 13.1467 17.1181 13.0736 17.1189C12.537 17.0816 11.8565 17.124 11.5495 17.1468C11.4468 17.1547 11.3449 17.1233 11.2637 17.0587C11.1824 16.9942 11.1277 16.9013 11.1103 16.7979C10.9903 16.0889 11.2023 15.8349 11.4586 15.1615C11.5863 14.8264 11.75 14.1506 11.8067 13.8041C11.8361 13.6182 11.8235 13.395 11.8044 13.2277C11.7812 13.0299 11.772 12.8307 11.7771 12.6316C11.7953 11.9891 11.8579 11.4645 12.3386 11.4645C13.2044 11.4645 15.0366 11.4671 15.3268 11.0338C15.6311 10.5801 13.9329 11.02 12.1081 10.9602C12.0724 10.9589 12.0383 10.9446 12.0123 10.9197C11.9864 10.8948 11.9701 10.8611 11.9666 10.8249C11.9666 10.8136 11.9647 10.8025 11.9634 10.7911C11.9607 10.7586 11.9646 10.726 11.9748 10.6952C11.985 10.6644 12.0013 10.6359 12.0228 10.6119C12.0442 10.5877 12.0703 10.5684 12.0995 10.555C12.1286 10.5416 12.1602 10.5345 12.1922 10.534C13.1668 10.5218 13.9083 10.4529 14.1031 10.1639C14.3013 9.86818 13.3164 10.0008 12.2002 10.0112C12.0572 10.0112 11.9391 10.0091 11.9464 9.86402V9.85918C11.9494 9.80158 11.9731 9.74718 12.013 9.70619C12.0529 9.66528 12.1062 9.64072 12.1628 9.63717C12.8196 9.59315 13.0994 9.54229 13.1271 9.32859C13.1547 9.11496 13.0595 9.1365 12.3333 9.17897C12.1754 9.18796 12.2207 9.06619 12.3103 8.933C12.537 8.59333 13.5505 7.61355 15.7928 7.68508C19.6341 7.80956 19.5127 10.5789 19.6303 11.2517C19.6398 11.3075 19.6323 11.3649 19.6088 11.4163C19.5853 11.4677 19.547 11.5105 19.4989 11.5389Z" fill="#1F1C1C"/>
</g>
</g>
<defs>
<radialGradient id="paint0_radial_4797_63765" cx="0" cy="0" r="1" gradientUnits="userSpaceOnUse" gradientTransform="translate(16 16) rotate(90) scale(18.9768)">
<stop stop-color="#F0C0BF"/>
<stop offset="1" stop-color="#EC6F6F"/>
</radialGradient>
<clipPath id="clip0_4797_63765">
<rect width="32" height="32" fill="white"/>
</clipPath>
</defs>
</svg>
