<svg width="32" height="32" viewBox="0 0 32 32" fill="none" xmlns="http://www.w3.org/2000/svg">
<g clip-path="url(#clip0_4767_64225)">
<path d="M16 32C24.8366 32 32 24.8366 32 16C32 7.16344 24.8366 0 16 0C7.16344 0 0 7.16344 0 16C0 24.8366 7.16344 32 16 32Z" fill="url(#paint0_linear_4767_64225)"/>
<path d="M8.12476 20.8001V13.2695L13.8357 17.5676V20.8001H15.2933V17.2641C15.293 17.1327 15.2623 17.0032 15.2035 16.8857C15.1448 16.7681 15.0596 16.6658 14.9546 16.5868L8.02876 11.3724C7.90208 11.2783 7.75179 11.2212 7.5946 11.2074C7.43741 11.1936 7.27947 11.2236 7.13833 11.2942C6.99719 11.3648 6.87838 11.4731 6.79511 11.6071C6.71184 11.7412 6.66736 11.8957 6.66663 12.0535V20.8001H8.12476ZM23.9189 20.8001V13.2695L18.208 17.5676V20.8001H16.7504V17.2641C16.7506 17.1327 16.7813 17.0032 16.8401 16.8857C16.8989 16.7681 16.9841 16.6658 17.089 16.5868L24.0149 11.3745C24.1414 11.2805 24.2915 11.2234 24.4485 11.2095C24.6055 11.1957 24.7633 11.2255 24.9044 11.2958C25.0454 11.3661 25.1643 11.4742 25.2477 11.6079C25.3311 11.7416 25.3759 11.8958 25.377 12.0535V20.8001H23.9189Z" fill="white"/>
</g>
<defs>
<linearGradient id="paint0_linear_4767_64225" x1="16" y1="0" x2="16" y2="32" gradientUnits="userSpaceOnUse">
<stop stop-color="#4FA89B"/>
<stop offset="1" stop-color="#6ACEBB"/>
</linearGradient>
<clipPath id="clip0_4767_64225">
<rect width="32" height="32" fill="white"/>
</clipPath>
</defs>
</svg>
