<svg width="32" height="32" viewBox="0 0 32 32" fill="none" xmlns="http://www.w3.org/2000/svg">
<g clip-path="url(#clip0_4767_69353)">
<path d="M10.4808 0.936902C11.6399 -0.249022 13.6433 -0.428952 14.9909 0.537738C16.3258 1.4169 16.8804 3.24673 16.2981 4.72854C15.9586 5.65565 15.2018 6.38164 14.3066 6.77551C14.577 8.16784 14.8641 9.55599 15.1358 10.9461C16.7506 10.8311 18.3846 11.6012 19.3128 12.9283C20.3838 14.4056 20.438 16.491 19.513 18.0537C21.2598 19.6877 23.0027 21.3252 24.7417 22.9662C25.5919 22.2711 26.7866 22.0136 27.8287 22.3935C29.0273 22.8098 29.8896 24.0222 29.8747 25.2924C29.8864 26.4214 29.2146 27.514 28.2119 28.0282C27.5913 28.3627 26.8547 28.437 26.1671 28.3113C25.0217 28.0856 24.0561 27.1521 23.7953 26.0141C23.6124 25.3117 23.7396 24.5708 24.0183 23.9118C22.2694 22.2704 20.5258 20.6226 18.7705 18.9886C17.5687 20.15 15.7538 20.63 14.1453 20.1393C13.2682 22.5302 12.4475 24.9412 11.5704 27.333C11.8982 27.8377 12.1675 28.4018 12.1856 29.0149C12.2154 29.9326 11.7726 30.8576 11.0189 31.3876C10.3399 31.8763 9.43507 32.0508 8.63033 31.8049C7.60092 31.5262 6.78977 30.6063 6.63437 29.5525C6.52468 29.0161 6.6674 28.4753 6.83131 27.9676C6.48106 27.7167 6.13305 27.464 5.7828 27.2138C5.3559 27.4459 4.88761 27.6385 4.39256 27.6109C3.38489 27.6339 2.43117 26.9228 2.12538 25.9691C1.81876 25.1005 2.08915 24.0743 2.7651 23.4527C3.39103 22.8512 4.35395 22.6444 5.17305 22.9246C6.09054 23.2195 6.78462 24.1115 6.81333 25.0792C6.84747 25.5113 6.71758 25.9308 6.57709 26.3336C6.90378 26.5566 7.22322 26.7901 7.54894 27.0148C7.9651 26.6955 8.44204 26.4389 8.96789 26.3644C9.51813 26.2537 10.0689 26.4102 10.5912 26.5709C11.4012 24.2641 12.2305 21.9649 13.0427 19.658C11.6642 18.8078 10.7264 17.2417 10.787 15.6035C10.7386 13.6414 12.1184 11.8009 13.9648 11.1846C13.7041 9.79864 13.4091 8.41913 13.1461 7.03418C11.9902 7.05551 10.831 6.53816 10.1393 5.60199C9.07172 4.24478 9.22712 2.12324 10.4811 0.937459M12.6229 1.37384C11.4744 1.52715 10.6281 2.76199 10.8947 3.88924C11.0767 4.82387 11.9485 5.58819 12.912 5.57955C13.8458 5.64032 14.7545 4.98136 15.0111 4.08617C15.3017 3.18875 14.9004 2.12756 14.085 1.65272C13.655 1.37593 13.1233 1.30429 12.6235 1.37397M14.7728 13.0197C13.4379 13.3391 12.5278 14.7889 12.811 16.1302C13.0164 17.3766 14.1979 18.3645 15.4636 18.3368C16.7004 18.3709 17.865 17.4342 18.1141 16.2248C18.3686 15.155 17.8864 13.9522 16.9528 13.3677C16.3184 12.9496 15.505 12.8226 14.7728 13.0193M26.2553 23.7344C25.4781 23.992 24.9619 24.8851 25.1855 25.6835C25.3611 26.4626 26.1626 27.0385 26.9588 26.9416C27.8104 26.8682 28.5183 26.0497 28.4342 25.1917C28.4129 24.1474 27.2313 23.352 26.2553 23.7344ZM4.00984 24.0584C3.13179 24.3181 2.9028 25.6055 3.63939 26.1522C4.31953 26.7727 5.54587 26.2831 5.6235 25.3687C5.77583 24.5139 4.81779 23.7209 4.00984 24.0586M9.0182 27.8119C8.62643 27.9225 8.29542 28.2216 8.13472 28.5953C7.78016 29.3758 8.34113 30.3815 9.1959 30.471C9.98364 30.6115 10.7863 29.9274 10.7512 29.1255C10.793 28.2492 9.84956 27.5478 9.0182 27.8117" fill="#6EA8F2"/>
</g>
<defs>
<clipPath id="clip0_4767_69353">
<rect width="32" height="32" fill="white"/>
</clipPath>
</defs>
</svg>
