<svg width="57" height="57" viewBox="0 0 57 57" fill="none" xmlns="http://www.w3.org/2000/svg">
<path d="M28.5083 56.44C43.8683 56.44 56.3483 43.96 56.3483 28.6C56.3483 13.24 43.8683 0.759998 28.5083 0.759998C13.1483 0.759998 0.66825 13.24 0.66825 28.6C0.66825 43.96 13.1483 56.44 28.5083 56.44ZM28.5083 43.32L13.5963 28.344L17.1163 24.76L28.5083 36.024L39.8363 24.76L43.4203 28.344L28.5083 43.32ZM28.5083 31.864L19.2283 22.712L22.8763 19.128L28.5083 24.824L34.1403 19.128L37.7882 22.712L28.5083 31.864ZM28.5083 20.728L24.9243 16.952L28.5083 13.432L32.0923 16.952L28.5083 20.728Z" fill="#8A92B2"/>
</svg>
