<svg width="32" height="32" viewBox="0 0 32 32" fill="none" xmlns="http://www.w3.org/2000/svg">
<path d="M29.4992 21.1641C29.5 17.7048 29.5 14.2456 29.4992 10.7865C29.5132 10.4328 29.3356 10.0808 29.0518 9.87231C24.9296 6.86044 20.8075 3.8481 16.6853 0.835307C16.5606 0.737823 16.4165 0.668171 16.2627 0.631037C16.1088 0.593903 15.9488 0.590149 15.7934 0.620027C15.6013 0.657701 15.4282 0.753808 15.274 0.869445C11.1812 3.86092 7.08819 6.85224 2.99499 9.8434C2.84199 9.94975 2.71715 10.0917 2.63123 10.2571C2.54532 10.4224 2.50092 10.6062 2.50185 10.7925C2.49938 14.2508 2.49938 17.709 2.50185 21.167C2.49646 21.5416 2.69083 21.9051 2.99884 22.1161C7.09162 25.106 11.1836 28.0966 15.2747 31.0879C15.6662 31.4228 16.2804 31.4492 16.6845 31.1228C20.7935 28.1225 24.9009 25.1208 29.0069 22.1176C29.3161 21.9093 29.5161 21.5393 29.4989 21.1642" fill="#050708"/>
<path d="M14.5748 3.09575C14.6833 2.97274 14.7934 2.78098 14.9843 2.80651C15.6333 2.81035 16.284 2.79636 16.9329 2.81343C17.0453 2.88324 17.1314 2.98796 17.2275 3.07792C17.225 3.74775 17.225 4.41773 17.2275 5.08787C17.0344 5.09017 16.8406 5.09878 16.6475 5.08556C16.6358 5.0382 16.6126 4.94517 16.6013 4.89796C16.6013 4.39774 16.6447 3.8969 16.6029 3.39745C16.1259 3.39817 15.6492 3.39817 15.1728 3.39745C15.1705 3.56568 15.1697 3.73483 15.1682 3.90306C14.9674 3.90306 14.7658 3.90306 14.5642 3.90152C14.5656 3.6338 14.536 3.36163 14.5748 3.09575" fill="white"/>
<path d="M12.9565 3.91353C13.1759 3.90507 13.3953 3.90507 13.6155 3.91045C13.6186 4.83708 13.6224 5.76294 13.6132 6.6888C13.4038 6.69341 13.1945 6.69341 12.9858 6.69188C12.9162 5.76925 12.9718 4.83939 12.9565 3.91353" fill="white"/>
<path d="M18.5383 4.90891C19.1226 4.90122 19.7061 4.90352 20.2901 4.90737C20.2932 5.12142 20.2932 5.3347 20.2901 5.5486C19.7057 5.55475 19.1214 5.55705 18.5371 5.54706C18.5349 5.33455 18.5349 5.12065 18.5371 4.90891" fill="white"/>
<path d="M14.9951 5.22438C15.2308 5.219 15.4666 5.21976 15.7025 5.21976C15.928 5.65863 16.2111 6.06812 16.3944 6.5279C16.1781 6.53805 15.9609 6.53805 15.7446 6.53882C15.4875 6.10472 15.2393 5.66555 14.9951 5.22438" fill="white"/>
<path d="M17.402 5.99594C17.6059 5.99133 17.8098 5.9921 18.0147 5.99517C18.5698 6.8563 19.1094 7.72757 19.6686 8.58669C19.6686 8.8481 19.6686 9.10951 19.664 9.37092C19.6034 9.36001 19.4841 9.33909 19.4244 9.3291C18.9499 8.62175 18.5133 7.88918 18.0442 7.17875C18.0365 7.97837 18.0465 8.77798 18.0388 9.57759C17.8263 9.58149 17.6133 9.58149 17.3999 9.57759C17.3973 8.38417 17.3934 7.18998 17.402 5.99594" fill="white"/>
<path d="M19.9362 6.48034C20.1533 6.47573 20.3712 6.47573 20.5883 6.48188C20.5899 6.68655 20.5899 6.89214 20.5883 7.09696C20.3712 7.10235 20.1533 7.10235 19.9369 7.0985C19.9354 6.89286 19.9354 6.6868 19.9369 6.48034" fill="white"/>
<path d="M9.20177 6.68324C9.37307 6.68017 9.54453 6.68094 9.71583 6.68248C10.1733 6.65172 10.63 6.66079 11.0876 6.68709C11.0892 6.88561 11.0876 7.0849 11.0861 7.28342C10.4095 7.68968 9.75935 8.14023 9.07306 8.52897C8.8707 8.45208 8.71631 8.29016 8.55116 8.15515C9.00018 7.88143 9.43981 7.59296 9.89344 7.32693C9.66385 7.31525 9.43366 7.31678 9.20408 7.31448C9.20008 7.1035 9.19931 6.89309 9.20177 6.68324" fill="white"/>
<path d="M14.6145 6.91888C14.8247 6.91273 15.0355 6.9135 15.2449 6.91888C15.2503 7.12986 15.2503 7.33991 15.2449 7.55088C15.0348 7.55703 14.8246 7.55729 14.6145 7.55165C14.6095 7.34068 14.6095 7.12975 14.6145 6.91888" fill="white"/>
<path d="M11.5296 7.53567C11.8662 8.04588 12.1927 8.56317 12.5337 9.07031C12.8742 8.55702 13.2029 8.03589 13.5465 7.5249C13.5465 7.8632 13.5689 8.20503 13.5395 8.54302C13.2279 9.07723 12.8673 9.58206 12.5314 10.1017C12.2011 9.59067 11.8513 9.09045 11.5381 8.56947C11.5025 8.22656 11.5281 7.87996 11.5296 7.53567" fill="white"/>
<path d="M20.8481 7.62193C21.8584 7.61732 22.8688 7.61757 23.8793 7.6227C23.8793 7.82737 23.8793 8.03296 23.8783 8.23779C22.8687 8.24014 21.8586 8.2404 20.8481 8.23855C20.8472 8.03296 20.8466 7.82691 20.8481 7.62193" fill="white"/>
<path d="M15.4999 8.42206C15.7031 8.41821 15.907 8.41821 16.111 8.42052C16.1212 9.31685 16.111 10.2141 16.1164 11.1115C16.0218 11.2015 15.928 11.293 15.8358 11.3845C15.1355 11.3922 14.4354 11.3845 13.7359 11.3883C13.6436 11.2999 13.549 11.2153 13.466 11.12C13.4303 10.8455 13.4566 10.5655 13.4559 10.2896C13.6506 10.2881 13.846 10.2881 14.042 10.2896C14.0474 10.4478 14.0466 10.6059 14.0443 10.7642C14.5259 10.8184 15.0113 10.7795 15.4952 10.7912C15.4976 10.0016 15.4899 9.21075 15.4999 8.42206" fill="white"/>
<path d="M25.2681 11.0722C25.2617 10.3956 25.2617 9.71866 25.2681 9.04135C25.4798 9.03674 25.6914 9.03597 25.9039 9.04135C25.9108 9.71795 25.9108 10.3952 25.9039 11.073C25.692 11.0765 25.4804 11.0758 25.2687 11.073" fill="white"/>
<path d="M22.251 9.55261C22.6508 9.54876 23.0527 9.48664 23.4504 9.55107C23.7109 10.4002 23.9343 11.2624 24.1932 12.1131C23.9886 12.1146 23.783 12.1146 23.5782 12.1146C23.3827 11.4548 23.216 10.7871 23.0144 10.1286C22.902 10.1302 22.7896 10.1317 22.6771 10.1325C22.5096 10.7971 22.308 11.4515 22.135 12.1137C21.9287 12.1144 21.7224 12.1141 21.5162 12.1129C21.7701 11.2624 22.0083 10.406 22.251 9.55261" fill="white"/>
<path d="M5.15787 9.87652C6.07912 9.87114 7.00113 9.86883 7.92222 9.87652C7.92761 10.0883 7.92761 10.2991 7.92299 10.5108C7.00036 10.5193 6.07896 10.517 5.15695 10.5116C5.15403 10.2999 5.15403 10.0869 5.15787 9.87575" fill="white"/>
<path d="M8.35658 9.87694C8.56602 9.87541 8.7753 9.87464 8.98551 9.87694C8.99012 10.0895 8.99012 10.3026 8.98551 10.5151C8.7753 10.5174 8.56602 10.5166 8.35658 10.5151C8.35412 10.3026 8.35412 10.0908 8.35658 9.87848" fill="white"/>
<path d="M10.6721 9.90314C10.8776 9.90161 11.0839 9.90237 11.2894 9.90468C11.2955 10.3968 11.2924 10.8902 11.2924 11.3827C11.0838 11.3843 10.8753 11.385 10.6675 11.3827C10.6654 10.8907 10.6589 10.396 10.6721 9.90238" fill="white"/>
<path d="M26.7754 10.3454C27.0119 10.3408 27.2492 10.3416 27.4857 10.3408C27.7199 10.7751 28.0045 11.1866 28.1789 11.6505C27.9636 11.6582 27.747 11.659 27.5314 11.6599C27.2764 11.2233 27.0336 10.7795 26.7753 10.3454" fill="white"/>
<path d="M17.4517 10.8722C17.6567 10.8707 17.8617 10.8707 18.0668 10.8722C18.0714 11.5468 18.0681 12.2214 18.0681 12.8962C17.8619 12.8977 17.6563 12.8985 17.4503 12.8985C17.4503 12.2233 17.4492 11.5472 17.4517 10.8715" fill="white"/>
<path d="M19.6146 11.692C19.6122 11.4811 19.6122 11.2696 19.6146 11.0577C19.8216 11.0547 20.0298 11.0547 20.2373 11.06C20.2373 11.271 20.2388 11.4818 20.2357 11.6928C20.0291 11.6936 19.8205 11.6928 19.6139 11.6928" fill="white"/>
<path d="M7.91156 12.6276C8.40855 12.2647 8.93906 11.9492 9.44928 11.6064C9.78665 11.6103 10.1231 11.6064 10.4605 11.6111C9.95949 11.9693 9.42683 12.2787 8.92276 12.6323C9.44082 12.9579 9.94873 13.2992 10.4636 13.6279C10.117 13.6341 9.77035 13.6302 9.42375 13.631C8.92353 13.2915 8.40394 12.9785 7.91156 12.6276" fill="white"/>
<path d="M25.2688 12.0389C25.4812 12.0343 25.6937 12.0335 25.907 12.0389C25.9122 12.2514 25.9116 12.463 25.9054 12.6755C25.6937 12.6801 25.4813 12.6794 25.2696 12.6755C25.265 12.4637 25.265 12.252 25.2696 12.0404" fill="white"/>
<path d="M3.4542 12.1259C4.51522 12.1197 5.57809 12.1174 6.6405 12.1274C6.64281 12.3283 6.64281 12.5299 6.64358 12.7314C6.16904 13.0424 5.6945 13.3548 5.20673 13.6433C5.00053 13.5681 4.8446 13.3973 4.66853 13.272C4.93133 13.106 5.19812 12.9455 5.45277 12.7679C4.78663 12.7648 4.12065 12.7717 3.45374 12.764C3.45066 12.5515 3.45066 12.3388 3.45374 12.1259" fill="white"/>
<path d="M12.5395 12.7413C13.4584 12.7451 14.3772 12.7367 15.2954 12.7451C15.3177 12.9541 15.3149 13.165 15.2869 13.3733C14.3711 13.3771 13.4561 13.3741 12.5412 13.3748C12.5395 13.1629 12.539 12.9517 12.5395 12.7413Z" fill="white"/>
<path d="M15.8955 12.7453C16.1165 12.7407 16.3367 12.7407 16.5578 12.7484C16.5585 12.9547 16.5582 13.1604 16.5569 13.3657C16.3367 13.3718 16.1157 13.3718 15.8957 13.368C15.8935 13.1602 15.8935 12.9528 15.8957 12.7453" fill="white"/>
<path d="M18.7855 13.6341C18.7568 13.4162 18.9802 13.3046 19.0949 13.155C19.3648 13.155 19.6345 13.1535 19.9045 13.1588C19.9107 13.362 19.9107 13.5651 19.9075 13.7692C19.7371 13.7722 19.5655 13.7722 19.3951 13.7745V15.2215C20.1882 15.2269 20.9815 15.2185 21.7749 15.2261C21.7772 15.4316 21.7772 15.6372 21.7718 15.8412C20.8785 15.8474 19.9843 15.842 19.0911 15.8443C18.9771 15.6954 18.7585 15.5829 18.7863 15.3667C18.7823 14.7894 18.7823 14.2119 18.7863 13.6341" fill="white"/>
<path d="M21.7934 13.4418C22.012 13.4341 22.2322 13.4341 22.4517 13.4418C22.454 13.6511 22.454 13.8605 22.4517 14.07C22.2322 14.0776 22.0136 14.0776 21.7941 14.07C21.7918 13.8598 21.7918 13.6505 21.7941 13.4403" fill="white"/>
<path d="M23.8833 13.4419C24.8076 13.4294 25.7311 13.438 26.6555 13.4372C26.657 13.6505 26.657 13.8646 26.6545 14.0777C25.731 14.0777 24.8076 14.0854 23.8839 14.0739C23.8808 13.8629 23.8808 13.6522 23.8839 13.4419" fill="white"/>
<path d="M11.0791 14.179C11.5972 14.1782 12.1143 14.179 12.6322 14.1782C12.6368 14.3935 12.6368 14.6088 12.6322 14.8241C12.1149 14.8249 11.598 14.8249 11.0813 14.8241C11.0723 14.6088 11.0718 14.3938 11.0799 14.179" fill="white"/>
<path d="M14.4951 14.1795C15.3078 14.1787 16.1204 14.1795 16.933 14.178C17.2282 14.1318 17.5239 14.4385 17.4866 14.73C17.4848 15.327 17.4845 15.9246 17.4856 16.5228C17.3817 16.6352 17.2771 16.7461 17.1724 16.8578C16.9033 16.8578 16.6351 16.8578 16.366 16.8547C16.3638 16.6496 16.3635 16.4449 16.3652 16.2405C16.5335 16.2382 16.702 16.2367 16.8701 16.2344C16.8701 15.7644 16.8701 15.2937 16.8716 14.8238C16.0822 14.7532 15.2867 14.8121 14.4949 14.7912C14.493 14.5862 14.493 14.3823 14.4949 14.1795" fill="white"/>
<path d="M8.76752 14.3686C9.16456 14.3663 9.56083 14.364 9.95786 14.3702C10.1982 15.2285 10.4564 16.0823 10.6837 16.9446C10.4838 16.9446 10.2839 16.9446 10.085 16.9461C9.88113 16.2838 9.72367 15.6093 9.51346 14.9502C9.40029 14.9571 9.28711 14.9656 9.17378 14.9742C9.02339 15.638 8.80857 16.2846 8.64419 16.9454C8.43875 16.9454 8.23316 16.9454 8.02911 16.9431C8.2736 16.0849 8.51702 15.2254 8.76721 14.3686" fill="white"/>
<path d="M26.0887 15.1439C26.7806 15.137 27.4735 15.1299 28.1646 15.1462C28.3391 15.2538 28.5359 15.4285 28.498 15.6579C28.498 16.15 28.4949 16.6435 28.498 17.136C28.4918 17.3725 28.5026 17.609 28.4957 17.8455C28.5066 18.0386 28.4538 18.2285 28.4649 18.4224C28.2679 18.4224 28.0709 18.4224 27.874 18.4201C27.8763 17.5315 27.874 16.6421 27.8755 15.7534C27.3922 15.7402 26.9093 15.7503 26.4262 15.7465C26.4253 15.9117 26.4253 16.0768 26.4223 16.2427C26.2191 16.2458 26.0158 16.2468 25.8126 16.2458C25.8088 15.9736 25.8097 15.7007 25.8103 15.4285C25.904 15.3347 25.9962 15.24 26.0885 15.1439" fill="white"/>
<path d="M6.39703 15.1685H7.0398C7.04134 15.8438 7.0398 16.5184 7.0398 17.1932H6.39396C6.39703 16.5186 6.39473 15.8432 6.39627 15.1685" fill="white"/>
<path d="M4.38009 15.7332C4.59106 15.7301 4.80188 15.7363 5.01209 15.7503C5.01445 15.9503 5.01445 16.1506 5.01209 16.3512C4.79958 16.3535 4.58722 16.3543 4.3747 16.3512C4.3724 16.1448 4.37317 15.9394 4.38009 15.734" fill="white"/>
<path d="M11.9331 19.4341C11.9275 18.24 11.9273 17.0457 11.9323 15.8513C12.1417 15.8482 12.351 15.8482 12.5605 15.8528C13.0525 16.6461 13.56 17.4308 14.0625 18.2186C14.2796 18.4984 14.1494 18.8738 14.1843 19.1995C14.1114 19.1995 14.0385 19.201 13.9664 19.2026C13.5143 18.4845 13.0421 17.7788 12.6094 17.0498C12.5311 17.8423 12.5954 18.6418 12.5698 19.4374C12.3569 19.4395 12.1447 19.4395 11.9331 19.4341Z" fill="white"/>
<path d="M14.725 16.3105C14.9381 16.3059 15.1514 16.3054 15.3647 16.309C15.3678 16.8309 15.367 17.3528 15.3647 17.8745C15.1506 17.8784 14.9374 17.8784 14.7235 17.873C14.7199 17.352 14.719 16.8309 14.7235 16.3105" fill="white"/>
<path d="M18.5907 17.0088C18.7994 17.0072 19.0087 17.0065 19.2181 17.0088C19.222 17.2213 19.222 17.4338 19.2181 17.6462C19.0087 17.647 18.7995 17.647 18.5907 17.6462C18.5883 17.4345 18.5883 17.2223 18.5907 17.0095" fill="white"/>
<path d="M20.6246 17.0362C21.2744 17.0277 21.9242 17.0324 22.5748 17.0339C22.6011 17.2238 22.6174 17.4169 22.5988 17.6093C22.5373 17.7342 22.3902 17.6845 22.2801 17.6962C21.7265 17.6799 21.1712 17.728 20.6215 17.6654C20.6176 17.4549 20.6176 17.2456 20.6246 17.0362Z" fill="white"/>
<path d="M23.2465 17.1267C23.4559 17.1237 23.6675 17.1097 23.877 17.1421C23.8971 17.8756 23.8854 18.6116 23.8816 19.346C23.6699 19.3499 23.4584 19.3499 23.2473 19.346C23.2402 18.6065 23.2402 17.867 23.2473 17.1275" fill="white"/>
<path d="M17.4516 17.5608C17.6563 17.5608 17.8619 17.5593 18.0667 17.5608C18.069 17.7718 18.0696 17.9834 18.0667 18.1959C17.8617 18.199 17.6566 18.199 17.4516 18.1959C17.4501 17.9843 17.4501 17.7718 17.4516 17.5601" fill="white"/>
<path d="M7.59282 18.0116C8.32324 17.9326 9.06073 17.9953 9.79422 17.9721C9.98323 17.9697 10.1722 17.9782 10.3603 17.9977C10.3633 18.2109 10.3626 18.425 10.3603 18.6381C9.43762 18.6366 8.51699 18.6427 7.5959 18.635C7.59036 18.4273 7.59036 18.2199 7.59205 18.0116" fill="white"/>
<path d="M3.45504 18.4835C3.55515 18.3858 3.65587 18.2873 3.75674 18.1896C4.02353 18.1881 4.29017 18.1873 4.55635 18.1927C4.55943 18.3943 4.55943 18.5966 4.55789 18.7982C4.39197 18.8021 4.22682 18.8029 4.0609 18.8044C4.06475 19.2852 4.05859 19.7659 4.06475 20.2468C4.85021 20.2491 5.63583 20.2414 6.4213 20.2506C6.42514 20.4491 6.42514 20.6469 6.4236 20.8454C6.22893 20.8462 6.03348 20.8469 5.83927 20.8469C5.14222 20.84 4.44425 20.8586 3.74798 20.8385C3.63172 20.7725 3.51455 20.6639 3.46181 20.5408C3.44351 19.8554 3.45965 19.1691 3.45581 18.4835" fill="white"/>
<path d="M19.7509 18.8834C19.8557 18.785 19.9612 18.6864 20.0689 18.5903C20.7482 18.5957 21.4275 18.5903 22.1067 18.5926C22.2091 18.6903 22.3114 18.7889 22.4143 18.8857C22.4151 19.558 22.4151 20.2301 22.4143 20.9018C22.2073 20.9034 22.0002 20.9018 21.794 20.8964C21.794 20.3312 21.7893 19.7667 21.7963 19.2014C21.3196 19.2007 20.8449 19.2014 20.3694 19.2007C20.3702 19.3727 20.3694 19.5449 20.3656 19.717C20.1617 19.7201 19.9578 19.7201 19.7545 19.7193C19.7479 19.4407 19.7494 19.1624 19.7502 18.8834" fill="white"/>
<path d="M24.1118 20.0701C24.8653 19.5793 25.6263 19.1013 26.3861 18.6216C26.5675 18.7426 26.7459 18.8698 26.9228 18.9969C26.3759 19.3455 25.8295 19.6932 25.2836 20.04C26.0861 20.0484 26.8888 20.04 27.6921 20.0446C27.6936 20.2579 27.6936 20.4719 27.6921 20.685C26.4992 20.6889 25.3066 20.6889 24.1141 20.685C24.111 20.4795 24.111 20.274 24.1126 20.07" fill="white"/>
<path d="M15.5845 20.1915C16.3406 19.6883 17.1207 19.2214 17.8766 18.7183C18.0564 18.8424 18.2341 18.9688 18.4171 19.0873C17.8943 19.4548 17.3393 19.7751 16.8065 20.1294C17.6044 20.1434 18.4023 20.1279 19.2003 20.1379C19.2056 20.3573 19.2056 20.5775 19.2003 20.7969C18.0061 20.8039 16.8117 20.7993 15.6174 20.7993C15.5866 20.598 15.5866 20.3941 15.5852 20.1908" fill="white"/>
<path d="M7.73554 19.6489C8.06738 20.1563 8.40014 20.6638 8.72813 21.1726C9.08012 20.6701 9.39504 20.1423 9.74395 19.6372C9.75087 19.9792 9.74549 20.322 9.74856 20.6639C9.40119 21.1726 9.08319 21.7014 8.7266 22.2032C8.39629 21.6991 8.07599 21.1883 7.73169 20.6935C7.72831 20.3453 7.72477 19.9964 7.73554 19.6489" fill="white"/>
<path d="M11.3726 20.9509C11.3649 20.7337 11.3642 20.5166 11.3765 20.3003C11.5851 20.298 11.7952 20.2987 12.0038 20.3156C12.0085 20.5272 12.0085 20.7389 12.0038 20.9507C11.7941 20.9524 11.5839 20.9532 11.3734 20.9507" fill="white"/>
<path d="M14.329 21.2642C14.5407 21.2619 14.7531 21.2612 14.9648 21.2642C14.9702 22.0528 14.9648 22.8415 14.9679 23.63C14.8175 23.6362 14.667 23.6432 14.5166 23.6571C14.4685 23.6477 14.3723 23.6308 14.3242 23.6222C14.329 22.8367 14.3204 22.0505 14.329 21.265" fill="white"/>
<path d="M18.7093 21.759C19.1091 21.7513 19.5079 21.7567 19.9074 21.7544C20.1524 22.6127 20.3977 23.4712 20.6433 24.3296C20.4371 24.3296 20.2308 24.3296 20.0253 24.325C19.85 23.669 19.6601 23.0169 19.4817 22.3616C19.3701 22.3547 19.2585 22.35 19.1468 22.3446C18.9623 23.0067 18.7783 23.6687 18.5948 24.3305C18.3886 24.3305 18.183 24.3305 17.9775 24.3275C18.2286 23.4729 18.4784 22.6184 18.7093 21.7595" fill="white"/>
<path d="M9.656 23.1809C10.4167 22.6924 11.1759 22.2007 11.9472 21.7285C12.1248 21.8534 12.304 21.9745 12.4799 22.1023C11.9278 22.4459 11.3865 22.8072 10.829 23.1414C11.637 23.1567 12.4457 23.1391 13.2546 23.1507C13.2584 23.3633 13.2592 23.5756 13.253 23.7881C12.055 23.792 10.857 23.7975 9.65893 23.7858C9.65293 23.5841 9.6537 23.3825 9.656 23.1809" fill="white"/>
<path d="M15.9397 21.8845C16.1625 21.887 16.3851 21.8735 16.6059 21.8442C16.8673 22.2748 17.1758 22.7018 17.31 23.1919C17.1013 23.1934 16.8928 23.1934 16.6851 23.195C16.4396 22.7561 16.1912 22.3193 15.9397 21.8845" fill="white"/>
<path d="M24.7462 22.1471C24.9641 22.1402 25.1827 22.1402 25.4012 22.1448C25.4022 22.3533 25.4022 22.5622 25.4012 22.7714C25.1827 22.7768 24.9647 22.7768 24.7468 22.7676C24.7429 22.5605 24.7429 22.3543 24.7468 22.1471" fill="white"/>
<path d="M23.1403 23.8163C23.4041 23.3922 23.6862 22.9804 23.9515 22.557C23.9592 22.871 23.9639 23.1859 23.9561 23.5007C23.9638 23.6187 23.8778 23.7102 23.8228 23.8055C23.5306 24.2374 23.2505 24.6778 22.9637 25.1126C22.6186 24.5977 22.2845 24.0774 21.9432 23.5595C21.9417 23.2152 21.9386 22.8709 21.9471 22.5273C22.282 23.0291 22.5985 23.5439 22.9412 24.0409C23.0379 24 23.0815 23.8962 23.1411 23.8163" fill="white"/>
<path d="M6.91192 23.2061C7.47104 23.1874 8.03092 23.1967 8.5908 23.2007C8.59388 23.4076 8.6071 23.6159 8.58065 23.8225C8.02538 23.8496 7.46796 23.8365 6.91269 23.8264C6.91038 23.6194 6.91038 23.413 6.91192 23.2061" fill="white"/>
<path d="M13.7282 24.5577C14.6246 24.5445 15.5203 24.5577 16.4166 24.5508C16.5191 24.6533 16.6217 24.7564 16.7242 24.8602C16.7203 25.5449 16.7219 26.2304 16.7226 26.9166C16.6327 27.0104 16.5438 27.1052 16.4558 27.2012C16.1689 27.2073 15.882 27.2081 15.5947 27.1997C15.5986 27.0057 15.5738 26.808 15.6202 26.6181C15.7823 26.601 15.9452 26.6072 16.1088 26.6056C16.1103 26.1257 16.1088 25.6464 16.1088 25.1673C15.3147 25.1626 14.5199 25.1774 13.7267 25.1596C13.7242 24.9587 13.7242 24.7581 13.7267 24.5577" fill="white"/>
<path d="M9.42199 24.7857C9.63132 24.7826 9.84097 24.7831 10.0509 24.7872C10.054 24.9964 10.0542 25.2063 10.0517 25.4169C9.84071 25.42 9.63055 25.4202 9.42122 25.4177C9.41835 25.2067 9.41835 24.996 9.42122 24.7857" fill="white"/>
<path d="M20.5124 25.1243C20.7497 24.9243 20.9653 25.2576 21.1684 25.3549C21.1684 25.3735 21.1684 25.4115 21.1684 25.4301C20.6381 25.7721 20.0952 26.0955 19.5764 26.4553L19.8773 26.453C20.037 26.453 20.1972 26.4548 20.3582 26.4584C20.3597 26.6678 20.3597 26.8779 20.3567 27.0873C19.7037 27.0967 19.0508 27.0942 18.3979 27.0888C18.3847 26.8911 18.3825 26.6926 18.3808 26.4956C19.0779 26.0189 19.8052 25.5883 20.5117 25.1243" fill="white"/>
<path d="M10.5998 25.7059C11.4474 25.7029 12.2958 25.6982 13.1432 25.7082C13.1447 25.9168 13.1447 26.1256 13.1432 26.3349C12.2948 26.3473 11.4473 26.3418 10.5991 26.3379C10.5952 26.1271 10.596 25.9161 10.5991 25.7059" fill="white"/>
<path d="M12.8588 27.3158C13.0976 27.3135 13.3364 27.3127 13.5754 27.3173C13.7963 27.757 14.0902 28.1619 14.2601 28.6262C14.0461 28.6379 13.8328 28.6379 13.6189 28.6395C13.3575 28.2029 13.1131 27.7559 12.8588 27.3158Z" fill="white"/>
<path d="M17.0918 27.9838C17.3005 27.9822 17.509 27.9853 17.7167 27.9991C17.7206 28.2078 17.719 28.4171 17.6927 28.625C17.4935 28.6258 17.2947 28.6258 17.0964 28.625C17.0887 28.4097 17.0887 28.197 17.0916 27.9838" fill="white"/>
<path d="M15.6379 30.0589C15.6379 29.5719 15.627 29.0842 15.6456 28.5972C15.8558 28.5972 16.0667 28.6089 16.2761 28.6279C16.2785 29.1048 16.2785 29.582 16.2761 30.0594C16.0633 30.0627 15.8506 30.0627 15.6379 30.0594" fill="white"/>
</svg>
