<svg width="32" height="32" viewBox="0 0 32 32" fill="none" xmlns="http://www.w3.org/2000/svg">
<path d="M29.4992 21.1641C29.5 17.7048 29.5 14.2456 29.4992 10.7865C29.5132 10.4328 29.3356 10.0808 29.0518 9.87231C24.9296 6.86044 20.8075 3.8481 16.6853 0.835307C16.5606 0.737823 16.4165 0.668171 16.2627 0.631037C16.1088 0.593903 15.9488 0.590149 15.7934 0.620027C15.6013 0.657701 15.4282 0.753808 15.274 0.869445C11.1812 3.86092 7.08819 6.85224 2.99499 9.8434C2.84199 9.94975 2.71715 10.0917 2.63123 10.2571C2.54532 10.4224 2.50092 10.6062 2.50185 10.7925C2.49938 14.2508 2.49938 17.709 2.50185 21.167C2.49646 21.5416 2.69083 21.9051 2.99884 22.1161C7.09162 25.106 11.1836 28.0966 15.2747 31.0879C15.6662 31.4228 16.2804 31.4492 16.6845 31.1228C20.7935 28.1225 24.9009 25.1208 29.0069 22.1176C29.3161 21.9093 29.5161 21.5393 29.4989 21.1642" fill="#050708"/>
<path d="M14.5748 3.09575C14.6833 2.97274 14.7934 2.78098 14.9843 2.80651C15.6333 2.81035 16.2839 2.79636 16.9329 2.81343C17.0453 2.88324 17.1314 2.98796 17.2275 3.07792C17.225 3.74775 17.225 4.41773 17.2275 5.08787C17.0343 5.09017 16.8406 5.09878 16.6475 5.08556C16.6358 5.0382 16.6125 4.94517 16.6013 4.89796C16.6013 4.39774 16.6447 3.8969 16.6029 3.39745C16.1259 3.39817 15.6492 3.39817 15.1728 3.39745C15.1705 3.56568 15.1697 3.73483 15.1682 3.90306C14.9673 3.90306 14.7657 3.90306 14.5642 3.90152C14.5655 3.6338 14.536 3.36163 14.5748 3.09575Z" fill="white"/>
<path d="M12.9565 3.91329C13.1759 3.90483 13.3953 3.90483 13.6155 3.91021C13.6186 4.83684 13.6225 5.7627 13.6132 6.68856C13.4038 6.69317 13.1945 6.69317 12.9858 6.69163C12.9162 5.769 12.9718 4.83915 12.9565 3.91329Z" fill="white"/>
<path d="M18.5384 4.90891C19.1227 4.90122 19.7061 4.90352 20.2901 4.90737C20.2932 5.12142 20.2932 5.3347 20.2901 5.5486C19.7058 5.55475 19.1215 5.55705 18.5371 5.54706C18.535 5.33455 18.535 5.12065 18.5371 4.90891" fill="white"/>
<path d="M14.9951 5.22413C15.2308 5.21875 15.4666 5.21952 15.7025 5.21952C15.928 5.65838 16.2111 6.06788 16.3944 6.52766C16.1781 6.5378 15.961 6.5378 15.7446 6.53857C15.4875 6.10448 15.2393 5.6653 14.9951 5.22413Z" fill="white"/>
<path d="M17.402 5.9957C17.6059 5.99109 17.8098 5.99185 18.0147 5.99493C18.5698 6.85605 19.1094 7.72732 19.6686 8.58644C19.6686 8.84786 19.6686 9.10927 19.664 9.37068C19.6034 9.35976 19.4841 9.33885 19.4244 9.32885C18.9499 8.6215 18.5133 7.88894 18.0442 7.17851C18.0365 7.97812 18.0465 8.77774 18.0388 9.57735C17.8263 9.58124 17.6133 9.58124 17.3999 9.57735C17.3973 8.38393 17.3934 7.18974 17.402 5.9957Z" fill="white"/>
<path d="M19.9362 6.4801C20.1533 6.47548 20.3712 6.47548 20.5883 6.48163C20.5899 6.6863 20.5899 6.8919 20.5883 7.09672C20.3712 7.1021 20.1533 7.1021 19.9369 7.09826C19.9354 6.89261 19.9354 6.68656 19.9369 6.4801" fill="white"/>
<path d="M9.20176 6.68324C9.37306 6.68017 9.54451 6.68094 9.71581 6.68248C10.1733 6.65172 10.63 6.66079 11.0876 6.68709C11.0891 6.88561 11.0876 7.0849 11.0861 7.28342C10.4095 7.68968 9.75933 8.14023 9.07305 8.52897C8.87069 8.45208 8.7163 8.29016 8.55115 8.15515C9.00016 7.88143 9.43979 7.59296 9.89342 7.32693C9.66384 7.31525 9.43364 7.31678 9.20406 7.31448C9.20006 7.1035 9.19929 6.89309 9.20176 6.68324Z" fill="white"/>
<path d="M14.6144 6.91888C14.8246 6.91273 15.0354 6.9135 15.2449 6.91888C15.2503 7.12986 15.2503 7.33991 15.2449 7.55088C15.0347 7.55703 14.8246 7.55729 14.6144 7.55165C14.6095 7.34068 14.6095 7.12975 14.6144 6.91888Z" fill="white"/>
<path d="M11.5296 7.53542C11.8662 8.04564 12.1927 8.56292 12.5337 9.07006C12.8742 8.55677 13.2029 8.03564 13.5465 7.52466C13.5465 7.86296 13.5689 8.20479 13.5395 8.54278C13.2279 9.07698 12.8673 9.58182 12.5314 10.1014C12.2011 9.59043 11.8513 9.09021 11.5381 8.56923C11.5025 8.22632 11.5281 7.87972 11.5296 7.53542Z" fill="white"/>
<path d="M20.8481 7.62169C21.8584 7.61707 22.8688 7.61733 23.8793 7.62245C23.8793 7.82713 23.8793 8.03272 23.8783 8.23754C22.8687 8.2399 21.8586 8.24016 20.8481 8.23831C20.8472 8.03272 20.8466 7.82666 20.8481 7.62169Z" fill="white"/>
<path d="M15.5 8.42206C15.7031 8.41821 15.907 8.41821 16.1111 8.42052C16.1212 9.31685 16.1111 10.2141 16.1164 11.1115C16.0219 11.2015 15.9281 11.293 15.8358 11.3845C15.1355 11.3922 14.4354 11.3845 13.7359 11.3883C13.6436 11.2999 13.5491 11.2153 13.466 11.12C13.4304 10.8455 13.4567 10.5655 13.4559 10.2896C13.6507 10.2881 13.8461 10.2881 14.0421 10.2896C14.0474 10.4478 14.0467 10.6059 14.0444 10.7642C14.526 10.8184 15.0113 10.7795 15.4952 10.7912C15.4977 10.0016 15.49 9.21075 15.5 8.42206Z" fill="white"/>
<path d="M25.2681 11.072C25.2617 10.3954 25.2617 9.71842 25.2681 9.04111C25.4798 9.03649 25.6914 9.03573 25.9039 9.04111C25.9108 9.7177 25.9108 10.3949 25.9039 11.0727C25.692 11.0763 25.4804 11.0755 25.2687 11.0727" fill="white"/>
<path d="M22.251 9.55236C22.6508 9.54852 23.0527 9.48639 23.4504 9.55082C23.7109 10.4 23.9343 11.2621 24.1932 12.1128C23.9886 12.1144 23.783 12.1144 23.5782 12.1144C23.3827 11.4545 23.216 10.7868 23.0144 10.1284C22.902 10.1299 22.7896 10.1315 22.6771 10.1322C22.5096 10.7968 22.308 11.4513 22.135 12.1134C21.9287 12.1141 21.7224 12.1139 21.5162 12.1127C21.7701 11.2621 22.0083 10.4058 22.251 9.55236Z" fill="white"/>
<path d="M5.15792 9.87628C6.07916 9.87089 7.00118 9.86859 7.92227 9.87628C7.92765 10.088 7.92765 10.2988 7.92304 10.5106C7.00041 10.519 6.07901 10.5167 5.15699 10.5114C5.15407 10.2996 5.15407 10.0866 5.15792 9.87551" fill="white"/>
<path d="M8.35658 9.8767C8.56602 9.87516 8.7753 9.87439 8.98551 9.8767C8.99012 10.0892 8.99012 10.3023 8.98551 10.5149C8.7753 10.5172 8.56602 10.5164 8.35658 10.5149C8.35412 10.3023 8.35412 10.0906 8.35658 9.87824" fill="white"/>
<path d="M10.6722 9.90314C10.8776 9.90161 11.084 9.90237 11.2894 9.90468C11.2955 10.3968 11.2925 10.8902 11.2925 11.3827C11.0838 11.3843 10.8753 11.385 10.6675 11.3827C10.6654 10.8907 10.6589 10.396 10.6722 9.90238" fill="white"/>
<path d="M26.7754 10.3452C27.0119 10.3406 27.2492 10.3413 27.4857 10.3406C27.7199 10.7748 28.0045 11.1863 28.1789 11.6502C27.9636 11.6579 27.747 11.6587 27.5314 11.6596C27.2764 11.2231 27.0336 10.7793 26.7753 10.3452" fill="white"/>
<path d="M17.4517 10.872C17.6567 10.8705 17.8617 10.8705 18.0668 10.872C18.0714 11.5466 18.0682 12.2212 18.0682 12.8959C17.862 12.8975 17.6564 12.8983 17.4503 12.8983C17.4503 12.223 17.4492 11.5469 17.4517 10.8712" fill="white"/>
<path d="M19.6146 11.6918C19.6122 11.4808 19.6122 11.2694 19.6146 11.0575C19.8216 11.0544 20.0298 11.0544 20.2373 11.0598C20.2373 11.2708 20.2388 11.4816 20.2357 11.6926C20.0291 11.6933 19.8205 11.6926 19.6139 11.6926" fill="white"/>
<path d="M7.9115 12.6274C8.40849 12.2645 8.939 11.949 9.44922 11.6062C9.78659 11.61 10.123 11.6062 10.4604 11.6108C9.95943 11.9691 9.42676 12.2785 8.9227 12.632C9.44076 12.9577 9.94867 13.2989 10.4635 13.6277C10.1169 13.6338 9.77029 13.63 9.42369 13.6308C8.92347 13.2912 8.40388 12.9783 7.9115 12.6274Z" fill="white"/>
<path d="M25.2688 12.0389C25.4812 12.0343 25.6937 12.0335 25.907 12.0389C25.9122 12.2514 25.9116 12.463 25.9054 12.6755C25.6937 12.6801 25.4813 12.6794 25.2696 12.6755C25.265 12.4637 25.265 12.252 25.2696 12.0404" fill="white"/>
<path d="M3.45418 12.1259C4.51521 12.1197 5.57808 12.1174 6.64049 12.1274C6.64279 12.3283 6.64279 12.5299 6.64356 12.7314C6.16902 13.0424 5.69448 13.3548 5.20672 13.6433C5.00051 13.5681 4.84459 13.3973 4.66852 13.272C4.93131 13.106 5.19811 12.9455 5.45275 12.7679C4.78662 12.7648 4.12063 12.7717 3.45372 12.764C3.45065 12.5515 3.45065 12.3388 3.45372 12.1259" fill="white"/>
<path d="M12.5395 12.741C13.4584 12.7449 14.3772 12.7364 15.2954 12.7449C15.3177 12.9539 15.3149 13.1648 15.2869 13.373C14.3711 13.3769 13.4561 13.3738 12.5412 13.3746C12.5395 13.1627 12.539 12.9515 12.5395 12.741Z" fill="white"/>
<path d="M15.8955 12.7451C16.1165 12.7405 16.3367 12.7405 16.5578 12.7482C16.5585 12.9544 16.5582 13.1602 16.5569 13.3654C16.3367 13.3716 16.1157 13.3716 15.8957 13.3677C15.8935 13.16 15.8935 12.9525 15.8957 12.7451" fill="white"/>
<path d="M18.7855 13.6341C18.7567 13.4162 18.9802 13.3046 19.0949 13.155C19.3647 13.155 19.6345 13.1535 19.9045 13.1588C19.9106 13.362 19.9106 13.5651 19.9074 13.7692C19.737 13.7722 19.5654 13.7722 19.395 13.7745V15.2215C20.1882 15.2269 20.9815 15.2185 21.7748 15.2261C21.7771 15.4316 21.7771 15.6372 21.7717 15.8412C20.8785 15.8474 19.9843 15.842 19.091 15.8443C18.9771 15.6954 18.7584 15.5829 18.7863 15.3667C18.7823 14.7894 18.7823 14.2119 18.7863 13.6341" fill="white"/>
<path d="M21.7933 13.4416C22.012 13.4339 22.2322 13.4339 22.4516 13.4416C22.454 13.6509 22.454 13.8603 22.4516 14.0697C22.2322 14.0774 22.0135 14.0774 21.7941 14.0697C21.7918 13.8595 21.7918 13.6502 21.7941 13.44" fill="white"/>
<path d="M23.8833 13.4419C24.8076 13.4294 25.7312 13.438 26.6555 13.4372C26.657 13.6505 26.657 13.8646 26.6546 14.0777C25.731 14.0777 24.8076 14.0854 23.8839 14.0739C23.8808 13.8629 23.8808 13.6522 23.8839 13.4419" fill="white"/>
<path d="M11.0792 14.179C11.5973 14.1782 12.1144 14.179 12.6323 14.1782C12.6369 14.3935 12.6369 14.6088 12.6323 14.8241C12.115 14.8249 11.598 14.8249 11.0813 14.8241C11.0723 14.6088 11.0719 14.3938 11.08 14.179" fill="white"/>
<path d="M14.495 14.1793C15.3077 14.1785 16.1204 14.1793 16.9329 14.1777C17.2282 14.1316 17.5239 14.4382 17.4865 14.7298C17.4848 15.3267 17.4844 15.9243 17.4856 16.5226C17.3816 16.635 17.2771 16.7459 17.1723 16.8575C16.9032 16.8575 16.6351 16.8575 16.366 16.8544C16.3637 16.6494 16.3635 16.4447 16.3652 16.2403C16.5334 16.238 16.702 16.2364 16.87 16.2341C16.87 15.7642 16.87 15.2935 16.8716 14.8236C16.0821 14.753 15.2866 14.8119 14.4949 14.791C14.4929 14.5859 14.4929 14.382 14.4949 14.1793" fill="white"/>
<path d="M8.76746 14.3684C9.1645 14.3661 9.56077 14.3638 9.95781 14.3699C10.1982 15.2283 10.4563 16.082 10.6836 16.9444C10.4837 16.9444 10.2838 16.9444 10.085 16.9459C9.88108 16.2836 9.72362 15.609 9.51341 14.9499C9.40023 14.9569 9.28706 14.9653 9.17373 14.9739C9.02334 15.6378 8.80852 16.2844 8.64414 16.9451C8.4387 16.9451 8.23311 16.9451 8.02905 16.9428C8.27355 16.0846 8.51697 15.2252 8.76716 14.3684" fill="white"/>
<path d="M26.0887 15.1436C26.7807 15.1367 27.4736 15.1296 28.1646 15.1459C28.3392 15.2536 28.536 15.4283 28.498 15.6577C28.498 16.1498 28.4949 16.6432 28.498 17.1357C28.4918 17.3722 28.5026 17.6087 28.4957 17.8452C28.5066 18.0384 28.4539 18.2283 28.4649 18.4222C28.268 18.4222 28.071 18.4222 27.874 18.4199C27.8763 17.5312 27.874 16.6418 27.8755 15.7532C27.3922 15.74 26.9094 15.7501 26.4262 15.7463C26.4253 15.9114 26.4253 16.0766 26.4224 16.2425C26.2191 16.2456 26.0159 16.2466 25.8127 16.2456C25.8088 15.9734 25.8098 15.7004 25.8104 15.4283C25.904 15.3345 25.9963 15.2397 26.0885 15.1436" fill="white"/>
<path d="M6.397 15.1685H7.03976C7.0413 15.8438 7.03976 16.5184 7.03976 17.1932H6.39392C6.397 16.5186 6.39469 15.8432 6.39623 15.1685" fill="white"/>
<path d="M4.38009 15.7332C4.59106 15.7301 4.80188 15.7363 5.01209 15.7503C5.01445 15.9503 5.01445 16.1506 5.01209 16.3512C4.79958 16.3535 4.58722 16.3543 4.3747 16.3512C4.3724 16.1448 4.37317 15.9394 4.38009 15.734" fill="white"/>
<path d="M11.9331 19.4339C11.9275 18.2397 11.9273 17.0454 11.9323 15.851C12.1417 15.8479 12.351 15.8479 12.5605 15.8526C13.0525 16.6459 13.56 17.4306 14.0625 18.2183C14.2796 18.4982 14.1494 18.8736 14.1843 19.1992C14.1114 19.1992 14.0385 19.2008 13.9664 19.2023C13.5143 18.4842 13.0421 17.7785 12.6094 17.0495C12.5311 17.8421 12.5954 18.6415 12.5698 19.4371C12.3569 19.4393 12.1447 19.4393 11.9331 19.4339Z" fill="white"/>
<path d="M14.725 16.3103C14.9381 16.3057 15.1514 16.3052 15.3647 16.3088C15.3678 16.8307 15.367 17.3526 15.3647 17.8743C15.1506 17.8781 14.9374 17.8781 14.7235 17.8728C14.7199 17.3518 14.719 16.8307 14.7235 16.3103" fill="white"/>
<path d="M18.5907 17.0085C18.7994 17.007 19.0087 17.0062 19.2181 17.0085C19.222 17.221 19.222 17.4335 19.2181 17.6459C19.0087 17.6467 18.7995 17.6467 18.5907 17.6459C18.5883 17.4342 18.5883 17.222 18.5907 17.0093" fill="white"/>
<path d="M20.6246 17.036C21.2744 17.0275 21.9242 17.0321 22.5748 17.0336C22.6011 17.2236 22.6174 17.4167 22.5988 17.6091C22.5373 17.7339 22.3902 17.6843 22.2801 17.6959C21.7265 17.6796 21.1712 17.7278 20.6215 17.6652C20.6176 17.4547 20.6176 17.2454 20.6246 17.036Z" fill="white"/>
<path d="M23.2465 17.1267C23.4559 17.1237 23.6675 17.1097 23.8769 17.1421C23.8971 17.8756 23.8854 18.6116 23.8816 19.346C23.6699 19.3499 23.4584 19.3499 23.2472 19.346C23.2402 18.6065 23.2402 17.867 23.2472 17.1275" fill="white"/>
<path d="M17.4516 17.5606C17.6563 17.5606 17.8619 17.559 18.0667 17.5606C18.069 17.7716 18.0696 17.9831 18.0667 18.1957C17.8617 18.1987 17.6566 18.1987 17.4516 18.1957C17.4501 17.9841 17.4501 17.7716 17.4516 17.5598" fill="white"/>
<path d="M7.59282 18.0114C8.32324 17.9324 9.06073 17.9951 9.79422 17.9719C9.98323 17.9695 10.1722 17.978 10.3603 17.9974C10.3633 18.2107 10.3626 18.4247 10.3603 18.6379C9.43762 18.6363 8.51699 18.6425 7.5959 18.6348C7.59036 18.427 7.59036 18.2196 7.59205 18.0114" fill="white"/>
<path d="M3.45504 18.4832C3.55515 18.3856 3.65587 18.287 3.75674 18.1894C4.02353 18.1878 4.29017 18.1871 4.55635 18.1924C4.55943 18.394 4.55943 18.5964 4.55789 18.798C4.39197 18.8018 4.22682 18.8026 4.0609 18.8041C4.06475 19.285 4.05859 19.7657 4.06475 20.2465C4.85021 20.2488 5.63583 20.2411 6.4213 20.2504C6.42514 20.4489 6.42514 20.6466 6.4236 20.8452C6.22893 20.8459 6.03348 20.8467 5.83927 20.8467C5.14222 20.8398 4.44425 20.8584 3.74798 20.8382C3.63172 20.7723 3.51455 20.6637 3.46181 20.5405C3.44351 19.8552 3.45965 19.1689 3.45581 18.4832" fill="white"/>
<path d="M19.751 18.8834C19.8557 18.785 19.9612 18.6864 20.069 18.5903C20.7482 18.5957 21.4276 18.5903 22.1068 18.5926C22.2092 18.6903 22.3115 18.7889 22.4143 18.8857C22.4151 19.558 22.4151 20.2301 22.4143 20.9018C22.2074 20.9034 22.0002 20.9018 21.794 20.8964C21.794 20.3312 21.7894 19.7667 21.7963 19.2014C21.3196 19.2007 20.8449 19.2014 20.3695 19.2007C20.3702 19.3727 20.3695 19.5449 20.3656 19.717C20.1617 19.7201 19.9578 19.7201 19.7545 19.7193C19.7479 19.4407 19.7495 19.1624 19.7502 18.8834" fill="white"/>
<path d="M24.1118 20.0699C24.8653 19.579 25.6263 19.1011 26.3861 18.6213C26.5675 18.7424 26.7459 18.8695 26.9228 18.9967C26.3759 19.3452 25.8295 19.6929 25.2836 20.0397C26.0861 20.0482 26.8888 20.0397 27.6921 20.0443C27.6936 20.2576 27.6936 20.4717 27.6921 20.6848C26.4992 20.6887 25.3066 20.6887 24.1141 20.6848C24.111 20.4792 24.111 20.2738 24.1126 20.0697" fill="white"/>
<path d="M15.5845 20.1913C16.3406 19.688 17.1207 19.2212 17.8766 18.718C18.0564 18.8421 18.2341 18.9685 18.4171 19.0871C17.8943 19.4546 17.3393 19.7749 16.8065 20.1292C17.6044 20.1432 18.4023 20.1276 19.2003 20.1376C19.2056 20.3571 19.2056 20.5773 19.2003 20.7967C18.0061 20.8036 16.8117 20.799 15.6174 20.799C15.5866 20.5977 15.5866 20.3938 15.5852 20.1905" fill="white"/>
<path d="M7.7355 19.6489C8.06734 20.1563 8.4001 20.6638 8.7281 21.1726C9.08008 20.6701 9.395 20.1423 9.74391 19.6372C9.75083 19.9792 9.74545 20.322 9.74852 20.6639C9.40115 21.1726 9.08315 21.7014 8.72656 22.2032C8.39626 21.6991 8.07595 21.1883 7.73166 20.6935C7.72827 20.3453 7.72474 19.9964 7.7355 19.6489Z" fill="white"/>
<path d="M11.3726 20.9509C11.3649 20.7337 11.3641 20.5166 11.3764 20.3003C11.5851 20.298 11.7951 20.2987 12.0038 20.3156C12.0084 20.5272 12.0084 20.7389 12.0038 20.9507C11.7941 20.9524 11.5838 20.9532 11.3733 20.9507" fill="white"/>
<path d="M14.329 21.264C14.5407 21.2617 14.7531 21.2609 14.9648 21.264C14.9702 22.0525 14.9648 22.8412 14.9679 23.6298C14.8175 23.6359 14.667 23.643 14.5166 23.6568C14.4685 23.6475 14.3723 23.6305 14.3242 23.6219C14.329 22.8365 14.3204 22.0502 14.329 21.2648" fill="white"/>
<path d="M18.7093 21.7588C19.1091 21.7511 19.5079 21.7565 19.9074 21.7542C20.1524 22.6125 20.3977 23.4709 20.6433 24.3294C20.4371 24.3294 20.2308 24.3294 20.0253 24.3248C19.85 23.6688 19.6601 23.0166 19.4817 22.3614C19.3701 22.3545 19.2585 22.3497 19.1468 22.3443C18.9623 23.0065 18.7783 23.6685 18.5948 24.3303C18.3886 24.3303 18.183 24.3303 17.9775 24.3272C18.2286 23.4727 18.4784 22.6182 18.7093 21.7592" fill="white"/>
<path d="M9.656 23.1806C10.4167 22.6921 11.1759 22.2005 11.9472 21.7283C12.1248 21.8531 12.304 21.9743 12.4799 22.1021C11.9278 22.4456 11.3865 22.807 10.829 23.1411C11.637 23.1565 12.4457 23.1388 13.2546 23.1505C13.2584 23.363 13.2592 23.5754 13.253 23.7879C12.055 23.7917 10.857 23.7973 9.65893 23.7856C9.65293 23.5838 9.6537 23.3822 9.656 23.1806Z" fill="white"/>
<path d="M15.9397 21.8845C16.1624 21.887 16.385 21.8735 16.6058 21.8442C16.8672 22.2748 17.1757 22.7018 17.31 23.1919C17.1013 23.1934 16.8928 23.1934 16.685 23.195C16.4396 22.7561 16.1912 22.3193 15.9397 21.8845Z" fill="white"/>
<path d="M24.7462 22.1469C24.9641 22.14 25.1827 22.14 25.4012 22.1446C25.4022 22.3531 25.4022 22.562 25.4012 22.7712C25.1827 22.7766 24.9647 22.7766 24.7468 22.7673C24.7429 22.5602 24.7429 22.354 24.7468 22.1469" fill="white"/>
<path d="M23.1403 23.816C23.4041 23.3919 23.6862 22.9801 23.9515 22.5568C23.9592 22.8708 23.9639 23.1857 23.9561 23.5005C23.9638 23.6184 23.8778 23.7099 23.8228 23.8052C23.5306 24.2372 23.2505 24.6776 22.9637 25.1123C22.6186 24.5975 22.2845 24.0771 21.9432 23.5592C21.9417 23.2149 21.9386 22.8706 21.9471 22.5271C22.282 23.0289 22.5985 23.5437 22.9412 24.0407C23.0379 23.9998 23.0815 23.896 23.1411 23.816" fill="white"/>
<path d="M6.91196 23.2061C7.47107 23.1874 8.03096 23.1967 8.59084 23.2007C8.59391 23.4076 8.60714 23.6159 8.58069 23.8225C8.02542 23.8496 7.468 23.8365 6.91273 23.8264C6.91042 23.6194 6.91042 23.413 6.91196 23.2061Z" fill="white"/>
<path d="M13.7282 24.5575C14.6246 24.5442 15.5203 24.5575 16.4166 24.5505C16.5191 24.6531 16.6217 24.7562 16.7242 24.8599C16.7203 25.5447 16.7219 26.2302 16.7226 26.9163C16.6327 27.0101 16.5438 27.105 16.4558 27.2009C16.1689 27.2071 15.882 27.2079 15.5947 27.1994C15.5986 27.0055 15.5738 26.8078 15.6202 26.6178C15.7823 26.6008 15.9452 26.6069 16.1088 26.6054C16.1103 26.1255 16.1088 25.6462 16.1088 25.167C15.3147 25.1624 14.5199 25.1772 13.7267 25.1593C13.7242 24.9585 13.7242 24.7579 13.7267 24.5575" fill="white"/>
<path d="M9.42199 24.7857C9.63132 24.7826 9.84097 24.7831 10.0509 24.7872C10.054 24.9964 10.0542 25.2063 10.0517 25.4169C9.84071 25.42 9.63055 25.4202 9.42122 25.4177C9.41835 25.2067 9.41835 24.996 9.42122 24.7857" fill="white"/>
<path d="M20.5124 25.1243C20.7497 24.9243 20.9653 25.2576 21.1684 25.3549C21.1684 25.3735 21.1684 25.4115 21.1684 25.4301C20.6381 25.7721 20.0953 26.0955 19.5764 26.4553L19.8774 26.453C20.037 26.453 20.1973 26.4548 20.3582 26.4584C20.3597 26.6678 20.3597 26.8779 20.3567 27.0873C19.7038 27.0967 19.0508 27.0942 18.3979 27.0888C18.3847 26.8911 18.3826 26.6926 18.3809 26.4956C19.0779 26.0189 19.8052 25.5883 20.5117 25.1243" fill="white"/>
<path d="M10.5998 25.7057C11.4474 25.7026 12.2958 25.698 13.1432 25.708C13.1447 25.9165 13.1447 26.1254 13.1432 26.3346C12.2948 26.3471 11.4472 26.3415 10.599 26.3377C10.5952 26.1269 10.596 25.9159 10.599 25.7057" fill="white"/>
<path d="M12.8588 27.3158C13.0976 27.3135 13.3364 27.3127 13.5753 27.3173C13.7963 27.757 14.0902 28.1619 14.2601 28.6262C14.046 28.6379 13.8328 28.6379 13.6189 28.6395C13.3574 28.2029 13.1131 27.7559 12.8588 27.3158Z" fill="white"/>
<path d="M17.0918 27.9835C17.3005 27.982 17.509 27.9851 17.7167 27.9989C17.7206 28.2076 17.719 28.4168 17.6927 28.6247C17.4935 28.6256 17.2947 28.6256 17.0964 28.6247C17.0887 28.4095 17.0887 28.1968 17.0916 27.9835" fill="white"/>
<path d="M15.6379 30.0587C15.6379 29.5717 15.627 29.0839 15.6456 28.5969C15.8558 28.5969 16.0667 28.6086 16.2761 28.6277C16.2785 29.1046 16.2785 29.5817 16.2761 30.0591C16.0633 30.0624 15.8506 30.0624 15.6379 30.0591" fill="white"/>
</svg>
