<svg width="32" height="32" viewBox="0 0 32 32" fill="none" xmlns="http://www.w3.org/2000/svg">
<g clip-path="url(#clip0_4767_71085)">
<path d="M16 32C24.8366 32 32 24.8366 32 16C32 7.16344 24.8366 0 16 0C7.16344 0 0 7.16344 0 16C0 24.8366 7.16344 32 16 32Z" fill="#181818"/>
<path d="M16.7294 14.0805L23.091 7.70605L24.3838 9.01165L18.0222 15.3733L16.7294 14.0805ZM7.60303 23.1941L13.9774 16.8197L15.2702 18.1253L8.90863 24.4869L7.60303 23.1941ZM16.7294 18.1253L18.0222 16.8197L24.3966 23.1941L23.091 24.4869L16.7294 18.1253ZM7.60303 9.01165L8.90863 7.70605L15.2702 14.0677L13.9774 15.3733L7.60303 9.01165ZM14.6942 16.0901L15.9998 14.7845L17.3054 16.0901L15.9998 17.3957L14.6942 16.0901Z" fill="#F6D30C"/>
</g>
<defs>
<clipPath id="clip0_4767_71085">
<rect width="32" height="32" fill="white"/>
</clipPath>
</defs>
</svg>
