<svg width="32" height="33" viewBox="0 0 32 33" fill="none" xmlns="http://www.w3.org/2000/svg">
<g clip-path="url(#clip0_168_15997)">
<path d="M16 32.0039C24.8366 32.0039 32 24.8405 32 16.0039C32 7.16735 24.8366 0.00390625 16 0.00390625C7.16344 0.00390625 0 7.16735 0 16.0039C0 24.8405 7.16344 32.0039 16 32.0039Z" fill="#181818"/>
<path d="M16.7295 14.0844L23.0911 7.70996L24.3839 9.01556L18.0223 15.3772L16.7295 14.0844ZM7.60315 23.198L13.9775 16.8236L15.2703 18.1292L8.90875 24.4908L7.60315 23.198ZM16.7295 18.1292L18.0223 16.8236L24.3967 23.198L23.0911 24.4908L16.7295 18.1292ZM7.60315 9.01556L8.90875 7.70996L15.2703 14.0716L13.9775 15.3772L7.60315 9.01556ZM14.6943 16.094L15.9999 14.7884L17.3055 16.094L15.9999 17.3996L14.6943 16.094Z" fill="#F6D30C"/>
</g>
<defs>
<clipPath id="clip0_168_15997">
<rect width="32" height="32" fill="white" transform="translate(0 0.00390625)"/>
</clipPath>
</defs>
</svg>
