<svg width="32" height="32" viewBox="0 0 32 32" fill="none" xmlns="http://www.w3.org/2000/svg">
<g clip-path="url(#clip0_4767_67846)">
<path d="M24.4726 6.07259L21.8032 7.33822C21.7921 7.34374 21.7755 7.3548 21.77 7.36585C21.759 7.3769 21.7534 7.38796 21.7479 7.40454C21.7424 7.42112 21.7424 7.43217 21.7424 7.44875C21.7424 7.46533 21.7479 7.47639 21.7534 7.49297L25.8101 16.0429C27.3189 19.2263 26.9154 21.636 24.6218 22.7303C22.7648 23.609 21.1676 22.9956 19.9185 20.8512L15.1103 10.7206C13.1648 6.61421 10.512 5.52544 7.36173 7.02319C5.31682 7.9959 4.12856 9.73131 4.15067 11.9365C4.15067 11.9641 4.14514 11.9862 4.12856 12.0083C4.11198 12.0304 4.08988 12.0415 4.06224 12.047C4.03461 12.0526 4.0125 12.0526 3.98487 12.0415C3.96276 12.0304 3.94065 12.0139 3.9296 11.9862L2.87952 9.77552C2.87399 9.76447 2.86293 9.74789 2.85188 9.74236C2.84083 9.73131 2.82977 9.72578 2.81319 9.72026C2.80214 9.7092 2.79109 9.7092 2.77451 9.7092C2.75793 9.7092 2.74687 9.71473 2.73029 9.72026L0.0663893 10.9859C0.0387555 10.9969 0.0166484 11.019 0.0111216 11.0522C6.80662e-05 11.0798 6.80662e-05 11.113 0.0166484 11.1406L7.38383 26.6764C7.39489 26.704 7.42252 26.7261 7.45015 26.7372C7.47779 26.7482 7.51095 26.7482 7.53858 26.7317L10.208 25.466C10.2191 25.4605 10.2356 25.4494 10.2412 25.4384C10.2522 25.4273 10.2578 25.4163 10.2633 25.3997C10.2688 25.3831 10.2688 25.3721 10.2688 25.3555C10.2688 25.3389 10.2633 25.3279 10.2578 25.3113L6.31164 16.999C4.70335 13.6056 5.00732 11.1517 7.46673 9.98554C9.35689 9.0902 10.827 9.69262 12.1479 11.9918C12.1479 11.9918 12.1534 11.9973 12.1534 12.0028L16.912 22.0284C18.7469 25.8971 21.5987 27.2235 24.6052 25.7976C26.932 24.6923 27.8992 23.0342 27.8384 20.8456C27.8384 20.818 27.8439 20.7959 27.8605 20.7738C27.8771 20.7517 27.8992 20.7406 27.9268 20.7351C27.9545 20.7296 27.9766 20.7296 28.0042 20.7406C28.0263 20.7517 28.0484 20.7683 28.0595 20.7959L29.1206 23.0287C29.1261 23.0398 29.1372 23.0564 29.1483 23.0619C29.1593 23.0729 29.1704 23.0785 29.1869 23.084C29.2035 23.0895 29.2146 23.0895 29.2312 23.0895C29.2477 23.0895 29.2588 23.084 29.2754 23.0785L31.9448 21.8128C31.9559 21.8073 31.9724 21.7962 31.978 21.7852C31.989 21.7741 31.9945 21.7631 32.0001 21.7465C32.0056 21.7299 32.0056 21.7189 32.0056 21.7023C32.0056 21.6857 32.0001 21.6747 31.9945 21.6581L24.6218 6.12785C24.6108 6.10022 24.5831 6.07811 24.5555 6.06706C24.5279 6.05601 24.4947 6.06153 24.4726 6.07259Z" fill="#1E65F3"/>
</g>
<defs>
<clipPath id="clip0_4767_67846">
<rect width="32" height="32" fill="white"/>
</clipPath>
</defs>
</svg>
