<svg width="54" height="54" viewBox="0 0 54 54" fill="none" xmlns="http://www.w3.org/2000/svg">
<path d="M27.0902 53.9096C41.9521 53.8598 53.9596 41.7715 53.9098 26.9097C53.86 12.0478 41.7717 0.0401988 26.9098 0.090001C12.0479 0.139803 0.0403726 12.2281 0.0901748 27.09C0.139977 41.9519 12.2283 53.9595 27.0902 53.9096Z" fill="#0074F0"/>
<path opacity="0.2" d="M43.8198 43.7127C53.0465 34.4244 53.0003 19.406 43.712 10.1794C34.4237 0.952686 19.4054 0.998896 10.1787 10.2872L43.8198 43.7127Z" fill="white"/>
<path d="M25.9011 16.3719C26.2623 16.335 26.6289 16.3161 26.9999 16.3161C32.8983 16.3161 37.6799 21.0977 37.6799 26.9961C37.6799 31.5956 34.7722 35.5161 30.6948 37.0196L27.071 42.1159C35.3888 42.0776 42.1199 35.3229 42.1199 26.9961C42.1199 19.1771 36.1848 12.7443 28.574 11.957L25.9011 16.3719Z" fill="white"/>
<path d="M26.6568 11.8799C18.4647 12.0623 11.8799 18.7602 11.8799 26.9961C11.8799 34.7011 17.6432 41.06 25.0941 41.9971L28.2152 37.6077C27.8164 37.6529 27.4108 37.6761 26.9999 37.6761C21.1015 37.6761 16.3199 32.8945 16.3199 26.9961C16.3199 22.2694 19.3904 18.2599 23.6456 16.8534L26.6568 11.8799Z" fill="white"/>
<path d="M30.695 37.0197C34.7725 35.5161 37.6801 31.5957 37.6801 26.9961H42.1201C42.1201 35.3229 35.3891 42.0776 27.0713 42.1159L30.695 37.0197Z" fill="url(#paint0_linear_519_15846)"/>
<path d="M26.6568 11.8799C18.4647 12.0623 11.8799 18.7602 11.8799 26.9961C11.8799 26.9961 16.3199 27.0599 16.3199 26.9961C16.3199 22.2694 19.3904 18.2599 23.6456 16.8534L26.6568 11.8799Z" fill="url(#paint1_linear_519_15846)"/>
<path d="M26.9735 39.3561L34.5654 28.665L26.9735 33.1453L19.3857 28.665L26.9735 39.3561Z" fill="white"/>
<path opacity="0.1" d="M26.9727 39.3561L34.5645 28.665L26.9727 33.1453V39.3561Z" fill="#0074F0"/>
<path d="M26.9499 31.7265L34.5795 27.238L26.9499 14.6362L19.3203 27.238L26.9499 31.7265Z" fill="url(#paint2_linear_519_15846)"/>
<path d="M26.9499 31.7265L34.5795 27.238L26.9499 14.6362L19.3203 27.238L26.9499 31.7265Z" fill="white"/>
<path opacity="0.1" d="M26.9502 31.7262L19.3206 27.238L26.9502 14.6362L26.9502 31.7262Z" fill="#0074F0"/>
<path opacity="0.1" d="M26.9499 31.7266V23.6611L19.3203 27.238L26.9499 31.7266Z" fill="#0074F0"/>
<path opacity="0.1" d="M26.9505 31.7266V23.6611L34.5801 27.238L26.9505 31.7266Z" fill="#0074F0"/>
<defs>
<linearGradient id="paint0_linear_519_15846" x1="17.0452" y1="45.941" x2="33.6971" y2="35.0332" gradientUnits="userSpaceOnUse">
<stop stop-color="#1A82FF" stop-opacity="0.5"/>
<stop offset="1" stop-color="white"/>
</linearGradient>
<linearGradient id="paint1_linear_519_15846" x1="35.1599" y1="4.92012" x2="19.2273" y2="16.4319" gradientUnits="userSpaceOnUse">
<stop stop-color="#1A82FF" stop-opacity="0.5"/>
<stop offset="1" stop-color="white"/>
</linearGradient>
<linearGradient id="paint2_linear_519_15846" x1="10.7181" y1="19.1997" x2="24.0846" y2="27.3566" gradientUnits="userSpaceOnUse">
<stop stop-color="#1C313F"/>
<stop offset="1" stop-color="white"/>
</linearGradient>
</defs>
</svg>
