<svg width="300" height="300" viewBox="0 0 300 300" fill="none" xmlns="http://www.w3.org/2000/svg">
<g clip-path="url(#clip0_46_469)">
<path fill-rule="evenodd" clip-rule="evenodd" d="M150 0C232.847 0 300 67.1584 300 150C300 232.847 232.847 300 150 300C67.1642 300 0 232.847 0 150C0 67.1642 67.1584 0 150 0Z" fill="#0074F0"/>
<path fill-rule="evenodd" clip-rule="evenodd" d="M192.281 131.916C193.383 137.426 193.963 143.47 193.963 149.994C193.963 185.129 177.48 206.106 149.874 206.106C138.361 206.106 128.647 202.418 121.322 195.389L217.423 99.1597C214.848 94.5953 211.913 90.3267 208.607 86.4293C207.216 84.7938 205.754 83.2569 204.263 81.7721L204.275 81.7547C204.078 81.5633 203.869 81.3778 203.678 81.1864C203.231 80.7514 202.808 80.299 202.355 79.8814L202.326 79.8988C188.378 66.8727 170.434 60 149.874 60C126.112 60 105.842 69.1404 91.2618 86.4293C77.5512 102.692 70 125.27 70 149.994C70 166.431 73.3522 181.893 79.6101 195.197L107.495 167.277C106.527 161.988 106.034 156.223 106.034 149.994C106.034 133.825 109.322 120.746 115.806 111.13C123.404 99.8498 135.189 93.8819 149.874 93.8819C161.305 93.8819 170.822 97.4952 178.06 104.205L82.1504 200.249C84.7893 205.039 87.8341 209.499 91.256 213.565C91.9461 214.377 92.6537 215.16 93.3671 215.937L93.3845 215.954C94.208 216.853 95.049 217.723 95.9015 218.57L96.2263 218.895C96.4989 219.162 96.7599 219.446 97.0383 219.707L97.0673 219.684C111.027 232.982 129.105 240 149.868 240C173.647 240 193.952 230.86 208.602 213.565C222.388 197.285 229.985 174.707 229.985 150C229.985 133.314 226.505 117.614 220.01 104.153L192.275 131.922L192.281 131.916Z" fill="white"/>
</g>
<defs>
<clipPath id="clip0_46_469">
<rect width="300" height="300" fill="white"/>
</clipPath>
</defs>
</svg>
