<svg width="32" height="32" viewBox="0 0 32 32" fill="none" xmlns="http://www.w3.org/2000/svg">
<g clip-path="url(#clip0_176_4463)">
<path d="M16 14.4906C20.0015 14.4906 23.2453 11.2467 23.2453 7.24528C23.2453 3.24382 20.0015 0 16 0C11.9985 0 8.75472 3.24382 8.75472 7.24528C8.75472 11.2467 11.9985 14.4906 16 14.4906Z" fill="#88BDF3"/>
<path d="M16 31.9998C20.0015 31.9998 23.2453 28.756 23.2453 24.7546C23.2453 20.7531 20.0015 17.5093 16 17.5093C11.9985 17.5093 8.75472 20.7531 8.75472 24.7546C8.75472 28.756 11.9985 31.9998 16 31.9998Z" fill="#3075EE"/>
<path d="M24.7547 23.2454C28.7562 23.2454 32 20.0016 32 16.0002C32 11.9987 28.7562 8.75488 24.7547 8.75488C20.7533 8.75488 17.5094 11.9987 17.5094 16.0002C17.5094 20.0016 20.7533 23.2454 24.7547 23.2454Z" fill="#5795F1"/>
<path d="M7.24528 23.2454C11.2467 23.2454 14.4906 20.0016 14.4906 16.0002C14.4906 11.9987 11.2467 8.75488 7.24528 8.75488C3.24382 8.75488 0 11.9987 0 16.0002C0 20.0016 3.24382 23.2454 7.24528 23.2454Z" fill="#205FEC"/>
<path d="M14.2943 14.2941C13.0029 13.9801 11.8228 13.3169 10.883 12.3772C9.94323 11.4374 9.28005 10.2572 8.96604 8.96582C10.2552 9.28461 11.4328 9.94937 12.3718 10.8884C13.3108 11.8274 13.9755 13.005 14.2943 14.2941V14.2941Z" fill="#134BEF"/>
<path d="M8.95094 23.049C9.26496 21.7576 9.92813 20.5774 10.8679 19.6377C11.8077 18.6979 12.9878 18.0347 14.2792 17.7207C13.9605 19.0098 13.2957 20.1874 12.3567 21.1264C11.4177 22.0654 10.2401 22.7302 8.95094 23.049V23.049Z" fill="#0932E8"/>
<path d="M17.7057 17.7056C18.9971 18.0196 20.1772 18.6828 21.117 19.6225C22.0568 20.5623 22.72 21.7425 23.034 23.0339C21.7448 22.7151 20.5672 22.0503 19.6282 21.1113C18.6892 20.1723 18.0245 18.9947 17.7057 17.7056V17.7056Z" fill="#164BEA"/>
<path d="M23.0491 8.95117C22.735 10.2426 22.0719 11.4227 21.1321 12.3625C20.1923 13.3023 19.0122 13.9655 17.7208 14.2795C18.0395 12.9903 18.7043 11.8127 19.6433 10.8737C20.5823 9.93473 21.7599 9.26996 23.0491 8.95117Z" fill="#3170F1"/>
</g>
<defs>
<clipPath id="clip0_176_4463">
<rect width="32" height="32" fill="white"/>
</clipPath>
</defs>
</svg>
