<svg width="32" height="32" viewBox="0 0 32 32" fill="none" xmlns="http://www.w3.org/2000/svg">
<g clip-path="url(#clip0_4767_64204)">
<path d="M16 14.4906C20.0015 14.4906 23.2453 11.2467 23.2453 7.24528C23.2453 3.24382 20.0015 0 16 0C11.9986 0 8.75476 3.24382 8.75476 7.24528C8.75476 11.2467 11.9986 14.4906 16 14.4906Z" fill="#88BDF3"/>
<path d="M16 32.0001C20.0015 32.0001 23.2453 28.7563 23.2453 24.7548C23.2453 20.7533 20.0015 17.5095 16 17.5095C11.9986 17.5095 8.75476 20.7533 8.75476 24.7548C8.75476 28.7563 11.9986 32.0001 16 32.0001Z" fill="#3075EE"/>
<path d="M24.7547 23.2452C28.7561 23.2452 32 20.0014 32 15.9999C32 11.9985 28.7561 8.75464 24.7547 8.75464C20.7532 8.75464 17.5094 11.9985 17.5094 15.9999C17.5094 20.0014 20.7532 23.2452 24.7547 23.2452Z" fill="#5795F1"/>
<path d="M7.24528 23.2452C11.2467 23.2452 14.4906 20.0014 14.4906 15.9999C14.4906 11.9985 11.2467 8.75464 7.24528 8.75464C3.24382 8.75464 0 11.9985 0 15.9999C0 20.0014 3.24382 23.2452 7.24528 23.2452Z" fill="#205FEC"/>
<path d="M14.2944 14.2944C13.003 13.9804 11.8228 13.3172 10.883 12.3774C9.94325 11.4376 9.28008 10.2575 8.96606 8.96606C10.2552 9.28485 11.4328 9.94962 12.3718 10.8886C13.3108 11.8276 13.9756 13.0052 14.2944 14.2944Z" fill="#134BEF"/>
<path d="M8.95093 23.049C9.26494 21.7576 9.92812 20.5774 10.8679 19.6377C11.8077 18.6979 12.9878 18.0347 14.2792 17.7207C13.9604 19.0098 13.2957 20.1874 12.3567 21.1264C11.4177 22.0654 10.2401 22.7302 8.95093 23.049Z" fill="#0932E8"/>
<path d="M17.7057 17.7056C18.9971 18.0196 20.1773 18.6828 21.117 19.6225C22.0568 20.5623 22.72 21.7425 23.034 23.0339C21.7449 22.7151 20.5673 22.0503 19.6283 21.1113C18.6892 20.1723 18.0245 18.9947 17.7057 17.7056Z" fill="#164BEA"/>
<path d="M23.049 8.95093C22.735 10.2423 22.0718 11.4225 21.132 12.3623C20.1923 13.302 19.0121 13.9652 17.7207 14.2792C18.0395 12.9901 18.7043 11.8125 19.6433 10.8735C20.5823 9.93448 21.7599 9.26972 23.049 8.95093Z" fill="#3170F1"/>
</g>
<defs>
<clipPath id="clip0_4767_64204">
<rect width="32" height="32" fill="white"/>
</clipPath>
</defs>
</svg>
