<svg width="32" height="32" viewBox="0 0 32 32" fill="none" xmlns="http://www.w3.org/2000/svg">
<g clip-path="url(#clip0_174_4434)">
<path d="M14.0151 0.118683C7.11212 1.05533 1.55638 6.2518 0.286133 12.9623C-0.509376 17.1965 0.363118 21.4435 2.78814 25.0746C3.63497 26.332 5.75205 28.4619 6.97098 29.2702C8.83144 30.4892 10.7304 31.2847 12.9245 31.7594C14.4385 32.0802 17.5692 32.0802 19.0832 31.7594C22.214 31.0922 24.7416 29.7835 26.9742 27.6792C29.3351 25.4338 30.9004 22.7137 31.5933 19.6472C32.7994 14.3352 31.3238 8.93344 27.5901 4.96872C25.396 2.65918 22.214 0.901361 19.0576 0.298314C17.736 0.0416979 15.2083 -0.0481177 14.0151 0.118683ZM17.6077 1.38893C21.4185 1.82518 25.0239 3.77546 27.3719 6.67522C28.886 8.56135 29.7585 10.3063 30.3359 12.68C30.6181 13.8091 30.6695 14.3224 30.6823 15.8877C30.6823 18.1203 30.4513 19.4932 29.72 21.3408C25.8579 31.259 13.0913 33.9407 5.61091 26.409C1.38958 22.1748 0.144994 16.016 2.39038 10.4603C3.53232 7.59904 5.91885 4.84042 8.56199 3.33921C11.4489 1.68404 14.4513 1.0425 17.6077 1.38893Z" fill="black"/>
<path d="M5.64938 12.2436C3.98138 12.8466 2.91642 14.9124 3.30135 16.837C3.49381 17.7993 3.71193 18.2484 4.31498 18.8771C5.11049 19.7367 5.62372 19.9292 7.02228 19.9292C8.13855 19.9292 8.30536 19.8907 8.92123 19.5571C10.0632 18.9156 10.6919 17.9019 10.833 16.4649C11.0127 14.4889 9.87071 12.6413 8.18988 12.1666C7.53551 11.9869 6.27809 12.0254 5.64938 12.2436ZM8.45932 13.8474C9.21634 14.3991 9.60127 15.6694 9.33182 16.7857C8.81859 18.9412 5.98298 19.3646 5.00784 17.4272C4.41762 16.2724 4.72556 14.4633 5.62372 13.8346C6.36791 13.2957 7.68948 13.3085 8.45932 13.8474Z" fill="black"/>
<path d="M23.0094 12.2949C20.5973 13.2572 19.9172 16.8114 21.7392 18.9669C22.7272 20.1474 25.0624 20.3655 26.1017 19.3647L26.3839 19.0953L26.4224 19.4545C26.4609 19.7753 26.4994 19.8009 27.1025 19.8009H27.744L27.7825 17.7737L27.821 15.7592H26.0118H24.2155V16.4008V17.0423H25.3062C26.4866 17.0423 26.5251 17.068 26.1915 17.7609C25.9605 18.2356 25.1394 18.7103 24.5235 18.7103C23.0479 18.7103 22.1626 17.671 22.1626 15.9902C22.1754 14.1297 23.3687 13.0648 24.9982 13.4497C25.6269 13.6037 26.2685 14.1554 26.2685 14.5532C26.2685 14.6815 26.4609 14.7328 27.0383 14.7328H27.7953L27.6157 14.1554C27.2179 12.8082 26.23 12.1281 24.6005 12.0768C23.8819 12.0511 23.4842 12.1025 23.0094 12.2949Z" fill="black"/>
<path d="M11.898 16.0159V19.8651H12.5395H13.1811L13.2068 17.2733L13.2452 14.6686L14.1947 17.2733L15.1442 19.8779L15.7857 19.8394L16.4273 19.8009L17.3639 17.2348L18.3006 14.6686L18.3391 17.2348L18.3776 19.8009L19.0576 19.8394L19.7248 19.8779L19.6991 16.0544L19.6606 12.2308H18.7753H17.8772L16.8507 15.0792C16.2861 16.6574 15.7857 17.902 15.7472 17.8378C15.6959 17.7865 15.234 16.5676 14.7208 15.1177C14.2076 13.6678 13.72 12.4104 13.6558 12.3206C13.5788 12.2308 13.2196 12.1666 12.7192 12.1666H11.898V16.0159Z" fill="black"/>
</g>
<defs>
<clipPath id="clip0_174_4434">
<rect width="32" height="32" fill="white"/>
</clipPath>
</defs>
</svg>
