<svg width="32" height="32" viewBox="0 0 32 32" fill="none" xmlns="http://www.w3.org/2000/svg">
<g clip-path="url(#clip0_4767_67507)">
<path d="M14.0151 0.118683C7.11212 1.05533 1.55638 6.2518 0.286133 12.9623C-0.509376 17.1965 0.363118 21.4435 2.78814 25.0746C3.63497 26.332 5.75205 28.4619 6.97098 29.2702C8.83144 30.4892 10.7304 31.2847 12.9245 31.7594C14.4385 32.0802 17.5692 32.0802 19.0832 31.7594C22.214 31.0922 24.7416 29.7835 26.9742 27.6792C29.3351 25.4338 30.9004 22.7137 31.5933 19.6472C32.7994 14.3352 31.3238 8.93344 27.5901 4.96872C25.396 2.65918 22.214 0.901361 19.0576 0.298313C17.736 0.0416985 15.2083 -0.0481186 14.0151 0.118683ZM17.6077 1.38893C21.4185 1.82518 25.0239 3.77546 27.3719 6.67522C28.886 8.56135 29.7585 10.3063 30.3359 12.68C30.6181 13.8091 30.6695 14.3224 30.6823 15.8877C30.6823 18.1203 30.4513 19.4932 29.72 21.3408C25.8579 31.259 13.0913 33.9407 5.61091 26.409C1.38958 22.1748 0.144994 16.016 2.39038 10.4603C3.53232 7.59904 5.91885 4.84042 8.56199 3.33921C11.4489 1.68404 14.4513 1.0425 17.6077 1.38893Z" fill="black"/>
<path d="M5.64944 12.2438C3.98144 12.8468 2.91648 14.9126 3.30141 16.8372C3.49387 17.7995 3.71199 18.2486 4.31504 18.8773C5.11055 19.737 5.62378 19.9294 7.02234 19.9294C8.13862 19.9294 8.30542 19.891 8.92129 19.5574C10.0632 18.9158 10.6919 17.9022 10.8331 16.4651C11.0127 14.4892 9.87077 12.6416 8.18994 12.1668C7.53557 11.9872 6.27815 12.0257 5.64944 12.2438ZM8.45939 13.8476C9.2164 14.3994 9.60133 15.6696 9.33188 16.7859C8.81865 18.9415 5.98304 19.3649 5.0079 17.4274C4.41769 16.2727 4.72562 14.4635 5.62378 13.8348C6.36797 13.2959 7.68954 13.3088 8.45939 13.8476Z" fill="black"/>
<path d="M23.0094 12.2952C20.5972 13.2575 19.9172 16.8116 21.7391 18.9672C22.7271 20.1476 25.0623 20.3657 26.1016 19.3649L26.3839 19.0955L26.4224 19.4548C26.4609 19.7755 26.4994 19.8012 27.1024 19.8012H27.7439L27.7824 17.7739L27.8209 15.7595H26.0118H24.2155V16.401V17.0426H25.3061C26.4865 17.0426 26.525 17.0682 26.1914 17.7611C25.9605 18.2358 25.1393 18.7106 24.5234 18.7106C23.0479 18.7106 22.1625 17.6713 22.1625 15.9904C22.1754 14.13 23.3686 13.065 24.9982 13.4499C25.6269 13.6039 26.2684 14.1556 26.2684 14.5534C26.2684 14.6817 26.4609 14.733 27.0383 14.733H27.7953L27.6156 14.1556C27.2179 12.8084 26.2299 12.1284 24.6004 12.0771C23.8819 12.0514 23.4841 12.1027 23.0094 12.2952Z" fill="black"/>
<path d="M11.8979 16.0161V19.8653H12.5395H13.181L13.2067 17.2735L13.2452 14.6689L14.1947 17.2735L15.1441 19.8782L15.7857 19.8397L16.4272 19.8012L17.3639 17.235L18.3005 14.6689L18.339 17.235L18.3775 19.8012L19.0575 19.8397L19.7247 19.8782L19.6991 16.0546L19.6606 12.231H18.7753H17.8771L16.8506 15.0795C16.2861 16.6576 15.7857 17.9022 15.7472 17.8381C15.6959 17.7868 15.234 16.5678 14.7207 15.1179C14.2075 13.6681 13.7199 12.4107 13.6558 12.3208C13.5788 12.231 13.2195 12.1669 12.7191 12.1669H11.8979V16.0161Z" fill="black"/>
</g>
<defs>
<clipPath id="clip0_4767_67507">
<rect width="32" height="32" fill="white"/>
</clipPath>
</defs>
</svg>
