<svg width="32" height="32" viewBox="0 0 32 32" fill="none" xmlns="http://www.w3.org/2000/svg">
<g clip-path="url(#clip0_4770_63744)">
<path d="M16 32C24.8366 32 32 24.8366 32 16C32 7.16344 24.8366 0 16 0C7.16344 0 0 7.16344 0 16C0 24.8366 7.16344 32 16 32Z" fill="#FF0420"/>
<path d="M11.3365 20.2525C10.3838 20.2525 9.60324 20.0283 8.99479 19.58C8.39434 19.1237 8.09412 18.4753 8.09412 17.6346C8.09412 17.4585 8.11415 17.2423 8.15415 16.9861C8.25828 16.4097 8.40637 15.7172 8.5985 14.9086C9.14288 12.707 10.5479 11.6062 12.8136 11.6062C13.4301 11.6062 13.9824 11.7103 14.4708 11.9184C14.9592 12.1185 15.3435 12.4228 15.6237 12.8311C15.9038 13.2314 16.044 13.7117 16.044 14.2721C16.044 14.4402 16.024 14.6524 15.9839 14.9086C15.8638 15.6211 15.7197 16.3137 15.5516 16.9861C15.2714 18.0829 14.787 18.9035 14.0985 19.4479C13.41 19.9843 12.4894 20.2525 11.3365 20.2525ZM11.5046 18.5233C11.953 18.5233 12.3332 18.3912 12.6455 18.127C12.9657 17.8628 13.1939 17.4585 13.33 16.9141C13.5141 16.1615 13.6542 15.505 13.7503 14.9446C13.7823 14.7765 13.7983 14.6044 13.7983 14.4282C13.7983 13.6997 13.418 13.3354 12.6575 13.3354C12.2091 13.3354 11.8249 13.4675 11.5046 13.7317C11.1924 13.996 10.9682 14.4002 10.8322 14.9446C10.688 15.481 10.5439 16.1375 10.3998 16.9141C10.3678 17.0742 10.3518 17.2423 10.3518 17.4184C10.3518 18.155 10.7361 18.5233 11.5046 18.5233Z" fill="white"/>
<path d="M16.5954 20.1325C16.5074 20.1325 16.4393 20.1045 16.3913 20.0484C16.3512 19.9844 16.3393 19.9124 16.3553 19.8323L18.0125 12.0265C18.0285 11.9385 18.0725 11.8664 18.1446 11.8103C18.2166 11.7543 18.2927 11.7263 18.3727 11.7263H21.5671C22.4557 11.7263 23.1682 11.9104 23.7046 12.2787C24.2491 12.647 24.5213 13.1794 24.5213 13.8759C24.5213 14.076 24.4973 14.2842 24.4492 14.5003C24.2491 15.421 23.8448 16.1016 23.2363 16.5419C22.6359 16.9822 21.8112 17.2024 20.7625 17.2024H19.1413L18.5889 19.8323C18.5728 19.9204 18.5288 19.9924 18.4568 20.0484C18.3848 20.1045 18.3087 20.1325 18.2287 20.1325H16.5954ZM20.8466 15.5451C21.1828 15.5451 21.475 15.453 21.7232 15.2689C21.9794 15.0848 22.1475 14.8206 22.2276 14.4763C22.2516 14.3402 22.2636 14.2201 22.2636 14.1161C22.2636 13.8839 22.1956 13.7078 22.0594 13.5877C21.9233 13.4596 21.6912 13.3956 21.3629 13.3956H19.9218L19.4655 15.5451H20.8466Z" fill="white"/>
</g>
<defs>
<clipPath id="clip0_4770_63744">
<rect width="32" height="32" fill="white"/>
</clipPath>
</defs>
</svg>
