<svg width="32" height="32" viewBox="0 0 32 32" fill="none" xmlns="http://www.w3.org/2000/svg">
<g clip-path="url(#clip0_168_16035)">
<path d="M16 32C24.8366 32 32 24.8366 32 16C32 7.16344 24.8366 0 16 0C7.16344 0 0 7.16344 0 16C0 24.8366 7.16344 32 16 32Z" fill="#FF0420"/>
<path d="M11.3344 20.2499C10.3808 20.2499 9.6 20.0259 8.992 19.5779C8.3904 19.1235 8.0896 18.4707 8.0896 17.6323C8.0896 17.4531 8.1088 17.2419 8.1472 16.9859C8.2496 16.4099 8.3968 15.7187 8.5888 14.9059C9.1328 12.7043 10.5408 11.6035 12.8064 11.6035C13.4208 11.6035 13.9776 11.7059 14.464 11.9171C14.9504 12.1155 15.3344 12.4227 15.616 12.8323C15.8976 13.2355 16.0384 13.7155 16.0384 14.2723C16.0384 14.4387 16.0192 14.6499 15.9808 14.9059C15.8592 15.6163 15.7184 16.3139 15.5456 16.9859C15.264 18.0803 14.784 18.9059 14.0928 19.4499C13.408 19.9875 12.4864 20.2499 11.3344 20.2499ZM11.5072 18.5219C11.9552 18.5219 12.3328 18.3875 12.6464 18.1251C12.9664 17.8627 13.1968 17.4595 13.3312 16.9091C13.5168 16.1539 13.6576 15.5011 13.7536 14.9379C13.7856 14.7715 13.8048 14.5987 13.8048 14.4195C13.8048 13.6899 13.4272 13.3251 12.6656 13.3251C12.2176 13.3251 11.8336 13.4595 11.5136 13.7219C11.2 13.9843 10.976 14.3875 10.8416 14.9379C10.6944 15.4755 10.5536 16.1283 10.4064 16.9091C10.3744 17.0691 10.3552 17.2355 10.3552 17.4147C10.3488 18.1571 10.7392 18.5219 11.5072 18.5219Z" fill="white"/>
<path d="M16.5952 20.1342C16.5056 20.1342 16.4416 20.1086 16.3904 20.051C16.352 19.987 16.3392 19.9166 16.352 19.8334L18.0096 12.0254C18.0224 11.9358 18.0672 11.8654 18.144 11.8078C18.2144 11.7502 18.2912 11.7246 18.3744 11.7246H21.568C22.4576 11.7246 23.168 11.9102 23.7056 12.275C24.2496 12.6462 24.5248 13.1774 24.5248 13.875C24.5248 14.0734 24.4992 14.2846 24.4544 14.5022C24.256 15.4238 23.8528 16.1022 23.2384 16.5438C22.6368 16.9854 21.8112 17.203 20.7616 17.203H19.1424L18.592 19.8334C18.5728 19.923 18.5344 19.9934 18.4576 20.051C18.3872 20.1086 18.3104 20.1342 18.2272 20.1342H16.5952ZM20.8448 15.5454C21.184 15.5454 21.472 15.4558 21.7216 15.2702C21.9776 15.0846 22.144 14.8222 22.2272 14.4766C22.2528 14.3422 22.2656 14.2206 22.2656 14.1182C22.2656 13.8878 22.1952 13.7086 22.0608 13.587C21.9264 13.459 21.6896 13.395 21.3632 13.395H19.9232L19.4688 15.5454H20.8448V15.5454Z" fill="white"/>
</g>
<defs>
<clipPath id="clip0_168_16035">
<rect width="32" height="32" fill="white"/>
</clipPath>
</defs>
</svg>
