<svg width="32" height="32" viewBox="0 0 32 32" fill="none" xmlns="http://www.w3.org/2000/svg">
<g clip-path="url(#clip0_4767_68054)">
<path d="M9.19803 20.2692C9.1924 20.3424 9.1646 20.4121 9.11832 20.4691C9.07205 20.526 9.00951 20.5675 8.93904 20.588C8.86857 20.6085 8.79353 20.607 8.72392 20.5838C8.65431 20.5605 8.59345 20.5166 8.54944 20.4579L3.36077 15.6253C3.29604 15.5836 3.24517 15.5235 3.21459 15.4528C3.18401 15.3821 3.17511 15.3039 3.189 15.2282C3.20289 15.1524 3.23895 15.0825 3.29262 15.0272C3.34629 14.972 3.41515 14.9339 3.49048 14.9178L10.7546 12.0216C11.0919 11.8871 11.2947 12.064 11.2051 12.4178L9.19803 20.2692Z" fill="#404A72"/>
<path d="M4.90573 24.8613C4.62978 25.0972 4.35148 25.0005 4.2878 24.642L2.87271 16.7882C2.80667 16.4297 2.97176 16.3401 3.23827 16.5877L8.16752 21.1868C8.23029 21.2426 8.28023 21.3114 8.31391 21.3884C8.34759 21.4654 8.36422 21.5488 8.36265 21.6328C8.36108 21.7168 8.34135 21.7995 8.30482 21.8752C8.26829 21.9508 8.21582 22.0177 8.15101 22.0712L4.90573 24.8613Z" fill="#556195"/>
<path d="M10.849 10.4578C10.9056 10.5116 10.947 10.5795 10.969 10.6546C10.9909 10.7296 10.9926 10.8091 10.974 10.885C10.9553 10.9609 10.9169 11.0305 10.8626 11.0868C10.8084 11.143 10.7402 11.184 10.665 11.2054L3.4457 14.0946C3.10608 14.229 2.93391 14.0615 3.06127 13.7196L6.02825 5.7455C6.04071 5.67304 6.07515 5.60616 6.12689 5.55393C6.17864 5.5017 6.2452 5.46665 6.31754 5.45352C6.38988 5.44039 6.46451 5.44982 6.53132 5.48053C6.59812 5.51125 6.65386 5.56176 6.69099 5.62522L10.849 10.4578Z" fill="#556195"/>
<path d="M3.28298 23.5261C3.34902 23.8846 3.23817 23.9271 3.04713 23.6228L0.235811 19.295C0.139267 19.1285 0.0915978 18.9382 0.0982724 18.7459C0.104947 18.5536 0.165695 18.3671 0.273547 18.2077L1.52355 16.5308C1.74289 16.2384 1.97402 16.295 2.0377 16.6511L3.28298 23.5261Z" fill="#556195"/>
<path d="M2.40093 13.2289C2.27357 13.5708 2.07546 13.5685 1.9599 13.2289L1.00471 10.3491C0.953113 10.1614 0.951889 9.96334 1.00116 9.77496C1.05043 9.58657 1.14845 9.41449 1.28537 9.27603L4.6981 6.18405C4.96697 5.9482 5.0849 6.01895 4.95754 6.36093L2.40093 13.2289Z" fill="#556195"/>
<path d="M1.50007 14.3377C1.5529 14.5322 1.56361 14.7356 1.53148 14.9345C1.49935 15.1334 1.42511 15.3231 1.31375 15.491L0.334974 16.8094C0.115634 17.1019 -0.030592 17.0453 0.00478539 16.6821L0.471767 12.1231C0.507144 11.7599 0.634502 11.7458 0.74771 12.0925L1.50007 14.3377Z" fill="#556195"/>
<path d="M5.3513 4.07095C5.47395 4.21011 5.3513 4.52614 5.08008 4.7785L3.53762 6.16294C3.2664 6.39879 3.22395 6.36812 3.44093 6.07567L4.71687 4.3469C4.95272 4.05445 5.23102 3.93416 5.3513 4.07095Z" fill="#556195"/>
<path d="M15.0376 28.3353C15.0091 28.4043 14.9614 28.4636 14.9002 28.5062C14.839 28.5488 14.7667 28.573 14.6922 28.5757C14.6176 28.5784 14.5438 28.5597 14.4796 28.5216C14.4154 28.4836 14.3635 28.428 14.3301 28.3613L10.3206 22.5216C10.2691 22.4694 10.2348 22.4027 10.2222 22.3304C10.2096 22.2581 10.2193 22.1837 10.25 22.1171C10.2808 22.0505 10.3311 21.9949 10.3943 21.9576C10.4574 21.9203 10.5305 21.9031 10.6037 21.9084L18.6673 21.0759C19.0282 21.0382 19.1744 21.2646 18.9905 21.5806L15.0376 28.3353Z" fill="#556195"/>
<path d="M13.3562 28.3398C13.5637 28.6417 13.4505 28.7903 13.1038 28.6747L5.55666 26.1039C5.21233 25.986 5.15572 25.6959 5.43167 25.4577L8.66044 22.67C8.72284 22.6137 8.79669 22.5716 8.8769 22.5465C8.95712 22.5215 9.04181 22.5141 9.12515 22.5248C9.2085 22.5356 9.28853 22.5642 9.35976 22.6088C9.43099 22.6534 9.49172 22.7129 9.5378 22.7832L13.3562 28.3398Z" fill="#556195"/>
<path d="M18.8303 19.7196C19.0661 19.9955 18.9647 20.2502 18.5944 20.288L10.4105 21.1323C10.3349 21.1481 10.2565 21.1434 10.1833 21.1186C10.1102 21.0938 10.0451 21.0498 9.99476 20.9913C9.94442 20.9328 9.9107 20.8618 9.89711 20.7858C9.88353 20.7098 9.89058 20.6315 9.91754 20.5592L11.9647 12.5922C12.0567 12.2408 12.3256 12.1771 12.5614 12.4531L18.8303 19.7196Z" fill="#6ECCE0"/>
<path d="M24.71 26.5449C24.7679 26.5908 24.8101 26.6536 24.831 26.7244C24.8518 26.7953 24.8503 26.8709 24.8265 26.9408C24.8028 27.0108 24.758 27.0717 24.6983 27.1153C24.6386 27.1588 24.5669 27.1828 24.493 27.184L16.1676 28.934C15.8114 29.0095 15.6699 28.8138 15.8539 28.4977L19.7808 21.7831C19.8137 21.7126 19.8645 21.6519 19.9282 21.6071C19.9919 21.5623 20.0662 21.5349 20.1437 21.5278C20.2212 21.5206 20.2993 21.5339 20.3701 21.5663C20.4409 21.5987 20.502 21.649 20.5473 21.7123L24.71 26.5449Z" fill="#556195"/>
<path d="M11.3207 31.0262C11.147 31.1087 10.9536 31.1407 10.7627 31.1186C10.5717 31.0965 10.3907 31.0212 10.2405 30.9012L6.36785 27.4885C6.09662 27.2526 6.15558 27.1465 6.49992 27.2526L13.1037 29.5003C13.4504 29.6182 13.4693 29.8564 13.1485 30.0286L11.3207 31.0262Z" fill="#556195"/>
<path d="M20.2972 31.3516C20.1402 31.4664 19.9557 31.5377 19.7623 31.5584C19.569 31.5791 19.3736 31.5484 19.1958 31.4695L16.5095 30.0993C16.184 29.9318 16.21 29.736 16.5661 29.6606L23.7383 28.1511C24.0944 28.0757 24.1557 28.203 23.8751 28.4342L20.2972 31.3516Z" fill="#556195"/>
<path d="M12.7853 31.5284C12.4197 31.5119 12.3867 31.3562 12.7074 31.184L14.1508 30.401C14.3348 30.314 14.5354 30.2677 14.7389 30.2652C14.9424 30.2628 15.1441 30.3043 15.3301 30.3869L17.4386 31.46C17.764 31.6251 17.731 31.7454 17.3678 31.7288L12.7853 31.5284Z" fill="#556195"/>
<path d="M26.0495 28.1019C26.1698 28.2411 26.0071 28.4982 25.6863 28.6703L23.7854 29.6845C23.4623 29.8567 23.4292 29.8071 23.7123 29.576L25.316 28.2647C25.5991 28.0335 25.9292 27.9604 26.0495 28.1019Z" fill="#556195"/>
<path d="M21.2453 19.6346C20.9057 19.769 20.7029 19.5921 20.7949 19.2384L22.8114 11.3893C22.8173 11.316 22.8453 11.2463 22.8916 11.1892C22.938 11.1322 23.0006 11.0906 23.0711 11.0699C23.1417 11.0492 23.2168 11.0504 23.2867 11.0733C23.3565 11.0962 23.4178 11.1398 23.4623 11.1983L28.651 16.0332C28.7168 16.0742 28.7687 16.1341 28.8 16.2051C28.8314 16.276 28.8406 16.3547 28.8266 16.431C28.8127 16.5073 28.7761 16.5776 28.7216 16.6329C28.6672 16.6881 28.5974 16.7257 28.5213 16.7407L21.2453 19.6346Z" fill="#404A72"/>
<path d="M29.1321 14.8684C29.1958 15.2269 29.0331 15.3189 28.7666 15.0689L23.835 10.4698C23.7723 10.4138 23.7226 10.3449 23.6891 10.2678C23.6556 10.1907 23.6392 10.1073 23.641 10.0233C23.6428 9.93926 23.6627 9.85662 23.6995 9.78104C23.7362 9.70545 23.7889 9.63871 23.8538 9.5854L27.092 6.7953C27.368 6.55945 27.6486 6.65615 27.7123 7.01464L29.1321 14.8684Z" fill="#556195"/>
<path d="M25.9716 25.9132C25.9581 25.9854 25.923 26.0517 25.8709 26.1033C25.8188 26.155 25.7521 26.1895 25.6799 26.2024C25.6076 26.2152 25.5331 26.2056 25.4664 26.175C25.3997 26.1445 25.3439 26.0943 25.3065 26.0311L21.1461 21.1986C21.0876 21.1451 21.0446 21.0769 21.0214 21.0011C20.9982 20.9253 20.9957 20.8447 21.0143 20.7676C21.0328 20.6906 21.0717 20.6199 21.1268 20.563C21.1819 20.506 21.2513 20.4649 21.3277 20.4439L28.5541 17.5547C28.8914 17.4203 29.0659 17.5877 28.9386 17.9297L25.9716 25.9132Z" fill="#556195"/>
<path d="M31.7594 12.3613C31.8557 12.5277 31.9035 12.7178 31.8972 12.91C31.891 13.1022 31.831 13.2888 31.724 13.4486L30.4716 15.1255C30.2547 15.4179 30.0235 15.3613 29.9575 15.0052L28.7146 8.13018C28.6509 7.77169 28.7594 7.72923 28.9504 8.03348L31.7594 12.3613Z" fill="#556195"/>
<path d="M30.9953 21.3067C31.0469 21.4945 31.0481 21.6925 30.9989 21.8809C30.9496 22.0693 30.8516 22.2414 30.7147 22.3798L27.3019 25.4718C27.0307 25.7077 26.9151 25.6369 27.0425 25.2973L29.5991 18.427C29.7241 18.085 29.9222 18.0874 30.0378 18.427L30.9953 21.3067Z" fill="#556195"/>
<path d="M31.5236 19.5335C31.4859 19.8967 31.3609 19.9085 31.2453 19.5642L30.4977 17.3189C30.4442 17.1237 30.4331 16.9194 30.4652 16.7196C30.4974 16.5199 30.572 16.3293 30.684 16.1609L31.6652 14.8472C31.8821 14.5547 32.0307 14.6113 31.993 14.9745L31.5236 19.5335Z" fill="#556195"/>
<path d="M27.2642 27.3092C27.0448 27.604 26.7689 27.7266 26.6463 27.5851C26.5236 27.4436 26.6463 27.1299 26.9175 26.8776L28.4529 25.486C28.7217 25.2502 28.7665 25.2809 28.5496 25.5733L27.2642 27.3092Z" fill="#556195"/>
<path d="M21.6841 9.13488C21.7356 9.18713 21.7699 9.25384 21.7825 9.32611C21.7951 9.39838 21.7854 9.47278 21.7547 9.53939C21.7239 9.606 21.6736 9.66166 21.6104 9.69895C21.5473 9.73623 21.4742 9.75337 21.401 9.74809L13.3374 10.5806C12.9741 10.6184 12.8279 10.392 13.0119 10.0783L16.9624 3.3212C16.9908 3.25223 17.0385 3.19291 17.0998 3.15029C17.161 3.10767 17.2332 3.08356 17.3078 3.08083C17.3824 3.07809 17.4561 3.09685 17.5203 3.13487C17.5845 3.17289 17.6365 3.22856 17.6699 3.29525L21.6841 9.13488Z" fill="#404A72"/>
<path d="M23.3491 8.98617C23.2867 9.04246 23.2128 9.08458 23.1326 9.10963C23.0524 9.13469 22.9677 9.1421 22.8844 9.13134C22.801 9.12059 22.721 9.09193 22.6498 9.04733C22.5785 9.00273 22.5178 8.94325 22.4717 8.87297L18.6321 3.31636C18.4269 3.01448 18.5401 2.86589 18.8845 2.98382L26.4316 5.54985C26.776 5.66778 26.8326 5.95787 26.5566 6.19608L23.3491 8.98617Z" fill="#556195"/>
<path d="M20.0236 19.064C19.934 19.4177 19.6651 19.4791 19.4269 19.2031L13.1699 11.939C12.934 11.663 13.0331 11.4059 13.4057 11.3682L21.5873 10.5239C21.6631 10.5075 21.7418 10.5119 21.8153 10.5365C21.8887 10.561 21.9543 10.6049 22.0049 10.6636C22.0556 10.7222 22.0895 10.7934 22.1032 10.8696C22.1169 10.9459 22.1097 11.0244 22.0826 11.097L20.0236 19.064Z" fill="#556195"/>
<path d="M12.217 9.87269C12.1846 9.9438 12.134 10.0051 12.0703 10.0503C12.0066 10.0956 11.9321 10.1232 11.8543 10.1304C11.7765 10.1376 11.6981 10.1241 11.6272 10.0912C11.5563 10.0584 11.4954 10.0074 11.4505 9.94345L7.29012 5.11326C7.2324 5.06744 7.19022 5.00494 7.16929 4.93429C7.14837 4.86363 7.14973 4.78824 7.17319 4.71839C7.19665 4.64853 7.24106 4.5876 7.30039 4.54389C7.35971 4.50018 7.43107 4.47581 7.50474 4.47411L15.8302 2.72175C16.1887 2.64628 16.3302 2.84203 16.1462 3.15807L12.217 9.87269Z" fill="#556195"/>
<path d="M18.882 2.14654C18.5377 2.02861 18.5188 1.79276 18.8396 1.61823L20.6839 0.632385C20.8576 0.549914 21.0509 0.517904 21.2419 0.540005C21.4329 0.562106 21.6138 0.637429 21.7641 0.757385L25.6273 4.17012C25.9009 4.40597 25.8419 4.5121 25.4976 4.40597L18.882 2.14654Z" fill="#556195"/>
<path d="M8.27124 3.50479C7.91511 3.58026 7.85378 3.46233 8.1368 3.22648L11.7005 0.304313C11.858 0.189584 12.0428 0.118293 12.2366 0.097595C12.4303 0.0768966 12.6261 0.107519 12.8043 0.186388L15.5024 1.55903C15.8278 1.72412 15.8019 1.91988 15.4458 1.99535L8.27124 3.50479Z" fill="#556195"/>
<path d="M17.849 1.25515C17.6651 1.34217 17.4645 1.38848 17.261 1.39092C17.0575 1.39336 16.8558 1.35188 16.6698 1.2693L14.5472 0.196185C14.2406 0.0310908 14.2712 -0.0891922 14.6368 -0.0750413L19.2146 0.137223C19.5755 0.160808 19.6132 0.309393 19.2924 0.481562L17.849 1.25515Z" fill="#556195"/>
<path d="M6.68401 3.39171C6.40099 3.62756 6.0708 3.69596 5.95052 3.55681C5.83024 3.41766 5.99297 3.15822 6.31373 2.98841L8.21467 1.9719C8.53543 1.79973 8.56845 1.84926 8.28779 2.08039L6.68401 3.39171Z" fill="#556195"/>
<path d="M4.24539 26.4769C4.38454 26.3542 4.70058 26.4769 4.95294 26.7457L6.34445 28.2811C6.5803 28.5523 6.54964 28.5948 6.25718 28.3778L4.52605 27.0924C4.22416 26.8755 4.10152 26.5972 4.24539 26.4769Z" fill="#556195"/>
<path d="M28.2711 5.77838C28.4127 5.65574 28.6697 5.82083 28.8395 6.14159L29.856 8.04253C30.0259 8.36564 29.9787 8.39631 29.7476 8.11564L28.4362 6.51187C28.2051 6.22885 28.132 5.89866 28.2711 5.77838Z" fill="#556195"/>
<path d="M27.481 4.56395C27.7735 4.78093 27.8985 5.05923 27.757 5.17952C27.6155 5.2998 27.3018 5.17952 27.0494 4.91065L25.6579 3.37527C25.4221 3.10404 25.4527 3.06159 25.7452 3.27857L27.481 4.56395Z" fill="#556195"/>
<path d="M3.56359 25.1439C3.79944 25.427 3.86783 25.7571 3.72632 25.8774C3.58481 25.9977 3.3301 25.835 3.15793 25.5142L2.14378 23.6133C1.97161 23.2902 2.02113 23.2595 2.25227 23.5402L3.56359 25.1439Z" fill="#556195"/>
</g>
<defs>
<clipPath id="clip0_4767_68054">
<rect width="32" height="32" fill="white"/>
</clipPath>
</defs>
</svg>
