<svg width="32" height="32" viewBox="0 0 32 32" fill="none" xmlns="http://www.w3.org/2000/svg">
    <g clip-path="url(#clip0_5848_6584)">
        <path
            d="M15.8928 31.3887C24.4326 31.3887 31.3555 24.4658 31.3555 15.926C31.3555 7.38623 24.4326 0.463379 15.8928 0.463379C7.35305 0.463379 0.430176 7.38623 0.430176 15.926C0.430176 24.4658 7.35305 31.3887 15.8928 31.3887Z"
            fill="#FC0000" />
        <path
            d="M15.8927 0.754515C24.2793 0.754515 31.0642 7.53945 31.0642 15.926C31.0642 24.3125 24.2793 31.0974 15.8927 31.0974C7.50624 31.0974 0.721313 24.3125 0.721313 15.926C0.721313 7.53945 7.50624 0.754515 15.8927 0.754515ZM15.8927 0.172119C7.21504 0.172119 0.138916 7.24825 0.138916 15.926C0.138916 24.6037 7.21504 31.6798 15.8927 31.6798C24.5705 31.6798 31.6466 24.6037 31.6466 15.926C31.6466 7.24825 24.5705 0.172119 15.8927 0.172119Z"
            fill="white" />
        <path
            d="M10.1852 28.2145C10.0979 28.1854 9.98143 28.1563 9.89404 28.1272L9.98143 27.8651C10.0688 27.8942 10.1561 27.9233 10.2726 27.9524L10.1852 28.2145Z"
            fill="#FC0000" />
        <path
            d="M15.4852 24.6328C15.194 24.6328 14.5242 25.157 14.5242 25.3899C14.5242 25.7685 15.0192 26.1471 15.5434 26.1471C16.0966 26.1471 16.417 25.8849 16.3878 25.4482C16.3878 25.1278 15.8054 24.6328 15.4852 24.6328Z"
            fill="#BE251E" />
        <path
            d="M24.4832 25.6811C24.5414 25.6228 24.5996 25.5646 24.6579 25.5064C24.687 25.4772 24.687 25.4772 24.7161 25.4481C24.6288 25.5355 24.5414 25.5937 24.4832 25.6811Z"
            fill="black" />
        <path
            d="M24.6869 21.1966C24.5705 20.818 24.454 20.4103 24.3957 20.0318C24.3667 19.8571 24.3667 19.6532 24.3957 19.4785C24.4249 19.1 24.5122 18.7214 24.4831 18.3429C24.454 17.7022 24.3667 17.0616 24.3084 16.4209C24.221 15.5182 23.8425 14.732 23.4057 13.9749C23.3766 13.9166 23.3183 13.8293 23.2892 13.771C22.8524 13.0722 22.2409 12.4898 21.6003 11.9656C21.3091 11.7326 20.6684 11.2643 20.2899 11.3807C19.9987 11.439 19.8239 11.5871 19.5619 11.7326C18.5136 12.3441 17.7591 13.3253 17.2641 14.4318C17.1185 14.7522 17.0255 15.1397 16.9382 15.4891C16.8508 15.7803 16.8934 16.0195 16.5731 16.0486C16.0198 16.1068 15.5617 15.9904 15.0084 16.0486C14.5716 16.0777 14.4368 16.0133 14.262 15.7512C14.1747 15.6347 14.1747 15.4891 14.0873 15.3435C13.7088 14.5864 13.3884 13.8293 12.9808 13.0722C12.8061 12.7518 12.5149 12.4607 12.1945 12.2277C11.9325 12.0238 11.583 11.8491 11.2627 11.7326C10.9133 11.6162 10.0413 11.1726 9.6628 11.4638C8.84744 12.0462 8.29975 12.8313 7.71735 13.6467C7.65911 13.734 7.57128 13.8984 7.54213 13.9858C6.90149 14.9759 6.48707 15.9714 6.37059 17.1071C6.2832 17.8641 6.34144 18.5758 6.37059 19.362C6.37059 19.5077 6.45797 19.8279 6.37059 19.9444C5.78819 20.7889 5.81113 21.8435 5.95676 22.7462C6.18972 24.2022 7.448 25.2443 8.70014 26.0596C9.45726 26.5838 10.2435 26.9915 11.088 27.3118C12.4275 27.8359 13.8835 28.1271 15.3977 28.1854C16.3587 28.0397 17.3197 27.9524 18.2806 27.7777C19.0086 27.6321 19.7366 27.4282 20.4355 27.137C20.6975 27.0206 20.9305 26.9041 21.1635 26.7876C21.8623 26.4091 22.5904 26.0305 23.1728 25.5063C23.8716 24.8657 24.454 24.0795 24.6579 23.1185C24.6869 22.4487 24.8908 21.8373 24.6869 21.1966ZM19.0324 15.6371C19.3236 14.88 20.2025 14.6155 20.7558 15.1979C20.9014 15.3435 21.0179 15.5182 21.1635 15.693C21.1926 15.7221 21.1358 15.7908 21.2231 15.9073C21.0775 15.8782 21.047 15.8385 21.0179 15.8094C20.6102 15.5182 20.1734 15.3726 19.7075 15.4891C19.5036 15.5473 19.3289 15.6638 19.1251 15.7221C19.0668 15.7512 19.0086 15.7512 18.9503 15.7512C18.9212 15.7512 19.0324 15.6953 19.0324 15.6371ZM14.7571 20.7598C15.0774 20.4686 16.0092 20.4103 16.3587 20.6433C16.5043 20.7307 16.6499 20.9637 16.6499 21.1092C16.6499 21.2257 16.4169 21.4004 16.2713 21.4587C16.0675 21.5169 15.8345 21.5169 15.5725 21.5169C15.3686 21.4878 15.1356 21.5169 14.9318 21.4587C14.7862 21.4296 14.6115 21.2839 14.5824 21.1675C14.5532 21.051 14.6697 20.8472 14.7571 20.7598ZM10.0688 15.5765C10.36 15.1979 10.6512 14.8194 11.2045 14.8485C11.4957 14.8485 12.1654 15.3726 12.2237 15.6638C12.2237 15.7221 12.0529 15.7512 11.9946 15.7512C11.8781 15.7512 11.8494 15.671 11.7329 15.6128C11.2087 15.3798 10.7411 15.3413 10.246 15.7198C10.1878 15.7781 10.1133 15.7621 10.026 15.7912C10.0551 15.6747 10.0106 15.6347 10.0688 15.5765ZM11.2336 18.1099C11.0297 17.8478 10.7968 17.8769 10.6221 18.139C10.3891 18.5176 10.1853 18.9543 10.0106 19.362C9.89408 19.6241 10.0106 19.6824 10.3309 19.6241C10.4765 19.595 10.6221 19.5659 10.7677 19.595C10.8842 19.595 11.088 19.6241 11.088 19.7406C11.088 19.8571 10.8842 19.8279 10.7677 19.8571C10.4765 19.9153 10.1561 19.9736 9.86494 20.0609C9.66113 20.1191 9.4864 20.2356 9.28254 20.323C9.13696 20.4103 9.04958 20.3813 9.04958 20.2065C9.04958 19.0126 9.2243 17.906 10.0979 16.9742C10.36 16.7121 10.6512 16.6539 10.9715 16.6248C11.4374 16.5957 12.0781 17.0325 12.3693 17.7895C12.5731 18.3137 12.7187 18.867 12.8934 19.4203C12.9226 19.5367 12.9226 19.6532 12.9226 19.7697C12.8934 20.0027 12.7478 20.0609 12.5731 19.9444C12.2237 19.7406 11.9325 19.4785 11.7869 19.0417C11.7286 18.7214 11.4666 18.4011 11.2336 18.1099ZM18.7174 23.73C18.3388 23.8756 17.9312 24.0212 17.5526 24.0795C17.3197 24.1086 17.2323 24.1668 17.2032 24.3998C17.1449 24.9239 16.9702 25.419 16.679 25.8558C16.4169 26.2634 16.0092 26.4091 15.3977 26.4091C14.8736 26.4091 14.4493 25.9738 14.2163 25.304C14.0999 24.9837 13.9861 24.6769 13.9279 24.3275C13.8988 24.0945 13.6796 24.0503 13.4758 24.0795C13.039 24.1377 12.6836 23.9105 12.276 23.7357C12.0722 23.6484 12.2237 23.6664 12.2528 23.4917C12.2819 23.4043 12.2177 23.3132 12.276 23.2841C12.4216 23.4297 12.4782 23.4334 12.5074 23.4917C12.6821 23.7537 12.8949 23.6732 13.1861 23.7023C14.0015 23.8188 14.8444 23.6117 15.3977 23.0293C15.5725 22.8546 15.5142 22.5652 15.7763 22.8856C16.3296 23.4971 17.1226 23.9921 17.9962 23.6426C18.1418 23.5844 18.2596 23.579 18.4052 23.4917C18.4926 23.4334 18.5726 23.2351 18.6017 23.2643C18.7182 23.3225 18.8048 23.3223 18.8339 23.4388C18.9212 23.5262 18.8048 23.7009 18.7174 23.73ZM21.7459 20.1191C21.6876 20.2065 21.4838 20.323 21.4256 20.2939C20.9596 20.0027 20.4646 19.8862 19.9404 19.8571C19.8531 19.8571 19.7657 19.7989 19.6784 19.7697C19.6492 19.7406 19.591 19.7406 19.5619 19.7115C19.6201 19.6824 19.6492 19.6532 19.7075 19.6532C19.9987 19.6241 20.2899 19.5659 20.552 19.6241C20.8432 19.6824 20.9305 19.595 20.8432 19.3912C20.6684 18.9543 20.4937 18.5467 20.2899 18.139C20.1443 17.906 19.8822 17.8478 19.7075 18.0807C19.4745 18.4011 19.2124 18.7505 19.0668 19.1291C18.8921 19.5659 18.5427 19.7989 18.1641 19.9736C18.135 20.0027 17.9894 19.8862 17.9894 19.8571C18.0768 18.9253 18.3388 17.9934 18.9212 17.2654C19.6784 16.3336 20.6102 16.5666 21.1635 17.4984C21.5711 18.1972 21.7459 18.9835 21.775 19.7406C21.7459 19.8862 21.8041 20.0318 21.7459 20.1191Z"
            fill="white" />
        <path
            d="M26.2594 8.87889C26.1138 10.1602 25.6479 11.7035 25.6479 11.7035C25.5023 12.2859 25.3276 12.8392 25.182 13.4216C25.182 13.4507 25.0947 13.4798 25.0655 13.5089C24.9782 13.276 24.8035 13.0139 24.8326 12.8101C25.0073 11.9948 25.2402 11.1794 25.4441 10.364C25.4732 10.2476 25.5023 10.1311 25.5023 10.0146C25.5023 9.98545 25.5605 9.69425 25.3859 9.57777C25.1238 9.34481 24.8326 9.57777 24.687 9.72339C24.4831 9.92721 24.3958 10.2184 24.2793 10.4805C24.2211 10.597 24.2211 10.7135 24.1628 10.8008C24.0754 11.0338 23.9881 10.9755 23.8425 10.8299L23.8134 10.8008C23.3183 10.2475 22.7942 9.69425 22.27 9.17009C22.1535 9.05361 22.1244 9.02451 22.2409 8.90803C22.9106 8.18001 23.6387 7.53937 24.5123 7.10259C24.6578 7.01526 24.8035 6.95701 24.949 6.89877C25.3859 6.72405 25.8518 6.84053 26.1429 7.30641C26.1429 7.30641 26.143 7.33555 26.1721 7.33555C26.1721 7.36465 26.2012 7.36469 26.2012 7.39379C26.2012 7.42289 26.2012 7.42289 26.2303 7.45203C26.3177 7.77233 26.3177 8.29649 26.2594 8.87889Z"
            fill="white" />
        <path
            d="M9.34081 8.79157C8.70017 9.22834 8.14687 9.81074 7.65185 10.3931C7.50623 10.5388 7.47713 10.5679 7.41889 10.4223C7.41889 10.3931 7.38975 10.3931 7.38975 10.364C7.33151 10.1602 7.24417 9.95637 7.18593 9.7525C7.09855 9.4613 6.89473 9.34482 6.57439 9.37397C6.25409 9.40306 6.13761 9.51954 6.16676 9.81074C6.225 10.2184 6.34148 10.6261 6.42881 11.0338C6.51615 11.4415 6.60353 11.8491 6.66177 12.2568C6.69087 12.3442 6.69087 12.4607 6.63263 12.548C6.60353 12.6354 6.51615 12.7227 6.45791 12.8101C6.39967 12.7227 6.28324 12.6354 6.28324 12.548C6.10852 11.7618 5.9338 11.0047 5.75908 10.1893C5.72993 10.0437 5.70084 9.89813 5.67169 9.7525C5.67169 9.69426 5.6426 9.66517 5.6426 9.60693C5.40964 8.12178 5.58436 7.51029 5.67169 7.36471C5.70084 7.33557 5.70084 7.30647 5.70084 7.30647C5.9338 6.89879 6.225 6.75317 6.72001 6.84055C6.80735 6.84055 6.89473 6.86965 7.01121 6.89879C7.71009 7.07351 8.26335 7.51029 8.81665 7.97621C8.99137 8.12183 9.19519 8.26741 9.34081 8.44213C9.48639 8.52946 9.51553 8.67509 9.34081 8.79157Z"
            fill="white" />
        <path
            d="M18.6301 23.2059C18.5718 23.1768 18.4845 23.3224 18.3971 23.3515C18.2515 23.4389 18.135 23.5263 17.9894 23.5845C17.0867 23.9339 16.3878 23.5263 15.8346 22.9147C15.5725 22.5944 15.4851 22.74 15.3104 22.9147C14.728 23.5263 14.0291 23.7883 13.2138 23.6718C12.9226 23.6427 12.6605 23.5845 12.4858 23.3224C12.4275 23.2641 12.3402 23.1768 12.282 23.2059C12.1946 23.235 12.1072 23.3224 12.1072 23.4098C12.0781 23.5845 12.1072 23.701 12.311 23.8174C12.6896 23.9922 13.0682 24.1669 13.5341 24.1086C13.7379 24.0795 13.8253 24.1377 13.8544 24.3707C13.9127 24.6911 14.0291 25.0404 14.1456 25.3608C14.3786 26.0014 14.9318 26.4382 15.456 26.4382C16.0675 26.4673 16.4752 26.2926 16.7373 25.8849C17.0285 25.4481 17.2032 24.9531 17.2614 24.4289C17.2905 24.196 17.3779 24.1377 17.6109 24.1086C18.0186 24.0213 18.3971 23.8757 18.7757 23.7592C18.863 23.7301 18.9795 23.5553 18.9795 23.4971C18.863 23.3806 18.7465 23.2641 18.6301 23.2059ZM16.3005 25.7976C16.3005 25.8267 16.2714 25.8267 16.2714 25.8558C16.2714 25.8849 16.2423 25.8849 16.2423 25.8849C16.2131 25.914 16.2131 25.914 16.184 25.9432C16.1549 25.9723 16.1549 25.9723 16.1258 25.9723C15.9802 26.0597 15.7763 26.1179 15.5434 26.1179C15.0192 26.1179 14.5242 25.7393 14.5242 25.3608C14.5242 25.3316 14.5242 25.3025 14.5533 25.2443C14.5824 25.1861 14.6698 25.0987 14.7571 25.0113C14.7863 24.9822 14.8445 24.924 14.8736 24.8949C15.0775 24.7201 15.3395 24.6037 15.4852 24.6037C15.8346 24.6037 16.3878 25.1278 16.3878 25.419C16.3878 25.5646 16.3587 25.7102 16.3005 25.7976Z"
            fill="black" />
        <path
            d="M12.9516 19.7697C12.9225 20.0027 12.7769 20.0609 12.6022 19.9445C12.2527 19.7406 11.9616 19.4785 11.8159 19.0417C11.6995 18.6923 11.4665 18.372 11.2335 18.1099C11.0297 17.8478 10.7968 17.8769 10.622 18.139C10.3891 18.5176 10.1852 18.9544 10.0105 19.3621C9.89402 19.6241 10.0105 19.6824 10.3308 19.6241C10.4764 19.595 10.622 19.5659 10.7676 19.595C10.8841 19.595 11.088 19.6241 11.088 19.7406C11.088 19.8571 10.8841 19.828 10.7676 19.8571C10.4764 19.9153 10.1561 19.9736 9.86492 20.0609C9.66106 20.1192 9.48634 20.2357 9.28252 20.323C9.1369 20.4104 9.04956 20.3812 9.04956 20.2065C9.04956 19.0126 9.22428 17.9061 10.0979 16.9742C10.3599 16.7121 10.6511 16.6539 10.9715 16.6248C11.4374 16.5957 12.078 17.0325 12.3692 17.7896C12.5731 18.3137 12.7186 18.867 12.8934 19.4203C12.9516 19.5368 12.9516 19.6533 12.9516 19.7697Z"
            fill="black" />
        <path
            d="M21.746 20.1193C21.6877 20.2067 21.4839 20.3232 21.4257 20.294C20.9597 20.0028 20.4647 19.8863 19.9405 19.8572C19.8532 19.8572 19.7658 19.799 19.6785 19.7699C19.6493 19.7408 19.5911 19.7408 19.562 19.7116C19.6202 19.6825 19.6493 19.6534 19.7076 19.6534C19.9988 19.6243 20.29 19.566 20.5521 19.6243C20.8433 19.6825 20.9306 19.5951 20.8433 19.3913C20.6685 18.9545 20.4938 18.5468 20.29 18.1391C20.1444 17.9062 19.8823 17.8479 19.7076 18.0809C19.4746 18.4012 19.2125 18.7507 19.0669 19.1292C18.8922 19.566 18.5428 19.799 18.1642 19.9737C18.1351 20.0028 17.9895 19.8863 17.9895 19.8572C18.0768 18.9254 18.3389 17.9936 18.9213 17.2655C19.6785 16.3337 20.6103 16.5667 21.1636 17.4985C21.5712 18.1974 21.746 18.9836 21.7751 19.7408C21.746 19.8863 21.8042 20.032 21.746 20.1193Z"
            fill="black" />
        <path
            d="M16.6498 21.1093C16.6498 21.2258 16.4169 21.4005 16.2713 21.4587C16.0674 21.517 15.8345 21.517 15.5724 21.517C15.3686 21.4879 15.1356 21.517 14.9317 21.4587C14.7862 21.4296 14.6114 21.284 14.5823 21.1675C14.5532 21.0511 14.6405 20.8472 14.757 20.7599C15.0774 20.4687 16.0092 20.4104 16.3586 20.6434C16.5042 20.7308 16.6789 20.9637 16.6498 21.1093Z"
            fill="black" />
        <path
            d="M12.2237 15.6348C12.2237 15.693 12.1363 15.8095 12.0781 15.8095C11.9616 15.8095 11.8742 15.7513 11.7577 15.693C11.2336 15.4601 10.7677 15.4018 10.2726 15.7804C10.2144 15.8387 10.0688 15.8095 9.98145 15.8387C10.0106 15.7513 10.0106 15.6348 10.0397 15.5475C10.3309 15.1689 10.6221 14.7904 11.1753 14.8194C11.4957 14.8486 12.1654 15.3728 12.2237 15.6348Z"
            fill="black" />
        <path
            d="M21.28 15.9259C21.1345 15.8968 21.0471 15.8677 21.0179 15.8386C20.6103 15.5474 20.1735 15.4018 19.7076 15.5182C19.5037 15.5765 19.329 15.693 19.1252 15.7512C19.0669 15.7803 19.0087 15.7803 18.9504 15.7803C18.9504 15.7221 18.9213 15.6347 18.9504 15.6056C19.2416 14.8485 20.2317 14.6155 20.785 15.1979C20.9306 15.3435 21.0471 15.5182 21.1927 15.693C21.2218 15.7512 21.2218 15.8094 21.28 15.9259Z"
            fill="black" />
        <path
            d="M27.0748 10.7717C27.3369 9.81081 27.5407 8.84982 27.4825 7.85974C27.4534 7.21915 27.3078 6.60761 26.8418 6.19993C26.6963 6.05435 26.4924 5.96697 26.2886 5.87963C26.2303 5.85049 26.143 5.82139 26.0847 5.82139C26.0556 5.82139 26.0265 5.82139 26.0265 5.79225C25.9682 5.79225 25.9391 5.76315 25.8809 5.76315C25.8518 5.76315 25.8227 5.76315 25.7935 5.76315C25.7644 5.76315 25.7062 5.76315 25.677 5.73401C25.6479 5.73401 25.6188 5.73401 25.5897 5.73401C25.5606 5.73401 25.5023 5.73401 25.4732 5.73401H25.415C25.2985 5.73401 25.2111 5.73401 25.0946 5.76315C25.0655 5.76315 25.0655 5.76315 25.0655 5.76315C24.9491 5.79225 24.8617 5.79225 24.7452 5.82139C24.5705 5.85049 24.3958 5.90873 24.221 5.99611C23.1436 6.43289 22.3865 7.21915 21.6294 8.03446L21.6003 8.06361C21.5711 8.0927 21.542 8.12185 21.542 8.12185L21.5129 8.15094C21.4838 8.18009 21.4838 8.18009 21.4547 8.18009H21.4256C21.3964 8.18009 21.3964 8.20918 21.3673 8.20918H21.3382C21.3091 8.20918 21.3091 8.20918 21.3091 8.20918H21.2799H21.2508H21.2217H21.1926C21.1635 8.20918 21.1635 8.20918 21.1635 8.18009C21.1635 8.18009 21.1344 8.18009 21.1344 8.15094C21.1052 8.15094 21.0761 8.12185 21.047 8.12185C20.4063 7.8015 19.7948 7.42297 19.1542 7.16091C18.1641 6.75323 17.1158 6.57851 16.0384 6.52027C15.6889 6.52027 15.3104 6.52027 14.9609 6.52027C14.6115 6.57851 14.2329 6.60761 13.8835 6.66585C12.7478 6.84057 11.6704 7.21915 10.6803 7.8015C10.6512 7.8015 10.6221 7.83065 10.593 7.83065H10.5638H10.5347H10.5056C10.4765 7.83065 10.4473 7.83065 10.4183 7.83065C10.3891 7.83065 10.3891 7.83065 10.3891 7.83065C10.36 7.83065 10.3309 7.8015 10.3018 7.77241C9.89409 7.45211 9.51551 7.13177 9.10783 6.81147C8.96225 6.69499 8.84577 6.60761 8.70015 6.52027C8.61281 6.46203 8.55457 6.40379 8.46719 6.37465C8.43809 6.37465 8.40895 6.34555 8.40895 6.34555C8.35071 6.31641 8.29247 6.28731 8.23423 6.25817C8.20513 6.22907 8.17599 6.22907 8.14689 6.19993C8.08865 6.17083 8.05951 6.14169 8.00127 6.11259C7.97217 6.08345 7.94303 6.08345 7.91393 6.05435C7.85569 6.02521 7.82655 5.99611 7.76831 5.99611C7.73921 5.96697 7.71007 5.96697 7.65183 5.96697C7.59359 5.93787 7.56449 5.93787 7.50625 5.90873C7.47711 5.90873 7.41887 5.87963 7.38977 5.87963C7.33153 5.85049 7.30239 5.85049 7.24415 5.85049C7.21505 5.85049 7.15681 5.82139 7.12767 5.82139C7.06943 5.82139 7.04033 5.79225 6.98209 5.79225C6.92385 5.79225 6.89476 5.79225 6.86561 5.79225C6.80737 5.79225 6.77828 5.79225 6.74913 5.79225H6.69089C6.63265 5.79225 6.60351 5.79225 6.54527 5.79225C5.23489 5.87963 4.5069 6.66585 4.47778 7.94713C4.47778 8.06361 4.47778 8.18009 4.47778 8.29657C4.47778 8.90806 4.53602 9.51961 4.68162 10.1311C5.00193 11.4706 5.29313 12.781 5.55524 14.1497C5.58433 14.2661 5.61348 14.3535 5.64257 14.47C5.67172 14.5864 5.70081 14.6738 5.72996 14.7903C5.75905 14.9359 5.7882 15.1106 5.75905 15.2853C5.75905 15.3436 5.72996 15.4018 5.72996 15.46C5.61348 15.7804 5.52609 16.1298 5.497 16.4793C5.46785 16.7413 5.43876 16.9743 5.43876 17.2364C5.43876 17.3237 5.43876 17.4402 5.43876 17.5276C5.43876 17.877 5.43876 18.2556 5.43876 18.6341C5.43876 18.8962 5.46785 19.1292 5.46785 19.3912C5.46785 19.4786 5.46785 19.5659 5.43876 19.6533C5.43876 19.6824 5.43876 19.7116 5.40961 19.7407C5.38052 19.828 5.35137 19.9445 5.32228 20.0319C5.29313 20.1192 5.26404 20.2357 5.26404 20.3231C5.2058 20.4395 4.59426 22.3615 5.64257 24.2834C5.64257 24.3125 5.67172 24.3125 5.67172 24.3125C5.7882 24.5746 5.93377 24.8075 6.05025 25.0405C6.45793 25.7102 7.01119 26.3218 7.68097 26.8459C8.29247 27.3409 8.96225 27.7195 9.66113 27.9816C9.69023 27.9816 9.77761 28.0398 9.92319 28.0981C9.95233 28.0981 10.0106 28.1272 10.0397 28.1272C10.1271 28.1563 10.2144 28.1855 10.3309 28.2145C10.3891 28.2437 10.4473 28.2437 10.5056 28.2728C10.5638 28.3019 10.593 28.3019 10.6512 28.331C11.3501 28.564 12.3984 28.826 13.5632 28.9717C13.9417 29.0299 14.3494 29.059 14.7571 29.0882C15.3104 29.1172 15.9219 29.0882 16.5043 29.0299C16.5334 29.0299 16.5626 29.0299 16.6208 29.0299C16.679 29.0299 16.9411 28.9717 16.9993 28.9717C17.1158 28.9717 17.2031 28.9426 17.2905 28.9426C18.6883 28.7679 19.8531 28.4475 20.7849 28.1272C22.4447 27.5739 23.3474 26.9624 23.4057 26.9042C23.6386 26.7295 23.8425 26.5838 24.0463 26.4091C24.221 26.2926 24.3375 26.1179 24.4831 25.9723C24.5122 25.9432 24.5414 25.9141 24.5705 25.885C24.6579 25.7976 24.7161 25.7102 24.8034 25.6229C24.8617 25.5355 24.9491 25.4482 25.0073 25.3899C25.0073 25.3899 25.0073 25.3608 25.0364 25.3608C25.5897 24.6037 25.7062 24.1669 25.7062 24.1669C25.7062 24.1378 25.7353 24.1087 25.7353 24.1087C25.7353 24.1087 25.7644 24.0795 25.7644 24.0504C25.7935 23.9922 25.8227 23.9339 25.8518 23.8465C25.8809 23.7592 25.91 23.701 25.9391 23.6136C25.9682 23.5553 25.9682 23.468 25.9974 23.4098C26.0265 23.3224 26.0265 23.2642 26.0556 23.1768C26.0847 23.1186 26.0847 23.0312 26.1139 22.973C26.143 22.8856 26.143 22.7983 26.143 22.7109C26.143 22.6818 26.143 22.6527 26.1721 22.6236C26.2012 22.5944 26.1721 22.5653 26.2012 22.5362C26.2012 22.4488 26.2303 22.3615 26.2303 22.2741C26.2303 22.2159 26.2303 22.1576 26.2303 22.0994C26.2303 21.9829 26.2303 21.8955 26.2303 21.7791V21.6335C26.2303 21.517 26.2012 21.4005 26.2012 21.284C26.2012 21.2549 26.2012 21.2258 26.2012 21.1676C26.1721 21.0219 26.143 20.8472 26.1139 20.7016C25.9974 20.1483 25.91 19.5659 26.0265 19.0127C26.2012 18.1099 26.0265 17.2655 25.9682 16.3919C25.9391 15.9551 25.8809 15.5765 25.9974 15.1397C26.2594 13.5673 26.6963 12.1986 27.0748 10.7717ZM5.7882 10.1602C5.75905 10.0146 5.72996 9.86905 5.70081 9.72342C5.70081 9.66518 5.67172 9.63609 5.67172 9.57785C5.43876 8.0927 5.61348 7.48121 5.70081 7.33563C5.72996 7.30649 5.72996 7.27739 5.72996 7.27739C5.96292 6.86971 6.25412 6.72409 6.74913 6.81147C6.83647 6.81147 6.92385 6.84057 7.04033 6.86971C7.73921 7.04443 8.29247 7.48121 8.84577 7.94713C9.02049 8.0927 9.22431 8.23833 9.36993 8.41305C9.48641 8.52953 9.51551 8.6751 9.34079 8.82073C8.70015 9.2575 8.14689 9.8399 7.65183 10.4223C7.50625 10.5679 7.47711 10.597 7.41887 10.4514C7.41887 10.4223 7.38977 10.4223 7.38977 10.3932C7.33153 10.1893 7.24415 9.98553 7.18591 9.78166C7.09857 9.49046 6.89476 9.37398 6.57441 9.40313C6.25412 9.43222 6.13764 9.5487 6.16673 9.8399C6.22497 10.2476 6.34145 10.6553 6.42884 11.0629C6.51617 11.4706 6.60351 11.8783 6.66175 12.286C6.69089 12.3734 6.69089 12.4898 6.63265 12.5772C6.60356 12.6646 6.51617 12.7519 6.45793 12.8393C6.39969 12.7519 6.28321 12.6646 6.28321 12.5772C6.10849 11.7327 5.93377 10.9465 5.7882 10.1602ZM24.5414 23.0603C24.3375 24.0213 23.7551 24.8075 23.0562 25.4482C22.4738 25.9723 21.7459 26.3509 21.047 26.7295C20.814 26.8459 20.552 26.9915 20.319 27.0789C19.6201 27.3701 18.9212 27.5739 18.1641 27.7195C17.2031 27.8943 16.2422 27.9816 15.2813 28.1272C13.767 28.069 12.3401 27.7778 10.9715 27.2536C10.1561 26.9333 9.36993 26.5256 8.58367 26.0014C7.33153 25.157 6.48708 24.0504 6.25412 22.5944C6.10849 21.6917 6.0794 20.7016 6.63265 19.8571C6.69089 19.7407 6.69089 19.5659 6.69089 19.4204C6.66175 18.6632 6.54532 17.877 6.63265 17.1199C6.77823 15.9842 7.12767 14.9068 7.76831 13.9167C7.82655 13.8293 7.85569 13.7711 7.91393 13.6837C8.49633 12.8684 9.19521 12.1986 10.0106 11.6162C10.3891 11.3541 10.7677 11.558 11.1462 11.6745C11.4957 11.791 11.816 11.9365 12.0781 12.1695C12.3693 12.4025 12.6605 12.6937 12.8643 13.014C13.272 13.742 13.6214 14.5282 13.9708 15.2853C14.0291 15.4018 14.0582 15.5765 14.1456 15.693C14.3203 15.9551 14.4659 16.2463 14.9027 16.2172C15.456 16.1589 16.0092 16.2463 16.5625 16.1881C16.8828 16.1589 17.0285 15.8386 17.1158 15.5474C17.2032 15.2271 17.2614 14.8776 17.3779 14.5573C17.8729 13.4508 18.5718 12.5189 19.6492 11.9074C19.9113 11.7618 20.1734 11.6453 20.4646 11.558C20.8723 11.4706 21.1926 11.6745 21.4838 11.9074C22.1244 12.4316 22.7068 13.014 23.1727 13.7128C23.231 13.7711 23.2601 13.8585 23.2892 13.9167C23.726 14.6738 24.1046 15.46 24.1919 16.3628C24.2502 17.0034 24.3375 17.6441 24.3667 18.2847C24.3958 18.6632 24.3084 19.0418 24.2793 19.4204C24.2793 19.5951 24.2502 19.7989 24.2793 19.9736C24.3667 20.3522 24.454 20.7599 24.5705 21.1384C24.8908 21.8373 24.687 22.4488 24.5414 23.0603ZM25.6479 11.7036C25.5023 12.286 25.3276 12.8393 25.182 13.4216C25.182 13.4508 25.0946 13.4799 25.0655 13.509C24.9782 13.2761 24.8034 13.014 24.8326 12.8101C25.0073 11.9948 25.2403 11.1794 25.4441 10.3641C25.4732 10.2476 25.5023 10.1311 25.5023 10.0146C25.5023 9.98553 25.5606 9.69433 25.3858 9.57785C25.1238 9.34489 24.8326 9.57785 24.687 9.72342C24.4831 9.92729 24.3958 10.2185 24.2793 10.4805C24.221 10.597 24.221 10.7135 24.1628 10.8009C24.0755 11.0338 23.9881 10.9756 23.8425 10.83L23.8134 10.8009C23.3183 10.2476 22.7942 9.69433 22.27 9.17017C22.1535 9.05369 22.1244 9.02454 22.2409 8.90806C22.9107 8.18009 23.6386 7.53945 24.5122 7.10267C24.6579 7.01529 24.8034 6.95705 24.9491 6.89881C25.3858 6.72409 25.8518 6.84057 26.143 7.30649C26.143 7.30649 26.143 7.33563 26.1721 7.33563C26.1721 7.36473 26.2012 7.36473 26.2012 7.39387C26.2012 7.42297 26.2012 7.42297 26.2303 7.45211C26.3468 7.77241 26.3468 8.29657 26.2594 8.87897C26.0847 10.1602 25.6479 11.7036 25.6479 11.7036Z"
            fill="black" />
    </g>
    <defs>
        <clipPath id="clip0_5848_6584">
            <rect width="32" height="32" fill="white" />
        </clipPath>
    </defs>
</svg>
    