<svg width="32" height="32" viewBox="0 0 32 32" fill="none" xmlns="http://www.w3.org/2000/svg">
<g clip-path="url(#clip0_540_7949)">
<path d="M16.0534 31.9466C24.8605 31.9171 31.9761 24.7537 31.9466 15.9466C31.9171 7.13958 24.7536 0.0239831 15.9466 0.0534959C7.13952 0.0830087 0.0239249 7.24645 0.0534377 16.0535C0.0829505 24.8605 7.2464 31.9761 16.0534 31.9466Z" fill="#1E313F"/>
<path opacity="0.2" d="M25.9726 25.9064C31.4428 20.3966 31.4163 11.5094 25.9064 6.03943C20.3966 0.569472 11.5096 0.595909 6.03943 6.10564L25.9726 25.9064Z" fill="white"/>
<path d="M17.4961 14.5687C17.3373 14.5425 17.1915 14.5027 17.046 14.4763C15.0857 14.0788 13.6685 13.8007 13.6685 12.4365C13.6685 11.5889 14.503 10.9135 15.9996 10.9135C17.3373 10.9135 18.3968 11.4565 19.0856 12.4763L19.1913 12.5027L21.324 10.3174L21.3107 10.2378C20.4631 9.2314 19.3902 8.52932 18.1584 8.15851C17.9862 8.10564 17.8274 8.06587 17.655 8.02609H17.6419C17.5757 8.01276 17.5228 7.99966 17.4566 7.98632V6.05273H14.5428V7.98632C14.4499 7.99966 14.3572 8.02609 14.2646 8.0392H14.2513C12.8738 8.37047 11.6687 9.08565 10.7282 10.185C10.331 10.8471 10.1321 11.6418 10.1321 12.5558C10.1321 15.6814 12.4899 16.6747 14.7943 17.231C15.2182 17.337 15.6421 17.4166 16.0527 17.4828C17.4964 17.7476 18.7412 17.9729 18.7412 19.2708C18.7412 20.0787 17.8538 21.0853 15.9996 21.0853C14.9002 21.0853 13.9995 20.7143 13.3375 20.0389C13.2977 19.9991 13.2448 19.9596 13.205 19.9198L10.64 21.7141L10.6885 21.7608C11.0462 22.1847 11.4434 22.5555 11.8673 22.8734C12.0131 22.9792 12.1586 23.072 12.3043 23.1647H12.3177C12.4632 23.2573 12.6223 23.3369 12.7678 23.4164C12.7678 23.4164 12.7811 23.4164 12.7811 23.4295C12.94 23.5091 13.0857 23.5753 13.2448 23.6415C13.2579 23.6415 13.2579 23.6415 13.2712 23.6548C13.4301 23.721 13.5889 23.7739 13.748 23.827C13.7611 23.827 13.7745 23.827 13.7745 23.8401C13.854 23.8665 13.9202 23.8799 13.9998 23.9063H14.0262C14.1055 23.9327 14.185 23.9461 14.2777 23.9725C14.291 23.9725 14.3044 23.9725 14.3175 23.9858C14.3837 23.9992 14.4632 24.0123 14.5294 24.0256V25.9592H17.4433V24.0256C17.4961 24.0123 17.549 24.0123 17.6021 23.9992H17.6288C17.8274 23.9594 18.026 23.9063 18.2246 23.8401C18.3173 23.8137 18.4233 23.7739 18.5161 23.7475C19.5888 23.35 20.5293 22.6877 21.2973 21.7872C21.5888 21.4428 21.8403 21.0854 22.0656 20.6879C22.1847 20.2642 22.238 19.7874 22.238 19.2839C22.2509 15.9198 19.7081 15.006 17.4961 14.5689V14.5687Z" fill="white"/>
<path d="M10.6653 21.7474C10.5195 21.5752 10.3871 21.403 10.2678 21.2177C10.2149 21.1382 10.162 21.0586 10.1092 20.9924C10.0956 20.9793 10.0825 20.9527 10.0692 20.9395C10.0294 20.8733 9.97652 20.7938 9.93675 20.7143L9.89698 20.6349C9.85721 20.5687 9.81767 20.4892 9.7779 20.423L9.73813 20.3435C9.69835 20.2772 9.65858 20.1979 9.63215 20.1182C9.61881 20.092 9.60571 20.0522 9.59238 20.0257C9.55261 19.9462 9.52617 19.88 9.48663 19.8005C9.47329 19.774 9.45996 19.7476 9.44663 19.7078C9.42019 19.6283 9.38042 19.5487 9.35398 19.4694C9.35398 19.4561 9.34065 19.4296 9.34065 19.4165C9.27444 19.231 9.20823 19.0455 9.15536 18.8602C9.15536 18.8469 9.14203 18.8335 9.14203 18.8073C9.12892 18.7409 9.10225 18.6747 9.08915 18.6085L9.04938 18.4496C9.03605 18.3834 9.02294 18.3303 9.00961 18.2641C8.99651 18.2112 8.98317 18.145 8.96984 18.0919C8.95674 18.0257 8.9434 17.9728 8.93007 17.9064L8.89053 17.7078C8.87719 17.6549 8.87719 17.5887 8.86386 17.5356C8.85076 17.4694 8.83742 17.4032 8.83742 17.3236C8.82432 17.2708 8.82432 17.2179 8.81099 17.1517C8.79765 17.0721 8.79765 17.0059 8.78455 16.9264C8.78455 16.8735 8.77122 16.8206 8.77122 16.7675C8.77122 16.6747 8.75811 16.5951 8.75811 16.5025C8.75811 16.4629 8.75811 16.4232 8.74478 16.3701C8.74478 16.2376 8.73145 16.1052 8.73145 15.9728C8.73145 15.8404 8.73145 15.7211 8.74478 15.5889V15.4694C8.74478 15.3767 8.75811 15.2974 8.75811 15.2045C8.75811 15.165 8.77122 15.1119 8.77122 15.0721C8.78455 14.9928 8.78455 14.8999 8.79765 14.8206C8.79765 14.7808 8.81099 14.7411 8.81099 14.7013C8.82432 14.5956 8.83742 14.5027 8.85076 14.41C8.85076 14.3834 8.85076 14.3572 8.86386 14.3438C8.87719 14.2245 8.90363 14.1052 8.93007 13.9861C8.9434 13.9464 8.9434 13.9066 8.95674 13.8804C8.96984 13.8006 8.99651 13.7213 9.00961 13.6418C9.02294 13.602 9.03605 13.5491 9.03605 13.5093C9.04938 13.4298 9.07582 13.3636 9.08892 13.284C9.10225 13.2445 9.11559 13.1914 9.12892 13.1516C9.15536 13.0723 9.1818 12.9928 9.19513 12.9132C9.20823 12.8735 9.22157 12.847 9.2349 12.8075L9.35398 12.4896C9.36732 12.4498 9.38042 12.4233 9.39375 12.3836C9.42019 12.304 9.44663 12.2378 9.4864 12.1583C9.49973 12.1187 9.52617 12.079 9.53927 12.0259C9.56594 11.9597 9.59238 11.9068 9.63215 11.8406C9.65858 11.8008 9.67192 11.7477 9.69835 11.7082C9.72479 11.6417 9.76456 11.5888 9.791 11.5226C9.81767 11.4829 9.83077 11.4431 9.85721 11.4033L10.0163 11.1252C9.89698 11.5624 9.84387 12.0392 9.84387 12.5424C9.84387 14.2643 10.5726 15.5756 12.0163 16.4629C12.0956 18.0124 12.546 19.2308 13.314 20.0124L10.6653 21.7474Z" fill="white"/>
<path d="M19.0743 12.4763C19.5244 13.1518 19.8159 13.9996 19.9219 15.0194C20.2927 15.1916 20.6106 15.3902 20.9019 15.6152C21.9748 16.4497 22.5178 17.6681 22.5178 19.2178C22.5178 19.4033 22.5045 19.5886 22.4914 19.7741V19.7608C22.5442 19.6417 22.5971 19.5093 22.6371 19.3769C22.6502 19.3371 22.6635 19.3105 22.6766 19.2709C22.7033 19.178 22.7429 19.0854 22.7695 18.9927C22.7826 18.953 22.796 18.8999 22.8091 18.8603C22.8224 18.8075 22.8488 18.741 22.8619 18.6879C22.8886 18.6086 22.9019 18.5424 22.9284 18.4629C22.9417 18.41 22.9548 18.3438 22.9681 18.2907L23.0079 18.092C23.021 18.0523 23.021 17.9994 23.0344 17.9596C23.0477 17.867 23.0741 17.761 23.0872 17.6681C23.0872 17.6286 23.1006 17.5888 23.1006 17.5491L23.1403 17.2311C23.1403 17.2047 23.1403 17.1913 23.1534 17.1649C23.1668 17.0592 23.1801 16.9663 23.1801 16.8603C23.1801 16.8339 23.1801 16.8074 23.1932 16.7808C23.2065 16.6617 23.2065 16.5424 23.2196 16.4233V16.3438C23.2196 16.2247 23.233 16.092 23.233 15.9729C23.233 15.8405 23.233 15.7081 23.2196 15.5624C23.2196 15.5226 23.2196 15.4828 23.2065 15.4299C23.2065 15.3373 23.1932 15.2444 23.1932 15.1651C23.1932 15.1122 23.1801 15.0591 23.1801 15.006C23.1668 14.9267 23.1668 14.8472 23.1534 14.7676C23.1534 14.7148 23.1403 14.6619 23.127 14.5955C23.1139 14.5159 23.1139 14.4497 23.1006 14.3702C23.0872 14.3173 23.0872 14.2511 23.0741 14.1982C23.0608 14.132 23.0477 14.0525 23.0344 13.9862C23.021 13.9334 23.0079 13.8669 22.9946 13.8141L22.9548 13.6154C22.9417 13.5626 22.9284 13.4961 22.915 13.443C22.9019 13.377 22.8755 13.3108 22.8622 13.2446C22.8488 13.1918 22.8357 13.1253 22.8093 13.0722C22.796 13.0062 22.7695 12.9531 22.7562 12.8869C22.7429 12.834 22.7164 12.7678 22.7033 12.7147C22.6766 12.6485 22.6635 12.5957 22.6371 12.5425C22.6104 12.4897 22.5973 12.4235 22.5707 12.3704C22.5442 12.3175 22.5311 12.2513 22.5045 12.1982C22.478 12.1453 22.4516 12.0791 22.4383 12.026L22.3589 11.8671C22.3323 11.8143 22.3061 11.7612 22.2794 11.6947L22.1999 11.5361C22.1734 11.4832 22.147 11.4301 22.1072 11.377C22.0808 11.3241 22.0543 11.2713 22.0146 11.2313C21.9879 11.1784 21.9484 11.1255 21.9217 11.0726C21.8953 11.0195 21.8555 10.9798 21.829 10.9267C21.7364 10.7811 21.6304 10.6354 21.5244 10.4899C21.4449 10.3837 21.3656 10.291 21.2861 10.1984L19.0743 12.4766V12.4763Z" fill="white"/>
</g>
<defs>
<clipPath id="clip0_540_7949">
<rect width="32" height="32" fill="white"/>
</clipPath>
</defs>
</svg>
