<svg width="32" height="32" viewBox="0 0 32 32" fill="none" xmlns="http://www.w3.org/2000/svg">
<g clip-path="url(#clip0_4767_68278)">
<path d="M8.55529 5.29426C8.04489 6.15346 6.93449 6.43666 6.07529 5.92626C5.21609 5.41586 4.93289 4.30546 5.44329 3.44626C5.95369 2.58706 7.06409 2.30386 7.92329 2.81426C8.78249 3.32466 9.06569 4.43506 8.55529 5.29426Z" fill="#5F45BA"/>
<path d="M2.37769 4.49097C2.01769 5.09737 1.23209 5.29738 0.625687 4.93738C0.0192869 4.57738 -0.180713 3.79338 0.179287 3.18537C0.539287 2.57737 1.32489 2.37897 1.93129 2.73897C2.53929 3.10057 2.73929 3.88457 2.37769 4.49097Z" fill="#5F45BA"/>
<path d="M19.5745 30.6829C26.2049 29.9037 31.5377 24.4829 31.9729 17.5837C32.4625 9.82047 26.5649 3.13087 18.8017 2.64287C17.8913 2.58527 16.9777 2.61727 16.0737 2.73567C14.2081 2.88767 12.6321 3.59967 12.6321 3.59967C11.3553 4.22367 10.5313 5.26687 10.5313 6.66207C10.5313 8.47647 12.0017 9.94847 13.8161 9.94847C14.1201 9.94847 15.1697 9.61567 15.4193 9.52927C16.3729 9.19647 17.3841 9.05887 18.3921 9.12447C21.0737 9.29407 23.3409 10.8365 24.5553 13.0237C25.2593 14.2909 25.5841 15.7325 25.4913 17.1789C25.2273 21.3629 21.6225 24.5421 17.4369 24.2781C14.9649 24.1213 12.8449 22.7981 11.5761 20.8797V20.8813V20.8797C10.0593 18.8957 10.4097 15.7229 10.4081 15.6829C10.3457 13.9181 8.90093 12.5069 7.12173 12.5069C5.60173 12.5069 4.32653 13.5389 3.94733 14.9389C3.87373 15.2141 3.83533 16.0205 3.84653 16.1277C3.53293 23.7565 9.37134 30.2733 17.0289 30.7549C17.8785 30.8077 18.7297 30.7837 19.5745 30.6829Z" fill="#5F45BA"/>
<path d="M6.67051 10.3182C6.00811 11.4334 4.56811 11.7998 3.45451 11.1374C2.34091 10.475 1.97291 9.03503 2.63531 7.92143C3.29771 6.80783 4.73771 6.43983 5.85131 7.10223C6.96491 7.76463 7.33131 9.20463 6.67051 10.3182Z" fill="#5F45BA"/>
</g>
<defs>
<clipPath id="clip0_4767_68278">
<rect width="32" height="32" fill="white"/>
</clipPath>
</defs>
</svg>
