<svg width="32" height="32" viewBox="0 0 32 32" fill="none" xmlns="http://www.w3.org/2000/svg">
<g clip-path="url(#clip0_171_16362)">
<path d="M8.55529 5.29402C8.04489 6.15322 6.93449 6.43642 6.07529 5.92602C5.21609 5.41562 4.93289 4.30522 5.44329 3.44602C5.95369 2.58682 7.06409 2.30362 7.92329 2.81402C8.78249 3.32442 9.06569 4.43482 8.55529 5.29402Z" fill="#5F45BA"/>
<path d="M2.37769 4.49097C2.01769 5.09737 1.23209 5.29738 0.625687 4.93738C0.0192869 4.57738 -0.180713 3.79337 0.179287 3.18537C0.539287 2.57737 1.32489 2.37897 1.93129 2.73897C2.53929 3.10057 2.73929 3.88457 2.37769 4.49097Z" fill="#5F45BA"/>
<path d="M19.5745 30.6831C26.2049 29.9039 31.5377 24.4831 31.9729 17.5839C32.4625 9.82071 26.5649 3.13111 18.8017 2.64311C17.8913 2.58551 16.9777 2.61751 16.0737 2.73591C14.2081 2.88791 12.6321 3.59991 12.6321 3.59991C11.3553 4.22391 10.5313 5.26711 10.5313 6.66231C10.5313 8.47671 12.0017 9.94871 13.8161 9.94871C14.1201 9.94871 15.1697 9.61591 15.4193 9.52951C16.3729 9.19671 17.3841 9.05911 18.3921 9.12471C21.0737 9.29431 23.3409 10.8367 24.5553 13.0239C25.2593 14.2911 25.5841 15.7327 25.4913 17.1791C25.2273 21.3631 21.6225 24.5423 17.4369 24.2783C14.9649 24.1215 12.8449 22.7983 11.5761 20.8799V20.8815V20.8799C10.0593 18.8959 10.4097 15.7231 10.4081 15.6831C10.3457 13.9183 8.90087 12.5071 7.12167 12.5071C5.60167 12.5071 4.32647 13.5391 3.94727 14.9391C3.87367 15.2143 3.83527 16.0207 3.84647 16.1279C3.53287 23.7567 9.37127 30.2735 17.0289 30.7551C17.8785 30.8079 18.7297 30.7839 19.5745 30.6831Z" fill="#5F45BA"/>
<path d="M6.67051 10.318C6.00811 11.4332 4.56811 11.7996 3.45451 11.1372C2.34091 10.4748 1.97291 9.03478 2.63531 7.92118C3.29771 6.80758 4.73771 6.43958 5.85131 7.10198C6.96491 7.76438 7.33131 9.20438 6.67051 10.318Z" fill="#5F45BA"/>
</g>
<defs>
<clipPath id="clip0_171_16362">
<rect width="32" height="32" fill="white"/>
</clipPath>
</defs>
</svg>
