<svg width="32" height="32" viewBox="0 0 32 32" fill="none" xmlns="http://www.w3.org/2000/svg">
<g clip-path="url(#clip0_4767_67288)">
<path d="M7.27271 27.4384C8.22172 28.5195 9.37596 29.4015 10.6685 30.033C11.961 30.6646 13.366 31.0332 14.8021 31.1176C16.5179 31.0265 18.1366 30.2934 19.3369 29.0641C21.7044 27.0363 24.1901 25.1506 26.7807 23.417L28.2353 22.8181C28.8342 22.5614 29.8609 21.9625 30.8021 20.8502C31.8289 19.4812 32 18.0266 32 17.5133C31.8862 15.8942 31.3557 14.332 30.4599 12.9785C28.1223 17.1438 24.7721 20.6524 20.7193 23.1798C16.6664 25.7072 12.0416 27.1719 7.27271 27.4384Z" fill="#0293D6"/>
<path d="M10.5242 3.13921C11.1629 2.46455 11.9323 1.92698 12.7854 1.55923C13.6386 1.19149 14.5577 1.00128 15.4867 1.00017C16.0754 0.960762 16.6659 1.03881 17.2241 1.22976C17.7823 1.42072 18.2969 1.72078 18.7381 2.11247C21.1923 3.85119 24.1157 4.80575 27.1231 4.85044C27.8932 4.936 29.4333 5.19269 30.46 6.47611C31.2301 7.50285 31.3156 8.61515 31.3156 9.12852C31.2467 10.4506 30.9575 11.7519 30.46 12.9788L10.5242 3.13921Z" fill="#EBE638"/>
<path d="M7.27273 27.4385C6.50267 27.3529 5.47594 27.0963 4.27807 26.5829C3.08021 26.0695 1.62567 25.4706 0.684492 23.8449C0.0855615 22.8182 0 21.7914 0 21.107C0.0208892 19.2917 0.460074 17.5057 1.28342 15.8877C2.10258 13.8879 2.64936 11.7871 2.90909 9.64172L3.3369 7.93049C3.59358 7.07487 3.76471 6.21926 4.36364 5.36364L5.30481 4.3369C6.85932 3.35955 8.69895 2.93734 10.5241 3.13904C8.08021 6.635 6.50966 10.6657 5.94397 14.8935C5.37828 19.1212 5.83392 23.423 7.27273 27.4385Z" fill="#BAD147"/>
<path d="M10.524 3.13916C10.4384 3.13916 15.1443 3.39584 18.0534 4.42258L20.4491 5.44932C19.508 5.36376 13.5187 5.10707 8.98389 9.64183C3.25127 15.46 5.13363 23.4172 5.21919 23.845C3.89071 22.1736 3.22101 20.0732 3.33683 17.9413C3.44947 15.1118 4.14611 12.3362 5.38296 9.78886C6.61981 7.24153 8.37016 4.97754 10.524 3.13916Z" fill="#78B650"/>
<path d="M21.9893 24.2727C23.608 21.3302 24.3251 17.9765 24.0513 14.6293C23.7774 11.2821 22.5247 8.08948 20.4492 5.44922C22.9276 5.86358 25.2072 7.06338 26.9519 8.87168C27.9786 9.72729 29.2621 11.0107 30.4599 12.9786C28.7681 17.4724 25.8297 21.3904 21.9893 24.2727Z" fill="#2F8260"/>
<path d="M24.7272 9.21389C23.3582 6.90373 21.3903 5.87699 20.5346 5.44919C19.8502 5.27806 13.433 4.25133 8.55604 8.95721C4.62021 12.7219 4.36353 17.5989 4.36353 18.5401C4.38164 21.7646 5.46448 24.8928 7.44374 27.4385C9.98722 27.9282 12.6008 27.9282 15.1443 27.4385C16.4277 27.1818 19.4223 26.6684 21.9892 24.4438C22.3314 24.1016 26.0961 20.5936 26.3528 15.0321C26.3528 14.0909 26.3528 11.6952 24.7272 9.21389ZM21.6469 21.6203C20.8524 22.4846 19.8869 23.1743 18.8117 23.6456C17.7364 24.117 16.575 24.3597 15.401 24.3583C14.8876 24.3583 11.4651 24.2727 9.06941 21.4492C8.72716 21.0214 7.01593 18.9679 7.10149 15.8877C7.27262 11.7807 10.524 9.38502 11.2084 8.87165C11.8074 8.44384 13.2619 7.50266 15.401 7.4171C15.9143 7.33154 17.7111 7.24598 19.5079 8.27272C23.4437 10.4118 23.6149 15.5454 23.6149 15.8877C23.6149 16.8289 23.6149 19.3957 21.6469 21.6203Z" fill="#085229"/>
</g>
<defs>
<clipPath id="clip0_4767_67288">
<rect width="32" height="32" fill="white"/>
</clipPath>
</defs>
</svg>
