<svg width="32" height="32" viewBox="0 0 32 32" fill="none" xmlns="http://www.w3.org/2000/svg">
<g clip-path="url(#clip0_4767_67400)">
<path d="M8.89136 4.93012C9.50042 4.2366 10.0606 3.64977 10.5941 3.15185C1.58711 2.86288 4.21006 9.3758 1.25813 15.9865C-2.12058 23.6064 1.65824 26.5095 7.28647 27.4164C6.5005 26.4798 5.85915 25.4308 5.38372 24.3044C1.7516 19.712 3.22312 11.3408 8.89136 4.93012Z" fill="#EFE812"/>
<path d="M30.564 13.0479C29.5004 15.8305 27.9615 18.4073 26.0161 20.6633C24.4564 22.5587 22.5882 24.1774 20.4901 25.4513C18.0534 26.9954 15.2213 27.7999 12.3367 27.7675C10.6526 27.7826 8.96989 27.6652 7.3042 27.4163C8.22901 28.521 9.37556 29.4192 10.6696 30.0526C18.8141 33.9914 19.3253 26.6783 27.941 22.9662C32.7779 20.8811 32.7957 16.8089 30.5595 13.0479" fill="#EDE70A"/>
<path d="M20.49 5.44568C21.6691 5.65206 22.8052 6.05479 23.851 6.63712C26.5906 8.17751 28.899 10.382 30.5639 13.0478C32.031 8.91331 31.3464 5.66797 28.141 5.08114C24.6112 4.43651 21.8548 4.22756 19.2052 2.37816C15.9421 0.110866 13.0791 0.848849 10.5984 3.15616L11.1363 3.17838C14.5773 3.38289 17.8671 4.06752 20.4722 5.43679" fill="#EDE70A"/>
<path d="M8.89124 4.93002C3.223 11.3407 1.75148 19.7119 5.40138 24.3043C4.55705 22.3108 4.18858 20.1481 4.32516 17.9874C4.46174 15.8268 5.09963 13.7277 6.18827 11.8564C9.26023 6.73497 15.4264 4.51213 20.49 5.44572C17.8671 4.05867 14.5773 3.39182 11.1541 3.18732L10.6162 3.16064C10.0649 3.66745 9.50475 4.2365 8.89124 4.93002Z" fill="#DEC21C"/>
<path d="M23.8512 6.62835C22.8048 6.04912 21.6688 5.6494 20.4902 5.4458C23.9401 7.25964 26.2296 10.336 26.2296 15.1996C26.2096 17.2527 25.6735 19.2677 24.6705 21.0592C23.6675 22.8507 22.23 24.3611 20.4902 25.4514C22.5894 24.1789 24.4578 22.56 26.0162 20.6634C27.9617 18.4073 29.5005 15.8306 30.5641 13.0479C28.9004 10.3788 26.5919 8.17123 23.8512 6.62835Z" fill="#E5CB22"/>
<path d="M20.4902 5.44581C15.4265 4.51222 9.26038 6.73505 6.18842 11.8342C5.09522 13.708 4.45479 15.8111 4.31818 17.9761C4.18156 20.1411 4.55254 22.3081 5.40153 24.3044C5.87527 25.4317 6.51677 26.4809 7.30428 27.4164C8.96997 27.6653 10.6527 27.7827 12.3368 27.7676C15.2214 27.8 18.0534 26.9954 20.4902 25.4514C22.2302 24.3614 23.668 22.8511 24.671 21.0595C25.674 19.268 26.21 17.2528 26.2295 15.1996C26.2295 10.3361 23.94 7.25964 20.4902 5.44581ZM19.9211 23.1396C18.0484 24.3425 15.7755 24.755 13.5995 24.2868C11.4234 23.8186 9.52132 22.5078 8.30901 20.6411C5.79275 16.7601 7.03754 11.7498 10.8119 9.08237C15.0353 6.08154 20.4502 7.26409 22.424 11.5808C24.349 15.7865 23.82 20.6456 19.9211 23.1396Z" fill="#CCA727"/>
</g>
<defs>
<clipPath id="clip0_4767_67400">
<rect width="32" height="32" fill="white"/>
</clipPath>
</defs>
</svg>
