<svg width="32" height="32" viewBox="0 0 32 32" fill="none" xmlns="http://www.w3.org/2000/svg">
<g clip-path="url(#clip0_5495_684)">
<path d="M15.9677 31.9352C24.7864 31.9352 31.9353 24.7863 31.9353 15.9676C31.9353 7.14894 24.7864 0 15.9677 0C7.14906 0 0.00012207 7.14894 0.00012207 15.9676C0.00012207 24.7863 7.14906 31.9352 15.9677 31.9352Z" fill="#DEDEDE"/>
<mask id="mask0_5495_684" style="mask-type:alpha" maskUnits="userSpaceOnUse" x="0" y="0" width="32" height="32">
<path d="M15.9677 31.9352C24.7864 31.9352 31.9353 24.7863 31.9353 15.9676C31.9353 7.14894 24.7864 0 15.9677 0C7.14906 0 0.00012207 7.14894 0.00012207 15.9676C0.00012207 24.7863 7.14906 31.9352 15.9677 31.9352Z" fill="#DEDEDE"/>
</mask>
<g mask="url(#mask0_5495_684)">
<path d="M8.78434 39.9176C13.6358 39.9176 17.5687 35.9847 17.5687 31.1332C17.5687 26.2818 13.6358 22.3489 8.78434 22.3489C3.93288 22.3489 0 26.2818 0 31.1332C0 35.9847 3.93288 39.9176 8.78434 39.9176Z" fill="#152E51"/>
<mask id="mask1_5495_684" style="mask-type:alpha" maskUnits="userSpaceOnUse" x="7" y="0" width="3" height="25">
<path fill-rule="evenodd" clip-rule="evenodd" d="M7.81812 24.4475V0.905396H9.77632V24.4475H7.81812Z" fill="#152E51"/>
</mask>
<g mask="url(#mask1_5495_684)">
<path d="M31.9354 15.9676C31.9354 24.7862 24.7865 31.9351 15.9678 31.9351C7.14914 31.9351 0.000244141 24.7862 0.000244141 15.9676C0.000244141 7.1489 7.14914 0 15.9678 0C24.7865 0 31.9354 7.1489 31.9354 15.9676Z" fill="#152E51"/>
</g>
</g>
</g>
<defs>
<clipPath id="clip0_5495_684">
<rect width="32" height="32" fill="white"/>
</clipPath>
</defs>
</svg>
