<svg width="32" height="32" viewBox="0 0 32 32" fill="none" xmlns="http://www.w3.org/2000/svg">
<g clip-path="url(#clip0_5495_797)">
<path d="M16 32C24.8366 32 32 24.8366 32 16C32 7.16344 24.8366 0 16 0C7.16344 0 0 7.16344 0 16C0 24.8366 7.16344 32 16 32Z" fill="#3CEAAA"/>
<path fill-rule="evenodd" clip-rule="evenodd" d="M12.0534 8.48001C13.0134 7.52001 14.5601 7.52001 15.5201 8.48001L18.1334 11.04L18.5601 10.6133C19.5201 9.65334 21.0667 9.65334 22.0267 10.6133L24.5867 13.12C25.6001 14.08 25.6001 15.68 24.5867 16.6933L17.6534 23.52C16.6934 24.48 15.1467 24.48 14.1867 23.52L7.25341 16.6933C6.24007 15.7333 6.24007 14.1333 7.25341 13.12L12.0534 8.48001ZM16.4267 12.8L13.8667 10.2933L9.06674 14.9333L11.6267 17.44L16.4267 12.8ZM13.4401 19.2L16.0001 21.7067L18.5601 19.2L16.0001 16.6933L13.4401 19.2ZM17.7601 14.9333L20.3201 17.44L22.9334 14.9333L20.3734 12.4267L17.7601 14.9333Z" fill="black" fill-opacity="0.6"/>
</g>
<defs>
<clipPath id="clip0_5495_797">
<rect width="32" height="32" fill="white"/>
</clipPath>
</defs>
</svg>
