<svg width="32" height="32" viewBox="0 0 32 32" fill="none" xmlns="http://www.w3.org/2000/svg">
<g clip-path="url(#clip0_5495_709)">
<path fill-rule="evenodd" clip-rule="evenodd" d="M20.8224 5.43846C20.6194 5.23542 20.3783 5.0745 20.1129 4.96495C19.8475 4.85539 19.5631 4.79935 19.276 4.80006H19.2704C18.9827 4.79999 18.6979 4.85718 18.4326 4.9683C18.1672 5.07941 17.9266 5.24223 17.7248 5.44726L0.63842 22.6153C0.434921 22.8184 0.273721 23.0599 0.164142 23.3257C0.0545624 23.5916 -0.00122019 23.8765 2.02416e-05 24.1641C0.00162024 24.7489 0.23122 25.2985 0.64562 25.7113C0.848148 25.9143 1.08884 26.0752 1.35383 26.1847C1.61882 26.2943 1.90287 26.3503 2.18962 26.3497C2.77602 26.3497 3.32882 26.1201 3.74322 25.7049L20.8288 8.53606C21.2377 8.12392 21.4667 7.56652 21.4655 6.98593C21.4643 6.40535 21.233 5.8489 20.8224 5.43846Z" fill="#2DB8E3"/>
<path fill-rule="evenodd" clip-rule="evenodd" d="M30.7425 5.00877C30.342 4.84149 29.9007 4.79774 29.4752 4.88312C29.0497 4.96851 28.6594 5.17914 28.3545 5.48797L11.2665 22.6576C10.8572 23.0696 10.6281 23.6272 10.6296 24.208C10.6311 24.7888 10.8631 25.3452 11.2745 25.7552C11.6868 26.1644 12.2446 26.3933 12.8255 26.3917C13.4064 26.39 13.9629 26.1579 14.3729 25.7464L27.7153 12.34V24.2016C27.7157 24.7824 27.9466 25.3393 28.3573 25.7499C28.768 26.1606 29.3249 26.3915 29.9057 26.392C30.4865 26.3915 31.0434 26.1606 31.4541 25.7499C31.8648 25.3393 32.0957 24.7824 32.0961 24.2016V7.03357C32.0974 6.59973 31.9693 6.17536 31.7282 5.81469C31.487 5.45402 31.1439 5.17342 30.7425 5.00877Z" fill="#3840C7"/>
</g>
<defs>
<clipPath id="clip0_5495_709">
<rect width="32" height="32" fill="white"/>
</clipPath>
</defs>
</svg>
