<svg width="32" height="32" viewBox="0 0 32 32" fill="none" xmlns="http://www.w3.org/2000/svg">
<g clip-path="url(#clip0_4767_68021)">
<path d="M31.6749 15.3261C30.7813 14.4646 29.9364 13.5557 29.0429 12.6941C28.7804 12.4918 28.6883 12.1372 28.8201 11.8326C29.1875 10.5883 29.5063 9.34395 29.8571 8.09964C29.9531 7.79625 29.9044 7.66951 29.5703 7.58886C28.294 7.2701 27.0343 6.88734 25.7414 6.5673C25.374 6.48793 25.2306 6.29591 25.1512 5.96051C24.8324 4.7162 24.4817 3.50389 24.1783 2.25958C24.0823 1.89218 23.9709 1.81281 23.6035 1.92418C22.3592 2.27494 21.0995 2.5937 19.8552 2.91374C19.6478 2.97775 19.4558 3.02511 19.2651 2.83437C18.2435 1.78336 17.1746 0.778444 16.1863 -0.322488C16.0736 -0.319928 15.961 -0.330169 15.8509 -0.354492C15.8573 -0.270002 15.8138 -0.188072 15.7395 -0.147107C14.782 0.793806 13.8257 1.73472 12.8835 2.69227C12.703 2.91374 12.3983 2.99183 12.1333 2.8843C10.889 2.53353 9.64471 2.21478 8.4004 1.86273C8.04963 1.76672 7.90626 1.83073 7.81025 2.19813C7.49149 3.44244 7.12408 4.68675 6.80533 5.93106C6.77204 6.19221 6.57106 6.40088 6.31119 6.44184C5.05151 6.7606 3.82257 7.11136 2.5629 7.41476C2.14813 7.51077 2.03675 7.65415 2.16349 8.08428C2.53089 9.31323 2.81765 10.5729 3.16841 11.8172C3.28106 12.0822 3.20297 12.3882 2.97639 12.5674C2.03547 13.4763 1.12528 14.4185 0.18437 15.3274C-0.0703802 15.5668 -0.0550183 15.7102 0.18437 15.9495C1.10992 16.8585 2.00347 17.784 2.92774 18.6929C3.15561 18.8619 3.24138 19.164 3.13512 19.4264C2.78436 20.6554 2.48097 21.8831 2.11356 23.112C1.98555 23.5421 2.04955 23.7188 2.51297 23.8302C3.75728 24.1336 4.96958 24.4997 6.21389 24.8031C6.5813 24.8825 6.72468 25.0745 6.80405 25.4099C7.1228 26.6696 7.47357 27.8985 7.7936 29.1582C7.87297 29.4769 7.98563 29.5576 8.30439 29.4616C9.53333 29.1108 10.7764 28.8241 12.0053 28.472C12.3317 28.3491 12.7004 28.4528 12.9142 28.7268C13.7911 29.6357 14.6847 30.5139 15.5629 31.4228C15.8342 31.7095 15.993 31.7262 16.281 31.4381C17.1579 30.5126 18.0835 29.6357 18.977 28.7101C19.178 28.4451 19.5301 28.3478 19.8386 28.4707C21.0675 28.8381 22.2952 29.1402 23.5241 29.4923C23.8749 29.5883 24.0183 29.5243 24.1143 29.1569C24.4177 27.9279 24.8004 26.7003 25.1038 25.4713C25.1832 25.1039 25.3586 24.9605 25.7106 24.8812C26.9549 24.5778 28.1673 24.227 29.4116 23.9236C29.779 23.8443 29.8903 23.7009 29.779 23.3168C29.4282 22.0725 29.1094 20.7962 28.7574 19.5365C28.6447 19.2715 28.7228 18.9656 28.9494 18.7864C29.8583 17.9095 30.7519 16.9839 31.6774 16.107C32.0103 15.7895 31.9783 15.6295 31.6749 15.3261ZM8.01763 14.6092C8.01763 14.6105 8.01763 14.6118 8.01763 14.6131C8.01251 15.1546 7.56958 15.5885 7.02807 15.5834H6.03851C5.62374 15.5834 5.20897 15.5834 4.77884 15.5988C4.5561 15.5988 4.49209 15.5194 4.53945 15.2954C4.65083 14.8333 4.7622 14.4658 5.36899 14.3698C6.15117 14.2585 6.90006 13.9871 7.66559 13.763C7.93698 13.699 8.04836 13.731 8.01635 14.0178C8.00227 14.2098 8.01763 14.4172 8.01763 14.6092ZM7.97026 23.313C7.31227 22.6934 6.7234 22.1212 6.11916 21.5489C6.62994 21.2622 7.12408 20.9908 7.60286 20.704C7.87425 20.544 7.97026 20.576 7.97026 20.9114C7.9549 21.6898 7.97026 22.486 7.97026 23.313ZM6.19981 21.2135C6.00779 21.3249 5.96042 21.2775 5.91306 21.0855C5.76968 20.5107 5.5943 19.9372 5.45092 19.3624C5.41892 19.2344 5.40356 19.0757 5.53029 18.995C5.65831 18.9157 5.75304 19.027 5.84905 19.0744C6.50321 19.4418 7.15737 19.8246 7.90754 20.2393C7.30075 20.5747 6.74132 20.8781 6.19981 21.2135ZM4.98751 12.6621C4.82749 13.0615 4.26934 13.1242 3.90322 13.3803C3.53581 12.4394 3.53581 12.4394 4.17461 11.7852C4.62138 11.3384 5.06816 10.9083 5.51493 10.4615C5.5559 10.4359 5.59814 10.4154 5.64295 10.3975C5.41764 11.1951 5.27426 11.9606 4.98751 12.6621ZM5.94378 10.2221C5.97579 10.0788 6.08716 10.1108 6.16653 10.1581C6.70931 10.4769 7.23546 10.7956 7.84097 11.1477C6.97943 11.6418 6.19725 12.0886 5.30499 12.5674C5.52901 11.7212 5.7364 10.971 5.94378 10.2221ZM4.26934 14.4172C4.09396 14.4172 4.09396 14.2418 4.06196 14.1304C3.88657 13.6043 3.91858 13.5723 4.87613 13.1729C4.78652 13.5403 4.70075 13.8424 4.62778 14.1304C4.60346 14.3058 4.446 14.4326 4.26934 14.4172ZM3.31179 14.6886C2.70499 14.8486 2.09948 14.992 1.49269 15.1354L1.44532 15.0714L3.64719 13.7797C4.01459 14.4658 3.99795 14.5132 3.31179 14.6886ZM3.7752 14.8166C4.18997 14.7206 4.06196 15.152 4.14261 15.3274C4.22198 15.5028 4.1106 15.5821 3.91986 15.5821H1.31859C1.31859 15.5501 1.30322 15.5028 1.30322 15.4708C2.11612 15.2634 2.92902 15.024 3.7752 14.8166ZM4.39992 16.3259C4.55866 16.9289 4.71739 17.5318 4.8979 18.1821C3.68815 17.5933 3.84433 17.9248 4.39992 16.3259ZM3.98899 18.0388C4.3884 18.0234 5.10528 18.6929 5.10528 19.0603C5.00287 19.3317 4.78652 19.5865 4.57914 19.8745C4.56378 19.8745 4.54713 19.8899 4.53177 19.8899C4.37175 19.9219 3.59086 18.9643 3.62286 18.7889C3.63823 18.7569 3.63823 18.7249 3.65487 18.6929C3.76496 18.4689 3.63823 18.0541 3.98899 18.0388ZM4.33975 20.6708C4.49977 20.4314 4.61114 20.3354 4.83389 20.6067C5.03999 20.8423 5.25762 21.065 5.48805 21.2763C5.56742 21.3723 5.72744 21.4516 5.52005 21.5797C4.61114 22.0904 3.68559 22.6166 2.77668 23.1274C2.75108 23.1043 2.7306 23.0774 2.71267 23.048C3.24778 22.2505 3.79056 21.4683 4.33975 20.6708ZM5.2269 19.4584C5.37027 19.9692 5.49829 20.48 5.64167 21.0215C4.60474 20.288 4.57274 20.192 5.2269 19.4584ZM5.60966 18.3575C5.43428 18.6289 5.24226 18.5175 5.17953 18.2935C4.95678 17.528 4.7494 16.7624 4.55738 15.9969C4.47801 15.7422 4.70075 15.8049 4.82877 15.8049H7.36475C6.74132 16.7151 6.18317 17.5446 5.60966 18.3575ZM7.87425 13.4763C6.90134 13.731 5.92842 13.9871 4.90686 14.2585C4.97087 13.3329 5.28962 12.7274 6.13581 12.392C6.77332 12.1372 7.34811 11.7225 8.03427 11.3397V13.2535C8.04835 13.3572 7.97923 13.4558 7.87425 13.4763ZM8.01763 8.57842V10.9557C7.42748 10.6203 6.90134 10.3015 6.39056 9.99811C6.21517 9.9021 6.16781 9.80609 6.34319 9.63071C6.77332 9.21594 7.18809 8.80117 7.60286 8.37104C7.68095 8.2571 7.82945 8.21742 7.95362 8.27502C8.08164 8.32367 8.01763 8.46705 8.01763 8.57842ZM6.24718 9.23258C6.4072 8.09964 6.48657 8.02027 7.31611 8.27502C6.9487 8.61042 6.58258 8.92918 6.24718 9.23258ZM7.8909 3.09168C7.9229 3.10704 7.97026 3.10704 8.00227 3.12369V5.2449C8.00227 6.12181 8.00227 6.12181 7.02935 6.24982C7.31611 5.18089 7.60286 4.12861 7.8909 3.09168ZM6.83733 6.90398C6.90134 6.48921 7.2201 6.53657 7.49149 6.4252C7.95362 6.23318 8.04963 6.44056 8.00227 6.83997V7.03199C8.00227 7.89354 7.57214 8.2123 6.77332 7.92554C6.67731 7.89354 6.6133 7.86153 6.62994 7.76552C6.69395 7.47749 6.78996 7.19073 6.83733 6.90398ZM3.16841 7.55814C4.30775 7.27138 5.44964 6.96799 6.64659 6.66459C6.55058 7.04736 6.47121 7.35075 6.39184 7.66951C6.32783 7.92426 6.13709 7.8769 5.9617 7.86153C5.03615 7.78216 4.09524 7.71816 3.15433 7.63879C3.16585 7.61318 3.17097 7.58502 3.16841 7.55814ZM5.97579 8.09964C6.19853 8.11501 6.24718 8.19565 6.19853 8.4184C5.91178 9.72672 5.92714 9.72672 4.7942 9.05592C4.20405 8.70516 3.59726 8.35439 2.9431 7.97163C4.01459 7.8769 5.00287 8.05228 5.97579 8.09964ZM2.51425 8.18029C2.49889 8.13293 2.49889 8.10092 2.48225 8.05228C2.52961 8.05228 2.56162 8.06764 2.61026 8.06764C3.56782 8.62579 4.54073 9.20057 5.52901 9.75872C5.62502 9.82273 5.7684 9.85473 5.60838 10.0301C4.95422 10.6996 4.31671 11.3858 3.67791 12.072C3.61646 12.0515 3.55758 12.0259 3.50253 11.9926C3.16841 10.7163 2.84965 9.45661 2.51425 8.18029ZM3.34379 12.6147C3.39116 12.6621 3.4398 12.6788 3.4398 12.6941C3.66255 13.5083 3.66255 13.5083 2.92902 13.9231C2.38623 14.2418 1.82809 14.5452 1.22258 14.8806C1.9561 14.0818 2.64227 13.3483 3.34379 12.6147ZM0.76044 15.8049C1.782 15.8049 2.78692 15.8049 3.80721 15.7895C4.0786 15.7895 4.18997 15.8369 4.0786 16.1569C3.91858 16.5871 3.93522 17.2732 3.64847 17.4166C3.31307 17.592 2.85093 17.0658 2.45152 16.8585C1.87673 16.5551 1.31859 16.2043 0.745078 15.8855C0.750198 15.8587 0.756599 15.8318 0.76044 15.8049ZM1.15857 16.5077L1.17393 16.4923C1.98811 16.7957 2.68963 17.3065 3.43852 17.7213C3.64591 17.8327 3.59854 18.1207 3.29514 18.7262C2.5629 17.9901 1.82809 17.2886 1.15857 16.5077ZM3.45516 19.3304C3.50253 19.3458 3.55117 19.3458 3.56654 19.3624C4.39608 20.16 4.39608 20.16 3.74192 21.1009C3.39116 21.6117 3.02375 22.1058 2.67299 22.5999L2.59362 22.5359L3.45516 19.3304ZM2.48225 23.5895C3.59854 22.952 4.60346 22.3772 5.62502 21.8024C5.75304 21.723 5.81705 21.7384 5.86441 21.8984C6.1038 22.8073 6.34319 23.7009 6.61458 24.7058C5.19489 24.3077 3.90194 23.9569 2.48225 23.5895ZM7.9293 28.248C7.8973 28.248 7.86529 28.2633 7.83329 28.2633C7.54654 27.2264 7.27514 26.1895 6.98839 25.1206H6.98199C7.09336 25.1052 7.12536 25.0886 7.16377 25.1052C7.9293 25.2806 7.9293 25.2806 7.9293 26.0781V28.248ZM7.9549 24.9938C7.84353 25.0092 7.82689 25.0258 7.82689 25.0258C7.12536 24.9785 6.7426 24.6264 6.64659 23.9095C6.55058 23.3027 6.35983 22.7292 6.29582 22.0904C6.80661 22.6012 7.34811 23.08 7.81153 23.6381C8.14565 24.0363 7.82689 24.5317 7.9549 24.9938ZM8.01763 17.3372L7.97026 19.5711C7.97026 19.8579 7.9229 19.9859 7.6195 19.7938C7.07672 19.4751 6.53521 19.1563 5.97579 18.8683C5.7364 18.7403 5.7364 18.6289 5.87977 18.4215C6.43792 17.624 6.99607 16.8265 7.53885 16.0123C7.60158 15.8715 7.75392 15.7921 7.90626 15.8202C8.129 15.8523 8.01763 16.0276 8.01763 16.139C8.03427 16.5384 8.01763 16.9378 8.01763 17.3372ZM21.737 9.80737C21.2583 9.48861 20.6681 9.36059 20.4607 8.73844C20.3775 8.5605 20.3839 8.35311 20.4761 8.18029C20.8909 7.49413 21.2903 6.80797 21.673 6.12181C21.833 5.85041 21.9278 5.89906 22.1352 6.07444C22.4859 6.37784 22.6139 6.68123 22.4539 7.14337C22.1838 8.02027 21.9764 8.91382 21.737 9.80737ZM23.7315 21.8357C23.7315 23.1594 23.7315 23.1594 22.4078 23.048C21.7703 23.0006 21.1162 22.9366 20.4774 22.888C20.3173 22.8726 20.1906 22.856 20.142 22.6652C20.0946 22.4732 20.27 22.4578 20.3814 22.3938C21.3863 21.8357 22.3758 21.2775 23.3641 20.7028C23.6675 20.5274 23.7635 20.6067 23.7315 20.9421C23.7149 21.2455 23.7315 21.5323 23.7315 21.8357ZM17.9721 25.8707C17.4293 25.4713 16.8072 25.1692 16.185 24.8018C16.7598 24.483 17.2859 24.1797 17.8287 23.8609C17.9222 23.7892 18.0553 23.8033 18.1321 23.8929C18.8337 24.5944 19.5518 25.2972 20.2853 26.0308C20.1893 26.1101 20.174 26.1268 20.174 26.1268C19.3918 26.4775 18.6749 26.4135 17.9721 25.8707ZM18.6263 26.5415C17.7967 26.7489 17.0632 26.9563 16.3297 27.1483C16.1543 27.1957 16.0903 27.1483 16.0903 26.9563V25.0425C16.9672 25.552 17.7494 26.0141 18.6263 26.5415ZM10.5229 25.7594C10.3001 25.6954 10.4115 25.5673 10.4755 25.456C10.8903 24.7378 11.3204 24.0196 11.7672 23.2387C12.2293 24.2117 12.6607 25.1052 13.0755 25.9988C13.2355 26.3175 13.0755 26.4289 12.8208 26.3662C12.054 26.1908 11.2884 25.9667 10.5229 25.7594ZM12.6287 26.5735C11.5765 27.2751 11.5445 27.2597 10.6189 26.0308C11.3038 26.2215 11.9426 26.3815 12.6287 26.5735ZM10.2105 21.787C10.2259 21.7077 10.2745 21.627 10.3706 21.691C10.706 21.8984 11.1041 21.9944 11.3435 22.3452C11.5829 22.696 11.6789 23.0467 11.3755 23.4615C11.0119 23.9953 10.6868 24.556 10.4026 25.1359C10.1632 25.5981 9.97243 25.5661 9.70103 25.1999C9.58966 25.0399 9.36563 24.9605 9.41428 24.7058C9.67671 23.7342 9.93274 22.76 10.2105 21.787ZM8.24166 6.53658C8.2391 6.52377 8.23654 6.50969 8.23654 6.49689C8.22246 6.32151 8.35431 6.16789 8.52969 6.15381C8.88045 6.0898 9.23122 5.99379 9.58198 5.89906C9.62422 5.89138 9.66775 5.89138 9.70999 5.89906C9.68055 5.91826 9.65751 5.94642 9.64599 5.97843C9.19921 6.40856 8.75244 6.85533 8.24166 7.35075C8.24166 7.04736 8.25702 6.79261 8.24166 6.53658ZM8.35303 7.65415C8.92782 7.04736 9.51797 6.45721 10.1555 5.80305C10.6496 6.66459 11.081 7.43012 11.5918 8.29167C10.4589 8.2123 9.42196 8.14829 8.40168 8.03692C8.09828 8.00491 8.22502 7.78088 8.35303 7.65415ZM13.7924 5.40492C14.3826 5.86705 15.0841 6.20246 15.8022 6.61722C15.2275 6.95262 14.718 7.23938 14.2072 7.54278C14.0792 7.62215 13.9844 7.67079 13.8564 7.54278C13.1549 6.82461 12.4367 6.12309 11.6866 5.37292C12.4534 5.06952 13.0909 4.86213 13.7924 5.40492ZM13.3623 4.89414C14.1765 4.67139 14.8933 4.47937 15.6269 4.28735C15.8022 4.23998 15.8983 4.25534 15.8983 4.47937V6.37784C15.0367 5.88242 14.2392 5.40492 13.3623 4.89414ZM15.2991 11.5778C15.1391 11.3858 14.8844 11.5932 14.6924 11.6418C13.8948 11.8339 13.9102 11.8492 13.4954 11.131C13.1446 10.4935 12.7939 9.85473 12.4111 9.23258C12.2677 8.97783 12.2831 8.84981 12.5545 8.73844C12.7145 8.67443 12.8579 8.59506 13.0013 8.53105C13.3367 8.38768 13.6388 8.00491 13.9588 8.06892C14.3262 8.14829 14.549 8.5797 14.8357 8.85109C15.7229 9.74464 16.5998 10.6536 17.51 11.5151C17.8531 11.83 18.0643 12.2627 18.1001 12.7274C17.0696 12.552 16.0583 12.392 15.0598 12.2013C15.0598 12.1693 15.0444 12.1372 15.0598 12.1052C15.1071 11.9132 15.4745 11.8006 15.2991 11.5778ZM8.25702 9.55134L8.26342 9.39132C8.26342 8.25838 8.26342 8.25838 9.36435 8.33903C10.0659 8.3864 10.784 8.46705 11.4856 8.51441C11.6456 8.52977 11.7826 8.52977 11.8299 8.7218C11.8773 8.91382 11.7019 8.92918 11.6072 8.99319L8.59242 10.7163C8.27366 10.9083 8.24166 10.7636 8.25702 10.4935C8.27366 10.1735 8.25702 9.87138 8.25702 9.55134ZM9.26194 10.6203C10.1068 10.2055 10.889 9.72672 11.6866 9.24794C11.9899 9.05592 12.1013 9.15193 12.2447 9.42332C12.6275 10.1568 13.0422 10.875 13.4736 11.5765C13.649 11.8633 13.6017 11.9439 13.2816 12.0233C11.7659 12.4061 10.2502 12.8208 8.7358 13.2356C8.4004 13.3316 8.27366 13.2996 8.32103 12.9322C8.33639 12.7095 8.32103 12.4701 8.32103 12.1027C8.04963 11.3551 8.54505 10.9557 9.26194 10.6203ZM8.27366 15.2467C8.28902 15.0394 8.32103 14.8166 8.32103 14.6092C8.33639 13.6043 8.33639 13.6043 9.27858 13.3496C10.5075 13.0308 11.7352 12.712 12.9641 12.36C13.4583 12.2166 13.9371 12.1526 14.4632 12.4074C13.7937 13.2049 13.1395 14.0024 12.5007 14.8C12.278 14.6399 12.3727 14.2252 12.1013 14.2572C11.8619 14.2892 11.9259 14.6399 11.8466 14.8473C11.789 15.0022 11.7467 15.1623 11.7186 15.3261C11.7186 15.33 11.7173 15.3351 11.7173 15.3389C11.6878 15.5194 11.5176 15.6423 11.3358 15.6129C10.4269 15.5975 9.51669 15.5809 8.60778 15.5975C8.32103 15.5975 8.24166 15.4861 8.27366 15.2467ZM11.6712 5.08488C11.5086 5.14377 11.3281 5.06696 11.2564 4.9095C11.145 4.73412 11.3204 4.67011 11.3998 4.59074C11.7826 4.17597 11.7992 4.17597 12.6761 4.81349C12.3087 4.9095 11.9746 4.97351 11.6712 5.08488ZM11.3102 4.30399C11.1028 4.60738 10.9108 4.62275 10.6407 4.31935C10.2413 3.87258 9.79576 3.45781 9.36435 3.02767C9.37971 2.99567 9.39636 2.9483 9.41172 2.9163C10.1555 3.20305 10.7776 3.71384 11.4536 4.04924C11.4702 4.19133 11.3588 4.22334 11.3102 4.30399ZM11.9106 5.94642C12.5174 6.53658 13.1075 7.12673 13.7617 7.76552C13.4634 7.96267 13.1549 8.14445 12.8361 8.30831C12.3906 8.50929 11.8658 8.32751 11.6392 7.89354C11.2244 7.16001 10.8096 6.44184 10.3949 5.70832C11.3038 5.34091 11.3038 5.35627 11.9106 5.94642ZM8.22502 16.2197C8.22502 15.9163 8.27238 15.7895 8.62442 15.8049C9.48597 15.8369 10.3475 15.8202 11.2091 15.8202C11.4318 15.8202 11.5598 15.8523 11.4804 16.1236C11.0183 17.7981 10.5715 19.4738 10.1081 21.1969C9.82137 21.0215 9.58198 20.8935 9.35795 20.7668C8.17765 20.0972 8.17765 20.0972 8.20965 18.7569C8.24166 17.9107 8.24166 17.0658 8.22502 16.2197ZM12.0386 23.1914C11.9592 23.048 11.9106 22.92 12.054 22.792C12.1653 22.6806 12.2613 22.792 12.3574 22.8393C13.4583 23.4769 14.5426 24.131 15.6909 24.8018C15.0047 25.2012 14.3826 25.5673 13.777 25.9347C13.5697 26.0781 13.4263 26.1268 13.2983 25.8234C12.9001 24.9465 12.4687 24.0683 12.0386 23.1914ZM11.7352 22.1545C11.6072 22.0751 11.4958 21.9791 11.3678 21.8997C11.0324 21.6603 10.4742 21.6129 10.3949 21.2302C10.3155 20.8794 10.5549 20.448 10.6663 20.0499C10.985 18.9016 11.3204 17.7686 11.5918 16.6037C11.6853 16.1134 11.9656 15.6794 12.374 15.3914C12.6928 16.2683 12.9961 17.1298 13.3469 17.944C13.4429 18.2308 13.4263 18.3434 13.0922 18.2794C12.9808 18.2641 12.8374 18.2154 12.7734 18.3434C12.7094 18.4714 12.8528 18.5355 12.9168 18.6302C13.1395 18.9336 13.6503 19.109 13.6183 19.5071C13.5863 19.8425 13.2829 20.1613 13.0922 20.4967C12.7888 21.0074 12.4854 21.5182 12.1986 22.0444C12.0706 22.2825 11.9426 22.3132 11.7352 22.1545ZM13.617 18.1348C13.2816 17.2259 12.9475 16.3003 12.6121 15.3914C12.5238 15.2275 12.5571 15.0253 12.6915 14.8973C13.3456 14.1471 13.9831 13.3816 14.6053 12.616C14.6988 12.4739 14.8729 12.4086 15.0354 12.456C15.993 12.6314 16.9659 12.8068 17.9222 12.9668C18.1372 12.9873 18.3165 13.1409 18.369 13.3496C18.6877 14.2265 19.0065 15.12 19.3419 15.9982C19.4404 16.1902 19.4008 16.4232 19.2459 16.573C18.6237 17.2911 18.0169 18.04 17.3948 18.7748C17.2834 18.9029 17.2027 19.0616 17.0274 18.9822C15.9751 18.8068 14.9689 18.6315 13.9486 18.4561C13.745 18.4215 13.681 18.2935 13.617 18.1348ZM16.9352 19.2191C16.9352 19.4905 16.5051 19.6185 16.6804 19.8259C16.8558 20.0332 17.1592 19.8412 17.3666 19.7465C17.9247 19.4917 18.2115 19.6991 18.4675 20.2086C18.7863 20.8781 19.1857 21.5169 19.5685 22.1545C19.7285 22.4258 19.6965 22.5692 19.4084 22.6806C19.2228 22.7561 19.0423 22.8406 18.8657 22.9353C17.9887 23.4141 17.9887 23.4141 17.3026 22.728C16.3937 21.819 15.5001 20.9089 14.5912 20.0166C14.2405 19.6658 13.9051 19.3151 13.9051 18.6929C14.9253 18.8683 15.9303 19.0437 16.9352 19.2191ZM20.302 26.3495C20.4658 26.2881 20.6489 26.3559 20.7321 26.5095C20.8281 26.6696 20.6527 26.7323 20.5721 26.8283C20.1893 27.2431 20.1893 27.2431 19.3124 26.6055C19.6798 26.5095 19.9986 26.4455 20.302 26.3495ZM20.0946 25.5686C19.5838 24.9785 19.0103 24.4523 18.4509 23.9095C18.2281 23.6868 18.2435 23.5908 18.5303 23.4628C18.881 23.3027 19.1524 22.984 19.5992 23.08C19.9819 22.984 20.174 23.208 20.3494 23.5421C20.7001 24.1963 21.0675 24.8338 21.4503 25.4726C21.5617 25.68 21.5463 25.7594 21.3069 25.8554C20.8281 26.0461 20.4607 25.9988 20.0946 25.5686ZM22.7164 20.7988C21.8868 21.2135 21.0893 21.7077 20.2917 22.1711C20.037 22.3145 19.909 22.3311 19.749 22.0431C19.3496 21.2775 18.9194 20.5274 18.4726 19.7938C18.3126 19.5391 18.4086 19.4584 18.648 19.3944C20.2111 18.995 21.7588 18.5969 23.3065 18.1655C23.6099 18.0861 23.7059 18.1335 23.6739 18.4369C23.6586 18.6763 23.6739 18.931 23.6739 19.3138H23.6675C23.9389 20.064 23.4499 20.4634 22.7164 20.7988ZM23.7149 16.2363C23.6995 16.4283 23.6675 16.6357 23.6675 16.8265C23.6521 17.8314 23.6521 17.816 22.6626 18.0861C21.4656 18.4049 20.27 18.7236 19.073 19.059C18.5623 19.2024 18.0515 19.3138 17.5253 19.0117L19.5032 16.6511C19.7259 16.7944 19.6145 17.2259 19.8859 17.1772C20.1573 17.1298 20.1087 16.7624 20.1727 16.5397C20.3801 15.8215 20.3801 15.8215 21.1136 15.8215C21.8471 15.8215 22.5973 15.8369 23.3475 15.8215C23.6675 15.8215 23.7469 15.9483 23.7149 16.2363ZM20.3647 15.0074C20.2533 15.4541 20.014 15.7409 19.6312 16.0443C19.2638 15.0547 18.9297 14.1138 18.5789 13.1729C18.8016 13.0129 19.1434 13.3009 19.2164 13.0295C19.2958 12.8221 18.977 12.6788 18.817 12.5187C18.2909 11.9759 18.2909 11.9926 18.6736 11.3218C19.041 10.6996 19.4238 10.1095 19.7426 9.47069C19.9346 9.08792 20.1253 9.11993 20.4121 9.34267C20.5042 9.41692 20.6003 9.48605 20.6988 9.55006C20.9856 9.7728 21.513 9.83681 21.5924 10.1722C21.6718 10.5076 21.449 10.9057 21.353 11.2731C21.0355 12.5187 20.6681 13.763 20.3647 15.0074ZM21.4656 5.67503C21.673 5.7224 21.577 5.86705 21.513 5.97843C21.0982 6.69659 20.6835 7.41476 20.2213 8.19565C19.7426 7.22274 19.3278 6.31383 18.913 5.43564C18.7696 5.13225 18.8977 5.00551 19.1678 5.06824C19.9346 5.2449 20.7001 5.46765 21.4656 5.67503ZM19.3764 4.84549C20.5247 4.14397 20.078 3.98395 21.4183 5.40364C20.6681 5.2129 20.046 5.03752 19.3764 4.84549ZM19.9499 8.19565C20.014 8.32367 20.0933 8.46705 19.9653 8.61042C19.8053 8.78581 19.6939 8.61042 19.5825 8.54642C18.4982 7.92426 17.4293 7.28675 16.2964 6.61594C17.0146 6.20118 17.6841 5.81841 18.3229 5.43564C18.5303 5.30763 18.6096 5.38828 18.6903 5.56366C19.105 6.44056 19.5352 7.31875 19.9499 8.19565ZM22.2312 5.62767C22.0084 5.62767 22.1032 5.45228 22.1672 5.34091C22.5666 4.65475 22.9647 3.98523 23.3641 3.29907C23.4076 3.30163 23.4512 3.31315 23.4921 3.33107C23.2911 4.08124 23.1094 4.86213 22.8546 5.6123C22.742 5.97843 22.4552 5.62767 22.2312 5.62767ZM23.0287 3.37844C22.6459 4.04796 22.2465 4.71876 21.8638 5.38828C21.4336 4.9415 21.0496 4.52673 20.6348 4.0966C21.5437 3.57046 22.4693 2.9483 23.4588 2.46953C23.4435 2.83565 23.1887 3.09168 23.0287 3.37844ZM20.1804 3.12369C21.0253 2.8843 21.8715 2.67691 22.733 2.45416L22.7804 2.55018H22.774C22.0148 2.98031 21.2583 3.47573 20.4838 3.87386C20.165 4.03387 19.9576 3.6191 19.8296 3.36307C19.7016 3.10704 20.0524 3.15441 20.1804 3.12369ZM19.2804 3.33107C19.6312 3.44244 19.8066 3.77784 20.0626 3.98523C20.0754 4.03003 20.0626 4.07868 20.0306 4.11324C19.6926 4.34111 19.3342 4.53826 18.9617 4.7034C18.6903 4.79941 18.0361 4.00187 18.1168 3.71384C18.1168 3.66647 18.1961 3.61783 18.2448 3.60246C18.5789 3.50645 18.913 3.4258 19.2804 3.33107ZM19.073 3.09168C19.0641 3.09936 19.0577 3.11088 19.0577 3.12369C18.0054 3.49109 17.9887 3.49109 17.51 2.48617C17.2552 1.94338 16.9992 1.41724 16.7278 0.82709C17.1272 0.985829 18.8183 2.64491 19.073 3.09168ZM16.1543 0.539055C16.2017 0.539055 16.2337 0.523693 16.2823 0.523693C16.7124 1.4326 17.1438 2.34279 17.574 3.2197C17.6533 3.37972 17.67 3.47445 17.4626 3.5551C16.2183 4.04924 16.1543 4.01723 16.1543 2.7102V0.539055ZM16.441 4.30399C16.9992 4.47937 17.5573 4.62275 18.1155 4.76612C18.2435 4.79813 18.3702 4.83013 18.4022 4.98887C18.4176 5.08488 18.3549 5.13225 18.2742 5.18089C17.5727 5.5803 16.8865 5.99507 16.121 6.44056V4.54338C16.1056 4.28735 16.2017 4.22334 16.441 4.30399ZM16.4001 6.95135C17.4216 7.5735 18.4419 8.18029 19.4788 8.77044C19.7336 8.91382 19.7502 9.02519 19.6069 9.26458C19.1447 9.99811 18.73 10.7483 18.2985 11.4985C18.1872 11.7058 18.1065 11.8018 17.8838 11.5778C16.6548 10.3655 15.4272 9.16857 14.1355 7.9089H14.1291C14.7666 7.5415 15.294 7.25474 15.8099 6.93598C15.9891 6.81309 16.2273 6.81949 16.4001 6.95135ZM13.0819 2.9163C13.9844 1.99075 14.878 1.0652 15.7715 0.140927C15.8189 0.172931 15.8509 0.204935 15.8995 0.236939L15.9059 3.60246C15.9059 3.84185 15.8099 3.90586 15.6025 3.84185C14.741 3.60246 13.8641 3.36307 12.9539 3.10832C12.991 3.0392 13.0333 2.97519 13.0819 2.9163ZM12.8835 3.37844C13.681 3.58582 14.4952 3.79321 15.2927 4.01595V4.12733C14.6552 4.30271 14.0011 4.47809 13.3469 4.67011C12.8041 4.79813 12.4854 4.33471 12.0706 4.14397C12.0386 4.12861 12.0232 4.04796 12.0232 4.01595C12.0386 3.84057 12.7081 3.33107 12.8835 3.37844ZM12.3253 3.18641C11.8466 3.96859 11.7992 3.98395 11.113 3.56918C10.5229 3.20177 9.86873 2.89966 9.32595 2.45288C10.3693 2.5809 11.3268 2.99567 12.3253 3.18641ZM9.05455 3.02767C9.59734 3.57046 10.1555 4.11196 10.6663 4.68675C10.9377 5.00551 10.4909 5.06952 10.3949 5.2449C10.3155 5.38828 10.2029 5.40492 10.1081 5.22954C9.70871 4.52801 9.31059 3.84185 8.91118 3.14033C8.95982 3.10704 9.00719 3.05968 9.05455 3.02767ZM8.24166 4.62275C8.20965 3.95323 8.2263 3.29907 8.2263 2.62827C8.25958 2.62443 8.29286 2.61418 8.32231 2.59626C8.83309 3.48981 9.34387 4.38336 9.85337 5.29227C9.96474 5.46765 9.93274 5.56366 9.72536 5.59566C9.70999 5.59566 9.69335 5.61102 9.67799 5.61102C9.23122 5.7224 8.67307 6.0578 8.36967 5.89778C8.01763 5.70704 8.25702 5.06952 8.24166 4.62275ZM8.17765 23.0314C8.25702 22.2018 8.19301 21.3569 8.19301 20.4147C8.81517 20.7821 9.34131 21.0842 9.86745 21.3876C10.0428 21.499 9.99547 21.627 9.94682 21.7704C9.69207 22.696 9.45268 23.6215 9.18129 24.6418C8.72044 24.1323 8.09828 23.8609 8.17765 23.0314ZM8.24166 24.0849C8.49641 24.3397 8.7358 24.5791 8.97519 24.8031C9.11856 24.9311 9.0712 25.0578 9.02255 25.2025C8.95854 25.4252 8.79981 25.2665 8.70379 25.2499C8.09828 25.1218 8.03427 24.9938 8.24166 24.0849ZM8.19301 28.2646C8.17765 28.2646 8.16101 28.2493 8.14565 28.2493C8.14565 27.3083 8.14565 26.3828 8.13028 25.4572C8.17765 25.4419 8.20965 25.4099 8.2263 25.4099C8.92782 25.5533 8.91246 25.5699 8.73708 26.2394C8.56042 26.9077 8.36967 27.5938 8.19301 28.2646ZM8.48105 28.1366C8.68843 27.3864 8.88045 26.6209 9.1032 25.872C9.23122 25.4099 9.54998 25.7926 9.74072 25.808C10.0595 25.8554 9.83673 26.0628 9.77272 26.1754C9.43732 26.7656 9.1032 27.3404 8.75116 27.9305C8.68843 28.0252 8.67179 28.152 8.48105 28.1366ZM8.49641 28.9175C9.03919 27.9599 9.5807 26.987 10.1235 26.0141C10.6176 26.4135 10.985 26.859 11.4152 27.3058C10.4256 27.8639 9.51669 28.4707 8.52841 28.9495L8.49641 28.9175ZM9.21457 28.9495C9.90074 28.3914 10.6816 27.992 11.4484 27.5938C11.8632 27.4018 11.9592 27.9612 12.374 28.184C11.2091 28.4554 10.2515 28.8228 9.21457 28.9495ZM12.7401 28.088C12.5801 28.0726 11.9259 27.5132 11.9259 27.4018C11.9157 27.3698 11.9208 27.334 11.9413 27.3058C12.0053 27.1778 13.0102 26.699 13.1536 26.7156C13.6798 26.7796 13.6477 27.3058 13.8718 27.6245C13.9358 27.7206 13.8564 27.7999 13.7758 27.8166C13.4263 27.9126 13.0755 28.0086 12.7401 28.088ZM13.8564 26.9077C14.3992 27.051 14.8613 27.1791 15.3721 27.3071C14.3352 27.8332 14.1444 27.7858 13.8564 26.9077ZM13.0589 28.5834C12.8361 28.3914 12.8515 28.312 13.1549 28.2326C14.0318 27.9932 14.0318 27.9779 14.4146 28.7908C14.718 29.4449 15.0367 30.0991 15.3401 30.7532C14.5746 30.0031 13.809 29.2849 13.0589 28.5834ZM15.8022 29.8277V30.912C15.7702 30.912 15.7549 30.9273 15.7229 30.9273C15.2927 30.0338 14.8613 29.1249 14.4146 28.2313C14.3032 27.992 14.3352 27.9126 14.6066 27.8319C15.8189 27.4812 15.8189 27.4645 15.8189 28.7408C15.8189 29.1095 15.8022 29.4603 15.8022 29.8277ZM15.8663 26.0781C15.8663 27.2111 15.8663 27.2111 14.782 26.923C14.4632 26.8437 14.1444 26.7476 13.8244 26.6683C13.6964 26.6363 13.6017 26.5723 13.585 26.4455C13.5697 26.3175 13.681 26.2855 13.7604 26.2381C14.3506 25.8874 14.9573 25.552 15.5475 25.1859C15.8509 24.9938 15.8829 25.1385 15.8663 25.3932V26.0781ZM15.6179 24.4677C14.581 23.8455 13.5441 23.2387 12.4918 22.6332C12.2997 22.5219 12.237 22.4258 12.3638 22.2185C12.8745 21.3736 13.3533 20.5274 13.8795 19.6338C15.1558 20.9101 16.377 22.1378 17.6277 23.3668C17.7711 23.5101 17.7878 23.5741 17.5957 23.6855C17.117 23.9403 16.6548 24.2283 16.1761 24.4997C16.0007 24.6008 15.7805 24.5893 15.6179 24.4677ZM18.8336 28.5667C17.9721 29.4756 17.0952 30.3692 16.2337 31.2781L16.0903 31.1821C16.0903 30.0492 16.0903 28.9175 16.0749 27.7679C16.0749 27.5452 16.1863 27.5285 16.3617 27.5759C17.1758 27.7986 17.9887 28.038 18.8029 28.2454C19.137 28.3274 18.945 28.4554 18.8336 28.5667ZM19.041 28.0572C18.2589 27.8499 17.4613 27.6271 16.6804 27.4197C16.6932 27.3839 16.6984 27.3455 16.6958 27.3083C17.35 27.133 18.0259 26.9256 18.6903 26.7822C19.2011 26.6708 19.5044 27.1176 19.9192 27.3083C19.9397 27.348 19.9499 27.3916 19.9512 27.4364C19.9179 27.6425 19.2484 28.1046 19.041 28.0572ZM22.5026 28.9815C21.5617 28.7268 20.6207 28.4874 19.6786 28.2313C20.014 27.5132 20.2047 27.4492 20.8435 27.8319L22.5666 28.8369C22.5384 28.8829 22.5179 28.9316 22.5026 28.9815ZM22.637 28.6154C21.9188 28.1853 21.2173 27.7538 20.4198 27.2917C20.5567 27.1803 20.6527 27.1317 20.7065 27.0523C20.9139 26.7656 21.0739 26.7976 21.3133 27.0523C21.6641 27.4517 22.0635 27.8025 22.4296 28.1853C22.541 28.2953 22.7164 28.376 22.637 28.6154ZM22.9173 28.3594C22.3746 27.8332 21.8651 27.3071 21.3696 26.7796C21.0662 26.4289 21.4977 26.3495 21.6244 26.1895C21.7998 25.9181 21.8791 26.2049 21.9431 26.3175L22.8521 27.8972C22.9685 28.024 22.9941 28.207 22.9173 28.3594ZM23.7469 28.7908C23.7149 28.8061 23.6995 28.8061 23.6675 28.8228C23.1567 27.9459 22.6523 27.0523 22.1364 26.1588C22.0251 25.9667 22.0404 25.872 22.2798 25.8234C22.7586 25.712 23.2374 25.5686 23.7469 25.4406V28.7908ZM22.5346 25.456C22.934 25.0732 23.3641 24.6584 23.7469 24.2757C23.7955 25.3292 23.6829 25.4406 22.5346 25.456ZM23.6189 23.8135C23.0607 24.4203 22.4859 25.0425 21.8638 25.712C21.3376 24.7864 20.9062 24.0056 20.3967 23.144C21.513 23.24 22.5346 23.304 23.5395 23.3988C23.8903 23.4308 23.7635 23.6535 23.6189 23.8135ZM23.7699 11.7212C23.7546 12.8695 23.7546 14.0024 23.7546 15.1507C23.7699 15.4861 23.6906 15.6449 23.2924 15.6295C22.4475 15.5821 21.6013 15.6141 20.7564 15.6141C20.5491 15.6141 20.4377 15.5988 20.5017 15.3428C20.9638 13.6529 21.426 11.9631 21.8881 10.2413C22.4603 10.5588 22.9852 10.8609 23.4998 11.1951C23.688 11.2987 23.7955 11.5074 23.7699 11.7212ZM23.8109 8.62707C23.7149 9.37724 23.7955 10.1428 23.7955 11.0043C23.1734 10.6535 22.6536 10.3348 22.1211 10.0468C22.1211 10.0468 22.1198 10.0468 22.1198 10.0455C22.0097 9.99683 21.9611 9.86882 22.0097 9.75872C22.2811 8.80117 22.5359 7.82825 22.8072 6.80797C23.4115 7.30211 23.9223 7.74888 23.8109 8.62707ZM23.7149 7.46213C23.4499 7.14337 23.2527 6.88734 23.0287 6.64795C22.9225 6.54298 22.8969 6.38168 22.9647 6.24854C23.0441 6.05652 23.1875 6.15253 23.3001 6.16917C23.8903 6.28182 23.9389 6.4252 23.7149 7.46213ZM23.6099 5.99507C23.4345 5.9157 23.0198 6.07444 23.1311 5.62767C23.3385 4.83013 23.5613 4.04796 23.7686 3.25042H23.8416C23.8416 4.07996 23.8416 4.89414 23.8326 5.7224C23.8326 5.86705 23.8967 6.13845 23.6099 5.99507ZM30.734 14.8806C30.7186 14.896 30.7186 14.928 30.702 14.9446C29.9684 14.5299 29.2183 14.1625 28.5321 13.7003C28.1813 13.4456 28.6115 13.0782 28.6115 12.7748C29.3309 13.4763 30.0324 14.1778 30.734 14.8806ZM24.0503 16.459C24.273 15.9969 24.5931 15.6615 25.2306 15.8689C25.8438 15.8689 26.4902 15.8843 27.1611 15.8689C27.4158 15.8689 27.4644 15.9649 27.4158 16.2043C27.3198 16.6511 27.1764 16.9545 26.6336 17.0492C25.8681 17.1926 25.1026 17.432 24.337 17.656C24.0656 17.7354 23.9223 17.688 23.9696 17.3846C24.0183 17.0812 23.8903 16.7624 24.0503 16.459ZM24.0183 8.09964C24.6724 8.73716 25.2626 9.29659 25.8694 9.88674C25.3432 10.1901 24.8325 10.4769 24.3217 10.7636C24.1143 10.875 24.0183 10.8597 24.0183 10.6036V8.09964ZM25.7887 10.2221C25.9807 10.1108 26.0281 10.1748 26.0755 10.3655C26.2189 10.9403 26.3942 11.5138 26.5376 12.0886C26.5939 12.2153 26.5607 12.3638 26.4582 12.456C26.3302 12.5354 26.2509 12.4086 26.1548 12.36C25.4853 11.9926 24.8145 11.6098 24.0964 11.1951C24.7044 10.8443 25.2472 10.5409 25.7887 10.2221ZM27.4222 9.31323C27.9804 8.99447 28.5385 8.69107 29.0966 8.37232C29.1286 8.35695 29.1607 8.37232 29.304 8.37232H29.2976C28.6908 9.24922 28.1327 10.0634 27.5976 10.8609C27.4862 11.0363 27.4222 11.0363 27.2622 10.8929C26.2585 9.96611 26.2419 9.98275 27.4222 9.31323ZM26.7936 13.1409C27.0164 13.8911 27.2084 14.6399 27.4004 15.3901C27.4798 15.6449 27.2891 15.6129 27.1457 15.6129H24.6097C25.2472 14.704 25.8066 13.8898 26.3328 13.0602C26.5389 12.7748 26.7143 12.8861 26.7936 13.1409ZM27.1611 18.2295C27.1457 17.8621 27.3044 17.5433 27.3838 17.2246C27.4158 17.0812 27.5438 17.0326 27.6872 17.0172C27.8792 17.0018 27.8792 17.1606 27.9099 17.2719C28.102 17.8147 28.006 17.9427 27.1611 18.2295ZM24.0183 18.1348C24.2897 17.6406 25.1346 17.7354 25.7247 17.5446C26.1715 17.4012 26.6183 17.3052 27.129 17.1772C27.0177 17.592 26.9217 17.9274 26.8423 18.2781C26.8039 18.4407 26.6912 18.5764 26.5389 18.6455C26.1715 18.8376 25.8207 19.045 25.4546 19.2523C24.9925 19.5237 24.5137 19.7785 24.0029 20.0665L24.0183 18.1348ZM26.6823 18.8517C26.4595 19.6966 26.2521 20.4467 26.0448 21.1969C25.9807 21.4196 25.8374 21.2929 25.7414 21.2289C25.2306 20.9421 24.7364 20.6387 24.1463 20.288C25.0078 19.7938 25.7887 19.3471 26.6823 18.8517ZM26.9063 18.9797C26.9703 18.7249 27.7998 18.0861 28.0226 18.1028C28.0661 18.1117 28.1045 18.1335 28.134 18.1668C28.3734 18.4382 28.3414 19.1243 28.0866 19.3791C27.6398 19.8259 27.1931 20.2726 26.7463 20.7028C26.6503 20.7821 26.5709 20.9101 26.3789 20.8628C26.5543 20.2086 26.7296 19.5865 26.9063 18.9797ZM28.2044 17.4166C28.189 17.2412 27.965 16.9698 28.2517 16.8738C28.984 16.6511 29.715 16.4283 30.5099 16.395C29.8084 16.7778 29.1222 17.1759 28.4271 17.5587C28.2684 17.656 28.2197 17.528 28.2044 17.4166ZM28.2133 16.6024C27.8139 16.6984 27.9266 16.2837 27.8626 16.0916C27.7666 15.8202 28.0226 15.8689 28.166 15.8689H30.734C30.7378 15.8932 30.7493 15.915 30.766 15.9329C29.9211 16.1557 29.0749 16.395 28.2133 16.6024ZM27.6232 15.2467C27.4312 14.5132 27.2724 13.9064 27.0804 13.2049C28.166 13.763 28.166 13.763 27.6232 15.2467ZM27.9739 13.4123C27.6616 13.2612 27.3633 13.0858 27.0804 12.8861C27.0676 12.8772 27.0561 12.8682 27.0446 12.858C26.8423 12.6877 26.8154 12.3869 26.9857 12.1833C27.0817 12.04 27.1777 11.9119 27.2571 11.7686C27.4004 11.4652 27.5438 11.5292 27.7192 11.7366C27.9419 12.008 28.2453 12.2153 28.4207 12.4867C28.3414 12.7901 28.2773 13.0449 28.198 13.3316C28.166 13.4443 28.0866 13.4763 27.9739 13.4123ZM28.5167 12.104C28.4694 12.0886 28.4207 12.0886 28.4054 12.072C27.5605 11.3064 27.5605 11.3064 28.198 10.3809C28.5487 9.88674 28.8841 9.39132 29.2349 8.89718C29.2823 8.91254 29.3309 8.94454 29.3783 8.96119C29.0915 9.99811 28.8201 11.0517 28.5167 12.104ZM29.5063 7.84489C28.3414 8.49905 27.2724 9.10456 26.1728 9.72672C25.9014 8.73716 25.6466 7.76424 25.3752 6.72732C26.7616 7.09472 28.07 7.46213 29.5063 7.84489ZM25.1986 7.07936C25.3906 7.79753 25.5813 8.53106 25.7734 9.26458C25.749 9.28379 25.7222 9.30043 25.694 9.31195C25.1832 8.80117 24.6724 8.29039 24.1629 7.79625C24.0516 7.66823 23.9875 6.63131 24.0836 6.50457C24.1079 6.46617 24.1501 6.44184 24.1949 6.44056C24.5611 6.36119 25.1026 6.71196 25.1986 7.07936ZM24.04 5.49965C24.104 4.70212 24.0554 3.90458 24.0554 3.10704H24.145C24.4164 4.0966 24.6712 5.08488 24.9336 6.07444C24.9976 6.31383 24.9182 6.34583 24.6788 6.29719C24.2167 6.21782 23.9927 6.04244 24.04 5.49965ZM23.9709 15.2467V14.0024L24.0029 11.8172C24.0029 11.5458 24.0669 11.4498 24.3383 11.6098C24.8811 11.9452 25.4392 12.264 26.0128 12.5674C26.2355 12.6788 26.2355 12.7901 26.1088 12.9822C25.5506 13.7797 24.9925 14.5772 24.4497 15.3914C24.3537 15.5514 24.2269 15.6461 24.0503 15.5834C23.8749 15.5181 23.9709 15.3581 23.9709 15.2467ZM23.9543 22.8406V20.4634C24.5675 20.8141 25.0706 21.1329 25.598 21.4363C25.79 21.5477 25.8054 21.6437 25.6453 21.8037C25.2306 22.2031 24.8158 22.6179 24.4164 23.0326C24.3332 23.1402 24.2001 23.1952 24.0656 23.176C23.8749 23.112 23.9543 22.952 23.9543 22.8406ZM25.7567 22.0264C25.47 23.5101 25.5647 23.3348 24.6724 23.1747C24.9758 22.7446 25.3586 22.4412 25.7567 22.0264ZM24.0976 28.3274C24.0656 28.3274 24.0183 28.312 23.9863 28.312C23.9863 27.4978 24.0016 26.6683 23.9709 25.8554C23.9555 25.488 24.0503 25.2972 24.433 25.2652C24.611 25.2345 24.7876 25.1923 24.9592 25.1372C24.6558 26.2381 24.3857 27.2904 24.0976 28.3274ZM24.7044 24.9465C23.8595 25.1539 24.0029 25.1859 23.9863 24.4037C23.9863 23.6535 24.1143 23.4308 24.6084 23.4781C24.8632 23.4935 25.2306 23.3348 25.3586 23.6535C25.4853 23.9723 24.9912 24.8658 24.7044 24.9465ZM28.8355 23.8609C27.6872 24.1643 26.5543 24.4677 25.342 24.8018C25.438 24.419 25.5173 24.0836 25.5967 23.7649C25.6607 23.5101 25.8681 23.5729 26.0435 23.5895C26.969 23.6535 27.8779 23.7175 28.8035 23.7969C28.8201 23.8135 28.8201 23.8455 28.8355 23.8609ZM26.1075 23.3501C25.8527 23.3348 25.7401 23.2707 25.8207 22.9507C26.1395 21.7384 26.1241 21.7384 27.2084 22.3759L29.1222 23.5729C28.07 23.4948 27.0817 23.4141 26.1075 23.3501ZM29.5703 23.4948C28.422 22.8086 27.3684 22.1865 26.3635 21.5963C27.0817 20.8781 27.7678 20.1766 28.5014 19.4751C28.8355 20.7668 29.1863 22.0751 29.5703 23.4948ZM28.5961 18.7403C28.5769 18.7211 28.5615 18.6993 28.5487 18.6763C28.3094 17.8941 28.294 17.8941 29.0275 17.496C29.5857 17.1926 30.1605 16.8892 30.7186 16.5871L30.7826 16.6344C30.0478 17.3372 29.3309 18.0388 28.5961 18.7403ZM31.1654 15.6141H28.166C27.9432 15.6141 27.8152 15.5988 27.9112 15.3107C28.0392 14.9113 28.134 14.5132 28.23 14.1138C28.2773 13.9218 28.3414 13.8591 28.5334 13.9704C29.4269 14.4966 30.3205 14.992 31.2127 15.5015C31.1999 15.5399 31.1833 15.5783 31.1654 15.6141Z" fill="#05BCA9"/>
</g>
<defs>
<clipPath id="clip0_4767_68021">
<rect width="32" height="32" fill="white"/>
</clipPath>
</defs>
</svg>
