<svg width="32" height="32" viewBox="0 0 32 32" fill="none" xmlns="http://www.w3.org/2000/svg">
    <g clip-path="url(#clip0_5848_6533)">
        <path
            d="M20.4373 7.94396L2.99196 25.3173C1.73927 23.5573 0.855967 21.5618 0.395319 19.4511C-0.0653295 17.3405 -0.0937866 15.1585 0.311663 13.0365C0.717113 10.9146 1.54807 8.89676 2.75444 7.10466C3.96081 5.31256 5.5176 3.78332 7.33095 2.60914C9.14431 1.43495 11.1767 0.640149 13.3055 0.272645C15.4343 -0.0948596 17.6155 -0.0274526 19.7176 0.470802C21.8196 0.969056 23.799 1.88784 25.5364 3.17175C27.2738 4.45566 28.7332 6.07812 29.8266 7.94129H20.44L20.4373 7.94396Z"
            fill="#DEF141" />
        <path
            d="M22.1734 12.2186L5.9121 28.4186C5.47889 28.065 5.06412 27.6894 4.66943 27.2933L21.5094 10.5093H31.0321C31.2374 11.0693 31.4108 11.6399 31.5494 12.2159L22.1734 12.2186ZM24.9788 19.0799H31.7041C31.2913 21.1841 30.4599 23.1838 29.2593 24.9605C28.0587 26.7371 26.5133 28.2543 24.715 29.4221C22.9166 30.59 20.902 31.3845 18.7906 31.7586C16.6792 32.1327 14.5142 32.0788 12.4241 31.5999L24.9788 19.0799Z"
            fill="#DEF141" />
        <path
            d="M32.0001 16C32.0001 16.1706 32.0001 16.3413 31.9921 16.512H23.9094L9.66939 30.6986C9.12421 30.4649 8.5927 30.2004 8.07739 29.9066L23.2427 14.7866H31.9547C31.9841 15.1866 32.0001 15.592 32.0001 16Z"
            fill="#DEF141" />
    </g>
    <defs>
        <clipPath id="clip0_5848_6533">
            <rect width="32" height="32" fill="white" />
        </clipPath>
    </defs>
</svg>
    