<svg width="32" height="32" viewBox="0 0 32 32" fill="none" xmlns="http://www.w3.org/2000/svg">
<g clip-path="url(#clip0_5488_619)">
<path d="M16 0C24.8374 0 32 7.16407 32 16C32 24.8374 24.8374 32 16 32C7.16407 32 0 24.8366 0 16C0 7.16407 7.16407 0 16 0Z" fill="#E6DAFE"/>
<path d="M18.5 14.3999C18.5 15.8357 17.3806 16.9999 16 16.9999V19.5999C18.7612 19.5999 21 17.2716 21 14.3999C21 11.5282 18.7612 9.19983 16 9.19983C15.0898 9.19983 14.235 9.45267 13.5 9.89599C12.0052 10.7944 11 12.4749 11 14.3999V27.4001L13.2479 29.7378L13.5 30.0001V14.3999C13.5 12.964 14.6194 11.7999 16 11.7999C17.3806 11.7999 18.5 12.964 18.5 14.3999Z" fill="#110F23"/>
<path d="M16 4C14.1784 4 12.4711 4.50683 11 5.39233C10.0581 5.95796 9.21461 6.67881 8.5 7.52198C6.94414 9.35528 6 11.7636 6 14.4001V22.2002L8.5 24.8002V14.4001C8.5 12.0906 9.46563 10.015 11 8.58621C11.7214 7.91591 12.5683 7.38674 13.5 7.04572C14.2813 6.75642 15.1237 6.60003 16 6.60003C20.1418 6.60003 23.5 10.0926 23.5 14.4001C23.5 18.7076 20.1418 22.2002 16 22.2002V24.8002C21.5235 24.8002 26 20.1435 26 14.4001C26 8.65677 21.5235 4 16 4Z" fill="#110F23"/>
</g>
<defs>
<clipPath id="clip0_5488_619">
<rect width="32" height="32" fill="white"/>
</clipPath>
</defs>
</svg>
