<svg width="32" height="32" viewBox="0 0 32 32" fill="none" xmlns="http://www.w3.org/2000/svg">
<path d="M7.69995 1.89952L15.8277 11.4222L21.2832 8.21307C21.2832 8.21307 14.7012 -0.589225 12.946 0.0329606C11.2955 0.661696 7.69995 1.89952 7.69995 1.89952Z" fill="black"/>
<path d="M21.4863 8.21293C21.4863 8.21293 22.7242 6.03856 23.3398 3.13721C23.3398 3.13721 29.5158 5.6194 27.1449 11.8347L21.4863 8.21293Z" fill="black"/>
<path d="M27.145 11.8411L27.6624 18.3642L30.0267 18.0564C30.0267 18.0564 30.6424 17.8468 30.5441 16.7138C30.4393 15.4694 30.2363 12.8824 30.2363 12.8824C30.2363 12.8824 30.3411 12.2602 28.9002 12.0572C27.145 11.7363 27.145 11.8411 27.145 11.8411Z" fill="black"/>
<path d="M27.6558 18.3643L22.9207 22.1956L25.0819 26.4396C25.0819 26.4396 25.5993 28.0966 27.1384 26.23C28.5793 24.3634 29.1949 24.0556 29.0901 22.916C28.9984 21.7765 28.6841 19.0847 27.6558 18.3643Z" fill="black"/>
<path d="M22.8224 22.1889L16.3386 19.2876L10.68 30.7817C10.68 30.7817 10.2674 31.6069 11.7082 31.7117C13.1491 31.9212 15.5134 32.4386 16.7512 31.1943C17.989 30.0612 22.8224 22.1889 22.8224 22.1889Z" fill="black"/>
<path d="M16.3385 19.1896L15.7228 11.5269L1.72694 12.4634C1.72694 12.4634 0.901723 12.5682 1.00651 14.1204C1.1113 16.19 1.31433 18.4691 1.31433 18.4691C1.31433 18.4691 1.20954 19.3991 3.063 19.5039C4.91646 19.6022 16.1355 19.6022 16.3385 19.1896Z" fill="black"/>
</svg>
