<svg data-name="Layer 1" xmlns="http://www.w3.org/2000/svg" viewBox="0 0 40 40"><defs><linearGradient id="a" x1="77.417" y1="-1209.178" x2="114.709" y2="-1209.178" gradientTransform="rotate(90 -556.568 -632.61)" gradientUnits="userSpaceOnUse"><stop offset="0" stop-color="#c200fb"/><stop offset=".49" stop-color="#3772ff"/><stop offset=".49" stop-color="#3773fe"/><stop offset="1" stop-color="#5ac4be"/></linearGradient></defs><path d="M37 26.3V13.7a6.001 6.001 0 00-3-5.2L23 2.2a5.867 5.867 0 00-6 0L6 8.5a6.001 6.001 0 00-3 5.2v12.6a6.001 6.001 0 003 5.2l11 6.3a5.867 5.867 0 006 0l11-6.3a6.092 6.092 0 003-5.2z" fill="url(#a)"/><g fill="#fff"><path d="M30.3 16.688v9.26L20 31.893 9.695 25.948V14.052L20 8.1l7.916 4.572 1.194-.69L20 6.724l-11.5 6.64v13.275l11.5 6.64 11.5-6.64V15.998z"/><path d="M17.116 25.954h-1.723v-5.779h5.744a2.068 2.068 0 002.045-2.062 1.97 1.97 0 00-.603-1.442 1.993 1.993 0 00-1.442-.603h-5.744V14.31h5.75a3.826 3.826 0 013.803 3.803 3.693 3.693 0 01-.672 2.154 3.745 3.745 0 01-1.655 1.356 6.633 6.633 0 01-2.056.31h-3.447zM24.906 25.81h-2.01l-1.552-2.705a6.551 6.551 0 001.798-.368zM29.099 14.764l1.189.66 1.189-.66v-1.396l-1.19-.689-1.188.69z"/></g></svg>