<svg width="32" height="32" viewBox="0 0 32 32" fill="none" xmlns="http://www.w3.org/2000/svg">
<g clip-path="url(#clip0_4767_69744)">
<path d="M16 32C24.8366 32 32 24.8366 32 16C32 7.16344 24.8366 0 16 0C7.16344 0 0 7.16344 0 16C0 24.8366 7.16344 32 16 32Z" fill="#3555F9"/>
<path d="M14.3601 6.62695C15.2101 6.46895 16.0801 6.48695 16.9401 6.52995C17.9321 6.64595 18.9261 6.85395 19.8381 7.26395C21.6595 8.02508 23.2034 9.32707 24.2611 10.9939C24.6541 11.5669 24.9181 12.2089 25.1831 12.8459C25.4291 12.4539 25.6491 12.0459 25.8631 11.6359C25.9551 11.4429 26.1481 11.2939 26.3731 11.3039C26.5227 11.2923 26.6711 11.3388 26.7874 11.4338C26.9036 11.5288 26.9787 11.665 26.9971 11.8139C27.0221 12.0539 26.8711 12.2609 26.7721 12.4689C26.4601 13.0989 26.0571 13.6809 25.6401 14.2489C25.5631 14.3309 25.5951 14.4449 25.6041 14.5449C26.0681 17.2819 25.1851 20.1949 23.3041 22.2569C22.2197 23.4622 20.8532 24.3796 19.3271 24.9269C17.5691 25.5419 15.6331 25.6809 13.8151 25.2509C11.1791 24.6799 8.84706 22.9419 7.52106 20.6359C7.23107 20.1689 7.04606 19.6499 6.81706 19.1539C6.56706 19.5389 6.35507 19.9439 6.14207 20.3479C6.09202 20.4481 6.01671 20.5334 5.92358 20.5955C5.83045 20.6576 5.72273 20.6943 5.61107 20.7019C5.23007 20.7019 4.88407 20.2919 5.03707 19.9269C5.36507 19.1729 5.81406 18.4749 6.31706 17.8229C6.42506 17.7099 6.41006 17.5499 6.39006 17.4089C6.20329 16.2056 6.25768 14.9771 6.55007 13.7949C7.32007 10.4709 10.0801 7.69495 13.4251 6.82995C13.7351 6.75695 14.0451 6.67995 14.3601 6.62695ZM11.9981 8.63695C10.2251 9.56895 8.79806 11.1279 8.05806 12.9689C7.63006 14.0809 7.41207 15.2769 7.47807 16.4669C7.66584 16.326 7.84484 16.1737 8.01407 16.0109C9.00907 15.1229 10.1741 14.4349 11.3921 13.8869C13.6551 12.8579 16.1471 12.4149 18.6231 12.2949C17.7861 11.4269 16.8781 10.6259 16.0411 9.75795C16.3051 9.46795 16.5911 9.19995 16.8771 8.93195C17.2021 9.22595 17.5021 9.54495 17.8201 9.84595C18.8501 10.8709 19.9111 11.8659 20.9241 12.9049C19.8441 13.9819 18.7361 15.0319 17.6561 16.1089C17.565 16.1946 17.4696 16.2753 17.3701 16.3509C17.0981 16.0769 16.7821 15.8369 16.5641 15.5159C17.2281 14.8199 17.9841 14.2099 18.6211 13.4889C17.4791 13.5049 16.3431 13.6669 15.2251 13.8889C14.3221 14.0499 13.4541 14.3549 12.5871 14.6459C10.7711 15.3259 9.09606 16.4099 7.81906 17.8599C7.74306 17.9349 7.75407 18.0459 7.77407 18.1399C7.92507 18.7879 8.21007 19.3939 8.52207 19.9799C9.55207 21.8369 11.3321 23.2719 13.3771 23.9199C14.5731 24.2879 15.8491 24.4299 17.0931 24.2569C18.832 24.0385 20.4626 23.2935 21.7661 22.1219C23.6311 20.4779 24.6771 17.9729 24.5161 15.5139C24.3191 15.6669 24.1431 15.8409 23.9591 16.0069C22.7082 17.0831 21.2694 17.9191 19.7151 18.4729C17.6951 19.2229 15.5431 19.6109 13.3881 19.6719C13.5761 19.9179 13.8081 20.1239 14.0271 20.3429C14.6721 20.9709 15.3081 21.6069 15.9631 22.2249C15.7111 22.5219 15.4171 22.7809 15.1391 23.0529C14.8601 22.8259 14.6191 22.5619 14.3591 22.3129C13.3851 21.3689 12.4211 20.4129 11.4491 19.4649C11.3145 19.3425 11.1907 19.2087 11.0791 19.0649C11.5001 18.6129 11.9841 18.2229 12.4151 17.7809C13.1551 17.0659 13.8751 16.3299 14.6241 15.6239C14.9041 15.8959 15.1981 16.1559 15.4471 16.4569C14.7811 17.1469 14.0721 17.7959 13.3971 18.4769C14.1371 18.5139 14.8671 18.3869 15.6011 18.3169C16.1311 18.2609 16.6521 18.1409 17.1751 18.0319C19.8601 17.4119 22.4751 16.1369 24.2771 14.0359C23.5871 11.0519 21.0501 8.59595 18.0311 7.90195C16.0201 7.39095 13.8271 7.68195 11.9981 8.63695Z" fill="white"/>
</g>
<defs>
<clipPath id="clip0_4767_69744">
<rect width="32" height="32" fill="white"/>
</clipPath>
</defs>
</svg>
