<svg width="32" height="32" viewBox="0 0 32 32" fill="none" xmlns="http://www.w3.org/2000/svg">
<g clip-path="url(#clip0_168_16152)">
<path d="M16 32C24.8366 32 32 24.8366 32 16C32 7.16344 24.8366 0 16 0C7.16344 0 0 7.16344 0 16C0 24.8366 7.16344 32 16 32Z" fill="#3555F9"/>
<path d="M14.3599 6.62695C15.2099 6.46895 16.0799 6.48695 16.9399 6.52995C17.9319 6.64595 18.9259 6.85395 19.8379 7.26395C21.6594 8.02508 23.2033 9.32707 24.2609 10.9939C24.6539 11.5669 24.9179 12.2089 25.1829 12.8459C25.4289 12.4539 25.6489 12.0459 25.8629 11.6359C25.9549 11.4429 26.1479 11.2939 26.3729 11.3039C26.5226 11.2923 26.671 11.3388 26.7873 11.4338C26.9035 11.5288 26.9786 11.665 26.9969 11.8139C27.0219 12.0539 26.8709 12.2609 26.7719 12.4689C26.4599 13.0989 26.0569 13.6809 25.6399 14.2489C25.5629 14.3309 25.5949 14.4449 25.6039 14.5449C26.0679 17.2819 25.1849 20.1949 23.3039 22.2569C22.2195 23.4622 20.8531 24.3796 19.3269 24.9269C17.5689 25.5419 15.6329 25.6809 13.8149 25.2509C11.1789 24.6799 8.84694 22.9419 7.52094 20.6359C7.23094 20.1689 7.04594 19.6499 6.81694 19.1539C6.56694 19.5389 6.35494 19.9439 6.14194 20.3479C6.0919 20.4481 6.01659 20.5334 5.92346 20.5955C5.83033 20.6576 5.72261 20.6943 5.61094 20.7019C5.22994 20.7019 4.88394 20.2919 5.03694 19.9269C5.36494 19.1729 5.81394 18.4749 6.31694 17.8229C6.42494 17.7099 6.40994 17.5499 6.38994 17.4089C6.20317 16.2056 6.25756 14.9771 6.54994 13.7949C7.31994 10.4709 10.0799 7.69495 13.4249 6.82995C13.7349 6.75695 14.0449 6.67995 14.3599 6.62695V6.62695ZM11.9979 8.63695C10.2249 9.56895 8.79794 11.1279 8.05794 12.9689C7.62994 14.0809 7.41194 15.2769 7.47794 16.4669C7.66572 16.326 7.84472 16.1737 8.01394 16.0109C9.00894 15.1229 10.1739 14.4349 11.3919 13.8869C13.6549 12.8579 16.1469 12.4149 18.6229 12.2949C17.7859 11.4269 16.8779 10.6259 16.0409 9.75795C16.3049 9.46795 16.5909 9.19995 16.8769 8.93195C17.2019 9.22595 17.5019 9.54495 17.8199 9.84595C18.8499 10.8709 19.9109 11.8659 20.9239 12.9049C19.8439 13.9819 18.7359 15.0319 17.6559 16.1089C17.5649 16.1946 17.4694 16.2753 17.3699 16.3509C17.0979 16.0769 16.7819 15.8369 16.5639 15.5159C17.2279 14.8199 17.9839 14.2099 18.6209 13.4889C17.4789 13.5049 16.3429 13.6669 15.2249 13.8889C14.3219 14.0499 13.4539 14.3549 12.5869 14.6459C10.7709 15.3259 9.09594 16.4099 7.81894 17.8599C7.74294 17.9349 7.75394 18.0459 7.77394 18.1399C7.92494 18.7879 8.20994 19.3939 8.52194 19.9799C9.55194 21.8369 11.3319 23.2719 13.3769 23.9199C14.5729 24.2879 15.8489 24.4299 17.0929 24.2569C18.8319 24.0385 20.4625 23.2935 21.7659 22.1219C23.6309 20.4779 24.6769 17.9729 24.5159 15.5139C24.3189 15.6669 24.1429 15.8409 23.9589 16.0069C22.7081 17.0831 21.2693 17.9191 19.7149 18.4729C17.6949 19.2229 15.5429 19.6109 13.3879 19.6719C13.5759 19.9179 13.8079 20.1239 14.0269 20.3429C14.6719 20.9709 15.3079 21.6069 15.9629 22.2249C15.7109 22.5219 15.4169 22.7809 15.1389 23.0529C14.8599 22.8259 14.6189 22.5619 14.3589 22.3129C13.3849 21.3689 12.4209 20.4129 11.4489 19.4649C11.3144 19.3425 11.1906 19.2087 11.0789 19.0649C11.4999 18.6129 11.9839 18.2229 12.4149 17.7809C13.1549 17.0659 13.8749 16.3299 14.6239 15.6239C14.9039 15.8959 15.1979 16.1559 15.4469 16.4569C14.7809 17.1469 14.0719 17.7959 13.3969 18.4769C14.1369 18.5139 14.8669 18.3869 15.6009 18.3169C16.1309 18.2609 16.6519 18.1409 17.1749 18.0319C19.8599 17.4119 22.4749 16.1369 24.2769 14.0359C23.5869 11.0519 21.0499 8.59595 18.0309 7.90195C16.0199 7.39095 13.8269 7.68195 11.9979 8.63695V8.63695Z" fill="white"/>
</g>
<defs>
<clipPath id="clip0_168_16152">
<rect width="32" height="32" fill="white"/>
</clipPath>
</defs>
</svg>
