<svg width="32" height="32" viewBox="0 0 32 32" fill="none" xmlns="http://www.w3.org/2000/svg">
<g clip-path="url(#clip0_4767_67887)">
<path d="M16 32C24.8366 32 32 24.8366 32 16C32 7.16344 24.8366 0 16 0C7.16344 0 0 7.16344 0 16C0 24.8366 7.16344 32 16 32Z" fill="url(#paint0_linear_4767_67887)"/>
<path d="M9.00005 9.3L10.7 8.4L10.9 8.8L17.1 5.2L16.7 4.9L16.2 4.6L16 4.5L5.80005 10.4V10.6L8.70005 9L9.00005 9.3ZM9.00005 13.1L13.9 10.2L14.1 10.6L20.4 7L19.9 6.7L19.4 6.5L19.2 6.4L5.80005 14.1V14.3L8.70005 12.7L9.00005 13.1ZM9.00005 14.9L15.5 11.2L15.7 11.5L22 7.9L21.5 7.7L21 7.4L20.8 7.3L5.80005 15.9V16.2L8.70005 14.5L9.00005 14.9ZM9.00005 16.7L17.1 12.1L17.3 12.4L23.6 8.9L23.1 8.6L22.6 8.3L22.4 8.2L5.80005 17.8V18L8.70005 16.4L9.00005 16.7ZM9.00005 18.6L18.7 13L18.9 13.4L25.2001 9.8L24.7001 9.5L24.3 9.3L24 9.1L5.80005 19.6V19.9L8.70005 18.2L9.00005 18.6ZM25.8 10.2L25.6 10L5.80005 21.5V21.7L8.70005 20.1L9.00005 20.5L18.7 14.8L18.9 15.2L26.2001 11.1V10.4L25.8 10.2ZM7.10005 22.9L8.70005 21.9L8.90005 22.3L18.7 16.7L18.9 17.1L26.2001 12.9V11.6L6.80005 22.7L7.10005 22.9ZM18.7 18.6L18.9 19L26.2001 14.7V13.4L8.40005 23.7L8.70005 23.8L10.3 22.8L10.6 23.2M10.3 24.7L12 23.8L12.2 24.2L18.7 20.4L18.9 20.8L26.2001 16.6V15.3L10 24.6L10.3 24.7ZM11.9 25.6L13.6 24.7L13.8 25.1L18.7 22.3L18.9 22.7L26.2001 18.5V17.1L11.6 25.5L11.9 25.6ZM13.2 26.4L13.5 26.6L15.2 25.6L15.4 26L18.7 24.1L18.9 24.5L26.2001 20.3V19L13.2 26.4ZM15.1 27.5L16.7 26.5L17 26.9L18.7 26L18.9 26.4L26.2001 22.2V20.8L14.9 27.4L15.1 27.5ZM18.8 6.1L18.3 5.8L17.8 5.6L17.6 5.4L5.80005 12.2V12.5L8.70005 10.8L9.00005 11.2L12.3 9.3L12.5 9.7L18.8 6.1Z" fill="white"/>
</g>
<defs>
<linearGradient id="paint0_linear_4767_67887" x1="0" y1="16" x2="32" y2="16" gradientUnits="userSpaceOnUse">
<stop stop-color="#001C3A"/>
<stop offset="0.6" stop-color="#001E3D"/>
<stop offset="0.7" stop-color="#001F3F"/>
<stop offset="1" stop-color="#002042"/>
</linearGradient>
<clipPath id="clip0_4767_67887">
<rect width="32" height="32" fill="white"/>
</clipPath>
</defs>
</svg>
