<svg width="32" height="32" viewBox="0 0 32 32" fill="none" xmlns="http://www.w3.org/2000/svg">
<g clip-path="url(#clip0_171_16352)">
<path d="M16 32C24.8366 32 32 24.8366 32 16C32 7.16344 24.8366 0 16 0C7.16344 0 0 7.16344 0 16C0 24.8366 7.16344 32 16 32Z" fill="#0E0E21"/>
<path d="M24.9334 19.7331L23.0334 16.4998C22.9667 16.3665 22.8001 16.3331 22.7001 16.4331L21.4667 17.2331C21.3667 17.2998 21.3334 17.4665 21.4001 17.5665L22.5001 19.3998C22.5334 19.4665 22.5001 19.5331 22.4667 19.5665L16.0667 23.6998C16.0334 23.7331 15.9667 23.7331 15.9334 23.6998L9.60005 19.5665C9.53339 19.5331 9.53339 19.4665 9.56672 19.3998L10.6667 17.5665C10.7334 17.4665 10.7001 17.2998 10.6001 17.2331L9.36672 16.4331C9.23339 16.3665 9.10005 16.3998 9.03339 16.4998L7.13339 19.7331C7.00005 19.9665 7.06672 20.2665 7.30005 20.3998L15.8001 25.9331C15.9667 26.0331 16.1667 26.0331 16.3334 25.9331L24.8334 20.3998C25.0001 20.2331 25.0667 19.9331 24.9334 19.7331Z" fill="white"/>
<path d="M10.3 14.7L11.5333 15.5C11.6666 15.5667 11.8 15.5333 11.8666 15.4333L15.8666 8.63333C15.9 8.56667 16.0333 8.56667 16.0666 8.63333L20.0666 15.4333C20.1333 15.5667 20.3 15.6 20.4 15.5L21.6333 14.7C21.7333 14.6333 21.7666 14.4667 21.7 14.3667L17 6.23333C16.9 6.06667 16.7666 6 16.5666 6H15.4333C15.2666 6 15.1 6.1 15 6.23333L10.2333 14.3667C10.1666 14.4667 10.2 14.6333 10.3 14.7Z" fill="#2AE7A8"/>
</g>
<defs>
<clipPath id="clip0_171_16352">
<rect width="32" height="32" fill="white"/>
</clipPath>
</defs>
</svg>
