<svg width="32" height="32" viewBox="0 0 32 32" fill="none" xmlns="http://www.w3.org/2000/svg">
<g clip-path="url(#clip0_4767_68350)">
<path d="M16 32C24.8366 32 32 24.8366 32 16C32 7.16344 24.8366 0 16 0C7.16344 0 0 7.16344 0 16C0 24.8366 7.16344 32 16 32Z" fill="#0E0E21"/>
<path d="M24.9334 19.7334L23.0334 16.5001C22.9667 16.3667 22.8001 16.3334 22.7001 16.4334L21.4667 17.2334C21.3667 17.3001 21.3334 17.4667 21.4001 17.5667L22.5001 19.4001C22.5334 19.4667 22.5001 19.5334 22.4667 19.5667L16.0667 23.7001C16.0334 23.7334 15.9667 23.7334 15.9334 23.7001L9.60005 19.5667C9.53339 19.5334 9.53339 19.4667 9.56672 19.4001L10.6667 17.5667C10.7334 17.4667 10.7001 17.3001 10.6001 17.2334L9.36672 16.4334C9.23339 16.3667 9.10005 16.4001 9.03339 16.5001L7.13339 19.7334C7.00005 19.9667 7.06672 20.2667 7.30005 20.4001L15.8001 25.9334C15.9667 26.0334 16.1667 26.0334 16.3334 25.9334L24.8334 20.4001C25.0001 20.2334 25.0667 19.9334 24.9334 19.7334Z" fill="white"/>
<path d="M10.3001 14.7L11.5334 15.5C11.6667 15.5667 11.8001 15.5333 11.8667 15.4333L15.8667 8.63333C15.9001 8.56667 16.0334 8.56667 16.0667 8.63333L20.0667 15.4333C20.1334 15.5667 20.3001 15.6 20.4001 15.5L21.6334 14.7C21.7334 14.6333 21.7667 14.4667 21.7001 14.3667L17.0001 6.23333C16.9001 6.06667 16.7667 6 16.5667 6H15.4334C15.2667 6 15.1001 6.1 15.0001 6.23333L10.2334 14.3667C10.1667 14.4667 10.2001 14.6333 10.3001 14.7Z" fill="#2AE7A8"/>
</g>
<defs>
<clipPath id="clip0_4767_68350">
<rect width="32" height="32" fill="white"/>
</clipPath>
</defs>
</svg>
