<svg width="32" height="32" viewBox="0 0 32 32" fill="none" xmlns="http://www.w3.org/2000/svg">
<g clip-path="url(#clip0_4774_63753)">
<path fill-rule="evenodd" clip-rule="evenodd" d="M21.054 14.2098H20.8436C19.7914 14.3143 19.0527 15.1575 19.1587 16.2096C19.1587 16.4215 19.0542 16.7364 18.8423 16.8424C18.7378 16.9469 18.6318 16.9469 18.4214 16.9469C18.3645 16.9539 18.3067 16.9482 18.2522 16.9301C18.1977 16.9121 18.148 16.8821 18.1065 16.8424C17.7972 16.629 17.4286 16.5183 17.0529 16.526H16.8425C15.7889 16.632 15.0516 17.4737 15.1576 18.5273C15.1576 18.8422 15.0516 19.0541 14.8412 19.1586C14.7367 19.2645 14.6308 19.2645 14.4204 19.2645C14.3631 19.2716 14.3049 19.2658 14.2501 19.2474C14.1954 19.2291 14.1455 19.1987 14.104 19.1586C13.8261 18.963 13.496 18.8554 13.1563 18.8496C12.9071 18.8488 12.6601 18.8974 12.4297 18.9924C12.1993 19.0875 11.99 19.2272 11.8138 19.4035C11.6377 19.5798 11.4981 19.7893 11.4032 20.0198C11.3084 20.2502 11.26 20.4972 11.261 20.7464C11.26 20.9956 11.3084 21.2425 11.4033 21.4729C11.4982 21.7033 11.6377 21.9126 11.8139 22.0888C11.9901 22.265 12.1995 22.4046 12.4298 22.4995C12.6602 22.5944 12.9071 22.6428 13.1563 22.6418H13.3667C13.7974 22.5944 14.199 22.4017 14.5053 22.0954C14.8116 21.7891 15.0043 21.3875 15.0516 20.9569V20.6405C15.0516 20.4301 15.1576 20.1137 15.368 20.0092C15.474 19.9033 15.5784 19.9033 15.7889 19.9033C15.8462 19.8962 15.9043 19.902 15.9591 19.9203C16.0138 19.9387 16.0638 19.969 16.1053 20.0092C16.4144 20.2227 16.7832 20.3329 17.1589 20.3241H17.3693C17.8 20.2771 18.2018 20.0844 18.5081 19.778C18.8145 19.4717 19.0071 19.0699 19.0542 18.6392V18.3243C19.0542 18.0079 19.1592 17.797 19.3691 17.6916C19.475 17.5871 19.5795 17.5871 19.7914 17.5871C19.8484 17.58 19.9062 17.5857 19.9606 17.6038C20.0151 17.6219 20.0649 17.6519 20.1063 17.6916C20.4156 17.9049 20.7842 18.0156 21.1599 18.0079C21.4091 18.0089 21.656 17.9606 21.8864 17.8657C22.1168 17.7708 22.3261 17.6312 22.5023 17.455C22.6785 17.2788 22.8181 17.0695 22.913 16.8391C23.0079 16.6087 23.0562 16.3618 23.0553 16.1126C22.9493 15.059 22.1076 14.2173 21.054 14.2173" fill="#FCD15A"/>
<path fill-rule="evenodd" clip-rule="evenodd" d="M21.054 14.2098H20.8436C19.7914 14.3143 19.0527 15.1575 19.1587 16.2096C19.1587 16.4215 19.0542 16.7364 18.8423 16.8424C18.7378 16.9469 18.6318 16.9469 18.4214 16.9469C18.3645 16.9539 18.3067 16.9482 18.2522 16.9301C18.1977 16.9121 18.148 16.8821 18.1065 16.8424C17.7972 16.629 17.4286 16.5183 17.0529 16.526H16.8425C15.7889 16.632 15.0516 17.4737 15.1576 18.5273C15.1576 18.8422 15.0516 19.0541 14.8412 19.1586C14.7367 19.2645 14.6308 19.2645 14.4204 19.2645C14.3631 19.2716 14.3049 19.2658 14.2501 19.2474C14.1954 19.2291 14.1455 19.1987 14.104 19.1586C13.8261 18.963 13.496 18.8554 13.1563 18.8496C12.9071 18.8488 12.6601 18.8974 12.4297 18.9924C12.1993 19.0875 11.99 19.2272 11.8138 19.4035C11.6377 19.5798 11.4981 19.7893 11.4032 20.0198C11.3084 20.2502 11.26 20.4972 11.261 20.7464C11.26 20.9956 11.3084 21.2425 11.4033 21.4729C11.4982 21.7033 11.6377 21.9126 11.8139 22.0888C11.9901 22.265 12.1995 22.4046 12.4298 22.4995C12.6602 22.5944 12.9071 22.6428 13.1563 22.6418H13.3667C13.7974 22.5944 14.199 22.4017 14.5053 22.0954C14.8116 21.7891 15.0043 21.3875 15.0516 20.9569V20.6405C15.0516 20.4301 15.1576 20.1137 15.368 20.0092C15.474 19.9033 15.5784 19.9033 15.7889 19.9033C15.8462 19.8962 15.9043 19.902 15.9591 19.9203C16.0138 19.9387 16.0638 19.969 16.1053 20.0092C16.4144 20.2227 16.7832 20.3329 17.1589 20.3241H17.3693C17.8 20.2771 18.2018 20.0844 18.5081 19.778C18.8145 19.4717 19.0071 19.0699 19.0542 18.6392V18.3243C19.0542 18.0079 19.1592 17.797 19.3691 17.6916C19.475 17.5871 19.5795 17.5871 19.7914 17.5871C19.8484 17.58 19.9062 17.5857 19.9606 17.6038C20.0151 17.6219 20.0649 17.6519 20.1063 17.6916C20.4156 17.9049 20.7842 18.0156 21.1599 18.0079C21.4091 18.0089 21.656 17.9606 21.8864 17.8657C22.1168 17.7708 22.3261 17.6312 22.5023 17.455C22.6785 17.2788 22.8181 17.0695 22.913 16.8391C23.0079 16.6087 23.0562 16.3618 23.0553 16.1126C22.9493 15.059 22.1076 14.2173 21.054 14.2173" fill="#FCD15A"/>
<path fill-rule="evenodd" clip-rule="evenodd" d="M17.0589 11.7877H16.8485C15.7948 11.8922 15.0576 12.7354 15.1636 13.789C15.1636 14.1034 15.0581 14.3138 14.8472 14.4203C14.7427 14.5248 14.6368 14.5248 14.4263 14.5248C14.3692 14.5318 14.3111 14.5261 14.2564 14.5081C14.2017 14.49 14.1517 14.46 14.1099 14.4203C13.8036 14.2078 13.4381 14.0971 13.0653 14.1039H12.8399C12.3775 14.163 11.9521 14.3875 11.6424 14.7359C11.3327 15.0843 11.1596 15.5331 11.155 15.9992C11.1541 16.2485 11.2025 16.4956 11.2974 16.726C11.3924 16.9565 11.5321 17.1659 11.7085 17.3422C11.8848 17.5184 12.0944 17.6579 12.3249 17.7527C12.5555 17.8475 12.8026 17.8957 13.0519 17.8945H13.2623C13.693 17.8475 14.0947 17.6549 14.4011 17.3485C14.7075 17.0421 14.9001 16.6404 14.9472 16.2097V15.8948C14.9472 15.5764 15.0541 15.3675 15.268 15.268C15.374 15.1635 15.48 15.1635 15.6904 15.1635C15.7473 15.1564 15.8051 15.1622 15.8596 15.1802C15.9141 15.1983 15.9638 15.2283 16.0053 15.268C16.3148 15.4803 16.6837 15.5889 17.0589 15.5784H17.2693C17.7318 15.5196 18.1574 15.2952 18.4672 14.9467C18.777 14.5982 18.95 14.1493 18.9542 13.6831C18.9554 13.4338 18.9072 13.1868 18.8123 12.9564C18.7175 12.7259 18.578 12.5165 18.4017 12.3402C18.2255 12.164 18.0161 12.0244 17.7856 11.9296C17.5551 11.8348 17.3081 11.7866 17.0589 11.7877Z" fill="#FCD15A"/>
<path fill-rule="evenodd" clip-rule="evenodd" d="M17.0589 11.7877H16.8485C15.7948 11.8922 15.0576 12.7354 15.1636 13.789C15.1636 14.1034 15.0581 14.3138 14.8472 14.4203C14.7427 14.5248 14.6368 14.5248 14.4263 14.5248C14.3692 14.5318 14.3111 14.5261 14.2564 14.5081C14.2017 14.49 14.1517 14.46 14.1099 14.4203C13.8036 14.2078 13.4381 14.0971 13.0653 14.1039H12.8399C12.3775 14.163 11.9521 14.3875 11.6424 14.7359C11.3327 15.0843 11.1596 15.5331 11.155 15.9992C11.1541 16.2485 11.2025 16.4956 11.2974 16.726C11.3924 16.9565 11.5321 17.1659 11.7085 17.3422C11.8848 17.5184 12.0944 17.6579 12.3249 17.7527C12.5555 17.8475 12.8026 17.8957 13.0519 17.8945H13.2623C13.693 17.8475 14.0947 17.6549 14.4011 17.3485C14.7075 17.0421 14.9001 16.6404 14.9472 16.2097V15.8948C14.9472 15.5764 15.0541 15.3675 15.268 15.268C15.374 15.1635 15.48 15.1635 15.6904 15.1635C15.7473 15.1564 15.8051 15.1622 15.8596 15.1802C15.9141 15.1983 15.9638 15.2283 16.0053 15.268C16.3148 15.4803 16.6837 15.5889 17.0589 15.5784H17.2693C17.7318 15.5196 18.1574 15.2952 18.4672 14.9467C18.777 14.5982 18.95 14.1493 18.9542 13.6831C18.9554 13.4338 18.9072 13.1868 18.8123 12.9564C18.7175 12.7259 18.578 12.5165 18.4017 12.3402C18.2255 12.164 18.0161 12.0244 17.7856 11.9296C17.5551 11.8348 17.3081 11.7866 17.0589 11.7877Z" fill="#FCD15A"/>
<path fill-rule="evenodd" clip-rule="evenodd" d="M16.1052 0.941162C7.78669 0.941162 0.941162 7.68073 0.941162 15.9992C0.941162 24.3192 7.78669 31.0588 16.1052 31.0588C18.1259 31.0386 20.1252 30.6434 22.0016 29.8933C27.5831 27.5771 31.2692 22.1016 31.2692 16.0992C31.3737 7.68073 24.5297 0.941162 16.1052 0.941162ZM5.36009 15.8948C5.36009 9.9969 10.2028 5.25861 16.1052 5.25861C18.9506 5.26805 21.6764 6.404 23.6865 8.41797C25.6877 10.4192 26.8458 13.1563 26.8458 15.8948C26.8458 21.7912 22.0016 26.5294 16.1007 26.5294C10.2028 26.5294 5.35561 21.7912 5.35561 15.8948H5.36009Z" fill="#FCD15A"/>
<path fill-rule="evenodd" clip-rule="evenodd" d="M16.1052 0.941162C7.78669 0.941162 0.941162 7.68073 0.941162 15.9992C0.941162 24.3192 7.78669 31.0588 16.1052 31.0588C18.1259 31.0386 20.1252 30.6434 22.0016 29.8933C27.5831 27.5771 31.2692 22.1016 31.2692 16.0992C31.3737 7.68073 24.5297 0.941162 16.1052 0.941162ZM5.36009 15.8948C5.36009 9.9969 10.2028 5.25861 16.1052 5.25861C18.9506 5.26805 21.6764 6.404 23.6865 8.41797C25.6877 10.4192 26.8458 13.1563 26.8458 15.8948C26.8458 21.7912 22.0016 26.5294 16.1007 26.5294C10.2028 26.5294 5.35561 21.7912 5.35561 15.8948H5.36009Z" fill="#FCD15A"/>
<path d="M14.4621 12.4758L14.38 12.0788H14.389C14.4218 12.066 14.4517 12.0468 14.477 12.0223C14.5023 11.9978 14.5225 11.9685 14.5364 11.9362C14.5502 11.9038 14.5576 11.869 14.5579 11.8338C14.5582 11.7986 14.5515 11.7637 14.5382 11.7311L14.8456 11.5281C14.8621 11.5446 14.8785 11.552 14.8859 11.5684L14.5054 12.4847C14.4927 12.479 14.479 12.4759 14.4651 12.4758M14.4726 11.0252L14.78 11.2282C14.7563 11.2937 14.7563 11.3656 14.78 11.4311L14.4726 11.6326C14.4261 11.5861 14.3643 11.5581 14.2987 11.5537C14.2331 11.5493 14.1681 11.5689 14.1159 11.6087L13.9547 11.4595C13.9824 11.419 13.9971 11.3712 13.9971 11.3222C13.9971 11.2732 13.9824 11.2253 13.9547 11.1849L14.1159 11.0357C14.1633 11.0701 14.2199 11.0899 14.2785 11.0924C14.3143 11.0956 14.3503 11.0908 14.384 11.0781C14.4176 11.0654 14.4479 11.0453 14.4726 11.0192M13.6861 10.3551L13.7353 10.3312L14.0681 10.6715C14.0412 10.7068 14.024 10.7485 14.0182 10.7925C14.0125 10.8365 14.0184 10.8812 14.0353 10.9222C14.0353 10.9386 14.0353 10.9461 14.0517 10.9625L13.889 11.1118C13.8433 11.0778 13.7878 11.0595 13.7308 11.0595C13.6739 11.0595 13.6184 11.0778 13.5726 11.1118L13.2981 10.8357C13.3302 10.7888 13.3467 10.7329 13.3451 10.676C13.3435 10.6192 13.3239 10.5643 13.2891 10.5193L13.4383 10.3417C13.4736 10.3652 13.5141 10.3797 13.5562 10.3838C13.5984 10.388 13.6409 10.3817 13.6801 10.3656M14.5218 10.9401C14.5351 10.9075 14.5418 10.8726 14.5415 10.8374C14.5411 10.8022 14.5338 10.7674 14.5199 10.7351C14.5061 10.7027 14.4859 10.6734 14.4606 10.6489C14.4353 10.6244 14.4054 10.6052 14.3726 10.5924L14.4532 10.179C14.4689 10.1827 14.4852 10.1827 14.5009 10.179L14.874 11.1192C14.8576 11.1192 14.8412 11.1431 14.8262 11.1506L14.5218 10.9401ZM11.8116 10.2074C11.8445 10.191 11.9415 10.1417 11.9609 10.0581L12.325 10.1313C12.3267 10.1835 12.3405 10.2346 12.3653 10.2805L12.034 10.6133C11.9904 10.5822 11.9383 10.565 11.8848 10.5641L11.8116 10.2074ZM13.7965 10.2641C13.8298 10.2137 13.8469 10.1543 13.8458 10.094L14.2024 10.0134C14.2159 10.0457 14.2362 10.0747 14.262 10.0984C14.2877 10.1221 14.3183 10.14 14.3517 10.1507L14.2696 10.5641C14.2342 10.5651 14.1991 10.5706 14.1651 10.5805C14.1503 10.5858 14.1366 10.5939 14.1248 10.6044L13.7965 10.2641ZM13.1787 9.62386L13.3906 9.92234C13.3467 9.96877 13.321 10.0294 13.318 10.0932C13.3149 10.1569 13.3349 10.2197 13.3742 10.2701L13.2249 10.4491C13.183 10.4249 13.1353 10.4122 13.0869 10.4122C13.0384 10.4122 12.9908 10.4249 12.9488 10.4491L12.8115 10.2999C12.8512 10.2475 12.8705 10.1824 12.8658 10.1168C12.8612 10.0512 12.8329 9.98954 12.7862 9.94323L12.9891 9.63431C13.0149 9.64405 13.0421 9.6496 13.0697 9.65073C13.1089 9.65179 13.1477 9.64361 13.1831 9.62685M11.9892 9.96711V9.91786L12.8563 9.53731C12.8727 9.55372 12.8891 9.5776 12.9041 9.59402L12.6877 9.89548C12.655 9.88195 12.6199 9.87508 12.5846 9.87528C12.5492 9.87548 12.5142 9.88275 12.4817 9.89665C12.4491 9.91055 12.4197 9.93081 12.3951 9.95623C12.3705 9.98166 12.3513 10.0117 12.3385 10.0447L11.9892 9.96711ZM13.2697 9.57014C13.2833 9.55594 13.2939 9.53921 13.301 9.52089L14.1965 9.86115V9.91786L13.8398 10.0074C13.8264 9.97339 13.8061 9.94252 13.7802 9.91675C13.7543 9.89098 13.7233 9.87087 13.6892 9.85768C13.6552 9.8445 13.6187 9.83853 13.5822 9.84015C13.5457 9.84178 13.5099 9.85096 13.4771 9.86712L13.2697 9.57014ZM13.0742 9.12242C13.0127 9.12371 12.9536 9.14605 12.9066 9.1857C12.8596 9.22536 12.8276 9.27993 12.816 9.34031C12.807 9.37809 12.807 9.41745 12.816 9.45522L11.9489 9.82683C11.9373 9.80948 11.9238 9.79346 11.9086 9.77907C11.8572 9.73336 11.7903 9.709 11.7215 9.71096C11.6527 9.71291 11.5873 9.74104 11.5386 9.78959C11.4898 9.83814 11.4614 9.90347 11.4592 9.97224C11.457 10.041 11.4811 10.108 11.5266 10.1596C11.5356 10.1596 11.543 10.176 11.552 10.176C11.3363 10.455 11.2039 10.7892 11.1699 11.1401V11.3341C11.1699 11.8487 11.3743 12.3421 11.7382 12.706C12.102 13.0698 12.5955 13.2742 13.11 13.2742C13.1749 13.2725 13.2397 13.267 13.304 13.2578C13.6658 13.2195 14.0091 13.0787 14.2935 12.8519C14.2935 12.8608 14.3009 12.8608 14.3009 12.8683C14.3439 12.9112 14.4021 12.9354 14.4629 12.9354C14.5236 12.9354 14.5818 12.9112 14.6248 12.8683C14.6677 12.8253 14.6918 12.7671 14.6918 12.7064C14.6918 12.6456 14.6677 12.5874 14.6248 12.5444C14.6161 12.5344 14.6054 12.5262 14.5934 12.5206L14.974 11.6042C15.0085 11.6143 15.0447 11.6173 15.0804 11.6131C15.116 11.6088 15.1505 11.5974 15.1817 11.5795C15.2128 11.5616 15.2401 11.5377 15.2618 11.509C15.2835 11.4804 15.2992 11.4476 15.3079 11.4128C15.3166 11.3779 15.3183 11.3416 15.3126 11.3061C15.307 11.2706 15.2943 11.2366 15.2753 11.2062C15.2562 11.1757 15.2312 11.1494 15.2018 11.1288C15.1723 11.1082 15.139 11.0938 15.1038 11.0864H15.0949C15.0743 11.0791 15.0525 11.076 15.0307 11.0774C15.0138 11.0761 14.9968 11.0792 14.9815 11.0864L14.6098 10.1462C14.6662 10.1062 14.7051 10.0463 14.7189 9.97865C14.7326 9.91097 14.72 9.84061 14.6837 9.78188C14.6474 9.72314 14.5901 9.68044 14.5234 9.66245C14.4567 9.64447 14.3857 9.65255 14.3248 9.68505C14.2881 9.70598 14.2577 9.73639 14.2368 9.7731L13.3413 9.43284C13.3482 9.39879 13.3482 9.36371 13.3413 9.32966C13.3344 9.29562 13.3207 9.26331 13.3011 9.23464C13.2815 9.20598 13.2563 9.18154 13.2271 9.16278C13.1978 9.14401 13.1651 9.13131 13.1309 9.12541C13.1145 9.12541 13.0981 9.11646 13.0817 9.11646L13.0742 9.12242Z" fill="#FCD15A"/>
</g>
<defs>
<clipPath id="clip0_4774_63753">
<rect width="32" height="32" fill="white"/>
</clipPath>
</defs>
</svg>
