<svg width="32" height="32" viewBox="0 0 32 32" fill="none" xmlns="http://www.w3.org/2000/svg">
<g clip-path="url(#clip0_171_16365)">
<path d="M16 32C24.8366 32 32 24.8366 32 16C32 7.16344 24.8366 0 16 0C7.16344 0 0 7.16344 0 16C0 24.8366 7.16344 32 16 32Z" fill="#FFD800"/>
<path fill-rule="evenodd" clip-rule="evenodd" d="M23.683 12.886C23.74 12.829 23.853 12.829 23.964 12.829C25.651 12.829 27 14.257 27 15.972C27 17.572 25.82 18.829 24.302 19.114H23.964C23.402 19.114 22.84 18.943 22.334 18.657C22.1698 18.5414 21.9728 18.4814 21.772 18.486C21.547 18.486 21.322 18.543 21.154 18.657C20.76 18.886 20.592 19.286 20.592 19.743V20.257C20.5327 20.9629 20.2319 21.6268 19.7403 22.1369C19.2487 22.6469 18.5963 22.9719 17.893 23.057H17.556C16.994 23.057 16.432 22.886 15.926 22.6C15.701 22.486 15.533 22.429 15.308 22.429C15.083 22.429 14.858 22.486 14.689 22.6C14.296 22.829 14.127 23.229 14.127 23.686V24.2C14.015 25.686 12.834 26.829 11.373 27H11.092C9.405 27 8.056 25.571 8.056 23.857C8.112 22.257 9.236 20.943 10.754 20.771H11.092C11.654 20.771 12.216 20.943 12.722 21.229C12.8862 21.3446 13.0832 21.4046 13.284 21.4C13.509 21.4 13.734 21.343 13.902 21.229C14.296 21 14.464 20.6 14.464 20.143C14.352 18.486 15.533 17 17.163 16.829H17.5C18.062 16.829 18.624 17 19.13 17.286C19.355 17.4 19.524 17.457 19.749 17.457C19.973 17.457 20.199 17.4 20.367 17.286C20.76 17.057 20.929 16.657 20.929 16.2C20.817 14.543 22.053 13.057 23.683 12.886V12.886ZM17.22 8.943C17.332 8.886 17.389 8.886 17.557 8.886C19.244 8.886 20.593 10.314 20.593 12.029C20.537 13.629 19.413 14.943 17.894 15.114H17.557C16.995 15.114 16.433 14.943 15.927 14.657C15.7628 14.5414 15.5658 14.4814 15.365 14.486C15.14 14.486 14.915 14.543 14.747 14.657C14.353 14.886 14.184 15.286 14.184 15.743V16.257C14.072 17.742 12.892 18.885 11.43 19.057H11.149C9.463 19.057 8.113 17.629 8.113 15.914C8.113 14.372 9.238 13.114 10.755 12.886H11.093C11.655 12.886 12.217 13.057 12.723 13.343C12.8872 13.4586 13.0842 13.5186 13.285 13.514C13.51 13.514 13.735 13.457 13.903 13.343C14.297 13.114 14.465 12.714 14.465 12.257C14.353 10.6 15.59 9.114 17.22 8.943V8.943ZM11.036 5C12.712 5 14.071 6.382 14.071 8.086C14.071 9.79 12.711 11.171 11.036 11.171C9.359 11.171 8 9.79 8 8.086C8 6.382 9.36 5 11.036 5Z" fill="white"/>
</g>
<defs>
<clipPath id="clip0_171_16365">
<rect width="32" height="32" fill="white"/>
</clipPath>
</defs>
</svg>
