<svg width="32" height="32" viewBox="0 0 32 32" fill="none" xmlns="http://www.w3.org/2000/svg">
<g clip-path="url(#clip0_4767_68037)">
<path fill-rule="evenodd" clip-rule="evenodd" d="M16.0007 31.9995C24.8135 31.9995 32.0007 24.8123 32.0007 15.9995C32.0007 7.18831 24.8135 -0.000488281 16.0007 -0.000488281C7.18953 -0.000488281 0.000732689 7.18831 0.000732689 15.9995C-0.000867311 24.8123 7.18793 31.9995 16.0007 31.9995Z" fill="black"/>
<path fill-rule="evenodd" clip-rule="evenodd" d="M11.8967 7.70679H14.2007C14.2887 7.70679 14.3591 7.77879 14.3591 7.86679V11.2332C14.3591 11.3228 14.4311 11.3932 14.5191 11.3932H17.4775C17.5655 11.3932 17.6375 11.3228 17.6375 11.2332V7.86679C17.6375 7.77879 17.7079 7.70679 17.7975 7.70679H20.0999C20.1879 7.70679 20.2599 7.77879 20.2599 7.86679V11.2332C20.2599 11.3228 20.3303 11.3932 20.4199 11.3932H23.2359C23.3255 11.3932 23.3959 11.4652 23.3959 11.5532V13.8508C23.3959 13.9404 23.3255 14.0108 23.2359 14.0108H20.4199C20.3303 14.0108 20.2599 14.0828 20.2599 14.1708V17.7468C20.2599 17.8348 20.3303 17.9068 20.4199 17.9068H23.2359C23.3255 17.9068 23.3959 17.9772 23.3959 18.0668V20.3644C23.3959 20.4524 23.3255 20.5244 23.2359 20.5244H20.4199C20.3303 20.5244 20.2599 20.5964 20.2599 20.6844V24.0508C20.2599 24.1388 20.1879 24.2108 20.0999 24.2108H17.7975C17.7079 24.2108 17.6375 24.1388 17.6375 24.0508V20.6844C17.6375 20.5948 17.5655 20.5244 17.4775 20.5244H14.5207C14.4327 20.5244 14.3607 20.5964 14.3607 20.6844V24.0508C14.3607 24.1388 14.2903 24.2108 14.2023 24.2108H11.8983C11.8103 24.2108 11.7383 24.1388 11.7383 24.0508V20.6844C11.7383 20.5948 11.6679 20.5244 11.5783 20.5244H8.76229C8.67269 20.5244 8.60229 20.4524 8.60229 20.3644V18.0668C8.60229 17.9772 8.67269 17.9068 8.76229 17.9068H11.5783C11.6679 17.9068 11.7383 17.8348 11.7383 17.7468V14.1708C11.7383 14.0828 11.6679 14.0108 11.5783 14.0108H8.76229C8.67269 14.0108 8.60229 13.9404 8.60229 13.8508V11.5532C8.60229 11.4652 8.67269 11.3932 8.76229 11.3932H11.5783C11.6679 11.3932 11.7383 11.3228 11.7383 11.2332V7.86679C11.7351 7.77879 11.8087 7.70679 11.8967 7.70679ZM17.6391 17.7484V14.1708C17.6391 14.0828 17.5671 14.0108 17.4791 14.0108H14.5207C14.4327 14.0108 14.3607 14.0828 14.3607 14.1708V17.7468C14.3607 17.8348 14.4327 17.9068 14.5207 17.9068H17.4791C17.5671 17.9084 17.6391 17.8348 17.6391 17.7484Z" fill="white"/>
</g>
<defs>
<clipPath id="clip0_4767_68037">
<rect width="32" height="32" fill="white"/>
</clipPath>
</defs>
</svg>
