<svg width="32" height="32" viewBox="0 0 32 32" fill="none" xmlns="http://www.w3.org/2000/svg">
    <g clip-path="url(#clip0_5851_6682)">
        <g clip-path="url(#clip1_5851_6682)">
            <path fill-rule="evenodd" clip-rule="evenodd"
                d="M32 16C32 24.837 24.837 32 16 32C7.163 32 0 24.837 0 16C0 7.163 7.163 0 16 0C24.837 0 32 7.163 32 16ZM21.973 12.062H16.636C16.6176 11.8229 16.5325 11.5937 16.3902 11.4006C16.2479 11.2075 16.0542 11.0583 15.8312 10.97C15.6082 10.8816 15.3649 10.8577 15.1289 10.901C14.893 10.9442 14.674 11.0529 14.4968 11.2146C14.3197 11.3763 14.1915 11.5845 14.127 11.8155C14.0624 12.0465 14.0641 12.291 14.1318 12.5211C14.1994 12.7512 14.3304 12.9577 14.5097 13.117C14.689 13.2763 14.9095 13.3819 15.146 13.422V18.363C11.376 18.363 8.32 15.542 8.32 12.062C8.32 8.582 11.376 5.76 15.147 5.76C18.917 5.76 21.973 8.581 21.973 12.062ZM10.027 19.939C10.027 23.419 13.083 26.24 16.853 26.24C20.623 26.24 23.68 23.419 23.68 19.939C23.68 16.459 20.624 13.637 16.853 13.637V18.577C17.0894 18.6171 17.3099 18.7227 17.4892 18.882C17.6685 19.0412 17.7994 19.2476 17.8671 19.4777C17.9348 19.7078 17.9365 19.9522 17.872 20.1832C17.8076 20.4141 17.6795 20.6224 17.5024 20.7841C17.3254 20.9458 17.1064 21.0546 16.8706 21.0979C16.6347 21.1413 16.3914 21.1175 16.1684 21.0293C15.9454 20.9411 15.7517 20.7921 15.6093 20.5991C15.4669 20.4062 15.3815 20.1771 15.363 19.938L10.027 19.939Z"
                fill="black" />
        </g>
    </g>
    <defs>
        <clipPath id="clip0_5851_6682">
            <rect width="32" height="32" fill="white" />
        </clipPath>
        <clipPath id="clip1_5851_6682">
            <rect width="32" height="32" fill="white" />
        </clipPath>
    </defs>
</svg>
