<?xml version="1.0" encoding="UTF-8"?>
<svg version="1.1" xmlns="http://www.w3.org/2000/svg" width="64" height="64">
<path d="M0 0 C7.18287198 4.24767844 12.52390356 9.48250193 15.3515625 17.390625 C15.58617187 18.01582031 15.82078125 18.64101563 16.0625 19.28515625 C18.57304016 27.28954078 17.3518936 35.83683898 13.6328125 43.26171875 C8.43697078 51.89505332 1.82352851 56.233303 -7.6484375 59.390625 C-18.63985303 60.33098453 -26.83943161 58.78213885 -35.4609375 51.765625 C-42.19093789 45.39296976 -45.27852422 37.84684582 -45.8984375 28.703125 C-45.70130297 18.23528151 -41.10456039 10.84674789 -33.8984375 3.640625 C-23.63550242 -3.4644839 -11.58279756 -5.35751548 0 0 Z " fill="#965BCF" transform="translate(46.6484375,2.609375)"/>
<path d="M0 0 C4.27207324 2.78613472 7.128957 5.28553679 8.546875 10.20703125 C9.49799106 16.39879678 8.43859 20.73738614 4.875 25.875 C4.215 26.535 3.555 27.195 2.875 27.875 C5.185 28.205 7.495 28.535 9.875 28.875 C9.917721 30.54111905 9.91563832 32.20882885 9.875 33.875 C8.875 34.875 8.875 34.875 5.49609375 34.97265625 C4.10152923 34.96598369 2.70698257 34.95402532 1.3125 34.9375 C0.60158203 34.93298828 -0.10933594 34.92847656 -0.84179688 34.92382812 C-2.60290013 34.91200864 -4.36396036 34.89407263 -6.125 34.875 C-6.125 30.915 -6.125 26.955 -6.125 22.875 C-4.990625 22.42125 -3.85625 21.9675 -2.6875 21.5 C0.92221692 20.30404194 0.92221692 20.30404194 1.875 17.875 C2.12803321 13.99515747 2.17954139 11.10135795 -0.125 7.875 C-2.84048288 5.76295776 -4.19427021 5.87986107 -7.6875 6.125 C-11.22420369 6.67782433 -11.22420369 6.67782433 -14.125 8.875 C-15.08483145 11.85220173 -15.31357734 14.7579275 -15.125 17.875 C-12.70809046 21.45560672 -11.3873519 21.80941203 -7.125 22.875 C-7.125 26.835 -7.125 30.795 -7.125 34.875 C-12.075 34.875 -17.025 34.875 -22.125 34.875 C-22.785 33.555 -23.445 32.235 -24.125 30.875 C-23.795 30.215 -23.465 29.555 -23.125 28.875 C-20.47639573 28.28144386 -17.83302678 28.13290731 -15.125 27.875 C-15.90875 27.153125 -16.6925 26.43125 -17.5 25.6875 C-21.01268229 21.92391183 -21.97433221 19.53234564 -22.4375 14.4375 C-21.96227178 9.01989835 -20.19573418 5.59654534 -16.125 2.0625 C-10.93589161 -1.72122487 -6.05728943 -2.18062419 0 0 Z " fill="#FEFDFE" transform="translate(39.125,14.125)"/>
<path d="M0 0 C3.27386521 2.67078477 4.81376925 4.60326939 5.375 8.8125 C5 12 5 12 2.8125 14.8125 C-0.11456808 17.08910851 -1.32690081 18 -5 18 C-11.45985401 15.81021898 -11.45985401 15.81021898 -14 12 C-14.2779798 8.85535353 -13.92391326 6.01630506 -13 3 C-8.78636374 -1.21363626 -5.64757883 -1.67335669 0 0 Z " fill="#9E56CB" transform="translate(37,20)"/>
<path d="M0 0 C7.9640037 1.99100092 14.10417124 7.07662315 18.7421875 13.7421875 C23.03224379 21.44297178 23.84097404 29.45534117 22 38 C19.7089778 45.64086864 15.31221251 52.2459245 8.53515625 56.57421875 C4.11410576 58.89443923 0.03813514 60.60225249 -5 61 C-4.67 60.01 -4.34 59.02 -4 58 C-1.70703125 57.0078125 -1.70703125 57.0078125 1.1875 56.125 C8.98886136 53.43035125 13.16906986 49.89056384 16.953125 42.4453125 C20.65518267 33.79796884 20.32505283 26.78763962 17 18 C13.69031267 10.79919377 9.02031133 7.25945559 2.1953125 3.41015625 C1.47085938 2.94480469 0.74640625 2.47945313 0 2 C0 1.34 0 0.68 0 0 Z " fill="#A26AAE" transform="translate(41,1)"/>
<path d="M0 0 C0 0.66 0 1.32 0 2 C-0.90621094 1.96519531 -1.81242187 1.93039062 -2.74609375 1.89453125 C-10.17096056 1.72953421 -16.1586861 2.08526803 -23 5 C-23.99 5.33 -24.98 5.66 -26 6 C-26.433125 6.86625 -26.433125 6.86625 -26.875 7.75 C-28 10 -28 10 -30.4375 12.375 C-35.54442702 17.60648621 -36.96730277 23.15798685 -37.25 30.25 C-37.15098955 37.6757841 -34.89689996 43.42766556 -30 49 C-30 49.66 -30 50.32 -30 51 C-29.34 51 -28.68 51 -28 51 C-28.33 51.99 -28.66 52.98 -29 54 C-36.35893778 46.23783276 -40.41849429 39.25954679 -40.2109375 28.23828125 C-39.30015765 18.5738951 -34.96307327 11.96307327 -28.25 5.25 C-20.6320917 -0.02393651 -9.02000883 -4.51000441 0 0 Z " fill="#674CBD" transform="translate(41,1)"/>
<path d="M0 0 C8.17955481 2.0448887 14.01861085 7.20389682 18.8125 13.96484375 C20.53481418 16.91657299 21.30476747 19.66288384 22 23 C21.01 23.33 20.02 23.66 19 24 C18.75765625 23.33613281 18.5153125 22.67226563 18.265625 21.98828125 C17.93046875 21.10527344 17.5953125 20.22226562 17.25 19.3125 C16.76273438 18.00732422 16.76273438 18.00732422 16.265625 16.67578125 C13.69066115 11.23179903 10.38604273 8.33569975 5.25 5.3125 C3.46808683 4.26061147 1.70752814 3.16877357 0 2 C0 1.34 0 0.68 0 0 Z " fill="#9B5DAF" transform="translate(41,1)"/>
<path d="M0 0 C0.57105469 0.33773437 1.14210938 0.67546875 1.73046875 1.0234375 C8.67474989 4.84334414 15.15665388 6.17632572 23 7 C23 7.66 23 8.32 23 9 C14.2155236 9.67285351 7.35251213 7.90167475 0 3 C0 2.01 0 1.02 0 0 Z " fill="#8E59AF" transform="translate(13,53)"/>
<path d="M0 0 C0.66 0 1.32 0 2 0 C2.17015625 0.59167969 2.3403125 1.18335938 2.515625 1.79296875 C4.01616973 6.68570237 5.57224913 10.09945591 9 14 C9 14.66 9 15.32 9 16 C9.66 16 10.32 16 11 16 C10.67 16.99 10.34 17.98 10 19 C4.4924465 13.19066275 0 8.3718757 0 0 Z " fill="#7358B3" transform="translate(2,36)"/>
<path d="M0 0 C1.12526054 3.37578162 0.58732549 4.66617566 -0.453125 7.94921875 C-1.41788046 11.56705173 -1.67930675 15.27827042 -2 19 C-2.66 18.67 -3.32 18.34 -4 18 C-4.34183203 11.7330794 -3.44818504 6.79699775 -1 1 C-0.67 0.67 -0.34 0.34 0 0 Z " fill="#644BBB" transform="translate(5,17)"/>
<path d="M0 0 C1.79158489 -0.02696365 3.58328473 -0.04637917 5.375 -0.0625 C6.37273438 -0.07410156 7.37046875 -0.08570313 8.3984375 -0.09765625 C11 -0 11 -0 13 1 C13 1.66 13 2.32 13 3 C6.07 2.505 6.07 2.505 -1 2 C-0.67 1.34 -0.34 0.68 0 0 Z " fill="#8A4CB3" transform="translate(28,0)"/>
<path d="M0 0 C0.66 0 1.32 0 2 0 C2.33 3.3 2.66 6.6 3 10 C2.01 10.33 1.02 10.66 0 11 C0 7.37 0 3.74 0 0 Z " fill="#A673A8" transform="translate(61,24)"/>
<path d="M0 0 C-1 2 -1 2 -2.9609375 2.8515625 C-3.75757813 3.10679687 -4.55421875 3.36203125 -5.375 3.625 C-6.16648437 3.88539063 -6.95796875 4.14578125 -7.7734375 4.4140625 C-10 5 -10 5 -13 5 C-4.68085106 -2.34042553 -4.68085106 -2.34042553 0 0 Z " fill="#754BB7" transform="translate(28,1)"/>
</svg>
