<svg width="32" height="32" viewBox="0 0 32 32" fill="none" xmlns="http://www.w3.org/2000/svg">
<g clip-path="url(#clip0_4767_63982)">
<path d="M23.1669 2.81525C22.3435 3.63867 21.5891 4.53112 20.9185 5.48274L20.7065 5.41371C19.4837 5.01432 18.2165 4.76779 16.9395 4.68397C16.5549 4.65439 15.1201 4.65439 14.6517 4.68397C13.2366 4.77765 12.1518 4.98967 10.9191 5.41864C10.8698 5.43836 10.8255 5.45315 10.7811 5.46794C10.0859 4.52126 9.31174 3.63374 8.45874 2.82018C12.5512 0.724648 17.3389 0.473184 21.6236 2.12496C22.0822 2.29753 22.5308 2.49969 22.9697 2.71664L23.1669 2.81525Z" fill="#F00500"/>
<path d="M30.7996 21.5173C30.1783 23.2874 29.2464 24.9293 28.0384 26.3592C27.3826 27.1284 26.6578 27.8335 25.8788 28.4745C24.0544 29.9438 21.9244 30.994 19.6514 31.5463C17.1367 32.1527 14.5136 32.1527 11.999 31.5463C9.721 30.994 7.59589 29.9438 5.77154 28.4745C4.9925 27.8335 4.26769 27.1284 3.61191 26.3592C0.13579 22.252 -0.919372 16.6113 0.850736 11.5278C1.18602 10.586 1.60513 9.67877 2.10805 8.8159C2.3398 8.42145 2.62578 7.97769 2.76384 7.79526C3.23718 9.83162 3.81899 11.6214 4.03594 12.2674C4.02115 12.3019 4.00143 12.3413 3.98171 12.3758C2.83286 14.7031 2.2116 16.9466 2.06368 19.333C2.06368 19.3626 2.05875 19.3971 2.05875 19.4267C2.0193 20.1416 2.03903 20.4819 2.15736 20.9305C2.52716 22.3358 3.66615 23.884 5.45105 25.4027C8.37493 27.8877 12.3392 29.6825 15.342 29.8896C18.4729 30.1016 23.093 28.2723 26.1697 25.5999C26.6529 25.1709 27.1065 24.7173 27.5306 24.2341C27.8363 23.8791 28.2899 23.2677 28.2554 23.2677C28.2455 23.2677 28.2554 23.2578 28.2751 23.248C28.2899 23.2381 28.3047 23.2233 28.2948 23.2134C28.2899 23.2085 28.2997 23.1937 28.3145 23.1888C28.3293 23.1839 28.3392 23.174 28.3343 23.1641C28.3293 23.1543 28.3343 23.1444 28.354 23.1395C28.3688 23.1345 28.3737 23.1198 28.3688 23.1099C28.3638 23.1 28.3688 23.0902 28.3786 23.0902C28.3885 23.0902 28.3984 23.0754 28.3984 23.0655C28.3984 23.0557 28.4082 23.0409 28.4181 23.0409C28.4279 23.0409 28.4378 23.031 28.4378 23.0211C28.4526 22.9817 28.4772 22.9423 28.5019 22.9077C28.5759 22.7943 28.8717 22.2668 28.9111 22.178C29.1922 21.5419 29.3697 20.9749 29.4535 20.4079C29.493 20.1367 29.5176 19.6387 29.4979 19.5204C29.493 19.5007 29.493 19.4661 29.488 19.4119C29.4782 19.3133 29.4732 19.1654 29.4634 19.0174C29.4535 18.7956 29.4338 18.4849 29.419 18.3321C29.207 16.0936 28.635 14.2643 27.5503 12.3265C27.5059 12.2526 27.4665 12.1786 27.4418 12.1194C27.4319 12.1047 27.427 12.0899 27.4221 12.08C27.5749 11.6215 28.2011 9.70342 28.6991 7.50928L28.709 7.51914L28.7829 7.61775C28.9111 7.79033 29.2514 8.30311 29.4042 8.54965C30.0994 9.6837 30.6418 10.9016 31.0264 12.1737C31.9188 15.2356 31.8449 18.4997 30.7996 21.5173Z" fill="#F00500"/>
<path d="M24.3996 15.625C24.3848 15.7039 24.1531 15.9406 23.9213 16.1131C23.2409 16.6111 22.023 17.0746 20.7854 17.2965C20.0804 17.4247 19.3753 17.4444 19.1633 17.3409C19.0252 17.2718 19.0055 17.2176 19.0548 17.0401C19.1583 16.6703 19.4936 16.266 20.0163 15.8863C20.2825 15.694 21.3623 15.0383 21.8653 14.7621C22.6936 14.3085 23.3642 14.0373 23.8178 13.9732C23.9608 13.9535 24.1334 13.9486 24.1876 13.9732C24.2764 14.0077 24.375 14.2691 24.4144 14.5846C24.4341 14.7523 24.4243 15.4919 24.3996 15.625Z" fill="black"/>
<path d="M12.7828 17.2571C12.7532 17.3163 12.6053 17.3804 12.4377 17.405C12.27 17.4297 11.7573 17.4149 11.4663 17.3804C10.421 17.2423 9.31165 16.9218 8.50302 16.5274C8.0494 16.3055 7.72397 16.0836 7.48237 15.842L7.34432 15.699L7.32952 15.5117C7.30487 15.1862 7.3098 14.6735 7.34925 14.491C7.3739 14.3382 7.42813 14.1902 7.50209 14.0571C7.54154 14.0078 7.54154 14.0078 7.71905 14.0078C7.93599 14.0078 8.11843 14.0423 8.41427 14.136C9.02074 14.3234 9.92305 14.777 11.0226 15.4377C11.9298 15.9801 12.27 16.2463 12.5314 16.6112C12.7089 16.838 12.8272 17.1585 12.7828 17.2571Z" fill="black"/>
<path d="M19.7647 24.1206C19.7647 24.1354 19.7055 24.3721 19.6316 24.6531C19.5576 24.9342 19.4984 25.161 19.4984 25.1708C19.4442 25.1758 19.3949 25.1807 19.3406 25.1758H19.1829L18.9659 25.6886C18.8476 25.9696 18.7391 26.2309 18.7243 26.2704L18.6947 26.3394L18.5912 26.1718L18.4876 26.0041V24.6383L18.4482 24.6482C18.3644 24.6679 17.7678 24.7468 17.5064 24.7715C16.4266 24.8799 15.3419 24.8553 14.267 24.7024C14.0944 24.6778 13.9465 24.6581 13.9416 24.663C13.9366 24.6679 13.9416 24.9835 13.9514 25.373L13.9662 26.0732L13.8824 26.2014C13.838 26.2704 13.7937 26.3296 13.7937 26.3345C13.7789 26.3493 13.7296 26.2704 13.6162 26.0436C13.4929 25.8069 13.4041 25.5554 13.34 25.2941L13.3055 25.1511L13.1527 25.161L12.9998 25.1758L12.9604 24.9933C12.9406 24.8947 12.916 24.7419 12.9061 24.6581L12.8913 24.5003L12.7631 24.3869C12.6892 24.3228 12.6152 24.2587 12.6004 24.2488C12.5758 24.2291 12.5659 24.1946 12.5659 24.165V24.1058L13.1823 24.1108L13.7986 24.1157L13.8183 24.1798L13.838 24.2439L14.0501 24.2537C14.1684 24.2587 14.5431 24.2685 14.8784 24.2784L15.4947 24.2932L15.6525 24.0467L15.8152 23.8001H16.0223L16.0174 23.2873L16.0125 22.7745L15.7413 22.6562C14.8685 22.2716 14.3557 21.8328 14.1635 21.3003C14.124 21.1918 14.124 21.1524 14.1141 20.6593C14.1092 20.1712 14.1092 20.1268 14.1437 20.0183C14.2128 19.7718 14.4051 19.5795 14.6516 19.5154C14.7354 19.4907 14.9573 19.4907 16.1209 19.4907L17.4917 19.4957L17.6445 19.5696C17.8269 19.6584 17.9108 19.7225 18.0143 19.8605C18.1326 20.0183 18.1672 20.1416 18.1672 20.4423C18.1672 20.8713 18.1376 21.2411 18.0932 21.389C18.0291 21.5912 17.9305 21.7835 17.8072 21.9561C17.5607 22.2716 17.112 22.5872 16.7027 22.7302L16.5844 22.7745L16.5893 23.2923L16.5943 23.81L16.7027 23.8198L16.8112 23.8297L16.9591 24.0516L17.1021 24.2735H17.7628C18.1277 24.2735 18.4482 24.2784 18.4778 24.2833C18.5271 24.2932 18.537 24.2883 18.5863 24.2044L18.6454 24.1157H19.2125C19.6365 24.096 19.7647 24.1058 19.7647 24.1206Z" fill="black"/>
<path d="M17.1614 25.5358C17.0677 25.59 17.0037 25.6147 16.9889 25.6048C16.9741 25.5999 16.905 25.5407 16.8311 25.4865L16.6979 25.378L16.5599 25.5259C16.2591 25.8514 16.2493 25.8662 16.1605 25.8711C16.0224 25.8859 15.9929 25.8612 15.8252 25.6098C15.7365 25.4816 15.6674 25.3731 15.6674 25.3731C15.6674 25.3731 15.6033 25.3632 15.5294 25.3583L15.3913 25.3435L15.3272 25.4766L15.2631 25.6098L15.1497 25.5753C15.061 25.5457 14.9722 25.5111 14.8884 25.4717L14.7405 25.3977V25.1167L16.052 25.1216L17.3636 25.1266L17.3685 25.2597C17.3734 25.4175 17.3784 25.4125 17.1614 25.5358Z" fill="black"/>
<path d="M29.488 19.5205C29.4831 19.5008 29.4831 19.4662 29.4782 19.412C28.2948 19.2838 24.9173 19.2049 21.7814 21.7935C21.7814 21.7935 20.7706 17.1587 16.0372 17.1587C11.3037 17.1587 9.54842 21.7935 9.54842 21.7935C6.89573 18.9387 3.34565 19.1457 2.06368 19.3331C2.06368 19.3627 2.05875 19.3972 2.05875 19.4268C2.0193 20.1417 2.03902 20.482 2.15736 20.9306C2.52716 22.3359 3.66614 23.8841 5.45104 25.4028C8.37493 27.8878 12.3392 29.6826 15.342 29.8897C18.4729 30.1017 23.093 28.2724 26.1697 25.6C26.6529 25.171 27.1065 24.7174 27.5305 24.2342C27.8362 23.8792 28.2899 23.2678 28.2554 23.2678C28.2455 23.2678 28.2554 23.2579 28.2751 23.2481C28.2899 23.2382 28.3047 23.2234 28.2948 23.2135C28.2899 23.2086 28.2997 23.1938 28.3145 23.1889C28.3293 23.184 28.3392 23.1741 28.3342 23.1642C28.3293 23.1544 28.3342 23.1445 28.354 23.1396C28.3688 23.1347 28.3737 23.1199 28.3688 23.11C28.3638 23.1001 28.3688 23.0903 28.3786 23.0903C28.3885 23.0903 28.3983 23.0755 28.3983 23.0656C28.3983 23.0558 28.4082 23.041 28.4181 23.041C28.4279 23.041 28.4378 23.0311 28.4378 23.0213C28.4526 22.9818 28.4772 22.9424 28.5019 22.9078C28.5759 22.7944 28.8717 22.2669 28.9111 22.1781C29.1922 21.542 29.3697 20.975 29.4535 20.408C29.4831 20.1368 29.5077 19.6388 29.488 19.5205ZM17.1614 25.5359C17.0677 25.5901 17.0036 25.6148 16.9888 25.6049C16.974 25.6 16.905 25.5408 16.831 25.4866L16.6979 25.3781L16.5598 25.526C16.2591 25.8514 16.2492 25.8662 16.1604 25.8712C16.0224 25.886 15.9928 25.8613 15.8252 25.6098C15.7364 25.4817 15.6674 25.3732 15.6674 25.3732C15.6674 25.3732 15.6033 25.3633 15.5293 25.3584L15.3913 25.3436L15.3272 25.4767L15.2631 25.6098L15.1497 25.5753C15.0609 25.5457 14.9722 25.5112 14.8883 25.4718L14.7404 25.3978V25.1168L16.052 25.1217L17.3635 25.1266L17.3685 25.2598C17.3734 25.4176 17.3783 25.4126 17.1614 25.5359ZM19.6267 24.6484C19.5527 24.9294 19.4936 25.1562 19.4936 25.1661C19.4393 25.171 19.39 25.1759 19.3358 25.171H19.178L18.966 25.6887C18.8477 25.9698 18.7392 26.2311 18.7244 26.2706L18.6948 26.3396L18.5913 26.1719L18.4877 26.0043V24.6385L18.4483 24.6484C18.3644 24.6681 17.7678 24.747 17.5065 24.7716C16.4267 24.8801 15.3419 24.8555 14.2671 24.7026C14.0945 24.678 13.9466 24.6582 13.9416 24.6632C13.9367 24.6681 13.9416 24.9837 13.9515 25.3732L13.9663 26.0733L13.8825 26.2015C13.8381 26.2706 13.7937 26.3297 13.7937 26.3347C13.7789 26.3494 13.7296 26.2706 13.6162 26.0437C13.493 25.8071 13.4042 25.5556 13.3401 25.2943L13.3056 25.1513L13.1527 25.1612L12.9999 25.1759L12.9604 24.9935C12.9407 24.8949 12.9161 24.742 12.9062 24.6582L12.8914 24.5004L12.7632 24.387C12.6893 24.3229 12.6153 24.2588 12.6005 24.249C12.5759 24.2293 12.566 24.1947 12.566 24.1652V24.106L13.1823 24.1109L13.7987 24.1159L13.8184 24.18L13.8381 24.2441L14.0501 24.2539C14.1685 24.2588 14.5432 24.2687 14.8785 24.2786L15.4948 24.2934L15.6526 24.0468L15.8153 23.8003H16.0224L16.0174 23.2875L16.0125 22.7747L15.7413 22.6564C14.8686 22.2718 14.3558 21.833 14.1635 21.3004C14.1241 21.192 14.1241 21.1525 14.1142 20.6595C14.1093 20.1713 14.1093 20.127 14.1438 20.0185C14.2128 19.7719 14.4051 19.5796 14.6517 19.5155C14.7355 19.4909 14.9574 19.4909 16.121 19.4909L17.4917 19.4958L17.6446 19.5698C17.827 19.6585 17.9108 19.7226 18.0144 19.8607C18.1327 20.0185 18.1672 20.1417 18.1672 20.4425C18.1672 20.8715 18.1376 21.2413 18.0933 21.3892C18.0292 21.5914 17.9305 21.7837 17.8073 21.9562C17.5607 22.2718 17.1121 22.5874 16.7028 22.7303L16.5845 22.7747L16.5894 23.2924L16.5943 23.8102L16.7028 23.82L16.8113 23.8299L16.9592 24.0518L17.1022 24.2736H17.7629C18.1278 24.2736 18.4483 24.2786 18.4778 24.2835C18.5272 24.2934 18.537 24.2884 18.5863 24.2046L18.6455 24.1159H19.2125C19.6514 24.1159 19.7795 24.1208 19.7795 24.1356C19.7648 24.1306 19.7007 24.3723 19.6267 24.6484Z" fill="white"/>
<path d="M29.4485 19.0175C29.4386 18.7956 29.4189 18.4849 29.4041 18.3321C29.1921 16.0936 28.6201 14.2643 27.5354 12.3265C27.491 12.2526 27.4516 12.1786 27.4269 12.1195C27.417 12.1047 27.4121 12.0899 27.4072 12.08C27.56 11.6215 28.1862 9.70343 28.6842 7.50929C29.3597 4.53117 29.7887 1.05012 28.4771 0.0048228C28.4771 0.0048228 26.209 -0.16282 23.1717 2.8153C22.3483 3.63872 21.5939 4.53117 20.9234 5.48279L20.7113 5.41376C19.4885 5.01438 18.2214 4.76784 16.9443 4.68402C16.5597 4.65444 15.1249 4.65444 14.6565 4.68402C13.2414 4.7777 12.1566 4.98972 10.924 5.41869C10.8747 5.43841 10.8303 5.4532 10.7859 5.468C10.0907 4.52131 9.31658 3.63379 8.46357 2.82023C5.30302 -0.172681 2.95109 -0.00010816 2.95109 -0.00010816C1.56065 1.07971 2.03399 4.71854 2.75387 7.79527C3.22721 9.83163 3.80903 11.6215 4.02598 12.2674C4.01118 12.3019 3.99146 12.3413 3.97174 12.3759C2.8229 14.7031 2.20163 16.9466 2.05371 19.333C3.34061 19.1457 6.88576 18.9336 9.54339 21.7934C9.54339 21.7934 11.2987 17.1586 16.0321 17.1586C20.7656 17.1586 21.7764 21.7934 21.7764 21.7934C24.9123 19.2048 28.2898 19.2886 29.4731 19.4119C29.4682 19.3133 29.4583 19.1654 29.4485 19.0175ZM4.95787 10.4085C4.95787 10.4085 3.1138 5.79835 3.58715 3.16538C3.66604 2.72162 3.81396 2.33209 4.0457 2.03625C4.0457 2.03625 6.1363 2.24334 9.50887 5.99065C9.50887 5.99065 8.86789 6.30128 8.00995 6.96199C8.00995 6.96199 8.00502 6.96692 8.00009 6.96692C7.06819 7.68186 5.87498 8.81592 4.95787 10.4085ZM12.7828 17.2572C12.7532 17.3164 12.6053 17.3805 12.4377 17.4051C12.27 17.4298 11.7573 17.415 11.4663 17.3805C10.421 17.2424 9.31165 16.9219 8.50302 16.5275C8.0494 16.3056 7.72397 16.0837 7.48237 15.8421L7.34431 15.6991L7.32952 15.5118C7.30487 15.1863 7.3098 14.6735 7.34924 14.4911C7.3739 14.3383 7.42813 14.1903 7.50209 14.0572C7.54154 14.0079 7.54154 14.0079 7.71904 14.0079C7.93599 14.0079 8.11843 14.0424 8.41427 14.1361C9.02074 14.3235 9.92305 14.7771 11.0226 15.4378C11.9298 15.9802 12.27 16.2464 12.5314 16.6113C12.7089 16.8381 12.8272 17.1586 12.7828 17.2572ZM24.3995 15.6252C24.3847 15.7041 24.1529 15.9407 23.9212 16.1133C23.2408 16.6113 22.0229 17.0748 20.7853 17.2967C20.0802 17.4249 19.3751 17.4446 19.1631 17.341C19.0251 17.272 19.0053 17.2178 19.0546 17.0403C19.1582 16.6705 19.4935 16.2661 20.0161 15.8865C20.2824 15.6942 21.3622 15.0384 21.8651 14.7623C22.6935 14.3087 23.364 14.0375 23.8177 13.9734C23.9606 13.9537 24.1332 13.9487 24.1875 13.9734C24.2762 14.0079 24.3748 14.2692 24.4143 14.5848C24.434 14.7524 24.4241 15.492 24.3995 15.6252ZM23.581 6.96199L23.5711 6.95706C22.7428 6.29635 22.1215 5.98572 22.1215 5.98572C25.3807 2.23841 27.3973 2.03133 27.3973 2.03133C27.6192 2.3321 27.7622 2.71669 27.8411 3.16045C28.2996 5.79342 26.5197 10.4085 26.5197 10.4085C25.7751 9.08217 24.7742 7.90868 23.581 6.96199Z" fill="#FFA409"/>
<path d="M27.8461 3.16037C27.4615 3.11106 25.6421 3.1012 23.5811 6.96191L23.5712 6.95698C22.7428 6.29627 22.1216 5.98564 22.1216 5.98564C25.3807 2.23834 27.3974 2.03125 27.3974 2.03125C27.6242 2.33202 27.7672 2.71661 27.8461 3.16037Z" fill="#FF9300"/>
<path d="M26.5247 10.4085C25.7752 9.07722 24.7792 7.90866 23.5811 6.96197C25.6421 3.10126 27.4566 3.11112 27.8461 3.16043C28.3046 5.79833 26.5247 10.4085 26.5247 10.4085Z" fill="#FF8300"/>
<path d="M27.921 3.17536C27.8961 3.17037 27.8711 3.16539 27.8462 3.1604L27.921 3.17536Z" fill="#FF8300"/>
<path d="M9.50893 5.98564C9.50893 5.98564 8.86795 6.29627 8.01001 6.95698C8.01001 6.95698 8.00508 6.96191 8.00015 6.96191C5.86517 3.09627 3.98659 3.11106 3.58228 3.16037C3.66117 2.71661 3.80909 2.32709 4.04083 2.03125C4.04576 2.03125 6.13636 2.23834 9.50893 5.98564Z" fill="#FF9300"/>
<path d="M8.00509 6.96197C7.06827 7.68185 5.87505 8.81097 4.95795 10.4085C4.95795 10.4085 3.11388 5.79833 3.58722 3.16043C3.9866 3.11112 5.87012 3.10126 8.00509 6.96197Z" fill="#FF8300"/>
<path d="M3.58809 3.1604C3.56315 3.16539 3.53323 3.17037 3.5083 3.17536L3.58809 3.1604Z" fill="#FF8300"/>
<path d="M21.5349 12.9675C21.5349 12.9675 19.957 13.0661 20.1543 11.8334C20.3515 10.6007 21.5842 10.4528 21.9293 10.5021C22.2745 10.5514 23.655 11.0445 23.4085 12.0799C23.162 13.1154 22.8168 12.9182 22.6196 12.9675C22.4224 13.0168 21.5349 12.9675 21.5349 12.9675Z" fill="white"/>
<path d="M9.89838 12.9675C9.89838 12.9675 8.32057 13.0661 8.51779 11.8334C8.71502 10.6007 9.94769 10.4528 10.2928 10.5021C10.638 10.5514 12.0186 11.0445 11.772 12.0799C11.5255 13.1154 11.1804 12.9182 10.9831 12.9675C10.7859 13.0168 9.89838 12.9675 9.89838 12.9675Z" fill="white"/>
</g>
<defs>
<clipPath id="clip0_4767_63982">
<rect width="32" height="32" fill="white"/>
</clipPath>
</defs>
</svg>
