<svg width="32" height="32" viewBox="0 0 32 32" fill="none" xmlns="http://www.w3.org/2000/svg">
<g clip-path="url(#clip0_4774_63823)">
<path d="M16 32C24.8366 32 32 24.8366 32 16C32 7.16344 24.8366 0 16 0C7.16344 0 0 7.16344 0 16C0 24.8366 7.16344 32 16 32Z" fill="black"/>
<path d="M21.0235 18.2122C21.0955 18.733 21.2375 19.122 21.4487 19.3797C21.8355 19.849 22.4978 20.0835 23.436 20.0835C23.998 20.0835 24.4543 20.0218 24.8048 19.898C25.4698 19.6608 25.8022 19.22 25.8022 18.5758C25.8022 18.1993 25.6373 17.908 25.3075 17.7017C24.9775 17.5007 24.4595 17.323 23.753 17.1682L22.5467 16.8978C21.361 16.6295 20.5415 16.3383 20.0877 16.0238C19.3197 15.498 18.9355 14.6758 18.9355 13.557C18.9355 12.5363 19.3067 11.6882 20.049 11.013C20.7915 10.3377 21.8817 10 23.32 10C24.5212 10 25.5457 10.3182 26.3937 10.955C27.242 11.5917 27.6865 12.5157 27.7278 13.7273H25.4387C25.3975 13.0415 25.0985 12.5545 24.5417 12.2657C24.1708 12.075 23.7092 11.9795 23.1577 11.9795C22.5442 11.9795 22.0545 12.1033 21.6885 12.3507C21.3225 12.5982 21.1395 12.9435 21.1395 13.387C21.1395 13.7943 21.3197 14.0985 21.6807 14.2995C21.9127 14.4335 22.4075 14.5907 23.1655 14.7712L25.1295 15.2428C25.9905 15.449 26.64 15.7247 27.0783 16.0702C27.7588 16.6065 28.099 17.3823 28.099 18.3978C28.099 19.4393 27.7007 20.304 26.9042 20.9923C26.1077 21.6805 24.9827 22.0245 23.5287 22.0245C22.0442 22.0245 20.8765 21.6855 20.026 21.0075C19.1752 20.3298 18.75 19.398 18.75 18.2122H21.0235Z" fill="white"/>
<path fill-rule="evenodd" clip-rule="evenodd" d="M7 6.5V25.5H23.5V23.75H9V8.25H23.5V6.5H7Z" fill="white"/>
</g>
<defs>
<clipPath id="clip0_4774_63823">
<rect width="32" height="32" fill="white"/>
</clipPath>
</defs>
</svg>
