<svg width="32" height="32" viewBox="0 0 32 32" fill="none" xmlns="http://www.w3.org/2000/svg">
<path d="M16.0106 32C15.9907 32 15.9907 32 15.9709 32C9.34661 31.9802 6.17329 28.8069 4.66597 26.169C3.27764 23.7097 2.74214 21.0124 3.11897 18.1564C3.41647 15.7764 4.36847 13.2774 5.87579 10.9768C6.82779 9.50911 8.07728 8.02162 9.40611 6.81179C10.3779 5.91929 11.1713 5.34413 11.8059 5.0863C11.6076 4.27313 11.4886 2.98397 11.4489 2.54764V2.46831C11.4291 1.45681 12.5596 1.00065 12.9364 0.841983C13.6504 0.544485 14.5033 0.385819 15.3164 0.365986C16.1296 0.346152 16.9427 0.405652 17.6171 0.564318C18.0336 0.663484 19.2831 0.94115 19.3029 2.01214L19.3624 3.8368C19.3624 4.17397 19.3426 4.47147 19.3029 4.74913C22.853 5.99863 25.8677 9.74711 27.0974 11.7701C27.5932 12.5833 28.803 14.7847 29.3385 17.5416C29.9732 20.8537 29.4377 23.8089 27.732 26.3674C24.2215 31.5835 17.9344 32 16.0106 32ZM12.4803 7.12912C11.6869 7.56545 9.38628 9.48928 7.68062 12.1469C5.99479 14.7451 3.59497 19.9017 6.55012 25.1179C8.29545 28.2119 11.5679 29.858 15.9907 29.8778C16.0106 29.8778 16.0106 29.8778 16.0304 29.8778C17.6766 29.8778 23.0514 29.5208 25.9272 25.1972C29.3187 20.1199 25.9669 14.0708 25.2529 12.9204C24.638 11.9089 23.3885 10.2628 21.8416 8.87444L15.3561 7.88278L10.4374 8.85461L13.0356 7.38695C12.9364 7.34729 12.8373 7.30762 12.7381 7.24812C12.6389 7.20845 12.5398 7.16879 12.4803 7.12912ZM18.4104 7.08945L20.8499 8.04145C20.1954 7.56545 19.5211 7.14895 18.8071 6.87129C18.7079 6.93079 18.6087 6.99029 18.4897 7.04979C18.4699 7.06962 18.4501 7.08945 18.4104 7.08945ZM13.6108 2.88481C13.7099 3.69797 13.8289 4.53097 13.9083 4.76896C14.0669 5.2053 14.3248 5.48296 14.7214 5.64163L15.5147 5.95896L16.1891 5.58213C16.5461 5.38379 16.7841 5.0863 16.8039 5.06646L16.8832 4.94746L16.9229 4.92763C16.9824 4.8483 17.1807 4.53097 17.1609 3.91614V2.66664C16.7841 2.56748 16.1296 2.48814 15.3561 2.50798C14.6223 2.52781 13.9678 2.72614 13.6108 2.88481Z" fill="#0B4431"/>
<path d="M26.7999 25.7725C23.5472 30.6713 17.5179 30.9291 15.9709 30.9291C14.0273 30.9291 8.45414 30.6911 5.59816 25.6336C2.86117 20.7943 4.15033 15.5782 6.76832 11.5521C8.81114 8.39857 11.7465 6.01858 12.5001 5.97891C12.639 5.97891 12.8571 6.11774 13.1943 6.27641C13.6703 6.49457 14.4041 6.77224 15.5544 6.67307C16.8833 6.55407 17.5973 6.31607 18.0138 6.09791C18.4898 5.85991 18.6088 5.66158 18.8071 5.74091C22.2184 6.89124 25.1141 10.6397 26.1652 12.3454C27.2957 14.2097 30.3897 20.3977 26.7999 25.7725Z" fill="#77BAA1"/>
<path d="M7.38327 15.1023C7.38327 15.1023 5.89577 18.7318 6.21311 21.449C6.51061 24.0669 8.27576 27.9543 12.5994 28.9063C16.9231 29.8582 19.7195 28.7476 22.1194 27.6766C24.4994 26.6056 26.1455 24.3644 26.3835 22.2423C26.6215 20.1201 26.6413 17.0261 25.4513 14.5073" fill="#F3ACBB"/>
<path d="M17.9345 8.43847C17.7957 8.9343 15.5347 9.4103 14.5034 9.13263C13.4919 8.85496 13.4126 8.20047 13.1746 6.27664C13.6506 6.49481 14.3844 6.77247 15.5347 6.67331C16.8635 6.55431 17.5775 6.31631 17.994 6.09814C18.0337 6.59398 18.0734 7.96247 17.9345 8.43847Z" fill="#89B772"/>
<path d="M12.5595 26.645C12.4405 26.3673 12.4207 26.0699 12.4603 25.7724C12.5992 24.7014 13.3528 21.8652 17.26 19.7232C22.1588 17.0259 24.7371 19.3067 24.7371 19.3067C24.7371 19.3067 26.2841 20.6752 25.1139 23.9279C23.9438 27.1607 18.212 28.3507 18.212 28.3507C18.212 28.3507 13.6503 29.4018 12.5595 26.645Z" fill="#F08FA2"/>
<path d="M7.83928 20.7153C7.52195 20.7153 7.50212 19.4658 7.89878 18.9105C8.53344 18.018 9.62427 18.851 9.62427 18.851C9.62427 18.851 8.67228 20.7153 7.83928 20.7153Z" fill="#F08FA2"/>
<path d="M25.4513 14.5071C25.4513 14.0311 21.4053 13.6543 16.4074 13.6543C11.4094 13.6543 7.3634 14.6261 7.3634 15.1021C7.3634 15.5781 11.4094 16.4111 16.4074 16.4111C21.4053 16.4111 25.4513 14.9831 25.4513 14.5071Z" fill="#F8D0D9"/>
<path d="M12.5002 2.44818C12.5002 2.44818 12.8374 4.53067 12.9762 5.12567C13.0952 5.6215 13.8687 6.69249 15.2967 6.85116C16.8239 7.00982 17.6966 5.681 17.6966 5.681C17.6966 5.681 18.3114 5.10583 18.2717 3.87617C18.232 2.64651 18.2122 2.05151 18.2122 2.05151C18.2122 2.05151 14.9992 2.34901 12.5002 2.44818Z" fill="#DD8843"/>
<path d="M18.2122 2.0517C18.2122 1.7542 16.8834 1.39721 15.3364 1.43687C13.7696 1.47654 12.4804 2.15087 12.5002 2.44837C12.5002 2.74587 13.8291 3.20203 15.376 3.16236C16.9429 3.1227 18.2122 2.3492 18.2122 2.0517Z" fill="#EBB646"/>
<path d="M8.11698 15.6777C7.95832 15.638 7.83932 15.5388 7.74015 15.4C7.46249 14.9637 7.06582 13.8133 8.65248 11.6118C10.7151 8.71619 11.8258 9.68802 11.8258 9.68802C11.8258 9.68802 13.1943 10.3822 11.7068 12.8217C11.687 12.8415 11.687 12.8613 11.6671 12.8812C11.5283 13.2183 10.0606 16.2132 8.11698 15.6777Z" fill="white"/>
<path d="M22.8332 27.3592C22.4961 27.2997 22.2779 27.0022 22.3374 26.6651C22.4167 26.2486 22.6547 25.6139 23.3489 24.9991C24.4199 24.0471 25.1934 24.8999 25.3719 25.1379C25.4116 25.1974 25.4314 25.2569 25.4512 25.3164C25.4909 25.5147 25.4711 25.9114 24.9356 26.5064C24.3207 27.1807 23.5671 27.4981 22.8332 27.3592Z" fill="white"/>
<path d="M27.7916 18.5732C27.9899 19.0889 26.5222 17.165 26.3239 17.1452C26.0264 17.1055 24.5191 20.7548 24.1423 20.854C23.6663 20.973 19.7988 18.1567 18.9658 18.236C17.4783 18.3352 14.424 22.8175 14.0273 22.8968C13.5513 22.9762 10.14 18.8905 8.91032 18.7319C8.49383 18.6724 5.61801 22.163 5.38001 21.9052C5.26101 21.7862 4.98334 19.0095 5.02301 18.236C5.06268 17.7402 5.39984 20.1797 5.53867 20.1797C5.77667 20.1995 8.41449 17.5617 8.96982 17.6014C9.46565 17.641 13.3728 21.1118 13.7496 21.0325C14.1265 20.9532 17.9146 17.2245 18.7278 17.1055C19.3624 17.0262 22.7341 19.4657 23.6464 19.307C24.2017 19.2277 25.9074 16.213 26.2049 16.1337C26.4627 16.1139 27.5734 18.0179 27.7916 18.5732Z" fill="#A5D4C1"/>
</svg>
