<svg width="32" height="32" viewBox="0 0 32 32" fill="none" xmlns="http://www.w3.org/2000/svg">
<path d="M16.0106 32C15.9907 32 15.9907 32 15.9709 32C9.34661 31.9802 6.17329 28.8068 4.66597 26.169C3.27764 23.7097 2.74214 21.0124 3.11897 18.1564C3.41647 15.7764 4.36847 13.2774 5.87579 10.9768C6.82779 9.50911 8.07728 8.02162 9.40611 6.81179C10.3779 5.91929 11.1713 5.34413 11.8059 5.0863C11.6076 4.27313 11.4886 2.98397 11.4489 2.54764V2.46831C11.4291 1.45681 12.5596 1.00065 12.9364 0.841983C13.6504 0.544485 14.5033 0.385819 15.3164 0.365986C16.1296 0.346152 16.9427 0.405652 17.6171 0.564318C18.0336 0.663484 19.2831 0.94115 19.3029 2.01214L19.3624 3.8368C19.3624 4.17397 19.3426 4.47147 19.3029 4.74913C22.853 5.99863 25.8677 9.74711 27.0974 11.7701C27.5932 12.5833 28.803 14.7848 29.3385 17.5416C29.9732 20.8537 29.4377 23.8089 27.732 26.3674C24.2215 31.5835 17.9344 32 16.0106 32ZM12.4803 7.12912C11.6869 7.56545 9.38628 9.48928 7.68062 12.1469C5.99479 14.7451 3.59497 19.9017 6.55012 25.1179C8.29545 28.2119 11.5679 29.858 15.9907 29.8778C16.0106 29.8778 16.0106 29.8778 16.0304 29.8778C17.6766 29.8778 23.0514 29.5208 25.9272 25.1972C29.3187 20.1199 25.9669 14.0708 25.2529 12.9204C24.638 11.9089 23.3885 10.2628 21.8416 8.87445L15.3561 7.88278L10.4374 8.85461L13.0356 7.38695C12.9364 7.34729 12.8373 7.30762 12.7381 7.24812C12.6389 7.20845 12.5398 7.16879 12.4803 7.12912ZM18.4104 7.08945L20.8499 8.04145C20.1954 7.56545 19.5211 7.14895 18.8071 6.87129C18.7079 6.93079 18.6087 6.99029 18.4897 7.04979C18.4699 7.06962 18.4501 7.08945 18.4104 7.08945ZM13.6108 2.88481C13.7099 3.69797 13.8289 4.53097 13.9083 4.76896C14.0669 5.2053 14.3248 5.48296 14.7214 5.64163L15.5147 5.95896L16.1891 5.58213C16.5461 5.38379 16.7841 5.0863 16.8039 5.06646L16.8832 4.94746L16.9229 4.92763C16.9824 4.8483 17.1807 4.53097 17.1609 3.91614V2.66664C16.7841 2.56748 16.1296 2.48814 15.3561 2.50798C14.6223 2.52781 13.9678 2.72614 13.6108 2.88481Z" fill="#0B4431"/>
<path d="M26.7999 25.7725C23.5473 30.6713 17.518 30.9291 15.971 30.9291C14.0273 30.9291 8.4542 30.6911 5.59822 25.6336C2.86123 20.7943 4.15039 15.5782 6.76838 11.5521C8.8112 8.39857 11.7465 6.01858 12.5002 5.97891C12.639 5.97891 12.8572 6.11774 13.1943 6.27641C13.6703 6.49457 14.4042 6.77224 15.5545 6.67307C16.8833 6.55407 17.5973 6.31607 18.0138 6.09791C18.4898 5.85991 18.6088 5.66158 18.8072 5.74091C22.2185 6.89124 25.1141 10.6397 26.1653 12.3454C27.2958 14.2097 30.3898 20.3977 26.7999 25.7725Z" fill="#77BAA1"/>
<path d="M7.38324 15.1023C7.38324 15.1023 5.89574 18.7318 6.21308 21.449C6.51057 24.0669 8.27573 27.9543 12.5994 28.9063C16.923 29.8582 19.7195 28.7476 22.1193 27.6766C24.4993 26.6056 26.1455 24.3644 26.3835 22.2423C26.6215 20.1201 26.6413 17.0261 25.4513 14.5073" fill="#F3ACBB"/>
<path d="M17.9345 8.43847C17.7957 8.9343 15.5347 9.4103 14.5034 9.13263C13.4919 8.85496 13.4125 8.20047 13.1745 6.27664C13.6505 6.49481 14.3844 6.77247 15.5347 6.67331C16.8635 6.55431 17.5775 6.31631 17.994 6.09814C18.0337 6.59398 18.0733 7.96247 17.9345 8.43847Z" fill="#89B772"/>
<path d="M12.5595 26.6448C12.4405 26.3671 12.4207 26.0696 12.4604 25.7721C12.5992 24.7011 13.3529 21.865 17.26 19.723C22.1588 17.0256 24.7371 19.3065 24.7371 19.3065C24.7371 19.3065 26.2841 20.675 25.114 23.9276C23.9438 27.1604 18.212 28.3504 18.212 28.3504C18.212 28.3504 13.6504 29.4016 12.5595 26.6448Z" fill="#F08FA2"/>
<path d="M7.83928 20.7151C7.52195 20.7151 7.50212 19.4656 7.89878 18.9103C8.53344 18.0178 9.62427 18.8508 9.62427 18.8508C9.62427 18.8508 8.67228 20.7151 7.83928 20.7151Z" fill="#F08FA2"/>
<path d="M25.4513 14.5071C25.4513 14.0311 21.4053 13.6543 16.4073 13.6543C11.4093 13.6543 7.36334 14.6261 7.36334 15.1021C7.36334 15.5781 11.4093 16.4111 16.4073 16.4111C21.4053 16.4111 25.4513 14.9831 25.4513 14.5071Z" fill="#F8D0D9"/>
<path d="M12.5002 2.44842C12.5002 2.44842 12.8373 4.53091 12.9762 5.12591C13.0952 5.62174 13.8687 6.69274 15.2967 6.8514C16.8238 7.01007 17.6965 5.68124 17.6965 5.68124C17.6965 5.68124 18.3113 5.10608 18.2717 3.87642C18.232 2.64676 18.2122 2.05176 18.2122 2.05176C18.2122 2.05176 14.9992 2.34926 12.5002 2.44842Z" fill="#DD8843"/>
<path d="M18.2122 2.05195C18.2122 1.75445 16.8833 1.39745 15.3363 1.43712C13.7695 1.47678 12.4804 2.15111 12.5002 2.44861C12.5002 2.74611 13.829 3.20227 15.376 3.16261C16.9428 3.12294 18.2122 2.34945 18.2122 2.05195Z" fill="#EBB646"/>
<path d="M8.11701 15.6777C7.95835 15.638 7.83935 15.5388 7.74018 15.4C7.46252 14.9637 7.06585 13.8133 8.65251 11.6118C10.7152 8.71619 11.8258 9.68802 11.8258 9.68802C11.8258 9.68802 13.1943 10.3822 11.7068 12.8217C11.687 12.8415 11.687 12.8613 11.6672 12.8812C11.5283 13.2183 10.0607 16.2132 8.11701 15.6777Z" fill="white"/>
<path d="M22.8333 27.3595C22.4961 27.3 22.2779 27.0025 22.3374 26.6653C22.4168 26.2488 22.6548 25.6142 23.3489 24.9993C24.4199 24.0473 25.1934 24.9002 25.3719 25.1382C25.4116 25.1977 25.4314 25.2572 25.4513 25.3167C25.4909 25.515 25.4711 25.9117 24.9356 26.5066C24.3208 27.181 23.5671 27.4983 22.8333 27.3595Z" fill="white"/>
<path d="M27.7915 18.5729C27.9899 19.0886 26.5222 17.1648 26.3239 17.1449C26.0264 17.1053 24.5191 20.7546 24.1422 20.8538C23.6662 20.9728 19.7987 18.1564 18.9657 18.2358C17.4783 18.3349 14.4239 22.8173 14.0273 22.8966C13.5513 22.9759 10.14 18.8903 8.91029 18.7316C8.4938 18.6721 5.61798 22.1628 5.37998 21.9049C5.26098 21.7859 4.98331 19.0093 5.02298 18.2358C5.06264 17.7399 5.39981 20.1794 5.53864 20.1794C5.77664 20.1993 8.41446 17.5614 8.96979 17.6011C9.46562 17.6408 13.3728 21.1116 13.7496 21.0323C14.1264 20.9529 17.9146 17.2243 18.7277 17.1053C19.3624 17.026 22.7341 19.4654 23.6464 19.3068C24.2017 19.2274 25.9074 16.2128 26.2049 16.1335C26.4627 16.1136 27.5734 18.0176 27.7915 18.5729Z" fill="#A5D4C1"/>
</svg>
