<svg width="32" height="32" viewBox="0 0 32 32" fill="none" xmlns="http://www.w3.org/2000/svg">
<g clip-path="url(#clip0_172_16407)">
<path d="M16 32C24.8366 32 32 24.8366 32 16C32 7.16344 24.8366 0 16 0C7.16344 0 0 7.16344 0 16C0 24.8366 7.16344 32 16 32Z" fill="#5B6DEE"/>
<path d="M13.3 15.0199C12.7421 15.017 12.1851 15.0652 11.636 15.1639C12.088 10.9839 15.572 7.81787 19.72 7.81787C22.26 7.81787 24 9.06187 24 11.6359C24 14.2109 21.911 15.4549 18.864 15.4549C16.614 15.4549 15.55 15.0209 13.3 15.0209M13.136 16.5449C10.089 16.5449 8 17.7899 8 20.3639C8 22.9379 9.74 24.1819 12.28 24.1819C16.428 24.1819 19.912 21.0169 20.364 16.8359C19.8149 16.9345 19.2579 16.9827 18.7 16.9799C16.45 16.9799 15.385 16.5449 13.136 16.5449" fill="white"/>
</g>
<defs>
<clipPath id="clip0_172_16407">
<rect width="32" height="32" fill="white"/>
</clipPath>
</defs>
</svg>
