<svg width="32" height="32" viewBox="0 0 32 32" fill="none" xmlns="http://www.w3.org/2000/svg">
<g clip-path="url(#clip0_4767_68003)">
<path d="M16 32C24.8366 32 32 24.8366 32 16C32 7.16344 24.8366 0 16 0C7.16344 0 0 7.16344 0 16C0 24.8366 7.16344 32 16 32Z" fill="#5B6DEE"/>
<path d="M13.3 15.0201C12.7421 15.0173 12.1851 15.0655 11.636 15.1641C12.088 10.9841 15.572 7.81812 19.72 7.81812C22.26 7.81812 24 9.06212 24 11.6361C24 14.2111 21.911 15.4551 18.864 15.4551C16.614 15.4551 15.55 15.0211 13.3 15.0211M13.136 16.5451C10.089 16.5451 8 17.7901 8 20.3641C8 22.9381 9.74 24.1821 12.28 24.1821C16.428 24.1821 19.912 21.0171 20.364 16.8361C19.8149 16.9348 19.2579 16.983 18.7 16.9801C16.45 16.9801 15.385 16.5451 13.136 16.5451Z" fill="white"/>
</g>
<defs>
<clipPath id="clip0_4767_68003">
<rect width="32" height="32" fill="white"/>
</clipPath>
</defs>
</svg>
