<svg width="32" height="32" viewBox="0 0 32 32" fill="none" xmlns="http://www.w3.org/2000/svg">
<g clip-path="url(#clip0_174_4406)">
<path d="M15.9983 31.9965C24.8339 31.9965 31.9965 24.8339 31.9965 15.9983C31.9965 7.16267 24.8339 0 15.9983 0C7.16267 0 0 7.16267 0 15.9983C0 24.8339 7.16267 31.9965 15.9983 31.9965Z" fill="url(#paint0_linear_174_4406)"/>
<path d="M10.7287 12.0207C10.6008 11.8619 10.4068 11.7737 10.1996 11.7737H5.92659C5.89131 11.7737 5.86044 11.7605 5.83398 11.7385C5.81194 11.7164 5.79871 11.6899 5.79871 11.6591V8.77957C5.79871 8.7487 5.81194 8.72224 5.83398 8.70019C5.86044 8.67374 5.89131 8.66051 5.92659 8.66492H10.4421C11.5798 8.66492 12.5631 9.13234 13.3922 10.0628L14.4902 11.4033L12.3515 14.0094L10.7287 12.0207ZM18.622 10.0496C19.4466 9.12793 20.4344 8.66492 21.5853 8.66492H26.0876C26.1184 8.66051 26.1493 8.67374 26.1714 8.69138C26.1934 8.71342 26.2022 8.74429 26.1978 8.77957V11.6591C26.1978 11.6899 26.189 11.7164 26.1714 11.7385C26.1493 11.7649 26.1184 11.7781 26.0876 11.7737H21.8146C21.6118 11.7693 21.4177 11.8619 21.2855 12.0207L18.137 15.8527L21.2987 19.7111C21.4266 19.8567 21.6162 19.9448 21.8102 19.9404H26.0832C26.114 19.936 26.1493 19.9537 26.167 19.9757C26.1846 20.0022 26.1978 20.0374 26.1934 20.0683V22.9478C26.1934 22.9787 26.1846 23.0052 26.167 23.0272C26.1449 23.0537 26.114 23.0669 26.0832 23.0625H21.5853C20.4344 23.0625 19.4554 22.5951 18.6352 21.6646L16.0159 18.4676L13.3966 21.6646C12.572 22.5951 11.5842 23.0625 10.4333 23.0625H5.92659C5.89572 23.0669 5.86044 23.0492 5.8428 23.0272C5.82075 23.0007 5.81193 22.9655 5.81634 22.9346V20.0551C5.81634 20.0242 5.82516 19.9978 5.8428 19.9757C5.86485 19.9493 5.89572 19.936 5.92659 19.9404H10.1996C10.4024 19.9404 10.5964 19.8478 10.7287 19.6935L13.8199 15.9188L18.622 10.0496Z" fill="#00D1FF"/>
</g>
<defs>
<linearGradient id="paint0_linear_174_4406" x1="16.0005" y1="-9.2603e-05" x2="16.0005" y2="8.46647" gradientUnits="userSpaceOnUse">
<stop stop-color="#090220"/>
<stop offset="1" stop-color="#170659"/>
</linearGradient>
<clipPath id="clip0_174_4406">
<rect width="32" height="32" fill="white"/>
</clipPath>
</defs>
</svg>
