<svg width="32" height="32" viewBox="0 0 32 32" fill="none" xmlns="http://www.w3.org/2000/svg">
<g clip-path="url(#clip0_4767_67644)">
<path d="M15.9983 31.9965C24.8339 31.9965 31.9965 24.8339 31.9965 15.9983C31.9965 7.16267 24.8339 0 15.9983 0C7.16267 0 0 7.16267 0 15.9983C0 24.8339 7.16267 31.9965 15.9983 31.9965Z" fill="url(#paint0_linear_4767_67644)"/>
<path d="M10.7288 12.0207C10.601 11.8619 10.4069 11.7737 10.1997 11.7737H5.92671C5.89143 11.7737 5.86056 11.7605 5.83411 11.7385C5.81206 11.7164 5.79883 11.6899 5.79883 11.6591V8.77957C5.79883 8.7487 5.81206 8.72224 5.83411 8.70019C5.86056 8.67374 5.89143 8.66051 5.92671 8.66492H10.4422C11.5799 8.66492 12.5633 9.13234 13.3923 10.0628L14.4903 11.4033L12.3516 14.0094L10.7288 12.0207ZM18.6221 10.0496C19.4467 9.12793 20.4345 8.66492 21.5854 8.66492H26.0877C26.1186 8.66051 26.1494 8.67374 26.1715 8.69138C26.1935 8.71342 26.2024 8.74429 26.1979 8.77957V11.6591C26.1979 11.6899 26.1891 11.7164 26.1715 11.7385C26.1494 11.7649 26.1186 11.7781 26.0877 11.7737H21.8147C21.6119 11.7693 21.4179 11.8619 21.2856 12.0207L18.1371 15.8527L21.2988 19.7111C21.4267 19.8567 21.6163 19.9448 21.8103 19.9404H26.0833C26.1142 19.936 26.1494 19.9537 26.1671 19.9757C26.1847 20.0022 26.1979 20.0374 26.1935 20.0683V22.9478C26.1935 22.9787 26.1847 23.0052 26.1671 23.0272C26.145 23.0537 26.1142 23.0669 26.0833 23.0625H21.5854C20.4345 23.0625 19.4556 22.5951 18.6354 21.6646L16.016 18.4676L13.3967 21.6646C12.5721 22.5951 11.5843 23.0625 10.4334 23.0625H5.92671C5.89584 23.0669 5.86056 23.0492 5.84292 23.0272C5.82088 23.0007 5.81206 22.9655 5.81647 22.9346V20.0551C5.81647 20.0242 5.82529 19.9978 5.84292 19.9757C5.86497 19.9493 5.89584 19.936 5.92671 19.9404H10.1997C10.4025 19.9404 10.5965 19.8478 10.7288 19.6935L13.82 15.9188L18.6221 10.0496Z" fill="#00D1FF"/>
</g>
<defs>
<linearGradient id="paint0_linear_4767_67644" x1="16.0005" y1="-9.2603e-05" x2="16.0005" y2="8.46647" gradientUnits="userSpaceOnUse">
<stop stop-color="#090220"/>
<stop offset="1" stop-color="#170659"/>
</linearGradient>
<clipPath id="clip0_4767_67644">
<rect width="32" height="32" fill="white"/>
</clipPath>
</defs>
</svg>
