<svg width="32" height="32" viewBox="0 0 32 32" fill="none" xmlns="http://www.w3.org/2000/svg">
<g clip-path="url(#clip0_4767_71286)">
<path d="M4.9353 4.9502H27.0111V27.026H4.9353V4.9502Z" fill="white"/>
<path d="M14.6396 1.3463C15.0939 0.899877 15.5353 0.439865 15.9957 0C17.1575 1.13668 18.293 2.30038 19.4484 3.44377C19.6751 3.66043 19.8828 3.89611 20.1139 4.10845C21.127 5.13272 22.1536 6.14356 23.1678 7.1664L23.2254 7.24427C23.1135 7.37986 22.9807 7.49578 22.8831 7.6416C22.8059 7.54681 22.722 7.45768 22.632 7.3749C20.5229 5.26655 18.414 3.15778 16.3054 1.04858C16.2061 0.948485 16.109 0.845513 16.0001 0.755654C15.9009 0.825687 15.8211 0.918105 15.736 1.00381C14.3609 2.38896 12.9739 3.7626 11.5956 5.14503C10.8622 5.87819 10.1288 6.61109 9.39529 7.34372C9.29184 7.44909 9.18951 7.55686 9.07247 7.64752C8.96607 7.51307 8.84839 7.38795 8.7207 7.27353C8.99252 6.98252 9.28305 6.70878 9.56158 6.42402C11.2545 4.7316 12.9472 3.03903 14.6396 1.3463Z" fill="#CC4732"/>
<path d="M25.4058 10.1691C25.5471 10.0557 25.679 9.93103 25.8002 9.79639C27.8456 11.843 29.8916 13.8896 31.9383 15.9363C31.99 15.9726 31.9938 16.0322 31.9395 16.0677C30.0277 17.984 28.1138 19.8985 26.1977 21.8112C26.0658 21.9315 25.9558 22.0779 25.8092 22.1803C25.7015 22.047 25.5784 21.9271 25.4424 21.8229C25.5506 21.703 25.6677 21.5914 25.782 21.4772C27.289 19.9703 28.796 18.4633 30.303 16.9564C30.6176 16.6348 30.9462 16.3261 31.2527 15.997C29.5166 14.2579 27.7791 12.5201 26.0402 10.7834C25.8279 10.5786 25.6333 10.3557 25.4058 10.1691Z" fill="#CC4732"/>
<path d="M6.16531 9.81738C6.28865 9.95585 6.42544 10.0817 6.57368 10.1931C6.4496 10.2656 6.3575 10.3772 6.25997 10.4798C4.4204 12.3154 2.58867 14.1586 0.745101 15.9892C0.838158 16.1269 0.968951 16.2328 1.08311 16.3514C2.55018 17.8172 4.01672 19.2834 5.48273 20.7501C5.82809 21.1018 6.18753 21.4414 6.52315 21.8031C6.38714 21.9066 6.26372 22.0257 6.1554 22.1579C5.81243 21.8351 5.4872 21.4939 5.15159 21.1631C3.45886 19.4709 1.76644 17.7782 0.0743502 16.0852C0.0458754 16.0571 0.0209103 16.0256 0 15.9915C1.45343 14.5261 2.91884 13.072 4.37595 11.6104C4.97267 11.0126 5.57307 10.4192 6.16531 9.81738Z" fill="#CC4732"/>
<path d="M8.6792 24.722C8.81681 24.6042 8.94333 24.474 9.05719 24.3331C9.59539 24.8574 10.1216 25.394 10.6548 25.9234C12.2882 27.5575 13.9217 29.1912 15.5554 30.8245C15.7044 30.9648 15.8358 31.1254 15.9991 31.2506C16.0533 31.2026 16.1069 31.1546 16.1566 31.1025C18.4037 28.8499 20.6525 26.5993 22.9029 24.3507C23.0076 24.4894 23.1277 24.6158 23.261 24.7274C23.2227 24.7914 23.1679 24.8408 23.1154 24.8921C20.7939 27.2138 18.4724 29.5354 16.1508 31.8569C16.1022 31.9072 16.0511 31.9549 15.9977 32C15.8641 31.8943 15.7564 31.7602 15.6317 31.6447C13.365 29.3773 11.098 27.1099 8.83046 24.8425C8.78221 24.7997 8.73172 24.7595 8.6792 24.722Z" fill="#CC4732"/>
<path d="M15.8157 4.74882C15.8765 4.69126 15.9277 4.62203 16.0012 4.57886C19.571 8.14255 23.1385 11.7087 26.7036 15.2775C27.0533 15.6318 27.4112 15.9783 27.7572 16.3363C24.9512 19.1511 22.1414 21.9621 19.328 24.7693C18.2177 25.8766 17.1123 26.9886 15.9998 28.0938C15.6207 27.7337 15.2588 27.3538 14.8856 26.987C12.6867 24.7872 10.4874 22.5877 8.28767 20.3884C6.93897 19.0369 5.58452 17.6909 4.2395 16.3356C4.44576 16.1076 4.67313 15.8985 4.88755 15.6777C8.53044 12.035 12.1732 8.39204 15.8157 4.74882ZM15.227 10.8727C14.3535 10.9984 13.4724 11.2952 12.805 11.8917C12.3766 12.2688 12.0689 12.7638 11.9204 13.3148C11.7804 13.8453 11.7797 14.403 11.9182 14.934C12.0442 15.4122 12.3304 15.8424 12.7119 16.1554C13.0665 16.4511 13.4859 16.6575 13.9167 16.8174C14.5005 17.0324 15.1095 17.1663 15.7155 17.3012C16.1603 17.4031 16.6109 17.4953 17.0338 17.6714C17.2306 17.7569 17.431 17.8668 17.553 18.0498C17.7245 18.3045 17.66 18.6814 17.4212 18.8723C17.1871 19.0642 16.8806 19.1334 16.5877 19.1731C15.7844 19.2717 14.9669 19.1628 14.1949 18.9332C13.6343 18.7618 13.0917 18.5241 12.6003 18.2017C12.5315 18.3127 12.4911 18.4379 12.4347 18.5556C12.1689 19.1485 11.9041 19.7422 11.6403 20.3368C11.9834 20.5833 12.3709 20.761 12.764 20.9124C13.7873 21.2936 14.8842 21.4664 15.9748 21.4669C16.9326 21.4669 17.9134 21.3187 18.773 20.8753C19.4396 20.5323 20.0149 19.9773 20.2951 19.2733C20.5166 18.7286 20.5593 18.1195 20.4517 17.5436C20.3661 17.0935 20.1517 16.6677 19.8308 16.3395C19.4751 15.9717 19.0176 15.7199 18.5448 15.5344C17.9401 15.2986 17.3031 15.1579 16.6697 15.0223C16.2089 14.9171 15.7403 14.8304 15.3001 14.6532C15.0812 14.5587 14.8474 14.4355 14.7405 14.2103C14.6285 13.9494 14.7142 13.6282 14.9189 13.4372C15.1546 13.2204 15.4774 13.1346 15.7874 13.0919C16.8678 12.9537 17.962 13.2375 18.9274 13.7137C19.0181 13.7534 19.0998 13.8159 19.1973 13.8389C19.4851 13.1224 19.7899 12.412 20.0812 11.6963C19.6975 11.4603 19.2734 11.2974 18.8457 11.1607C17.6737 10.8084 16.4399 10.7106 15.227 10.8738V10.8727Z" fill="#151D5C"/>
<path d="M7.2887 6.89027C7.79221 6.80776 8.32801 6.94895 8.72134 7.27401C8.84903 7.38844 8.96671 7.51355 9.07311 7.648C9.27649 7.9518 9.39769 8.31571 9.39193 8.68283C9.39705 9.15691 9.20006 9.62763 8.86429 9.96197C8.52851 10.2963 8.06163 10.5026 7.58658 10.4947C7.22641 10.5 6.87321 10.3951 6.5743 10.1941C6.42586 10.0824 6.2889 9.95625 6.16546 9.81743C5.88516 9.48165 5.74654 9.03651 5.76333 8.60128C5.78161 8.21265 5.92331 7.83996 6.16785 7.53735C6.44888 7.19081 6.84807 6.96035 7.2887 6.89027Z" fill="#151D5C"/>
<path d="M23.3843 7.15965C23.8089 6.87712 24.3574 6.79685 24.8481 6.931C25.2469 7.04018 25.5966 7.28208 25.8394 7.61678C26.0615 7.9161 26.1739 8.28561 26.1912 8.65609C26.185 9.06381 26.0614 9.47905 25.7996 9.79676C25.6786 9.93127 25.5469 10.0558 25.4058 10.1692C25.1002 10.3943 24.7155 10.5049 24.3372 10.4942C23.8651 10.4931 23.3998 10.288 23.0728 9.9485C22.778 9.64601 22.5978 9.25024 22.5632 8.82927C22.5286 8.4083 22.6418 7.98843 22.8833 7.64188C22.981 7.49606 23.1145 7.38014 23.2257 7.24455C23.2815 7.22211 23.3347 7.19364 23.3843 7.15965Z" fill="#151D5C"/>
<path d="M6.52376 21.8033C6.80885 21.6197 7.13551 21.4913 7.47704 21.4789C7.81729 21.4595 8.15609 21.5366 8.4545 21.7012C8.75291 21.8659 8.9988 22.1113 9.16393 22.4095C9.32905 22.7076 9.40669 23.0463 9.38794 23.3866C9.36918 23.7269 9.25479 24.0549 9.0579 24.3331C8.94405 24.474 8.81752 24.6042 8.67991 24.722C8.39642 24.9538 8.03075 25.0803 7.66667 25.0972C7.14558 25.1292 6.61793 24.9134 6.26249 24.5322C6.02144 24.2793 5.85945 23.9615 5.7964 23.6179C5.75016 23.363 5.75825 23.1012 5.82014 22.8497C5.88202 22.5981 5.99631 22.3624 6.15552 22.1581C6.26399 22.0259 6.38758 21.9068 6.52376 21.8033Z" fill="#151D5C"/>
<path d="M23.4862 21.7057C24.0879 21.3584 24.8838 21.4121 25.4423 21.8221C25.5783 21.9262 25.7014 22.0462 25.8091 22.1794C26.094 22.5574 26.2368 23.0488 26.1689 23.5193C26.1038 24.0583 25.7768 24.5561 25.3125 24.8364C25.1053 24.9627 24.8748 25.0461 24.6347 25.0813C24.3945 25.1165 24.1498 25.103 23.915 25.0415C23.6785 24.9822 23.4582 24.8687 23.2611 24.7275C23.1278 24.6159 23.0077 24.4895 22.9031 24.3508C22.7522 24.1414 22.6476 23.9024 22.5961 23.6495C22.5445 23.3967 22.5472 23.1358 22.6041 22.8841C22.7126 22.3894 23.0436 21.9508 23.4862 21.7057Z" fill="#151D5C"/>
</g>
<defs>
<clipPath id="clip0_4767_71286">
<rect width="32" height="32" fill="white"/>
</clipPath>
</defs>
</svg>
