<svg width="32" height="32" viewBox="0 0 32 32" fill="none" xmlns="http://www.w3.org/2000/svg">
    <g clip-path="url(#clip0_5851_6704)">
        <path fill-rule="evenodd" clip-rule="evenodd"
            d="M28.473 16.0004C28.473 15.2946 28.3946 14.5887 28.3162 13.9613H31.8432C31.8504 14.026 31.8576 14.09 31.8647 14.1536C31.9353 14.7828 32 15.3593 32 16.0004C32 24.8629 24.8676 32 16.0108 32C6.84048 32 -0.44873 24.3924 0.0215425 15.1377C0.491814 6.82426 7.46752 0.0793498 15.854 0.000920554C23.2216 -0.0775085 29.4919 4.86352 31.373 11.7653H27.6892H25.1027H12.7189C12.6405 11.7653 12.4837 11.7653 12.327 11.8437C12.0135 11.9221 11.8567 12.1574 11.6999 12.4711C11.6216 12.5496 11.6216 12.7064 11.6216 12.8633C11.6216 12.9417 11.6216 13.0986 11.6999 13.2555C11.7783 13.4123 11.8567 13.5692 11.9351 13.6476L16.3243 18.0396H6.0567C5.82157 16.7847 5.82157 15.4515 6.0567 14.0397C6.91885 9.64771 10.681 6.27526 15.0702 5.8831C18.2837 5.64781 21.1837 6.82426 23.1432 8.86342C23.3784 9.09869 23.6919 9.25555 24.0054 9.25555C25.1027 9.25555 25.573 8.0007 24.8675 7.21638C22.3594 4.70666 18.8324 3.21651 14.9135 3.53024C9.89725 4.0008 5.6648 7.45168 4.01885 12.2359C3.23507 14.7456 3.31344 17.1769 3.94048 19.3729C3.98554 19.418 4.0047 19.4372 4.01283 19.4602C4.01885 19.4773 4.01885 19.4964 4.01885 19.5298C5.58643 24.7061 10.3675 28.4707 16.0108 28.4707C22.9081 28.4707 28.473 22.9022 28.473 16.0004ZM19.6946 20.2356C19.9297 20.1572 20.1648 19.9219 20.3216 19.6082C20.3216 19.5886 20.3265 19.5641 20.3326 19.5334C20.351 19.4415 20.3804 19.2945 20.3216 19.0592C20.3216 18.9808 20.3216 18.8239 20.2432 18.667C20.1648 18.5102 20.0865 18.3533 20.0081 18.2749L15.6189 13.8829H25.8865C26.1216 15.1377 26.1216 16.471 25.8865 17.8828C25.0243 22.3532 21.1837 25.7257 16.7162 26.0394C12.4053 26.3531 8.5648 23.9218 6.84048 20.314H19.3027C19.3811 20.314 19.5378 20.314 19.6946 20.2356Z"
            fill="url(#paint0_radial_5851_6704)" />
    </g>
    <defs>
        <radialGradient id="paint0_radial_5851_6704" cx="0" cy="0" r="1"
            gradientUnits="userSpaceOnUse"
            gradientTransform="translate(2.60214 -0.19625) scale(35.6243 35.6474)">
            <stop offset="0.475" stop-color="#4388DD" />
            <stop offset="0.9988" stop-color="#FF4581" />
        </radialGradient>
        <clipPath id="clip0_5851_6704">
            <rect width="32" height="32" fill="white" />
        </clipPath>
    </defs>
</svg>
    