<svg width="32" height="32" viewBox="0 0 32 32" fill="none" xmlns="http://www.w3.org/2000/svg">
<g clip-path="url(#clip0_4906_422)">
<path fill-rule="evenodd" clip-rule="evenodd" d="M16 1C24.2855 1 31 7.71447 31 16C31 24.2855 24.2855 31 16 31C7.71447 31 1 24.2855 1 16C1 7.71447 7.71447 1 16 1Z" fill="url(#paint0_linear_4906_422)" stroke="black"/>
<path d="M16 5.19482V13.1824L22.6452 16.1995L16 5.19482Z" fill="url(#paint1_linear_4906_422)"/>
<path d="M15.9999 5.19482L9.35059 16.1995L15.9999 13.1824V5.19482Z" fill="url(#paint2_linear_4906_422)"/>
<path d="M16 21.3777V26.8052L22.6494 17.4587L16 21.3777Z" fill="url(#paint3_linear_4906_422)"/>
<path d="M15.9999 26.8052V21.3777L9.35059 17.4587L15.9999 26.8052Z" fill="url(#paint4_linear_4906_422)"/>
<path d="M16 20.1226L22.6452 16.1995L16 13.1865V20.1226Z" fill="url(#paint5_linear_4906_422)"/>
<path d="M9.35059 16.1995L15.9999 20.1226V13.1865L9.35059 16.1995Z" fill="url(#paint6_linear_4906_422)"/>
<path d="M5.81824 9.76624C7.31013 9.76624 8.51954 8.55683 8.51954 7.06495C8.51954 5.57306 7.31013 4.36365 5.81824 4.36365C4.32636 4.36365 3.11694 5.57306 3.11694 7.06495C3.11694 8.55683 4.32636 9.76624 5.81824 9.76624Z" fill="url(#paint7_linear_4906_422)"/>
<path fill-rule="evenodd" clip-rule="evenodd" d="M5.51488 6.30853V5.61035H4.7793V8.51944H5.51488V7.55944C5.51488 7.06074 6.20475 6.4997 6.77826 6.4997H6.85722V5.69762H6.77826C6.2754 5.69762 5.74345 5.90542 5.51488 6.30853Z" fill="url(#paint8_linear_4906_422)"/>
</g>
<defs>
<linearGradient id="paint0_linear_4906_422" x1="3.84211" y1="1.33158" x2="28.4421" y2="31.3316" gradientUnits="userSpaceOnUse">
<stop stop-color="#0093ED"/>
<stop offset="1" stop-color="#00F3AB"/>
</linearGradient>
<linearGradient id="paint1_linear_4906_422" x1="20.7271" y1="16.0431" x2="17.3429" y2="6.54063" gradientUnits="userSpaceOnUse">
<stop stop-color="#000A17"/>
<stop offset="1" stop-color="#00554F"/>
</linearGradient>
<linearGradient id="paint2_linear_4906_422" x1="11.7734" y1="15.823" x2="8.39092" y2="6.3192" gradientUnits="userSpaceOnUse">
<stop stop-color="#000A17"/>
<stop offset="1" stop-color="#00554F"/>
</linearGradient>
<linearGradient id="paint3_linear_4906_422" x1="21.6852" y1="26.5491" x2="18.2877" y2="18.6073" gradientUnits="userSpaceOnUse">
<stop stop-color="#000A17"/>
<stop offset="1" stop-color="#00554F"/>
</linearGradient>
<linearGradient id="paint4_linear_4906_422" x1="12.5049" y1="26.3621" x2="9.10227" y2="18.322" gradientUnits="userSpaceOnUse">
<stop stop-color="#000A17"/>
<stop offset="1" stop-color="#00554F"/>
</linearGradient>
<linearGradient id="paint5_linear_4906_422" x1="21.3916" y1="19.4727" x2="17.8429" y2="13.1489" gradientUnits="userSpaceOnUse">
<stop stop-color="#000A17"/>
<stop offset="1" stop-color="#00554F"/>
</linearGradient>
<linearGradient id="paint6_linear_4906_422" x1="13.3693" y1="18.6403" x2="9.7542" y2="12.3886" gradientUnits="userSpaceOnUse">
<stop stop-color="#000A17"/>
<stop offset="1" stop-color="#00554F"/>
</linearGradient>
<linearGradient id="paint7_linear_4906_422" x1="7.065" y1="9.16365" x2="4.09357" y2="4.13923" gradientUnits="userSpaceOnUse">
<stop stop-color="#000A17"/>
<stop offset="1" stop-color="#00554F"/>
</linearGradient>
<linearGradient id="paint8_linear_4906_422" x1="5.38189" y1="5.61451" x2="6.84902" y2="8.17048" gradientUnits="userSpaceOnUse">
<stop stop-color="#0093ED"/>
<stop offset="1" stop-color="#00F3AB"/>
</linearGradient>
<clipPath id="clip0_4906_422">
<rect width="32" height="32" fill="white"/>
</clipPath>
</defs>
</svg>
