<svg width="32" height="32" viewBox="0 0 32 32" fill="none" xmlns="http://www.w3.org/2000/svg">
<path d="M24.1667 10.4998C23.5833 10.1665 22.8333 10.1665 22.1667 10.4998L17.5 13.2498L14.3333 14.9998L9.75 17.7498C9.16667 18.0832 8.41667 18.0832 7.75 17.7498L4.16667 15.5832C3.58333 15.2498 3.16667 14.5832 3.16667 13.8332V9.6665C3.16667 8.99984 3.5 8.33317 4.16667 7.9165L7.75 5.83317C8.33333 5.49984 9.08333 5.49984 9.75 5.83317L13.3333 7.99984C13.9167 8.33317 14.3333 8.99984 14.3333 9.74984V12.4998L17.5 10.6665V7.83317C17.5 7.1665 17.1667 6.49984 16.5 6.08317L9.83333 2.1665C9.25 1.83317 8.5 1.83317 7.83333 2.1665L1 6.1665C0.333333 6.49984 0 7.1665 0 7.83317V15.6665C0 16.3332 0.333333 16.9998 1 17.4165L7.75 21.3332C8.33333 21.6665 9.08333 21.6665 9.75 21.3332L14.3333 18.6665L17.5 16.8332L22.0833 14.1665C22.6667 13.8332 23.4167 13.8332 24.0833 14.1665L27.6667 16.2498C28.25 16.5832 28.6667 17.2498 28.6667 17.9998V22.1665C28.6667 22.8332 28.3333 23.4998 27.6667 23.9165L24.1667 25.9998C23.5833 26.3332 22.8333 26.3332 22.1667 25.9998L18.5833 23.9165C18 23.5832 17.5833 22.9165 17.5833 22.1665V19.4998L14.4167 21.3332V24.0832C14.4167 24.7498 14.75 25.4165 15.4167 25.8332L22.1667 29.7498C22.75 30.0832 23.5 30.0832 24.1667 29.7498L30.9167 25.8332C31.5 25.4998 31.9167 24.8332 31.9167 24.0832V16.1665C31.9167 15.4998 31.5833 14.8332 30.9167 14.4165L24.1667 10.4998Z" fill="url(#paint0_linear_4797_63779)"/>
<defs>
<linearGradient id="paint0_linear_4797_63779" x1="30.5" y1="6" x2="2.5" y2="24" gradientUnits="userSpaceOnUse">
<stop stop-color="#4DA7F0"/>
<stop offset="1" stop-color="#64C7F2"/>
</linearGradient>
</defs>
</svg>
