<svg width="32" height="32" viewBox="0 0 32 32" fill="none" xmlns="http://www.w3.org/2000/svg">
<g clip-path="url(#clip0_174_4395)">
<path d="M4.55151 21.7616C4.37844 21.7616 4.20926 21.8129 4.06536 21.9091C3.92147 22.0052 3.80931 22.1419 3.74308 22.3018C3.67685 22.4617 3.65952 22.6376 3.69328 22.8073C3.72705 22.9771 3.81039 23.133 3.93276 23.2554C4.05514 23.3778 4.21106 23.4611 4.3808 23.4949C4.55054 23.5286 4.72648 23.5113 4.88637 23.4451C5.04627 23.3788 5.18293 23.2667 5.27908 23.1228C5.37523 22.9789 5.42655 22.8097 5.42655 22.6366C5.42655 22.4814 5.38415 22.3403 5.31359 22.1992C5.23536 22.0665 5.12399 21.9564 4.99039 21.8797C4.85679 21.803 4.70555 21.7624 4.55151 21.7618M16.9141 2.72367C16.9141 2.55061 16.8628 2.38143 16.7666 2.23753C16.6705 2.09363 16.5338 1.98147 16.3739 1.91524C16.214 1.84901 16.0381 1.83168 15.8683 1.86545C15.6986 1.89921 15.5427 1.98255 15.4203 2.10493C15.2979 2.2273 15.2146 2.38322 15.1808 2.55296C15.147 2.7227 15.1644 2.89864 15.2306 3.05854C15.2968 3.21843 15.409 3.35509 15.5529 3.45124C15.6968 3.54739 15.866 3.59871 16.039 3.59871C16.2707 3.59741 16.4925 3.5048 16.6563 3.34098C16.8202 3.17716 16.9128 2.95535 16.9141 2.72367M27.584 10.3163C27.7571 10.3163 27.9262 10.265 28.0701 10.1688C28.214 10.0727 28.3262 9.93603 28.3924 9.77614C28.4587 9.61624 28.476 9.4403 28.4422 9.27056C28.4085 9.10082 28.3251 8.9449 28.2027 8.82253C28.0804 8.70015 27.9244 8.61681 27.7547 8.58305C27.585 8.54928 27.409 8.56661 27.2491 8.63284C27.0892 8.69907 26.9526 8.81123 26.8564 8.95513C26.7603 9.09903 26.709 9.26821 26.709 9.44127C26.7095 9.58977 26.7484 9.7356 26.8219 9.86463C26.8971 10.0011 27.0074 10.1149 27.1414 10.1943C27.2754 10.2738 27.4282 10.3159 27.584 10.3163M4.95999 8.63679C4.53663 8.39679 4.01439 8.53807 3.77455 8.96143C3.53471 9.38479 3.67583 9.90703 4.09919 10.1469C4.52255 10.3867 5.04479 10.2456 5.28463 9.82223C5.52463 9.41295 5.38335 8.87663 4.95999 8.63679ZM27.936 21.9309C27.809 21.8462 27.6538 21.8179 27.4986 21.8038C27.3827 21.8023 27.2676 21.8237 27.1601 21.867C27.0525 21.9103 26.9547 21.9745 26.8722 22.0559C26.7897 22.1373 26.7241 22.2343 26.6794 22.3412C26.6347 22.4481 26.6117 22.5629 26.6117 22.6788C26.6117 22.7947 26.6347 22.9095 26.6794 23.0164C26.7241 23.1233 26.7897 23.2203 26.8722 23.3017C26.9547 23.3831 27.0525 23.4473 27.1601 23.4906C27.2676 23.5338 27.3827 23.5553 27.4986 23.5538C27.809 23.5538 28.0906 23.3845 28.2606 23.1163C28.5006 22.707 28.3594 22.1707 27.936 21.9309M15.164 29.2269C15.1216 29.6221 15.3616 30.003 15.7285 30.1442C15.8131 30.1723 15.912 30.2006 15.9966 30.2006C16.2106 30.2003 16.4178 30.1254 16.5826 29.9889C16.7475 29.8524 16.8596 29.6628 16.8998 29.4526C16.9312 29.2254 16.8716 28.9949 16.734 28.8114C16.5963 28.6279 16.3918 28.5061 16.1648 28.4726C15.9379 28.4391 15.7069 28.4966 15.5221 28.6325C15.3373 28.7685 15.2137 28.9719 15.1781 29.1986C15.1704 29.2062 15.1655 29.216 15.164 29.2267" fill="#2683FF"/>
<path d="M28.797 20.3221C28.693 20.2619 28.5844 20.21 28.4723 20.1669V11.9957C28.5994 11.9533 28.7264 11.8827 28.8535 11.8264C30.1655 11.0925 30.6455 9.4272 29.9119 8.1144C29.1783 6.8016 27.5127 6.3224 26.1999 7.056C26.0869 7.11248 25.9882 7.18304 25.8895 7.2536L18.692 3.0904C18.7061 2.96336 18.7202 2.8504 18.7202 2.72352C18.72 1.2136 17.4928 0 15.9968 0C14.5008 0 13.2448 1.24192 13.2448 2.73776C13.2448 2.8648 13.2589 2.97776 13.273 3.10464L6.13202 7.23968C5.84795 7.01713 5.52256 6.85315 5.17468 6.75724C4.82679 6.66132 4.46334 6.63537 4.10536 6.6809C3.74738 6.72642 3.40199 6.84251 3.08919 7.02245C2.77639 7.20239 2.5024 7.44259 2.28308 7.72916C2.06375 8.01572 1.90346 8.34295 1.81148 8.69189C1.7195 9.04083 1.69767 9.40456 1.74723 9.762C1.7968 10.1194 1.91679 10.4635 2.10025 10.7742C2.28371 11.085 2.52699 11.3563 2.81602 11.5723C2.91474 11.6429 3.01362 11.7134 3.12642 11.784C3.24169 11.8545 3.36482 11.9114 3.4933 11.9533V20.1104C2.09602 20.6749 1.41842 22.256 1.9829 23.6526C2.54738 25.0493 4.12802 25.7272 5.5253 25.1627C5.65234 25.1203 5.7653 25.0498 5.8781 24.9934C5.99106 24.9229 6.10386 24.8523 6.21682 24.7677L13.2872 28.8462C13.0472 30.328 14.0634 31.7251 15.5453 31.9651C17.0272 32.2051 18.4243 31.189 18.6642 29.707C18.6923 29.5518 18.6923 29.4107 18.6923 29.2554C18.6905 29.1232 18.6811 28.9913 18.6642 28.8602L25.6923 24.8099C25.8053 24.8946 25.9181 24.9792 26.0451 25.0499C27.3571 25.7838 29.0229 25.3181 29.7571 24.0056C30.4623 22.693 30.0389 21.0842 28.797 20.3221V20.3221ZM29.2909 23.7373C28.7123 24.7251 27.428 25.0638 26.4402 24.4853C25.6499 24.0195 25.2547 23.1022 25.4664 22.2133L22.164 20.2798C21.6544 20.7967 21.0034 21.1514 20.2928 21.2994C19.5822 21.4474 18.8437 21.3822 18.1701 21.1118C17.6762 21.267 16.6181 21.3659 16.6181 21.3659V27.1803C17.7754 27.5331 18.4101 28.761 18.0581 29.9181C17.7061 31.0752 16.4775 31.7101 15.3202 31.3581C15.3061 31.3581 15.292 31.344 15.2778 31.344C15.1791 31.3158 15.0943 31.2734 15.0096 31.231C13.9229 30.6947 13.4995 29.3682 14.0359 28.2957C14.304 27.7594 14.7839 27.3643 15.3479 27.1808V21.2534C14.9334 21.1253 14.5279 20.9697 14.1341 20.7877C13.5036 20.9137 12.853 20.8993 12.2286 20.7457C11.6042 20.592 11.0213 20.3028 10.5213 19.8986L6.58386 22.1706C6.68007 22.5737 6.65458 22.9964 6.51061 23.3851C6.36663 23.7738 6.11064 24.1111 5.77499 24.3543C5.43935 24.5975 5.03912 24.7358 4.62491 24.7516C4.2107 24.7673 3.80112 24.66 3.44794 24.443C3.09475 24.226 2.81384 23.9092 2.6407 23.5326C2.46757 23.1559 2.40999 22.7364 2.47524 22.3271C2.5405 21.9178 2.72566 21.537 3.00732 21.2329C3.28897 20.9287 3.65448 20.715 4.05762 20.6186C4.73506 20.4493 5.45474 20.6467 5.97762 21.1266L9.66098 18.9955C8.41906 17.2456 8.61666 14.8464 10.141 13.3222L5.94898 10.923C5.11698 11.7133 3.80386 11.671 3.01362 10.8243C2.82559 10.6246 2.67893 10.3897 2.58207 10.133C2.48521 9.87639 2.44007 9.60313 2.44925 9.32898C2.45842 9.05483 2.52173 8.7852 2.63553 8.53562C2.74934 8.28603 2.91138 8.06142 3.11234 7.87472C3.95906 7.08448 5.25746 7.12672 6.0477 7.97344C6.5277 8.48144 6.71106 9.18704 6.5557 9.86448L11.1987 12.5317C11.807 12.2045 12.484 12.0255 13.1746 12.0094C13.824 11.4734 15.488 10.923 15.488 10.923V4.57248C14.4578 4.26208 13.8792 3.17536 14.1896 2.14512C14.5 1.11488 15.5875 0.5504 16.6178 0.8608C17.648 1.1712 18.2266 2.25792 17.9162 3.28816C17.8244 3.59529 17.6577 3.87477 17.431 4.10142C17.2044 4.32808 16.9249 4.4948 16.6178 4.58656V10.8106C16.6178 10.8106 19.6661 11.5726 20.6258 12.7157L25.5651 9.90736C25.3111 8.7784 26.0026 7.64928 27.1317 7.39536C28.2608 7.14144 29.3898 7.8328 29.6437 8.96192C29.8976 10.091 29.2063 11.22 28.0771 11.4739C27.7411 11.5496 27.3916 11.5416 27.0593 11.4505C26.7271 11.3595 26.4223 11.1882 26.1719 10.9517L21.289 13.7174C21.4301 14.0138 21.5571 14.3094 21.6418 14.6206C23.1519 15.6509 23.6882 17.6266 22.8837 19.2778L26.1157 21.1547C26.4413 20.8512 26.8564 20.6611 27.2989 20.6128C27.7414 20.5644 28.1877 20.6605 28.5712 20.8866C29.545 21.4651 29.8832 22.7354 29.2912 23.7373H29.2909Z" fill="#2683FF"/>
<path d="M20.1884 15.7212C20.1743 15.6082 20.1602 15.5095 20.146 15.3966C20.1322 15.3201 20.1133 15.2447 20.0895 15.1708C20.0895 15.1426 20.0754 15.1143 20.0754 15.0862C20.0472 15.0015 20.0189 14.9026 19.9908 14.818V14.8039C19.8113 14.3305 19.5376 13.8984 19.1863 13.5338C19.1016 13.4492 19.0311 13.3786 18.9322 13.2938L18.9181 13.2798C18.8335 13.2092 18.7488 13.1386 18.65 13.0822L18.6359 13.0681C18.5512 13.0116 18.4524 12.941 18.3677 12.8988L18.3536 12.8847C18.2625 12.8321 18.1682 12.785 18.0714 12.7436L18.0432 12.7295C17.9445 12.6871 17.8456 12.6449 17.7328 12.6025L17.7188 12.5884C17.6058 12.5602 17.5071 12.5178 17.3941 12.5038H17.38C17.2684 12.4781 17.1553 12.4592 17.0413 12.4473H17.0272C16.4262 12.3619 15.8132 12.4348 15.249 12.659L15.1784 12.7154C15.0938 12.7436 14.9527 12.8142 14.868 12.8566C14.824 12.8856 14.7766 12.9093 14.7269 12.9271C14.6845 12.9412 14.614 12.9977 14.5717 13.0258C14.5295 13.054 14.4306 13.1246 14.3741 13.167L14.3317 13.1951C14.2471 13.2516 14.1765 13.3222 14.0917 13.3927L14.0212 13.4633C13.9365 13.5479 13.866 13.6185 13.7954 13.7033C13.6275 13.6752 13.4576 13.661 13.2874 13.6609C13.2309 13.6609 13.1887 13.6609 13.1463 13.675C12.4972 13.7031 11.8762 13.9713 11.3964 14.4089C11.1564 14.6206 10.9589 14.8889 10.8044 15.171L10.7893 15.1998C10.7458 15.2817 10.7081 15.3666 10.6764 15.4538C10.6623 15.482 10.6623 15.4962 10.6482 15.5244C10.6183 15.5975 10.5947 15.673 10.5776 15.7502C10.5636 15.7783 10.5636 15.8207 10.5495 15.8489C10.5354 15.9194 10.5213 15.99 10.5071 16.0746C10.5071 16.1028 10.493 16.1311 10.493 16.1734C10.4813 16.2812 10.4766 16.3896 10.4789 16.498C10.4766 16.5876 10.4813 16.6773 10.493 16.7662C10.493 16.7943 10.5071 16.8226 10.5071 16.8649C10.5212 16.9214 10.5212 16.9778 10.5352 17.0342C10.5493 17.0905 10.5493 17.1047 10.5634 17.1471C10.5795 17.1877 10.589 17.2306 10.5916 17.2742C10.5916 17.3166 10.6197 17.3588 10.634 17.4012C10.6455 17.4352 10.6597 17.4682 10.6764 17.4999C10.6976 17.546 10.7165 17.5931 10.7328 17.641C10.7469 17.6692 10.761 17.6834 10.761 17.7116C10.9593 18.1764 11.2941 18.5701 11.721 18.8406C11.9327 18.9676 12.1444 19.0806 12.3701 19.151C12.4577 19.181 12.5473 19.2046 12.6383 19.2215L12.6664 19.2356L12.9205 19.278L12.977 19.2921C13.0757 19.3062 13.1746 19.3062 13.2874 19.3062C13.6685 19.3062 14.0354 19.2356 14.3741 19.0804C14.4588 19.1369 14.5293 19.1934 14.6141 19.2497L14.6423 19.2638C14.7128 19.3062 14.7975 19.3484 14.8823 19.3908H14.896C15.7027 19.8019 16.6336 19.8975 17.5069 19.659H17.521C17.648 19.6315 17.7712 19.5889 17.8879 19.5319L18.269 19.3626C18.6319 19.6457 19.0788 19.7997 19.5391 19.8001C19.6378 19.8001 19.7226 19.786 19.8213 19.786L19.8919 19.7719C19.9823 19.7585 20.0719 19.7396 20.16 19.7154C20.247 19.6887 20.3319 19.6557 20.4141 19.6167L20.4565 19.6026C20.5412 19.5602 20.6117 19.518 20.6965 19.4756C21.0493 19.2498 21.3175 18.9111 21.4727 18.53C21.5292 18.403 21.5573 18.2759 21.5856 18.149V18.1066C21.5997 18.0502 21.5997 17.9937 21.6138 17.9374C21.6138 17.8668 21.6279 17.7962 21.6279 17.7257C21.6279 16.7943 21.0493 15.9898 20.1879 15.7217" fill="#2683FF"/>
</g>
<defs>
<clipPath id="clip0_174_4395">
<rect width="32" height="32" fill="white"/>
</clipPath>
</defs>
</svg>
