<svg width="32" height="32" viewBox="0 0 32 32" fill="none" xmlns="http://www.w3.org/2000/svg">
<g clip-path="url(#clip0_4767_67692)">
<path d="M4.55169 21.7616C4.37863 21.7616 4.20945 21.8129 4.06555 21.9091C3.92165 22.0052 3.80949 22.1419 3.74326 22.3018C3.67703 22.4617 3.6597 22.6376 3.69347 22.8073C3.72723 22.9771 3.81057 23.133 3.93295 23.2554C4.05532 23.3778 4.21124 23.4611 4.38098 23.4949C4.55072 23.5286 4.72667 23.5113 4.88656 23.4451C5.04645 23.3788 5.18311 23.2667 5.27926 23.1228C5.37541 22.9789 5.42673 22.8097 5.42673 22.6366C5.42673 22.4814 5.38433 22.3403 5.31377 22.1992C5.23555 22.0665 5.12417 21.9564 4.99057 21.8797C4.85697 21.803 4.70574 21.7624 4.55169 21.7618M16.9143 2.72367C16.9143 2.55061 16.8629 2.38143 16.7668 2.23753C16.6706 2.09363 16.534 1.98147 16.3741 1.91524C16.2142 1.84901 16.0382 1.83168 15.8685 1.86545C15.6988 1.89921 15.5428 1.98255 15.4205 2.10493C15.2981 2.2273 15.2148 2.38322 15.181 2.55296C15.1472 2.7227 15.1646 2.89864 15.2308 3.05854C15.297 3.21843 15.4092 3.35509 15.5531 3.45124C15.697 3.54739 15.8661 3.59871 16.0392 3.59871C16.2709 3.59741 16.4927 3.5048 16.6565 3.34098C16.8203 3.17716 16.913 2.95535 16.9143 2.72367ZM27.5842 10.3163C27.7572 10.3163 27.9264 10.265 28.0703 10.1688C28.2142 10.0727 28.3264 9.93603 28.3926 9.77614C28.4588 9.61624 28.4762 9.4403 28.4424 9.27056C28.4086 9.10082 28.3253 8.9449 28.2029 8.82253C28.0805 8.70015 27.9246 8.61681 27.7549 8.58305C27.5851 8.54928 27.4092 8.56661 27.2493 8.63284C27.0894 8.69907 26.9528 8.81123 26.8566 8.95513C26.7605 9.09903 26.7091 9.26821 26.7091 9.44127C26.7097 9.58977 26.7486 9.7356 26.8221 9.86463C26.8973 10.0011 27.0076 10.1149 27.1416 10.1943C27.2756 10.2738 27.4284 10.3159 27.5842 10.3163ZM4.96017 8.63679C4.53681 8.39679 4.01457 8.53807 3.77473 8.96143C3.53489 9.38479 3.67601 9.90703 4.09937 10.1469C4.52273 10.3867 5.04497 10.2456 5.28481 9.82223C5.52481 9.41295 5.38353 8.87663 4.96017 8.63679ZM27.9362 21.9309C27.8091 21.8462 27.6539 21.8179 27.4987 21.8038C27.3828 21.8023 27.2678 21.8237 27.1603 21.867C27.0527 21.9103 26.9549 21.9745 26.8724 22.0559C26.7898 22.1373 26.7243 22.2343 26.6796 22.3412C26.6349 22.4481 26.6119 22.5629 26.6119 22.6788C26.6119 22.7947 26.6349 22.9095 26.6796 23.0164C26.7243 23.1233 26.7898 23.2203 26.8724 23.3017C26.9549 23.3831 27.0527 23.4473 27.1603 23.4906C27.2678 23.5338 27.3828 23.5553 27.4987 23.5538C27.8091 23.5538 28.0907 23.3845 28.2608 23.1163C28.5008 22.707 28.3595 22.1707 27.9362 21.9309ZM15.1642 29.2269C15.1218 29.6221 15.3618 30.003 15.7287 30.1442C15.8133 30.1723 15.9122 30.2006 15.9968 30.2006C16.2108 30.2003 16.418 30.1254 16.5828 29.9889C16.7476 29.8524 16.8598 29.6628 16.9 29.4526C16.9314 29.2254 16.8718 28.9949 16.7342 28.8114C16.5965 28.6278 16.392 28.5061 16.165 28.4726C15.9381 28.4391 15.7071 28.4966 15.5223 28.6325C15.3375 28.7685 15.2138 28.9719 15.1783 29.1986C15.1706 29.2062 15.1657 29.216 15.1642 29.2267" fill="#2683FF"/>
<path d="M28.797 20.3221C28.6931 20.2619 28.5845 20.21 28.4724 20.1669V11.9957C28.5994 11.9533 28.7265 11.8827 28.8535 11.8264C30.1655 11.0925 30.6455 9.4272 29.9119 8.1144C29.1783 6.8016 27.5127 6.3224 26.1999 7.056C26.087 7.11248 25.9882 7.18304 25.8895 7.2536L18.6921 3.0904C18.7062 2.96336 18.7202 2.8504 18.7202 2.72352C18.7201 1.2136 17.4929 0 15.9969 0C14.5009 0 13.2449 1.24192 13.2449 2.73776C13.2449 2.8648 13.259 2.97776 13.273 3.10464L6.13208 7.23968C5.84801 7.01713 5.52262 6.85315 5.17474 6.75724C4.82686 6.66132 4.4634 6.63537 4.10542 6.6809C3.74745 6.72642 3.40206 6.84251 3.08925 7.02245C2.77645 7.20239 2.50246 7.44259 2.28314 7.72916C2.06381 8.01572 1.90352 8.34295 1.81154 8.69189C1.71957 9.04083 1.69773 9.40456 1.74729 9.762C1.79686 10.1194 1.91685 10.4635 2.10031 10.7742C2.28377 11.085 2.52706 11.3563 2.81608 11.5723C2.9148 11.6429 3.01368 11.7134 3.12648 11.784C3.24175 11.8545 3.36488 11.9114 3.49336 11.9533V20.1104C2.09608 20.6749 1.41848 22.256 1.98296 23.6526C2.54744 25.0493 4.12808 25.7272 5.52536 25.1627C5.6524 25.1203 5.76536 25.0498 5.87816 24.9934C5.99112 24.9229 6.10392 24.8523 6.21688 24.7677L13.2873 28.8462C13.0473 30.328 14.0634 31.7251 15.5454 31.9651C17.0273 32.2051 18.4244 31.189 18.6642 29.707C18.6924 29.5518 18.6924 29.4107 18.6924 29.2554C18.6905 29.1232 18.6811 28.9913 18.6642 28.8602L25.6924 24.8099C25.8054 24.8946 25.9182 24.9792 26.0452 25.0499C27.3572 25.7838 29.023 25.3181 29.7572 24.0056C30.4623 22.693 30.039 21.0842 28.797 20.3221ZM29.291 23.7373C28.7124 24.7251 27.4281 25.0638 26.4402 24.4853C25.65 24.0195 25.2548 23.1022 25.4665 22.2133L22.1641 20.2798C21.6544 20.7967 21.0034 21.1514 20.2928 21.2994C19.5823 21.4474 18.8438 21.3822 18.1702 21.1118C17.6762 21.267 16.6182 21.3659 16.6182 21.3659V27.1803C17.7754 27.5331 18.4102 28.761 18.0582 29.9181C17.7062 31.0752 16.4775 31.7101 15.3202 31.3581C15.3062 31.3581 15.2921 31.344 15.2778 31.344C15.1791 31.3158 15.0943 31.2734 15.0097 31.231C13.923 30.6947 13.4996 29.3682 14.0359 28.2957C14.3041 27.7594 14.7839 27.3643 15.3479 27.1808V21.2534C14.9334 21.1253 14.5279 20.9697 14.1342 20.7877C13.5036 20.9137 12.8531 20.8993 12.2287 20.7457C11.6043 20.592 11.0214 20.3028 10.5214 19.8986L6.58392 22.1706C6.68013 22.5737 6.65464 22.9964 6.51067 23.3851C6.36669 23.7738 6.1107 24.1111 5.77505 24.3543C5.43941 24.5975 5.03918 24.7358 4.62497 24.7516C4.21077 24.7673 3.80118 24.66 3.448 24.443C3.09482 24.226 2.8139 23.9092 2.64076 23.5326C2.46763 23.1559 2.41005 22.7364 2.4753 22.3271C2.54056 21.9178 2.72572 21.537 3.00738 21.2329C3.28904 20.9287 3.65454 20.715 4.05768 20.6186C4.73512 20.4493 5.4548 20.6467 5.97768 21.1266L9.66104 18.9955C8.41912 17.2456 8.61672 14.8464 10.141 13.3222L5.94904 10.923C5.11704 11.7133 3.80392 11.671 3.01368 10.8243C2.82565 10.6246 2.67899 10.3897 2.58213 10.133C2.48527 9.87639 2.44013 9.60313 2.44931 9.32898C2.45848 9.05483 2.52179 8.7852 2.63559 8.53562C2.7494 8.28603 2.91144 8.06142 3.1124 7.87472C3.95912 7.08448 5.25752 7.12672 6.04776 7.97344C6.52776 8.48144 6.71112 9.18704 6.55576 9.86448L11.1988 12.5317C11.8071 12.2045 12.4841 12.0255 13.1746 12.0094C13.8241 11.4734 15.4881 10.923 15.4881 10.923V4.57248C14.4578 4.26208 13.8793 3.17536 14.1897 2.14512C14.5001 1.11488 15.5876 0.5504 16.6178 0.8608C17.6481 1.1712 18.2266 2.25792 17.9162 3.28816C17.8245 3.59529 17.6578 3.87477 17.4311 4.10142C17.2044 4.32808 16.925 4.4948 16.6178 4.58656V10.8106C16.6178 10.8106 19.6662 11.5726 20.6258 12.7157L25.5652 9.90736C25.3111 8.7784 26.0026 7.64928 27.1318 7.39536C28.2609 7.14144 29.3898 7.8328 29.6438 8.96192C29.8977 10.091 29.2063 11.22 28.0772 11.4739C27.7411 11.5496 27.3916 11.5416 27.0594 11.4505C26.7272 11.3595 26.4224 11.1882 26.1719 10.9517L21.289 13.7174C21.4302 14.0138 21.5572 14.3094 21.6418 14.6206C23.1519 15.6509 23.6882 17.6266 22.8838 19.2778L26.1158 21.1547C26.4414 20.8512 26.8564 20.6611 27.299 20.6128C27.7415 20.5644 28.1878 20.6605 28.5713 20.8866C29.545 21.4651 29.8833 22.7354 29.2913 23.7373H29.291Z" fill="#2683FF"/>
<path d="M20.1883 15.7214C20.1742 15.6085 20.1601 15.5098 20.1459 15.3968C20.1321 15.3204 20.1132 15.245 20.0894 15.171C20.0894 15.1429 20.0753 15.1146 20.0753 15.0864C20.0472 15.0018 20.0189 14.9029 19.9907 14.8182V14.8042C19.8113 14.3307 19.5376 13.8986 19.1862 13.5341C19.1016 13.4494 19.031 13.3789 18.9321 13.2941L18.9181 13.28C18.8334 13.2094 18.7488 13.1389 18.6499 13.0824L18.6358 13.0683C18.5512 13.0118 18.4523 12.9413 18.3677 12.899L18.3536 12.885C18.2624 12.8323 18.1682 12.7852 18.0713 12.7438L18.0432 12.7298C17.9445 12.6874 17.8456 12.6451 17.7328 12.6027L17.7187 12.5886C17.6057 12.5605 17.507 12.5181 17.3941 12.504H17.38C17.2683 12.4783 17.1552 12.4595 17.0413 12.4475H17.0272C16.4261 12.3621 15.8132 12.4351 15.2489 12.6592L15.1784 12.7157C15.0937 12.7438 14.9526 12.8144 14.868 12.8568C14.8239 12.8859 14.7766 12.9096 14.7269 12.9274C14.6845 12.9414 14.6139 12.9979 14.5717 13.0261C14.5294 13.0542 14.4305 13.1248 14.3741 13.1672L14.3317 13.1954C14.247 13.2518 14.1765 13.3224 14.0917 13.393L14.0211 13.4635C13.9365 13.5482 13.8659 13.6187 13.7953 13.7035C13.6275 13.6754 13.4576 13.6612 13.2873 13.6611C13.2309 13.6611 13.1886 13.6611 13.1462 13.6752C12.4971 13.7034 11.8761 13.9715 11.3963 14.4091C11.1563 14.6208 10.9589 14.8891 10.8043 15.1712L10.7893 15.2C10.7458 15.282 10.708 15.3669 10.6763 15.4541C10.6622 15.4822 10.6622 15.4965 10.6481 15.5246C10.6182 15.5978 10.5946 15.6733 10.5776 15.7504C10.5635 15.7786 10.5635 15.821 10.5494 15.8491C10.5353 15.9197 10.5213 15.9902 10.507 16.0749C10.507 16.103 10.4929 16.1314 10.4929 16.1736C10.4812 16.2814 10.4765 16.3898 10.4789 16.4982C10.4765 16.5879 10.4812 16.6775 10.4929 16.7664C10.4929 16.7946 10.507 16.8229 10.507 16.8651C10.5211 16.9216 10.5211 16.9781 10.5352 17.0344C10.5493 17.0907 10.5493 17.105 10.5633 17.1474C10.5794 17.188 10.5889 17.2308 10.5915 17.2744C10.5915 17.3168 10.6197 17.359 10.6339 17.4014C10.6454 17.4354 10.6596 17.4684 10.6763 17.5002C10.6976 17.5462 10.7164 17.5933 10.7328 17.6413C10.7469 17.6694 10.7609 17.6837 10.7609 17.7118C10.9593 18.1767 11.294 18.5703 11.7209 18.8408C11.9326 18.9678 12.1443 19.0808 12.3701 19.1512C12.4576 19.1813 12.5472 19.2049 12.6382 19.2218L12.6664 19.2358L12.9205 19.2782L12.9769 19.2923C13.0757 19.3064 13.1745 19.3064 13.2873 19.3064C13.6685 19.3064 14.0353 19.2358 14.3741 19.0806C14.4587 19.1371 14.5293 19.1936 14.6141 19.2499L14.6422 19.264C14.7128 19.3064 14.7974 19.3486 14.8822 19.391H14.896C15.7026 19.8021 16.6335 19.8977 17.5069 19.6592H17.5209C17.6479 19.6318 17.7711 19.5891 17.8878 19.5322L18.2689 19.3629C18.6318 19.646 19.0788 19.7999 19.539 19.8003C19.6377 19.8003 19.7225 19.7862 19.8213 19.7862L19.8918 19.7722C19.9823 19.7587 20.0718 19.7398 20.16 19.7157C20.2469 19.689 20.3319 19.656 20.4141 19.617L20.4565 19.6029C20.5411 19.5605 20.6117 19.5182 20.6965 19.4758C21.0493 19.2501 21.3174 18.9114 21.4726 18.5302C21.5291 18.4032 21.5573 18.2762 21.5856 18.1493V18.1069C21.5997 18.0504 21.5997 17.9939 21.6137 17.9376C21.6137 17.867 21.6278 17.7965 21.6278 17.7259C21.6278 16.7946 21.0493 15.9901 20.1878 15.7219" fill="#2683FF"/>
</g>
<defs>
<clipPath id="clip0_4767_67692">
<rect width="32" height="32" fill="white"/>
</clipPath>
</defs>
</svg>
