<svg width="32" height="32" viewBox="0 0 32 32" fill="none" xmlns="http://www.w3.org/2000/svg">
<g clip-path="url(#clip0_4767_67893)">
<path d="M6.66678 3.06665L31.4668 20L25.3334 29.0667L0.533447 12L6.66678 3.06665Z" fill="url(#paint0_linear_4767_67893)"/>
<path d="M31.4667 19.9999C29.3334 23.0666 22.1334 21.8666 15.3334 17.0666C8.40003 12.3999 4.66669 6.13322 6.66669 3.06655C8.80002 -0.000114441 16 1.19989 22.8 5.99989C29.7334 10.5332 33.4667 16.9332 31.4667 19.9999Z" fill="url(#paint1_linear_4767_67893)"/>
<path d="M25.3334 28.9333C23.2001 31.9999 16.0001 30.7999 9.20009 25.9999C2.40009 21.1999 -1.46657 15.0666 0.666759 11.8666C2.80009 8.79993 10.0001 9.99994 16.8001 14.7999C23.6001 19.5999 27.3334 25.8666 25.3334 28.9333Z" fill="url(#paint2_linear_4767_67893)"/>
<path d="M31.4668 20L25.3335 29.0666C23.2001 32.1333 16.0001 30.8 9.20013 26.1333C7.8668 25.2 6.6668 24.2666 5.4668 23.2C6.40013 23.0666 7.60013 22.5333 8.80013 21.2C10.9335 18.9333 12.0001 18.4 12.9335 18.5333C13.8668 18.5333 14.9335 19.4666 16.6668 21.7333C18.4001 24 20.8001 24.6666 22.2668 23.4666C22.4001 23.3333 22.5335 23.3333 22.6668 23.2C23.8668 22.2666 24.2668 21.8666 26.5335 17.6C27.0668 16.5333 28.9335 14.8 31.4668 15.6C32.1335 17.3333 32.1335 18.8 31.4668 20Z" fill="#0E0F23"/>
<path fill-rule="evenodd" clip-rule="evenodd" d="M30.5335 19.4665C28.6668 22.1331 22.1335 20.7998 15.8668 16.3998C9.46679 11.9998 5.73345 6.39979 7.60012 3.73313C9.46679 1.06646 16.0001 2.39979 22.2668 6.79979C28.5335 11.1998 32.2668 16.7998 30.5335 19.4665ZM24.6668 15.4665C23.7335 16.7998 20.5335 16.1331 17.3335 13.9998C14.2668 11.8665 12.4001 9.06646 13.3335 7.73313C14.2668 6.39979 17.4668 7.06646 20.6668 9.19979C23.7335 11.3331 25.6001 14.1331 24.6668 15.4665Z" fill="white"/>
<path d="M6.13343 6.13314C6.13343 5.99981 6.0001 5.86648 5.86676 5.99981C5.73343 6.13314 5.6001 6.13314 5.6001 6.26648C5.73343 6.66648 5.86676 6.93314 5.86676 7.19981C5.86676 7.33314 6.0001 7.46648 6.13343 7.33314C6.26676 7.33314 6.4001 7.19981 6.26676 7.06648C6.26676 6.79981 6.26676 6.53314 6.13343 6.13314Z" fill="white"/>
<path d="M6.80015 8.26644C6.80015 8.13311 6.66681 7.99978 6.53348 8.13311C6.40015 8.26644 6.40015 8.26644 6.40015 8.39978C7.86681 11.7331 10.9335 15.3331 14.9335 17.9998C15.0668 18.1331 15.2001 17.9998 15.3335 17.9998C15.4668 17.8664 15.3335 17.7331 15.3335 17.5998C11.2001 14.9331 8.26681 11.4664 6.80015 8.26644Z" fill="white"/>
<path d="M22.9334 21.3333C22.8001 21.3333 22.6667 21.3333 22.6667 21.4666C22.6667 21.5999 22.6667 21.7333 22.8001 21.7333C23.2001 21.8666 23.7334 21.9999 24.1334 22.1333C24.2667 22.1333 24.4001 22.1333 24.4001 21.9999C24.4001 21.8666 24.4001 21.7333 24.2667 21.7333C23.8667 21.5999 23.3334 21.4666 22.9334 21.3333Z" fill="white"/>
<path d="M25.3333 21.8665C25.2 21.8665 25.0667 21.9998 25.0667 22.1331C25.0667 22.2665 25.2 22.3998 25.3333 22.3998C26.4 22.5331 27.6 22.6665 28.5333 22.5331C28.6667 22.5331 28.8 22.3998 28.8 22.2665C28.8 22.1331 28.6667 21.9998 28.5333 21.9998C27.4667 22.1331 26.4 21.9998 25.3333 21.8665Z" fill="white"/>
</g>
<defs>
<linearGradient id="paint0_linear_4767_67893" x1="11.5257" y1="0.65905" x2="16.4438" y2="17.5473" gradientUnits="userSpaceOnUse">
<stop stop-color="#03B8FF"/>
<stop offset="1" stop-color="#FA52A0"/>
</linearGradient>
<linearGradient id="paint1_linear_4767_67893" x1="15.5758" y1="-0.520648" x2="20.494" y2="16.3678" gradientUnits="userSpaceOnUse">
<stop stop-color="#03B8FF"/>
<stop offset="1" stop-color="#FA52A0"/>
</linearGradient>
<linearGradient id="paint2_linear_4767_67893" x1="7.48809" y1="1.83473" x2="12.4064" y2="18.7231" gradientUnits="userSpaceOnUse">
<stop stop-color="#03B8FF"/>
<stop offset="1" stop-color="#FA52A0"/>
</linearGradient>
<clipPath id="clip0_4767_67893">
<rect width="32" height="32" fill="white"/>
</clipPath>
</defs>
</svg>
