<svg width="32" height="32" viewBox="0 0 32 32" fill="none" xmlns="http://www.w3.org/2000/svg">
<g clip-path="url(#clip0_172_16415)">
<path d="M6.66666 3.06689L31.4667 20.0002L25.3333 29.0669L0.533325 12.0002L6.66666 3.06689Z" fill="url(#paint0_linear_172_16415)"/>
<path d="M31.4667 20.0001C29.3334 23.0668 22.1334 21.8668 15.3334 17.0668C8.40003 12.4001 4.66669 6.13346 6.66669 3.0668C8.80002 0.000129659 16 1.20013 22.8 6.00013C29.7334 10.5335 33.4667 16.9335 31.4667 20.0001Z" fill="url(#paint1_linear_172_16415)"/>
<path d="M25.3333 28.9333C23.2 31.9999 16 30.7999 9.19997 25.9999C2.39997 21.1999 -1.4667 15.0666 0.666637 11.8666C2.79997 8.79993 9.99997 9.99994 16.8 14.7999C23.6 19.5999 27.3333 25.8666 25.3333 28.9333Z" fill="url(#paint2_linear_172_16415)"/>
<path d="M31.4667 20L25.3333 29.0666C23.2 32.1333 16 30.8 9.20001 26.1333C7.86668 25.2 6.66667 24.2666 5.46667 23.2C6.40001 23.0666 7.60001 22.5333 8.80001 21.2C10.9333 18.9333 12 18.4 12.9333 18.5333C13.8667 18.5333 14.9333 19.4666 16.6667 21.7333C18.4 24 20.8 24.6666 22.2667 23.4666C22.4 23.3333 22.5333 23.3333 22.6667 23.2C23.8667 22.2666 24.2667 21.8666 26.5333 17.6C27.0667 16.5333 28.9333 14.8 31.4667 15.6C32.1333 17.3333 32.1333 18.8 31.4667 20Z" fill="#0E0F23"/>
<path fill-rule="evenodd" clip-rule="evenodd" d="M30.5333 19.4667C28.6667 22.1334 22.1333 20.8 15.8667 16.4C9.46666 12 5.73333 6.40004 7.6 3.73337C9.46666 1.0667 16 2.40004 22.2667 6.80004C28.5333 11.2 32.2667 16.8 30.5333 19.4667ZM24.6667 15.4667C23.7333 16.8 20.5333 16.1334 17.3333 14C14.2667 11.8667 12.4 9.06671 13.3333 7.73337C14.2667 6.40004 17.4667 7.06671 20.6667 9.20004C23.7333 11.3334 25.6 14.1334 24.6667 15.4667Z" fill="white"/>
<path d="M6.13331 6.13339C6.13331 6.00005 5.99998 5.86672 5.86664 6.00005C5.73331 6.13339 5.59998 6.13339 5.59998 6.26672C5.73331 6.66672 5.86664 6.93339 5.86664 7.20005C5.86664 7.33339 5.99998 7.46672 6.13331 7.33339C6.26664 7.33339 6.39998 7.20005 6.26664 7.06672C6.26664 6.80005 6.26664 6.53339 6.13331 6.13339Z" fill="white"/>
<path d="M6.80002 8.26669C6.80002 8.13335 6.66669 8.00002 6.53336 8.13335C6.40002 8.26669 6.40002 8.26669 6.40002 8.40002C7.86669 11.7334 10.9334 15.3334 14.9334 18C15.0667 18.1334 15.2 18 15.3334 18C15.4667 17.8667 15.3334 17.7334 15.3334 17.6C11.2 14.9334 8.26669 11.4667 6.80002 8.26669Z" fill="white"/>
<path d="M22.9333 21.3335C22.8 21.3335 22.6666 21.3335 22.6666 21.4668C22.6666 21.6002 22.6666 21.7335 22.8 21.7335C23.2 21.8668 23.7333 22.0002 24.1333 22.1335C24.2666 22.1335 24.4 22.1335 24.4 22.0002C24.4 21.8668 24.4 21.7335 24.2666 21.7335C23.8666 21.6002 23.3333 21.4668 22.9333 21.3335Z" fill="white"/>
<path d="M25.3333 21.8667C25.2 21.8667 25.0667 22 25.0667 22.1334C25.0667 22.2667 25.2 22.4 25.3333 22.4C26.4 22.5334 27.6 22.6667 28.5333 22.5334C28.6667 22.5334 28.8 22.4 28.8 22.2667C28.8 22.1334 28.6667 22 28.5333 22C27.4667 22.1334 26.4 22 25.3333 21.8667Z" fill="white"/>
</g>
<defs>
<linearGradient id="paint0_linear_172_16415" x1="11.5256" y1="0.659295" x2="16.4437" y2="17.5476" gradientUnits="userSpaceOnUse">
<stop stop-color="#03B8FF"/>
<stop offset="1" stop-color="#FA52A0"/>
</linearGradient>
<linearGradient id="paint1_linear_172_16415" x1="15.5758" y1="-0.520404" x2="20.494" y2="16.368" gradientUnits="userSpaceOnUse">
<stop stop-color="#03B8FF"/>
<stop offset="1" stop-color="#FA52A0"/>
</linearGradient>
<linearGradient id="paint2_linear_172_16415" x1="7.48797" y1="1.83473" x2="12.4062" y2="18.7231" gradientUnits="userSpaceOnUse">
<stop stop-color="#03B8FF"/>
<stop offset="1" stop-color="#FA52A0"/>
</linearGradient>
<clipPath id="clip0_172_16415">
<rect width="32" height="32" fill="white"/>
</clipPath>
</defs>
</svg>
