<svg width="32" height="32" viewBox="0 0 32 32" fill="none" xmlns="http://www.w3.org/2000/svg">
<g clip-path="url(#clip0_4774_63772)">
<path d="M15.9997 31.9995C24.8361 31.9995 31.9995 24.8361 31.9995 15.9997C31.9995 7.16332 24.8361 0 15.9997 0C7.16332 0 0 7.16332 0 15.9997C0 24.8361 7.16332 31.9995 15.9997 31.9995Z" fill="url(#paint0_linear_4774_63772)"/>
<path fill-rule="evenodd" clip-rule="evenodd" d="M15.4204 5.77197C14.4914 5.87904 13.6277 6.30291 12.9746 6.97222C12.4842 7.45772 12.0198 7.95616 11.523 8.44651C11.2743 8.70166 11.0229 8.9498 10.7715 9.20172C10.5202 9.45364 10.2429 9.7212 9.98179 9.98552C9.7207 10.2498 9.50385 10.4818 9.26218 10.7273C8.88458 11.1049 8.50697 11.4825 8.12936 11.8638C7.83968 12.1632 7.55648 12.4723 7.27004 12.7712C7.10119 12.9497 6.9194 13.1153 6.76027 13.3031C6.10354 14.1043 5.74461 15.1083 5.74451 16.1443C5.74451 16.2052 5.74451 16.2678 5.74828 16.3282C5.76171 16.9231 5.91786 17.5061 6.20357 18.028C6.36622 18.3434 6.55458 18.6449 6.76674 18.9294C6.907 19.1268 7.00895 19.1236 7.19344 18.9709C7.22868 18.9416 7.26168 18.9097 7.29215 18.8755C7.47394 18.684 7.65196 18.493 7.83699 18.302C8.09807 18.028 8.36564 17.7545 8.62672 17.4772C8.88781 17.2 9.17102 16.8946 9.44505 16.6082C9.5756 16.4679 9.71477 16.3385 9.84639 16.2004C10.1264 15.9042 10.4004 15.5989 10.6804 15.306C10.9603 15.0131 11.2441 14.7391 11.5181 14.4526C11.7921 14.1662 12.1293 13.8155 12.4379 13.4973C12.7464 13.179 13.008 12.9114 13.2945 12.6185C13.6672 12.2328 14.0303 11.838 14.3992 11.4528C14.6285 11.2171 14.8642 10.991 15.0935 10.7585C15.4118 10.4403 15.7079 10.122 16.0203 9.80373C16.3326 9.48547 16.5646 9.27185 16.8321 8.99781C17.4302 8.39364 18.0273 7.78588 18.6236 7.17451C18.6621 7.13656 18.6981 7.0962 18.7315 7.05368C18.8782 6.86865 18.8906 6.82765 18.7094 6.69711C18.4326 6.47907 18.1363 6.28711 17.8241 6.12369C17.2725 5.86568 16.6708 5.73199 16.0618 5.73206H16.0316C15.8282 5.7321 15.6249 5.74489 15.4231 5.77036L15.4199 5.76712L15.4204 5.77197ZM20.6902 9.69153H20.6519C20.3906 9.69162 20.1324 9.74866 19.8954 9.85869C19.6584 9.96871 19.4483 10.1291 19.2795 10.3286C19.2494 10.362 19.2175 10.3939 19.1841 10.4241L18.2098 11.3794C17.8916 11.6982 17.5474 12.0451 17.213 12.3795C16.9362 12.6563 16.659 12.9271 16.3855 13.2044C16.112 13.4816 15.8185 13.7902 15.5224 14.0799C15.2262 14.3695 14.9112 14.6732 14.6053 14.9715L13.5194 16.0666L11.5008 18.0857C10.609 18.9812 9.71837 19.8749 8.82901 20.7667C8.65747 20.9356 8.65424 20.9577 8.82901 21.1389C9.25571 21.5705 9.68888 21.9988 10.1026 22.4336C10.3586 22.7049 10.6965 22.8849 11.0644 22.9461C11.4116 23.0159 11.7703 23.0039 12.112 22.911C12.3681 22.8477 12.6044 22.7218 12.7998 22.5447L13.8571 21.5236C14.1053 21.2851 14.3572 21.0494 14.6021 20.8072C15.0924 20.3217 15.5763 19.833 16.0667 19.3507C16.4648 18.9591 16.8726 18.5707 17.2766 18.179L18.9343 16.5634C19.45 16.0569 19.9689 15.5477 20.4911 15.0411C20.5259 14.9894 20.5742 14.9482 20.6308 14.922C20.6874 14.8958 20.7501 14.8856 20.812 14.8926C20.874 14.8995 20.9329 14.9234 20.9822 14.9614C21.0316 14.9995 21.0696 15.0504 21.0921 15.1086C21.3575 15.4962 21.4994 15.955 21.4993 16.4248C21.4992 16.5051 21.4951 16.5854 21.4869 16.6654C21.4441 17.139 21.2488 17.5859 20.9302 17.939C20.5478 18.35 20.1405 18.7384 19.7435 19.1333C19.4603 19.4133 19.1706 19.6873 18.8868 19.9705C18.5206 20.3336 18.1608 20.7031 17.7945 21.0661C17.7405 21.1265 17.6898 21.1902 17.6326 21.2474L17.2728 21.6201C17.0031 21.8898 16.7285 22.152 16.4637 22.4223C16.1988 22.6925 15.8946 23.0086 15.6114 23.3037C15.586 23.3323 15.5574 23.3512 15.5321 23.3765C15.2133 23.6727 14.9203 23.9699 14.6177 24.2682C14.4748 24.4085 14.3378 24.5514 14.1975 24.6917C13.9558 24.9371 13.7071 25.1772 13.4747 25.4275C13.3317 25.5769 13.3317 25.6691 13.5005 25.7873C13.7778 26.0001 14.0729 26.1885 14.3825 26.3505C15.1529 26.6988 16.0065 26.8202 16.8434 26.7005C17.6741 26.6019 18.4534 26.2469 19.0729 25.6848C19.5439 25.271 19.9646 24.806 20.4037 24.3605C20.722 24.0417 21.0408 23.7013 21.3812 23.3733L22.3015 22.4465C22.582 22.1633 22.8587 21.8796 23.1425 21.5996C23.4262 21.3197 23.779 20.9852 24.0973 20.6696C24.4155 20.3541 24.7343 20.0331 25.0526 19.6954C25.3064 19.437 25.5408 19.1602 25.7539 18.8674C26.1512 18.2671 26.3992 17.5806 26.4773 16.865C26.5204 16.5095 26.5204 16.1502 26.4773 15.7947C26.3826 15.1623 26.1534 14.5575 25.8051 14.0211C25.5547 13.6415 25.255 13.2969 24.914 12.9961C24.032 12.1206 23.1527 11.2386 22.2901 10.3437C22.1021 10.1344 21.8722 9.96689 21.6152 9.85221C21.3582 9.73753 21.08 9.67819 20.7986 9.67804H20.7867L20.6913 9.69099L20.6902 9.69153Z" fill="white"/>
</g>
<defs>
<linearGradient id="paint0_linear_4774_63772" x1="2.18017" y1="6.71332" x2="27.8587" y2="24.2829" gradientUnits="userSpaceOnUse">
<stop stop-color="#FF3B3B"/>
<stop offset="1" stop-color="#FF9914"/>
</linearGradient>
<clipPath id="clip0_4774_63772">
<rect width="32" height="32" fill="white"/>
</clipPath>
</defs>
</svg>
