<svg width="32" height="32" viewBox="0 0 32 32" fill="none" xmlns="http://www.w3.org/2000/svg">
<g clip-path="url(#clip0_4767_67389)">
<path d="M16 32C7.2 32 0 24.8 0 16C0 7.2 7.2 0 16 0C24.8 0 32 7.2 32 16C32 24.8 24.8 32 16 32Z" fill="#002868"/>
<path d="M24.0639 25.5999H7.9359C7.0911 25.5999 6.3999 24.9087 6.3999 24.0639V7.9359C6.3999 7.0911 7.0911 6.3999 7.9359 6.3999H24.0639C24.9087 6.3999 25.5999 7.0911 25.5999 7.9359V24.0639C25.5999 24.9087 24.9087 25.5999 24.0639 25.5999Z" fill="white"/>
<path d="M10.1465 23.6671C10.0959 23.6671 10.0549 23.621 10.0549 23.5705V20.9906C10.0549 20.9401 10.014 20.894 9.96341 20.894H9.05269C9.00149 20.894 8.95605 20.853 8.95605 20.8025V20.3039C8.95605 20.2534 9.00213 20.2073 9.05269 20.2073H11.8559C11.9065 20.2073 11.9525 20.2527 11.9525 20.3039V20.8025C11.9525 20.853 11.9065 20.894 11.8559 20.894H10.9503C10.8997 20.894 10.8537 20.9394 10.8537 20.9906V23.5705C10.8537 23.621 10.8127 23.6671 10.7621 23.6671H10.1465Z" fill="#002868"/>
<path d="M14.7507 20.3039C14.7507 20.2534 14.7916 20.2073 14.8422 20.2073H15.4528C15.5033 20.2073 15.5494 20.2527 15.5494 20.3039V22.0646C15.5494 23.1078 14.9593 23.7132 14.023 23.7132C13.0918 23.7132 12.5068 23.1078 12.5068 22.0646V20.3039C12.5068 20.2534 12.5478 20.2073 12.5984 20.2073H13.2089C13.2595 20.2073 13.3056 20.2527 13.3056 20.3039V22.0895C13.3056 22.6034 13.5699 22.9695 14.0281 22.9695C14.4864 22.9695 14.7507 22.6034 14.7507 22.0895V20.3039Z" fill="#002868"/>
<path d="M18.3532 21.3369C18.272 21.3369 18.2464 21.3062 18.2156 21.2454C18.1088 20.9958 17.8745 20.8384 17.5187 20.8384C17.198 20.8384 16.9286 20.9504 16.9286 21.1641C16.9286 21.3984 17.1782 21.495 17.7273 21.5609C18.5619 21.6576 19.04 21.9123 19.04 22.5734C19.04 23.3164 18.3884 23.7081 17.5545 23.7081C16.832 23.7081 16.2112 23.3568 16.1145 22.6195C16.1043 22.5484 16.1401 22.5228 16.2112 22.5228H16.7712C16.8422 22.5228 16.8832 22.5536 16.9036 22.6092C16.9798 22.8537 17.2396 23.0419 17.616 23.0419C17.9468 23.0419 18.2368 22.9196 18.2368 22.6604C18.2368 22.35 17.9315 22.2944 17.3209 22.2176C16.6188 22.126 16.1305 21.9225 16.1305 21.2761C16.1305 20.6297 16.6854 20.167 17.5552 20.167C18.3385 20.167 18.8832 20.5894 18.9952 21.2204C19.0105 21.2915 18.99 21.3376 18.9139 21.3376H18.3532V21.3369Z" fill="#002868"/>
<path d="M19.7317 23.6671C19.6811 23.6671 19.6401 23.621 19.6401 23.5705V20.3039C19.6401 20.2534 19.6811 20.2073 19.7317 20.2073H21.1153C22.1432 20.2073 22.9419 20.9145 22.9419 21.9474C22.9419 22.965 22.1534 23.6671 21.1153 23.6671H19.7317ZM21.1153 22.9798C21.6702 22.9798 22.1022 22.542 22.1022 21.9366C22.1022 21.3311 21.6696 20.8934 21.1102 20.8934H20.5355C20.4849 20.8934 20.444 20.9388 20.444 20.99V22.8876C20.444 22.9382 20.4849 22.9791 20.5355 22.9791H21.1153V22.9798Z" fill="#002868"/>
<path d="M25.088 18.304H6.91201C6.77121 18.304 6.65601 18.1888 6.65601 18.048V7.93601C6.65601 7.23201 7.23201 6.65601 7.93601 6.65601H24.064C24.768 6.65601 25.344 7.23201 25.344 7.93601V18.048C25.344 18.1888 25.2288 18.304 25.088 18.304Z" fill="#002868"/>
<path d="M16.9427 16.228H15.2787C15.1731 16.228 15.0867 16.1416 15.0867 16.036V8.99596C15.0867 8.89036 15.1731 8.80396 15.2787 8.80396H16.9427C17.0483 8.80396 17.1347 8.89036 17.1347 8.99596V16.036C17.1347 16.1416 17.0483 16.228 16.9427 16.228Z" fill="white"/>
<path d="M19.776 10.852H12.224C12.1184 10.852 12.032 10.7656 12.032 10.66V8.99596C12.032 8.89036 12.1184 8.80396 12.224 8.80396H19.776C19.8816 8.80396 19.968 8.89036 19.968 8.99596V10.66C19.968 10.7656 19.8816 10.852 19.776 10.852Z" fill="white"/>
</g>
<defs>
<clipPath id="clip0_4767_67389">
<rect width="32" height="32" fill="white"/>
</clipPath>
</defs>
</svg>
