<svg width="32" height="32" viewBox="0 0 32 32" fill="none" xmlns="http://www.w3.org/2000/svg">
<g clip-path="url(#clip0_174_4436)">
<path d="M16 32C7.2 32 0 24.8 0 16C0 7.2 7.2 0 16 0C24.8 0 32 7.2 32 16C32 24.8 24.8 32 16 32Z" fill="#002868"/>
<path d="M24.064 25.5999H7.93602C7.09122 25.5999 6.40002 24.9087 6.40002 24.0639V7.9359C6.40002 7.0911 7.09122 6.3999 7.93602 6.3999H24.064C24.9088 6.3999 25.6 7.0911 25.6 7.9359V24.0639C25.6 24.9087 24.9088 25.5999 24.064 25.5999Z" fill="white"/>
<path d="M10.1466 23.6674C10.096 23.6674 10.0551 23.6213 10.0551 23.5707V20.9909C10.0551 20.9403 10.0141 20.8942 9.96354 20.8942H9.05282C9.00162 20.8942 8.95618 20.8533 8.95618 20.8027V20.3042C8.95618 20.2536 9.00226 20.2075 9.05282 20.2075H11.856C11.9066 20.2075 11.9527 20.253 11.9527 20.3042V20.8027C11.9527 20.8533 11.9066 20.8942 11.856 20.8942H10.9504C10.8999 20.8942 10.8538 20.9397 10.8538 20.9909V23.5707C10.8538 23.6213 10.8128 23.6674 10.7623 23.6674H10.1466Z" fill="#002868"/>
<path d="M14.7507 20.3042C14.7507 20.2536 14.7917 20.2075 14.8423 20.2075H15.4528C15.5034 20.2075 15.5495 20.253 15.5495 20.3042V22.0648C15.5495 23.108 14.9594 23.7134 14.0231 23.7134C13.0919 23.7134 12.5069 23.108 12.5069 22.0648V20.3042C12.5069 20.2536 12.5479 20.2075 12.5984 20.2075H13.209C13.2595 20.2075 13.3056 20.253 13.3056 20.3042V22.0898C13.3056 22.6037 13.5699 22.9698 14.0282 22.9698C14.4864 22.9698 14.7507 22.6037 14.7507 22.0898V20.3042V20.3042Z" fill="#002868"/>
<path d="M18.3533 21.3369C18.272 21.3369 18.2464 21.3062 18.2157 21.2454C18.1088 20.9958 17.8746 20.8384 17.5187 20.8384C17.1981 20.8384 16.9287 20.9504 16.9287 21.1641C16.9287 21.3984 17.1783 21.495 17.7274 21.5609C18.5619 21.6576 19.04 21.9123 19.04 22.5734C19.04 23.3164 18.3885 23.7081 17.5546 23.7081C16.832 23.7081 16.2112 23.3568 16.1146 22.6195C16.1043 22.5484 16.1402 22.5228 16.2112 22.5228H16.7712C16.8423 22.5228 16.8832 22.5536 16.9037 22.6092C16.9799 22.8537 17.2397 23.0419 17.616 23.0419C17.9469 23.0419 18.2368 22.9196 18.2368 22.6604C18.2368 22.35 17.9315 22.2944 17.321 22.2176C16.6189 22.126 16.1306 21.9225 16.1306 21.2761C16.1306 20.6297 16.6855 20.167 17.5552 20.167C18.3386 20.167 18.8832 20.5894 18.9952 21.2204C19.0106 21.2915 18.9901 21.3376 18.9139 21.3376H18.3533V21.3369Z" fill="#002868"/>
<path d="M19.7318 23.6674C19.6813 23.6674 19.6403 23.6213 19.6403 23.5707V20.3042C19.6403 20.2536 19.6813 20.2075 19.7318 20.2075H21.1155C22.1434 20.2075 22.9421 20.9147 22.9421 21.9477C22.9421 22.9653 22.1536 23.6674 21.1155 23.6674H19.7318ZM21.1155 22.98C21.6704 22.98 22.1024 22.5422 22.1024 21.9368C22.1024 21.3314 21.6698 20.8936 21.1104 20.8936H20.5357C20.4851 20.8936 20.4442 20.939 20.4442 20.9902V22.8878C20.4442 22.9384 20.4851 22.9794 20.5357 22.9794H21.1155V22.98Z" fill="#002868"/>
<path d="M25.088 18.3038H6.91201C6.77121 18.3038 6.65601 18.1886 6.65601 18.0478V7.93576C6.65601 7.23176 7.23201 6.65576 7.93601 6.65576H24.064C24.768 6.65576 25.344 7.23176 25.344 7.93576V18.0478C25.344 18.1886 25.2288 18.3038 25.088 18.3038Z" fill="#002868"/>
<path d="M16.9427 16.2277H15.2787C15.1731 16.2277 15.0867 16.1413 15.0867 16.0357V8.99571C15.0867 8.89011 15.1731 8.80371 15.2787 8.80371H16.9427C17.0483 8.80371 17.1347 8.89011 17.1347 8.99571V16.0357C17.1347 16.1413 17.0483 16.2277 16.9427 16.2277Z" fill="white"/>
<path d="M19.776 10.8517H12.224C12.1184 10.8517 12.032 10.7653 12.032 10.6597V8.99571C12.032 8.89011 12.1184 8.80371 12.224 8.80371H19.776C19.8816 8.80371 19.968 8.89011 19.968 8.99571V10.6597C19.968 10.7653 19.8816 10.8517 19.776 10.8517Z" fill="white"/>
</g>
<defs>
<clipPath id="clip0_174_4436">
<rect width="32" height="32" fill="white"/>
</clipPath>
</defs>
</svg>
