<svg width="32" height="32" viewBox="0 0 32 32" fill="none" xmlns="http://www.w3.org/2000/svg">
<g clip-path="url(#clip0_174_4375)">
<path d="M20.5052 20.3999H19.1499C18.8989 20.3999 18.6856 20.1991 18.6856 19.9356V16.3717L16.3138 17.8525C16.1131 17.978 15.8621 17.978 15.6613 17.8525L13.3021 16.3717V19.9356C13.3021 20.1866 13.1013 20.3999 12.8378 20.3999H11.495C11.244 20.3999 11.0307 20.1991 11.0307 19.9356V13.0587C11.0307 12.7199 11.3068 12.4438 11.6456 12.4438C11.7711 12.4438 11.884 12.4815 11.9844 12.5568L15.724 15.1293C15.8746 15.2423 16.088 15.2423 16.2385 15.1293L19.9782 12.5568C20.2542 12.3686 20.6433 12.4438 20.8315 12.7199C20.9068 12.8203 20.9319 12.9458 20.9444 13.0587V19.9356C20.957 20.1866 20.7562 20.3999 20.5052 20.3999Z" fill="#FF4A4A"/>
<path d="M9.01029 20.3873H0.602451C0.263627 20.3873 -0.0124512 20.1112 -0.0124512 19.7724V12.8579C9.78487e-05 12.5943 0.200882 12.3936 0.464412 12.3936H1.81971C2.07069 12.3936 2.28402 12.5943 2.28402 12.8579V18.1159H7.37892V12.8579C7.37892 12.6069 7.57971 12.3936 7.84324 12.3936H9.16088C9.41186 12.3936 9.6252 12.5943 9.6252 12.8579V19.7724C9.6252 20.1112 9.34912 20.3873 9.01029 20.3873Z" fill="#FF4A4A"/>
<path d="M22.9899 12.3936H31.3977C31.7366 12.3936 32.0126 12.6696 32.0126 13.0085V19.923C32.0126 20.1739 31.8119 20.3873 31.5609 20.3873H30.2056C29.9546 20.3873 29.7413 20.1865 29.7413 19.923V14.9661C29.7413 14.803 29.6032 14.6649 29.4401 14.6649H24.9601C24.797 14.6649 24.6589 14.803 24.6589 14.9661V19.923C24.6589 20.1739 24.4581 20.3873 24.1946 20.3873H22.8393C22.5883 20.3873 22.375 20.1865 22.375 19.923V13.0085C22.375 12.6696 22.6511 12.3936 22.9899 12.3936Z" fill="#FF4A4A"/>
<path d="M26.5162 16.1206H27.8589C28.1099 16.1206 28.3233 16.3214 28.3233 16.5849V17.9528C28.3233 18.2037 28.1225 18.4171 27.8589 18.4171H26.5162C26.2652 18.4171 26.0519 18.2163 26.0519 17.9528V16.5724C26.0519 16.3214 26.2652 16.1206 26.5162 16.1206Z" fill="#FF4A4A"/>
</g>
<defs>
<clipPath id="clip0_174_4375">
<rect width="32" height="32" fill="white"/>
</clipPath>
</defs>
</svg>
