<svg width="32" height="32" viewBox="0 0 32 32" fill="none" xmlns="http://www.w3.org/2000/svg">
<g clip-path="url(#clip0_4767_67848)">
<path d="M20.5053 20.3999H19.15C18.899 20.3999 18.6857 20.1991 18.6857 19.9356V16.3717L16.3139 17.8525C16.1131 17.978 15.8621 17.978 15.6614 17.8525L13.3021 16.3717V19.9356C13.3021 20.1866 13.1014 20.3999 12.8378 20.3999H11.4951C11.2441 20.3999 11.0308 20.1991 11.0308 19.9356V13.0587C11.0308 12.7199 11.3068 12.4438 11.6457 12.4438C11.7712 12.4438 11.8841 12.4815 11.9845 12.5568L15.7241 15.1293C15.8747 15.2423 16.088 15.2423 16.2386 15.1293L19.9782 12.5568C20.2543 12.3686 20.6433 12.4438 20.8315 12.7199C20.9068 12.8203 20.9319 12.9458 20.9445 13.0587V19.9356C20.957 20.1866 20.7563 20.3999 20.5053 20.3999Z" fill="#FF4A4A"/>
<path d="M9.01029 20.3873H0.602451C0.263627 20.3873 -0.0124512 20.1112 -0.0124512 19.7724V12.8579C9.78485e-05 12.5943 0.200882 12.3936 0.464412 12.3936H1.81971C2.07069 12.3936 2.28402 12.5943 2.28402 12.8579V18.1159H7.37892V12.8579C7.37892 12.6069 7.57971 12.3936 7.84324 12.3936H9.16088C9.41186 12.3936 9.6252 12.5943 9.6252 12.8579V19.7724C9.6252 20.1112 9.34912 20.3873 9.01029 20.3873Z" fill="#FF4A4A"/>
<path d="M22.9899 12.3936H31.3977C31.7366 12.3936 32.0126 12.6696 32.0126 13.0085V19.923C32.0126 20.1739 31.8119 20.3873 31.5609 20.3873H30.2056C29.9546 20.3873 29.7413 20.1865 29.7413 19.923V14.9661C29.7413 14.803 29.6032 14.6649 29.4401 14.6649H24.9601C24.797 14.6649 24.6589 14.803 24.6589 14.9661V19.923C24.6589 20.1739 24.4581 20.3873 24.1946 20.3873H22.8393C22.5883 20.3873 22.375 20.1865 22.375 19.923V13.0085C22.375 12.6696 22.6511 12.3936 22.9899 12.3936Z" fill="#FF4A4A"/>
<path d="M26.5161 16.1206H27.8588C28.1098 16.1206 28.3231 16.3214 28.3231 16.5849V17.9528C28.3231 18.2037 28.1223 18.4171 27.8588 18.4171H26.5161C26.2651 18.4171 26.0518 18.2163 26.0518 17.9528V16.5724C26.0518 16.3214 26.2651 16.1206 26.5161 16.1206Z" fill="#FF4A4A"/>
</g>
<defs>
<clipPath id="clip0_4767_67848">
<rect width="32" height="32" fill="white"/>
</clipPath>
</defs>
</svg>
