<svg width="32" height="32" viewBox="0 0 32 32" fill="none" xmlns="http://www.w3.org/2000/svg">
<g clip-path="url(#clip0_4767_64013)">
<path d="M12.8978 7.28182C12.551 7.23228 12.5345 7.21577 12.6996 7.19926C13.0134 7.14972 13.7399 7.21577 14.2518 7.33135C15.4406 7.61205 16.5139 8.33858 17.6532 9.60999L17.9504 9.95674L18.3797 9.89069C20.2125 9.59348 22.0949 9.82464 23.6635 10.5512C24.0928 10.7493 24.7698 11.1456 24.8524 11.2447C24.8854 11.2777 24.9349 11.4923 24.968 11.707C25.0835 12.4831 25.034 13.061 24.7863 13.5068C24.6542 13.7545 24.6542 13.8205 24.7368 14.0352C24.8028 14.2003 25.001 14.3159 25.1826 14.3159C25.5789 14.3159 25.9917 13.6884 26.1898 12.8133L26.2724 12.4665L26.421 12.6317C27.2631 13.5728 27.9236 14.8773 28.0227 15.8019L28.0557 16.0496L27.9071 15.835C27.6594 15.4552 27.4282 15.2075 27.1145 14.9929C26.5531 14.6131 25.9587 14.4975 24.39 14.4149C22.97 14.3324 22.1609 14.2168 21.3684 13.9526C20.0144 13.5068 19.3209 12.9289 17.7192 10.7988C17.0092 9.85767 16.5634 9.3458 16.1176 8.91649C15.1434 7.97532 14.1692 7.47996 12.8978 7.28182Z" fill="#FF007A"/>
<path d="M25.1991 9.37894C25.2321 8.75149 25.3146 8.3387 25.4963 7.95892C25.5623 7.81032 25.6284 7.67822 25.6449 7.67822C25.6614 7.67822 25.6284 7.79381 25.5788 7.9259C25.4467 8.28916 25.4302 8.80103 25.5128 9.37894C25.6284 10.122 25.6779 10.2211 26.4705 11.0301C26.8337 11.4099 27.263 11.8887 27.4282 12.0869L27.7089 12.4502L27.4282 12.186C27.0814 11.8557 26.2888 11.2283 26.1072 11.1457C25.9916 11.0797 25.9751 11.0797 25.8926 11.1622C25.8265 11.2283 25.81 11.3273 25.81 11.8062C25.7935 12.5492 25.6944 13.0116 25.4467 13.4904C25.3146 13.7381 25.2981 13.6885 25.4137 13.4078C25.4963 13.1932 25.5128 13.0941 25.5128 12.3841C25.5128 10.9476 25.3477 10.6008 24.3404 10.0229C24.0928 9.8743 23.6635 9.65965 23.4158 9.54406C23.1516 9.42848 22.9534 9.32941 22.97 9.32941C23.003 9.29639 23.9772 9.57709 24.357 9.74221C24.9349 9.97337 25.0339 9.98988 25.1 9.97337C25.1495 9.92384 25.1825 9.79174 25.1991 9.37894Z" fill="#FF007A"/>
<path d="M13.5747 11.8392C12.8812 10.8815 12.4354 9.39543 12.5345 8.28913L12.5675 7.94238L12.7326 7.97541C13.0298 8.02494 13.5417 8.22308 13.7894 8.37169C14.4499 8.76798 14.7471 9.31287 15.0278 10.6668C15.1103 11.0631 15.2259 11.5255 15.2755 11.6741C15.358 11.9217 15.6717 12.4997 15.9359 12.8629C16.1176 13.1271 16.002 13.2592 15.5892 13.2262C14.9617 13.1601 14.1196 12.5822 13.5747 11.8392Z" fill="#FF007A"/>
<path d="M24.3571 19.0217C21.0877 17.7008 19.9319 16.5614 19.9319 14.6295C19.9319 14.3488 19.9484 14.1177 19.9484 14.1177C19.9649 14.1177 20.0805 14.2167 20.2291 14.3323C20.8896 14.8607 21.6326 15.0919 23.6966 15.3891C24.902 15.5707 25.5955 15.7028 26.2229 15.9175C28.2208 16.5779 29.4592 17.9319 29.7564 19.7647C29.839 20.2931 29.7895 21.3003 29.6574 21.8287C29.5418 22.2415 29.2116 23.0011 29.129 23.0176C29.1125 23.0176 29.0795 22.935 29.0795 22.8029C29.0464 22.1094 28.6997 21.4489 28.1218 20.9371C27.4283 20.3427 26.5366 19.8968 24.3571 19.0217Z" fill="#FF007A"/>
<path d="M22.0454 19.5667C22.0124 19.319 21.9298 19.0053 21.8803 18.8732L21.7978 18.6255L21.9464 18.8071C22.161 19.0548 22.3261 19.352 22.4747 19.7648C22.5903 20.0785 22.5903 20.1776 22.5903 20.6895C22.5903 21.1848 22.5738 21.3004 22.4747 21.5811C22.3096 22.0269 22.1115 22.3407 21.7812 22.6874C21.1868 23.2983 20.4108 23.6286 19.3045 23.7772C19.1063 23.7937 18.5449 23.8432 18.0496 23.8763C16.8112 23.9423 15.9856 24.0744 15.2425 24.3386C15.1435 24.3716 15.0444 24.4046 15.0279 24.3881C14.9949 24.3551 15.5067 24.0579 15.9195 23.8597C16.4974 23.579 17.0919 23.4304 18.3963 23.1993C19.0403 23.1002 19.7007 22.9681 19.8659 22.9021C21.5005 22.3902 22.3096 21.1188 22.0454 19.5667Z" fill="#FF007A"/>
<path d="M23.548 22.2248C23.1187 21.2836 23.0196 20.392 23.2508 19.5499C23.2838 19.4673 23.3168 19.3848 23.3498 19.3848C23.3829 19.3848 23.4819 19.4343 23.581 19.5003C23.7791 19.6324 24.1919 19.8636 25.2487 20.4415C26.5862 21.168 27.3457 21.7295 27.8741 22.3734C28.3364 22.9348 28.6171 23.5788 28.7492 24.3714C28.8318 24.8172 28.7822 25.8904 28.6666 26.3363C28.3034 27.7398 27.4778 28.8626 26.2724 29.5065C26.0908 29.6056 25.9422 29.6717 25.9257 29.6717C25.9092 29.6717 25.9752 29.5065 26.0743 29.3084C26.4706 28.4663 26.5201 27.6572 26.2229 26.7491C26.0413 26.1877 25.6615 25.5107 24.9019 24.3714C23.9938 23.0504 23.7791 22.7037 23.548 22.2248Z" fill="#FF007A"/>
<path d="M11.2467 27.2778C12.4685 26.2541 13.9711 25.5275 15.3581 25.2964C15.9525 25.1973 16.9432 25.2303 17.4881 25.3789C18.3633 25.6101 19.1558 26.1055 19.5686 26.7164C19.9649 27.3108 20.1465 27.8227 20.3282 28.962C20.3942 29.4078 20.4768 29.8702 20.4933 29.9692C20.6254 30.5637 20.8896 31.026 21.2198 31.2737C21.7317 31.6534 22.6233 31.67 23.4985 31.3397C23.6471 31.2902 23.7792 31.2407 23.7792 31.2572C23.8122 31.2902 23.3664 31.5874 23.0691 31.736C22.6564 31.9507 22.3261 32.0167 21.8803 32.0167C21.0877 32.0167 20.4107 31.6039 19.8658 30.7783C19.7503 30.6132 19.5191 30.1344 19.321 29.6885C18.743 28.3511 18.4458 27.9548 17.7688 27.509C17.1744 27.1292 16.4149 27.0466 15.837 27.3273C15.0774 27.6906 14.8793 28.6648 15.4076 29.2592C15.6223 29.5069 16.0186 29.705 16.3488 29.7546C16.9598 29.8371 17.4881 29.3583 17.4881 28.7474C17.4881 28.3511 17.3395 28.1199 16.9432 27.9383C16.4149 27.7071 15.837 27.9713 15.8535 28.4832C15.8535 28.6978 15.9525 28.8299 16.1672 28.929C16.2993 28.995 16.2993 28.995 16.2002 28.9785C15.7214 28.8795 15.6058 28.285 15.9856 27.9053C16.4479 27.4429 17.4221 27.6411 17.7523 28.285C17.8844 28.5492 17.9009 29.0776 17.7854 29.4078C17.5046 30.1344 16.7121 30.5141 15.903 30.2995C15.3581 30.1509 15.1269 30.0023 14.4665 29.3253C13.3106 28.1364 12.8648 27.9053 11.2136 27.6576L10.8999 27.608L11.2467 27.2778Z" fill="#FF007A"/>
<path fill-rule="evenodd" clip-rule="evenodd" d="M2.56141 0.71001C6.40867 5.38287 12.3364 12.6481 12.6336 13.0444C12.8813 13.3746 12.7823 13.6883 12.3695 13.9195C12.1383 14.0516 11.6594 14.1837 11.4283 14.1837C11.1641 14.1837 10.8504 14.0516 10.6357 13.8369C10.4871 13.6883 9.84314 12.7472 8.39009 10.485C7.2838 8.75129 6.34262 7.31476 6.32611 7.29825C6.26006 7.26522 6.26006 7.26522 8.27451 10.8648C9.54593 13.1269 9.95872 13.936 9.95872 14.0351C9.95872 14.2497 9.89267 14.3653 9.62848 14.6625C9.18266 15.1579 8.98452 15.7193 8.83592 16.8916C8.6708 18.1961 8.22498 19.1207 6.95356 20.6894C6.21053 21.614 6.09494 21.7792 5.91331 22.1589C5.68215 22.6213 5.6161 22.8854 5.58308 23.4799C5.55005 24.1073 5.6161 24.5036 5.79773 25.098C5.96285 25.6264 6.14448 25.9732 6.5903 26.6502C6.97007 27.2446 7.20124 27.6904 7.20124 27.8555C7.20124 27.9876 7.23426 27.9876 7.82869 27.8555C9.24871 27.5253 10.4211 26.9639 11.065 26.2704C11.4613 25.8411 11.5604 25.6099 11.5604 25.0155C11.5604 24.6357 11.5439 24.5531 11.4448 24.322C11.2797 23.9587 10.9659 23.6615 10.289 23.1992C9.39732 22.5882 9.01755 22.0929 8.91847 21.4324C8.83592 20.871 8.93499 20.4912 9.43034 19.451C9.94221 18.3777 10.0743 17.9319 10.1569 16.8421C10.2064 16.1486 10.289 15.8679 10.4871 15.6533C10.7018 15.4221 10.8834 15.3395 11.3953 15.2735C12.2374 15.1579 12.7823 14.9432 13.2116 14.5304C13.5913 14.1837 13.7565 13.8369 13.773 13.3251L13.7895 12.9453L13.5748 12.7141C12.7988 11.8225 2.04954 0 2 0C1.98349 0 2.24768 0.313726 2.56141 0.71001ZM7.63055 24.1899C7.81218 23.8762 7.71311 23.4799 7.41589 23.2817C7.13519 23.1001 6.70588 23.1827 6.70588 23.4303C6.70588 23.4964 6.73891 23.5624 6.83798 23.5955C6.98659 23.678 7.0031 23.7606 6.88751 23.9422C6.77193 24.1238 6.77193 24.289 6.92054 24.4045C7.1517 24.5862 7.46543 24.4871 7.63055 24.1899Z" fill="#FF007A"/>
<path fill-rule="evenodd" clip-rule="evenodd" d="M14.3179 15.5047C13.9216 15.6203 13.5418 16.0496 13.4262 16.4789C13.3602 16.7431 13.3932 17.222 13.5088 17.3706C13.6904 17.6017 13.8555 17.6678 14.3179 17.6678C15.226 17.6678 16.0021 17.2715 16.0847 16.7926C16.1672 16.3964 15.8205 15.8515 15.3416 15.6038C15.0939 15.4717 14.5821 15.4222 14.3179 15.5047ZM15.3746 16.3303C15.5067 16.1322 15.4572 15.9175 15.2095 15.7689C14.7637 15.4882 14.0867 15.7194 14.0867 16.1487C14.0867 16.3633 14.4335 16.5945 14.7637 16.5945C14.9784 16.5945 15.2756 16.4624 15.3746 16.3303Z" fill="#FF007A"/>
</g>
<defs>
<clipPath id="clip0_4767_64013">
<rect width="32" height="32" fill="white"/>
</clipPath>
</defs>
</svg>
