<svg width="32" height="32" viewBox="0 0 32 32" fill="none" xmlns="http://www.w3.org/2000/svg">
    <g clip-path="url(#clip0_5849_6678)">
        <path
            d="M16.0675 32C24.6655 32 31.6351 25.0304 31.6351 16.4324C31.6351 7.83493 24.6655 0.864868 16.0675 0.864868C7.4696 0.864868 0.5 7.83538 0.5 16.4324C0.5 25.0294 7.47006 32 16.0675 32Z"
            fill="#0F172A" />
        <path
            d="M16.0675 31.1351C24.6655 31.1351 31.6351 24.1655 31.6351 15.5675C31.6351 6.9696 24.6655 0 16.0675 0C7.4696 0 0.5 6.97006 0.5 15.5675C0.5 24.165 7.47006 31.1351 16.0675 31.1351Z"
            fill="#0F172A" />
        <path
            d="M18.7204 15.3376V16.6153H13.2941V15.3376H18.7204ZM16.6975 13.1575V18.9211H15.322V13.1575H16.6975Z"
            fill="#AD9CFF" />
        <path fill-rule="evenodd" clip-rule="evenodd"
            d="M15.8875 13.1575H16.6975V15.338H18.7199V16.6153H16.6975V18.9207H15.8875V13.1575Z"
            fill="#B7FAF4" />
        <path
            d="M16.0429 30.6286C24.3743 30.6286 31.1286 23.8743 31.1286 15.5429C31.1286 7.21144 24.3743 0.457153 16.0429 0.457153C7.71144 0.457153 0.957153 7.21144 0.957153 15.5429C0.957153 23.8743 7.71144 30.6286 16.0429 30.6286Z"
            fill="#004CA8" />
        <path
            d="M23.9331 23.1026C17.2437 24.4539 10.7089 20.1189 9.34932 13.4683C8.6691 10.2459 9.36761 7.0272 11.0289 4.42834C5.99115 6.74377 3.0115 12.2857 4.16715 17.9758C5.5267 24.6263 12.062 28.9618 18.7509 27.6105C22.1992 26.9349 24.9617 24.8873 26.7614 22.1518C25.8645 22.56 24.9676 22.9001 23.9331 23.1026Z"
            fill="#002C7F" />
        <path
            d="M15.2519 22.3013C13.2469 22.0787 11.9125 20.8512 11.5765 19.1534C11.4828 18.6794 11.8851 18.2835 12.3678 18.2835C12.8506 18.2835 13.2236 18.6835 13.3511 19.1493C13.6506 20.2437 14.5662 20.8755 16.0291 20.8755C17.8435 20.8755 18.8154 19.9036 18.8154 18.7374C18.8154 15.4323 11.6227 17.1173 11.6227 12.2574C11.6227 10.6373 13.113 8.95273 15.2515 8.69353V7.4949C15.2515 7.29727 15.33 7.10774 15.4697 6.968C15.6095 6.82826 15.799 6.74976 15.9966 6.74976C16.1943 6.74976 16.3838 6.82826 16.5235 6.968C16.6633 7.10774 16.7418 7.29727 16.7418 7.4949V8.69353C18.4529 8.96964 19.7406 10.2327 20.0849 11.8423C20.1859 12.315 19.7845 12.7109 19.3013 12.7109C18.8181 12.7109 18.4419 12.3095 18.2951 11.8496C17.9642 10.8151 17.0462 10.1194 15.9642 10.1194C14.3445 10.1194 13.3077 11.2211 13.3077 12.2574C13.3077 15.5626 20.5004 13.8775 20.5004 18.7374C20.5004 20.4869 19.0746 22.0421 16.7418 22.3662V23.5648C16.7418 23.7625 16.6633 23.952 16.5235 24.0917C16.3838 24.2315 16.1943 24.31 15.9966 24.31C15.799 24.31 15.6095 24.2315 15.4697 24.0917C15.33 23.952 15.2515 23.7625 15.2515 23.5648L15.2519 22.3013Z"
            fill="white" />
        <path fill-rule="evenodd" clip-rule="evenodd"
            d="M27.6561 20.9815L28.4474 21.5438C28.4883 21.5728 28.5211 21.6118 28.5426 21.6571C28.564 21.7024 28.5735 21.7525 28.5701 21.8025C28.5666 21.8526 28.5504 21.9009 28.5229 21.9428C28.4954 21.9848 28.4576 22.0189 28.4131 22.0421L25.8504 23.3769C25.8041 23.401 25.7523 23.4123 25.7003 23.4097C25.6482 23.407 25.5978 23.3905 25.5543 23.3618C25.5107 23.3331 25.4756 23.2934 25.4526 23.2466C25.4296 23.1998 25.4195 23.1478 25.4234 23.0958L25.6488 20.1001C25.6526 20.0483 25.6701 19.9985 25.6995 19.9557C25.729 19.913 25.7693 19.8788 25.8163 19.8567C25.8633 19.8347 25.9153 19.8255 25.967 19.8302C26.0187 19.8349 26.0682 19.8533 26.1105 19.8834L26.82 20.3877C28.6325 16.2697 27.9628 11.2923 24.7194 7.77372C20.3848 3.07154 13.0824 2.73966 8.33997 7.00343C8.31113 7.02964 8.27312 7.04342 8.23419 7.04179C8.19525 7.04017 8.15853 7.02326 8.13197 6.99474L7.64877 6.4704C7.62259 6.44178 7.60885 6.40394 7.61056 6.36519C7.61228 6.32645 7.62931 6.28997 7.65792 6.26377C12.8085 1.62377 20.7473 1.98126 25.4581 7.09166C29.0316 10.9687 29.7283 16.4741 27.6561 20.9815ZM4.79437 10.1344L4.0026 9.57212C3.96169 9.54311 3.92892 9.50408 3.90744 9.45877C3.88596 9.41346 3.87648 9.36338 3.87992 9.31335C3.88337 9.26332 3.89961 9.21502 3.9271 9.17307C3.95458 9.13113 3.99239 9.09696 4.03689 9.07383L6.59963 7.73897C6.64586 7.71488 6.69768 7.70358 6.74974 7.70624C6.8018 7.70889 6.8522 7.72541 6.89573 7.75407C6.93927 7.78274 6.97436 7.82252 6.99736 7.86929C7.02037 7.91606 7.03047 7.96813 7.0266 8.02012L6.80123 11.0153C6.79742 11.0671 6.7799 11.1169 6.75046 11.1597C6.72103 11.2025 6.68075 11.2366 6.63375 11.2587C6.58675 11.2808 6.53472 11.2899 6.48302 11.2852C6.43131 11.2805 6.38178 11.2622 6.33952 11.232L5.63003 10.7278C3.81792 14.8466 4.48717 19.8235 7.73106 23.3422C12.0648 28.0443 19.3676 28.3762 24.1096 24.1125C24.1384 24.0863 24.1764 24.0725 24.2154 24.0741C24.2543 24.0757 24.291 24.0926 24.3176 24.1211L24.8008 24.6455C24.8556 24.7049 24.8511 24.7977 24.7916 24.8521C19.641 29.4921 11.7023 29.1346 6.9914 24.0238C3.41792 20.1472 2.72169 14.6418 4.79437 10.1344Z"
            fill="#BEE179" />
    </g>
    <defs>
        <clipPath id="clip0_5849_6678">
            <rect width="32" height="32" fill="white" />
        </clipPath>
    </defs>
</svg>