<svg width="32" height="32" viewBox="0 0 32 32" fill="none" xmlns="http://www.w3.org/2000/svg">
<g clip-path="url(#clip0_1220_8305)">
<path d="M14.9839 0.03125C15.6506 0.03125 16.3173 0.03125 17.0062 0.0418958C17.1186 0.0647055 17.2087 0.0765685 17.2988 0.0890814C17.962 0.181247 18.6311 0.243388 19.2872 0.372031C20.6837 0.645855 22.0136 1.12324 23.2822 1.77077C25.2391 2.76957 26.918 4.11514 28.3259 5.80024C29.1062 6.73422 29.7681 7.74657 30.323 8.83861C30.3311 8.85661 30.3386 8.86561 30.3475 8.87999C30.3488 8.88537 30.3559 8.89387 30.3566 8.90419C30.375 8.94379 30.3927 8.97307 30.4122 9.00799C30.414 9.01363 30.4215 9.02278 30.422 9.03144C30.4303 9.0483 30.438 9.0565 30.4468 9.07057C30.4479 9.07644 30.4539 9.08673 30.4537 9.09868C30.5473 9.3098 30.641 9.50897 30.7362 9.71432C30.7375 9.7205 30.7444 9.73112 30.7449 9.74299C30.796 9.86753 30.8467 9.98021 30.8982 10.0995C30.8991 10.1062 30.9047 10.1184 30.9043 10.1275C30.9106 10.1464 30.9173 10.1563 30.9242 10.1714C30.9245 10.1766 30.9304 10.1853 30.9304 10.1976C30.9863 10.3501 31.042 10.4903 31.0971 10.6314C31.0965 10.6325 31.0986 10.6338 31.0974 10.6439C31.1081 10.6777 31.12 10.7013 31.1311 10.7263C31.1304 10.7276 31.1332 10.7291 31.1326 10.7414C31.1841 10.8971 31.2362 11.0404 31.289 11.1913C31.2899 11.1989 31.2951 11.2132 31.2941 11.2256C31.3336 11.3605 31.3742 11.483 31.4154 11.6155C31.4196 11.6383 31.4231 11.6512 31.4256 11.6765C31.4874 11.9383 31.559 12.1859 31.6109 12.4375C31.7094 12.9146 31.7966 13.3939 31.8873 13.8828C31.8914 13.9137 31.8966 13.9341 31.9 13.9687C31.9217 14.1765 31.9453 14.3701 31.968 14.5746C31.9688 14.6003 31.9705 14.615 31.9691 14.6441C31.9879 14.8422 32.0096 15.0259 32.0312 15.2095C32.0312 15.7473 32.0312 16.285 32.0205 16.8457C31.991 17.1115 31.9723 17.3543 31.9505 17.6072C31.9475 17.6314 31.9474 17.6455 31.9426 17.6726C31.9175 17.8806 31.8971 18.0756 31.8743 18.2814C31.8717 18.3068 31.8715 18.3214 31.8645 18.3459C31.8463 18.4359 31.8349 18.5161 31.8197 18.6061C31.8152 18.6302 31.8145 18.6443 31.8093 18.6704C31.7303 19.0606 31.6558 19.4388 31.5803 19.8175C31.5793 19.8181 31.5804 19.82 31.573 19.8291C31.5175 20.0352 31.4693 20.2323 31.4179 20.4372C31.4126 20.4564 31.4106 20.4676 31.4021 20.4851C31.3937 20.503 31.3919 20.5147 31.3886 20.5274C31.387 20.5285 31.3885 20.5321 31.3809 20.5405C31.3573 20.6169 31.3413 20.6849 31.324 20.7536C31.3228 20.7543 31.3242 20.7566 31.3166 20.7649C31.207 21.0778 31.105 21.3824 31.0017 21.6875C31.0005 21.688 31.0014 21.6904 30.9931 21.6978C30.9045 21.9138 30.8243 22.1224 30.7429 22.3315C30.7418 22.3319 30.7426 22.3343 30.7354 22.3397C30.7235 22.3619 30.7188 22.3787 30.71 22.4031C30.7036 22.4221 30.7013 22.4334 30.6903 22.4512C30.67 22.4906 30.6582 22.5235 30.6431 22.5615C30.6398 22.5666 30.6378 22.5784 30.6296 22.5848C30.6098 22.6233 30.5983 22.6552 30.5831 22.6927C30.5794 22.6982 30.5761 22.7111 30.5669 22.7174C30.5333 22.7862 30.509 22.8487 30.4782 22.9179C30.4652 22.9418 30.4587 22.959 30.443 22.9822C30.3973 23.0702 30.3607 23.1522 30.3237 23.234C30.3232 23.2338 30.324 23.2346 30.315 23.2403C30.2905 23.2848 30.2749 23.3236 30.2562 23.3667C30.253 23.3712 30.2513 23.3819 30.244 23.3873C30.2332 23.4038 30.2297 23.4151 30.2198 23.433C30.2067 23.4567 30.2001 23.4738 30.1847 23.4968C30.1518 23.5532 30.1276 23.6036 30.0974 23.6618C30.0804 23.6931 30.0696 23.7167 30.0495 23.7464C29.9953 23.8375 29.9504 23.9225 29.9048 24.0074C29.9043 24.0071 29.905 24.0081 29.896 24.0139C29.8497 24.0903 29.8124 24.1609 29.7716 24.2358C29.768 24.2401 29.7652 24.2509 29.7561 24.2564C29.7241 24.3057 29.7013 24.3494 29.672 24.3988C29.66 24.4142 29.6543 24.4239 29.6433 24.4353C29.6314 24.4428 29.6301 24.4497 29.6279 24.4651C29.6193 24.4788 29.6168 24.4848 29.6053 24.4968C29.5401 24.5958 29.4838 24.6891 29.4235 24.7877C29.4195 24.7931 29.4163 24.8062 29.4077 24.812C29.3746 24.8592 29.3502 24.9005 29.319 24.9474C29.304 24.9682 29.2957 24.9834 29.2802 25.0028C29.2683 25.017 29.2638 25.027 29.2508 25.0439C28.3131 26.4126 27.1978 27.6015 25.9019 28.6191C24.5107 29.7116 22.9806 30.5539 21.3084 31.135C20.1182 31.5486 18.8974 31.8234 17.6423 31.9442C17.4214 31.9655 17.202 32.0018 16.9819 32.0312C16.3689 32.0312 15.756 32.0312 15.1197 32.0208C14.1649 31.9356 13.2396 31.8177 12.3299 31.5985C10.1564 31.0747 8.17201 30.1477 6.39111 28.7934C3.98765 26.9655 2.22756 24.6474 1.12333 21.8367C0.544667 20.3638 0.195209 18.8363 0.0849932 17.2557C0.0800645 17.185 0.0497436 17.1161 0.03125 17.0464C0.03125 16.3689 0.03125 15.6915 0.0424541 14.9927C0.065468 14.9031 0.0835904 14.8353 0.0881365 14.7666C0.151728 13.8054 0.315182 12.8599 0.564469 11.9312C1.24452 9.39773 2.46615 7.15776 4.24095 5.22358C5.79042 3.53497 7.61696 2.23255 9.72287 1.3279C11.3377 0.634184 13.0216 0.213162 14.7771 0.0874745C14.847 0.0824693 14.915 0.0506016 14.9839 0.03125ZM23.8815 5.20004C21.9289 3.80626 19.7588 2.98081 17.3718 2.75331C15.1801 2.54441 13.0571 2.84989 11.0144 3.68666C9.27543 4.39905 7.75331 5.43158 6.45336 6.78549C4.64082 8.67327 3.4744 10.9035 2.96333 13.4719C2.59901 15.3029 2.61881 17.1328 3.02568 18.9538C3.61936 21.6111 4.9049 23.8853 6.87923 25.7581C8.83638 27.6145 11.1507 28.7777 13.8132 29.2362C15.7302 29.5664 17.6299 29.4836 19.5105 28.9848C21.7309 28.396 23.6757 27.3074 25.3278 25.7155C27.4128 23.7066 28.7224 21.272 29.2404 18.4185C29.5361 16.7893 29.5338 15.1574 29.2098 13.5356C28.5189 10.0777 26.7339 7.30908 23.8815 5.20004Z" fill="#25E4DF"/>
<path d="M32.0301 17.3843C32.0099 17.4608 31.9897 17.5221 31.9609 17.5896C31.9711 17.3528 31.9899 17.11 32.0194 16.8594C32.0301 17.0241 32.0301 17.1967 32.0301 17.3843Z" fill="#CBFCFC"/>
<path d="M31.9688 14.6427C31.9864 14.6365 32.001 14.6448 32.0233 14.6567C32.0309 14.8329 32.0309 15.0054 32.0309 15.1931C32.0092 15.0245 31.9875 14.8409 31.9688 14.6427Z" fill="#C7FCFC"/>
<path d="M23.8892 5.20495C26.7325 7.30675 28.5175 10.0754 29.2084 13.5333C29.5325 15.1551 29.5347 16.787 29.239 18.4162C28.721 21.2697 27.4114 23.7043 25.3264 25.7132C23.6744 27.3051 21.7296 28.3937 19.5091 28.9825C17.6285 29.4812 15.7288 29.5641 13.8118 29.2339C11.1494 28.7754 8.83502 27.6122 6.87787 25.7557C4.90353 23.883 3.618 21.6087 3.02431 18.9515C2.61745 17.1305 2.59765 15.3005 2.96197 13.4696C3.47304 10.9012 4.63946 8.67095 6.452 6.78316C7.75195 5.42926 9.27407 4.39672 11.0131 3.68434C13.0558 2.84756 15.1787 2.54209 17.3705 2.75099C19.7575 2.97848 21.9276 3.80393 23.8892 5.20495ZM9.65421 25.2907C10.5508 25.5178 11.4536 25.493 12.3551 25.3382C13.7136 25.105 14.9788 24.6041 16.1782 23.9388C19.0993 22.3183 21.4479 20.0792 23.2811 17.2957C24.1065 16.0425 24.7579 14.7041 25.1541 13.2502C25.4437 12.1875 25.5744 11.1105 25.3896 10.0155C25.0954 8.27325 23.9805 7.12358 22.249 6.77249C21.2183 6.56351 20.1965 6.66477 19.185 6.90904C17.6116 7.28898 16.1766 7.98421 14.8285 8.86412C12.6784 10.2675 10.8613 12.0228 9.36328 14.1066C8.37314 15.4838 7.57232 16.9607 7.08284 18.5928C6.75921 19.6718 6.59487 20.7689 6.73336 21.8994C6.94333 23.6133 7.98898 24.8411 9.65421 25.2907Z" fill="#133E3A"/>
<path d="M31.4297 11.6797C31.4598 11.728 31.501 11.786 31.5163 11.8501C31.6212 12.2922 31.7283 12.7341 31.8189 13.1793C31.8634 13.3975 31.8744 13.6226 31.8965 13.8601C31.8007 13.3972 31.7135 12.9178 31.615 12.4408C31.5631 12.1891 31.4914 11.9416 31.4297 11.6797Z" fill="#C7FCFC"/>
<path d="M31.812 18.6719C31.8033 18.7949 31.801 18.9321 31.7745 19.0645C31.7249 19.3129 31.6613 19.5586 31.5938 19.8119C31.6585 19.4403 31.733 19.0621 31.812 18.6719Z" fill="#CBFCFC"/>
<path d="M31.3199 20.7656C31.2267 21.0636 31.1258 21.3699 31.0156 21.682C31.1083 21.3832 31.2103 21.0785 31.3199 20.7656Z" fill="#CBFCFC"/>
<path d="M30.4531 9.10156C30.5483 9.28806 30.6432 9.4865 30.7362 9.69798C30.6405 9.51185 30.5467 9.31268 30.4531 9.10156Z" fill="#C7FCFC"/>
<path d="M30.9962 21.6953C30.9258 21.8993 30.8471 22.1107 30.7578 22.3254C30.8275 22.12 30.9077 21.9114 30.9962 21.6953Z" fill="#CBFCFC"/>
<path d="M31.9417 17.6719C31.9276 17.8564 31.9087 18.0539 31.8828 18.2607C31.8962 18.075 31.9166 17.8799 31.9417 17.6719Z" fill="#CBFCFC"/>
<path d="M31.8984 13.9688C31.9273 14.1511 31.9544 14.3478 31.9743 14.5541C31.9437 14.3701 31.9201 14.1766 31.8984 13.9688Z" fill="#C7FCFC"/>
<path d="M31.5735 19.8281C31.5331 20.0168 31.4854 20.2146 31.4297 20.4203C31.4698 20.2313 31.518 20.0342 31.5735 19.8281Z" fill="#CBFCFC"/>
<path d="M30.9297 10.1953C30.986 10.3227 31.0424 10.4624 31.0979 10.6151C31.0413 10.4879 30.9855 10.3478 30.9297 10.1953Z" fill="#C7FCFC"/>
<path d="M31.1328 10.7422C31.1859 10.8726 31.2385 11.0154 31.2897 11.1713C31.2363 11.0412 31.1843 10.8979 31.1328 10.7422Z" fill="#C7FCFC"/>
<path d="M29.6039 24.5C29.5846 24.6056 29.5929 24.7378 29.4375 24.7846C29.4824 24.6923 29.5387 24.5991 29.6039 24.5Z" fill="#CBFCFC"/>
<path d="M30.7422 9.74219C30.7936 9.8423 30.8455 9.95428 30.896 10.0792C30.844 9.97941 30.7933 9.86673 30.7422 9.74219Z" fill="#C7FCFC"/>
<path d="M31.2969 11.2266C31.339 11.336 31.3801 11.4578 31.4194 11.5931C31.3769 11.484 31.3364 11.3615 31.2969 11.2266Z" fill="#C7FCFC"/>
<path d="M31.8669 18.3438C31.8644 18.4178 31.8552 18.5017 31.8359 18.5898C31.8373 18.5139 31.8487 18.4338 31.8669 18.3438Z" fill="#CBFCFC"/>
<path d="M30.0476 23.75C30.0128 23.8312 29.9687 23.9185 29.9141 24.0085C29.9484 23.9262 29.9934 23.8411 30.0476 23.75Z" fill="#CBFCFC"/>
<path d="M30.444 22.9844C30.4177 23.0623 30.3822 23.1461 30.3359 23.2332C30.3618 23.1544 30.3983 23.0724 30.444 22.9844Z" fill="#CBFCFC"/>
<path d="M29.899 24.0156C29.872 24.0826 29.8359 24.1553 29.7891 24.2307C29.8155 24.1627 29.8527 24.092 29.899 24.0156Z" fill="#CBFCFC"/>
<path d="M31.3809 20.5391C31.3745 20.6012 31.3606 20.6718 31.3359 20.7469C31.3412 20.6835 31.3573 20.6155 31.3809 20.5391Z" fill="#CBFCFC"/>
<path d="M30.5714 22.7188C30.5574 22.777 30.5341 22.8415 30.5 22.9093C30.5135 22.8501 30.5379 22.7876 30.5714 22.7188Z" fill="#CBFCFC"/>
<path d="M29.7537 24.2578C29.7415 24.2982 29.7203 24.344 29.6875 24.3923C29.6988 24.3509 29.7217 24.3071 29.7537 24.2578Z" fill="#CBFCFC"/>
<path d="M30.1881 23.5C30.1737 23.5462 30.1506 23.5984 30.1172 23.6539C30.1311 23.6068 30.1552 23.5564 30.1881 23.5Z" fill="#CBFCFC"/>
<path d="M29.4066 24.8125C29.3926 24.8504 29.3699 24.8942 29.3359 24.9401C29.3491 24.901 29.3736 24.8597 29.4066 24.8125Z" fill="#CBFCFC"/>
<path d="M30.3186 23.2422C30.313 23.2767 30.2985 23.3169 30.2734 23.3606C30.2784 23.3254 30.294 23.2867 30.3186 23.2422Z" fill="#CBFCFC"/>
<path d="M30.3594 8.90625C30.3781 8.92435 30.3975 8.95276 30.415 8.9928C30.3955 8.97513 30.3778 8.94585 30.3594 8.90625Z" fill="#C7FCFC"/>
<path d="M30.6907 22.4531C30.6881 22.48 30.6769 22.5135 30.6562 22.5526C30.6585 22.5255 30.6703 22.4926 30.6907 22.4531Z" fill="#CBFCFC"/>
<path d="M30.6341 22.5859C30.6322 22.613 30.622 22.6465 30.6016 22.6842C30.6028 22.6563 30.6144 22.6244 30.6341 22.5859Z" fill="#CBFCFC"/>
<path d="M31.1016 10.6484C31.1143 10.6619 31.1258 10.6855 31.1367 10.7192C31.1241 10.7058 31.1122 10.6822 31.1016 10.6484Z" fill="#C7FCFC"/>
<path d="M30.7337 22.3438C30.7359 22.3549 30.731 22.3714 30.7192 22.3937C30.7171 22.3827 30.7218 22.366 30.7337 22.3438Z" fill="#CBFCFC"/>
<path d="M30.2465 23.3906C30.2501 23.3964 30.2463 23.4075 30.2357 23.4241C30.2322 23.4185 30.2357 23.4072 30.2465 23.3906Z" fill="#CBFCFC"/>
<path d="M30.3203 8.83594C30.3271 8.836 30.3344 8.84507 30.3426 8.86303C30.3359 8.86293 30.3284 8.85393 30.3203 8.83594Z" fill="#C7FCFC"/>
<path d="M31.4065 20.4844C31.411 20.4896 31.4089 20.5011 31.4007 20.5191C31.3964 20.5139 31.3982 20.5023 31.4065 20.4844Z" fill="#CBFCFC"/>
<path d="M29.643 24.4375C29.6486 24.4428 29.6465 24.4489 29.6378 24.4569C29.6299 24.4519 29.6312 24.445 29.643 24.4375Z" fill="#CBFCFC"/>
<path d="M30.4219 9.03126C30.4286 9.03098 30.4358 9.03937 30.4443 9.05613C30.4378 9.05631 30.4301 9.04811 30.4219 9.03126Z" fill="#C7FCFC"/>
<path d="M30.9062 10.125C30.9131 10.1258 30.9196 10.1356 30.9259 10.1546C30.9192 10.1538 30.9125 10.1439 30.9062 10.125Z" fill="#C7FCFC"/>
<path d="M29.2802 25C29.2827 25.0056 29.278 25.0155 29.2663 25.0298C29.2638 25.0242 29.2683 25.0142 29.2802 25Z" fill="#CBFCFC"/>
<path d="M9.64493 25.2922C7.99249 24.8457 6.94684 23.6179 6.73687 21.904C6.59838 20.7735 6.76273 19.6764 7.08635 18.5974C7.57583 16.9653 8.37665 15.4884 9.36679 14.1112C10.8648 12.0274 12.6819 10.2722 14.832 8.86873C16.1801 7.98882 17.6151 7.29359 19.1885 6.91365C20.2 6.66938 21.2218 6.56812 22.2525 6.7771C23.984 7.12819 25.099 8.27786 25.3931 10.0201C25.5779 11.1151 25.4472 12.1921 25.1576 13.2548C24.7614 14.7087 24.11 16.0471 23.2847 17.3003C21.4515 20.0838 19.1028 22.3229 16.1817 23.9434C14.9823 24.6087 13.7171 25.1096 12.3586 25.3428C11.4571 25.4976 10.5543 25.5224 9.64493 25.2922Z" fill="#24E5E0"/>
</g>
<defs>
<clipPath id="clip0_1220_8305">
<rect width="32" height="32" fill="white"/>
</clipPath>
</defs>
</svg>
