<svg width="32" height="32" viewBox="0 0 32 32" fill="none" xmlns="http://www.w3.org/2000/svg">
<path fill-rule="evenodd" clip-rule="evenodd" d="M5.8592 2.13672L0.0244761 14.3926C0.00227334 14.4381 -0.00476259 14.4896 0.00439729 14.5395C0.0135572 14.5894 0.0384323 14.635 0.075385 14.6697L15.8336 29.7699C15.8783 29.8128 15.9379 29.8368 16 29.8368C16.062 29.8368 16.1216 29.8128 16.1664 29.7699L31.9245 14.6707C31.9615 14.636 31.9864 14.5903 31.9955 14.5405C32.0047 14.4906 31.9977 14.4391 31.9755 14.3935L26.1407 2.13766C26.1219 2.0965 26.0916 2.06163 26.0535 2.03722C26.0154 2.01282 25.971 1.9999 25.9258 2.00002H6.07603C6.03055 1.99945 5.98588 2.01206 5.94741 2.03631C5.90893 2.06057 5.8783 2.09544 5.8592 2.13672Z" fill="#50AF95"/>
<path fill-rule="evenodd" clip-rule="evenodd" d="M18.0245 15.6509C17.9114 15.6594 17.3269 15.6943 16.023 15.6943C14.986 15.6943 14.2497 15.6631 13.9914 15.6509C9.98373 15.4746 6.99236 14.777 6.99236 13.9417C6.99236 13.1064 9.98373 12.4097 13.9914 12.2306V14.9561C14.2535 14.9749 15.0039 15.0192 16.0409 15.0192C17.2854 15.0192 17.9085 14.9674 18.0207 14.957V12.2325C22.0199 12.4106 25.0047 13.1083 25.0047 13.9417C25.0047 14.7751 22.0208 15.4727 18.0207 15.6499L18.0245 15.6509ZM18.0245 11.9506V9.51166H23.6056V5.79248H8.41027V9.51166H13.9904V11.9496C9.45484 12.158 6.04395 13.0564 6.04395 14.1331C6.04395 15.2097 9.45484 16.1072 13.9904 16.3165V24.1319H18.0236V16.3136C22.5488 16.1053 25.954 15.2078 25.954 14.1321C25.954 13.0564 22.5516 12.1589 18.0236 11.9496L18.0245 11.9506Z" fill="white"/>
</svg>
