<svg width="32" height="32" viewBox="0 0 32 32" fill="none" xmlns="http://www.w3.org/2000/svg">
<g clip-path="url(#clip0_4774_63838)">
<path fill-rule="evenodd" clip-rule="evenodd" d="M3.76471 25.5878C2.80471 23.5389 2.27765 21.2434 2.27765 18.8151C2.27765 9.97453 9.39294 2.80344 18.1647 2.80344C23.0588 2.80344 27.4259 5.02306 30.3435 8.53272L32.0753 7.05297C28.7435 3.05007 23.7553 0.507935 18.1647 0.507935C8.13176 0.507935 0 8.70346 0 18.8151C0 21.5849 0.602353 24.2029 1.69412 26.5553L3.76471 25.5878Z" fill="black"/>
<path fill-rule="evenodd" clip-rule="evenodd" d="M18.1648 29.6856C12.2166 29.6856 7.37894 24.829 7.37894 18.8151C7.37894 12.8203 12.1978 7.94467 18.1648 7.94467C21.4778 7.94467 24.4519 9.46236 26.4284 11.8338L28.1601 10.354C25.7695 7.48937 22.1742 5.64917 18.1648 5.64917C10.9554 5.64917 5.12012 11.5302 5.12012 18.7962C5.12012 26.0621 10.9554 31.9431 18.1648 31.9431V29.6856Z" fill="black"/>
<path fill-rule="evenodd" clip-rule="evenodd" d="M22.0801 22.116C21.139 23.2353 19.746 23.9562 18.1648 23.9562C15.3413 23.9562 13.0637 21.6607 13.0637 18.8151C13.0637 15.9694 15.3413 13.6739 18.1648 13.6739C19.7272 13.6739 21.139 14.3948 22.0801 15.5141L24.0378 13.8636C22.626 12.1752 20.5178 11.1128 18.1648 11.1128C13.9295 11.1128 10.5037 14.5655 10.5037 18.834C10.5037 23.1025 13.9295 26.5553 18.1648 26.5553C20.3295 26.5553 22.2684 25.6636 23.6613 24.2029L22.0801 22.116Z" fill="black"/>
</g>
<defs>
<clipPath id="clip0_4774_63838">
<rect width="32" height="32" fill="white"/>
</clipPath>
</defs>
</svg>
