<svg width="32" height="32" viewBox="0 0 32 32" fill="none" xmlns="http://www.w3.org/2000/svg">
<g clip-path="url(#clip0_5172_455)">
<circle cx="16" cy="16" r="16" fill="#49813D"/>
<path d="M8.5896 17.0703C11.2004 18.4568 13.9247 19.9081 16.0288 21.031L23.4071 17.0703C20.7356 21.0391 18.5096 24.3432 16.0288 28C13.5436 24.3513 10.7991 20.3252 8.5896 17.0703ZM8.87337 15.9755L16.0369 12.153L23.1071 15.9476L16.0409 19.7743L8.87337 15.9755ZM16.0288 10.9283L8.5896 14.8446L15.9964 4L23.4071 14.8689L16.0288 10.9283Z" fill="white"/>
<path d="M16.029 21.031L23.4074 17.0703C20.7358 21.0391 16.029 28 16.029 28V21.031ZM16.0371 12.153L23.1074 15.9476L16.0411 19.7743L16.0371 12.153ZM16.029 10.9286L15.9966 4L23.4074 14.8689L16.029 10.9286Z" fill="#B3CCB0"/>
<path d="M8.87354 15.9756L16.0374 16.5635L23.1077 15.9513L16.0411 19.7783L8.87354 15.9756Z" fill="#B4CDB1"/>
<path d="M16.0369 16.5635L23.1071 15.9513L16.0409 19.7783L16.0369 16.5635Z" fill="#6A9A62"/>
</g>
<defs>
<clipPath id="clip0_5172_455">
<rect width="32" height="32" fill="white"/>
</clipPath>
</defs>
</svg>
