<svg width="32" height="32" viewBox="0 0 32 32" fill="none" xmlns="http://www.w3.org/2000/svg">
<g clip-path="url(#clip0_4774_63889)">
<path d="M27.7217 0H7.22477C4.86197 0 2.94653 1.91543 2.94653 4.27824V24.7752C2.94653 27.138 4.86197 29.0534 7.22477 29.0534H27.7217C30.0845 29.0534 32 27.138 32 24.7752V4.27824C32 1.91543 30.0845 0 27.7217 0Z" fill="#939393"/>
<path d="M24.7752 2.94653H4.27824C1.91543 2.94653 0 4.86197 0 7.22477V27.7217C0 30.0845 1.91543 32 4.27824 32H24.7752C27.138 32 29.0534 30.0845 29.0534 27.7217V7.22477C29.0534 4.86197 27.138 2.94653 24.7752 2.94653Z" fill="#303030"/>
<path d="M14.5247 5.88452L14.3694 6.41252V21.7378L14.5247 21.8928L21.6382 17.6882L14.5247 5.88452Z" fill="#9B9B9B"/>
<path d="M14.5246 5.88452L7.41113 17.6884L14.5246 21.8933" fill="white"/>
<path d="M14.5247 23.2403L14.437 23.3472V28.8072L14.5247 29.062L21.6423 19.0372L14.5247 23.2403Z" fill="#9B9B9B"/>
<path d="M14.5246 29.062V23.2401L7.41113 19.0372" fill="white"/>
<path d="M14.5247 21.8932L21.6379 17.6883L14.5247 14.4548V21.8932Z" fill="#666666"/>
<path d="M7.41113 17.6883L14.5244 21.8932V14.4548" fill="#9B9B9B"/>
</g>
<defs>
<clipPath id="clip0_4774_63889">
<rect width="32" height="32" fill="white"/>
</clipPath>
</defs>
</svg>
