<svg xmlns="http://www.w3.org/2000/svg" viewBox="0 0 100.00063 100"><path d="M50,0A50,50,0,1,1-.00031,50,50.0184,50.0184,0,0,1,50,0Z" transform="translate(0.00031 0)" style="fill:#003371"/><path d="M75.33349,24.74091a8.07729,8.07729,0,0,0-11.4016,0L44.29907,44.31248a8.01961,8.01961,0,0,0,0,11.36617L63.93189,75.24989a8.07681,8.07681,0,0,0,11.4016,0h0a8.0192,8.0192,0,0,0,0-11.36585L63.29607,51.89284a2.67272,2.67272,0,0,1,0-3.79467L75.33349,36.10708a8.0192,8.0192,0,0,0,0-11.36617Z" transform="translate(0.00031 0)" style="fill:#04795b"/><path d="M63.92868,75.24775a8.04838,8.04838,0,1,0,11.4-11.36424L55.69554,44.31157A8.04838,8.04838,0,0,0,44.2957,55.676Z" transform="translate(0.00031 0)" style="fill:#0db50a"/><path d="M55.70088,44.31248,36.06816,24.74091A8.04976,8.04976,0,1,0,24.6663,36.10708L36.69506,48.09817a2.67359,2.67359,0,0,1,0,3.79467L24.6663,63.884A8.04964,8.04964,0,0,0,36.06816,75.24989l13.92722-13.8926,5.7055-5.67864a8.0192,8.0192,0,0,0,0-11.36617Z" transform="translate(0.00031 0)" style="fill:#0ae33a"/><path d="M69.62815,38.46421a8.03581,8.03581,0,1,0-8.061-8.03578A8.04845,8.04845,0,0,0,69.62815,38.46421Z" transform="translate(0.00031 0)" style="fill:#0ae33a"/></svg>