<svg width="32" height="32" viewBox="0 0 32 32" fill="none" xmlns="http://www.w3.org/2000/svg">
<g clip-path="url(#clip0_4767_71081)">
<path d="M16 32C24.8366 32 32 24.8366 32 16C32 7.16344 24.8366 0 16 0C7.16344 0 0 7.16344 0 16C0 24.8366 7.16344 32 16 32Z" fill="#1EB5FA"/>
<path d="M26.405 7.15097L22.775 8.76097C22.6691 8.81889 22.5808 8.90423 22.5192 9.00803C22.4576 9.11183 22.4251 9.23028 22.425 9.35097V22.331C22.4246 22.453 22.4581 22.5727 22.5216 22.6769C22.5852 22.781 22.6763 22.8655 22.785 22.921L26.415 24.491C26.4667 24.5192 26.525 24.5335 26.5839 24.5323C26.6428 24.5311 26.7004 24.5145 26.7509 24.4842C26.8015 24.4538 26.8432 24.4108 26.872 24.3594C26.9008 24.308 26.9156 24.2499 26.915 24.191V7.45097C26.9131 7.39194 26.8963 7.33435 26.8662 7.28356C26.8361 7.23277 26.7936 7.19043 26.7427 7.16049C26.6917 7.13055 26.6341 7.11397 26.5751 7.11231C26.516 7.11064 26.4575 7.12394 26.405 7.15097ZM9.02002 8.74097L5.50002 7.14097C5.44829 7.11272 5.39008 7.09848 5.33115 7.09968C5.27223 7.10087 5.21464 7.11745 5.1641 7.14778C5.11356 7.1781 5.07183 7.22111 5.04305 7.27254C5.01426 7.32397 4.99943 7.38204 5.00002 7.44097V24.181C5.00006 24.2416 5.01629 24.3012 5.04704 24.3535C5.07779 24.4058 5.12193 24.449 5.17493 24.4785C5.22792 24.5081 5.28784 24.523 5.3485 24.5216C5.40916 24.5203 5.46837 24.5028 5.52002 24.471L9.06002 22.601C9.15779 22.5414 9.23858 22.4577 9.29463 22.3579C9.35067 22.258 9.38008 22.1455 9.38002 22.031V9.33097C9.3762 9.20988 9.34101 9.09186 9.27791 8.98844C9.21481 8.88502 9.12595 8.79975 9.02002 8.74097ZM20.06 13.171L16.27 11.001C16.1682 10.942 16.0527 10.9109 15.935 10.9109C15.8174 10.9109 15.7018 10.942 15.6 11.001L11.74 13.151C11.6368 13.2111 11.551 13.2971 11.4914 13.4007C11.4317 13.5042 11.4002 13.6215 11.4 13.741V18.141C11.4 18.384 11.53 18.609 11.74 18.731L15.6 20.951C15.807 21.071 16.063 21.071 16.27 20.951L20.06 18.751C20.1633 18.6909 20.249 18.6048 20.3087 18.5013C20.3683 18.3978 20.3998 18.2804 20.4 18.161V13.761C20.401 13.6413 20.3701 13.5234 20.3103 13.4197C20.2505 13.316 20.1641 13.2301 20.06 13.171Z" fill="white"/>
</g>
<defs>
<clipPath id="clip0_4767_71081">
<rect width="32" height="32" fill="white"/>
</clipPath>
</defs>
</svg>
