<svg width="32" height="33" viewBox="0 0 32 33" fill="none" xmlns="http://www.w3.org/2000/svg">
<g clip-path="url(#clip0_168_15998)">
<path d="M16 32.0039C24.8366 32.0039 32 24.8405 32 16.0039C32 7.16735 24.8366 0.00390625 16 0.00390625C7.16344 0.00390625 0 7.16735 0 16.0039C0 24.8405 7.16344 32.0039 16 32.0039Z" fill="#1EB5FA"/>
<path d="M26.405 7.15488L22.775 8.76488C22.6691 8.8228 22.5808 8.90813 22.5192 9.01193C22.4576 9.11574 22.4251 9.23419 22.425 9.35488V22.3349C22.4246 22.4569 22.4581 22.5766 22.5216 22.6808C22.5852 22.7849 22.6763 22.8694 22.785 22.9249L26.415 24.4949C26.4667 24.5231 26.525 24.5374 26.5839 24.5362C26.6428 24.535 26.7004 24.5184 26.7509 24.4881C26.8015 24.4577 26.8432 24.4147 26.872 24.3633C26.9008 24.3119 26.9156 24.2538 26.915 24.1949V7.45488C26.9131 7.39585 26.8963 7.33826 26.8662 7.28747C26.8361 7.23668 26.7936 7.19434 26.7427 7.1644C26.6917 7.13445 26.6341 7.11788 26.5751 7.11621C26.516 7.11455 26.4575 7.12785 26.405 7.15488V7.15488ZM9.02002 8.74488L5.50002 7.14488C5.44829 7.11663 5.39008 7.10239 5.33115 7.10358C5.27223 7.10478 5.21464 7.12136 5.1641 7.15168C5.11356 7.18201 5.07183 7.22502 5.04305 7.27645C5.01426 7.32788 4.99943 7.38594 5.00002 7.44488V24.1849C5.00006 24.2456 5.01629 24.3051 5.04704 24.3574C5.07779 24.4097 5.12193 24.4529 5.17493 24.4825C5.22792 24.512 5.28784 24.5269 5.3485 24.5256C5.40916 24.5242 5.46837 24.5067 5.52002 24.4749L9.06002 22.6049C9.15779 22.5453 9.23859 22.4616 9.29463 22.3618C9.35067 22.2619 9.38008 22.1494 9.38002 22.0349V9.33488C9.3762 9.21379 9.34101 9.09576 9.27791 8.99235C9.21481 8.88893 9.12595 8.80366 9.02002 8.74488V8.74488ZM20.06 13.1749L16.27 11.0049C16.1682 10.9459 16.0527 10.9148 15.935 10.9148C15.8174 10.9148 15.7018 10.9459 15.6 11.0049L11.74 13.1549C11.6368 13.215 11.551 13.301 11.4914 13.4046C11.4317 13.5081 11.4002 13.6254 11.4 13.7449V18.1449C11.4 18.3879 11.53 18.6129 11.74 18.7349L15.6 20.9549C15.807 21.0749 16.063 21.0749 16.27 20.9549L20.06 18.7549C20.1633 18.6948 20.249 18.6087 20.3087 18.5052C20.3683 18.4017 20.3998 18.2843 20.4 18.1649V13.7649C20.401 13.6452 20.3701 13.5273 20.3103 13.4236C20.2505 13.3199 20.1641 13.234 20.06 13.1749V13.1749Z" fill="white"/>
</g>
<defs>
<clipPath id="clip0_168_15998">
<rect width="32" height="32" fill="white" transform="translate(0 0.00390625)"/>
</clipPath>
</defs>
</svg>
