<svg width="24" height="25" viewBox="0 0 24 25" fill="none" xmlns="http://www.w3.org/2000/svg">
    <rect y="0.5" width="24" height="24" rx="12" fill="white" />
    <path fill-rule="evenodd" clip-rule="evenodd"
        d="M16.98 8.06905L15.2724 8.93905L7.02665 13.1391C6.99877 12.9264 6.98474 12.7121 6.98465 12.4977C6.98578 11.6418 7.21046 10.8012 7.63644 10.059C8.06243 9.31675 8.67494 8.69869 9.41327 8.26601C10.1516 7.83333 10.9902 7.60105 11.8459 7.59218C12.7017 7.58332 13.5449 7.79816 14.292 8.21545L15.2694 7.71745L15.4152 7.64305C14.5199 6.99318 13.4623 6.60352 12.3593 6.51714C11.2563 6.43076 10.151 6.65102 9.16535 7.15358C8.17973 7.65613 7.35227 8.42141 6.77439 9.36484C6.19651 10.3083 5.89073 11.3931 5.89085 12.4995C5.89085 12.6522 5.89665 12.8044 5.90825 12.9561C5.92449 13.1707 5.87688 13.3854 5.7714 13.5731C5.66592 13.7608 5.50728 13.9131 5.31545 14.0109L4.80005 14.2737V15.4995L6.31745 14.7261L6.80885 14.4753L7.29305 14.2287L15.9858 9.79946L16.9626 9.30205L18.9816 8.27305V7.04785L16.98 8.06905ZM18.9816 9.5L7.78685 15.2L6.81005 15.6986L4.80005 16.7228V17.9474L6.79625 16.9304L8.50385 16.0604L16.758 11.8544C16.7859 12.0685 16.8 12.2841 16.8 12.5C16.7995 13.3568 16.5749 14.1985 16.1485 14.9416C15.7221 15.6848 15.1088 16.3035 14.3693 16.7363C13.6299 17.1691 12.7902 17.401 11.9334 17.4089C11.0767 17.4169 10.2328 17.2006 9.48545 16.7816L9.42545 16.8134L8.36585 17.3534C9.26102 18.0033 10.3184 18.393 11.4212 18.4797C12.524 18.5662 13.6293 18.3463 14.6149 17.844C15.6005 17.3418 16.4281 16.5769 17.0062 15.6338C17.5843 14.6907 17.8905 13.6062 17.8908 12.5C17.8908 12.3458 17.8848 12.1916 17.8734 12.0392C17.8572 11.8246 17.9048 11.61 18.0102 11.4223C18.1155 11.2346 18.274 11.0823 18.4656 10.9844L18.9816 10.7216V9.5Z"
        fill="#1D1E1F" />
</svg>
    