<svg width="32" height="32" viewBox="0 0 32 32" fill="none" xmlns="http://www.w3.org/2000/svg">
<rect width="32" height="32" rx="16" fill="#F5F5F5"/>
<path fill-rule="evenodd" clip-rule="evenodd" d="M23.8949 9.4359L21.2459 10.7855L8.45414 17.301C8.41088 16.9711 8.38912 16.6387 8.38898 16.306C8.39073 14.9784 8.73928 13.6743 9.40011 12.5229C10.0609 11.3715 11.0111 10.4127 12.1565 9.74144C13.3019 9.07022 14.6028 8.70989 15.9303 8.69613C17.2579 8.68238 18.5659 9.01567 19.725 9.66301L21.2412 8.89046L21.4674 8.77504C20.0785 7.76689 18.4378 7.16242 16.7267 7.02842C15.0157 6.89442 13.3009 7.2361 11.7719 8.01572C10.2429 8.79534 8.95927 9.98252 8.06281 11.4461C7.16634 12.9096 6.69199 14.5925 6.69216 16.3088C6.69216 16.5458 6.70116 16.7819 6.71916 17.0171C6.74436 17.3502 6.6705 17.6832 6.50686 17.9744C6.34323 18.2656 6.09713 18.5018 5.79954 18.6535L5 19.0611V20.9627L7.35395 19.763L8.11626 19.3739L8.86741 18.9913L22.3526 12.1203L23.8679 11.3487L27 9.75236V7.8517L23.8949 9.4359ZM27 11.6557L9.63344 20.4982L8.11812 21.2717L5 22.8605V24.7602L8.09672 23.1826L10.7457 21.8329L23.5505 15.3081C23.5938 15.6402 23.6156 15.9748 23.6157 16.3097C23.6148 17.6388 23.2664 18.9446 22.6049 20.0974C21.9435 21.2502 20.992 22.21 19.8449 22.8814C18.6978 23.5529 17.3951 23.9126 16.066 23.9249C14.737 23.9372 13.4278 23.6017 12.2685 22.9517L12.1754 23.0011L10.5316 23.8388C11.9203 24.8469 13.5606 25.4516 15.2714 25.5859C16.9822 25.7202 18.6968 25.379 20.2258 24.5999C21.7548 23.8208 23.0386 22.6342 23.9355 21.1712C24.8323 19.7082 25.3073 18.0257 25.3078 16.3097C25.3078 16.0704 25.2985 15.8312 25.2808 15.5948C25.2557 15.2619 25.3295 14.9289 25.4929 14.6378C25.6564 14.3467 25.9022 14.1104 26.1995 13.9585L27 13.5508V11.6557Z" fill="#212121"/>
</svg>
