<svg width="32" height="32" viewBox="0 0 32 32" fill="none" xmlns="http://www.w3.org/2000/svg">
<path d="M27.5937 9.56023L28.2894 8.46706C29.1838 8.7652 30.1577 8.26831 30.5552 7.3739C30.9527 6.47949 30.4558 5.40619 29.5614 5.00868C28.667 4.61116 27.5937 5.10806 27.1962 6.00247C26.8981 6.59874 27.0968 7.27452 27.4944 7.77141L26.5999 9.14284L26.5006 9.3416L25.4074 11.0112C24.8111 10.8124 24.1353 11.0112 23.6385 11.4087L20.3788 8.44719C20.3788 8.34781 20.4782 8.34781 20.4782 8.24843C20.8757 7.35402 20.3788 6.28073 19.4844 5.88321C19.385 5.88321 19.385 5.88321 19.2857 5.78383V4.01489C19.7826 3.91551 20.2794 3.51799 20.4583 2.92172C20.8558 2.02731 20.359 0.95402 19.4645 0.556505C18.5701 0.158989 17.4968 0.655884 17.0993 1.55029C16.7018 2.4447 17.1987 3.51799 18.0931 3.91551H18.1925L18.0931 5.78383C17.5962 5.98259 17.1987 6.28073 16.9999 6.877C16.9006 7.17514 16.8012 7.57265 16.9006 7.87079L14.2372 9.04346C13.9391 8.64595 13.5416 8.24843 12.9652 8.04967L13.1639 8.24843C13.0645 8.24843 12.9652 8.14905 12.8658 8.14905C12.667 8.04967 12.4683 8.04967 12.3689 7.95029H11.9316L11.5341 5.98259C12.2298 5.58508 12.6273 4.80992 12.5279 4.01489C12.3291 3.0211 11.3552 2.34532 10.3614 2.54408L10.2621 2.64346C9.36765 2.84222 8.79125 3.73663 8.89063 4.61116L8.79125 4.71054C8.99001 5.50557 9.58628 6.08197 10.3614 6.18135L10.759 8.04967C10.1627 8.24843 9.66578 8.64594 9.38752 9.22234C9.28814 9.32172 9.28814 9.4211 9.18877 9.61986C9.08939 9.71924 9.08939 9.91799 9.08939 10.0174C8.99001 10.3155 8.99001 10.5143 8.99001 10.8124L7.12169 11.3093C6.72417 10.6136 5.94901 10.2161 5.15398 10.4149C4.16019 10.6136 3.5838 11.5876 3.78255 12.5814C3.98131 13.5751 4.95523 14.1515 5.94901 13.9528C6.74405 13.754 7.32044 13.0584 7.32044 12.2832L9.18877 11.7863C9.18877 11.8857 9.28814 11.9851 9.38752 12.0845C9.68566 12.5814 10.1826 12.9789 10.6596 13.1776V13.118L10.5602 13.2174C11.0571 13.4161 11.6534 13.4161 12.1304 13.3168L12.3291 13.7143L13.0248 15.2845C12.6273 15.5826 12.3291 15.8807 12.1304 16.2782C12.031 16.477 11.9316 16.7751 11.8322 17.0733C11.7329 17.6695 11.8322 18.2459 12.031 18.7428C12.1304 18.8422 12.2298 19.041 12.3291 19.1404L10.9577 20.5118L10.6596 20.8099C10.2621 20.5118 9.66578 20.313 9.08939 20.313C8.49311 20.313 7.99622 20.5118 7.5192 20.8099L5.5515 18.8422C5.65088 18.5441 5.75026 18.2459 5.75026 17.9478C5.75026 16.954 4.95522 16.1789 3.88193 16.1789C2.88814 16.1789 2.01361 16.9739 2.01361 17.9478C2.01361 18.9416 2.80864 19.7168 3.88193 19.7168C4.18007 19.7168 4.47821 19.6174 4.77634 19.518L6.74405 21.4857C6.44591 21.8832 6.24715 22.4795 6.24715 23.0559V23.4534L5.84964 23.5528L4.75647 24.2484C4.45833 23.7515 3.86206 23.4534 3.28566 23.4534L3.38504 23.5528H3.18628L3.28566 23.4534C2.29187 23.4534 1.41734 24.2484 1.41734 25.2223L1.51672 25.123V25.2223H1.39746C1.39746 26.2161 2.19249 26.9913 3.26578 26.9913C4.25957 26.9913 5.13411 26.1963 5.13411 25.2223H5.03473V25.123L5.13411 25.2223V25.123L6.90305 24.4273L7.30057 24.3279C7.69808 25.0236 8.39373 25.4211 9.06951 25.6V27.9652C8.27448 28.164 7.79746 28.8596 7.79746 29.7341C7.79746 30.7279 8.59249 31.5031 9.66578 31.5031C10.6596 31.5031 11.5341 30.7081 11.5341 29.7341C11.5341 28.9391 10.9378 28.2633 10.2621 27.9652V25.6C10.6596 25.5006 10.9577 25.4012 11.2558 25.2025L13.8198 27.7664C13.7204 27.9652 13.6211 28.2633 13.6211 28.4621C13.6211 29.4559 14.4161 30.231 15.4894 30.231C16.4832 30.231 17.3577 29.436 17.3577 28.4621C17.3577 27.4882 16.5627 26.6931 15.4894 26.6931C15.0919 26.6931 14.7937 26.7925 14.4956 26.9913L14.1975 26.6931L14.0981 26.5938L12.3291 24.8447L12.031 24.5466C12.3291 24.149 12.5279 23.5528 12.5279 22.9764C12.5279 22.3801 12.3291 21.8832 12.031 21.4062L12.3291 21.1081L13.7006 19.7366C13.7999 19.7366 13.7999 19.836 13.8993 19.836C14.0981 19.9354 14.3962 20.0348 14.6944 20.1341C15.2906 20.2335 15.867 20.1341 16.3639 19.9354C16.5627 19.836 16.6621 19.7366 16.8608 19.6372L17.4571 19.041C17.4571 18.9416 17.5565 18.9416 17.5565 18.8422L19.7229 19.6372C19.6235 20.1341 19.7229 20.7304 19.9217 21.2074L18.3515 22.3006C18.1527 22.1018 17.8546 22.0025 17.5565 21.9031C16.5627 21.7043 15.5888 22.3006 15.39 23.2745C15.1912 24.2484 15.7875 25.2422 16.7614 25.441C17.7552 25.6397 18.7291 25.0435 18.9279 24.0695C19.0273 23.7714 18.9279 23.4733 18.9279 23.1751L20.5975 22.082C20.7962 22.2807 20.995 22.3801 21.1937 22.4795C21.3925 22.5789 21.6906 22.6782 21.9888 22.7776C22.585 22.877 23.1614 22.7776 23.6583 22.5789C23.6583 22.5789 23.7577 22.5789 23.7577 22.4795L24.0558 22.9764L25.0496 24.5466C24.6521 24.9441 24.4534 25.5404 24.6521 26.1168C24.8509 27.1105 25.8248 27.6869 26.8186 27.4882C27.8124 27.2894 28.3888 26.3155 28.19 25.3217C27.9913 24.3279 27.0173 23.7515 26.0235 23.9503H25.9242L24.831 22.3801L24.4335 21.7838L24.5329 21.6845C25.0298 20.9888 25.1291 20.2136 24.9304 19.4186L26.9975 18.4248C27.4944 19.0211 28.3689 19.2199 29.1639 18.8223C30.0583 18.4248 30.436 17.3515 30.0583 16.3577C29.6608 15.4633 28.5875 15.0857 27.5937 15.4633C26.7987 15.8609 26.5006 16.636 26.5999 17.3317L24.5329 18.3254C24.3341 18.0273 24.036 17.8286 23.7378 17.6298L24.9105 14.3702C25.7055 14.3702 26.3813 13.9727 26.6794 13.277C26.9776 12.6807 26.7788 11.9056 26.3813 11.4087L27.4745 9.73911C27.4944 9.75899 27.5937 9.56023 27.5937 9.56023ZM21.0944 17.6497C20.5975 17.8484 20.1999 18.2459 19.9217 18.7428L19.5242 18.6435L17.7552 18.0472C17.8546 17.6497 17.7552 17.2522 17.6558 16.7751C17.6558 16.6758 17.5565 16.477 17.5565 16.3776C17.4571 16.2782 17.4571 16.1789 17.3577 15.9801C17.0596 15.5826 16.7614 15.2845 16.3639 15.0857C16.1652 14.9863 15.867 14.8869 15.5689 14.7876C15.1714 14.6882 14.7739 14.6882 14.4757 14.7876L13.5813 12.8199C13.9788 12.5217 14.3763 12.1242 14.5751 11.5478C14.7739 11.0509 14.7739 10.4546 14.6745 9.97762L17.4372 8.80495C17.636 9.00371 17.8347 9.10309 18.0335 9.20247C18.6298 9.5006 19.2062 9.5006 19.6037 9.20247L20.5975 10.0969L20.6968 10.1963L23.0621 12.2633C22.8633 12.959 23.1614 13.7341 23.7577 14.1317L22.7639 16.9938L22.6645 17.3913C22.1875 17.3515 21.5913 17.3515 21.0944 17.6497Z" fill="#3EB7AF"/>
</svg>
