<svg width="32" height="32" viewBox="0 0 32 32" fill="none" xmlns="http://www.w3.org/2000/svg">
<g clip-path="url(#clip0_168_16121)">
<path fill-rule="evenodd" clip-rule="evenodd" d="M16 0C24.8352 0 32 7.1648 32 16C32 24.8352 24.8352 32 16 32C7.1648 32 0 24.8352 0 16C0 7.1648 7.1648 0 16 0Z" fill="#383B4A"/>
<path fill-rule="evenodd" clip-rule="evenodd" d="M24.9696 16.9761L24.3168 17.6289C16.8992 10.2433 8.672 14.3489 6.7072 15.5041C6.77675 15.2867 6.89746 15.0891 7.0592 14.9281L14.9888 6.99848C15.1232 6.86384 15.2828 6.75701 15.4585 6.68413C15.6342 6.61125 15.8226 6.57373 16.0128 6.57373C16.203 6.57373 16.3914 6.61125 16.5671 6.68413C16.7428 6.75701 16.9024 6.86384 17.0368 6.99848L24.9664 14.9281C25.1016 15.0621 25.209 15.2214 25.2824 15.3971C25.3557 15.5727 25.3937 15.7611 25.3939 15.9514C25.3942 16.1417 25.3569 16.3303 25.2841 16.5061C25.2113 16.682 25.1044 16.8417 24.9696 16.9761V16.9761Z" fill="white"/>
<path fill-rule="evenodd" clip-rule="evenodd" d="M18.8352 23.1103L17.04 24.9055C16.9056 25.0401 16.746 25.1469 16.5703 25.2198C16.3946 25.2927 16.2062 25.3302 16.016 25.3302C15.8258 25.3302 15.6374 25.2927 15.4617 25.2198C15.286 25.1469 15.1264 25.0401 14.992 24.9055L13.2768 23.1903C16.0352 21.2383 18.3936 22.7807 18.8352 23.1103V23.1103Z" fill="white"/>
<path fill-rule="evenodd" clip-rule="evenodd" d="M23.9136 18.0319L21.8656 20.0799C15.7792 14.4351 9.67361 18.0703 8.75841 18.6719L8.30721 18.2207C8.31328 18.2175 8.3187 18.2131 8.32321 18.2079C16.2976 11.8143 23.2384 17.4527 23.9136 18.0319Z" fill="white"/>
<path fill-rule="evenodd" clip-rule="evenodd" d="M11.4272 21.3439L10.9344 20.8511C15.6672 16.5375 20.8672 20.2079 21.3696 20.5791L19.2768 22.6719C15.5296 19.0655 12.0544 20.9503 11.4272 21.3439Z" fill="white"/>
</g>
<defs>
<clipPath id="clip0_168_16121">
<rect width="32" height="32" fill="white"/>
</clipPath>
</defs>
</svg>
