<svg width="32" height="32" viewBox="0 0 32 32" fill="none" xmlns="http://www.w3.org/2000/svg">
<g clip-path="url(#clip0_4767_69871)">
<path fill-rule="evenodd" clip-rule="evenodd" d="M16 0C24.8352 0 32 7.1648 32 16C32 24.8352 24.8352 32 16 32C7.1648 32 0 24.8352 0 16C0 7.1648 7.1648 0 16 0Z" fill="#383B4A"/>
<path fill-rule="evenodd" clip-rule="evenodd" d="M24.9697 16.9761L24.3169 17.6289C16.8993 10.2433 8.67208 14.3489 6.70728 15.5041C6.77683 15.2867 6.89754 15.0891 7.05928 14.9281L14.9889 6.99848C15.1233 6.86384 15.2829 6.75701 15.4586 6.68413C15.6343 6.61125 15.8226 6.57373 16.0129 6.57373C16.2031 6.57373 16.3915 6.61125 16.5672 6.68413C16.7429 6.75701 16.9025 6.86384 17.0369 6.99848L24.9665 14.9281C25.1017 15.0621 25.2091 15.2214 25.2824 15.3971C25.3558 15.5727 25.3937 15.7611 25.394 15.9514C25.3943 16.1417 25.357 16.3303 25.2842 16.5061C25.2113 16.682 25.1045 16.8417 24.9697 16.9761Z" fill="white"/>
<path fill-rule="evenodd" clip-rule="evenodd" d="M18.8353 23.1104L17.0401 24.9056C16.9057 25.0402 16.7461 25.1471 16.5704 25.2199C16.3946 25.2928 16.2063 25.3303 16.0161 25.3303C15.8258 25.3303 15.6375 25.2928 15.4618 25.2199C15.286 25.1471 15.1264 25.0402 14.9921 24.9056L13.2769 23.1904C16.0353 21.2384 18.3937 22.7808 18.8353 23.1104Z" fill="white"/>
<path fill-rule="evenodd" clip-rule="evenodd" d="M23.9135 18.0321L21.8655 20.0801C15.7791 14.4353 9.67353 18.0705 8.75833 18.6721L8.30713 18.2209C8.3132 18.2176 8.31862 18.2133 8.32313 18.2081C16.2975 11.8145 23.2383 17.4529 23.9135 18.0321Z" fill="white"/>
<path fill-rule="evenodd" clip-rule="evenodd" d="M11.4271 21.344L10.9343 20.8512C15.6671 16.5376 20.8671 20.208 21.3695 20.5792L19.2767 22.672C15.5295 19.0656 12.0543 20.9504 11.4271 21.344Z" fill="white"/>
</g>
<defs>
<clipPath id="clip0_4767_69871">
<rect width="32" height="32" fill="white"/>
</clipPath>
</defs>
</svg>
