<svg width="32" height="32" viewBox="0 0 32 32" fill="none" xmlns="http://www.w3.org/2000/svg">
<g clip-path="url(#clip0_174_4402)">
<path fill-rule="evenodd" clip-rule="evenodd" d="M32 16C32 13.92 31.584 11.808 30.784 9.888C29.984 7.968 28.8 6.176 27.328 4.672C25.824 3.2 24.064 2.016 22.112 1.216C20.16 0.416 18.08 0 16 0C13.92 0 11.808 0.416 9.888 1.216C7.968 2.016 6.176 3.2 4.672 4.672C3.2 6.176 2.016 7.936 1.216 9.888C0.416 11.84 0 13.92 0 16C0 18.08 0.416 20.192 1.216 22.112C2.016 24.032 3.2 25.824 4.672 27.328C6.144 28.8 7.936 29.984 9.856 30.784C11.776 31.584 13.92 32 16 32C18.08 32 20.192 31.584 22.112 30.784C24.032 29.984 25.824 28.8 27.328 27.328C28.8 25.856 29.984 24.064 30.784 22.144C31.584 20.224 32 18.08 32 16Z" fill="url(#paint0_linear_174_4402)"/>
<path fill-rule="evenodd" clip-rule="evenodd" d="M15.168 8.76807H16.832V23.2321H15.168V8.76807Z" fill="white"/>
<path fill-rule="evenodd" clip-rule="evenodd" d="M14.24 15.5841V13.8561C12.928 13.2161 12 11.8401 12 10.2721C12 8.06414 13.792 6.27214 16 6.27214C18.496 6.27214 20.288 8.06414 20.288 10.2721C20.288 10.8161 20.16 11.3601 19.904 12.0001L19.2 9.69614L17.792 10.1441L19.04 14.9121L23.904 13.1201L23.296 11.7121L21.472 12.3201C21.792 11.6161 21.856 11.0721 21.856 10.2401C21.856 7.13614 19.36 4.64014 15.968 4.64014C12.864 4.64014 10.368 7.13614 10.368 10.2401C10.4 12.7361 12 14.8481 14.24 15.5841Z" fill="white"/>
<path fill-rule="evenodd" clip-rule="evenodd" d="M17.76 16.416V18.144C19.072 18.784 20 20.16 20 21.728C20 23.936 18.208 25.728 16 25.728C13.504 25.728 11.712 23.936 11.712 21.728C11.712 21.184 11.84 20.64 12.096 20L12.8 22.304L14.208 21.856L12.96 17.088L8.096 18.88L8.704 20.288L10.528 19.68C10.208 20.384 10.144 20.928 10.144 21.76C10.144 24.864 12.64 27.36 16.032 27.36C19.136 27.36 21.632 24.864 21.632 21.76C21.6 19.264 20 17.152 17.76 16.416Z" fill="white"/>
</g>
<defs>
<linearGradient id="paint0_linear_174_4402" x1="0" y1="0" x2="32" y2="32" gradientUnits="userSpaceOnUse">
<stop stop-color="#0077FC"/>
<stop offset="1" stop-color="#095EB5"/>
</linearGradient>
<clipPath id="clip0_174_4402">
<rect width="32" height="32" fill="white"/>
</clipPath>
</defs>
</svg>
