<svg width="32" height="32" viewBox="0 0 32 32" fill="none" xmlns="http://www.w3.org/2000/svg">
<g clip-path="url(#clip0_4767_67660)">
<path fill-rule="evenodd" clip-rule="evenodd" d="M32 16C32 13.92 31.584 11.808 30.784 9.888C29.984 7.968 28.8 6.176 27.328 4.672C25.824 3.2 24.064 2.016 22.112 1.216C20.16 0.416 18.08 0 16 0C13.92 0 11.808 0.416 9.888 1.216C7.968 2.016 6.176 3.2 4.672 4.672C3.2 6.176 2.016 7.936 1.216 9.888C0.416 11.84 0 13.92 0 16C0 18.08 0.416 20.192 1.216 22.112C2.016 24.032 3.2 25.824 4.672 27.328C6.144 28.8 7.936 29.984 9.856 30.784C11.776 31.584 13.92 32 16 32C18.08 32 20.192 31.584 22.112 30.784C24.032 29.984 25.824 28.8 27.328 27.328C28.8 25.856 29.984 24.064 30.784 22.144C31.584 20.224 32 18.08 32 16Z" fill="url(#paint0_linear_4767_67660)"/>
<path fill-rule="evenodd" clip-rule="evenodd" d="M15.168 8.76807H16.832V23.2321H15.168V8.76807Z" fill="white"/>
<path fill-rule="evenodd" clip-rule="evenodd" d="M14.24 15.5839V13.8559C12.928 13.2159 12 11.8399 12 10.2719C12 8.06389 13.792 6.27189 16 6.27189C18.496 6.27189 20.288 8.06389 20.288 10.2719C20.288 10.8159 20.16 11.3599 19.904 11.9999L19.2 9.69589L17.792 10.1439L19.04 14.9119L23.904 13.1199L23.296 11.7119L21.472 12.3199C21.792 11.6159 21.856 11.0719 21.856 10.2399C21.856 7.13589 19.36 4.63989 15.968 4.63989C12.864 4.63989 10.368 7.13589 10.368 10.2399C10.4 12.7359 12 14.8479 14.24 15.5839Z" fill="white"/>
<path fill-rule="evenodd" clip-rule="evenodd" d="M17.7599 16.416V18.144C19.0719 18.784 19.9999 20.16 19.9999 21.728C19.9999 23.936 18.2079 25.728 15.9999 25.728C13.5039 25.728 11.7119 23.936 11.7119 21.728C11.7119 21.184 11.8399 20.64 12.0959 20L12.7999 22.304L14.2079 21.856L12.9599 17.088L8.09595 18.88L8.70395 20.288L10.5279 19.68C10.2079 20.384 10.1439 20.928 10.1439 21.76C10.1439 24.864 12.6399 27.36 16.0319 27.36C19.1359 27.36 21.6319 24.864 21.6319 21.76C21.5999 19.264 19.9999 17.152 17.7599 16.416Z" fill="white"/>
</g>
<defs>
<linearGradient id="paint0_linear_4767_67660" x1="0" y1="0" x2="32" y2="32" gradientUnits="userSpaceOnUse">
<stop stop-color="#0077FC"/>
<stop offset="1" stop-color="#095EB5"/>
</linearGradient>
<clipPath id="clip0_4767_67660">
<rect width="32" height="32" fill="white"/>
</clipPath>
</defs>
</svg>
