<svg width="32" height="32" viewBox="0 0 32 32" fill="none" xmlns="http://www.w3.org/2000/svg">
<g clip-path="url(#clip0_4767_68511)">
<path d="M16 32C7.17696 32 0 24.823 0 16C0 7.17696 7.17696 0 16 0C24.823 0 32 7.17696 32 16C32 24.823 24.823 32 16 32ZM16 2.59072C8.60288 2.59072 2.59072 8.60288 2.59072 16C2.59072 23.3971 8.60288 29.4093 16 29.4093C23.3971 29.4093 29.4093 23.3971 29.4093 16C29.4093 8.60288 23.3971 2.59072 16 2.59072Z" fill="#E6201A"/>
<path d="M23.4751 10.6367C22.9055 9.31572 21.6613 8.48628 20.2239 8.48628L11.7503 8.4082H11.7247C10.3257 8.4082 9.09431 9.19796 8.53751 10.4805C7.95511 11.7887 8.20087 13.2658 9.18519 14.3154L10.3513 15.5724L12.1138 13.6677L11.0898 12.5541C10.6879 12.1138 10.8441 11.6607 10.9081 11.5173C10.9733 11.3624 11.2063 10.9861 11.7247 10.9861H11.7375L20.2098 11.0642C20.7922 11.0642 21.0393 11.5173 21.1033 11.6607C21.1813 11.8296 21.3106 12.27 20.9484 12.6578L16.7513 17.2184C16.5183 17.4642 16.2329 17.5039 16.0908 17.5039C15.8181 17.5039 15.5596 17.3874 15.3778 17.18L14.6649 16.4159L12.9023 18.3205L13.4719 18.9298C14.1452 19.6556 15.1039 20.0831 16.0895 20.0831C17.061 20.0831 18.0069 19.6684 18.6546 18.9554L22.8517 14.3948C23.7989 13.3823 24.0319 11.932 23.4751 10.6367Z" fill="#E6201A"/>
<path d="M22.9825 17.4514L21.7908 16.1561L19.7569 18.359L20.7809 19.4726C21.0535 19.7708 20.9754 20.0946 20.8974 20.2623C20.8462 20.3788 20.6516 20.741 20.1844 20.741L11.7121 20.8191C11.2846 20.8191 11.1156 20.5337 11.0644 20.4044C10.9991 20.2751 10.8954 19.9257 11.2065 19.5878L15.4817 14.9631C15.6366 14.7942 15.8311 14.7046 16.0513 14.7046C16.1678 14.7046 16.3879 14.7302 16.5697 14.9247L17.4503 15.8834L19.4842 13.6806L18.7713 12.9036C18.0711 12.1522 17.0868 11.7119 16.0641 11.7119C15.0145 11.7119 14.0174 12.1522 13.3044 12.9292L9.02919 17.5538C7.99239 18.6674 7.73383 20.2226 8.34311 21.6089C8.93959 22.9567 10.235 23.799 11.7121 23.799L20.2113 23.7209C21.714 23.7081 23.035 22.8402 23.6314 21.4412C24.2394 20.0678 23.9937 18.5394 22.9825 17.4514Z" fill="#E6201A"/>
</g>
<defs>
<clipPath id="clip0_4767_68511">
<rect width="32" height="32" fill="white"/>
</clipPath>
</defs>
</svg>
