<svg width="32" height="32" viewBox="0 0 32 32" fill="none" xmlns="http://www.w3.org/2000/svg">
<g clip-path="url(#clip0_171_16322)">
<path d="M16 32C7.17696 32 0 24.823 0 16C0 7.17696 7.17696 0 16 0C24.823 0 32 7.17696 32 16C32 24.823 24.823 32 16 32ZM16 2.59072C8.60288 2.59072 2.59072 8.60288 2.59072 16C2.59072 23.3971 8.60288 29.4093 16 29.4093C23.3971 29.4093 29.4093 23.3971 29.4093 16C29.4093 8.60288 23.3971 2.59072 16 2.59072Z" fill="#E6201A"/>
<path d="M23.4752 10.6367C22.9056 9.31572 21.6615 8.48628 20.224 8.48628L11.7504 8.4082H11.7248C10.3258 8.4082 9.09443 9.19796 8.53763 10.4805C7.95523 11.7887 8.20099 13.2658 9.18531 14.3154L10.3514 15.5724L12.1139 13.6677L11.0899 12.5541C10.688 12.1138 10.8442 11.6607 10.9082 11.5173C10.9735 11.3624 11.2064 10.9861 11.7248 10.9861H11.7376L20.2099 11.0642C20.7923 11.0642 21.0394 11.5173 21.1034 11.6607C21.1815 11.8296 21.3107 12.27 20.9485 12.6578L16.7514 17.2184C16.5184 17.4642 16.233 17.5039 16.0909 17.5039C15.8183 17.5039 15.5597 17.3874 15.3779 17.18L14.665 16.4159L12.9024 18.3205L13.472 18.9298C14.1453 19.6556 15.104 20.0831 16.0896 20.0831C17.0611 20.0831 18.0071 19.6684 18.6547 18.9554L22.8519 14.3948C23.7991 13.3823 24.032 11.932 23.4752 10.6367V10.6367Z" fill="#E6201A"/>
<path d="M22.9824 17.4514L21.7907 16.1561L19.7568 18.359L20.7808 19.4726C21.0535 19.7708 20.9754 20.0946 20.8973 20.2623C20.8461 20.3788 20.6515 20.741 20.1843 20.741L11.712 20.8191C11.2845 20.8191 11.1155 20.5337 11.0643 20.4044C10.9991 20.2751 10.8954 19.9257 11.2064 19.5878L15.4816 14.9631C15.6365 14.7942 15.8311 14.7046 16.0512 14.7046C16.1677 14.7046 16.3879 14.7302 16.5696 14.9247L17.4503 15.8834L19.4842 13.6806L18.7712 12.9036C18.0711 12.1522 17.0867 11.7119 16.064 11.7119C15.0144 11.7119 14.0173 12.1522 13.3043 12.9292L9.02913 17.5538C7.99233 18.6674 7.73377 20.2226 8.34305 21.6089C8.93953 22.9567 10.2349 23.799 11.712 23.799L20.2112 23.7209C21.7139 23.7081 23.0349 22.8402 23.6314 21.4412C24.2394 20.0678 23.9936 18.5394 22.9824 17.4514Z" fill="#E6201A"/>
</g>
<defs>
<clipPath id="clip0_171_16322">
<rect width="32" height="32" fill="white"/>
</clipPath>
</defs>
</svg>
