<svg width="32" height="32" viewBox="0 0 32 32" fill="none" xmlns="http://www.w3.org/2000/svg">
<g clip-path="url(#clip0_4797_63784)">
<path d="M24.4689 21.2987C25.5955 22.8126 26.7574 24.3617 27.9192 25.9109C25.5955 28.657 22.7086 30.4174 19.223 31.1567C15.3503 31.9665 11.6887 31.368 8.1328 29.3964C11.3014 27.0375 14.3997 24.7138 17.5331 22.3901C18.2373 23.0591 18.9062 23.728 19.5751 24.3617C20.3145 25.0659 20.0328 25.1011 20.9834 24.573C22.2861 23.8336 23.3775 22.8126 24.2225 21.5804C24.2577 21.51 24.3281 21.4395 24.3633 21.3691C24.3281 21.3691 24.3633 21.3691 24.4689 21.2987ZM10.6325 24.397C9.75233 25.0659 8.94257 25.6644 8.1328 26.2981C7.53428 26.7558 6.93576 27.1783 6.33724 27.636C6.09079 27.8472 5.91476 27.8472 5.6331 27.6008C2.95736 25.2067 1.26741 22.2493 0.633686 18.7286C-4.20467e-05 15.1727 0.563272 11.7928 2.25321 8.58895C2.28842 8.51853 2.35884 8.41291 2.39404 8.3425C2.39404 8.30729 2.42925 8.30729 2.49966 8.27208C4.82333 11.3351 7.18221 14.3981 9.50588 17.4611C9.43547 17.5668 9.40026 17.6372 9.32985 17.7076C8.6257 18.4469 7.92156 19.1863 7.18221 19.8904C6.97097 20.1017 6.93576 20.2777 7.07659 20.5242C7.81594 21.9325 8.83695 23.0943 10.1044 24.0449C10.2804 24.1505 10.4213 24.2561 10.6325 24.397ZM23.7648 2.53332C22.6381 3.34309 21.5115 4.15285 20.3849 4.92741C18.4485 6.30048 16.5121 7.70877 14.6109 9.08185C14.3645 9.25788 14.1884 9.29309 13.9772 9.04664C13.3435 8.3777 12.6745 7.77918 12.0408 7.11025C11.8648 6.93421 11.6887 6.89901 11.4423 7.00463C9.92837 7.77918 8.73133 8.8706 7.74553 10.2437C7.67511 10.3141 7.6047 10.4197 7.53428 10.5253C6.97097 9.78599 6.44286 9.11705 5.91475 8.41291C5.35144 7.67356 4.82333 6.93421 4.29523 6.23007C4.11919 5.98362 4.08398 5.80758 4.33043 5.56113C7.04138 2.56853 10.3861 0.808172 14.3997 0.385687C17.5683 0.0336152 20.5961 0.667344 23.4127 2.18125C23.5183 2.25166 23.6239 2.28687 23.7296 2.35729C23.7296 2.46291 23.7296 2.49811 23.7648 2.53332ZM29.5035 23.6576C28.7642 22.707 28.0952 21.8268 27.4263 20.9466C25.8772 18.9046 24.3281 16.8274 22.7438 14.7854C22.5325 14.5037 22.5325 14.3277 22.779 14.0813C23.4479 13.4123 24.0816 12.7434 24.7506 12.0745C24.9266 11.8984 24.997 11.7224 24.8562 11.4759C24.0816 9.99723 23.0254 8.76498 21.6523 7.77918C21.5467 7.70877 21.4411 7.60315 21.3003 7.53273C21.4059 7.42711 21.5115 7.3567 21.5819 7.28628C22.9198 6.26528 24.2577 5.27948 25.5955 4.25847C25.8068 4.08243 25.9828 4.01202 26.2293 4.25847C29.5739 7.28628 31.3695 11.0534 31.5455 15.5952C31.616 18.2357 31.0174 20.7354 29.8204 23.0943C29.7148 23.2351 29.6092 23.4111 29.5035 23.6576Z" fill="#231815"/>
</g>
<defs>
<clipPath id="clip0_4797_63784">
<rect width="32" height="32" fill="white"/>
</clipPath>
</defs>
</svg>
