<svg width="106" height="100" viewBox="0 0 106 100" fill="none" xmlns="http://www.w3.org/2000/svg">
<g clip-path="url(#clip0_20543_270149)">
<path d="M25.4873 55.2108L28.2654 34.2402L4.16943 17.4339L26.1856 24.9266L31.3851 16.9115L50.3706 5.07544L92.2191 28.2401L94.388 63.5842L75.7441 89.6146L61.0073 91.8833L68.6283 77.868V64.3752L63.0871 53.8377L57.4568 50.0913L48.7959 59.0617V68.5544L42.0366 74.9128L33.45 75.9576L29.6469 78.1218L23.4075 76.1217L20.8078 66.7186L25.4873 60.1065V55.2108Z" fill="white"/>
<path d="M63.9635 17.2548C59.3731 16.2995 54.3519 16.5532 54.3519 16.5532C54.3519 16.5532 52.7029 24.2101 42.4822 26.2251C42.5565 26.2251 55.986 30.8371 63.9635 17.2548Z" fill="#94A6C3"/>
<path d="M68.1232 86.7337C73.6644 82.3754 77.824 76.3753 79.7404 69.5841C79.8295 69.3304 80.602 68.8826 81.1219 68.5393C81.9836 68.0169 82.86 67.5841 83.0235 66.8826C83.3651 64.8825 83.5434 62.7929 83.5434 60.7033C83.5434 59.9272 82.7561 59.1361 81.9836 58.36C81.3745 57.8376 80.7654 57.2256 80.7654 56.7928C79.9038 48.8672 76.2641 41.4641 70.4555 36.0759L69.8465 36.6879C75.4768 42.0014 79.1164 49.2255 79.9038 56.8823C79.9929 57.5838 80.6763 58.2704 81.3745 58.9719C81.9836 59.4943 82.6818 60.2854 82.6818 60.6287C82.6818 62.6287 82.5035 64.6288 82.1618 66.6288C82.0727 66.9721 81.3002 67.3303 80.6911 67.6736C79.8295 68.1065 79.0421 68.5393 78.8787 69.2408C76.7989 76.644 72.0303 83.0919 65.7017 87.271C66.8308 84.8382 70.3813 76.9126 72.2828 72.8976L71.9411 60.0167L60.933 49.315L54.6937 50.1807L47.8452 61.3302C47.8452 61.3302 51.054 65.4198 46.5379 70.211C42.1257 74.9126 38.6495 75.9574 38.6495 75.9574L35.4407 74.2111C36.3915 72.9872 38.3078 71.1662 39.7785 69.9423C42.2892 67.8527 44.7998 67.6736 44.7998 65.4198C44.9038 60.7033 39.8677 62.0018 39.8677 62.0018L38.0404 63.7482L37.2679 70.196L33.4649 74.9872L33.0341 74.8976L26.7947 73.5096C26.7947 73.5096 30.6126 71.5095 31.2217 69.2408C31.8308 67.0617 30.0035 59.8376 29.9144 59.4048C30.0035 59.4943 31.7416 60.972 32.5141 63.4049C33.8957 59.569 35.7229 55.9122 36.2429 55.5689C36.7628 55.2256 43.7747 51.4792 43.7747 51.4792L41.4424 57.6585L43.1805 56.7032L47.3401 46.4343C47.3401 46.4343 51.4106 44.4343 54.4411 44.4343C59.8932 44.3447 67.9598 37.6431 64.3201 25.6279C65.36 26.0608 83.38 35.1207 86.4997 52.8822C88.832 66.5393 81.1219 79.3306 68.1232 86.7337Z" fill="#94A6C3"/>
<path d="M47.5035 19.1653C49.4941 16.807 48.7216 13.3293 48.7216 13.3293L42.9131 21.9564C42.8239 21.9564 44.978 22.0459 47.5035 19.1653Z" fill="#1B314F"/>
<path d="M27.998 66.2707L28.6962 62.793C28.6962 62.793 25.829 67.8379 25.5765 68.5394C25.3091 69.3304 25.7547 70.7185 26.8689 70.629C27.998 70.5394 29.3795 68.8827 29.3795 67.6737C29.3795 66.1065 27.998 66.2707 27.998 66.2707Z" fill="#1B314F"/>
<path d="M79.4728 10.8964C79.4728 10.8964 83.8107 11.0755 88.312 11.5979C78.1655 3.5828 68.5539 1.23946 60.7547 1.23946C50.014 1.23946 42.7347 5.68732 42.289 5.94105L45.6761 0.537953C45.6761 0.537953 32.1575 -0.775509 27.3888 13.5979C26.1706 10.5531 25.0564 6.10524 25.0564 6.10524C25.0564 6.10524 18.0297 12.2994 21.3277 22.5683C13.261 19.613 1.74787 15.5084 1.3022 15.4338C0.693118 15.3442 0.51485 15.6129 0.51485 15.6129C0.51485 15.6129 0.336581 15.8666 0.85653 16.3144C1.82215 17.0756 20.0204 30.5834 24.0165 33.1954C23.1549 36.3298 23.1549 37.8074 24.0165 39.2851C25.2347 41.2851 25.309 42.3299 25.1456 43.8075C24.9673 45.2852 23.4075 58.0914 23.0658 59.6586C22.7241 61.2258 19.0845 66.7931 19.2479 68.4499C19.4261 70.1066 21.6693 77.1515 23.6749 77.9426C25.1456 78.465 28.7852 79.5994 31.2067 79.5994C32.0683 79.5994 32.8557 79.4203 33.1974 79.077C34.6681 77.7784 35.0989 77.5098 36.1388 77.5098C36.2279 77.5098 36.3171 77.5098 36.3913 77.5098C36.8222 77.5098 37.3421 77.5993 37.9512 77.5993C39.3328 77.5993 41.16 77.3307 42.4525 76.1217C44.354 74.2112 47.652 71.5992 48.6918 70.3753C49.9991 68.7185 50.6825 66.4648 50.3408 64.196C50.0734 62.1064 51.2025 60.2706 52.5098 58.4497C54.1587 56.2705 57.1893 52.36 57.1893 52.36C63.1761 56.8675 66.9049 63.7483 66.9049 71.4052C66.9049 84.9875 55.1244 95.9579 40.5658 95.9579C38.3077 95.9579 36.1536 95.7042 33.9847 95.1818C40.6549 97.5251 46.2852 98.3162 50.8905 98.3162C60.6804 98.3162 65.8799 94.7489 65.8799 94.7489C65.8799 94.7489 64.0675 97.1072 61.1112 99.7938C61.2003 99.7938 61.2003 99.7938 61.2003 99.7938C77.4079 97.5251 85.2963 84.1218 85.2963 84.1218C85.2963 84.1218 84.6872 88.4801 83.9147 91.4354C105.47 75.1515 101.831 54.7779 101.742 54.0913C101.92 54.3451 104.089 56.9571 105.203 58.3601C108.679 22.4787 79.4728 10.8964 79.4728 10.8964ZM46.2852 68.1961C45.9436 68.629 44.4728 69.9424 43.4329 70.8977C42.393 71.8529 41.264 72.8082 40.4024 73.6888C40.0607 74.0321 39.3625 74.2112 38.3226 74.2112C37.9809 74.2112 37.6244 74.2112 37.3718 74.2112C37.1935 74.2112 37.0301 74.2112 36.8519 74.2112C36.6736 74.2112 36.5845 74.2112 36.5102 74.2112C36.2428 74.2112 35.9902 74.2112 35.7228 74.2112C37.0301 72.4649 40.8332 68.4648 42.1405 67.5991C43.7003 66.5543 44.4877 65.5095 43.5221 63.6886C42.5713 61.8527 40.0607 62.3005 40.0607 62.3005C40.0607 62.3005 41.5314 61.6885 42.8387 61.6885C41.1897 61.2557 39.1099 61.6885 38.1592 62.6438C37.1193 63.599 37.2975 67.0021 36.8667 69.1663C36.4359 71.435 34.9652 72.5694 32.7071 74.659C31.489 75.7933 30.6273 76.1366 29.9291 76.1366C28.4584 75.8829 26.7203 75.4351 25.5021 75.0022C24.6405 73.8679 23.3332 70.1215 22.9915 68.5543C23.2441 67.6887 24.284 65.8528 24.8039 64.808C25.8438 62.808 26.4529 61.6736 26.6311 60.6288C26.9728 59.1512 28.1019 50.0017 28.5327 46.1807C29.6617 47.6584 31.2216 50.1062 30.865 51.6734C33.3756 48.1061 31.5632 44.6135 30.6868 43.2254C29.9143 41.8374 28.8744 39.0462 29.736 36.091C30.5976 33.1357 33.7173 24.9415 33.7173 24.9415C33.7173 24.9415 34.7572 26.7773 36.2279 26.4191C37.6986 26.0758 49.5683 8.13513 49.5683 8.13513C49.5683 8.13513 52.7772 15.1801 49.3901 20.3294C45.9287 25.4639 42.5416 26.4191 42.5416 26.4191C42.5416 26.4191 47.3103 27.2848 51.7224 24.0608C53.5348 28.3296 55.2729 32.7625 55.3621 33.3745C55.0947 33.9864 51.6333 42.3448 51.2916 42.8672C51.1133 43.0463 49.91 43.3896 49.0335 43.5687C47.5628 44.0016 46.7012 44.2702 46.3447 44.524C45.7356 45.0464 42.9576 52.7033 41.6651 56.4496C40.1053 56.8825 38.5454 57.7631 37.4164 59.4944C38.0255 59.0616 39.927 58.7929 41.3234 58.6288C42.5416 58.5392 46.2555 60.5392 47.2211 64.2856C47.2211 64.3751 47.2211 64.3751 47.2211 64.4647C47.4143 65.8379 46.9834 67.1513 46.2852 68.1961ZM38.1443 69.2409C38.9317 68.1066 38.8425 66.1961 38.9317 65.5841C39.0208 64.9722 39.1842 63.8378 39.8824 63.6736C40.5806 63.4945 42.2296 63.7632 42.2296 64.9722C42.2296 66.1065 41.0115 66.3603 40.1498 67.1513C39.5259 67.7484 38.3077 69.0618 38.1443 69.2409ZM72.7135 52.5988C73.5751 48.1658 73.6643 44.3299 73.4117 41.1955C76.784 45.718 78.8637 51.2107 79.4728 56.8675C79.562 57.569 80.2453 58.2556 80.9436 58.9571C81.5526 59.4795 82.2508 60.181 82.2508 60.6139C82.2508 62.6139 82.0726 64.614 81.7309 66.6289C81.6418 66.8827 80.8693 67.3304 80.2602 67.6737C79.3986 68.1066 78.6112 68.5394 78.4478 69.2409C76.5463 75.9426 72.461 81.8681 67.0089 86.0473C75.0607 77.5993 78.9529 63.6587 72.7135 52.5988ZM67.2615 86.8234C72.8918 82.4651 77.2296 76.3754 79.1312 69.4947C79.2203 69.2409 79.9928 68.7932 80.5127 68.4499C81.3744 68.017 82.2509 67.4946 82.4143 66.7931C82.756 64.7931 82.9342 62.7035 82.9342 60.6139C82.9342 59.8377 82.1469 59.0467 81.3744 58.2705C80.9436 57.7481 80.2453 57.1362 80.2453 56.7033C79.5471 50.345 77.0365 44.3449 73.1443 39.3746C71.4062 28.9266 64.4834 25.7027 64.3052 25.6131C64.4834 25.8818 68.9847 32.4043 65.865 40.0612C62.6562 47.8076 54.4261 46.5986 53.7279 46.6733C53.0297 46.6733 50.3557 50.151 46.9686 56.5989C46.5378 56.4198 44.7105 55.9869 42.6307 56.3451C44.1906 51.9868 46.5378 45.8076 46.9686 45.2852C47.1469 45.1061 48.4393 44.7628 49.3158 44.509C50.9648 44.0762 51.7373 43.8075 52.0047 43.4643C52.1829 43.1956 53.0446 41.1955 53.9062 39.1059C54.6935 39.1059 56.6842 38.9268 56.8476 38.8373C57.0259 38.6582 58.6749 34.4044 58.6749 33.882C58.6749 33.4491 55.2878 25.0012 53.9953 21.7772C54.6044 21.0757 55.2135 20.21 55.8077 19.2548C73.5751 21.1802 87.4503 36.3298 87.4503 54.6884C87.4503 68.7932 79.2203 81.077 67.2615 86.8234Z" fill="#1B314F"/>
<path d="M44.2053 39.8074C45.8543 37.8969 44.9927 34.3297 41.9473 33.7177C42.7346 31.8968 43.8488 28.24 43.8488 28.24C43.8488 28.24 35.0097 42.1657 34.2372 42.4343C33.4498 42.703 32.6773 39.6432 32.6773 39.6432C31.0283 46.0016 35.4553 46.8673 35.9753 44.8672C38.3967 44.2403 42.5563 41.6283 44.2053 39.8074Z" fill="#1B314F"/>
<path d="M36.6587 43.1957L41.16 35.4492C41.16 35.4492 43.7597 36.7627 42.4524 38.8523C40.8183 41.2852 36.6587 43.1957 36.6587 43.1957Z" fill="#FFD923"/>
<path d="M92.3824 79.0768C91.0751 80.8231 89.6044 82.6441 87.8811 84.3904C99.0526 62.7929 88.401 43.0313 87.9702 42.2551C88.7576 43.0462 89.5301 43.9119 90.2283 44.688C98.8 54.2554 99.8399 68.6288 92.3824 79.0768Z" fill="#D82122"/>
<path d="M102.781 51.3002C98.8743 40.7627 93.3331 31.7924 81.1217 23.7026C69.3412 15.8666 56.6841 16.4786 55.9859 16.5681C55.8968 16.5681 55.8076 16.5681 55.8076 16.5681C56.2384 16.389 56.6692 16.2995 57.1001 16.2249C59.7889 15.3592 63.2503 14.6577 66.7265 14.2248C75.9222 12.8964 85.1922 16.0308 91.5207 22.7474C91.6098 22.8369 91.6098 22.8369 91.699 22.9265C98.8891 30.5834 102.618 40.1507 102.781 51.3002Z" fill="#D82122"/>
<path d="M78.3438 8.19489C65.4342 5.76201 57.115 6.97099 51.1282 9.23969C50.9499 8.53818 50.3408 7.1501 49.8209 6.01574C48.0234 8.19489 46.107 10.8069 44.9037 12.4636C41.6057 14.7323 40.2241 16.9115 40.2241 16.9115C42.1256 10.374 47.6817 5.50827 54.441 4.28436C56.3425 3.94107 58.4223 3.76196 60.6804 3.76196C66.6524 3.85152 72.6244 5.32916 78.3438 8.19489Z" fill="#D82122"/>
<path d="M30.5977 24.9116C20.4661 24.5683 23.8383 12.7173 24.0166 12.0308C24.0166 12.1203 24.6999 21.3444 30.5977 24.9116Z" fill="#D82122"/>
<path d="M40.5657 3.58276C32.7665 8.28436 34.3263 19.5085 34.3263 19.5085C26.8688 8.12017 39.9566 3.85143 40.5657 3.58276Z" fill="#D82122"/>
<path d="M27.7454 28.0459C28.2654 28.4787 28.7853 29.2698 28.1763 30.4042C27.8346 31.0161 27.3146 30.9265 26.5273 30.5833C25.4874 30.0609 19.248 26.4041 13.6177 22.6577C20.0353 24.9264 26.5273 27.3593 27.5672 27.8817C27.5672 27.8817 27.6563 27.9713 27.7454 28.0459Z" fill="white"/>
</g>
<defs>
<clipPath id="clip0_20543_270149">
<rect width="105" height="99.2857" fill="white" transform="translate(0.5 0.508057)"/>
</clipPath>
</defs>
</svg>
