<svg width="106" height="106" viewBox="0 0 106 106" fill="none" xmlns="http://www.w3.org/2000/svg">
<path d="M48.3118 105.302C48.2343 105.302 48.1569 105.38 48.1569 105.457C48.1569 105.535 48.2343 105.612 48.3118 105.612C48.3893 105.612 48.4668 105.535 48.4668 105.457C48.4668 105.38 48.3893 105.302 48.3118 105.302Z" fill="#3952A8"/>
<path d="M43.3524 103.597C43.1199 103.597 42.965 103.752 42.965 103.985C42.965 104.217 43.1199 104.372 43.3524 104.372C43.5849 104.372 43.7399 104.217 43.7399 103.985C43.7399 103.752 43.5849 103.597 43.3524 103.597Z" fill="#3952A8"/>
<path d="M38.5479 101.35C38.238 101.35 38.0055 101.583 38.0055 101.893C38.0055 102.202 38.238 102.435 38.5479 102.435C38.8579 102.435 39.0904 102.202 39.0904 101.893C39.0904 101.583 38.8579 101.35 38.5479 101.35Z" fill="#3952A8"/>
<path d="M34.0534 98.6379C33.6659 98.6379 33.356 98.9479 33.356 99.3354C33.356 99.7228 33.6659 100.033 34.0534 100.033C34.4408 100.033 34.7508 99.7228 34.7508 99.3354C34.7508 98.9479 34.4408 98.6379 34.0534 98.6379Z" fill="#3952A8"/>
<path d="M29.7916 95.3833C29.3266 95.3833 28.8617 95.7708 28.8617 96.3132C28.8617 96.7781 29.2491 97.2431 29.7916 97.2431C30.2565 97.2431 30.7215 96.8556 30.7215 96.3132C30.7215 95.8483 30.334 95.3833 29.7916 95.3833Z" fill="#3952A8"/>
<path d="M25.9169 91.8188C25.297 91.8188 24.832 92.2838 24.832 92.9037C24.832 93.5237 25.297 93.9886 25.9169 93.9886C26.5368 93.9886 27.0018 93.5237 27.0018 92.9037C27.0018 92.2838 26.5368 91.8188 25.9169 91.8188Z" fill="#3952A8"/>
<path d="M22.3525 87.7893C21.6551 87.7893 21.1127 88.3317 21.1127 89.0292C21.1127 89.7266 21.6551 90.269 22.3525 90.269C23.0499 90.269 23.5924 89.7266 23.5924 89.0292C23.6699 88.3317 23.0499 87.7893 22.3525 87.7893Z" fill="#3952A8"/>
<path d="M19.3302 83.3723C18.5553 83.3723 17.8579 83.9922 17.8579 84.8446C17.8579 85.6195 18.4778 86.317 19.3302 86.317C20.1051 86.317 20.8026 85.697 20.8026 84.8446C20.7251 84.0697 20.1051 83.3723 19.3302 83.3723Z" fill="#3952A8"/>
<path d="M18.4002 80.2728C18.4002 79.4204 17.7028 78.6455 16.7729 78.6455C15.843 78.6455 15.1456 79.3429 15.1456 80.2728C15.1456 81.1252 15.843 81.9001 16.7729 81.9001C17.7028 81.9001 18.4002 81.2027 18.4002 80.2728Z" fill="#3952A8"/>
<path d="M16.618 75.4683C16.618 74.461 15.8431 73.686 14.8358 73.686C13.8284 73.686 13.0535 74.461 13.0535 75.4683C13.0535 76.4757 13.8284 77.2506 14.8358 77.2506C15.8431 77.2506 16.618 76.4757 16.618 75.4683Z" fill="#3952A8"/>
<path d="M15.5331 70.4314C15.5331 69.3465 14.6807 68.4941 13.5958 68.4941C12.511 68.4941 11.6586 69.3465 11.6586 70.4314C11.6586 71.5163 12.511 72.3687 13.5958 72.3687C14.6807 72.3687 15.5331 71.5163 15.5331 70.4314Z" fill="#3952A8"/>
<path d="M15.1458 65.2396C15.1458 64.0772 14.2159 63.0698 12.976 63.0698C11.8137 63.0698 10.8063 63.9997 10.8063 65.2396C10.8063 66.4019 11.7362 67.4093 12.976 67.4093C14.2159 67.4093 15.1458 66.4019 15.1458 65.2396Z" fill="#3952A8"/>
<path d="M13.131 62.3723C14.4483 62.3723 15.4557 61.365 15.4557 60.0476C15.4557 58.7303 14.4483 57.7229 13.131 57.7229C11.8137 57.7229 10.8063 58.7303 10.8063 60.0476C10.8063 61.2875 11.8137 62.3723 13.131 62.3723Z" fill="#3952A8"/>
<path d="M11.3488 54.8557C11.3488 56.2505 12.4336 57.3354 13.8285 57.3354C15.2233 57.3354 16.3082 56.2505 16.3082 54.8557C16.3082 53.4609 15.2233 52.376 13.8285 52.376C12.5111 52.376 11.3488 53.4609 11.3488 54.8557Z" fill="#3952A8"/>
<path d="M86.6697 93.2913C86.5923 93.2913 86.5148 93.3687 86.5148 93.4462C86.5148 93.5237 86.5923 93.6012 86.6697 93.6012C86.7472 93.6012 86.8247 93.5237 86.8247 93.4462C86.8247 93.3687 86.7472 93.2913 86.6697 93.2913Z" fill="#3952A8"/>
<path d="M82.0977 95.5383C81.9427 95.5383 81.7877 95.6933 81.7877 95.8483C81.7877 96.0033 81.9427 96.1582 82.0977 96.1582C82.2527 96.1582 82.4076 96.0033 82.4076 95.8483C82.4076 95.6933 82.2527 95.5383 82.0977 95.5383Z" fill="#3952A8"/>
<path d="M77.2158 97.3206C76.9833 97.3206 76.7509 97.553 76.7509 97.7855C76.7509 98.018 76.9833 98.2505 77.2158 98.2505C77.4483 98.2505 77.6807 98.018 77.6807 97.7855C77.6807 97.553 77.5258 97.3206 77.2158 97.3206Z" fill="#3952A8"/>
<path d="M72.2565 98.5605C71.8691 98.5605 71.6366 98.8705 71.6366 99.1805C71.6366 99.4904 71.9466 99.8004 72.2565 99.8004C72.5665 99.8004 72.8764 99.4904 72.8764 99.1805C72.8764 98.8705 72.5665 98.5605 72.2565 98.5605Z" fill="#3952A8"/>
<path d="M67.0645 99.2578C66.5995 99.2578 66.2896 99.6453 66.2896 100.033C66.2896 100.498 66.677 100.808 67.0645 100.808C67.5294 100.808 67.8394 100.42 67.8394 100.033C67.9169 99.6453 67.5294 99.2578 67.0645 99.2578Z" fill="#3952A8"/>
<path d="M61.8726 99.4905C61.3302 99.4905 60.9427 99.8779 60.9427 100.42C60.9427 100.963 61.3302 101.35 61.8726 101.35C62.4151 101.35 62.8025 100.885 62.8025 100.42C62.88 99.8779 62.4151 99.4905 61.8726 99.4905Z" fill="#3952A8"/>
<path d="M56.6809 99.103C56.061 99.103 55.5961 99.568 55.5961 100.188C55.5961 100.808 56.061 101.273 56.6809 101.273C57.3009 101.273 57.7658 100.808 57.7658 100.188C57.8433 99.568 57.3009 99.103 56.6809 99.103Z" fill="#3952A8"/>
<path d="M51.5665 98.1731C50.8691 98.1731 50.3267 98.7155 50.3267 99.413C50.3267 100.11 50.8691 100.653 51.5665 100.653C52.2639 100.653 52.8064 100.11 52.8064 99.413C52.8064 98.7155 52.2639 98.1731 51.5665 98.1731Z" fill="#3952A8"/>
<path d="M46.5296 96.5457C45.7547 96.5457 45.1348 97.1656 45.1348 97.9405C45.1348 98.7154 45.7547 99.3353 46.5296 99.3353C47.3045 99.3353 47.9244 98.7154 47.9244 97.9405C48.0019 97.1656 47.3045 96.5457 46.5296 96.5457Z" fill="#3952A8"/>
<path d="M41.8026 94.2986C40.9502 94.2986 40.2528 94.996 40.2528 95.8484C40.2528 96.7008 40.9502 97.3982 41.8026 97.3982C42.655 97.3982 43.3524 96.7008 43.3524 95.8484C43.3524 95.0735 42.655 94.2986 41.8026 94.2986Z" fill="#3952A8"/>
<path d="M39.0905 93.2136C39.0905 92.2837 38.3156 91.5088 37.3857 91.5088C36.4558 91.5088 35.6034 92.2837 35.6034 93.2136C35.6034 94.1435 36.3783 94.9184 37.3857 94.9184C38.3156 94.9959 39.0905 94.221 39.0905 93.2136Z" fill="#3952A8"/>
<path d="M33.2786 88.0994C32.1937 88.0994 31.3413 88.9518 31.3413 90.0366C31.3413 91.1215 32.1937 91.9739 33.2786 91.9739C34.286 91.9739 35.2158 91.1215 35.2158 90.0366C35.2158 88.9518 34.286 88.0994 33.2786 88.0994Z" fill="#3952A8"/>
<path d="M29.6364 84.1472C28.4741 84.1472 27.5442 85.0771 27.5442 86.2395C27.5442 87.4018 28.4741 88.3317 29.6364 88.3317C30.7988 88.3317 31.7287 87.4018 31.7287 86.2395C31.7287 85.0771 30.7988 84.1472 29.6364 84.1472Z" fill="#3952A8"/>
<path d="M26.5369 84.3023C27.7768 84.3023 28.7841 83.295 28.7841 82.0551C28.7841 80.8153 27.7768 79.8079 26.5369 79.8079C25.2971 79.8079 24.2897 80.8153 24.2897 82.0551C24.3672 83.295 25.2971 84.3023 26.5369 84.3023Z" fill="#3952A8"/>
<path d="M26.3818 77.483C26.3818 76.1657 25.2969 75.0808 23.9796 75.0808C22.6623 75.0808 21.5774 76.1657 21.5774 77.483C21.5774 78.8003 22.6623 79.8852 23.9796 79.8852C25.3744 79.8852 26.3818 78.8003 26.3818 77.483Z" fill="#3952A8"/>
<path d="M105.345 57.7229C105.268 57.7229 105.19 57.8004 105.19 57.8779C105.19 57.9554 105.268 58.0329 105.345 58.0329C105.423 58.0329 105.5 57.9554 105.5 57.8779C105.423 57.8004 105.423 57.7229 105.345 57.7229Z" fill="#3952A8"/>
<path d="M103.795 62.5273C103.64 62.5273 103.485 62.6823 103.485 62.8373C103.485 62.9923 103.64 63.1473 103.795 63.1473C103.95 63.1473 104.105 62.9923 104.105 62.8373C104.105 62.6823 103.95 62.5273 103.795 62.5273Z" fill="#3952A8"/>
<path d="M101.703 67.1768C101.471 67.1768 101.316 67.3317 101.316 67.5642C101.316 67.7967 101.471 68.0292 101.703 68.0292C101.935 68.0292 102.168 67.8742 102.168 67.5642C102.09 67.4092 101.935 67.1768 101.703 67.1768Z" fill="#3952A8"/>
<path d="M99.1458 71.5938C98.8359 71.5938 98.6034 71.8262 98.6034 72.1362C98.6034 72.4461 98.8359 72.6786 99.1458 72.6786C99.4558 72.6786 99.6883 72.4461 99.6883 72.1362C99.6883 71.8262 99.4558 71.5938 99.1458 71.5938Z" fill="#3952A8"/>
<path d="M96.1236 75.7007C95.7361 75.7007 95.4261 76.0106 95.4261 76.3981C95.4261 76.7855 95.7361 77.0955 96.1236 77.0955C96.511 77.0955 96.821 76.7855 96.821 76.3981C96.821 76.0106 96.511 75.7007 96.1236 75.7007Z" fill="#3952A8"/>
<path d="M92.714 79.4204C92.249 79.4204 91.8616 79.8079 91.8616 80.2728C91.8616 80.7378 92.249 81.1252 92.714 81.1252C93.1789 81.1252 93.5664 80.7378 93.5664 80.2728C93.5664 79.8079 93.1789 79.4204 92.714 79.4204Z" fill="#3952A8"/>
<path d="M88.8394 82.8298C88.297 82.8298 87.832 83.2948 87.832 83.8372C87.832 84.3796 88.297 84.8446 88.8394 84.8446C89.3818 84.8446 89.8468 84.3796 89.8468 83.8372C89.8468 83.2948 89.3818 82.8298 88.8394 82.8298Z" fill="#3952A8"/>
<path d="M84.655 85.7747C84.0351 85.7747 83.4927 86.3171 83.4927 86.937C83.4927 87.5569 84.0351 88.0994 84.655 88.0994C85.275 88.0994 85.8174 87.5569 85.8174 86.937C85.8174 86.3171 85.275 85.7747 84.655 85.7747Z" fill="#3952A8"/>
<path d="M80.1606 88.1768C79.4632 88.1768 78.8433 88.7192 78.8433 89.4166C78.8433 90.114 79.3857 90.7339 80.1606 90.7339C80.858 90.7339 81.4005 90.1915 81.4005 89.4166C81.4005 88.7192 80.858 88.1768 80.1606 88.1768Z" fill="#3952A8"/>
<path d="M75.2786 89.8816C74.5037 89.8816 73.8838 90.5015 73.8838 91.2764C73.8838 92.0513 74.5037 92.6713 75.2786 92.6713C76.0535 92.6713 76.6735 92.0513 76.6735 91.2764C76.6735 90.579 76.0535 89.8816 75.2786 89.8816Z" fill="#3952A8"/>
<path d="M70.2417 91.0439C69.3893 91.0439 68.6919 91.7414 68.6919 92.5938C68.6919 93.4462 69.3893 94.1436 70.2417 94.1436C71.0941 94.1436 71.7915 93.4462 71.7915 92.5938C71.7915 91.7414 71.0941 91.0439 70.2417 91.0439Z" fill="#3952A8"/>
<path d="M65.0499 91.5088C64.12 91.5088 63.3451 92.2837 63.3451 93.2136C63.3451 94.1435 64.12 94.9184 65.0499 94.9184C65.9798 94.9184 66.7547 94.1435 66.7547 93.2136C66.7547 92.2837 65.9798 91.5088 65.0499 91.5088Z" fill="#3952A8"/>
<path d="M61.7177 93.0587C61.7177 92.0514 60.8653 91.199 59.8579 91.199C58.8506 91.199 57.9982 92.0514 57.9982 93.0587C57.9982 94.0661 58.8506 94.9185 59.8579 94.9185C60.8653 94.9185 61.7177 94.0661 61.7177 93.0587Z" fill="#3952A8"/>
<path d="M56.6809 92.2838C56.6809 91.1989 55.8285 90.269 54.6661 90.269C53.5813 90.269 52.6514 91.1214 52.6514 92.2838C52.6514 93.3687 53.5038 94.2986 54.6661 94.2986C55.8285 94.2986 56.6809 93.4462 56.6809 92.2838Z" fill="#3952A8"/>
<path d="M51.8764 90.8889C51.8764 89.7265 50.9465 88.7966 49.7066 88.7966C48.5443 88.7966 47.6144 89.7265 47.6144 90.8889C47.6144 92.0513 48.5443 93.0586 49.7066 93.0586C50.869 92.9811 51.8764 92.0513 51.8764 90.8889Z" fill="#3952A8"/>
<path d="M47.2269 88.7968C47.2269 87.5569 46.2195 86.5496 44.9796 86.5496C43.7398 86.5496 42.7324 87.5569 42.7324 88.7968C42.7324 90.0366 43.7398 91.044 44.9796 91.044C46.2195 91.044 47.2269 90.0366 47.2269 88.7968Z" fill="#3952A8"/>
<path d="M93.3341 19.675C93.4116 19.675 93.489 19.5975 93.489 19.52C93.489 19.4425 93.4116 19.365 93.3341 19.365C93.2566 19.365 93.1791 19.4425 93.1791 19.52C93.1791 19.5975 93.2566 19.675 93.3341 19.675Z" fill="#3952A8"/>
<path d="M95.7361 24.4019C95.8911 24.4019 96.0461 24.2469 96.0461 24.0919C96.0461 23.937 95.8911 23.782 95.7361 23.782C95.5811 23.782 95.4261 23.937 95.4261 24.0919C95.4261 24.2469 95.5811 24.4019 95.7361 24.4019Z" fill="#3952A8"/>
<path d="M97.6734 29.3613C97.9059 29.3613 98.0609 29.2064 98.0609 28.9739C98.0609 28.7414 97.9059 28.5864 97.6734 28.5864C97.4409 28.5864 97.286 28.7414 97.286 28.9739C97.2085 29.2064 97.4409 29.3613 97.6734 29.3613Z" fill="#3952A8"/>
<path d="M99.0681 34.5531C99.3781 34.5531 99.6106 34.3207 99.6106 34.0107C99.6106 33.7007 99.3781 33.4683 99.0681 33.4683C98.7582 33.4683 98.5257 33.7007 98.5257 34.0107C98.4482 34.3207 98.7582 34.5531 99.0681 34.5531Z" fill="#3952A8"/>
<path d="M99.2231 39.1251C99.2231 39.5126 99.5331 39.8225 99.9206 39.8225C100.308 39.8225 100.618 39.5126 100.618 39.1251C100.618 38.7377 100.308 38.4277 99.9206 38.4277C99.5331 38.3502 99.2231 38.7377 99.2231 39.1251Z" fill="#3952A8"/>
<path d="M100.231 43.4646C99.7658 43.4646 99.3783 43.8521 99.3783 44.317C99.3783 44.7819 99.7658 45.1694 100.231 45.1694C100.696 45.1694 101.083 44.7819 101.083 44.317C101.083 43.8521 100.696 43.4646 100.231 43.4646Z" fill="#3952A8"/>
<path d="M99.9982 48.5015C99.4558 48.5015 98.9908 48.9664 98.9908 49.5089C98.9908 50.0513 99.4558 50.5162 99.9982 50.5162C100.541 50.5162 101.006 50.0513 101.006 49.5089C101.006 48.9664 100.541 48.5015 99.9982 48.5015Z" fill="#3952A8"/>
<path d="M99.2232 53.5383C98.6032 53.5383 98.0608 54.0808 98.0608 54.7007C98.0608 55.3206 98.6032 55.8631 99.2232 55.8631C99.8431 55.8631 100.386 55.3981 100.386 54.7007C100.386 54.0033 99.8431 53.5383 99.2232 53.5383Z" fill="#3952A8"/>
<path d="M99.0682 59.6602C99.0682 58.9628 98.5257 58.4204 97.8283 58.4204C97.1309 58.4204 96.511 58.9628 96.511 59.6602C96.511 60.3577 97.0534 60.9001 97.8283 60.9001C98.5257 60.9001 99.0682 60.3577 99.0682 59.6602Z" fill="#3952A8"/>
<path d="M95.7363 62.9922C94.9614 62.9922 94.3414 63.6121 94.3414 64.387C94.3414 65.1619 94.9614 65.7819 95.7363 65.7819C96.5112 65.7819 97.1311 65.1619 97.1311 64.387C97.1311 63.6121 96.5112 62.9922 95.7363 62.9922Z" fill="#3952A8"/>
<path d="M93.1015 67.3318C92.2491 67.3318 91.5516 68.0292 91.5516 68.8816C91.5516 69.734 92.2491 70.4314 93.1015 70.4314C93.9538 70.4314 94.6513 69.734 94.6513 68.8816C94.6513 68.0292 93.9538 67.3318 93.1015 67.3318Z" fill="#3952A8"/>
<path d="M89.8469 71.2063C88.917 71.2063 88.1421 71.9812 88.1421 72.9111C88.1421 73.841 88.917 74.6159 89.8469 74.6159C90.7768 74.6159 91.5517 73.841 91.5517 72.9111C91.5517 71.9812 90.7768 71.2063 89.8469 71.2063Z" fill="#3952A8"/>
<path d="M86.0498 74.6934C85.0425 74.6934 84.1901 75.5458 84.1901 76.5531C84.1901 77.5605 85.0425 78.4129 86.0498 78.4129C87.0572 78.4129 87.9096 77.5605 87.9096 76.5531C87.9096 75.5458 87.0572 74.6934 86.0498 74.6934Z" fill="#3952A8"/>
<path d="M81.8652 77.6382C80.7804 77.6382 79.8505 78.4906 79.8505 79.6529C79.8505 80.7378 80.7029 81.6677 81.8652 81.6677C82.9501 81.6677 83.88 80.8153 83.88 79.6529C83.88 78.5681 82.9501 77.6382 81.8652 77.6382Z" fill="#3952A8"/>
<path d="M77.3708 80.0403C76.2085 80.0403 75.2786 80.9702 75.2786 82.21C75.2786 83.3724 76.2085 84.3023 77.3708 84.3023C78.5332 84.3023 79.4631 83.3724 79.4631 82.21C79.4631 80.9702 78.5332 80.0403 77.3708 80.0403Z" fill="#3952A8"/>
<path d="M72.4889 81.8225C71.2491 81.8225 70.2417 82.8299 70.2417 84.0697C70.2417 85.3096 71.2491 86.317 72.4889 86.317C73.7288 86.317 74.7362 85.3096 74.7362 84.0697C74.7362 82.8299 73.7288 81.8225 72.4889 81.8225Z" fill="#3952A8"/>
<path d="M57.6883 0.999656C57.7658 0.999656 57.8433 0.922155 57.8433 0.844665C57.8433 0.767174 57.7658 0.689697 57.6883 0.689697C57.6108 0.689697 57.5333 0.767174 57.5333 0.844665C57.5333 0.922155 57.6108 0.999656 57.6883 0.999656Z" fill="#3952A8"/>
<path d="M62.6476 2.70439C62.8026 2.70439 62.9576 2.54941 62.9576 2.39443C62.9576 2.23945 62.8026 2.08447 62.6476 2.08447C62.4926 2.08447 62.3376 2.23945 62.3376 2.39443C62.4151 2.6269 62.4926 2.70439 62.6476 2.70439Z" fill="#3952A8"/>
<path d="M67.452 4.95152C67.6845 4.95152 67.8395 4.79654 67.8395 4.56407C67.8395 4.3316 67.6845 4.09912 67.452 4.09912C67.2195 4.09912 66.9871 4.25411 66.9871 4.56407C66.9871 4.71905 67.2195 4.95152 67.452 4.95152Z" fill="#3952A8"/>
<path d="M71.9465 7.58633C72.2564 7.58633 72.4889 7.35385 72.4889 7.04389C72.4889 6.73392 72.2564 6.50146 71.9465 6.50146C71.6365 6.50146 71.4041 6.73392 71.4041 7.04389C71.4041 7.35385 71.6365 7.58633 71.9465 7.58633Z" fill="#3952A8"/>
<path d="M76.2085 10.7635C76.596 10.7635 76.9059 10.4535 76.9059 10.0661C76.9059 9.67861 76.596 9.36865 76.2085 9.36865C75.8211 9.36865 75.5111 9.67861 75.5111 10.0661C75.5111 10.4535 75.8211 10.7635 76.2085 10.7635Z" fill="#3952A8"/>
<path d="M80.1605 14.3281C80.6255 14.3281 81.0129 13.9406 81.0129 13.4757C81.0129 13.0107 80.6255 12.6233 80.1605 12.6233C79.6956 12.6233 79.3081 13.0107 79.3081 13.4757C79.3081 13.9406 79.6181 14.3281 80.1605 14.3281Z" fill="#3952A8"/>
<path d="M83.6476 18.3575C84.1901 18.3575 84.655 17.8926 84.655 17.3502C84.655 16.8077 84.1901 16.3428 83.6476 16.3428C83.1052 16.3428 82.6403 16.8077 82.6403 17.3502C82.6403 17.8926 83.1052 18.3575 83.6476 18.3575Z" fill="#3952A8"/>
<path d="M86.7473 22.6196C87.3672 22.6196 87.9097 22.0772 87.9097 21.4573C87.9097 20.8374 87.3672 20.2949 86.7473 20.2949C86.1274 20.2949 85.585 20.8374 85.585 21.4573C85.585 22.0772 86.1274 22.6196 86.7473 22.6196Z" fill="#3952A8"/>
<path d="M89.227 27.3464C89.9244 27.3464 90.4669 26.804 90.4669 26.1066C90.4669 25.4091 89.9244 24.8667 89.227 24.8667C88.5296 24.8667 87.9097 25.4091 87.9097 26.1066C87.9872 26.804 88.5296 27.3464 89.227 27.3464Z" fill="#3952A8"/>
<path d="M89.7693 30.911C89.7693 31.6859 90.3892 32.3058 91.1641 32.3058C91.939 32.3058 92.559 31.6859 92.559 30.911C92.559 30.1361 91.939 29.5161 91.1641 29.5161C90.3892 29.5161 89.7693 30.1361 89.7693 30.911Z" fill="#3952A8"/>
<path d="M90.8544 35.948C90.8544 36.8004 91.5518 37.4978 92.4042 37.4978C93.2566 37.4978 93.954 36.8004 93.954 35.948C93.954 35.0956 93.2566 34.3982 92.4042 34.3982C91.5518 34.3982 90.8544 35.0956 90.8544 35.948Z" fill="#3952A8"/>
<path d="M91.3191 41.1398C91.3191 42.0697 92.094 42.8446 93.0239 42.8446C93.9538 42.8446 94.7287 42.0697 94.7287 41.1398C94.7287 40.21 93.9538 39.4351 93.0239 39.4351C92.094 39.4351 91.3191 40.21 91.3191 41.1398Z" fill="#3952A8"/>
<path d="M94.7288 46.3317C94.7288 45.3243 93.8764 44.4719 92.8691 44.4719C91.8617 44.4719 91.0093 45.3243 91.0093 46.3317C91.0093 47.3391 91.8617 48.1915 92.8691 48.1915C93.9539 48.1915 94.7288 47.3391 94.7288 46.3317Z" fill="#3952A8"/>
<path d="M94.109 51.4462C94.109 50.3613 93.2566 49.4314 92.0942 49.4314C91.0094 49.4314 90.0795 50.2838 90.0795 51.4462C90.0795 52.531 91.0094 53.4609 92.0942 53.4609C93.2566 53.4609 94.109 52.531 94.109 51.4462Z" fill="#3952A8"/>
<path d="M92.8691 56.483C92.8691 55.3206 91.9392 54.3132 90.7768 54.3132C89.6145 54.3132 88.6846 55.2431 88.6846 56.483C88.6846 57.6453 89.6145 58.5752 90.7768 58.5752C91.8617 58.5752 92.8691 57.6453 92.8691 56.483Z" fill="#3952A8"/>
<path d="M88.6071 58.9626C87.3672 58.9626 86.3599 59.97 86.3599 61.2099C86.3599 62.4497 87.3672 63.4571 88.6071 63.4571C89.8469 63.4571 90.8543 62.4497 90.8543 61.2099C90.9318 59.97 89.9244 58.9626 88.6071 58.9626Z" fill="#3952A8"/>
<path d="M19.3303 13.0106C19.4078 13.0106 19.4853 12.9331 19.4853 12.8557C19.4853 12.7782 19.4078 12.7007 19.3303 12.7007C19.2528 12.7007 19.1753 12.7782 19.1753 12.8557C19.1753 12.9331 19.2528 13.0106 19.3303 13.0106Z" fill="#3952A8"/>
<path d="M23.9796 10.7635C24.1346 10.7635 24.2896 10.6085 24.2896 10.4535C24.2896 10.2985 24.1346 10.1436 23.9796 10.1436C23.8247 10.1436 23.6697 10.2985 23.6697 10.4535C23.6697 10.6085 23.8247 10.7635 23.9796 10.7635Z" fill="#3952A8"/>
<path d="M28.7842 8.98131C29.0167 8.98131 29.2491 8.82633 29.2491 8.59386C29.2491 8.36138 29.0941 8.12891 28.7842 8.12891C28.5517 8.12891 28.3967 8.36138 28.3967 8.59386C28.3967 8.74884 28.5517 8.98131 28.7842 8.98131Z" fill="#3952A8"/>
<path d="M33.821 7.74136C34.1309 7.74136 34.3634 7.5089 34.3634 7.19894C34.3634 6.88898 34.1309 6.65649 33.821 6.65649C33.511 6.65649 33.2785 6.88898 33.2785 7.19894C33.201 7.43141 33.511 7.74136 33.821 7.74136Z" fill="#3952A8"/>
<path d="M38.9353 6.96636C39.3228 6.96636 39.6328 6.6564 39.6328 6.26895C39.6328 5.88149 39.3228 5.57153 38.9353 5.57153C38.5479 5.57153 38.2379 5.88149 38.2379 6.26895C38.2379 6.6564 38.5479 6.96636 38.9353 6.96636Z" fill="#3952A8"/>
<path d="M44.1273 6.8115C44.5922 6.8115 44.9797 6.42404 44.9797 5.95909C44.9797 5.49415 44.5922 5.10669 44.1273 5.10669C43.6624 5.10669 43.2749 5.49415 43.2749 5.95909C43.2749 6.42404 43.6624 6.8115 44.1273 6.8115Z" fill="#3952A8"/>
<path d="M49.3192 7.19885C49.8616 7.19885 50.3265 6.73389 50.3265 6.19145C50.3265 5.64902 49.8616 5.18408 49.3192 5.18408C48.7767 5.18408 48.3118 5.64902 48.3118 6.19145C48.3118 6.73389 48.7767 7.19885 49.3192 7.19885Z" fill="#3952A8"/>
<path d="M54.4336 8.05129C55.0535 8.05129 55.596 7.58634 55.596 6.88892C55.596 6.269 55.0535 5.72656 54.4336 5.72656C53.8137 5.72656 53.2712 6.269 53.2712 6.88892C53.3487 7.58634 53.8137 8.05129 54.4336 8.05129Z" fill="#3952A8"/>
<path d="M59.4704 9.67842C60.1679 9.67842 60.7878 9.136 60.7878 8.43859C60.7878 7.74117 60.2453 7.19873 59.4704 7.19873C58.773 7.19873 58.2306 7.74117 58.2306 8.43859C58.2306 9.05851 58.773 9.67842 59.4704 9.67842Z" fill="#3952A8"/>
<path d="M64.275 11.8485C65.0499 11.8485 65.6698 11.2286 65.6698 10.4537C65.6698 9.67875 65.0499 9.05884 64.275 9.05884C63.5001 9.05884 62.8802 9.67875 62.8802 10.4537C62.8027 11.2286 63.5001 11.8485 64.275 11.8485Z" fill="#3952A8"/>
<path d="M67.1421 13.0881C67.1421 13.9405 67.8395 14.638 68.6919 14.638C69.5443 14.638 70.2417 13.9405 70.2417 13.0881C70.2417 12.2357 69.5443 11.5383 68.6919 11.5383C67.8395 11.5383 67.1421 12.2357 67.1421 13.0881Z" fill="#3952A8"/>
<path d="M72.7989 18.0475C73.7288 18.0475 74.5037 17.2726 74.5037 16.3427C74.5037 15.4128 73.7288 14.6379 72.7989 14.6379C71.869 14.6379 71.0941 15.4128 71.0941 16.3427C71.0941 17.3501 71.869 18.0475 72.7989 18.0475Z" fill="#3952A8"/>
<path d="M76.3634 21.9996C77.3708 21.9996 78.2232 21.1472 78.2232 20.1398C78.2232 19.1324 77.3708 18.28 76.3634 18.28C75.3561 18.28 74.5037 19.1324 74.5037 20.1398C74.5037 21.1472 75.3561 21.9996 76.3634 21.9996Z" fill="#3952A8"/>
<path d="M79.4631 22.3096C78.3783 22.3096 77.4484 23.162 77.4484 24.3243C77.4484 25.4092 78.3008 26.3391 79.4631 26.3391C80.548 26.3391 81.4779 25.4867 81.4779 24.3243C81.4779 23.2395 80.548 22.3096 79.4631 22.3096Z" fill="#3952A8"/>
<path d="M79.8505 28.8188C79.8505 29.9812 80.7804 30.9111 81.9427 30.9111C83.1051 30.9111 84.035 29.9812 84.035 28.8188C84.035 27.6565 83.1051 26.7266 81.9427 26.7266C80.8578 26.7266 79.8505 27.6565 79.8505 28.8188Z" fill="#3952A8"/>
<path d="M81.6328 33.7008C81.6328 34.9407 82.6402 35.9481 83.88 35.9481C85.1199 35.9481 86.1273 34.9407 86.1273 33.7008C86.1273 32.461 85.1199 31.4536 83.88 31.4536C82.6402 31.4536 81.6328 32.461 81.6328 33.7008Z" fill="#3952A8"/>
<path d="M85.12 36.3354C83.8026 36.3354 82.7178 37.4203 82.7178 38.7376C82.7178 40.055 83.8026 41.1399 85.12 41.1399C86.4373 41.1399 87.5222 40.055 87.5222 38.7376C87.5997 37.4203 86.5148 36.3354 85.12 36.3354Z" fill="#3952A8"/>
<path d="M0.732473 48.1917C0.577492 48.1917 0.5 48.3466 0.5 48.4241C0.5 48.5791 0.654982 48.6566 0.732473 48.6566C0.887455 48.6566 0.964945 48.5016 0.964945 48.4241C0.964945 48.3466 0.887455 48.1917 0.732473 48.1917Z" fill="#3952A8"/>
<path d="M2.2823 42.9998C1.97234 42.9998 1.73987 43.2322 1.73987 43.5422C1.73987 43.8522 1.97234 44.0846 2.2823 44.0846C2.59227 44.0846 2.82474 43.8522 2.82474 43.5422C2.82474 43.2322 2.59227 42.9998 2.2823 42.9998Z" fill="#3952A8"/>
<path d="M5.14942 38.7378C5.14942 38.2729 4.76197 37.9629 4.37452 37.9629C3.90957 37.9629 3.59961 38.3503 3.59961 38.7378C3.59961 39.2027 3.98706 39.5127 4.37452 39.5127C4.76197 39.5127 5.14942 39.2027 5.14942 38.7378Z" fill="#3952A8"/>
<path d="M6.85428 35.2505C7.47421 35.2505 7.93915 34.7856 7.93915 34.1657C7.93915 33.5458 7.47421 33.0808 6.85428 33.0808C6.23435 33.0808 5.76941 33.5458 5.76941 34.1657C5.76941 34.7856 6.31185 35.2505 6.85428 35.2505Z" fill="#3952A8"/>
<path d="M9.8763 31.2988C10.6512 31.2988 11.1936 30.6788 11.1936 29.9814C11.1936 29.284 10.5737 28.6641 9.8763 28.6641C9.1014 28.6641 8.55896 29.284 8.55896 29.9814C8.55896 30.6788 9.17889 31.2988 9.8763 31.2988Z" fill="#3952A8"/>
<path d="M13.3635 27.6565C14.2159 27.6565 14.9908 26.9591 14.9908 26.0292C14.9908 25.1768 14.2934 24.4019 13.3635 24.4019C12.5111 24.4019 11.7362 25.0993 11.7362 26.0292C11.7362 26.9591 12.4336 27.6565 13.3635 27.6565Z" fill="#3952A8"/>
<path d="M17.1606 24.4019C18.1679 24.4019 19.0203 23.5495 19.0203 22.5421C19.0203 21.5348 18.1679 20.6824 17.1606 20.6824C16.1532 20.6824 15.3008 21.5348 15.3008 22.5421C15.3008 23.5495 16.1532 24.4019 17.1606 24.4019Z" fill="#3952A8"/>
<path d="M21.345 21.6122C22.5074 21.6122 23.5148 20.6823 23.5148 19.4424C23.5148 18.2801 22.5849 17.2727 21.345 17.2727C20.1827 17.2727 19.1753 18.2026 19.1753 19.4424C19.1753 20.6048 20.1827 21.6122 21.345 21.6122Z" fill="#3952A8"/>
<path d="M25.8396 19.2876C27.1569 19.2876 28.2418 18.2027 28.2418 16.8854C28.2418 15.568 27.1569 14.4832 25.8396 14.4832C24.5222 14.4832 23.4374 15.568 23.4374 16.8854C23.4374 18.2027 24.5222 19.2876 25.8396 19.2876Z" fill="#3952A8"/>
<path d="M30.7214 17.5827C32.0387 17.5827 33.1236 16.5753 33.3561 15.3355C33.8985 16.1104 34.7509 16.5753 35.7583 16.5753C36.9207 16.5753 37.8505 15.9554 38.393 14.948C39.0129 15.7229 39.9428 16.2654 40.9502 16.2654C41.8801 16.2654 42.7325 15.8779 43.3524 15.1805C43.9723 16.0329 44.9797 16.6528 46.2196 16.6528C46.917 16.6528 47.6144 16.4204 48.2343 16.0329C48.3893 16.2654 48.5443 16.4204 48.6993 16.5753C47.8469 16.6528 46.9945 17.0403 46.452 17.6602C45.7546 17.0403 44.9022 16.6528 43.9723 16.6528C42.7325 16.6528 41.6476 17.2727 40.9502 18.2026C40.3302 17.7377 39.6328 17.4277 38.7804 17.4277C37.3856 17.4277 36.1457 18.2801 35.6033 19.4425C35.0609 19.055 34.4409 18.9001 33.7435 18.9001C32.1937 18.9001 30.8764 19.9849 30.4889 21.4573C30.024 21.1473 29.4815 20.9923 28.8616 20.9923C27.1568 20.9923 25.762 22.3871 25.762 24.0919C25.297 23.8595 24.8321 23.7045 24.2897 23.7045C22.6624 23.7045 21.4225 25.0218 21.4225 26.5717C21.4225 26.8816 21.5 27.1141 21.5775 27.3466C21.19 27.1141 20.7251 26.9591 20.1826 26.9591C18.7103 26.9591 17.4705 28.199 17.4705 29.6713C17.4705 31.1436 18.7103 32.3835 20.1826 32.3835C21.655 32.3835 22.8948 31.1436 22.8948 29.6713C22.8948 29.4388 22.8948 29.2063 22.8173 28.9739C23.2823 29.2838 23.8247 29.4388 24.3671 29.4388C25.917 29.4388 27.2343 28.199 27.2343 26.6492C27.6993 26.9591 28.3192 27.1141 28.8616 27.1141C28.9391 27.1141 28.9391 27.1141 29.0166 27.1141C28.3967 27.734 27.9317 28.5089 27.8542 29.4388C27.6218 29.4388 27.4668 29.3613 27.2343 29.3613C25.3745 29.3613 23.8247 30.9111 23.8247 32.7709C23.8247 32.9259 23.8247 33.0034 23.8247 33.1584C23.6697 33.1584 23.5922 33.1584 23.4373 33.1584C21.655 33.1584 20.1826 34.6307 20.1826 36.413C20.1826 36.8004 20.2601 37.1104 20.3376 37.4204C20.2601 37.4204 20.1826 37.4204 20.1826 37.4204C18.4778 37.4204 17.1605 38.8152 17.1605 40.4425C17.1605 41.0624 17.3155 41.6049 17.6255 42.0698H17.548C15.9981 42.0698 14.6808 43.3871 14.6808 44.937C14.6808 45.7894 15.0683 46.4868 15.6107 47.0292C15.5332 47.0292 15.5332 47.0292 15.4557 47.0292C13.9834 47.0292 12.7435 48.2691 12.7435 49.7414C12.7435 51.2137 13.9834 52.4536 15.4557 52.4536C16.928 52.4536 18.1679 51.2912 18.1679 49.7414C18.1679 48.9665 17.8579 48.3466 17.393 47.8041C17.4705 47.8041 17.548 47.8041 17.548 47.8041C18.4004 47.8041 19.0978 47.4167 19.6402 46.8742V46.9517C19.6402 47.7266 19.8727 48.3466 20.2601 48.889C19.0203 49.3539 18.1679 50.5163 18.1679 51.8337C18.1679 52.7635 18.6328 53.6159 19.2528 54.2358C18.2454 54.7008 17.4705 55.7857 17.4705 56.948C17.4705 58.1104 18.0904 59.1178 19.0978 59.5827C18.1679 60.0477 17.548 60.9776 17.548 62.1399C17.548 63.4573 18.4778 64.6196 19.7952 64.9296C18.9428 65.3945 18.3229 66.2469 18.3229 67.3318C18.3229 68.8041 19.5627 70.044 21.035 70.044C21.19 70.044 21.345 70.044 21.5 69.9665C20.4926 70.2765 19.7177 71.2063 19.7177 72.3687C19.7177 73.7635 20.8801 74.9259 22.2749 74.9259C23.6697 74.9259 24.8321 73.7635 24.8321 72.3687C24.8321 70.9739 23.6697 69.8115 22.2749 69.8115C22.1199 69.8115 21.9649 69.8115 21.81 69.889C22.8948 69.579 23.7472 68.5717 23.7472 67.3318C23.7472 67.2543 23.7472 67.1768 23.7472 67.1768C24.1347 67.6418 24.6771 67.9517 25.3745 68.1067C24.9096 68.6492 24.6771 69.2691 24.6771 70.044C24.6771 71.6713 25.9945 72.9886 27.6993 72.9886H27.7767C27.4668 73.4536 27.2343 73.996 27.2343 74.6159C27.2343 76.1657 28.4742 77.4831 30.1015 77.4831C30.4114 77.4831 30.6439 77.4056 30.9539 77.3281C30.6439 77.7931 30.4889 78.258 30.4889 78.8004C30.4889 80.2728 31.7288 81.5126 33.2011 81.5126C33.821 81.5126 34.4409 81.2802 34.9059 80.8927C34.5184 81.3576 34.286 81.9001 34.286 82.52C34.286 83.9148 35.4483 85.0772 36.8432 85.0772C38.238 85.0772 39.4004 83.9148 39.4004 82.52C39.4004 81.8226 39.0904 81.2026 38.7029 80.7377C39.0129 80.7377 39.4004 80.6602 39.7103 80.5827C39.7103 81.8226 40.4077 82.8299 41.4151 83.3724C41.2601 83.3724 41.1052 83.2949 40.9502 83.2949C39.6328 83.2949 38.548 84.3798 38.548 85.6971C38.548 87.0145 39.6328 88.0993 40.9502 88.0993C42.2675 88.0993 43.3524 87.0145 43.3524 85.6971C43.3524 84.7672 42.81 83.9923 42.1125 83.6049C42.345 83.6824 42.5775 83.6823 42.8874 83.6823C43.5074 83.6823 44.0498 83.5274 44.5147 83.2174C44.6697 84.7672 45.9096 85.9296 47.4594 85.9296C48.3118 85.9296 49.0867 85.5421 49.6291 84.9997C49.8616 86.317 51.024 87.4019 52.4188 87.4019C53.5037 87.4019 54.4336 86.782 54.8985 85.9296C55.131 87.1694 56.2159 88.0993 57.5332 88.0993C58.928 88.0993 60.0904 87.0145 60.1679 85.6971C60.2454 87.0145 61.3302 88.0993 62.7251 88.0993C64.1199 88.0993 65.2823 86.937 65.2823 85.5421C65.2823 84.1473 64.1974 83.0624 62.8026 82.9849C63.035 82.7525 63.19 82.4425 63.345 82.1325C63.8874 82.7525 64.7398 83.0624 65.5922 83.0624C65.9022 83.0624 66.2122 82.9849 66.5221 82.9074C65.9022 83.3724 65.4373 84.0698 65.4373 84.9222C65.4373 86.2395 66.5221 87.3244 67.8395 87.3244C69.1568 87.3244 70.2417 86.2395 70.2417 84.9222C70.2417 83.6049 69.1568 82.52 67.8395 82.52C67.607 82.52 67.3745 82.5975 67.1421 82.5975C67.8395 82.1325 68.3819 81.4351 68.5369 80.6602C69.0793 81.1252 69.6993 81.3576 70.4742 81.3576C72.1015 81.3576 73.4963 80.0403 73.4963 78.413V78.3355C73.9612 78.6454 74.5037 78.8779 75.1236 78.8779C76.6734 78.8779 77.9908 77.6381 77.9908 76.0108C77.9908 75.7008 77.9908 75.4683 77.8358 75.1584C78.3007 75.4683 78.7657 75.6233 79.3081 75.6233C80.7804 75.6233 82.0203 74.3835 82.0203 72.9111C82.0203 72.2912 81.7878 71.6713 81.4004 71.2063C81.8653 71.5938 82.4077 71.8263 83.0277 71.8263C84.4225 71.8263 85.5849 70.6639 85.5849 69.2691C85.5849 67.8742 84.4225 66.7119 83.0277 66.7119C82.3303 66.7119 81.7103 66.9443 81.2454 67.4093C81.2454 67.0993 81.1679 66.7119 81.0904 66.4019C82.3303 66.4019 83.3376 65.7045 83.8801 64.6971C83.8801 64.8521 83.8026 65.0071 83.8026 65.1621C83.8026 66.4794 84.8874 67.5643 86.2048 67.5643C87.5221 67.5643 88.607 66.4794 88.607 65.1621C88.607 63.8447 87.5221 62.7598 86.2048 62.7598C85.2749 62.7598 84.5 63.3023 84.1125 63.9997C84.19 63.7672 84.19 63.5347 84.19 63.2248C84.19 62.6049 84.035 62.0624 83.7251 61.5975C85.2749 61.4425 86.4373 60.2026 86.4373 58.6528C86.4373 57.8004 86.0498 57.0255 85.5074 56.4831C86.8247 56.2506 87.9096 55.0883 87.9096 53.6934C87.9096 52.6086 87.2897 51.6787 86.4373 51.2137C87.6771 50.9812 88.607 49.8964 88.607 48.579C88.607 47.1842 87.5221 46.0218 86.2048 45.9444C87.5221 45.8669 88.607 44.782 88.607 43.3871C88.607 41.9923 87.4446 40.83 86.0498 40.83C84.655 40.83 83.4926 41.9923 83.4926 43.3871C83.4926 44.7045 84.5 45.7894 85.7398 45.9444C84.345 46.0218 83.2601 47.1842 83.2601 48.6565C83.2601 49.6639 83.8026 50.5163 84.655 50.9813C83.3376 51.2137 82.3302 52.3761 82.3302 53.7709C82.3302 54.5458 82.6402 55.2432 83.1826 55.7857C81.7103 56.0181 80.6255 57.258 80.6255 58.7303C80.6255 59.2728 80.7804 59.8152 81.0129 60.2026C79.3856 60.2801 78.0683 61.675 78.0683 63.3023C78.0683 63.6122 78.1457 63.9222 78.2232 64.2322C78.1457 64.2322 78.1458 64.2322 78.0683 64.2322C76.286 64.2322 74.8136 65.7045 74.8136 67.4868C74.8136 67.5643 74.8136 67.6418 74.8136 67.7193C74.6587 67.7193 74.5037 67.6418 74.2712 67.6418C72.5664 67.6418 71.1716 68.8816 70.9391 70.5864C70.6291 70.5089 70.3192 70.4314 70.0092 70.4314C68.6144 70.4314 67.3745 71.2838 66.8321 72.4462C66.1347 71.9037 65.2048 71.5938 64.2749 71.8263C63.2675 72.0587 62.4151 72.6787 62.0277 73.6085C61.3302 72.9111 60.3229 72.5237 59.3155 72.6012C58.3081 72.7562 57.4557 73.3761 56.9908 74.2285C56.4483 73.5311 55.5184 73.0661 54.5886 73.0661C53.6587 73.0661 52.8838 73.4536 52.2638 74.0735C51.8764 73.2986 51.179 72.6012 50.3266 72.3687C49.3967 72.0587 48.3893 72.2912 47.6144 72.8336C47.3819 71.9037 46.8395 71.1288 45.9096 70.6639C45.0572 70.2764 44.0498 70.2764 43.2749 70.6639C43.2749 69.8115 42.8874 68.8816 42.1125 68.3392C41.4151 67.7967 40.4852 67.5643 39.6328 67.7193C39.8653 66.8669 39.6328 65.937 39.0904 65.1621C38.4705 64.3871 37.5406 63.9222 36.6107 63.9222C36.9981 63.0698 36.9981 62.0624 36.5332 61.21C36.1457 60.4351 35.3708 59.8927 34.5959 59.6602C35.1384 59.0403 35.3708 58.1104 35.2159 57.258C35.0609 56.3281 34.4409 55.4757 33.666 55.0108C34.4409 54.3908 34.9059 53.5384 34.9059 52.4536C34.9059 51.5237 34.5184 50.6713 33.821 50.1288C34.5959 49.7414 35.2159 49.044 35.4483 48.1141C35.6808 47.1842 35.4483 46.2543 34.9834 45.5569C35.8358 45.4019 36.5332 44.8595 36.9981 44.0846C37.4631 43.2322 37.5406 42.3023 37.2306 41.4499C38.1605 41.5274 39.0904 41.1399 39.7103 40.4425C40.3302 39.7451 40.6402 38.8152 40.4852 37.8853C41.3376 38.1178 42.2675 37.9628 43.0424 37.4204C43.8173 36.8779 44.2823 36.0255 44.3598 35.1731C45.1347 35.5606 46.1421 35.6381 46.9945 35.3281C47.8469 34.9406 48.4668 34.3207 48.6993 33.5458C49.3192 34.0883 50.1716 34.3982 51.1015 34.3207C52.1088 34.2432 52.9612 33.7008 53.4262 32.8484C53.9686 33.6233 54.7435 34.0883 55.7509 34.1657C56.6808 34.2432 57.5332 33.8558 58.1531 33.3133C58.4631 34.1657 59.1605 34.7857 60.0904 35.0956C61.0203 35.4056 62.0277 35.2506 62.8026 34.7082C62.9576 35.6381 63.5 36.413 64.3524 36.8779C65.0498 37.2654 65.8247 37.3429 66.5996 37.1879C66.6771 37.3429 66.7546 37.4204 66.8321 37.4979C66.9096 38.1953 67.1421 38.8152 67.607 39.3576L67.6845 39.4351C69.3118 41.1399 72.9539 45.1694 72.2565 50.5938C72.1015 51.9111 72.8764 52.6085 73.8063 51.6012C79.6956 45.2469 78.7657 37.4979 78.6107 36.568C78.6107 35.948 78.4557 35.4056 78.2232 34.8632C78.3007 34.5532 78.3007 34.1657 78.3007 33.8558C78.3007 32.2285 77.5258 30.7561 76.286 29.8263C76.3635 29.5163 76.3635 29.2063 76.3635 28.8964C76.3635 26.8816 75.1236 25.1768 73.3413 24.4019C73.2638 22.1547 71.6365 20.2949 69.4668 19.9074C69.0793 17.8927 67.297 16.3429 65.1273 16.3429C65.0498 16.3429 64.9723 16.3429 64.8948 16.3429C64.3524 14.7156 62.8026 13.4757 60.9428 13.4757C60.5553 13.4757 60.2454 13.5532 59.9354 13.6307C59.3155 12.2359 57.9207 11.306 56.3708 11.306C55.7509 11.306 55.131 11.4609 54.666 11.6934C54.0461 10.6085 52.8063 9.83364 51.4889 9.83364C50.6365 9.83364 49.7841 10.1436 49.1642 10.6086C48.5443 9.75615 47.5369 9.13623 46.3745 9.13623C45.2897 9.13623 44.2823 9.67865 43.6624 10.4536C43.0424 9.75614 42.19 9.2912 41.1826 9.2912C39.8653 9.2912 38.7804 10.0661 38.238 11.151C37.6956 10.5311 36.9207 10.1436 35.9908 10.1436C34.4409 10.1436 33.2011 11.306 33.0461 12.7783C32.5812 12.1584 31.8063 11.6934 30.9539 11.6934C29.4815 11.6934 28.3192 12.8558 28.3192 14.3281C28.0092 16.4203 29.2491 17.5827 30.7214 17.5827Z" fill="#3952A8"/>
<path d="M12.7436 86.627C12.6661 86.627 12.5111 86.7044 12.5111 86.8594C12.5111 86.9369 12.5886 87.0919 12.7436 87.0919C12.8986 87.0919 12.9761 87.0144 12.9761 86.8594C12.8986 86.7044 12.8211 86.627 12.7436 86.627Z" fill="#3952A8"/>
<path d="M10.3413 81.8225C10.1088 81.8225 9.95386 81.9775 9.95386 82.21C9.95386 82.4424 10.1088 82.5974 10.3413 82.5974C10.5738 82.5974 10.7288 82.4424 10.7288 82.21C10.7288 81.9775 10.4963 81.8225 10.3413 81.8225Z" fill="#3952A8"/>
<path d="M8.40398 76.7856C8.09402 76.7856 7.78406 77.0956 7.78406 77.4056C7.78406 77.7155 8.09402 78.0255 8.40398 78.0255C8.71395 78.0255 9.02391 77.7155 9.02391 77.4056C9.02391 77.0956 8.71395 76.7856 8.40398 76.7856Z" fill="#3952A8"/>
<path d="M7.00926 71.5938C6.54432 71.5938 6.15686 71.9812 6.15686 72.4461C6.15686 72.9111 6.54432 73.2985 7.00926 73.2985C7.47421 73.2985 7.86166 72.9111 7.86166 72.4461C7.78417 71.9037 7.39671 71.5938 7.00926 71.5938Z" fill="#3952A8"/>
<path d="M7.16418 67.2545C7.16418 66.712 6.69923 66.2471 6.15679 66.2471C5.61436 66.2471 5.14941 66.712 5.14941 67.2545C5.14941 67.7969 5.61436 68.2618 6.15679 68.2618C6.69923 68.2618 7.16418 67.7969 7.16418 67.2545Z" fill="#3952A8"/>
<path d="M7.00925 62.0624C7.00925 61.3649 6.46681 60.8225 5.76939 60.8225C5.07198 60.8225 4.52954 61.3649 4.52954 62.0624C4.52954 62.7598 5.07198 63.3022 5.76939 63.3022C6.46681 63.3022 7.00925 62.7598 7.00925 62.0624Z" fill="#3952A8"/>
<path d="M4.52954 56.8705C4.52954 57.6454 5.14947 58.3429 6.00187 58.3429C6.77677 58.3429 7.47419 57.7229 7.47419 56.8705C7.47419 56.0956 6.85427 55.3982 6.00187 55.3982C5.22696 55.3982 4.52954 56.0956 4.52954 56.8705Z" fill="#3952A8"/>
<path d="M6.77672 53.3835C7.70661 53.3835 8.40403 52.6086 8.40403 51.7562C8.40403 50.8263 7.62912 50.1289 6.77672 50.1289C5.84683 50.1289 5.14941 50.9038 5.14941 51.7562C5.14941 52.6086 5.84683 53.3835 6.77672 53.3835Z" fill="#3952A8"/>
<path d="M8.24918 44.8594C7.2418 44.8594 6.3894 45.7118 6.3894 46.7191C6.3894 47.7265 7.2418 48.5789 8.24918 48.5789C9.25656 48.5789 10.109 47.7265 10.109 46.7191C10.109 45.7118 9.25656 44.8594 8.24918 44.8594Z" fill="#3952A8"/>
<path d="M10.2638 44.007C11.4261 44.007 12.356 43.0771 12.356 41.9147C12.356 40.7524 11.4261 39.8225 10.2638 39.8225C9.1014 39.8225 8.17151 40.7524 8.17151 41.9147C8.249 43.0771 9.17889 44.007 10.2638 44.007Z" fill="#3952A8"/>
<path d="M12.976 39.7452C14.2158 39.7452 15.2232 38.7378 15.2232 37.498C15.2232 36.2581 14.2158 35.2507 12.976 35.2507C11.7361 35.2507 10.7288 36.2581 10.7288 37.498C10.7288 38.7378 11.7361 39.7452 12.976 39.7452Z" fill="#3952A8"/>
<path d="M18.7104 33.3908C18.7104 31.996 17.6255 30.9111 16.2307 30.9111C14.8358 30.9111 13.751 31.996 13.751 33.3908C13.751 34.7857 14.8358 35.8705 16.2307 35.8705C17.548 35.8705 18.7104 34.7857 18.7104 33.3908Z" fill="#3952A8"/>
</svg>
