<svg width="38" height="38" viewBox="0 0 38 38" fill="none" xmlns="http://www.w3.org/2000/svg">
<circle cx="19" cy="19" r="16" transform="rotate(-8 19 19)" fill="#5326EC"/>
<path d="M32.1281 19.3311C32.101 19.6964 32.0905 20.0642 32.0441 20.4268C31.5522 24.2776 29.7348 27.3595 26.5573 29.6113C24.1836 31.294 21.5091 32.0752 18.5999 31.9673C15.2357 31.8433 12.3399 30.5891 9.91677 28.265C9.89448 28.2436 9.89536 28.1583 9.91729 28.1355C12.9632 25.1189 16.012 22.1053 19.0636 19.0948C19.1357 19.0295 19.2288 18.9919 19.3262 18.9888C23.5943 18.9947 27.8623 19.0044 32.1303 19.0179L32.1281 19.3311Z" fill="#FCFCFF"/>
<path d="M19.4379 5.97673C19.7966 6.00481 20.1561 6.02156 20.5135 6.06095C22.6064 6.29235 24.5319 6.98541 26.2902 8.14014C26.3021 8.14911 26.3135 8.15874 26.3244 8.16897L25.2055 9.27296C24.962 9.51325 24.72 9.75517 24.4736 9.9924C24.4581 10.0023 24.4403 10.0084 24.4219 10.0099C24.4035 10.0115 24.385 10.0085 24.368 10.0013C22.5973 8.98032 20.6887 8.50787 18.6424 8.58394C14.0641 8.75553 10.0605 11.972 8.94514 16.3941C8.25476 19.134 8.62228 21.7396 10.0115 24.2016C10.0247 24.225 10.0252 24.2766 10.0091 24.2914C9.39937 24.8988 8.78751 25.5046 8.17355 26.1088C8.16757 26.1147 8.16015 26.1195 8.14621 26.1306C8.08899 26.0417 8.03139 25.9557 7.97723 25.8679C6.47818 23.4363 5.82271 20.796 6.04964 17.9485C6.52263 12.0292 10.9693 7.19041 16.8646 6.17587C17.4606 6.07341 18.0699 6.0486 18.6729 5.98784L18.796 5.97505L19.4379 5.97673Z" fill="#FCFCFF"/>
<path d="M26.0223 13.8388C26.0255 13.2982 26.2168 12.775 26.5638 12.3585C26.9107 11.942 27.3917 11.6578 27.925 11.5544C28.4583 11.4509 29.0109 11.5345 29.4887 11.7911C29.9666 12.0476 30.3401 12.4611 30.5458 12.9613C30.7514 13.4614 30.7765 14.0173 30.6167 14.5343C30.4569 15.0513 30.1222 15.4974 29.6694 15.7968C29.2167 16.0961 28.6739 16.2302 28.1335 16.1761C27.5931 16.1221 27.0885 15.8833 26.7055 15.5004C26.4874 15.2819 26.3148 15.0227 26.1975 14.7376C26.0803 14.4525 26.0207 14.1471 26.0223 13.8388Z" fill="#FCFCFF"/>
</svg>
