<svg width="94" height="20" viewBox="0 0 94 20" fill="none" xmlns="http://www.w3.org/2000/svg">
<path d="M10.5569 0.400391C10.594 0.408265 10.6316 0.414139 10.6694 0.417987C13.0639 0.537962 15.1288 1.43818 16.8733 3.08304C16.9132 3.12303 16.9563 3.16302 16.9886 3.19302L15.6453 4.53914C15.5898 4.48755 15.5199 4.42396 15.4509 4.35918C14.6392 3.60548 13.6747 3.03623 12.6233 2.69032C12.1683 2.54224 11.7008 2.43609 11.2265 2.37318C10.7295 2.3111 10.2278 2.29571 9.72794 2.32719C9.18705 2.35831 8.65147 2.45116 8.13158 2.60394C7.68709 2.73022 7.25506 2.89702 6.84092 3.10223C6.27247 3.37889 5.74274 3.72914 5.26531 4.14402C5.08093 4.30399 4.89894 4.47195 4.72654 4.64672C4.38275 4.99805 4.07522 5.38326 3.80863 5.79648C3.55241 6.18959 3.33292 6.60553 3.15292 7.03902C2.92236 7.58616 2.75887 8.15929 2.66603 8.74587C2.62607 8.99454 2.59863 9.24508 2.58382 9.49652C2.56427 9.79631 2.56027 10.0969 2.57185 10.3971C2.5967 10.9166 2.6763 11.4321 2.8093 11.9348C3.21133 13.4806 4.08378 14.8626 5.30548 15.8888C6.52717 16.915 8.03746 17.5345 9.62657 17.6612C9.99569 17.6881 10.3662 17.6908 10.7356 17.6692C11.3341 17.6339 11.9259 17.5254 12.498 17.3461C12.891 17.2253 13.2734 17.0725 13.6414 16.889C14.8557 16.2847 15.8894 15.3701 16.6382 14.2375C17.0585 13.6035 17.3814 12.9097 17.596 12.1796C17.6156 12.1132 17.6359 12.0464 17.6579 11.9628C17.404 11.96 17.1662 11.9628 16.9283 11.9628H8.31476L10.2667 10.0068H19.809V10.1416C19.7563 12.4791 18.9769 14.5407 17.4472 16.3071C16.0819 17.882 14.367 18.8898 12.3388 19.3609C11.8064 19.4805 11.2649 19.5548 10.7201 19.5832C10.2641 19.6099 9.80679 19.6002 9.3524 19.554C7.26116 19.3465 5.41976 18.5543 3.85253 17.1481C2.3288 15.7824 1.34903 14.0888 0.892074 12.0928C0.761238 11.5246 0.68691 10.9448 0.670179 10.3619C0.597146 7.81886 1.38375 5.57612 3.05315 3.66092C4.40128 2.11324 6.09302 1.12024 8.08848 0.648739C8.57699 0.536068 9.07348 0.46146 9.57349 0.425585C9.64653 0.419987 9.72036 0.422386 9.79379 0.417987C9.83131 0.413988 9.86842 0.407989 9.90554 0.400391H10.5569Z" fill="#FCFCFF"/>
<path d="M69.502 19.5962H67.594V11.9678H61.8423V19.5786C61.7668 19.6006 60.0675 19.607 59.937 19.5874V8.12658H61.8375V9.983C61.9173 10.0046 67.4068 10.0126 67.5924 9.9922V4.30337C67.6187 4.2983 67.6454 4.29483 67.6722 4.29297H69.4537C69.4697 4.29297 69.4853 4.29577 69.5012 4.29737L69.502 19.5962Z" fill="#FCFCFF"/>
<path d="M50.3375 11.9587H42.7177L40.7693 10.0055H48.1385C47.8729 9.24734 47.4505 8.55395 46.8989 7.9707C46.0154 7.03849 44.939 6.45501 43.6747 6.24026C42.4229 6.02627 41.1356 6.233 40.0132 6.82825C38.8908 7.4235 37.9963 8.37388 37.4689 9.53146C36.9415 10.689 36.8107 11.9889 37.0971 13.2286C37.3834 14.4684 38.0707 15.5785 39.052 16.3862C40.1914 17.3196 41.5068 17.7591 42.9755 17.6919C44.4441 17.6247 45.6989 17.0556 46.7501 16.0454L48.0731 17.3716C46.185 19.3604 42.5991 20.4457 39.2811 18.7785C35.5125 16.8789 33.9943 12.2778 35.8888 8.50059C36.6699 6.94512 37.9569 5.70303 39.5374 4.97937C41.1179 4.25571 42.8975 4.09374 44.5822 4.52021C48.453 5.50961 50.4073 9.00369 50.3375 11.9587Z" fill="#FCFCFF"/>
<path d="M27.4978 15.7214L34.0792 4.29852H36.2599C36.262 4.3013 36.2638 4.30424 36.2655 4.30732C36.2655 4.31012 36.2682 4.31412 36.2655 4.31652C36.2611 4.32847 36.2559 4.34009 36.2499 4.35131L27.4699 19.5922H25.5698V4.31532C25.5718 4.3118 25.5742 4.30857 25.577 4.30572C25.5792 4.30356 25.582 4.30204 25.585 4.30132C25.5973 4.29796 25.6098 4.29582 25.6225 4.29492H27.4232C27.4393 4.29648 27.4553 4.29902 27.4711 4.30252V15.7174L27.4978 15.7214Z" fill="#FCFCFF"/>
<path d="M54.1791 19.5909H52.2686V6.15849C52.1385 6.15129 52.0152 6.15609 51.8923 6.15529C51.7693 6.15449 51.6368 6.15529 51.5091 6.15529H50.0058L48.9238 4.29688H61.832V6.15409H54.1791V19.5909Z" fill="#FCFCFF"/>
<path d="M23.6388 19.591H21.7407V8.125H23.6296L23.6344 8.1298C23.6344 8.1322 23.64 8.1346 23.64 8.137C23.6416 11.9373 23.6429 15.7377 23.644 19.5382C23.6436 19.5534 23.6408 19.569 23.6388 19.591Z" fill="#FCFCFF"/>
<path d="M22.6907 4.29297C22.9417 4.29487 23.1816 4.39636 23.3581 4.5752C23.5345 4.75403 23.6331 4.99565 23.6321 5.24715C23.6312 5.49864 23.5308 5.7395 23.353 5.917C23.1752 6.09449 22.9345 6.19415 22.6835 6.19415C22.4325 6.19415 22.1918 6.09449 22.014 5.917C21.8362 5.7395 21.7358 5.49864 21.7349 5.24715C21.7339 4.99565 21.8325 4.75403 22.0089 4.5752C22.1854 4.39636 22.4254 4.29487 22.6763 4.29297H22.6907Z" fill="#FCFCFF"/>
<path d="M76.7238 19.591H74.8257V8.125H76.7146L76.7194 8.1298C76.7214 8.1322 76.725 8.1346 76.725 8.137C76.7266 11.9378 76.7279 15.7382 76.7289 19.5382C76.7285 19.5534 76.7258 19.569 76.7238 19.591Z" fill="#A3B0F6"/>
<path d="M75.7782 4.29297C76.0293 4.29493 76.2693 4.39649 76.4458 4.57542C76.6223 4.75435 76.7208 4.99606 76.7198 5.24764C76.7189 5.49922 76.6185 5.74016 76.4406 5.91771C76.2627 6.09526 76.0219 6.19495 75.7708 6.19495C75.5198 6.19495 75.2789 6.09526 75.1011 5.91771C74.9232 5.74016 74.8228 5.49922 74.8218 5.24764C74.8208 4.99606 74.9194 4.75435 75.0958 4.57542C75.2723 4.39649 75.5124 4.29493 75.7634 4.29297H75.7782Z" fill="#A3B0F6"/>
<path d="M72.0964 17.6816C72.3474 17.6835 72.5874 17.785 72.7638 17.9639C72.9403 18.1427 73.0388 18.3843 73.0379 18.6358C73.0369 18.8873 72.9366 19.1282 72.7588 19.3057C72.581 19.4832 72.3402 19.5828 72.0893 19.5828C71.8383 19.5828 71.5975 19.4832 71.4197 19.3057C71.2419 19.1282 71.1416 18.8873 71.1406 18.6358C71.1397 18.3843 71.2382 18.1427 71.4147 17.9639C71.5911 17.785 71.8311 17.6835 72.0821 17.6816H72.0964Z" fill="#A3B0F6"/>
<path d="M86.361 4.28516C82.1454 4.28516 78.728 7.70965 78.728 11.934C78.728 16.1583 82.1454 19.5828 86.361 19.5828C90.5766 19.5828 93.9936 16.1583 93.9936 11.934C93.9936 7.70965 90.5766 4.28516 86.361 4.28516ZM86.361 17.6824C85.2281 17.6825 84.1205 17.3459 83.1784 16.7152C82.2363 16.0845 81.502 15.1881 81.0683 14.1392C80.6347 13.0903 80.5211 11.9362 80.7421 10.8226C80.963 9.70908 81.5085 8.6862 82.3095 7.88331C83.1106 7.08043 84.1312 6.53361 85.2424 6.31199C86.3536 6.09037 87.5054 6.20391 88.5522 6.63826C89.599 7.0726 90.4938 7.80824 91.1233 8.75215C91.7529 9.69606 92.089 10.8058 92.0892 11.9412C92.0893 12.6951 91.9413 13.4416 91.6535 14.1382C91.3657 14.8347 90.9438 15.4676 90.4119 16.0008C89.88 16.5339 89.2484 16.9568 88.5534 17.2453C87.8583 17.5339 87.1134 17.6824 86.361 17.6824Z" fill="#A3B0F6"/>
</svg>
