<svg width="33" height="32" viewBox="0 0 33 32" fill="none" xmlns="http://www.w3.org/2000/svg">
<path d="M32.9045 16.3945C32.8732 16.8442 32.8622 17.2968 32.8073 17.7432C32.2253 22.4837 30.0208 26.2822 26.1511 29.0637C23.2603 31.1421 19.9977 32.1121 16.444 31.9887C12.3346 31.847 8.79181 30.313 5.82104 27.4607C5.7937 27.4344 5.79436 27.3294 5.82104 27.3013C9.52634 23.5791 13.2351 19.8606 16.9473 16.1459C17.0351 16.0653 17.1487 16.0188 17.2676 16.0146C22.4804 16.0081 27.693 16.0063 32.9056 16.0091L32.9045 16.3945Z" fill="#FCFCFF"/>
<path d="M17.3372 0C17.7754 0.0333867 18.2145 0.0528439 18.6513 0.10016C21.2085 0.378162 23.5636 1.22484 25.7166 2.6402C25.7312 2.65121 25.7452 2.66302 25.7585 2.67558L24.3975 4.0378C24.1012 4.3343 23.8069 4.63279 23.5071 4.92553C23.4881 4.93783 23.4665 4.94528 23.444 4.94725C23.4215 4.94922 23.3989 4.94563 23.3781 4.93681C21.2105 3.6861 18.8773 3.11086 16.3784 3.21109C10.7876 3.43706 5.91372 7.40831 4.57317 12.8539C3.7434 16.2279 4.20502 19.4333 5.91372 22.4586C5.93003 22.4874 5.93091 22.5508 5.91129 22.5692C5.16956 23.3186 4.42525 24.0661 3.67837 24.8116C3.67109 24.8189 3.66205 24.8249 3.64508 24.8386C3.57475 24.7294 3.50399 24.6237 3.43742 24.5158C1.59468 21.5282 0.781226 18.2811 1.04444 14.7762C1.59314 7.49012 7.00031 1.52097 14.1953 0.253385C14.9228 0.125366 15.6668 0.0928637 16.4029 0.0161406L16.5532 0H17.3372Z" fill="#FCFCFF"/>
<path d="M25.4233 9.65926C25.4246 8.99387 25.6558 8.34948 26.0774 7.83578C26.4991 7.32207 27.0852 6.9708 27.736 6.84175C28.3869 6.7127 29.0622 6.81385 29.647 7.12798C30.2318 7.44211 30.6901 7.94981 30.9437 8.56465C31.1973 9.1795 31.2307 9.8635 31.038 10.5002C30.8454 11.137 30.4388 11.6871 29.8873 12.0569C29.3358 12.4268 28.6736 12.5935 28.0133 12.5288C27.353 12.464 26.7355 12.1718 26.2659 11.7018C25.9984 11.4336 25.7864 11.1152 25.6418 10.7647C25.4972 10.4142 25.423 10.0386 25.4233 9.65926Z" fill="#FCFCFF"/>
</svg>
