<svg width="24" height="24" viewBox="0 0 24 24" fill="none" xmlns="http://www.w3.org/2000/svg">
    <rect width="24" height="24" rx="12" fill="#F5F5F5"/>
    <path fill-rule="evenodd" clip-rule="evenodd" d="M16.98 7.56905L15.2724 8.43905L7.02665 12.6391C6.99877 12.4264 6.98474 12.2121 6.98465 11.9977C6.98578 11.1419 7.21046 10.3012 7.63644 9.55899C8.06243 8.81676 8.67494 8.19869 9.41327 7.76601C10.1516 7.33333 10.9902 7.10105 11.8459 7.09219C12.7017 7.08332 13.5449 7.29817 14.292 7.71545L15.2694 7.21745L15.4152 7.14305C14.5199 6.49318 13.4623 6.10353 12.3593 6.01715C11.2563 5.93077 10.151 6.15103 9.16535 6.65358C8.17973 7.15614 7.35227 7.92142 6.77439 8.86485C6.19651 9.80826 5.89073 10.8931 5.89085 11.9995C5.89085 12.1523 5.89665 12.3044 5.90825 12.4561C5.92449 12.6707 5.87688 12.8854 5.7714 13.0731C5.66592 13.2608 5.50728 13.4131 5.31545 13.5109L4.80005 13.7737V14.9995L6.31745 14.2261L6.80885 13.9753L7.29305 13.7287L15.9858 9.29946L16.9626 8.80205L18.9816 7.77305V6.54785L16.98 7.56905ZM18.9816 9L7.78685 14.7L6.81005 15.1986L4.80005 16.2228V17.4474L6.79625 16.4304L8.50385 15.5604L16.758 11.3544C16.7859 11.5685 16.8 11.7841 16.8 12C16.7995 12.8568 16.5749 13.6985 16.1485 14.4416C15.7221 15.1848 15.1088 15.8035 14.3693 16.2363C13.6299 16.6691 12.7902 16.901 11.9334 16.9089C11.0767 16.9169 10.2328 16.7006 9.48545 16.2816L9.42545 16.3134L8.36585 16.8534C9.26102 17.5033 10.3184 17.8931 11.4212 17.9797C12.524 18.0662 13.6293 17.8463 14.6149 17.3441C15.6005 16.8419 16.4281 16.0769 17.0062 15.1338C17.5843 14.1908 17.8905 13.1062 17.8908 12C17.8908 11.8458 17.8848 11.6916 17.8734 11.5392C17.8572 11.3246 17.9048 11.11 18.0102 10.9223C18.1155 10.7346 18.274 10.5823 18.4656 10.4844L18.9816 10.2216V9Z" fill="#5326EC"/>
</svg>