<svg width="121" height="29" viewBox="0 0 121 29" fill="none" xmlns="http://www.w3.org/2000/svg">
<g clip-path="url(#clip0_23644_31184)">
<path fill-rule="evenodd" clip-rule="evenodd" d="M45.2227 15.9877V10.4507H47.9214V16.2078C47.9214 16.781 48.0977 17.2405 48.4507 17.5871C48.8039 17.9335 49.2538 18.107 49.8002 18.107C50.333 18.107 50.7729 17.9301 51.1195 17.577C51.4659 17.224 51.6392 16.7674 51.6392 16.2078V10.4507H54.3377V15.9877C54.3377 17.347 53.9078 18.4533 53.0484 19.3059C52.1888 20.1591 51.1062 20.5853 49.8002 20.5853C48.4674 20.5853 47.3718 20.1623 46.5122 19.3158C45.6524 18.4697 45.2227 17.3605 45.2227 15.9877Z" fill="black"/>
<path fill-rule="evenodd" clip-rule="evenodd" d="M63.2706 15.4086C63.2706 14.5959 63.0311 13.9363 62.5511 13.4293C62.0717 12.9236 61.4583 12.6702 60.7124 12.6702C59.9928 12.6702 59.3961 12.9101 58.9233 13.3897C58.45 13.8695 58.2137 14.5357 58.2137 15.3886C58.2137 16.2416 58.45 16.9112 58.9233 17.3971C59.3961 17.8841 59.9928 18.127 60.7124 18.127C61.445 18.127 62.0548 17.874 62.5413 17.3673C63.0277 16.8609 63.2706 16.2082 63.2706 15.4086ZM64.6398 11.7007C65.5526 12.68 66.0092 13.9093 66.0092 15.3886C66.0092 16.8677 65.5526 18.1037 64.6398 19.0965C63.7273 20.0892 62.5845 20.5857 61.2119 20.5857C59.9725 20.5857 58.9863 20.186 58.2535 19.3863V23.9436H55.5552V10.451H58.0337V11.6908C58.7134 10.7179 59.7727 10.2314 61.2119 10.2314C62.5845 10.2314 63.7273 10.7209 64.6398 11.7007Z" fill="black"/>
<path fill-rule="evenodd" clip-rule="evenodd" d="M69.7058 14.4089H74.2035C74.19 13.8093 73.9799 13.3263 73.5735 12.9598C73.1668 12.5935 72.6638 12.4104 72.0645 12.4104C71.4915 12.4104 70.9915 12.5901 70.5652 12.95C70.1386 13.3094 69.8522 13.7963 69.7058 14.4089ZM76.6416 16.3078H69.7058C69.8656 16.9346 70.1883 17.4176 70.6751 17.7571C71.1612 18.0973 71.7646 18.2671 72.4843 18.2671C73.4566 18.2671 74.3762 17.9339 75.2426 17.2673L76.3618 19.1066C75.176 20.0928 73.8565 20.5857 72.404 20.5857C70.8848 20.6121 69.5957 20.1158 68.5363 19.0966C67.4768 18.0768 66.9604 16.8476 66.9874 15.4086C66.9604 13.9826 67.4599 12.7567 68.4864 11.7307C69.5122 10.7044 70.7381 10.2049 72.1645 10.2315C73.5238 10.2315 74.6396 10.671 75.5123 11.5508C76.3852 12.4303 76.8217 13.5229 76.8217 14.8292C76.8217 15.3084 76.7616 15.8021 76.6416 16.3078Z" fill="black"/>
<path fill-rule="evenodd" clip-rule="evenodd" d="M84.0741 10.4511V12.83H83.3544C82.528 12.83 81.8783 13.05 81.4058 13.4898C80.9322 13.9293 80.6961 14.5692 80.6961 15.4086V20.3458H77.9976V10.4511H80.4763V11.6305C81.1689 10.7647 82.0754 10.3315 83.1946 10.3315C83.5279 10.3315 83.8211 10.3714 84.0741 10.4511Z" fill="black"/>
<path fill-rule="evenodd" clip-rule="evenodd" d="M91.7263 20.3454H94.4248V5.11377H91.7263V20.3454ZM90.4376 5.11377V7.53256H89.7877C89.1614 7.53256 88.7047 7.65252 88.4185 7.89242C88.1319 8.13193 87.9888 8.5252 87.9888 9.07163V10.4507H90.4376V12.7296H87.9888V20.3454H85.29V8.83192C85.29 7.60602 85.6233 6.68001 86.2899 6.05327C86.9557 5.42734 87.8952 5.11377 89.108 5.11377H90.4376Z" fill="black"/>
<path fill-rule="evenodd" clip-rule="evenodd" d="M95.7393 15.9877V10.4507H98.438V16.2078C98.438 16.781 98.6143 17.2405 98.9675 17.5871C99.3206 17.9335 99.7704 18.107 100.317 18.107C100.85 18.107 101.29 17.9301 101.636 17.577C101.982 17.224 102.156 16.7674 102.156 16.2078V10.4507H104.854V15.9877C104.854 17.347 104.425 18.4533 103.565 19.3059C102.705 20.1591 101.622 20.5853 100.317 20.5853C98.984 20.5853 97.8882 20.1623 97.029 19.3158C96.169 18.4697 95.7393 17.3605 95.7393 15.9877Z" fill="black"/>
<path fill-rule="evenodd" clip-rule="evenodd" d="M106.169 20.3454H108.868V10.4507H106.169V20.3454Z" fill="black"/>
<path fill-rule="evenodd" clip-rule="evenodd" d="M117.391 17.4068C117.863 16.9272 118.1 16.2612 118.1 15.4082C118.1 14.5553 117.86 13.8857 117.381 13.3992C116.901 12.9128 116.308 12.6698 115.602 12.6698C114.868 12.6698 114.259 12.9232 113.772 13.429C113.286 13.936 113.043 14.5887 113.043 15.3883C113.043 16.2014 113.283 16.8606 113.763 17.3669C114.242 17.8737 114.855 18.1267 115.602 18.1267C116.321 18.1267 116.917 17.8868 117.391 17.4068ZM118.06 5.11377H120.759V20.3454H118.28V19.126C117.601 20.0989 116.541 20.5853 115.102 20.5853C113.716 20.5853 112.57 20.0955 111.664 19.1161C110.757 18.1368 110.305 16.9008 110.305 15.4082C110.305 13.9159 110.757 12.6797 111.664 11.7003C112.57 10.7206 113.716 10.2311 115.102 10.2311C116.354 10.2311 117.34 10.6244 118.06 11.4105V5.11377Z" fill="black"/>
<path fill-rule="evenodd" clip-rule="evenodd" d="M41.0018 12.7694L39.5025 12.1101C38.9161 11.8438 38.5131 11.6071 38.2934 11.4C38.0736 11.194 37.9635 10.9241 37.9635 10.591C37.9635 10.5415 37.9729 10.4976 37.9778 10.4507H35.2345C35.2315 10.5175 35.2251 10.5825 35.2251 10.6507C35.2251 12.2367 36.291 13.5027 38.4234 14.4488L39.8423 15.0882C40.5087 15.3951 40.9549 15.6515 41.1817 15.8578C41.4083 16.0643 41.5216 16.3548 41.5216 16.7271C41.5216 17.1808 41.3548 17.5368 41.0219 17.7968C40.6886 18.0567 40.2287 18.1865 39.6426 18.1865C38.4163 18.1865 37.3369 17.5467 36.4043 16.2676L34.5454 17.6666C35.0651 18.5733 35.7679 19.2858 36.6543 19.8056C37.5402 20.3255 38.5365 20.5853 39.6426 20.5853C40.9883 20.5853 42.0944 20.2223 42.9607 19.4959C43.8267 18.7695 44.26 17.8135 44.26 16.6275C44.26 15.7478 44 15.0119 43.4805 14.4188C42.9607 13.8259 42.1343 13.2762 41.0018 12.7694Z" fill="black"/>
<path fill-rule="evenodd" clip-rule="evenodd" d="M44.26 6.5249H40.334V8.48803H42.2971V10.451H44.26V6.5249Z" fill="black"/>
<path fill-rule="evenodd" clip-rule="evenodd" d="M108.868 10.451H111.842V7.47607H108.868V10.451Z" fill="black"/>
<path fill-rule="evenodd" clip-rule="evenodd" d="M22.2421 17.0314H16.997V11.7863H11.7516V6.54093H22.2421V17.0314ZM6.50647 22.2766H11.7516V17.0314H6.50647V22.2766ZM0 3.1766V25.6413C0 27.3764 1.40664 28.7832 3.14193 28.7832H25.6066C27.3419 28.7832 28.7486 27.3764 28.7486 25.6413V3.1766C28.7486 1.4413 27.3419 0.034668 25.6066 0.034668H3.14193C1.40664 0.034668 0 1.4413 0 3.1766Z" fill="black"/>
</g>
<defs>
<clipPath id="clip0_23644_31184">
<rect width="121" height="28.982" fill="white"/>
</clipPath>
</defs>
</svg>
