<svg width="76" height="45" viewBox="0 0 76 45" fill="none" xmlns="http://www.w3.org/2000/svg">
<path fill-rule="evenodd" clip-rule="evenodd" d="M67.8693 22.4098L67.5239 23.6621C66.8035 26.4935 65.3635 29.0897 63.3441 31.1978C61.3248 33.3059 58.7948 34.8542 56.0007 35.6917C53.2067 36.5292 50.2437 36.6273 47.4005 35.9767C44.5573 35.3261 41.9308 33.9488 39.7767 31.979C37.3302 29.7489 35.566 26.8687 34.6893 23.6734L34.3688 22.4732H34.3904L33.9649 20.4269C33.1691 16.5158 31.4521 12.8518 28.9568 9.74016C28.6676 9.3781 28.3431 9.00957 28.0482 8.6716L27.674 8.24051L27.6315 8.19151L26.7164 7.2723L26.476 7.0813C26.2645 6.90709 26.0337 6.71195 25.7893 6.50723C25.1996 6.0095 24.5337 5.44602 23.8662 4.98201C19.3445 1.79319 13.8905 0.206138 8.36723 0.472079C2.84401 0.738019 -2.43297 2.84175 -6.62862 6.4503C-10.6917 9.91337 -13.5237 14.6037 -14.6993 19.8168C-14.7321 19.9597 -14.7658 20.1203 -14.7938 20.2519C-14.805 20.3081 -14.8155 20.3563 -14.8235 20.3948L-15.2642 22.4443H-15.184L-15.519 23.6581C-16.2392 26.4896 -17.679 29.086 -19.6984 31.1943C-21.7178 33.3026 -24.2477 34.8508 -27.0419 35.6883C-29.8361 36.5258 -32.7991 36.6241 -35.6424 35.9733C-38.4856 35.3226 -41.1122 33.945 -43.2662 31.975C-45.7111 29.7455 -47.4747 26.8669 -48.352 23.6734L-48.6854 22.4347H-48.7951L-49.2118 20.4277C-50.0083 16.5169 -51.7252 12.853 -54.2199 9.74094C-54.5091 9.37888 -54.8337 9.01036 -55.1286 8.67238L-55.5028 8.24129L-55.5444 8.19229L-56.4603 7.27318L-56.7007 7.08208C-56.913 6.90788 -57.143 6.71283 -57.3866 6.50811C-57.9764 6.01038 -58.6422 5.4468 -59.3097 4.98279C-63.8316 1.79404 -69.2857 0.207022 -74.8091 0.472961C-80.3324 0.738899 -85.6095 2.84259 -89.8054 6.45108C-93.8685 9.91415 -96.7004 14.6045 -97.876 19.8176C-97.9088 19.9605 -97.9425 20.121 -97.9706 20.2527C-97.9818 20.3089 -97.9914 20.357 -98.0002 20.3956L-98.4321 22.4074H-98.4762L-98.8223 23.6598C-99.5423 26.4913 -100.982 29.0876 -103.001 31.1959C-105.021 33.3042 -107.551 34.8526 -110.345 35.6901C-113.139 36.5276 -116.102 36.6257 -118.945 35.975C-121.788 35.3242 -124.415 33.9467 -126.569 31.9767C-129.014 29.7466 -130.777 26.8674 -131.654 23.6734L-131.987 22.4347L-133.269 22.4179C-133.732 22.4138 -134.199 22.4138 -134.653 22.4138H-135.116L-140 22.4074L-139.575 24.4569C-138.778 28.3676 -137.061 32.0314 -134.566 35.1437C-134.277 35.5017 -133.952 35.8743 -133.658 36.2122C-133.524 36.3648 -133.397 36.5076 -133.283 36.6401L-133.241 36.6923L-132.325 37.6075L-132.085 37.7985V37.8025C-131.872 37.9727 -131.642 38.1678 -131.398 38.3734C-130.808 38.8743 -130.142 39.4346 -129.475 39.9043C-124.953 43.0925 -119.499 44.6788 -113.975 44.4121C-108.452 44.1455 -103.175 42.0411 -98.9802 38.432C-94.9165 34.9682 -92.0847 30.2765 -90.9103 25.0622C-90.8767 24.9193 -90.843 24.7596 -90.8158 24.6271L-90.7853 24.4842L-90.3534 22.4772H-90.3094L-89.964 21.2281C-89.2439 18.3966 -87.804 15.8003 -85.7846 13.692C-83.7652 11.5837 -81.2352 10.0354 -78.4411 9.19784C-75.6469 8.36032 -72.6839 8.26222 -69.8406 8.91296C-66.9973 9.56371 -64.3708 10.9411 -62.2168 12.9111C-59.7721 15.14 -58.0083 18.0178 -57.1302 21.2104L-56.7968 22.4491H-56.6871L-56.2696 24.4561C-55.4728 28.3667 -53.7562 32.0304 -51.2623 35.1429C-50.9731 35.5009 -50.6485 35.8735 -50.3536 36.2114C-50.2206 36.364 -50.0932 36.5068 -49.9794 36.6393L-49.937 36.6914L-49.0219 37.6066L-48.7815 37.7977V37.8017C-48.5692 37.9719 -48.3392 38.1671 -48.0948 38.3726C-47.505 38.8735 -46.8391 39.4338 -46.1717 39.9035C-41.6495 43.0916 -36.1952 44.6778 -30.672 44.4112C-25.1488 44.1445 -19.8721 42.0402 -15.6769 38.4312C-11.6127 34.9677 -8.7805 30.2759 -7.60622 25.0614C-7.57257 24.9185 -7.53893 24.7588 -7.51169 24.6263C-7.50046 24.5741 -7.49083 24.5252 -7.48122 24.4834L-7.04129 22.4339H-7.12144L-6.78648 21.2233C-6.06633 18.3918 -4.62645 15.7955 -2.60709 13.6872C-0.587708 11.5789 1.94226 10.0306 4.73642 9.19304C7.53056 8.35552 10.4936 8.25732 13.3369 8.90806C16.1801 9.55881 18.8067 10.9363 20.9607 12.9063C23.4061 15.1347 25.17 18.0126 26.0473 21.2056L26.3678 22.4098H26.3454L26.7709 24.4593C27.568 28.37 29.2849 32.0337 31.779 35.1461C32.0683 35.5042 32.3936 35.8766 32.6877 36.2146C32.8207 36.3671 32.9473 36.5101 33.0618 36.6425L33.1035 36.6947L34.0194 37.6099L34.2598 37.801V37.805C34.4721 37.9752 34.7029 38.1702 34.9465 38.3757C35.5362 38.8766 36.2021 39.437 36.8696 39.9066C41.3919 43.0948 46.8463 44.6812 52.3697 44.4145C57.893 44.1478 63.1699 42.0434 67.3652 38.4343C71.4289 34.9704 74.261 30.2789 75.4359 25.0647C75.4688 24.9218 75.5024 24.762 75.5296 24.6295L75.5601 24.4866L76 22.4371L67.8693 22.4098ZM-137.493 25.8096C-137.505 25.7663 -137.515 25.7229 -137.527 25.6796C-137.498 25.7848 -137.469 25.8907 -137.438 25.995C-137.46 25.9332 -137.479 25.8714 -137.497 25.8096H-137.493ZM-132.411 35.0554C-132.691 34.7342 -132.972 34.4131 -133.24 34.0816C-132.973 34.4115 -132.691 34.7351 -132.411 35.0554ZM-129.378 37.8483C-129.664 37.6171 -129.946 37.3787 -130.227 37.1403C-129.945 37.3811 -129.667 37.6171 -129.378 37.8483C-129.09 38.0795 -128.8 38.3043 -128.497 38.5147C-128.804 38.3043 -129.095 38.0795 -129.382 37.8483H-129.378ZM-50.8681 20.7777C-50.8745 20.7464 -50.8825 20.7151 -50.8889 20.6846C-50.8889 20.7151 -50.8785 20.7464 -50.8721 20.7777H-50.8681ZM-51.2839 19.0758C-51.2679 19.1328 -51.2543 19.1906 -51.2391 19.2476C-51.2783 19.1047 -51.3192 18.9626 -51.3593 18.8214C-51.3384 18.9065 -51.312 18.9907 -51.2896 19.0758H-51.2839ZM-56.3666 9.83326C-56.0853 10.1544 -55.8057 10.4755 -55.5372 10.8071C-55.8041 10.4731 -56.0853 10.1528 -56.3666 9.83326ZM-54.191 25.8088C-54.203 25.7663 -54.2135 25.7229 -54.2255 25.6804C-54.1967 25.7839 -54.1678 25.8875 -54.1374 25.9902C-54.159 25.93 -54.1742 25.8698 -54.195 25.8096L-54.191 25.8088ZM9.60237 2.14166C7.27339 2.1381 4.95724 2.48676 2.7321 3.17572C6.11378 2.12873 9.69003 1.87251 13.186 2.42683C16.682 2.98114 20.0045 4.33116 22.8983 6.37317C19.0031 3.62946 14.3599 2.15253 9.59837 2.14254L9.60237 2.14166ZM31.8912 19.075C31.9064 19.1264 31.9184 19.1785 31.932 19.2299C31.8968 19.1015 31.8615 18.9739 31.8239 18.8462C31.8423 18.9233 31.8655 18.9987 31.8848 19.0758L31.8912 19.075ZM27.6387 10.8063C27.371 10.4723 27.0898 10.152 26.8094 9.83247C27.0858 10.1528 27.3686 10.4723 27.6387 10.8063ZM28.8503 25.8088C28.8382 25.7655 28.8278 25.7205 28.8158 25.6771C28.8454 25.7847 28.8751 25.8915 28.9064 25.9983C28.8839 25.9357 28.8639 25.8731 28.8463 25.8096L28.8503 25.8088ZM33.1027 34.0776C33.3696 34.4075 33.6516 34.731 33.9329 35.0513C33.6476 34.735 33.3663 34.4115 33.0987 34.0816L33.1027 34.0776ZM40.0011 39.8577C42.7421 41.3702 45.7602 42.3112 48.8738 42.6241C45.7592 42.3132 42.7396 41.3738 39.9971 39.8625L40.0011 39.8577ZM50.9964 42.7389C55.0923 42.775 59.1241 41.7191 62.6785 39.6795C59.1235 41.7215 55.0901 42.7791 50.9924 42.7437L50.9964 42.7389Z" fill="#FFC9E2"/>
</svg>
