<?xml version="1.0" standalone="no"?>
<!DOCTYPE svg PUBLIC "-//W3C//DTD SVG 20010904//EN"
 "http://www.w3.org/TR/2001/REC-SVG-20010904/DTD/svg10.dtd">
<svg version="1.0" xmlns="http://www.w3.org/2000/svg"
 width="220.000000pt" height="220.000000pt" viewBox="0 0 220.000000 220.000000"
 preserveAspectRatio="xMidYMid meet">

<g transform="translate(0.000000,220.000000) scale(0.100000,-0.100000)"
fill="#000000" stroke="none">
<path d="M948 2150 c-233 -37 -446 -148 -606 -314 -135 -141 -221 -291 -269
-475 -23 -83 -26 -117 -27 -256 0 -132 4 -175 21 -246 97 -388 388 -684 771
-786 86 -23 116 -26 262 -26 146 0 176 3 262 26 377 100 665 388 765 765 23
84 26 118 27 257 0 137 -3 173 -23 250 -102 390 -392 684 -770 782 -108 27
-313 39 -413 23z m244 -770 c29 -11 70 -34 91 -51 43 -35 97 -123 97 -156 l0
-23 253 0 c212 0 256 -2 275 -16 26 -18 28 -50 5 -76 -15 -17 -37 -18 -272
-18 l-256 0 -17 -48 c-38 -105 -137 -179 -255 -189 -276 -22 -429 312 -233
508 83 83 204 110 312 69z"/>
</g>
</svg>
