<svg width="32" height="32" viewBox="0 0 32 32" fill="none" xmlns="http://www.w3.org/2000/svg">
<path d="M27.5308 3.56641L17.5371 10.9889L19.3852 6.60972L27.5308 3.56641Z" fill="#E2761B" stroke="#E2761B" stroke-linecap="round" stroke-linejoin="round"/>
<path d="M4.45898 3.56641L14.3724 11.0592L12.6147 6.60972L4.45898 3.56641Z" fill="#E4761B" stroke="#E4761B" stroke-linecap="round" stroke-linejoin="round"/>
<path d="M23.9351 20.7715L21.2734 24.8493L26.9684 26.4162L28.6055 20.8619L23.9351 20.7715Z" fill="#E4761B" stroke="#E4761B" stroke-linecap="round" stroke-linejoin="round"/>
<path d="M3.4043 20.8619L5.03142 26.4162L10.7263 24.8493L8.06469 20.7715L3.4043 20.8619Z" fill="#E4761B" stroke="#E4761B" stroke-linecap="round" stroke-linejoin="round"/>
<path d="M10.4053 13.882L8.81836 16.2825L14.4731 16.5336L14.2722 10.457L10.4053 13.882Z" fill="#E4761B" stroke="#E4761B" stroke-linecap="round" stroke-linejoin="round"/>
<path d="M21.5829 13.882L17.6657 10.3867L17.5352 16.5336L23.1799 16.2825L21.5829 13.882Z" fill="#E4761B" stroke="#E4761B" stroke-linecap="round" stroke-linejoin="round"/>
<path d="M10.7266 24.8496L14.1214 23.1924L11.1886 20.9023L10.7266 24.8496Z" fill="#E4761B" stroke="#E4761B" stroke-linecap="round" stroke-linejoin="round"/>
<path d="M17.8672 23.1924L21.2721 24.8496L20.8 20.9023L17.8672 23.1924Z" fill="#E4761B" stroke="#E4761B" stroke-linecap="round" stroke-linejoin="round"/>
<path d="M21.2721 24.8487L17.8672 23.1914L18.1384 25.4111L18.1082 26.3452L21.2721 24.8487Z" fill="#D7C1B3" stroke="#D7C1B3" stroke-linecap="round" stroke-linejoin="round"/>
<path d="M10.7266 24.8487L13.8904 26.3452L13.8703 25.4111L14.1214 23.1914L10.7266 24.8487Z" fill="#D7C1B3" stroke="#D7C1B3" stroke-linecap="round" stroke-linejoin="round"/>
<path d="M13.9418 19.4352L11.1094 18.6015L13.1081 17.6875L13.9418 19.4352Z" fill="#233447" stroke="#233447" stroke-linecap="round" stroke-linejoin="round"/>
<path d="M18.0488 19.4352L18.8825 17.6875L20.8913 18.6015L18.0488 19.4352Z" fill="#233447" stroke="#233447" stroke-linecap="round" stroke-linejoin="round"/>
<path d="M10.7261 24.8493L11.2082 20.7715L8.06445 20.8619L10.7261 24.8493Z" fill="#CD6116" stroke="#CD6116" stroke-linecap="round" stroke-linejoin="round"/>
<path d="M20.791 20.7715L21.2731 24.8493L23.9348 20.8619L20.791 20.7715Z" fill="#CD6116" stroke="#CD6116" stroke-linecap="round" stroke-linejoin="round"/>
<path d="M23.1799 16.2812L17.5352 16.5323L18.0574 19.4351L18.8911 17.6874L20.8999 18.6014L23.1799 16.2812Z" fill="#CD6116" stroke="#CD6116" stroke-linecap="round" stroke-linejoin="round"/>
<path d="M11.1084 18.6014L13.1172 17.6874L13.9408 19.4351L14.4731 16.5323L8.81836 16.2812L11.1084 18.6014Z" fill="#CD6116" stroke="#CD6116" stroke-linecap="round" stroke-linejoin="round"/>
<path d="M8.81836 16.2812L11.1887 20.9015L11.1084 18.6014L8.81836 16.2812Z" fill="#E4751F" stroke="#E4751F" stroke-linecap="round" stroke-linejoin="round"/>
<path d="M20.9012 18.6014L20.8008 20.9015L23.1812 16.2812L20.9012 18.6014Z" fill="#E4751F" stroke="#E4751F" stroke-linecap="round" stroke-linejoin="round"/>
<path d="M14.4737 16.5332L13.9414 19.4359L14.6043 22.8609L14.755 18.3512L14.4737 16.5332Z" fill="#E4751F" stroke="#E4751F" stroke-linecap="round" stroke-linejoin="round"/>
<path d="M17.5368 16.5332L17.2656 18.3411L17.3862 22.8609L18.0591 19.4359L17.5368 16.5332Z" fill="#E4751F" stroke="#E4751F" stroke-linecap="round" stroke-linejoin="round"/>
<path d="M18.0597 19.4352L17.3867 22.8602L17.8688 23.1917L20.8017 20.9016L20.9021 18.6016L18.0597 19.4352Z" fill="#F6851B" stroke="#F6851B" stroke-linecap="round" stroke-linejoin="round"/>
<path d="M11.1094 18.6016L11.1897 20.9016L14.1226 23.1917L14.6047 22.8602L13.9418 19.4352L11.1094 18.6016Z" fill="#F6851B" stroke="#F6851B" stroke-linecap="round" stroke-linejoin="round"/>
<path d="M18.1089 26.3462L18.139 25.4121L17.8879 25.1911H14.1013L13.8703 25.4121L13.8904 26.3462L10.7266 24.8496L11.8314 25.7536L14.0712 27.3104H17.918L20.1679 25.7536L21.2727 24.8496L18.1089 26.3462Z" fill="#C0AD9E" stroke="#C0AD9E" stroke-linecap="round" stroke-linejoin="round"/>
<path d="M17.8686 23.1908L17.3865 22.8594H14.6043L14.1222 23.1908L13.8711 25.4105L14.1021 25.1896H17.8887L18.1398 25.4105L17.8686 23.1908Z" fill="#161616" stroke="#161616" stroke-linecap="round" stroke-linejoin="round"/>
<path d="M27.9513 11.471L28.805 7.37306L27.5295 3.56641L17.8672 10.7378L21.5834 13.8815L26.8364 15.4183L28.0015 14.0623L27.4993 13.7007L28.3028 12.9675L27.6801 12.4854L28.4836 11.8727L27.9513 11.471Z" fill="#763D16" stroke="#763D16" stroke-linecap="round" stroke-linejoin="round"/>
<path d="M3.19336 7.37306L4.04709 11.471L3.50472 11.8727L4.30824 12.4854L3.69556 12.9675L4.49907 13.7007L3.99687 14.0623L5.15193 15.4183L10.4049 13.8815L14.1212 10.7378L4.4589 3.56641L3.19336 7.37306Z" fill="#763D16" stroke="#763D16" stroke-linecap="round" stroke-linejoin="round"/>
<path d="M26.8372 15.4176L21.5842 13.8809L23.1812 16.2814L20.8008 20.9016L23.9345 20.8614H28.6049L26.8372 15.4176Z" fill="#F6851B" stroke="#F6851B" stroke-linecap="round" stroke-linejoin="round"/>
<path d="M10.4049 13.8809L5.15194 15.4176L3.4043 20.8614H8.06468L11.1883 20.9016L8.81798 16.2814L10.4049 13.8809Z" fill="#F6851B" stroke="#F6851B" stroke-linecap="round" stroke-linejoin="round"/>
<path d="M17.5368 16.5328L17.8682 10.7374L19.3949 6.60938H12.6152L14.1218 10.7374L14.4734 16.5328L14.5939 18.3608L14.6039 22.8605H17.3861L17.4062 18.3608L17.5368 16.5328Z" fill="#F6851B" stroke="#F6851B" stroke-linecap="round" stroke-linejoin="round"/>
</svg>
