<svg width="32" height="32" viewBox="0 0 32 32" fill="none" xmlns="http://www.w3.org/2000/svg">
<g clip-path="url(#clip0_1662_427)">
<path fill-rule="evenodd" clip-rule="evenodd" d="M4.18026 0.107422C2.47235 0.107422 1.19141 1.49409 1.19141 3.09409V6.61409C1.19141 8.32075 2.57909 9.60076 4.18026 9.60076H9.51751V29.1208C9.51751 30.8274 10.9052 32.1074 12.5064 32.1074H16.0289C17.7369 32.1074 19.0178 30.7208 19.0178 29.1208V6.61409V3.09409C19.0178 1.38742 17.6301 0.107422 16.0289 0.107422H12.5064H4.18026Z" fill="#155FCC"/>
<path d="M26.064 9.59956C28.7326 9.59956 30.7607 7.46623 30.7607 4.90623C30.7607 2.34623 28.6258 0.212891 26.064 0.212891C23.3953 0.212891 21.3672 2.34623 21.3672 4.90623C21.3672 7.46623 23.5021 9.59956 26.064 9.59956Z" fill="#155FCC"/>
</g>
<defs>
<clipPath id="clip0_1662_427">
<rect width="32" height="32" fill="white"/>
</clipPath>
</defs>
</svg>
