<svg width="16" height="16" viewBox="0 0 16 16" fill="none" xmlns="http://www.w3.org/2000/svg">
<circle cx="8" cy="8" r="8" fill="#1D1E1F"/>
<path fill-rule="evenodd" clip-rule="evenodd" d="M11.4166 4.75334L11.029 7.14408L9.65122 5.47555L11.4166 4.75334ZM11.0375 8.17231L11.3823 9.48259L8.745 10.23L11.0375 8.17231ZM5.29633 7.51375L6.71028 5.61312H9.16583L10.7354 7.51375H5.29633ZM10.5535 7.98348L7.99687 10.2781L5.39265 7.98348H10.5535ZM6.23677 5.47694L4.97324 7.1753L4.58527 4.76263L6.23677 5.47694ZM7.23956 10.2292L4.57711 9.48324L4.94195 8.20458L7.23956 10.2292ZM7.73113 10.8536L7.22855 11.4227C6.80264 11.0064 6.33436 10.6368 5.83447 10.3222L7.73113 10.8536ZM10.169 10.3135C9.66913 10.6333 9.20195 11.0077 8.77866 11.4279L8.26547 10.8529L10.169 10.3135ZM12 4.00921L9.22762 5.14346H6.64359L4 4L4.60048 7.73395L4.02384 9.75511L5.52833 10.6806C6.24074 11.1188 6.87884 11.6671 7.42491 12.3101L8.01073 13L8.62555 12.2744C9.15308 11.652 9.76742 11.1175 10.4515 10.686L11.927 9.75511L11.3956 7.73672L12 4.00921Z" fill="white"/>
</svg>
