<svg width="24" height="24" viewBox="0 0 24 24" fill="none" xmlns="http://www.w3.org/2000/svg">
<circle cx="12" cy="12" r="12" fill="#1D1E1F"/>
<path fill-rule="evenodd" clip-rule="evenodd" d="M17.9791 6.25557L17.3007 10.2401L14.8896 7.45925L17.9791 6.25557ZM17.3155 11.9538L17.9191 14.1376L13.3037 15.3833L17.3155 11.9538ZM7.26858 10.8562L9.743 7.68853H14.0402L16.7869 10.8562H7.26858ZM16.4686 11.6391L11.9945 15.4634L7.43713 11.6391H16.4686ZM8.91436 7.46156L6.70316 10.2922L6.02423 6.27105L8.91436 7.46156ZM10.6692 15.3819L6.00995 14.1387L6.64841 12.0076L10.6692 15.3819ZM11.5295 16.4226L10.65 17.3711C9.90462 16.6773 9.08513 16.0613 8.21033 15.5371L11.5295 16.4226ZM15.7958 15.5225C14.921 16.0555 14.1034 16.6795 13.3627 17.3798L12.4646 16.4215L15.7958 15.5225ZM19 5.01535L14.1483 6.90576H9.62628L5 5L6.05084 11.2232L5.04172 14.5918L7.67458 16.1343C8.92129 16.8646 10.038 17.7784 10.9936 18.8501L12.0188 20L13.0947 18.7907C14.0179 17.7533 15.093 16.8626 16.2902 16.1434L18.8722 14.5918L17.9424 11.2279L19 5.01535Z" fill="white"/>
</svg>
