<svg width="32" height="32" viewBox="0 0 32 32" fill="none" xmlns="http://www.w3.org/2000/svg">
<circle cx="16" cy="16" r="16" fill="#1D1E1F"/>
<path fill-rule="evenodd" clip-rule="evenodd" d="M23.6874 9.59039L22.8152 14.6375L19.7153 11.1151L23.6874 9.59039ZM22.8343 16.8082L23.6102 19.5744L17.6762 21.1522L22.8343 16.8082ZM9.91674 15.4179L13.0981 11.4055H18.6231L22.1545 15.4179H9.91674ZM21.7454 16.4096L15.993 21.2537L10.1335 16.4096H21.7454ZM12.0327 11.118L9.18978 14.7034L8.31686 9.61L12.0327 11.118ZM14.289 21.1505L8.29851 19.5757L9.11939 16.8763L14.289 21.1505ZM15.395 22.4687L14.2642 23.6701C13.3059 22.7913 12.2523 22.011 11.1276 21.3469L15.395 22.4687ZM20.8803 21.3285C19.7555 22.0036 18.7044 22.794 17.752 23.6811L16.5973 22.4673L20.8803 21.3285ZM25 8.01944L18.7621 10.414H12.9481L7 8L8.35108 15.8828L7.05364 20.1497L10.4387 22.1034C12.0417 23.0285 13.4774 24.186 14.706 25.5435L16.0241 27L17.4075 25.4683C18.5944 24.1542 19.9767 23.0259 21.516 22.1149L24.8357 20.1497L23.6402 15.8886L25 8.01944Z" fill="white"/>
</svg>
