<svg width="40" height="40" viewBox="0 0 40 40" fill="none" xmlns="http://www.w3.org/2000/svg">
<circle cx="20" cy="20" r="20" fill="#1D1E1F"/>
<path fill-rule="evenodd" clip-rule="evenodd" d="M30.2499 11.0926L29.0869 17.7336L24.9537 13.0988L30.2499 11.0926ZM29.1124 20.5897L30.147 24.2294L22.235 26.3055L29.1124 20.5897ZM11.889 18.7604L16.1309 13.4809H23.4975L28.2061 18.7604H11.889ZM27.6605 20.0652L19.9906 26.4391L12.1779 20.0652H27.6605ZM14.7103 13.1026L10.9197 17.8203L9.75582 11.1184L14.7103 13.1026ZM17.7187 26.3032L9.73134 24.2312L10.8259 20.6794L17.7187 26.3032ZM19.1934 28.0377L17.6856 29.6185C16.4079 28.4622 15.0031 27.4356 13.5034 26.5618L19.1934 28.0377ZM26.507 26.5375C25.0074 27.4258 23.6059 28.4658 22.336 29.633L20.7964 28.0359L26.507 26.5375ZM32 9.02558L23.6828 12.1763H15.9308L8 9L9.80145 19.3721L8.07153 24.9864L12.585 27.5571C14.7222 28.7743 16.6365 30.2974 18.2747 32.0835L20.0322 34L21.8767 31.9846C23.4592 30.2555 25.3023 28.771 27.3546 27.5723L31.7809 24.9864L30.1869 19.3798L32 9.02558Z" fill="white"/>
</svg>
