<svg width="57" height="108" viewBox="0 0 57 108" fill="none" xmlns="http://www.w3.org/2000/svg">
<path d="M32.2245 29.7203C31.7766 30.4941 31.0569 31.0736 30.2053 31.3463C29.3538 31.6189 28.4313 31.5653 27.6172 31.1956C26.8031 30.8258 26.1556 30.1664 25.8007 29.3458C25.4457 28.5251 25.4087 27.6018 25.6967 26.7554C25.9848 25.9089 26.5773 25.1999 27.3592 24.7661C28.141 24.3322 29.0562 24.2045 29.9269 24.4081C30.7975 24.6116 31.5614 25.1319 32.0698 25.8674C32.5783 26.6028 32.7951 27.501 32.678 28.3874C32.6162 28.8572 32.462 29.3102 32.2245 29.7203V29.7203Z" fill="#E1458D"/>
<path d="M14.625 0.000485374C14.9873 0.0253365 15.3516 0.0347595 15.711 0.0789945C19.5274 0.548929 22.5853 2.32901 24.8249 5.45329C26.4738 7.72419 27.3039 10.4872 27.1795 13.2909C27.0982 16.5091 25.7948 19.5757 23.5341 21.8677C23.5145 21.8785 23.4924 21.8844 23.47 21.8844C23.4476 21.8844 23.4255 21.8785 23.4059 21.8677C20.409 18.8762 17.4154 15.882 14.4252 12.8846C14.3602 12.8137 14.3226 12.722 14.3193 12.6259C14.3142 8.41778 14.3127 4.20912 14.3148 0L14.625 0.000485374Z" fill="#2FC8E0"/>
<path d="M0.00092488 14.6247C0.025776 14.9871 0.0349657 15.3514 0.0794492 15.7108C0.549136 19.5269 2.32922 22.585 5.45351 24.8244C7.72421 26.4735 10.4872 27.3036 13.2908 27.1792C16.5092 27.0978 19.5759 25.7945 21.8679 23.5338C21.8787 23.5141 21.8843 23.4921 21.8843 23.4697C21.8843 23.4473 21.8787 23.4253 21.8679 23.4056C18.8764 20.4089 15.882 17.4154 12.8847 14.425C12.8139 14.3599 12.7222 14.322 12.626 14.3187C8.41791 14.3136 4.20922 14.3122 -6.10352e-05 14.3143L0.00092488 14.6247Z" fill="#2FC8E0"/>
<path d="M42.3743 57.0527C42.0122 57.0279 41.6479 57.0188 41.2886 56.9748C37.4722 56.5047 34.414 54.7251 32.1749 51.6005C30.5259 49.3297 29.6957 46.5667 29.82 43.763C29.9013 40.5447 31.2046 37.4782 33.4652 35.1862C33.4849 35.1755 33.507 35.1699 33.5294 35.1699C33.5518 35.1699 33.5739 35.1755 33.5937 35.1862C36.5902 38.1778 39.5838 41.172 42.5746 44.1692C42.6395 44.2401 42.6769 44.3317 42.6802 44.4277C42.6853 48.6358 42.6868 52.8448 42.6847 57.0542L42.3743 57.0527Z" fill="#2FC8E0"/>
<path d="M56.999 42.4287C56.9741 42.0664 56.965 41.7023 56.9207 41.3429C56.4508 37.5268 54.6707 34.4684 51.5464 32.2291C49.2755 30.5801 46.5125 29.7501 43.7089 29.8743C40.4906 29.9556 37.424 31.259 35.132 33.5197C35.1212 33.5393 35.1155 33.5613 35.1155 33.5837C35.1155 33.6062 35.1212 33.6282 35.132 33.6478C38.1236 36.6447 41.118 39.6383 44.1154 42.6287C44.1862 42.6937 44.2778 42.7314 44.3739 42.7347C48.582 42.7399 52.7907 42.7413 57 42.7391L56.999 42.4287Z" fill="#2FC8E0"/>
<path d="M42.3743 0.000485374C42.0122 0.0253365 41.6479 0.0347595 41.2886 0.0789945C37.4722 0.548929 34.414 2.32901 32.1749 5.45329C30.5259 7.72416 29.6957 10.4872 29.82 13.2909C29.9013 16.5091 31.2046 19.5756 33.4652 21.8677C33.4848 21.8785 33.5069 21.8844 33.5294 21.8844C33.5519 21.8844 33.574 21.8785 33.5937 21.8677C36.5902 18.8762 39.5838 15.882 42.5746 12.8846C42.6395 12.8137 42.677 12.722 42.6802 12.6259C42.6853 8.41778 42.6868 4.20912 42.6847 0L42.3743 0.000485374Z" fill="#2FC8E0"/>
<path d="M56.999 14.6247C56.9741 14.9871 56.965 15.3514 56.9207 15.7108C56.4508 19.5269 54.6707 22.585 51.5464 24.8244C49.2756 26.4736 46.5126 27.3037 43.7089 27.1792C40.4906 27.0978 37.424 25.7944 35.132 23.5338C35.1212 23.5141 35.1155 23.4921 35.1155 23.4697C35.1155 23.4473 35.1212 23.4253 35.132 23.4056C38.1236 20.4089 41.118 17.4154 44.1154 14.425C44.1861 14.3598 44.2778 14.322 44.3739 14.3187C48.582 14.3136 52.7907 14.3122 57 14.3143L56.999 14.6247Z" fill="#2FC8E0"/>
<path d="M14.625 57.0527C14.9871 57.0279 15.3516 57.0188 15.711 56.9748C19.5274 56.5047 22.5853 54.7251 24.8249 51.6005C26.4738 49.3296 27.3039 46.5666 27.1795 43.763C27.0981 40.5447 25.7947 37.4782 23.5341 35.1862C23.5144 35.1755 23.4924 35.1699 23.47 35.1699C23.4476 35.1699 23.4256 35.1755 23.4059 35.1862C20.409 38.1778 17.4154 41.172 14.4252 44.1692C14.3603 44.24 14.3227 44.3317 14.3193 44.4277C14.3142 48.6358 14.3127 52.8448 14.3148 57.0542L14.625 57.0527Z" fill="#2FC8E0"/>
<path d="M0.00092488 42.4287C0.025776 42.0664 0.0349657 41.7023 0.0794492 41.3429C0.549136 37.5268 2.32922 34.4684 5.45351 32.2291C7.72443 30.5801 10.4874 29.7501 13.2911 29.8743C16.5093 29.9557 19.5759 31.259 21.8679 33.5197C21.8787 33.5393 21.8843 33.5613 21.8843 33.5837C21.8843 33.6062 21.8787 33.6282 21.8679 33.6478C18.8764 36.6447 15.882 39.6383 12.8847 42.6287C12.8139 42.6936 12.7221 42.7314 12.626 42.7347C8.41791 42.7399 4.20922 42.7413 -6.10352e-05 42.7391L0.00092488 42.4287Z" fill="#2FC8E0"/>
<path fill-rule="evenodd" clip-rule="evenodd" d="M28.7939 143.36L28.2979 143.224C27.1766 142.941 26.1484 142.376 25.3135 141.583C24.4785 140.79 23.8654 139.797 23.5337 138.7C23.202 137.603 23.1631 136.44 23.4208 135.323C23.6785 134.207 24.2239 133.176 25.0041 132.33C25.8873 131.37 27.028 130.677 28.2934 130.333L28.7688 130.207L28.7688 130.215L29.5792 130.048C31.1281 129.736 32.5792 129.062 33.8116 128.082C33.955 127.969 34.1009 127.841 34.2348 127.725L34.4055 127.578L34.4249 127.562L34.789 127.202L34.8646 127.108C34.9336 127.025 35.0109 126.934 35.092 126.838C35.2891 126.607 35.5122 126.346 35.696 126.083C36.9589 124.308 37.5874 122.167 37.4821 119.998C37.3768 117.83 36.5436 115.758 35.1145 114.111C33.743 112.515 31.8854 111.403 29.8208 110.942C29.7642 110.929 29.7006 110.916 29.6485 110.905C29.6262 110.9 29.6072 110.896 29.5919 110.893L28.7802 110.72L28.7802 110.752L28.2995 110.62C27.1781 110.337 26.1498 109.772 25.3149 108.979C24.4799 108.186 23.8667 107.193 23.535 106.096C23.2033 104.999 23.1644 103.836 23.4222 102.719C23.6799 101.603 24.2254 100.572 25.0056 99.726C25.8886 98.7661 27.0287 98.0737 28.2934 97.7292L28.784 97.5983L28.784 97.5552L29.5789 97.3916C31.1277 97.0789 32.5788 96.4048 33.8113 95.4254C33.9547 95.3118 34.1006 95.1844 34.2345 95.0686L34.4052 94.9217L34.4246 94.9053L34.7886 94.5457L34.8643 94.4514C34.9333 94.368 35.0105 94.2777 35.0916 94.182C35.2887 93.9505 35.5119 93.6891 35.6957 93.427C36.9586 91.6516 37.5871 89.5102 37.4818 87.3417C37.3765 85.1731 36.5433 83.1012 35.1142 81.4538C33.7427 79.8586 31.8851 78.7467 29.8205 78.2852C29.7639 78.2723 29.7003 78.259 29.6482 78.248C29.6259 78.2436 29.6069 78.2398 29.5916 78.2364L28.7948 78.0668L28.7948 78.0495L28.2988 77.9136C27.1774 77.6309 26.1492 77.0656 25.3142 76.2728C24.4792 75.48 23.866 74.4867 23.5343 73.3897C23.2026 72.2927 23.1638 71.1293 23.4215 70.013C23.6792 68.8967 24.2248 67.8655 25.005 67.0198C25.8882 66.0599 27.0285 65.3676 28.2934 65.0234L28.784 64.8925L28.7907 64.3891C28.7923 64.2073 28.7923 64.0239 28.7923 63.8458L28.7923 63.664L28.7948 61.7465L27.9831 61.9135C26.4343 62.2263 24.9833 62.9004 23.7507 63.8798C23.6089 63.9934 23.4614 64.1211 23.3275 64.2365C23.2671 64.2891 23.2106 64.3388 23.1581 64.3838L23.1374 64.4001L22.775 64.7597L22.6993 64.8541L22.6977 64.8541C22.6303 64.9375 22.553 65.0281 22.4716 65.1237C22.2733 65.3553 22.0513 65.6167 21.8653 65.8788C20.6027 67.6543 19.9744 69.7957 20.08 71.9642C20.1856 74.1328 21.0191 76.2045 22.4484 77.8516C23.8202 79.4471 25.6783 80.5589 27.7434 81.02C27.8 81.0332 27.8633 81.0464 27.9157 81.0571L27.9723 81.0691L28.7672 81.2387L28.7672 81.256L29.2619 81.3915C30.3833 81.6743 31.4115 82.2396 32.2465 83.0324C33.0815 83.8253 33.6947 84.8186 34.0264 85.9157C34.3581 87.0127 34.3969 88.176 34.1392 89.2924C33.8815 90.4087 33.3359 91.4399 32.5557 92.2856C31.673 93.2455 30.5333 93.9379 29.2689 94.2827L28.7783 94.4136L28.7783 94.4567L27.9835 94.6206C26.4347 94.9334 24.9837 95.6074 23.751 96.5866C23.6092 96.7001 23.4617 96.8276 23.3279 96.9433C23.2674 96.9956 23.2109 97.0456 23.1584 97.0902L23.1378 97.1069L22.7753 97.4662L22.6996 97.5606L22.698 97.5606C22.6306 97.6439 22.5533 97.7342 22.472 97.8302C22.2736 98.0617 22.0516 98.3232 21.8657 98.5852C20.603 100.361 19.9748 102.502 20.0804 104.671C20.186 106.839 21.0194 108.911 22.4487 110.558C23.8204 112.154 25.6786 113.266 27.7437 113.727C27.8003 113.74 27.8636 113.753 27.916 113.764C27.9367 113.768 27.9561 113.772 27.9726 113.776L28.7843 113.949L28.7843 113.917L29.2638 114.049C30.3852 114.331 31.4134 114.897 32.2484 115.69C33.0834 116.482 33.6966 117.476 34.0283 118.573C34.36 119.67 34.3988 120.833 34.1411 121.949C33.8834 123.066 33.3378 124.097 32.5576 124.943C31.6751 125.903 30.5353 126.595 29.2708 126.94L28.7939 127.066L28.7939 127.057L27.9822 127.224C26.4334 127.537 24.9824 128.211 23.7498 129.19C23.608 129.304 23.4605 129.431 23.3266 129.547C23.2662 129.599 23.2096 129.649 23.1571 129.694L23.1365 129.71L22.774 130.07L22.6983 130.164L22.6967 130.164C22.6293 130.248 22.5521 130.338 22.4707 130.434C22.2723 130.665 22.0504 130.927 21.8644 131.189C20.6017 132.964 19.9735 135.106 20.0791 137.274C20.1847 139.443 21.0182 141.515 22.4475 143.162C23.8194 144.757 25.6774 145.869 27.7424 146.331C27.799 146.344 27.8623 146.357 27.9148 146.367L27.9714 146.379L28.7831 146.552L28.7939 143.36ZM27.4474 62.7308C27.4646 62.7261 27.4817 62.722 27.4989 62.7173C27.4573 62.7287 27.4153 62.7403 27.374 62.7522C27.3985 62.7437 27.4229 62.7362 27.4474 62.7293L27.4474 62.7308ZM23.7857 64.7261C23.9129 64.616 24.0401 64.5058 24.1714 64.4004C24.0407 64.5055 23.9126 64.616 23.7857 64.7261ZM22.6796 65.9168C22.7712 65.8045 22.8656 65.6938 22.96 65.5834C22.8646 65.6941 22.7712 65.8036 22.6796 65.9168C22.588 66.0301 22.499 66.1437 22.4157 66.2629C22.499 66.1421 22.588 66.0279 22.6796 65.9153L22.6796 65.9168ZM29.4403 96.7413C29.4527 96.7388 29.4651 96.7357 29.4771 96.7332C29.4651 96.7332 29.4527 96.7373 29.4403 96.7398L29.4403 96.7413ZM30.1143 96.5781C30.0917 96.5844 30.0688 96.5897 30.0462 96.5957C30.1028 96.5803 30.1591 96.5642 30.215 96.5485C30.1813 96.5567 30.148 96.5671 30.1143 96.5759L30.1143 96.5781ZM33.7747 94.5825C33.6475 94.693 33.5204 94.8028 33.389 94.9081C33.5213 94.8034 33.6482 94.693 33.7747 94.5825ZM27.4477 95.4367C27.4646 95.432 27.4817 95.4279 27.4986 95.4232C27.4576 95.4345 27.4166 95.4458 27.3759 95.4578C27.3997 95.4493 27.4236 95.4433 27.4474 95.4351L27.4477 95.4367ZM36.8209 120.483C36.8223 119.569 36.6842 118.659 36.4114 117.786C36.826 119.114 36.9275 120.518 36.708 121.89C36.4884 123.263 35.9538 124.567 35.145 125.703C36.2317 124.174 36.8166 122.351 36.8206 120.482L36.8209 120.483ZM30.1146 129.234C30.0943 129.24 30.0736 129.245 30.0532 129.25C30.1041 129.236 30.1546 129.223 30.2052 129.208C30.1747 129.215 30.1448 129.224 30.1143 129.232L30.1146 129.234ZM33.3894 127.565C33.5216 127.46 33.6485 127.349 33.775 127.239C33.6482 127.348 33.5216 127.459 33.3894 127.565ZM27.4477 128.04C27.4649 128.036 27.4827 128.031 27.4999 128.027C27.4573 128.038 27.415 128.05 27.3727 128.062C27.3975 128.053 27.4223 128.046 27.4474 128.039L27.4477 128.04ZM24.173 129.71C24.0423 129.815 23.9142 129.925 23.7873 130.036C23.9126 129.924 24.0407 129.813 24.1714 129.708L24.173 129.71ZM21.8838 132.418C21.2848 133.494 20.9121 134.679 20.7882 135.902C20.9113 134.679 21.2833 133.494 21.8819 132.417L21.8838 132.418ZM20.7427 136.735C20.7284 138.343 21.1466 139.926 21.9544 141.322C21.1456 139.926 20.7268 138.343 20.7408 136.734L20.7427 136.735Z" fill="#FED670"/>
</svg>
