<svg width="83" height="178" viewBox="0 0 83 178" fill="none" xmlns="http://www.w3.org/2000/svg">
<path d="M46.9233 43.2769C46.2711 44.4037 45.2231 45.2475 43.9832 45.6446C42.7432 46.0416 41.3999 45.9635 40.2145 45.4251C39.029 44.8867 38.0862 43.9266 37.5694 42.7316C37.0525 41.5366 36.9985 40.1921 37.418 38.9596C37.8374 37.727 38.7003 36.6945 39.8387 36.0629C40.9772 35.4312 42.3099 35.2452 43.5777 35.5416C44.8455 35.838 45.9577 36.5956 46.6981 37.6665C47.4385 38.7375 47.7542 40.0453 47.5837 41.3361C47.4937 42.0202 47.2692 42.6798 46.9233 43.2769Z" fill="#E1458D"/>
<path d="M21.2962 0.000706772C21.8238 0.0368935 22.3543 0.0506148 22.8775 0.115027C28.4347 0.799318 32.8875 3.39137 36.1486 7.94076C38.5498 11.2475 39.7585 15.2708 39.5773 19.3534C39.4589 24.0396 37.561 28.5049 34.2691 31.8424C34.2405 31.8582 34.2084 31.8668 34.1757 31.8668C34.1431 31.8668 34.1109 31.8582 34.0824 31.8424C29.7185 27.4865 25.3594 23.1264 21.0052 18.7618C20.9106 18.6586 20.8559 18.525 20.851 18.3851C20.8436 12.2575 20.8414 6.12907 20.8445 0L21.2962 0.000706772Z" fill="#2FC8E0"/>
<path d="M0.00143563 21.2957C0.0376224 21.8233 0.0510038 22.3538 0.115778 22.8771C0.799707 28.4339 3.39176 32.887 7.94116 36.1478C11.2476 38.5492 15.2709 39.758 19.3534 39.5767C24.0397 39.4583 28.5053 37.5604 31.8429 34.2685C31.8585 34.2399 31.8668 34.2078 31.8668 34.1752C31.8668 34.1426 31.8585 34.1105 31.8429 34.0819C27.4867 29.7183 23.1264 25.3593 18.7621 21.0049C18.659 20.91 18.5254 20.8549 18.3854 20.8501C12.2578 20.8426 6.12931 20.8406 0 20.8437L0.00143563 21.2957Z" fill="#2FC8E0"/>
<path d="M61.703 83.0768C61.1757 83.0406 60.6452 83.0274 60.122 82.9634C54.5648 82.2787 50.1116 79.6874 46.8512 75.1376C44.45 71.8309 43.2412 67.8076 43.4222 63.725C43.5405 59.0388 45.4383 54.5735 48.73 51.236C48.7588 51.2205 48.7909 51.2123 48.8235 51.2123C48.8562 51.2123 48.8884 51.2205 48.9171 51.236C53.2805 55.5922 57.6397 59.9522 61.9946 64.3166C62.0891 64.4197 62.1436 64.5532 62.1484 64.693C62.1559 70.8206 62.1581 76.9494 62.1549 83.0789L61.703 83.0768Z" fill="#2FC8E0"/>
<path d="M82.9984 61.7822C82.9622 61.2546 82.9489 60.7244 82.8845 60.2012C82.2002 54.6444 79.6081 50.1909 75.0587 46.9301C71.7519 44.5291 67.7287 43.3204 63.6461 43.5012C58.9599 43.6197 54.4945 45.5176 51.157 48.8094C51.1413 48.838 51.1331 48.8701 51.1331 48.9027C51.1331 48.9354 51.1413 48.9674 51.157 48.996C55.5132 53.3599 59.8736 57.719 64.2382 62.0734C64.3412 62.1681 64.4747 62.223 64.6145 62.2279C70.7421 62.2353 76.8706 62.2374 82.9999 62.2342L82.9984 61.7822Z" fill="#2FC8E0"/>
<path d="M61.703 0.000706772C61.1757 0.0368935 60.6452 0.0506148 60.122 0.115027C54.5648 0.799318 50.1116 3.39137 46.8512 7.94076C44.45 11.2475 43.2411 15.2708 43.4222 19.3534C43.5405 24.0396 45.4382 28.5049 48.73 31.8424C48.7587 31.8582 48.7908 31.8668 48.8236 31.8668C48.8563 31.8668 48.8885 31.8582 48.9171 31.8424C53.2805 27.4865 57.6397 23.1264 61.9946 18.7618C62.0891 18.6586 62.1437 18.525 62.1484 18.3851C62.1559 12.2575 62.1581 6.12907 62.1549 0L61.703 0.000706772Z" fill="#2FC8E0"/>
<path d="M82.9984 21.2957C82.9622 21.8233 82.9489 22.3538 82.8845 22.8771C82.2002 28.4339 79.6081 32.887 75.0587 36.1478C71.7522 38.5493 67.7288 39.758 63.6461 39.5767C58.9599 39.4583 54.4945 37.5604 51.157 34.2685C51.1413 34.2399 51.1331 34.2078 51.1331 34.1752C51.1331 34.1426 51.1413 34.1105 51.157 34.0819C55.5132 29.7183 59.8736 25.3593 64.2382 21.0049C64.3411 20.91 64.4746 20.8549 64.6145 20.8501C70.7421 20.8426 76.8706 20.8406 82.9999 20.8437L82.9984 21.2957Z" fill="#2FC8E0"/>
<path d="M21.2962 83.0768C21.8234 83.0406 22.3543 83.0274 22.8775 82.9634C28.4347 82.2787 32.8875 79.6874 36.1486 75.1376C38.5497 71.8309 39.7585 67.8076 39.5773 63.725C39.4588 59.0388 37.5609 54.5735 34.2691 51.236C34.2404 51.2205 34.2083 51.2123 34.1757 51.2123C34.1431 51.2123 34.1111 51.2205 34.0824 51.236C29.7185 55.5922 25.3594 59.9522 21.0052 64.3166C20.9107 64.4197 20.856 64.5532 20.851 64.693C20.8436 70.8206 20.8414 76.9494 20.8445 83.0789L21.2962 83.0768Z" fill="#2FC8E0"/>
<path d="M0.00143563 61.7822C0.0376224 61.2546 0.0510038 60.7244 0.115778 60.2012C0.799707 54.6444 3.39176 50.1909 7.94116 46.9301C11.2479 44.5291 15.2712 43.3204 19.3537 43.5012C24.04 43.6197 28.5054 45.5176 31.8429 48.8094C31.8585 48.8381 31.8668 48.8701 31.8668 48.9027C31.8668 48.9354 31.8585 48.9674 31.8429 48.996C27.4867 53.3599 23.1264 57.719 18.7621 62.0734C18.6589 62.168 18.5253 62.223 18.3854 62.2279C12.2578 62.2353 6.12931 62.2374 0 62.2342L0.00143563 61.7822Z" fill="#2FC8E0"/>
<path fill-rule="evenodd" clip-rule="evenodd" d="M41.9278 208.752L41.2056 208.555C39.5727 208.143 38.0755 207.32 36.8598 206.165C35.644 205.011 34.7512 203.564 34.2682 201.967C33.7852 200.369 33.7286 198.675 34.1038 197.05C34.479 195.424 35.2733 193.923 36.4093 192.691C37.6954 191.293 39.3564 190.284 41.1991 189.783L41.8912 189.6L41.8912 189.612L43.0713 189.369C45.3268 188.914 47.4398 187.932 49.2342 186.506C49.443 186.34 49.6556 186.155 49.8505 185.986L50.0991 185.772L50.1273 185.748L50.6574 185.225L50.7676 185.087C50.8681 184.966 50.9806 184.834 51.0987 184.695C51.3857 184.357 51.7106 183.977 51.9782 183.595C53.8172 181.01 54.7324 177.892 54.5791 174.734C54.4257 171.577 53.2125 168.56 51.1315 166.161C49.1344 163.838 46.4295 162.219 43.4231 161.547C43.3407 161.528 43.2481 161.509 43.1722 161.493C43.1398 161.487 43.112 161.481 43.0898 161.476L41.9079 161.224L41.9079 161.27L41.2079 161.078C39.575 160.667 38.0777 159.843 36.8618 158.689C35.646 157.534 34.7531 156.088 34.2701 154.491C33.7872 152.893 33.7305 151.199 34.1058 149.574C34.4811 147.948 35.2755 146.446 36.4116 145.215C37.6973 143.817 39.3574 142.809 41.1991 142.307L41.9134 142.117L41.9134 142.054L43.0708 141.816C45.3262 141.361 47.4391 140.379 49.2338 138.953C49.4426 138.787 49.6551 138.602 49.85 138.433L50.0986 138.219L50.1269 138.195L50.6569 137.672L50.7671 137.534C50.8676 137.413 50.9801 137.282 51.0981 137.142C51.3852 136.805 51.7102 136.424 51.9778 136.043C53.8167 133.458 54.7319 130.339 54.5786 127.182C54.4252 124.024 53.212 121.007 51.131 118.608C49.1339 116.285 46.429 114.666 43.4227 113.994C43.3403 113.975 43.2477 113.956 43.1717 113.94C43.1393 113.934 43.1116 113.928 43.0894 113.923L41.9292 113.676L41.9292 113.651L41.2069 113.453C39.574 113.041 38.0767 112.218 36.8609 111.064C35.645 109.909 34.7521 108.463 34.2691 106.866C33.7861 105.268 33.7296 103.574 34.1048 101.949C34.4801 100.323 35.2745 98.8217 36.4106 97.5903C37.6967 96.1925 39.3571 95.1844 41.1991 94.6831L41.9134 94.4926L41.9231 93.7596C41.9254 93.4948 41.9254 93.2277 41.9254 92.9684L41.9254 92.7036L41.9292 89.9115L40.7472 90.1548C38.4919 90.6103 36.3791 91.5919 34.5843 93.0179C34.3778 93.1833 34.1629 93.3693 33.968 93.5374C33.8801 93.6139 33.7977 93.6863 33.7213 93.7518L33.6912 93.7756L33.1634 94.2992L33.0532 94.4367L33.0509 94.4367C32.9528 94.5581 32.8402 94.69 32.7217 94.8293C32.4328 95.1664 32.1097 95.5471 31.8388 95.9287C30.0002 98.5141 29.0854 101.632 29.2392 104.79C29.393 107.948 30.6066 110.964 32.6879 113.363C34.6855 115.686 37.3911 117.305 40.3981 117.976C40.4806 117.996 40.5727 118.015 40.6491 118.031L40.7315 118.048L41.8889 118.295L41.8889 118.32L42.6093 118.517C44.2422 118.929 45.7394 119.752 46.9553 120.907C48.1711 122.061 49.064 123.508 49.547 125.105C50.03 126.703 50.0866 128.397 49.7113 130.022C49.336 131.648 48.5417 133.149 47.4056 134.381C46.1202 135.778 44.4606 136.787 42.6194 137.289L41.9051 137.479L41.9051 137.542L40.7477 137.781C38.4925 138.236 36.3796 139.218 34.5847 140.644C34.3782 140.809 34.1634 140.995 33.9685 141.163C33.8805 141.239 33.7981 141.312 33.7217 141.377L33.6917 141.401L33.1639 141.924L33.0537 142.062L33.0514 142.062C32.9532 142.183 32.8407 142.315 32.7222 142.454C32.4333 142.792 32.1101 143.172 31.8393 143.554C30.0007 146.139 29.086 149.258 29.2398 152.415C29.3935 155.573 30.6071 158.59 32.6884 160.988C34.6857 163.312 37.3914 164.931 40.3986 165.602C40.481 165.621 40.5731 165.641 40.6495 165.656C40.6796 165.663 40.7078 165.668 40.7319 165.674L41.9139 165.925L41.9139 165.879L42.612 166.071C44.2449 166.482 45.7422 167.306 46.958 168.46C48.1739 169.615 49.0668 171.061 49.5498 172.659C50.0328 174.256 50.0894 175.95 49.7141 177.575C49.3388 179.201 48.5444 180.703 47.4083 181.934C46.1233 183.332 44.4636 184.341 42.6222 184.842L41.9278 185.025L41.9278 185.013L40.7458 185.256C38.4906 185.712 36.3777 186.693 34.5828 188.119C34.3764 188.284 34.1616 188.47 33.9667 188.638C33.8787 188.715 33.7963 188.787 33.7199 188.852L33.6898 188.876L33.162 189.4L33.0518 189.537L33.0495 189.537C32.9513 189.659 32.8389 189.791 32.7204 189.93C32.4315 190.267 32.1083 190.648 31.8375 191.029C29.9989 193.615 29.0841 196.733 29.2378 199.891C29.3916 203.049 30.6052 206.065 32.6866 208.464C34.6842 210.787 37.3897 212.406 40.3967 213.078C40.4791 213.097 40.5713 213.116 40.6477 213.132L40.7301 213.149L41.912 213.401L41.9278 208.752ZM39.9671 91.3449C39.9921 91.338 40.0171 91.3321 40.0421 91.3252C39.9815 91.3417 39.9204 91.3586 39.8602 91.376C39.8958 91.3637 39.9315 91.3527 39.9671 91.3426L39.9671 91.3449ZM34.6352 94.2502C34.8204 94.0899 35.0055 93.9295 35.1968 93.7761C35.0065 93.9291 34.8199 94.0899 34.6352 94.2502ZM33.0245 95.9841C33.1579 95.8206 33.2953 95.6594 33.4328 95.4986C33.2939 95.6598 33.1579 95.8192 33.0245 95.9841C32.8912 96.1491 32.7615 96.3144 32.6402 96.4881C32.7615 96.3121 32.8912 96.1459 33.0245 95.9819L33.0245 95.9841ZM42.869 140.869C42.8871 140.865 42.9051 140.861 42.9227 140.857C42.9051 140.857 42.8871 140.863 42.869 140.867L42.869 140.869ZM43.8505 140.631C43.8176 140.64 43.7842 140.648 43.7514 140.657C43.8338 140.634 43.9157 140.611 43.9972 140.588C43.9481 140.6 43.8996 140.615 43.8505 140.628L43.8505 140.631ZM49.1806 137.725C48.9954 137.886 48.8102 138.046 48.619 138.2C48.8116 138.047 48.9963 137.886 49.1806 137.725ZM39.9676 138.969C39.9921 138.962 40.0171 138.956 40.0417 138.95C39.9819 138.966 39.9222 138.982 39.863 139C39.8977 138.988 39.9324 138.979 39.9671 138.967L39.9676 138.969ZM53.6162 175.44C53.6183 174.109 53.4172 172.785 53.0199 171.513C53.6237 173.446 53.7715 175.491 53.4518 177.489C53.1321 179.488 52.3536 181.387 51.176 183.042C52.7582 180.815 53.61 178.16 53.6157 175.438L53.6162 175.44ZM43.8509 188.183C43.8213 188.192 43.7912 188.199 43.7616 188.206C43.8357 188.186 43.9092 188.166 43.9828 188.145C43.9384 188.155 43.8949 188.168 43.8505 188.179L43.8509 188.183ZM48.6194 185.752C48.812 185.599 48.9968 185.438 49.181 185.278C48.9963 185.436 48.812 185.598 48.6194 185.752ZM39.9676 186.445C39.9926 186.438 40.0185 186.432 40.0435 186.425C39.9815 186.442 39.9199 186.459 39.8583 186.477C39.8944 186.464 39.9305 186.452 39.9671 186.442L39.9676 186.445ZM35.1991 188.876C35.0088 189.028 34.8222 189.19 34.6375 189.35C34.8199 189.187 35.0065 189.026 35.1967 188.873L35.1991 188.876ZM31.8657 192.82C30.9935 194.387 30.4508 196.112 30.2704 197.892C30.4496 196.112 30.9914 194.385 31.8629 192.817L31.8657 192.82ZM30.2041 199.106C30.1833 201.447 30.7923 203.752 31.9685 205.784C30.7908 203.752 30.1809 201.446 30.2013 199.103L30.2041 199.106Z" fill="#FED670"/>
</svg>
