<svg width="468" height="385" viewBox="0 0 468 385" fill="none" xmlns="http://www.w3.org/2000/svg">
<path d="M337.858 442.852L274.731 382.843C274.731 382.843 221.464 347.477 198.651 331.511C175.837 315.545 145.741 281.305 133.678 246.127C121.615 210.948 101.92 158.825 101.92 158.825C101.92 158.825 99.0886 145.279 120.054 149.38C141.02 153.481 143.5 168.356 143.5 168.356C143.5 168.356 161.351 168.081 166.946 187.333C166.946 187.333 179.267 189.157 183.953 201.058C188.64 212.959 196.545 234.243 196.545 234.243L217.824 239.849C217.824 239.849 203.932 230.499 218.497 213.002C218.497 213.002 228.467 204.271 241.821 215.957C255.175 227.643 302.94 275.782 302.94 275.782C302.94 275.782 317.612 292.348 316.673 319.174L389.888 391.134C389.888 391.134 384.622 438.103 337.858 442.852Z" fill="#FED670" stroke="#020202" stroke-width="1.25782" stroke-miterlimit="10"/>
<path d="M337.857 442.853L274.73 382.844C274.73 382.844 194.609 332.153 173.727 309.441C152.846 286.729 136.664 254.909 131.953 241.137C127.242 227.365 101.918 158.825 101.918 158.825C101.918 158.825 99.9045 147.048 116.224 148.788C132.544 150.528 139.123 157.955 143.496 168.351L169.973 237.906C169.973 237.906 186.694 274.312 235.281 257.244" stroke="#191919" stroke-width="2.51564" stroke-miterlimit="10"/>
<path d="M189.216 245.825L166.023 184.631C166.023 184.631 161.166 168.744 143.49 168.355" stroke="#191919" stroke-width="2.51564" stroke-miterlimit="10"/>
<path d="M200.244 244.463L183.001 198.98C183.001 198.98 175.681 187.479 167.057 187.351" stroke="#191919" stroke-width="2.51564" stroke-miterlimit="10"/>
<path d="M257.852 279.548L215.643 237.852C215.643 237.852 206.798 227.34 217.898 213.73C217.898 213.73 228.671 203.727 240.679 214.999L303.937 276.041C303.937 276.041 316.862 289.05 316.223 326.568" stroke="#191919" stroke-width="2.51564" stroke-miterlimit="10"/>
<path d="M196.384 234.281L217.707 239.897" stroke="#191919" stroke-width="2.51564" stroke-miterlimit="10"/>
<path d="M337.718 442.458L274.592 382.451C274.592 382.451 221.329 347.086 198.511 331.119C175.694 315.153 145.604 280.909 133.539 245.734C121.474 210.56 101.781 158.433 101.781 158.433C101.781 158.433 98.9489 144.887 119.914 148.987C140.879 153.087 143.357 167.961 143.357 167.961C143.357 167.961 161.208 167.686 166.803 186.939C166.803 186.939 179.123 188.761 183.81 200.664C188.497 212.566 196.402 233.848 196.402 233.848L217.68 239.453C217.68 239.453 203.788 230.105 218.353 212.608C218.353 212.608 228.323 203.877 241.677 215.562C255.031 227.248 302.797 275.391 302.797 275.391C302.797 275.391 317.47 291.957 316.531 318.782L389.746 390.743C389.746 390.743 384.481 437.712 337.718 442.458Z" stroke="#020202" stroke-width="2.51564" stroke-miterlimit="10"/>
<path d="M28.7734 -16.8978C28.7734 -16.8978 -16.0258 2.59056 -7.04315 50.8249L91.4168 104.005C91.4168 104.005 100.439 124.218 122.026 135.633C143.614 147.048 201.891 178.086 201.891 178.086C201.891 178.086 215.395 182.311 221.208 171.041C227.022 159.772 217.695 150.937 217.695 150.937L173.004 125.987C173.004 125.987 220.318 96.1391 271.28 102.452C271.28 102.452 267.372 76.0534 239.512 59.3547C239.512 59.3547 220.401 49.9384 135.629 39.6965L28.7734 -16.8978Z" fill="#FED670" stroke="#020202" stroke-width="2.51564" stroke-miterlimit="10"/>
<path d="M243.079 115.135L250.982 126.145L250.603 126.094L242.699 115.084L243.079 115.135Z" fill="#3B2780"/>
<path d="M244.993 115.615L252.896 126.626L250.983 126.145L243.079 115.134L244.993 115.615Z" fill="#3B2780"/>
<path d="M263.109 127.264L271.013 138.274C267.044 133.471 261.867 129.812 256.015 127.673C254.987 127.29 253.933 126.974 252.899 126.626L244.995 115.616C246.029 115.963 247.083 116.279 248.111 116.663C253.963 118.802 259.14 122.461 263.109 127.264Z" fill="#3D2885"/>
<path d="M263.109 127.264L271.013 138.274C267.044 133.471 261.867 129.812 256.015 127.673C254.987 127.29 253.933 126.974 252.899 126.626L244.995 115.616C246.029 115.963 247.083 116.279 248.111 116.663C253.963 118.802 259.14 122.461 263.109 127.264Z" fill="#3D2885"/>
<path d="M242.7 115.085L250.604 126.095C248.735 125.831 246.893 125.45 244.997 125.319C240.926 125.036 236.837 125.322 232.846 126.171L224.941 115.162C228.932 114.312 233.022 114.025 237.092 114.31C238.989 114.44 240.83 114.821 242.7 115.085Z" fill="#3D2885"/>
<path d="M224.941 115.163L232.845 126.172C231.073 126.547 229.325 127.026 227.609 127.606L219.705 116.595C221.42 116.015 223.169 115.537 224.941 115.163Z" fill="#3F2A8A"/>
<path d="M219.706 116.596L227.61 127.607C226.213 128.079 224.84 128.616 223.49 129.217L215.586 118.207C216.934 117.606 218.308 117.069 219.706 116.596Z" fill="#422B8F"/>
<path d="M215.584 118.207L223.488 129.217C222.291 129.751 221.116 130.335 219.962 130.967L212.058 119.957C213.21 119.325 214.385 118.742 215.584 118.207Z" fill="#442D94"/>
<path d="M212.059 119.957L219.963 130.968C218.879 131.562 217.818 132.197 216.78 132.873L208.876 121.862C209.912 121.185 210.973 120.55 212.059 119.957Z" fill="#462E99"/>
<path d="M208.876 121.865L216.78 132.876C215.774 133.532 214.793 134.226 213.836 134.957L205.932 123.948C206.888 123.217 207.869 122.523 208.876 121.865Z" fill="#49309E"/>
<path d="M205.932 123.948L213.836 134.958C212.885 135.686 211.961 136.448 211.065 137.246L203.16 126.236C204.057 125.438 204.98 124.675 205.932 123.948Z" fill="#4B31A3"/>
<path d="M203.16 126.236L211.064 137.246C210.146 138.063 209.261 138.916 208.407 139.805L200.503 128.794C201.355 127.907 202.241 127.055 203.16 126.236" fill="#4D33A8"/>
<path d="M200.503 128.792L208.407 139.803C207.509 140.736 206.65 141.706 205.829 142.713L197.925 131.703C198.745 130.696 199.605 129.726 200.504 128.792" fill="#5034AD"/>
<path d="M197.925 131.703L205.829 142.713C204.909 143.843 204.042 145.015 203.228 146.23L195.324 135.219C196.136 134.004 197.003 132.832 197.924 131.703" fill="#5236B3"/>
<path d="M195.323 135.221L203.227 146.231C202.233 147.719 201.326 149.264 200.514 150.858L192.61 139.847C193.423 138.253 194.329 136.708 195.323 135.221Z" fill="#5437B8"/>
<path d="M192.61 139.847L200.514 150.858C200.239 151.397 199.975 151.942 199.723 152.493C198.448 155.248 197.465 158.128 196.79 161.088L188.886 150.078C189.561 147.118 190.544 144.237 191.819 141.482C192.072 140.931 192.336 140.386 192.61 139.847Z" fill="#5739BD"/>
<path d="M188.887 150.078L196.791 161.088C196.587 161.996 196.417 162.903 196.279 163.81L188.375 152.8C188.513 151.892 188.684 150.984 188.887 150.078Z" fill="#593BC2"/>
<path d="M188.375 152.8L196.279 163.81C195.765 167.193 195.711 170.629 196.119 174.026L188.215 163.015C187.807 159.618 187.861 156.182 188.375 152.8Z" fill="#5739BD"/>
<path d="M188.216 163.016L196.12 174.026C196.264 175.214 196.461 176.4 196.711 177.585C196.782 177.89 196.852 178.194 196.929 178.5L189.025 167.489C188.948 167.184 188.878 166.88 188.807 166.575C188.555 165.389 188.357 164.202 188.216 163.016Z" fill="#5437B8"/>
<path d="M196.718 163.105L204.622 174.116L204.619 174.124L196.716 163.114L196.718 163.105Z" fill="#B8B8B8"/>
<path d="M196.719 163.115L204.623 174.125C204.625 174.144 204.624 174.163 204.621 174.182L196.717 163.172C196.721 163.153 196.721 163.134 196.719 163.115Z" fill="#BDBDBD"/>
<path d="M196.717 163.172L204.621 174.182L204.615 174.204L196.711 163.193L196.717 163.172Z" fill="#C2C2C2"/>
<path d="M196.713 163.193L204.617 174.204C204.609 174.238 204.598 174.271 204.582 174.301L196.678 163.29C196.694 163.26 196.706 163.227 196.713 163.193Z" fill="#BDBDBD"/>
<path d="M196.678 163.291L204.582 174.301C204.576 174.312 204.57 174.323 204.563 174.333L196.66 163.322C196.667 163.312 196.673 163.302 196.678 163.291Z" fill="#B8B8B8"/>
<path d="M196.655 163.321L204.559 174.332L204.546 174.35L196.643 163.34L196.655 163.321Z" fill="#B3B3B3"/>
<path d="M196.65 163.342L204.554 174.352L204.545 174.363L196.641 163.353L196.65 163.342Z" fill="#ADADAD"/>
<path d="M196.638 163.352L204.541 174.362L204.533 174.37L196.63 163.359L196.638 163.352Z" fill="#A8A8A8"/>
<path d="M196.629 163.359L204.532 174.37L204.526 174.375L196.622 163.364L196.629 163.359Z" fill="#A3A3A3"/>
<path d="M196.623 163.364L204.526 174.375L204.52 174.379L196.616 163.369L196.623 163.364Z" fill="#9E9E9E"/>
<path d="M196.616 163.369L204.52 174.379L204.514 174.383L196.61 163.372L196.616 163.369Z" fill="#999999"/>
<path d="M196.611 163.373L204.515 174.384C202.029 175.744 199.536 177.1 197.034 178.452L189.13 167.442C191.626 166.092 194.12 164.735 196.611 163.373Z" fill="#949494"/>
<path d="M192.09 174.796L199.993 185.806L192.09 174.796Z" fill="#462E99"/>
<path d="M192.089 174.795L199.993 185.806L199.986 185.811L192.083 174.8L192.089 174.795Z" fill="#49309E"/>
<path d="M192.08 174.801L199.983 185.812L199.975 185.819L192.072 174.808L192.08 174.801Z" fill="#4B31A3"/>
<path d="M192.072 174.808L199.976 185.818L199.966 185.827L192.063 174.817L192.072 174.808Z" fill="#4D33A8"/>
<path d="M192.063 174.817L199.966 185.827L199.954 185.841L192.05 174.831L192.063 174.817Z" fill="#5034AD"/>
<path d="M192.05 174.831L199.954 185.841C199.947 185.849 199.94 185.858 199.935 185.867L192.031 174.856C192.037 174.847 192.043 174.839 192.05 174.831Z" fill="#5236B3"/>
<path d="M192.032 174.857L199.935 185.867C199.925 185.883 199.915 185.9 199.906 185.917L192.002 174.908C192.011 174.89 192.021 174.873 192.032 174.857Z" fill="#5437B8"/>
<path d="M192.002 174.908L199.905 185.917C199.88 185.967 199.861 186.019 199.849 186.074L191.945 175.063C191.958 175.009 191.977 174.956 192.002 174.906" fill="#5739BD"/>
<path d="M191.945 175.064L199.848 186.075L199.842 186.101L191.938 175.09L191.945 175.064Z" fill="#593BC2"/>
<path d="M191.939 175.091L199.843 186.101C199.839 186.123 199.838 186.146 199.84 186.168L191.936 175.158C191.934 175.135 191.935 175.113 191.939 175.091Z" fill="#5739BD"/>
<path d="M191.937 175.158L199.841 186.168L199.843 186.184L191.94 175.173L191.937 175.158Z" fill="#5437B8"/>
<path d="M191.939 175.173L199.843 186.183L199.845 186.192L191.942 175.181L191.939 175.173Z" fill="#5236B3"/>
<path d="M191.941 175.185L199.845 186.196L191.941 175.185Z" fill="#5034AD"/>
<path d="M255.572 131.342L263.476 142.352C259.488 138.345 254.48 135.504 248.994 134.137C248.548 134.025 248.098 133.922 247.642 133.827C243.084 132.91 238.386 132.945 233.842 133.931L225.938 122.92C230.482 121.935 235.18 121.899 239.738 122.817C240.194 122.911 240.644 123.014 241.09 123.127C246.576 124.494 251.583 127.335 255.572 131.342Z" fill="#858585"/>
<path d="M225.937 122.921L233.841 133.931C232.41 134.234 230.998 134.62 229.613 135.089L221.709 124.078C223.094 123.61 224.506 123.223 225.937 122.921Z" fill="#8A8A8A"/>
<path d="M221.711 124.079L229.614 135.09C228.485 135.47 227.375 135.904 226.283 136.392L218.379 125.381C219.471 124.895 220.582 124.461 221.711 124.079Z" fill="#8F8F8F"/>
<path d="M218.378 125.379L226.282 136.39C225.311 136.82 224.358 137.292 223.423 137.806L215.519 126.795C216.454 126.283 217.407 125.811 218.378 125.379Z" fill="#949494"/>
<path d="M215.523 126.798L223.427 137.809C222.554 138.287 221.699 138.799 220.862 139.345L212.958 128.335C213.795 127.789 214.65 127.277 215.523 126.798Z" fill="#999999"/>
<path d="M212.958 128.336L220.862 139.346C220.06 139.869 219.277 140.423 218.513 141.007L210.61 129.996C211.373 129.412 212.156 128.859 212.958 128.336Z" fill="#9E9E9E"/>
<path d="M210.609 129.996L218.513 141.007C217.758 141.584 217.024 142.19 216.311 142.824L208.407 131.814C209.12 131.18 209.854 130.573 210.61 129.993" fill="#A3A3A3"/>
<path d="M208.408 131.814L216.312 142.824C215.59 143.467 214.893 144.137 214.221 144.835L206.317 133.825C206.988 133.127 207.685 132.457 208.408 131.814Z" fill="#A8A8A8"/>
<path d="M206.316 133.825L214.22 144.835C213.511 145.573 212.831 146.34 212.18 147.138L204.276 136.128C204.925 135.33 205.605 134.562 206.316 133.825Z" fill="#ADADAD"/>
<path d="M204.276 136.128L212.18 147.138C211.47 148.011 210.799 148.918 210.167 149.86L202.263 138.85C202.893 137.908 203.564 137.001 204.276 136.128Z" fill="#B3B3B3"/>
<path d="M202.264 138.85L210.168 149.86C210.138 149.904 210.109 149.947 210.08 149.99C209.243 151.249 208.477 152.554 207.789 153.9L199.885 142.889C200.574 141.543 201.339 140.239 202.176 138.981C202.206 138.937 202.234 138.893 202.264 138.85Z" fill="#B8B8B8"/>
<path d="M199.885 142.89L207.788 153.901C206.505 156.39 205.539 159.031 204.912 161.761L197.009 150.751C197.635 148.021 198.601 145.38 199.885 142.89Z" fill="#BDBDBD"/>
<path d="M197.009 150.751L204.913 161.76C204.759 162.442 204.628 163.126 204.52 163.813L196.616 152.802C196.724 152.116 196.854 151.432 197.009 150.751Z" fill="#C2C2C2"/>
<path d="M196.617 152.802L204.52 163.813C204.077 166.67 204.03 169.575 204.379 172.445L196.475 161.435C196.126 158.565 196.174 155.66 196.617 152.802Z" fill="#BDBDBD"/>
<path d="M196.476 161.436L204.38 172.445C204.446 173 204.528 173.557 204.626 174.116L196.722 163.106C196.627 162.548 196.546 161.992 196.48 161.437" fill="#B8B8B8"/>
<path d="M258.548 129.736L266.452 140.746C265.461 141.284 264.469 141.829 263.476 142.352L255.572 131.342C256.567 130.82 257.558 130.274 258.547 129.736" fill="#949494"/>
<path d="M263.109 127.264L271.013 138.274C267.044 133.471 261.867 129.812 256.015 127.673C254.987 127.29 253.933 126.974 252.899 126.626L244.995 115.616C246.029 115.963 247.083 116.279 248.111 116.663C253.963 118.802 259.14 122.461 263.109 127.264Z" fill="#3D2885"/>
<path d="M244.994 115.618C246.029 115.965 247.082 116.281 248.111 116.665C253.923 118.787 259.073 122.405 263.04 127.154L258.546 129.743C257.557 130.28 256.563 130.826 255.572 131.348C251.583 127.342 246.575 124.501 241.09 123.133C240.644 123.021 240.194 122.918 239.738 122.823C225.894 119.947 210.391 126.6 202.177 138.984C197.083 146.659 195.294 154.723 196.717 163.108C196.721 163.158 196.713 163.207 196.695 163.253C196.676 163.3 196.647 163.341 196.61 163.374C194.124 164.736 191.631 166.092 189.129 167.444C188.965 167.178 188.856 166.883 188.806 166.575C187.014 158.108 188.072 149.287 191.815 141.484C199.775 124.148 218.386 112.978 237.089 114.314C238.986 114.444 240.827 114.826 242.696 115.089L243.076 115.14L244.994 115.618Z" fill="#CDCDCD"/>
<path d="M263.037 127.15L270.941 138.161L266.449 140.745L258.545 129.734L263.037 127.15Z" fill="#A4A4A4"/>
<path d="M263.109 127.264L271.013 138.274C267.044 133.471 261.867 129.812 256.015 127.673C254.987 127.29 253.933 126.974 252.899 126.626L244.995 115.616C246.029 115.963 247.083 116.279 248.111 116.663C253.963 118.802 259.14 122.461 263.109 127.264Z" fill="#CDCDCD"/>
<path d="M191.946 175.185L199.85 186.196C200.334 187.104 200.846 187.982 201.385 188.83L193.482 177.82C192.942 176.973 192.43 176.095 191.946 175.186" fill="#4D33A8"/>
<path d="M193.484 177.82L201.388 188.83C201.747 189.391 202.117 189.939 202.498 190.474L194.595 179.463C194.211 178.929 193.841 178.382 193.484 177.82Z" fill="#4B31A3"/>
<path d="M229.375 154.549L237.279 165.56C224.848 172.297 212.419 179.045 199.995 185.804L192.091 174.794C204.517 168.033 216.945 161.285 229.375 154.55" fill="#442D94"/>
<path d="M230.274 154.428L238.177 165.438C237.993 165.398 237.802 165.398 237.617 165.438L229.714 154.428C229.898 154.387 230.089 154.387 230.274 154.428Z" fill="#3D2885"/>
<path d="M229.714 154.428L237.618 165.438C237.564 165.449 237.511 165.464 237.46 165.482L229.556 154.471C229.608 154.453 229.661 154.438 229.714 154.427" fill="#3F2A8A"/>
<path d="M229.556 154.471L237.459 165.482C237.418 165.496 237.378 165.512 237.338 165.529L229.435 154.519C229.474 154.501 229.515 154.485 229.556 154.471Z" fill="#422B8F"/>
<path d="M229.434 154.519L237.338 165.529C237.318 165.538 237.297 165.548 237.277 165.558L229.374 154.547C229.393 154.537 229.414 154.528 229.434 154.519Z" fill="#442D94"/>
<path d="M259.235 139.961L267.138 150.972L267.111 150.99C266.938 151.104 266.771 151.223 266.608 151.347L258.704 140.337C258.867 140.213 259.035 140.093 259.207 139.981L259.235 139.961Z" fill="#49309E"/>
<path d="M256.316 143.19L264.219 154.2C264.084 154.463 263.965 154.734 263.86 155.012C263.739 155.334 263.64 155.665 263.565 156.001L255.661 144.99C255.737 144.655 255.836 144.325 255.957 144.002C256.061 143.725 256.18 143.453 256.316 143.19Z" fill="#5739BD"/>
<path d="M264.155 138.582L272.059 149.593C271.379 149.559 270.697 149.614 270.032 149.757L262.128 138.746C262.793 138.603 263.475 138.548 264.155 138.582Z" fill="#3D2885"/>
<path d="M262.127 138.746L270.031 149.756C269.715 149.824 269.404 149.909 269.099 150.013L261.195 139.002C261.501 138.899 261.812 138.814 262.128 138.746" fill="#3F2A8A"/>
<path d="M261.196 139.003L269.1 150.013C268.852 150.096 268.608 150.192 268.367 150.299L260.463 139.289C260.704 139.181 260.948 139.085 261.195 139.002" fill="#422B8F"/>
<path d="M260.464 139.289L268.368 150.299C268.155 150.394 267.946 150.499 267.739 150.612L259.835 139.602C260.042 139.485 260.251 139.385 260.464 139.289Z" fill="#442D94"/>
<path d="M259.836 139.602L267.74 150.612C267.539 150.724 267.339 150.843 267.142 150.969L259.238 139.958C259.434 139.83 259.633 139.711 259.836 139.601" fill="#462E99"/>
<path d="M259.235 139.961L267.139 150.972L267.112 150.99C266.94 151.104 266.772 151.223 266.609 151.347L258.705 140.337C258.868 140.212 259.036 140.093 259.208 139.98L259.235 139.961Z" fill="#49309E"/>
<path d="M258.708 140.337L266.612 151.347C266.441 151.479 266.276 151.616 266.115 151.757L258.211 140.747C258.372 140.605 258.537 140.468 258.708 140.337Z" fill="#4B31A3"/>
<path d="M258.21 140.747L266.114 151.757C265.948 151.905 265.79 152.058 265.636 152.216L257.732 141.206C257.886 141.048 258.044 140.894 258.21 140.747Z" fill="#4D33A8"/>
<path d="M257.733 141.206L265.637 152.216C265.474 152.386 265.318 152.561 265.17 152.742L257.267 141.732C257.415 141.551 257.57 141.375 257.733 141.206Z" fill="#5034AD"/>
<path d="M257.267 141.732L265.171 152.743C265.003 152.945 264.848 153.155 264.705 153.372L256.802 142.36C256.947 142.144 257.102 141.934 257.268 141.73" fill="#5236B3"/>
<path d="M256.803 142.36L264.707 153.371C264.529 153.637 264.367 153.913 264.221 154.198L256.317 143.188C256.463 142.903 256.625 142.626 256.803 142.36Z" fill="#5437B8"/>
<path d="M256.315 143.189L264.219 154.199C264.084 154.463 263.965 154.734 263.86 155.011C263.739 155.334 263.641 155.664 263.565 156L255.661 144.989C255.737 144.654 255.835 144.324 255.956 144.002C256.06 143.724 256.18 143.453 256.315 143.189Z" fill="#5739BD"/>
<path d="M269.248 141.251L277.153 152.262C276.946 151.973 276.715 151.704 276.461 151.456C275.628 150.648 274.594 150.077 273.467 149.801C273.005 149.685 272.533 149.615 272.057 149.593L264.153 138.583C264.628 138.606 265.101 138.675 265.563 138.79C266.69 139.067 267.723 139.638 268.557 140.445C268.81 140.693 269.041 140.963 269.248 141.251Z" fill="#3D2885"/>
<path d="M256.315 143.19L264.219 154.2C264.084 154.464 263.965 154.735 263.86 155.012C263.739 155.335 263.64 155.665 263.565 156.001L255.661 144.99C255.737 144.655 255.835 144.325 255.956 144.002C256.06 143.725 256.18 143.453 256.315 143.19Z" fill="#5739BD"/>
<path d="M255.661 144.99L263.565 156.001C263.526 156.173 263.493 156.344 263.467 156.516L255.563 145.507C255.589 145.335 255.622 145.162 255.661 144.99Z" fill="#593BC2"/>
<path d="M255.563 145.507L263.467 156.516C263.401 156.95 263.374 157.389 263.389 157.828C263.397 158.012 263.411 158.195 263.431 158.376L255.527 147.366C255.505 147.188 255.491 147.001 255.485 146.817C255.471 146.379 255.497 145.94 255.563 145.507Z" fill="#5739BD"/>
<path d="M255.566 145.508L263.469 156.517C263.402 156.951 263.376 157.39 263.391 157.828C263.399 158.013 263.413 158.195 263.433 158.376L255.529 147.366C255.507 147.189 255.493 147.002 255.487 146.818C255.473 146.379 255.499 145.941 255.566 145.508Z" fill="#5739BD"/>
<path d="M269.248 141.251L277.153 152.262C276.946 151.973 276.715 151.704 276.461 151.456C275.628 150.648 274.594 150.077 273.467 149.801C273.005 149.685 272.533 149.615 272.057 149.593L264.153 138.583C264.628 138.606 265.101 138.675 265.563 138.79C266.69 139.067 267.723 139.638 268.557 140.445C268.81 140.693 269.041 140.963 269.248 141.251Z" fill="#3D2885"/>
<path d="M255.565 145.508L263.469 156.517C263.402 156.951 263.376 157.39 263.39 157.828C263.399 158.013 263.413 158.196 263.433 158.376L255.529 147.366C255.507 147.189 255.493 147.002 255.487 146.818C255.473 146.379 255.499 145.941 255.565 145.508Z" fill="#5739BD"/>
<path d="M255.529 147.366L263.433 158.376C263.468 158.671 263.523 158.963 263.598 159.25L255.694 148.239C255.619 147.952 255.564 147.661 255.529 147.366Z" fill="#5437B8"/>
<path d="M255.693 148.243L263.597 159.254C263.658 159.486 263.732 159.714 263.819 159.938L255.915 148.927C255.828 148.704 255.754 148.475 255.693 148.243Z" fill="#5236B3"/>
<path d="M255.916 148.924L263.82 159.934C263.891 160.12 263.973 160.303 264.062 160.482L264.081 160.518L256.177 149.509L256.158 149.471C256.069 149.292 255.988 149.11 255.916 148.924Z" fill="#5034AD"/>
<path d="M255.918 148.923L263.821 159.934C263.893 160.12 263.974 160.302 264.064 160.481L264.082 160.517L256.179 149.508L256.16 149.471C256.071 149.292 255.99 149.109 255.918 148.923Z" fill="#5034AD"/>
<path d="M269.248 141.251L277.153 152.262C276.946 151.973 276.715 151.704 276.461 151.456C275.628 150.648 274.594 150.077 273.467 149.801C273.005 149.685 272.533 149.615 272.057 149.593L264.153 138.583C264.628 138.606 265.101 138.675 265.563 138.79C266.69 139.067 267.723 139.638 268.557 140.445C268.81 140.693 269.041 140.963 269.248 141.251Z" fill="#3D2885"/>
<path d="M255.918 148.923L263.821 159.934C263.893 160.12 263.974 160.303 264.063 160.481L264.082 160.518L256.179 149.508L256.16 149.471C256.071 149.292 255.99 149.109 255.918 148.923Z" fill="#5034AD"/>
<path d="M256.178 149.508L264.082 160.518C264.172 160.695 264.27 160.866 264.375 161.032L256.472 150.021C256.366 149.856 256.268 149.684 256.178 149.508Z" fill="#4D33A8"/>
<path d="M256.474 150.021L264.377 161.032C264.438 161.126 264.5 161.216 264.563 161.305L256.659 150.295C256.597 150.207 256.535 150.115 256.474 150.021Z" fill="#4B31A3"/>
<path d="M269.252 141.251L277.156 152.261C277.218 152.351 277.28 152.441 277.341 152.534L269.437 141.524C269.378 141.431 269.316 141.34 269.252 141.251Z" fill="#A3A3A3"/>
<path d="M269.436 141.523L277.339 152.534C277.446 152.701 277.544 152.872 277.633 153.048L269.729 142.037C269.639 141.861 269.541 141.69 269.436 141.523Z" fill="#A8A8A8"/>
<path d="M269.731 142.038L277.634 153.049C277.731 153.237 277.817 153.43 277.894 153.627L269.99 142.617C269.914 142.418 269.827 142.224 269.731 142.035" fill="#ADADAD"/>
<path d="M269.989 142.617L277.893 153.627C277.98 153.85 278.054 154.078 278.114 154.309L270.21 143.299C270.15 143.068 270.076 142.84 269.989 142.617Z" fill="#B3B3B3"/>
<path d="M270.211 143.299L278.115 154.309C278.191 154.599 278.247 154.894 278.282 155.191L270.378 144.181C270.343 143.884 270.287 143.589 270.211 143.299Z" fill="#B8B8B8"/>
<path d="M270.378 144.181L278.282 155.191C278.304 155.369 278.318 155.554 278.324 155.738C278.338 156.177 278.311 156.615 278.244 157.049L270.34 146.038C270.408 145.605 270.434 145.166 270.42 144.727C270.414 144.544 270.399 144.361 270.378 144.181Z" fill="#BDBDBD"/>
<path d="M270.341 146.038L278.245 157.049C278.22 157.209 278.19 157.368 278.154 157.528L270.251 146.517C270.286 146.355 270.317 146.198 270.341 146.038Z" fill="#C2C2C2"/>
<path d="M270.251 146.517L278.154 157.528C278.01 158.167 277.786 158.785 277.487 159.368L269.583 148.358C269.882 147.775 270.106 147.156 270.251 146.517Z" fill="#BDBDBD"/>
<path d="M269.582 148.358L277.486 159.368C277.34 159.654 277.177 159.932 276.998 160.199L269.094 149.188C269.273 148.921 269.436 148.644 269.582 148.358Z" fill="#B8B8B8"/>
<path d="M269.094 149.188L276.998 160.199C276.933 160.296 276.866 160.391 276.796 160.488C276.713 160.6 276.627 160.711 276.538 160.819L268.634 149.808C268.722 149.7 268.808 149.59 268.892 149.478C268.961 149.383 269.028 149.287 269.094 149.188Z" fill="#B3B3B3"/>
<path d="M268.637 149.806L276.541 160.817C276.391 161.001 276.234 161.179 276.07 161.349L268.166 150.339C268.33 150.167 268.487 149.99 268.637 149.806Z" fill="#ADADAD"/>
<path d="M268.162 150.338L276.066 161.348C275.91 161.508 275.749 161.662 275.585 161.811L267.681 150.8C267.847 150.653 268.008 150.498 268.162 150.338Z" fill="#A8A8A8"/>
<path d="M267.684 150.8L275.588 161.811C275.427 161.955 275.26 162.093 275.088 162.224L267.185 151.213C267.356 151.082 267.523 150.945 267.684 150.8Z" fill="#A3A3A3"/>
<path d="M267.184 151.214L275.088 162.225C274.916 162.356 274.74 162.481 274.56 162.6L266.656 151.59C266.837 151.472 267.013 151.347 267.184 151.214Z" fill="#9E9E9E"/>
<path d="M266.656 151.588L274.56 162.598C274.374 162.721 274.184 162.835 273.99 162.94L266.087 151.929C266.281 151.822 266.471 151.709 266.656 151.588Z" fill="#999999"/>
<path d="M266.087 151.929L273.991 162.94C273.785 163.052 273.575 163.156 273.361 163.253L265.457 152.242C265.671 152.146 265.882 152.041 266.087 151.929Z" fill="#949494"/>
<path d="M265.458 152.242L273.361 163.253C273.122 163.361 272.879 163.456 272.632 163.538L264.728 152.527C264.976 152.444 265.219 152.348 265.458 152.242Z" fill="#8F8F8F"/>
<path d="M264.729 152.528L272.633 163.538L272.573 163.558C272.276 163.657 271.974 163.74 271.667 163.805L263.763 152.794C264.07 152.729 264.372 152.647 264.669 152.547L264.729 152.528Z" fill="#8A8A8A"/>
<path d="M263.762 152.794L271.666 163.804C270.534 164.05 269.361 164.035 268.236 163.758C268.013 163.699 267.792 163.634 267.574 163.556C266.365 163.128 265.314 162.342 264.559 161.304L256.655 150.294C257.41 151.332 258.462 152.117 259.671 152.546C259.888 152.624 260.109 152.692 260.333 152.748C261.458 153.024 262.631 153.04 263.763 152.794" fill="#858585"/>
<path d="M265.566 138.791C266.693 139.068 267.726 139.639 268.56 140.447C269.709 141.581 270.375 143.115 270.42 144.729C270.455 146.437 269.917 148.108 268.893 149.477C267.835 150.911 266.359 151.984 264.668 152.548C263.272 153.027 261.767 153.097 260.332 152.751C260.108 152.695 259.887 152.628 259.67 152.549C258.146 152.013 256.888 150.91 256.156 149.47C255.744 148.644 255.514 147.739 255.484 146.816C255.455 145.856 255.615 144.9 255.955 144.002C256.589 142.352 257.728 140.945 259.209 139.981C260.666 138.999 262.399 138.509 264.155 138.583C264.631 138.606 265.104 138.676 265.566 138.791Z" fill="#CDCDCD"/>
<path d="M268.427 163.988L276.332 174.998C271.678 173.829 267.024 172.661 262.369 171.492C254.308 169.469 246.244 167.451 238.178 165.44L230.274 154.429C238.34 156.44 246.404 158.457 254.465 160.482C259.12 161.651 263.774 162.82 268.427 163.988Z" fill="#3D2885"/>
<path d="M268.427 163.989L276.331 174.999L275.98 175.936L268.077 164.925L268.427 163.989Z" fill="#CCCCCC"/>
<path d="M254.465 160.482C259.12 161.651 263.774 162.82 268.427 163.989L268.077 164.925C267.594 165.999 267.151 167.083 266.614 168.142C261.152 179.089 251.637 187.476 240.091 191.522C232.151 194.566 223.469 195.105 215.213 193.067C214.723 192.944 214.236 192.81 213.748 192.671C203.855 189.813 196.605 183.92 191.943 175.185C191.937 175.113 191.947 175.041 191.972 174.973C191.997 174.906 192.037 174.845 192.089 174.795C204.514 168.034 216.943 161.286 229.374 154.55C229.651 154.409 229.969 154.367 230.274 154.431C238.341 156.441 246.405 158.458 254.465 160.482Z" fill="#CDCDCD"/>
<path d="M268.079 164.923L275.982 175.933C275.505 176.993 275.065 178.069 274.537 179.116L266.633 168.105C267.162 167.059 267.602 165.982 268.079 164.923Z" fill="#BDBDBD"/>
<path d="M266.634 168.103L274.538 179.114L274.522 179.144C273.607 180.929 272.59 182.659 271.476 184.327L263.572 173.316C264.686 171.648 265.703 169.918 266.618 168.134L266.634 168.103Z" fill="#B8B8B8"/>
<path d="M263.57 173.319L271.474 184.329C270.626 185.592 269.73 186.806 268.784 187.969L260.881 176.959C261.826 175.798 262.723 174.585 263.57 173.319Z" fill="#B3B3B3"/>
<path d="M260.882 176.959L268.786 187.97C267.975 188.964 267.128 189.92 266.245 190.839L258.342 179.828C259.225 178.911 260.072 177.955 260.883 176.959" fill="#ADADAD"/>
<path d="M258.338 179.827L266.242 190.838C265.431 191.679 264.589 192.486 263.717 193.26L255.814 182.249C256.685 181.474 257.527 180.666 258.338 179.827Z" fill="#A8A8A8"/>
<path d="M255.819 182.254L263.722 193.265C262.88 194.015 262.009 194.734 261.11 195.422L253.206 184.411C254.106 183.724 254.977 183.005 255.819 182.254Z" fill="#A3A3A3"/>
<path d="M253.208 184.411L261.111 195.422C260.204 196.116 259.267 196.779 258.301 197.409L250.398 186.399C251.364 185.769 252.301 185.106 253.208 184.411Z" fill="#9E9E9E"/>
<path d="M250.397 186.399L258.301 197.409C257.284 198.073 256.235 198.702 255.154 199.295L247.25 188.284C248.331 187.692 249.38 187.064 250.397 186.399Z" fill="#999999"/>
<path d="M247.25 188.284L255.153 199.295C253.958 199.952 252.722 200.564 251.447 201.132L243.543 190.122C244.818 189.553 246.054 188.941 247.25 188.284Z" fill="#949494"/>
<path d="M243.543 190.122L251.447 201.132C250.328 201.631 249.179 202.097 247.999 202.528C247.619 202.669 247.236 202.804 246.851 202.932L238.948 191.923C239.329 191.794 239.712 191.66 240.095 191.518C241.275 191.086 242.424 190.62 243.543 190.122Z" fill="#8F8F8F"/>
<path d="M238.946 191.922L246.85 202.932C245.136 203.515 243.39 203.996 241.62 204.374L233.717 193.363C235.486 192.986 237.233 192.504 238.946 191.922Z" fill="#8A8A8A"/>
<path d="M233.718 193.364L241.622 204.374C235.514 205.702 229.182 205.6 223.12 204.075C222.63 203.952 222.142 203.821 221.655 203.68C213.939 201.616 207.173 196.95 202.502 190.471L194.598 179.461C199.269 185.94 206.035 190.606 213.751 192.669C214.239 192.811 214.726 192.943 215.216 193.066C221.278 194.589 227.61 194.692 233.718 193.364Z" fill="#858585"/>
<path d="M282.033 112.357L289.588 122.948C290.143 123.727 290.677 124.52 291.19 125.328L283.634 114.736C283.122 113.929 282.588 113.136 282.033 112.357Z" fill="#4B31A3"/>
<path d="M283.635 114.736L291.19 125.328C292.106 126.771 292.952 128.258 293.727 129.789L286.172 119.198C285.396 117.672 284.551 116.185 283.635 114.736Z" fill="#4D33A8"/>
<path d="M286.172 119.198L293.727 129.789C294.557 131.427 295.302 133.107 295.96 134.822L288.406 124.227C287.748 122.512 287.003 120.833 286.174 119.195" fill="#5034AD"/>
<path d="M288.406 124.227L295.962 134.819C296.706 136.759 297.34 138.74 297.858 140.753L290.303 130.162C289.784 128.149 289.151 126.167 288.406 124.227Z" fill="#5236B3"/>
<path d="M290.302 130.165L297.858 140.757C298.495 143.229 298.962 145.744 299.257 148.282L291.702 137.69C291.407 135.152 290.939 132.638 290.302 130.165Z" fill="#5437B8"/>
<path d="M291.702 137.69L299.258 148.282C299.924 154.113 299.724 160.014 298.664 165.791L291.109 155.2C292.169 149.423 292.369 143.521 291.702 137.69Z" fill="#5739BD"/>
<path d="M291.109 155.2L298.664 165.791C298.546 166.449 298.416 167.108 298.274 167.768L290.719 157.177C290.86 156.517 290.99 155.858 291.109 155.2Z" fill="#593BC2"/>
<path d="M290.719 157.177L298.274 167.769C297.594 170.932 296.683 174.042 295.547 177.072C294.649 179.472 293.619 181.821 292.462 184.107L284.906 173.515C286.064 171.23 287.094 168.881 287.991 166.48C289.127 163.45 290.039 160.341 290.719 157.177Z" fill="#5739BD"/>
<path d="M284.904 173.518L292.46 184.109C291.191 186.611 289.776 189.034 288.22 191.366L280.665 180.774C282.22 178.442 283.636 176.019 284.904 173.518Z" fill="#5437B8"/>
<path d="M280.665 180.775L288.22 191.366C286.978 193.228 285.656 195.026 284.254 196.758L276.699 186.167C278.1 184.437 279.424 182.64 280.669 180.776" fill="#5236B3"/>
<path d="M276.696 186.166L284.251 196.758C282.978 198.33 281.643 199.845 280.247 201.302L272.691 190.711C274.085 189.255 275.42 187.739 276.696 186.166Z" fill="#5034AD"/>
<path d="M272.691 190.712L280.246 201.302C278.924 202.684 277.552 204.011 276.13 205.283L268.574 194.692C269.995 193.42 271.367 192.094 272.691 190.712Z" fill="#4D33A8"/>
<path d="M268.575 194.692L276.13 205.284C274.74 206.529 273.307 207.72 271.83 208.855L264.275 198.264C265.75 197.129 267.183 195.938 268.575 194.692Z" fill="#4B31A3"/>
<path d="M264.275 198.264L271.831 208.856C270.348 209.996 268.826 211.08 267.265 212.105L259.71 201.514C261.269 200.489 262.791 199.405 264.275 198.264Z" fill="#49309E"/>
<path d="M259.709 201.514L267.265 212.106C265.657 213.162 264.012 214.155 262.332 215.083L254.777 204.492C256.456 203.565 258.1 202.572 259.709 201.514Z" fill="#462E99"/>
<path d="M254.776 204.492L262.332 215.084C260.534 216.076 258.7 216.992 256.831 217.832L249.276 207.242C251.143 206.403 252.977 205.486 254.776 204.492Z" fill="#442D94"/>
<path d="M249.276 207.243L256.831 217.833C254.735 218.775 252.602 219.616 250.432 220.355L242.876 209.764C245.041 209.026 247.174 208.185 249.276 207.243Z" fill="#422B8F"/>
<path d="M242.877 209.764L250.432 220.356C247.799 221.253 245.116 221.995 242.397 222.577L234.842 211.986C237.561 211.404 240.244 210.662 242.877 209.764Z" fill="#3F2A8A"/>
<path d="M234.841 211.987L242.397 222.578C232.713 224.703 222.68 224.579 213.064 222.215C199.536 218.817 188.732 211.196 181.53 201.099L173.975 190.508C181.176 200.605 191.979 208.23 205.509 211.624C215.124 213.989 225.157 214.113 234.841 211.987Z" fill="#3D2885"/>
<path d="M252.715 91.3409C287.31 100.027 304.881 135.033 291.96 169.531C279.039 204.029 240.517 224.962 205.922 216.277C171.328 207.593 153.751 172.58 166.672 138.082C179.593 103.584 218.113 82.6544 252.715 91.3409ZM189.025 167.486C191.623 166.088 194.124 164.731 196.611 163.37C196.648 163.337 196.677 163.295 196.696 163.249C196.715 163.203 196.722 163.153 196.719 163.103C195.296 154.717 197.085 146.654 202.178 138.979C210.392 126.596 225.894 119.945 239.739 122.819C240.195 122.913 240.646 123.016 241.091 123.128C246.498 124.428 251.414 127.263 255.246 131.291C256.388 130.866 257.492 130.346 258.548 129.738L263.108 127.266C259.14 122.463 253.963 118.803 248.111 116.663C247.083 116.279 246.029 115.963 244.995 115.616L243.08 115.135L242.702 115.084C240.833 114.82 238.992 114.439 237.095 114.309C218.391 112.973 199.781 124.143 191.82 141.479C188.078 149.282 187.02 158.104 188.811 166.571C188.882 166.876 188.952 167.18 189.029 167.486L189.025 167.486ZM268.08 164.924L268.431 163.987C263.777 162.818 259.124 161.649 254.469 160.48C246.409 158.456 238.345 156.438 230.28 154.426C229.975 154.362 229.657 154.404 229.38 154.546C216.945 161.284 204.515 168.033 192.09 174.792C192.038 174.842 191.998 174.903 191.973 174.971C191.948 175.038 191.938 175.111 191.944 175.182C196.605 183.917 203.855 189.811 213.748 192.669C214.236 192.81 214.723 192.942 215.213 193.065C223.469 195.103 232.151 194.563 240.091 191.518C251.637 187.473 261.151 179.087 266.614 168.14C267.15 167.081 267.594 165.997 268.076 164.924L268.08 164.924ZM264.156 138.584C262.4 138.51 260.667 139 259.209 139.983C257.728 140.947 256.59 142.354 255.956 144.003C255.616 144.901 255.456 145.857 255.484 146.817C255.515 147.74 255.745 148.645 256.157 149.471C256.888 150.912 258.147 152.015 259.67 152.551C259.887 152.629 260.108 152.697 260.332 152.753C261.768 153.1 263.274 153.029 264.672 152.55C266.363 151.986 267.839 150.913 268.897 149.479C269.921 148.111 270.458 146.44 270.424 144.731C270.379 143.117 269.713 141.583 268.564 140.448C267.73 139.641 266.697 139.07 265.57 138.793C265.108 138.678 264.636 138.609 264.16 138.586" fill="#6543DD"/>
<path d="M84.6904 84.5928C84.6904 84.5928 88.1132 117.496 126.714 138.331L200.279 177.62C200.279 177.62 215.886 183.154 221.212 171.044C226.539 158.933 220.765 153.861 215.652 148.957L163.961 121.118" fill="#FED670"/>
<path d="M84.6904 84.5928C84.6904 84.5928 88.1132 117.496 126.714 138.331L200.279 177.62C200.279 177.62 215.886 183.154 221.212 171.044C226.539 158.933 220.765 153.861 215.652 148.957L163.961 121.118" stroke="#020202" stroke-width="2.51564" stroke-miterlimit="10"/>
</svg>
