<svg width="133" height="39" viewBox="0 0 133 39" fill="none" xmlns="http://www.w3.org/2000/svg">
<path fill-rule="evenodd" clip-rule="evenodd" d="M173.224 19.4703L172.937 20.5803C172.336 23.0899 171.136 25.3911 169.453 27.2596C167.771 29.1282 165.662 30.5005 163.334 31.2428C161.006 31.9851 158.536 32.0722 156.167 31.4955C153.798 30.9188 151.609 29.698 149.814 27.9521C147.775 25.9753 146.305 23.4224 145.574 20.5903L145.307 19.5265H145.325L144.971 17.7127C144.308 14.2461 142.877 10.9984 140.797 8.24034C140.556 7.91943 140.286 7.59278 140.04 7.29321L139.728 6.91111L139.693 6.86768L138.93 6.05292L138.73 5.88363C138.554 5.72922 138.361 5.55625 138.158 5.3748C137.666 4.93363 137.111 4.43418 136.555 4.02289C132.787 1.19644 128.242 -0.210264 123.639 0.0254556C119.037 0.261175 114.639 2.12584 111.143 5.32433C107.757 8.39387 105.397 12.5512 104.417 17.1719C104.39 17.2986 104.362 17.4409 104.339 17.5576C104.329 17.6074 104.32 17.6501 104.314 17.6842L103.947 19.5008H104.013L103.734 20.5767C103.134 23.0864 101.934 25.3878 100.251 27.2565C98.5685 29.1252 96.4602 30.4975 94.1318 31.2399C91.8033 31.9822 89.3341 32.0692 86.9647 31.4924C84.5953 30.9157 82.4065 29.6947 80.6115 27.9485C78.574 25.9723 77.1044 23.4209 76.3733 20.5903L76.0955 19.4923H76.004L75.6568 17.7134C74.9931 14.247 73.5623 10.9995 71.4834 8.24104C71.2424 7.92012 70.9719 7.59347 70.7262 7.2939L70.4144 6.9118L70.3796 6.86837L69.6164 6.0537L69.4161 5.88432C69.2391 5.72991 69.0475 5.55703 68.8445 5.37558C68.353 4.93441 67.7982 4.43487 67.2419 4.02358C63.4737 1.1972 58.9285 -0.20948 54.3258 0.0262374C49.723 0.261955 45.3254 2.12659 41.8289 5.32502C38.4429 8.39456 36.083 12.5519 35.1034 17.1726C35.076 17.2993 35.0479 17.4416 35.0245 17.5583C35.0152 17.6081 35.0072 17.6508 34.9998 17.6849L34.6399 19.4681H34.6032L34.3147 20.5782C33.7147 23.0879 32.5149 25.3893 30.8321 27.258C29.1494 29.1267 27.0411 30.4991 24.7127 31.2414C22.3843 31.9838 19.9151 32.0707 17.5457 31.4939C15.1764 30.9171 12.9876 29.6962 11.1927 27.95C9.15532 25.9733 7.68593 23.4213 6.9552 20.5903L6.67745 19.4923L5.60903 19.4774C5.22308 19.4738 4.83379 19.4738 4.45584 19.4738H4.06989L0 19.4681L0.354576 21.2847C1.01854 24.7511 2.44932 27.9985 4.52798 30.7571C4.76904 31.0744 5.04012 31.4047 5.28519 31.7042C5.3967 31.8394 5.50222 31.966 5.5977 32.0835L5.63243 32.1298L6.39566 32.9409L6.59598 33.1102V33.1138C6.77293 33.2647 6.96524 33.4376 7.16823 33.6198C7.65969 34.0638 8.21461 34.5604 8.77084 34.9767C12.5393 37.8027 17.0845 39.2087 21.6872 38.9723C26.2899 38.736 30.6872 36.8707 34.1832 33.6717C37.5696 30.6015 39.9294 26.443 40.9081 21.8213C40.9361 21.6946 40.9641 21.553 40.9868 21.4356L41.0122 21.3089L41.3722 19.53H41.4089L41.6967 18.4228C42.2968 15.9131 43.4967 13.6118 45.1795 11.7431C46.8623 9.87441 48.9706 8.502 51.2991 7.75965C53.6276 7.01731 56.0968 6.93035 58.4662 7.50715C60.8356 8.08395 63.0243 9.30485 64.8193 11.051C66.8566 13.0266 68.3264 15.5773 69.0582 18.4072L69.336 19.5051H69.4274L69.7753 21.284C70.4393 24.7502 71.8699 27.9976 73.9481 30.7564C74.1891 31.0737 74.4596 31.404 74.7053 31.7035C74.8162 31.8387 74.9223 31.9654 75.0171 32.0828L75.0525 32.129L75.8151 32.9402L76.0154 33.1095V33.1131C76.1924 33.264 76.384 33.4369 76.5877 33.6191C77.0791 34.0631 77.634 34.5597 78.1903 34.976C81.9588 37.8019 86.504 39.2078 91.1066 38.9715C95.7093 38.7351 100.107 36.8699 103.603 33.671C106.989 30.6011 109.35 26.4425 110.328 21.8206C110.356 21.6939 110.384 21.5523 110.407 21.4349C110.416 21.3886 110.424 21.3452 110.432 21.3082L110.799 19.4916H110.732L111.011 18.4186C111.611 15.9088 112.811 13.6075 114.494 11.7388C116.177 9.87015 118.285 8.49774 120.614 7.7554C122.942 7.01305 125.411 6.92601 127.781 7.50281C130.15 8.07961 132.339 9.30059 134.134 11.0467C136.172 13.0219 137.642 15.5728 138.373 18.4029L138.64 19.4703H138.621L138.976 21.2869C139.64 24.7531 141.071 28.0005 143.149 30.7593C143.39 31.0766 143.661 31.4067 143.906 31.7063C144.017 31.8415 144.123 31.9682 144.218 32.0856L144.253 32.1318L145.016 32.943L145.216 33.1124V33.116C145.393 33.2668 145.586 33.4397 145.789 33.6218C146.28 34.0659 146.835 34.5625 147.391 34.9788C151.16 37.8047 155.705 39.2108 160.308 38.9744C164.911 38.738 169.308 36.8728 172.804 33.6738C176.191 30.6035 178.551 26.4451 179.53 21.8234C179.557 21.6968 179.585 21.5552 179.608 21.4378L179.633 21.311L180 19.4944L173.224 19.4703ZM2.08935 22.4837C2.07934 22.4453 2.07068 22.4069 2.06066 22.3685C2.0847 22.4617 2.10938 22.5556 2.13475 22.6481C2.11673 22.5933 2.1007 22.5385 2.08601 22.4837H2.08935ZM6.32422 30.6788C6.09051 30.3942 5.85677 30.1096 5.63308 29.8157C5.85611 30.1081 6.09051 30.3949 6.32422 30.6788ZM8.85161 33.1544C8.61323 32.9494 8.37819 32.7381 8.14381 32.5268C8.37885 32.7403 8.61123 32.9494 8.85161 33.1544C9.092 33.3593 9.33304 33.5586 9.58612 33.745C9.3297 33.5586 9.08733 33.3593 8.84827 33.1544H8.85161ZM74.2766 18.0236C74.2713 17.9958 74.2646 17.9681 74.2592 17.9411C74.2592 17.9681 74.2679 17.9958 74.2733 18.0236H74.2766ZM73.9301 16.5151C73.9434 16.5656 73.9547 16.6169 73.9674 16.6674C73.9347 16.5408 73.9007 16.4148 73.8673 16.2896C73.8847 16.365 73.9067 16.4397 73.9254 16.5151H73.9301ZM69.6945 8.32286C69.9289 8.60749 70.1619 8.89212 70.3856 9.186C70.1633 8.88999 69.9289 8.60606 69.6945 8.32286ZM71.5075 22.483C71.4975 22.4453 71.4888 22.4069 71.4788 22.3692C71.5028 22.461 71.5268 22.5527 71.5522 22.6438C71.5342 22.5905 71.5215 22.5371 71.5041 22.4837L71.5075 22.483ZM124.669 1.50531C122.728 1.50216 120.798 1.8112 118.943 2.42187C121.761 1.49385 124.742 1.26675 127.655 1.75807C130.568 2.2494 133.337 3.446 135.749 5.25597C132.503 2.82405 128.633 1.51494 124.665 1.50609L124.669 1.50531ZM143.243 16.5144C143.255 16.5599 143.265 16.6062 143.277 16.6517C143.247 16.5379 143.218 16.4248 143.187 16.3116C143.202 16.38 143.221 16.4468 143.237 16.5151L143.243 16.5144ZM139.699 9.18531C139.476 8.88929 139.242 8.60537 139.008 8.32217C139.238 8.60608 139.474 8.88929 139.699 9.18531ZM140.709 22.483C140.699 22.4446 140.69 22.4047 140.68 22.3663C140.705 22.4617 140.729 22.5563 140.755 22.6509C140.737 22.5954 140.72 22.54 140.705 22.4837L140.709 22.483ZM144.252 29.8121C144.475 30.1046 144.71 30.3913 144.944 30.6753C144.706 30.3949 144.472 30.1081 144.249 29.8157L144.252 29.8121ZM150.001 34.9355C152.285 36.2761 154.8 37.1101 157.395 37.3875C154.799 37.1119 152.283 36.2793 149.998 34.9397L150.001 34.9355ZM159.164 37.4893C162.577 37.5212 165.937 36.5853 168.899 34.7775C165.936 36.5875 162.575 37.5249 159.16 37.4935L159.164 37.4893Z" fill="#FFC9E2"/>
</svg>
