<svg width="181" height="39" viewBox="0 0 181 39" fill="none" xmlns="http://www.w3.org/2000/svg">
<path fill-rule="evenodd" clip-rule="evenodd" d="M173.897 19.4703L173.609 20.5803C173.008 23.0899 171.808 25.3911 170.126 27.2596C168.443 29.1282 166.334 30.5005 164.006 31.2428C161.678 31.9851 159.209 32.0722 156.839 31.4955C154.47 30.9188 152.281 29.698 150.486 27.9521C148.447 25.9753 146.977 23.4224 146.247 20.5903L145.979 19.5265H145.997L145.643 17.7127C144.98 14.2461 143.549 10.9984 141.469 8.24034C141.228 7.91943 140.958 7.59278 140.712 7.29321L140.4 6.91111L140.365 6.86768L139.602 6.05292L139.402 5.88363C139.226 5.72922 139.034 5.55625 138.83 5.3748C138.338 4.93363 137.784 4.43418 137.227 4.02289C133.459 1.19644 128.914 -0.210264 124.311 0.0254556C119.709 0.261175 115.311 2.12584 111.815 5.32433C108.429 8.39387 106.069 12.5512 105.089 17.1719C105.062 17.2986 105.034 17.4409 105.011 17.5576C105.001 17.6074 104.993 17.6501 104.986 17.6842L104.619 19.5008H104.685L104.406 20.5767C103.806 23.0864 102.606 25.3878 100.923 27.2565C99.2406 29.1252 97.1323 30.4975 94.8039 31.2399C92.4754 31.9822 90.0062 32.0692 87.6368 31.4924C85.2674 30.9157 83.0786 29.6947 81.2836 27.9485C79.2462 25.9723 77.7766 23.4209 77.0455 20.5903L76.7677 19.4923H76.6762L76.329 17.7134C75.6652 14.247 74.2344 10.9995 72.1556 8.24104C71.9145 7.92012 71.644 7.59347 71.3983 7.2939L71.0865 6.9118L71.0518 6.86837L70.2885 6.0537L70.0882 5.88432C69.9113 5.72991 69.7196 5.55703 69.5166 5.37558C69.0251 4.93441 68.4703 4.43487 67.914 4.02358C64.1458 1.1972 59.6007 -0.20948 54.9979 0.0262374C50.3951 0.261955 45.9975 2.12659 42.501 5.32502C39.115 8.39456 36.7551 12.5519 35.7755 17.1726C35.7481 17.2993 35.72 17.4416 35.6967 17.5583C35.6873 17.6081 35.6793 17.6508 35.672 17.6849L35.312 19.4681H35.2753L34.9869 20.5782C34.3868 23.0879 33.187 25.3893 31.5043 27.258C29.8215 29.1267 27.7133 30.4991 25.3848 31.2414C23.0564 31.9838 20.5872 32.0707 18.2179 31.4939C15.8485 30.9171 13.6598 29.6962 11.8648 27.95C9.82744 25.9733 8.35805 23.4213 7.62732 20.5903L7.34957 19.4923L6.28115 19.4774C5.8952 19.4738 5.50591 19.4738 5.12796 19.4738H4.74201L0.672119 19.4681L1.0267 21.2847C1.69066 24.7511 3.12143 27.9985 5.2001 30.7571C5.44116 31.0744 5.71224 31.4047 5.95731 31.7042C6.06882 31.8394 6.17434 31.966 6.26982 32.0835L6.30455 32.1298L7.06778 32.9409L7.2681 33.1102V33.1138C7.44505 33.2647 7.63736 33.4376 7.84035 33.6198C8.33181 34.0638 8.88672 34.5604 9.44296 34.9767C13.2114 37.8027 17.7566 39.2087 22.3593 38.9723C26.962 38.736 31.3593 36.8707 34.8553 33.6717C38.2417 30.6015 40.6016 26.443 41.5802 21.8213C41.6082 21.6946 41.6363 21.553 41.659 21.4356L41.6844 21.3089L42.0443 19.53H42.081L42.3688 18.4228C42.9689 15.9131 44.1688 13.6118 45.8516 11.7431C47.5344 9.87441 49.6428 8.502 51.9712 7.75965C54.2997 7.01731 56.7689 6.93035 59.1383 7.50715C61.5077 8.08395 63.6965 9.30485 65.4914 11.051C67.5287 13.0266 68.9985 15.5773 69.7303 18.4072L70.0081 19.5051H70.0995L70.4474 21.284C71.1115 24.7502 72.542 27.9976 74.6202 30.7564C74.8612 31.0737 75.1317 31.404 75.3774 31.7035C75.4883 31.8387 75.5944 31.9654 75.6893 32.0828L75.7246 32.129L76.4872 32.9402L76.6875 33.1095V33.1131C76.8645 33.264 77.0561 33.4369 77.2598 33.6191C77.7513 34.0631 78.3062 34.5597 78.8624 34.976C82.6309 37.8019 87.1761 39.2078 91.7788 38.9715C96.3814 38.7351 100.779 36.8699 104.275 33.671C107.662 30.6011 110.022 26.4425 111 21.8206C111.028 21.6939 111.056 21.5523 111.079 21.4349C111.088 21.3886 111.096 21.3452 111.104 21.3082L111.471 19.4916H111.404L111.683 18.4186C112.284 15.9088 113.483 13.6075 115.166 11.7388C116.849 9.87015 118.957 8.49774 121.286 7.7554C123.614 7.01305 126.083 6.92601 128.453 7.50281C130.822 8.07961 133.011 9.30059 134.806 11.0467C136.844 13.0219 138.314 15.5728 139.045 18.4029L139.312 19.4703H139.293L139.648 21.2869C140.312 24.7531 141.743 28.0005 143.821 30.7593C144.062 31.0766 144.333 31.4067 144.578 31.7063C144.689 31.8415 144.795 31.9682 144.89 32.0856L144.925 32.1318L145.688 32.943L145.889 33.1124V33.116C146.066 33.2668 146.258 33.4397 146.461 33.6218C146.952 34.0659 147.507 34.5625 148.063 34.9788C151.832 37.8047 156.377 39.2108 160.98 38.9744C165.583 38.738 169.98 36.8728 173.476 33.6738C176.863 30.6035 179.223 26.4451 180.202 21.8234C180.229 21.6968 180.257 21.5552 180.28 21.4378L180.306 21.311L180.672 19.4944L173.897 19.4703ZM2.76147 22.4837C2.75146 22.4453 2.7428 22.4069 2.73278 22.3685C2.75682 22.4617 2.7815 22.5556 2.80687 22.6481C2.78884 22.5933 2.77282 22.5385 2.75813 22.4837H2.76147ZM6.99634 30.6788C6.76263 30.3942 6.52889 30.1096 6.3052 29.8157C6.52823 30.1081 6.76263 30.3949 6.99634 30.6788ZM9.52373 33.1544C9.28535 32.9494 9.0503 32.7381 8.81593 32.5268C9.05097 32.7403 9.28335 32.9494 9.52373 33.1544C9.76412 33.3593 10.0052 33.5586 10.2582 33.745C10.0018 33.5586 9.75945 33.3593 9.52039 33.1544H9.52373ZM74.9487 18.0236C74.9434 17.9958 74.9367 17.9681 74.9314 17.9411C74.9314 17.9681 74.94 17.9958 74.9454 18.0236H74.9487ZM74.6022 16.5151C74.6155 16.5656 74.6269 16.6169 74.6395 16.6674C74.6068 16.5408 74.5728 16.4148 74.5394 16.2896C74.5568 16.365 74.5788 16.4397 74.5975 16.5151H74.6022ZM70.3667 8.32286C70.601 8.60749 70.8341 8.89212 71.0578 9.186C70.8354 8.88999 70.601 8.60606 70.3667 8.32286ZM72.1796 22.483C72.1696 22.4453 72.1609 22.4069 72.1509 22.3692C72.1749 22.461 72.1989 22.5527 72.2243 22.6438C72.2063 22.5905 72.1936 22.5371 72.1763 22.4837L72.1796 22.483ZM125.341 1.50531C123.4 1.50216 121.47 1.8112 119.616 2.42187C122.434 1.49385 125.414 1.26675 128.327 1.75807C131.24 2.2494 134.009 3.446 136.421 5.25597C133.175 2.82405 129.305 1.51494 125.337 1.50609L125.341 1.50531ZM143.915 16.5144C143.927 16.5599 143.937 16.6062 143.949 16.6517C143.919 16.5379 143.89 16.4248 143.859 16.3116C143.874 16.38 143.893 16.4468 143.909 16.5151L143.915 16.5144ZM140.371 9.18531C140.148 8.88929 139.914 8.60537 139.68 8.32217C139.91 8.60608 140.146 8.88929 140.371 9.18531ZM141.381 22.483C141.371 22.4446 141.362 22.4047 141.352 22.3663C141.377 22.4617 141.401 22.5563 141.427 22.6509C141.409 22.5954 141.392 22.54 141.377 22.4837L141.381 22.483ZM144.924 29.8121C145.147 30.1046 145.382 30.3913 145.616 30.6753C145.378 30.3949 145.144 30.1081 144.921 29.8157L144.924 29.8121ZM150.673 34.9355C152.957 36.2761 155.472 37.1101 158.067 37.3875C155.471 37.1119 152.955 36.2793 150.67 34.9397L150.673 34.9355ZM159.836 37.4893C163.249 37.5212 166.609 36.5853 169.571 34.7775C166.608 36.5875 163.247 37.5249 159.832 37.4935L159.836 37.4893Z" fill="#5326EC"/>
</svg>
