<svg width="489" height="384" viewBox="0 0 489 384" fill="none" xmlns="http://www.w3.org/2000/svg">
<path d="M43.4119 86.7118C43.4119 98.2095 34.7477 106.696 23.0739 106.696C10.9441 106.696 2.64476 98.757 2.00635 86.6205H9.21128C10.2145 95.6544 15.6866 100.491 23.2563 100.491C30.9173 100.491 36.5718 94.8332 36.5718 87.0768C36.5718 79.6854 33.1061 76.4916 21.5235 72.9328C13.6802 70.5602 11.5825 69.5565 8.93767 67.0014C5.92802 64.1726 4.19519 59.7013 4.19519 55.0475C4.19519 44.5536 12.0385 36.8884 22.8915 36.8884C33.9269 36.8884 41.7703 44.1886 41.7703 55.1387H34.7477C34.7477 47.8386 29.5492 43.0935 22.7091 43.0935C15.9602 43.0935 11.0353 48.1124 11.0353 54.865C11.0353 57.9675 12.3121 61.0701 14.2274 62.7126C15.9602 64.2639 18.0578 65.0852 24.1683 66.9102C31.0997 69.009 33.9269 70.2865 36.663 72.294C40.9495 75.4878 43.4119 80.7804 43.4119 86.7118ZM95.3102 105.51H88.5613V78.6816C88.5613 66.2714 82.2684 60.6138 73.1482 60.6138C64.484 60.6138 57.9175 65.9064 57.9175 78.1341V105.51H51.1683V38.0747H57.9175V62.0739C61.292 57.1463 66.9465 54.4087 73.7866 54.4087C86.7372 54.4087 95.3102 61.9826 95.3102 78.6816V105.51ZM157.633 105.51H150.884V96.7494C145.594 103.867 140.122 106.696 131.64 106.696C116.318 106.696 104.918 95.5632 104.918 80.6892C104.918 65.7239 116.227 54.4087 131.184 54.4087C139.849 54.4087 145.959 57.5113 150.884 64.4464V55.595H157.633V105.51ZM150.884 80.3242C150.884 69.1915 142.311 60.6138 131.367 60.6138C120.514 60.6138 111.758 69.374 111.758 80.2329C111.758 91.6394 120.423 100.491 131.732 100.491C142.493 100.491 150.884 91.6394 150.884 80.3242ZM189.975 61.0701C180.581 61.9826 175.838 67.0927 175.838 76.4003V105.51H169.089V55.595H175.838V62.7126C178.483 57.2375 182.77 54.7737 189.975 54.4087V61.0701ZM243.739 82.788H198.594C199.141 92.6431 207.805 100.491 218.02 100.491C225.589 100.491 232.612 95.9282 235.439 89.0843H242.462C239.27 98.5745 229.511 106.696 218.202 106.696C203.427 106.696 191.845 95.1069 191.845 80.3242C191.845 65.8152 203.245 54.4087 217.746 54.4087C232.521 54.4087 243.739 65.0852 243.739 82.788ZM236.99 76.6741C234.71 66.7277 227.322 60.6138 217.655 60.6138C208.17 60.6138 200.6 67.0927 198.776 76.6741H236.99Z" fill="#1C1426"/>
<path d="M344.075 191.218H337.326V182.457C332.037 189.575 326.565 192.404 318.083 192.404C302.761 192.404 291.361 181.271 291.361 166.397C291.361 151.432 302.67 140.117 317.627 140.117C326.291 140.117 332.402 143.219 337.326 150.154V141.303H344.075V191.218ZM337.326 166.032C337.326 154.899 328.754 146.322 317.809 146.322C306.956 146.322 298.201 155.082 298.201 165.941C298.201 177.347 306.865 186.199 318.174 186.199C328.936 186.199 337.326 177.347 337.326 166.032ZM399.673 191.218H392.924V165.028C392.924 151.432 386.722 146.322 377.511 146.322C368.482 146.322 362.28 151.523 362.28 163.751V191.218H355.531V141.303H362.28V147.782C366.476 142.672 371.765 140.117 378.332 140.117C390.827 140.117 399.673 147.508 399.673 165.028V191.218ZM462.179 191.218H455.43V182.184C450.414 189.393 444.759 192.404 436.46 192.404C421.047 192.404 409.282 181.089 409.282 166.306C409.282 151.432 420.773 140.117 435.821 140.117C443.665 140.117 450.505 143.311 455.43 149.242V123.783H462.179V191.218ZM455.703 166.123C455.703 155.173 446.674 146.322 435.639 146.322C424.786 146.322 416.122 155.082 416.122 166.032C416.122 177.439 424.877 186.199 436.277 186.199C446.948 186.199 455.703 177.074 455.703 166.123Z" fill="#1C1426"/>
<path fill-rule="evenodd" clip-rule="evenodd" d="M277.494 88.8442L277.535 88.8916L278.422 89.779L278.651 89.9643H278.653C278.858 90.1326 279.082 90.3196 279.318 90.5187C279.889 91 280.534 91.5441 281.176 91.9958C285.555 95.0795 290.836 96.6137 296.184 96.3565C301.532 96.0987 306.641 94.0644 310.702 90.5746C314.637 87.2251 317.378 82.6893 318.516 77.6477C318.55 77.5108 318.581 77.3556 318.607 77.2279C318.618 77.1766 318.628 77.1292 318.636 77.0893L319.063 75.1086L311.194 75.0812L310.859 76.2903C309.664 80.6122 307.16 84.0199 303.36 86.3165C300.347 88.1102 296.837 88.8859 293.35 88.5283C289.862 88.1707 286.582 86.6992 283.995 84.3318C281.627 82.1766 279.92 79.3934 279.07 76.3063L278.747 75.1086L277.507 75.0915C277.059 75.0858 276.607 75.0858 276.168 75.0863H275.719L270.991 75.0806L271.403 77.0608C272.174 80.842 273.836 84.3849 276.252 87.3939C276.531 87.7418 276.846 88.1005 277.131 88.4256C277.261 88.575 277.384 88.7153 277.494 88.8442ZM273.011 76.7266C273.126 77.2815 273.26 77.829 273.414 78.3691C274.233 81.2852 275.634 84.0056 277.531 86.3656C277.79 86.6867 278.062 86.9975 278.334 87.3078C278.469 87.4629 278.606 87.6174 278.74 87.7737L279.521 88.5545L279.686 88.6891C279.942 88.8973 280.195 89.1106 280.447 89.3233C280.992 89.7841 281.537 90.2444 282.12 90.6527C281.537 90.2444 280.992 89.7841 280.447 89.3233C280.194 89.11 279.942 88.8973 279.686 88.6891L279.521 88.5545L278.74 87.7737C278.605 87.6169 278.471 87.4623 278.333 87.3072C278.061 86.9969 277.789 86.6861 277.53 86.365C275.278 83.5585 273.728 80.254 273.011 76.7266Z" fill="#E1458D"/>
<path fill-rule="evenodd" clip-rule="evenodd" d="M352.796 61.3838L352.755 61.337L351.869 60.4496L351.639 60.2642C351.433 60.096 351.21 59.9089 350.974 59.7099C350.402 59.2279 349.758 58.6844 349.114 58.2327C344.737 55.1493 339.456 53.615 334.109 53.8725C328.761 54.13 323.652 56.1645 319.591 59.654C315.656 63.0035 312.915 67.5393 311.777 72.5803C311.744 72.7178 311.712 72.8729 311.686 73.0007C311.675 73.052 311.665 73.0988 311.657 73.1387L311.23 75.12L319.099 75.1474L319.434 73.9383C320.629 69.6164 323.133 66.2087 326.933 63.9114C329.946 62.1178 333.456 61.3427 336.944 61.7003C340.431 62.0573 343.711 63.5287 346.298 65.8967C348.666 68.0514 350.373 70.8346 351.223 73.9223L351.546 75.12L352.786 75.1365C353.234 75.1428 353.686 75.1422 354.125 75.1422H354.574L359.302 75.1474L358.89 73.1678C358.119 69.386 356.457 65.8437 354.042 62.8341C353.762 62.4862 353.447 62.128 353.162 61.8024C353.03 61.6535 352.907 61.5132 352.796 61.3838ZM357.28 73.5014C357.165 72.9465 357.03 72.399 356.876 71.8589C356.057 68.9428 354.656 66.2229 352.759 63.8624C352.5 63.5413 352.228 63.231 351.956 62.9208C351.821 62.7657 351.687 62.6105 351.553 62.4548L350.772 61.6735L350.606 61.5389C350.35 61.3307 350.098 61.1174 349.845 60.9047C349.3 60.4444 348.755 59.9836 348.173 59.5758C348.755 59.9842 349.3 60.4444 349.845 60.9047C350.098 61.118 350.349 61.3313 350.607 61.5395L350.772 61.6741L351.553 62.4548C351.687 62.6111 351.822 62.7662 351.959 62.9214C352.231 63.2316 352.503 63.5424 352.762 63.8635C355.014 66.6701 356.563 69.9745 357.281 73.5014H357.28Z" fill="#E1458D"/>
<path fill-rule="evenodd" clip-rule="evenodd" d="M433.323 61.3838L433.282 61.337L432.396 60.4496L432.166 60.2642H432.164C431.959 60.096 431.735 59.9089 431.5 59.7099C430.928 59.2285 430.284 58.6844 429.641 58.2322C425.262 55.1489 419.982 53.6143 414.634 53.8718C409.286 54.1293 404.177 56.1641 400.115 59.654C396.181 63.0035 393.439 67.5393 392.302 72.5803C392.268 72.7178 392.237 72.8729 392.21 73.0007C392.199 73.052 392.189 73.0988 392.181 73.1387L391.754 75.12L399.624 75.1474L399.958 73.9383C401.153 69.6164 403.657 66.2087 407.457 63.9114C410.47 62.1178 413.98 61.3427 417.468 61.6997C420.955 62.0573 424.236 63.5288 426.823 65.8967C429.19 68.0514 430.898 70.8346 431.747 73.9223L432.07 75.12L433.31 75.1365C433.758 75.1428 434.21 75.1422 434.649 75.1422H435.098L439.826 75.1474L439.415 73.1678C438.643 69.386 436.981 65.8431 434.566 62.8341C434.286 62.4862 433.971 62.1275 433.687 61.8024C433.556 61.6524 433.434 61.5127 433.323 61.3838ZM437.807 73.5014C437.692 72.9465 437.557 72.399 437.404 71.8589C436.584 68.9428 435.183 66.223 433.286 63.8624C433.027 63.5413 432.755 63.2305 432.483 62.9208C432.347 62.7651 432.211 62.61 432.077 62.4543L431.296 61.6729L431.13 61.5383C430.875 61.3302 430.622 61.1169 430.369 60.9036C430.622 61.1169 430.874 61.3302 431.13 61.5383L431.296 61.6729L432.077 62.4543C432.211 62.6105 432.346 62.7657 432.483 62.9208C432.755 63.2305 433.027 63.5413 433.286 63.8624C435.539 66.6695 437.089 69.974 437.807 73.5014ZM398.376 73.4991C398.753 72.1195 399.279 70.7844 399.943 69.5177C399.278 70.7844 398.752 72.1189 398.375 73.4991H398.376Z" fill="#E1458D"/>
<path fill-rule="evenodd" clip-rule="evenodd" d="M358.144 88.8442L358.184 88.8915L359.071 89.779L359.301 89.9643C359.506 90.1326 359.73 90.3196 359.966 90.5187C360.537 91 361.181 91.5441 361.825 91.9958C366.203 95.079 371.483 96.6131 376.831 96.3559C382.178 96.0981 387.287 94.0638 391.349 90.5746C395.283 87.2251 398.025 82.6893 399.162 77.6477C399.196 77.5108 399.227 77.3556 399.254 77.2279C399.264 77.1766 399.274 77.1292 399.283 77.0893L399.709 75.1086L391.84 75.0812L391.505 76.2903C390.311 80.6122 387.807 84.0199 384.006 86.3165C380.993 88.1102 377.483 88.8858 373.996 88.5283C370.508 88.1707 367.228 86.6992 364.641 84.3318C362.274 82.1766 360.566 79.3934 359.717 76.3063L359.394 75.1086L358.154 75.0915C357.706 75.0858 357.253 75.0858 356.815 75.0863H356.366L351.637 75.0806L352.049 77.0608C352.82 80.842 354.482 84.3849 356.897 87.3939C357.178 87.7418 357.492 88.1005 357.777 88.4256C357.91 88.575 358.033 88.7153 358.144 88.8442ZM353.66 76.7266C353.775 77.2815 353.91 77.829 354.063 78.3691C354.882 81.2852 356.283 84.0056 358.181 86.3656C358.439 86.6867 358.712 86.9975 358.984 87.3078C359.118 87.4629 359.255 87.6174 359.387 87.7737L360.167 88.5545L360.333 88.6891C360.589 88.8973 360.842 89.1106 361.094 89.3233C360.842 89.11 360.59 88.8973 360.333 88.6891L360.167 88.5545L359.387 87.7737C359.253 87.6169 359.117 87.4623 358.981 87.3072C358.708 86.9969 358.436 86.6861 358.178 86.365C355.926 83.5579 354.377 80.2534 353.66 76.7266Z" fill="#E1458D"/>
<path fill-rule="evenodd" clip-rule="evenodd" d="M438.542 88.8442L438.582 88.8916L439.468 89.779L439.698 89.9643H439.7C439.905 90.1326 440.128 90.3196 440.364 90.5187C440.936 91 441.58 91.5441 442.223 91.9958C446.601 95.0795 451.883 96.6137 457.23 96.3565C462.578 96.0987 467.687 94.0644 471.749 90.5746C475.683 87.2251 478.425 82.6887 479.562 77.6477C479.594 77.5108 479.627 77.3556 479.653 77.2279C479.664 77.1766 479.674 77.1292 479.683 77.0893L480.109 75.1086L472.239 75.0812L471.905 76.2903C470.71 80.6122 468.206 84.0199 464.406 86.3165C461.393 88.1102 457.883 88.8859 454.396 88.5283C450.908 88.1707 447.628 86.6992 445.041 84.3318C442.674 82.1766 440.966 79.3934 440.117 76.3063L439.794 75.1086L438.554 75.0915C438.106 75.0858 437.653 75.0858 437.215 75.0863H436.766L432.037 75.0806L432.449 77.0608C433.22 80.842 434.883 84.3849 437.298 87.3939C437.578 87.7418 437.892 88.1005 438.177 88.4256C438.307 88.575 438.43 88.7153 438.542 88.8442ZM434.057 76.7266C434.172 77.2815 434.307 77.829 434.461 78.3691C435.28 81.2852 436.68 84.0056 438.578 86.3656C438.837 86.6867 439.109 86.9975 439.381 87.3078C439.516 87.4629 439.652 87.6174 439.786 87.7737L440.567 88.5545L440.733 88.6891C440.989 88.8973 441.242 89.1106 441.494 89.3233C441.242 89.11 440.99 88.8973 440.733 88.6891L440.567 88.5545L439.786 87.7737C439.652 87.6169 439.518 87.4623 439.381 87.3072C439.109 86.9969 438.836 86.6861 438.577 86.365C436.325 83.5585 434.775 80.254 434.057 76.7266Z" fill="#E1458D"/>
<path d="M92.8996 147.55C93.448 147.074 93.9758 146.57 94.5475 146.123C100.616 141.383 107.466 139.572 115.061 140.826C120.611 141.707 125.699 144.445 129.493 148.593C134.029 153.455 136.329 159.256 136.474 165.907C136.462 165.95 136.438 165.989 136.406 166.021C136.374 166.053 136.336 166.076 136.292 166.089C127.814 166.096 119.336 166.095 110.858 166.085C110.665 166.077 110.482 166 110.342 165.868C104.376 159.914 98.4145 153.954 92.459 147.989L92.8996 147.55Z" fill="#8668FC"/>
<path d="M183.992 188.985C183.444 189.463 182.916 189.966 182.344 190.412C176.274 195.153 169.428 196.964 161.831 195.71C156.281 194.829 151.194 192.091 147.401 187.943C142.864 183.081 140.564 177.28 140.419 170.628C140.416 170.567 140.537 170.448 140.601 170.447C149.079 170.44 157.557 170.441 166.034 170.45C166.227 170.459 166.411 170.536 166.552 170.667C172.518 176.622 178.478 182.582 184.433 188.547L183.992 188.985Z" fill="#8668FC"/>
<path d="M183.992 147.55C183.444 147.074 182.916 146.57 182.344 146.123C176.274 141.383 169.428 139.572 161.831 140.826C156.281 141.707 151.194 144.445 147.401 148.593C142.864 153.455 140.564 159.256 140.419 165.907C140.416 165.968 140.537 166.087 140.601 166.089C149.079 166.096 157.557 166.095 166.034 166.085C166.227 166.077 166.411 166 166.552 165.868C172.518 159.914 178.478 153.954 184.433 147.989L183.992 147.55Z" fill="#8668FC"/>
<path d="M92.8996 188.985C93.448 189.463 93.9758 189.966 94.5475 190.412C100.616 195.153 107.466 196.964 115.061 195.71C120.611 194.828 125.699 192.091 129.493 187.943C134.029 183.081 136.329 177.28 136.474 170.628C136.461 170.586 136.438 170.546 136.406 170.514C136.374 170.483 136.336 170.46 136.292 170.447C127.814 170.44 119.336 170.441 110.858 170.45C110.666 170.459 110.483 170.536 110.342 170.667C104.376 176.622 98.4145 182.582 92.459 188.547L92.8996 188.985Z" fill="#8668FC"/>
<path d="M0.440261 147.41C0.988746 146.933 1.51638 146.429 2.08806 145.983C8.15703 141.242 15.0068 139.431 22.6015 140.685C28.1521 141.566 33.2401 144.304 37.0346 148.452C41.5712 153.314 43.8713 159.116 44.0159 165.766C44.0033 165.81 43.98 165.849 43.9483 165.88C43.9166 165.912 43.8774 165.936 43.8343 165.948C35.3566 165.955 26.8783 165.954 18.3997 165.945C18.2073 165.936 18.0244 165.859 17.8838 165.728C11.9174 159.773 5.95639 153.813 0.000732422 147.848L0.440261 147.41Z" fill="#8668FC"/>
<path d="M91.5323 188.844C90.9846 189.322 90.4562 189.825 89.8844 190.272C83.8144 195.013 76.968 196.823 69.3709 195.569C63.8213 194.688 58.7345 191.95 54.9411 187.802C50.4046 182.94 48.1044 177.139 47.9598 170.488C47.9564 170.426 48.0775 170.308 48.1414 170.306C56.6192 170.299 65.097 170.3 73.5747 170.31C73.7674 170.319 73.9509 170.395 74.0929 170.526C80.0586 176.481 86.0186 182.441 91.973 188.406L91.5323 188.844Z" fill="#8668FC"/>
<path d="M91.5323 147.41C90.9846 146.933 90.4562 146.429 89.8844 145.983C83.8144 141.242 76.968 139.431 69.3709 140.685C63.8213 141.566 58.7345 144.304 54.9411 148.452C50.4046 153.314 48.1044 159.116 47.9598 165.766C47.9564 165.827 48.0775 165.947 48.1414 165.948C56.6192 165.955 65.097 165.954 73.5747 165.945C73.7674 165.936 73.9509 165.859 74.0929 165.728C80.0586 159.773 86.0186 153.813 91.973 147.848L91.5323 147.41Z" fill="#8668FC"/>
<path d="M0.440261 188.844C0.988746 189.322 1.51638 189.825 2.08806 190.272C8.15703 195.013 15.0068 196.823 22.6015 195.569C28.1521 194.688 33.2401 191.95 37.0346 187.802C41.5712 182.94 43.8713 177.139 44.0159 170.488C44.0032 170.445 43.9799 170.406 43.9482 170.374C43.9165 170.342 43.8774 170.319 43.8343 170.306C35.3566 170.299 26.8783 170.3 18.3997 170.31C18.2075 170.318 18.0246 170.395 17.8838 170.526C11.9174 176.481 5.95639 182.441 0.000732422 188.406L0.440261 188.844Z" fill="#8668FC"/>
<path d="M185.359 147.55C185.908 147.074 186.435 146.57 187.007 146.124C193.076 141.383 199.926 139.572 207.52 140.826C213.07 141.707 218.158 144.445 221.952 148.593C226.489 153.455 228.789 159.256 228.933 165.907C228.921 165.95 228.897 165.989 228.866 166.021C228.834 166.053 228.795 166.076 228.752 166.089C220.274 166.096 211.796 166.095 203.317 166.086C203.125 166.077 202.942 166 202.801 165.869C196.835 159.914 190.874 153.954 184.918 147.989L185.359 147.55Z" fill="#8668FC"/>
<path d="M276.451 188.985C275.903 189.463 275.375 189.966 274.803 190.412C268.733 195.153 261.887 196.964 254.29 195.71C248.74 194.829 243.653 192.091 239.86 187.943C235.323 183.081 233.023 177.279 232.878 170.629C232.875 170.567 232.996 170.448 233.06 170.447C241.538 170.44 250.016 170.441 258.493 170.45C258.686 170.459 258.87 170.536 259.011 170.667C264.977 176.622 270.937 182.582 276.892 188.547L276.451 188.985Z" fill="#8668FC"/>
<path d="M276.451 147.55C275.903 147.074 275.375 146.57 274.803 146.124C268.733 141.383 261.887 139.572 254.29 140.826C248.74 141.707 243.653 144.445 239.86 148.593C235.323 153.455 233.023 159.256 232.878 165.907C232.875 165.968 232.996 166.088 233.06 166.089C241.538 166.096 250.016 166.095 258.493 166.086C258.686 166.077 258.87 166 259.011 165.869C264.977 159.914 270.937 153.954 276.892 147.989L276.451 147.55Z" fill="#8668FC"/>
<path d="M185.359 188.985C185.908 189.463 186.435 189.966 187.007 190.412C193.076 195.153 199.926 196.964 207.52 195.71C213.07 194.829 218.158 192.091 221.952 187.943C226.489 183.081 228.789 177.279 228.933 170.629C228.921 170.586 228.897 170.546 228.866 170.515C228.834 170.483 228.795 170.46 228.752 170.447C220.274 170.44 211.796 170.441 203.317 170.45C203.125 170.459 202.942 170.536 202.801 170.667C196.835 176.622 190.874 182.582 184.918 188.547L185.359 188.985Z" fill="#8668FC"/>
<path d="M67.0333 266.328C67.0333 276.092 65.7564 281.384 62.382 285.947C58.0955 291.605 50.7994 294.89 42.1352 294.89C29.5494 294.89 20.7028 288.502 17.0547 276.822H23.6213C28.7286 285.856 33.5622 288.685 41.9528 288.685C53.9914 288.685 60.2843 281.658 60.2843 268.518V265.142C56.3627 272.807 50.1609 276.457 41.2232 276.457C26.6309 276.457 15.2307 265.142 15.2307 250.541C15.2307 235.485 26.1749 224.17 40.7672 224.17C49.1577 224.17 55.2682 227.363 60.2843 234.207V225.356H67.0333V266.328ZM60.2843 249.72C60.2843 238.861 51.8938 230.375 41.132 230.375C30.0966 230.375 22.0708 238.587 22.0708 249.994C22.0708 261.583 30.279 270.252 41.2232 270.252C52.0762 270.252 60.2843 261.4 60.2843 249.72ZM128.489 252.549H83.3447C83.8919 262.404 92.556 270.252 102.771 270.252C110.34 270.252 117.363 265.689 120.19 258.845H127.213C124.021 268.335 114.262 276.457 102.953 276.457C88.1784 276.457 76.5958 264.868 76.5958 250.085C76.5958 235.576 87.9959 224.17 102.497 224.17C117.272 224.17 128.489 234.846 128.489 252.549ZM121.741 246.435C119.461 236.489 112.073 230.375 102.406 230.375C92.9208 230.375 85.3511 236.854 83.5271 246.435H121.741ZM159.589 231.47H148.371V275.271H141.623V231.47H130.861V225.356H141.623V207.836H148.371V225.356H159.589V231.47Z" fill="#1C1426"/>
<path d="M243.866 248.855C242.295 256.401 237.976 263.093 231.749 267.629C225.521 272.166 217.829 274.223 210.17 273.4C202.51 272.577 195.431 268.934 190.307 263.179C185.183 257.423 182.382 249.966 182.449 242.259C182.515 234.551 185.444 227.144 190.665 221.477C195.887 215.81 203.029 212.29 210.701 211.599C218.373 210.908 226.029 213.097 232.177 217.74C238.326 222.383 242.53 229.148 243.97 236.72C244.735 240.732 244.699 244.856 243.866 248.855Z" fill="#FED670"/>
<path d="M303.264 242.565C303.257 249.722 300.59 256.62 295.782 261.919C290.973 267.218 284.367 270.538 277.248 271.234C270.128 271.93 263.005 269.951 257.263 265.683C251.52 261.416 247.57 255.163 246.179 248.143C244.788 241.123 246.057 233.836 249.738 227.699C253.419 221.562 259.25 217.015 266.096 214.941C272.942 212.867 280.315 213.415 286.78 216.478C293.245 219.541 298.34 224.9 301.075 231.514C302.525 235.017 303.269 238.773 303.264 242.565Z" stroke="#FED670" stroke-width="7.07959" stroke-miterlimit="10"/>
<path d="M365.728 248.855C364.159 256.401 359.84 263.093 353.612 267.629C347.384 272.166 339.692 274.223 332.033 273.4C324.374 272.577 317.293 268.934 312.17 263.179C307.046 257.423 304.245 249.966 304.311 242.259C304.378 234.551 307.306 227.144 312.528 221.477C317.75 215.81 324.891 212.29 332.563 211.599C340.236 210.908 347.891 213.097 354.04 217.74C360.189 222.383 364.392 229.148 365.833 236.72C366.598 240.732 366.562 244.856 365.728 248.855Z" fill="#FED670"/>
<path d="M425.127 242.565C425.12 249.722 422.453 256.62 417.645 261.919C412.836 267.218 406.23 270.538 399.111 271.234C391.991 271.93 384.868 269.951 379.126 265.683C373.383 261.416 369.433 255.163 368.042 248.143C366.651 241.123 367.92 233.836 371.601 227.699C375.282 221.562 381.113 217.015 387.959 214.941C394.806 212.867 402.178 213.415 408.643 216.478C415.108 219.541 420.203 224.9 422.938 231.514C424.388 235.017 425.132 238.773 425.127 242.565Z" stroke="#FED670" stroke-width="7.07959" stroke-miterlimit="10"/>
<path d="M488.146 248.855C486.575 256.401 482.256 263.093 476.028 267.63C469.8 272.166 462.109 274.223 454.449 273.4C446.79 272.578 439.71 268.934 434.586 263.179C429.462 257.423 426.661 249.966 426.727 242.259C426.794 234.551 429.723 227.144 434.944 221.477C440.166 215.81 447.308 212.289 454.98 211.599C462.653 210.908 470.308 213.097 476.457 217.74C482.606 222.383 486.809 229.147 488.25 236.72C489.014 240.732 488.979 244.856 488.146 248.855Z" fill="#FED670"/>
<path d="M354.514 328.766C353.511 345.739 339.193 361.069 319.402 361.069C298.79 361.069 282.739 345.739 282.739 326.029C282.739 306.501 298.425 291.262 318.49 291.262C333.173 291.262 345.942 298.927 350.41 310.425H342.841C338.189 302.212 329.434 297.467 319.037 297.467C302.438 297.467 289.579 309.968 289.579 326.211C289.579 342.271 302.621 354.864 319.128 354.864C332.444 354.864 343.935 345.556 346.398 334.88H308.731V328.766H354.514ZM371.94 359.883H365.191V292.448H371.94V359.883ZM441.946 292.448L414.038 359.883H407.471L379.746 292.448H387.133L410.846 351.488L434.649 292.448H441.946Z" fill="#1C1426"/>
<path fill-rule="evenodd" clip-rule="evenodd" d="M122.048 356.815H122.05C122.804 356.31 123.636 355.754 124.392 355.2C130.922 350.413 136.214 344.135 139.83 336.888L141.739 333.1L132.152 330.543C131.853 330.463 131.55 330.382 131.244 330.299H131.242C130.352 330.06 129.436 329.813 128.524 329.582L126.002 328.943L124.697 331.197C121.299 336.994 116.327 341.707 110.358 344.789C97.0671 351.767 80.4108 349.095 70.0286 338.288C63.5716 331.566 60.347 323.299 60.2718 313.889L60.2501 311.257L44.286 307.036L44.0745 311.283C44.0688 311.368 44.0634 311.469 44.0577 311.578C44.0439 311.853 44.024 312.185 44.0159 312.48C43.6797 323.543 46.5801 333.755 52.8351 342.929C59.1745 352.209 68.4258 359.11 79.1254 362.538C89.8257 365.965 101.362 365.725 111.91 361.855C113.46 361.289 115.062 360.537 116.481 359.87C117.068 359.594 117.623 359.334 118.129 359.107H118.132L118.699 358.856L120.978 357.539L121.086 357.466C121.383 357.261 121.708 357.043 122.048 356.815ZM47.4972 311.824C47.4834 312.079 47.4666 312.329 47.4612 312.581C47.4585 312.632 47.4585 312.682 47.4555 312.733C47.4585 312.683 47.4585 312.632 47.4612 312.581C47.4696 312.33 47.4834 312.079 47.4972 311.825C47.5029 311.7 47.5113 311.575 47.5167 311.45C47.5113 311.575 47.5029 311.7 47.4972 311.824ZM131.266 333.871L130.337 333.621H130.331C129.448 333.383 128.566 333.147 127.68 332.922C123.956 339.281 118.506 344.453 111.961 347.837C105.696 351.092 98.6443 352.525 91.6058 351.974C98.6443 352.525 105.696 351.092 111.962 347.837C118.506 344.453 123.956 339.281 127.68 332.922C128.566 333.147 129.449 333.384 130.331 333.621L131.267 333.872L131.266 333.871Z" fill="#2FC8E0"/>
<path fill-rule="evenodd" clip-rule="evenodd" d="M20.6295 316.083C19.9697 316.704 19.2407 317.392 18.5859 318.063C12.9386 323.865 8.75777 330.933 6.39115 338.679L5.13477 342.732L15.0132 343.667L15.9484 343.757H15.9504C16.8671 343.846 17.8124 343.937 18.7497 344.014L21.3431 344.227L22.2574 341.789C24.649 335.509 28.7728 330.037 34.1496 326.009C46.1025 316.924 62.9714 316.801 74.9986 325.74C82.4766 331.299 87.0258 338.919 88.6566 348.187L89.1144 350.778L105.556 352.296L105.062 348.073C105.054 347.988 105.042 347.888 105.028 347.778C104.997 347.506 104.961 347.175 104.92 346.882C103.422 335.916 98.8718 326.326 91.1858 318.316C83.3989 310.213 73.1335 304.94 62.0144 303.331C50.8949 301.722 39.5569 303.869 29.7946 309.433C28.36 310.248 26.9026 311.255 25.6156 312.147C25.0826 312.517 24.5782 312.865 24.1158 313.172L24.1124 313.174L23.5952 313.516L21.5657 315.191L21.4716 315.283C21.2126 315.534 20.9268 315.802 20.6295 316.083ZM101.596 348.106C101.567 347.853 101.543 347.602 101.506 347.354C101.501 347.303 101.493 347.253 101.487 347.204C101.493 347.254 101.501 347.305 101.506 347.354C101.54 347.603 101.568 347.853 101.596 348.106C101.612 348.229 101.623 348.353 101.639 348.479C101.623 348.353 101.611 348.229 101.596 348.106ZM15.335 340.238C15.6543 340.268 15.9735 340.299 16.2927 340.33H16.2991C17.2091 340.418 18.1184 340.506 19.0291 340.58C21.6493 333.692 26.169 327.689 32.0632 323.268C37.7041 319.021 44.4215 316.439 51.4538 315.817C58.486 315.195 65.5518 316.556 71.8505 319.748C65.5518 316.556 58.486 315.195 51.4537 315.816C44.4213 316.439 37.7042 319.02 32.0632 323.268C26.169 327.689 21.6493 333.692 19.0291 340.58C18.1181 340.506 17.2085 340.418 16.2984 340.33L15.335 340.238V340.238Z" fill="#2FC8E0"/>
<path fill-rule="evenodd" clip-rule="evenodd" d="M240.295 356.815C241.049 356.31 241.882 355.754 242.638 355.2C249.168 350.413 254.46 344.135 258.076 336.888L259.985 333.1L250.398 330.543C250.099 330.463 249.797 330.382 249.49 330.299H249.488C248.598 330.06 247.681 329.813 246.769 329.582L244.248 328.943L242.943 331.197C239.545 336.994 234.573 341.707 228.604 344.789C215.313 351.767 198.657 349.095 188.274 338.288C181.817 331.566 178.593 323.299 178.518 313.889L178.495 311.257L162.532 307.036L162.32 311.283C162.314 311.368 162.309 311.469 162.304 311.578C162.29 311.853 162.27 312.185 162.262 312.48C161.926 323.543 164.826 333.755 171.081 342.929C177.42 352.209 186.672 359.11 197.371 362.538C208.071 365.965 219.608 365.725 230.156 361.855C231.705 361.289 233.308 360.537 234.726 359.87C235.313 359.594 235.87 359.334 236.374 359.107H236.378L236.944 358.856L239.223 357.539L239.331 357.466C239.63 357.261 239.954 357.043 240.295 356.815ZM165.743 311.824C165.729 312.079 165.712 312.329 165.707 312.581C165.704 312.632 165.704 312.682 165.701 312.733C165.704 312.683 165.704 312.632 165.707 312.581C165.715 312.33 165.729 312.079 165.743 311.825C165.749 311.7 165.757 311.575 165.762 311.45C165.757 311.575 165.749 311.7 165.743 311.824ZM249.512 333.871L248.583 333.621H248.577C247.694 333.383 246.812 333.147 245.926 332.922C242.203 339.281 236.752 344.453 230.208 347.837C223.942 351.092 216.89 352.525 209.852 351.974C216.891 352.525 223.942 351.092 230.208 347.837C236.752 344.453 242.203 339.281 245.926 332.922C246.812 333.147 247.694 333.384 248.577 333.621L249.513 333.872L249.512 333.871Z" fill="#2FC8E0"/>
<path fill-rule="evenodd" clip-rule="evenodd" d="M140.412 312.194H140.41C139.683 312.736 138.881 313.335 138.154 313.928C131.882 319.047 126.922 325.591 123.687 333.016L121.977 336.898L131.684 338.956C131.987 339.02 132.293 339.086 132.603 339.152H132.604C133.505 339.345 134.434 339.544 135.356 339.727L137.908 340.235L139.095 337.918C142.187 331.953 146.908 326.987 152.709 323.6C165.62 315.94 182.393 317.745 193.322 327.999C200.117 334.376 203.767 342.465 204.33 351.859L204.489 354.485L220.65 357.872L220.641 353.62C220.641 353.535 220.641 353.434 220.641 353.324C220.641 353.049 220.643 352.716 220.636 352.421C220.399 341.355 216.97 331.308 210.25 322.471C203.438 313.532 193.841 307.121 182.978 304.253C172.115 301.386 160.606 302.225 150.273 306.637C148.754 307.283 147.193 308.118 145.812 308.856C145.24 309.161 144.699 309.451 144.205 309.703H144.201L143.648 309.984L141.441 311.416L141.337 311.496C141.054 311.715 140.74 311.948 140.412 312.194ZM217.196 353.254C217.196 352.999 217.2 352.747 217.193 352.496C217.193 352.445 217.191 352.395 217.191 352.344C217.191 352.395 217.193 352.445 217.193 352.496C217.197 352.748 217.197 352.999 217.196 353.254C217.196 353.377 217.196 353.502 217.196 353.628C217.195 353.503 217.197 353.378 217.196 353.254ZM132.396 335.586C132.71 335.653 133.024 335.721 133.337 335.788H133.344C134.238 335.979 135.131 336.17 136.027 336.349C139.417 329.804 144.591 324.356 150.951 320.637C157.04 317.062 164.008 315.264 171.065 315.45C164.007 315.264 157.04 317.061 150.951 320.637C144.592 324.356 139.417 329.804 136.027 336.349C135.131 336.17 134.237 335.978 133.343 335.788L132.396 335.586H132.396Z" fill="#2FC8E0"/>
<path d="M222.708 313.654L273.545 357.188C271.23 342.739 268.914 328.289 266.599 313.839L222.708 313.654Z" fill="#2FC8E0"/>
</svg>
