<svg width="58" height="40" viewBox="0 0 58 40" fill="none" xmlns="http://www.w3.org/2000/svg">
<path fill-rule="evenodd" clip-rule="evenodd" d="M37.3055 35.8188L35.7818 36.6172L35.4047 36.7665H35.4023C35.065 36.901 34.6953 37.0567 34.3035 37.2211C33.3589 37.6187 32.2917 38.0677 31.2636 38.397C24.2652 40.6506 16.7089 40.5249 9.79061 38.0396C2.87233 35.5543 -3.01279 30.8514 -6.93333 24.6752C-10.5284 19.1087 -12.286 12.5696 -11.9621 5.96665L-1.30138 4.3056L-1.35153 6.01379C-1.53378 12.1212 0.374237 17.5642 4.43355 22.083C10.9629 29.3484 21.7982 31.4888 30.668 27.2851C34.6501 25.4312 38.0201 22.4947 40.3865 18.8166L41.2961 17.3867L42.931 17.8635C43.5219 18.0359 44.1162 18.2188 44.6923 18.3949C44.8908 18.456 45.0868 18.5161 45.2803 18.5751L51.4919 20.4705L50.1492 22.8821C47.6047 27.4955 43.9864 31.4397 39.5954 34.3864C39.0866 34.7271 38.528 35.068 38.0223 35.3762L37.3055 35.8188ZM-9.64096 4.12461C-9.64765 4.20611 -9.65597 4.28688 -9.66266 4.3672C-9.67818 4.53186 -9.69353 4.69436 -9.70499 4.85712C-9.6952 4.69436 -9.67818 4.53186 -9.66266 4.3672C-9.65597 4.28641 -9.64765 4.20559 -9.64096 4.12409V4.12461ZM44.6184 20.715C44.4167 20.6536 44.2147 20.5918 44.0127 20.5298C43.4409 20.3542 42.8688 20.1789 42.2946 20.0114C39.7015 24.0465 36.0075 27.2691 31.6417 29.3051C27.4609 31.2637 22.8104 32.0213 18.2177 31.4919C22.8104 32.0212 27.4607 31.2635 31.6415 29.3049C36.0073 27.269 39.7015 24.0464 42.2946 20.0114C42.8679 20.1786 43.4409 20.354 44.0122 20.5295H44.0161L44.618 20.7136L44.6184 20.715Z" fill="#FED670"/>
<path d="M50.4907 14.8972C46.3434 14.8972 42.9814 11.5623 42.9814 7.44858C42.9814 3.33484 46.3434 0 50.4907 0C54.638 0 58 3.33484 58 7.44858C58 11.5623 54.638 14.8972 50.4907 14.8972Z" fill="#FED670"/>
</svg>
