<svg width="180" height="56" viewBox="0 0 180 56" fill="none" xmlns="http://www.w3.org/2000/svg">
<path d="M85.1231 13.3655C85.1827 13.3784 85.2431 13.388 85.3038 13.3944C89.0455 13.5498 92.5997 15.075 95.2904 17.6798C95.3538 17.744 95.4236 17.8083 95.4767 17.8567L93.3145 20.0208C93.2213 19.9379 93.1124 19.8345 93.0015 19.7321C91.6953 18.5202 90.1426 17.605 88.4498 17.0491C87.7176 16.8108 86.9651 16.6399 86.2018 16.5385C85.4019 16.4391 84.5945 16.4145 83.79 16.4649C82.9193 16.5149 82.0573 16.6644 81.2206 16.9102C80.505 17.1129 79.8096 17.3811 79.1432 17.7114C78.2276 18.1564 77.3747 18.7203 76.6065 19.3883C76.3093 19.6454 76.0168 19.9155 75.7392 20.1968C75.1858 20.7617 74.6908 21.3809 74.2617 22.0451C73.8494 22.6772 73.4961 23.3458 73.2062 24.0425C72.8351 24.922 72.572 25.8431 72.4227 26.7859C72.3584 27.1856 72.3147 27.589 72.2904 27.9971C72.2588 28.479 72.2523 28.9621 72.2709 29.4447C72.311 30.2797 72.4394 31.1082 72.6537 31.9163C73.3001 34.4004 74.7039 36.6216 76.6704 38.2714C78.6368 39.9211 81.0683 40.9175 83.6269 41.1222C84.221 41.1653 84.8172 41.1694 85.4118 41.1344C86.3751 41.0779 87.3277 40.9037 88.2485 40.6155C88.8813 40.4216 89.497 40.1757 90.0893 39.8804C92.0441 38.9091 93.7078 37.4389 94.9122 35.6184C95.5889 34.5992 96.1086 33.484 96.454 32.3103C96.4856 32.2032 96.5182 32.096 96.5536 31.9619C96.1456 31.9572 95.7627 31.9619 95.3789 31.9619H81.5141L84.6563 28.8169H100.015V29.0339C99.9622 32.4945 98.748 35.8367 96.5674 38.5244C94.3869 41.2121 91.3667 43.0892 87.9914 43.8545C87.1335 44.0465 86.2609 44.1659 85.383 44.2114C84.6491 44.2551 83.9129 44.2394 83.1816 44.1648C79.9358 43.8603 76.8698 42.5357 74.4233 40.381C71.9768 38.2262 70.2756 35.3519 69.5637 32.1706C69.3533 31.257 69.2338 30.325 69.2069 29.388C69.0729 25.8034 70.1915 22.284 72.3704 19.4346C74.5494 16.5851 77.6526 14.5836 81.147 13.7736C81.9333 13.5922 82.7326 13.4723 83.5375 13.4149C83.6549 13.4056 83.7741 13.4093 83.8915 13.4028C83.9521 13.3963 84.0117 13.386 84.0722 13.3739L85.1231 13.3655Z" fill="white"/>
<path d="M180 44.2248H176.925V31.9606H167.667V44.1961C167.546 44.2315 164.811 44.2416 164.6 44.2099V25.7859H167.663V28.7671C167.791 28.8025 176.626 28.8146 176.925 28.782V19.6366C176.968 19.6291 177.011 19.6235 177.054 19.6198H179.921C179.947 19.6208 179.972 19.6233 179.998 19.6273L180 44.2248Z" fill="white"/>
<path d="M149.154 31.9456H136.889L133.753 28.8062H145.614C145.171 27.5495 144.462 26.4031 143.535 25.4453C142.608 24.4875 141.486 23.7408 140.245 23.256C139.004 22.7712 137.672 22.5598 136.342 22.6361C135.012 22.7124 133.713 23.0747 132.535 23.6982C131.186 24.4139 130.033 25.4518 129.181 26.7198C128.329 27.9877 127.803 29.4466 127.65 30.9667C127.497 32.4868 127.722 34.0211 128.304 35.4335C128.887 36.8459 129.809 38.0927 130.989 39.063C132.75 40.5408 135.009 41.2916 137.304 41.1627C139.589 41.0712 141.757 40.1266 143.379 38.5152L145.509 40.6475C143.488 42.6484 140.836 43.8869 138.004 44.1522C135.173 44.4175 132.337 43.6932 129.979 42.1026C127.622 40.5119 125.889 38.1533 125.075 35.4284C124.261 32.7034 124.416 29.7806 125.515 27.1576C126.614 24.5345 128.588 22.3734 131.101 21.0422C133.614 19.711 136.511 19.292 139.298 19.8566C142.086 20.4211 144.591 21.9344 146.388 24.1386C148.185 26.3428 149.163 29.1017 149.154 31.9456V31.9456Z" fill="white"/>
<path d="M112.389 37.9959L122.982 19.6324H126.492L126.501 19.6473C126.501 19.6473 126.501 19.6576 126.501 19.6613C126.494 19.6804 126.486 19.699 126.476 19.7171L112.344 44.2179H109.286V19.6594L109.297 19.6445C109.3 19.6408 109.305 19.6383 109.31 19.6371C109.33 19.6318 109.35 19.6283 109.37 19.6268H112.269C112.295 19.6295 112.32 19.6335 112.346 19.6389V37.9912L112.389 37.9959Z" fill="white"/>
<path d="M155.335 44.2167H152.261V22.6235C152.051 22.6113 151.853 22.6234 151.655 22.6178H148.619L146.877 19.6302H167.652V22.6113H155.335V44.2167Z" fill="white"/>
<path d="M106.178 44.2177H103.123V25.7853H106.164L106.171 25.7937C106.171 25.7937 106.181 25.8011 106.181 25.8048C106.181 31.9142 106.183 38.0235 106.186 44.1329C106.178 44.158 106.178 44.1823 106.178 44.2177Z" fill="white"/>
<path d="M104.647 19.6224C105.051 19.6255 105.437 19.7886 105.722 20.0761C106.006 20.3635 106.164 20.7519 106.163 21.1561C106.161 21.5602 106 21.9474 105.713 22.2326C105.427 22.5179 105.039 22.6781 104.635 22.6781C104.231 22.6781 103.843 22.5179 103.557 22.2326C103.271 21.9474 103.109 21.5602 103.107 21.1561C103.106 20.7519 103.265 20.3635 103.549 20.0761C103.833 19.7886 104.219 19.6255 104.624 19.6224H104.647Z" fill="white"/>
<path d="M55.6188 28.6829C55.5638 29.4645 55.5452 30.2518 55.4493 31.0278C55.0481 34.9505 53.8034 38.7401 51.8005 42.1368C49.7976 45.5335 47.0839 48.4569 43.8454 50.7065C38.9418 54.2669 32.976 56.0594 26.9222 55.7912C19.973 55.6151 13.3514 52.8006 8.4022 47.9193C8.37855 47.8765 8.36615 47.8284 8.36615 47.7795C8.36615 47.7306 8.37855 47.6825 8.4022 47.6398C14.8612 41.169 21.327 34.7051 27.7997 28.2479C27.953 28.1079 28.1512 28.027 28.3587 28.0197C37.4466 28.0085 46.5343 28.0054 55.6216 28.0103L55.6188 28.6829Z" fill="white"/>
<path d="M28.4834 0.182739C29.2473 0.240498 30.0131 0.275909 30.7742 0.356957C35.1747 0.819709 39.3994 2.33421 43.0917 4.77268C43.1173 4.79139 43.1416 4.81198 43.1643 4.8342L40.7916 7.20229C40.2755 7.71746 39.7622 8.23636 39.2395 8.745C39.2067 8.76667 39.169 8.7798 39.1298 8.78321C39.0906 8.78663 39.0511 8.78023 39.015 8.76456C34.7652 6.29199 29.8166 5.29514 24.9408 5.92943C20.0651 6.56372 15.5363 8.79348 12.0605 12.2711C8.58467 15.7487 6.35724 20.2787 5.72549 25.1548C5.09373 30.0309 6.09315 34.979 8.56793 39.2276C8.58343 39.2572 8.59155 39.29 8.59155 39.3234C8.59155 39.3568 8.58343 39.3898 8.56793 39.4194C7.27488 40.7236 5.97719 42.0228 4.67483 43.3171C4.66179 43.3302 4.64594 43.3404 4.61706 43.3647C4.4941 43.1783 4.37112 42.9921 4.25467 42.8057C1.83065 38.9435 0.393558 34.5444 0.0699446 29.9959C-0.253669 25.4475 0.546128 20.8893 2.39891 16.7227C4.2517 12.5562 7.10061 8.90915 10.6947 6.10285C14.2889 3.29655 18.5179 1.41708 23.0094 0.629997C24.2782 0.407348 25.575 0.350527 26.8587 0.21731L27.1205 0.189335L28.4834 0.182739Z" fill="white"/>
<path d="M42.5837 16.9734C42.5849 15.7291 43.0488 14.5298 43.8853 13.6086C44.7217 12.6874 45.8708 12.1101 47.1092 11.9891C48.3476 11.8681 49.5867 12.2121 50.5856 12.954C51.5845 13.6959 52.2718 14.7828 52.5137 16.0034C52.7557 17.2239 52.5351 18.4909 51.8948 19.5578C51.2545 20.6247 50.2404 21.4153 49.0495 21.776C47.8586 22.1366 46.5762 22.0415 45.4516 21.5091C44.3269 20.9767 43.4405 20.045 42.9647 18.8953C42.7124 18.286 42.5829 17.6329 42.5837 16.9734V16.9734Z" fill="white"/>
</svg>
