<svg width="180" height="72" viewBox="0 0 180 72" fill="none" xmlns="http://www.w3.org/2000/svg">
<path fill-rule="evenodd" clip-rule="evenodd" d="M7.63628 16.6106C7.52374 15.5747 8.0706 15.461 8.3581 15.5336C8.3581 15.5336 13.1138 17.5537 22.6108 17.7195C32.1078 17.8852 37.3342 15.6044 37.3342 15.6044C37.6221 15.5332 38.1684 15.6496 38.0508 16.6849C37.9332 17.7202 37.7533 20.7116 37.678 22.0779L43.1438 22.0912C43.8151 22.0689 45.0559 22.4555 44.6489 24.1805C44.5661 24.5314 44.4447 25.1318 44.2887 25.9026C43.4862 29.8678 41.7712 38.3429 39.7185 40.5658C38.2759 42.2883 36.332 43.1466 34.8208 43.5025C33.562 43.8768 32.2493 43.8109 31.7954 43.7882L31.7953 43.7882C31.7302 43.7849 31.6828 43.7825 31.6558 43.7824C30.6452 45.2903 28.0626 48.549 25.8164 49.5216C25.0841 49.7859 25.09 50.052 25.0946 50.2611C25.0949 50.2781 25.0953 50.2948 25.0953 50.311C25.2104 52.2531 25.6984 56.5981 26.7295 58.4417C26.8663 58.7169 26.9047 58.9263 26.9311 59.0699C26.9599 59.2269 26.9743 59.3053 27.087 59.3056L28.4534 59.309C28.5973 59.3093 28.9425 59.3102 29.1719 59.5984C29.2945 59.7524 29.5096 59.7489 29.7436 59.7451C30.0569 59.74 30.4041 59.7343 30.609 60.1053C30.8284 60.5025 30.7828 60.9266 30.7593 61.1452C30.7542 61.1928 30.7501 61.2307 30.75 61.2564L32.9076 61.2616C33.1713 61.2623 33.6984 61.393 33.6971 61.9108L33.6866 66.2259C33.6864 66.3045 33.6807 66.3688 33.6761 66.4214C33.6554 66.6573 33.6554 66.6573 34.2608 66.6588L36.1307 66.6634C36.2507 66.6637 36.4903 66.6786 36.4887 67.3115L36.484 69.2533C36.4836 69.3971 36.4829 69.6848 35.8356 69.6832L9.59239 69.6191C8.94512 69.6175 8.94583 69.3298 8.94618 69.186L8.95092 67.2442C8.95247 66.6114 9.19206 66.5976 9.31209 66.5979L11.182 66.6024C11.7873 66.6039 11.7873 66.6039 11.7678 66.3678L11.7678 66.3678L11.7678 66.3677C11.7635 66.3152 11.7582 66.2509 11.7584 66.1723L11.7689 61.8572C11.7702 61.3394 12.2979 61.2113 12.5616 61.2119L14.7191 61.2172C14.7192 61.1915 14.7153 61.1536 14.7104 61.106C14.688 60.8873 14.6444 60.463 14.8658 60.0669C15.0725 59.6969 15.4197 59.7042 15.7329 59.7109C15.9669 59.7158 16.182 59.7204 16.3053 59.5669C16.5362 59.2798 16.8814 59.2807 17.0252 59.281L18.3917 59.2844C18.5043 59.2847 18.5191 59.2062 18.5487 59.0494C18.5758 58.9059 18.6152 58.6968 18.7534 58.4222C19.7935 56.5837 20.3027 52.2411 20.4273 50.2996C20.4274 50.2834 20.4278 50.2668 20.4283 50.2499L20.4283 50.2497C20.4339 50.0406 20.441 49.7745 19.7101 49.5067C17.4686 48.5232 14.902 45.2518 13.8988 43.7391C13.8719 43.739 13.8248 43.7411 13.7602 43.744L13.7599 43.7441L13.7592 43.7441L13.7591 43.7441C13.3051 43.7646 11.9921 43.8241 10.7351 43.4437C9.22572 43.0804 7.28605 42.2126 5.85191 40.4831C3.81009 38.2502 2.13644 29.7667 1.3534 25.7976C1.2012 25.0261 1.08264 24.4252 1.00157 24.0739C0.603048 22.3469 1.84576 21.9663 2.51694 21.9919L7.98269 22.0053C7.91411 20.6387 7.74882 17.6465 7.63628 16.6106ZM3.98936 24.3963C3.14854 24.3817 3.3482 25.3647 3.50012 26.1126C3.51983 26.2097 3.53874 26.3028 3.55447 26.3893C3.69138 27.1419 4.3274 30.2438 6.00073 35.2343C7.67406 40.2248 10.9086 40.588 12.3167 40.1458C11.3528 38.0618 9.31869 31.3912 8.90883 29.0834C8.49896 26.7756 7.98915 24.4661 7.38919 24.4557L3.98936 24.3963ZM42.1027 26.4096C42.2676 25.6644 42.4844 24.685 41.6435 24.685L38.2431 24.685C37.6431 24.685 37.093 26.9852 36.643 29.2855C36.1929 31.5858 34.0427 38.2198 33.0426 40.2867C34.4427 40.7534 37.6831 40.4467 39.4433 35.4862C41.2034 30.5256 41.8935 27.4353 42.0435 26.6852C42.0608 26.5991 42.0813 26.5063 42.1027 26.4096L42.1027 26.4096ZM27.6763 34.1435L22.7738 37.2289L17.8927 34.1098L22.7594 41.2059L22.7594 41.2079L22.7601 41.2069L22.7608 41.2079L22.7608 41.2059L27.6763 34.1435ZM22.8219 23.6981L22.8219 23.6935L22.8205 23.6958L22.8192 23.6936L22.8192 23.698L17.868 32.1588L22.7794 35.2387L22.7794 35.2404L22.7808 35.2395L22.782 35.2403L22.782 35.2387L27.7146 32.1928L22.8219 23.6981Z" fill="#FFB636"/>
<path d="M37.8483 15.7558C37.8363 17.1366 31.1551 18.1977 22.9255 18.1259C14.6958 18.0541 7.83419 16.873 7.84624 15.4922C7.85829 14.1114 14.7395 13.0537 22.9691 13.1256C31.1987 13.1974 37.8604 14.375 37.8483 15.7558Z" fill="#FFD469"/>
<path d="M33.5286 20.6784C34.2639 20.6784 34.3952 20.6784 35.7285 20.2117C35.5633 21.0989 34.6938 27.8229 34.3952 28.8781C33.5975 31.6979 32.6966 36.0556 31.5286 36.8977C31.3067 37.0577 30.3287 36.8977 29.9647 36.6632C29.6006 36.4287 30.862 34.0113 32.3953 28.8781C33.262 23.345 32.9953 20.945 33.5286 20.6784Z" fill="#FFCC4E"/>
<path d="M73.3161 13.5952C82.4002 13.5952 89.7643 21.0823 89.7643 30.3181V39.9337C89.7643 49.1695 82.4002 56.6566 73.3161 56.6566C71.8892 56.6566 70.5047 56.4718 69.1845 56.1246L69.1847 57.2597C69.1847 64.0161 63.7715 69.506 57.0525 69.6151L56.8485 69.6168V32.8265L56.8674 32.8261L56.8679 30.3181C56.8679 21.0823 64.232 13.5952 73.3161 13.5952ZM146.975 13.5952C156.064 13.5952 163.433 21.1251 163.433 30.4136V40.0842C163.433 49.3728 156.064 56.9027 146.975 56.9027C137.886 56.9027 130.517 49.3728 130.517 40.0842V30.4136C130.517 21.1251 137.886 13.5952 146.975 13.5952ZM110.141 12.8006C119.23 12.8006 126.599 20.3305 126.599 29.619V39.2896C126.599 48.5782 119.23 56.108 110.141 56.108C101.051 56.108 93.6828 48.5782 93.6828 39.2896V29.619C93.6828 20.3305 101.051 12.8006 110.141 12.8006ZM179.891 0.881104V43.5475C179.891 50.4151 174.388 55.9954 167.559 56.1064L167.351 56.108V13.4417C167.351 6.50466 172.966 0.881104 179.891 0.881104ZM146.975 26.209C144.703 26.209 142.861 28.0915 142.861 30.4136V40.0842C142.861 42.4064 144.703 44.2888 146.975 44.2888C149.247 44.2888 151.09 42.4064 151.09 40.0842V30.4136C151.09 28.0915 149.247 26.209 146.975 26.209ZM73.3161 26.1374C71.045 26.1374 69.204 28.0091 69.204 30.3181V39.9337C69.204 42.2427 71.045 44.1144 73.3161 44.1144C75.5871 44.1144 77.4281 42.2427 77.4281 39.9337V30.3181C77.4281 28.0091 75.5871 26.1374 73.3161 26.1374ZM110.141 25.4144C107.868 25.4144 106.026 27.2969 106.026 29.619V39.2896C106.026 41.6118 107.868 43.4942 110.141 43.4942C112.413 43.4942 114.255 41.6118 114.255 39.2896V29.619C114.255 27.2969 112.413 25.4144 110.141 25.4144Z" fill="white"/>
<path d="M133.832 67.6018H133.49C133.15 67.6018 132.851 67.2833 132.851 66.7874V64.4443H133.581C133.92 64.4443 134.179 64.2195 134.179 63.8997C134.179 63.7381 134.119 63.5943 134.009 63.4915C133.899 63.3892 133.749 63.3352 133.581 63.3352H132.851V62.0213C132.851 61.6625 132.583 61.3968 132.222 61.3968C131.861 61.3968 131.593 61.6625 131.593 62.0213V63.3352H131.256C131.088 63.3352 130.937 63.3892 130.828 63.4915C130.718 63.5943 130.657 63.7381 130.657 63.8997C130.657 64.2195 130.916 64.4443 131.256 64.4443H131.593V66.7874C131.593 67.9541 132.403 68.8508 133.49 68.8508H133.671C134.062 68.8508 134.391 68.6039 134.391 68.2263C134.391 67.8839 134.159 67.6018 133.832 67.6018Z" fill="white"/>
<path fill-rule="evenodd" clip-rule="evenodd" d="M141.418 65.9981L141.418 65.9973C141.408 64.3018 140.206 63.0954 138.525 63.0954C137.68 63.0954 136.952 63.394 136.436 63.9104C135.92 64.4268 135.622 65.1539 135.622 65.9981C135.622 66.8374 135.92 67.562 136.436 68.077C136.952 68.5921 137.68 68.8907 138.525 68.8907C139.366 68.8907 140.091 68.592 140.606 68.0769C141.12 67.5619 141.418 66.8374 141.418 65.9981ZM138.525 64.2445C139.016 64.2445 139.427 64.4264 139.717 64.7322C140.007 65.0385 140.181 65.4764 140.181 65.9981C140.181 66.5197 140.007 66.9548 139.717 67.2586C139.428 67.5619 139.016 67.7416 138.525 67.7416C138.034 67.7416 137.62 67.5618 137.328 67.2582C137.036 66.9543 136.86 66.5192 136.86 65.9981C136.86 64.9615 137.555 64.2445 138.525 64.2445Z" fill="white"/>
<path fill-rule="evenodd" clip-rule="evenodd" d="M145.799 71.1189C144.809 71.1189 143.906 70.7252 143.306 69.9732C143.194 69.8375 143.152 69.6791 143.179 69.5273C143.206 69.3767 143.298 69.2439 143.434 69.1522L143.435 69.1515C143.736 68.952 144.101 69.0419 144.298 69.299C144.634 69.7241 145.148 69.9699 145.819 69.9699C146.27 69.9699 146.682 69.8046 146.981 69.4917C147.279 69.1789 147.474 68.7094 147.474 68.0864V68.0071C147.03 68.5637 146.383 68.8907 145.618 68.8907C144.829 68.8907 144.151 68.5899 143.671 68.0737C143.192 67.5582 142.916 66.8348 142.916 65.9981C142.916 65.1539 143.214 64.4268 143.73 63.9104C144.246 63.394 144.973 63.0954 145.819 63.0954C147.5 63.0954 148.702 64.3018 148.712 65.9973L148.712 65.9981L148.712 68.1563C148.712 69.7981 147.525 71.1189 145.799 71.1189ZM145.819 67.7416C145.328 67.7416 144.914 67.5618 144.622 67.2582C144.33 66.9543 144.154 66.5192 144.154 65.9981C144.154 64.9615 144.848 64.2445 145.819 64.2445C146.309 64.2445 146.721 64.4264 147.01 64.7322C147.3 65.0385 147.474 65.4764 147.474 65.9981C147.474 66.5197 147.3 66.9548 147.011 67.2586C146.721 67.5619 146.31 67.7416 145.819 67.7416Z" fill="white"/>
<path fill-rule="evenodd" clip-rule="evenodd" d="M155.085 67.4204C154.863 67.2395 154.537 67.2469 154.295 67.4267C154.044 67.6116 153.587 67.7816 153.203 67.7816C152.291 67.7816 151.617 67.2501 151.425 66.4727H155.095C155.259 66.4727 155.407 66.418 155.515 66.3157C155.624 66.2131 155.684 66.0697 155.684 65.9081C155.684 65.0948 155.443 64.3908 154.987 63.8886C154.531 63.3849 153.869 63.0954 153.052 63.0954C152.226 63.0954 151.513 63.3947 151.007 63.9114C150.502 64.4278 150.21 65.1546 150.21 65.9981C150.21 66.8388 150.518 67.5638 151.051 68.0785C151.584 68.593 152.334 68.8907 153.203 68.8907C153.843 68.8907 154.626 68.633 155.103 68.2544C155.24 68.1482 155.315 68.0021 155.31 67.8437C155.305 67.6876 155.223 67.5396 155.087 67.4225L155.085 67.4204ZM153.052 64.2045C153.475 64.2045 153.807 64.3458 154.049 64.5809C154.263 64.7895 154.411 65.0783 154.483 65.4235H151.436C151.522 65.078 151.691 64.7904 151.932 64.5823C152.206 64.3459 152.581 64.2045 153.052 64.2045Z" fill="white"/>
<path d="M159.715 67.6018H159.373C159.033 67.6018 158.734 67.2833 158.734 66.7874V64.4443H159.463C159.803 64.4443 160.062 64.2195 160.062 63.8997C160.062 63.7381 160.002 63.5943 159.892 63.4915C159.782 63.3892 159.631 63.3352 159.463 63.3352H158.734V62.0213C158.734 61.6625 158.466 61.3968 158.105 61.3968C157.744 61.3968 157.476 61.6625 157.476 62.0213V63.3352H157.139C156.971 63.3352 156.82 63.3892 156.711 63.4915C156.6 63.5943 156.54 63.7381 156.54 63.8997C156.54 64.2195 156.799 64.4443 157.139 64.4443H157.476V66.7874C157.476 67.9541 158.286 68.8508 159.373 68.8508H159.554C159.945 68.8508 160.274 68.6039 160.274 68.2263C160.274 67.8839 160.041 67.6018 159.715 67.6018Z" fill="white"/>
<path d="M164.65 63.0854C164.042 63.0854 163.491 63.274 163.065 63.6033V61.4317C163.065 61.2519 163.001 61.0917 162.884 60.9762C162.768 60.8607 162.607 60.7972 162.426 60.7972C162.245 60.7972 162.083 60.8607 161.967 60.9762C161.851 61.0917 161.787 61.2519 161.787 61.4317V68.2263C161.787 68.4061 161.851 68.5663 161.967 68.6818C162.083 68.7973 162.245 68.8607 162.426 68.8607C162.607 68.8607 162.768 68.7973 162.884 68.6818C163.001 68.5663 163.065 68.4061 163.065 68.2263V65.4085C163.065 64.7662 163.643 64.2545 164.448 64.2545C164.884 64.2545 165.249 64.3754 165.505 64.6162C165.76 64.8557 165.923 65.2293 165.923 65.7682V68.2263C165.923 68.585 166.2 68.8607 166.562 68.8607C166.923 68.8607 167.201 68.585 167.201 68.2263V65.7682C167.201 64.9122 166.93 64.2388 166.468 63.7791C166.007 63.3197 165.367 63.0854 164.65 63.0854Z" fill="white"/>
<path fill-rule="evenodd" clip-rule="evenodd" d="M173.763 66.4727H170.093C170.285 67.2501 170.958 67.7816 171.871 67.7816C172.255 67.7816 172.712 67.6115 172.963 67.4266C173.205 67.2468 173.531 67.2395 173.752 67.4204L173.755 67.4226C173.89 67.5396 173.973 67.6876 173.978 67.8437C173.983 68.0021 173.908 68.1483 173.77 68.2545C173.293 68.633 172.511 68.8907 171.871 68.8907C171.001 68.8907 170.252 68.593 169.719 68.0785C169.186 67.5638 168.877 66.8388 168.877 65.9981C168.877 65.1546 169.169 64.4278 169.675 63.9114C170.181 63.3947 170.893 63.0954 171.72 63.0954C172.537 63.0954 173.198 63.3849 173.655 63.8886C174.11 64.3908 174.352 65.0948 174.352 65.9081C174.352 66.0697 174.291 66.2131 174.183 66.3157C174.075 66.418 173.927 66.4727 173.763 66.4727ZM171.72 64.2045C172.143 64.2045 172.475 64.3458 172.716 64.5809C172.93 64.7895 173.079 65.0783 173.151 65.4235H170.104C170.19 65.078 170.359 64.7904 170.6 64.5823C170.874 64.3459 171.248 64.2045 171.72 64.2045Z" fill="white"/>
<path d="M178.735 63.0754C178.135 63.0754 177.58 63.2929 177.164 63.6537C177.149 63.5131 177.099 63.3904 177.006 63.2981C176.89 63.1832 176.728 63.1354 176.541 63.1354C176.357 63.1354 176.195 63.1872 176.08 63.3018C175.964 63.4165 175.912 63.577 175.912 63.7599V68.2263C175.912 68.4132 175.964 68.5746 176.081 68.6887C176.197 68.8024 176.359 68.8508 176.541 68.8508C176.729 68.8508 176.892 68.7994 177.007 68.6836C177.121 68.5681 177.17 68.4073 177.17 68.2263V65.3086C177.17 64.901 177.383 64.5918 177.75 64.4071C178.123 64.2199 178.658 64.1609 179.282 64.2817C179.43 64.3152 179.582 64.313 179.713 64.2491C179.848 64.1827 179.941 64.0593 179.984 63.8901C180.014 63.7728 180.002 63.6565 179.95 63.5504C179.899 63.4459 179.812 63.3586 179.701 63.2894C179.481 63.1522 179.15 63.0754 178.735 63.0754Z" fill="white"/>
</svg>
