<?xml version="1.0" encoding="UTF-8"?>
<!DOCTYPE svg PUBLIC "-//W3C//DTD SVG 1.1//EN" "http://www.w3.org/Graphics/SVG/1.1/DTD/svg11.dtd">
<svg xmlns="http://www.w3.org/2000/svg" version="1.1" width="16px" height="16px" style="shape-rendering:geometricPrecision; text-rendering:geometricPrecision; image-rendering:optimizeQuality; fill-rule:evenodd; clip-rule:evenodd" xmlns:xlink="http://www.w3.org/1999/xlink">
<g><path style="opacity:0.412" fill="#fcfcfc" d="M 3.5,-0.5 C 6.16667,-0.5 8.83333,-0.5 11.5,-0.5C 13.1667,0.5 14.5,1.83333 15.5,3.5C 15.5,6.16667 15.5,8.83333 15.5,11.5C 14.5,13.1667 13.1667,14.5 11.5,15.5C 8.83333,15.5 6.16667,15.5 3.5,15.5C 1.83333,14.5 0.5,13.1667 -0.5,11.5C -0.5,8.83333 -0.5,6.16667 -0.5,3.5C 0.5,1.83333 1.83333,0.5 3.5,-0.5 Z"/></g>
<g><path style="opacity:1" fill="#ededee" d="M 4.5,1.5 C 6.19919,1.33982 7.86586,1.50649 9.5,2C 5.55096,2.80678 5.55096,3.30678 9.5,3.5C 3.43566,3.67234 2.10233,6.33901 5.5,11.5C 6.32496,12.3857 7.32496,12.719 8.5,12.5C 8.10073,13.5211 6.76739,13.8545 4.5,13.5C 3.83333,12.1667 2.83333,11.1667 1.5,10.5C 0.166667,8.5 0.166667,6.5 1.5,4.5C 2.83333,3.83333 3.83333,2.83333 4.5,1.5 Z"/></g>
<g><path style="opacity:1" fill="#d7d7d8" d="M 4.5,1.5 C 6.5,0.166667 8.5,0.166667 10.5,1.5C 11.1667,2.83333 12.1667,3.83333 13.5,4.5C 14.8333,6.5 14.8333,8.5 13.5,10.5C 12.1667,11.1667 11.1667,12.1667 10.5,13.5C 8.5,14.8333 6.5,14.8333 4.5,13.5C 6.76739,13.8545 8.10073,13.5211 8.5,12.5C 8.61071,11.8826 8.94404,11.3826 9.5,11C 8.44786,9.88081 7.2812,9.38081 6,9.5C 5.51722,8.55198 5.35055,7.55198 5.5,6.5C 7.91146,6.13673 9.41146,7.13673 10,9.5C 11.9766,7.14479 11.81,5.14479 9.5,3.5C 5.55096,3.30678 5.55096,2.80678 9.5,2C 7.86586,1.50649 6.19919,1.33982 4.5,1.5 Z"/></g>
<g><path style="opacity:1" fill="#a0a1a1" d="M 10.5,1.5 C 12.5,1.5 13.5,2.5 13.5,4.5C 12.1667,3.83333 11.1667,2.83333 10.5,1.5 Z"/></g>
<g><path style="opacity:1" fill="#9e9f9f" d="M 4.5,1.5 C 3.83333,2.83333 2.83333,3.83333 1.5,4.5C 1.5,2.5 2.5,1.5 4.5,1.5 Z"/></g>
<g><path style="opacity:1" fill="#cfcfcf" d="M 9.5,3.5 C 11.81,5.14479 11.9766,7.14479 10,9.5C 9.41146,7.13673 7.91146,6.13673 5.5,6.5C 5.35055,7.55198 5.51722,8.55198 6,9.5C 7.2812,9.38081 8.44786,9.88081 9.5,11C 8.94404,11.3826 8.61071,11.8826 8.5,12.5C 7.32496,12.719 6.32496,12.3857 5.5,11.5C 2.10233,6.33901 3.43566,3.67234 9.5,3.5 Z"/></g>
<g><path style="opacity:1" fill="#a0a1a1" d="M 13.5,10.5 C 13.5,12.5 12.5,13.5 10.5,13.5C 11.1667,12.1667 12.1667,11.1667 13.5,10.5 Z"/></g>
<g><path style="opacity:1" fill="#9e9e9f" d="M 1.5,10.5 C 2.83333,11.1667 3.83333,12.1667 4.5,13.5C 2.5,13.5 1.5,12.5 1.5,10.5 Z"/></g>
</svg>
