<?xml version="1.0" encoding="UTF-8"?>
<!DOCTYPE svg PUBLIC "-//W3C//DTD SVG 1.1//EN" "http://www.w3.org/Graphics/SVG/1.1/DTD/svg11.dtd">
<svg xmlns="http://www.w3.org/2000/svg" version="1.1" width="24px" height="24px" style="shape-rendering:geometricPrecision; text-rendering:geometricPrecision; image-rendering:optimizeQuality; fill-rule:evenodd; clip-rule:evenodd" xmlns:xlink="http://www.w3.org/1999/xlink">
<g><path style="opacity:0.644" fill="#fcfcfc" d="M 6.5,-0.5 C 9.83333,-0.5 13.1667,-0.5 16.5,-0.5C 17.6935,0.271873 18.6935,1.27187 19.5,2.5C 18.8333,2.5 18.1667,2.5 17.5,2.5C 15.8825,1.02769 13.8825,0.361027 11.5,0.5C 9.95492,0.510839 8.62159,0.844172 7.5,1.5C 6.16667,1.83333 4.83333,2.16667 3.5,2.5C 4.30646,1.27187 5.30646,0.271873 6.5,-0.5 Z"/></g>
<g><path style="opacity:1" fill="#ececec" d="M 17.5,2.5 C 18.657,4.13761 19.8236,5.80428 21,7.5C 21.195,6.1807 21.0283,4.84736 20.5,3.5C 21.7281,4.30646 22.7281,5.30646 23.5,6.5C 23.5,9.83333 23.5,13.1667 23.5,16.5C 21.5,19.1667 19.1667,21.5 16.5,23.5C 13.1667,23.5 9.83333,23.5 6.5,23.5C 3.83333,21.5 1.5,19.1667 -0.5,16.5C -0.5,13.1667 -0.5,9.83333 -0.5,6.5C 0.271873,5.30646 1.27187,4.30646 2.5,3.5C 2.36899,4.23891 2.53566,4.90558 3,5.5C 4.66668,4.26683 6.16668,2.9335 7.5,1.5C 8.62159,0.844172 9.95492,0.510839 11.5,0.5C 13.8825,0.361027 15.8825,1.02769 17.5,2.5 Z"/></g>
<g><path style="opacity:1" fill="#b8b8b8" d="M 7.5,1.5 C 6.16668,2.9335 4.66668,4.26683 3,5.5C 2.53566,4.90558 2.36899,4.23891 2.5,3.5C 2.5,2.83333 2.83333,2.5 3.5,2.5C 4.83333,2.16667 6.16667,1.83333 7.5,1.5 Z"/></g>
<g><path style="opacity:1" fill="#c6c6c6" d="M 17.5,2.5 C 18.1667,2.5 18.8333,2.5 19.5,2.5C 20.1667,2.5 20.5,2.83333 20.5,3.5C 21.0283,4.84736 21.195,6.1807 21,7.5C 19.8236,5.80428 18.657,4.13761 17.5,2.5 Z"/></g>
<g><path style="opacity:1" fill="#b3b2b2" d="M 15.5,16.5 C 15.2927,14.3964 15.126,12.063 15,9.5C 14.7216,10.4158 14.2216,11.0825 13.5,11.5C 13.4226,10.2502 12.756,9.41691 11.5,9C 12.5358,7.38307 13.7025,7.21641 15,8.5C 15.6667,5.83333 16.3333,5.83333 17,8.5C 17.4462,11.3327 16.9462,13.9994 15.5,16.5 Z"/></g>
<g><path style="opacity:1" fill="#bababa" d="M 7.5,12.5 C 8.038,14.1172 8.37133,15.7839 8.5,17.5C 5.96945,15.0339 5.13611,12.0339 6,8.5C 7.1169,8.33494 8.28356,8.0016 9.5,7.5C 10.8333,8.5 10.8333,9.5 9.5,10.5C 6.4944,8.99624 5.82773,9.66291 7.5,12.5 Z"/></g>
<g><path style="opacity:1" fill="#dbdbdb" d="M 15.5,16.5 C 13.3799,19.866 11.0466,20.1994 8.5,17.5C 8.37133,15.7839 8.038,14.1172 7.5,12.5C 9.43525,11.8505 11.4352,11.5172 13.5,11.5C 14.2216,11.0825 14.7216,10.4158 15,9.5C 15.126,12.063 15.2927,14.3964 15.5,16.5 Z"/></g>
<g><path style="opacity:1" fill="#99999a" d="M 4.5,20.5 C 5.49711,19.2875 6.49711,19.4542 7.5,21C 6.42317,21.4696 5.42317,21.3029 4.5,20.5 Z"/></g>
</svg>
