<?xml version="1.0" encoding="UTF-8"?>
<!DOCTYPE svg PUBLIC "-//W3C//DTD SVG 1.1//EN" "http://www.w3.org/Graphics/SVG/1.1/DTD/svg11.dtd">
<svg xmlns="http://www.w3.org/2000/svg" version="1.1" width="32px" height="32px" style="shape-rendering:geometricPrecision; text-rendering:geometricPrecision; image-rendering:optimizeQuality; fill-rule:evenodd; clip-rule:evenodd" xmlns:xlink="http://www.w3.org/1999/xlink">
<g><path style="opacity:0.754" fill="#fefefe" d="M 9.5,-0.5 C 13.5,-0.5 17.5,-0.5 21.5,-0.5C 25.8333,1.83333 29.1667,5.16667 31.5,9.5C 31.5,13.5 31.5,17.5 31.5,21.5C 29.1667,25.8333 25.8333,29.1667 21.5,31.5C 17.5,31.5 13.5,31.5 9.5,31.5C 5.16667,29.1667 1.83333,25.8333 -0.5,21.5C -0.5,17.5 -0.5,13.5 -0.5,9.5C 1.83333,5.16667 5.16667,1.83333 9.5,-0.5 Z"/></g>
<g><path style="opacity:1" fill="#99999a" d="M 22.5,3.5 C 17.3482,1.93701 12.3482,2.27034 7.5,4.5C 9.50764,2.07284 12.1743,1.07284 15.5,1.5C 18.2046,1.31608 20.5379,1.98274 22.5,3.5 Z"/></g>
<g><path style="opacity:1" fill="#fcfcfc" d="M 22.5,3.5 C 23.5,5.16667 24.8333,6.5 26.5,7.5C 28.7297,12.3482 29.063,17.3482 27.5,22.5C 25.8333,23.5 24.5,24.8333 23.5,26.5C 18.1667,29.1667 12.8333,29.1667 7.5,26.5C 6.83333,25.1667 5.83333,24.1667 4.5,23.5C 1.83333,18.1667 1.83333,12.8333 4.5,7.5C 5.83333,6.83333 6.83333,5.83333 7.5,4.5C 12.3482,2.27034 17.3482,1.93701 22.5,3.5 Z"/></g>
<g><path style="opacity:1" fill="#a9aaaa" d="M 22.5,3.5 C 24.8333,3.83333 26.1667,5.16667 26.5,7.5C 24.8333,6.5 23.5,5.16667 22.5,3.5 Z"/></g>
<g><path style="opacity:1" fill="#a1a2a2" d="M 7.5,4.5 C 6.83333,5.83333 5.83333,6.83333 4.5,7.5C 4.5,5.5 5.5,4.5 7.5,4.5 Z"/></g>
<g><path style="opacity:1" fill="#99999a" d="M 4.5,7.5 C 1.83333,12.8333 1.83333,18.1667 4.5,23.5C 2.07284,21.4924 1.07284,18.8257 1.5,15.5C 1.07284,12.1743 2.07284,9.50764 4.5,7.5 Z"/></g>
<g><path style="opacity:1" fill="#999999" d="M 9.5,16.5 C 9.5,17.5 9.5,18.5 9.5,19.5C 7.30418,16.3528 7.13751,13.0194 9,9.5C 9.49665,11.8098 9.66331,14.1432 9.5,16.5 Z"/></g>
<g><path style="opacity:1" fill="#7d7d7d" d="M 22.5,11.5 C 23.0967,11.7352 23.4301,12.2352 23.5,13C 23.0098,15.3461 22.3432,17.5128 21.5,19.5C 21.1936,16.6146 21.5269,13.9479 22.5,11.5 Z"/></g>
<g><path style="opacity:1" fill="#d7d6d6" d="M 22.5,11.5 C 21.5269,13.9479 21.1936,16.6146 21.5,19.5C 19.9459,20.693 18.2792,21.8596 16.5,23C 16.8333,23.3333 17.1667,23.6667 17.5,24C 16.0993,24.4101 14.766,24.9101 13.5,25.5C 11.0178,24.3373 9.68447,22.3373 9.5,19.5C 9.5,18.5 9.5,17.5 9.5,16.5C 11.1132,16.9443 12.2798,17.9443 13,19.5C 14.6883,18.6753 14.8549,17.6753 13.5,16.5C 14.376,15.7492 15.376,15.2492 16.5,15C 15.8742,14.2496 15.3742,13.4162 15,12.5C 13.3646,13.8486 11.8646,13.6819 10.5,12C 13.9257,11.5797 17.2591,10.7464 20.5,9.5C 20.0233,8.52242 19.3567,7.68909 18.5,7C 21.0312,7.12786 22.3646,8.62786 22.5,11.5 Z"/></g>
<g><path style="opacity:1" fill="#989899" d="M 26.5,7.5 C 28.9272,9.50764 29.9272,12.1743 29.5,15.5C 29.6839,18.2046 29.0173,20.5379 27.5,22.5C 29.063,17.3482 28.7297,12.3482 26.5,7.5 Z"/></g>
<g><path style="opacity:1" fill="#a9aaaa" d="M 27.5,22.5 C 27.1667,24.8333 25.8333,26.1667 23.5,26.5C 24.5,24.8333 25.8333,23.5 27.5,22.5 Z"/></g>
<g><path style="opacity:1" fill="#a2a3a3" d="M 4.5,23.5 C 5.83333,24.1667 6.83333,25.1667 7.5,26.5C 5.5,26.5 4.5,25.5 4.5,23.5 Z"/></g>
<g><path style="opacity:1" fill="#b9b9b9" d="M 21.5,19.5 C 20.6157,24.4331 17.9491,26.4331 13.5,25.5C 14.766,24.9101 16.0993,24.4101 17.5,24C 17.1667,23.6667 16.8333,23.3333 16.5,23C 18.2792,21.8596 19.9459,20.693 21.5,19.5 Z"/></g>
<g><path style="opacity:1" fill="#99999a" d="M 7.5,26.5 C 12.8333,29.1667 18.1667,29.1667 23.5,26.5C 21.4924,28.9272 18.8257,29.9272 15.5,29.5C 12.1743,29.9272 9.50764,28.9272 7.5,26.5 Z"/></g>
</svg>
