<?xml version="1.0" encoding="UTF-8"?>
<!DOCTYPE svg PUBLIC "-//W3C//DTD SVG 1.1//EN" "http://www.w3.org/Graphics/SVG/1.1/DTD/svg11.dtd">
<svg xmlns="http://www.w3.org/2000/svg" version="1.1" width="40px" height="40px" style="shape-rendering:geometricPrecision; text-rendering:geometricPrecision; image-rendering:optimizeQuality; fill-rule:evenodd; clip-rule:evenodd" xmlns:xlink="http://www.w3.org/1999/xlink">
<g><path style="opacity:0.857" fill="#fdfdfd" d="M 13.5,-0.5 C 17.5,-0.5 21.5,-0.5 25.5,-0.5C 32.1667,2.16667 36.8333,6.83333 39.5,13.5C 39.5,17.5 39.5,21.5 39.5,25.5C 36.8333,32.1667 32.1667,36.8333 25.5,39.5C 21.5,39.5 17.5,39.5 13.5,39.5C 6.83333,36.8333 2.16667,32.1667 -0.5,25.5C -0.5,21.5 -0.5,17.5 -0.5,13.5C 2.16667,6.83333 6.83333,2.16667 13.5,-0.5 Z"/></g>
<g><path style="opacity:1" fill="#f5f5f5" d="M 24.5,3.5 C 25.5137,4.67373 26.847,5.3404 28.5,5.5C 29.8333,7.5 31.5,9.16667 33.5,10.5C 34.3382,10.8417 34.6716,11.5084 34.5,12.5C 35.9851,17.951 35.6517,23.2843 33.5,28.5C 31.5,29.8333 29.8333,31.5 28.5,33.5C 22.5,36.1667 16.5,36.1667 10.5,33.5C 9.16667,31.5 7.5,29.8333 5.5,28.5C 4.32627,27.4863 3.6596,26.153 3.5,24.5C 3.22071,19.6734 3.88738,15.0068 5.5,10.5C 7.5,9.16667 9.16667,7.5 10.5,5.5C 11.6002,4.44153 12.9336,3.6082 14.5,3C 18.0267,2.1925 21.3601,2.35916 24.5,3.5 Z"/></g>
<g><path style="opacity:1" fill="#999a9a" d="M 24.5,3.5 C 26.3797,3.22911 27.713,3.89578 28.5,5.5C 26.847,5.3404 25.5137,4.67373 24.5,3.5 Z"/></g>
<g><path style="opacity:1" fill="#969697" d="M 28.5,5.5 C 31.1667,6.16667 32.8333,7.83333 33.5,10.5C 31.5,9.16667 29.8333,7.5 28.5,5.5 Z"/></g>
<g><path style="opacity:1" fill="#969797" d="M 10.5,5.5 C 9.16667,7.5 7.5,9.16667 5.5,10.5C 6.16667,7.83333 7.83333,6.16667 10.5,5.5 Z"/></g>
<g><path style="opacity:1" fill="#c7c7c7" d="M 13.5,12.5 C 15.1667,12.5 16.8333,12.5 18.5,12.5C 18.6621,14.5273 18.4955,16.5273 18,18.5C 16.0643,17.8474 14.231,16.6807 12.5,15C 13.2524,14.3292 13.5858,13.4959 13.5,12.5 Z"/></g>
<g><path style="opacity:1" fill="#c0bcbc" d="M 21.5,12.5 C 23.6648,12.1159 25.3315,12.7826 26.5,14.5C 25.2038,16.3362 24.3704,18.3362 24,20.5C 23.7811,19.062 23.2811,17.7287 22.5,16.5C 21.8076,17.0253 21.3076,17.6919 21,18.5C 20.3224,16.4024 20.4891,14.4024 21.5,12.5 Z"/></g>
<g><path style="opacity:1" fill="#828283" d="M 5.5,10.5 C 3.88738,15.0068 3.22071,19.6734 3.5,24.5C 2.35916,21.3601 2.1925,18.0267 3,14.5C 3.20041,12.6803 4.03374,11.347 5.5,10.5 Z"/></g>
<g><path style="opacity:1" fill="#909090" d="M 28.5,25.5 C 27.5489,24.0813 27.2155,22.4147 27.5,20.5C 27.6646,17.4816 27.498,14.4816 27,11.5C 26.5348,10.0692 25.7014,8.90252 24.5,8C 25.4491,7.38277 26.2825,7.54943 27,8.5C 27.9808,11.1198 29.1474,13.6198 30.5,16C 29.6394,19.1368 28.9728,22.3035 28.5,25.5 Z"/></g>
<g><path style="opacity:1" fill="#858586" d="M 34.5,12.5 C 36.9771,17.2616 37.1437,22.2616 35,27.5C 34.6174,28.056 34.1174,28.3893 33.5,28.5C 35.6517,23.2843 35.9851,17.951 34.5,12.5 Z"/></g>
<g><path style="opacity:1" fill="#9e9e9e" d="M 12.5,23.5 C 12.5,25.1667 12.5,26.8333 12.5,28.5C 8.90187,23.2313 8.2352,17.5646 10.5,11.5C 11.0016,10.479 11.6683,10.3123 12.5,11C 10.4053,15.1928 10.4053,19.3595 12.5,23.5 Z"/></g>
<g><path style="opacity:1" fill="#979798" d="M 5.5,28.5 C 7.5,29.8333 9.16667,31.5 10.5,33.5C 7.83333,32.8333 6.16667,31.1667 5.5,28.5 Z"/></g>
<g><path style="opacity:1" fill="#c8c8c8" d="M 27.5,20.5 C 27.2155,22.4147 27.5489,24.0813 28.5,25.5C 26.5675,27.2726 25.2341,29.4393 24.5,32C 18.7517,36.2772 14.7517,35.1106 12.5,28.5C 12.5,26.8333 12.5,25.1667 12.5,23.5C 13.8249,24.9526 14.6582,24.6192 15,22.5C 15.3333,23.1667 15.6667,23.8333 16,24.5C 16.7175,23.5494 17.5509,23.3828 18.5,24C 17.3774,25.0437 16.0441,25.7104 14.5,26C 16.3008,26.3173 16.6341,26.984 15.5,28C 17.598,28.0139 19.4313,27.8472 21,27.5C 21.3333,28.1667 21.6667,28.8333 22,29.5C 22.7724,28.1509 23.9391,27.3176 25.5,27C 22.5464,25.3544 19.8797,23.3544 17.5,21C 19.9468,19.143 22.1135,19.3096 24,21.5C 25.1385,21.0109 26.3052,20.6775 27.5,20.5 Z"/></g>
<g><path style="opacity:1" fill="#959696" d="M 33.5,28.5 C 32.8333,31.1667 31.1667,32.8333 28.5,33.5C 29.8333,31.5 31.5,29.8333 33.5,28.5 Z"/></g>
<g><path style="opacity:1" fill="#848485" d="M 10.5,33.5 C 16.5,36.1667 22.5,36.1667 28.5,33.5C 26.0891,35.8597 23.0891,36.8597 19.5,36.5C 15.9109,36.8597 12.9109,35.8597 10.5,33.5 Z"/></g>
</svg>
