<?xml version="1.0" encoding="UTF-8"?>
<!DOCTYPE svg PUBLIC "-//W3C//DTD SVG 1.1//EN" "http://www.w3.org/Graphics/SVG/1.1/DTD/svg11.dtd">
<svg xmlns="http://www.w3.org/2000/svg" version="1.1" width="64px" height="64px" style="shape-rendering:geometricPrecision; text-rendering:geometricPrecision; image-rendering:optimizeQuality; fill-rule:evenodd; clip-rule:evenodd" xmlns:xlink="http://www.w3.org/1999/xlink">
<g><path style="opacity:0.857" fill="#fcfcfc" d="M 23.5,-0.5 C 28.8333,-0.5 34.1667,-0.5 39.5,-0.5C 51.1667,3.83333 59.1667,11.8333 63.5,23.5C 63.5,28.8333 63.5,34.1667 63.5,39.5C 59.1667,51.1667 51.1667,59.1667 39.5,63.5C 34.1667,63.5 28.8333,63.5 23.5,63.5C 11.8333,59.1667 3.83333,51.1667 -0.5,39.5C -0.5,34.1667 -0.5,28.8333 -0.5,23.5C 3.83333,11.8333 11.8333,3.83333 23.5,-0.5 Z"/></g>
<g><path style="opacity:1" fill="#f9f9f9" d="M 40.5,3.5 C 42.0269,3.42702 43.0269,4.09368 43.5,5.5C 57.676,14.5405 62.3426,27.2072 57.5,43.5C 55.7497,44.6594 54.7497,46.326 54.5,48.5C 50.1477,52.3365 45.4811,55.6698 40.5,58.5C 36.5191,59.0209 32.5191,59.3542 28.5,59.5C 26.516,58.8443 24.516,58.1776 22.5,57.5C 21.5836,57.5427 20.9169,57.8761 20.5,58.5C 19.8333,58.5 19.5,58.1667 19.5,57.5C 6.59138,49.3383 1.59138,37.6717 4.5,22.5C 6.41677,19.669 8.08343,16.669 9.5,13.5C 11.1667,12.5 12.5,11.1667 13.5,9.5C 16.4469,8.02656 19.4469,6.52656 22.5,5C 28.6382,3.5525 34.6382,3.0525 40.5,3.5 Z"/></g>
<g><path style="opacity:1" fill="#5f6061" d="M 40.5,3.5 C 34.6382,3.0525 28.6382,3.5525 22.5,5C 19.4469,6.52656 16.4469,8.02656 13.5,9.5C 16.475,6.33895 20.1417,4.17228 24.5,3C 29.8706,2.32387 35.2039,2.49054 40.5,3.5 Z"/></g>
<g><path style="opacity:1" fill="#a5a5a5" d="M 40.5,11.5 C 37.9499,10.6422 35.4499,9.64219 33,8.5C 31.087,10.1869 28.9203,10.6869 26.5,10C 31.6591,6.56457 36.3258,7.06457 40.5,11.5 Z"/></g>
<g><path style="opacity:1" fill="#515253" d="M 13.5,9.5 C 12.5,11.1667 11.1667,12.5 9.5,13.5C 9.83333,11.1667 11.1667,9.83333 13.5,9.5 Z"/></g>
<g><path style="opacity:1" fill="#6b6c6d" d="M 9.5,13.5 C 8.08343,16.669 6.41677,19.669 4.5,22.5C 4.88383,18.7275 6.5505,15.7275 9.5,13.5 Z"/></g>
<g><path style="opacity:1" fill="#646566" d="M 43.5,5.5 C 54.4577,10.3201 60.1243,18.8201 60.5,31C 60.8059,35.6064 59.8059,39.773 57.5,43.5C 62.3426,27.2072 57.676,14.5405 43.5,5.5 Z"/></g>
<g><path style="opacity:1" fill="#a5a5a5" d="M 23.5,18.5 C 25.4352,19.1495 27.4352,19.4828 29.5,19.5C 29.6567,20.8734 29.49,22.2068 29,23.5C 26.0854,20.93 23.4187,21.2634 21,24.5C 20.5521,22.5911 21.3855,21.4244 23.5,21C 22.8333,20.6667 22.1667,20.3333 21.5,20C 22.4158,19.7216 23.0825,19.2216 23.5,18.5 Z"/></g>
<g><path style="opacity:1" fill="#a3a3a3" d="M 17.5,27.5 C 16.8333,25.8333 16.1667,24.1667 15.5,22.5C 16.1616,20.5295 16.8283,18.5295 17.5,16.5C 18.5,15.1667 19.5,15.1667 20.5,16.5C 18.3671,19.8181 17.3671,23.4848 17.5,27.5 Z"/></g>
<g><path style="opacity:1" fill="#bababa" d="M 36.5,18.5 C 39.8434,18.5011 42.1767,20.0011 43.5,23C 40.8914,26.943 37.7247,27.443 34,24.5C 33.9152,26.0846 33.7486,27.4179 33.5,28.5C 31.5829,24.1336 32.5829,20.8003 36.5,18.5 Z"/></g>
<g><path style="opacity:1" fill="#7f7f7f" d="M 40.5,11.5 C 44.319,13.1139 46.1523,16.1139 46,20.5C 47.7858,21.7774 48.9524,23.444 49.5,25.5C 47.8305,30.3082 46.6639,35.3082 46,40.5C 45.34,42.3237 44.1733,43.657 42.5,44.5C 42.67,43.1779 42.3366,42.0113 41.5,41C 42.3333,40.1667 43.1667,39.3333 44,38.5C 45.5511,33.0456 45.7178,27.7123 44.5,22.5C 44.7337,18.1959 43.4004,14.5292 40.5,11.5 Z"/></g>
<g><path style="opacity:1" fill="#767676" d="M 15.5,22.5 C 16.1667,24.1667 16.8333,25.8333 17.5,27.5C 17.5,29.5 17.5,31.5 17.5,33.5C 17.7153,36.1437 17.7153,38.477 17.5,40.5C 16.8826,40.3893 16.3826,40.056 16,39.5C 14.8931,33.7707 14.7264,28.104 15.5,22.5 Z"/></g>
<g><path style="opacity:1" fill="#d3d3d3" d="M 44.5,22.5 C 45.7178,27.7123 45.5511,33.0456 44,38.5C 43.1667,39.3333 42.3333,40.1667 41.5,41C 42.3366,42.0113 42.67,43.1779 42.5,44.5C 40.9705,45.0668 39.4705,45.7334 38,46.5C 37.7216,45.5842 37.2216,44.9175 36.5,44.5C 36.9038,43.2436 37.5705,42.0769 38.5,41C 38.1667,40.5 37.8333,40 37.5,39.5C 32.5369,40.3633 27.5369,41.03 22.5,41.5C 22.9662,39.7988 22.9662,38.2988 22.5,37C 24.2746,35.5611 26.2746,34.5611 28.5,34C 27.5494,33.2825 27.3828,32.4491 28,31.5C 30.9569,33.0774 33.6236,32.7441 36,30.5C 36.6838,31.7839 36.5171,32.9505 35.5,34C 37,34.5 38.5,35 40,35.5C 41.1712,34.6604 42.3379,33.8271 43.5,33C 44.4558,29.6064 44.7892,26.1064 44.5,22.5 Z"/></g>
<g><path style="opacity:1" fill="#646566" d="M 57.5,43.5 C 57.2503,45.674 56.2503,47.3406 54.5,48.5C 54.7497,46.326 55.7497,44.6594 57.5,43.5 Z"/></g>
<g><path style="opacity:1" fill="#5d5e5f" d="M 4.5,22.5 C 1.59138,37.6717 6.59138,49.3383 19.5,57.5C 8.36016,52.5851 2.69349,43.9184 2.5,31.5C 2.34252,28.1864 3.00919,25.1864 4.5,22.5 Z"/></g>
<g><path style="opacity:1" fill="#dfdfdf" d="M 34.5,48.5 C 35.038,50.1172 35.3713,51.7839 35.5,53.5C 32.8599,51.9922 30.5266,52.3256 28.5,54.5C 23.3937,52.6306 21.8937,49.2972 24,44.5C 25.3877,44.7856 26.8877,44.4523 28.5,43.5C 30.4818,43.2047 32.4818,42.8714 34.5,42.5C 34.9202,44.326 34.9202,46.326 34.5,48.5 Z"/></g>
<g><path style="opacity:1" fill="#9e9e9e" d="M 17.5,33.5 C 20.5239,33.9467 20.8572,34.78 18.5,36C 19.1667,37.3333 20.1667,38.3333 21.5,39C 19.491,41.4606 19.3243,43.9606 21,46.5C 21.3333,45.1667 21.6667,43.8333 22,42.5C 24.1696,42.3882 26.3362,42.7215 28.5,43.5C 26.8877,44.4523 25.3877,44.7856 24,44.5C 21.8937,49.2972 23.3937,52.6306 28.5,54.5C 30.5266,52.3256 32.8599,51.9922 35.5,53.5C 35.3713,51.7839 35.038,50.1172 34.5,48.5C 35.1174,48.6107 35.6174,48.944 36,49.5C 36.4935,47.8659 36.6602,46.1992 36.5,44.5C 37.2216,44.9175 37.7216,45.5842 38,46.5C 39.4705,45.7334 40.9705,45.0668 42.5,44.5C 41.9913,47.1922 40.9913,49.6922 39.5,52C 35.7662,53.7607 31.9328,55.2607 28,56.5C 22.3014,52.6302 18.8014,47.2968 17.5,40.5C 17.7153,38.477 17.7153,36.1437 17.5,33.5 Z"/></g>
<g><path style="opacity:1" fill="#636465" d="M 54.5,48.5 C 53.7974,50.7157 52.4641,52.549 50.5,54C 47.5201,56.324 44.1867,57.824 40.5,58.5C 45.4811,55.6698 50.1477,52.3365 54.5,48.5 Z"/></g>
<g><path style="opacity:1" fill="#5a5b5c" d="M 40.5,58.5 C 36.8171,60.2499 32.8171,60.9166 28.5,60.5C 28.5,60.1667 28.5,59.8333 28.5,59.5C 32.5191,59.3542 36.5191,59.0209 40.5,58.5 Z"/></g>
<g><path style="opacity:1" fill="#787879" d="M 20.5,58.5 C 20.9169,57.8761 21.5836,57.5427 22.5,57.5C 24.516,58.1776 26.516,58.8443 28.5,59.5C 28.5,59.8333 28.5,60.1667 28.5,60.5C 25.779,60.0372 23.1123,59.3705 20.5,58.5 Z"/></g>
</svg>
