<?xml version="1.0" encoding="utf-8"?>
<!-- Generator: Adobe Illustrator 26.5.0, SVG Export Plug-In . SVG Version: 6.00 Build 0)  -->
<svg version="1.1" id="Layer_1" xmlns="http://www.w3.org/2000/svg" xmlns:xlink="http://www.w3.org/1999/xlink" x="0px" y="0px"
	 viewBox="0 0 1200 385" style="enable-background:new 0 0 1200 385;" xml:space="preserve">
<style type="text/css">
	.st0{clip-path:url(#SVGID_00000018230804692030487900000013006053612920496285_);}
	.st1{fill:#FFFFFF;}
	.st2{fill:url(#SVGID_00000152254387988232675890000014883825762387382917_);}
	.st3{fill:#FED670;stroke:#020202;stroke-width:1.2578;stroke-miterlimit:10;}
	.st4{fill:none;stroke:#191919;stroke-width:2.5156;stroke-miterlimit:10;}
	.st5{fill:none;stroke:#020202;stroke-width:2.5156;stroke-miterlimit:10;}
	.st6{fill:#FED670;stroke:#020202;stroke-width:2.5156;stroke-miterlimit:10;}
	.st7{fill:#3B2780;}
	.st8{fill:#3D2885;}
	.st9{fill:#3F2A8A;}
	.st10{fill:#422B8F;}
	.st11{fill:#442D94;}
	.st12{fill:#462E99;}
	.st13{fill:#49309E;}
	.st14{fill:#4B31A3;}
	.st15{fill:#4D33A8;}
	.st16{fill:#5034AD;}
	.st17{fill:#5236B3;}
	.st18{fill:#5437B8;}
	.st19{fill:#5739BD;}
	.st20{fill:#593BC2;}
	.st21{fill:#B8B8B8;}
	.st22{fill:#BDBDBD;}
	.st23{fill:#C2C2C2;}
	.st24{fill:#B3B3B3;}
	.st25{fill:#ADADAD;}
	.st26{fill:#A8A8A8;}
	.st27{fill:#A3A3A3;}
	.st28{fill:#9E9E9E;}
	.st29{fill:#999999;}
	.st30{fill:#949494;}
	.st31{fill:#858585;}
	.st32{fill:#8A8A8A;}
	.st33{fill:#8F8F8F;}
	.st34{fill:#CDCDCD;}
	.st35{fill:#A4A4A4;}
	.st36{fill:#CCCCCC;}
	.st37{fill:#6543DD;}
	.st38{fill:#FED670;}
	.st39{fill:#E1458D;}
	.st40{fill:#2FC8E0;}
	.st41{fill-rule:evenodd;clip-rule:evenodd;fill:#FED670;}
</style>
<g>
	<defs>
		<path id="SVGID_1_" d="M16,0h1168c8.8,0,16,7.2,16,16v353c0,8.8-7.2,16-16,16H16c-8.8,0-16-7.2-16-16V16C0,7.2,7.2,0,16,0z"/>
	</defs>
	<clipPath id="SVGID_00000121997629288623360190000011746656513521792935_">
		<use xlink:href="#SVGID_1_"  style="overflow:visible;"/>
	</clipPath>
	<g style="clip-path:url(#SVGID_00000121997629288623360190000011746656513521792935_);">
		<path class="st1" d="M16,0h1168c8.8,0,16,7.2,16,16v353c0,8.8-7.2,16-16,16H16c-8.8,0-16-7.2-16-16V16C0,7.2,7.2,0,16,0z"/>
		
			<linearGradient id="SVGID_00000077326424909127444430000013370702641943548091_" gradientUnits="userSpaceOnUse" x1="836.6385" y1="424.4174" x2="472.6025" y2="53.5084" gradientTransform="matrix(1 0 0 -1 0 386)">
			<stop  offset="0" style="stop-color:#2FC8E0"/>
			<stop  offset="1" style="stop-color:#754DFE"/>
		</linearGradient>
		<rect style="fill:url(#SVGID_00000077326424909127444430000013370702641943548091_);" width="1220" height="385"/>
		<path class="st3" d="M202.2,431.8l-63.1-60c0,0-53.3-35.4-76.1-51.3c-22.8-16-52.9-50.2-65-85.4c-12.1-35.2-31.8-87.3-31.8-87.3
			s-2.8-13.5,18.1-9.4c21,4.1,23.4,19,23.4,19s17.9-0.3,23.4,19c0,0,12.3,1.8,17,13.7c4.7,11.9,12.6,33.2,12.6,33.2l21.3,5.6
			c0,0-13.9-9.3,0.7-26.8c0,0,10-8.7,23.3,3c13.4,11.7,61.1,59.8,61.1,59.8s14.7,16.6,13.7,43.4l73.2,72
			C254.2,380.1,248.9,427,202.2,431.8z"/>
		<path class="st4" d="M202.2,431.8l-63.1-60c0,0-80.1-50.7-101-73.4C17.1,275.7,1,243.8-3.8,230.1c-4.7-13.8-30-82.3-30-82.3
			s-2-11.8,14.3-10c16.3,1.7,22.9,9.2,27.3,19.6l26.5,69.6c0,0,16.7,36.4,65.3,19.3"/>
		<path class="st4" d="M53.5,234.8l-23.2-61.2c0,0-4.9-15.9-22.5-16.3"/>
		<path class="st4" d="M64.5,233.4l-17.2-45.5c0,0-7.3-11.5-15.9-11.6"/>
		<path class="st4" d="M122.1,268.5l-42.2-41.7c0,0-8.8-10.5,2.3-24.1c0,0,10.8-10,22.8,1.3l63.3,61c0,0,12.9,13,12.3,50.5"/>
		<path class="st4" d="M60.7,223.2l21.3,5.6"/>
		<path class="st5" d="M202,431.4l-63.1-60c0,0-53.3-35.4-76.1-51.3c-22.8-16-52.9-50.2-65-85.4c-12.1-35.2-31.8-87.3-31.8-87.3
			s-2.8-13.5,18.1-9.4c21,4.1,23.4,19,23.4,19s17.9-0.3,23.4,19c0,0,12.3,1.8,17,13.7c4.7,11.9,12.6,33.2,12.6,33.2l21.3,5.6
			c0,0-13.9-9.3,0.7-26.8c0,0,10-8.7,23.3,3c13.4,11.7,61.1,59.8,61.1,59.8s14.7,16.6,13.7,43.4l73.2,72
			C254,379.7,248.8,426.6,202,431.4z"/>
		<path class="st6" d="M-106.9-28c0,0-44.8,19.5-35.8,67.7l98.5,53.2c0,0,9,20.2,30.6,31.6C7.9,136,66.2,167,66.2,167
			s13.5,4.2,19.3-7c5.8-11.3-3.5-20.1-3.5-20.1l-44.7-25c0,0,47.3-29.8,98.3-23.5c0,0-3.9-26.4-31.8-43.1c0,0-19.1-9.4-103.9-19.7
			L-106.9-28z"/>
		<path class="st7" d="M107.4,104.1l7.9,11l-0.4-0.1l-7.9-11L107.4,104.1z"/>
		<path class="st7" d="M109.3,104.5l7.9,11l-1.9-0.5l-7.9-11L109.3,104.5z"/>
		<path class="st8" d="M127.4,116.2l7.9,11c-4-4.8-9.1-8.5-15-10.6c-1-0.4-2.1-0.7-3.1-1l-7.9-11c1,0.3,2.1,0.7,3.1,1
			C118.3,107.7,123.4,111.4,127.4,116.2z"/>
		<path class="st8" d="M127.4,116.2l7.9,11c-4-4.8-9.1-8.5-15-10.6c-1-0.4-2.1-0.7-3.1-1l-7.9-11c1,0.3,2.1,0.7,3.1,1
			C118.3,107.7,123.4,111.4,127.4,116.2z"/>
		<path class="st8" d="M107,104l7.9,11c-1.9-0.3-3.7-0.6-5.6-0.8c-4.1-0.3-8.2,0-12.2,0.9l-7.9-11c4-0.8,8.1-1.1,12.2-0.9
			C103.3,103.4,105.1,103.7,107,104z"/>
		<path class="st9" d="M89.2,104.1l7.9,11c-1.8,0.4-3.5,0.9-5.2,1.4l-7.9-11C85.7,104.9,87.5,104.5,89.2,104.1z"/>
		<path class="st10" d="M84,105.5l7.9,11c-1.4,0.5-2.8,1-4.1,1.6l-7.9-11C81.2,106.5,82.6,106,84,105.5z"/>
		<path class="st11" d="M79.9,107.1l7.9,11c-1.2,0.5-2.4,1.1-3.5,1.8l-7.9-11C77.5,108.3,78.7,107.7,79.9,107.1z"/>
		<path class="st12" d="M76.4,108.9l7.9,11c-1.1,0.6-2.1,1.2-3.2,1.9l-7.9-11C74.2,110.1,75.3,109.5,76.4,108.9z"/>
		<path class="st13" d="M73.2,110.8l7.9,11c-1,0.7-2,1.3-2.9,2.1l-7.9-11C71.2,112.1,72.2,111.4,73.2,110.8z"/>
		<path class="st14" d="M70.2,112.9l7.9,11c-1,0.7-1.9,1.5-2.8,2.3l-7.9-11C68.4,114.4,69.3,113.6,70.2,112.9z"/>
		<path class="st15" d="M67.5,115.2l7.9,11c-0.9,0.8-1.8,1.7-2.7,2.6l-7.9-11C65.7,116.8,66.5,116,67.5,115.2"/>
		<path class="st16" d="M64.8,117.7l7.9,11c-0.9,0.9-1.8,1.9-2.6,2.9l-7.9-11C63,119.6,63.9,118.7,64.8,117.7"/>
		<path class="st17" d="M62.2,120.6l7.9,11c-0.9,1.1-1.8,2.3-2.6,3.5l-7.9-11C60.4,122.9,61.3,121.8,62.2,120.6"/>
		<path class="st18" d="M59.6,124.1l7.9,11c-1,1.5-1.9,3-2.7,4.6l-7.9-11C57.7,127.2,58.6,125.6,59.6,124.1z"/>
		<path class="st19" d="M56.9,128.8l7.9,11c-0.3,0.5-0.5,1.1-0.8,1.6c-1.3,2.8-2.3,5.6-2.9,8.6l-7.9-11c0.7-3,1.7-5.8,2.9-8.6
			C56.4,129.9,56.6,129.3,56.9,128.8z"/>
		<path class="st20" d="M53.2,139l7.9,11c-0.2,0.9-0.4,1.8-0.5,2.7l-7.9-11C52.8,140.8,53,139.9,53.2,139z"/>
		<path class="st19" d="M52.7,141.7l7.9,11c-0.5,3.4-0.6,6.8-0.2,10.2l-7.9-11C52.1,148.5,52.2,145.1,52.7,141.7z"/>
		<path class="st18" d="M52.5,151.9l7.9,11c0.1,1.2,0.3,2.4,0.6,3.6c0.1,0.3,0.1,0.6,0.2,0.9l-7.9-11c-0.1-0.3-0.1-0.6-0.2-0.9
			C52.9,154.3,52.7,153.1,52.5,151.9z"/>
		<path class="st21" d="M61,152l7.9,11l0,0L61,152L61,152z"/>
		<path class="st22" d="M61,152l7.9,11c0,0,0,0,0,0.1L61,152C61,152.1,61,152.1,61,152z"/>
		<path class="st23" d="M61,152.1l7.9,11l0,0L61,152.1L61,152.1z"/>
		<path class="st22" d="M61,152.1l7.9,11c0,0,0,0.1,0,0.1L61,152.1C61,152.2,61,152.2,61,152.1z"/>
		<path class="st21" d="M61,152.2l7.9,11c0,0,0,0,0,0L61,152.2C61,152.2,61,152.2,61,152.2z"/>
		<path class="st24" d="M61,152.2l7.9,11l0,0L61,152.2L61,152.2z"/>
		<path class="st25" d="M60.9,152.3l7.9,11l0,0L60.9,152.3L60.9,152.3z"/>
		<path class="st26" d="M60.9,152.3l7.9,11l0,0L60.9,152.3L60.9,152.3z"/>
		<path class="st27" d="M60.9,152.3l7.9,11l0,0L60.9,152.3L60.9,152.3z"/>
		<path class="st28" d="M60.9,152.3l7.9,11l0,0L60.9,152.3L60.9,152.3z"/>
		<path class="st29" d="M60.9,152.3l7.9,11l0,0L60.9,152.3L60.9,152.3z"/>
		<path class="st30" d="M60.9,152.3l7.9,11c-2.5,1.4-5,2.7-7.5,4.1l-7.9-11C55.9,155,58.4,153.7,60.9,152.3z"/>
		<path class="st12" d="M56.4,163.7l7.9,11L56.4,163.7z"/>
		<path class="st13" d="M56.4,163.7l7.9,11l0,0L56.4,163.7L56.4,163.7z"/>
		<path class="st14" d="M56.4,163.7l7.9,11l0,0L56.4,163.7L56.4,163.7z"/>
		<path class="st15" d="M56.4,163.7l7.9,11l0,0L56.4,163.7L56.4,163.7z"/>
		<path class="st16" d="M56.4,163.7l7.9,11l0,0L56.4,163.7L56.4,163.7z"/>
		<path class="st17" d="M56.3,163.8l7.9,11c0,0,0,0,0,0L56.3,163.8C56.3,163.8,56.3,163.8,56.3,163.8z"/>
		<path class="st18" d="M56.3,163.8l7.9,11c0,0,0,0,0,0.1L56.3,163.8C56.3,163.8,56.3,163.8,56.3,163.8z"/>
		<path class="st19" d="M56.3,163.8l7.9,11c0,0,0,0.1-0.1,0.2l-7.9-11C56.3,163.9,56.3,163.9,56.3,163.8"/>
		<path class="st20" d="M56.2,164l7.9,11l0,0L56.2,164L56.2,164z"/>
		<path class="st19" d="M56.2,164l7.9,11c0,0,0,0,0,0.1L56.2,164C56.2,164.1,56.2,164,56.2,164z"/>
		<path class="st18" d="M56.2,164.1l7.9,11l0,0L56.2,164.1L56.2,164.1z"/>
		<path class="st17" d="M56.2,164.1l7.9,11l0,0L56.2,164.1L56.2,164.1z"/>
		<path class="st16" d="M56.2,164.1l7.9,11L56.2,164.1z"/>
		<path class="st31" d="M119.9,120.3l7.9,11c-4-4-9-6.8-14.5-8.2c-0.4-0.1-0.9-0.2-1.4-0.3c-4.6-0.9-9.3-0.9-13.8,0.1l-7.9-11
			c4.5-1,9.2-1,13.8-0.1c0.5,0.1,0.9,0.2,1.4,0.3C110.9,113.4,115.9,116.3,119.9,120.3z"/>
		<path class="st32" d="M90.2,111.8l7.9,11c-1.4,0.3-2.8,0.7-4.2,1.2L86,113C87.4,112.5,88.8,112.1,90.2,111.8z"/>
		<path class="st33" d="M86,113l7.9,11c-1.1,0.4-2.2,0.8-3.3,1.3l-7.9-11C83.8,113.8,84.9,113.4,86,113z"/>
		<path class="st30" d="M82.7,114.3l7.9,11c-1,0.4-1.9,0.9-2.9,1.4l-7.9-11C80.8,115.2,81.7,114.7,82.7,114.3z"/>
		<path class="st29" d="M79.8,115.7l7.9,11c-0.9,0.5-1.7,1-2.6,1.5l-7.9-11C78.1,116.7,78.9,116.2,79.8,115.7z"/>
		<path class="st28" d="M77.3,117.3l7.9,11c-0.8,0.5-1.6,1.1-2.3,1.7l-7.9-11C75.7,118.3,76.5,117.8,77.3,117.3z"/>
		<path class="st27" d="M74.9,118.9l7.9,11c-0.8,0.6-1.5,1.2-2.2,1.8l-7.9-11C73.4,120.1,74.2,119.5,74.9,118.9"/>
		<path class="st26" d="M72.7,120.7l7.9,11c-0.7,0.6-1.4,1.3-2.1,2l-7.9-11C71.3,122.1,72,121.4,72.7,120.7z"/>
		<path class="st25" d="M70.6,122.8l7.9,11c-0.7,0.7-1.4,1.5-2,2.3l-7.9-11C69.2,124.3,69.9,123.5,70.6,122.8z"/>
		<path class="st24" d="M68.6,125.1l7.9,11c-0.7,0.9-1.4,1.8-2,2.7l-7.9-11C67.2,126.8,67.9,125.9,68.6,125.1z"/>
		<path class="st21" d="M66.6,127.8l7.9,11c0,0-0.1,0.1-0.1,0.1c-0.8,1.3-1.6,2.6-2.3,3.9l-7.9-11c0.7-1.3,1.5-2.7,2.3-3.9
			C66.5,127.9,66.5,127.8,66.6,127.8z"/>
		<path class="st22" d="M64.2,131.8l7.9,11c-1.3,2.5-2.2,5.1-2.9,7.9l-7.9-11C61.9,136.9,62.9,134.3,64.2,131.8z"/>
		<path class="st23" d="M61.3,139.7l7.9,11c-0.2,0.7-0.3,1.4-0.4,2.1l-7.9-11C61,141,61.2,140.4,61.3,139.7z"/>
		<path class="st22" d="M60.9,141.7l7.9,11c-0.4,2.9-0.5,5.8-0.1,8.6l-7.9-11C60.4,147.5,60.5,144.6,60.9,141.7z"/>
		<path class="st21" d="M60.8,150.4l7.9,11c0.1,0.6,0.1,1.1,0.2,1.7L61,152C60.9,151.5,60.8,150.9,60.8,150.4"/>
		<path class="st30" d="M122.8,118.7l7.9,11c-1,0.5-2,1.1-3,1.6l-7.9-11C120.9,119.7,121.9,119.2,122.8,118.7"/>
		<path class="st8" d="M127.4,116.2l7.9,11c-4-4.8-9.1-8.5-15-10.6c-1-0.4-2.1-0.7-3.1-1l-7.9-11c1,0.3,2.1,0.7,3.1,1
			C118.3,107.7,123.4,111.4,127.4,116.2z"/>
		<path class="st34" d="M109.3,104.5c1,0.3,2.1,0.7,3.1,1c5.8,2.1,11,5.7,14.9,10.5l-4.5,2.6c-1,0.5-2,1.1-3,1.6
			c-4-4-9-6.8-14.5-8.2c-0.4-0.1-0.9-0.2-1.4-0.3c-13.8-2.9-29.3,3.8-37.6,16.2c-5.1,7.7-6.9,15.7-5.5,24.1c0,0,0,0.1,0,0.1
			s0,0.1-0.1,0.1c-2.5,1.4-5,2.7-7.5,4.1c-0.2-0.3-0.3-0.6-0.3-0.9c-1.8-8.5-0.7-17.3,3-25.1c8-17.3,26.6-28.5,45.3-27.2
			c1.9,0.1,3.7,0.5,5.6,0.8l0.4,0.1L109.3,104.5z"/>
		<path class="st35" d="M127.3,116.1l7.9,11l-4.5,2.6l-7.9-11L127.3,116.1z"/>
		<path class="st34" d="M127.4,116.2l7.9,11c-4-4.8-9.1-8.5-15-10.6c-1-0.4-2.1-0.7-3.1-1l-7.9-11c1,0.3,2.1,0.7,3.1,1
			C118.3,107.7,123.4,111.4,127.4,116.2z"/>
		<path class="st15" d="M56.2,164.1l7.9,11c0.5,0.9,1,1.8,1.5,2.6l-7.9-11C57.2,165.9,56.7,165,56.2,164.1"/>
		<path class="st14" d="M57.8,166.7l7.9,11c0.4,0.6,0.7,1.1,1.1,1.6l-7.9-11C58.5,167.9,58.1,167.3,57.8,166.7z"/>
		<path class="st11" d="M93.7,143.5l7.9,11c-12.4,6.7-24.9,13.5-37.3,20.2l-7.9-11C68.8,157,81.2,150.2,93.7,143.5"/>
		<path class="st8" d="M94.6,143.4l7.9,11c-0.2,0-0.4,0-0.6,0l-7.9-11C94.2,143.3,94.4,143.3,94.6,143.4z"/>
		<path class="st9" d="M94,143.4l7.9,11c-0.1,0-0.1,0-0.2,0l-7.9-11C93.9,143.4,94,143.4,94,143.4"/>
		<path class="st10" d="M93.9,143.4l7.9,11c0,0-0.1,0-0.1,0l-7.9-11C93.8,143.4,93.8,143.4,93.9,143.4z"/>
		<path class="st11" d="M93.7,143.4l7.9,11c0,0,0,0-0.1,0L93.7,143.4C93.7,143.5,93.7,143.5,93.7,143.4z"/>
		<path class="st13" d="M123.5,128.9l7.9,11l0,0c-0.2,0.1-0.3,0.2-0.5,0.4l-7.9-11C123.2,129.1,123.3,129,123.5,128.9L123.5,128.9z"
			/>
		<path class="st19" d="M120.6,132.1l7.9,11c-0.1,0.3-0.3,0.5-0.4,0.8c-0.1,0.3-0.2,0.7-0.3,1l-7.9-11c0.1-0.3,0.2-0.7,0.3-1
			C120.4,132.7,120.5,132.4,120.6,132.1z"/>
		<path class="st8" d="M128.5,127.5l7.9,11c-0.7,0-1.4,0-2,0.2l-7.9-11C127.1,127.5,127.8,127.5,128.5,127.5z"/>
		<path class="st9" d="M126.4,127.7l7.9,11c-0.3,0.1-0.6,0.2-0.9,0.3l-7.9-11C125.8,127.8,126.1,127.7,126.4,127.7"/>
		<path class="st10" d="M125.5,127.9l7.9,11c-0.2,0.1-0.5,0.2-0.7,0.3l-7.9-11C125,128.1,125.2,128,125.5,127.9"/>
		<path class="st11" d="M124.8,128.2l7.9,11c-0.2,0.1-0.4,0.2-0.6,0.3l-7.9-11C124.3,128.4,124.5,128.3,124.8,128.2z"/>
		<path class="st12" d="M124.1,128.5l7.9,11c-0.2,0.1-0.4,0.2-0.6,0.4l-7.9-11C123.7,128.8,123.9,128.6,124.1,128.5"/>
		<path class="st13" d="M123.5,128.9l7.9,11l0,0c-0.2,0.1-0.3,0.2-0.5,0.4l-7.9-11C123.2,129.1,123.3,129,123.5,128.9L123.5,128.9z"
			/>
		<path class="st14" d="M123,129.3l7.9,11c-0.2,0.1-0.3,0.3-0.5,0.4l-7.9-11C122.7,129.5,122.8,129.4,123,129.3z"/>
		<path class="st15" d="M122.5,129.7l7.9,11c-0.2,0.1-0.3,0.3-0.5,0.5l-7.9-11C122.2,130,122.3,129.8,122.5,129.7z"/>
		<path class="st16" d="M122,130.1l7.9,11c-0.2,0.2-0.3,0.3-0.5,0.5l-7.9-11C121.7,130.5,121.9,130.3,122,130.1z"/>
		<path class="st17" d="M121.6,130.7l7.9,11c-0.2,0.2-0.3,0.4-0.5,0.6l-7.9-11C121.2,131.1,121.4,130.9,121.6,130.7"/>
		<path class="st18" d="M121.1,131.3l7.9,11c-0.2,0.3-0.3,0.5-0.5,0.8l-7.9-11C120.8,131.8,120.9,131.6,121.1,131.3z"/>
		<path class="st19" d="M120.6,132.1l7.9,11c-0.1,0.3-0.3,0.5-0.4,0.8c-0.1,0.3-0.2,0.7-0.3,1l-7.9-11c0.1-0.3,0.2-0.7,0.3-1
			C120.4,132.6,120.5,132.4,120.6,132.1z"/>
		<path class="st8" d="M133.5,130.2l7.9,11c-0.2-0.3-0.4-0.6-0.7-0.8c-0.8-0.8-1.9-1.4-3-1.7c-0.5-0.1-0.9-0.2-1.4-0.2l-7.9-11
			c0.5,0,0.9,0.1,1.4,0.2c1.1,0.3,2.2,0.8,3,1.7C133.1,129.6,133.3,129.9,133.5,130.2z"/>
		<path class="st19" d="M120.6,132.1l7.9,11c-0.1,0.3-0.3,0.5-0.4,0.8c-0.1,0.3-0.2,0.7-0.3,1l-7.9-11c0.1-0.3,0.2-0.7,0.3-1
			C120.4,132.7,120.5,132.4,120.6,132.1z"/>
		<path class="st20" d="M120,133.9l7.9,11c0,0.2-0.1,0.3-0.1,0.5l-7.9-11C119.9,134.3,119.9,134.1,120,133.9z"/>
		<path class="st19" d="M119.9,134.4l7.9,11c-0.1,0.4-0.1,0.9-0.1,1.3c0,0.2,0,0.4,0,0.5l-7.9-11c0-0.2,0-0.4,0-0.5
			C119.8,135.3,119.8,134.9,119.9,134.4z"/>
		<path class="st19" d="M119.9,134.4l7.9,11c-0.1,0.4-0.1,0.9-0.1,1.3c0,0.2,0,0.4,0,0.5l-7.9-11c0-0.2,0-0.4,0-0.5
			C119.8,135.3,119.8,134.9,119.9,134.4z"/>
		<path class="st8" d="M133.5,130.2l7.9,11c-0.2-0.3-0.4-0.6-0.7-0.8c-0.8-0.8-1.9-1.4-3-1.7c-0.5-0.1-0.9-0.2-1.4-0.2l-7.9-11
			c0.5,0,0.9,0.1,1.4,0.2c1.1,0.3,2.2,0.8,3,1.7C133.1,129.6,133.3,129.9,133.5,130.2z"/>
		<path class="st19" d="M119.9,134.4l7.9,11c-0.1,0.4-0.1,0.9-0.1,1.3c0,0.2,0,0.4,0,0.5l-7.9-11c0-0.2,0-0.4,0-0.5
			C119.8,135.3,119.8,134.9,119.9,134.4z"/>
		<path class="st18" d="M119.8,136.3l7.9,11c0,0.3,0.1,0.6,0.2,0.9l-7.9-11C119.9,136.9,119.9,136.6,119.8,136.3z"/>
		<path class="st17" d="M120,137.2l7.9,11c0.1,0.2,0.1,0.5,0.2,0.7l-7.9-11C120.1,137.6,120.1,137.4,120,137.2z"/>
		<path class="st16" d="M120.2,137.8l7.9,11c0.1,0.2,0.2,0.4,0.2,0.5l0,0l-7.9-11l0,0C120.4,138.2,120.3,138,120.2,137.8z"/>
		<path class="st16" d="M120.2,137.8l7.9,11c0.1,0.2,0.2,0.4,0.2,0.5l0,0l-7.9-11l0,0C120.4,138.2,120.3,138,120.2,137.8z"/>
		<path class="st8" d="M133.5,130.2l7.9,11c-0.2-0.3-0.4-0.6-0.7-0.8c-0.8-0.8-1.9-1.4-3-1.7c-0.5-0.1-0.9-0.2-1.4-0.2l-7.9-11
			c0.5,0,0.9,0.1,1.4,0.2c1.1,0.3,2.2,0.8,3,1.7C133.1,129.6,133.3,129.9,133.5,130.2z"/>
		<path class="st16" d="M120.2,137.8l7.9,11c0.1,0.2,0.2,0.4,0.2,0.5l0,0l-7.9-11l0,0C120.4,138.2,120.3,138,120.2,137.8z"/>
		<path class="st15" d="M120.5,138.4l7.9,11c0.1,0.2,0.2,0.3,0.3,0.5l-7.9-11C120.7,138.8,120.6,138.6,120.5,138.4z"/>
		<path class="st14" d="M120.8,138.9l7.9,11c0.1,0.1,0.1,0.2,0.2,0.3l-7.9-11C120.9,139.1,120.8,139,120.8,138.9z"/>
		<path class="st27" d="M133.6,130.2l7.9,11c0.1,0.1,0.1,0.2,0.2,0.3l-7.9-11C133.7,130.4,133.6,130.3,133.6,130.2z"/>
		<path class="st26" d="M133.7,130.4l7.9,11c0.1,0.2,0.2,0.3,0.3,0.5l-7.9-11C133.9,130.8,133.8,130.6,133.7,130.4z"/>
		<path class="st25" d="M134,131l7.9,11c0.1,0.2,0.2,0.4,0.3,0.6l-7.9-11C134.2,131.3,134.1,131.1,134,131"/>
		<path class="st24" d="M134.3,131.5l7.9,11c0.1,0.2,0.2,0.5,0.2,0.7l-7.9-11C134.4,132,134.4,131.8,134.3,131.5z"/>
		<path class="st21" d="M134.5,132.2l7.9,11c0.1,0.3,0.1,0.6,0.2,0.9l-7.9-11C134.6,132.8,134.6,132.5,134.5,132.2z"/>
		<path class="st22" d="M134.7,133.1l7.9,11c0,0.2,0,0.4,0,0.5c0,0.4,0,0.9-0.1,1.3l-7.9-11c0.1-0.4,0.1-0.9,0.1-1.3
			C134.7,133.5,134.7,133.3,134.7,133.1z"/>
		<path class="st23" d="M134.6,135l7.9,11c0,0.2-0.1,0.3-0.1,0.5l-7.9-11C134.6,135.3,134.6,135.1,134.6,135z"/>
		<path class="st22" d="M134.5,135.4l7.9,11c-0.1,0.6-0.4,1.3-0.7,1.8l-7.9-11C134.2,136.7,134.4,136.1,134.5,135.4z"/>
		<path class="st21" d="M133.9,137.3l7.9,11c-0.1,0.3-0.3,0.6-0.5,0.8l-7.9-11C133.6,137.8,133.7,137.6,133.9,137.3z"/>
		<path class="st24" d="M133.4,138.1l7.9,11c-0.1,0.1-0.1,0.2-0.2,0.3c-0.1,0.1-0.2,0.2-0.3,0.3l-7.9-11c0.1-0.1,0.2-0.2,0.3-0.3
			C133.3,138.3,133.3,138.2,133.4,138.1z"/>
		<path class="st25" d="M132.9,138.7l7.9,11c-0.1,0.2-0.3,0.4-0.5,0.5l-7.9-11C132.6,139.1,132.8,138.9,132.9,138.7z"/>
		<path class="st26" d="M132.5,139.3l7.9,11c-0.2,0.2-0.3,0.3-0.5,0.5l-7.9-11C132.1,139.6,132.3,139.4,132.5,139.3z"/>
		<path class="st27" d="M132,139.7l7.9,11c-0.2,0.1-0.3,0.3-0.5,0.4l-7.9-11C131.7,140,131.8,139.9,132,139.7z"/>
		<path class="st28" d="M131.5,140.1l7.9,11c-0.2,0.1-0.3,0.3-0.5,0.4l-7.9-11C131.1,140.4,131.3,140.3,131.5,140.1z"/>
		<path class="st29" d="M131,140.5l7.9,11c-0.2,0.1-0.4,0.2-0.6,0.3l-7.9-11C130.6,140.7,130.8,140.6,131,140.5z"/>
		<path class="st30" d="M130.4,140.9l7.9,11c-0.2,0.1-0.4,0.2-0.6,0.3l-7.9-11C130,141.1,130.2,141,130.4,140.9z"/>
		<path class="st33" d="M129.8,141.2l7.9,11c-0.2,0.1-0.5,0.2-0.7,0.3l-7.9-11C129.3,141.4,129.5,141.3,129.8,141.2z"/>
		<path class="st32" d="M129,141.5l7.9,11l-0.1,0c-0.3,0.1-0.6,0.2-0.9,0.2l-7.9-11C128.4,141.7,128.7,141.6,129,141.5L129,141.5z"
			/>
		<path class="st31" d="M128.1,141.7l7.9,11c-1.1,0.2-2.3,0.2-3.4,0c-0.2-0.1-0.4-0.1-0.7-0.2c-1.2-0.4-2.3-1.2-3-2.3l-7.9-11
			c0.8,1,1.8,1.8,3,2.3c0.2,0.1,0.4,0.1,0.7,0.2C125.8,141.9,126.9,142,128.1,141.7"/>
		<path class="st34" d="M129.9,127.7c1.1,0.3,2.2,0.8,3,1.7c1.1,1.1,1.8,2.7,1.9,4.3c0,1.7-0.5,3.4-1.5,4.7
			c-1.1,1.4-2.5,2.5-4.2,3.1c-1.4,0.5-2.9,0.5-4.3,0.2c-0.2-0.1-0.4-0.1-0.7-0.2c-1.5-0.5-2.8-1.6-3.5-3.1c-0.4-0.8-0.6-1.7-0.7-2.7
			c0-1,0.1-1.9,0.5-2.8c0.6-1.6,1.8-3.1,3.3-4c1.5-1,3.2-1.5,4.9-1.4C128.9,127.5,129.4,127.6,129.9,127.7z"/>
		<path class="st8" d="M132.7,152.9l7.9,11c-4.7-1.2-9.3-2.3-14-3.5c-8.1-2-16.1-4-24.2-6.1l-7.9-11c8.1,2,16.1,4,24.2,6.1
			C123.4,150.6,128.1,151.7,132.7,152.9z"/>
		<path class="st36" d="M132.7,152.9l7.9,11l-0.4,0.9l-7.9-11L132.7,152.9z"/>
		<path class="st34" d="M118.8,149.4c4.7,1.2,9.3,2.3,14,3.5l-0.4,0.9c-0.5,1.1-0.9,2.2-1.5,3.2c-5.5,10.9-15,19.3-26.5,23.4
			c-7.9,3-16.6,3.6-24.9,1.5c-0.5-0.1-1-0.3-1.5-0.4c-9.9-2.9-17.1-8.8-21.8-17.5c0-0.1,0-0.1,0-0.2c0-0.1,0.1-0.1,0.1-0.2
			c12.4-6.8,24.9-13.5,37.3-20.2c0.3-0.1,0.6-0.2,0.9-0.1C102.6,145.4,110.7,147.4,118.8,149.4z"/>
		<path class="st22" d="M132.4,153.8l7.9,11c-0.5,1.1-0.9,2.1-1.4,3.2l-7.9-11C131.5,156,131.9,154.9,132.4,153.8z"/>
		<path class="st21" d="M130.9,157l7.9,11l0,0c-0.9,1.8-1.9,3.5-3,5.2l-7.9-11C129,160.6,130,158.8,130.9,157L130.9,157z"/>
		<path class="st24" d="M127.9,162.2l7.9,11c-0.8,1.3-1.7,2.5-2.7,3.6l-7.9-11C126.1,164.7,127,163.5,127.9,162.2z"/>
		<path class="st25" d="M125.2,165.9l7.9,11c-0.8,1-1.7,2-2.5,2.9l-7.9-11C123.5,167.8,124.4,166.9,125.2,165.9"/>
		<path class="st26" d="M122.6,168.8l7.9,11c-0.8,0.8-1.7,1.6-2.5,2.4l-7.9-11C121,170.4,121.8,169.6,122.6,168.8z"/>
		<path class="st27" d="M120.1,171.2l7.9,11c-0.8,0.8-1.7,1.5-2.6,2.2l-7.9-11C118.4,172.6,119.3,171.9,120.1,171.2z"/>
		<path class="st28" d="M117.5,173.3l7.9,11c-0.9,0.7-1.8,1.4-2.8,2l-7.9-11C115.7,174.7,116.6,174,117.5,173.3z"/>
		<path class="st29" d="M114.7,175.3l7.9,11c-1,0.7-2.1,1.3-3.1,1.9l-7.9-11C112.6,176.6,113.7,176,114.7,175.3z"/>
		<path class="st30" d="M111.5,177.2l7.9,11c-1.2,0.7-2.4,1.3-3.7,1.8l-7.9-11C109.1,178.5,110.4,177.9,111.5,177.2z"/>
		<path class="st33" d="M107.8,179l7.9,11c-1.1,0.5-2.3,1-3.4,1.4c-0.4,0.1-0.8,0.3-1.1,0.4l-7.9-11c0.4-0.1,0.8-0.3,1.1-0.4
			C105.6,180,106.7,179.5,107.8,179z"/>
		<path class="st32" d="M103.2,180.8l7.9,11c-1.7,0.6-3.5,1.1-5.2,1.4l-7.9-11C99.8,181.9,101.5,181.4,103.2,180.8z"/>
		<path class="st31" d="M98,182.3l7.9,11c-6.1,1.3-12.4,1.2-18.5-0.3c-0.5-0.1-1-0.3-1.5-0.4c-7.7-2.1-14.5-6.7-19.2-13.2l-7.9-11
			c4.7,6.5,11.4,11.1,19.2,13.2c0.5,0.1,1,0.3,1.5,0.4C85.6,183.5,91.9,183.6,98,182.3z"/>
		<path class="st14" d="M146.3,101.3l7.6,10.6c0.6,0.8,1.1,1.6,1.6,2.4l-7.6-10.6C147.4,102.9,146.9,102.1,146.3,101.3z"/>
		<path class="st15" d="M147.9,103.7l7.6,10.6c0.9,1.4,1.8,2.9,2.5,4.5l-7.6-10.6C149.7,106.6,148.8,105.1,147.9,103.7z"/>
		<path class="st16" d="M150.5,108.1l7.6,10.6c0.8,1.6,1.6,3.3,2.2,5l-7.6-10.6C152,111.4,151.3,109.8,150.5,108.1"/>
		<path class="st17" d="M152.7,113.2l7.6,10.6c0.7,1.9,1.4,3.9,1.9,5.9l-7.6-10.6C154.1,117.1,153.4,115.1,152.7,113.2z"/>
		<path class="st18" d="M154.6,119.1l7.6,10.6c0.6,2.5,1.1,5,1.4,7.5l-7.6-10.6C155.7,124.1,155.2,121.6,154.6,119.1z"/>
		<path class="st19" d="M156,126.6l7.6,10.6c0.7,5.8,0.5,11.7-0.6,17.5l-7.6-10.6C156.5,138.3,156.7,132.4,156,126.6z"/>
		<path class="st20" d="M155.4,144.1l7.6,10.6c-0.1,0.7-0.2,1.3-0.4,2l-7.6-10.6C155.2,145.4,155.3,144.8,155.4,144.1z"/>
		<path class="st19" d="M155,146.1l7.6,10.6c-0.7,3.2-1.6,6.3-2.7,9.3c-0.9,2.4-1.9,4.7-3.1,7l-7.6-10.6c1.2-2.3,2.2-4.6,3.1-7
			C153.4,152.4,154.3,149.3,155,146.1z"/>
		<path class="st18" d="M149.2,162.4l7.6,10.6c-1.3,2.5-2.7,4.9-4.2,7.3l-7.6-10.6C146.5,167.4,147.9,164.9,149.2,162.4z"/>
		<path class="st17" d="M145,169.7l7.6,10.6c-1.2,1.9-2.6,3.7-4,5.4l-7.6-10.6C142.4,173.4,143.7,171.6,145,169.7"/>
		<path class="st16" d="M141,175.1l7.6,10.6c-1.3,1.6-2.6,3.1-4,4.5l-7.6-10.6C138.4,178.2,139.7,176.7,141,175.1z"/>
		<path class="st15" d="M137,179.6l7.6,10.6c-1.3,1.4-2.7,2.7-4.1,4l-7.6-10.6C134.3,182.3,135.7,181,137,179.6z"/>
		<path class="st14" d="M132.9,183.6l7.6,10.6c-1.4,1.2-2.8,2.4-4.3,3.6l-7.6-10.6C130,186.1,131.5,184.9,132.9,183.6z"/>
		<path class="st13" d="M128.6,187.2l7.6,10.6c-1.5,1.1-3,2.2-4.6,3.2l-7.6-10.6C125.6,189.4,127.1,188.3,128.6,187.2z"/>
		<path class="st12" d="M124,190.4l7.6,10.6c-1.6,1.1-3.3,2-4.9,3l-7.6-10.6C120.8,192.5,122.4,191.5,124,190.4z"/>
		<path class="st11" d="M119.1,193.4l7.6,10.6c-1.8,1-3.6,1.9-5.5,2.7l-7.6-10.6C115.4,195.3,117.3,194.4,119.1,193.4z"/>
		<path class="st10" d="M113.6,196.2l7.6,10.6c-2.1,0.9-4.2,1.8-6.4,2.5l-7.6-10.6C109.3,198,111.5,197.1,113.6,196.2z"/>
		<path class="st9" d="M107.2,198.7l7.6,10.6c-2.6,0.9-5.3,1.6-8,2.2l-7.6-10.6C101.9,200.3,104.5,199.6,107.2,198.7z"/>
		<path class="st8" d="M99.1,200.9l7.6,10.6c-9.7,2.1-19.7,2-29.3-0.4c-13.5-3.4-24.3-11-31.5-21.1l-7.6-10.6
			c7.2,10.1,18,17.7,31.5,21.1C79.4,202.9,89.5,203,99.1,200.9z"/>
		<path class="st37" d="M117,80.3c34.6,8.7,52.2,43.7,39.2,78.2c-12.9,34.5-51.4,55.4-86,46.7C35.6,196.5,18,161.5,31,127
			C43.9,92.5,82.4,71.6,117,80.3z M53.3,156.4c2.6-1.4,5.1-2.8,7.6-4.1c0,0,0.1-0.1,0.1-0.1c0,0,0-0.1,0-0.1
			c-1.4-8.4,0.4-16.4,5.5-24.1c8.2-12.4,23.7-19,37.6-16.2c0.5,0.1,0.9,0.2,1.4,0.3c5.4,1.3,10.3,4.1,14.2,8.2
			c1.1-0.4,2.2-0.9,3.3-1.6l4.6-2.5c-4-4.8-9.1-8.5-15-10.6c-1-0.4-2.1-0.7-3.1-1l-1.9-0.5L107,104c-1.9-0.3-3.7-0.6-5.6-0.8
			c-18.7-1.3-37.3,9.8-45.3,27.2c-3.7,7.8-4.8,16.6-3,25.1C53.2,155.8,53.2,156.1,53.3,156.4L53.3,156.4z M132.4,153.9l0.4-0.9
			c-4.7-1.2-9.3-2.3-14-3.5c-8.1-2-16.1-4-24.2-6.1c-0.3-0.1-0.6,0-0.9,0.1c-12.4,6.7-24.9,13.5-37.3,20.2c-0.1,0.1-0.1,0.1-0.1,0.2
			c0,0.1,0,0.1,0,0.2c4.7,8.7,11.9,14.6,21.8,17.5c0.5,0.1,1,0.3,1.5,0.4c8.3,2,16.9,1.5,24.9-1.5c11.5-4,21.1-12.4,26.5-23.4
			C131.4,156,131.9,154.9,132.4,153.9L132.4,153.9z M128.5,127.5c-1.8-0.1-3.5,0.4-4.9,1.4c-1.5,1-2.6,2.4-3.3,4
			c-0.3,0.9-0.5,1.9-0.5,2.8c0,0.9,0.3,1.8,0.7,2.7c0.7,1.4,2,2.5,3.5,3.1c0.2,0.1,0.4,0.1,0.7,0.2c1.4,0.3,2.9,0.3,4.3-0.2
			c1.7-0.6,3.2-1.6,4.2-3.1c1-1.4,1.6-3,1.5-4.7c0-1.6-0.7-3.1-1.9-4.3c-0.8-0.8-1.9-1.4-3-1.7C129.4,127.6,128.9,127.5,128.5,127.5
			"/>
		<path class="st38" d="M-51,73.5c0,0,3.4,32.9,42,53.7l73.6,39.3c0,0,15.6,5.5,20.9-6.6c5.3-12.1-0.4-17.2-5.6-22.1L28.3,110"/>
		<path class="st5" d="M-51,73.5c0,0,3.4,32.9,42,53.7l73.6,39.3c0,0,15.6,5.5,20.9-6.6c5.3-12.1-0.4-17.2-5.6-22.1L28.3,110"/>
		<path class="st39" d="M1068.2,314.7c-0.4,0.8-1.2,1.4-2,1.6c-0.9,0.3-1.8,0.2-2.6-0.2c-0.8-0.4-1.5-1-1.8-1.8
			c-0.4-0.8-0.4-1.7-0.1-2.6c0.3-0.8,0.9-1.6,1.7-2c0.8-0.4,1.7-0.6,2.6-0.4c0.9,0.2,1.6,0.7,2.1,1.5c0.5,0.7,0.7,1.6,0.6,2.5
			C1068.6,313.9,1068.5,314.3,1068.2,314.7z"/>
		<path class="st40" d="M1050.6,285c0.4,0,0.7,0,1.1,0.1c3.8,0.5,6.9,2.2,9.1,5.4c1.7,2.3,2.5,5,2.4,7.8c-0.1,3.2-1.4,6.3-3.7,8.6
			c0,0,0,0-0.1,0s0,0-0.1,0c-3-3-6-6-9-9c-0.1-0.1-0.1-0.2-0.1-0.3c0-4.2,0-8.4,0-12.6H1050.6z"/>
		<path class="st40" d="M1036,299.6c0,0.4,0,0.7,0.1,1.1c0.5,3.8,2.2,6.9,5.4,9.1c2.3,1.6,5,2.5,7.8,2.4c3.2-0.1,6.3-1.4,8.6-3.6
			c0,0,0,0,0-0.1c0,0,0,0,0-0.1c-3-3-6-6-9-9c-0.1-0.1-0.2-0.1-0.2-0.1c-4.2,0-8.4,0-12.6,0V299.6z"/>
		<path class="st40" d="M1078.4,342.1c-0.4,0-0.7,0-1.1-0.1c-3.8-0.5-6.9-2.2-9.1-5.4c-1.6-2.3-2.5-5-2.4-7.8
			c0.1-3.2,1.4-6.3,3.6-8.6c0,0,0.1,0,0.1,0s0,0,0.1,0c3,3,6,6,9,9c0.1,0.1,0.1,0.2,0.1,0.3c0,4.2,0,8.4,0,12.6L1078.4,342.1z"/>
		<path class="st40" d="M1093,327.4c0-0.4,0-0.7-0.1-1.1c-0.5-3.8-2.2-6.9-5.4-9.1c-2.3-1.6-5-2.5-7.8-2.4c-3.2,0.1-6.3,1.4-8.6,3.6
			c0,0,0,0,0,0.1c0,0,0,0,0,0.1c3,3,6,6,9,9c0.1,0.1,0.2,0.1,0.2,0.1c4.2,0,8.4,0,12.6,0V327.4z"/>
		<path class="st40" d="M1078.4,285c-0.4,0-0.7,0-1.1,0.1c-3.8,0.5-6.9,2.2-9.1,5.4c-1.6,2.3-2.5,5-2.4,7.8c0.1,3.2,1.4,6.3,3.6,8.6
			c0,0,0.1,0,0.1,0s0,0,0.1,0c3-3,6-6,9-9c0.1-0.1,0.1-0.2,0.1-0.3c0-4.2,0-8.4,0-12.6H1078.4z"/>
		<path class="st40" d="M1093,299.6c0,0.4,0,0.7-0.1,1.1c-0.5,3.8-2.2,6.9-5.4,9.1c-2.3,1.6-5,2.5-7.8,2.4c-3.2-0.1-6.3-1.4-8.6-3.6
			c0,0,0,0,0-0.1c0,0,0,0,0-0.1c3-3,6-6,9-9c0.1-0.1,0.2-0.1,0.2-0.1c4.2,0,8.4,0,12.6,0V299.6z"/>
		<path class="st40" d="M1050.6,342.1c0.4,0,0.7,0,1.1-0.1c3.8-0.5,6.9-2.2,9.1-5.4c1.7-2.3,2.5-5,2.4-7.8c-0.1-3.2-1.4-6.3-3.7-8.6
			c0,0,0,0-0.1,0s0,0-0.1,0c-3,3-6,6-9,9c-0.1,0.1-0.1,0.2-0.1,0.3c0,4.2,0,8.4,0,12.6L1050.6,342.1z"/>
		<path class="st40" d="M1036,327.4c0-0.4,0-0.7,0.1-1.1c0.5-3.8,2.2-6.9,5.4-9.1c2.3-1.6,5-2.5,7.8-2.4c3.2,0.1,6.3,1.4,8.6,3.6
			c0,0,0,0,0,0.1c0,0,0,0,0,0.1c-3,3-6,6-9,9c-0.1,0.1-0.2,0.1-0.2,0.1c-4.2,0-8.4,0-12.6,0V327.4z"/>
		<path class="st41" d="M1064.8,428.4l-0.5-0.1c-1.1-0.3-2.2-0.8-3-1.6c-0.8-0.8-1.4-1.8-1.8-2.9c-0.3-1.1-0.4-2.3-0.1-3.4
			c0.3-1.1,0.8-2.1,1.6-3c0.9-1,2-1.7,3.3-2l0.5-0.1v0l0.8-0.2c1.6-0.3,3-1,4.2-2c0.1-0.1,0.3-0.2,0.4-0.4l0.2-0.1l0,0l0.4-0.4
			l0.1-0.1c0.1-0.1,0.2-0.2,0.2-0.3c0.2-0.2,0.4-0.5,0.6-0.8c1.3-1.8,1.9-3.9,1.8-6.1c-0.1-2.2-0.9-4.2-2.4-5.9
			c-1.4-1.6-3.2-2.7-5.3-3.2c-0.1,0-0.1,0-0.2,0c0,0,0,0-0.1,0l-0.8-0.2v0l-0.5-0.1c-1.1-0.3-2.2-0.8-3-1.6
			c-0.8-0.8-1.4-1.8-1.8-2.9c-0.3-1.1-0.4-2.3-0.1-3.4s0.8-2.1,1.6-3c0.9-1,2-1.7,3.3-2l0.5-0.1v0l0.8-0.2c1.6-0.3,3-1,4.2-2
			c0.1-0.1,0.3-0.2,0.4-0.4l0.2-0.1l0,0l0.4-0.4l0.1-0.1c0.1-0.1,0.2-0.2,0.2-0.3c0.2-0.2,0.4-0.5,0.6-0.8c1.3-1.8,1.9-3.9,1.8-6.1
			c-0.1-2.2-0.9-4.2-2.4-5.9c-1.4-1.6-3.2-2.7-5.3-3.2c-0.1,0-0.1,0-0.2,0c0,0,0,0-0.1,0l-0.8-0.2v0l-0.5-0.1
			c-1.1-0.3-2.2-0.8-3-1.6c-0.8-0.8-1.4-1.8-1.8-2.9c-0.3-1.1-0.4-2.3-0.1-3.4s0.8-2.1,1.6-3c0.9-1,2-1.7,3.3-2l0.5-0.1l0-0.5
			c0-0.2,0-0.4,0-0.5v-0.2v-1.9l-0.8,0.2c-1.5,0.3-3,1-4.2,2c-0.1,0.1-0.3,0.2-0.4,0.4c-0.1,0.1-0.1,0.1-0.2,0.1l0,0l-0.4,0.4
			l-0.1,0.1l0,0c-0.1,0.1-0.1,0.2-0.2,0.3c-0.2,0.2-0.4,0.5-0.6,0.8c-1.3,1.8-1.9,3.9-1.8,6.1c0.1,2.2,0.9,4.2,2.4,5.9
			c1.4,1.6,3.2,2.7,5.3,3.2c0.1,0,0.1,0,0.2,0l0,0l0.8,0.2v0l0.5,0.1c1.1,0.3,2.2,0.8,3,1.6c0.8,0.8,1.4,1.8,1.8,2.9
			c0.3,1.1,0.4,2.3,0.1,3.4c-0.3,1.1-0.8,2.1-1.6,3c-0.9,1-2,1.7-3.3,2l-0.5,0.1v0l-0.8,0.2c-1.5,0.3-3,1-4.2,2
			c-0.1,0.1-0.3,0.2-0.4,0.4c-0.1,0.1-0.1,0.1-0.2,0.1l0,0l-0.4,0.4l-0.1,0.1l0,0c-0.1,0.1-0.1,0.2-0.2,0.3
			c-0.2,0.2-0.4,0.5-0.6,0.8c-1.3,1.8-1.9,3.9-1.8,6.1c0.1,2.2,0.9,4.2,2.4,5.9c1.4,1.6,3.2,2.7,5.3,3.2c0.1,0,0.1,0,0.2,0
			c0,0,0,0,0,0l0.8,0.2v0l0.5,0.1c1.1,0.3,2.2,0.8,3,1.6c0.8,0.8,1.4,1.8,1.8,2.9c0.3,1.1,0.4,2.3,0.1,3.4c-0.3,1.1-0.8,2.1-1.6,3
			c-0.9,1-2,1.7-3.3,2l-0.5,0.1v0l-0.8,0.2c-1.5,0.3-3,1-4.2,2c-0.1,0.1-0.3,0.2-0.4,0.4c-0.1,0.1-0.1,0.1-0.2,0.1l0,0l-0.4,0.4
			l-0.1,0.1l0,0c-0.1,0.1-0.1,0.2-0.2,0.3c-0.2,0.2-0.4,0.5-0.6,0.8c-1.3,1.8-1.9,3.9-1.8,6.1c0.1,2.2,0.9,4.2,2.4,5.9
			c1.4,1.6,3.2,2.7,5.3,3.2c0.1,0,0.1,0,0.2,0l0.1,0l0.8,0.2L1064.8,428.4z M1063.4,347.7C1063.5,347.7,1063.5,347.7,1063.4,347.7
			C1063.5,347.7,1063.4,347.7,1063.4,347.7C1063.4,347.7,1063.4,347.7,1063.4,347.7L1063.4,347.7z M1059.8,349.7
			c0.1-0.1,0.2-0.2,0.4-0.3C1060,349.5,1059.9,349.6,1059.8,349.7z M1058.7,350.9c0.1-0.1,0.2-0.2,0.3-0.3
			C1058.9,350.7,1058.8,350.8,1058.7,350.9c-0.1,0.1-0.2,0.2-0.3,0.3C1058.5,351.1,1058.6,351,1058.7,350.9L1058.7,350.9z
			 M1065.4,381.7C1065.4,381.7,1065.5,381.7,1065.4,381.7C1065.5,381.7,1065.4,381.7,1065.4,381.7L1065.4,381.7z M1066.1,381.6
			C1066.1,381.6,1066.1,381.6,1066.1,381.6C1066.1,381.6,1066.2,381.6,1066.1,381.6C1066.2,381.6,1066.2,381.6,1066.1,381.6
			L1066.1,381.6z M1069.8,379.6c-0.1,0.1-0.2,0.2-0.4,0.3C1069.5,379.8,1069.7,379.7,1069.8,379.6z M1063.4,380.4
			C1063.5,380.4,1063.5,380.4,1063.4,380.4C1063.5,380.4,1063.4,380.4,1063.4,380.4C1063.4,380.4,1063.4,380.4,1063.4,380.4
			L1063.4,380.4z M1072.8,405.5c0-0.9-0.1-1.8-0.4-2.7c0.4,1.3,0.5,2.7,0.3,4.1c-0.2,1.4-0.8,2.7-1.6,3.8
			C1072.2,409.2,1072.8,407.4,1072.8,405.5L1072.8,405.5z M1066.1,414.2C1066.1,414.2,1066.1,414.2,1066.1,414.2
			C1066.1,414.2,1066.2,414.2,1066.1,414.2C1066.2,414.2,1066.1,414.2,1066.1,414.2L1066.1,414.2z M1069.4,412.6
			c0.1-0.1,0.3-0.2,0.4-0.3C1069.7,412.3,1069.5,412.5,1069.4,412.6z M1063.4,413C1063.5,413,1063.5,413,1063.4,413
			C1063.5,413,1063.4,413,1063.4,413C1063.4,413.1,1063.4,413,1063.4,413L1063.4,413z M1060.2,414.7c-0.1,0.1-0.3,0.2-0.4,0.3
			C1059.9,414.9,1060,414.8,1060.2,414.7L1060.2,414.7z M1057.9,417.4c-0.6,1.1-1,2.3-1.1,3.5
			C1056.9,419.7,1057.3,418.5,1057.9,417.4L1057.9,417.4z M1056.7,421.7c0,1.6,0.4,3.2,1.2,4.6
			C1057.2,424.9,1056.7,423.3,1056.7,421.7L1056.7,421.7z"/>
		<path class="st39" d="M1145.9,258.3c-0.7,1.1-1.7,2-2.9,2.4c-1.2,0.4-2.6,0.3-3.8-0.2c-1.2-0.5-2.1-1.5-2.6-2.7
			c-0.5-1.2-0.6-2.5-0.1-3.8c0.4-1.2,1.3-2.3,2.4-2.9c1.1-0.6,2.5-0.8,3.7-0.5c1.3,0.3,2.4,1.1,3.1,2.1s1.1,2.4,0.9,3.7
			C1146.5,257,1146.3,257.7,1145.9,258.3z"/>
		<path class="st40" d="M1120.3,215c0.5,0,1,0,1.6,0.1c5.6,0.7,10,3.3,13.3,7.8c2.4,3.3,3.6,7.3,3.4,11.4c-0.1,4.7-2,9.2-5.3,12.5
			c0,0-0.1,0-0.1,0c0,0-0.1,0-0.1,0c-4.4-4.4-8.7-8.7-13.1-13.1c-0.1-0.1-0.1-0.2-0.2-0.4c0-6.1,0-12.3,0-18.4L1120.3,215z"/>
		<path class="st40" d="M1099,236.3c0,0.5,0.1,1.1,0.1,1.6c0.7,5.6,3.3,10,7.8,13.3c3.3,2.4,7.3,3.6,11.4,3.4
			c4.7-0.1,9.2-2,12.5-5.3c0,0,0-0.1,0-0.1c0,0,0-0.1,0-0.1c-4.3-4.4-8.7-8.7-13.1-13.1c-0.1-0.1-0.2-0.2-0.4-0.2
			c-6.1,0-12.3,0-18.4,0V236.3z"/>
		<path class="st40" d="M1160.7,298.1c-0.5,0-1,0-1.6-0.1c-5.6-0.7-10-3.3-13.3-7.8c-2.4-3.3-3.6-7.3-3.4-11.4
			c0.1-4.7,2-9.2,5.3-12.5c0,0,0.1,0,0.1,0c0,0,0.1,0,0.1,0c4.4,4.4,8.7,8.7,13.1,13.1c0.1,0.1,0.2,0.2,0.2,0.4c0,6.1,0,12.3,0,18.4
			L1160.7,298.1z"/>
		<path class="st40" d="M1182,276.8c0-0.5-0.1-1.1-0.1-1.6c-0.7-5.6-3.3-10-7.8-13.3c-3.3-2.4-7.3-3.6-11.4-3.4
			c-4.7,0.1-9.2,2-12.5,5.3c0,0,0,0.1,0,0.1c0,0,0,0.1,0,0.1c4.3,4.4,8.7,8.7,13.1,13.1c0.1,0.1,0.2,0.1,0.4,0.2
			c6.1,0,12.3,0,18.4,0V276.8z"/>
		<path class="st40" d="M1160.7,215c-0.5,0-1,0-1.6,0.1c-5.6,0.7-10,3.3-13.3,7.8c-2.4,3.3-3.6,7.3-3.4,11.4c0.1,4.7,2,9.2,5.3,12.5
			c0,0,0.1,0,0.1,0c0,0,0.1,0,0.1,0c4.4-4.4,8.7-8.7,13.1-13.1c0.1-0.1,0.2-0.2,0.2-0.4c0-6.1,0-12.3,0-18.4L1160.7,215z"/>
		<path class="st40" d="M1182,236.3c0,0.5-0.1,1.1-0.1,1.6c-0.7,5.6-3.3,10-7.8,13.3c-3.3,2.4-7.3,3.6-11.4,3.4
			c-4.7-0.1-9.2-2-12.5-5.3c0,0,0-0.1,0-0.1c0,0,0-0.1,0-0.1c4.3-4.4,8.7-8.7,13.1-13.1c0.1-0.1,0.2-0.2,0.4-0.2
			c6.1,0,12.3,0,18.4,0V236.3z"/>
		<path class="st40" d="M1120.3,298.1c0.5,0,1,0,1.6-0.1c5.6-0.7,10-3.3,13.3-7.8c2.4-3.3,3.6-7.3,3.4-11.4c-0.1-4.7-2-9.2-5.3-12.5
			c0,0-0.1,0-0.1,0c0,0-0.1,0-0.1,0c-4.4,4.4-8.7,8.7-13.1,13.1c-0.1,0.1-0.1,0.2-0.2,0.4c0,6.1,0,12.3,0,18.4L1120.3,298.1z"/>
		<path class="st40" d="M1099,276.8c0-0.5,0.1-1.1,0.1-1.6c0.7-5.6,3.3-10,7.8-13.3c3.3-2.4,7.3-3.6,11.4-3.4
			c4.7,0.1,9.2,2,12.5,5.3c0,0,0,0.1,0,0.1c0,0,0,0.1,0,0.1c-4.3,4.4-8.7,8.7-13.1,13.1c-0.1,0.1-0.2,0.1-0.4,0.2
			c-6.1,0-12.3,0-18.4,0V276.8z"/>
		<path class="st41" d="M1140.9,423.8l-0.7-0.2c-1.6-0.4-3.1-1.2-4.3-2.4c-1.2-1.2-2.1-2.6-2.6-4.2c-0.5-1.6-0.5-3.3-0.2-4.9
			c0.4-1.6,1.2-3.1,2.3-4.4c1.3-1.4,2.9-2.4,4.8-2.9l0.7-0.2v0l1.2-0.2c2.3-0.5,4.4-1.4,6.2-2.9c0.2-0.2,0.4-0.4,0.6-0.5l0.2-0.2
			l0,0l0.5-0.5l0.1-0.1c0.1-0.1,0.2-0.3,0.3-0.4c0.3-0.3,0.6-0.7,0.9-1.1c1.8-2.6,2.8-5.7,2.6-8.9c-0.1-3.2-1.4-6.2-3.4-8.6
			c-2-2.3-4.7-3.9-7.7-4.6c-0.1,0-0.2,0-0.2-0.1c0,0-0.1,0-0.1,0l-1.2-0.3v0l-0.7-0.2c-1.6-0.4-3.1-1.2-4.3-2.4
			c-1.2-1.2-2.1-2.6-2.6-4.2c-0.5-1.6-0.5-3.3-0.2-4.9c0.4-1.6,1.2-3.1,2.3-4.4c1.3-1.4,2.9-2.4,4.8-2.9l0.7-0.2v-0.1l1.2-0.2
			c2.3-0.5,4.4-1.4,6.2-2.9c0.2-0.2,0.4-0.4,0.6-0.5l0.2-0.2l0,0l0.5-0.5l0.1-0.1c0.1-0.1,0.2-0.3,0.3-0.4c0.3-0.3,0.6-0.7,0.9-1.1
			c1.8-2.6,2.8-5.7,2.6-8.9c-0.1-3.2-1.4-6.2-3.4-8.6c-2-2.3-4.7-3.9-7.7-4.6c-0.1,0-0.2,0-0.2-0.1c0,0-0.1,0-0.1,0l-1.2-0.2v0
			l-0.7-0.2c-1.6-0.4-3.1-1.2-4.3-2.4c-1.2-1.2-2.1-2.6-2.6-4.2c-0.5-1.6-0.5-3.3-0.2-4.9c0.4-1.6,1.2-3.1,2.3-4.4
			c1.3-1.4,2.9-2.4,4.8-2.9l0.7-0.2l0-0.7c0-0.3,0-0.5,0-0.8v-0.3v-2.8l-1.2,0.2c-2.3,0.5-4.4,1.4-6.2,2.9c-0.2,0.2-0.4,0.4-0.6,0.5
			c-0.1,0.1-0.2,0.1-0.2,0.2l0,0l-0.5,0.5l-0.1,0.1l0,0c-0.1,0.1-0.2,0.3-0.3,0.4c-0.3,0.3-0.6,0.7-0.9,1.1
			c-1.8,2.6-2.8,5.7-2.6,8.9c0.2,3.2,1.4,6.2,3.4,8.6c2,2.3,4.7,3.9,7.7,4.6c0.1,0,0.2,0,0.2,0.1l0.1,0l1.2,0.2v0l0.7,0.2
			c1.6,0.4,3.1,1.2,4.3,2.4c1.2,1.2,2.1,2.6,2.6,4.2c0.5,1.6,0.5,3.3,0.2,4.9c-0.4,1.6-1.2,3.1-2.3,4.4c-1.3,1.4-3,2.4-4.8,2.9
			l-0.7,0.2v0.1l-1.2,0.2c-2.3,0.5-4.4,1.4-6.2,2.9c-0.2,0.2-0.4,0.4-0.6,0.5c-0.1,0.1-0.2,0.1-0.2,0.2l0,0l-0.5,0.5l-0.1,0.1l0,0
			c-0.1,0.1-0.2,0.3-0.3,0.4c-0.3,0.3-0.6,0.7-0.9,1.1c-1.8,2.6-2.8,5.7-2.6,8.9c0.2,3.2,1.4,6.2,3.4,8.6c2,2.3,4.7,3.9,7.7,4.6
			c0.1,0,0.2,0,0.2,0.1c0,0,0.1,0,0.1,0l1.2,0.3v0l0.7,0.2c1.6,0.4,3.1,1.2,4.3,2.4c1.2,1.2,2.1,2.6,2.6,4.2
			c0.5,1.6,0.5,3.3,0.2,4.9c-0.4,1.6-1.2,3.1-2.3,4.4c-1.3,1.4-3,2.4-4.8,2.9l-0.7,0.2v0l-1.2,0.2c-2.3,0.5-4.4,1.4-6.2,2.9
			c-0.2,0.2-0.4,0.4-0.6,0.5c-0.1,0.1-0.2,0.1-0.2,0.2l0,0l-0.5,0.5l-0.1,0.1l0,0c-0.1,0.1-0.2,0.3-0.3,0.4
			c-0.3,0.3-0.6,0.7-0.9,1.1c-1.8,2.6-2.8,5.7-2.6,8.9c0.2,3.2,1.4,6.2,3.4,8.6c2,2.3,4.7,3.9,7.7,4.6c0.1,0,0.2,0,0.2,0.1l0.1,0
			l1.2,0.3L1140.9,423.8z M1139,306.3C1139,306.3,1139,306.3,1139,306.3c0,0,0,0-0.1,0C1138.9,306.4,1138.9,306.4,1139,306.3
			L1139,306.3z M1133.6,309.2c0.2-0.2,0.4-0.3,0.6-0.5C1134,308.9,1133.8,309.1,1133.6,309.2z M1132,311c0.1-0.2,0.3-0.3,0.4-0.5
			C1132.3,310.7,1132.2,310.8,1132,311c-0.1,0.2-0.3,0.3-0.4,0.5C1131.8,311.3,1131.9,311.1,1132,311L1132,311z M1141.9,355.9
			C1141.9,355.9,1141.9,355.9,1141.9,355.9C1141.9,355.9,1141.9,355.9,1141.9,355.9L1141.9,355.9z M1142.8,355.6
			C1142.8,355.6,1142.8,355.6,1142.8,355.6c0,0,0.1,0,0.2,0C1142.9,355.6,1142.9,355.6,1142.8,355.6L1142.8,355.6z M1148.2,352.7
			c-0.2,0.2-0.4,0.3-0.6,0.5C1147.8,353,1148,352.9,1148.2,352.7z M1139,354C1139,354,1139,354,1139,354c0,0,0,0-0.1,0
			C1138.9,354,1138.9,354,1139,354L1139,354z M1152.6,390.4c0-1.3-0.2-2.7-0.6-3.9c0.6,1.9,0.8,4,0.4,6c-0.3,2-1.1,3.9-2.3,5.6
			C1151.8,395.8,1152.6,393.2,1152.6,390.4L1152.6,390.4z M1142.8,403.2C1142.8,403.2,1142.8,403.2,1142.8,403.2c0,0,0.1,0,0.1,0
			C1142.9,403.2,1142.9,403.2,1142.8,403.2L1142.8,403.2z M1147.6,400.8c0.2-0.2,0.4-0.3,0.6-0.5
			C1148,400.4,1147.8,400.6,1147.6,400.8z M1139,401.4C1139,401.4,1139,401.4,1139,401.4c0,0,0,0-0.1,0
			C1138.9,401.5,1138.9,401.5,1139,401.4L1139,401.4z M1134.2,403.9c-0.2,0.2-0.4,0.3-0.6,0.5C1133.8,404.2,1134,404,1134.2,403.9
			L1134.2,403.9z M1130.9,407.8c-0.9,1.6-1.4,3.3-1.6,5.1C1129.4,411.1,1130,409.4,1130.9,407.8L1130.9,407.8z M1129.2,414.1
			c0,2.3,0.6,4.6,1.8,6.7C1129.8,418.8,1129.2,416.4,1129.2,414.1L1129.2,414.1z"/>
	</g>
</g>
</svg>
