<svg width="704" height="385" viewBox="0 0 704 385" fill="none" xmlns="http://www.w3.org/2000/svg">
<g clip-path="url(#clip0_1006_36193)">
<rect width="704" height="385" rx="16" fill="white"/>
<rect width="704" height="385" fill="url(#paint0_linear_1006_36193)"/>
<path d="M593.225 295.721C592.777 296.495 592.057 297.075 591.206 297.347C590.354 297.62 589.432 297.566 588.617 297.196C587.803 296.827 587.156 296.167 586.801 295.347C586.446 294.526 586.409 293.603 586.697 292.756C586.985 291.91 587.578 291.201 588.359 290.767C589.141 290.333 590.056 290.205 590.927 290.409C591.798 290.613 592.562 291.133 593.07 291.868C593.579 292.604 593.795 293.502 593.678 294.388C593.616 294.858 593.462 295.311 593.225 295.721Z" fill="#E1458D"/>
<path d="M575.625 266C575.987 266.025 576.351 266.035 576.711 266.079C580.527 266.549 583.585 268.329 585.824 271.453C587.473 273.724 588.304 276.487 588.179 279.291C588.098 282.509 586.794 285.576 584.534 287.868C584.514 287.879 584.492 287.884 584.47 287.884C584.447 287.884 584.425 287.879 584.405 287.868C581.409 284.876 578.415 281.882 575.425 278.885C575.36 278.814 575.322 278.722 575.319 278.626C575.314 274.418 575.312 270.209 575.314 266L575.625 266Z" fill="#2FC8E0"/>
<path d="M561.001 280.624C561.026 280.986 561.035 281.351 561.08 281.71C561.549 285.526 563.329 288.584 566.454 290.824C568.724 292.473 571.487 293.303 574.291 293.178C577.509 293.097 580.576 291.794 582.868 289.533C582.879 289.513 582.884 289.491 582.884 289.469C582.884 289.446 582.879 289.424 582.868 289.405C579.876 286.408 576.882 283.415 573.885 280.424C573.814 280.359 573.722 280.321 573.626 280.318C569.418 280.313 565.209 280.311 561 280.313L561.001 280.624Z" fill="#2FC8E0"/>
<path d="M603.374 323.053C603.012 323.028 602.648 323.019 602.288 322.975C598.472 322.505 595.414 320.725 593.175 317.601C591.526 315.33 590.695 312.567 590.82 309.763C590.901 306.545 592.204 303.478 594.465 301.186C594.485 301.176 594.507 301.17 594.529 301.17C594.552 301.17 594.574 301.176 594.593 301.186C597.59 304.178 600.584 307.172 603.574 310.169C603.639 310.24 603.677 310.332 603.68 310.428C603.685 314.636 603.687 318.845 603.684 323.054L603.374 323.053Z" fill="#2FC8E0"/>
<path d="M617.999 308.428C617.974 308.066 617.965 307.701 617.92 307.342C617.45 303.526 615.67 300.468 612.546 298.228C610.275 296.579 607.512 295.749 604.709 295.873C601.49 295.955 598.424 297.258 596.132 299.519C596.121 299.539 596.115 299.561 596.115 299.583C596.115 299.605 596.121 299.627 596.132 299.647C599.123 302.644 602.118 305.637 605.115 308.628C605.186 308.693 605.278 308.731 605.374 308.734C609.582 308.739 613.79 308.74 618 308.738L617.999 308.428Z" fill="#2FC8E0"/>
<path d="M603.374 266C603.012 266.025 602.648 266.035 602.288 266.079C598.472 266.549 595.414 268.329 593.175 271.453C591.526 273.724 590.695 276.487 590.82 279.291C590.901 282.509 592.204 285.576 594.465 287.868C594.485 287.879 594.507 287.884 594.529 287.884C594.552 287.884 594.574 287.879 594.593 287.868C597.59 284.876 600.584 281.882 603.574 278.885C603.639 278.814 603.677 278.722 603.68 278.626C603.685 274.418 603.687 270.209 603.684 266L603.374 266Z" fill="#2FC8E0"/>
<path d="M617.999 280.624C617.974 280.986 617.965 281.351 617.92 281.71C617.45 285.526 615.67 288.584 612.546 290.824C610.275 292.473 607.512 293.303 604.709 293.178C601.49 293.097 598.424 291.794 596.132 289.533C596.121 289.513 596.115 289.491 596.115 289.469C596.115 289.446 596.121 289.424 596.132 289.405C599.123 286.408 602.118 283.415 605.115 280.424C605.186 280.359 605.277 280.321 605.374 280.318C609.582 280.313 613.79 280.311 618 280.313L617.999 280.624Z" fill="#2FC8E0"/>
<path d="M575.625 323.053C575.987 323.028 576.351 323.019 576.711 322.975C580.527 322.505 583.585 320.725 585.824 317.601C587.473 315.33 588.304 312.567 588.179 309.763C588.098 306.545 586.794 303.478 584.534 301.186C584.514 301.176 584.492 301.17 584.47 301.17C584.447 301.17 584.425 301.176 584.405 301.186C581.409 304.178 578.415 307.172 575.425 310.169C575.36 310.24 575.322 310.332 575.319 310.428C575.314 314.636 575.312 318.845 575.314 323.054L575.625 323.053Z" fill="#2FC8E0"/>
<path d="M561.001 308.428C561.026 308.066 561.035 307.701 561.08 307.342C561.549 303.526 563.329 300.468 566.454 298.228C568.724 296.579 571.487 295.749 574.291 295.873C577.509 295.955 580.576 297.258 582.868 299.519C582.879 299.539 582.884 299.561 582.884 299.583C582.884 299.605 582.879 299.627 582.868 299.647C579.876 302.644 576.882 305.637 573.885 308.628C573.814 308.693 573.722 308.731 573.626 308.734C569.418 308.739 565.209 308.74 561 308.738L561.001 308.428Z" fill="#2FC8E0"/>
<path fill-rule="evenodd" clip-rule="evenodd" d="M589.794 409.36L589.298 409.224C588.176 408.941 587.148 408.376 586.313 407.583C585.478 406.79 584.865 405.797 584.533 404.7C584.202 403.603 584.163 402.439 584.42 401.323C584.678 400.207 585.224 399.176 586.004 398.33C586.887 397.369 588.028 396.677 589.293 396.332L589.768 396.207L589.768 396.215L590.579 396.048C592.128 395.736 593.579 395.061 594.811 394.082C594.955 393.968 595.101 393.841 595.234 393.725L595.405 393.578L595.425 393.561L595.789 393.202L595.864 393.108C595.933 393.025 596.011 392.934 596.092 392.838C596.289 392.607 596.512 392.345 596.696 392.083C597.959 390.308 598.587 388.166 598.482 385.998C598.376 383.829 597.543 381.758 596.114 380.11C594.743 378.515 592.885 377.403 590.82 376.942C590.764 376.929 590.7 376.915 590.648 376.904C590.626 376.9 590.607 376.896 590.592 376.893L589.78 376.72L589.78 376.751L589.299 376.62C588.178 376.337 587.149 375.772 586.315 374.979C585.48 374.186 584.866 373.193 584.535 372.096C584.203 370.999 584.164 369.835 584.422 368.719C584.68 367.603 585.225 366.571 586.005 365.726C586.888 364.766 588.028 364.073 589.293 363.729L589.784 363.598L589.784 363.555L590.579 363.391C592.127 363.079 593.578 362.404 594.811 361.425C594.954 361.311 595.1 361.184 595.234 361.068L595.405 360.921L595.424 360.905L595.788 360.545L595.864 360.451C595.933 360.368 596.01 360.277 596.091 360.182C596.288 359.95 596.512 359.689 596.695 359.427C597.958 357.651 598.587 355.51 598.481 353.341C598.376 351.173 597.543 349.101 596.114 347.453C594.742 345.858 592.885 344.746 590.82 344.285C590.764 344.272 590.7 344.259 590.648 344.248C590.626 344.243 590.607 344.239 590.591 344.236L589.795 344.066L589.795 344.049L589.299 343.913C588.177 343.631 587.149 343.065 586.314 342.272C585.479 341.48 584.866 340.486 584.534 339.389C584.202 338.292 584.163 337.129 584.421 336.013C584.679 334.896 585.224 333.865 586.005 333.019C586.888 332.06 588.028 331.367 589.293 331.023L589.784 330.892L589.79 330.389C589.792 330.207 589.792 330.023 589.792 329.845L589.792 329.664L589.795 327.746L588.983 327.913C587.434 328.226 585.983 328.9 584.75 329.879C584.609 329.993 584.461 330.121 584.327 330.236C584.267 330.289 584.21 330.338 584.158 330.383L584.137 330.4L583.775 330.759L583.699 330.854L583.697 330.854C583.63 330.937 583.553 331.028 583.471 331.123C583.273 331.355 583.051 331.616 582.865 331.878C581.602 333.654 580.974 335.795 581.08 337.964C581.185 340.132 582.019 342.204 583.448 343.851C584.82 345.447 586.678 346.559 588.743 347.02C588.8 347.033 588.863 347.046 588.915 347.057L588.972 347.069L589.767 347.238L589.767 347.256L590.262 347.391C591.383 347.674 592.411 348.239 593.246 349.032C594.081 349.825 594.694 350.818 595.026 351.915C595.358 353.012 595.397 354.176 595.139 355.292C594.881 356.408 594.336 357.44 593.555 358.285C592.673 359.245 591.533 359.938 590.269 360.282L589.778 360.413L589.778 360.456L588.983 360.62C587.434 360.933 585.983 361.607 584.751 362.586C584.609 362.7 584.461 362.827 584.328 362.943C584.267 362.995 584.211 363.045 584.158 363.09L584.137 363.107L583.775 363.466L583.699 363.56L583.698 363.56C583.63 363.644 583.553 363.734 583.472 363.83C583.273 364.061 583.051 364.323 582.865 364.585C581.603 366.36 580.974 368.502 581.08 370.67C581.186 372.839 582.019 374.911 583.448 376.558C584.82 378.153 586.678 379.265 588.743 379.726C588.8 379.74 588.863 379.753 588.916 379.764C588.936 379.768 588.956 379.772 588.972 379.775L589.784 379.948L589.784 379.917L590.263 380.048C591.385 380.331 592.413 380.896 593.248 381.689C594.083 382.482 594.696 383.475 595.028 384.572C595.36 385.669 595.399 386.833 595.141 387.949C594.883 389.065 594.338 390.097 593.557 390.942C592.675 391.902 591.535 392.595 590.27 392.939L589.794 393.065L589.794 393.056L588.982 393.224C587.433 393.536 585.982 394.211 584.749 395.19C584.608 395.303 584.46 395.431 584.326 395.547C584.266 395.599 584.209 395.648 584.157 395.693L584.136 395.71L583.774 396.069L583.698 396.164L583.696 396.164C583.629 396.247 583.552 396.338 583.47 396.433C583.272 396.665 583.05 396.926 582.864 397.188C581.601 398.964 580.973 401.106 581.079 403.274C581.184 405.443 582.018 407.514 583.447 409.162C584.819 410.757 586.677 411.869 588.742 412.33C588.799 412.343 588.862 412.356 588.914 412.367L588.971 412.379L589.783 412.552L589.794 409.36ZM588.447 328.73C588.464 328.726 588.481 328.722 588.499 328.717C588.457 328.728 588.415 328.74 588.374 328.752C588.398 328.743 588.423 328.736 588.447 328.729L588.447 328.73ZM584.785 330.726C584.913 330.616 585.04 330.505 585.171 330.4C585.04 330.505 584.912 330.616 584.785 330.726ZM583.679 331.916C583.771 331.804 583.865 331.693 583.96 331.583C583.864 331.694 583.771 331.803 583.679 331.916C583.588 332.03 583.499 332.143 583.415 332.263C583.499 332.142 583.588 332.028 583.679 331.915L583.679 331.916ZM590.44 362.741C590.452 362.738 590.465 362.735 590.477 362.733C590.465 362.733 590.452 362.737 590.44 362.739L590.44 362.741ZM591.114 362.578C591.091 362.584 591.068 362.589 591.046 362.595C591.102 362.58 591.159 362.564 591.215 362.548C591.181 362.556 591.148 362.567 591.114 362.576L591.114 362.578ZM594.774 360.582C594.647 360.693 594.52 360.802 594.389 360.908C594.521 360.803 594.648 360.693 594.774 360.582ZM588.447 361.436C588.464 361.432 588.481 361.428 588.498 361.423C588.457 361.434 588.416 361.445 588.376 361.457C588.399 361.449 588.423 361.443 588.447 361.435L588.447 361.436ZM597.821 386.483C597.822 385.568 597.684 384.659 597.411 383.785C597.826 385.113 597.927 386.517 597.708 387.89C597.488 389.262 596.953 390.567 596.145 391.703C597.231 390.174 597.816 388.351 597.82 386.481L597.821 386.483ZM591.114 395.234C591.094 395.24 591.073 395.245 591.053 395.25C591.104 395.236 591.154 395.222 591.205 395.207C591.174 395.215 591.144 395.224 591.114 395.231L591.114 395.234ZM594.389 393.564C594.521 393.459 594.648 393.349 594.775 393.239C594.648 393.347 594.521 393.458 594.389 393.564ZM588.447 394.04C588.465 394.035 588.482 394.031 588.5 394.026C588.457 394.038 588.415 394.05 588.372 394.062C588.397 394.053 588.422 394.045 588.447 394.038L588.447 394.04ZM585.173 395.71C585.042 395.814 584.914 395.925 584.787 396.035C584.912 395.923 585.04 395.813 585.171 395.708L585.173 395.71ZM582.883 398.418C582.284 399.494 581.912 400.679 581.788 401.902C581.911 400.679 582.283 399.493 582.882 398.416L582.883 398.418ZM581.742 402.735C581.728 404.343 582.146 405.926 582.954 407.322C582.145 405.926 581.726 404.342 581.74 402.733L581.742 402.735Z" fill="#FED670"/>
<path d="M670.924 239.277C670.271 240.404 669.223 241.248 667.983 241.645C666.744 242.042 665.4 241.964 664.215 241.425C663.029 240.887 662.087 239.927 661.57 238.732C661.053 237.537 660.999 236.192 661.418 234.96C661.838 233.727 662.701 232.695 663.839 232.063C664.978 231.432 666.31 231.246 667.578 231.542C668.846 231.838 669.958 232.596 670.698 233.667C671.439 234.738 671.755 236.046 671.584 237.336C671.494 238.021 671.27 238.68 670.924 239.277Z" fill="#E1458D"/>
<path d="M645.296 196.001C645.823 196.037 646.354 196.051 646.877 196.115C652.434 196.799 656.887 199.391 660.148 203.941C662.549 207.247 663.758 211.271 663.577 215.353C663.459 220.04 661.561 224.505 658.269 227.842C658.24 227.858 658.208 227.867 658.175 227.867C658.143 227.867 658.111 227.858 658.082 227.842C653.718 223.486 649.359 219.126 645.005 214.762C644.91 214.659 644.856 214.525 644.851 214.385C644.843 208.257 644.841 202.129 644.844 196L645.296 196.001Z" fill="#2FC8E0"/>
<path d="M624.001 217.295C624.038 217.823 624.051 218.353 624.116 218.877C624.8 224.433 627.392 228.887 631.941 232.147C635.248 234.549 639.271 235.757 643.353 235.576C648.04 235.458 652.505 233.56 655.843 230.268C655.859 230.239 655.867 230.207 655.867 230.175C655.867 230.142 655.859 230.11 655.843 230.081C651.487 225.718 647.126 221.359 642.762 217.004C642.659 216.91 642.525 216.854 642.385 216.85C636.258 216.842 630.129 216.84 624 216.843L624.001 217.295Z" fill="#2FC8E0"/>
<path d="M685.703 279.077C685.176 279.041 684.645 279.028 684.122 278.964C678.565 278.279 674.111 275.688 670.851 271.138C668.45 267.831 667.241 263.808 667.422 259.726C667.54 255.039 669.438 250.574 672.73 247.237C672.759 247.221 672.791 247.213 672.823 247.213C672.856 247.213 672.888 247.221 672.917 247.237C677.28 251.593 681.64 255.953 685.994 260.317C686.089 260.42 686.143 260.554 686.148 260.694C686.156 266.821 686.158 272.95 686.155 279.079L685.703 279.077Z" fill="#2FC8E0"/>
<path d="M706.998 257.783C706.962 257.255 706.949 256.725 706.884 256.202C706.2 250.645 703.608 246.192 699.058 242.931C695.752 240.53 691.728 239.321 687.646 239.502C682.96 239.621 678.494 241.518 675.157 244.81C675.141 244.839 675.133 244.871 675.133 244.904C675.133 244.936 675.141 244.968 675.157 244.997C679.513 249.361 683.873 253.72 688.238 258.074C688.341 258.169 688.474 258.224 688.614 258.229C694.742 258.236 700.87 258.238 707 258.235L706.998 257.783Z" fill="#2FC8E0"/>
<path d="M685.703 196.001C685.176 196.037 684.645 196.051 684.122 196.115C678.565 196.799 674.111 199.391 670.851 203.941C668.45 207.247 667.241 211.271 667.422 215.353C667.54 220.04 669.438 224.505 672.73 227.842C672.759 227.858 672.791 227.867 672.823 227.867C672.856 227.867 672.888 227.858 672.917 227.842C677.28 223.486 681.64 219.126 685.995 214.762C686.089 214.659 686.144 214.525 686.148 214.385C686.156 208.257 686.158 202.129 686.155 196L685.703 196.001Z" fill="#2FC8E0"/>
<path d="M706.998 217.295C706.962 217.823 706.949 218.353 706.884 218.877C706.2 224.433 703.608 228.887 699.058 232.147C695.752 234.549 691.729 235.758 687.646 235.576C682.96 235.458 678.494 233.56 675.157 230.268C675.141 230.239 675.133 230.207 675.133 230.175C675.133 230.142 675.141 230.11 675.157 230.081C679.513 225.718 683.873 221.359 688.238 217.004C688.341 216.909 688.474 216.854 688.614 216.85C694.742 216.842 700.87 216.84 707 216.843L706.998 217.295Z" fill="#2FC8E0"/>
<path d="M645.296 279.077C645.823 279.041 646.354 279.028 646.877 278.964C652.434 278.279 656.887 275.688 660.148 271.138C662.549 267.831 663.758 263.808 663.577 259.726C663.458 255.039 661.561 250.574 658.269 247.237C658.24 247.221 658.208 247.213 658.175 247.213C658.143 247.213 658.111 247.221 658.082 247.237C653.718 251.593 649.359 255.953 645.005 260.317C644.91 260.42 644.856 260.554 644.851 260.694C644.843 266.821 644.841 272.95 644.844 279.079L645.296 279.077Z" fill="#2FC8E0"/>
<path d="M624.001 257.783C624.038 257.255 624.051 256.725 624.116 256.202C624.8 250.645 627.392 246.192 631.941 242.931C635.248 240.53 639.271 239.321 643.354 239.502C648.04 239.621 652.505 241.518 655.843 244.81C655.859 244.839 655.867 244.871 655.867 244.904C655.867 244.936 655.859 244.968 655.843 244.997C651.487 249.361 647.126 253.72 642.762 258.074C642.659 258.169 642.525 258.224 642.385 258.229C636.258 258.236 630.129 258.238 624 258.235L624.001 257.783Z" fill="#2FC8E0"/>
<path fill-rule="evenodd" clip-rule="evenodd" d="M665.928 404.753L665.206 404.555C663.573 404.143 662.076 403.32 660.86 402.166C659.644 401.011 658.751 399.565 658.268 397.967C657.785 396.37 657.729 394.676 658.104 393.051C658.479 391.425 659.273 389.923 660.409 388.692C661.695 387.293 663.356 386.285 665.199 385.783L665.891 385.6L665.891 385.613L667.071 385.369C669.327 384.914 671.44 383.933 673.234 382.506C673.443 382.341 673.656 382.155 673.851 381.987L674.099 381.773L674.127 381.748L674.658 381.225L674.768 381.088C674.868 380.967 674.981 380.835 675.099 380.695C675.386 380.358 675.711 379.977 675.978 379.596C677.817 377.011 678.733 373.893 678.579 370.735C678.426 367.577 677.213 364.56 675.132 362.162C673.134 359.839 670.43 358.22 667.423 357.548C667.341 357.529 667.248 357.51 667.172 357.494C667.14 357.487 667.112 357.481 667.09 357.477L665.908 357.225L665.908 357.27L665.208 357.079C663.575 356.667 662.078 355.844 660.862 354.69C659.646 353.535 658.753 352.089 658.27 350.491C657.787 348.894 657.731 347.2 658.106 345.574C658.481 343.949 659.276 342.447 660.412 341.216C661.697 339.818 663.357 338.81 665.199 338.308L665.913 338.117L665.913 338.055L667.071 337.816C669.326 337.361 671.439 336.38 673.234 334.953C673.443 334.788 673.655 334.602 673.85 334.434L674.099 334.22L674.127 334.196L674.657 333.672L674.767 333.535C674.868 333.414 674.98 333.282 675.098 333.143C675.385 332.806 675.71 332.425 675.978 332.043C677.817 329.458 678.732 326.34 678.579 323.182C678.425 320.025 677.212 317.008 675.131 314.609C673.134 312.286 670.429 310.667 667.423 309.995C667.34 309.976 667.248 309.957 667.172 309.941C667.139 309.934 667.112 309.929 667.089 309.924L665.929 309.677L665.929 309.652L665.207 309.454C663.574 309.042 662.077 308.219 660.861 307.065C659.645 305.91 658.752 304.464 658.269 302.866C657.786 301.269 657.73 299.575 658.105 297.949C658.48 296.324 659.275 294.822 660.411 293.591C661.697 292.193 663.357 291.185 665.199 290.684L665.913 290.493L665.923 289.76C665.926 289.495 665.926 289.228 665.926 288.969L665.926 288.704L665.929 285.912L664.747 286.155C662.492 286.611 660.379 287.592 658.584 289.019C658.378 289.184 658.163 289.37 657.968 289.538C657.88 289.615 657.798 289.687 657.721 289.752L657.691 289.776L657.163 290.3L657.053 290.437L657.051 290.437C656.953 290.559 656.84 290.691 656.722 290.83C656.433 291.167 656.11 291.548 655.839 291.929C654 294.515 653.085 297.633 653.239 300.791C653.393 303.948 654.607 306.965 656.688 309.363C658.686 311.687 661.391 313.306 664.398 313.977C664.481 313.996 664.573 314.016 664.649 314.031L664.732 314.049L665.889 314.295L665.889 314.321L666.609 314.518C668.242 314.93 669.739 315.753 670.955 316.907C672.171 318.062 673.064 319.508 673.547 321.106C674.03 322.703 674.087 324.397 673.711 326.023C673.336 327.648 672.542 329.15 671.406 330.381C670.12 331.779 668.461 332.787 666.619 333.289L665.905 333.48L665.905 333.543L664.748 333.781C662.493 334.237 660.38 335.218 658.585 336.644C658.378 336.81 658.163 336.995 657.969 337.164C657.881 337.24 657.798 337.313 657.722 337.378L657.692 337.402L657.164 337.925L657.054 338.062L657.051 338.062C656.953 338.184 656.841 338.315 656.722 338.455C656.433 338.792 656.11 339.173 655.839 339.555C654.001 342.14 653.086 345.258 653.24 348.416C653.394 351.573 654.607 354.59 656.688 356.989C658.686 359.312 661.391 360.931 664.399 361.603C664.481 361.622 664.573 361.641 664.65 361.657C664.68 361.663 664.708 361.669 664.732 361.674L665.914 361.926L665.914 361.88L666.612 362.071C668.245 362.483 669.742 363.306 670.958 364.461C672.174 365.615 673.067 367.062 673.55 368.659C674.033 370.257 674.089 371.951 673.714 373.576C673.339 375.202 672.544 376.703 671.408 377.935C670.123 379.333 668.464 380.341 666.622 380.843L665.928 381.026L665.928 381.013L664.746 381.256C662.491 381.712 660.378 382.694 658.583 384.12C658.376 384.285 658.162 384.471 657.967 384.639C657.879 384.715 657.796 384.788 657.72 384.853L657.69 384.877L657.162 385.4L657.052 385.538L657.05 385.538C656.951 385.659 656.839 385.791 656.72 385.93C656.432 386.268 656.108 386.648 655.838 387.03C653.999 389.615 653.084 392.734 653.238 395.891C653.392 399.049 654.605 402.066 656.687 404.465C658.684 406.788 661.39 408.407 664.397 409.079C664.479 409.097 664.571 409.117 664.648 409.132L664.73 409.15L665.912 409.401L665.928 404.753ZM663.967 287.346C663.992 287.339 664.017 287.333 664.042 287.326C663.982 287.342 663.92 287.359 663.86 287.377C663.896 287.364 663.932 287.353 663.967 287.343L663.967 287.346ZM658.635 290.251C658.82 290.091 659.006 289.93 659.197 289.777C659.007 289.93 658.82 290.091 658.635 290.251ZM657.025 291.985C657.158 291.821 657.295 291.66 657.433 291.499C657.294 291.66 657.158 291.82 657.025 291.985C656.891 292.15 656.762 292.315 656.64 292.489C656.762 292.313 656.891 292.146 657.025 291.982L657.025 291.985ZM666.869 336.87C666.887 336.866 666.905 336.861 666.923 336.858C666.905 336.858 666.887 336.864 666.869 336.867L666.869 336.87ZM667.851 336.632C667.818 336.641 667.784 336.649 667.751 336.657C667.834 336.635 667.916 336.612 667.997 336.589C667.948 336.601 667.9 336.616 667.851 336.629L667.851 336.632ZM673.181 333.726C672.995 333.887 672.81 334.047 672.619 334.2C672.812 334.048 672.996 333.887 673.181 333.726ZM663.968 334.97C663.992 334.963 664.017 334.957 664.042 334.95C663.982 334.967 663.922 334.983 663.863 335C663.898 334.988 663.932 334.979 663.967 334.968L663.968 334.97ZM677.616 371.441C677.618 370.11 677.417 368.785 677.02 367.513C677.624 369.447 677.772 371.491 677.452 373.49C677.132 375.489 676.354 377.388 675.176 379.042C676.758 376.816 677.61 374.161 677.616 371.439L677.616 371.441ZM667.851 384.184C667.821 384.192 667.791 384.199 667.762 384.207C667.836 384.187 667.909 384.167 667.983 384.145C667.938 384.156 667.895 384.169 667.851 384.18L667.851 384.184ZM672.619 381.753C672.812 381.6 672.997 381.439 673.181 381.278C672.996 381.436 672.812 381.598 672.619 381.753ZM663.968 382.445C663.993 382.438 664.019 382.432 664.044 382.426C663.982 382.442 663.92 382.459 663.858 382.477C663.894 382.464 663.931 382.453 663.967 382.443L663.968 382.445ZM659.199 384.876C659.009 385.029 658.822 385.19 658.638 385.351C658.82 385.188 659.007 385.027 659.197 384.874L659.199 384.876ZM655.866 388.82C654.994 390.387 654.451 392.113 654.27 393.893C654.45 392.112 654.991 390.386 655.863 388.818L655.866 388.82ZM654.204 395.106C654.183 397.448 654.792 399.753 655.969 401.785C654.791 399.753 654.181 397.447 654.201 395.104L654.204 395.106Z" fill="#FED670"/>
<path d="M123.536 143.332C123.536 148.601 121.595 153.143 117.712 156.956C113.829 160.769 109.08 162.676 103.464 162.676C97.5707 162.676 92.6133 160.752 88.592 156.904C84.5707 153.056 82.56 148.324 82.56 142.708C82.56 137.196 84.5187 132.516 88.436 128.668C92.388 124.82 97.172 122.896 102.788 122.896C106.983 122.896 110.848 124.023 114.384 126.276C117.92 128.529 120.312 131.389 121.56 134.856H113.188C110.761 131.459 107.243 129.76 102.632 129.76C98.888 129.76 95.8027 131.025 93.376 133.556C90.9493 136.052 89.736 139.137 89.736 142.812C89.736 146.487 91.0013 149.572 93.532 152.068C96.0973 154.564 99.2693 155.812 103.048 155.812C105.579 155.812 107.832 155.223 109.808 154.044C111.784 152.865 113.292 151.201 114.332 149.052H98.42V142.396H123.536V143.332ZM155.248 148.012C155.248 148.948 155.161 149.832 154.988 150.664H132.68C133.096 152.397 134.015 153.784 135.436 154.824C136.857 155.829 138.591 156.332 140.636 156.332C142.057 156.332 143.236 156.124 144.172 155.708C145.143 155.257 146.079 154.512 146.98 153.472H154.52C153.584 156.315 151.816 158.568 149.216 160.232C146.651 161.861 143.843 162.676 140.792 162.676C136.389 162.676 132.68 161.237 129.664 158.36C126.683 155.483 125.192 151.929 125.192 147.7C125.192 143.471 126.665 139.883 129.612 136.936C132.559 133.989 136.147 132.516 140.376 132.516C144.675 132.516 148.228 133.989 151.036 136.936C153.844 139.848 155.248 143.54 155.248 148.012ZM148.436 144.58C147.985 142.743 147.067 141.339 145.68 140.368C144.328 139.363 142.595 138.86 140.48 138.86C136.285 138.86 133.616 140.767 132.472 144.58H148.436ZM170.778 139.484H166.618V162H159.702V139.484H156.322V133.192H159.702V123.572H166.618V133.192H170.778V139.484ZM209.574 150.352C209.574 153.819 208.395 156.748 206.038 159.14C203.68 161.497 200.768 162.676 197.302 162.676C193.87 162.676 190.975 161.636 188.618 159.556C186.295 157.441 184.978 154.599 184.666 151.028H192.102C192.414 154.217 194.147 155.812 197.302 155.812C198.827 155.812 200.075 155.379 201.046 154.512C202.016 153.645 202.502 152.519 202.502 151.132C202.502 149.433 201.912 148.133 200.734 147.232C200.179 146.816 199.59 146.469 198.966 146.192C198.342 145.915 196.712 145.273 194.078 144.268C191.512 143.297 189.536 141.928 188.15 140.16C186.763 138.357 186.07 136.243 186.07 133.816C186.07 130.765 187.162 128.183 189.346 126.068C191.53 123.953 194.164 122.896 197.25 122.896C200.404 122.896 203.039 123.884 205.154 125.86C207.303 127.836 208.464 130.488 208.638 133.816H201.254C201.15 132.499 200.751 131.493 200.058 130.8C199.364 130.107 198.411 129.76 197.198 129.76C196.019 129.76 195.066 130.124 194.338 130.852C193.61 131.58 193.246 132.516 193.246 133.66C193.246 135.081 193.956 136.243 195.378 137.144C195.759 137.387 197.18 137.959 199.642 138.86C203.386 140.247 205.968 141.824 207.39 143.592C208.846 145.36 209.574 147.613 209.574 150.352ZM225.345 139.484H221.185V162H214.269V139.484H210.889V133.192H214.269V123.572H221.185V133.192H225.345V139.484ZM256.443 162H250.099V158.256C248.712 159.816 247.274 160.943 245.783 161.636C244.292 162.329 242.542 162.676 240.531 162.676C236.336 162.676 232.87 161.272 230.131 158.464C227.392 155.621 226.023 152.033 226.023 147.7C226.023 143.297 227.392 139.675 230.131 136.832C232.904 133.955 236.423 132.516 240.687 132.516C244.674 132.516 247.811 134.024 250.099 137.04V133.192H256.443V162ZM249.891 147.804C249.891 145.169 249.094 143.02 247.499 141.356C245.904 139.692 243.876 138.86 241.415 138.86C238.954 138.86 236.926 139.709 235.331 141.408C233.771 143.072 232.991 145.221 232.991 147.856C232.991 150.387 233.771 152.432 235.331 153.992C236.926 155.552 238.988 156.332 241.519 156.332C244.084 156.332 246.112 155.535 247.603 153.94C249.128 152.311 249.891 150.265 249.891 147.804ZM273.663 139.172C269.538 139.276 267.475 141.547 267.475 145.984V162H260.559V133.192H266.903V136C267.805 134.683 268.689 133.781 269.555 133.296C270.457 132.776 271.653 132.516 273.143 132.516H273.663V139.172ZM289.053 139.484H284.893V162H277.977V139.484H274.597V133.192H277.977V123.572H284.893V133.192H289.053V139.484ZM319.787 148.012C319.787 148.948 319.701 149.832 319.527 150.664H297.219C297.635 152.397 298.554 153.784 299.975 154.824C301.397 155.829 303.13 156.332 305.175 156.332C306.597 156.332 307.775 156.124 308.711 155.708C309.682 155.257 310.618 154.512 311.519 153.472H319.059C318.123 156.315 316.355 158.568 313.755 160.232C311.19 161.861 308.382 162.676 305.331 162.676C300.929 162.676 297.219 161.237 294.203 158.36C291.222 155.483 289.731 151.929 289.731 147.7C289.731 143.471 291.205 139.883 294.151 136.936C297.098 133.989 300.686 132.516 304.915 132.516C309.214 132.516 312.767 133.989 315.575 136.936C318.383 139.848 319.787 143.54 319.787 148.012ZM312.975 144.58C312.525 142.743 311.606 141.339 310.219 140.368C308.867 139.363 307.134 138.86 305.019 138.86C300.825 138.86 298.155 140.767 297.011 144.58H312.975ZM352.269 162H345.925V158.256C343.325 161.203 340.153 162.676 336.409 162.676C332.318 162.676 328.886 161.22 326.113 158.308C323.34 155.396 321.953 151.808 321.953 147.544C321.953 143.245 323.34 139.605 326.113 136.624C328.921 133.643 332.336 132.152 336.357 132.152C340.17 132.152 343.169 133.348 345.353 135.74V123.572H352.269V162ZM345.873 147.44C345.873 144.909 345.058 142.795 343.429 141.096C341.8 139.363 339.772 138.496 337.345 138.496C334.988 138.496 332.994 139.345 331.365 141.044C329.736 142.708 328.921 144.771 328.921 147.232C328.921 149.797 329.736 151.964 331.365 153.732C333.029 155.465 335.074 156.332 337.501 156.332C339.858 156.332 341.834 155.483 343.429 153.784C345.058 152.051 345.873 149.936 345.873 147.44ZM399.195 162H392.851V158.256C391.465 159.816 390.026 160.943 388.535 161.636C387.045 162.329 385.294 162.676 383.283 162.676C379.089 162.676 375.622 161.272 372.883 158.464C370.145 155.621 368.775 152.033 368.775 147.7C368.775 143.297 370.145 139.675 372.883 136.832C375.657 133.955 379.175 132.516 383.439 132.516C387.426 132.516 390.563 134.024 392.851 137.04V133.192H399.195V162ZM392.643 147.804C392.643 145.169 391.846 143.02 390.251 141.356C388.657 139.692 386.629 138.86 384.167 138.86C381.706 138.86 379.678 139.709 378.083 141.408C376.523 143.072 375.743 145.221 375.743 147.856C375.743 150.387 376.523 152.432 378.083 153.992C379.678 155.552 381.741 156.332 384.271 156.332C386.837 156.332 388.865 155.535 390.355 153.94C391.881 152.311 392.643 150.265 392.643 147.804ZM422.343 152.848C422.343 155.587 421.338 157.909 419.327 159.816C417.351 161.723 414.925 162.676 412.047 162.676C409.101 162.676 406.691 161.861 404.819 160.232C402.947 158.568 401.838 156.107 401.491 152.848H408.459C408.806 154.061 409.274 154.945 409.863 155.5C410.487 156.055 411.302 156.332 412.307 156.332C413.209 156.332 413.954 156.072 414.543 155.552C415.133 154.997 415.427 154.321 415.427 153.524C415.427 152.657 415.167 152.016 414.647 151.6C414.127 151.184 412.758 150.595 410.539 149.832C407.662 148.861 405.599 147.735 404.351 146.452C403.138 145.135 402.531 143.419 402.531 141.304C402.531 138.843 403.45 136.763 405.287 135.064C407.159 133.365 409.43 132.516 412.099 132.516C414.63 132.516 416.797 133.296 418.599 134.856C420.437 136.416 421.425 138.513 421.563 141.148H414.803C414.491 139.623 413.59 138.86 412.099 138.86C411.337 138.86 410.695 139.103 410.175 139.588C409.69 140.039 409.447 140.611 409.447 141.304C409.447 142.067 409.673 142.587 410.123 142.864C410.574 143.141 411.978 143.661 414.335 144.424C417.317 145.36 419.397 146.469 420.575 147.752C421.754 149 422.343 150.699 422.343 152.848ZM470.22 142.864C470.22 146.747 469.388 150.196 467.724 153.212C466.06 156.193 463.755 158.412 460.808 159.868C457.965 161.289 453.823 162 448.38 162H439.436V123.572H448.224C454.256 123.572 458.797 124.491 461.848 126.328C464.517 127.923 466.58 130.176 468.036 133.088C469.492 135.965 470.22 139.224 470.22 142.864ZM463.044 142.864C463.044 140.403 462.524 138.201 461.484 136.26C460.444 134.319 459.005 132.88 457.168 131.944C455.123 130.904 452.055 130.384 447.964 130.384H446.56V155.188H448.12C452.315 155.188 455.435 154.616 457.48 153.472C459.179 152.536 460.531 151.115 461.536 149.208C462.541 147.301 463.044 145.187 463.044 142.864ZM503.458 147.804C503.458 151.86 501.95 155.361 498.934 158.308C495.918 161.22 492.313 162.676 488.118 162.676C483.889 162.676 480.283 161.203 477.302 158.256C474.321 155.309 472.83 151.756 472.83 147.596C472.83 143.471 474.321 139.935 477.302 136.988C480.283 134.007 483.871 132.516 488.066 132.516C492.399 132.516 496.039 133.989 498.986 136.936C501.967 139.883 503.458 143.505 503.458 147.804ZM496.49 147.596C496.49 145.204 495.675 143.159 494.046 141.46C492.417 139.727 490.441 138.86 488.118 138.86C485.865 138.86 483.906 139.709 482.242 141.408C480.613 143.107 479.798 145.135 479.798 147.492C479.798 149.953 480.613 152.051 482.242 153.784C483.871 155.483 485.847 156.332 488.17 156.332C490.458 156.332 492.417 155.483 494.046 153.784C495.675 152.085 496.49 150.023 496.49 147.596ZM531.884 162H524.968V147.908C524.968 144.303 524.517 141.893 523.616 140.68C522.749 139.467 521.363 138.86 519.456 138.86C517.168 138.86 515.469 139.744 514.36 141.512C513.597 142.725 513.216 145.031 513.216 148.428V162H506.3V133.192H512.696V135.948C515.088 133.66 517.792 132.516 520.808 132.516C524.899 132.516 527.897 133.903 529.804 136.676C530.567 137.785 531.104 139.068 531.416 140.524C531.728 141.98 531.884 143.991 531.884 146.556V162ZM565.82 147.804C565.82 151.86 564.312 155.361 561.296 158.308C558.28 161.22 554.674 162.676 550.48 162.676C546.25 162.676 542.645 161.203 539.664 158.256C536.682 155.309 535.192 151.756 535.192 147.596C535.192 143.471 536.682 139.935 539.664 136.988C542.645 134.007 546.233 132.516 550.428 132.516C554.761 132.516 558.401 133.989 561.348 136.936C564.329 139.883 565.82 143.505 565.82 147.804ZM558.852 147.596C558.852 145.204 558.037 143.159 556.408 141.46C554.778 139.727 552.802 138.86 550.48 138.86C548.226 138.86 546.268 139.709 544.604 141.408C542.974 143.107 542.16 145.135 542.16 147.492C542.16 149.953 542.974 152.051 544.604 153.784C546.233 155.483 548.209 156.332 550.532 156.332C552.82 156.332 554.778 155.483 556.408 153.784C558.037 152.085 558.852 150.023 558.852 147.596ZM581.765 139.172C577.64 139.276 575.577 141.547 575.577 145.984V162H568.661V133.192H575.005V136C575.907 134.683 576.791 133.781 577.657 133.296C578.559 132.776 579.755 132.516 581.245 132.516H581.765V139.172Z" fill="white"/>
<path d="M103.4 215.256C103.4 218.819 102.248 221.667 99.944 223.8C97.64 225.933 94.2587 227 89.8 227H83.432V203.352H89C91.1547 203.352 92.9147 203.501 94.28 203.8C95.6667 204.077 96.9147 204.547 98.024 205.208C101.608 207.32 103.4 210.669 103.4 215.256ZM101 215.16C101 213.389 100.627 211.8 99.88 210.392C99.1333 208.963 98.0773 207.843 96.712 207.032C95.0267 206.008 92.488 205.496 89.096 205.496H85.8V224.856H89.096C91.1867 224.856 92.8933 224.696 94.216 224.376C95.5387 224.035 96.6693 223.491 97.608 222.744C99.8693 220.909 101 218.381 101 215.16ZM124.109 218.296C124.109 220.92 123.266 223.096 121.581 224.824C119.895 226.552 117.773 227.416 115.213 227.416C112.503 227.416 110.263 226.541 108.493 224.792C106.722 223.043 105.837 220.824 105.837 218.136C105.837 215.576 106.711 213.432 108.461 211.704C110.231 209.955 112.418 209.08 115.021 209.08C117.645 209.08 119.81 209.955 121.517 211.704C123.245 213.432 124.109 215.629 124.109 218.296ZM121.709 218.328C121.709 216.301 121.069 214.616 119.789 213.272C118.53 211.928 116.941 211.256 115.021 211.256C113.079 211.256 111.458 211.917 110.157 213.24C108.877 214.563 108.237 216.216 108.237 218.2C108.237 220.248 108.887 221.933 110.189 223.256C111.49 224.579 113.143 225.24 115.149 225.24C117.047 225.24 118.615 224.589 119.853 223.288C121.09 221.987 121.709 220.333 121.709 218.328ZM142.645 227H140.277V217.816C140.277 213.443 138.475 211.256 134.869 211.256C133.205 211.256 131.893 211.757 130.933 212.76C129.995 213.763 129.525 215.299 129.525 217.368V227H127.157V209.496H129.525V211.768C130.997 209.976 132.875 209.08 135.157 209.08C137.461 209.08 139.285 209.805 140.629 211.256C141.973 212.685 142.645 214.872 142.645 217.816V227ZM164.193 227H161.825V223.928C160.886 225.187 159.894 226.083 158.849 226.616C157.825 227.149 156.566 227.416 155.073 227.416C152.385 227.416 150.145 226.552 148.353 224.824C146.582 223.075 145.697 220.899 145.697 218.296C145.697 215.672 146.571 213.485 148.321 211.736C150.091 209.965 152.289 209.08 154.913 209.08C157.857 209.08 160.161 210.253 161.825 212.6V209.496H164.193V227ZM161.825 218.168C161.825 216.227 161.163 214.595 159.841 213.272C158.518 211.928 156.897 211.256 154.977 211.256C153.078 211.256 151.457 211.928 150.113 213.272C148.769 214.616 148.097 216.237 148.097 218.136C148.097 220.141 148.769 221.827 150.113 223.192C151.457 224.557 153.121 225.24 155.105 225.24C156.982 225.24 158.571 224.557 159.873 223.192C161.174 221.827 161.825 220.152 161.825 218.168ZM176.34 211.64H172.404V227H170.036V211.64H166.26V209.496H170.036V203.352H172.404V209.496H176.34V211.64ZM195.14 219.032H179.3C179.385 220.76 180.089 222.232 181.412 223.448C182.756 224.643 184.324 225.24 186.116 225.24C187.438 225.24 188.665 224.877 189.796 224.152C190.926 223.405 191.737 222.435 192.228 221.24H194.692C194.116 222.968 193.028 224.429 191.428 225.624C189.849 226.819 188.1 227.416 186.18 227.416C183.598 227.416 181.412 226.531 179.62 224.76C177.828 222.968 176.932 220.771 176.932 218.168C176.932 215.629 177.806 213.485 179.556 211.736C181.326 209.965 183.481 209.08 186.02 209.08C188.665 209.08 190.841 209.987 192.548 211.8C194.276 213.592 195.14 216.003 195.14 219.032ZM192.772 216.888C192.366 215.139 191.556 213.763 190.34 212.76C189.145 211.757 187.694 211.256 185.988 211.256C184.324 211.256 182.884 211.779 181.668 212.824C180.452 213.848 179.684 215.203 179.364 216.888H192.772ZM215.099 211.64H211.163V227H208.795V211.64H205.019V209.496H208.795V203.352H211.163V209.496H215.099V211.64ZM233.962 218.296C233.962 220.92 233.12 223.096 231.434 224.824C229.749 226.552 227.626 227.416 225.066 227.416C222.357 227.416 220.117 226.541 218.346 224.792C216.576 223.043 215.69 220.824 215.69 218.136C215.69 215.576 216.565 213.432 218.314 211.704C220.085 209.955 222.272 209.08 224.874 209.08C227.498 209.08 229.664 209.955 231.37 211.704C233.098 213.432 233.962 215.629 233.962 218.296ZM231.562 218.328C231.562 216.301 230.922 214.616 229.642 213.272C228.384 211.928 226.794 211.256 224.874 211.256C222.933 211.256 221.312 211.917 220.01 213.24C218.73 214.563 218.09 216.216 218.09 218.2C218.09 220.248 218.741 221.933 220.042 223.256C221.344 224.579 222.997 225.24 225.002 225.24C226.901 225.24 228.469 224.589 229.706 223.288C230.944 221.987 231.562 220.333 231.562 218.328ZM264.03 218.296C264.03 220.856 263.134 223.021 261.342 224.792C259.55 226.541 257.353 227.416 254.75 227.416C251.763 227.416 249.491 226.275 247.934 223.992V233.144H245.566V209.496H247.934V212.504C249.449 210.221 251.742 209.08 254.814 209.08C257.417 209.08 259.603 209.965 261.374 211.736C263.145 213.507 264.03 215.693 264.03 218.296ZM261.63 218.296C261.63 216.291 260.969 214.616 259.646 213.272C258.323 211.928 256.681 211.256 254.718 211.256C252.777 211.256 251.134 211.928 249.79 213.272C248.446 214.595 247.774 216.227 247.774 218.168C247.774 220.195 248.435 221.88 249.758 223.224C251.081 224.568 252.745 225.24 254.75 225.24C256.691 225.24 258.323 224.579 259.646 223.256C260.969 221.912 261.63 220.259 261.63 218.296ZM274.386 211.416C271.08 211.736 269.426 213.528 269.426 216.792V227H267.058V209.496H269.426V211.992C269.896 211.032 270.525 210.328 271.314 209.88C272.104 209.411 273.128 209.144 274.386 209.08V211.416ZM292.995 218.296C292.995 220.92 292.152 223.096 290.467 224.824C288.781 226.552 286.659 227.416 284.099 227.416C281.389 227.416 279.149 226.541 277.379 224.792C275.608 223.043 274.723 220.824 274.723 218.136C274.723 215.576 275.597 213.432 277.347 211.704C279.117 209.955 281.304 209.08 283.907 209.08C286.531 209.08 288.696 209.955 290.403 211.704C292.131 213.432 292.995 215.629 292.995 218.296ZM290.595 218.328C290.595 216.301 289.955 214.616 288.675 213.272C287.416 211.928 285.827 211.256 283.907 211.256C281.965 211.256 280.344 211.917 279.043 213.24C277.763 214.563 277.123 216.216 277.123 218.2C277.123 220.248 277.773 221.933 279.075 223.256C280.376 224.579 282.029 225.24 284.035 225.24C285.933 225.24 287.501 224.589 288.739 223.288C289.976 221.987 290.595 220.333 290.595 218.328ZM298.507 225.784C298.507 228.28 298.017 230.104 297.035 231.256C296.075 232.429 294.593 233.059 292.587 233.144V230.872C293.91 230.787 294.827 230.371 295.339 229.624C295.873 228.877 296.139 227.597 296.139 225.784V209.496H298.507V225.784ZM298.507 207.576H296.139V203.544H298.507V207.576ZM319.76 219.032H303.92C304.005 220.76 304.709 222.232 306.032 223.448C307.376 224.643 308.944 225.24 310.736 225.24C312.058 225.24 313.285 224.877 314.416 224.152C315.546 223.405 316.357 222.435 316.848 221.24H319.312C318.736 222.968 317.648 224.429 316.048 225.624C314.469 226.819 312.72 227.416 310.8 227.416C308.218 227.416 306.032 226.531 304.24 224.76C302.448 222.968 301.552 220.771 301.552 218.168C301.552 215.629 302.426 213.485 304.176 211.736C305.946 209.965 308.101 209.08 310.64 209.08C313.285 209.08 315.461 209.987 317.168 211.8C318.896 213.592 319.76 216.003 319.76 219.032ZM317.392 216.888C316.986 215.139 316.176 213.763 314.96 212.76C313.765 211.757 312.314 211.256 310.608 211.256C308.944 211.256 307.504 211.779 306.288 212.824C305.072 213.848 304.304 215.203 303.984 216.888H317.392ZM340.156 221.848C338.193 225.56 335.335 227.416 331.58 227.416C328.892 227.416 326.631 226.531 324.796 224.76C322.961 222.989 322.044 220.803 322.044 218.2C322.044 215.661 322.951 213.507 324.764 211.736C326.577 209.965 328.796 209.08 331.42 209.08C333.383 209.08 335.143 209.603 336.7 210.648C338.279 211.672 339.42 213.059 340.124 214.808H337.468C336.081 212.44 334.055 211.256 331.388 211.256C329.447 211.256 327.804 211.939 326.46 213.304C325.116 214.648 324.444 216.301 324.444 218.264C324.444 220.205 325.127 221.859 326.492 223.224C327.857 224.568 329.521 225.24 331.484 225.24C332.721 225.24 333.799 224.984 334.716 224.472C335.633 223.939 336.551 223.064 337.468 221.848H340.156ZM351.563 211.64H347.627V227H345.259V211.64H341.483V209.496H345.259V203.352H347.627V209.496H351.563V211.64ZM363.174 221.976C363.174 223.576 362.673 224.888 361.67 225.912C360.689 226.915 359.409 227.416 357.83 227.416C356.145 227.416 354.78 226.915 353.734 225.912C352.71 224.888 352.198 223.533 352.198 221.848H354.534C354.534 222.893 354.833 223.725 355.43 224.344C356.049 224.941 356.849 225.24 357.83 225.24C358.684 225.24 359.388 224.952 359.942 224.376C360.497 223.8 360.774 223.075 360.774 222.2C360.774 221.347 360.54 220.707 360.07 220.28C359.622 219.853 358.726 219.373 357.382 218.84C356.145 218.349 355.377 218.029 355.078 217.88C354.801 217.731 354.492 217.485 354.15 217.144C353.276 216.333 352.838 215.288 352.838 214.008C352.838 212.579 353.308 211.405 354.246 210.488C355.185 209.549 356.369 209.08 357.798 209.08C359.228 209.08 360.401 209.528 361.318 210.424C362.257 211.299 362.726 212.429 362.726 213.816H360.326C360.326 213.005 360.092 212.376 359.622 211.928C359.174 211.48 358.556 211.256 357.766 211.256C357.062 211.256 356.465 211.501 355.974 211.992C355.484 212.483 355.238 213.08 355.238 213.784C355.238 214.787 355.772 215.555 356.838 216.088C357.265 216.301 358.364 216.771 360.134 217.496C362.161 218.349 363.174 219.843 363.174 221.976ZM395.784 225.784L394.152 227.416L388.68 222.104C387.741 223.96 386.706 225.315 385.576 226.168C384.445 227 383.101 227.416 381.544 227.416C379.41 227.416 377.629 226.723 376.2 225.336C374.792 223.928 374.088 222.211 374.088 220.184C374.088 218.627 374.514 217.315 375.368 216.248C376.242 215.16 377.629 214.125 379.528 213.144C378.546 212.12 377.864 211.245 377.48 210.52C377.096 209.773 376.904 208.995 376.904 208.184C376.904 206.712 377.448 205.475 378.536 204.472C379.624 203.448 380.946 202.936 382.504 202.936C384.146 202.936 385.501 203.448 386.568 204.472C387.656 205.496 388.2 206.787 388.2 208.344C388.2 209.603 387.88 210.605 387.24 211.352C386.621 212.099 385.405 212.931 383.592 213.848L388.072 218.264L391.528 211.608H394.152L389.8 219.96L395.784 225.784ZM386.92 220.408L381.224 214.84C379.474 215.693 378.237 216.547 377.512 217.4C376.786 218.232 376.424 219.245 376.424 220.44C376.424 221.784 376.904 222.925 377.864 223.864C378.824 224.803 379.997 225.272 381.384 225.272C382.514 225.272 383.506 224.899 384.36 224.152C385.213 223.405 386.066 222.157 386.92 220.408ZM385.96 208.152C385.96 207.277 385.629 206.552 384.968 205.976C384.328 205.379 383.528 205.08 382.568 205.08C381.65 205.08 380.872 205.379 380.232 205.976C379.592 206.552 379.272 207.267 379.272 208.12C379.272 209.229 380.136 210.573 381.864 212.152C383.272 211.619 384.306 211.032 384.968 210.392C385.629 209.731 385.96 208.984 385.96 208.152ZM424.269 219.032H408.429C408.515 220.76 409.219 222.232 410.541 223.448C411.885 224.643 413.453 225.24 415.245 225.24C416.568 225.24 417.795 224.877 418.925 224.152C420.056 223.405 420.867 222.435 421.358 221.24H423.821C423.245 222.968 422.158 224.429 420.557 225.624C418.979 226.819 417.229 227.416 415.309 227.416C412.728 227.416 410.541 226.531 408.749 224.76C406.957 222.968 406.061 220.771 406.061 218.168C406.061 215.629 406.936 213.485 408.685 211.736C410.456 209.965 412.611 209.08 415.149 209.08C417.795 209.08 419.971 209.987 421.677 211.8C423.405 213.592 424.269 216.003 424.269 219.032ZM421.901 216.888C421.496 215.139 420.685 213.763 419.469 212.76C418.275 211.757 416.824 211.256 415.117 211.256C413.453 211.256 412.013 211.779 410.797 212.824C409.581 213.848 408.813 215.203 408.493 216.888H421.901ZM439.689 227H436.969L432.265 219.992L427.529 227H424.841L430.921 218.072L424.841 209.496H427.529L432.265 216.248L436.969 209.496H439.689L433.577 218.072L439.689 227ZM460.12 218.296C460.12 220.856 459.224 223.021 457.432 224.792C455.64 226.541 453.443 227.416 450.84 227.416C447.853 227.416 445.581 226.275 444.024 223.992V233.144H441.656V209.496H444.024V212.504C445.539 210.221 447.832 209.08 450.904 209.08C453.507 209.08 455.693 209.965 457.464 211.736C459.235 213.507 460.12 215.693 460.12 218.296ZM457.72 218.296C457.72 216.291 457.059 214.616 455.736 213.272C454.413 211.928 452.771 211.256 450.808 211.256C448.867 211.256 447.224 211.928 445.88 213.272C444.536 214.595 443.864 216.227 443.864 218.168C443.864 220.195 444.525 221.88 445.848 223.224C447.171 224.568 448.835 225.24 450.84 225.24C452.781 225.24 454.413 224.579 455.736 223.256C457.059 221.912 457.72 220.259 457.72 218.296ZM465.517 227H463.149V203.352H465.517V227ZM486.835 218.296C486.835 220.92 485.992 223.096 484.307 224.824C482.621 226.552 480.499 227.416 477.939 227.416C475.229 227.416 472.989 226.541 471.219 224.792C469.448 223.043 468.563 220.824 468.563 218.136C468.563 215.576 469.437 213.432 471.187 211.704C472.957 209.955 475.144 209.08 477.747 209.08C480.371 209.08 482.536 209.955 484.243 211.704C485.971 213.432 486.835 215.629 486.835 218.296ZM484.435 218.328C484.435 216.301 483.795 214.616 482.515 213.272C481.256 211.928 479.667 211.256 477.747 211.256C475.805 211.256 474.184 211.917 472.883 213.24C471.603 214.563 470.963 216.216 470.963 218.2C470.963 220.248 471.613 221.933 472.915 223.256C474.216 224.579 475.869 225.24 477.875 225.24C479.773 225.24 481.341 224.589 482.579 223.288C483.816 221.987 484.435 220.333 484.435 218.328ZM497.211 211.416C493.905 211.736 492.251 213.528 492.251 216.792V227H489.883V209.496H492.251V211.992C492.721 211.032 493.35 210.328 494.139 209.88C494.929 209.411 495.953 209.144 497.211 209.08V211.416ZM515.756 219.032H499.916C500.001 220.76 500.705 222.232 502.028 223.448C503.372 224.643 504.94 225.24 506.732 225.24C508.054 225.24 509.281 224.877 510.412 224.152C511.542 223.405 512.353 222.435 512.844 221.24H515.308C514.732 222.968 513.644 224.429 512.044 225.624C510.465 226.819 508.716 227.416 506.796 227.416C504.214 227.416 502.028 226.531 500.236 224.76C498.444 222.968 497.548 220.771 497.548 218.168C497.548 215.629 498.422 213.485 500.172 211.736C501.942 209.965 504.097 209.08 506.636 209.08C509.281 209.08 511.457 209.987 513.164 211.8C514.892 213.592 515.756 216.003 515.756 219.032ZM513.388 216.888C512.982 215.139 512.172 213.763 510.956 212.76C509.761 211.757 508.31 211.256 506.604 211.256C504.94 211.256 503.5 211.779 502.284 212.824C501.068 213.848 500.3 215.203 499.98 216.888H513.388ZM100.904 274H98.536V270.832C97.6613 272.091 96.6907 273.008 95.624 273.584C94.5787 274.139 93.3307 274.416 91.88 274.416C89.1707 274.416 86.8987 273.541 85.064 271.792C83.2507 270.043 82.344 267.867 82.344 265.264C82.344 262.661 83.2293 260.485 85 258.736C86.792 256.965 89.0107 256.08 91.656 256.08C94.472 256.08 96.7653 257.147 98.536 259.28V250.352H100.904V274ZM96.616 270.16C97.96 268.773 98.632 267.12 98.632 265.2C98.632 263.28 97.9387 261.648 96.552 260.304C95.1867 258.939 93.5333 258.256 91.592 258.256C89.6933 258.256 88.072 258.928 86.728 260.272C85.4053 261.616 84.744 263.248 84.744 265.168C84.744 267.173 85.416 268.859 86.76 270.224C88.1253 271.568 89.8107 272.24 91.816 272.24C93.6933 272.24 95.2933 271.547 96.616 270.16ZM122.202 265.296C122.202 267.92 121.36 270.096 119.674 271.824C117.989 273.552 115.866 274.416 113.306 274.416C110.597 274.416 108.357 273.541 106.586 271.792C104.816 270.043 103.93 267.824 103.93 265.136C103.93 262.576 104.805 260.432 106.554 258.704C108.325 256.955 110.512 256.08 113.114 256.08C115.738 256.08 117.904 256.955 119.61 258.704C121.338 260.432 122.202 262.629 122.202 265.296ZM119.802 265.328C119.802 263.301 119.162 261.616 117.882 260.272C116.624 258.928 115.034 258.256 113.114 258.256C111.173 258.256 109.552 258.917 108.25 260.24C106.97 261.563 106.33 263.216 106.33 265.2C106.33 267.248 106.981 268.933 108.282 270.256C109.584 271.579 111.237 272.24 113.242 272.24C115.141 272.24 116.709 271.589 117.946 270.288C119.184 268.987 119.802 267.333 119.802 265.328ZM140.739 274H138.371V264.816C138.371 260.443 136.568 258.256 132.963 258.256C131.299 258.256 129.987 258.757 129.027 259.76C128.088 260.763 127.619 262.299 127.619 264.368V274H125.251V256.496H127.619V258.768C129.091 256.976 130.968 256.08 133.251 256.08C135.555 256.08 137.379 256.805 138.723 258.256C140.067 259.685 140.739 261.872 140.739 264.816V274ZM162.286 274H159.918V270.928C158.98 272.187 157.988 273.083 156.942 273.616C155.918 274.149 154.66 274.416 153.166 274.416C150.478 274.416 148.238 273.552 146.446 271.824C144.676 270.075 143.79 267.899 143.79 265.296C143.79 262.672 144.665 260.485 146.414 258.736C148.185 256.965 150.382 256.08 153.006 256.08C155.95 256.08 158.254 257.253 159.918 259.6V256.496H162.286V274ZM159.918 265.168C159.918 263.227 159.257 261.595 157.934 260.272C156.612 258.928 154.99 258.256 153.07 258.256C151.172 258.256 149.55 258.928 148.206 260.272C146.862 261.616 146.19 263.237 146.19 265.136C146.19 267.141 146.862 268.827 148.206 270.192C149.55 271.557 151.214 272.24 153.198 272.24C155.076 272.24 156.665 271.557 157.966 270.192C159.268 268.827 159.918 267.152 159.918 265.168ZM174.434 258.64H170.498V274H168.13V258.64H164.354V256.496H168.13V250.352H170.498V256.496H174.434V258.64ZM178.878 274H176.51V256.496H178.878V274ZM178.878 254.576H176.51V250.544H178.878V254.576ZM200.196 265.296C200.196 267.92 199.353 270.096 197.668 271.824C195.983 273.552 193.86 274.416 191.3 274.416C188.591 274.416 186.351 273.541 184.58 271.792C182.809 270.043 181.924 267.824 181.924 265.136C181.924 262.576 182.799 260.432 184.548 258.704C186.319 256.955 188.505 256.08 191.108 256.08C193.732 256.08 195.897 256.955 197.604 258.704C199.332 260.432 200.196 262.629 200.196 265.296ZM197.796 265.328C197.796 263.301 197.156 261.616 195.876 260.272C194.617 258.928 193.028 258.256 191.108 258.256C189.167 258.256 187.545 258.917 186.244 260.24C184.964 261.563 184.324 263.216 184.324 265.2C184.324 267.248 184.975 268.933 186.276 270.256C187.577 271.579 189.231 272.24 191.236 272.24C193.135 272.24 194.703 271.589 195.94 270.288C197.177 268.987 197.796 267.333 197.796 265.328ZM218.733 274H216.365V264.816C216.365 260.443 214.562 258.256 210.957 258.256C209.293 258.256 207.981 258.757 207.021 259.76C206.082 260.763 205.613 262.299 205.613 264.368V274H203.245V256.496H205.613V258.768C207.085 256.976 208.962 256.08 211.245 256.08C213.549 256.08 215.373 256.805 216.717 258.256C218.061 259.685 218.733 261.872 218.733 264.816V274ZM249.475 265.232C249.475 267.856 248.59 270.043 246.819 271.792C245.07 273.541 242.872 274.416 240.227 274.416C238.798 274.416 237.486 274.117 236.291 273.52C235.096 272.923 234.126 272.08 233.379 270.992V274H231.011V250.352H233.379V259.504C234.936 257.221 237.23 256.08 240.259 256.08C242.862 256.08 245.048 256.965 246.819 258.736C248.59 260.485 249.475 262.651 249.475 265.232ZM247.075 265.168C247.075 263.205 246.414 261.563 245.091 260.24C243.79 258.917 242.158 258.256 240.195 258.256C238.232 258.256 236.579 258.928 235.235 260.272C233.891 261.595 233.219 263.227 233.219 265.168C233.219 267.109 233.891 268.773 235.235 270.16C236.6 271.547 238.243 272.24 240.163 272.24C242.126 272.24 243.768 271.568 245.091 270.224C246.414 268.859 247.075 267.173 247.075 265.168ZM270.04 266.032H254.2C254.285 267.76 254.989 269.232 256.312 270.448C257.656 271.643 259.224 272.24 261.016 272.24C262.338 272.24 263.565 271.877 264.696 271.152C265.826 270.405 266.637 269.435 267.128 268.24H269.592C269.016 269.968 267.928 271.429 266.328 272.624C264.749 273.819 263 274.416 261.08 274.416C258.498 274.416 256.312 273.531 254.52 271.76C252.728 269.968 251.832 267.771 251.832 265.168C251.832 262.629 252.706 260.485 254.456 258.736C256.226 256.965 258.381 256.08 260.92 256.08C263.565 256.08 265.741 256.987 267.448 258.8C269.176 260.592 270.04 263.003 270.04 266.032ZM267.672 263.888C267.266 262.139 266.456 260.763 265.24 259.76C264.045 258.757 262.594 258.256 260.888 258.256C259.224 258.256 257.784 258.779 256.568 259.824C255.352 260.848 254.584 262.203 254.264 263.888H267.672ZM288.484 274H286.116V264.816C286.116 260.443 284.313 258.256 280.708 258.256C279.044 258.256 277.732 258.757 276.772 259.76C275.833 260.763 275.364 262.299 275.364 264.368V274H272.996V256.496H275.364V258.768C276.836 256.976 278.713 256.08 280.996 256.08C283.3 256.08 285.124 256.805 286.468 258.256C287.812 259.685 288.484 261.872 288.484 264.816V274ZM309.743 266.032H293.903C293.989 267.76 294.693 269.232 296.015 270.448C297.359 271.643 298.927 272.24 300.719 272.24C302.042 272.24 303.269 271.877 304.399 271.152C305.53 270.405 306.341 269.435 306.831 268.24H309.295C308.719 269.968 307.631 271.429 306.031 272.624C304.453 273.819 302.703 274.416 300.783 274.416C298.202 274.416 296.015 273.531 294.223 271.76C292.431 269.968 291.535 267.771 291.535 265.168C291.535 262.629 292.41 260.485 294.159 258.736C295.93 256.965 298.085 256.08 300.623 256.08C303.269 256.08 305.445 256.987 307.151 258.8C308.879 260.592 309.743 263.003 309.743 266.032ZM307.375 263.888C306.97 262.139 306.159 260.763 304.943 259.76C303.749 258.757 302.298 258.256 300.591 258.256C298.927 258.256 297.487 258.779 296.271 259.824C295.055 260.848 294.287 262.203 293.967 263.888H307.375ZM320.636 258.64H316.284V274H313.916V258.64H311.196V256.496H313.916C313.852 252.4 316.092 250.352 320.636 250.352V252.496C319.014 252.496 317.873 252.805 317.212 253.424C316.572 254.021 316.262 255.045 316.284 256.496H320.636V258.64ZM324.252 274H321.884V256.496H324.252V274ZM324.252 254.576H321.884V250.544H324.252V254.576ZM336.422 258.64H332.486V274H330.118V258.64H326.342V256.496H330.118V250.352H332.486V256.496H336.422V258.64ZM348.033 268.976C348.033 270.576 347.532 271.888 346.529 272.912C345.548 273.915 344.268 274.416 342.689 274.416C341.004 274.416 339.639 273.915 338.593 272.912C337.569 271.888 337.057 270.533 337.057 268.848H339.393C339.393 269.893 339.692 270.725 340.289 271.344C340.908 271.941 341.708 272.24 342.689 272.24C343.543 272.24 344.247 271.952 344.801 271.376C345.356 270.8 345.633 270.075 345.633 269.2C345.633 268.347 345.399 267.707 344.929 267.28C344.481 266.853 343.585 266.373 342.241 265.84C341.004 265.349 340.236 265.029 339.937 264.88C339.66 264.731 339.351 264.485 339.009 264.144C338.135 263.333 337.697 262.288 337.697 261.008C337.697 259.579 338.167 258.405 339.105 257.488C340.044 256.549 341.228 256.08 342.657 256.08C344.087 256.08 345.26 256.528 346.177 257.424C347.116 258.299 347.585 259.429 347.585 260.816H345.185C345.185 260.005 344.951 259.376 344.481 258.928C344.033 258.48 343.415 258.256 342.625 258.256C341.921 258.256 341.324 258.501 340.833 258.992C340.343 259.483 340.097 260.08 340.097 260.784C340.097 261.787 340.631 262.555 341.697 263.088C342.124 263.301 343.223 263.771 344.993 264.496C347.02 265.349 348.033 266.843 348.033 268.976ZM376.738 265.296C376.738 267.92 375.896 270.096 374.21 271.824C372.525 273.552 370.402 274.416 367.842 274.416C365.133 274.416 362.893 273.541 361.122 271.792C359.352 270.043 358.466 267.824 358.466 265.136C358.466 262.576 359.341 260.432 361.09 258.704C362.861 256.955 365.048 256.08 367.65 256.08C370.274 256.08 372.44 256.955 374.146 258.704C375.874 260.432 376.738 262.629 376.738 265.296ZM374.338 265.328C374.338 263.301 373.698 261.616 372.418 260.272C371.16 258.928 369.57 258.256 367.65 258.256C365.709 258.256 364.088 258.917 362.786 260.24C361.506 261.563 360.866 263.216 360.866 265.2C360.866 267.248 361.517 268.933 362.818 270.256C364.12 271.579 365.773 272.24 367.778 272.24C369.677 272.24 371.245 271.589 372.482 270.288C373.72 268.987 374.338 267.333 374.338 265.328ZM395.275 274H392.907V264.816C392.907 260.443 391.105 258.256 387.499 258.256C385.835 258.256 384.523 258.757 383.563 259.76C382.625 260.763 382.155 262.299 382.155 264.368V274H379.787V256.496H382.155V258.768C383.627 256.976 385.505 256.08 387.787 256.08C390.091 256.08 391.915 256.805 393.259 258.256C394.603 259.685 395.275 261.872 395.275 264.816V274ZM432.13 263.088C431.938 266.16 430.679 268.816 428.354 271.056C426.028 273.296 423.18 274.416 419.81 274.416C416.183 274.416 413.132 273.232 410.658 270.864C408.183 268.496 406.946 265.584 406.946 262.128C406.946 258.715 408.151 255.835 410.562 253.488C412.994 251.12 415.97 249.936 419.49 249.936C422.071 249.936 424.386 250.555 426.434 251.792C428.482 253.029 429.9 254.651 430.69 256.656H428.034C427.223 255.227 426.082 254.117 424.61 253.328C423.159 252.517 421.516 252.112 419.682 252.112C416.759 252.112 414.306 253.083 412.322 255.024C410.338 256.965 409.346 259.355 409.346 262.192C409.346 265.008 410.348 267.387 412.354 269.328C414.359 271.269 416.812 272.24 419.714 272.24C421.996 272.24 424.044 271.557 425.858 270.192C427.692 268.805 428.834 267.152 429.282 265.232H416.066V263.088H432.13ZM437.508 274H435.14V256.496H437.508V274ZM437.508 254.576H435.14V250.544H437.508V254.576ZM456.682 256.496L449.322 274H446.826L439.466 256.496H441.866L448.01 271.216L454.282 256.496H456.682ZM475.348 266.032H459.508C459.594 267.76 460.298 269.232 461.62 270.448C462.964 271.643 464.532 272.24 466.324 272.24C467.647 272.24 468.874 271.877 470.004 271.152C471.135 270.405 471.946 269.435 472.436 268.24H474.9C474.324 269.968 473.236 271.429 471.636 272.624C470.058 273.819 468.308 274.416 466.388 274.416C463.807 274.416 461.62 273.531 459.828 271.76C458.036 269.968 457.14 267.771 457.14 265.168C457.14 262.629 458.015 260.485 459.764 258.736C461.535 256.965 463.69 256.08 466.228 256.08C468.874 256.08 471.05 256.987 472.756 258.8C474.484 260.592 475.348 263.003 475.348 266.032ZM472.98 263.888C472.575 262.139 471.764 260.763 470.548 259.76C469.354 258.757 467.903 258.256 466.196 258.256C464.532 258.256 463.092 258.779 461.876 259.824C460.66 260.848 459.892 262.203 459.572 263.888H472.98ZM485.94 258.64H482.004V274H479.636V258.64H475.86V256.496H479.636V250.352H482.004V256.496H485.94V258.64ZM503.504 274H501.136V264.592C501.136 262.48 500.645 260.901 499.664 259.856C498.704 258.789 497.392 258.256 495.728 258.256C494.128 258.256 492.837 258.768 491.856 259.792C490.875 260.816 490.384 262.352 490.384 264.4V274H488.016V250.352H490.384V258.768C491.621 256.976 493.477 256.08 495.952 256.08C498.299 256.08 500.144 256.795 501.488 258.224C502.832 259.632 503.504 261.755 503.504 264.592V274Z" fill="white"/>
<path d="M-174.735 0.0243708C-174.735 0.0243708 -211.254 15.3398 -201.57 60.7177L-116.962 116.269C-116.962 116.269 -108.514 135.613 -89.9748 147.565C-71.4353 159.517 -21.3767 191.989 -21.3767 191.989C-21.3767 191.989 -9.91113 196.757 -5.568 186.648C-1.22486 176.539 -9.41171 167.749 -9.41171 167.749L-47.852 141.78C-47.852 141.78 -9.70265 116.995 33.1291 126.038C33.1291 126.038 28.6709 101.265 4.65556 84.0127C4.65556 84.0127 -11.7258 74.072 -82.9626 59.2711L-174.735 0.0243708Z" fill="#FED670" stroke="#020202" stroke-width="2.51564" stroke-miterlimit="10"/>
<path d="M7.20825 131.081L14.596 142.07L14.2699 141.989L6.88209 131.001L7.20825 131.081Z" fill="#3B2780"/>
<path d="M8.84029 131.662L16.1794 142.549L14.5309 141.94L7.19171 131.053L8.84029 131.662Z" fill="#3B2780"/>
<path d="M24.2423 143.556L31.4586 154.197C27.8746 149.515 23.3431 145.78 18.3301 143.377C17.4487 142.948 16.5499 142.578 15.6655 142.181L8.44922 131.539C9.33367 131.936 10.2325 132.306 11.1139 132.735C16.127 135.138 20.6584 138.873 24.2423 143.556Z" fill="#3D2885"/>
<path d="M24.2423 143.556L31.4586 154.197C27.8746 149.515 23.3431 145.78 18.3301 143.377C17.4487 142.948 16.5499 142.578 15.6655 142.181L8.44922 131.539C9.33367 131.936 10.2325 132.306 11.1139 132.735C16.127 135.138 20.6584 138.873 24.2423 143.556Z" fill="#3D2885"/>
<path d="M7.046 131.985L14.3171 142.563C12.737 142.166 11.1736 141.665 9.57868 141.385C6.15568 140.781 2.75035 140.689 -0.538587 141.11L-7.80985 130.533C-4.52101 130.111 -1.11551 130.203 2.30752 130.808C3.90262 131.087 5.4659 131.588 7.046 131.985Z" fill="#3D2885"/>
<path d="M-7.74643 131.402L-0.36094 142.339C-1.84447 142.531 -3.3017 142.821 -4.72498 143.209L-12.1102 132.271C-10.687 131.883 -9.22995 131.593 -7.74643 131.402Z" fill="#3F2A8A"/>
<path d="M18 148.056L25.1925 158.272C21.6544 154.463 17.3406 151.582 12.7175 149.943C12.3419 149.809 11.9627 149.682 11.5798 149.562C7.75175 148.39 3.86352 148.033 0.159318 148.516L-7.03316 138.299C-3.32901 137.817 0.55925 138.173 4.38716 139.346C4.77024 139.465 5.14955 139.592 5.52505 139.726C10.1479 141.366 14.4615 144.247 18 148.056Z" fill="#858585"/>
<path d="M-6.92745 139.099L0.458762 150.048C-0.739876 150.203 -1.9171 150.438 -3.06682 150.753L-10.4531 139.803C-9.30319 139.489 -8.12595 139.254 -6.92745 139.099Z" fill="#8A8A8A"/>
<path d="M19.9517 145.83L27.3655 156.858C26.5517 157.275 25.7368 157.699 24.9204 158.102L17.5068 147.074C18.3252 146.672 19.1381 146.247 19.9511 145.829" fill="#949494"/>
<path d="M24.2423 143.556L31.4586 154.197C27.8746 149.515 23.3431 145.78 18.3301 143.377C17.4487 142.948 16.5499 142.578 15.6655 142.181L8.44922 131.539C9.33367 131.936 10.2325 132.306 11.1139 132.735C16.127 135.138 20.6584 138.873 24.2423 143.556Z" fill="#3D2885"/>
<path d="M8.22417 134.83C9.13449 135.25 10.0595 135.643 10.9668 136.097C16.092 138.623 20.7381 142.506 24.4365 147.353L20.73 149.406C19.9117 149.827 19.0907 150.255 18.2697 150.662C14.5982 146.514 10.1213 143.381 5.32269 141.599C4.93282 141.453 4.53914 141.315 4.14158 141.185C-7.93411 137.234 -20.8591 142.157 -27.1708 153.153C-31.0851 159.968 -32.1352 167.445 -30.404 175.51C-30.3979 175.557 -30.4015 175.604 -30.4147 175.646C-30.4278 175.688 -30.4502 175.724 -30.48 175.753C-32.5347 176.821 -34.5964 177.884 -36.6651 178.942C-36.8218 178.676 -36.9342 178.387 -36.9958 178.091C-39.0483 169.915 -38.6729 161.657 -35.9278 154.601C-30.1337 138.893 -14.8106 129.969 1.34947 132.894C2.98803 133.185 4.59373 133.71 6.21678 134.125L6.54597 134.207L8.22417 134.83Z" fill="#CDCDCD"/>
<path d="M23.6496 143.328L31.0667 154.374L27.3817 156.411L19.9645 145.364L23.6496 143.328Z" fill="#A4A4A4"/>
<path d="M24.2423 143.556L31.4586 154.197C27.8746 149.515 23.3431 145.78 18.3301 143.377C17.4487 142.948 16.5499 142.578 15.6655 142.181L8.44922 131.539C9.33367 131.936 10.2325 132.306 11.1139 132.735C16.127 135.138 20.6584 138.873 24.2423 143.556Z" fill="#CDCDCD"/>
<path d="M-4.15972 172.68L3.2839 183.761C-6.96248 189.002 -17.2053 194.254 -27.4445 199.517L-34.8882 188.436C-24.6482 183.172 -14.4054 177.92 -4.15985 172.681" fill="#442D94"/>
<path d="M-3.3602 170.384L4.0295 181.37C3.87004 181.316 3.70748 181.299 3.55268 181.32L-3.83715 170.335C-3.68242 170.313 -3.51974 170.33 -3.3602 170.384Z" fill="#3D2885"/>
<path d="M-3.83316 170.357L3.56622 181.364C3.52116 181.37 3.47698 181.38 3.43391 181.392L-3.96538 170.384C-3.92226 170.372 -3.87804 170.362 -3.83303 170.356" fill="#3F2A8A"/>
<path d="M-3.9643 170.397L3.43587 181.407C3.40139 181.417 3.36805 181.428 3.33512 181.441L-4.065 170.431C-4.03208 170.418 -3.99878 170.407 -3.9643 170.397Z" fill="#422B8F"/>
<path d="M-4.06618 170.44L3.33435 181.451C3.31761 181.457 3.30056 181.465 3.28424 181.473L-4.11628 170.462C-4.09997 170.454 -4.08305 170.447 -4.06618 170.44Z" fill="#442D94"/>
<path d="M20.5216 155.911L27.9319 166.933L27.9098 166.948C27.7696 167.039 27.6335 167.136 27.5018 167.238L20.0915 156.216C20.2232 156.114 20.3593 156.017 20.4994 155.926L20.5216 155.911Z" fill="#49309E"/>
<path d="M18.0384 159.125L25.5163 170.263C25.4164 170.501 25.3299 170.747 25.2571 171C25.1727 171.295 25.108 171.599 25.0632 171.91L17.5854 160.771C17.6301 160.46 17.6948 160.157 17.7791 159.862C17.8516 159.609 17.9382 159.363 18.0384 159.125Z" fill="#5739BD"/>
<path d="M24.6187 154.635L32.0043 165.576C31.4241 165.484 30.848 165.474 30.2907 165.549L22.9051 154.608C23.4623 154.533 24.0385 154.542 24.6187 154.635Z" fill="#3D2885"/>
<path d="M22.9189 154.726L30.3266 165.72C30.0618 165.755 29.8017 165.807 29.5477 165.876L22.1399 154.882C22.3943 154.813 22.6546 154.761 22.9196 154.726" fill="#3F2A8A"/>
<path d="M22.145 154.968L29.5577 165.973C29.3513 166.029 29.1486 166.097 28.9496 166.176L21.5368 155.171C21.736 155.091 21.9385 155.023 22.1442 154.968" fill="#422B8F"/>
<path d="M21.537 155.246L28.9528 166.258C28.7771 166.328 28.6046 166.407 28.4353 166.494L21.0194 155.482C21.1887 155.391 21.361 155.316 21.537 155.246Z" fill="#442D94"/>
<path d="M21.0148 155.557L28.4332 166.575C28.2683 166.662 28.1055 166.756 27.9448 166.856L20.5265 155.838C20.6853 155.735 20.8481 155.641 21.0149 155.557" fill="#462E99"/>
<path d="M20.517 155.911L27.9374 166.934L27.9153 166.949C27.7751 167.04 27.6391 167.136 27.5074 167.238L20.0869 156.216C20.2186 156.114 20.3547 156.017 20.4947 155.927L20.517 155.911Z" fill="#49309E"/>
<path d="M20.0789 156.286L27.5016 167.313C27.3637 167.421 27.2306 167.535 27.1023 167.653L19.6796 156.626C19.8081 156.507 19.9412 156.393 20.0789 156.286Z" fill="#4B31A3"/>
<path d="M19.6654 156.692L27.0906 167.725C26.9579 167.848 26.8316 167.978 26.7103 168.113L19.2851 157.08C19.4065 156.945 19.5328 156.815 19.6654 156.692Z" fill="#4D33A8"/>
<path d="M19.2678 157.15L26.6961 168.189C26.567 168.334 26.4448 168.484 26.3295 168.641L18.9014 157.601C19.0168 157.445 19.1389 157.294 19.2678 157.15Z" fill="#5034AD"/>
<path d="M18.8774 157.672L26.3101 168.721C26.179 168.896 26.059 169.08 25.9499 169.271L18.5181 158.22C18.6289 158.031 18.749 157.847 18.8784 157.671" fill="#5236B3"/>
<path d="M18.4849 158.301L25.9255 169.367C25.7896 169.602 25.6677 169.847 25.5603 170.102L18.1195 159.036C18.2265 158.781 18.3485 158.535 18.4849 158.301Z" fill="#5437B8"/>
<path d="M18.0384 159.123L25.5169 170.262C25.417 170.5 25.3305 170.745 25.2577 170.999C25.1733 171.293 25.1085 171.597 25.0638 171.909L17.5854 160.769C17.6301 160.458 17.6948 160.155 17.7792 159.861C17.8516 159.607 17.9382 159.361 18.0384 159.123Z" fill="#5739BD"/>
<path d="M28.9723 157.37L36.2714 168.181C36.0805 167.898 35.8699 167.63 35.6418 167.381C34.8925 166.567 33.9881 165.954 33.0216 165.606C32.6253 165.461 32.223 165.357 31.8206 165.297L24.5215 154.487C24.9239 154.547 25.3262 154.65 25.7225 154.795C26.6889 155.143 27.5931 155.756 28.3427 156.569C28.5706 156.819 28.7812 157.087 28.9723 157.37Z" fill="#3D2885"/>
<path d="M18.0365 159.123L25.5183 170.262C25.4184 170.5 25.332 170.746 25.2593 170.999C25.1749 171.293 25.1102 171.597 25.0655 171.909L17.5838 160.769C17.6285 160.458 17.6931 160.154 17.7774 159.86C17.8498 159.607 17.9363 159.361 18.0365 159.123Z" fill="#5739BD"/>
<path d="M17.5488 160.91L24.9852 171.961C24.9624 172.119 24.9452 172.277 24.9336 172.436L17.497 161.387C17.5086 161.227 17.5259 161.068 17.5488 160.91Z" fill="#593BC2"/>
<path d="M17.4092 161.426L24.8786 172.541C24.8478 172.945 24.8521 173.357 24.8915 173.773C24.9101 173.948 24.9336 174.122 24.9617 174.295L17.4924 163.179C17.4619 163.009 17.439 162.831 17.4222 162.656C17.3829 162.241 17.3785 161.829 17.4092 161.426Z" fill="#5739BD"/>
<path d="M17.4141 161.428L24.8781 172.542C24.8472 172.946 24.8513 173.359 24.8905 173.775C24.9091 173.95 24.9325 174.124 24.9605 174.296L17.4966 163.181C17.4662 163.012 17.4434 162.834 17.4267 162.659C17.3875 162.243 17.3832 161.831 17.4141 161.428Z" fill="#5739BD"/>
<path d="M28.9723 157.37L36.2714 168.181C36.0805 167.898 35.8699 167.63 35.6418 167.381C34.8925 166.567 33.9881 165.954 33.0216 165.606C32.6253 165.461 32.223 165.357 31.8206 165.297L24.5215 154.487C24.9239 154.547 25.3262 154.65 25.7225 154.795C26.6889 155.143 27.5931 155.756 28.3427 156.569C28.5706 156.819 28.7812 157.087 28.9723 157.37Z" fill="#3D2885"/>
<path d="M17.4121 161.428L24.879 172.543C24.8481 172.947 24.8523 173.359 24.8916 173.775C24.9103 173.95 24.9336 174.124 24.9618 174.297L17.495 163.181C17.4646 163.011 17.4417 162.833 17.425 162.659C17.3857 162.243 17.3813 161.831 17.4121 161.428Z" fill="#5739BD"/>
<path d="M17.4268 163.287L24.86 174.335C24.9078 174.615 24.9727 174.895 25.0545 175.171L17.6214 164.122C17.5397 163.846 17.4747 163.567 17.4268 163.287Z" fill="#5437B8"/>
<path d="M17.5703 164.164L24.9961 175.197C25.0626 175.421 25.1398 175.642 25.2274 175.859L17.8016 164.826C17.7137 164.608 17.6365 164.387 17.5703 164.164Z" fill="#5236B3"/>
<path d="M17.7588 164.844L25.1804 175.868C25.2531 176.049 25.3337 176.227 25.4208 176.403L25.4391 176.438L18.0173 165.415L17.9992 165.378C17.9121 165.203 17.8315 165.025 17.7588 164.844Z" fill="#5034AD"/>
<path d="M17.7656 164.844L25.1764 175.867C25.249 176.048 25.3294 176.227 25.4164 176.402L25.4346 176.438L18.0236 165.415L18.0056 165.379C17.9186 165.203 17.8382 165.025 17.7656 164.844Z" fill="#5034AD"/>
<path d="M28.9723 157.37L36.2714 168.181C36.0805 167.898 35.8699 167.63 35.6418 167.381C34.8925 166.567 33.9881 165.954 33.0216 165.606C32.6253 165.461 32.223 165.357 31.8206 165.297L24.5215 154.487C24.9239 154.547 25.3262 154.65 25.7225 154.795C26.6889 155.143 27.5931 155.756 28.3427 156.569C28.5706 156.819 28.7812 157.087 28.9723 157.37Z" fill="#3D2885"/>
<path d="M17.7656 164.844L25.1769 175.868C25.2495 176.049 25.3299 176.227 25.4169 176.403L25.4351 176.438L18.0236 165.415L18.0056 165.379C17.9187 165.203 17.8382 165.025 17.7656 164.844Z" fill="#5034AD"/>
<path d="M17.9844 165.428L25.3927 176.444C25.4806 176.618 25.5747 176.787 25.674 176.951L18.2659 165.934C18.1657 165.77 18.0717 165.601 17.9844 165.428Z" fill="#4D33A8"/>
<path d="M18.2383 165.941L25.644 176.953C25.7018 177.046 25.7601 177.136 25.8186 177.225L18.4127 166.214C18.3541 166.126 18.2961 166.034 18.2383 165.941Z" fill="#4B31A3"/>
<path d="M28.7803 157.172L36.1946 168.183C36.2532 168.272 36.3114 168.362 36.3693 168.455L28.9551 157.443C28.8991 157.351 28.8408 157.261 28.7803 157.172Z" fill="#A3A3A3"/>
<path d="M28.9229 157.443L36.3396 168.461C36.4406 168.626 36.5345 168.795 36.6212 168.968L29.2045 157.951C29.1171 157.778 29.0229 157.609 28.9229 157.443Z" fill="#A8A8A8"/>
<path d="M29.1626 157.958L36.5824 168.982C36.6761 169.167 36.7618 169.356 36.839 169.547L29.419 158.524C29.3421 158.331 29.2566 158.141 29.1631 157.955" fill="#ADADAD"/>
<path d="M29.3711 158.537L36.7953 169.57C36.8828 169.787 36.9596 170.007 37.0254 170.23L29.6012 159.197C29.5358 158.974 29.4589 158.754 29.3711 158.537Z" fill="#B3B3B3"/>
<path d="M29.5459 159.221L36.9775 170.269C37.06 170.548 37.1258 170.83 37.1742 171.113L29.7426 160.064C29.6943 159.782 29.6285 159.5 29.5459 159.221Z" fill="#B8B8B8"/>
<path d="M29.6396 160.102L37.1047 171.217C37.1343 171.386 37.1574 171.563 37.1741 171.738C37.2132 172.153 37.217 172.565 37.1853 172.969L29.7203 161.853C29.752 161.45 29.7483 161.037 29.7093 160.622C29.6924 160.448 29.6689 160.273 29.6396 160.102Z" fill="#BDBDBD"/>
<path d="M29.668 161.961L37.0989 173.008C37.088 173.157 37.0712 173.304 37.0509 173.45L29.62 162.403C29.6408 162.254 29.6571 162.109 29.668 161.961Z" fill="#C2C2C2"/>
<path d="M29.5385 162.451L37.017 173.592C36.9321 174.184 36.7769 174.75 36.5551 175.275L29.0764 164.134C29.2982 163.609 29.4535 163.043 29.5385 162.451Z" fill="#BDBDBD"/>
<path d="M29.0332 164.298L36.473 175.363C36.3653 175.619 36.2426 175.866 36.1056 176.101L28.6659 165.035C28.8029 164.8 28.9255 164.554 29.0332 164.298Z" fill="#B8B8B8"/>
<path d="M28.6412 165.129L36.0725 176.177C36.0228 176.263 35.9712 176.346 35.9177 176.432C35.8538 176.529 35.7868 176.625 35.7167 176.719L28.2854 165.67C28.3545 165.576 28.4215 165.481 28.4864 165.383C28.5394 165.3 28.5911 165.216 28.6412 165.129Z" fill="#B3B3B3"/>
<path d="M28.2676 165.751L35.695 176.79C35.5781 176.95 35.4546 177.103 35.3245 177.248L27.8971 166.208C28.0269 166.062 28.1504 165.91 28.2676 165.751Z" fill="#ADADAD"/>
<path d="M27.8804 166.283L35.3046 177.316C35.1806 177.452 35.0529 177.582 34.9214 177.707L27.4973 166.674C27.6301 166.55 27.7581 166.419 27.8804 166.283Z" fill="#A8A8A8"/>
<path d="M27.4891 166.748L34.9107 177.776C34.7816 177.896 34.6476 178.011 34.5088 178.119L27.0872 167.091C27.226 166.983 27.3599 166.869 27.4891 166.748Z" fill="#A3A3A3"/>
<path d="M27.0783 167.164L34.4978 178.187C34.3591 178.295 34.2164 178.396 34.0699 178.492L26.6504 167.469C26.7973 167.374 26.94 167.274 27.0783 167.164Z" fill="#9E9E9E"/>
<path d="M26.6438 167.543L34.061 178.561C33.9101 178.659 33.7549 178.749 33.5956 178.83L26.1785 167.812C26.338 167.73 26.4931 167.64 26.6438 167.543Z" fill="#999999"/>
<path d="M26.1782 167.887L33.593 178.899C33.4243 178.986 33.2515 179.065 33.0747 179.136L25.6599 168.123C25.8366 168.053 26.0098 167.973 26.1782 167.887Z" fill="#949494"/>
<path d="M25.6626 168.207L33.0743 179.213C32.8765 179.293 32.6749 179.36 32.4693 179.415L25.0576 168.41C25.264 168.353 25.4657 168.286 25.6626 168.207Z" fill="#8F8F8F"/>
<path d="M25.067 168.509L32.4735 179.503L32.4242 179.516C32.1769 179.582 31.9239 179.632 31.6665 179.666L24.26 168.672C24.5174 168.639 24.7704 168.589 25.0177 168.522L25.067 168.509Z" fill="#8A8A8A"/>
<path d="M24.4235 169.106L31.7283 179.815C30.7912 179.941 29.8038 179.825 28.8414 179.477C28.6497 179.404 28.4599 179.325 28.2727 179.235C27.23 178.74 26.2991 177.934 25.6027 176.924L18.2979 166.215C18.9945 167.226 19.9257 168.031 20.9686 168.526C21.1558 168.617 21.3456 168.697 21.5373 168.768C22.4997 169.116 23.4871 169.232 24.4242 169.106" fill="#858585"/>
<path d="M25.8652 155.299C26.8532 155.662 27.7783 156.297 28.5455 157.138C29.6045 158.317 30.272 159.833 30.4086 161.369C30.5424 162.994 30.1807 164.533 29.3812 165.74C28.5566 167.008 27.3503 167.895 25.9274 168.279C24.7529 168.61 23.4608 168.543 22.2027 168.086C22.0063 168.013 21.8118 167.929 21.62 167.835C20.2744 167.191 19.1231 166.032 18.4057 164.599C18.0001 163.778 17.7473 162.898 17.6647 162.019C17.5817 161.105 17.6617 160.212 17.9 159.389C18.346 157.88 19.2417 156.646 20.4593 155.863C21.6554 155.06 23.1193 154.749 24.6369 154.976C25.0483 155.041 25.4598 155.148 25.8652 155.299Z" fill="#CDCDCD"/>
<path d="M28.4716 180.859L35.4478 190.981C31.5714 189.689 27.6947 188.397 23.8179 187.104C17.1033 184.867 10.3871 182.636 3.66908 180.409L-3.30691 170.286C3.41127 172.512 10.1275 174.745 16.8418 176.983C20.7191 178.275 24.5957 179.568 28.4716 180.859Z" fill="#3D2885"/>
<path d="M28.0769 179.915L35.5126 190.996L35.2686 191.848L27.8329 180.768L28.0769 179.915Z" fill="#CCCCCC"/>
<path d="M16.6069 179.727C20.5906 181.184 24.5737 182.641 28.556 184.098L28.3149 184.928C27.9705 185.874 27.6597 186.832 27.2692 187.76C23.3017 197.356 15.7776 204.268 6.29478 207.028C-0.211469 209.167 -7.48582 208.945 -14.5496 206.393C-14.9689 206.24 -15.3862 206.076 -15.8049 205.909C-24.2926 202.469 -30.732 196.462 -35.1562 188.06C-35.1655 187.994 -35.1613 187.928 -35.1438 187.868C-35.1264 187.808 -35.0961 187.756 -35.0553 187.714C-24.989 182.534 -14.9193 177.366 -4.84632 172.211C-4.62095 172.104 -4.356 172.091 -4.09576 172.176C2.80731 174.686 9.70819 177.203 16.6069 179.727Z" fill="#CDCDCD"/>
<path d="M27.7275 180.887L35.2006 192.08C34.8509 193.052 34.5348 194.042 34.14 194.996L26.667 183.802C27.0618 182.848 27.3779 181.858 27.7275 180.887Z" fill="#BDBDBD"/>
<path d="M26.4947 184.145L34.0021 195.392L33.9903 195.42C33.3023 197.053 32.5226 198.626 31.655 200.13L24.1476 188.883C25.0148 187.379 25.7944 185.806 26.4827 184.173L26.4947 184.145Z" fill="#B8B8B8"/>
<path d="M24.0205 189.36L31.4813 200.533C30.8253 201.665 30.1239 202.745 29.3772 203.773L21.9165 192.599C22.6632 191.573 23.3645 190.494 24.0205 189.36Z" fill="#B3B3B3"/>
<path d="M21.8315 193.001L29.2681 204.133C28.6298 205.008 27.9584 205.844 27.2538 206.64L19.8172 195.509C20.5221 194.713 21.1938 193.878 21.8322 193.002" fill="#ADADAD"/>
<path d="M19.7497 195.874L27.1707 206.976C26.5246 207.704 25.8503 208.397 25.1479 209.055L17.7268 197.953C18.4286 197.292 19.1029 196.599 19.7497 195.874Z" fill="#A8A8A8"/>
<path d="M17.6836 198.311L25.0935 209.391C24.4161 210.029 23.7126 210.634 22.9829 211.208L15.573 200.127C16.3031 199.554 17.0066 198.948 17.6836 198.311Z" fill="#A3A3A3"/>
<path d="M15.5394 200.482L22.9399 211.544C22.2048 212.122 21.4426 212.668 20.6536 213.181L13.253 202.12C14.0425 201.607 14.8047 201.061 15.5394 200.482Z" fill="#9E9E9E"/>
<path d="M13.2308 202.491L20.6221 213.533C19.7924 214.072 18.9331 214.575 18.0444 215.042L10.6531 204C11.5417 203.534 12.4009 203.031 13.2308 202.491Z" fill="#999999"/>
<path d="M10.6451 204.413L18.0259 215.433C17.0444 215.949 16.0266 216.42 14.9722 216.846L7.59128 205.827C8.64529 205.401 9.66321 204.929 10.6451 204.413Z" fill="#949494"/>
<path d="M7.60267 206.306L14.9696 217.293C14.0463 217.667 13.0952 218.006 12.1161 218.311C11.8007 218.411 11.4829 218.505 11.1629 218.593L3.79592 207.606C4.11351 207.518 4.43131 207.424 4.74918 207.324C5.72798 207.018 6.67913 206.679 7.60267 206.306Z" fill="#8F8F8F"/>
<path d="M3.83156 208.145L11.1796 219.087C9.75864 219.487 8.30407 219.789 6.82331 219.993L-0.524668 209.051C0.95594 208.847 2.41052 208.544 3.83156 208.145Z" fill="#8A8A8A"/>
<path d="M-0.0844269 210.645L7.08511 220.914C2.10125 221.596 -3.14925 221.007 -8.2561 219.193C-8.66904 219.047 -9.08105 218.893 -9.49204 218.731C-15.9999 216.315 -21.868 211.694 -26.103 205.65L-33.2725 195.381C-29.0377 201.425 -23.1695 206.047 -16.6615 208.462C-16.2496 208.625 -15.8384 208.779 -15.4258 208.925C-10.3188 210.738 -5.06837 211.327 -0.0844269 210.645Z" fill="#858585"/>
<path d="M39.2588 128.279L46.3581 138.878C46.8797 139.657 47.3841 140.448 47.8711 141.251L40.7718 130.652C40.2852 129.85 39.7809 129.059 39.2588 128.279Z" fill="#4B31A3"/>
<path d="M40.4932 130.658L47.6081 141.29C48.4804 142.729 49.2952 144.203 50.0523 145.711L42.9374 135.079C42.1803 133.575 41.3656 132.102 40.4932 130.658Z" fill="#4D33A8"/>
<path d="M42.561 135.12L49.6969 145.795C50.5092 147.415 51.2518 149.066 51.9216 150.744L44.7869 140.067C44.117 138.389 43.3745 136.737 42.5622 135.117" fill="#5034AD"/>
<path d="M44.3643 140.15L51.5282 150.878C52.2893 152.784 52.957 154.72 53.5282 156.676L46.3642 145.949C45.7926 143.993 45.1249 142.057 44.3643 140.15Z" fill="#5236B3"/>
<path d="M45.8613 146.088L53.0709 156.891C53.7766 159.31 54.3379 161.754 54.751 164.205L47.5414 153.401C47.1282 150.951 46.5668 148.507 45.8613 146.088Z" fill="#5437B8"/>
<path d="M46.6367 153.613L54.0563 164.665C55.0227 170.424 55.2203 176.169 54.6424 181.714L47.2226 170.664C47.8006 165.119 47.6032 159.372 46.6367 153.613Z" fill="#5739BD"/>
<path d="M46.7578 171.123L53.923 181.851C53.8612 182.464 53.7896 183.078 53.7081 183.691L46.5432 172.962C46.6241 172.349 46.6957 171.736 46.7578 171.123Z" fill="#593BC2"/>
<path d="M46.0116 173.227L53.5346 184.362C53.1238 187.412 52.4996 190.387 51.667 193.263C51.0099 195.541 50.2295 197.756 49.3294 199.898L41.8063 188.763C42.7065 186.622 43.4869 184.407 44.1439 182.128C44.9765 179.252 45.6007 176.277 46.0116 173.227Z" fill="#5739BD"/>
<path d="M41.5157 189.619L48.7888 200.513C47.8353 202.805 46.7479 205.008 45.5323 207.11L38.2593 196.217C39.4749 194.114 40.5623 191.911 41.5157 189.619Z" fill="#5437B8"/>
<path d="M38.0838 196.887L45.2998 207.7C44.3373 209.366 43.301 210.963 42.1909 212.491L34.9749 201.679C36.0846 200.153 37.122 198.556 38.0872 196.888" fill="#5236B3"/>
<path d="M34.8436 202.295L42.0297 213.06C41.0256 214.441 39.965 215.761 38.8479 217.021L31.6617 206.256C32.7768 204.997 33.8374 203.676 34.8436 202.295Z" fill="#5034AD"/>
<path d="M31.5631 206.855L38.728 217.583C37.6735 218.774 36.5724 219.908 35.4246 220.986L28.2599 210.257C29.4061 209.18 30.5071 208.046 31.5631 206.855Z" fill="#4D33A8"/>
<path d="M28.1866 210.853L35.3341 221.55C34.2152 222.603 33.0556 223.599 31.8556 224.539L24.708 213.842C25.9066 212.902 27.0661 211.906 28.1866 210.853Z" fill="#4B31A3"/>
<path d="M24.6558 214.446L31.7881 225.113C30.5854 226.055 29.3458 226.94 28.0691 227.766L20.9368 217.099C22.212 216.273 23.4516 215.388 24.6558 214.446Z" fill="#49309E"/>
<path d="M20.9047 217.723L28.0222 228.361C26.7098 229.21 25.3624 229.996 23.9801 230.718L16.8626 220.081C18.2438 219.359 19.5911 218.574 20.9047 217.723Z" fill="#462E99"/>
<path d="M16.8509 220.739L23.9527 231.343C22.477 232.112 20.9663 232.807 19.4206 233.427L12.3185 222.824C13.8631 222.205 15.3739 221.51 16.8509 220.739Z" fill="#442D94"/>
<path d="M12.334 223.549L19.4172 234.109C17.6881 234.802 15.9213 235.397 14.1168 235.893L7.03386 225.332C8.834 224.836 10.6007 224.242 12.334 223.549Z" fill="#422B8F"/>
<path d="M7.08494 226.171L14.1411 236.666C11.9598 237.265 9.72708 237.716 7.45427 238.015L0.398076 227.52C2.67093 227.221 4.9037 226.771 7.08494 226.171Z" fill="#3F2A8A"/>
<path d="M0.975169 229.891L7.84255 239.616C-0.0331627 240.648 -8.32934 239.718 -16.4135 236.897C-27.7912 232.865 -37.1672 225.426 -43.7127 216.155L-50.5801 206.43C-44.0345 215.701 -34.6592 223.143 -23.2809 227.171C-15.1968 229.993 -6.90044 230.923 0.975169 229.891Z" fill="#3D2885"/>
<path d="M12.643 112.51C42.9803 123.839 60.2471 158.638 51.2087 190.237C42.1703 221.837 10.2479 238.277 -20.0888 226.95C-50.4256 215.623 -67.6981 180.817 -58.6597 149.218C-49.6213 117.619 -17.7001 101.181 12.643 112.51ZM-37.6127 179.124C-35.4591 178.028 -33.3862 176.963 -31.3253 175.893C-31.2954 175.864 -31.273 175.828 -31.2598 175.785C-31.2466 175.743 -31.243 175.696 -31.2491 175.649C-32.9847 167.561 -31.9329 160.066 -28.01 153.233C-21.6845 142.209 -8.73044 137.276 3.37379 141.238C3.77237 141.368 4.16703 141.506 4.55772 141.652C9.29544 143.367 13.7034 146.497 17.2506 150.663C18.2084 150.361 19.1284 149.966 20.0011 149.483L23.7808 147.542C20.0693 142.628 15.3865 138.693 10.214 136.14C9.30459 135.684 8.37742 135.29 7.46497 134.868L5.78635 134.241L5.45715 134.159C3.83032 133.742 2.22081 133.216 0.578452 132.924C-15.6192 129.989 -30.9769 138.935 -36.7833 154.683C-39.5342 161.758 -39.91 170.038 -37.8522 178.236C-37.7728 178.532 -37.6941 178.827 -37.609 179.124L-37.6127 179.124ZM30.3524 183.736L30.5975 182.878C26.5166 181.353 22.4355 179.829 18.3541 178.305C11.2854 175.665 4.21497 173.03 -2.85725 170.402C-3.12388 170.314 -3.39512 170.325 -3.62564 170.435C-13.931 175.724 -24.2318 181.023 -34.5279 186.333C-34.5694 186.376 -34.6 186.43 -34.6176 186.492C-34.6352 186.554 -34.6394 186.622 -34.6298 186.691C-30.083 195.398 -23.4775 201.64 -14.7793 205.234C-14.3506 205.412 -13.9225 205.581 -13.493 205.741C-6.25515 208.412 1.19343 208.673 7.85018 206.49C17.5532 203.678 25.2421 196.564 29.2841 186.658C29.6819 185.701 29.9981 184.711 30.3487 183.735L30.3524 183.736ZM25.3709 158.381C23.8535 158.154 22.3895 158.465 21.1934 159.267C19.9758 160.05 19.0801 161.285 18.6341 162.794C18.3958 163.617 18.3159 164.51 18.3989 165.424C18.4815 166.303 18.7343 167.183 19.1399 168.003C19.8573 169.436 21.0086 170.595 22.3541 171.24C22.5457 171.334 22.7399 171.417 22.936 171.49C24.1951 171.948 25.4885 172.016 26.6642 171.685C28.0869 171.3 29.2932 170.413 30.1179 169.146C30.9171 167.938 31.2786 166.4 31.1453 164.775C31.0085 163.238 30.3411 161.722 29.2823 160.543C28.5148 159.702 27.5899 159.068 26.602 158.705C26.1968 158.554 25.7857 158.446 25.3744 158.382" fill="#6543DD"/>
<path d="M-125.653 100.516C-125.653 100.516 -121.328 130.864 -88.3261 152.319L-25.4511 192.827C-25.4511 192.827 -12.2382 198.855 -8.35934 188.09C-4.48047 177.324 -9.50464 172.324 -13.9724 167.517L-58.163 138.842" fill="#FED670"/>
<path d="M-125.653 100.516C-125.653 100.516 -121.328 130.864 -88.3261 152.319L-25.4511 192.827C-25.4511 192.827 -12.2382 198.855 -8.35935 188.09C-4.48047 177.324 -9.50464 172.324 -13.9724 167.517L-58.163 138.842" stroke="#020202" stroke-width="2.51564" stroke-miterlimit="10"/>
<path d="M74.4498 452.975L18.5636 392.294C18.5636 392.294 -27.8888 355.501 -47.8216 338.971C-67.7545 322.44 -94.6581 288.196 -106.431 254.224C-118.204 220.252 -137.18 169.798 -137.18 169.798C-137.18 169.798 -140.188 156.832 -122.357 162.048C-104.526 167.263 -101.754 181.46 -101.754 181.46C-101.754 181.46 -86.7451 182.345 -81.1494 200.873C-81.1494 200.873 -70.6981 203.384 -66.2054 214.916C-61.7127 226.448 -54.0796 247.041 -54.0796 247.041L-35.9155 253.697C-35.9155 253.697 -48.0365 243.982 -36.5873 228.404C-36.5873 228.404 -28.6008 220.804 -16.825 232.689C-5.04916 244.573 37.3626 293.067 37.3626 293.067C37.3626 293.067 50.473 309.642 50.9197 334.898L115.846 407.506C115.846 407.506 113.581 451.494 74.4498 452.975Z" fill="#FED670" stroke="#020202" stroke-width="1.25782" stroke-miterlimit="10"/>
<path d="M75.3376 454.768L19.2511 393.716C19.2511 393.716 -50.7554 340.416 -69.4407 317.504C-88.126 294.592 -103.264 263.335 -107.88 249.955C-112.495 236.575 -137.053 169.864 -137.053 169.864C-137.053 169.864 -139.299 158.552 -125.436 161.257C-111.574 163.962 -105.674 171.439 -101.501 181.592L-75.9218 249.341C-75.9218 249.341 -60.1164 284.987 -19.8759 271.917" stroke="#191919" stroke-width="2.51564" stroke-miterlimit="10"/>
<path d="M0.638551 290.189L-36.879 247.98C-36.879 247.98 -44.8229 237.455 -36.093 225.278C-36.093 225.278 -27.4713 216.498 -16.8254 227.947L39.3348 289.834C39.3348 289.834 50.8349 302.988 52.0297 338.482" stroke="#191919" stroke-width="2.51564" stroke-miterlimit="10"/>
<path d="M74.3342 452.581L18.449 391.902C18.449 391.902 -28.0007 355.111 -47.937 338.579C-67.8733 322.047 -94.772 287.8 -106.546 253.831C-118.321 219.863 -137.296 169.406 -137.296 169.406C-137.296 169.406 -140.303 156.441 -122.473 161.655C-104.643 166.869 -101.872 181.065 -101.872 181.065C-101.872 181.065 -86.8635 181.95 -81.2679 200.478C-81.2679 200.478 -70.8164 202.989 -66.3239 214.522C-61.8313 226.055 -54.198 246.646 -54.198 246.646L-36.0346 253.301C-36.0346 253.301 -48.1557 243.587 -36.7065 228.01C-36.7065 228.01 -28.7199 220.409 -16.9441 232.294C-5.16835 244.179 37.2449 292.676 37.2449 292.676C37.2449 292.676 50.3553 309.251 50.8021 334.506L115.728 407.114C115.728 407.114 113.465 451.103 74.3342 452.581Z" stroke="#020202" stroke-width="2.51564" stroke-miterlimit="10"/>
</g>
<defs>
<linearGradient id="paint0_linear_1006_36193" x1="525.947" y1="35" x2="207.787" y2="222.06" gradientUnits="userSpaceOnUse">
<stop stop-color="#2FC8E0"/>
<stop offset="1" stop-color="#754DFE"/>
</linearGradient>
<clipPath id="clip0_1006_36193">
<rect width="704" height="385" rx="16" fill="white"/>
</clipPath>
</defs>
</svg>
