<svg width="704" height="385" viewBox="0 0 704 385" fill="none" xmlns="http://www.w3.org/2000/svg">
<g clip-path="url(#clip0_1006_25212)">
<rect width="704" height="385" rx="16" fill="white"/>
<rect width="704" height="385" fill="url(#paint0_linear_1006_25212)"/>
<path d="M593.225 295.72C592.777 296.494 592.057 297.074 591.206 297.346C590.354 297.619 589.432 297.565 588.617 297.195C587.803 296.826 587.156 296.166 586.801 295.346C586.446 294.525 586.409 293.602 586.697 292.755C586.985 291.909 587.578 291.2 588.359 290.766C589.141 290.332 590.056 290.204 590.927 290.408C591.798 290.612 592.562 291.132 593.07 291.867C593.579 292.603 593.795 293.501 593.678 294.387C593.616 294.857 593.462 295.31 593.225 295.72Z" fill="#E1458D"/>
<path d="M575.625 266C575.987 266.025 576.351 266.035 576.711 266.079C580.527 266.549 583.585 268.329 585.824 271.453C587.473 273.724 588.304 276.487 588.179 279.291C588.098 282.509 586.794 285.576 584.534 287.868C584.514 287.879 584.492 287.884 584.47 287.884C584.447 287.884 584.425 287.879 584.405 287.868C581.409 284.876 578.415 281.882 575.425 278.885C575.36 278.814 575.322 278.722 575.319 278.626C575.314 274.418 575.312 270.209 575.314 266L575.625 266Z" fill="#2FC8E0"/>
<path d="M561.001 280.625C561.026 280.987 561.035 281.352 561.08 281.711C561.549 285.527 563.329 288.585 566.454 290.824C568.724 292.474 571.487 293.304 574.291 293.179C577.509 293.098 580.576 291.795 582.868 289.534C582.879 289.514 582.884 289.492 582.884 289.47C582.884 289.447 582.879 289.425 582.868 289.406C579.876 286.409 576.882 283.416 573.885 280.425C573.814 280.36 573.722 280.322 573.626 280.319C569.418 280.314 565.209 280.312 561 280.314L561.001 280.625Z" fill="#2FC8E0"/>
<path d="M603.374 323.053C603.012 323.028 602.648 323.019 602.288 322.975C598.472 322.505 595.414 320.725 593.175 317.601C591.526 315.33 590.695 312.567 590.82 309.763C590.901 306.545 592.204 303.478 594.465 301.186C594.485 301.176 594.507 301.17 594.529 301.17C594.552 301.17 594.574 301.176 594.593 301.186C597.59 304.178 600.584 307.172 603.574 310.169C603.639 310.24 603.677 310.332 603.68 310.428C603.685 314.636 603.687 318.845 603.684 323.054L603.374 323.053Z" fill="#2FC8E0"/>
<path d="M617.999 308.429C617.974 308.066 617.965 307.702 617.92 307.343C617.45 303.527 615.67 300.468 612.546 298.229C610.275 296.58 607.512 295.75 604.709 295.874C601.49 295.956 598.424 297.259 596.132 299.52C596.121 299.539 596.115 299.561 596.115 299.584C596.115 299.606 596.121 299.628 596.132 299.648C599.123 302.645 602.118 305.638 605.115 308.629C605.186 308.694 605.278 308.731 605.374 308.735C609.582 308.74 613.79 308.741 618 308.739L617.999 308.429Z" fill="#2FC8E0"/>
<path d="M603.374 266C603.012 266.025 602.648 266.035 602.288 266.079C598.472 266.549 595.414 268.329 593.175 271.453C591.526 273.724 590.695 276.487 590.82 279.291C590.901 282.509 592.204 285.576 594.465 287.868C594.485 287.879 594.507 287.884 594.529 287.884C594.552 287.884 594.574 287.879 594.593 287.868C597.59 284.876 600.584 281.882 603.574 278.885C603.639 278.814 603.677 278.722 603.68 278.626C603.685 274.418 603.687 270.209 603.684 266L603.374 266Z" fill="#2FC8E0"/>
<path d="M617.999 280.625C617.974 280.987 617.965 281.352 617.92 281.711C617.45 285.527 615.67 288.585 612.546 290.824C610.275 292.474 607.512 293.304 604.709 293.179C601.49 293.098 598.424 291.795 596.132 289.534C596.121 289.514 596.115 289.492 596.115 289.47C596.115 289.447 596.121 289.425 596.132 289.406C599.123 286.409 602.118 283.416 605.115 280.425C605.186 280.36 605.277 280.322 605.374 280.319C609.582 280.314 613.79 280.312 618 280.314L617.999 280.625Z" fill="#2FC8E0"/>
<path d="M575.625 323.053C575.987 323.028 576.351 323.019 576.711 322.975C580.527 322.505 583.585 320.725 585.824 317.601C587.473 315.33 588.304 312.567 588.179 309.763C588.098 306.545 586.794 303.478 584.534 301.186C584.514 301.176 584.492 301.17 584.47 301.17C584.447 301.17 584.425 301.176 584.405 301.186C581.409 304.178 578.415 307.172 575.425 310.169C575.36 310.24 575.322 310.332 575.319 310.428C575.314 314.636 575.312 318.845 575.314 323.054L575.625 323.053Z" fill="#2FC8E0"/>
<path d="M561.001 308.429C561.026 308.066 561.035 307.702 561.08 307.343C561.549 303.527 563.329 300.468 566.454 298.229C568.724 296.58 571.487 295.75 574.291 295.874C577.509 295.956 580.576 297.259 582.868 299.52C582.879 299.539 582.884 299.561 582.884 299.584C582.884 299.606 582.879 299.628 582.868 299.648C579.876 302.645 576.882 305.638 573.885 308.629C573.814 308.694 573.722 308.731 573.626 308.735C569.418 308.74 565.209 308.741 561 308.739L561.001 308.429Z" fill="#2FC8E0"/>
<path fill-rule="evenodd" clip-rule="evenodd" d="M589.794 409.36L589.298 409.224C588.176 408.942 587.148 408.376 586.313 407.583C585.478 406.791 584.865 405.797 584.533 404.7C584.202 403.603 584.163 402.44 584.42 401.324C584.678 400.207 585.224 399.176 586.004 398.33C586.887 397.37 588.028 396.677 589.293 396.333L589.768 396.207L589.768 396.216L590.579 396.049C592.128 395.736 593.579 395.062 594.811 394.082C594.955 393.969 595.101 393.841 595.234 393.725L595.405 393.579L595.425 393.562L595.789 393.203L595.864 393.108C595.933 393.025 596.011 392.935 596.092 392.839C596.289 392.607 596.512 392.346 596.696 392.084C597.959 390.308 598.587 388.167 598.482 385.998C598.376 383.83 597.543 381.758 596.114 380.111C594.743 378.515 592.885 377.404 590.82 376.942C590.764 376.929 590.7 376.916 590.648 376.905C590.626 376.901 590.607 376.896 590.592 376.893L589.78 376.72L589.78 376.752L589.299 376.62C588.178 376.337 587.149 375.772 586.315 374.979C585.48 374.186 584.866 373.193 584.535 372.096C584.203 370.999 584.164 369.836 584.422 368.719C584.68 367.603 585.225 366.572 586.005 365.726C586.888 364.766 588.028 364.074 589.293 363.729L589.784 363.598L589.784 363.555L590.579 363.392C592.127 363.079 593.578 362.405 594.811 361.425C594.954 361.312 595.1 361.184 595.234 361.069L595.405 360.922L595.424 360.905L595.788 360.546L595.864 360.451C595.933 360.368 596.01 360.278 596.091 360.182C596.288 359.951 596.512 359.689 596.695 359.427C597.958 357.652 598.587 355.51 598.481 353.342C598.376 351.173 597.543 349.101 596.114 347.454C594.742 345.859 592.885 344.747 590.82 344.285C590.764 344.272 590.7 344.259 590.648 344.248C590.626 344.244 590.607 344.24 590.591 344.237L589.795 344.067L589.795 344.05L589.299 343.914C588.177 343.631 587.149 343.066 586.314 342.273C585.479 341.48 584.866 340.487 584.534 339.39C584.202 338.293 584.163 337.129 584.421 336.013C584.679 334.897 585.224 333.866 586.005 333.02C586.888 332.06 588.028 331.368 589.293 331.023L589.784 330.893L589.79 330.389C589.792 330.207 589.792 330.024 589.792 329.846L589.792 329.664L589.795 327.747L588.983 327.914C587.434 328.226 585.983 328.901 584.75 329.88C584.609 329.993 584.461 330.121 584.327 330.237C584.267 330.289 584.21 330.339 584.158 330.384L584.137 330.4L583.775 330.76L583.699 330.854L583.697 330.854C583.63 330.938 583.553 331.028 583.471 331.124C583.273 331.355 583.051 331.617 582.865 331.879C581.602 333.654 580.974 335.796 581.08 337.964C581.185 340.133 582.019 342.205 583.448 343.852C584.82 345.447 586.678 346.559 588.743 347.02C588.8 347.033 588.863 347.047 588.915 347.057L588.972 347.069L589.767 347.239L589.767 347.256L590.262 347.392C591.383 347.674 592.411 348.24 593.246 349.033C594.081 349.825 594.694 350.819 595.026 351.916C595.358 353.013 595.397 354.176 595.139 355.292C594.881 356.409 594.336 357.44 593.555 358.286C592.673 359.246 591.533 359.938 590.269 360.283L589.778 360.414L589.778 360.457L588.983 360.621C587.434 360.934 585.983 361.608 584.751 362.587C584.609 362.7 584.461 362.828 584.328 362.943C584.267 362.996 584.211 363.046 584.158 363.09L584.137 363.107L583.775 363.466L583.699 363.561L583.698 363.561C583.63 363.644 583.553 363.734 583.472 363.83C583.273 364.062 583.051 364.323 582.865 364.585C581.603 366.361 580.974 368.502 581.08 370.671C581.186 372.839 582.019 374.911 583.448 376.558C584.82 378.154 586.678 379.266 588.743 379.727C588.8 379.74 588.863 379.753 588.916 379.764C588.936 379.768 588.956 379.772 588.972 379.776L589.784 379.949L589.784 379.917L590.263 380.049C591.385 380.331 592.413 380.897 593.248 381.69C594.083 382.482 594.696 383.476 595.028 384.573C595.36 385.67 595.399 386.833 595.141 387.95C594.883 389.066 594.338 390.097 593.557 390.943C592.675 391.903 591.535 392.595 590.27 392.94L589.794 393.066L589.794 393.057L588.982 393.224C587.433 393.537 585.982 394.211 584.749 395.19C584.608 395.304 584.46 395.432 584.326 395.547C584.266 395.599 584.209 395.649 584.157 395.694L584.136 395.71L583.774 396.07L583.698 396.164L583.696 396.164C583.629 396.248 583.552 396.338 583.47 396.434C583.272 396.665 583.05 396.927 582.864 397.189C581.601 398.965 580.973 401.106 581.079 403.275C581.184 405.443 582.018 407.515 583.447 409.162C584.819 410.758 586.677 411.87 588.742 412.331C588.799 412.344 588.862 412.357 588.914 412.368L588.971 412.38L589.783 412.552L589.794 409.36ZM588.447 328.731C588.464 328.726 588.481 328.722 588.499 328.717C588.457 328.729 588.415 328.74 588.374 328.752C588.398 328.744 588.423 328.736 588.447 328.729L588.447 328.731ZM584.785 330.726C584.913 330.616 585.04 330.506 585.171 330.401C585.04 330.506 584.912 330.616 584.785 330.726ZM583.679 331.917C583.771 331.805 583.865 331.694 583.96 331.583C583.864 331.694 583.771 331.804 583.679 331.917C583.588 332.03 583.499 332.144 583.415 332.263C583.499 332.142 583.588 332.028 583.679 331.915L583.679 331.917ZM590.44 362.741C590.452 362.739 590.465 362.736 590.477 362.733C590.465 362.733 590.452 362.737 590.44 362.74L590.44 362.741ZM591.114 362.578C591.091 362.584 591.068 362.59 591.046 362.596C591.102 362.58 591.159 362.564 591.215 362.549C591.181 362.557 591.148 362.567 591.114 362.576L591.114 362.578ZM594.774 360.583C594.647 360.693 594.52 360.803 594.389 360.908C594.521 360.804 594.648 360.693 594.774 360.583ZM588.447 361.437C588.464 361.432 588.481 361.428 588.498 361.423C588.457 361.435 588.416 361.446 588.376 361.458C588.399 361.449 588.423 361.443 588.447 361.435L588.447 361.437ZM597.821 386.483C597.822 385.569 597.684 384.66 597.411 383.786C597.826 385.114 597.927 386.518 597.708 387.89C597.488 389.263 596.953 390.567 596.145 391.704C597.231 390.174 597.816 388.351 597.82 386.482L597.821 386.483ZM591.114 395.234C591.094 395.24 591.073 395.245 591.053 395.25C591.104 395.237 591.154 395.223 591.205 395.208C591.174 395.215 591.144 395.224 591.114 395.232L591.114 395.234ZM594.389 393.565C594.521 393.46 594.648 393.349 594.775 393.239C594.648 393.348 594.521 393.459 594.389 393.565ZM588.447 394.04C588.465 394.036 588.482 394.032 588.5 394.027C588.457 394.039 588.415 394.05 588.372 394.062C588.397 394.054 588.422 394.046 588.447 394.039L588.447 394.04ZM585.173 395.71C585.042 395.815 584.914 395.926 584.787 396.036C584.912 395.924 585.04 395.814 585.171 395.708L585.173 395.71ZM582.883 398.418C582.284 399.495 581.912 400.68 581.788 401.902C581.911 400.679 582.283 399.494 582.882 398.417L582.883 398.418ZM581.742 402.735C581.728 404.344 582.146 405.926 582.954 407.322C582.145 405.926 581.726 404.343 581.74 402.734L581.742 402.735Z" fill="#FED670"/>
<path d="M670.924 239.277C670.271 240.404 669.223 241.247 667.983 241.644C666.744 242.041 665.4 241.963 664.215 241.425C663.029 240.887 662.087 239.926 661.57 238.731C661.053 237.536 660.999 236.192 661.418 234.959C661.838 233.727 662.701 232.694 663.839 232.063C664.978 231.431 666.31 231.245 667.578 231.541C668.846 231.838 669.958 232.595 670.698 233.666C671.439 234.737 671.755 236.045 671.584 237.336C671.494 238.02 671.27 238.68 670.924 239.277Z" fill="#E1458D"/>
<path d="M645.296 196.001C645.823 196.037 646.354 196.051 646.877 196.115C652.434 196.799 656.887 199.391 660.148 203.941C662.549 207.247 663.758 211.271 663.577 215.353C663.459 220.04 661.561 224.505 658.269 227.842C658.24 227.858 658.208 227.867 658.175 227.867C658.143 227.867 658.111 227.858 658.082 227.842C653.718 223.486 649.359 219.126 645.005 214.762C644.91 214.659 644.856 214.525 644.851 214.385C644.843 208.257 644.841 202.129 644.844 196L645.296 196.001Z" fill="#2FC8E0"/>
<path d="M624.001 217.296C624.038 217.823 624.051 218.354 624.116 218.877C624.8 224.434 627.392 228.887 631.941 232.148C635.248 234.549 639.271 235.758 643.353 235.577C648.04 235.458 652.505 233.56 655.843 230.268C655.859 230.24 655.867 230.208 655.867 230.175C655.867 230.143 655.859 230.111 655.843 230.082C651.487 225.718 647.126 221.359 642.762 217.005C642.659 216.91 642.525 216.855 642.385 216.85C636.258 216.843 630.129 216.841 624 216.844L624.001 217.296Z" fill="#2FC8E0"/>
<path d="M685.703 279.077C685.176 279.041 684.645 279.027 684.122 278.963C678.565 278.279 674.111 275.687 670.851 271.138C668.45 267.831 667.241 263.808 667.422 259.725C667.54 255.039 669.438 250.574 672.73 247.236C672.759 247.221 672.791 247.212 672.823 247.212C672.856 247.212 672.888 247.221 672.917 247.236C677.28 251.592 681.64 255.952 685.994 260.317C686.089 260.42 686.143 260.553 686.148 260.693C686.156 266.821 686.158 272.949 686.155 279.079L685.703 279.077Z" fill="#2FC8E0"/>
<path d="M706.998 257.782C706.962 257.255 706.949 256.724 706.884 256.201C706.2 250.644 703.608 246.191 699.058 242.93C695.752 240.529 691.728 239.32 687.646 239.501C682.96 239.62 678.494 241.517 675.157 244.809C675.141 244.838 675.133 244.87 675.133 244.903C675.133 244.935 675.141 244.967 675.157 244.996C679.513 249.36 683.873 253.719 688.238 258.073C688.341 258.168 688.474 258.223 688.614 258.228C694.742 258.235 700.87 258.237 707 258.234L706.998 257.782Z" fill="#2FC8E0"/>
<path d="M685.703 196.001C685.176 196.037 684.645 196.051 684.122 196.115C678.565 196.799 674.111 199.391 670.851 203.941C668.45 207.247 667.241 211.271 667.422 215.353C667.54 220.04 669.438 224.505 672.73 227.842C672.759 227.858 672.791 227.867 672.823 227.867C672.856 227.867 672.888 227.858 672.917 227.842C677.28 223.486 681.64 219.126 685.995 214.762C686.089 214.659 686.144 214.525 686.148 214.385C686.156 208.257 686.158 202.129 686.155 196L685.703 196.001Z" fill="#2FC8E0"/>
<path d="M706.998 217.296C706.962 217.823 706.949 218.354 706.884 218.877C706.2 224.434 703.608 228.887 699.058 232.148C695.752 234.549 691.729 235.758 687.646 235.577C682.96 235.458 678.494 233.56 675.157 230.268C675.141 230.24 675.133 230.208 675.133 230.175C675.133 230.143 675.141 230.111 675.157 230.082C679.513 225.718 683.873 221.359 688.238 217.005C688.341 216.91 688.474 216.855 688.614 216.85C694.742 216.843 700.87 216.841 707 216.844L706.998 217.296Z" fill="#2FC8E0"/>
<path d="M645.296 279.077C645.823 279.041 646.354 279.027 646.877 278.963C652.434 278.279 656.887 275.687 660.148 271.138C662.549 267.831 663.758 263.808 663.577 259.725C663.458 255.039 661.561 250.574 658.269 247.236C658.24 247.221 658.208 247.212 658.175 247.212C658.143 247.212 658.111 247.221 658.082 247.236C653.718 251.592 649.359 255.952 645.005 260.317C644.91 260.42 644.856 260.553 644.851 260.693C644.843 266.821 644.841 272.949 644.844 279.079L645.296 279.077Z" fill="#2FC8E0"/>
<path d="M624.001 257.782C624.038 257.255 624.051 256.724 624.116 256.201C624.8 250.644 627.392 246.191 631.941 242.93C635.248 240.529 639.271 239.32 643.354 239.501C648.04 239.62 652.505 241.518 655.843 244.809C655.859 244.838 655.867 244.87 655.867 244.903C655.867 244.935 655.859 244.967 655.843 244.996C651.487 249.36 647.126 253.719 642.762 258.073C642.659 258.168 642.525 258.223 642.385 258.228C636.258 258.235 630.129 258.237 624 258.234L624.001 257.782Z" fill="#2FC8E0"/>
<path fill-rule="evenodd" clip-rule="evenodd" d="M665.928 404.752L665.206 404.555C663.573 404.143 662.076 403.32 660.86 402.165C659.644 401.011 658.751 399.564 658.268 397.967C657.785 396.37 657.729 394.676 658.104 393.05C658.479 391.425 659.273 389.923 660.409 388.691C661.695 387.293 663.356 386.284 665.199 385.783L665.891 385.6L665.891 385.612L667.071 385.369C669.327 384.914 671.44 383.932 673.234 382.506C673.443 382.34 673.656 382.155 673.851 381.986L674.099 381.772L674.127 381.748L674.658 381.225L674.768 381.087C674.868 380.966 674.981 380.834 675.099 380.695C675.386 380.358 675.711 379.977 675.978 379.595C677.817 377.01 678.733 373.892 678.579 370.734C678.426 367.577 677.213 364.56 675.132 362.161C673.134 359.838 670.43 358.219 667.423 357.547C667.341 357.528 667.248 357.509 667.172 357.493C667.14 357.487 667.112 357.481 667.09 357.476L665.908 357.224L665.908 357.27L665.208 357.078C663.575 356.667 662.078 355.844 660.862 354.689C659.646 353.535 658.753 352.088 658.27 350.491C657.787 348.893 657.731 347.199 658.106 345.574C658.481 343.948 659.276 342.447 660.412 341.215C661.697 339.817 663.357 338.809 665.199 338.308L665.913 338.117L665.913 338.054L667.071 337.816C669.326 337.361 671.439 336.379 673.234 334.953C673.443 334.787 673.655 334.602 673.85 334.433L674.099 334.219L674.127 334.196L674.657 333.672L674.767 333.535C674.868 333.413 674.98 333.282 675.098 333.142C675.385 332.805 675.71 332.425 675.978 332.043C677.817 329.458 678.732 326.34 678.579 323.182C678.425 320.024 677.212 317.007 675.131 314.608C673.134 312.285 670.429 310.666 667.423 309.994C667.34 309.976 667.248 309.956 667.172 309.94C667.139 309.934 667.112 309.928 667.089 309.923L665.929 309.676L665.929 309.651L665.207 309.453C663.574 309.042 662.077 308.218 660.861 307.064C659.645 305.91 658.752 304.463 658.269 302.866C657.786 301.268 657.73 299.574 658.105 297.949C658.48 296.323 659.275 294.822 660.411 293.59C661.697 292.193 663.357 291.185 665.199 290.683L665.913 290.493L665.923 289.76C665.926 289.495 665.926 289.228 665.926 288.969L665.926 288.704L665.929 285.912L664.747 286.155C662.492 286.61 660.379 287.592 658.584 289.018C658.378 289.183 658.163 289.369 657.968 289.538C657.88 289.614 657.798 289.686 657.721 289.752L657.691 289.776L657.163 290.299L657.053 290.437L657.051 290.437C656.953 290.558 656.84 290.69 656.722 290.829C656.433 291.167 656.11 291.547 655.839 291.929C654 294.514 653.085 297.632 653.239 300.79C653.393 303.948 654.607 306.965 656.688 309.363C658.686 311.686 661.391 313.305 664.398 313.977C664.481 313.996 664.573 314.015 664.649 314.031L664.732 314.048L665.889 314.295L665.889 314.32L666.609 314.518C668.242 314.929 669.739 315.753 670.955 316.907C672.171 318.062 673.064 319.508 673.547 321.105C674.03 322.703 674.087 324.397 673.711 326.022C673.336 327.648 672.542 329.149 671.406 330.381C670.12 331.779 668.461 332.787 666.619 333.289L665.905 333.48L665.905 333.542L664.748 333.781C662.493 334.237 660.38 335.218 658.585 336.644C658.378 336.809 658.163 336.995 657.969 337.163C657.881 337.239 657.798 337.312 657.722 337.377L657.692 337.401L657.164 337.925L657.054 338.062L657.051 338.062C656.953 338.183 656.841 338.315 656.722 338.455C656.433 338.792 656.11 339.172 655.839 339.554C654.001 342.139 653.086 345.258 653.24 348.415C653.394 351.573 654.607 354.59 656.688 356.988C658.686 359.312 661.391 360.931 664.399 361.602C664.481 361.621 664.573 361.641 664.65 361.656C664.68 361.663 664.708 361.668 664.732 361.674L665.914 361.925L665.914 361.879L666.612 362.071C668.245 362.483 669.742 363.306 670.958 364.46C672.174 365.615 673.067 367.061 673.55 368.659C674.033 370.256 674.089 371.95 673.714 373.576C673.339 375.201 672.544 376.703 671.408 377.934C670.123 379.332 668.464 380.341 666.622 380.842L665.928 381.026L665.928 381.013L664.746 381.256C662.491 381.712 660.378 382.693 658.583 384.119C658.376 384.284 658.162 384.47 657.967 384.639C657.879 384.715 657.796 384.787 657.72 384.853L657.69 384.876L657.162 385.4L657.052 385.537L657.05 385.537C656.951 385.659 656.839 385.791 656.72 385.93C656.432 386.267 656.108 386.648 655.838 387.029C653.999 389.615 653.084 392.733 653.238 395.891C653.392 399.049 654.605 402.066 656.687 404.464C658.684 406.787 661.39 408.406 664.397 409.078C664.479 409.097 664.571 409.116 664.648 409.132L664.73 409.149L665.912 409.401L665.928 404.752ZM663.967 287.345C663.992 287.338 664.017 287.332 664.042 287.325C663.982 287.342 663.92 287.359 663.86 287.376C663.896 287.364 663.932 287.353 663.967 287.343L663.967 287.345ZM658.635 290.25C658.82 290.09 659.006 289.93 659.197 289.776C659.007 289.929 658.82 290.09 658.635 290.25ZM657.025 291.984C657.158 291.821 657.295 291.659 657.433 291.499C657.294 291.66 657.158 291.819 657.025 291.984C656.891 292.149 656.762 292.315 656.64 292.488C656.762 292.312 656.891 292.146 657.025 291.982L657.025 291.984ZM666.869 336.869C666.887 336.865 666.905 336.861 666.923 336.857C666.905 336.857 666.887 336.863 666.869 336.867L666.869 336.869ZM667.851 336.631C667.818 336.64 667.784 336.648 667.751 336.657C667.834 336.635 667.916 336.611 667.997 336.588C667.948 336.6 667.9 336.615 667.851 336.628L667.851 336.631ZM673.181 333.726C672.995 333.886 672.81 334.046 672.619 334.2C672.812 334.047 672.996 333.886 673.181 333.726ZM663.968 334.969C663.992 334.962 664.017 334.956 664.042 334.95C663.982 334.966 663.922 334.983 663.863 335C663.898 334.988 663.932 334.979 663.967 334.967L663.968 334.969ZM677.616 371.441C677.618 370.109 677.417 368.785 677.02 367.513C677.624 369.446 677.772 371.491 677.452 373.489C677.132 375.488 676.354 377.388 675.176 379.042C676.758 376.815 677.61 374.16 677.616 371.438L677.616 371.441ZM667.851 384.183C667.821 384.192 667.791 384.199 667.762 384.207C667.836 384.186 667.909 384.166 667.983 384.145C667.938 384.155 667.895 384.169 667.851 384.18L667.851 384.183ZM672.619 381.752C672.812 381.599 672.997 381.438 673.181 381.278C672.996 381.436 672.812 381.598 672.619 381.752ZM663.968 382.445C663.993 382.438 664.019 382.432 664.044 382.425C663.982 382.442 663.92 382.459 663.858 382.477C663.894 382.464 663.931 382.453 663.967 382.442L663.968 382.445ZM659.199 384.876C659.009 385.028 658.822 385.19 658.638 385.351C658.82 385.187 659.007 385.027 659.197 384.874L659.199 384.876ZM655.866 388.82C654.994 390.387 654.451 392.112 654.27 393.892C654.45 392.112 654.991 390.385 655.863 388.817L655.866 388.82ZM654.204 395.106C654.183 397.448 654.792 399.753 655.969 401.785C654.791 399.752 654.181 397.446 654.201 395.104L654.204 395.106Z" fill="#FED670"/>
<path d="M112.536 143.332C112.536 148.601 110.595 153.143 106.712 156.956C102.829 160.769 98.08 162.676 92.464 162.676C86.5707 162.676 81.6133 160.752 77.592 156.904C73.5707 153.056 71.56 148.324 71.56 142.708C71.56 137.196 73.5187 132.516 77.436 128.668C81.388 124.82 86.172 122.896 91.788 122.896C95.9827 122.896 99.848 124.023 103.384 126.276C106.92 128.529 109.312 131.389 110.56 134.856H102.188C99.7613 131.459 96.2427 129.76 91.632 129.76C87.888 129.76 84.8027 131.025 82.376 133.556C79.9493 136.052 78.736 139.137 78.736 142.812C78.736 146.487 80.0013 149.572 82.532 152.068C85.0973 154.564 88.2693 155.812 92.048 155.812C94.5787 155.812 96.832 155.223 98.808 154.044C100.784 152.865 102.292 151.201 103.332 149.052H87.42V142.396H112.536V143.332ZM144.248 148.012C144.248 148.948 144.161 149.832 143.988 150.664H121.68C122.096 152.397 123.015 153.784 124.436 154.824C125.857 155.829 127.591 156.332 129.636 156.332C131.057 156.332 132.236 156.124 133.172 155.708C134.143 155.257 135.079 154.512 135.98 153.472H143.52C142.584 156.315 140.816 158.568 138.216 160.232C135.651 161.861 132.843 162.676 129.792 162.676C125.389 162.676 121.68 161.237 118.664 158.36C115.683 155.483 114.192 151.929 114.192 147.7C114.192 143.471 115.665 139.883 118.612 136.936C121.559 133.989 125.147 132.516 129.376 132.516C133.675 132.516 137.228 133.989 140.036 136.936C142.844 139.848 144.248 143.54 144.248 148.012ZM137.436 144.58C136.985 142.743 136.067 141.339 134.68 140.368C133.328 139.363 131.595 138.86 129.48 138.86C125.285 138.86 122.616 140.767 121.472 144.58H137.436ZM159.778 139.484H155.618V162H148.702V139.484H145.322V133.192H148.702V123.572H155.618V133.192H159.778V139.484ZM198.574 150.352C198.574 153.819 197.395 156.748 195.038 159.14C192.68 161.497 189.768 162.676 186.302 162.676C182.87 162.676 179.975 161.636 177.618 159.556C175.295 157.441 173.978 154.599 173.666 151.028H181.102C181.414 154.217 183.147 155.812 186.302 155.812C187.827 155.812 189.075 155.379 190.046 154.512C191.016 153.645 191.502 152.519 191.502 151.132C191.502 149.433 190.912 148.133 189.734 147.232C189.179 146.816 188.59 146.469 187.966 146.192C187.342 145.915 185.712 145.273 183.078 144.268C180.512 143.297 178.536 141.928 177.15 140.16C175.763 138.357 175.07 136.243 175.07 133.816C175.07 130.765 176.162 128.183 178.346 126.068C180.53 123.953 183.164 122.896 186.25 122.896C189.404 122.896 192.039 123.884 194.154 125.86C196.303 127.836 197.464 130.488 197.638 133.816H190.254C190.15 132.499 189.751 131.493 189.058 130.8C188.364 130.107 187.411 129.76 186.198 129.76C185.019 129.76 184.066 130.124 183.338 130.852C182.61 131.58 182.246 132.516 182.246 133.66C182.246 135.081 182.956 136.243 184.378 137.144C184.759 137.387 186.18 137.959 188.642 138.86C192.386 140.247 194.968 141.824 196.39 143.592C197.846 145.36 198.574 147.613 198.574 150.352ZM214.345 139.484H210.185V162H203.269V139.484H199.889V133.192H203.269V123.572H210.185V133.192H214.345V139.484ZM245.443 162H239.099V158.256C237.712 159.816 236.274 160.943 234.783 161.636C233.292 162.329 231.542 162.676 229.531 162.676C225.336 162.676 221.87 161.272 219.131 158.464C216.392 155.621 215.023 152.033 215.023 147.7C215.023 143.297 216.392 139.675 219.131 136.832C221.904 133.955 225.423 132.516 229.687 132.516C233.674 132.516 236.811 134.024 239.099 137.04V133.192H245.443V162ZM238.891 147.804C238.891 145.169 238.094 143.02 236.499 141.356C234.904 139.692 232.876 138.86 230.415 138.86C227.954 138.86 225.926 139.709 224.331 141.408C222.771 143.072 221.991 145.221 221.991 147.856C221.991 150.387 222.771 152.432 224.331 153.992C225.926 155.552 227.988 156.332 230.519 156.332C233.084 156.332 235.112 155.535 236.603 153.94C238.128 152.311 238.891 150.265 238.891 147.804ZM262.663 139.172C258.538 139.276 256.475 141.547 256.475 145.984V162H249.559V133.192H255.903V136C256.805 134.683 257.689 133.781 258.555 133.296C259.457 132.776 260.653 132.516 262.143 132.516H262.663V139.172ZM278.053 139.484H273.893V162H266.977V139.484H263.597V133.192H266.977V123.572H273.893V133.192H278.053V139.484ZM308.787 148.012C308.787 148.948 308.701 149.832 308.527 150.664H286.219C286.635 152.397 287.554 153.784 288.975 154.824C290.397 155.829 292.13 156.332 294.175 156.332C295.597 156.332 296.775 156.124 297.711 155.708C298.682 155.257 299.618 154.512 300.519 153.472H308.059C307.123 156.315 305.355 158.568 302.755 160.232C300.19 161.861 297.382 162.676 294.331 162.676C289.929 162.676 286.219 161.237 283.203 158.36C280.222 155.483 278.731 151.929 278.731 147.7C278.731 143.471 280.205 139.883 283.151 136.936C286.098 133.989 289.686 132.516 293.915 132.516C298.214 132.516 301.767 133.989 304.575 136.936C307.383 139.848 308.787 143.54 308.787 148.012ZM301.975 144.58C301.525 142.743 300.606 141.339 299.219 140.368C297.867 139.363 296.134 138.86 294.019 138.86C289.825 138.86 287.155 140.767 286.011 144.58H301.975ZM341.269 162H334.925V158.256C332.325 161.203 329.153 162.676 325.409 162.676C321.318 162.676 317.886 161.22 315.113 158.308C312.34 155.396 310.953 151.808 310.953 147.544C310.953 143.245 312.34 139.605 315.113 136.624C317.921 133.643 321.336 132.152 325.357 132.152C329.17 132.152 332.169 133.348 334.353 135.74V123.572H341.269V162ZM334.873 147.44C334.873 144.909 334.058 142.795 332.429 141.096C330.8 139.363 328.772 138.496 326.345 138.496C323.988 138.496 321.994 139.345 320.365 141.044C318.736 142.708 317.921 144.771 317.921 147.232C317.921 149.797 318.736 151.964 320.365 153.732C322.029 155.465 324.074 156.332 326.501 156.332C328.858 156.332 330.834 155.483 332.429 153.784C334.058 152.051 334.873 149.936 334.873 147.44ZM397.035 133.192L386.635 162H382.319L376.859 143.332L371.295 162H367.031L356.735 133.192H364.171L369.319 150.768L374.155 133.192H379.667L384.399 150.768L389.651 133.192H397.035ZM406.489 162H399.573V133.192H406.489V162ZM406.541 129.032H399.625V122.116H406.541V129.032ZM423.141 139.484H418.981V162H412.065V139.484H408.685V133.192H412.065V123.572H418.981V133.192H423.141V139.484ZM451.615 162H444.699V147.284C444.699 144.268 444.266 142.119 443.399 140.836C442.532 139.519 441.094 138.86 439.083 138.86C437.038 138.86 435.512 139.519 434.507 140.836C433.502 142.119 432.999 144.303 432.999 147.388V162H426.083V123.572H432.999V135.168C435.01 133.365 437.454 132.464 440.331 132.464C447.854 132.464 451.615 136.884 451.615 145.724V162ZM509.485 143.332C509.485 148.601 507.544 153.143 503.661 156.956C499.778 160.769 495.029 162.676 489.413 162.676C483.52 162.676 478.562 160.752 474.541 156.904C470.52 153.056 468.509 148.324 468.509 142.708C468.509 137.196 470.468 132.516 474.385 128.668C478.337 124.82 483.121 122.896 488.737 122.896C492.932 122.896 496.797 124.023 500.333 126.276C503.869 128.529 506.261 131.389 507.509 134.856H499.137C496.71 131.459 493.192 129.76 488.581 129.76C484.837 129.76 481.752 131.025 479.325 133.556C476.898 136.052 475.685 139.137 475.685 142.812C475.685 146.487 476.95 149.572 479.481 152.068C482.046 154.564 485.218 155.812 488.997 155.812C491.528 155.812 493.781 155.223 495.757 154.044C497.733 152.865 499.241 151.201 500.281 149.052H484.369V142.396H509.485V143.332ZM519.305 162H512.389V133.192H519.305V162ZM519.357 129.032H512.441V122.116H519.357V129.032ZM549.789 133.192L538.193 162H532.681L521.085 133.192H528.781L535.437 152.276L541.989 133.192H549.789ZM579.132 148.012C579.132 148.948 579.046 149.832 578.872 150.664H556.564C556.98 152.397 557.899 153.784 559.32 154.824C560.742 155.829 562.475 156.332 564.52 156.332C565.942 156.332 567.12 156.124 568.056 155.708C569.027 155.257 569.963 154.512 570.864 153.472H578.404C577.468 156.315 575.7 158.568 573.1 160.232C570.535 161.861 567.727 162.676 564.676 162.676C560.274 162.676 556.564 161.237 553.548 158.36C550.567 155.483 549.076 151.929 549.076 147.7C549.076 143.471 550.55 139.883 553.496 136.936C556.443 133.989 560.031 132.516 564.26 132.516C568.559 132.516 572.112 133.989 574.92 136.936C577.728 139.848 579.132 143.54 579.132 148.012ZM572.32 144.58C571.87 142.743 570.951 141.339 569.564 140.368C568.212 139.363 566.479 138.86 564.364 138.86C560.17 138.86 557.5 140.767 556.356 144.58H572.32ZM594.662 139.484H590.502V162H583.586V139.484H580.206V133.192H583.586V123.572H590.502V133.192H594.662V139.484ZM623.136 162H616.22V147.284C616.22 144.268 615.786 142.119 614.92 140.836C614.053 139.519 612.614 138.86 610.604 138.86C608.558 138.86 607.033 139.519 606.028 140.836C605.022 142.119 604.52 144.303 604.52 147.388V162H597.604V123.572H604.52V135.168C606.53 133.365 608.974 132.464 611.852 132.464C619.374 132.464 623.136 136.884 623.136 145.724V162Z" fill="white"/>
<path d="M93.328 227H90.736L87.312 219.032H76.304L72.848 227H70.352L80.496 203.352H83.152L93.328 227ZM86.384 216.888L81.84 206.04L77.2 216.888H86.384ZM113.475 221.976C113.475 223.576 112.973 224.888 111.971 225.912C110.989 226.915 109.709 227.416 108.131 227.416C106.445 227.416 105.08 226.915 104.035 225.912C103.011 224.888 102.499 223.533 102.499 221.848H104.835C104.835 222.893 105.133 223.725 105.731 224.344C106.349 224.941 107.149 225.24 108.131 225.24C108.984 225.24 109.688 224.952 110.243 224.376C110.797 223.8 111.075 223.075 111.075 222.2C111.075 221.347 110.84 220.707 110.371 220.28C109.923 219.853 109.027 219.373 107.683 218.84C106.445 218.349 105.677 218.029 105.379 217.88C105.101 217.731 104.792 217.485 104.451 217.144C103.576 216.333 103.139 215.288 103.139 214.008C103.139 212.579 103.608 211.405 104.547 210.488C105.485 209.549 106.669 209.08 108.099 209.08C109.528 209.08 110.701 209.528 111.619 210.424C112.557 211.299 113.027 212.429 113.027 213.816H110.627C110.627 213.005 110.392 212.376 109.923 211.928C109.475 211.48 108.856 211.256 108.067 211.256C107.363 211.256 106.765 211.501 106.275 211.992C105.784 212.483 105.539 213.08 105.539 213.784C105.539 214.787 106.072 215.555 107.139 216.088C107.565 216.301 108.664 216.771 110.435 217.496C112.461 218.349 113.475 219.843 113.475 221.976ZM124.785 211.64H120.849V227H118.481V211.64H114.705V209.496H118.481V203.352H120.849V209.496H124.785V211.64ZM143.585 219.032H127.745C127.83 220.76 128.534 222.232 129.857 223.448C131.201 224.643 132.769 225.24 134.561 225.24C135.883 225.24 137.11 224.877 138.241 224.152C139.371 223.405 140.182 222.435 140.673 221.24H143.137C142.561 222.968 141.473 224.429 139.873 225.624C138.294 226.819 136.545 227.416 134.625 227.416C132.043 227.416 129.857 226.531 128.065 224.76C126.273 222.968 125.377 220.771 125.377 218.168C125.377 215.629 126.251 213.485 128.001 211.736C129.771 209.965 131.926 209.08 134.465 209.08C137.11 209.08 139.286 209.987 140.993 211.8C142.721 213.592 143.585 216.003 143.585 219.032ZM141.217 216.888C140.811 215.139 140.001 213.763 138.785 212.76C137.59 211.757 136.139 211.256 134.433 211.256C132.769 211.256 131.329 211.779 130.113 212.824C128.897 213.848 128.129 215.203 127.809 216.888H141.217ZM165.005 218.296C165.005 220.856 164.109 223.021 162.317 224.792C160.525 226.541 158.328 227.416 155.725 227.416C152.738 227.416 150.466 226.275 148.909 223.992V233.144H146.541V209.496H148.909V212.504C150.424 210.221 152.717 209.08 155.789 209.08C158.392 209.08 160.578 209.965 162.349 211.736C164.12 213.507 165.005 215.693 165.005 218.296ZM162.605 218.296C162.605 216.291 161.944 214.616 160.621 213.272C159.298 211.928 157.656 211.256 155.693 211.256C153.752 211.256 152.109 211.928 150.765 213.272C149.421 214.595 148.749 216.227 148.749 218.168C148.749 220.195 149.41 221.88 150.733 223.224C152.056 224.568 153.72 225.24 155.725 225.24C157.666 225.24 159.298 224.579 160.621 223.256C161.944 221.912 162.605 220.259 162.605 218.296ZM175.682 219.544H167.01V217.528H175.682V219.544ZM196.803 218.232C196.803 220.856 195.917 223.043 194.147 224.792C192.397 226.541 190.2 227.416 187.555 227.416C186.125 227.416 184.813 227.117 183.619 226.52C182.424 225.923 181.453 225.08 180.707 223.992V227H178.339V203.352H180.707V212.504C182.264 210.221 184.557 209.08 187.587 209.08C190.189 209.08 192.376 209.965 194.147 211.736C195.917 213.485 196.803 215.651 196.803 218.232ZM194.403 218.168C194.403 216.205 193.741 214.563 192.419 213.24C191.117 211.917 189.485 211.256 187.523 211.256C185.56 211.256 183.907 211.928 182.563 213.272C181.219 214.595 180.547 216.227 180.547 218.168C180.547 220.109 181.219 221.773 182.563 223.16C183.928 224.547 185.571 225.24 187.491 225.24C189.453 225.24 191.096 224.568 192.419 223.224C193.741 221.859 194.403 220.173 194.403 218.168ZM213.867 209.496L203.755 233.144H201.227L204.075 226.424L197.291 209.496H199.883L205.419 223.448L211.339 209.496H213.867ZM223.503 219.544H214.831V217.528H223.503V219.544ZM235.696 221.976C235.696 223.576 235.194 224.888 234.192 225.912C233.21 226.915 231.93 227.416 230.352 227.416C228.666 227.416 227.301 226.915 226.256 225.912C225.232 224.888 224.72 223.533 224.72 221.848H227.056C227.056 222.893 227.354 223.725 227.952 224.344C228.57 224.941 229.37 225.24 230.352 225.24C231.205 225.24 231.909 224.952 232.464 224.376C233.018 223.8 233.296 223.075 233.296 222.2C233.296 221.347 233.061 220.707 232.592 220.28C232.144 219.853 231.248 219.373 229.904 218.84C228.666 218.349 227.898 218.029 227.6 217.88C227.322 217.731 227.013 217.485 226.672 217.144C225.797 216.333 225.36 215.288 225.36 214.008C225.36 212.579 225.829 211.405 226.768 210.488C227.706 209.549 228.89 209.08 230.32 209.08C231.749 209.08 232.922 209.528 233.84 210.424C234.778 211.299 235.248 212.429 235.248 213.816H232.848C232.848 213.005 232.613 212.376 232.144 211.928C231.696 211.48 231.077 211.256 230.288 211.256C229.584 211.256 228.986 211.501 228.496 211.992C228.005 212.483 227.76 213.08 227.76 213.784C227.76 214.787 228.293 215.555 229.36 216.088C229.786 216.301 230.885 216.771 232.656 217.496C234.682 218.349 235.696 219.843 235.696 221.976ZM247.006 211.64H243.07V227H240.702V211.64H236.926V209.496H240.702V203.352H243.07V209.496H247.006V211.64ZM265.806 219.032H249.966C250.051 220.76 250.755 222.232 252.078 223.448C253.422 224.643 254.99 225.24 256.782 225.24C258.104 225.24 259.331 224.877 260.462 224.152C261.592 223.405 262.403 222.435 262.894 221.24H265.358C264.782 222.968 263.694 224.429 262.094 225.624C260.515 226.819 258.766 227.416 256.846 227.416C254.264 227.416 252.078 226.531 250.286 224.76C248.494 222.968 247.598 220.771 247.598 218.168C247.598 215.629 248.472 213.485 250.222 211.736C251.992 209.965 254.147 209.08 256.686 209.08C259.331 209.08 261.507 209.987 263.214 211.8C264.942 213.592 265.806 216.003 265.806 219.032ZM263.438 216.888C263.032 215.139 262.222 213.763 261.006 212.76C259.811 211.757 258.36 211.256 256.654 211.256C254.99 211.256 253.55 211.779 252.334 212.824C251.118 213.848 250.35 215.203 250.03 216.888H263.438ZM287.226 218.296C287.226 220.856 286.33 223.021 284.538 224.792C282.746 226.541 280.549 227.416 277.946 227.416C274.96 227.416 272.688 226.275 271.13 223.992V233.144H268.762V209.496H271.13V212.504C272.645 210.221 274.938 209.08 278.01 209.08C280.613 209.08 282.8 209.965 284.57 211.736C286.341 213.507 287.226 215.693 287.226 218.296ZM284.826 218.296C284.826 216.291 284.165 214.616 282.842 213.272C281.52 211.928 279.877 211.256 277.914 211.256C275.973 211.256 274.33 211.928 272.986 213.272C271.642 214.595 270.97 216.227 270.97 218.168C270.97 220.195 271.632 221.88 272.954 223.224C274.277 224.568 275.941 225.24 277.946 225.24C279.888 225.24 281.52 224.579 282.842 223.256C284.165 221.912 284.826 220.259 284.826 218.296ZM317.274 218.232C317.274 220.856 316.388 223.043 314.618 224.792C312.868 226.541 310.671 227.416 308.026 227.416C306.596 227.416 305.284 227.117 304.09 226.52C302.895 225.923 301.924 225.08 301.178 223.992V227H298.81V203.352H301.178V212.504C302.735 210.221 305.028 209.08 308.058 209.08C310.66 209.08 312.847 209.965 314.618 211.736C316.388 213.485 317.274 215.651 317.274 218.232ZM314.874 218.168C314.874 216.205 314.212 214.563 312.89 213.24C311.588 211.917 309.956 211.256 307.994 211.256C306.031 211.256 304.378 211.928 303.034 213.272C301.69 214.595 301.018 216.227 301.018 218.168C301.018 220.109 301.69 221.773 303.034 223.16C304.399 224.547 306.042 225.24 307.962 225.24C309.924 225.24 311.567 224.568 312.89 223.224C314.212 221.859 314.874 220.173 314.874 218.168ZM337.838 219.032H321.998C322.084 220.76 322.788 222.232 324.11 223.448C325.454 224.643 327.022 225.24 328.814 225.24C330.137 225.24 331.364 224.877 332.494 224.152C333.625 223.405 334.436 222.435 334.926 221.24H337.39C336.814 222.968 335.726 224.429 334.126 225.624C332.548 226.819 330.798 227.416 328.878 227.416C326.297 227.416 324.11 226.531 322.318 224.76C320.526 222.968 319.63 220.771 319.63 218.168C319.63 215.629 320.505 213.485 322.254 211.736C324.025 209.965 326.18 209.08 328.718 209.08C331.364 209.08 333.54 209.987 335.246 211.8C336.974 213.592 337.838 216.003 337.838 219.032ZM335.47 216.888C335.065 215.139 334.254 213.763 333.038 212.76C331.844 211.757 330.393 211.256 328.686 211.256C327.022 211.256 325.582 211.779 324.366 212.824C323.15 213.848 322.382 215.203 322.062 216.888H335.47ZM358.299 223.864C358.299 225.571 358.171 226.936 357.915 227.96C357.68 229.005 357.264 229.933 356.667 230.744C355.088 232.835 352.72 233.88 349.563 233.88C347.365 233.88 345.509 233.336 343.995 232.248C342.48 231.16 341.403 229.592 340.763 227.544H343.067C343.941 229.101 344.859 230.179 345.819 230.776C346.779 231.395 348.005 231.704 349.499 231.704C351.611 231.704 353.211 231.096 354.299 229.88C355.387 228.685 355.931 226.936 355.931 224.632V223.448C354.587 226.093 352.357 227.416 349.243 227.416C346.683 227.416 344.517 226.541 342.747 224.792C340.997 223.043 340.123 220.888 340.123 218.328C340.123 215.683 340.976 213.485 342.683 211.736C344.389 209.965 346.523 209.08 349.083 209.08C351.92 209.08 354.203 210.253 355.931 212.6V209.496H358.299V223.864ZM355.931 218.04C355.931 216.141 355.28 214.541 353.979 213.24C352.677 211.917 351.088 211.256 349.211 211.256C347.269 211.256 345.669 211.907 344.411 213.208C343.152 214.488 342.523 216.131 342.523 218.136C342.523 220.163 343.163 221.859 344.443 223.224C345.723 224.568 347.323 225.24 349.243 225.24C351.141 225.24 352.731 224.557 354.011 223.192C355.291 221.805 355.931 220.088 355.931 218.04ZM364.374 227H362.006V209.496H364.374V227ZM364.374 207.576H362.006V203.544H364.374V207.576ZM383.58 227H381.212V217.816C381.212 213.443 379.41 211.256 375.804 211.256C374.14 211.256 372.828 211.757 371.868 212.76C370.93 213.763 370.46 215.299 370.46 217.368V227H368.092V209.496H370.46V211.768C371.932 209.976 373.81 209.08 376.092 209.08C378.396 209.08 380.22 209.805 381.564 211.256C382.908 212.685 383.58 214.872 383.58 217.816V227ZM402.792 227H400.424V217.816C400.424 213.443 398.621 211.256 395.016 211.256C393.352 211.256 392.04 211.757 391.08 212.76C390.141 213.763 389.672 215.299 389.672 217.368V227H387.304V209.496H389.672V211.768C391.144 209.976 393.021 209.08 395.304 209.08C397.608 209.08 399.432 209.805 400.776 211.256C402.12 212.685 402.792 214.872 402.792 217.816V227ZM424.051 219.032H408.211C408.296 220.76 409 222.232 410.323 223.448C411.667 224.643 413.235 225.24 415.027 225.24C416.349 225.24 417.576 224.877 418.707 224.152C419.837 223.405 420.648 222.435 421.139 221.24H423.603C423.027 222.968 421.939 224.429 420.339 225.624C418.76 226.819 417.011 227.416 415.091 227.416C412.509 227.416 410.323 226.531 408.531 224.76C406.739 222.968 405.843 220.771 405.843 218.168C405.843 215.629 406.717 213.485 408.467 211.736C410.237 209.965 412.392 209.08 414.931 209.08C417.576 209.08 419.752 209.987 421.459 211.8C423.187 213.592 424.051 216.003 424.051 219.032ZM421.683 216.888C421.277 215.139 420.467 213.763 419.251 212.76C418.056 211.757 416.605 211.256 414.899 211.256C413.235 211.256 411.795 211.779 410.579 212.824C409.363 213.848 408.595 215.203 408.275 216.888H421.683ZM434.335 211.416C431.029 211.736 429.375 213.528 429.375 216.792V227H427.007V209.496H429.375V211.992C429.845 211.032 430.474 210.328 431.263 209.88C432.053 209.411 433.077 209.144 434.335 209.08V211.416ZM442.08 203.352L439.264 209.496H436.896L439.712 203.352H442.08ZM455.622 221.976C455.622 223.576 455.121 224.888 454.118 225.912C453.137 226.915 451.857 227.416 450.278 227.416C448.593 227.416 447.227 226.915 446.182 225.912C445.158 224.888 444.646 223.533 444.646 221.848H446.982C446.982 222.893 447.281 223.725 447.878 224.344C448.497 224.941 449.297 225.24 450.278 225.24C451.131 225.24 451.835 224.952 452.39 224.376C452.945 223.8 453.222 223.075 453.222 222.2C453.222 221.347 452.987 220.707 452.518 220.28C452.07 219.853 451.174 219.373 449.83 218.84C448.593 218.349 447.825 218.029 447.526 217.88C447.249 217.731 446.939 217.485 446.598 217.144C445.723 216.333 445.286 215.288 445.286 214.008C445.286 212.579 445.755 211.405 446.694 210.488C447.633 209.549 448.817 209.08 450.246 209.08C451.675 209.08 452.849 209.528 453.766 210.424C454.705 211.299 455.174 212.429 455.174 213.816H452.774C452.774 213.005 452.539 212.376 452.07 211.928C451.622 211.48 451.003 211.256 450.214 211.256C449.51 211.256 448.913 211.501 448.422 211.992C447.931 212.483 447.686 213.08 447.686 213.784C447.686 214.787 448.219 215.555 449.286 216.088C449.713 216.301 450.811 216.771 452.582 217.496C454.609 218.349 455.622 219.843 455.622 221.976ZM484.231 223.864C484.231 225.571 484.103 226.936 483.847 227.96C483.613 229.005 483.197 229.933 482.599 230.744C481.021 232.835 478.653 233.88 475.495 233.88C473.298 233.88 471.442 233.336 469.927 232.248C468.413 231.16 467.335 229.592 466.695 227.544H468.999C469.874 229.101 470.791 230.179 471.751 230.776C472.711 231.395 473.938 231.704 475.431 231.704C477.543 231.704 479.143 231.096 480.231 229.88C481.319 228.685 481.863 226.936 481.863 224.632V223.448C480.519 226.093 478.29 227.416 475.175 227.416C472.615 227.416 470.45 226.541 468.679 224.792C466.93 223.043 466.055 220.888 466.055 218.328C466.055 215.683 466.909 213.485 468.615 211.736C470.322 209.965 472.455 209.08 475.015 209.08C477.853 209.08 480.135 210.253 481.863 212.6V209.496H484.231V223.864ZM481.863 218.04C481.863 216.141 481.213 214.541 479.911 213.24C478.61 211.917 477.021 211.256 475.143 211.256C473.202 211.256 471.602 211.907 470.343 213.208C469.085 214.488 468.455 216.131 468.455 218.136C468.455 220.163 469.095 221.859 470.375 223.224C471.655 224.568 473.255 225.24 475.175 225.24C477.074 225.24 478.663 224.557 479.943 223.192C481.223 221.805 481.863 220.088 481.863 218.04ZM503.362 227H500.994V224.28C499.864 226.371 497.986 227.416 495.362 227.416C490.413 227.416 487.938 224.589 487.938 218.936V209.496H490.306V218.936C490.306 223.139 492.056 225.24 495.554 225.24C497.24 225.24 498.562 224.685 499.522 223.576C500.504 222.467 500.994 220.771 500.994 218.488V209.496H503.362V227ZM509.455 227H507.087V209.496H509.455V227ZM509.455 207.576H507.087V203.544H509.455V207.576ZM531.062 227H528.694V223.832C527.819 225.091 526.848 226.008 525.782 226.584C524.736 227.139 523.488 227.416 522.038 227.416C519.328 227.416 517.056 226.541 515.222 224.792C513.408 223.043 512.502 220.867 512.502 218.264C512.502 215.661 513.387 213.485 515.158 211.736C516.95 209.965 519.168 209.08 521.814 209.08C524.63 209.08 526.923 210.147 528.694 212.28V203.352H531.062V227ZM526.774 223.16C528.118 221.773 528.79 220.12 528.79 218.2C528.79 216.28 528.096 214.648 526.71 213.304C525.344 211.939 523.691 211.256 521.75 211.256C519.851 211.256 518.23 211.928 516.886 213.272C515.563 214.616 514.902 216.248 514.902 218.168C514.902 220.173 515.574 221.859 516.918 223.224C518.283 224.568 519.968 225.24 521.974 225.24C523.851 225.24 525.451 224.547 526.774 223.16ZM552.296 219.032H536.456C536.541 220.76 537.245 222.232 538.568 223.448C539.912 224.643 541.48 225.24 543.272 225.24C544.594 225.24 545.821 224.877 546.952 224.152C548.082 223.405 548.893 222.435 549.384 221.24H551.848C551.272 222.968 550.184 224.429 548.584 225.624C547.005 226.819 545.256 227.416 543.336 227.416C540.754 227.416 538.568 226.531 536.776 224.76C534.984 222.968 534.088 220.771 534.088 218.168C534.088 215.629 534.962 213.485 536.712 211.736C538.482 209.965 540.637 209.08 543.176 209.08C545.821 209.08 547.997 209.987 549.704 211.8C551.432 213.592 552.296 216.003 552.296 219.032ZM549.928 216.888C549.522 215.139 548.712 213.763 547.496 212.76C546.301 211.757 544.85 211.256 543.144 211.256C541.48 211.256 540.04 211.779 538.824 212.824C537.608 213.848 536.84 215.203 536.52 216.888H549.928ZM572.255 211.64H568.319V227H565.951V211.64H562.175V209.496H565.951V203.352H568.319V209.496H572.255V211.64ZM591.119 218.296C591.119 220.92 590.276 223.096 588.591 224.824C586.905 226.552 584.783 227.416 582.223 227.416C579.513 227.416 577.273 226.541 575.503 224.792C573.732 223.043 572.847 220.824 572.847 218.136C572.847 215.576 573.721 213.432 575.471 211.704C577.241 209.955 579.428 209.08 582.031 209.08C584.655 209.08 586.82 209.955 588.527 211.704C590.255 213.432 591.119 215.629 591.119 218.296ZM588.719 218.328C588.719 216.301 588.079 214.616 586.799 213.272C585.54 211.928 583.951 211.256 582.031 211.256C580.089 211.256 578.468 211.917 577.167 213.24C575.887 214.563 575.247 216.216 575.247 218.2C575.247 220.248 575.897 221.933 577.199 223.256C578.5 224.579 580.153 225.24 582.159 225.24C584.057 225.24 585.625 224.589 586.863 223.288C588.1 221.987 588.719 220.333 588.719 218.328ZM80.464 258.64H76.528V274H74.16V258.64H70.384V256.496H74.16V250.352H76.528V256.496H80.464V258.64ZM98.0278 274H95.6598V264.592C95.6598 262.48 95.1691 260.901 94.1878 259.856C93.2278 258.789 91.9158 258.256 90.2518 258.256C88.6518 258.256 87.3611 258.768 86.3798 259.792C85.3984 260.816 84.9078 262.352 84.9078 264.4V274H82.5398V250.352H84.9078V258.768C86.1451 256.976 88.0011 256.08 90.4758 256.08C92.8224 256.08 94.6678 256.795 96.0118 258.224C97.3558 259.632 98.0278 261.755 98.0278 264.592V274ZM119.287 266.032H103.447C103.532 267.76 104.236 269.232 105.559 270.448C106.903 271.643 108.471 272.24 110.263 272.24C111.586 272.24 112.812 271.877 113.943 271.152C115.074 270.405 115.884 269.435 116.375 268.24H118.839C118.263 269.968 117.175 271.429 115.575 272.624C113.996 273.819 112.247 274.416 110.327 274.416C107.746 274.416 105.559 273.531 103.767 271.76C101.975 269.968 101.079 267.771 101.079 265.168C101.079 262.629 101.954 260.485 103.703 258.736C105.474 256.965 107.628 256.08 110.167 256.08C112.812 256.08 114.988 256.987 116.695 258.8C118.423 260.592 119.287 263.003 119.287 266.032ZM116.919 263.888C116.514 262.139 115.703 260.763 114.487 259.76C113.292 258.757 111.842 258.256 110.135 258.256C108.471 258.256 107.031 258.779 105.815 259.824C104.599 260.848 103.831 262.203 103.511 263.888H116.919ZM143.215 252.496H133.583V261.04H142.863V263.184H133.583V274H131.215V250.352H143.215V252.496ZM161.121 274H158.753V271.28C157.623 273.371 155.745 274.416 153.121 274.416C148.172 274.416 145.697 271.589 145.697 265.936V256.496H148.065V265.936C148.065 270.139 149.815 272.24 153.313 272.24C154.999 272.24 156.321 271.685 157.281 270.576C158.263 269.467 158.753 267.771 158.753 265.488V256.496H161.121V274ZM173.294 258.64H169.358V274H166.99V258.64H163.214V256.496H166.99V250.352H169.358V256.496H173.294V258.64ZM190.794 274H188.426V271.28C187.295 273.371 185.418 274.416 182.794 274.416C177.844 274.416 175.37 271.589 175.37 265.936V256.496H177.738V265.936C177.738 270.139 179.487 272.24 182.986 272.24C184.671 272.24 185.994 271.685 186.954 270.576C187.935 269.467 188.426 267.771 188.426 265.488V256.496H190.794V274ZM201.847 258.416C198.54 258.736 196.887 260.528 196.887 263.792V274H194.519V256.496H196.887V258.992C197.356 258.032 197.985 257.328 198.775 256.88C199.564 256.411 200.588 256.144 201.847 256.08V258.416ZM220.391 266.032H204.551C204.636 267.76 205.34 269.232 206.663 270.448C208.007 271.643 209.575 272.24 211.367 272.24C212.689 272.24 213.916 271.877 215.047 271.152C216.177 270.405 216.988 269.435 217.479 268.24H219.943C219.367 269.968 218.279 271.429 216.679 272.624C215.1 273.819 213.351 274.416 211.431 274.416C208.849 274.416 206.663 273.531 204.871 271.76C203.079 269.968 202.183 267.771 202.183 265.168C202.183 262.629 203.057 260.485 204.807 258.736C206.577 256.965 208.732 256.08 211.271 256.08C213.916 256.08 216.092 256.987 217.799 258.8C219.527 260.592 220.391 263.003 220.391 266.032ZM218.023 263.888C217.617 262.139 216.807 260.763 215.591 259.76C214.396 258.757 212.945 258.256 211.239 258.256C209.575 258.256 208.135 258.779 206.919 259.824C205.703 260.848 204.935 262.203 204.615 263.888H218.023ZM249.502 265.296C249.502 267.92 248.66 270.096 246.974 271.824C245.289 273.552 243.166 274.416 240.606 274.416C237.897 274.416 235.657 273.541 233.886 271.792C232.116 270.043 231.23 267.824 231.23 265.136C231.23 262.576 232.105 260.432 233.854 258.704C235.625 256.955 237.812 256.08 240.414 256.08C243.038 256.08 245.204 256.955 246.91 258.704C248.638 260.432 249.502 262.629 249.502 265.296ZM247.102 265.328C247.102 263.301 246.462 261.616 245.182 260.272C243.924 258.928 242.334 258.256 240.414 258.256C238.473 258.256 236.852 258.917 235.55 260.24C234.27 261.563 233.63 263.216 233.63 265.2C233.63 267.248 234.281 268.933 235.582 270.256C236.884 271.579 238.537 272.24 240.542 272.24C242.441 272.24 244.009 271.589 245.246 270.288C246.484 268.987 247.102 267.333 247.102 265.328ZM260.487 258.64H256.135V274H253.767V258.64H251.047V256.496H253.767C253.703 252.4 255.943 250.352 260.487 250.352V252.496C258.866 252.496 257.724 252.805 257.063 253.424C256.423 254.021 256.114 255.045 256.135 256.496H260.487V258.64ZM295.425 263.088C295.233 266.16 293.974 268.816 291.649 271.056C289.323 273.296 286.475 274.416 283.105 274.416C279.478 274.416 276.427 273.232 273.953 270.864C271.478 268.496 270.241 265.584 270.241 262.128C270.241 258.715 271.446 255.835 273.857 253.488C276.289 251.12 279.265 249.936 282.785 249.936C285.366 249.936 287.681 250.555 289.729 251.792C291.777 253.029 293.195 254.651 293.985 256.656H291.329C290.518 255.227 289.377 254.117 287.905 253.328C286.454 252.517 284.811 252.112 282.977 252.112C280.054 252.112 277.601 253.083 275.617 255.024C273.633 256.965 272.641 259.355 272.641 262.192C272.641 265.008 273.643 267.387 275.649 269.328C277.654 271.269 280.107 272.24 283.009 272.24C285.291 272.24 287.339 271.557 289.153 270.192C290.987 268.805 292.129 267.152 292.577 265.232H279.361V263.088H295.425ZM300.803 274H298.435V256.496H300.803V274ZM300.803 254.576H298.435V250.544H300.803V254.576ZM319.977 256.496L312.617 274H310.121L302.761 256.496H305.161L311.305 271.216L317.577 256.496H319.977ZM324.288 274H321.92V256.496H324.288V274ZM324.288 254.576H321.92V250.544H324.288V254.576ZM343.494 274H341.126V264.816C341.126 260.443 339.323 258.256 335.718 258.256C334.054 258.256 332.742 258.757 331.782 259.76C330.843 260.763 330.374 262.299 330.374 264.368V274H328.006V256.496H330.374V258.768C331.846 256.976 333.723 256.08 336.006 256.08C338.31 256.08 340.134 256.805 341.478 258.256C342.822 259.685 343.494 261.872 343.494 264.816V274ZM364.721 270.864C364.721 272.571 364.593 273.936 364.337 274.96C364.103 276.005 363.687 276.933 363.089 277.744C361.511 279.835 359.143 280.88 355.985 280.88C353.788 280.88 351.932 280.336 350.417 279.248C348.903 278.16 347.825 276.592 347.185 274.544H349.489C350.364 276.101 351.281 277.179 352.241 277.776C353.201 278.395 354.428 278.704 355.921 278.704C358.033 278.704 359.633 278.096 360.721 276.88C361.809 275.685 362.353 273.936 362.353 271.632V270.448C361.009 273.093 358.78 274.416 355.665 274.416C353.105 274.416 350.94 273.541 349.169 271.792C347.42 270.043 346.545 267.888 346.545 265.328C346.545 262.683 347.399 260.485 349.105 258.736C350.812 256.965 352.945 256.08 355.505 256.08C358.343 256.08 360.625 257.253 362.353 259.6V256.496H364.721V270.864ZM362.353 265.04C362.353 263.141 361.703 261.541 360.401 260.24C359.1 258.917 357.511 258.256 355.633 258.256C353.692 258.256 352.092 258.907 350.833 260.208C349.575 261.488 348.945 263.131 348.945 265.136C348.945 267.163 349.585 268.859 350.865 270.224C352.145 271.568 353.745 272.24 355.665 272.24C357.564 272.24 359.153 271.557 360.433 270.192C361.713 268.805 362.353 267.088 362.353 265.04Z" fill="white"/>
<path d="M-201.372 -6.97224C-201.372 -6.97224 -246.171 12.5161 -237.189 60.7504L-138.729 113.931C-138.729 113.931 -129.707 134.144 -108.119 145.559C-86.5317 156.973 -28.2548 188.011 -28.2548 188.011C-28.2548 188.011 -14.7505 192.237 -8.93711 180.967C-3.12367 169.698 -12.4507 160.863 -12.4507 160.863L-57.1413 135.913C-57.1413 135.913 -9.82715 106.065 41.1343 112.378C41.1343 112.378 37.2261 85.979 9.36615 69.2803C9.36615 69.2803 -9.74473 59.864 -94.5168 49.622L-201.372 -6.97224Z" fill="#FED670" stroke="#020202" stroke-width="2.51564" stroke-miterlimit="10"/>
<path d="M12.9337 125.058L20.8373 136.068L20.458 136.017L12.5543 125.007L12.9337 125.058Z" fill="#3B2780"/>
<path d="M14.8471 125.538L22.7509 136.549L20.8376 136.068L12.9337 125.058L14.8471 125.538Z" fill="#3B2780"/>
<path d="M32.9641 137.188L40.8681 148.197C36.8989 143.395 31.7221 139.736 25.87 137.597C24.8417 137.213 23.7879 136.897 22.7537 136.549L14.8496 125.539C15.8841 125.886 16.9378 126.203 17.9662 126.586C23.8183 128.725 28.9951 132.384 32.9641 137.188Z" fill="#3D2885"/>
<path d="M32.9641 137.188L40.8681 148.197C36.8989 143.395 31.7221 139.736 25.87 137.597C24.8417 137.213 23.7879 136.897 22.7537 136.549L14.8496 125.539C15.8841 125.886 16.9378 126.203 17.9662 126.586C23.8183 128.725 28.9951 132.384 32.9641 137.188Z" fill="#3D2885"/>
<path d="M12.5537 125.008L20.4581 136.018C18.5886 135.754 16.7475 135.373 14.8508 135.242C10.7805 134.959 6.69064 135.245 2.6998 136.094L-5.20474 125.085C-1.21398 124.235 2.87609 123.949 6.94641 124.233C8.84329 124.363 10.6843 124.744 12.5537 125.008Z" fill="#3D2885"/>
<path d="M-5.2037 125.086L2.70069 136.096C0.928574 136.47 -0.820015 136.949 -2.53588 137.53L-10.4399 126.519C-8.72416 125.939 -6.97578 125.461 -5.2037 125.086Z" fill="#3F2A8A"/>
<path d="M25.4261 141.265L33.3303 152.275C29.3419 148.268 24.3341 145.427 18.8481 144.06C18.4024 143.949 17.9517 143.845 17.4961 143.75C12.9382 142.833 8.24003 142.868 3.69657 143.854L-4.20758 132.844C0.335816 131.858 5.03403 131.823 9.59171 132.74C10.0476 132.835 10.4984 132.938 10.9439 133.05C16.4296 134.418 21.4373 137.258 25.4261 141.265Z" fill="#858585"/>
<path d="M-4.20843 132.844L3.69536 143.855C2.26437 144.157 0.852574 144.543 -0.532735 145.012L-8.43656 134.001C-7.0511 133.533 -5.63929 133.147 -4.20843 132.844Z" fill="#8A8A8A"/>
<path d="M-8.43502 134.002L-0.531217 145.013C-1.66034 145.393 -2.77088 145.827 -3.86276 146.315L-11.7665 135.304C-10.6745 134.818 -9.56404 134.384 -8.43502 134.002Z" fill="#8F8F8F"/>
<path d="M28.4027 139.661L36.3064 150.67C35.3156 151.209 34.3232 151.753 33.3304 152.276L25.427 141.266C26.4219 140.744 27.4122 140.198 28.4019 139.66" fill="#949494"/>
<path d="M32.9641 137.188L40.8681 148.197C36.8989 143.395 31.7221 139.736 25.87 137.597C24.8417 137.213 23.7879 136.897 22.7537 136.549L14.8496 125.539C15.8841 125.886 16.9378 126.203 17.9662 126.586C23.8183 128.725 28.9951 132.384 32.9641 137.188Z" fill="#3D2885"/>
<path d="M14.8491 125.541C15.8835 125.889 16.9372 126.205 17.9656 126.588C23.7779 128.711 28.9275 132.329 32.8952 137.077L28.4014 139.666C27.4117 140.204 26.4183 140.749 25.4265 141.272C21.4379 137.265 16.4304 134.424 10.9449 133.057C10.4992 132.945 10.0486 132.841 9.5928 132.746C-4.25132 129.871 -19.7542 136.524 -27.9681 148.907C-33.0617 156.582 -34.8511 164.646 -33.4278 173.031C-33.4241 173.081 -33.4318 173.131 -33.4504 173.177C-33.4689 173.223 -33.4979 173.265 -33.5349 173.298C-36.0208 174.659 -38.5145 176.016 -41.016 177.367C-41.1796 177.102 -41.2895 176.807 -41.3395 176.499C-43.1309 168.032 -42.073 159.211 -38.3304 151.407C-30.37 134.072 -11.7594 122.901 6.94413 124.238C8.84096 124.368 10.6819 124.749 12.5513 125.013L12.9306 125.064L14.8491 125.541Z" fill="#CDCDCD"/>
<path d="M32.8916 137.073L40.7953 148.084L36.3036 150.668L28.3998 139.658L32.8916 137.073Z" fill="#A4A4A4"/>
<path d="M32.9641 137.188L40.8681 148.197C36.8989 143.395 31.7221 139.736 25.87 137.597C24.8417 137.213 23.7879 136.897 22.7537 136.549L14.8496 125.539C15.8841 125.886 16.9378 126.203 17.9662 126.586C23.8183 128.725 28.9951 132.384 32.9641 137.188Z" fill="#CDCDCD"/>
<path d="M-0.770311 164.473L7.1334 175.483C-5.29819 182.221 -17.7264 188.969 -30.1511 195.727L-38.055 184.717C-25.6292 177.957 -13.201 171.209 -0.770518 164.473" fill="#442D94"/>
<path d="M0.12811 164.351L8.03152 175.362C7.84713 175.322 7.65631 175.321 7.4718 175.361L-0.431821 164.351C-0.247342 164.311 -0.0563625 164.311 0.12811 164.351Z" fill="#3D2885"/>
<path d="M-0.430457 164.351L7.47315 175.361C7.41952 175.372 7.36668 175.387 7.31492 175.405L-0.588531 164.394C-0.536714 164.377 -0.483834 164.362 -0.430251 164.35" fill="#3F2A8A"/>
<path d="M-0.588633 164.394L7.31481 175.405C7.2734 175.419 7.23321 175.435 7.19336 175.453L-0.710031 164.442C-0.670183 164.424 -0.630041 164.408 -0.588633 164.394Z" fill="#422B8F"/>
<path d="M-0.711018 164.442L7.19237 175.452C7.17216 175.461 7.15145 175.471 7.13161 175.481L-0.771781 164.47C-0.751941 164.46 -0.731449 164.451 -0.711018 164.442Z" fill="#442D94"/>
<path d="M29.0889 149.885L36.9921 160.895L36.965 160.914C36.7927 161.027 36.625 161.146 36.462 161.27L28.5585 150.26C28.7216 150.136 28.8894 150.017 29.0614 149.904L29.0889 149.885Z" fill="#49309E"/>
<path d="M26.1701 153.114L34.0736 164.124C33.9388 164.388 33.819 164.659 33.7147 164.936C33.5937 165.259 33.4949 165.589 33.419 165.925L25.5155 154.914C25.5914 154.579 25.6901 154.249 25.811 153.927C25.9149 153.649 26.0348 153.378 26.1701 153.114Z" fill="#5739BD"/>
<path d="M34.0098 148.505L41.9138 159.515C41.2337 159.481 40.5521 159.536 39.8863 159.679L31.9823 148.669C32.6481 148.526 33.3297 148.471 34.0098 148.505Z" fill="#3D2885"/>
<path d="M31.9811 148.669L39.8851 159.68C39.5697 159.747 39.2586 159.832 38.9532 159.936L31.0493 148.925C31.355 148.822 31.6664 148.737 31.982 148.669" fill="#3F2A8A"/>
<path d="M31.0506 148.926L38.9545 159.936C38.7067 160.019 38.4623 160.115 38.2214 160.222L30.3174 149.212C30.5585 149.104 30.8027 149.008 31.0498 148.925" fill="#422B8F"/>
<path d="M30.3184 149.212L38.2223 160.223C38.0098 160.317 37.8003 160.422 37.5938 160.535L29.6898 149.525C29.8964 149.408 30.1054 149.308 30.3184 149.212Z" fill="#442D94"/>
<path d="M29.6902 149.525L37.5942 160.535C37.3931 160.647 37.194 160.766 36.9967 160.892L29.093 149.881C29.2881 149.753 29.4872 149.634 29.6904 149.524" fill="#462E99"/>
<path d="M29.0899 149.884L36.9937 160.895L36.9665 160.913C36.7943 161.027 36.6266 161.146 36.4636 161.27L28.5595 150.26C28.7226 150.135 28.8904 150.016 29.0624 149.903L29.0899 149.884Z" fill="#49309E"/>
<path d="M28.5625 150.26L36.4665 161.27C36.2958 161.402 36.1303 161.539 35.97 161.68L28.0659 150.67C28.2265 150.527 28.392 150.391 28.5625 150.26Z" fill="#4B31A3"/>
<path d="M28.065 150.67L35.969 161.68C35.8032 161.828 35.6446 161.981 35.4913 162.139L27.5873 151.129C27.7406 150.971 27.8994 150.817 28.065 150.67Z" fill="#4D33A8"/>
<path d="M27.5876 151.129L35.4916 162.139C35.3285 162.309 35.1731 162.484 35.0253 162.665L27.1216 151.655C27.2695 151.474 27.4247 151.298 27.5876 151.129Z" fill="#5034AD"/>
<path d="M27.1212 151.655L35.025 162.666C34.8574 162.868 34.7021 163.078 34.5591 163.295L26.6565 152.283C26.8014 152.067 26.9567 151.857 27.1224 151.654" fill="#5236B3"/>
<path d="M26.6574 152.283L34.5612 163.294C34.3835 163.56 34.2215 163.836 34.0758 164.121L26.1718 153.111C26.3171 152.826 26.4793 152.549 26.6574 152.283Z" fill="#5437B8"/>
<path d="M26.1701 153.112L34.074 164.122C33.9391 164.386 33.8194 164.657 33.715 164.934C33.5941 165.257 33.4953 165.587 33.4194 165.923L25.5156 154.913C25.5914 154.577 25.6901 154.247 25.811 153.925C25.9149 153.647 26.0348 153.376 26.1701 153.112Z" fill="#5739BD"/>
<path d="M39.1029 151.174L47.0071 162.185C46.8005 161.897 46.5691 161.627 46.3155 161.379C45.4821 160.572 44.4487 160 43.3214 159.724C42.8595 159.608 42.3872 159.539 41.9115 159.516L34.0072 148.506C34.4828 148.529 34.9551 148.598 35.4172 148.713C36.5442 148.99 37.5775 149.561 38.4113 150.368C38.6646 150.617 38.896 150.886 39.1029 151.174Z" fill="#3D2885"/>
<path d="M26.1701 153.113L34.0739 164.123C33.939 164.387 33.8192 164.658 33.7149 164.935C33.5939 165.258 33.4951 165.588 33.4192 165.924L25.5156 154.913C25.5914 154.578 25.6901 154.248 25.811 153.925C25.9149 153.648 26.0348 153.376 26.1701 153.113Z" fill="#5739BD"/>
<path d="M25.5156 154.913L33.4193 165.924C33.3804 166.096 33.348 166.267 33.3221 166.439L25.4181 155.43C25.444 155.258 25.4766 155.085 25.5156 154.913Z" fill="#593BC2"/>
<path d="M25.418 155.43L33.3219 166.44C33.2551 166.873 33.2287 167.312 33.2431 167.751C33.2517 167.935 33.2659 168.118 33.2857 168.299L25.3819 157.289C25.3592 157.111 25.3459 156.924 25.3395 156.74C25.3251 156.302 25.3513 155.863 25.418 155.43Z" fill="#5739BD"/>
<path d="M25.4199 155.431L33.3237 166.44C33.2568 166.874 33.2304 167.313 33.2448 167.751C33.2534 167.936 33.2676 168.119 33.2874 168.299L25.3838 157.289C25.3611 157.112 25.3478 156.925 25.3415 156.741C25.327 156.302 25.3532 155.864 25.4199 155.431Z" fill="#5739BD"/>
<path d="M39.1029 151.174L47.0071 162.185C46.8005 161.897 46.5691 161.627 46.3155 161.379C45.4821 160.572 44.4487 160 43.3214 159.724C42.8595 159.608 42.3872 159.539 41.9115 159.516L34.0072 148.506C34.4828 148.529 34.9551 148.598 35.4172 148.713C36.5442 148.99 37.5775 149.561 38.4113 150.368C38.6646 150.617 38.896 150.886 39.1029 151.174Z" fill="#3D2885"/>
<path d="M25.4199 155.431L33.3237 166.44C33.2569 166.874 33.2305 167.313 33.2449 167.751C33.2535 167.936 33.2677 168.119 33.2875 168.299L25.3838 157.289C25.3611 157.112 25.3478 156.925 25.3415 156.741C25.327 156.302 25.3532 155.864 25.4199 155.431Z" fill="#5739BD"/>
<path d="M25.3838 157.289L33.2875 168.299C33.3223 168.594 33.3774 168.886 33.4526 169.173L25.5491 158.162C25.474 157.876 25.4188 157.584 25.3838 157.289Z" fill="#5437B8"/>
<path d="M25.5479 158.166L33.4514 169.177C33.5125 169.409 33.5866 169.638 33.6732 169.861L25.7697 158.851C25.6828 158.627 25.6087 158.398 25.5479 158.166Z" fill="#5236B3"/>
<path d="M25.7705 158.847L33.674 169.857C33.7459 170.044 33.8272 170.226 33.9165 170.405L33.9352 170.441L26.0314 159.432L26.013 159.394C25.9237 159.215 25.8424 159.033 25.7705 158.847Z" fill="#5034AD"/>
<path d="M25.7725 158.846L33.6757 169.857C33.7475 170.043 33.8289 170.226 33.9181 170.404L33.9369 170.441L26.0334 159.431L26.0149 159.394C25.9257 159.215 25.8443 159.033 25.7725 158.846Z" fill="#5034AD"/>
<path d="M39.1029 151.174L47.0071 162.185C46.8005 161.897 46.5691 161.627 46.3155 161.379C45.4821 160.572 44.4487 160 43.3214 159.724C42.8595 159.608 42.3872 159.539 41.9115 159.516L34.0072 148.506C34.4828 148.529 34.9551 148.598 35.4172 148.713C36.5442 148.99 37.5775 149.561 38.4113 150.368C38.6646 150.617 38.896 150.886 39.1029 151.174Z" fill="#3D2885"/>
<path d="M25.7725 158.846L33.6755 169.857C33.7474 170.043 33.8287 170.226 33.918 170.405L33.9367 170.441L26.0333 159.431L26.0149 159.394C25.9257 159.215 25.8443 159.033 25.7725 158.846Z" fill="#5034AD"/>
<path d="M26.0332 159.431L33.9366 170.441C34.0271 170.618 34.1252 170.789 34.2299 170.955L26.3268 159.944C26.2211 159.779 26.1231 159.608 26.0332 159.431Z" fill="#4D33A8"/>
<path d="M26.3291 159.945L34.2322 170.955C34.2933 171.049 34.3552 171.139 34.4175 171.229L26.5142 160.218C26.4518 160.13 26.3903 160.038 26.3291 159.945Z" fill="#4B31A3"/>
<path d="M39.1064 151.174L47.0104 162.184C47.0727 162.274 47.1345 162.364 47.1957 162.457L39.2919 151.447C39.2329 151.354 39.171 151.263 39.1064 151.174Z" fill="#A3A3A3"/>
<path d="M39.291 151.447L47.1948 162.458C47.3013 162.624 47.399 162.795 47.4881 162.972L39.5844 151.961C39.4945 151.784 39.3963 151.613 39.291 151.447Z" fill="#A8A8A8"/>
<path d="M39.5851 151.961L47.4889 162.972C47.5852 163.16 47.6718 163.353 47.7482 163.55L39.8441 152.54C39.7682 152.342 39.682 152.148 39.5859 151.958" fill="#ADADAD"/>
<path d="M39.8438 152.54L47.7478 163.55C47.8343 163.773 47.908 164.001 47.9684 164.232L40.0644 153.222C40.0044 152.991 39.9307 152.763 39.8438 152.54Z" fill="#B3B3B3"/>
<path d="M40.0664 153.223L47.9704 164.233C48.0462 164.522 48.1021 164.817 48.1376 165.115L40.2337 154.105C40.1983 153.807 40.1424 153.512 40.0664 153.223Z" fill="#B8B8B8"/>
<path d="M40.2334 154.104L48.1373 165.115C48.1592 165.292 48.173 165.477 48.1793 165.662C48.1936 166.1 48.1667 166.538 48.099 166.972L40.1952 155.961C40.2629 155.528 40.2898 155.089 40.2756 154.651C40.269 154.467 40.2547 154.284 40.2334 154.104Z" fill="#BDBDBD"/>
<path d="M40.1953 155.962L48.0992 166.972C48.075 167.132 48.0442 167.292 48.0089 167.451L40.1052 156.441C40.141 156.279 40.1712 156.122 40.1953 155.962Z" fill="#C2C2C2"/>
<path d="M40.1044 156.441L48.0081 167.451C47.8639 168.09 47.6398 168.708 47.3407 169.291L39.4367 158.282C39.7358 157.698 39.9602 157.08 40.1044 156.441Z" fill="#BDBDBD"/>
<path d="M39.4364 158.282L47.3404 169.291C47.1943 169.578 47.0313 169.855 46.8522 170.122L38.9485 159.112C39.1274 158.845 39.2903 158.568 39.4364 158.282Z" fill="#B8B8B8"/>
<path d="M38.9493 159.111L46.8531 170.122C46.7881 170.219 46.721 170.314 46.6516 170.412C46.5689 170.524 46.4827 170.634 46.3931 170.742L38.4893 159.731C38.5778 159.623 38.6639 159.513 38.7477 159.401C38.8165 159.306 38.8837 159.211 38.9493 159.111Z" fill="#B3B3B3"/>
<path d="M38.4911 159.729L46.3951 170.74C46.2452 170.924 46.0881 171.102 45.9239 171.272L38.0199 160.262C38.1839 160.091 38.3409 159.913 38.4911 159.729Z" fill="#ADADAD"/>
<path d="M38.0176 160.261L45.9216 171.271C45.7651 171.431 45.6047 171.585 45.4403 171.734L37.5365 160.723C37.7023 160.576 37.8631 160.421 38.0176 160.261Z" fill="#A8A8A8"/>
<path d="M37.5395 160.724L45.4432 171.735C45.2819 171.878 45.1152 172.016 44.9434 172.148L37.0396 161.137C37.2114 161.005 37.3779 160.868 37.5395 160.724Z" fill="#A3A3A3"/>
<path d="M37.0396 161.137L44.9434 172.148C44.7717 172.279 44.5958 172.404 44.4157 172.524L36.5119 161.513C36.6922 161.395 36.8682 161.271 37.0396 161.137Z" fill="#9E9E9E"/>
<path d="M36.5098 161.511L44.4137 172.522C44.2281 172.644 44.0383 172.758 43.8443 172.863L35.9405 161.852C36.135 161.746 36.3247 161.632 36.5098 161.511Z" fill="#999999"/>
<path d="M35.9423 161.853L43.846 172.863C43.6404 172.975 43.4305 173.08 43.2165 173.176L35.3128 162.165C35.5266 162.07 35.7369 161.965 35.9423 161.853Z" fill="#949494"/>
<path d="M35.313 162.165L43.2168 173.176C42.9773 173.284 42.7342 173.379 42.4873 173.461L34.5835 162.451C34.8314 162.367 35.0746 162.271 35.313 162.165Z" fill="#8F8F8F"/>
<path d="M34.5832 162.451L42.4871 173.461L42.428 173.481C42.1308 173.58 41.8282 173.663 41.5217 173.728L33.6179 162.717C33.9244 162.652 34.2269 162.57 34.5241 162.471L34.5832 162.451Z" fill="#8A8A8A"/>
<path d="M33.6178 162.717L41.5218 173.728C40.3898 173.974 39.2167 173.958 38.0918 173.682C37.8681 173.623 37.6469 173.557 37.4299 173.48C36.2203 173.051 35.1691 172.266 34.4148 171.227L26.5107 160.217C27.2654 161.256 28.3169 162.041 29.5267 162.469C29.7438 162.548 29.9647 162.615 30.1887 162.671C31.3136 162.948 32.4867 162.963 33.6186 162.717" fill="#858585"/>
<path d="M35.4203 148.714C36.5474 148.991 37.5807 149.563 38.4141 150.37C39.5631 151.504 40.2296 153.038 40.2744 154.652C40.3091 156.361 39.7717 158.032 38.7474 159.4C37.6894 160.835 36.2138 161.907 34.5228 162.471C33.126 162.95 31.6215 163.021 30.1859 162.675C29.962 162.619 29.7411 162.551 29.524 162.473C28.0002 161.937 26.7419 160.834 26.0109 159.393C25.5983 158.567 25.3689 157.662 25.338 156.739C25.3094 155.779 25.4695 154.823 25.8094 153.925C26.4433 152.276 27.5819 150.869 29.0629 149.905C30.5202 148.922 32.2536 148.433 34.0095 148.507C34.4854 148.53 34.958 148.599 35.4203 148.714Z" fill="#CDCDCD"/>
<path d="M38.2812 173.911L46.1859 184.921C41.5321 183.752 36.8779 182.584 32.2235 181.415C24.1623 179.392 16.0987 177.374 8.03268 175.363L0.128243 164.352C8.19457 166.363 16.2582 168.38 24.3189 170.405C28.9738 171.574 33.6279 172.743 38.2812 173.911Z" fill="#3D2885"/>
<path d="M38.2816 173.912L46.1855 184.922L45.8349 185.859L37.9311 174.848L38.2816 173.912Z" fill="#CCCCCC"/>
<path d="M24.3196 170.406C28.9743 171.575 33.6282 172.744 38.2814 173.913L37.9309 174.849C37.4483 175.922 37.0049 177.006 36.4686 178.066C31.006 189.013 21.4915 197.399 9.94524 201.445C2.00496 204.489 -6.67721 205.029 -14.9333 202.991C-15.4231 202.868 -15.9098 202.734 -16.3981 202.595C-26.2903 199.737 -33.5411 193.843 -38.2029 185.109C-38.2091 185.037 -38.1991 184.965 -38.1738 184.897C-38.1484 184.83 -38.1083 184.769 -38.0563 184.719C-25.6313 177.957 -13.2033 171.209 -0.772034 164.474C-0.494516 164.332 -0.17675 164.29 0.128147 164.354C8.19506 166.364 16.2589 168.381 24.3196 170.406Z" fill="#CDCDCD"/>
<path d="M37.932 174.846L45.8356 185.856C45.3582 186.916 44.9186 187.992 44.3899 189.039L36.4864 178.029C37.0151 176.982 37.4548 175.905 37.932 174.846Z" fill="#BDBDBD"/>
<path d="M36.489 178.026L44.3923 189.037L44.3767 189.067C43.4616 190.852 42.4445 192.582 41.3304 194.25L33.4271 183.239C34.5407 181.572 35.5577 179.841 36.4731 178.057L36.489 178.026Z" fill="#B8B8B8"/>
<path d="M33.4238 183.242L41.3273 194.252C40.48 195.516 39.5834 196.729 38.6378 197.893L30.7344 186.882C31.6799 185.721 32.5763 184.508 33.4238 183.242Z" fill="#B3B3B3"/>
<path d="M30.737 186.882L38.6404 197.893C37.8296 198.887 36.9829 199.844 36.1001 200.762L28.1967 189.751C29.0797 188.834 29.9267 187.878 30.7378 186.882" fill="#ADADAD"/>
<path d="M28.1928 189.75L36.0963 200.761C35.2853 201.602 34.4437 202.409 33.5716 203.183L25.6681 192.172C26.5396 191.397 27.3811 190.589 28.1928 189.75Z" fill="#A8A8A8"/>
<path d="M25.6733 192.177L33.5768 203.188C32.7343 203.938 31.8635 204.657 30.9642 205.345L23.0608 194.334C23.9604 193.647 24.8313 192.928 25.6733 192.177Z" fill="#A3A3A3"/>
<path d="M23.0616 194.335L30.9651 205.346C30.0579 206.04 29.1213 206.702 28.1554 207.333L20.2517 196.323C21.2182 195.692 22.1548 195.03 23.0616 194.335Z" fill="#9E9E9E"/>
<path d="M20.252 196.322L28.1557 207.332C27.1387 207.996 26.0895 208.625 25.0083 209.218L17.1048 198.207C18.1857 197.615 19.2348 196.987 20.252 196.322Z" fill="#999999"/>
<path d="M17.1032 198.207L25.0067 209.218C23.8109 209.875 22.5755 210.487 21.3002 211.055L13.3965 200.045C14.6714 199.476 15.9069 198.864 17.1032 198.207Z" fill="#949494"/>
<path d="M13.3967 200.045L21.3004 211.055C20.1816 211.555 19.0323 212.02 17.8525 212.451C17.4723 212.592 17.0898 212.727 16.7049 212.856L8.80115 201.846C9.18304 201.717 9.56564 201.583 9.94877 201.441C11.1283 201.009 12.2776 200.543 13.3967 200.045Z" fill="#8F8F8F"/>
<path d="M8.80092 201.845L16.7047 212.855C14.9911 213.438 13.2449 213.919 11.4748 214.297L3.57115 203.286C5.34102 202.909 7.08728 202.427 8.80092 201.845Z" fill="#8A8A8A"/>
<path d="M3.57216 203.288L11.4763 214.298C5.36852 215.626 -0.963487 215.523 -7.02494 213.998C-7.51511 213.876 -8.00355 213.744 -8.49013 213.603C-16.2062 211.54 -22.9722 206.874 -27.6429 200.395L-35.5469 189.384C-30.8766 195.863 -24.1104 200.53 -16.3941 202.593C-15.9065 202.734 -15.4191 202.866 -14.9293 202.989C-8.86759 204.513 -2.53566 204.615 3.57216 203.288Z" fill="#858585"/>
<path d="M51.8877 122.28L59.4431 132.872C59.9982 133.651 60.532 134.444 61.0445 135.251L53.4892 124.66C52.9771 123.852 52.4433 123.059 51.8877 122.28Z" fill="#4B31A3"/>
<path d="M53.4893 124.66L61.0446 135.251C61.9605 136.695 62.8062 138.182 63.5814 139.713L56.026 129.121C55.2506 127.595 54.405 126.108 53.4893 124.66Z" fill="#4D33A8"/>
<path d="M56.0265 129.121L63.5819 139.713C64.4112 141.35 65.1562 143.03 65.8139 144.745L58.2601 134.151C57.6023 132.436 56.8573 130.756 56.0281 129.118" fill="#5034AD"/>
<path d="M58.2607 134.151L65.8161 144.742C66.5606 146.682 67.1938 148.663 67.7127 150.677L60.1573 140.085C59.638 138.072 59.0048 136.091 58.2607 134.151Z" fill="#5236B3"/>
<path d="M60.1572 140.088L67.7125 150.68C68.3495 153.153 68.8171 155.667 69.1121 158.205L61.5568 147.613C61.2616 145.075 60.794 142.561 60.1572 140.088Z" fill="#5437B8"/>
<path d="M61.5566 147.614L69.1119 158.205C69.7782 164.037 69.5782 169.937 68.5184 175.714L60.9629 165.124C62.0228 159.346 62.223 153.445 61.5566 147.614Z" fill="#5739BD"/>
<path d="M60.9629 165.124L68.5185 175.714C68.3999 176.372 68.2697 177.032 68.1282 177.691L60.5728 167.1C60.7139 166.44 60.8438 165.781 60.9629 165.124Z" fill="#593BC2"/>
<path d="M60.5735 167.1L68.1287 177.692C67.449 180.856 66.5373 183.965 65.4012 186.995C64.5039 189.396 63.474 191.744 62.3164 194.03L54.761 183.439C55.9188 181.153 56.9487 178.804 57.8459 176.404C58.982 173.374 59.8937 170.264 60.5735 167.1Z" fill="#5739BD"/>
<path d="M54.7587 183.441L62.314 194.033C61.0458 196.534 59.6301 198.957 58.0744 201.289L50.5192 190.698C52.0749 188.365 53.4905 185.942 54.7587 183.441Z" fill="#5437B8"/>
<path d="M50.5189 190.698L58.0741 201.29C56.8326 203.152 55.5106 204.949 54.1083 206.682L46.553 196.09C47.9546 194.36 49.2779 192.563 50.5227 190.699" fill="#5236B3"/>
<path d="M46.5509 196.09L54.1062 206.681C52.8326 208.254 51.4977 209.768 50.1017 211.226L42.5462 200.635C43.9399 199.178 45.2748 197.663 46.5509 196.09Z" fill="#5034AD"/>
<path d="M42.5452 200.635L50.1008 211.226C48.7789 212.607 47.4068 213.934 45.9844 215.207L38.4291 204.615C39.8495 203.344 41.2215 202.017 42.5452 200.635Z" fill="#4D33A8"/>
<path d="M38.4292 204.615L45.9845 215.207C44.5944 216.453 43.161 217.643 41.6845 218.778L34.1292 208.187C35.6039 207.052 37.0372 205.862 38.4292 204.615Z" fill="#4B31A3"/>
<path d="M34.1301 208.187L41.6854 218.779C40.2025 219.92 38.6805 221.003 37.1195 222.029L29.5642 211.437C31.1233 210.412 32.6453 209.329 34.1301 208.187Z" fill="#49309E"/>
<path d="M29.5635 211.437L37.1189 222.029C35.5108 223.085 33.8666 224.078 32.1861 225.007L24.6308 214.415C26.3098 213.488 27.9541 212.495 29.5635 211.437Z" fill="#462E99"/>
<path d="M24.6304 214.416L32.1858 225.007C30.3878 225.999 28.5544 226.915 26.6853 227.756L19.1296 217.165C20.9973 216.326 22.8308 215.41 24.6304 214.416Z" fill="#442D94"/>
<path d="M19.1307 217.166L26.6864 227.756C24.5901 228.699 22.4568 229.54 20.2865 230.279L12.7312 219.687C14.8962 218.949 17.0294 218.109 19.1307 217.166Z" fill="#422B8F"/>
<path d="M12.7319 219.688L20.2874 230.279C17.6539 231.176 14.971 231.918 12.2522 232.501L4.69681 221.909C7.4156 221.327 10.0986 220.585 12.7319 219.688Z" fill="#3F2A8A"/>
<path d="M4.69544 221.91L12.2512 232.501C2.56715 234.627 -7.46527 234.503 -17.0812 232.139C-30.6095 228.74 -41.4136 221.119 -48.6151 211.022L-56.1709 200.431C-48.9694 210.528 -38.1663 218.153 -24.6369 221.548C-15.0212 223.912 -4.98857 224.036 4.69544 221.91Z" fill="#3D2885"/>
<path d="M22.5695 101.264C57.1645 109.95 74.7355 144.956 61.8145 179.454C48.8935 213.952 10.3712 234.885 -24.2232 226.201C-58.8175 217.516 -76.3947 182.504 -63.4737 148.006C-50.5528 113.508 -12.0321 92.5777 22.5695 101.264ZM-41.1209 177.409C-38.5229 176.011 -36.0217 174.654 -33.534 173.293C-33.497 173.26 -33.4681 173.219 -33.4495 173.172C-33.4309 173.126 -33.4231 173.076 -33.4268 173.026C-34.8499 164.641 -33.0609 156.578 -27.9673 148.903C-19.7534 136.519 -4.25116 129.869 9.59358 132.742C10.0495 132.836 10.5002 132.939 10.9457 133.052C16.3524 134.351 21.268 137.186 25.1007 141.215C26.2422 140.789 27.3465 140.27 28.4022 139.662L32.9629 137.19C28.9943 132.386 23.8178 128.726 17.9657 126.586C16.9374 126.203 15.8837 125.886 14.8492 125.539L12.935 125.058L12.5566 125.007C10.6872 124.744 8.84616 124.363 6.94933 124.233C-11.7542 122.896 -30.3646 134.066 -38.325 151.402C-42.0676 159.205 -43.1256 168.027 -41.3342 176.494C-41.2636 176.799 -41.1937 177.103 -41.1165 177.409L-41.1209 177.409ZM37.935 174.847L38.2855 173.91C33.6319 172.741 28.978 171.573 24.3239 170.404C16.2632 168.379 8.19998 166.361 0.134315 164.35C-0.170583 164.285 -0.48834 164.328 -0.765856 164.469C-13.2005 171.207 -25.6305 177.956 -38.0558 184.715C-38.1075 184.765 -38.1473 184.826 -38.1725 184.894C-38.1977 184.961 -38.2077 185.034 -38.2015 185.106C-33.5406 193.84 -26.2903 199.734 -16.3971 202.592C-15.9096 202.733 -15.4221 202.865 -14.9323 202.988C-6.67631 205.027 2.00601 204.487 9.946 201.442C21.4918 197.396 31.006 189.01 36.4685 178.063C37.0049 177.004 37.4482 175.92 37.9308 174.847L37.935 174.847ZM34.0105 148.508C32.2547 148.434 30.5211 148.924 29.0639 149.906C27.5829 150.87 26.4441 152.277 25.8103 153.926C25.4704 154.825 25.3103 155.781 25.3389 156.741C25.3698 157.663 25.5993 158.569 26.0118 159.395C26.7428 160.835 28.0012 161.938 29.5249 162.474C29.7417 162.552 29.9624 162.62 30.1861 162.676C31.6228 163.023 33.1288 162.953 34.527 162.473C36.2178 161.909 37.6933 160.836 38.7516 159.402C39.7754 158.034 40.3128 156.363 40.2785 154.654C40.2336 153.04 39.5672 151.506 38.4184 150.372C37.5846 149.565 36.5514 148.993 35.4244 148.717C34.9623 148.601 34.4901 148.532 34.0145 148.509" fill="#6543DD"/>
<path d="M-145.455 94.5181C-145.455 94.5181 -142.032 127.421 -103.431 148.256L-29.8668 187.545C-29.8668 187.545 -14.26 193.079 -8.93334 180.969C-3.60673 168.859 -9.38026 163.787 -14.493 158.882L-66.1843 131.043" fill="#FED670"/>
<path d="M-145.455 94.5181C-145.455 94.5181 -142.032 127.421 -103.431 148.256L-29.8668 187.545C-29.8668 187.545 -14.2599 193.079 -8.93334 180.969C-3.60673 168.859 -9.38025 163.787 -14.493 158.882L-66.1843 131.043" stroke="#020202" stroke-width="2.51564" stroke-miterlimit="10"/>
<path d="M83.92 448.765L20.793 388.756C20.793 388.756 -32.4735 353.39 -55.287 337.424C-78.1005 321.459 -108.196 287.218 -120.259 252.04C-132.323 216.862 -152.018 164.739 -152.018 164.739C-152.018 164.739 -154.849 151.192 -133.884 155.293C-112.918 159.395 -110.438 174.27 -110.438 174.27C-110.438 174.27 -92.5867 173.995 -86.9919 193.246C-86.9919 193.246 -74.6712 195.07 -69.9844 206.971C-65.2975 218.873 -57.3927 240.156 -57.3927 240.156L-36.1135 245.762C-36.1135 245.762 -50.0059 236.413 -35.4404 218.916C-35.4404 218.916 -25.4705 210.185 -12.1164 221.87C1.23764 233.556 49.002 281.695 49.002 281.695C49.002 281.695 63.6746 298.261 62.7351 325.087L135.95 397.048C135.95 397.048 130.684 444.017 83.92 448.765Z" fill="#FED670" stroke="#020202" stroke-width="1.25782" stroke-miterlimit="10"/>
<path d="M83.9186 448.767L20.7919 388.757C20.7919 388.757 -59.3291 338.066 -80.2108 315.354C-101.092 292.642 -117.274 260.822 -121.985 247.05C-126.696 233.278 -152.02 164.738 -152.02 164.738C-152.02 164.738 -154.034 152.962 -137.714 154.701C-121.394 156.441 -114.815 163.868 -110.442 174.265L-83.9647 243.819C-83.9647 243.819 -67.2439 280.226 -18.6569 263.157" stroke="#191919" stroke-width="2.51564" stroke-miterlimit="10"/>
<path d="M3.91406 285.461L-38.2948 243.765C-38.2948 243.765 -47.1398 233.254 -36.0405 219.643C-36.0405 219.643 -25.2672 209.64 -13.2596 220.913L49.9984 281.954C49.9984 281.954 62.924 294.963 62.2846 332.482" stroke="#191919" stroke-width="2.51564" stroke-miterlimit="10"/>
<path d="M83.78 448.371L20.654 388.365C20.654 388.365 -32.6093 352.999 -55.4268 337.033C-78.2443 321.066 -108.334 286.822 -120.399 251.648C-132.464 216.473 -152.157 164.346 -152.157 164.346C-152.157 164.346 -154.989 150.8 -134.024 154.901C-113.059 159.001 -110.581 173.874 -110.581 173.874C-110.581 173.874 -92.7299 173.6 -87.1353 192.852C-87.1353 192.852 -74.8145 194.675 -70.1278 206.577C-65.4411 218.479 -57.536 239.761 -57.536 239.761L-36.2575 245.367C-36.2575 245.367 -50.1501 236.018 -35.5847 218.521C-35.5847 218.521 -25.6148 209.79 -12.2607 221.476C1.09339 233.162 48.8593 281.304 48.8593 281.304C48.8593 281.304 63.5319 297.871 62.5927 324.696L135.808 396.657C135.808 396.657 130.543 443.626 83.78 448.371Z" stroke="#020202" stroke-width="2.51564" stroke-miterlimit="10"/>
</g>
<defs>
<linearGradient id="paint0_linear_1006_25212" x1="525.947" y1="35" x2="207.787" y2="222.06" gradientUnits="userSpaceOnUse">
<stop stop-color="#2FC8E0"/>
<stop offset="1" stop-color="#754DFE"/>
</linearGradient>
<clipPath id="clip0_1006_25212">
<rect width="704" height="385" rx="16" fill="white"/>
</clipPath>
</defs>
</svg>
