<svg width="704" height="385" viewBox="0 0 704 385" fill="none" xmlns="http://www.w3.org/2000/svg">
<g clip-path="url(#clip0_1006_38257)">
<rect width="704" height="385" rx="16" fill="white"/>
<rect width="704" height="385" fill="url(#paint0_linear_1006_38257)"/>
<path d="M593.225 295.721C592.777 296.495 592.057 297.075 591.206 297.347C590.354 297.62 589.432 297.566 588.617 297.196C587.803 296.827 587.156 296.167 586.801 295.347C586.446 294.526 586.409 293.603 586.697 292.756C586.985 291.91 587.578 291.201 588.359 290.767C589.141 290.333 590.056 290.205 590.927 290.409C591.798 290.613 592.562 291.133 593.07 291.868C593.579 292.604 593.795 293.502 593.678 294.388C593.616 294.858 593.462 295.311 593.225 295.721Z" fill="#E1458D"/>
<path d="M575.625 266C575.987 266.025 576.351 266.035 576.711 266.079C580.527 266.549 583.585 268.329 585.824 271.453C587.473 273.724 588.304 276.487 588.179 279.291C588.098 282.509 586.794 285.576 584.534 287.868C584.514 287.879 584.492 287.884 584.47 287.884C584.447 287.884 584.425 287.879 584.405 287.868C581.409 284.876 578.415 281.882 575.425 278.885C575.36 278.814 575.322 278.722 575.319 278.626C575.314 274.418 575.312 270.209 575.314 266L575.625 266Z" fill="#2FC8E0"/>
<path d="M561.001 280.624C561.026 280.986 561.035 281.351 561.08 281.71C561.549 285.526 563.329 288.584 566.454 290.824C568.724 292.473 571.487 293.303 574.291 293.178C577.509 293.097 580.576 291.794 582.868 289.533C582.879 289.513 582.884 289.491 582.884 289.469C582.884 289.446 582.879 289.424 582.868 289.405C579.876 286.408 576.882 283.415 573.885 280.424C573.814 280.359 573.722 280.321 573.626 280.318C569.418 280.313 565.209 280.311 561 280.313L561.001 280.624Z" fill="#2FC8E0"/>
<path d="M603.374 323.053C603.012 323.028 602.648 323.019 602.288 322.975C598.472 322.505 595.414 320.725 593.175 317.601C591.526 315.33 590.695 312.567 590.82 309.763C590.901 306.545 592.204 303.478 594.465 301.186C594.485 301.176 594.507 301.17 594.529 301.17C594.552 301.17 594.574 301.176 594.593 301.186C597.59 304.178 600.584 307.172 603.574 310.169C603.639 310.24 603.677 310.332 603.68 310.428C603.685 314.636 603.687 318.845 603.684 323.054L603.374 323.053Z" fill="#2FC8E0"/>
<path d="M617.999 308.428C617.974 308.066 617.965 307.701 617.92 307.342C617.45 303.526 615.67 300.468 612.546 298.228C610.275 296.579 607.512 295.749 604.709 295.873C601.49 295.955 598.424 297.258 596.132 299.519C596.121 299.539 596.115 299.561 596.115 299.583C596.115 299.605 596.121 299.627 596.132 299.647C599.123 302.644 602.118 305.637 605.115 308.628C605.186 308.693 605.278 308.731 605.374 308.734C609.582 308.739 613.79 308.74 618 308.738L617.999 308.428Z" fill="#2FC8E0"/>
<path d="M603.374 266C603.012 266.025 602.648 266.035 602.288 266.079C598.472 266.549 595.414 268.329 593.175 271.453C591.526 273.724 590.695 276.487 590.82 279.291C590.901 282.509 592.204 285.576 594.465 287.868C594.485 287.879 594.507 287.884 594.529 287.884C594.552 287.884 594.574 287.879 594.593 287.868C597.59 284.876 600.584 281.882 603.574 278.885C603.639 278.814 603.677 278.722 603.68 278.626C603.685 274.418 603.687 270.209 603.684 266L603.374 266Z" fill="#2FC8E0"/>
<path d="M617.999 280.624C617.974 280.986 617.965 281.351 617.92 281.71C617.45 285.526 615.67 288.584 612.546 290.824C610.275 292.473 607.512 293.303 604.709 293.178C601.49 293.097 598.424 291.794 596.132 289.533C596.121 289.513 596.115 289.491 596.115 289.469C596.115 289.446 596.121 289.424 596.132 289.405C599.123 286.408 602.118 283.415 605.115 280.424C605.186 280.359 605.277 280.321 605.374 280.318C609.582 280.313 613.79 280.311 618 280.313L617.999 280.624Z" fill="#2FC8E0"/>
<path d="M575.625 323.053C575.987 323.028 576.351 323.019 576.711 322.975C580.527 322.505 583.585 320.725 585.824 317.601C587.473 315.33 588.304 312.567 588.179 309.763C588.098 306.545 586.794 303.478 584.534 301.186C584.514 301.176 584.492 301.17 584.47 301.17C584.447 301.17 584.425 301.176 584.405 301.186C581.409 304.178 578.415 307.172 575.425 310.169C575.36 310.24 575.322 310.332 575.319 310.428C575.314 314.636 575.312 318.845 575.314 323.054L575.625 323.053Z" fill="#2FC8E0"/>
<path d="M561.001 308.428C561.026 308.066 561.035 307.701 561.08 307.342C561.549 303.526 563.329 300.468 566.454 298.228C568.724 296.579 571.487 295.749 574.291 295.873C577.509 295.955 580.576 297.258 582.868 299.519C582.879 299.539 582.884 299.561 582.884 299.583C582.884 299.605 582.879 299.627 582.868 299.647C579.876 302.644 576.882 305.637 573.885 308.628C573.814 308.693 573.722 308.731 573.626 308.734C569.418 308.739 565.209 308.74 561 308.738L561.001 308.428Z" fill="#2FC8E0"/>
<path fill-rule="evenodd" clip-rule="evenodd" d="M589.794 409.36L589.298 409.224C588.176 408.941 587.148 408.376 586.313 407.583C585.478 406.79 584.865 405.797 584.533 404.7C584.202 403.603 584.163 402.439 584.42 401.323C584.678 400.207 585.224 399.176 586.004 398.33C586.887 397.369 588.028 396.677 589.293 396.332L589.768 396.207L589.768 396.215L590.579 396.048C592.128 395.736 593.579 395.061 594.811 394.082C594.955 393.968 595.101 393.841 595.234 393.725L595.405 393.578L595.425 393.561L595.789 393.202L595.864 393.108C595.933 393.025 596.011 392.934 596.092 392.838C596.289 392.607 596.512 392.345 596.696 392.083C597.959 390.308 598.587 388.166 598.482 385.998C598.376 383.829 597.543 381.758 596.114 380.11C594.743 378.515 592.885 377.403 590.82 376.942C590.764 376.929 590.7 376.915 590.648 376.904C590.626 376.9 590.607 376.896 590.592 376.893L589.78 376.72L589.78 376.751L589.299 376.62C588.178 376.337 587.149 375.772 586.315 374.979C585.48 374.186 584.866 373.193 584.535 372.096C584.203 370.999 584.164 369.835 584.422 368.719C584.68 367.603 585.225 366.571 586.005 365.726C586.888 364.766 588.028 364.073 589.293 363.729L589.784 363.598L589.784 363.555L590.579 363.391C592.127 363.079 593.578 362.404 594.811 361.425C594.954 361.311 595.1 361.184 595.234 361.068L595.405 360.921L595.424 360.905L595.788 360.545L595.864 360.451C595.933 360.368 596.01 360.277 596.091 360.182C596.288 359.95 596.512 359.689 596.695 359.427C597.958 357.651 598.587 355.51 598.481 353.341C598.376 351.173 597.543 349.101 596.114 347.453C594.742 345.858 592.885 344.746 590.82 344.285C590.764 344.272 590.7 344.259 590.648 344.248C590.626 344.243 590.607 344.239 590.591 344.236L589.795 344.066L589.795 344.049L589.299 343.913C588.177 343.631 587.149 343.065 586.314 342.272C585.479 341.48 584.866 340.486 584.534 339.389C584.202 338.292 584.163 337.129 584.421 336.013C584.679 334.896 585.224 333.865 586.005 333.019C586.888 332.06 588.028 331.367 589.293 331.023L589.784 330.892L589.79 330.389C589.792 330.207 589.792 330.023 589.792 329.845L589.792 329.664L589.795 327.746L588.983 327.913C587.434 328.226 585.983 328.9 584.75 329.879C584.609 329.993 584.461 330.121 584.327 330.236C584.267 330.289 584.21 330.338 584.158 330.383L584.137 330.4L583.775 330.759L583.699 330.854L583.697 330.854C583.63 330.937 583.553 331.028 583.471 331.123C583.273 331.355 583.051 331.616 582.865 331.878C581.602 333.654 580.974 335.795 581.08 337.964C581.185 340.132 582.019 342.204 583.448 343.851C584.82 345.447 586.678 346.559 588.743 347.02C588.8 347.033 588.863 347.046 588.915 347.057L588.972 347.069L589.767 347.238L589.767 347.256L590.262 347.391C591.383 347.674 592.411 348.239 593.246 349.032C594.081 349.825 594.694 350.818 595.026 351.915C595.358 353.012 595.397 354.176 595.139 355.292C594.881 356.408 594.336 357.44 593.555 358.285C592.673 359.245 591.533 359.938 590.269 360.282L589.778 360.413L589.778 360.456L588.983 360.62C587.434 360.933 585.983 361.607 584.751 362.586C584.609 362.7 584.461 362.827 584.328 362.943C584.267 362.995 584.211 363.045 584.158 363.09L584.137 363.107L583.775 363.466L583.699 363.56L583.698 363.56C583.63 363.644 583.553 363.734 583.472 363.83C583.273 364.061 583.051 364.323 582.865 364.585C581.603 366.36 580.974 368.502 581.08 370.67C581.186 372.839 582.019 374.911 583.448 376.558C584.82 378.153 586.678 379.265 588.743 379.726C588.8 379.74 588.863 379.753 588.916 379.764C588.936 379.768 588.956 379.772 588.972 379.775L589.784 379.948L589.784 379.917L590.263 380.048C591.385 380.331 592.413 380.896 593.248 381.689C594.083 382.482 594.696 383.475 595.028 384.572C595.36 385.669 595.399 386.833 595.141 387.949C594.883 389.065 594.338 390.097 593.557 390.942C592.675 391.902 591.535 392.595 590.27 392.939L589.794 393.065L589.794 393.056L588.982 393.224C587.433 393.536 585.982 394.211 584.749 395.19C584.608 395.303 584.46 395.431 584.326 395.547C584.266 395.599 584.209 395.648 584.157 395.693L584.136 395.71L583.774 396.069L583.698 396.164L583.696 396.164C583.629 396.247 583.552 396.338 583.47 396.433C583.272 396.665 583.05 396.926 582.864 397.188C581.601 398.964 580.973 401.106 581.079 403.274C581.184 405.443 582.018 407.514 583.447 409.162C584.819 410.757 586.677 411.869 588.742 412.33C588.799 412.343 588.862 412.356 588.914 412.367L588.971 412.379L589.783 412.552L589.794 409.36ZM588.447 328.73C588.464 328.726 588.481 328.722 588.499 328.717C588.457 328.728 588.415 328.74 588.374 328.752C588.398 328.743 588.423 328.736 588.447 328.729L588.447 328.73ZM584.785 330.726C584.913 330.616 585.04 330.505 585.171 330.4C585.04 330.505 584.912 330.616 584.785 330.726ZM583.679 331.916C583.771 331.804 583.865 331.693 583.96 331.583C583.864 331.694 583.771 331.803 583.679 331.916C583.588 332.03 583.499 332.143 583.415 332.263C583.499 332.142 583.588 332.028 583.679 331.915L583.679 331.916ZM590.44 362.741C590.452 362.738 590.465 362.735 590.477 362.733C590.465 362.733 590.452 362.737 590.44 362.739L590.44 362.741ZM591.114 362.578C591.091 362.584 591.068 362.589 591.046 362.595C591.102 362.58 591.159 362.564 591.215 362.548C591.181 362.556 591.148 362.567 591.114 362.576L591.114 362.578ZM594.774 360.582C594.647 360.693 594.52 360.802 594.389 360.908C594.521 360.803 594.648 360.693 594.774 360.582ZM588.447 361.436C588.464 361.432 588.481 361.428 588.498 361.423C588.457 361.434 588.416 361.445 588.376 361.457C588.399 361.449 588.423 361.443 588.447 361.435L588.447 361.436ZM597.821 386.483C597.822 385.568 597.684 384.659 597.411 383.785C597.826 385.113 597.927 386.517 597.708 387.89C597.488 389.262 596.953 390.567 596.145 391.703C597.231 390.174 597.816 388.351 597.82 386.481L597.821 386.483ZM591.114 395.234C591.094 395.24 591.073 395.245 591.053 395.25C591.104 395.236 591.154 395.222 591.205 395.207C591.174 395.215 591.144 395.224 591.114 395.231L591.114 395.234ZM594.389 393.564C594.521 393.459 594.648 393.349 594.775 393.239C594.648 393.347 594.521 393.458 594.389 393.564ZM588.447 394.04C588.465 394.035 588.482 394.031 588.5 394.026C588.457 394.038 588.415 394.05 588.372 394.062C588.397 394.053 588.422 394.045 588.447 394.038L588.447 394.04ZM585.173 395.71C585.042 395.814 584.914 395.925 584.787 396.035C584.912 395.923 585.04 395.813 585.171 395.708L585.173 395.71ZM582.883 398.418C582.284 399.494 581.912 400.679 581.788 401.902C581.911 400.679 582.283 399.493 582.882 398.416L582.883 398.418ZM581.742 402.735C581.728 404.343 582.146 405.926 582.954 407.322C582.145 405.926 581.726 404.342 581.74 402.733L581.742 402.735Z" fill="#FED670"/>
<path d="M670.924 239.277C670.271 240.404 669.223 241.248 667.983 241.645C666.744 242.042 665.4 241.964 664.215 241.425C663.029 240.887 662.087 239.927 661.57 238.732C661.053 237.537 660.999 236.192 661.418 234.96C661.838 233.727 662.701 232.695 663.839 232.063C664.978 231.432 666.31 231.246 667.578 231.542C668.846 231.838 669.958 232.596 670.698 233.667C671.439 234.738 671.755 236.046 671.584 237.336C671.494 238.021 671.27 238.68 670.924 239.277Z" fill="#E1458D"/>
<path d="M645.296 196.001C645.823 196.037 646.354 196.051 646.877 196.115C652.434 196.799 656.887 199.391 660.148 203.941C662.549 207.247 663.758 211.271 663.577 215.353C663.459 220.04 661.561 224.505 658.269 227.842C658.24 227.858 658.208 227.867 658.175 227.867C658.143 227.867 658.111 227.858 658.082 227.842C653.718 223.486 649.359 219.126 645.005 214.762C644.91 214.659 644.856 214.525 644.851 214.385C644.843 208.257 644.841 202.129 644.844 196L645.296 196.001Z" fill="#2FC8E0"/>
<path d="M624.001 217.295C624.038 217.823 624.051 218.353 624.116 218.877C624.8 224.433 627.392 228.887 631.941 232.147C635.248 234.549 639.271 235.757 643.353 235.576C648.04 235.458 652.505 233.56 655.843 230.268C655.859 230.239 655.867 230.207 655.867 230.175C655.867 230.142 655.859 230.11 655.843 230.081C651.487 225.718 647.126 221.359 642.762 217.004C642.659 216.91 642.525 216.854 642.385 216.85C636.258 216.842 630.129 216.84 624 216.843L624.001 217.295Z" fill="#2FC8E0"/>
<path d="M685.703 279.077C685.176 279.041 684.645 279.028 684.122 278.964C678.565 278.279 674.111 275.688 670.851 271.138C668.45 267.831 667.241 263.808 667.422 259.726C667.54 255.039 669.438 250.574 672.73 247.237C672.759 247.221 672.791 247.213 672.823 247.213C672.856 247.213 672.888 247.221 672.917 247.237C677.28 251.593 681.64 255.953 685.994 260.317C686.089 260.42 686.143 260.554 686.148 260.694C686.156 266.821 686.158 272.95 686.155 279.079L685.703 279.077Z" fill="#2FC8E0"/>
<path d="M706.998 257.783C706.962 257.255 706.949 256.725 706.884 256.202C706.2 250.645 703.608 246.192 699.058 242.931C695.752 240.53 691.728 239.321 687.646 239.502C682.96 239.621 678.494 241.518 675.157 244.81C675.141 244.839 675.133 244.871 675.133 244.904C675.133 244.936 675.141 244.968 675.157 244.997C679.513 249.361 683.873 253.72 688.238 258.074C688.341 258.169 688.474 258.224 688.614 258.229C694.742 258.236 700.87 258.238 707 258.235L706.998 257.783Z" fill="#2FC8E0"/>
<path d="M685.703 196.001C685.176 196.037 684.645 196.051 684.122 196.115C678.565 196.799 674.111 199.391 670.851 203.941C668.45 207.247 667.241 211.271 667.422 215.353C667.54 220.04 669.438 224.505 672.73 227.842C672.759 227.858 672.791 227.867 672.823 227.867C672.856 227.867 672.888 227.858 672.917 227.842C677.28 223.486 681.64 219.126 685.995 214.762C686.089 214.659 686.144 214.525 686.148 214.385C686.156 208.257 686.158 202.129 686.155 196L685.703 196.001Z" fill="#2FC8E0"/>
<path d="M706.998 217.295C706.962 217.823 706.949 218.353 706.884 218.877C706.2 224.433 703.608 228.887 699.058 232.147C695.752 234.549 691.729 235.758 687.646 235.576C682.96 235.458 678.494 233.56 675.157 230.268C675.141 230.239 675.133 230.207 675.133 230.175C675.133 230.142 675.141 230.11 675.157 230.081C679.513 225.718 683.873 221.359 688.238 217.004C688.341 216.909 688.474 216.854 688.614 216.85C694.742 216.842 700.87 216.84 707 216.843L706.998 217.295Z" fill="#2FC8E0"/>
<path d="M645.296 279.077C645.823 279.041 646.354 279.028 646.877 278.964C652.434 278.279 656.887 275.688 660.148 271.138C662.549 267.831 663.758 263.808 663.577 259.726C663.458 255.039 661.561 250.574 658.269 247.237C658.24 247.221 658.208 247.213 658.175 247.213C658.143 247.213 658.111 247.221 658.082 247.237C653.718 251.593 649.359 255.953 645.005 260.317C644.91 260.42 644.856 260.554 644.851 260.694C644.843 266.821 644.841 272.95 644.844 279.079L645.296 279.077Z" fill="#2FC8E0"/>
<path d="M624.001 257.783C624.038 257.255 624.051 256.725 624.116 256.202C624.8 250.645 627.392 246.192 631.941 242.931C635.248 240.53 639.271 239.321 643.354 239.502C648.04 239.621 652.505 241.518 655.843 244.81C655.859 244.839 655.867 244.871 655.867 244.904C655.867 244.936 655.859 244.968 655.843 244.997C651.487 249.361 647.126 253.72 642.762 258.074C642.659 258.169 642.525 258.224 642.385 258.229C636.258 258.236 630.129 258.238 624 258.235L624.001 257.783Z" fill="#2FC8E0"/>
<path fill-rule="evenodd" clip-rule="evenodd" d="M665.928 404.753L665.206 404.555C663.573 404.143 662.076 403.32 660.86 402.166C659.644 401.011 658.751 399.565 658.268 397.967C657.785 396.37 657.729 394.676 658.104 393.051C658.479 391.425 659.273 389.923 660.409 388.692C661.695 387.293 663.356 386.285 665.199 385.783L665.891 385.6L665.891 385.613L667.071 385.369C669.327 384.914 671.44 383.933 673.234 382.506C673.443 382.341 673.656 382.155 673.851 381.987L674.099 381.773L674.127 381.748L674.658 381.225L674.768 381.088C674.868 380.967 674.981 380.835 675.099 380.695C675.386 380.358 675.711 379.977 675.978 379.596C677.817 377.011 678.733 373.893 678.579 370.735C678.426 367.577 677.213 364.56 675.132 362.162C673.134 359.839 670.43 358.22 667.423 357.548C667.341 357.529 667.248 357.51 667.172 357.494C667.14 357.487 667.112 357.481 667.09 357.477L665.908 357.225L665.908 357.27L665.208 357.079C663.575 356.667 662.078 355.844 660.862 354.69C659.646 353.535 658.753 352.089 658.27 350.491C657.787 348.894 657.731 347.2 658.106 345.574C658.481 343.949 659.276 342.447 660.412 341.216C661.697 339.818 663.357 338.81 665.199 338.308L665.913 338.117L665.913 338.055L667.071 337.816C669.326 337.361 671.439 336.38 673.234 334.953C673.443 334.788 673.655 334.602 673.85 334.434L674.099 334.22L674.127 334.196L674.657 333.672L674.767 333.535C674.868 333.414 674.98 333.282 675.098 333.143C675.385 332.806 675.71 332.425 675.978 332.043C677.817 329.458 678.732 326.34 678.579 323.182C678.425 320.025 677.212 317.008 675.131 314.609C673.134 312.286 670.429 310.667 667.423 309.995C667.34 309.976 667.248 309.957 667.172 309.941C667.139 309.934 667.112 309.929 667.089 309.924L665.929 309.677L665.929 309.652L665.207 309.454C663.574 309.042 662.077 308.219 660.861 307.065C659.645 305.91 658.752 304.464 658.269 302.866C657.786 301.269 657.73 299.575 658.105 297.949C658.48 296.324 659.275 294.822 660.411 293.591C661.697 292.193 663.357 291.185 665.199 290.684L665.913 290.493L665.923 289.76C665.926 289.495 665.926 289.228 665.926 288.969L665.926 288.704L665.929 285.912L664.747 286.155C662.492 286.611 660.379 287.592 658.584 289.019C658.378 289.184 658.163 289.37 657.968 289.538C657.88 289.615 657.798 289.687 657.721 289.752L657.691 289.776L657.163 290.3L657.053 290.437L657.051 290.437C656.953 290.559 656.84 290.691 656.722 290.83C656.433 291.167 656.11 291.548 655.839 291.929C654 294.515 653.085 297.633 653.239 300.791C653.393 303.948 654.607 306.965 656.688 309.363C658.686 311.687 661.391 313.306 664.398 313.977C664.481 313.996 664.573 314.016 664.649 314.031L664.732 314.049L665.889 314.295L665.889 314.321L666.609 314.518C668.242 314.93 669.739 315.753 670.955 316.907C672.171 318.062 673.064 319.508 673.547 321.106C674.03 322.703 674.087 324.397 673.711 326.023C673.336 327.648 672.542 329.15 671.406 330.381C670.12 331.779 668.461 332.787 666.619 333.289L665.905 333.48L665.905 333.543L664.748 333.781C662.493 334.237 660.38 335.218 658.585 336.644C658.378 336.81 658.163 336.995 657.969 337.164C657.881 337.24 657.798 337.313 657.722 337.378L657.692 337.402L657.164 337.925L657.054 338.062L657.051 338.062C656.953 338.184 656.841 338.315 656.722 338.455C656.433 338.792 656.11 339.173 655.839 339.555C654.001 342.14 653.086 345.258 653.24 348.416C653.394 351.573 654.607 354.59 656.688 356.989C658.686 359.312 661.391 360.931 664.399 361.603C664.481 361.622 664.573 361.641 664.65 361.657C664.68 361.663 664.708 361.669 664.732 361.674L665.914 361.926L665.914 361.88L666.612 362.071C668.245 362.483 669.742 363.306 670.958 364.461C672.174 365.615 673.067 367.062 673.55 368.659C674.033 370.257 674.089 371.951 673.714 373.576C673.339 375.202 672.544 376.703 671.408 377.935C670.123 379.333 668.464 380.341 666.622 380.843L665.928 381.026L665.928 381.013L664.746 381.256C662.491 381.712 660.378 382.694 658.583 384.12C658.376 384.285 658.162 384.471 657.967 384.639C657.879 384.715 657.796 384.788 657.72 384.853L657.69 384.877L657.162 385.4L657.052 385.538L657.05 385.538C656.951 385.659 656.839 385.791 656.72 385.93C656.432 386.268 656.108 386.648 655.838 387.03C653.999 389.615 653.084 392.734 653.238 395.891C653.392 399.049 654.605 402.066 656.687 404.465C658.684 406.788 661.39 408.407 664.397 409.079C664.479 409.097 664.571 409.117 664.648 409.132L664.73 409.15L665.912 409.401L665.928 404.753ZM663.967 287.346C663.992 287.339 664.017 287.333 664.042 287.326C663.982 287.342 663.92 287.359 663.86 287.377C663.896 287.364 663.932 287.353 663.967 287.343L663.967 287.346ZM658.635 290.251C658.82 290.091 659.006 289.93 659.197 289.777C659.007 289.93 658.82 290.091 658.635 290.251ZM657.025 291.985C657.158 291.821 657.295 291.66 657.433 291.499C657.294 291.66 657.158 291.82 657.025 291.985C656.891 292.15 656.762 292.315 656.64 292.489C656.762 292.313 656.891 292.146 657.025 291.982L657.025 291.985ZM666.869 336.87C666.887 336.866 666.905 336.861 666.923 336.858C666.905 336.858 666.887 336.864 666.869 336.867L666.869 336.87ZM667.851 336.632C667.818 336.641 667.784 336.649 667.751 336.657C667.834 336.635 667.916 336.612 667.997 336.589C667.948 336.601 667.9 336.616 667.851 336.629L667.851 336.632ZM673.181 333.726C672.995 333.887 672.81 334.047 672.619 334.2C672.812 334.048 672.996 333.887 673.181 333.726ZM663.968 334.97C663.992 334.963 664.017 334.957 664.042 334.95C663.982 334.967 663.922 334.983 663.863 335C663.898 334.988 663.932 334.979 663.967 334.968L663.968 334.97ZM677.616 371.441C677.618 370.11 677.417 368.785 677.02 367.513C677.624 369.447 677.772 371.491 677.452 373.49C677.132 375.489 676.354 377.388 675.176 379.042C676.758 376.816 677.61 374.161 677.616 371.439L677.616 371.441ZM667.851 384.184C667.821 384.192 667.791 384.199 667.762 384.207C667.836 384.187 667.909 384.167 667.983 384.145C667.938 384.156 667.895 384.169 667.851 384.18L667.851 384.184ZM672.619 381.753C672.812 381.6 672.997 381.439 673.181 381.278C672.996 381.436 672.812 381.598 672.619 381.753ZM663.968 382.445C663.993 382.438 664.019 382.432 664.044 382.426C663.982 382.442 663.92 382.459 663.858 382.477C663.894 382.464 663.931 382.453 663.967 382.443L663.968 382.445ZM659.199 384.876C659.009 385.029 658.822 385.19 658.638 385.351C658.82 385.188 659.007 385.027 659.197 384.874L659.199 384.876ZM655.866 388.82C654.994 390.387 654.451 392.113 654.27 393.893C654.45 392.112 654.991 390.386 655.863 388.818L655.866 388.82ZM654.204 395.106C654.183 397.448 654.792 399.753 655.969 401.785C654.791 399.753 654.181 397.447 654.201 395.104L654.204 395.106Z" fill="#FED670"/>
<path d="M102.736 130.384H95.612V162H88.488V130.384H81.364V123.572H102.736V130.384ZM130.136 162H123.22V147.284C123.22 144.268 122.787 142.119 121.92 140.836C121.053 139.519 119.615 138.86 117.604 138.86C115.559 138.86 114.033 139.519 113.028 140.836C112.023 142.119 111.52 144.303 111.52 147.388V162H104.604V123.572H111.52V135.168C113.531 133.365 115.975 132.464 118.852 132.464C126.375 132.464 130.136 136.884 130.136 145.724V162ZM163.552 148.012C163.552 148.948 163.465 149.832 163.292 150.664H140.984C141.4 152.397 142.318 153.784 143.74 154.824C145.161 155.829 146.894 156.332 148.94 156.332C150.361 156.332 151.54 156.124 152.476 155.708C153.446 155.257 154.382 154.512 155.284 153.472H162.824C161.888 156.315 160.12 158.568 157.52 160.232C154.954 161.861 152.146 162.676 149.096 162.676C144.693 162.676 140.984 161.237 137.968 158.36C134.986 155.483 133.496 151.929 133.496 147.7C133.496 143.471 134.969 139.883 137.916 136.936C140.862 133.989 144.45 132.516 148.68 132.516C152.978 132.516 156.532 133.989 159.34 136.936C162.148 139.848 163.552 143.54 163.552 148.012ZM156.74 144.58C156.289 142.743 155.37 141.339 153.984 140.368C152.632 139.363 150.898 138.86 148.784 138.86C144.589 138.86 141.92 140.767 140.776 144.58H156.74ZM220.228 143.332C220.228 148.601 218.286 153.143 214.404 156.956C210.521 160.769 205.772 162.676 200.156 162.676C194.262 162.676 189.305 160.752 185.284 156.904C181.262 153.056 179.252 148.324 179.252 142.708C179.252 137.196 181.21 132.516 185.128 128.668C189.08 124.82 193.864 122.896 199.48 122.896C203.674 122.896 207.54 124.023 211.076 126.276C214.612 128.529 217.004 131.389 218.252 134.856H209.88C207.453 131.459 203.934 129.76 199.324 129.76C195.58 129.76 192.494 131.025 190.068 133.556C187.641 136.052 186.428 139.137 186.428 142.812C186.428 146.487 187.693 149.572 190.224 152.068C192.789 154.564 195.961 155.812 199.74 155.812C202.27 155.812 204.524 155.223 206.5 154.044C208.476 152.865 209.984 151.201 211.024 149.052H195.112V142.396H220.228V143.332ZM230.983 162H223.859V123.572H230.983V162ZM269.946 123.572L255.074 162H249.25L234.274 123.572H241.762L252.11 152.796L262.458 123.572H269.946ZM297.746 148.012C297.746 148.948 297.659 149.832 297.486 150.664H275.178C275.594 152.397 276.513 153.784 277.934 154.824C279.355 155.829 281.089 156.332 283.134 156.332C284.555 156.332 285.734 156.124 286.67 155.708C287.641 155.257 288.577 154.512 289.478 153.472H297.018C296.082 156.315 294.314 158.568 291.714 160.232C289.149 161.861 286.341 162.676 283.29 162.676C278.887 162.676 275.178 161.237 272.162 158.36C269.181 155.483 267.69 151.929 267.69 147.7C267.69 143.471 269.163 139.883 272.11 136.936C275.057 133.989 278.645 132.516 282.874 132.516C287.173 132.516 290.726 133.989 293.534 136.936C296.342 139.848 297.746 143.54 297.746 148.012ZM290.934 144.58C290.483 142.743 289.565 141.339 288.178 140.368C286.826 139.363 285.093 138.86 282.978 138.86C278.783 138.86 276.114 140.767 274.97 144.58H290.934ZM329.604 152.536C328.391 155.76 326.536 158.256 324.04 160.024C321.579 161.792 318.667 162.676 315.304 162.676C311.04 162.676 307.4 161.22 304.384 158.308C301.403 155.361 299.912 151.791 299.912 147.596C299.912 143.367 301.368 139.796 304.28 136.884C307.227 133.972 310.832 132.516 315.096 132.516C318.424 132.516 321.388 133.417 323.988 135.22C326.623 137.023 328.495 139.553 329.604 142.812H321.804C320.417 140.177 318.181 138.86 315.096 138.86C312.704 138.86 310.728 139.675 309.168 141.304C307.643 142.933 306.88 145.013 306.88 147.544C306.88 150.075 307.677 152.172 309.272 153.836C310.867 155.5 312.86 156.332 315.252 156.332C317.991 156.332 320.175 155.067 321.804 152.536H329.604ZM362.762 147.804C362.762 151.86 361.254 155.361 358.238 158.308C355.222 161.22 351.616 162.676 347.422 162.676C343.192 162.676 339.587 161.203 336.606 158.256C333.624 155.309 332.134 151.756 332.134 147.596C332.134 143.471 333.624 139.935 336.606 136.988C339.587 134.007 343.175 132.516 347.37 132.516C351.703 132.516 355.343 133.989 358.29 136.936C361.271 139.883 362.762 143.505 362.762 147.804ZM355.794 147.596C355.794 145.204 354.979 143.159 353.35 141.46C351.72 139.727 349.744 138.86 347.422 138.86C345.168 138.86 343.21 139.709 341.546 141.408C339.916 143.107 339.102 145.135 339.102 147.492C339.102 149.953 339.916 152.051 341.546 153.784C343.175 155.483 345.151 156.332 347.474 156.332C349.762 156.332 351.72 155.483 353.35 153.784C354.979 152.085 355.794 150.023 355.794 147.596ZM391.187 162H384.271V147.908C384.271 144.303 383.821 141.893 382.919 140.68C382.053 139.467 380.666 138.86 378.759 138.86C376.471 138.86 374.773 139.744 373.663 141.512C372.901 142.725 372.519 145.031 372.519 148.428V162H365.603V133.192H371.999V135.948C374.391 133.66 377.095 132.516 380.111 132.516C384.202 132.516 387.201 133.903 389.107 136.676C389.87 137.785 390.407 139.068 390.719 140.524C391.031 141.98 391.187 143.991 391.187 146.556V162ZM425.123 147.804C425.123 151.86 423.615 155.361 420.599 158.308C417.583 161.22 413.978 162.676 409.783 162.676C405.554 162.676 401.948 161.203 398.967 158.256C395.986 155.309 394.495 151.756 394.495 147.596C394.495 143.471 395.986 139.935 398.967 136.988C401.948 134.007 405.536 132.516 409.731 132.516C414.064 132.516 417.704 133.989 420.651 136.936C423.632 139.883 425.123 143.505 425.123 147.804ZM418.155 147.596C418.155 145.204 417.34 143.159 415.711 141.46C414.082 139.727 412.106 138.86 409.783 138.86C407.53 138.86 405.571 139.709 403.907 141.408C402.278 143.107 401.463 145.135 401.463 147.492C401.463 149.953 402.278 152.051 403.907 153.784C405.536 155.483 407.512 156.332 409.835 156.332C412.123 156.332 414.082 155.483 415.711 153.784C417.34 152.085 418.155 150.023 418.155 147.596ZM471.177 162H464.261V146.192C464.261 143.488 463.793 141.599 462.857 140.524C461.955 139.415 460.621 138.86 458.853 138.86C456.842 138.86 455.369 139.519 454.433 140.836C453.497 142.153 453.029 144.476 453.029 147.804V162H446.113V146.192C446.113 143.488 445.645 141.599 444.709 140.524C443.807 139.415 442.403 138.86 440.497 138.86C438.451 138.86 436.995 139.519 436.129 140.836C435.297 142.119 434.881 144.441 434.881 147.804V162H427.965V133.192H434.309V135.896C435.314 134.683 436.389 133.816 437.533 133.296C438.677 132.776 440.098 132.516 441.797 132.516C445.575 132.516 448.401 134.007 450.273 136.988C452.526 134.007 455.611 132.516 459.529 132.516C467.294 132.516 471.177 136.797 471.177 145.36V162ZM501.539 133.192L484.899 171.62H477.463L482.871 159.296L472.315 133.192H480.219L486.615 151.86L493.583 133.192H501.539Z" fill="white"/>
<path d="M93.992 219.608C93.992 222.211 93.448 224.173 92.36 225.496C91.2933 226.797 89.736 227.448 87.688 227.448C85.8107 227.448 84.3067 226.915 83.176 225.848C82.0667 224.781 81.4587 223.299 81.352 221.4H83.688C83.7733 222.595 84.168 223.544 84.872 224.248C85.5973 224.931 86.5467 225.272 87.72 225.272C90.3227 225.272 91.624 223.384 91.624 219.608V203.352H93.992V219.608ZM115.734 218.296C115.734 220.92 114.891 223.096 113.206 224.824C111.52 226.552 109.398 227.416 106.838 227.416C104.128 227.416 101.888 226.541 100.118 224.792C98.3468 223.043 97.4615 220.824 97.4615 218.136C97.4615 215.576 98.3362 213.432 100.086 211.704C101.856 209.955 104.043 209.08 106.646 209.08C109.27 209.08 111.435 209.955 113.142 211.704C114.87 213.432 115.734 215.629 115.734 218.296ZM113.334 218.328C113.334 216.301 112.694 214.616 111.414 213.272C110.155 211.928 108.566 211.256 106.646 211.256C104.704 211.256 103.083 211.917 101.782 213.24C100.502 214.563 99.8615 216.216 99.8615 218.2C99.8615 220.248 100.512 221.933 101.814 223.256C103.115 224.579 104.768 225.24 106.774 225.24C108.672 225.24 110.24 224.589 111.478 223.288C112.715 221.987 113.334 220.333 113.334 218.328ZM121.15 227H118.782V209.496H121.15V227ZM121.15 207.576H118.782V203.544H121.15V207.576ZM140.357 227H137.989V217.816C137.989 213.443 136.186 211.256 132.581 211.256C130.917 211.256 129.605 211.757 128.645 212.76C127.706 213.763 127.237 215.299 127.237 217.368V227H124.869V209.496H127.237V211.768C128.709 209.976 130.586 209.08 132.869 209.08C135.173 209.08 136.997 209.805 138.341 211.256C139.685 212.685 140.357 214.872 140.357 217.816V227ZM161.083 211.64H157.147V227H154.779V211.64H151.003V209.496H154.779V203.352H157.147V209.496H161.083V211.64ZM178.647 227H176.279V217.592C176.279 215.48 175.788 213.901 174.807 212.856C173.847 211.789 172.535 211.256 170.871 211.256C169.271 211.256 167.98 211.768 166.999 212.792C166.017 213.816 165.527 215.352 165.527 217.4V227H163.159V203.352H165.527V211.768C166.764 209.976 168.62 209.08 171.095 209.08C173.441 209.08 175.287 209.795 176.631 211.224C177.975 212.632 178.647 214.755 178.647 217.592V227ZM199.906 219.032H184.066C184.151 220.76 184.855 222.232 186.178 223.448C187.522 224.643 189.09 225.24 190.882 225.24C192.204 225.24 193.431 224.877 194.562 224.152C195.692 223.405 196.503 222.435 196.994 221.24H199.458C198.882 222.968 197.794 224.429 196.194 225.624C194.615 226.819 192.866 227.416 190.946 227.416C188.364 227.416 186.178 226.531 184.386 224.76C182.594 222.968 181.698 220.771 181.698 218.168C181.698 215.629 182.572 213.485 184.322 211.736C186.092 209.965 188.247 209.08 190.786 209.08C193.431 209.08 195.607 209.987 197.314 211.8C199.042 213.592 199.906 216.003 199.906 219.032ZM197.538 216.888C197.132 215.139 196.322 213.763 195.106 212.76C193.911 211.757 192.46 211.256 190.754 211.256C189.09 211.256 187.65 211.779 186.434 212.824C185.218 213.848 184.45 215.203 184.13 216.888H197.538ZM228.953 219.032H213.113C213.199 220.76 213.903 222.232 215.225 223.448C216.569 224.643 218.137 225.24 219.929 225.24C221.252 225.24 222.479 224.877 223.609 224.152C224.74 223.405 225.551 222.435 226.041 221.24H228.505C227.929 222.968 226.841 224.429 225.241 225.624C223.663 226.819 221.913 227.416 219.993 227.416C217.412 227.416 215.225 226.531 213.433 224.76C211.641 222.968 210.745 220.771 210.745 218.168C210.745 215.629 211.62 213.485 213.369 211.736C215.14 209.965 217.295 209.08 219.833 209.08C222.479 209.08 224.655 209.987 226.361 211.8C228.089 213.592 228.953 216.003 228.953 219.032ZM226.585 216.888C226.18 215.139 225.369 213.763 224.153 212.76C222.959 211.757 221.508 211.256 219.801 211.256C218.137 211.256 216.697 211.779 215.481 212.824C214.265 213.848 213.497 215.203 213.177 216.888H226.585ZM249.35 221.848C247.387 225.56 244.528 227.416 240.774 227.416C238.086 227.416 235.824 226.531 233.99 224.76C232.155 222.989 231.238 220.803 231.238 218.2C231.238 215.661 232.144 213.507 233.958 211.736C235.771 209.965 237.99 209.08 240.614 209.08C242.576 209.08 244.336 209.603 245.894 210.648C247.472 211.672 248.614 213.059 249.318 214.808H246.662C245.275 212.44 243.248 211.256 240.582 211.256C238.64 211.256 236.998 211.939 235.654 213.304C234.31 214.648 233.638 216.301 233.638 218.264C233.638 220.205 234.32 221.859 235.686 223.224C237.051 224.568 238.715 225.24 240.678 225.24C241.915 225.24 242.992 224.984 243.91 224.472C244.827 223.939 245.744 223.064 246.662 221.848H249.35ZM269.908 218.296C269.908 220.92 269.066 223.096 267.38 224.824C265.695 226.552 263.572 227.416 261.012 227.416C258.303 227.416 256.063 226.541 254.292 224.792C252.522 223.043 251.636 220.824 251.636 218.136C251.636 215.576 252.511 213.432 254.26 211.704C256.031 209.955 258.218 209.08 260.82 209.08C263.444 209.08 265.61 209.955 267.316 211.704C269.044 213.432 269.908 215.629 269.908 218.296ZM267.508 218.328C267.508 216.301 266.868 214.616 265.588 213.272C264.33 211.928 262.74 211.256 260.82 211.256C258.879 211.256 257.258 211.917 255.956 213.24C254.676 214.563 254.036 216.216 254.036 218.2C254.036 220.248 254.687 221.933 255.988 223.256C257.29 224.579 258.943 225.24 260.948 225.24C262.847 225.24 264.415 224.589 265.652 223.288C266.89 221.987 267.508 220.333 267.508 218.328ZM288.445 227H286.077V217.816C286.077 213.443 284.275 211.256 280.669 211.256C279.005 211.256 277.693 211.757 276.733 212.76C275.795 213.763 275.325 215.299 275.325 217.368V227H272.957V209.496H275.325V211.768C276.797 209.976 278.675 209.08 280.957 209.08C283.261 209.08 285.085 209.805 286.429 211.256C287.773 212.685 288.445 214.872 288.445 217.816V227ZM309.768 218.296C309.768 220.92 308.926 223.096 307.24 224.824C305.555 226.552 303.432 227.416 300.872 227.416C298.163 227.416 295.923 226.541 294.152 224.792C292.382 223.043 291.496 220.824 291.496 218.136C291.496 215.576 292.371 213.432 294.12 211.704C295.891 209.955 298.078 209.08 300.68 209.08C303.304 209.08 305.47 209.955 307.176 211.704C308.904 213.432 309.768 215.629 309.768 218.296ZM307.368 218.328C307.368 216.301 306.728 214.616 305.448 213.272C304.19 211.928 302.6 211.256 300.68 211.256C298.739 211.256 297.118 211.917 295.816 213.24C294.536 214.563 293.896 216.216 293.896 218.2C293.896 220.248 294.547 221.933 295.848 223.256C297.15 224.579 298.803 225.24 300.808 225.24C302.707 225.24 304.275 224.589 305.512 223.288C306.75 221.987 307.368 220.333 307.368 218.328ZM338.801 227H336.433V216.856C336.433 213.101 334.887 211.224 331.793 211.224C330.321 211.224 329.148 211.693 328.273 212.632C327.42 213.549 326.993 214.957 326.993 216.856V227H324.625V216.792C324.625 214.936 324.188 213.549 323.313 212.632C322.46 211.715 321.319 211.256 319.889 211.256C318.417 211.256 317.265 211.747 316.433 212.728C315.601 213.688 315.185 215.043 315.185 216.792V227H312.817V209.496H315.185V211.512C315.847 210.637 316.551 210.019 317.297 209.656C318.065 209.272 319.004 209.08 320.113 209.08C321.415 209.08 322.524 209.347 323.441 209.88C324.359 210.413 325.159 211.267 325.841 212.44C327.271 210.179 329.297 209.048 331.921 209.048C333.991 209.048 335.655 209.699 336.913 211C338.172 212.28 338.801 214.147 338.801 216.6V227ZM356.908 209.496L346.796 233.144H344.268L347.116 226.424L340.332 209.496H342.924L348.46 223.448L354.38 209.496H356.908ZM385.051 218.296C385.051 220.92 384.208 223.096 382.523 224.824C380.838 226.552 378.715 227.416 376.155 227.416C373.446 227.416 371.206 226.541 369.435 224.792C367.664 223.043 366.779 220.824 366.779 218.136C366.779 215.576 367.654 213.432 369.403 211.704C371.174 209.955 373.36 209.08 375.963 209.08C378.587 209.08 380.752 209.955 382.459 211.704C384.187 213.432 385.051 215.629 385.051 218.296ZM382.651 218.328C382.651 216.301 382.011 214.616 380.731 213.272C379.472 211.928 377.883 211.256 375.963 211.256C374.022 211.256 372.4 211.917 371.099 213.24C369.819 214.563 369.179 216.216 369.179 218.2C369.179 220.248 369.83 221.933 371.131 223.256C372.432 224.579 374.086 225.24 376.091 225.24C377.99 225.24 379.558 224.589 380.795 223.288C382.032 221.987 382.651 220.333 382.651 218.328ZM396.036 211.64H391.684V227H389.316V211.64H386.596V209.496H389.316C389.252 205.4 391.492 203.352 396.036 203.352V205.496C394.414 205.496 393.273 205.805 392.612 206.424C391.972 207.021 391.662 208.045 391.684 209.496H396.036V211.64ZM423.901 223.864C423.901 225.571 423.773 226.936 423.517 227.96C423.283 229.005 422.867 229.933 422.269 230.744C420.691 232.835 418.323 233.88 415.165 233.88C412.968 233.88 411.112 233.336 409.597 232.248C408.083 231.16 407.005 229.592 406.365 227.544H408.669C409.544 229.101 410.461 230.179 411.421 230.776C412.381 231.395 413.608 231.704 415.101 231.704C417.213 231.704 418.813 231.096 419.901 229.88C420.989 228.685 421.533 226.936 421.533 224.632V223.448C420.189 226.093 417.96 227.416 414.845 227.416C412.285 227.416 410.12 226.541 408.349 224.792C406.6 223.043 405.725 220.888 405.725 218.328C405.725 215.683 406.579 213.485 408.285 211.736C409.992 209.965 412.125 209.08 414.685 209.08C417.523 209.08 419.805 210.253 421.533 212.6V209.496H423.901V223.864ZM421.533 218.04C421.533 216.141 420.883 214.541 419.581 213.24C418.28 211.917 416.691 211.256 414.813 211.256C412.872 211.256 411.272 211.907 410.013 213.208C408.755 214.488 408.125 216.131 408.125 218.136C408.125 220.163 408.765 221.859 410.045 223.224C411.325 224.568 412.925 225.24 414.845 225.24C416.744 225.24 418.333 224.557 419.613 223.192C420.893 221.805 421.533 220.088 421.533 218.04ZM429.976 227H427.608V209.496H429.976V227ZM429.976 207.576H427.608V203.544H429.976V207.576ZM449.151 209.496L441.791 227H439.295L431.935 209.496H434.335L440.479 224.216L446.751 209.496H449.151ZM453.462 227H451.094V209.496H453.462V227ZM453.462 207.576H451.094V203.544H453.462V207.576ZM472.668 227H470.3V217.816C470.3 213.443 468.497 211.256 464.892 211.256C463.228 211.256 461.916 211.757 460.956 212.76C460.017 213.763 459.548 215.299 459.548 217.368V227H457.18V209.496H459.548V211.768C461.02 209.976 462.897 209.08 465.18 209.08C467.484 209.08 469.308 209.805 470.652 211.256C471.996 212.685 472.668 214.872 472.668 217.816V227ZM493.895 223.864C493.895 225.571 493.767 226.936 493.511 227.96C493.276 229.005 492.86 229.933 492.263 230.744C490.684 232.835 488.316 233.88 485.159 233.88C482.962 233.88 481.106 233.336 479.591 232.248C478.076 231.16 476.999 229.592 476.359 227.544H478.663C479.538 229.101 480.455 230.179 481.415 230.776C482.375 231.395 483.602 231.704 485.095 231.704C487.207 231.704 488.807 231.096 489.895 229.88C490.983 228.685 491.527 226.936 491.527 224.632V223.448C490.183 226.093 487.954 227.416 484.839 227.416C482.279 227.416 480.114 226.541 478.343 224.792C476.594 223.043 475.719 220.888 475.719 218.328C475.719 215.683 476.572 213.485 478.279 211.736C479.986 209.965 482.119 209.08 484.679 209.08C487.516 209.08 489.799 210.253 491.527 212.6V209.496H493.895V223.864ZM491.527 218.04C491.527 216.141 490.876 214.541 489.575 213.24C488.274 211.917 486.684 211.256 484.807 211.256C482.866 211.256 481.266 211.907 480.007 213.208C478.748 214.488 478.119 216.131 478.119 218.136C478.119 220.163 478.759 221.859 480.039 223.224C481.319 224.568 482.919 225.24 484.839 225.24C486.738 225.24 488.327 224.557 489.607 223.192C490.887 221.805 491.527 220.088 491.527 218.04ZM523.981 227H521.613V223.928C520.675 225.187 519.683 226.083 518.637 226.616C517.613 227.149 516.355 227.416 514.861 227.416C512.173 227.416 509.933 226.552 508.141 224.824C506.371 223.075 505.485 220.899 505.485 218.296C505.485 215.672 506.36 213.485 508.109 211.736C509.88 209.965 512.077 209.08 514.701 209.08C517.645 209.08 519.949 210.253 521.613 212.6V209.496H523.981V227ZM521.613 218.168C521.613 216.227 520.952 214.595 519.629 213.272C518.307 211.928 516.685 211.256 514.765 211.256C512.867 211.256 511.245 211.928 509.901 213.272C508.557 214.616 507.885 216.237 507.885 218.136C507.885 220.141 508.557 221.827 509.901 223.192C511.245 224.557 512.909 225.24 514.893 225.24C516.771 225.24 518.36 224.557 519.661 223.192C520.963 221.827 521.613 220.152 521.613 218.168ZM543.169 227H540.801V217.816C540.801 213.443 538.998 211.256 535.393 211.256C533.729 211.256 532.417 211.757 531.457 212.76C530.518 213.763 530.049 215.299 530.049 217.368V227H527.681V209.496H530.049V211.768C531.521 209.976 533.398 209.08 535.681 209.08C537.985 209.08 539.809 209.805 541.153 211.256C542.497 212.685 543.169 214.872 543.169 217.816V227ZM564.78 227H562.412V223.832C561.538 225.091 560.567 226.008 559.5 226.584C558.455 227.139 557.207 227.416 555.756 227.416C553.047 227.416 550.775 226.541 548.94 224.792C547.127 223.043 546.22 220.867 546.22 218.264C546.22 215.661 547.106 213.485 548.876 211.736C550.668 209.965 552.887 209.08 555.532 209.08C558.348 209.08 560.642 210.147 562.412 212.28V203.352H564.78V227ZM560.492 223.16C561.836 221.773 562.508 220.12 562.508 218.2C562.508 216.28 561.815 214.648 560.428 213.304C559.063 211.939 557.41 211.256 555.468 211.256C553.57 211.256 551.948 211.928 550.604 213.272C549.282 214.616 548.62 216.248 548.62 218.168C548.62 220.173 549.292 221.859 550.636 223.224C552.002 224.568 553.687 225.24 555.692 225.24C557.57 225.24 559.17 224.547 560.492 223.16ZM85.384 274H83.016V250.352H85.384V274ZM106.638 266.032H90.7982C90.8836 267.76 91.5876 269.232 92.9103 270.448C94.2543 271.643 95.8223 272.24 97.6143 272.24C98.9369 272.24 100.164 271.877 101.294 271.152C102.425 270.405 103.236 269.435 103.726 268.24H106.19C105.614 269.968 104.526 271.429 102.926 272.624C101.348 273.819 99.5983 274.416 97.6783 274.416C95.0969 274.416 92.9103 273.531 91.1182 271.76C89.3262 269.968 88.4302 267.771 88.4302 265.168C88.4302 262.629 89.3049 260.485 91.0543 258.736C92.8249 256.965 94.9796 256.08 97.5182 256.08C100.164 256.08 102.34 256.987 104.046 258.8C105.774 260.592 106.638 263.003 106.638 266.032ZM104.27 263.888C103.865 262.139 103.054 260.763 101.838 259.76C100.644 258.757 99.1929 258.256 97.4863 258.256C95.8223 258.256 94.3823 258.779 93.1663 259.824C91.9502 260.848 91.1822 262.203 90.8623 263.888H104.27ZM127.419 274H125.051V270.928C124.112 272.187 123.12 273.083 122.075 273.616C121.051 274.149 119.792 274.416 118.299 274.416C115.611 274.416 113.371 273.552 111.579 271.824C109.808 270.075 108.923 267.899 108.923 265.296C108.923 262.672 109.797 260.485 111.547 258.736C113.317 256.965 115.515 256.08 118.139 256.08C121.083 256.08 123.387 257.253 125.051 259.6V256.496H127.419V274ZM125.051 265.168C125.051 263.227 124.389 261.595 123.067 260.272C121.744 258.928 120.123 258.256 118.203 258.256C116.304 258.256 114.683 258.928 113.339 260.272C111.995 261.616 111.323 263.237 111.323 265.136C111.323 267.141 111.995 268.827 113.339 270.192C114.683 271.557 116.347 272.24 118.331 272.24C120.208 272.24 121.797 271.557 123.099 270.192C124.4 268.827 125.051 267.152 125.051 265.168ZM138.447 258.416C135.14 258.736 133.487 260.528 133.487 263.792V274H131.119V256.496H133.487V258.992C133.956 258.032 134.585 257.328 135.375 256.88C136.164 256.411 137.188 256.144 138.447 256.08V258.416ZM155.912 274H153.544V264.816C153.544 260.443 151.741 258.256 148.136 258.256C146.472 258.256 145.16 258.757 144.2 259.76C143.261 260.763 142.792 262.299 142.792 264.368V274H140.424V256.496H142.792V258.768C144.264 256.976 146.141 256.08 148.424 256.08C150.728 256.08 152.552 256.805 153.896 258.256C155.24 259.685 155.912 261.872 155.912 264.816V274ZM183.678 274H181.31V264.592C181.31 262.48 180.819 260.901 179.838 259.856C178.878 258.789 177.566 258.256 175.902 258.256C174.302 258.256 173.011 258.768 172.03 259.792C171.048 260.816 170.558 262.352 170.558 264.4V274H168.19V250.352H170.558V258.768C171.795 256.976 173.651 256.08 176.126 256.08C178.472 256.08 180.318 256.795 181.662 258.224C183.006 259.632 183.678 261.755 183.678 264.592V274ZM205.001 265.296C205.001 267.92 204.158 270.096 202.473 271.824C200.788 273.552 198.665 274.416 196.105 274.416C193.396 274.416 191.156 273.541 189.385 271.792C187.614 270.043 186.729 267.824 186.729 265.136C186.729 262.576 187.604 260.432 189.353 258.704C191.124 256.955 193.31 256.08 195.913 256.08C198.537 256.08 200.702 256.955 202.409 258.704C204.137 260.432 205.001 262.629 205.001 265.296ZM202.601 265.328C202.601 263.301 201.961 261.616 200.681 260.272C199.422 258.928 197.833 258.256 195.913 258.256C193.972 258.256 192.35 258.917 191.049 260.24C189.769 261.563 189.129 263.216 189.129 265.2C189.129 267.248 189.78 268.933 191.081 270.256C192.382 271.579 194.036 272.24 196.041 272.24C197.94 272.24 199.508 271.589 200.745 270.288C201.982 268.987 202.601 267.333 202.601 265.328ZM231.777 256.496L224.993 274H222.465L218.657 262.384L214.881 274H212.321L205.633 256.496H208.001L213.569 271.152L217.697 258.64H219.649L223.777 271.152L229.473 256.496H231.777ZM257.102 256.496L246.99 280.144H244.462L247.31 273.424L240.526 256.496H243.118L248.654 270.448L254.574 256.496H257.102ZM275.877 265.296C275.877 267.92 275.035 270.096 273.349 271.824C271.664 273.552 269.541 274.416 266.981 274.416C264.272 274.416 262.032 273.541 260.261 271.792C258.491 270.043 257.605 267.824 257.605 265.136C257.605 262.576 258.48 260.432 260.229 258.704C262 256.955 264.187 256.08 266.789 256.08C269.413 256.08 271.579 256.955 273.285 258.704C275.013 260.432 275.877 262.629 275.877 265.296ZM273.477 265.328C273.477 263.301 272.837 261.616 271.557 260.272C270.299 258.928 268.709 258.256 266.789 258.256C264.848 258.256 263.227 258.917 261.925 260.24C260.645 261.563 260.005 263.216 260.005 265.2C260.005 267.248 260.656 268.933 261.957 270.256C263.259 271.579 264.912 272.24 266.917 272.24C268.816 272.24 270.384 271.589 271.621 270.288C272.859 268.987 273.477 267.333 273.477 265.328ZM294.35 274H291.982V271.28C290.851 273.371 288.974 274.416 286.35 274.416C281.401 274.416 278.926 271.589 278.926 265.936V256.496H281.294V265.936C281.294 270.139 283.043 272.24 286.542 272.24C288.227 272.24 289.55 271.685 290.51 270.576C291.491 269.467 291.982 267.771 291.982 265.488V256.496H294.35V274ZM324.07 268.848C322.107 272.56 319.248 274.416 315.494 274.416C312.806 274.416 310.544 273.531 308.71 271.76C306.875 269.989 305.958 267.803 305.958 265.2C305.958 262.661 306.864 260.507 308.678 258.736C310.491 256.965 312.71 256.08 315.334 256.08C317.296 256.08 319.056 256.603 320.614 257.648C322.192 258.672 323.334 260.059 324.038 261.808H321.382C319.995 259.44 317.968 258.256 315.302 258.256C313.36 258.256 311.718 258.939 310.374 260.304C309.03 261.648 308.358 263.301 308.358 265.264C308.358 267.205 309.04 268.859 310.406 270.224C311.771 271.568 313.435 272.24 315.398 272.24C316.635 272.24 317.712 271.984 318.63 271.472C319.547 270.939 320.464 270.064 321.382 268.848H324.07ZM344.852 274H342.484V270.928C341.546 272.187 340.554 273.083 339.508 273.616C338.484 274.149 337.226 274.416 335.732 274.416C333.044 274.416 330.804 273.552 329.012 271.824C327.242 270.075 326.356 267.899 326.356 265.296C326.356 262.672 327.231 260.485 328.98 258.736C330.751 256.965 332.948 256.08 335.572 256.08C338.516 256.08 340.82 257.253 342.484 259.6V256.496H344.852V274ZM342.484 265.168C342.484 263.227 341.823 261.595 340.5 260.272C339.178 258.928 337.556 258.256 335.636 258.256C333.738 258.256 332.116 258.928 330.772 260.272C329.428 261.616 328.756 263.237 328.756 265.136C328.756 267.141 329.428 268.827 330.772 270.192C332.116 271.557 333.78 272.24 335.764 272.24C337.642 272.24 339.231 271.557 340.532 270.192C341.834 268.827 342.484 267.152 342.484 265.168ZM364.04 274H361.672V264.816C361.672 260.443 359.87 258.256 356.264 258.256C354.6 258.256 353.288 258.757 352.328 259.76C351.39 260.763 350.92 262.299 350.92 264.368V274H348.552V256.496H350.92V258.768C352.392 256.976 354.27 256.08 356.552 256.08C358.856 256.08 360.68 256.805 362.024 258.256C363.368 259.685 364.04 261.872 364.04 264.816V274ZM394.782 265.232C394.782 267.856 393.897 270.043 392.126 271.792C390.377 273.541 388.18 274.416 385.534 274.416C384.105 274.416 382.793 274.117 381.598 273.52C380.404 272.923 379.433 272.08 378.686 270.992V274H376.318V250.352H378.686V259.504C380.244 257.221 382.537 256.08 385.566 256.08C388.169 256.08 390.356 256.965 392.126 258.736C393.897 260.485 394.782 262.651 394.782 265.232ZM392.382 265.168C392.382 263.205 391.721 261.563 390.398 260.24C389.097 258.917 387.465 258.256 385.502 258.256C383.54 258.256 381.886 258.928 380.542 260.272C379.198 261.595 378.526 263.227 378.526 265.168C378.526 267.109 379.198 268.773 380.542 270.16C381.908 271.547 383.55 272.24 385.47 272.24C387.433 272.24 389.076 271.568 390.398 270.224C391.721 268.859 392.382 267.173 392.382 265.168ZM415.347 266.032H399.507C399.592 267.76 400.296 269.232 401.619 270.448C402.963 271.643 404.531 272.24 406.323 272.24C407.646 272.24 408.872 271.877 410.003 271.152C411.134 270.405 411.944 269.435 412.435 268.24H414.899C414.323 269.968 413.235 271.429 411.635 272.624C410.056 273.819 408.307 274.416 406.387 274.416C403.806 274.416 401.619 273.531 399.827 271.76C398.035 269.968 397.139 267.771 397.139 265.168C397.139 262.629 398.014 260.485 399.763 258.736C401.534 256.965 403.688 256.08 406.227 256.08C408.872 256.08 411.048 256.987 412.755 258.8C414.483 260.592 415.347 263.003 415.347 266.032ZM412.979 263.888C412.574 262.139 411.763 260.763 410.547 259.76C409.352 258.757 407.902 258.256 406.195 258.256C404.531 258.256 403.091 258.779 401.875 259.824C400.659 260.848 399.891 262.203 399.571 263.888H412.979ZM433.792 274H431.424V264.816C431.424 260.443 429.621 258.256 426.016 258.256C424.352 258.256 423.04 258.757 422.08 259.76C421.141 260.763 420.672 262.299 420.672 264.368V274H418.304V256.496H420.672V258.768C422.144 256.976 424.021 256.08 426.304 256.08C428.608 256.08 430.432 256.805 431.776 258.256C433.12 259.685 433.792 261.872 433.792 264.816V274ZM455.051 266.032H439.211C439.296 267.76 440 269.232 441.323 270.448C442.667 271.643 444.235 272.24 446.027 272.24C447.349 272.24 448.576 271.877 449.707 271.152C450.837 270.405 451.648 269.435 452.139 268.24H454.603C454.027 269.968 452.939 271.429 451.339 272.624C449.76 273.819 448.011 274.416 446.091 274.416C443.509 274.416 441.323 273.531 439.531 271.76C437.739 269.968 436.843 267.771 436.843 265.168C436.843 262.629 437.717 260.485 439.467 258.736C441.237 256.965 443.392 256.08 445.931 256.08C448.576 256.08 450.752 256.987 452.459 258.8C454.187 260.592 455.051 263.003 455.051 266.032ZM452.683 263.888C452.277 262.139 451.467 260.763 450.251 259.76C449.056 258.757 447.605 258.256 445.899 258.256C444.235 258.256 442.795 258.779 441.579 259.824C440.363 260.848 439.595 262.203 439.275 263.888H452.683ZM465.943 258.64H461.591V274H459.223V258.64H456.503V256.496H459.223C459.159 252.4 461.399 250.352 465.943 250.352V252.496C464.322 252.496 463.181 252.805 462.519 253.424C461.879 254.021 461.57 255.045 461.591 256.496H465.943V258.64ZM469.559 274H467.191V256.496H469.559V274ZM469.559 254.576H467.191V250.544H469.559V254.576ZM481.729 258.64H477.793V274H475.425V258.64H471.649V256.496H475.425V250.352H477.793V256.496H481.729V258.64ZM500.296 258.64H495.944V274H493.576V258.64H490.856V256.496H493.576C493.512 252.4 495.752 250.352 500.296 250.352V252.496C498.674 252.496 497.533 252.805 496.872 253.424C496.232 254.021 495.922 255.045 495.944 256.496H500.296V258.64ZM509.43 258.416C506.124 258.736 504.47 260.528 504.47 263.792V274H502.102V256.496H504.47V258.992C504.94 258.032 505.569 257.328 506.358 256.88C507.148 256.411 508.172 256.144 509.43 256.08V258.416ZM528.038 265.296C528.038 267.92 527.196 270.096 525.51 271.824C523.825 273.552 521.702 274.416 519.142 274.416C516.433 274.416 514.193 273.541 512.422 271.792C510.652 270.043 509.766 267.824 509.766 265.136C509.766 262.576 510.641 260.432 512.39 258.704C514.161 256.955 516.348 256.08 518.95 256.08C521.574 256.08 523.74 256.955 525.446 258.704C527.174 260.432 528.038 262.629 528.038 265.296ZM525.638 265.328C525.638 263.301 524.998 261.616 523.718 260.272C522.46 258.928 520.87 258.256 518.95 258.256C517.009 258.256 515.388 258.917 514.086 260.24C512.806 261.563 512.166 263.216 512.166 265.2C512.166 267.248 512.817 268.933 514.118 270.256C515.42 271.579 517.073 272.24 519.078 272.24C520.977 272.24 522.545 271.589 523.782 270.288C525.02 268.987 525.638 267.333 525.638 265.328ZM557.071 274H554.703V263.856C554.703 260.101 553.157 258.224 550.063 258.224C548.591 258.224 547.418 258.693 546.543 259.632C545.69 260.549 545.263 261.957 545.263 263.856V274H542.895V263.792C542.895 261.936 542.458 260.549 541.583 259.632C540.73 258.715 539.589 258.256 538.159 258.256C536.687 258.256 535.535 258.747 534.703 259.728C533.871 260.688 533.455 262.043 533.455 263.792V274H531.087V256.496H533.455V258.512C534.117 257.637 534.821 257.019 535.567 256.656C536.335 256.272 537.274 256.08 538.383 256.08C539.685 256.08 540.794 256.347 541.711 256.88C542.629 257.413 543.429 258.267 544.111 259.44C545.541 257.179 547.567 256.048 550.191 256.048C552.261 256.048 553.925 256.699 555.183 258C556.442 259.28 557.071 261.147 557.071 263.6V274ZM571.721 274H569.353V256.496H571.721V274ZM571.721 254.576H569.353V250.544H571.721V254.576ZM583.888 258.64H579.952V274H577.584V258.64H573.808V256.496H577.584V250.352H579.952V256.496H583.888V258.64ZM589.548 274H587.18V269.968H589.548V274Z" fill="white"/>
<path d="M-174.735 0.0243708C-174.735 0.0243708 -211.254 15.3398 -201.57 60.7177L-116.962 116.269C-116.962 116.269 -108.514 135.613 -89.9748 147.565C-71.4353 159.517 -21.3767 191.989 -21.3767 191.989C-21.3767 191.989 -9.91113 196.757 -5.568 186.648C-1.22486 176.539 -9.41171 167.749 -9.41171 167.749L-47.852 141.78C-47.852 141.78 -9.70265 116.995 33.1291 126.038C33.1291 126.038 28.6709 101.265 4.65556 84.0127C4.65556 84.0127 -11.7258 74.072 -82.9626 59.2711L-174.735 0.0243708Z" fill="#FED670" stroke="#020202" stroke-width="2.51564" stroke-miterlimit="10"/>
<path d="M7.20825 131.081L14.596 142.07L14.2699 141.989L6.88209 131.001L7.20825 131.081Z" fill="#3B2780"/>
<path d="M8.84029 131.662L16.1794 142.549L14.5309 141.94L7.19171 131.053L8.84029 131.662Z" fill="#3B2780"/>
<path d="M24.2423 143.558L31.4586 154.199C27.8746 149.516 23.3431 145.782 18.3301 143.379C17.4487 142.95 16.5499 142.58 15.6655 142.182L8.44922 131.541C9.33367 131.938 10.2325 132.308 11.1139 132.737C16.127 135.14 20.6584 138.875 24.2423 143.558Z" fill="#3D2885"/>
<path d="M24.2423 143.558L31.4586 154.199C27.8746 149.516 23.3431 145.782 18.3301 143.379C17.4487 142.95 16.5499 142.58 15.6655 142.182L8.44922 131.541C9.33367 131.938 10.2325 132.308 11.1139 132.737C16.127 135.14 20.6584 138.875 24.2423 143.558Z" fill="#3D2885"/>
<path d="M7.046 131.985L14.3171 142.563C12.737 142.166 11.1736 141.665 9.57868 141.385C6.15568 140.781 2.75035 140.689 -0.538587 141.11L-7.80985 130.533C-4.52101 130.111 -1.11551 130.203 2.30752 130.808C3.90262 131.087 5.4659 131.588 7.046 131.985Z" fill="#3D2885"/>
<path d="M-7.74643 131.402L-0.36094 142.339C-1.84447 142.531 -3.3017 142.821 -4.72498 143.209L-12.1102 132.271C-10.687 131.883 -9.22995 131.593 -7.74643 131.402Z" fill="#3F2A8A"/>
<path d="M18 148.056L25.1925 158.272C21.6544 154.463 17.3406 151.582 12.7175 149.943C12.3419 149.809 11.9627 149.682 11.5798 149.562C7.75175 148.39 3.86352 148.033 0.159318 148.516L-7.03316 138.299C-3.32901 137.817 0.55925 138.173 4.38716 139.346C4.77024 139.465 5.14955 139.592 5.52505 139.726C10.1479 141.366 14.4615 144.247 18 148.056Z" fill="#858585"/>
<path d="M-6.92745 139.099L0.458762 150.048C-0.739876 150.203 -1.9171 150.438 -3.06682 150.753L-10.4531 139.803C-9.30319 139.489 -8.12595 139.254 -6.92745 139.099Z" fill="#8A8A8A"/>
<path d="M19.9517 145.83L27.3655 156.858C26.5517 157.275 25.7368 157.699 24.9204 158.102L17.5068 147.074C18.3252 146.672 19.1381 146.247 19.9511 145.829" fill="#949494"/>
<path d="M24.2423 143.558L31.4586 154.199C27.8746 149.516 23.3431 145.782 18.3301 143.379C17.4487 142.95 16.5499 142.58 15.6655 142.182L8.44922 131.541C9.33367 131.938 10.2325 132.308 11.1139 132.737C16.127 135.14 20.6584 138.875 24.2423 143.558Z" fill="#3D2885"/>
<path d="M8.22417 134.83C9.13449 135.25 10.0595 135.643 10.9668 136.097C16.092 138.623 20.7381 142.506 24.4365 147.353L20.73 149.406C19.9117 149.827 19.0907 150.255 18.2697 150.662C14.5982 146.514 10.1213 143.381 5.32269 141.599C4.93282 141.453 4.53914 141.315 4.14158 141.185C-7.93411 137.234 -20.8591 142.157 -27.1708 153.153C-31.0851 159.968 -32.1352 167.445 -30.404 175.51C-30.3979 175.557 -30.4015 175.604 -30.4147 175.646C-30.4278 175.688 -30.4502 175.724 -30.48 175.753C-32.5347 176.821 -34.5964 177.884 -36.6651 178.942C-36.8218 178.676 -36.9342 178.387 -36.9958 178.091C-39.0483 169.915 -38.6729 161.657 -35.9278 154.601C-30.1337 138.893 -14.8106 129.969 1.34947 132.894C2.98803 133.185 4.59373 133.71 6.21678 134.125L6.54597 134.207L8.22417 134.83Z" fill="#CDCDCD"/>
<path d="M23.6496 143.328L31.0667 154.374L27.3817 156.411L19.9645 145.364L23.6496 143.328Z" fill="#A4A4A4"/>
<path d="M24.2423 143.558L31.4586 154.199C27.8746 149.516 23.3431 145.782 18.3301 143.379C17.4487 142.95 16.5499 142.58 15.6655 142.182L8.44922 131.541C9.33367 131.938 10.2325 132.308 11.1139 132.737C16.127 135.14 20.6584 138.875 24.2423 143.558Z" fill="#CDCDCD"/>
<path d="M-4.15972 172.68L3.2839 183.761C-6.96248 189.002 -17.2053 194.254 -27.4445 199.517L-34.8882 188.436C-24.6482 183.172 -14.4054 177.92 -4.15985 172.681" fill="#442D94"/>
<path d="M-3.3602 170.384L4.0295 181.37C3.87004 181.316 3.70748 181.299 3.55268 181.32L-3.83715 170.335C-3.68242 170.313 -3.51974 170.33 -3.3602 170.384Z" fill="#3D2885"/>
<path d="M-3.83316 170.357L3.56622 181.364C3.52116 181.37 3.47698 181.38 3.43391 181.392L-3.96538 170.384C-3.92226 170.372 -3.87804 170.362 -3.83303 170.356" fill="#3F2A8A"/>
<path d="M-3.9643 170.397L3.43587 181.407C3.40139 181.417 3.36805 181.428 3.33512 181.441L-4.065 170.431C-4.03208 170.418 -3.99878 170.407 -3.9643 170.397Z" fill="#422B8F"/>
<path d="M-4.06618 170.44L3.33435 181.451C3.31761 181.457 3.30056 181.465 3.28424 181.473L-4.11628 170.462C-4.09997 170.454 -4.08305 170.447 -4.06618 170.44Z" fill="#442D94"/>
<path d="M20.5216 155.911L27.9319 166.933L27.9098 166.948C27.7696 167.039 27.6335 167.136 27.5018 167.238L20.0915 156.216C20.2232 156.114 20.3593 156.017 20.4994 155.926L20.5216 155.911Z" fill="#49309E"/>
<path d="M18.0384 159.125L25.5163 170.263C25.4164 170.501 25.3299 170.747 25.2571 171C25.1727 171.295 25.108 171.599 25.0632 171.91L17.5854 160.771C17.6301 160.46 17.6948 160.157 17.7791 159.862C17.8516 159.609 17.9382 159.363 18.0384 159.125Z" fill="#5739BD"/>
<path d="M24.6187 154.635L32.0043 165.576C31.4241 165.484 30.848 165.474 30.2907 165.549L22.9051 154.608C23.4623 154.533 24.0385 154.542 24.6187 154.635Z" fill="#3D2885"/>
<path d="M22.9189 154.726L30.3266 165.72C30.0618 165.755 29.8017 165.807 29.5477 165.876L22.1399 154.882C22.3943 154.813 22.6546 154.761 22.9196 154.726" fill="#3F2A8A"/>
<path d="M22.145 154.968L29.5577 165.973C29.3513 166.029 29.1486 166.097 28.9496 166.176L21.5368 155.171C21.736 155.091 21.9385 155.023 22.1442 154.968" fill="#422B8F"/>
<path d="M21.537 155.246L28.9528 166.258C28.7771 166.328 28.6046 166.407 28.4353 166.494L21.0194 155.482C21.1887 155.391 21.361 155.316 21.537 155.246Z" fill="#442D94"/>
<path d="M21.0148 155.557L28.4332 166.575C28.2683 166.662 28.1055 166.756 27.9448 166.856L20.5265 155.838C20.6853 155.735 20.8481 155.641 21.0149 155.557" fill="#462E99"/>
<path d="M20.517 155.911L27.9374 166.934L27.9153 166.949C27.7751 167.04 27.6391 167.136 27.5074 167.238L20.0869 156.216C20.2186 156.114 20.3547 156.017 20.4947 155.927L20.517 155.911Z" fill="#49309E"/>
<path d="M20.0789 156.286L27.5016 167.313C27.3637 167.421 27.2306 167.535 27.1023 167.653L19.6796 156.626C19.8081 156.507 19.9412 156.393 20.0789 156.286Z" fill="#4B31A3"/>
<path d="M19.6654 156.692L27.0906 167.725C26.9579 167.848 26.8316 167.978 26.7103 168.113L19.2851 157.08C19.4065 156.945 19.5328 156.815 19.6654 156.692Z" fill="#4D33A8"/>
<path d="M19.2678 157.15L26.6961 168.189C26.567 168.334 26.4448 168.484 26.3295 168.641L18.9014 157.601C19.0168 157.445 19.1389 157.294 19.2678 157.15Z" fill="#5034AD"/>
<path d="M18.8774 157.672L26.3101 168.721C26.179 168.896 26.059 169.08 25.9499 169.271L18.5181 158.22C18.6289 158.031 18.749 157.847 18.8784 157.671" fill="#5236B3"/>
<path d="M18.4849 158.301L25.9255 169.367C25.7896 169.602 25.6677 169.847 25.5603 170.102L18.1195 159.036C18.2265 158.781 18.3485 158.535 18.4849 158.301Z" fill="#5437B8"/>
<path d="M18.0384 159.123L25.5169 170.262C25.417 170.5 25.3305 170.745 25.2577 170.999C25.1733 171.293 25.1085 171.597 25.0638 171.909L17.5854 160.769C17.6301 160.458 17.6948 160.155 17.7792 159.861C17.8516 159.607 17.9382 159.361 18.0384 159.123Z" fill="#5739BD"/>
<path d="M28.9723 157.372L36.2714 168.183C36.0805 167.9 35.8699 167.632 35.6418 167.383C34.8925 166.569 33.9881 165.956 33.0216 165.608C32.6253 165.463 32.223 165.359 31.8206 165.299L24.5215 154.489C24.9239 154.549 25.3262 154.652 25.7225 154.797C26.6889 155.145 27.5931 155.758 28.3427 156.571C28.5706 156.821 28.7812 157.089 28.9723 157.372Z" fill="#3D2885"/>
<path d="M18.0365 159.123L25.5183 170.262C25.4184 170.5 25.332 170.746 25.2593 170.999C25.1749 171.293 25.1102 171.597 25.0655 171.909L17.5838 160.769C17.6285 160.458 17.6931 160.154 17.7774 159.86C17.8498 159.607 17.9363 159.361 18.0365 159.123Z" fill="#5739BD"/>
<path d="M17.5488 160.91L24.9852 171.961C24.9624 172.119 24.9452 172.277 24.9336 172.436L17.497 161.387C17.5086 161.227 17.5259 161.068 17.5488 160.91Z" fill="#593BC2"/>
<path d="M17.4092 161.426L24.8786 172.541C24.8478 172.945 24.8521 173.357 24.8915 173.773C24.9101 173.948 24.9336 174.122 24.9617 174.295L17.4924 163.179C17.4619 163.009 17.439 162.831 17.4222 162.656C17.3829 162.241 17.3785 161.829 17.4092 161.426Z" fill="#5739BD"/>
<path d="M17.4141 161.428L24.8781 172.542C24.8472 172.946 24.8513 173.359 24.8905 173.775C24.9091 173.95 24.9325 174.124 24.9605 174.296L17.4966 163.181C17.4662 163.012 17.4434 162.834 17.4267 162.659C17.3875 162.243 17.3832 161.831 17.4141 161.428Z" fill="#5739BD"/>
<path d="M28.9723 157.372L36.2714 168.183C36.0805 167.9 35.8699 167.632 35.6418 167.383C34.8925 166.569 33.9881 165.956 33.0216 165.608C32.6253 165.463 32.223 165.359 31.8206 165.299L24.5215 154.489C24.9239 154.549 25.3262 154.652 25.7225 154.797C26.6889 155.145 27.5931 155.758 28.3427 156.571C28.5706 156.821 28.7812 157.089 28.9723 157.372Z" fill="#3D2885"/>
<path d="M17.4121 161.428L24.879 172.543C24.8481 172.947 24.8523 173.359 24.8916 173.775C24.9103 173.95 24.9336 174.124 24.9618 174.297L17.495 163.181C17.4646 163.011 17.4417 162.833 17.425 162.659C17.3857 162.243 17.3813 161.831 17.4121 161.428Z" fill="#5739BD"/>
<path d="M17.4268 163.287L24.86 174.335C24.9078 174.615 24.9727 174.895 25.0545 175.171L17.6214 164.122C17.5397 163.846 17.4747 163.567 17.4268 163.287Z" fill="#5437B8"/>
<path d="M17.5703 164.164L24.9961 175.197C25.0626 175.421 25.1398 175.642 25.2274 175.859L17.8016 164.826C17.7137 164.608 17.6365 164.387 17.5703 164.164Z" fill="#5236B3"/>
<path d="M17.7588 164.844L25.1804 175.868C25.2531 176.049 25.3337 176.227 25.4208 176.403L25.4391 176.438L18.0173 165.415L17.9992 165.378C17.9121 165.203 17.8315 165.025 17.7588 164.844Z" fill="#5034AD"/>
<path d="M17.7656 164.844L25.1764 175.867C25.249 176.048 25.3294 176.227 25.4164 176.402L25.4346 176.438L18.0236 165.415L18.0056 165.379C17.9186 165.203 17.8382 165.025 17.7656 164.844Z" fill="#5034AD"/>
<path d="M28.9723 157.372L36.2714 168.183C36.0805 167.9 35.8699 167.632 35.6418 167.383C34.8925 166.569 33.9881 165.956 33.0216 165.608C32.6253 165.463 32.223 165.359 31.8206 165.299L24.5215 154.489C24.9239 154.549 25.3262 154.652 25.7225 154.797C26.6889 155.145 27.5931 155.758 28.3427 156.571C28.5706 156.821 28.7812 157.089 28.9723 157.372Z" fill="#3D2885"/>
<path d="M17.7656 164.844L25.1769 175.868C25.2495 176.049 25.3299 176.227 25.4169 176.403L25.4351 176.438L18.0236 165.415L18.0056 165.379C17.9187 165.203 17.8382 165.025 17.7656 164.844Z" fill="#5034AD"/>
<path d="M17.9844 165.428L25.3927 176.444C25.4806 176.618 25.5747 176.787 25.674 176.951L18.2659 165.934C18.1657 165.77 18.0717 165.601 17.9844 165.428Z" fill="#4D33A8"/>
<path d="M18.2383 165.941L25.644 176.953C25.7018 177.046 25.7601 177.136 25.8186 177.225L18.4127 166.214C18.3541 166.126 18.2961 166.034 18.2383 165.941Z" fill="#4B31A3"/>
<path d="M28.7803 157.172L36.1946 168.183C36.2532 168.272 36.3114 168.362 36.3693 168.455L28.9551 157.443C28.8991 157.351 28.8408 157.261 28.7803 157.172Z" fill="#A3A3A3"/>
<path d="M28.9229 157.443L36.3396 168.461C36.4406 168.626 36.5345 168.795 36.6212 168.968L29.2045 157.951C29.1171 157.778 29.0229 157.609 28.9229 157.443Z" fill="#A8A8A8"/>
<path d="M29.1626 157.958L36.5824 168.982C36.6761 169.167 36.7618 169.356 36.839 169.547L29.419 158.524C29.3421 158.331 29.2566 158.141 29.1631 157.955" fill="#ADADAD"/>
<path d="M29.3711 158.537L36.7953 169.57C36.8828 169.787 36.9596 170.007 37.0254 170.23L29.6012 159.197C29.5358 158.974 29.4589 158.754 29.3711 158.537Z" fill="#B3B3B3"/>
<path d="M29.5459 159.221L36.9775 170.269C37.06 170.548 37.1258 170.83 37.1742 171.113L29.7426 160.064C29.6943 159.782 29.6285 159.5 29.5459 159.221Z" fill="#B8B8B8"/>
<path d="M29.6396 160.102L37.1047 171.217C37.1343 171.386 37.1574 171.563 37.1741 171.738C37.2132 172.153 37.217 172.565 37.1853 172.969L29.7203 161.853C29.752 161.45 29.7483 161.037 29.7093 160.622C29.6924 160.448 29.6689 160.273 29.6396 160.102Z" fill="#BDBDBD"/>
<path d="M29.668 161.961L37.0989 173.008C37.088 173.157 37.0712 173.304 37.0509 173.45L29.62 162.403C29.6408 162.254 29.6571 162.109 29.668 161.961Z" fill="#C2C2C2"/>
<path d="M29.5385 162.451L37.017 173.592C36.9321 174.184 36.7769 174.75 36.5551 175.275L29.0764 164.134C29.2982 163.609 29.4535 163.043 29.5385 162.451Z" fill="#BDBDBD"/>
<path d="M29.0332 164.298L36.473 175.363C36.3653 175.619 36.2426 175.866 36.1056 176.101L28.6659 165.035C28.8029 164.8 28.9255 164.554 29.0332 164.298Z" fill="#B8B8B8"/>
<path d="M28.6412 165.129L36.0725 176.177C36.0228 176.263 35.9712 176.346 35.9177 176.432C35.8538 176.529 35.7868 176.625 35.7167 176.719L28.2854 165.67C28.3545 165.576 28.4215 165.481 28.4864 165.383C28.5394 165.3 28.5911 165.216 28.6412 165.129Z" fill="#B3B3B3"/>
<path d="M28.2676 165.751L35.695 176.79C35.5781 176.95 35.4546 177.103 35.3245 177.248L27.8971 166.208C28.0269 166.062 28.1504 165.91 28.2676 165.751Z" fill="#ADADAD"/>
<path d="M27.8804 166.283L35.3046 177.316C35.1806 177.452 35.0529 177.582 34.9214 177.707L27.4973 166.674C27.6301 166.55 27.7581 166.419 27.8804 166.283Z" fill="#A8A8A8"/>
<path d="M27.4891 166.748L34.9107 177.776C34.7816 177.896 34.6476 178.011 34.5088 178.119L27.0872 167.091C27.226 166.983 27.3599 166.869 27.4891 166.748Z" fill="#A3A3A3"/>
<path d="M27.0783 167.164L34.4978 178.187C34.3591 178.295 34.2164 178.396 34.0699 178.492L26.6504 167.469C26.7973 167.374 26.94 167.274 27.0783 167.164Z" fill="#9E9E9E"/>
<path d="M26.6438 167.543L34.061 178.561C33.9101 178.659 33.7549 178.749 33.5956 178.83L26.1785 167.812C26.338 167.73 26.4931 167.64 26.6438 167.543Z" fill="#999999"/>
<path d="M26.1782 167.887L33.593 178.899C33.4243 178.986 33.2515 179.065 33.0747 179.136L25.6599 168.123C25.8366 168.053 26.0098 167.973 26.1782 167.887Z" fill="#949494"/>
<path d="M25.6626 168.207L33.0743 179.213C32.8765 179.293 32.6749 179.36 32.4693 179.415L25.0576 168.41C25.264 168.353 25.4657 168.286 25.6626 168.207Z" fill="#8F8F8F"/>
<path d="M25.067 168.509L32.4735 179.503L32.4242 179.516C32.1769 179.582 31.9239 179.632 31.6665 179.666L24.26 168.672C24.5174 168.639 24.7704 168.589 25.0177 168.522L25.067 168.509Z" fill="#8A8A8A"/>
<path d="M24.4235 169.106L31.7283 179.815C30.7912 179.941 29.8038 179.825 28.8414 179.477C28.6497 179.404 28.4599 179.325 28.2727 179.235C27.23 178.74 26.2991 177.934 25.6027 176.924L18.2979 166.215C18.9945 167.226 19.9257 168.031 20.9686 168.526C21.1558 168.617 21.3456 168.697 21.5373 168.768C22.4997 169.116 23.4871 169.232 24.4242 169.106" fill="#858585"/>
<path d="M25.8652 155.299C26.8532 155.662 27.7783 156.297 28.5455 157.138C29.6045 158.317 30.272 159.833 30.4086 161.369C30.5424 162.994 30.1807 164.533 29.3812 165.74C28.5566 167.008 27.3503 167.895 25.9274 168.279C24.7529 168.61 23.4608 168.543 22.2027 168.086C22.0063 168.013 21.8118 167.929 21.62 167.835C20.2744 167.191 19.1231 166.032 18.4057 164.599C18.0001 163.778 17.7473 162.898 17.6647 162.019C17.5817 161.105 17.6617 160.212 17.9 159.389C18.346 157.88 19.2417 156.646 20.4593 155.863C21.6554 155.06 23.1193 154.749 24.6369 154.976C25.0483 155.041 25.4598 155.148 25.8652 155.299Z" fill="#CDCDCD"/>
<path d="M28.4706 180.859L35.4468 190.981C31.5704 189.689 27.6937 188.397 23.8169 187.104C17.1024 184.867 10.3861 182.636 3.66811 180.409L-3.30789 170.286C3.41029 172.512 10.1265 174.745 16.8408 176.983C20.7181 178.275 24.5947 179.568 28.4706 180.859Z" fill="#3D2885"/>
<path d="M28.0769 179.915L35.5126 190.996L35.2686 191.848L27.8329 180.768L28.0769 179.915Z" fill="#CCCCCC"/>
<path d="M16.6069 179.727C20.5906 181.184 24.5737 182.641 28.556 184.098L28.3149 184.928C27.9705 185.874 27.6597 186.832 27.2692 187.76C23.3017 197.356 15.7776 204.268 6.29478 207.028C-0.211469 209.167 -7.48582 208.945 -14.5496 206.393C-14.9689 206.24 -15.3862 206.076 -15.8049 205.909C-24.2926 202.469 -30.732 196.462 -35.1562 188.06C-35.1655 187.994 -35.1613 187.928 -35.1438 187.868C-35.1264 187.808 -35.0961 187.756 -35.0553 187.714C-24.989 182.534 -14.9193 177.366 -4.84632 172.211C-4.62095 172.104 -4.356 172.091 -4.09576 172.176C2.80731 174.686 9.70819 177.203 16.6069 179.727Z" fill="#CDCDCD"/>
<path d="M27.7285 180.887L35.2016 192.08C34.8519 193.052 34.5358 194.042 34.141 194.996L26.668 183.802C27.0628 182.848 27.3789 181.858 27.7285 180.887Z" fill="#BDBDBD"/>
<path d="M26.4956 184.145L34.0031 195.392L33.9913 195.42C33.3033 197.053 32.5235 198.626 31.656 200.13L24.1485 188.883C25.0158 187.379 25.7954 185.806 26.4837 184.173L26.4956 184.145Z" fill="#B8B8B8"/>
<path d="M24.0215 189.36L31.4823 200.533C30.8263 201.665 30.1249 202.745 29.3782 203.773L21.9174 192.599C22.6641 191.573 23.3655 190.494 24.0215 189.36Z" fill="#B3B3B3"/>
<path d="M21.8325 193.001L29.2691 204.133C28.6308 205.008 27.9593 205.844 27.2547 206.64L19.8182 195.509C20.5231 194.713 21.1947 193.878 21.8332 193.002" fill="#ADADAD"/>
<path d="M19.7506 195.874L27.1717 206.976C26.5256 207.704 25.8513 208.397 25.1488 209.055L17.7278 197.953C18.4296 197.292 19.1039 196.599 19.7506 195.874Z" fill="#A8A8A8"/>
<path d="M17.6845 198.311L25.0945 209.391C24.4171 210.029 23.7136 210.634 22.9839 211.208L15.574 200.127C16.304 199.554 17.0075 198.948 17.6845 198.311Z" fill="#A3A3A3"/>
<path d="M15.5404 200.482L22.9409 211.544C22.2057 212.122 21.4436 212.668 20.6546 213.181L13.254 202.12C14.0435 201.607 14.8056 201.061 15.5404 200.482Z" fill="#9E9E9E"/>
<path d="M13.2318 202.491L20.6231 213.533C19.7934 214.072 18.9341 214.575 18.0453 215.042L10.6541 204C11.5427 203.534 12.4019 203.031 13.2318 202.491Z" fill="#999999"/>
<path d="M10.6461 204.413L18.0269 215.433C17.0454 215.949 16.0275 216.42 14.9731 216.846L7.59226 205.827C8.64627 205.401 9.66419 204.929 10.6461 204.413Z" fill="#949494"/>
<path d="M7.60364 206.306L14.9705 217.293C14.0473 217.667 13.0961 218.006 12.1171 218.311C11.8017 218.411 11.4839 218.505 11.1638 218.593L3.79689 207.606C4.11449 207.518 4.43228 207.424 4.75015 207.324C5.72895 207.018 6.68011 206.679 7.60364 206.306Z" fill="#8F8F8F"/>
<path d="M3.83254 208.145L11.1806 219.087C9.75962 219.487 8.30505 219.789 6.82429 219.993L-0.523692 209.051C0.956917 208.847 2.41149 208.544 3.83254 208.145Z" fill="#8A8A8A"/>
<path d="M-0.0834503 210.645L7.08609 220.914C2.10223 221.596 -3.14828 221.007 -8.25513 219.193C-8.66807 219.047 -9.08008 218.893 -9.49107 218.731C-15.9989 216.315 -21.867 211.694 -26.102 205.65L-33.2715 195.381C-29.0367 201.425 -23.1685 206.047 -16.6605 208.462C-16.2487 208.625 -15.8375 208.779 -15.4248 208.925C-10.3178 210.738 -5.06739 211.327 -0.0834503 210.645Z" fill="#858585"/>
<path d="M39.2588 128.279L46.3581 138.878C46.8797 139.657 47.3841 140.448 47.8711 141.251L40.7718 130.652C40.2852 129.85 39.7809 129.059 39.2588 128.279Z" fill="#4B31A3"/>
<path d="M40.4932 130.658L47.6081 141.29C48.4804 142.729 49.2952 144.203 50.0523 145.711L42.9374 135.079C42.1803 133.575 41.3656 132.102 40.4932 130.658Z" fill="#4D33A8"/>
<path d="M42.561 135.12L49.6969 145.795C50.5092 147.415 51.2518 149.066 51.9216 150.744L44.7869 140.067C44.117 138.389 43.3745 136.737 42.5622 135.117" fill="#5034AD"/>
<path d="M44.3643 140.15L51.5282 150.878C52.2893 152.784 52.957 154.72 53.5282 156.676L46.3642 145.949C45.7926 143.993 45.1249 142.057 44.3643 140.15Z" fill="#5236B3"/>
<path d="M45.8613 146.088L53.0709 156.891C53.7766 159.31 54.3379 161.754 54.751 164.205L47.5414 153.401C47.1282 150.951 46.5668 148.507 45.8613 146.088Z" fill="#5437B8"/>
<path d="M46.6367 153.613L54.0563 164.665C55.0227 170.424 55.2203 176.169 54.6424 181.714L47.2226 170.664C47.8006 165.119 47.6032 159.372 46.6367 153.613Z" fill="#5739BD"/>
<path d="M46.7578 171.123L53.923 181.851C53.8612 182.464 53.7896 183.078 53.7081 183.691L46.5432 172.962C46.6241 172.349 46.6957 171.736 46.7578 171.123Z" fill="#593BC2"/>
<path d="M46.0116 173.227L53.5346 184.362C53.1238 187.412 52.4996 190.387 51.667 193.263C51.0099 195.541 50.2295 197.756 49.3294 199.898L41.8063 188.763C42.7065 186.622 43.4869 184.407 44.1439 182.128C44.9765 179.252 45.6007 176.277 46.0116 173.227Z" fill="#5739BD"/>
<path d="M41.5157 189.619L48.7888 200.513C47.8353 202.805 46.7479 205.008 45.5323 207.11L38.2593 196.217C39.4749 194.114 40.5623 191.911 41.5157 189.619Z" fill="#5437B8"/>
<path d="M38.0838 196.887L45.2998 207.7C44.3373 209.366 43.301 210.963 42.1909 212.491L34.9749 201.679C36.0846 200.153 37.122 198.556 38.0872 196.888" fill="#5236B3"/>
<path d="M34.8436 202.295L42.0297 213.06C41.0256 214.441 39.965 215.761 38.8479 217.021L31.6617 206.256C32.7768 204.997 33.8374 203.676 34.8436 202.295Z" fill="#5034AD"/>
<path d="M31.5631 206.855L38.728 217.583C37.6735 218.774 36.5724 219.908 35.4246 220.986L28.2599 210.257C29.4061 209.18 30.5071 208.046 31.5631 206.855Z" fill="#4D33A8"/>
<path d="M28.1866 210.853L35.3341 221.55C34.2152 222.603 33.0556 223.599 31.8556 224.539L24.708 213.842C25.9066 212.902 27.0661 211.906 28.1866 210.853Z" fill="#4B31A3"/>
<path d="M24.6558 214.446L31.7881 225.113C30.5854 226.055 29.3458 226.94 28.0691 227.766L20.9368 217.099C22.212 216.273 23.4516 215.388 24.6558 214.446Z" fill="#49309E"/>
<path d="M20.9047 217.723L28.0222 228.361C26.7098 229.21 25.3624 229.996 23.9801 230.718L16.8626 220.081C18.2438 219.359 19.5911 218.574 20.9047 217.723Z" fill="#462E99"/>
<path d="M16.8509 220.739L23.9527 231.343C22.477 232.112 20.9663 232.807 19.4206 233.427L12.3185 222.824C13.8631 222.205 15.3739 221.51 16.8509 220.739Z" fill="#442D94"/>
<path d="M12.334 223.549L19.4172 234.109C17.6881 234.802 15.9213 235.397 14.1168 235.893L7.03386 225.332C8.834 224.836 10.6007 224.242 12.334 223.549Z" fill="#422B8F"/>
<path d="M7.08494 226.171L14.1411 236.666C11.9598 237.265 9.72708 237.716 7.45427 238.015L0.398076 227.52C2.67093 227.221 4.9037 226.771 7.08494 226.171Z" fill="#3F2A8A"/>
<path d="M0.975169 229.891L7.84255 239.616C-0.0331627 240.648 -8.32934 239.718 -16.4135 236.897C-27.7912 232.865 -37.1672 225.426 -43.7127 216.155L-50.5801 206.43C-44.0345 215.701 -34.6592 223.143 -23.2809 227.171C-15.1968 229.993 -6.90044 230.923 0.975169 229.891Z" fill="#3D2885"/>
<path d="M12.643 112.51C42.9803 123.839 60.2471 158.638 51.2087 190.237C42.1703 221.837 10.2479 238.277 -20.0888 226.95C-50.4256 215.623 -67.6981 180.817 -58.6597 149.218C-49.6213 117.619 -17.7001 101.181 12.643 112.51ZM-37.6127 179.124C-35.4591 178.028 -33.3862 176.963 -31.3253 175.893C-31.2954 175.864 -31.273 175.828 -31.2598 175.785C-31.2466 175.743 -31.243 175.696 -31.2491 175.649C-32.9847 167.561 -31.9329 160.066 -28.01 153.233C-21.6845 142.209 -8.73044 137.276 3.37379 141.238C3.77237 141.368 4.16703 141.506 4.55772 141.652C9.29544 143.367 13.7034 146.497 17.2506 150.663C18.2084 150.361 19.1284 149.966 20.0011 149.483L23.7808 147.542C20.0693 142.628 15.3865 138.693 10.214 136.14C9.30459 135.684 8.37742 135.29 7.46497 134.868L5.78635 134.241L5.45715 134.159C3.83032 133.742 2.22081 133.216 0.578452 132.924C-15.6192 129.989 -30.9769 138.935 -36.7833 154.683C-39.5342 161.758 -39.91 170.038 -37.8522 178.236C-37.7728 178.532 -37.6941 178.827 -37.609 179.124L-37.6127 179.124ZM30.3524 183.736L30.5975 182.878C26.5166 181.353 22.4355 179.829 18.3541 178.305C11.2854 175.665 4.21497 173.03 -2.85725 170.402C-3.12388 170.314 -3.39512 170.325 -3.62564 170.435C-13.931 175.724 -24.2318 181.023 -34.5279 186.333C-34.5694 186.376 -34.6 186.43 -34.6176 186.492C-34.6352 186.554 -34.6394 186.622 -34.6298 186.691C-30.083 195.398 -23.4775 201.64 -14.7793 205.234C-14.3506 205.412 -13.9225 205.581 -13.493 205.741C-6.25515 208.412 1.19343 208.673 7.85018 206.49C17.5532 203.678 25.2421 196.564 29.2841 186.658C29.6819 185.701 29.9981 184.711 30.3487 183.735L30.3524 183.736ZM25.3709 158.381C23.8535 158.154 22.3895 158.465 21.1934 159.267C19.9758 160.05 19.0801 161.285 18.6341 162.794C18.3958 163.617 18.3159 164.51 18.3989 165.424C18.4815 166.303 18.7343 167.183 19.1399 168.003C19.8573 169.436 21.0086 170.595 22.3541 171.24C22.5457 171.334 22.7399 171.417 22.936 171.49C24.1951 171.948 25.4885 172.016 26.6642 171.685C28.0869 171.3 29.2932 170.413 30.1179 169.146C30.9171 167.938 31.2786 166.4 31.1453 164.775C31.0085 163.238 30.3411 161.722 29.2823 160.543C28.5148 159.702 27.5899 159.068 26.602 158.705C26.1968 158.554 25.7857 158.446 25.3744 158.382" fill="#6543DD"/>
<path d="M-125.653 100.516C-125.653 100.516 -121.328 130.864 -88.3261 152.319L-25.4511 192.827C-25.4511 192.827 -12.2382 198.855 -8.35934 188.09C-4.48047 177.324 -9.50464 172.324 -13.9724 167.517L-58.163 138.842" fill="#FED670"/>
<path d="M-125.653 100.516C-125.653 100.516 -121.328 130.864 -88.3261 152.319L-25.4511 192.827C-25.4511 192.827 -12.2382 198.855 -8.35935 188.09C-4.48047 177.324 -9.50464 172.324 -13.9724 167.517L-58.163 138.842" stroke="#020202" stroke-width="2.51564" stroke-miterlimit="10"/>
<path d="M74.4498 452.975L18.5636 392.294C18.5636 392.294 -27.8888 355.501 -47.8216 338.971C-67.7545 322.44 -94.6581 288.196 -106.431 254.224C-118.204 220.252 -137.18 169.798 -137.18 169.798C-137.18 169.798 -140.188 156.832 -122.357 162.048C-104.526 167.263 -101.754 181.46 -101.754 181.46C-101.754 181.46 -86.7451 182.345 -81.1494 200.873C-81.1494 200.873 -70.6981 203.384 -66.2054 214.916C-61.7127 226.448 -54.0796 247.041 -54.0796 247.041L-35.9155 253.697C-35.9155 253.697 -48.0365 243.982 -36.5873 228.404C-36.5873 228.404 -28.6008 220.804 -16.825 232.689C-5.04916 244.573 37.3626 293.067 37.3626 293.067C37.3626 293.067 50.473 309.642 50.9197 334.898L115.846 407.506C115.846 407.506 113.581 451.494 74.4498 452.975Z" fill="#FED670" stroke="#020202" stroke-width="1.25782" stroke-miterlimit="10"/>
<path d="M75.3376 454.768L19.2511 393.716C19.2511 393.716 -50.7554 340.416 -69.4407 317.504C-88.126 294.592 -103.264 263.335 -107.88 249.955C-112.495 236.575 -137.053 169.864 -137.053 169.864C-137.053 169.864 -139.299 158.552 -125.436 161.257C-111.574 163.962 -105.674 171.439 -101.501 181.592L-75.9218 249.341C-75.9218 249.341 -60.1164 284.987 -19.8759 271.917" stroke="#191919" stroke-width="2.51564" stroke-miterlimit="10"/>
<path d="M0.638551 290.189L-36.879 247.98C-36.879 247.98 -44.8229 237.455 -36.093 225.278C-36.093 225.278 -27.4713 216.498 -16.8254 227.947L39.3348 289.834C39.3348 289.834 50.8349 302.988 52.0297 338.482" stroke="#191919" stroke-width="2.51564" stroke-miterlimit="10"/>
<path d="M74.3342 452.581L18.449 391.902C18.449 391.902 -28.0007 355.111 -47.937 338.579C-67.8733 322.047 -94.772 287.8 -106.546 253.831C-118.321 219.863 -137.296 169.406 -137.296 169.406C-137.296 169.406 -140.303 156.441 -122.473 161.655C-104.643 166.869 -101.872 181.065 -101.872 181.065C-101.872 181.065 -86.8635 181.95 -81.2679 200.478C-81.2679 200.478 -70.8164 202.989 -66.3239 214.522C-61.8313 226.055 -54.198 246.646 -54.198 246.646L-36.0346 253.301C-36.0346 253.301 -48.1557 243.587 -36.7065 228.01C-36.7065 228.01 -28.7199 220.409 -16.9441 232.294C-5.16835 244.179 37.2449 292.676 37.2449 292.676C37.2449 292.676 50.3553 309.251 50.8021 334.506L115.728 407.114C115.728 407.114 113.465 451.103 74.3342 452.581Z" stroke="#020202" stroke-width="2.51564" stroke-miterlimit="10"/>
</g>
<defs>
<linearGradient id="paint0_linear_1006_38257" x1="525.947" y1="35" x2="207.787" y2="222.06" gradientUnits="userSpaceOnUse">
<stop stop-color="#2FC8E0"/>
<stop offset="1" stop-color="#754DFE"/>
</linearGradient>
<clipPath id="clip0_1006_38257">
<rect width="704" height="385" rx="16" fill="white"/>
</clipPath>
</defs>
</svg>
