<svg width="704" height="385" viewBox="0 0 704 385" fill="none" xmlns="http://www.w3.org/2000/svg">
<g clip-path="url(#clip0_1006_32880)">
<rect width="704" height="385" rx="16" fill="white"/>
<rect width="704" height="385" fill="url(#paint0_linear_1006_32880)"/>
<path d="M593.225 295.72C592.777 296.494 592.057 297.074 591.206 297.346C590.354 297.619 589.432 297.565 588.617 297.195C587.803 296.826 587.156 296.166 586.801 295.346C586.446 294.525 586.409 293.602 586.697 292.755C586.985 291.909 587.578 291.2 588.359 290.766C589.141 290.332 590.056 290.204 590.927 290.408C591.798 290.612 592.562 291.132 593.07 291.867C593.579 292.603 593.795 293.501 593.678 294.387C593.616 294.857 593.462 295.31 593.225 295.72Z" fill="#E1458D"/>
<path d="M575.625 266C575.987 266.025 576.351 266.035 576.711 266.079C580.527 266.549 583.585 268.329 585.824 271.453C587.473 273.724 588.304 276.487 588.179 279.291C588.098 282.509 586.794 285.576 584.534 287.868C584.514 287.879 584.492 287.884 584.47 287.884C584.447 287.884 584.425 287.879 584.405 287.868C581.409 284.876 578.415 281.882 575.425 278.885C575.36 278.814 575.322 278.722 575.319 278.626C575.314 274.418 575.312 270.209 575.314 266L575.625 266Z" fill="#2FC8E0"/>
<path d="M561.001 280.625C561.026 280.987 561.035 281.352 561.08 281.711C561.549 285.527 563.329 288.585 566.454 290.824C568.724 292.474 571.487 293.304 574.291 293.179C577.509 293.098 580.576 291.795 582.868 289.534C582.879 289.514 582.884 289.492 582.884 289.47C582.884 289.447 582.879 289.425 582.868 289.406C579.876 286.409 576.882 283.416 573.885 280.425C573.814 280.36 573.722 280.322 573.626 280.319C569.418 280.314 565.209 280.312 561 280.314L561.001 280.625Z" fill="#2FC8E0"/>
<path d="M603.374 323.053C603.012 323.028 602.648 323.019 602.288 322.975C598.472 322.505 595.414 320.725 593.175 317.601C591.526 315.33 590.695 312.567 590.82 309.763C590.901 306.545 592.204 303.478 594.465 301.186C594.485 301.176 594.507 301.17 594.529 301.17C594.552 301.17 594.574 301.176 594.593 301.186C597.59 304.178 600.584 307.172 603.574 310.169C603.639 310.24 603.677 310.332 603.68 310.428C603.685 314.636 603.687 318.845 603.684 323.054L603.374 323.053Z" fill="#2FC8E0"/>
<path d="M617.999 308.429C617.974 308.067 617.965 307.702 617.92 307.343C617.45 303.527 615.67 300.469 612.546 298.229C610.275 296.58 607.512 295.75 604.709 295.874C601.49 295.956 598.424 297.259 596.132 299.52C596.121 299.54 596.115 299.562 596.115 299.584C596.115 299.606 596.121 299.628 596.132 299.648C599.123 302.645 602.118 305.638 605.115 308.629C605.186 308.694 605.278 308.732 605.374 308.735C609.582 308.74 613.79 308.741 618 308.739L617.999 308.429Z" fill="#2FC8E0"/>
<path d="M603.374 266C603.012 266.025 602.648 266.035 602.288 266.079C598.472 266.549 595.414 268.329 593.175 271.453C591.526 273.724 590.695 276.487 590.82 279.291C590.901 282.509 592.204 285.576 594.465 287.868C594.485 287.879 594.507 287.884 594.529 287.884C594.552 287.884 594.574 287.879 594.593 287.868C597.59 284.876 600.584 281.882 603.574 278.885C603.639 278.814 603.677 278.722 603.68 278.626C603.685 274.418 603.687 270.209 603.684 266L603.374 266Z" fill="#2FC8E0"/>
<path d="M617.999 280.625C617.974 280.987 617.965 281.352 617.92 281.711C617.45 285.527 615.67 288.585 612.546 290.824C610.275 292.474 607.512 293.304 604.709 293.179C601.49 293.098 598.424 291.795 596.132 289.534C596.121 289.514 596.115 289.492 596.115 289.47C596.115 289.447 596.121 289.425 596.132 289.406C599.123 286.409 602.118 283.416 605.115 280.425C605.186 280.36 605.277 280.322 605.374 280.319C609.582 280.314 613.79 280.312 618 280.314L617.999 280.625Z" fill="#2FC8E0"/>
<path d="M575.625 323.053C575.987 323.028 576.351 323.019 576.711 322.975C580.527 322.505 583.585 320.725 585.824 317.601C587.473 315.33 588.304 312.567 588.179 309.763C588.098 306.545 586.794 303.478 584.534 301.186C584.514 301.176 584.492 301.17 584.47 301.17C584.447 301.17 584.425 301.176 584.405 301.186C581.409 304.178 578.415 307.172 575.425 310.169C575.36 310.24 575.322 310.332 575.319 310.428C575.314 314.636 575.312 318.845 575.314 323.054L575.625 323.053Z" fill="#2FC8E0"/>
<path d="M561.001 308.429C561.026 308.067 561.035 307.702 561.08 307.343C561.549 303.527 563.329 300.469 566.454 298.229C568.724 296.58 571.487 295.75 574.291 295.874C577.509 295.956 580.576 297.259 582.868 299.52C582.879 299.54 582.884 299.562 582.884 299.584C582.884 299.606 582.879 299.628 582.868 299.648C579.876 302.645 576.882 305.638 573.885 308.629C573.814 308.694 573.722 308.732 573.626 308.735C569.418 308.74 565.209 308.741 561 308.739L561.001 308.429Z" fill="#2FC8E0"/>
<path fill-rule="evenodd" clip-rule="evenodd" d="M589.794 409.36L589.298 409.224C588.176 408.941 587.148 408.376 586.313 407.583C585.478 406.79 584.865 405.797 584.533 404.7C584.202 403.603 584.163 402.439 584.42 401.323C584.678 400.207 585.224 399.176 586.004 398.33C586.887 397.369 588.028 396.677 589.293 396.332L589.768 396.207L589.768 396.215L590.579 396.048C592.128 395.736 593.579 395.061 594.811 394.082C594.955 393.968 595.101 393.841 595.234 393.725L595.405 393.578L595.425 393.561L595.789 393.202L595.864 393.108C595.933 393.025 596.011 392.934 596.092 392.838C596.289 392.607 596.512 392.345 596.696 392.083C597.959 390.308 598.587 388.166 598.482 385.998C598.376 383.829 597.543 381.758 596.114 380.11C594.743 378.515 592.885 377.403 590.82 376.942C590.764 376.929 590.7 376.915 590.648 376.904C590.626 376.9 590.607 376.896 590.592 376.893L589.78 376.72L589.78 376.751L589.299 376.62C588.178 376.337 587.149 375.772 586.315 374.979C585.48 374.186 584.866 373.193 584.535 372.096C584.203 370.999 584.164 369.835 584.422 368.719C584.68 367.603 585.225 366.571 586.005 365.726C586.888 364.766 588.028 364.073 589.293 363.729L589.784 363.598L589.784 363.555L590.579 363.391C592.127 363.079 593.578 362.404 594.811 361.425C594.954 361.311 595.1 361.184 595.234 361.068L595.405 360.921L595.424 360.905L595.788 360.545L595.864 360.451C595.933 360.368 596.01 360.277 596.091 360.182C596.288 359.95 596.512 359.689 596.695 359.427C597.958 357.651 598.587 355.51 598.481 353.341C598.376 351.173 597.543 349.101 596.114 347.453C594.742 345.858 592.885 344.746 590.82 344.285C590.764 344.272 590.7 344.259 590.648 344.248C590.626 344.243 590.607 344.239 590.591 344.236L589.795 344.066L589.795 344.049L589.299 343.913C588.177 343.631 587.149 343.065 586.314 342.272C585.479 341.48 584.866 340.486 584.534 339.389C584.202 338.292 584.163 337.129 584.421 336.013C584.679 334.896 585.224 333.865 586.005 333.019C586.888 332.06 588.028 331.367 589.293 331.023L589.784 330.892L589.79 330.389C589.792 330.207 589.792 330.023 589.792 329.845L589.792 329.664L589.795 327.746L588.983 327.913C587.434 328.226 585.983 328.9 584.75 329.879C584.609 329.993 584.461 330.121 584.327 330.236C584.267 330.289 584.21 330.338 584.158 330.383L584.137 330.4L583.775 330.759L583.699 330.854L583.697 330.854C583.63 330.937 583.553 331.028 583.471 331.123C583.273 331.355 583.051 331.616 582.865 331.878C581.602 333.654 580.974 335.795 581.08 337.964C581.185 340.132 582.019 342.204 583.448 343.851C584.82 345.447 586.678 346.559 588.743 347.02C588.8 347.033 588.863 347.046 588.915 347.057L588.972 347.069L589.767 347.238L589.767 347.256L590.262 347.391C591.383 347.674 592.411 348.239 593.246 349.032C594.081 349.825 594.694 350.818 595.026 351.915C595.358 353.012 595.397 354.176 595.139 355.292C594.881 356.408 594.336 357.44 593.555 358.285C592.673 359.245 591.533 359.938 590.269 360.282L589.778 360.413L589.778 360.456L588.983 360.62C587.434 360.933 585.983 361.607 584.751 362.586C584.609 362.7 584.461 362.827 584.328 362.943C584.267 362.995 584.211 363.045 584.158 363.09L584.137 363.107L583.775 363.466L583.699 363.56L583.698 363.56C583.63 363.644 583.553 363.734 583.472 363.83C583.273 364.061 583.051 364.323 582.865 364.585C581.603 366.36 580.974 368.502 581.08 370.67C581.186 372.839 582.019 374.911 583.448 376.558C584.82 378.153 586.678 379.265 588.743 379.726C588.8 379.74 588.863 379.753 588.916 379.764C588.936 379.768 588.956 379.772 588.972 379.775L589.784 379.948L589.784 379.917L590.263 380.048C591.385 380.331 592.413 380.896 593.248 381.689C594.083 382.482 594.696 383.475 595.028 384.572C595.36 385.669 595.399 386.833 595.141 387.949C594.883 389.065 594.338 390.097 593.557 390.942C592.675 391.902 591.535 392.595 590.27 392.939L589.794 393.065L589.794 393.056L588.982 393.224C587.433 393.536 585.982 394.211 584.749 395.19C584.608 395.303 584.46 395.431 584.326 395.547C584.266 395.599 584.209 395.648 584.157 395.693L584.136 395.71L583.774 396.069L583.698 396.164L583.696 396.164C583.629 396.247 583.552 396.338 583.47 396.433C583.272 396.665 583.05 396.926 582.864 397.188C581.601 398.964 580.973 401.106 581.079 403.274C581.184 405.443 582.018 407.514 583.447 409.162C584.819 410.757 586.677 411.869 588.742 412.33C588.799 412.343 588.862 412.356 588.914 412.367L588.971 412.379L589.783 412.552L589.794 409.36ZM588.447 328.73C588.464 328.726 588.481 328.722 588.499 328.717C588.457 328.728 588.415 328.74 588.374 328.752C588.398 328.743 588.423 328.736 588.447 328.729L588.447 328.73ZM584.785 330.726C584.913 330.616 585.04 330.505 585.171 330.4C585.04 330.505 584.912 330.616 584.785 330.726ZM583.679 331.916C583.771 331.804 583.865 331.693 583.96 331.583C583.864 331.694 583.771 331.803 583.679 331.916C583.588 332.03 583.499 332.143 583.415 332.263C583.499 332.142 583.588 332.028 583.679 331.915L583.679 331.916ZM590.44 362.741C590.452 362.738 590.465 362.735 590.477 362.733C590.465 362.733 590.452 362.737 590.44 362.739L590.44 362.741ZM591.114 362.578C591.091 362.584 591.068 362.589 591.046 362.595C591.102 362.58 591.159 362.564 591.215 362.548C591.181 362.556 591.148 362.567 591.114 362.576L591.114 362.578ZM594.774 360.582C594.647 360.693 594.52 360.802 594.389 360.908C594.521 360.803 594.648 360.693 594.774 360.582ZM588.447 361.436C588.464 361.432 588.481 361.428 588.498 361.423C588.457 361.434 588.416 361.445 588.376 361.457C588.399 361.449 588.423 361.443 588.447 361.435L588.447 361.436ZM597.821 386.483C597.822 385.568 597.684 384.659 597.411 383.785C597.826 385.113 597.927 386.517 597.708 387.89C597.488 389.262 596.953 390.567 596.145 391.703C597.231 390.174 597.816 388.351 597.82 386.481L597.821 386.483ZM591.114 395.234C591.094 395.24 591.073 395.245 591.053 395.25C591.104 395.236 591.154 395.222 591.205 395.207C591.174 395.215 591.144 395.224 591.114 395.231L591.114 395.234ZM594.389 393.564C594.521 393.459 594.648 393.349 594.775 393.239C594.648 393.347 594.521 393.458 594.389 393.564ZM588.447 394.04C588.465 394.035 588.482 394.031 588.5 394.026C588.457 394.038 588.415 394.05 588.372 394.062C588.397 394.053 588.422 394.045 588.447 394.038L588.447 394.04ZM585.173 395.71C585.042 395.814 584.914 395.925 584.787 396.035C584.912 395.923 585.04 395.813 585.171 395.708L585.173 395.71ZM582.883 398.418C582.284 399.494 581.912 400.679 581.788 401.902C581.911 400.679 582.283 399.493 582.882 398.416L582.883 398.418ZM581.742 402.735C581.728 404.343 582.146 405.926 582.954 407.322C582.145 405.926 581.726 404.342 581.74 402.733L581.742 402.735Z" fill="#FED670"/>
<path d="M670.924 239.277C670.271 240.404 669.223 241.248 667.983 241.645C666.744 242.042 665.4 241.964 664.215 241.425C663.029 240.887 662.087 239.927 661.57 238.732C661.053 237.537 660.999 236.192 661.418 234.96C661.838 233.727 662.701 232.695 663.839 232.063C664.978 231.432 666.31 231.246 667.578 231.542C668.846 231.838 669.958 232.596 670.698 233.667C671.439 234.738 671.755 236.046 671.584 237.336C671.494 238.021 671.27 238.68 670.924 239.277Z" fill="#E1458D"/>
<path d="M645.296 196.001C645.823 196.037 646.354 196.051 646.877 196.115C652.434 196.799 656.887 199.391 660.148 203.941C662.549 207.247 663.758 211.271 663.577 215.353C663.459 220.04 661.561 224.505 658.269 227.842C658.24 227.858 658.208 227.867 658.175 227.867C658.143 227.867 658.111 227.858 658.082 227.842C653.718 223.486 649.359 219.126 645.005 214.762C644.91 214.659 644.856 214.525 644.851 214.385C644.843 208.257 644.841 202.129 644.844 196L645.296 196.001Z" fill="#2FC8E0"/>
<path d="M624.001 217.295C624.038 217.823 624.051 218.353 624.116 218.877C624.8 224.433 627.392 228.887 631.941 232.147C635.248 234.549 639.271 235.757 643.353 235.576C648.04 235.458 652.505 233.56 655.843 230.268C655.859 230.239 655.867 230.207 655.867 230.175C655.867 230.142 655.859 230.11 655.843 230.081C651.487 225.718 647.126 221.359 642.762 217.004C642.659 216.91 642.525 216.854 642.385 216.85C636.258 216.842 630.129 216.84 624 216.843L624.001 217.295Z" fill="#2FC8E0"/>
<path d="M685.703 279.076C685.176 279.04 684.645 279.027 684.122 278.963C678.565 278.278 674.111 275.687 670.851 271.137C668.45 267.83 667.241 263.807 667.422 259.725C667.54 255.038 669.438 250.573 672.73 247.236C672.759 247.22 672.791 247.212 672.823 247.212C672.856 247.212 672.888 247.22 672.917 247.236C677.28 251.592 681.64 255.952 685.994 260.316C686.089 260.419 686.143 260.553 686.148 260.693C686.156 266.82 686.158 272.949 686.155 279.078L685.703 279.076Z" fill="#2FC8E0"/>
<path d="M706.998 257.782C706.962 257.255 706.949 256.724 706.884 256.201C706.2 250.644 703.608 246.191 699.058 242.93C695.752 240.529 691.728 239.32 687.646 239.501C682.96 239.62 678.494 241.517 675.157 244.809C675.141 244.838 675.133 244.87 675.133 244.903C675.133 244.935 675.141 244.967 675.157 244.996C679.513 249.36 683.873 253.719 688.238 258.073C688.341 258.168 688.474 258.223 688.614 258.228C694.742 258.235 700.87 258.237 707 258.234L706.998 257.782Z" fill="#2FC8E0"/>
<path d="M685.703 196.001C685.176 196.037 684.645 196.051 684.122 196.115C678.565 196.799 674.111 199.391 670.851 203.941C668.45 207.247 667.241 211.271 667.422 215.353C667.54 220.04 669.438 224.505 672.73 227.842C672.759 227.858 672.791 227.867 672.823 227.867C672.856 227.867 672.888 227.858 672.917 227.842C677.28 223.486 681.64 219.126 685.995 214.762C686.089 214.659 686.144 214.525 686.148 214.385C686.156 208.257 686.158 202.129 686.155 196L685.703 196.001Z" fill="#2FC8E0"/>
<path d="M706.998 217.295C706.962 217.823 706.949 218.353 706.884 218.877C706.2 224.433 703.608 228.887 699.058 232.147C695.752 234.549 691.729 235.758 687.646 235.576C682.96 235.458 678.494 233.56 675.157 230.268C675.141 230.239 675.133 230.207 675.133 230.175C675.133 230.142 675.141 230.11 675.157 230.081C679.513 225.718 683.873 221.359 688.238 217.004C688.341 216.909 688.474 216.854 688.614 216.85C694.742 216.842 700.87 216.84 707 216.843L706.998 217.295Z" fill="#2FC8E0"/>
<path d="M645.296 279.076C645.823 279.04 646.354 279.027 646.877 278.963C652.434 278.278 656.887 275.687 660.148 271.137C662.549 267.83 663.758 263.807 663.577 259.725C663.458 255.038 661.561 250.573 658.269 247.236C658.24 247.22 658.208 247.212 658.175 247.212C658.143 247.212 658.111 247.22 658.082 247.236C653.718 251.592 649.359 255.952 645.005 260.316C644.91 260.419 644.856 260.553 644.851 260.693C644.843 266.82 644.841 272.949 644.844 279.078L645.296 279.076Z" fill="#2FC8E0"/>
<path d="M624.001 257.782C624.038 257.255 624.051 256.724 624.116 256.201C624.8 250.644 627.392 246.191 631.941 242.93C635.248 240.529 639.271 239.32 643.354 239.501C648.04 239.62 652.505 241.518 655.843 244.809C655.859 244.838 655.867 244.87 655.867 244.903C655.867 244.935 655.859 244.967 655.843 244.996C651.487 249.36 647.126 253.719 642.762 258.073C642.659 258.168 642.525 258.223 642.385 258.228C636.258 258.235 630.129 258.237 624 258.234L624.001 257.782Z" fill="#2FC8E0"/>
<path fill-rule="evenodd" clip-rule="evenodd" d="M665.928 404.752L665.206 404.554C663.573 404.142 662.076 403.319 660.86 402.165C659.644 401.01 658.751 399.564 658.268 397.966C657.785 396.369 657.729 394.675 658.104 393.05C658.479 391.424 659.273 389.922 660.409 388.691C661.695 387.292 663.356 386.284 665.199 385.782L665.891 385.599L665.891 385.612L667.071 385.368C669.327 384.913 671.44 383.932 673.234 382.505C673.443 382.34 673.656 382.154 673.851 381.986L674.099 381.772L674.127 381.747L674.658 381.224L674.768 381.087C674.868 380.966 674.981 380.834 675.099 380.694C675.386 380.357 675.711 379.976 675.978 379.595C677.817 377.01 678.733 373.892 678.579 370.734C678.426 367.576 677.213 364.559 675.132 362.161C673.134 359.838 670.43 358.219 667.423 357.547C667.341 357.528 667.248 357.509 667.172 357.493C667.14 357.486 667.112 357.48 667.09 357.476L665.908 357.224L665.908 357.269L665.208 357.078C663.575 356.666 662.078 355.843 660.862 354.689C659.646 353.534 658.753 352.088 658.27 350.49C657.787 348.893 657.731 347.199 658.106 345.573C658.481 343.948 659.276 342.446 660.412 341.215C661.697 339.817 663.357 338.809 665.199 338.307L665.913 338.116L665.913 338.054L667.071 337.816C669.326 337.36 671.439 336.379 673.234 334.952C673.443 334.787 673.655 334.601 673.85 334.433L674.099 334.219L674.127 334.195L674.657 333.671L674.767 333.534C674.868 333.413 674.98 333.281 675.098 333.142C675.385 332.805 675.71 332.424 675.978 332.042C677.817 329.457 678.732 326.339 678.579 323.181C678.425 320.024 677.212 317.007 675.131 314.608C673.134 312.285 670.429 310.666 667.423 309.994C667.34 309.975 667.248 309.956 667.172 309.94C667.139 309.933 667.112 309.928 667.089 309.923L665.929 309.676L665.929 309.651L665.207 309.453C663.574 309.041 662.077 308.218 660.861 307.064C659.645 305.909 658.752 304.463 658.269 302.865C657.786 301.268 657.73 299.574 658.105 297.948C658.48 296.323 659.275 294.821 660.411 293.59C661.697 292.192 663.357 291.184 665.199 290.683L665.913 290.492L665.923 289.759C665.926 289.494 665.926 289.227 665.926 288.968L665.926 288.703L665.929 285.911L664.747 286.154C662.492 286.61 660.379 287.591 658.584 289.018C658.378 289.183 658.163 289.369 657.968 289.537C657.88 289.614 657.798 289.686 657.721 289.751L657.691 289.775L657.163 290.299L657.053 290.436L657.051 290.436C656.953 290.558 656.84 290.69 656.722 290.829C656.433 291.166 656.11 291.547 655.839 291.928C654 294.514 653.085 297.632 653.239 300.79C653.393 303.947 654.607 306.964 656.688 309.363C658.686 311.686 661.391 313.305 664.398 313.976C664.481 313.995 664.573 314.015 664.649 314.03L664.732 314.048L665.889 314.294L665.889 314.32L666.609 314.517C668.242 314.929 669.739 315.752 670.955 316.907C672.171 318.061 673.064 319.507 673.547 321.105C674.03 322.702 674.087 324.396 673.711 326.022C673.336 327.647 672.542 329.149 671.406 330.38C670.12 331.778 668.461 332.786 666.619 333.288L665.905 333.479L665.905 333.542L664.748 333.78C662.493 334.236 660.38 335.217 658.585 336.643C658.378 336.809 658.163 336.994 657.969 337.163C657.881 337.239 657.798 337.312 657.722 337.377L657.692 337.401L657.164 337.924L657.054 338.062L657.051 338.062C656.953 338.183 656.841 338.314 656.722 338.454C656.433 338.791 656.11 339.172 655.839 339.554C654.001 342.139 653.086 345.257 653.24 348.415C653.394 351.573 654.607 354.589 656.688 356.988C658.686 359.311 661.391 360.93 664.399 361.602C664.481 361.621 664.573 361.64 664.65 361.656C664.68 361.662 664.708 361.668 664.732 361.673L665.914 361.925L665.914 361.879L666.612 362.07C668.245 362.482 669.742 363.305 670.958 364.46C672.174 365.614 673.067 367.061 673.55 368.658C674.033 370.256 674.089 371.95 673.714 373.575C673.339 375.201 672.544 376.702 671.408 377.934C670.123 379.332 668.464 380.34 666.622 380.842L665.928 381.025L665.928 381.012L664.746 381.255C662.491 381.711 660.378 382.693 658.583 384.119C658.376 384.284 658.162 384.47 657.967 384.638C657.879 384.714 657.796 384.787 657.72 384.852L657.69 384.876L657.162 385.399L657.052 385.537L657.05 385.537C656.951 385.658 656.839 385.79 656.72 385.929C656.432 386.267 656.108 386.647 655.838 387.029C653.999 389.614 653.084 392.733 653.238 395.89C653.392 399.048 654.605 402.065 656.687 404.464C658.684 406.787 661.39 408.406 664.397 409.078C664.479 409.096 664.571 409.116 664.648 409.131L664.73 409.149L665.912 409.4L665.928 404.752ZM663.967 287.345C663.992 287.338 664.017 287.332 664.042 287.325C663.982 287.341 663.92 287.358 663.86 287.376C663.896 287.363 663.932 287.352 663.967 287.342L663.967 287.345ZM658.635 290.25C658.82 290.09 659.006 289.929 659.197 289.776C659.007 289.929 658.82 290.09 658.635 290.25ZM657.025 291.984C657.158 291.82 657.295 291.659 657.433 291.498C657.294 291.659 657.158 291.819 657.025 291.984C656.891 292.149 656.762 292.314 656.64 292.488C656.762 292.312 656.891 292.145 657.025 291.981L657.025 291.984ZM666.869 336.869C666.887 336.865 666.905 336.86 666.923 336.857C666.905 336.857 666.887 336.863 666.869 336.866L666.869 336.869ZM667.851 336.631C667.818 336.64 667.784 336.648 667.751 336.656C667.834 336.634 667.916 336.611 667.997 336.588C667.948 336.6 667.9 336.615 667.851 336.628L667.851 336.631ZM673.181 333.725C672.995 333.886 672.81 334.046 672.619 334.199C672.812 334.047 672.996 333.886 673.181 333.725ZM663.968 334.969C663.992 334.962 664.017 334.956 664.042 334.949C663.982 334.966 663.922 334.982 663.863 335C663.898 334.987 663.932 334.978 663.967 334.967L663.968 334.969ZM677.616 371.44C677.618 370.109 677.417 368.784 677.02 367.512C677.624 369.446 677.772 371.49 677.452 373.489C677.132 375.488 676.354 377.387 675.176 379.041C676.758 376.815 677.61 374.16 677.616 371.438L677.616 371.44ZM667.851 384.183C667.821 384.191 667.791 384.198 667.762 384.206C667.836 384.186 667.909 384.166 667.983 384.144C667.938 384.155 667.895 384.168 667.851 384.179L667.851 384.183ZM672.619 381.752C672.812 381.599 672.997 381.438 673.181 381.277C672.996 381.436 672.812 381.597 672.619 381.752ZM663.968 382.444C663.993 382.437 664.019 382.431 664.044 382.425C663.982 382.441 663.92 382.458 663.858 382.476C663.894 382.463 663.931 382.452 663.967 382.442L663.968 382.444ZM659.199 384.875C659.009 385.028 658.822 385.189 658.638 385.35C658.82 385.187 659.007 385.026 659.197 384.873L659.199 384.875ZM655.866 388.819C654.994 390.386 654.451 392.112 654.27 393.892C654.45 392.111 654.991 390.385 655.863 388.817L655.866 388.819ZM654.204 395.105C654.183 397.447 654.792 399.752 655.969 401.784C654.791 399.752 654.181 397.446 654.201 395.103L654.204 395.105Z" fill="#FED670"/>
<path d="M123.536 107.332C123.536 112.601 121.595 117.143 117.712 120.956C113.829 124.769 109.08 126.676 103.464 126.676C97.5707 126.676 92.6133 124.752 88.592 120.904C84.5707 117.056 82.56 112.324 82.56 106.708C82.56 101.196 84.5187 96.516 88.436 92.668C92.388 88.82 97.172 86.896 102.788 86.896C106.983 86.896 110.848 88.0227 114.384 90.276C117.92 92.5293 120.312 95.3893 121.56 98.856H113.188C110.761 95.4587 107.243 93.76 102.632 93.76C98.888 93.76 95.8027 95.0253 93.376 97.556C90.9493 100.052 89.736 103.137 89.736 106.812C89.736 110.487 91.0013 113.572 93.532 116.068C96.0973 118.564 99.2693 119.812 103.048 119.812C105.579 119.812 107.832 119.223 109.808 118.044C111.784 116.865 113.292 115.201 114.332 113.052H98.42V106.396H123.536V107.332ZM155.248 112.012C155.248 112.948 155.161 113.832 154.988 114.664H132.68C133.096 116.397 134.015 117.784 135.436 118.824C136.857 119.829 138.591 120.332 140.636 120.332C142.057 120.332 143.236 120.124 144.172 119.708C145.143 119.257 146.079 118.512 146.98 117.472H154.52C153.584 120.315 151.816 122.568 149.216 124.232C146.651 125.861 143.843 126.676 140.792 126.676C136.389 126.676 132.68 125.237 129.664 122.36C126.683 119.483 125.192 115.929 125.192 111.7C125.192 107.471 126.665 103.883 129.612 100.936C132.559 97.9893 136.147 96.516 140.376 96.516C144.675 96.516 148.228 97.9893 151.036 100.936C153.844 103.848 155.248 107.54 155.248 112.012ZM148.436 108.58C147.985 106.743 147.067 105.339 145.68 104.368C144.328 103.363 142.595 102.86 140.48 102.86C136.285 102.86 133.616 104.767 132.472 108.58H148.436ZM170.778 103.484H166.618V126H159.702V103.484H156.322V97.192H159.702V87.572H166.618V97.192H170.778V103.484ZM209.574 114.352C209.574 117.819 208.395 120.748 206.038 123.14C203.68 125.497 200.768 126.676 197.302 126.676C193.87 126.676 190.975 125.636 188.618 123.556C186.295 121.441 184.978 118.599 184.666 115.028H192.102C192.414 118.217 194.147 119.812 197.302 119.812C198.827 119.812 200.075 119.379 201.046 118.512C202.016 117.645 202.502 116.519 202.502 115.132C202.502 113.433 201.912 112.133 200.734 111.232C200.179 110.816 199.59 110.469 198.966 110.192C198.342 109.915 196.712 109.273 194.078 108.268C191.512 107.297 189.536 105.928 188.15 104.16C186.763 102.357 186.07 100.243 186.07 97.816C186.07 94.7653 187.162 92.1827 189.346 90.068C191.53 87.9533 194.164 86.896 197.25 86.896C200.404 86.896 203.039 87.884 205.154 89.86C207.303 91.836 208.464 94.488 208.638 97.816H201.254C201.15 96.4987 200.751 95.4933 200.058 94.8C199.364 94.1067 198.411 93.76 197.198 93.76C196.019 93.76 195.066 94.124 194.338 94.852C193.61 95.58 193.246 96.516 193.246 97.66C193.246 99.0813 193.956 100.243 195.378 101.144C195.759 101.387 197.18 101.959 199.642 102.86C203.386 104.247 205.968 105.824 207.39 107.592C208.846 109.36 209.574 111.613 209.574 114.352ZM225.345 103.484H221.185V126H214.269V103.484H210.889V97.192H214.269V87.572H221.185V97.192H225.345V103.484ZM256.443 126H250.099V122.256C248.712 123.816 247.274 124.943 245.783 125.636C244.292 126.329 242.542 126.676 240.531 126.676C236.336 126.676 232.87 125.272 230.131 122.464C227.392 119.621 226.023 116.033 226.023 111.7C226.023 107.297 227.392 103.675 230.131 100.832C232.904 97.9547 236.423 96.516 240.687 96.516C244.674 96.516 247.811 98.024 250.099 101.04V97.192H256.443V126ZM249.891 111.804C249.891 109.169 249.094 107.02 247.499 105.356C245.904 103.692 243.876 102.86 241.415 102.86C238.954 102.86 236.926 103.709 235.331 105.408C233.771 107.072 232.991 109.221 232.991 111.856C232.991 114.387 233.771 116.432 235.331 117.992C236.926 119.552 238.988 120.332 241.519 120.332C244.084 120.332 246.112 119.535 247.603 117.94C249.128 116.311 249.891 114.265 249.891 111.804ZM273.663 103.172C269.538 103.276 267.475 105.547 267.475 109.984V126H260.559V97.192H266.903V100C267.805 98.6827 268.689 97.7813 269.555 97.296C270.457 96.776 271.653 96.516 273.143 96.516H273.663V103.172ZM289.053 103.484H284.893V126H277.977V103.484H274.597V97.192H277.977V87.572H284.893V97.192H289.053V103.484ZM319.787 112.012C319.787 112.948 319.701 113.832 319.527 114.664H297.219C297.635 116.397 298.554 117.784 299.975 118.824C301.397 119.829 303.13 120.332 305.175 120.332C306.597 120.332 307.775 120.124 308.711 119.708C309.682 119.257 310.618 118.512 311.519 117.472H319.059C318.123 120.315 316.355 122.568 313.755 124.232C311.19 125.861 308.382 126.676 305.331 126.676C300.929 126.676 297.219 125.237 294.203 122.36C291.222 119.483 289.731 115.929 289.731 111.7C289.731 107.471 291.205 103.883 294.151 100.936C297.098 97.9893 300.686 96.516 304.915 96.516C309.214 96.516 312.767 97.9893 315.575 100.936C318.383 103.848 319.787 107.54 319.787 112.012ZM312.975 108.58C312.525 106.743 311.606 105.339 310.219 104.368C308.867 103.363 307.134 102.86 305.019 102.86C300.825 102.86 298.155 104.767 297.011 108.58H312.975ZM352.269 126H345.925V122.256C343.325 125.203 340.153 126.676 336.409 126.676C332.318 126.676 328.886 125.22 326.113 122.308C323.34 119.396 321.953 115.808 321.953 111.544C321.953 107.245 323.34 103.605 326.113 100.624C328.921 97.6427 332.336 96.152 336.357 96.152C340.17 96.152 343.169 97.348 345.353 99.74V87.572H352.269V126ZM345.873 111.44C345.873 108.909 345.058 106.795 343.429 105.096C341.8 103.363 339.772 102.496 337.345 102.496C334.988 102.496 332.994 103.345 331.365 105.044C329.736 106.708 328.921 108.771 328.921 111.232C328.921 113.797 329.736 115.964 331.365 117.732C333.029 119.465 335.074 120.332 337.501 120.332C339.858 120.332 341.834 119.483 343.429 117.784C345.058 116.051 345.873 113.936 345.873 111.44ZM399.195 126H392.851V122.256C391.465 123.816 390.026 124.943 388.535 125.636C387.045 126.329 385.294 126.676 383.283 126.676C379.089 126.676 375.622 125.272 372.883 122.464C370.145 119.621 368.775 116.033 368.775 111.7C368.775 107.297 370.145 103.675 372.883 100.832C375.657 97.9547 379.175 96.516 383.439 96.516C387.426 96.516 390.563 98.024 392.851 101.04V97.192H399.195V126ZM392.643 111.804C392.643 109.169 391.846 107.02 390.251 105.356C388.657 103.692 386.629 102.86 384.167 102.86C381.706 102.86 379.678 103.709 378.083 105.408C376.523 107.072 375.743 109.221 375.743 111.856C375.743 114.387 376.523 116.432 378.083 117.992C379.678 119.552 381.741 120.332 384.271 120.332C386.837 120.332 388.865 119.535 390.355 117.94C391.881 116.311 392.643 114.265 392.643 111.804ZM422.343 116.848C422.343 119.587 421.338 121.909 419.327 123.816C417.351 125.723 414.925 126.676 412.047 126.676C409.101 126.676 406.691 125.861 404.819 124.232C402.947 122.568 401.838 120.107 401.491 116.848H408.459C408.806 118.061 409.274 118.945 409.863 119.5C410.487 120.055 411.302 120.332 412.307 120.332C413.209 120.332 413.954 120.072 414.543 119.552C415.133 118.997 415.427 118.321 415.427 117.524C415.427 116.657 415.167 116.016 414.647 115.6C414.127 115.184 412.758 114.595 410.539 113.832C407.662 112.861 405.599 111.735 404.351 110.452C403.138 109.135 402.531 107.419 402.531 105.304C402.531 102.843 403.45 100.763 405.287 99.064C407.159 97.3653 409.43 96.516 412.099 96.516C414.63 96.516 416.797 97.296 418.599 98.856C420.437 100.416 421.425 102.513 421.563 105.148H414.803C414.491 103.623 413.59 102.86 412.099 102.86C411.337 102.86 410.695 103.103 410.175 103.588C409.69 104.039 409.447 104.611 409.447 105.304C409.447 106.067 409.673 106.587 410.123 106.864C410.574 107.141 411.978 107.661 414.335 108.424C417.317 109.36 419.397 110.469 420.575 111.752C421.754 113 422.343 114.699 422.343 116.848ZM467.88 126H461.536V122.256C460.149 123.816 458.711 124.943 457.22 125.636C455.729 126.329 453.979 126.676 451.968 126.676C447.773 126.676 444.307 125.272 441.568 122.464C438.829 119.621 437.46 116.033 437.46 111.7C437.46 107.297 438.829 103.675 441.568 100.832C444.341 97.9547 447.86 96.516 452.124 96.516C456.111 96.516 459.248 98.024 461.536 101.04V97.192H467.88V126ZM461.328 111.804C461.328 109.169 460.531 107.02 458.936 105.356C457.341 103.692 455.313 102.86 452.852 102.86C450.391 102.86 448.363 103.709 446.768 105.408C445.208 107.072 444.428 109.221 444.428 111.856C444.428 114.387 445.208 116.432 446.768 117.992C448.363 119.552 450.425 120.332 452.956 120.332C455.521 120.332 457.549 119.535 459.04 117.94C460.565 116.311 461.328 114.265 461.328 111.804ZM510.802 99.428C510.802 101.647 510.352 103.675 509.45 105.512C508.549 107.315 507.318 108.701 505.758 109.672C504.684 110.331 503.418 110.781 501.962 111.024C500.506 111.267 498.409 111.388 495.67 111.388H493.382V126H486.258V87.572H495.774C500.35 87.572 503.626 88.1613 505.602 89.34C509.069 91.4547 510.802 94.8173 510.802 99.428ZM503.626 99.532C503.626 97.556 503.02 96.204 501.806 95.476C500.628 94.748 498.617 94.384 495.774 94.384H493.382V104.576H495.462C498.548 104.576 500.68 104.177 501.858 103.38C503.037 102.548 503.626 101.265 503.626 99.532ZM526.692 103.172C522.567 103.276 520.504 105.547 520.504 109.984V126H513.588V97.192H519.932V100C520.833 98.6827 521.717 97.7813 522.584 97.296C523.485 96.776 524.681 96.516 526.172 96.516H526.692V103.172ZM557.569 111.804C557.569 115.86 556.061 119.361 553.045 122.308C550.029 125.22 546.423 126.676 542.229 126.676C537.999 126.676 534.394 125.203 531.413 122.256C528.431 119.309 526.941 115.756 526.941 111.596C526.941 107.471 528.431 103.935 531.413 100.988C534.394 98.0067 537.982 96.516 542.177 96.516C546.51 96.516 550.15 97.9893 553.097 100.936C556.078 103.883 557.569 107.505 557.569 111.804ZM550.601 111.596C550.601 109.204 549.786 107.159 548.157 105.46C546.527 103.727 544.551 102.86 542.229 102.86C539.975 102.86 538.017 103.709 536.353 105.408C534.723 107.107 533.909 109.135 533.909 111.492C533.909 113.953 534.723 116.051 536.353 117.784C537.982 119.483 539.958 120.332 542.281 120.332C544.569 120.332 546.527 119.483 548.157 117.784C549.786 116.085 550.601 114.023 550.601 111.596ZM568.262 124.076C568.262 127.855 567.378 130.715 565.61 132.656C563.877 134.632 561.502 135.62 558.486 135.62V128.912C559.769 128.669 560.566 128.288 560.878 127.768C561.19 127.248 561.346 125.965 561.346 123.92V97.192H568.262V124.076ZM568.314 93.032H561.398V86.116H568.314V93.032ZM601.686 112.012C601.686 112.948 601.599 113.832 601.426 114.664H579.118C579.534 116.397 580.453 117.784 581.874 118.824C583.295 119.829 585.029 120.332 587.074 120.332C588.495 120.332 589.674 120.124 590.61 119.708C591.581 119.257 592.517 118.512 593.418 117.472H600.958C600.022 120.315 598.254 122.568 595.654 124.232C593.089 125.861 590.281 126.676 587.23 126.676C582.827 126.676 579.118 125.237 576.102 122.36C573.121 119.483 571.63 115.929 571.63 111.7C571.63 107.471 573.103 103.883 576.05 100.936C578.997 97.9893 582.585 96.516 586.814 96.516C591.113 96.516 594.666 97.9893 597.474 100.936C600.282 103.848 601.686 107.54 601.686 112.012ZM594.874 108.58C594.423 106.743 593.505 105.339 592.118 104.368C590.766 103.363 589.033 102.86 586.918 102.86C582.723 102.86 580.054 104.767 578.91 108.58H594.874ZM633.544 116.536C632.331 119.76 630.476 122.256 627.98 124.024C625.519 125.792 622.607 126.676 619.244 126.676C614.98 126.676 611.34 125.22 608.324 122.308C605.343 119.361 603.852 115.791 603.852 111.596C603.852 107.367 605.308 103.796 608.22 100.884C611.167 97.972 614.772 96.516 619.036 96.516C622.364 96.516 625.328 97.4173 627.928 99.22C630.563 101.023 632.435 103.553 633.544 106.812H625.744C624.357 104.177 622.121 102.86 619.036 102.86C616.644 102.86 614.668 103.675 613.108 105.304C611.583 106.933 610.82 109.013 610.82 111.544C610.82 114.075 611.617 116.172 613.212 117.836C614.807 119.5 616.8 120.332 619.192 120.332C621.931 120.332 624.115 119.067 625.744 116.536H633.544ZM649.438 103.484H645.278V126H638.362V103.484H634.982V97.192H638.362V87.572H645.278V97.192H649.438V103.484ZM113.188 183.804C113.188 187.86 111.68 191.361 108.664 194.308C105.648 197.22 102.043 198.676 97.848 198.676C93.6187 198.676 90.0133 197.203 87.032 194.256C84.0507 191.309 82.56 187.756 82.56 183.596C82.56 179.471 84.0507 175.935 87.032 172.988C90.0133 170.007 93.6013 168.516 97.796 168.516C102.129 168.516 105.769 169.989 108.716 172.936C111.697 175.883 113.188 179.505 113.188 183.804ZM106.22 183.596C106.22 181.204 105.405 179.159 103.776 177.46C102.147 175.727 100.171 174.86 97.848 174.86C95.5947 174.86 93.636 175.709 91.972 177.408C90.3427 179.107 89.528 181.135 89.528 183.492C89.528 185.953 90.3427 188.051 91.972 189.784C93.6013 191.483 95.5773 192.332 97.9 192.332C100.188 192.332 102.147 191.483 103.776 189.784C105.405 188.085 106.22 186.023 106.22 183.596ZM153.026 169.192L142.626 198H138.31L132.85 179.332L127.286 198H123.022L112.726 169.192H120.162L125.31 186.768L130.146 169.192H135.658L140.39 186.768L145.642 169.192H153.026ZM181.148 198H174.232V183.908C174.232 180.303 173.781 177.893 172.88 176.68C172.013 175.467 170.627 174.86 168.72 174.86C166.432 174.86 164.733 175.744 163.624 177.512C162.861 178.725 162.48 181.031 162.48 184.428V198H155.564V169.192H161.96V171.948C164.352 169.66 167.056 168.516 170.072 168.516C174.163 168.516 177.161 169.903 179.068 172.676C179.831 173.785 180.368 175.068 180.68 176.524C180.992 177.98 181.148 179.991 181.148 182.556V198ZM214.512 184.012C214.512 184.948 214.425 185.832 214.252 186.664H191.944C192.36 188.397 193.278 189.784 194.7 190.824C196.121 191.829 197.854 192.332 199.9 192.332C201.321 192.332 202.5 192.124 203.436 191.708C204.406 191.257 205.342 190.512 206.244 189.472H213.784C212.848 192.315 211.08 194.568 208.48 196.232C205.914 197.861 203.106 198.676 200.056 198.676C195.653 198.676 191.944 197.237 188.928 194.36C185.946 191.483 184.456 187.929 184.456 183.7C184.456 179.471 185.929 175.883 188.876 172.936C191.822 169.989 195.41 168.516 199.64 168.516C203.938 168.516 207.492 169.989 210.3 172.936C213.108 175.848 214.512 179.54 214.512 184.012ZM207.7 180.58C207.249 178.743 206.33 177.339 204.944 176.368C203.592 175.363 201.858 174.86 199.744 174.86C195.549 174.86 192.88 176.767 191.736 180.58H207.7ZM231.029 175.172C226.904 175.276 224.841 177.547 224.841 181.984V198H217.925V169.192H224.269V172C225.171 170.683 226.055 169.781 226.921 169.296C227.823 168.776 229.019 168.516 230.509 168.516H231.029V175.172Z" fill="white"/>
<path d="M105.64 256.792C103.251 261.208 99.6453 263.416 94.824 263.416C91.2827 263.416 88.328 262.253 85.96 259.928C83.592 257.603 82.408 254.712 82.408 251.256C82.408 247.715 83.5707 244.781 85.896 242.456C88.2213 240.109 91.144 238.936 94.664 238.936C97.1173 238.936 99.3147 239.523 101.256 240.696C103.197 241.869 104.627 243.469 105.544 245.496H102.888C101.032 242.573 98.3227 241.112 94.76 241.112C91.944 241.112 89.576 242.083 87.656 244.024C85.7573 245.944 84.808 248.323 84.808 251.16C84.808 253.933 85.7893 256.312 87.752 258.296C89.7147 260.259 92.0613 261.24 94.792 261.24C96.4987 261.24 97.9813 260.899 99.24 260.216C100.499 259.512 101.757 258.371 103.016 256.792H105.64ZM116.055 247.416C112.749 247.736 111.095 249.528 111.095 252.792V263H108.727V245.496H111.095V247.992C111.565 247.032 112.194 246.328 112.983 245.88C113.773 245.411 114.797 245.144 116.055 245.08V247.416ZM134.6 255.032H118.76C118.845 256.76 119.549 258.232 120.872 259.448C122.216 260.643 123.784 261.24 125.576 261.24C126.898 261.24 128.125 260.877 129.256 260.152C130.386 259.405 131.197 258.435 131.688 257.24H134.152C133.576 258.968 132.488 260.429 130.888 261.624C129.309 262.819 127.56 263.416 125.64 263.416C123.058 263.416 120.872 262.531 119.08 260.76C117.288 258.968 116.392 256.771 116.392 254.168C116.392 251.629 117.266 249.485 119.016 247.736C120.786 245.965 122.941 245.08 125.48 245.08C128.125 245.08 130.301 245.987 132.008 247.8C133.736 249.592 134.6 252.003 134.6 255.032ZM132.232 252.888C131.826 251.139 131.016 249.763 129.8 248.76C128.605 247.757 127.154 247.256 125.448 247.256C123.784 247.256 122.344 247.779 121.128 248.824C119.912 249.848 119.144 251.203 118.824 252.888H132.232ZM155.38 263H153.012V259.928C152.073 261.187 151.081 262.083 150.036 262.616C149.012 263.149 147.753 263.416 146.26 263.416C143.572 263.416 141.332 262.552 139.54 260.824C137.769 259.075 136.884 256.899 136.884 254.296C136.884 251.672 137.759 249.485 139.508 247.736C141.279 245.965 143.476 245.08 146.1 245.08C149.044 245.08 151.348 246.253 153.012 248.6V245.496H155.38V263ZM153.012 254.168C153.012 252.227 152.351 250.595 151.028 249.272C149.705 247.928 148.084 247.256 146.164 247.256C144.265 247.256 142.644 247.928 141.3 249.272C139.956 250.616 139.284 252.237 139.284 254.136C139.284 256.141 139.956 257.827 141.3 259.192C142.644 260.557 144.308 261.24 146.292 261.24C148.169 261.24 149.759 260.557 151.06 259.192C152.361 257.827 153.012 256.152 153.012 254.168ZM167.528 247.64H163.592V263H161.224V247.64H157.448V245.496H161.224V239.352H163.592V245.496H167.528V247.64ZM186.327 255.032H170.487C170.572 256.76 171.276 258.232 172.599 259.448C173.943 260.643 175.511 261.24 177.303 261.24C178.626 261.24 179.852 260.877 180.983 260.152C182.114 259.405 182.924 258.435 183.415 257.24H185.879C185.303 258.968 184.215 260.429 182.615 261.624C181.036 262.819 179.287 263.416 177.367 263.416C174.786 263.416 172.599 262.531 170.807 260.76C169.015 258.968 168.119 256.771 168.119 254.168C168.119 251.629 168.994 249.485 170.743 247.736C172.514 245.965 174.668 245.08 177.207 245.08C179.852 245.08 182.028 245.987 183.735 247.8C185.463 249.592 186.327 252.003 186.327 255.032ZM183.959 252.888C183.554 251.139 182.743 249.763 181.527 248.76C180.332 247.757 178.882 247.256 177.175 247.256C175.511 247.256 174.071 247.779 172.855 248.824C171.639 249.848 170.871 251.203 170.551 252.888H183.959ZM215.663 263H213.295V259.928C212.356 261.187 211.364 262.083 210.319 262.616C209.295 263.149 208.036 263.416 206.543 263.416C203.855 263.416 201.615 262.552 199.823 260.824C198.052 259.075 197.167 256.899 197.167 254.296C197.167 251.672 198.041 249.485 199.791 247.736C201.561 245.965 203.759 245.08 206.383 245.08C209.327 245.08 211.631 246.253 213.295 248.6V245.496H215.663V263ZM213.295 254.168C213.295 252.227 212.633 250.595 211.311 249.272C209.988 247.928 208.367 247.256 206.447 247.256C204.548 247.256 202.927 247.928 201.583 249.272C200.239 250.616 199.567 252.237 199.567 254.136C199.567 256.141 200.239 257.827 201.583 259.192C202.927 260.557 204.591 261.24 206.575 261.24C208.452 261.24 210.041 260.557 211.343 259.192C212.644 257.827 213.295 256.152 213.295 254.168ZM246.381 254.296C246.381 256.856 245.485 259.021 243.693 260.792C241.901 262.541 239.704 263.416 237.101 263.416C234.115 263.416 231.843 262.275 230.285 259.992V269.144H227.917V245.496H230.285V248.504C231.8 246.221 234.093 245.08 237.165 245.08C239.768 245.08 241.955 245.965 243.725 247.736C245.496 249.507 246.381 251.693 246.381 254.296ZM243.981 254.296C243.981 252.291 243.32 250.616 241.997 249.272C240.675 247.928 239.032 247.256 237.069 247.256C235.128 247.256 233.485 247.928 232.141 249.272C230.797 250.595 230.125 252.227 230.125 254.168C230.125 256.195 230.787 257.88 232.109 259.224C233.432 260.568 235.096 261.24 237.101 261.24C239.043 261.24 240.675 260.579 241.997 259.256C243.32 257.912 243.981 256.259 243.981 254.296ZM256.738 247.416C253.431 247.736 251.778 249.528 251.778 252.792V263H249.41V245.496H251.778V247.992C252.247 247.032 252.876 246.328 253.666 245.88C254.455 245.411 255.479 245.144 256.738 245.08V247.416ZM275.346 254.296C275.346 256.92 274.503 259.096 272.818 260.824C271.133 262.552 269.01 263.416 266.45 263.416C263.741 263.416 261.501 262.541 259.73 260.792C257.959 259.043 257.074 256.824 257.074 254.136C257.074 251.576 257.949 249.432 259.698 247.704C261.469 245.955 263.655 245.08 266.258 245.08C268.882 245.08 271.047 245.955 272.754 247.704C274.482 249.432 275.346 251.629 275.346 254.296ZM272.946 254.328C272.946 252.301 272.306 250.616 271.026 249.272C269.767 247.928 268.178 247.256 266.258 247.256C264.317 247.256 262.695 247.917 261.394 249.24C260.114 250.563 259.474 252.216 259.474 254.2C259.474 256.248 260.125 257.933 261.426 259.256C262.727 260.579 264.381 261.24 266.386 261.24C268.285 261.24 269.853 260.589 271.09 259.288C272.327 257.987 272.946 256.333 272.946 254.328ZM280.859 261.784C280.859 264.28 280.368 266.104 279.387 267.256C278.427 268.429 276.944 269.059 274.939 269.144V266.872C276.261 266.787 277.179 266.371 277.691 265.624C278.224 264.877 278.491 263.597 278.491 261.784V245.496H280.859V261.784ZM280.859 243.576H278.491V239.544H280.859V243.576ZM302.111 255.032H286.271C286.356 256.76 287.06 258.232 288.383 259.448C289.727 260.643 291.295 261.24 293.087 261.24C294.409 261.24 295.636 260.877 296.767 260.152C297.897 259.405 298.708 258.435 299.199 257.24H301.663C301.087 258.968 299.999 260.429 298.399 261.624C296.82 262.819 295.071 263.416 293.151 263.416C290.569 263.416 288.383 262.531 286.591 260.76C284.799 258.968 283.903 256.771 283.903 254.168C283.903 251.629 284.777 249.485 286.527 247.736C288.297 245.965 290.452 245.08 292.991 245.08C295.636 245.08 297.812 245.987 299.519 247.8C301.247 249.592 302.111 252.003 302.111 255.032ZM299.743 252.888C299.337 251.139 298.527 249.763 297.311 248.76C296.116 247.757 294.665 247.256 292.959 247.256C291.295 247.256 289.855 247.779 288.639 248.824C287.423 249.848 286.655 251.203 286.335 252.888H299.743ZM322.507 257.848C320.545 261.56 317.686 263.416 313.931 263.416C311.243 263.416 308.982 262.531 307.147 260.76C305.313 258.989 304.395 256.803 304.395 254.2C304.395 251.661 305.302 249.507 307.115 247.736C308.929 245.965 311.147 245.08 313.771 245.08C315.734 245.08 317.494 245.603 319.051 246.648C320.63 247.672 321.771 249.059 322.475 250.808H319.819C318.433 248.44 316.406 247.256 313.739 247.256C311.798 247.256 310.155 247.939 308.811 249.304C307.467 250.648 306.795 252.301 306.795 254.264C306.795 256.205 307.478 257.859 308.843 259.224C310.209 260.568 311.873 261.24 313.835 261.24C315.073 261.24 316.15 260.984 317.067 260.472C317.985 259.939 318.902 259.064 319.819 257.848H322.507ZM333.914 247.64H329.978V263H327.61V247.64H323.834V245.496H327.61V239.352H329.978V245.496H333.914V247.64ZM342.07 258.968L339.254 265.144H336.886L339.702 258.968H342.07ZM371.564 254.296C371.564 256.856 370.668 259.021 368.876 260.792C367.084 262.541 364.886 263.416 362.284 263.416C359.297 263.416 357.025 262.275 355.468 259.992V269.144H353.1V245.496H355.468V248.504C356.982 246.221 359.276 245.08 362.348 245.08C364.95 245.08 367.137 245.965 368.908 247.736C370.678 249.507 371.564 251.693 371.564 254.296ZM369.164 254.296C369.164 252.291 368.502 250.616 367.18 249.272C365.857 247.928 364.214 247.256 362.252 247.256C360.31 247.256 358.668 247.928 357.324 249.272C355.98 250.595 355.308 252.227 355.308 254.168C355.308 256.195 355.969 257.88 357.292 259.224C358.614 260.568 360.278 261.24 362.284 261.24C364.225 261.24 365.857 260.579 367.18 259.256C368.502 257.912 369.164 256.259 369.164 254.296ZM381.92 247.416C378.614 247.736 376.96 249.528 376.96 252.792V263H374.592V245.496H376.96V247.992C377.43 247.032 378.059 246.328 378.848 245.88C379.638 245.411 380.662 245.144 381.92 245.08V247.416ZM400.529 254.296C400.529 256.92 399.686 259.096 398.001 260.824C396.315 262.552 394.193 263.416 391.633 263.416C388.923 263.416 386.683 262.541 384.913 260.792C383.142 259.043 382.257 256.824 382.257 254.136C382.257 251.576 383.131 249.432 384.881 247.704C386.651 245.955 388.838 245.08 391.441 245.08C394.065 245.08 396.23 245.955 397.937 247.704C399.665 249.432 400.529 251.629 400.529 254.296ZM398.129 254.328C398.129 252.301 397.489 250.616 396.209 249.272C394.95 247.928 393.361 247.256 391.441 247.256C389.499 247.256 387.878 247.917 386.577 249.24C385.297 250.563 384.657 252.216 384.657 254.2C384.657 256.248 385.307 257.933 386.609 259.256C387.91 260.579 389.563 261.24 391.569 261.24C393.467 261.24 395.035 260.589 396.273 259.288C397.51 257.987 398.129 256.333 398.129 254.328ZM429.561 263H427.193V252.856C427.193 249.101 425.647 247.224 422.553 247.224C421.081 247.224 419.908 247.693 419.033 248.632C418.18 249.549 417.753 250.957 417.753 252.856V263H415.385V252.792C415.385 250.936 414.948 249.549 414.073 248.632C413.22 247.715 412.079 247.256 410.649 247.256C409.177 247.256 408.025 247.747 407.193 248.728C406.361 249.688 405.945 251.043 405.945 252.792V263H403.577V245.496H405.945V247.512C406.607 246.637 407.311 246.019 408.057 245.656C408.825 245.272 409.764 245.08 410.873 245.08C412.175 245.08 413.284 245.347 414.201 245.88C415.119 246.413 415.919 247.267 416.601 248.44C418.031 246.179 420.057 245.048 422.681 245.048C424.751 245.048 426.415 245.699 427.673 247C428.932 248.28 429.561 250.147 429.561 252.6V263ZM450.888 254.296C450.888 256.92 450.046 259.096 448.36 260.824C446.675 262.552 444.552 263.416 441.992 263.416C439.283 263.416 437.043 262.541 435.272 260.792C433.502 259.043 432.616 256.824 432.616 254.136C432.616 251.576 433.491 249.432 435.24 247.704C437.011 245.955 439.198 245.08 441.8 245.08C444.424 245.08 446.59 245.955 448.296 247.704C450.024 249.432 450.888 251.629 450.888 254.296ZM448.488 254.328C448.488 252.301 447.848 250.616 446.568 249.272C445.31 247.928 443.72 247.256 441.8 247.256C439.859 247.256 438.238 247.917 436.936 249.24C435.656 250.563 435.016 252.216 435.016 254.2C435.016 256.248 435.667 257.933 436.968 259.256C438.27 260.579 439.923 261.24 441.928 261.24C443.827 261.24 445.395 260.589 446.632 259.288C447.87 257.987 448.488 256.333 448.488 254.328ZM461.76 247.64H457.824V263H455.456V247.64H451.68V245.496H455.456V239.352H457.824V245.496H461.76V247.64ZM480.56 255.032H464.72C464.805 256.76 465.509 258.232 466.832 259.448C468.176 260.643 469.744 261.24 471.536 261.24C472.858 261.24 474.085 260.877 475.216 260.152C476.346 259.405 477.157 258.435 477.648 257.24H480.112C479.536 258.968 478.448 260.429 476.848 261.624C475.269 262.819 473.52 263.416 471.6 263.416C469.018 263.416 466.832 262.531 465.04 260.76C463.248 258.968 462.352 256.771 462.352 254.168C462.352 251.629 463.226 249.485 464.976 247.736C466.746 245.965 468.901 245.08 471.44 245.08C474.085 245.08 476.261 245.987 477.968 247.8C479.696 249.592 480.56 252.003 480.56 255.032ZM478.192 252.888C477.786 251.139 476.976 249.763 475.76 248.76C474.565 247.757 473.114 247.256 471.408 247.256C469.744 247.256 468.304 247.779 467.088 248.824C465.872 249.848 465.104 251.203 464.784 252.888H478.192ZM494.439 263H492.071V245.496H494.439V263ZM494.439 243.576H492.071V239.544H494.439V243.576ZM506.605 247.64H502.669V263H500.301V247.64H496.525V245.496H500.301V239.352H502.669V245.496H506.605V247.64ZM535.06 263H532.692V259.928C531.753 261.187 530.761 262.083 529.716 262.616C528.692 263.149 527.433 263.416 525.94 263.416C523.252 263.416 521.012 262.552 519.22 260.824C517.449 259.075 516.564 256.899 516.564 254.296C516.564 251.672 517.439 249.485 519.188 247.736C520.959 245.965 523.156 245.08 525.78 245.08C528.724 245.08 531.028 246.253 532.692 248.6V245.496H535.06V263ZM532.692 254.168C532.692 252.227 532.031 250.595 530.708 249.272C529.385 247.928 527.764 247.256 525.844 247.256C523.945 247.256 522.324 247.928 520.98 249.272C519.636 250.616 518.964 252.237 518.964 254.136C518.964 256.141 519.636 257.827 520.98 259.192C522.324 260.557 523.988 261.24 525.972 261.24C527.849 261.24 529.439 260.557 530.74 259.192C532.041 257.827 532.692 256.152 532.692 254.168ZM554.248 263H551.88V253.816C551.88 249.443 550.077 247.256 546.472 247.256C544.808 247.256 543.496 247.757 542.536 248.76C541.597 249.763 541.128 251.299 541.128 253.368V263H538.76V245.496H541.128V247.768C542.6 245.976 544.477 245.08 546.76 245.08C549.064 245.08 550.888 245.805 552.232 247.256C553.576 248.685 554.248 250.872 554.248 253.816V263ZM575.859 263H573.491V259.832C572.616 261.091 571.646 262.008 570.579 262.584C569.534 263.139 568.286 263.416 566.835 263.416C564.126 263.416 561.854 262.541 560.019 260.792C558.206 259.043 557.299 256.867 557.299 254.264C557.299 251.661 558.184 249.485 559.955 247.736C561.747 245.965 563.966 245.08 566.611 245.08C569.427 245.08 571.72 246.147 573.491 248.28V239.352H575.859V263ZM571.571 259.16C572.915 257.773 573.587 256.12 573.587 254.2C573.587 252.28 572.894 250.648 571.507 249.304C570.142 247.939 568.488 247.256 566.547 247.256C564.648 247.256 563.027 247.928 561.683 249.272C560.36 250.616 559.699 252.248 559.699 254.168C559.699 256.173 560.371 257.859 561.715 259.224C563.08 260.568 564.766 261.24 566.771 261.24C568.648 261.24 570.248 260.547 571.571 259.16ZM90.344 294.416C87.0373 294.736 85.384 296.528 85.384 299.792V310H83.016V292.496H85.384V294.992C85.8533 294.032 86.4827 293.328 87.272 292.88C88.0613 292.411 89.0853 292.144 90.344 292.08V294.416ZM109.176 310H106.808V306.928C105.87 308.187 104.878 309.083 103.832 309.616C102.808 310.149 101.55 310.416 100.056 310.416C97.3683 310.416 95.1283 309.552 93.3363 307.824C91.5656 306.075 90.6803 303.899 90.6803 301.296C90.6803 298.672 91.5549 296.485 93.3043 294.736C95.0749 292.965 97.2723 292.08 99.8963 292.08C102.84 292.08 105.144 293.253 106.808 295.6V292.496H109.176V310ZM106.808 301.168C106.808 299.227 106.147 297.595 104.824 296.272C103.502 294.928 101.88 294.256 99.9603 294.256C98.0616 294.256 96.4403 294.928 95.0963 296.272C93.7523 297.616 93.0803 299.237 93.0803 301.136C93.0803 303.141 93.7523 304.827 95.0963 306.192C96.4403 307.557 98.1043 308.24 100.088 308.24C101.966 308.24 103.555 307.557 104.856 306.192C106.158 304.827 106.808 303.152 106.808 301.168ZM115.244 310H112.876V292.496H115.244V310ZM115.244 290.576H112.876V286.544H115.244V290.576ZM128.498 304.976C128.498 306.576 127.997 307.888 126.994 308.912C126.013 309.915 124.733 310.416 123.154 310.416C121.469 310.416 120.104 309.915 119.058 308.912C118.034 307.888 117.522 306.533 117.522 304.848H119.858C119.858 305.893 120.157 306.725 120.754 307.344C121.373 307.941 122.173 308.24 123.154 308.24C124.008 308.24 124.712 307.952 125.266 307.376C125.821 306.8 126.098 306.075 126.098 305.2C126.098 304.347 125.864 303.707 125.394 303.28C124.946 302.853 124.05 302.373 122.706 301.84C121.469 301.349 120.701 301.029 120.402 300.88C120.125 300.731 119.816 300.485 119.474 300.144C118.6 299.333 118.162 298.288 118.162 297.008C118.162 295.579 118.632 294.405 119.57 293.488C120.509 292.549 121.693 292.08 123.122 292.08C124.552 292.08 125.725 292.528 126.642 293.424C127.581 294.299 128.05 295.429 128.05 296.816H125.65C125.65 296.005 125.416 295.376 124.946 294.928C124.498 294.48 123.88 294.256 123.09 294.256C122.386 294.256 121.789 294.501 121.298 294.992C120.808 295.483 120.562 296.08 120.562 296.784C120.562 297.787 121.096 298.555 122.162 299.088C122.589 299.301 123.688 299.771 125.458 300.496C127.485 301.349 128.498 302.843 128.498 304.976ZM148.585 302.032H132.745C132.83 303.76 133.534 305.232 134.857 306.448C136.201 307.643 137.769 308.24 139.561 308.24C140.883 308.24 142.11 307.877 143.241 307.152C144.371 306.405 145.182 305.435 145.673 304.24H148.137C147.561 305.968 146.473 307.429 144.873 308.624C143.294 309.819 141.545 310.416 139.625 310.416C137.043 310.416 134.857 309.531 133.065 307.76C131.273 305.968 130.377 303.771 130.377 301.168C130.377 298.629 131.251 296.485 133.001 294.736C134.771 292.965 136.926 292.08 139.465 292.08C142.11 292.08 144.286 292.987 145.993 294.8C147.721 296.592 148.585 299.003 148.585 302.032ZM146.217 299.888C145.811 298.139 145.001 296.763 143.785 295.76C142.59 294.757 141.139 294.256 139.433 294.256C137.769 294.256 136.329 294.779 135.113 295.824C133.897 296.848 133.129 298.203 132.809 299.888H146.217ZM177.984 310H175.616V306.832C174.741 308.091 173.771 309.008 172.704 309.584C171.659 310.139 170.411 310.416 168.96 310.416C166.251 310.416 163.979 309.541 162.144 307.792C160.331 306.043 159.424 303.867 159.424 301.264C159.424 298.661 160.309 296.485 162.08 294.736C163.872 292.965 166.091 292.08 168.736 292.08C171.552 292.08 173.845 293.147 175.616 295.28V286.352H177.984V310ZM173.696 306.16C175.04 304.773 175.712 303.12 175.712 301.2C175.712 299.28 175.019 297.648 173.632 296.304C172.267 294.939 170.613 294.256 168.672 294.256C166.773 294.256 165.152 294.928 163.808 296.272C162.485 297.616 161.824 299.248 161.824 301.168C161.824 303.173 162.496 304.859 163.84 306.224C165.205 307.568 166.891 308.24 168.896 308.24C170.773 308.24 172.373 307.547 173.696 306.16ZM199.282 301.296C199.282 303.92 198.44 306.096 196.754 307.824C195.069 309.552 192.946 310.416 190.386 310.416C187.677 310.416 185.437 309.541 183.666 307.792C181.896 306.043 181.01 303.824 181.01 301.136C181.01 298.576 181.885 296.432 183.634 294.704C185.405 292.955 187.592 292.08 190.194 292.08C192.818 292.08 194.984 292.955 196.69 294.704C198.418 296.432 199.282 298.629 199.282 301.296ZM196.882 301.328C196.882 299.301 196.242 297.616 194.962 296.272C193.704 294.928 192.114 294.256 190.194 294.256C188.253 294.256 186.632 294.917 185.33 296.24C184.05 297.563 183.41 299.216 183.41 301.2C183.41 303.248 184.061 304.933 185.362 306.256C186.664 307.579 188.317 308.24 190.322 308.24C192.221 308.24 193.789 307.589 195.026 306.288C196.264 304.987 196.882 303.333 196.882 301.328ZM217.819 310H215.451V300.816C215.451 296.443 213.648 294.256 210.043 294.256C208.379 294.256 207.067 294.757 206.107 295.76C205.168 296.763 204.699 298.299 204.699 300.368V310H202.331V292.496H204.699V294.768C206.171 292.976 208.048 292.08 210.331 292.08C212.635 292.08 214.459 292.805 215.803 294.256C217.147 295.685 217.819 297.872 217.819 300.816V310ZM239.366 310H236.998V306.928C236.06 308.187 235.068 309.083 234.022 309.616C232.998 310.149 231.74 310.416 230.246 310.416C227.558 310.416 225.318 309.552 223.526 307.824C221.756 306.075 220.87 303.899 220.87 301.296C220.87 298.672 221.745 296.485 223.494 294.736C225.265 292.965 227.462 292.08 230.086 292.08C233.03 292.08 235.334 293.253 236.998 295.6V292.496H239.366V310ZM236.998 301.168C236.998 299.227 236.337 297.595 235.014 296.272C233.692 294.928 232.07 294.256 230.15 294.256C228.252 294.256 226.63 294.928 225.286 296.272C223.942 297.616 223.27 299.237 223.27 301.136C223.27 303.141 223.942 304.827 225.286 306.192C226.63 307.557 228.294 308.24 230.278 308.24C232.156 308.24 233.745 307.557 235.046 306.192C236.348 304.827 236.998 303.152 236.998 301.168ZM251.514 294.64H247.578V310H245.21V294.64H241.434V292.496H245.21V286.352H247.578V292.496H251.514V294.64ZM255.958 310H253.59V292.496H255.958V310ZM255.958 290.576H253.59V286.544H255.958V290.576ZM277.276 301.296C277.276 303.92 276.433 306.096 274.748 307.824C273.063 309.552 270.94 310.416 268.38 310.416C265.671 310.416 263.431 309.541 261.66 307.792C259.889 306.043 259.004 303.824 259.004 301.136C259.004 298.576 259.879 296.432 261.628 294.704C263.399 292.955 265.585 292.08 268.188 292.08C270.812 292.08 272.977 292.955 274.684 294.704C276.412 296.432 277.276 298.629 277.276 301.296ZM274.876 301.328C274.876 299.301 274.236 297.616 272.956 296.272C271.697 294.928 270.108 294.256 268.188 294.256C266.247 294.256 264.625 294.917 263.324 296.24C262.044 297.563 261.404 299.216 261.404 301.2C261.404 303.248 262.055 304.933 263.356 306.256C264.657 307.579 266.311 308.24 268.316 308.24C270.215 308.24 271.783 307.589 273.02 306.288C274.257 304.987 274.876 303.333 274.876 301.328ZM295.813 310H293.445V300.816C293.445 296.443 291.642 294.256 288.037 294.256C286.373 294.256 285.061 294.757 284.101 295.76C283.162 296.763 282.693 298.299 282.693 300.368V310H280.325V292.496H282.693V294.768C284.165 292.976 286.042 292.08 288.325 292.08C290.629 292.08 292.453 292.805 293.797 294.256C295.141 295.685 295.813 297.872 295.813 300.816V310ZM309.072 304.976C309.072 306.576 308.571 307.888 307.568 308.912C306.587 309.915 305.307 310.416 303.728 310.416C302.043 310.416 300.677 309.915 299.632 308.912C298.608 307.888 298.096 306.533 298.096 304.848H300.432C300.432 305.893 300.731 306.725 301.328 307.344C301.947 307.941 302.747 308.24 303.728 308.24C304.581 308.24 305.285 307.952 305.84 307.376C306.395 306.8 306.672 306.075 306.672 305.2C306.672 304.347 306.437 303.707 305.968 303.28C305.52 302.853 304.624 302.373 303.28 301.84C302.043 301.349 301.275 301.029 300.976 300.88C300.699 300.731 300.389 300.485 300.048 300.144C299.173 299.333 298.736 298.288 298.736 297.008C298.736 295.579 299.205 294.405 300.144 293.488C301.083 292.549 302.267 292.08 303.696 292.08C305.125 292.08 306.299 292.528 307.216 293.424C308.155 294.299 308.624 295.429 308.624 296.816H306.224C306.224 296.005 305.989 295.376 305.52 294.928C305.072 294.48 304.453 294.256 303.664 294.256C302.96 294.256 302.363 294.501 301.872 294.992C301.381 295.483 301.136 296.08 301.136 296.784C301.136 297.787 301.669 298.555 302.736 299.088C303.163 299.301 304.261 299.771 306.032 300.496C308.059 301.349 309.072 302.843 309.072 304.976Z" fill="white"/>
<path d="M-174.735 -35.9756C-174.735 -35.9756 -211.254 -20.6602 -201.57 24.7177L-116.962 80.2693C-116.962 80.2693 -108.514 99.6128 -89.9748 111.565C-71.4353 123.517 -21.3767 155.989 -21.3767 155.989C-21.3767 155.989 -9.91113 160.757 -5.568 150.648C-1.22486 140.539 -9.41171 131.749 -9.41171 131.749L-47.852 105.78C-47.852 105.78 -9.70265 80.9952 33.1291 90.038C33.1291 90.038 28.6709 65.2653 4.65556 48.0127C4.65556 48.0127 -11.7258 38.072 -82.9626 23.2711L-174.735 -35.9756Z" fill="#FED670" stroke="#020202" stroke-width="2.51564" stroke-miterlimit="10"/>
<path d="M7.20825 95.0804L14.596 106.069L14.2699 105.988L6.88209 94.9998L7.20825 95.0804Z" fill="#3B2780"/>
<path d="M8.84029 95.6617L16.1794 106.549L14.5309 105.94L7.19171 95.0531L8.84029 95.6617Z" fill="#3B2780"/>
<path d="M24.2423 107.554L31.4586 118.195C27.8746 113.513 23.3431 109.778 18.3301 107.375C17.4487 106.946 16.5499 106.576 15.6655 106.179L8.44922 95.5371C9.33367 95.9336 10.2325 96.3036 11.1139 96.7326C16.127 99.1358 20.6584 102.871 24.2423 107.554Z" fill="#3D2885"/>
<path d="M24.2423 107.554L31.4586 118.195C27.8746 113.513 23.3431 109.778 18.3301 107.375C17.4487 106.946 16.5499 106.576 15.6655 106.179L8.44922 95.5371C9.33367 95.9336 10.2325 96.3036 11.1139 96.7326C16.127 99.1358 20.6584 102.871 24.2423 107.554Z" fill="#3D2885"/>
<path d="M7.046 95.9861L14.3171 106.564C12.737 106.167 11.1736 105.666 9.57868 105.386C6.15568 104.782 2.75035 104.69 -0.538587 105.111L-7.80985 94.5341C-4.52101 94.112 -1.11551 94.2045 2.30752 94.8087C3.90262 95.0883 5.4659 95.5889 7.046 95.9861Z" fill="#3D2885"/>
<path d="M-7.74643 95.4022L-0.36094 106.339C-1.84447 106.531 -3.3017 106.821 -4.72498 107.209L-12.1102 96.2707C-10.687 95.8832 -9.22995 95.5933 -7.74643 95.4022Z" fill="#3F2A8A"/>
<path d="M18.001 112.056L25.1935 122.272C21.6553 118.463 17.3415 115.582 12.7185 113.943C12.3429 113.809 11.9636 113.682 11.5807 113.562C7.75273 112.39 3.8645 112.033 0.160294 112.516L-7.03218 102.299C-3.32803 101.817 0.560226 102.173 4.38814 103.346C4.77122 103.465 5.15053 103.592 5.52603 103.726C10.1489 105.366 14.4625 108.247 18.001 112.056Z" fill="#858585"/>
<path d="M-6.92745 103.099L0.458762 114.048C-0.739876 114.203 -1.9171 114.438 -3.06682 114.753L-10.4531 103.803C-9.30319 103.489 -8.12595 103.254 -6.92745 103.099Z" fill="#8A8A8A"/>
<path d="M19.9517 109.831L27.3655 120.859C26.5517 121.276 25.7368 121.7 24.9204 122.103L17.5068 111.075C18.3252 110.673 19.1381 110.248 19.9511 109.83" fill="#949494"/>
<path d="M24.2423 107.554L31.4586 118.195C27.8746 113.513 23.3431 109.778 18.3301 107.375C17.4487 106.946 16.5499 106.576 15.6655 106.179L8.44922 95.5371C9.33367 95.9336 10.2325 96.3036 11.1139 96.7326C16.127 99.1358 20.6584 102.871 24.2423 107.554Z" fill="#3D2885"/>
<path d="M8.22417 98.8297C9.13449 99.2502 10.0595 99.6432 10.9668 100.097C16.092 102.623 20.7381 106.506 24.4365 111.353L20.73 113.406C19.9117 113.827 19.0907 114.255 18.2697 114.662C14.5982 110.514 10.1213 107.381 5.32269 105.599C4.93282 105.453 4.53914 105.315 4.14158 105.185C-7.93411 101.234 -20.8591 106.157 -27.1708 117.153C-31.0851 123.968 -32.1352 131.445 -30.404 139.51C-30.3979 139.557 -30.4015 139.604 -30.4147 139.646C-30.4278 139.688 -30.4502 139.724 -30.48 139.753C-32.5347 140.821 -34.5964 141.884 -36.6651 142.942C-36.8218 142.676 -36.9342 142.387 -36.9958 142.091C-39.0483 133.915 -38.6729 125.657 -35.9278 118.601C-30.1337 102.893 -14.8106 93.9687 1.34947 96.8937C2.98803 97.1853 4.59373 97.7098 6.21678 98.1252L6.54597 98.2071L8.22417 98.8297Z" fill="#CDCDCD"/>
<path d="M23.6496 107.327L31.0667 118.373L27.3817 120.41L19.9645 109.363L23.6496 107.327Z" fill="#A4A4A4"/>
<path d="M24.2423 107.554L31.4586 118.195C27.8746 113.513 23.3431 109.778 18.3301 107.375C17.4487 106.946 16.5499 106.576 15.6655 106.179L8.44922 95.5371C9.33367 95.9336 10.2325 96.3036 11.1139 96.7326C16.127 99.1358 20.6584 102.871 24.2423 107.554Z" fill="#CDCDCD"/>
<path d="M-4.15972 136.679L3.2839 147.76C-6.96248 153.001 -17.2053 158.253 -27.4445 163.516L-34.8882 152.436C-24.6482 147.171 -14.4054 141.919 -4.15985 136.68" fill="#442D94"/>
<path d="M-3.3602 134.385L4.0295 145.371C3.87004 145.317 3.70748 145.3 3.55268 145.321L-3.83715 134.336C-3.68242 134.314 -3.51974 134.331 -3.3602 134.385Z" fill="#3D2885"/>
<path d="M-3.83316 134.358L3.56622 145.365C3.52116 145.371 3.47698 145.38 3.43391 145.393L-3.96538 134.385C-3.92226 134.373 -3.87804 134.363 -3.83303 134.357" fill="#3F2A8A"/>
<path d="M-3.9643 134.398L3.43587 145.408C3.40139 145.418 3.36805 145.429 3.33512 145.442L-4.065 134.432C-4.03208 134.419 -3.99878 134.408 -3.9643 134.398Z" fill="#422B8F"/>
<path d="M-4.06618 134.441L3.33435 145.452C3.31761 145.458 3.30056 145.466 3.28424 145.474L-4.11628 134.463C-4.09997 134.455 -4.08305 134.448 -4.06618 134.441Z" fill="#442D94"/>
<path d="M20.5216 119.911L27.9319 130.933L27.9098 130.948C27.7696 131.039 27.6335 131.136 27.5018 131.238L20.0915 120.216C20.2232 120.114 20.3593 120.017 20.4994 119.926L20.5216 119.911Z" fill="#49309E"/>
<path d="M18.0384 123.125L25.5163 134.263C25.4164 134.501 25.3299 134.747 25.2571 135C25.1727 135.295 25.108 135.599 25.0632 135.91L17.5854 124.771C17.6301 124.46 17.6948 124.157 17.7791 123.862C17.8516 123.609 17.9382 123.363 18.0384 123.125Z" fill="#5739BD"/>
<path d="M24.6187 118.634L32.0043 129.575C31.4241 129.483 30.848 129.474 30.2907 129.548L22.9051 118.607C23.4623 118.532 24.0385 118.541 24.6187 118.634Z" fill="#3D2885"/>
<path d="M22.9189 118.725L30.3266 129.719C30.0618 129.754 29.8017 129.806 29.5477 129.876L22.1399 118.882C22.3943 118.812 22.6546 118.76 22.9196 118.725" fill="#3F2A8A"/>
<path d="M22.145 118.968L29.5577 129.973C29.3513 130.029 29.1486 130.097 28.9496 130.176L21.5368 119.171C21.736 119.091 21.9385 119.023 22.1442 118.968" fill="#422B8F"/>
<path d="M21.537 119.247L28.9528 130.259C28.7771 130.329 28.6046 130.408 28.4353 130.495L21.0194 119.483C21.1887 119.392 21.361 119.317 21.537 119.247Z" fill="#442D94"/>
<path d="M21.0148 119.557L28.4332 130.575C28.2683 130.662 28.1055 130.756 27.9448 130.856L20.5265 119.838C20.6853 119.735 20.8481 119.641 21.0149 119.557" fill="#462E99"/>
<path d="M20.517 119.911L27.9374 130.934L27.9153 130.949C27.7751 131.04 27.6391 131.136 27.5074 131.238L20.0869 120.216C20.2186 120.114 20.3547 120.017 20.4947 119.927L20.517 119.911Z" fill="#49309E"/>
<path d="M20.0789 120.285L27.5016 131.312C27.3637 131.42 27.2306 131.534 27.1023 131.652L19.6796 120.625C19.8081 120.506 19.9412 120.392 20.0789 120.285Z" fill="#4B31A3"/>
<path d="M19.6654 120.692L27.0906 131.725C26.9579 131.848 26.8316 131.978 26.7103 132.113L19.2851 121.08C19.4065 120.945 19.5328 120.815 19.6654 120.692Z" fill="#4D33A8"/>
<path d="M19.2678 121.15L26.6961 132.189C26.567 132.334 26.4448 132.484 26.3295 132.641L18.9014 121.601C19.0168 121.445 19.1389 121.294 19.2678 121.15Z" fill="#5034AD"/>
<path d="M18.8774 121.673L26.3101 132.722C26.179 132.897 26.059 133.081 25.9499 133.272L18.5181 122.221C18.6289 122.032 18.749 121.848 18.8784 121.672" fill="#5236B3"/>
<path d="M18.4849 122.3L25.9255 133.366C25.7896 133.601 25.6677 133.846 25.5603 134.101L18.1195 123.035C18.2265 122.78 18.3485 122.534 18.4849 122.3Z" fill="#5437B8"/>
<path d="M18.0384 123.123L25.5169 134.262C25.417 134.5 25.3305 134.745 25.2577 134.999C25.1733 135.293 25.1085 135.597 25.0638 135.909L17.5854 124.769C17.6301 124.458 17.6948 124.155 17.7792 123.861C17.8516 123.607 17.9382 123.361 18.0384 123.123Z" fill="#5739BD"/>
<path d="M28.9723 121.37L36.2714 132.181C36.0805 131.898 35.8699 131.63 35.6418 131.381C34.8925 130.567 33.9881 129.954 33.0216 129.606C32.6253 129.461 32.223 129.357 31.8206 129.297L24.5215 118.487C24.9239 118.547 25.3262 118.65 25.7225 118.795C26.6889 119.143 27.5931 119.756 28.3427 120.569C28.5706 120.819 28.7812 121.087 28.9723 121.37Z" fill="#3D2885"/>
<path d="M18.0365 123.123L25.5183 134.262C25.4184 134.5 25.332 134.746 25.2593 134.999C25.1749 135.293 25.1102 135.597 25.0655 135.909L17.5838 124.769C17.6285 124.458 17.6931 124.154 17.7774 123.86C17.8498 123.607 17.9363 123.361 18.0365 123.123Z" fill="#5739BD"/>
<path d="M17.5488 124.91L24.9852 135.961C24.9624 136.119 24.9452 136.277 24.9336 136.436L17.497 125.387C17.5086 125.227 17.5259 125.068 17.5488 124.91Z" fill="#593BC2"/>
<path d="M17.4092 125.427L24.8786 136.542C24.8478 136.946 24.8521 137.358 24.8915 137.774C24.9101 137.949 24.9336 138.123 24.9617 138.296L17.4924 127.18C17.4619 127.01 17.439 126.832 17.4222 126.657C17.3829 126.242 17.3785 125.83 17.4092 125.427Z" fill="#5739BD"/>
<path d="M17.4141 125.428L24.8781 136.542C24.8472 136.946 24.8513 137.359 24.8905 137.775C24.9091 137.95 24.9325 138.124 24.9605 138.296L17.4966 127.181C17.4662 127.012 17.4434 126.834 17.4267 126.659C17.3875 126.243 17.3832 125.831 17.4141 125.428Z" fill="#5739BD"/>
<path d="M28.9723 121.37L36.2714 132.181C36.0805 131.898 35.8699 131.63 35.6418 131.381C34.8925 130.567 33.9881 129.954 33.0216 129.606C32.6253 129.461 32.223 129.357 31.8206 129.297L24.5215 118.487C24.9239 118.547 25.3262 118.65 25.7225 118.795C26.6889 119.143 27.5931 119.756 28.3427 120.569C28.5706 120.819 28.7812 121.087 28.9723 121.37Z" fill="#3D2885"/>
<path d="M17.4121 125.428L24.879 136.543C24.8481 136.947 24.8523 137.359 24.8916 137.775C24.9103 137.95 24.9336 138.124 24.9618 138.297L17.495 127.181C17.4646 127.011 17.4417 126.833 17.425 126.659C17.3857 126.243 17.3813 125.831 17.4121 125.428Z" fill="#5739BD"/>
<path d="M17.4268 127.286L24.86 138.334C24.9078 138.614 24.9727 138.894 25.0545 139.17L17.6214 128.121C17.5397 127.845 17.4747 127.566 17.4268 127.286Z" fill="#5437B8"/>
<path d="M17.5703 128.163L24.9961 139.196C25.0626 139.42 25.1398 139.641 25.2274 139.858L17.8016 128.825C17.7137 128.607 17.6365 128.386 17.5703 128.163Z" fill="#5236B3"/>
<path d="M17.7588 128.844L25.1804 139.868C25.2531 140.049 25.3337 140.227 25.4208 140.403L25.4391 140.438L18.0173 129.415L17.9992 129.378C17.9121 129.203 17.8315 129.025 17.7588 128.844Z" fill="#5034AD"/>
<path d="M17.7656 128.844L25.1764 139.867C25.249 140.048 25.3294 140.227 25.4164 140.402L25.4346 140.438L18.0236 129.415L18.0056 129.379C17.9186 129.203 17.8382 129.025 17.7656 128.844Z" fill="#5034AD"/>
<path d="M28.9723 121.37L36.2714 132.181C36.0805 131.898 35.8699 131.63 35.6418 131.381C34.8925 130.567 33.9881 129.954 33.0216 129.606C32.6253 129.461 32.223 129.357 31.8206 129.297L24.5215 118.487C24.9239 118.547 25.3262 118.65 25.7225 118.795C26.6889 119.143 27.5931 119.756 28.3427 120.569C28.5706 120.819 28.7812 121.087 28.9723 121.37Z" fill="#3D2885"/>
<path d="M17.7656 128.844L25.1769 139.868C25.2495 140.049 25.3299 140.227 25.4169 140.403L25.4351 140.438L18.0236 129.415L18.0056 129.379C17.9187 129.203 17.8382 129.025 17.7656 128.844Z" fill="#5034AD"/>
<path d="M17.9844 129.429L25.3927 140.445C25.4806 140.619 25.5747 140.788 25.674 140.952L18.2659 129.935C18.1657 129.771 18.0717 129.602 17.9844 129.429Z" fill="#4D33A8"/>
<path d="M18.2383 129.942L25.644 140.954C25.7018 141.047 25.7601 141.137 25.8186 141.226L18.4127 130.215C18.3541 130.127 18.2961 130.035 18.2383 129.942Z" fill="#4B31A3"/>
<path d="M28.7803 121.173L36.1946 132.184C36.2532 132.273 36.3114 132.363 36.3693 132.456L28.9551 121.444C28.8991 121.352 28.8408 121.262 28.7803 121.173Z" fill="#A3A3A3"/>
<path d="M28.9229 121.444L36.3396 132.461C36.4406 132.627 36.5345 132.796 36.6212 132.969L29.2045 121.952C29.1171 121.779 29.0229 121.61 28.9229 121.444Z" fill="#A8A8A8"/>
<path d="M29.1626 121.959L36.5824 132.983C36.6761 133.168 36.7618 133.357 36.839 133.548L29.419 122.525C29.3421 122.332 29.2566 122.142 29.1631 121.956" fill="#ADADAD"/>
<path d="M29.3711 122.538L36.7953 133.571C36.8828 133.788 36.9596 134.008 37.0254 134.23L29.6012 123.198C29.5358 122.975 29.4589 122.755 29.3711 122.538Z" fill="#B3B3B3"/>
<path d="M29.5459 123.221L36.9775 134.269C37.06 134.548 37.1258 134.83 37.1742 135.113L29.7426 124.064C29.6943 123.782 29.6285 123.5 29.5459 123.221Z" fill="#B8B8B8"/>
<path d="M29.6396 124.103L37.1047 135.218C37.1343 135.387 37.1574 135.564 37.1741 135.739C37.2132 136.154 37.217 136.566 37.1853 136.97L29.7203 125.854C29.752 125.451 29.7483 125.038 29.7093 124.623C29.6924 124.449 29.6689 124.274 29.6396 124.103Z" fill="#BDBDBD"/>
<path d="M29.668 125.96L37.0989 137.007C37.088 137.156 37.0712 137.303 37.0509 137.449L29.62 126.402C29.6408 126.253 29.6571 126.108 29.668 125.96Z" fill="#C2C2C2"/>
<path d="M29.5385 126.452L37.017 137.593C36.9321 138.185 36.7769 138.751 36.5551 139.276L29.0764 128.135C29.2982 127.61 29.4535 127.044 29.5385 126.452Z" fill="#BDBDBD"/>
<path d="M29.0332 128.299L36.473 139.364C36.3653 139.62 36.2426 139.867 36.1056 140.102L28.6659 129.036C28.8029 128.801 28.9255 128.555 29.0332 128.299Z" fill="#B8B8B8"/>
<path d="M28.6412 129.13L36.0725 140.178C36.0228 140.264 35.9712 140.347 35.9177 140.433C35.8538 140.53 35.7868 140.626 35.7167 140.72L28.2854 129.671C28.3545 129.577 28.4215 129.482 28.4864 129.384C28.5394 129.301 28.5911 129.217 28.6412 129.13Z" fill="#B3B3B3"/>
<path d="M28.2676 129.751L35.695 140.79C35.5781 140.95 35.4546 141.103 35.3245 141.248L27.8971 130.208C28.0269 130.062 28.1504 129.91 28.2676 129.751Z" fill="#ADADAD"/>
<path d="M27.8804 130.283L35.3046 141.316C35.1806 141.452 35.0529 141.582 34.9214 141.707L27.4973 130.674C27.6301 130.55 27.7581 130.419 27.8804 130.283Z" fill="#A8A8A8"/>
<path d="M27.4891 130.749L34.9107 141.777C34.7816 141.897 34.6476 142.012 34.5088 142.12L27.0872 131.092C27.226 130.984 27.3599 130.87 27.4891 130.749Z" fill="#A3A3A3"/>
<path d="M27.0783 131.165L34.4978 142.188C34.3591 142.295 34.2164 142.397 34.0699 142.493L26.6504 131.47C26.7973 131.375 26.94 131.275 27.0783 131.165Z" fill="#9E9E9E"/>
<path d="M26.6438 131.542L34.061 142.56C33.9101 142.658 33.7549 142.748 33.5956 142.829L26.1785 131.811C26.338 131.729 26.4931 131.639 26.6438 131.542Z" fill="#999999"/>
<path d="M26.1782 131.888L33.593 142.9C33.4243 142.987 33.2515 143.066 33.0747 143.137L25.6599 132.124C25.8366 132.054 26.0098 131.974 26.1782 131.888Z" fill="#949494"/>
<path d="M25.6626 132.207L33.0743 143.213C32.8765 143.293 32.6749 143.36 32.4693 143.415L25.0576 132.41C25.264 132.353 25.4657 132.286 25.6626 132.207Z" fill="#8F8F8F"/>
<path d="M25.067 132.509L32.4735 143.503L32.4242 143.516C32.1769 143.582 31.9239 143.632 31.6665 143.666L24.26 132.672C24.5174 132.639 24.7704 132.589 25.0177 132.522L25.067 132.509Z" fill="#8A8A8A"/>
<path d="M24.4235 133.106L31.7283 143.815C30.7912 143.941 29.8038 143.825 28.8414 143.477C28.6497 143.404 28.4599 143.325 28.2727 143.235C27.23 142.74 26.2991 141.934 25.6027 140.924L18.2979 130.215C18.9945 131.226 19.9257 132.031 20.9686 132.526C21.1558 132.617 21.3456 132.697 21.5373 132.768C22.4997 133.116 23.4871 133.232 24.4242 133.106" fill="#858585"/>
<path d="M25.8652 119.299C26.8532 119.662 27.7783 120.297 28.5455 121.138C29.6045 122.317 30.272 123.833 30.4086 125.369C30.5424 126.994 30.1807 128.533 29.3812 129.74C28.5566 131.008 27.3503 131.895 25.9274 132.279C24.7529 132.61 23.4608 132.543 22.2027 132.086C22.0063 132.013 21.8118 131.929 21.62 131.835C20.2744 131.191 19.1231 130.032 18.4057 128.599C18.0001 127.778 17.7473 126.898 17.6647 126.019C17.5817 125.105 17.6617 124.212 17.9 123.389C18.346 121.88 19.2417 120.646 20.4593 119.863C21.6554 119.06 23.1193 118.749 24.6369 118.976C25.0483 119.041 25.4598 119.148 25.8652 119.299Z" fill="#CDCDCD"/>
<path d="M28.4726 144.86L35.4487 154.981C31.5723 153.69 27.6957 152.398 23.8188 151.105C17.1043 148.868 10.3881 146.636 3.67006 144.41L-3.30594 134.287C3.41224 136.513 10.1285 138.746 16.8427 140.984C20.72 142.276 24.5966 143.569 28.4726 144.86Z" fill="#3D2885"/>
<path d="M28.0769 143.916L35.5126 154.997L35.2686 155.849L27.8329 144.769L28.0769 143.916Z" fill="#CCCCCC"/>
<path d="M16.6069 143.728C20.5906 145.185 24.5737 146.642 28.556 148.099L28.3149 148.929C27.9705 149.875 27.6597 150.833 27.2692 151.761C23.3017 161.357 15.7776 168.269 6.29478 171.029C-0.211469 173.168 -7.48582 172.946 -14.5496 170.394C-14.9689 170.241 -15.3862 170.077 -15.8049 169.91C-24.2926 166.47 -30.732 160.463 -35.1562 152.061C-35.1655 151.995 -35.1613 151.929 -35.1438 151.869C-35.1264 151.809 -35.0961 151.757 -35.0553 151.715C-24.989 146.535 -14.9193 141.367 -4.84632 136.212C-4.62095 136.105 -4.356 136.092 -4.09576 136.177C2.80731 138.687 9.70819 141.204 16.6069 143.728Z" fill="#CDCDCD"/>
<path d="M27.7265 144.886L35.1996 156.079C34.8499 157.051 34.5339 158.041 34.1391 158.995L26.666 147.801C27.0608 146.847 27.377 145.857 27.7265 144.886Z" fill="#BDBDBD"/>
<path d="M26.4947 148.144L34.0021 159.391L33.9903 159.419C33.3023 161.052 32.5226 162.625 31.655 164.129L24.1476 152.882C25.0148 151.378 25.7944 149.805 26.4827 148.172L26.4947 148.144Z" fill="#B8B8B8"/>
<path d="M24.0205 153.359L31.4813 164.532C30.8253 165.664 30.1239 166.744 29.3772 167.772L21.9165 156.598C22.6632 155.572 23.3645 154.493 24.0205 153.359Z" fill="#B3B3B3"/>
<path d="M21.8315 157L29.2681 168.132C28.6298 169.007 27.9584 169.843 27.2538 170.639L19.8172 159.508C20.5221 158.712 21.1938 157.877 21.8322 157.001" fill="#ADADAD"/>
<path d="M19.7497 159.874L27.1707 170.976C26.5246 171.704 25.8503 172.397 25.1479 173.055L17.7268 161.953C18.4286 161.292 19.1029 160.599 19.7497 159.874Z" fill="#A8A8A8"/>
<path d="M17.6836 162.31L25.0935 173.39C24.4161 174.028 23.7126 174.633 22.9829 175.207L15.573 164.126C16.3031 163.553 17.0066 162.947 17.6836 162.31Z" fill="#A3A3A3"/>
<path d="M15.5394 164.482L22.9399 175.544C22.2048 176.122 21.4426 176.668 20.6536 177.181L13.253 166.12C14.0425 165.607 14.8047 165.061 15.5394 164.482Z" fill="#9E9E9E"/>
<path d="M13.2308 166.492L20.6221 177.534C19.7924 178.073 18.9331 178.576 18.0444 179.043L10.6531 168.001C11.5417 167.535 12.4009 167.032 13.2308 166.492Z" fill="#999999"/>
<path d="M10.6451 168.412L18.0259 179.432C17.0444 179.948 16.0266 180.419 14.9722 180.845L7.59128 169.826C8.64529 169.4 9.66321 168.928 10.6451 168.412Z" fill="#949494"/>
<path d="M7.60267 170.305L14.9696 181.292C14.0463 181.666 13.0952 182.005 12.1161 182.31C11.8007 182.41 11.4829 182.504 11.1629 182.592L3.79592 171.605C4.11351 171.517 4.43131 171.423 4.74918 171.323C5.72798 171.017 6.67913 170.678 7.60267 170.305Z" fill="#8F8F8F"/>
<path d="M3.83156 172.145L11.1796 183.087C9.75864 183.487 8.30407 183.789 6.82331 183.993L-0.524668 173.051C0.95594 172.847 2.41052 172.544 3.83156 172.145Z" fill="#8A8A8A"/>
<path d="M-0.0844269 174.646L7.08511 184.915C2.10125 185.597 -3.14925 185.008 -8.2561 183.194C-8.66904 183.048 -9.08105 182.894 -9.49204 182.732C-15.9999 180.316 -21.868 175.695 -26.103 169.651L-33.2725 159.382C-29.0377 165.426 -23.1695 170.048 -16.6615 172.463C-16.2496 172.626 -15.8384 172.78 -15.4258 172.926C-10.3188 174.739 -5.06837 175.328 -0.0844269 174.646Z" fill="#858585"/>
<path d="M39.2588 92.2783L46.3581 102.877C46.8797 103.656 47.3841 104.447 47.8711 105.25L40.7718 94.6511C40.2852 93.8489 39.7809 93.058 39.2588 92.2783Z" fill="#4B31A3"/>
<path d="M40.4932 94.6572L47.6081 105.29C48.4804 106.728 49.2952 108.202 50.0523 109.71L42.9374 99.0779C42.1803 97.5741 41.3656 96.1007 40.4932 94.6572Z" fill="#4D33A8"/>
<path d="M42.561 99.119L49.6969 109.794C50.5092 111.414 51.2518 113.065 51.9216 114.743L44.7869 104.066C44.117 102.388 43.3745 100.736 42.5622 99.1165" fill="#5034AD"/>
<path d="M44.3643 104.148L51.5282 114.876C52.2893 116.782 52.957 118.719 53.5282 120.674L46.3642 109.947C45.7926 107.991 45.1249 106.055 44.3643 104.148Z" fill="#5236B3"/>
<path d="M45.8613 110.086L53.0709 120.889C53.7766 123.308 54.3379 125.752 54.751 128.203L47.5414 117.399C47.1282 114.949 46.5668 112.505 45.8613 110.086Z" fill="#5437B8"/>
<path d="M46.6367 117.611L54.0563 128.663C55.0227 134.422 55.2203 140.167 54.6424 145.712L47.2226 134.662C47.8006 129.117 47.6032 123.37 46.6367 117.611Z" fill="#5739BD"/>
<path d="M46.7578 135.121L53.923 145.849C53.8612 146.462 53.7896 147.076 53.7081 147.689L46.5432 136.96C46.6241 136.347 46.6957 135.734 46.7578 135.121Z" fill="#593BC2"/>
<path d="M46.0116 137.225L53.5346 148.36C53.1238 151.41 52.4996 154.385 51.667 157.261C51.0099 159.539 50.2295 161.754 49.3294 163.896L41.8063 152.761C42.7065 150.62 43.4869 148.405 44.1439 146.126C44.9765 143.25 45.6007 140.275 46.0116 137.225Z" fill="#5739BD"/>
<path d="M41.5157 153.618L48.7888 164.511C47.8353 166.803 46.7479 169.006 45.5323 171.108L38.2593 160.215C39.4749 158.113 40.5623 155.909 41.5157 153.618Z" fill="#5437B8"/>
<path d="M38.0838 160.886L45.2998 171.699C44.3373 173.365 43.301 174.962 42.1909 176.49L34.9749 165.678C36.0846 164.152 37.122 162.555 38.0872 160.887" fill="#5236B3"/>
<path d="M34.8436 166.293L42.0297 177.058C41.0256 178.439 39.965 179.759 38.8479 181.019L31.6617 170.254C32.7768 168.995 33.8374 167.674 34.8436 166.293Z" fill="#5034AD"/>
<path d="M31.5631 170.853L38.728 181.581C37.6735 182.772 36.5724 183.906 35.4246 184.984L28.2599 174.255C29.4061 173.178 30.5071 172.044 31.5631 170.853Z" fill="#4D33A8"/>
<path d="M28.1866 174.852L35.3341 185.549C34.2152 186.602 33.0556 187.598 31.8556 188.538L24.708 177.841C25.9066 176.901 27.0661 175.905 28.1866 174.852Z" fill="#4B31A3"/>
<path d="M24.6558 178.446L31.7881 189.113C30.5854 190.055 29.3458 190.94 28.0691 191.766L20.9368 181.099C22.212 180.273 23.4516 179.388 24.6558 178.446Z" fill="#49309E"/>
<path d="M20.9047 181.722L28.0222 192.36C26.7098 193.209 25.3624 193.995 23.9801 194.717L16.8626 184.08C18.2438 183.358 19.5911 182.573 20.9047 181.722Z" fill="#462E99"/>
<path d="M16.8509 184.739L23.9527 195.343C22.477 196.112 20.9663 196.807 19.4206 197.427L12.3185 186.824C13.8631 186.205 15.3739 185.51 16.8509 184.739Z" fill="#442D94"/>
<path d="M12.334 187.548L19.4172 198.108C17.6881 198.801 15.9213 199.396 14.1168 199.892L7.03386 189.331C8.834 188.835 10.6007 188.241 12.334 187.548Z" fill="#422B8F"/>
<path d="M7.08494 190.17L14.1411 200.665C11.9598 201.264 9.72708 201.715 7.45427 202.014L0.398076 191.519C2.67093 191.22 4.9037 190.77 7.08494 190.17Z" fill="#3F2A8A"/>
<path d="M0.975169 193.89L7.84255 203.615C-0.0331627 204.647 -8.32934 203.717 -16.4135 200.896C-27.7912 196.864 -37.1672 189.425 -43.7127 180.154L-50.5801 170.429C-44.0345 179.7 -34.6592 187.142 -23.2809 191.17C-15.1968 193.992 -6.90044 194.923 0.975169 193.89Z" fill="#3D2885"/>
<path d="M12.643 76.5104C42.9803 87.8386 60.2471 122.638 51.2087 154.237C42.1703 185.837 10.2479 202.277 -20.0888 190.95C-50.4256 179.623 -67.6981 144.817 -58.6597 113.218C-49.6213 81.6185 -17.7001 65.1807 12.643 76.5104ZM-37.6127 143.124C-35.4591 142.028 -33.3862 140.963 -31.3253 139.893C-31.2954 139.864 -31.273 139.828 -31.2598 139.785C-31.2466 139.743 -31.243 139.696 -31.2491 139.649C-32.9847 131.561 -31.9329 124.066 -28.01 117.233C-21.6845 106.209 -8.73044 101.276 3.37379 105.238C3.77237 105.368 4.16703 105.506 4.55772 105.652C9.29544 107.367 13.7034 110.497 17.2506 114.663C18.2084 114.361 19.1284 113.966 20.0011 113.483L23.7808 111.542C20.0693 106.628 15.3865 102.693 10.214 100.14C9.30459 99.6841 8.37742 99.2899 7.46497 98.8681L5.78635 98.2411L5.45715 98.1588C3.83032 97.742 2.22081 97.2163 0.578452 96.9237C-15.6192 93.9885 -30.9769 102.935 -36.7833 118.683C-39.5342 125.758 -39.91 134.038 -37.8522 142.236C-37.7728 142.532 -37.6941 142.827 -37.609 143.124L-37.6127 143.124ZM30.3524 147.736L30.5975 146.878C26.5166 145.353 22.4355 143.829 18.3541 142.305C11.2854 139.665 4.21497 137.03 -2.85725 134.402C-3.12388 134.314 -3.39512 134.325 -3.62564 134.435C-13.931 139.724 -24.2318 145.023 -34.5279 150.333C-34.5694 150.376 -34.6 150.43 -34.6176 150.492C-34.6352 150.554 -34.6394 150.622 -34.6298 150.691C-30.083 159.398 -23.4775 165.64 -14.7793 169.234C-14.3506 169.412 -13.9225 169.581 -13.493 169.741C-6.25515 172.412 1.19343 172.673 7.85018 170.49C17.5532 167.678 25.2421 160.564 29.2841 150.658C29.6819 149.701 29.9981 148.711 30.3487 147.735L30.3524 147.736ZM25.3709 122.381C23.8535 122.154 22.3895 122.465 21.1934 123.267C19.9758 124.05 19.0801 125.285 18.6341 126.794C18.3958 127.617 18.3159 128.51 18.3989 129.424C18.4815 130.303 18.7343 131.183 19.1399 132.003C19.8573 133.436 21.0086 134.595 22.3541 135.24C22.5457 135.334 22.7399 135.417 22.936 135.49C24.1951 135.948 25.4885 136.016 26.6642 135.685C28.0869 135.3 29.2932 134.413 30.1179 133.146C30.9171 131.938 31.2786 130.4 31.1453 128.775C31.0085 127.238 30.3411 125.722 29.2823 124.543C28.5148 123.702 27.5899 123.068 26.602 122.705C26.1968 122.554 25.7857 122.446 25.3744 122.382" fill="#6543DD"/>
<path d="M-125.653 64.5156C-125.653 64.5156 -121.328 94.8636 -88.3261 116.319L-25.4511 156.827C-25.4511 156.827 -12.2382 162.855 -8.35934 152.09C-4.48047 141.324 -9.50464 136.324 -13.9724 131.517L-58.163 102.842" fill="#FED670"/>
<path d="M-125.653 64.5156C-125.653 64.5156 -121.328 94.8636 -88.3261 116.319L-25.4511 156.827C-25.4511 156.827 -12.2382 162.855 -8.35935 152.09C-4.48047 141.324 -9.50464 136.324 -13.9724 131.517L-58.163 102.842" stroke="#020202" stroke-width="2.51564" stroke-miterlimit="10"/>
<path d="M74.4498 416.974L18.5636 356.293C18.5636 356.293 -27.8888 319.5 -47.8216 302.97C-67.7545 286.439 -94.6581 252.195 -106.431 218.223C-118.204 184.251 -137.18 133.797 -137.18 133.797C-137.18 133.797 -140.188 120.831 -122.357 126.047C-104.526 131.262 -101.754 145.459 -101.754 145.459C-101.754 145.459 -86.7451 146.345 -81.1494 164.872C-81.1494 164.872 -70.6981 167.383 -66.2054 178.915C-61.7127 190.447 -54.0796 211.04 -54.0796 211.04L-35.9155 217.696C-35.9155 217.696 -48.0365 207.981 -36.5873 192.403C-36.5873 192.403 -28.6008 184.803 -16.825 196.688C-5.04916 208.572 37.3626 257.066 37.3626 257.066C37.3626 257.066 50.473 273.641 50.9197 298.897L115.846 371.505C115.846 371.505 113.581 415.493 74.4498 416.974Z" fill="#FED670" stroke="#020202" stroke-width="1.25782" stroke-miterlimit="10"/>
<path d="M75.3376 418.766L19.2511 357.714C19.2511 357.714 -50.7554 304.414 -69.4407 281.502C-88.126 258.59 -103.264 227.333 -107.88 213.953C-112.495 200.573 -137.053 133.862 -137.053 133.862C-137.053 133.862 -139.299 122.55 -125.436 125.255C-111.574 127.96 -105.674 135.437 -101.501 145.59L-75.9218 213.339C-75.9218 213.339 -60.1164 248.985 -19.8759 235.915" stroke="#191919" stroke-width="2.51564" stroke-miterlimit="10"/>
<path d="M0.638551 254.188L-36.879 211.979C-36.879 211.979 -44.8229 201.454 -36.093 189.277C-36.093 189.277 -27.4713 180.497 -16.8254 191.946L39.3348 253.833C39.3348 253.833 50.8349 266.987 52.0297 302.481" stroke="#191919" stroke-width="2.51564" stroke-miterlimit="10"/>
<path d="M74.3342 416.58L18.449 355.901C18.449 355.901 -28.0007 319.11 -47.937 302.578C-67.8733 286.046 -94.772 251.799 -106.546 217.831C-118.321 183.862 -137.296 133.405 -137.296 133.405C-137.296 133.405 -140.303 120.44 -122.473 125.654C-104.643 130.868 -101.872 145.064 -101.872 145.064C-101.872 145.064 -86.8635 145.949 -81.2679 164.477C-81.2679 164.477 -70.8164 166.988 -66.3239 178.521C-61.8313 190.054 -54.198 210.645 -54.198 210.645L-36.0346 217.3C-36.0346 217.3 -48.1557 207.587 -36.7065 192.009C-36.7065 192.009 -28.7199 184.408 -16.9441 196.293C-5.16835 208.178 37.2449 256.675 37.2449 256.675C37.2449 256.675 50.3553 273.25 50.8021 298.505L115.728 371.114C115.728 371.114 113.465 415.102 74.3342 416.58Z" stroke="#020202" stroke-width="2.51564" stroke-miterlimit="10"/>
</g>
<defs>
<linearGradient id="paint0_linear_1006_32880" x1="525.947" y1="35" x2="207.787" y2="222.06" gradientUnits="userSpaceOnUse">
<stop stop-color="#2FC8E0"/>
<stop offset="1" stop-color="#754DFE"/>
</linearGradient>
<clipPath id="clip0_1006_32880">
<rect width="704" height="385" rx="16" fill="white"/>
</clipPath>
</defs>
</svg>
