<svg width="319" height="389" viewBox="0 0 319 389" fill="none" xmlns="http://www.w3.org/2000/svg">
    <path d="M268.656 1.48633H28.6436V383.801H268.656V1.48633Z" stroke="#3EDBF3" stroke-width="0.523663" stroke-miterlimit="10"/>
    <path d="M189.688 127.654H108.635V256.763H189.688V127.654Z" stroke="#3EDBF3" stroke-width="0.523663" stroke-miterlimit="10"/>
    <path d="M194.234 120.413H104.089V264.004H194.234V120.413Z" stroke="#3EDBF3" stroke-width="0.523663" stroke-miterlimit="10"/>
    <path d="M198.004 114.408H100.319V270.009H198.004V114.408Z" stroke="#3EDBF3" stroke-width="0.523663" stroke-miterlimit="10"/>
    <path d="M205.619 102.278H92.7041V282.14H205.619V102.278Z" stroke="#3EDBF3" stroke-width="0.523663" stroke-miterlimit="10"/>
    <path d="M212.458 91.3838H85.8652V293.033H212.458V91.3838Z" stroke="#3EDBF3" stroke-width="0.523663" stroke-miterlimit="10"/>
    <path d="M219.734 79.7937H78.5889V304.624H219.734V79.7937Z" stroke="#3EDBF3" stroke-width="0.523663" stroke-miterlimit="10"/>
    <path d="M219.734 79.7937H78.5889V304.624H219.734V79.7937Z" stroke="#3EDBF3" stroke-width="0.523663" stroke-miterlimit="10"/>
    <path d="M228.98 65.0662H69.3428V319.351H228.98V65.0662Z" stroke="#3EDBF3" stroke-width="0.523663" stroke-miterlimit="10"/>
    <path d="M237.495 51.5022H60.8271V332.915H237.495V51.5022Z" stroke="#3EDBF3" stroke-width="0.523663" stroke-miterlimit="10"/>
    <path d="M246.991 36.3745H51.3301V348.042H246.991V36.3745Z" stroke="#3EDBF3" stroke-width="0.523663" stroke-miterlimit="10"/>
    <path d="M257.728 19.2732H40.5947V365.144H257.728V19.2732Z" stroke="#3EDBF3" stroke-width="0.523663" stroke-miterlimit="10"/>
    <path d="M112.065 133.765L30.5811 1.48389" stroke="#3EDBF3" stroke-width="0.523663" stroke-miterlimit="10"/>
    <path d="M268.328 380.38L186.225 251.712" stroke="#3EDBF3" stroke-width="0.523663" stroke-miterlimit="10"/>
    <path d="M268.619 1L186.516 134.398" stroke="#3EDBF3" stroke-width="0.523663" stroke-miterlimit="10"/>
    <path d="M29.2959 383.218L111.982 251.712" stroke="#3EDBF3" stroke-width="0.523663" stroke-miterlimit="10"/>
    <path d="M60.1582 382.745L120.717 251.712" stroke="#3EDBF3" stroke-width="0.523663" stroke-miterlimit="10"/>
    <path d="M80.5391 382.745L127.705 251.712" stroke="#3EDBF3" stroke-width="0.523663" stroke-miterlimit="10"/>
    <path d="M96.7188 385.333L133.374 251.78" stroke="#3EDBF3" stroke-width="0.523663" stroke-miterlimit="10"/>
    <path d="M117.265 382.935L137.777 251.777" stroke="#3EDBF3" stroke-width="0.523663" stroke-miterlimit="10"/>
    <path d="M133.407 382.924L143.647 251.773" stroke="#3EDBF3" stroke-width="0.523663" stroke-miterlimit="10"/>
    <path d="M149.551 382.913L149.518 251.769" stroke="#3EDBF3" stroke-width="0.523663" stroke-miterlimit="10"/>
    <path d="M164.098 384.164L155.654 251.712" stroke="#3EDBF3" stroke-width="0.523663" stroke-miterlimit="10"/>
    <path d="M180.37 384.084L159.79 251.762" stroke="#3EDBF3" stroke-width="0.523663" stroke-miterlimit="10"/>
    <path d="M197.871 384.164L166.136 251.712" stroke="#3EDBF3" stroke-width="0.523663" stroke-miterlimit="10"/>
    <path d="M217.059 384.06L171.53 251.754" stroke="#3EDBF3" stroke-width="0.523663" stroke-miterlimit="10"/>
    <path d="M236.48 383.927L177.4 251.75" stroke="#3EDBF3" stroke-width="0.523663" stroke-miterlimit="10"/>
    <path d="M244.745 1.47314L181.275 132.506" stroke="#3EDBF3" stroke-width="0.523663" stroke-miterlimit="10"/>
    <path d="M218.542 1.47314L169.338 132.506" stroke="#3EDBF3" stroke-width="0.523663" stroke-miterlimit="10"/>
    <path d="M197.871 1.47314L162.06 132.506" stroke="#3EDBF3" stroke-width="0.523663" stroke-miterlimit="10"/>
    <path d="M181.74 1.38159L158.292 132.541" stroke="#3EDBF3" stroke-width="0.523663" stroke-miterlimit="10"/>
    <path d="M164.129 1.39404L152.422 132.546" stroke="#3EDBF3" stroke-width="0.523663" stroke-miterlimit="10"/>
    <path d="M149.453 1.40405L149.487 132.548" stroke="#3EDBF3" stroke-width="0.523663" stroke-miterlimit="10"/>
    <path d="M133.236 1.47314L143.135 132.979" stroke="#3EDBF3" stroke-width="0.523663" stroke-miterlimit="10"/>
    <path d="M115.768 1.47314L137.021 132.506" stroke="#3EDBF3" stroke-width="0.523663" stroke-miterlimit="10"/>
    <path d="M99.5557 1.43774L133.343 132.559" stroke="#3EDBF3" stroke-width="0.523663" stroke-miterlimit="10"/>
    <path d="M81.9941 1.47314L126.54 132.506" stroke="#3EDBF3" stroke-width="0.523663" stroke-miterlimit="10"/>
    <path d="M58.4111 1.47314L117.805 132.979" stroke="#3EDBF3" stroke-width="0.523663" stroke-miterlimit="10"/>
    <path d="M29.0049 46.8853L111.691 146.224" stroke="#3EDBF3" stroke-width="0.523663" stroke-miterlimit="10"/>
    <path d="M29.0049 111.219L111.691 168.93" stroke="#3EDBF3" stroke-width="0.523663" stroke-miterlimit="10"/>
    <path d="M29.0049 141.967L111.691 177.445" stroke="#3EDBF3" stroke-width="0.523663" stroke-miterlimit="10"/>
    <path d="M29.2959 166.092L111.69 184.54" stroke="#3EDBF3" stroke-width="0.523663" stroke-miterlimit="10"/>
    <path d="M29.2959 192.109H111.982" stroke="#3EDBF3" stroke-width="0.523663" stroke-miterlimit="10"/>
    <path d="M28.7139 219.073L111.691 200.151" stroke="#3EDBF3" stroke-width="0.523663" stroke-miterlimit="10"/>
    <path d="M28.7822 245.975L111.69 210.152" stroke="#3EDBF3" stroke-width="0.523663" stroke-miterlimit="10"/>
    <path d="M28.7139 278.203L111.982 221.438" stroke="#3EDBF3" stroke-width="0.523663" stroke-miterlimit="10"/>
    <path d="M28.4229 308.951L111.691 231.372" stroke="#3EDBF3" stroke-width="0.523663" stroke-miterlimit="10"/>
    <path d="M28.4229 347.267L111.691 240.833" stroke="#3EDBF3" stroke-width="0.523663" stroke-miterlimit="10"/>
    <path d="M29.0049 82.3635L111.691 155.685" stroke="#3EDBF3" stroke-width="0.523663" stroke-miterlimit="10"/>
    <path d="M269.201 46.4121L186.516 147.17" stroke="#3EDBF3" stroke-width="0.523663" stroke-miterlimit="10"/>
    <path d="M269.201 111.219L186.516 168.457" stroke="#3EDBF3" stroke-width="0.523663" stroke-miterlimit="10"/>
    <path d="M269.201 141.967L186.516 177.445" stroke="#3EDBF3" stroke-width="0.523663" stroke-miterlimit="10"/>
    <path d="M269.201 165.619L186.516 184.067" stroke="#3EDBF3" stroke-width="0.523663" stroke-miterlimit="10"/>
    <path d="M269.201 191.636L186.516 192.109" stroke="#3EDBF3" stroke-width="0.523663" stroke-miterlimit="10"/>
    <path d="M268.328 218.126L186.516 199.678" stroke="#3EDBF3" stroke-width="0.523663" stroke-miterlimit="10"/>
    <path d="M268.328 242.252L186.516 206.773" stroke="#3EDBF3" stroke-width="0.523663" stroke-miterlimit="10"/>
    <path d="M268.328 277.73L186.516 221.911" stroke="#3EDBF3" stroke-width="0.523663" stroke-miterlimit="10"/>
    <path d="M268.328 306.586L186.516 229.953" stroke="#3EDBF3" stroke-width="0.523663" stroke-miterlimit="10"/>
    <path d="M268.328 344.902L186.516 239.413" stroke="#3EDBF3" stroke-width="0.523663" stroke-miterlimit="10"/>
    <path d="M269.201 82.3635L186.516 155.685" stroke="#3EDBF3" stroke-width="0.523663" stroke-miterlimit="10"/>
    <path d="M186.583 132.551H111.737V251.773H186.583V132.551Z" stroke="#3EDBF3" stroke-width="0.523663" stroke-miterlimit="10"/>
    <g opacity="0.2">
        <g opacity="0.2">
            <mask id="path-62-inside-1_561_47496" fill="white">
                <path d="M112.349 136.057L112.346 136.08C112.365 136.088 112.382 136.095 112.383 136.09C112.384 136.085 112.377 136.078 112.349 136.057Z"/>
            </mask>
            <path d="M112.349 136.057L112.346 136.08C112.365 136.088 112.382 136.095 112.383 136.09C112.384 136.085 112.377 136.078 112.349 136.057Z" fill="black"/>
            <path d="M112.349 136.057L112.664 135.638L111.955 135.105L111.831 135.983L112.349 136.057ZM112.346 136.08L111.827 136.007L111.77 136.412L112.149 136.566L112.346 136.08ZM111.831 135.983L111.827 136.007L112.864 136.154L112.868 136.13L111.831 135.983ZM112.149 136.566C112.154 136.568 112.189 136.582 112.226 136.593C112.237 136.596 112.298 136.614 112.376 136.615C112.412 136.615 112.509 136.613 112.616 136.559C112.753 136.491 112.869 136.357 112.899 136.177L111.867 136.003C111.897 135.824 112.012 135.69 112.148 135.623C112.254 135.569 112.349 135.568 112.383 135.568C112.457 135.568 112.512 135.585 112.517 135.587C112.54 135.594 112.557 135.601 112.542 135.595L112.149 136.566ZM112.899 136.177C112.924 136.029 112.882 135.906 112.837 135.827C112.8 135.761 112.757 135.718 112.741 135.703C112.709 135.672 112.674 135.646 112.664 135.638L112.034 136.475C112.052 136.489 112.035 136.477 112.013 136.456C112.002 136.446 111.962 136.407 111.927 136.344C111.884 136.268 111.842 136.148 111.867 136.003L112.899 136.177Z" fill="#3EDBF3" mask="url(#path-62-inside-1_561_47496)"/>
        </g>
    </g>
    <g opacity="0.2">
        <path opacity="0.2" d="M208.133 208.57L226.815 232.576" stroke="#3EDBF3" stroke-width="0.523663"/>
        <path opacity="0.2" d="M213.776 206.191L217.099 220.264" stroke="#3EDBF3" stroke-width="0.523663"/>
        <path opacity="0.2" d="M239.318 206.47L236.253 221.083" stroke="#3EDBF3" stroke-width="0.523663"/>
        <path opacity="0.2" d="M245.65 219.355L235.965 220.394" stroke="#3EDBF3" stroke-width="0.523663"/>
        <path opacity="0.2" d="M207.044 219.017L218.225 220.276" stroke="#3EDBF3" stroke-width="0.523663"/>
        <path opacity="0.2" d="M245.694 208.981L226.815 232.576" stroke="#3EDBF3" stroke-width="0.523663"/>
        <g opacity="0.2">
            <path opacity="0.2" d="M205.905 224.877L205.905 224.877L205.905 224.874C205.852 224.517 205.813 224.157 205.775 223.791C205.756 223.619 205.738 223.446 205.718 223.271L205.701 223.043C209.508 222.322 213.315 221.607 217.123 220.897C217.127 220.9 217.134 220.905 217.143 220.916C220.223 224.869 223.3 228.827 226.373 232.789C224.518 236.52 221.884 238.924 219.031 239.581L219.031 239.581L219.023 239.582C216.545 240.231 213.991 239.503 211.768 237.471L211.768 237.471L211.763 237.467C210.298 236.193 209.011 234.41 207.997 232.235C206.983 230.061 206.269 227.551 205.905 224.877Z" fill="black" stroke="#3EDBF3" stroke-width="0.523663"/>
            <path opacity="0.2" d="M217.028 201.669L217.028 201.669L217.037 201.669C218.673 201.633 220.302 202.171 221.816 203.261C223.331 204.352 224.693 205.971 225.803 208.016L225.803 208.016L225.805 208.02C227.55 211.101 228.606 215.064 228.79 219.263L228.79 219.263L228.79 219.266C229.052 223.961 228.229 228.635 226.495 232.381C223.47 228.495 220.448 224.604 217.428 220.709C217.394 220.659 217.363 220.577 217.353 220.473C216.902 214.232 216.455 207.989 216.011 201.746L216.053 201.739C216.166 201.73 216.273 201.719 216.377 201.709C216.601 201.687 216.81 201.666 217.028 201.669Z" fill="black" stroke="#3EDBF3" stroke-width="0.523663"/>
        </g>
        <g opacity="0.2">
            <path opacity="0.2" d="M234.132 239.748L234.132 239.748L234.124 239.746C231.275 239.026 228.66 236.563 226.836 232.792C229.942 228.897 233.05 225.007 236.162 221.122C236.17 221.113 236.177 221.108 236.181 221.105C239.983 221.899 243.785 222.697 247.587 223.502L247.568 223.732C247.546 223.906 247.527 224.078 247.507 224.249C247.465 224.615 247.424 224.974 247.368 225.331L247.367 225.334C246.982 227.999 246.246 230.493 245.215 232.645C244.183 234.797 242.882 236.55 241.407 237.792L241.407 237.792L241.402 237.796C239.164 239.778 236.605 240.451 234.132 239.748Z" fill="black" stroke="#3EDBF3" stroke-width="0.523663"/>
            <path opacity="0.2" d="M235.882 220.913C232.83 224.741 229.776 228.565 226.72 232.384C225.016 228.599 224.231 223.906 224.532 219.217L224.532 219.213C224.751 215.019 225.839 211.079 227.608 208.037L227.608 208.037L227.611 208.033C228.737 206.013 230.112 204.425 231.635 203.367C233.157 202.311 234.79 201.808 236.425 201.881L236.425 201.881L236.434 201.881C236.653 201.883 236.863 201.909 237.089 201.936C237.191 201.949 237.297 201.962 237.409 201.973L237.455 201.982C236.959 208.215 236.46 214.448 235.958 220.68C235.947 220.784 235.915 220.864 235.882 220.913Z" fill="black" stroke="#3EDBF3" stroke-width="0.523663"/>
        </g>
        <path opacity="0.2" d="M206.702 218.613C206.702 219.162 206.565 219.647 206.356 219.986C206.145 220.329 205.888 220.487 205.649 220.487C205.411 220.487 205.154 220.329 204.943 219.986C204.734 219.647 204.597 219.162 204.597 218.613C204.597 218.064 204.734 217.579 204.943 217.24C205.154 216.897 205.411 216.739 205.649 216.739C205.888 216.739 206.145 216.897 206.356 217.24C206.565 217.579 206.702 218.064 206.702 218.613Z" fill="black" stroke="#3EDBF3" stroke-width="0.523663"/>
        <path opacity="0.2" d="M214.274 204.048C214.274 204.598 214.137 205.082 213.928 205.421C213.717 205.765 213.46 205.922 213.222 205.922C212.984 205.922 212.726 205.765 212.515 205.421C212.307 205.082 212.169 204.598 212.169 204.048C212.169 203.499 212.307 203.014 212.515 202.675C212.726 202.332 212.984 202.174 213.222 202.174C213.46 202.174 213.717 202.332 213.928 202.675C214.137 203.014 214.274 203.499 214.274 204.048Z" fill="black" stroke="#3EDBF3" stroke-width="0.523663"/>
        <path opacity="0.2" d="M208.25 207.644C208.25 208.194 208.112 208.678 207.904 209.017C207.693 209.36 207.436 209.518 207.197 209.518C206.959 209.518 206.702 209.36 206.491 209.017C206.282 208.678 206.145 208.194 206.145 207.644C206.145 207.095 206.282 206.61 206.491 206.271C206.702 205.928 206.959 205.77 207.197 205.77C207.436 205.77 207.693 205.928 207.904 206.271C208.112 206.61 208.25 207.095 208.25 207.644Z" fill="black" stroke="#3EDBF3" stroke-width="0.523663"/>
        <path opacity="0.2" d="M248.019 219.064C248.019 219.613 247.881 220.098 247.672 220.437C247.461 220.78 247.204 220.938 246.966 220.938C246.728 220.938 246.471 220.78 246.259 220.437C246.051 220.098 245.913 219.613 245.913 219.064C245.913 218.515 246.051 218.03 246.259 217.691C246.471 217.348 246.728 217.19 246.966 217.19C247.204 217.19 247.461 217.348 247.672 217.691C247.881 218.03 248.019 218.515 248.019 219.064Z" fill="black" stroke="#3EDBF3" stroke-width="0.523663"/>
        <path opacity="0.2" d="M240.942 204.339C240.942 204.889 240.805 205.373 240.596 205.712C240.385 206.056 240.128 206.213 239.89 206.213C239.652 206.213 239.394 206.056 239.183 205.712C238.975 205.373 238.837 204.889 238.837 204.339C238.837 203.79 238.975 203.305 239.183 202.966C239.394 202.623 239.652 202.465 239.89 202.465C240.128 202.465 240.385 202.623 240.596 202.966C240.805 203.305 240.942 203.79 240.942 204.339Z" fill="black" stroke="#3EDBF3" stroke-width="0.523663"/>
        <path opacity="0.2" d="M247.689 208.075C247.689 208.625 247.551 209.109 247.342 209.448C247.131 209.791 246.874 209.949 246.636 209.949C246.398 209.949 246.14 209.791 245.929 209.448C245.721 209.109 245.583 208.625 245.583 208.075C245.583 207.526 245.721 207.041 245.929 206.702C246.14 206.359 246.398 206.201 246.636 206.201C246.874 206.201 247.131 206.359 247.342 206.702C247.551 207.041 247.689 207.526 247.689 208.075Z" fill="black" stroke="#3EDBF3" stroke-width="0.523663"/>
    </g>
    <path d="M212.9 73.8257L224.689 90.2477L224.123 90.1711L212.335 73.7497L212.9 73.8257Z" fill="#3B2780"/>
    <path d="M215.754 74.5423L227.543 90.9647L224.689 90.2473L212.901 73.8254L215.754 74.5423Z" fill="#3B2780"/>
    <path d="M242.775 91.9168L254.563 108.338C248.643 101.175 240.922 95.7173 232.194 92.5268C230.66 91.9552 229.088 91.4834 227.546 90.9645L215.757 74.5435C217.3 75.0612 218.871 75.533 220.405 76.1046C229.134 79.2953 236.855 84.753 242.775 91.9168Z" fill="#3D2885"/>
    <path d="M242.775 91.9168L254.563 108.338C248.643 101.175 240.922 95.7173 232.194 92.5268C230.66 91.9552 229.088 91.4834 227.546 90.9645L215.757 74.5435C217.3 75.0612 218.871 75.533 220.405 76.1046C229.134 79.2953 236.855 84.753 242.775 91.9168Z" fill="#3D2885"/>
    <path d="M212.334 73.7518L224.123 90.1732C221.335 89.7801 218.589 89.2119 215.76 89.0166C209.689 88.5935 203.589 89.0208 197.637 90.287L185.847 73.8668C191.8 72.5997 197.9 72.1718 203.971 72.5958C206.8 72.7899 209.546 73.3587 212.334 73.7518Z" fill="#3D2885"/>
    <path d="M185.847 73.8678L197.636 90.2885C194.993 90.8475 192.385 91.5619 189.826 92.4273L178.037 76.0049C180.596 75.1397 183.204 74.4262 185.847 73.8678Z" fill="#3F2A8A"/>
    <path d="M178.039 76.0058L189.828 92.4282C187.745 93.1318 185.696 93.9325 183.683 94.8302L171.894 78.4078C173.905 77.5121 175.954 76.7114 178.039 76.0058Z" fill="#422B8F"/>
    <path d="M171.891 78.4077L183.679 94.8301C181.894 95.6267 180.141 96.4967 178.421 97.4401L166.632 81.0176C168.349 80.076 170.102 79.206 171.891 78.4077Z" fill="#442D94"/>
    <path d="M166.633 81.0188L178.422 97.4413C176.805 98.3274 175.222 99.2743 173.674 100.283L161.885 83.8607C163.43 82.8507 165.013 81.9032 166.633 81.0188Z" fill="#462E99"/>
    <path d="M161.885 83.8647L173.674 100.287C172.174 101.266 170.711 102.301 169.284 103.391L157.495 86.9707C158.92 85.8806 160.384 84.8452 161.885 83.8647Z" fill="#49309E"/>
    <path d="M157.495 86.9712L169.285 103.392C167.866 104.478 166.488 105.616 165.151 106.805L153.362 90.3841C154.698 89.1938 156.076 88.0562 157.495 86.9712Z" fill="#4B31A3"/>
    <path d="M153.361 90.3843L165.15 106.805C163.781 108.024 162.46 109.296 161.186 110.621L149.398 94.1987C150.669 92.8762 151.99 91.6045 153.361 90.3831" fill="#4D33A8"/>
    <path d="M149.398 94.1956L161.187 110.618C159.847 112.01 158.565 113.457 157.341 114.959L145.552 98.5372C146.776 97.036 148.059 95.5889 149.399 94.1959" fill="#5034AD"/>
    <path d="M145.552 98.5378L157.341 114.959C155.968 116.644 154.675 118.392 153.461 120.204L141.672 103.782C142.884 101.97 144.176 100.222 145.55 98.5374" fill="#5236B3"/>
    <path d="M141.671 103.785L153.461 120.207C151.977 122.425 150.625 124.729 149.413 127.107L137.625 110.684C138.836 108.307 140.188 106.003 141.671 103.785Z" fill="#5437B8"/>
    <path d="M137.626 110.685L149.414 127.108C149.004 127.91 148.611 128.723 148.233 129.546C146.333 133.655 144.867 137.951 143.86 142.364L132.071 125.943C133.077 121.529 134.543 117.232 136.445 113.123C136.822 112.301 137.216 111.488 137.626 110.685Z" fill="#5739BD"/>
    <path d="M132.072 125.944L143.861 142.365C143.558 143.719 143.303 145.072 143.097 146.425L131.309 130.003C131.514 128.649 131.769 127.296 132.072 125.944Z" fill="#593BC2"/>
    <path d="M131.31 130.004L143.098 146.426C142.331 151.471 142.251 156.597 142.86 161.663L131.071 145.24C130.462 140.174 130.542 135.048 131.31 130.004Z" fill="#5739BD"/>
    <path d="M131.071 145.24L142.86 161.663C143.076 163.433 143.37 165.203 143.742 166.971C143.848 167.425 143.952 167.878 144.067 168.335L132.278 151.913C132.163 151.457 132.059 151.003 131.953 150.548C131.577 148.78 131.283 147.01 131.071 145.24Z" fill="#5437B8"/>
    <path d="M143.752 145.374L155.54 161.797L155.537 161.809L143.749 145.387L143.752 145.374Z" fill="#B8B8B8"/>
    <path d="M143.754 145.388L155.542 161.81C155.545 161.838 155.544 161.867 155.539 161.895L143.75 145.474C143.756 145.445 143.757 145.416 143.754 145.388Z" fill="#BDBDBD"/>
    <path d="M143.751 145.473L155.539 161.895L155.531 161.927L143.743 145.504L143.751 145.473Z" fill="#C2C2C2"/>
    <path d="M143.745 145.505L155.533 161.928C155.522 161.978 155.504 162.027 155.48 162.073L143.692 145.65C143.716 145.605 143.734 145.556 143.745 145.505Z" fill="#BDBDBD"/>
    <path d="M143.693 145.65L155.481 162.073C155.473 162.089 155.464 162.105 155.453 162.12L143.665 145.698C143.676 145.683 143.685 145.667 143.693 145.65Z" fill="#B8B8B8"/>
    <path d="M143.659 145.696L155.447 162.119L155.429 162.146L143.64 145.724L143.659 145.696Z" fill="#B3B3B3"/>
    <path d="M143.651 145.727L155.439 162.149L155.425 162.164L143.637 145.743L143.651 145.727Z" fill="#ADADAD"/>
    <path d="M143.632 145.741L155.421 162.163L155.409 162.175L143.62 145.753L143.632 145.741Z" fill="#A8A8A8"/>
    <path d="M143.618 145.753L155.407 162.175L155.397 162.183L143.609 145.76L143.618 145.753Z" fill="#A3A3A3"/>
    <path d="M143.61 145.76L155.398 162.183L155.388 162.189L143.6 145.767L143.61 145.76Z" fill="#9E9E9E"/>
    <path d="M143.601 145.767L155.389 162.189L155.38 162.194L143.592 145.772L143.601 145.767Z" fill="#999999"/>
    <path d="M143.594 145.773L155.382 162.196C151.675 164.225 147.955 166.248 144.224 168.264L132.436 151.843C136.159 149.828 139.878 147.805 143.594 145.773Z" fill="#949494"/>
    <path d="M136.849 162.81L148.636 179.233L136.849 162.81Z" fill="#462E99"/>
    <path d="M136.849 162.81L148.637 179.233L148.627 179.24L136.839 162.818L136.849 162.81Z" fill="#49309E"/>
    <path d="M136.835 162.819L148.622 179.241L148.611 179.251L136.823 162.829L136.835 162.819Z" fill="#4B31A3"/>
    <path d="M136.822 162.829L148.61 179.25L148.596 179.264L136.808 162.842L136.822 162.829Z" fill="#4D33A8"/>
    <path d="M136.808 162.842L148.596 179.263L148.577 179.284L136.789 162.863L136.808 162.842Z" fill="#5034AD"/>
    <path d="M136.789 162.864L148.577 179.284C148.567 179.297 148.558 179.31 148.549 179.323L136.762 162.901C136.77 162.887 136.779 162.875 136.789 162.864Z" fill="#5236B3"/>
    <path d="M136.763 162.901L148.551 179.324C148.535 179.348 148.52 179.372 148.507 179.398L136.719 162.977C136.732 162.951 136.747 162.925 136.763 162.901Z" fill="#5437B8"/>
    <path d="M136.718 162.977L148.506 179.397C148.468 179.471 148.44 179.55 148.421 179.631L136.634 163.209C136.652 163.128 136.681 163.049 136.718 162.975" fill="#5739BD"/>
    <path d="M136.633 163.211L148.421 179.633L148.411 179.671L136.623 163.249L136.633 163.211Z" fill="#593BC2"/>
    <path d="M136.625 163.25L148.413 179.672C148.407 179.705 148.406 179.739 148.408 179.772L136.62 163.35C136.618 163.317 136.619 163.283 136.625 163.25Z" fill="#5739BD"/>
    <path d="M136.621 163.351L148.409 179.772L148.413 179.795L136.625 163.373L136.621 163.351Z" fill="#5437B8"/>
    <path d="M136.625 163.373L148.413 179.795L148.417 179.808L136.629 163.386L136.625 163.373Z" fill="#5236B3"/>
    <path d="M136.628 163.391L148.416 179.814L136.628 163.391Z" fill="#5034AD"/>
    <path d="M231.533 97.9988L243.322 114.421C237.374 108.444 229.905 104.207 221.722 102.168C221.057 102.002 220.385 101.847 219.706 101.705C212.908 100.337 205.9 100.39 199.124 101.86L187.335 85.4386C194.111 83.9681 201.119 83.9157 207.916 85.2843C208.596 85.425 209.269 85.5789 209.933 85.7462C218.115 87.7862 225.584 92.0232 231.533 97.9988Z" fill="#858585"/>
    <path d="M187.332 85.4386L199.12 101.861C196.986 102.312 194.88 102.888 192.814 103.587L181.026 87.1651C183.092 86.4664 185.198 85.8899 187.332 85.4386Z" fill="#8A8A8A"/>
    <path d="M181.028 87.1664L192.817 103.589C191.133 104.156 189.476 104.803 187.848 105.531L176.059 89.1085C177.688 88.3831 179.344 87.7357 181.028 87.1664Z" fill="#8F8F8F"/>
    <path d="M176.059 89.1056L187.848 105.528C186.4 106.17 184.978 106.874 183.582 107.639L171.794 91.2168C173.189 90.4537 174.61 89.7497 176.059 89.1056Z" fill="#949494"/>
    <path d="M171.8 91.2214L183.588 107.644C182.287 108.357 181.011 109.122 179.763 109.936L167.974 93.5146C169.222 92.7 170.497 91.9355 171.8 91.2214Z" fill="#999999"/>
    <path d="M167.973 93.515L179.762 109.936C178.566 110.717 177.399 111.543 176.26 112.414L164.471 95.9915C165.61 95.1207 166.777 94.2955 167.973 93.515Z" fill="#9E9E9E"/>
    <path d="M164.471 95.9914L176.259 112.414C175.133 113.275 174.038 114.178 172.976 115.124L161.187 98.7028C162.249 97.7575 163.345 96.8519 164.472 95.9868" fill="#A3A3A3"/>
    <path d="M161.188 98.7034L172.976 115.124C171.9 116.083 170.86 117.083 169.857 118.124L158.069 101.702C159.07 100.661 160.11 99.6617 161.188 98.7034Z" fill="#A8A8A8"/>
    <path d="M158.068 101.702L169.856 118.124C168.799 119.224 167.785 120.368 166.813 121.558L155.024 105.137C155.993 103.947 157.007 102.802 158.068 101.702Z" fill="#ADADAD"/>
    <path d="M155.025 105.138L166.814 121.559C165.754 122.861 164.754 124.214 163.812 125.618L152.023 109.197C152.962 107.793 153.963 106.44 155.025 105.138Z" fill="#B3B3B3"/>
    <path d="M152.024 109.197L163.812 125.618C163.768 125.684 163.726 125.749 163.682 125.813C162.433 127.69 161.292 129.637 160.264 131.644L148.476 115.221C149.503 113.214 150.644 111.268 151.893 109.392C151.937 109.327 151.98 109.261 152.024 109.197Z" fill="#B8B8B8"/>
    <path d="M148.476 115.223L160.264 131.645C158.35 135.358 156.909 139.297 155.975 143.369L144.186 126.948C145.12 122.876 146.561 118.936 148.476 115.223Z" fill="#BDBDBD"/>
    <path d="M144.186 126.947L155.974 143.368C155.745 144.384 155.55 145.405 155.389 146.429L143.601 130.006C143.76 128.983 143.955 127.963 144.186 126.947Z" fill="#C2C2C2"/>
    <path d="M143.601 130.007L155.389 146.43C154.728 150.691 154.657 155.023 155.178 159.304L143.389 142.883C142.868 138.602 142.94 134.269 143.601 130.007Z" fill="#BDBDBD"/>
    <path d="M143.391 142.884L155.179 159.304C155.279 160.132 155.401 160.963 155.546 161.796L143.757 145.375C143.616 144.543 143.496 143.714 143.397 142.885" fill="#B8B8B8"/>
    <path d="M235.971 95.6042L247.76 112.025C246.282 112.828 244.802 113.641 243.321 114.421L231.533 97.9984C233.017 97.2203 234.494 96.4057 235.97 95.6039" fill="#949494"/>
    <path d="M242.775 91.9168L254.563 108.338C248.643 101.175 240.922 95.7173 232.194 92.5268C230.66 91.9552 229.088 91.4834 227.546 90.9645L215.757 74.5435C217.3 75.0612 218.871 75.533 220.405 76.1046C229.134 79.2953 236.855 84.753 242.775 91.9168Z" fill="#3D2885"/>
    <path d="M215.756 74.5466C217.299 75.0643 218.871 75.5361 220.404 76.1078C229.073 79.2739 236.754 84.6701 242.672 91.7521L235.969 95.6137C234.493 96.4155 233.012 97.2288 231.532 98.0081C225.583 92.0322 218.115 87.7955 209.933 85.7553C209.268 85.5888 208.596 85.4343 207.916 85.2927C187.268 81.0038 164.145 90.9264 151.894 109.397C144.297 120.844 141.628 132.871 143.751 145.378C143.757 145.452 143.745 145.526 143.718 145.595C143.69 145.664 143.647 145.725 143.592 145.775C139.884 147.806 136.165 149.829 132.433 151.845C132.189 151.449 132.026 151.009 131.951 150.55C129.279 137.921 130.857 124.764 136.439 113.125C148.312 87.2692 176.07 70.6088 203.966 72.6019C206.795 72.796 209.541 73.3648 212.329 73.7579L212.895 73.8339L215.756 74.5466Z" fill="#CDCDCD"/>
    <path d="M242.667 91.7464L254.456 108.169L247.756 112.024L235.968 95.6013L242.667 91.7464Z" fill="#A4A4A4"/>
    <path d="M242.775 91.9168L254.563 108.338C248.643 101.175 240.922 95.7173 232.194 92.5268C230.66 91.9552 229.088 91.4834 227.546 90.9645L215.757 74.5435C217.3 75.0612 218.871 75.533 220.405 76.1046C229.134 79.2953 236.855 84.753 242.775 91.9168Z" fill="#CDCDCD"/>
    <path d="M136.636 163.391L148.424 179.814C149.146 181.168 149.91 182.478 150.714 183.742L138.926 167.321C138.12 166.058 137.357 164.748 136.635 163.392" fill="#4D33A8"/>
    <path d="M138.93 167.321L150.718 183.742C151.254 184.58 151.806 185.397 152.374 186.193L140.586 169.771C140.014 168.975 139.462 168.158 138.93 167.321Z" fill="#4B31A3"/>
    <path d="M192.461 132.613L204.249 149.035C185.708 159.084 167.171 169.148 148.64 179.229L136.851 162.808C155.384 152.724 173.921 142.659 192.461 132.614" fill="#442D94"/>
    <path d="M193.801 132.431L205.588 148.854C205.313 148.794 205.029 148.793 204.754 148.852L192.965 132.431C193.241 132.371 193.525 132.371 193.801 132.431Z" fill="#3D2885"/>
    <path d="M192.966 132.431L204.754 148.852C204.674 148.869 204.595 148.891 204.518 148.918L192.73 132.496C192.807 132.469 192.886 132.447 192.966 132.43" fill="#3F2A8A"/>
    <path d="M192.73 132.496L204.518 148.918C204.456 148.939 204.396 148.963 204.337 148.989L192.549 132.567C192.608 132.54 192.668 132.517 192.73 132.496Z" fill="#422B8F"/>
    <path d="M192.548 132.566L204.336 148.989C204.306 149.001 204.275 149.017 204.245 149.032L192.457 132.609C192.487 132.594 192.517 132.58 192.548 132.566Z" fill="#442D94"/>
    <path d="M236.995 110.855L248.783 127.277L248.742 127.304C248.485 127.474 248.235 127.651 247.992 127.836L236.204 111.415C236.447 111.23 236.698 111.051 236.954 110.884L236.995 110.855Z" fill="#49309E"/>
    <path d="M232.642 115.67L244.43 132.091C244.229 132.485 244.05 132.889 243.895 133.303C243.714 133.784 243.567 134.277 243.454 134.778L231.666 118.355C231.779 117.855 231.926 117.363 232.106 116.882C232.261 116.468 232.44 116.063 232.642 115.67Z" fill="#5739BD"/>
    <path d="M244.336 108.798L256.125 125.22C255.11 125.169 254.094 125.251 253.101 125.464L241.312 109.043C242.305 108.829 243.322 108.747 244.336 108.798Z" fill="#3D2885"/>
    <path d="M241.31 109.042L253.099 125.464C252.628 125.564 252.164 125.692 251.709 125.846L239.92 109.424C240.376 109.271 240.841 109.143 241.311 109.043" fill="#3F2A8A"/>
    <path d="M239.922 109.425L251.711 125.847C251.341 125.971 250.977 126.114 250.617 126.274L238.829 109.852C239.188 109.691 239.552 109.548 239.921 109.425" fill="#422B8F"/>
    <path d="M238.83 109.852L250.619 126.274C250.302 126.416 249.989 126.571 249.681 126.74L237.893 110.318C238.201 110.144 238.513 109.995 238.83 109.852Z" fill="#442D94"/>
    <path d="M237.893 110.319L249.682 126.74C249.382 126.907 249.085 127.085 248.791 127.273L237.002 110.85C237.293 110.658 237.59 110.481 237.893 110.318" fill="#462E99"/>
    <path d="M236.998 110.854L248.787 127.277L248.746 127.304C248.489 127.473 248.239 127.651 247.996 127.836L236.207 111.414C236.45 111.229 236.701 111.051 236.957 110.883L236.998 110.854Z" fill="#49309E"/>
    <path d="M236.211 111.415L248 127.837C247.745 128.033 247.498 128.237 247.259 128.448L235.47 112.027C235.71 111.814 235.956 111.61 236.211 111.415Z" fill="#4B31A3"/>
    <path d="M235.468 112.027L247.257 128.448C247.01 128.668 246.773 128.896 246.545 129.133L234.756 112.711C234.984 112.475 235.221 112.245 235.468 112.027Z" fill="#4D33A8"/>
    <path d="M234.756 112.712L246.544 129.133C246.301 129.386 246.07 129.648 245.849 129.918L234.061 113.495C234.281 113.226 234.513 112.964 234.756 112.712Z" fill="#5034AD"/>
    <path d="M234.061 113.495L245.85 129.918C245.6 130.219 245.368 130.532 245.155 130.856L233.368 114.432C233.584 114.11 233.816 113.797 234.063 113.493" fill="#5236B3"/>
    <path d="M233.369 114.433L245.158 130.855C244.893 131.252 244.651 131.664 244.434 132.088L232.645 115.667C232.862 115.242 233.104 114.829 233.369 114.433Z" fill="#5437B8"/>
    <path d="M232.643 115.669L244.431 132.09C244.23 132.484 244.052 132.888 243.896 133.302C243.716 133.783 243.568 134.276 243.455 134.777L231.667 118.354C231.78 117.854 231.927 117.362 232.107 116.881C232.262 116.467 232.441 116.062 232.643 115.669Z" fill="#5739BD"/>
    <path d="M251.931 112.778L263.72 129.201C263.412 128.771 263.067 128.369 262.689 127.999C261.446 126.795 259.904 125.942 258.223 125.53C257.534 125.358 256.83 125.254 256.12 125.221L244.331 108.799C245.04 108.833 245.745 108.936 246.434 109.108C248.115 109.521 249.656 110.373 250.9 111.577C251.277 111.947 251.623 112.349 251.931 112.778Z" fill="#3D2885"/>
    <path d="M232.642 115.67L244.43 132.091C244.229 132.485 244.05 132.889 243.895 133.303C243.714 133.784 243.567 134.277 243.454 134.778L231.666 118.355C231.779 117.854 231.926 117.362 232.106 116.882C232.261 116.468 232.44 116.063 232.642 115.67Z" fill="#5739BD"/>
    <path d="M231.665 118.355L243.453 134.778C243.395 135.034 243.347 135.29 243.308 135.546L231.52 119.126C231.558 118.869 231.607 118.612 231.665 118.355Z" fill="#593BC2"/>
    <path d="M231.521 119.126L243.309 135.547C243.21 136.194 243.17 136.848 243.192 137.502C243.204 137.778 243.226 138.05 243.255 138.32L231.467 121.898C231.433 121.634 231.413 121.355 231.404 121.08C231.382 120.426 231.421 119.772 231.521 119.126Z" fill="#5739BD"/>
    <path d="M231.523 119.127L243.312 135.547C243.212 136.194 243.173 136.849 243.194 137.503C243.207 137.778 243.228 138.051 243.258 138.32L231.47 121.899C231.436 121.634 231.416 121.355 231.406 121.081C231.385 120.427 231.424 119.773 231.523 119.127Z" fill="#5739BD"/>
    <path d="M251.931 112.778L263.72 129.201C263.412 128.771 263.067 128.369 262.689 127.999C261.446 126.795 259.904 125.942 258.223 125.53C257.534 125.358 256.83 125.254 256.12 125.221L244.331 108.799C245.04 108.833 245.745 108.936 246.434 109.108C248.115 109.521 249.656 110.373 250.9 111.577C251.277 111.947 251.623 112.349 251.931 112.778Z" fill="#3D2885"/>
    <path d="M231.522 119.127L243.311 135.548C243.211 136.194 243.172 136.849 243.193 137.503C243.206 137.779 243.227 138.051 243.257 138.321L231.469 121.899C231.435 121.635 231.415 121.356 231.405 121.081C231.384 120.427 231.423 119.773 231.522 119.127Z" fill="#5739BD"/>
    <path d="M231.469 121.899L243.257 138.32C243.309 138.76 243.391 139.196 243.503 139.624L231.715 123.201C231.603 122.774 231.521 122.338 231.469 121.899Z" fill="#5437B8"/>
    <path d="M231.714 123.207L243.502 139.63C243.593 139.976 243.704 140.316 243.833 140.65L232.045 124.228C231.915 123.894 231.805 123.553 231.714 123.207Z" fill="#5236B3"/>
    <path d="M232.046 124.222L243.834 140.644C243.941 140.922 244.063 141.194 244.196 141.461L244.224 141.515L232.435 125.094L232.408 125.039C232.274 124.772 232.153 124.5 232.046 124.222Z" fill="#5034AD"/>
    <path d="M232.049 124.221L243.836 140.643C243.944 140.921 244.065 141.193 244.198 141.46L244.226 141.514L232.438 125.094L232.41 125.038C232.277 124.771 232.156 124.499 232.049 124.221Z" fill="#5034AD"/>
    <path d="M251.931 112.778L263.72 129.201C263.412 128.771 263.067 128.369 262.689 127.999C261.446 126.795 259.904 125.942 258.223 125.53C257.534 125.358 256.83 125.254 256.12 125.221L244.331 108.799C245.04 108.833 245.745 108.936 246.434 109.108C248.115 109.521 249.656 110.373 250.9 111.577C251.277 111.947 251.623 112.349 251.931 112.778Z" fill="#3D2885"/>
    <path d="M232.05 124.221L243.837 140.644C243.944 140.921 244.066 141.194 244.199 141.46L244.227 141.514L232.439 125.094L232.411 125.038C232.278 124.771 232.157 124.499 232.05 124.221Z" fill="#5034AD"/>
    <path d="M232.438 125.094L244.226 141.514C244.361 141.779 244.508 142.034 244.664 142.281L232.876 125.859C232.719 125.612 232.573 125.357 232.438 125.094Z" fill="#4D33A8"/>
    <path d="M232.88 125.859L244.667 142.282C244.759 142.421 244.851 142.556 244.944 142.689L233.156 126.267C233.063 126.136 232.971 125.999 232.88 125.859Z" fill="#4B31A3"/>
    <path d="M251.937 112.779L263.725 129.2C263.818 129.333 263.91 129.468 264.002 129.608L252.213 113.185C252.125 113.047 252.033 112.912 251.937 112.779Z" fill="#A3A3A3"/>
    <path d="M252.211 113.185L263.999 129.607C264.158 129.855 264.304 130.111 264.437 130.374L252.648 113.951C252.514 113.688 252.368 113.433 252.211 113.185Z" fill="#A8A8A8"/>
    <path d="M252.651 113.952L264.44 130.375C264.583 130.655 264.712 130.943 264.826 131.237L253.037 114.816C252.924 114.52 252.796 114.23 252.652 113.948" fill="#ADADAD"/>
    <path d="M253.037 114.816L264.826 131.237C264.955 131.57 265.065 131.91 265.155 132.255L253.366 115.834C253.277 115.488 253.167 115.148 253.037 114.816Z" fill="#B3B3B3"/>
    <path d="M253.367 115.834L265.156 132.255C265.269 132.687 265.352 133.127 265.405 133.57L253.617 117.149C253.564 116.705 253.481 116.266 253.367 115.834Z" fill="#B8B8B8"/>
    <path d="M253.617 117.149L265.406 133.57C265.439 133.835 265.459 134.111 265.468 134.386C265.49 135.04 265.45 135.694 265.349 136.341L253.56 119.919C253.661 119.272 253.701 118.617 253.68 117.964C253.67 117.69 253.649 117.417 253.617 117.149Z" fill="#BDBDBD"/>
    <path d="M253.561 119.919L265.349 136.341C265.313 136.58 265.267 136.817 265.215 137.055L253.426 120.633C253.48 120.391 253.525 120.158 253.561 119.919Z" fill="#C2C2C2"/>
    <path d="M253.427 120.633L265.215 137.056C265 138.009 264.666 138.93 264.22 139.8L252.431 123.379C252.877 122.509 253.212 121.587 253.427 120.633Z" fill="#BDBDBD"/>
    <path d="M252.429 123.379L264.218 139.8C264 140.227 263.757 140.641 263.49 141.039L251.702 124.616C251.968 124.219 252.211 123.805 252.429 123.379Z" fill="#B8B8B8"/>
    <path d="M251.701 124.616L263.489 141.039C263.392 141.183 263.292 141.326 263.189 141.471C263.066 141.638 262.937 141.803 262.803 141.963L251.015 125.541C251.147 125.38 251.275 125.216 251.4 125.049C251.503 124.907 251.603 124.765 251.701 124.616Z" fill="#B3B3B3"/>
    <path d="M251.02 125.538L262.809 141.96C262.585 142.236 262.351 142.5 262.106 142.754L250.317 126.332C250.562 126.077 250.796 125.813 251.02 125.538Z" fill="#ADADAD"/>
    <path d="M250.312 126.331L262.1 142.753C261.867 142.991 261.628 143.222 261.383 143.444L249.594 127.021C249.841 126.801 250.081 126.57 250.312 126.331Z" fill="#A8A8A8"/>
    <path d="M249.599 127.021L261.388 143.444C261.147 143.658 260.898 143.864 260.642 144.06L248.854 127.637C249.11 127.441 249.358 127.237 249.599 127.021Z" fill="#A3A3A3"/>
    <path d="M248.853 127.638L260.641 144.06C260.385 144.256 260.123 144.442 259.854 144.621L248.066 128.198C248.335 128.022 248.597 127.837 248.853 127.638Z" fill="#9E9E9E"/>
    <path d="M248.065 128.196L259.854 144.618C259.577 144.801 259.294 144.971 259.004 145.127L247.216 128.705C247.506 128.546 247.789 128.376 248.065 128.196Z" fill="#999999"/>
    <path d="M247.216 128.705L259.005 145.127C258.698 145.294 258.385 145.45 258.066 145.594L246.277 129.171C246.596 129.029 246.91 128.872 247.216 128.705Z" fill="#949494"/>
    <path d="M246.277 129.171L258.065 145.594C257.708 145.755 257.345 145.897 256.977 146.019L245.189 129.597C245.558 129.472 245.921 129.33 246.277 129.171Z" fill="#8F8F8F"/>
    <path d="M245.19 129.598L256.979 146.02L256.89 146.049C256.447 146.197 255.996 146.32 255.539 146.417L243.75 129.995C244.207 129.898 244.659 129.775 245.102 129.627L245.19 129.598Z" fill="#8A8A8A"/>
    <path d="M243.75 129.995L255.538 146.417C253.85 146.784 252.1 146.76 250.423 146.348C250.089 146.26 249.759 146.163 249.435 146.047C247.631 145.407 246.063 144.236 244.938 142.688L233.149 126.266C234.275 127.815 235.843 128.986 237.648 129.625C237.972 129.742 238.301 129.843 238.635 129.926C240.313 130.338 242.063 130.362 243.751 129.995" fill="#858585"/>
    <path d="M246.439 109.109C248.12 109.521 249.661 110.374 250.904 111.579C252.618 113.27 253.612 115.558 253.679 117.965C253.731 120.514 252.929 123.006 251.401 125.046C249.823 127.186 247.623 128.786 245.101 129.627C243.017 130.342 240.773 130.447 238.632 129.931C238.298 129.847 237.969 129.746 237.645 129.629C235.372 128.83 233.495 127.185 232.405 125.036C231.79 123.805 231.447 122.454 231.401 121.078C231.359 119.646 231.598 118.22 232.105 116.881C233.05 114.42 234.748 112.322 236.957 110.884C239.131 109.419 241.716 108.689 244.335 108.799C245.045 108.834 245.75 108.937 246.439 109.109Z" fill="#CDCDCD"/>
    <path d="M250.706 146.691L262.496 163.111C255.555 161.368 248.613 159.625 241.671 157.882C229.648 154.864 217.621 151.856 205.591 148.856L193.801 132.433C205.832 135.432 217.859 138.441 229.882 141.461C236.824 143.204 243.766 144.948 250.706 146.691Z" fill="#3D2885"/>
    <path d="M250.706 146.691L262.495 163.113L261.972 164.511L250.184 148.088L250.706 146.691Z" fill="#CCCCCC"/>
    <path d="M229.882 141.462C236.825 143.205 243.766 144.949 250.706 146.692L250.184 148.089C249.464 149.69 248.803 151.306 248.003 152.886C239.855 169.214 225.664 181.723 208.443 187.757C196.6 192.297 183.651 193.102 171.337 190.063C170.606 189.879 169.88 189.679 169.152 189.471C154.398 185.209 143.583 176.419 136.63 163.391C136.621 163.284 136.636 163.176 136.674 163.075C136.711 162.975 136.771 162.884 136.849 162.809C155.381 152.725 173.917 142.66 192.458 132.615C192.872 132.403 193.346 132.34 193.801 132.436C205.833 135.434 217.86 138.442 229.882 141.462Z" fill="#CDCDCD"/>
    <path d="M250.188 148.084L261.976 164.506C261.264 166.087 260.608 167.692 259.82 169.253L248.031 152.831C248.82 151.27 249.476 149.664 250.188 148.084Z" fill="#BDBDBD"/>
    <path d="M248.033 152.827L259.82 169.25L259.797 169.295C258.432 171.957 256.915 174.538 255.254 177.026L243.466 160.603C245.127 158.116 246.644 155.535 248.009 152.874L248.033 152.827Z" fill="#B8B8B8"/>
    <path d="M243.463 160.607L255.251 177.029C253.988 178.913 252.65 180.723 251.24 182.458L239.452 166.036C240.862 164.305 242.199 162.495 243.463 160.607Z" fill="#B3B3B3"/>
    <path d="M239.454 166.037L251.242 182.459C250.032 183.942 248.769 185.368 247.453 186.738L235.665 170.315C236.982 168.948 238.245 167.522 239.455 166.037" fill="#ADADAD"/>
    <path d="M235.659 170.314L247.447 186.737C246.238 187.991 244.983 189.195 243.682 190.349L231.894 173.927C233.194 172.77 234.449 171.566 235.659 170.314Z" fill="#A8A8A8"/>
    <path d="M231.902 173.934L243.69 190.356C242.433 191.475 241.135 192.547 239.793 193.573L228.005 177.151C229.347 176.125 230.646 175.053 231.902 173.934Z" fill="#A3A3A3"/>
    <path d="M228.007 177.151L239.795 193.574C238.442 194.609 237.045 195.597 235.604 196.537L223.816 180.116C225.257 179.176 226.654 178.188 228.007 177.151Z" fill="#9E9E9E"/>
    <path d="M223.816 180.116L235.604 196.538C234.087 197.528 232.523 198.466 230.91 199.35L219.122 182.928C220.734 182.045 222.299 181.107 223.816 180.116Z" fill="#999999"/>
    <path d="M219.121 182.928L230.909 199.35C229.126 200.33 227.283 201.243 225.381 202.09L213.593 185.669C215.494 184.821 217.337 183.907 219.121 182.928Z" fill="#949494"/>
    <path d="M213.593 185.669L225.381 202.091C223.712 202.835 221.998 203.529 220.238 204.173C219.671 204.383 219.101 204.584 218.527 204.776L206.738 188.355C207.308 188.164 207.879 187.962 208.45 187.751C210.209 187.106 211.923 186.412 213.593 185.669Z" fill="#8F8F8F"/>
    <path d="M206.736 188.354L218.525 204.775C215.969 205.644 213.364 206.362 210.724 206.925L198.936 190.503C201.576 189.94 204.18 189.222 206.736 188.354Z" fill="#8A8A8A"/>
    <path d="M198.938 190.505L210.727 206.926C201.617 208.907 192.173 208.754 183.132 206.48C182.401 206.297 181.673 206.1 180.947 205.89C169.438 202.813 159.347 195.853 152.381 186.19L140.592 169.768C147.558 179.432 157.649 186.391 169.158 189.468C169.885 189.679 170.612 189.876 171.343 190.059C180.384 192.332 189.828 192.485 198.938 190.505Z" fill="#858585"/>
    <path d="M271 69.6821L282.269 85.4793C283.097 86.6412 283.893 87.8244 284.657 89.0287L273.389 73.2315C272.625 72.0274 271.829 70.8442 271 69.6821Z" fill="#4B31A3"/>
    <path d="M273.389 73.2317L284.657 89.0289C286.024 91.1819 287.285 93.3998 288.441 95.6831L277.172 79.8859C276.016 77.6099 274.754 75.392 273.389 73.2317Z" fill="#4D33A8"/>
    <path d="M277.174 79.8861L288.442 95.6834C289.679 98.1259 290.79 100.631 291.771 103.189L280.505 87.3873C279.524 84.8295 278.413 82.3245 277.176 79.8819" fill="#5034AD"/>
    <path d="M280.507 87.3875L291.776 103.185C292.886 106.078 293.83 109.033 294.604 112.036L283.336 96.2386C282.561 93.2361 281.617 90.2809 280.507 87.3875Z" fill="#5236B3"/>
    <path d="M283.334 96.2432L294.603 112.041C295.553 115.729 296.25 119.479 296.69 123.264L285.421 107.467C284.981 103.681 284.284 99.9313 283.334 96.2432Z" fill="#5437B8"/>
    <path d="M285.422 107.467L296.69 123.264C297.684 131.962 297.386 140.763 295.805 149.379L284.536 133.583C286.117 124.966 286.416 116.164 285.422 107.467Z" fill="#5739BD"/>
    <path d="M284.537 133.584L295.806 149.379C295.629 150.361 295.435 151.344 295.224 152.328L283.955 136.531C284.166 135.547 284.36 134.565 284.537 133.584Z" fill="#593BC2"/>
    <path d="M283.955 136.532L295.224 152.329C294.21 157.048 292.85 161.686 291.156 166.205C289.817 169.785 288.281 173.288 286.555 176.698L275.286 160.901C277.013 157.491 278.549 153.988 279.887 150.408C281.581 145.889 282.941 141.25 283.955 136.532Z" fill="#5739BD"/>
    <path d="M275.283 160.904L286.551 176.701C284.66 180.432 282.548 184.046 280.228 187.525L268.959 171.727C271.28 168.249 273.391 164.634 275.283 160.904Z" fill="#5437B8"/>
    <path d="M268.959 171.728L280.228 187.525C278.376 190.302 276.404 192.983 274.313 195.567L263.044 179.77C265.135 177.189 267.108 174.509 268.965 171.729" fill="#5236B3"/>
    <path d="M263.04 179.769L274.309 195.567C272.41 197.912 270.419 200.171 268.336 202.345L257.067 186.548C259.146 184.376 261.137 182.116 263.04 179.769Z" fill="#5034AD"/>
    <path d="M257.065 186.548L268.335 202.345C266.363 204.405 264.316 206.384 262.195 208.282L250.926 192.485C253.045 190.588 255.091 188.61 257.065 186.548Z" fill="#4D33A8"/>
    <path d="M250.927 192.486L262.196 208.283C260.122 210.141 257.985 211.916 255.782 213.61L244.514 197.812C246.713 196.12 248.851 194.344 250.927 192.486Z" fill="#4B31A3"/>
    <path d="M244.515 197.813L255.783 213.61C253.572 215.312 251.302 216.928 248.974 218.457L237.705 202.66C240.03 201.131 242.3 199.516 244.515 197.813Z" fill="#49309E"/>
    <path d="M237.704 202.66L248.973 218.457C246.575 220.033 244.122 221.514 241.616 222.899L230.347 207.102C232.851 205.719 235.304 204.238 237.704 202.66Z" fill="#462E99"/>
    <path d="M230.347 207.102L241.616 222.9C238.934 224.38 236.2 225.746 233.412 226.999L222.143 211.204C224.928 209.952 227.663 208.585 230.347 207.102Z" fill="#442D94"/>
    <path d="M222.143 211.205L233.412 227C230.285 228.406 227.103 229.66 223.867 230.762L212.598 214.965C215.827 213.864 219.009 212.611 222.143 211.205Z" fill="#422B8F"/>
    <path d="M212.599 214.966L223.868 230.763C219.94 232.101 215.939 233.207 211.884 234.076L200.615 218.279C204.67 217.411 208.672 216.304 212.599 214.966Z" fill="#3F2A8A"/>
    <path d="M200.613 218.281L211.882 234.077C197.439 237.247 182.475 237.062 168.133 233.536C147.956 228.468 131.842 217.101 121.1 202.041L109.831 186.245C120.572 201.304 136.685 212.677 156.864 217.74C171.206 221.267 186.169 221.452 200.613 218.281Z" fill="#3D2885"/>
    <path d="M227.272 38.3375C278.87 51.292 305.077 103.504 285.805 154.958C266.534 206.411 209.078 237.633 157.48 224.68C105.883 211.727 79.6666 159.506 98.9382 108.052C118.21 56.5987 175.663 25.3816 227.272 38.3375ZM132.277 151.908C136.152 149.822 139.883 147.798 143.593 145.769C143.648 145.719 143.692 145.657 143.719 145.588C143.747 145.519 143.759 145.445 143.753 145.371C141.631 132.863 144.299 120.837 151.896 109.39C164.147 90.92 187.269 81.001 207.918 85.2864C208.598 85.4272 209.27 85.581 209.935 85.7484C217.999 87.6861 225.33 91.9146 231.047 97.9234C232.749 97.2889 234.396 96.5141 235.971 95.6074L242.773 91.9201C236.854 84.7554 229.133 79.2967 220.405 76.1049C218.871 75.5333 217.3 75.0614 215.757 74.5437L212.902 73.8265L212.337 73.7502C209.549 73.3571 206.803 72.7889 203.974 72.5948C176.078 70.6016 148.32 87.2615 136.447 113.118C130.865 124.756 129.287 137.914 131.959 150.542C132.065 150.997 132.169 151.451 132.284 151.907L132.277 151.908ZM250.189 148.086L250.712 146.689C243.771 144.946 236.83 143.202 229.888 141.459C217.866 138.44 205.839 135.43 193.809 132.429C193.355 132.333 192.881 132.396 192.467 132.608C173.921 142.657 155.381 152.723 136.849 162.804C136.772 162.879 136.713 162.97 136.675 163.071C136.637 163.172 136.623 163.28 136.632 163.387C143.583 176.414 154.397 185.205 169.153 189.468C169.88 189.678 170.607 189.875 171.338 190.059C183.651 193.099 196.601 192.294 208.444 187.752C225.664 181.718 239.854 169.21 248.002 152.883C248.802 151.303 249.463 149.687 250.183 148.086L250.189 148.086ZM244.336 108.801C241.717 108.69 239.131 109.422 236.958 110.887C234.749 112.324 233.051 114.423 232.105 116.883C231.598 118.223 231.359 119.649 231.402 121.08C231.448 122.457 231.79 123.807 232.406 125.039C233.496 127.187 235.373 128.832 237.645 129.632C237.969 129.749 238.298 129.849 238.632 129.933C240.774 130.45 243.021 130.346 245.106 129.631C247.628 128.789 249.829 127.189 251.407 125.05C252.934 123.009 253.736 120.517 253.684 117.969C253.617 115.562 252.623 113.273 250.91 111.581C249.666 110.377 248.125 109.525 246.445 109.113C245.755 108.941 245.051 108.837 244.342 108.803" fill="#6543DD"/>
    <path d="M183.439 256.475L174.083 274.395L173.897 273.855L183.252 255.936L183.439 256.475Z" fill="#3B2780"/>
    <path d="M184.084 259.346L174.728 277.266L174.084 274.395L183.44 256.475L184.084 259.346Z" fill="#3B2780"/>
    <path d="M180.736 291.296L171.382 309.216C175.112 300.705 176.509 291.353 175.428 282.123C175.248 280.496 174.961 278.881 174.73 277.27L184.085 259.35C184.317 260.961 184.604 262.576 184.784 264.203C185.865 273.434 184.468 282.785 180.736 291.296Z" fill="#3D2885"/>
    <path d="M180.736 291.296L171.382 309.216C175.112 300.705 176.509 291.353 175.428 282.123C175.248 280.496 174.961 278.881 174.73 277.27L184.085 259.35C184.317 260.961 184.604 262.576 184.784 264.203C185.865 273.434 184.468 282.785 180.736 291.296Z" fill="#3D2885"/>
    <path d="M183.251 255.937L173.896 273.857C172.991 271.19 172.262 268.482 171.163 265.868C168.808 260.257 165.68 255.003 161.869 250.258L171.223 232.338C175.034 237.082 178.163 242.337 180.517 247.948C181.618 250.562 182.346 253.27 183.251 255.937Z" fill="#3D2885"/>
    <path d="M171.221 232.338L161.867 250.258C160.178 248.15 158.366 246.143 156.441 244.247L165.797 226.327C167.722 228.223 169.533 230.23 171.221 232.338Z" fill="#3F2A8A"/>
    <path d="M165.798 226.329L156.442 244.25C154.875 242.706 153.238 241.238 151.53 239.844L160.886 221.924C162.591 223.316 164.229 224.785 165.798 226.329Z" fill="#422B8F"/>
    <path d="M160.885 221.921L151.529 239.841C150.013 238.606 148.447 237.432 146.831 236.321L156.187 218.401C157.801 219.51 159.367 220.684 160.885 221.921Z" fill="#442D94"/>
    <path d="M156.187 218.402L146.831 236.323C145.311 235.278 143.753 234.291 142.156 233.362L151.511 215.442C153.109 216.367 154.668 217.354 156.187 218.402Z" fill="#462E99"/>
    <path d="M151.507 215.444L142.151 233.364C140.601 232.465 139.019 231.624 137.403 230.842L146.757 212.922C148.372 213.704 149.956 214.544 151.507 215.444Z" fill="#49309E"/>
    <path d="M146.757 212.922L137.402 230.842C135.794 230.064 134.158 229.346 132.494 228.688L141.848 210.768C143.513 211.425 145.149 212.143 146.757 212.922Z" fill="#4B31A3"/>
    <path d="M141.847 210.767L132.493 228.687C130.789 228.013 129.058 227.406 127.301 226.866L136.657 208.946C138.411 209.486 140.141 210.093 141.849 210.767" fill="#4D33A8"/>
    <path d="M136.66 208.945L127.304 226.866C125.459 226.296 123.589 225.803 121.697 225.386L131.052 207.466C132.944 207.883 134.813 208.377 136.661 208.947" fill="#5034AD"/>
    <path d="M131.052 207.466L121.697 225.386C119.575 224.919 117.431 224.552 115.267 224.283L124.622 206.363C126.786 206.629 128.929 206.996 131.052 207.465" fill="#5236B3"/>
    <path d="M124.619 206.364L115.264 224.284C112.615 223.958 109.949 223.789 107.28 223.777L116.637 205.857C119.305 205.869 121.971 206.038 124.619 206.364Z" fill="#5437B8"/>
    <path d="M116.637 205.858L107.281 223.778C106.379 223.773 105.477 223.788 104.572 223.822C100.047 223.974 95.5515 224.599 91.1574 225.688L100.512 207.768C104.907 206.679 109.403 206.053 113.928 205.901C114.832 205.868 115.735 205.854 116.637 205.858Z" fill="#5739BD"/>
    <path d="M100.512 207.769L91.1572 225.689C89.8113 226.027 88.4881 226.409 87.1877 226.835L96.5435 208.915C97.8455 208.489 99.1682 208.107 100.512 207.769Z" fill="#593BC2"/>
    <path d="M96.543 208.915L87.187 226.835C82.3372 228.422 77.7241 230.658 73.4745 233.483L82.831 215.562C87.0806 212.738 91.6931 210.502 96.543 208.915Z" fill="#5739BD"/>
    <path d="M82.8311 215.563L73.4748 233.483C71.9909 234.473 70.5435 235.532 69.1321 236.661C68.7745 236.959 68.4166 237.256 68.0599 237.565L77.4162 219.645C77.7717 219.336 78.1296 219.039 78.4884 218.74C79.8981 217.608 81.3455 216.549 82.8311 215.563Z" fill="#5437B8"/>
    <path d="M88.4209 226.946L79.0645 244.866L79.0521 244.869L88.4085 226.949L88.4209 226.946Z" fill="#B8B8B8"/>
    <path d="M88.4092 226.954L79.0528 244.874C79.029 244.89 79.0031 244.901 78.9757 244.909L88.3309 226.99C88.3588 226.982 88.3851 226.97 88.4092 226.954Z" fill="#BDBDBD"/>
    <path d="M88.3311 226.99L78.9758 244.909L78.9433 244.916L88.2997 226.996L88.3311 226.99Z" fill="#C2C2C2"/>
    <path d="M88.3007 226.999L78.9442 244.919C78.8943 244.932 78.8429 244.938 78.7914 244.937L88.1478 227.018C88.1994 227.018 88.2508 227.012 88.3007 226.999Z" fill="#BDBDBD"/>
    <path d="M88.1476 227.018L78.7912 244.938C78.7728 244.938 78.7544 244.937 78.7361 244.934L88.0925 227.014C88.1108 227.017 88.1292 227.018 88.1476 227.018Z" fill="#B8B8B8"/>
    <path d="M88.0912 227.008L78.7348 244.928L78.7023 244.923L88.0582 227.004L88.0912 227.008Z" fill="#B3B3B3"/>
    <path d="M88.0606 227.015L78.7048 244.935L78.6845 244.929L88.0397 227.009L88.0606 227.015Z" fill="#ADADAD"/>
    <path d="M88.0389 227.005L78.6837 244.924L78.6671 244.919L88.0235 226.999L88.0389 227.005Z" fill="#A8A8A8"/>
    <path d="M88.023 226.998L78.6666 244.917L78.6556 244.912L88.012 226.992L88.023 226.998Z" fill="#A3A3A3"/>
    <path d="M88.0123 226.993L78.6559 244.913L78.6461 244.907L88.0019 226.988L88.0123 226.993Z" fill="#9E9E9E"/>
    <path d="M88.0015 226.987L78.6457 244.907L78.6365 244.901L87.9929 226.982L88.0015 226.987Z" fill="#999999"/>
    <path d="M87.9931 226.984L78.6366 244.904C75.1558 242.507 71.6751 240.097 68.1944 237.673L77.5497 219.754C81.0248 222.171 84.5059 224.581 87.9931 226.984Z" fill="#949494"/>
    <path d="M69.7441 228.632L60.3876 246.552L69.7441 228.632Z" fill="#462E99"/>
    <path d="M69.7437 228.632L60.3872 246.551L60.3762 246.546L69.7327 228.627L69.7437 228.632Z" fill="#49309E"/>
    <path d="M69.7293 228.623L60.3728 246.543L60.3586 246.537L69.7151 228.618L69.7293 228.623Z" fill="#4B31A3"/>
    <path d="M69.7149 228.617L60.3596 246.536L60.341 246.53L69.6969 228.611L69.7149 228.617Z" fill="#4D33A8"/>
    <path d="M69.6979 228.611L60.3419 246.53L60.3151 246.523L69.6699 228.604L69.6979 228.611Z" fill="#5034AD"/>
    <path d="M69.6696 228.604L60.3148 246.523C60.2993 246.519 60.2834 246.517 60.2675 246.515L69.6241 228.596C69.6396 228.597 69.6545 228.6 69.6696 228.604Z" fill="#5236B3"/>
    <path d="M69.624 228.597L60.2675 246.516C60.239 246.513 60.2104 246.511 60.1817 246.511L69.5364 228.592C69.5656 228.592 69.5951 228.593 69.624 228.597Z" fill="#5437B8"/>
    <path d="M69.5362 228.591L60.1818 246.509C60.0987 246.509 60.0156 246.519 59.9349 246.539L69.2911 228.62C69.3718 228.6 69.4548 228.59 69.538 228.59" fill="#5739BD"/>
    <path d="M69.2891 228.62L59.9325 246.54L59.8941 246.548L69.2501 228.628L69.2891 228.62Z" fill="#593BC2"/>
    <path d="M69.25 228.63L59.894 246.55C59.8621 246.559 59.8313 246.573 59.8027 246.591L69.1587 228.671C69.1872 228.654 69.218 228.64 69.25 228.63Z" fill="#5739BD"/>
    <path d="M69.1592 228.673L59.8032 246.592L59.7846 246.606L69.1412 228.687L69.1592 228.673Z" fill="#5437B8"/>
    <path d="M69.1406 228.686L59.7841 246.605L59.7744 246.615L69.1309 228.695L69.1406 228.686Z" fill="#5236B3"/>
    <path d="M69.125 228.697L59.7684 246.616L69.125 228.697Z" fill="#5034AD"/>
    <path d="M170.245 283.996L160.89 301.917C163.548 293.914 163.968 285.337 162.105 277.113C161.954 276.445 161.789 275.775 161.611 275.104C159.771 268.418 156.569 262.185 152.205 256.796L161.561 238.876C165.925 244.265 169.126 250.498 170.965 257.184C171.145 257.855 171.311 258.524 171.46 259.193C173.323 267.417 172.902 275.994 170.245 283.996Z" fill="#858585"/>
    <path d="M161.559 238.874L152.203 256.794C150.84 255.091 149.377 253.471 147.822 251.941L157.178 234.021C158.733 235.551 160.195 237.172 161.559 238.874Z" fill="#8A8A8A"/>
    <path d="M157.178 234.024L147.822 251.944C146.558 250.695 145.234 249.508 143.851 248.381L153.207 230.461C154.588 231.589 155.912 232.776 157.178 234.024Z" fill="#8F8F8F"/>
    <path d="M153.21 230.459L143.853 248.379C142.628 247.375 141.36 246.423 140.048 245.521L149.404 227.601C150.713 228.503 151.982 229.456 153.21 230.459Z" fill="#949494"/>
    <path d="M149.403 227.609L140.046 245.529C138.823 244.688 137.567 243.893 136.277 243.145L145.632 225.225C146.922 225.973 148.178 226.767 149.403 227.609Z" fill="#999999"/>
    <path d="M145.632 225.225L136.277 243.145C135.042 242.429 133.779 241.758 132.488 241.133L141.844 223.213C143.134 223.837 144.397 224.508 145.632 225.225Z" fill="#9E9E9E"/>
    <path d="M141.844 223.212L132.488 241.132C131.211 240.514 129.912 239.943 128.59 239.42L137.944 221.501C139.267 222.024 140.568 222.594 141.849 223.211" fill="#A3A3A3"/>
    <path d="M137.944 221.502L128.589 239.422C127.249 238.892 125.887 238.414 124.506 237.987L133.862 220.067C135.242 220.493 136.603 220.971 137.944 221.502Z" fill="#A8A8A8"/>
    <path d="M133.863 220.066L124.506 237.986C123.049 237.537 121.57 237.147 120.07 236.815L129.425 218.895C130.923 219.224 132.403 219.614 133.863 220.066Z" fill="#ADADAD"/>
    <path d="M129.424 218.896L120.068 236.816C118.429 236.456 116.771 236.172 115.093 235.963L124.448 218.043C126.124 218.25 127.783 218.534 129.424 218.896Z" fill="#B3B3B3"/>
    <path d="M124.448 218.043L115.093 235.963C115.015 235.953 114.937 235.944 114.86 235.934C112.622 235.664 110.37 235.521 108.115 235.508L117.472 217.588C119.726 217.602 121.977 217.744 124.215 218.015C124.293 218.025 124.371 218.033 124.448 218.043Z" fill="#B8B8B8"/>
    <path d="M117.47 217.589L108.114 235.509C103.936 235.471 99.7707 235.957 95.7144 236.957L105.069 219.037C109.126 218.038 113.293 217.551 117.47 217.589Z" fill="#BDBDBD"/>
    <path d="M105.07 219.037L95.7157 236.956C94.7048 237.209 93.7056 237.494 92.7186 237.812L102.075 219.892C103.061 219.574 104.059 219.289 105.07 219.037Z" fill="#C2C2C2"/>
    <path d="M102.075 219.892L92.7186 237.812C88.6157 239.141 84.7155 241.028 81.1274 243.42L90.4823 225.501C94.0709 223.108 97.9721 221.221 102.075 219.892Z" fill="#BDBDBD"/>
    <path d="M90.4824 225.502L81.1278 243.422C80.4335 243.883 79.7467 244.366 79.0676 244.871L88.4228 226.951C89.1019 226.451 89.7886 225.97 90.4837 225.508" fill="#B8B8B8"/>
    <path d="M174.382 286.882L165.027 304.801C163.644 303.843 162.253 302.887 160.889 301.917L170.246 283.997C171.608 284.972 173.001 285.924 174.381 286.881" fill="#949494"/>
    <path d="M180.736 291.296L171.382 309.216C175.112 300.705 176.509 291.353 175.428 282.123C175.248 280.496 174.961 278.881 174.73 277.27L184.085 259.35C184.317 260.961 184.604 262.576 184.784 264.203C185.865 273.434 184.468 282.785 180.736 291.296Z" fill="#3D2885"/>
    <path d="M184.081 259.35C184.314 260.961 184.6 262.577 184.78 264.204C185.856 273.37 184.496 282.658 180.837 291.13L174.371 286.884C172.99 285.927 171.597 284.97 170.235 284C172.893 275.998 173.313 267.422 171.451 259.197C171.3 258.529 171.136 257.859 170.956 257.189C165.489 236.82 146.219 220.641 124.211 218.018C110.569 216.389 98.6276 219.421 88.4164 226.947C88.3527 226.985 88.2814 227.009 88.2073 227.015C88.1333 227.021 88.0588 227.01 87.9895 226.983C84.5072 224.587 81.0262 222.177 77.5464 219.753C77.79 219.357 78.1091 219.012 78.4854 218.739C88.5586 210.668 101.017 206.153 113.923 205.897C142.355 204.857 169.729 222.141 180.509 247.947C181.61 250.561 182.338 253.269 183.242 255.935L183.429 256.475L184.081 259.35Z" fill="#CDCDCD"/>
    <path d="M180.84 291.123L171.484 309.043L165.025 304.797L174.382 286.877L180.84 291.123Z" fill="#A4A4A4"/>
    <path d="M180.736 291.296L171.382 309.216C175.112 300.705 176.509 291.353 175.428 282.123C175.248 280.496 174.961 278.881 174.73 277.27L184.085 259.35C184.317 260.961 184.604 262.576 184.784 264.203C185.865 273.434 184.468 282.785 180.736 291.296Z" fill="#CDCDCD"/>
    <path d="M69.1289 228.704L59.7725 246.623C58.8886 247.878 58.0628 249.15 57.2955 250.437L66.6507 232.518C67.4163 231.23 68.2421 229.959 69.1277 228.704" fill="#4D33A8"/>
    <path d="M66.6533 232.521L57.2981 250.44C56.7912 251.295 56.3103 252.156 55.8547 253.023L65.2111 235.103C65.6645 234.234 66.145 233.373 66.6533 232.521Z" fill="#4B31A3"/>
    <path d="M121.745 264.693L112.389 282.613C95.0687 270.581 77.736 258.561 60.3911 246.553L69.7463 228.633C87.0946 240.641 104.427 252.661 121.744 264.693" fill="#442D94"/>
    <path d="M122.511 265.808L113.154 283.727C113.084 283.455 112.956 283.2 112.78 282.981L122.135 265.062C122.312 265.28 122.44 265.535 122.511 265.808Z" fill="#3D2885"/>
    <path d="M122.135 265.062L112.779 282.982C112.728 282.918 112.673 282.857 112.614 282.801L121.971 264.881C122.029 264.938 122.084 264.998 122.136 265.062" fill="#3F2A8A"/>
    <path d="M121.971 264.881L112.615 282.8C112.568 282.755 112.52 282.712 112.47 282.671L121.826 264.751C121.877 264.792 121.925 264.835 121.971 264.881Z" fill="#422B8F"/>
    <path d="M121.826 264.751L112.47 282.67C112.445 282.649 112.418 282.628 112.391 282.609L121.747 264.689C121.774 264.709 121.801 264.73 121.826 264.751Z" fill="#442D94"/>
    <path d="M161.225 294.662L151.869 312.581L151.826 312.558C151.559 312.404 151.288 312.261 151.013 312.127L160.369 294.208C160.644 294.342 160.915 294.485 161.181 294.639L161.225 294.662Z" fill="#49309E"/>
    <path d="M154.965 292.943L145.609 310.862C145.167 310.86 144.726 310.882 144.286 310.93C143.776 310.985 143.269 311.076 142.771 311.2L152.127 293.281C152.625 293.156 153.131 293.066 153.641 293.011C154.081 292.963 154.523 292.94 154.965 292.943Z" fill="#5739BD"/>
    <path d="M166.366 300.289L157.01 318.209C156.599 317.281 156.068 316.41 155.43 315.619L164.786 297.699C165.424 298.49 165.955 299.36 166.366 300.289Z" fill="#3D2885"/>
    <path d="M164.786 297.698L155.43 315.618C155.129 315.243 154.806 314.886 154.463 314.549L163.819 296.629C164.161 296.966 164.484 297.324 164.786 297.699" fill="#3F2A8A"/>
    <path d="M163.819 296.631L154.464 314.551C154.186 314.277 153.895 314.015 153.59 313.767L162.946 295.847C163.251 296.095 163.543 296.356 163.819 296.63" fill="#422B8F"/>
    <path d="M162.946 295.848L153.59 313.768C153.321 313.549 153.042 313.34 152.753 313.141L162.108 295.221C162.402 295.417 162.676 295.629 162.946 295.848Z" fill="#442D94"/>
    <path d="M162.107 295.221L152.752 313.141C152.467 312.949 152.175 312.763 151.875 312.585L161.231 294.665C161.533 294.839 161.826 295.024 162.108 295.221" fill="#462E99"/>
    <path d="M161.226 294.663L151.87 312.583L151.827 312.559C151.56 312.406 151.289 312.262 151.014 312.129L160.37 294.209C160.645 294.342 160.916 294.486 161.182 294.639L161.226 294.663Z" fill="#49309E"/>
    <path d="M160.37 294.213L151.015 312.133C150.725 311.994 150.432 311.866 150.136 311.747L159.491 293.827C159.789 293.945 160.082 294.074 160.37 294.213Z" fill="#4B31A3"/>
    <path d="M159.491 293.825L150.136 311.745C149.828 311.623 149.518 311.515 149.204 311.417L158.559 293.497C158.873 293.595 159.184 293.703 159.491 293.825Z" fill="#4D33A8"/>
    <path d="M158.558 293.498L149.203 311.418C148.868 311.314 148.53 311.225 148.189 311.15L157.546 293.23C157.885 293.306 158.224 293.394 158.558 293.498Z" fill="#5034AD"/>
    <path d="M157.545 293.23L148.189 311.15C147.807 311.063 147.424 310.997 147.038 310.952L156.397 293.033C156.782 293.081 157.165 293.147 157.548 293.231" fill="#5236B3"/>
    <path d="M156.398 293.035L147.041 310.955C146.568 310.897 146.091 310.866 145.614 310.864L154.969 292.944C155.447 292.946 155.924 292.976 156.398 293.035Z" fill="#5437B8"/>
    <path d="M154.967 292.942L145.611 310.862C145.169 310.859 144.728 310.882 144.288 310.929C143.778 310.985 143.271 311.075 142.773 311.199L152.129 293.279C152.627 293.155 153.133 293.065 153.643 293.009C154.083 292.962 154.525 292.939 154.967 292.942Z" fill="#5739BD"/>
    <path d="M166.231 308.865L156.875 326.785C157.12 326.317 157.324 325.827 157.484 325.323C158 323.671 158.067 321.911 157.677 320.224C157.521 319.531 157.297 318.856 157.007 318.207L166.363 300.287C166.651 300.935 166.876 301.611 167.033 302.304C167.422 303.99 167.355 305.75 166.84 307.403C166.679 307.907 166.476 308.396 166.231 308.865Z" fill="#3D2885"/>
    <path d="M154.965 292.943L145.609 310.862C145.167 310.86 144.726 310.883 144.286 310.93C143.776 310.985 143.269 311.076 142.771 311.2L152.127 293.28C152.625 293.156 153.131 293.066 153.641 293.01C154.081 292.962 154.523 292.94 154.965 292.943Z" fill="#5739BD"/>
    <path d="M152.127 293.281L142.771 311.2C142.516 311.264 142.266 311.336 142.019 311.417L151.374 293.498C151.62 293.416 151.872 293.344 152.127 293.281Z" fill="#593BC2"/>
    <path d="M151.374 293.498L142.019 311.417C141.397 311.619 140.795 311.879 140.22 312.193C139.98 312.328 139.746 312.47 139.519 312.618L148.874 294.698C149.095 294.549 149.336 294.405 149.577 294.273C150.151 293.96 150.752 293.7 151.374 293.498Z" fill="#5739BD"/>
    <path d="M151.375 293.501L142.02 311.42C141.398 311.622 140.796 311.882 140.221 312.195C139.981 312.331 139.747 312.472 139.52 312.62L148.875 294.701C149.096 294.551 149.336 294.408 149.578 294.276C150.152 293.962 150.753 293.703 151.375 293.501Z" fill="#5739BD"/>
    <path d="M166.231 308.865L156.875 326.785C157.12 326.317 157.324 325.827 157.484 325.323C158 323.671 158.067 321.911 157.677 320.224C157.521 319.531 157.297 318.856 157.007 318.207L166.363 300.287C166.651 300.935 166.876 301.611 167.033 302.304C167.422 303.99 167.355 305.75 166.84 307.403C166.679 307.907 166.476 308.396 166.231 308.865Z" fill="#3D2885"/>
    <path d="M151.375 293.5L142.02 311.42C141.398 311.622 140.795 311.882 140.221 312.195C139.981 312.331 139.747 312.472 139.52 312.62L148.875 294.701C149.096 294.551 149.336 294.408 149.578 294.276C150.152 293.962 150.753 293.703 151.375 293.5Z" fill="#5739BD"/>
    <path d="M148.876 294.7L139.521 312.62C139.152 312.864 138.8 313.133 138.468 313.426L147.824 295.507C148.156 295.214 148.507 294.945 148.876 294.7Z" fill="#5437B8"/>
    <path d="M147.818 295.508L138.462 313.428C138.194 313.665 137.939 313.917 137.699 314.183L147.056 296.263C147.295 295.997 147.55 295.745 147.818 295.508Z" fill="#5236B3"/>
    <path d="M147.062 296.262L137.705 314.181C137.505 314.402 137.317 314.633 137.139 314.872L137.103 314.921L146.458 297.002L146.495 296.952C146.673 296.713 146.862 296.482 147.062 296.262Z" fill="#5034AD"/>
    <path d="M147.062 296.264L137.706 314.183C137.506 314.403 137.318 314.634 137.14 314.873L137.104 314.923L146.459 297.004L146.496 296.954C146.674 296.715 146.863 296.484 147.062 296.264Z" fill="#5034AD"/>
    <path d="M166.231 308.865L156.875 326.785C157.12 326.317 157.324 325.827 157.484 325.323C158 323.671 158.067 321.911 157.677 320.224C157.521 319.531 157.297 318.856 157.007 318.207L166.363 300.287C166.651 300.935 166.876 301.611 167.033 302.304C167.422 303.99 167.355 305.75 166.84 307.403C166.679 307.907 166.476 308.396 166.231 308.865Z" fill="#3D2885"/>
    <path d="M147.062 296.263L137.706 314.182C137.506 314.403 137.318 314.634 137.139 314.873L137.104 314.922L146.459 297.004L146.496 296.954C146.674 296.715 146.863 296.484 147.062 296.263Z" fill="#5034AD"/>
    <path d="M146.459 297.004L137.104 314.922C136.929 315.162 136.767 315.407 136.616 315.658L145.973 297.739C146.122 297.487 146.285 297.242 146.459 297.004Z" fill="#4D33A8"/>
    <path d="M145.974 297.742L136.617 315.661C136.534 315.805 136.455 315.948 136.377 316.091L145.734 298.172C145.809 298.03 145.89 297.886 145.974 297.742Z" fill="#4B31A3"/>
    <path d="M166.233 308.869L156.878 326.789C156.801 326.932 156.722 327.075 156.639 327.219L165.995 309.299C166.079 309.158 166.158 309.015 166.233 308.869Z" fill="#A3A3A3"/>
    <path d="M165.995 309.297L156.639 327.217C156.489 327.471 156.326 327.716 156.151 327.953L165.508 310.033C165.682 309.795 165.844 309.549 165.995 309.297Z" fill="#A8A8A8"/>
    <path d="M165.507 310.035L156.151 327.955C155.965 328.21 155.766 328.455 155.555 328.689L164.91 310.769C165.123 310.535 165.324 310.29 165.512 310.034" fill="#ADADAD"/>
    <path d="M164.91 310.769L155.555 328.688C155.316 328.954 155.062 329.205 154.794 329.441L164.15 311.521C164.418 311.285 164.672 311.034 164.91 310.769Z" fill="#B3B3B3"/>
    <path d="M164.149 311.522L154.794 329.442C154.459 329.737 154.104 330.01 153.732 330.257L163.087 312.337C163.46 312.09 163.815 311.818 164.149 311.522Z" fill="#B8B8B8"/>
    <path d="M163.088 312.337L153.733 330.257C153.511 330.405 153.274 330.548 153.032 330.68C152.458 330.993 151.856 331.252 151.233 331.453L160.589 313.533C161.212 313.332 161.814 313.073 162.389 312.76C162.629 312.628 162.863 312.486 163.088 312.337Z" fill="#BDBDBD"/>
    <path d="M160.59 313.534L151.234 331.454C151.005 331.53 150.772 331.596 150.536 331.656L159.892 313.736C160.132 313.675 160.361 313.61 160.59 313.534Z" fill="#C2C2C2"/>
    <path d="M159.892 313.736L150.535 331.656C149.587 331.893 148.614 332.009 147.637 332.002L156.992 314.083C157.969 314.09 158.943 313.973 159.892 313.736Z" fill="#BDBDBD"/>
    <path d="M156.991 314.082L147.636 332.002C147.157 331.999 146.678 331.969 146.202 331.91L155.558 313.99C156.034 314.049 156.512 314.08 156.991 314.082Z" fill="#B8B8B8"/>
    <path d="M155.558 313.989L146.201 331.909C146.029 331.887 145.857 331.862 145.68 331.835C145.475 331.8 145.271 331.759 145.067 331.712L154.423 313.792C154.627 313.837 154.831 313.878 155.036 313.915C155.209 313.943 155.381 313.968 155.558 313.989Z" fill="#B3B3B3"/>
    <path d="M154.427 313.796L145.072 331.716C144.725 331.64 144.383 331.55 144.047 331.446L153.402 313.526C153.74 313.629 154.082 313.719 154.427 313.796Z" fill="#ADADAD"/>
    <path d="M153.401 313.52L144.046 331.44C143.727 331.339 143.414 331.229 143.106 331.11L152.462 313.19C152.77 313.312 153.084 313.422 153.401 313.52Z" fill="#A8A8A8"/>
    <path d="M152.464 313.194L143.108 331.114C142.808 330.996 142.512 330.866 142.222 330.726L151.578 312.806C151.869 312.947 152.163 313.076 152.464 313.194Z" fill="#A3A3A3"/>
    <path d="M151.577 312.806L142.221 330.726C141.931 330.585 141.646 330.435 141.366 330.275L150.722 312.355C151 312.516 151.284 312.667 151.577 312.806Z" fill="#9E9E9E"/>
    <path d="M150.725 312.354L141.369 330.274C141.081 330.109 140.802 329.933 140.532 329.745L149.888 311.825C150.161 312.012 150.439 312.188 150.725 312.354Z" fill="#999999"/>
    <path d="M149.888 311.825L140.531 329.745C140.244 329.546 139.964 329.337 139.692 329.117L149.048 311.197C149.319 311.417 149.6 311.627 149.888 311.825Z" fill="#949494"/>
    <path d="M149.049 311.197L139.692 329.117C139.387 328.87 139.098 328.61 138.823 328.337L148.179 310.417C148.457 310.691 148.747 310.951 149.049 311.197Z" fill="#8F8F8F"/>
    <path d="M148.179 310.418L138.823 328.338L138.757 328.272C138.425 327.943 138.112 327.596 137.82 327.231L147.176 309.311C147.468 309.676 147.781 310.023 148.113 310.352L148.179 310.418Z" fill="#8A8A8A"/>
    <path d="M147.176 309.31L137.82 327.23C136.732 325.888 135.965 324.315 135.578 322.631C135.506 322.294 135.445 321.955 135.402 321.614C135.161 319.715 135.501 317.788 136.377 316.086L145.732 298.166C144.856 299.869 144.517 301.796 144.759 303.695C144.8 304.037 144.858 304.377 144.934 304.712C145.321 306.396 146.088 307.969 147.176 309.311" fill="#858585"/>
    <path d="M167.035 302.308C167.423 303.995 167.356 305.755 166.84 307.407C166.101 309.699 164.506 311.617 162.387 312.76C160.134 313.954 157.548 314.36 155.038 313.915C152.417 313.469 149.998 312.224 148.111 310.351C146.535 308.812 145.431 306.856 144.928 304.712C144.852 304.376 144.794 304.036 144.752 303.695C144.443 301.305 145.067 298.889 146.494 296.948C147.317 295.844 148.369 294.931 149.577 294.27C150.836 293.587 152.217 293.158 153.641 293.008C156.264 292.744 158.902 293.316 161.18 294.641C163.467 295.922 165.284 297.902 166.364 300.29C166.653 300.939 166.878 301.615 167.035 302.308Z" fill="#CDCDCD"/>
    <path d="M135.398 323.039L126.044 340.96C124.475 333.977 122.906 326.994 121.337 320.01C118.618 307.916 115.89 295.823 113.152 283.73L122.507 265.809C125.247 277.901 127.975 289.995 130.691 302.09C132.26 309.074 133.829 316.057 135.398 323.039Z" fill="#3D2885"/>
    <path d="M135.398 323.04L126.043 340.96L124.56 341.122L133.916 323.202L135.398 323.04Z" fill="#CCCCCC"/>
    <path d="M130.692 302.091C132.261 309.075 133.829 316.059 135.397 323.04L133.915 323.202C132.161 323.28 130.42 323.418 128.649 323.415C110.402 323.491 92.8435 316.452 79.702 303.792C70.3156 295.261 63.767 284.061 60.9368 271.697C60.7717 270.962 60.6239 270.224 60.481 269.48C57.6445 254.387 60.6237 240.773 69.1258 228.699C69.2173 228.642 69.3204 228.607 69.4273 228.596C69.5343 228.584 69.6423 228.597 69.7438 228.632C87.092 240.639 104.425 252.659 121.742 264.692C122.117 264.966 122.387 265.361 122.506 265.81C125.247 277.903 127.975 289.997 130.692 302.091Z" fill="#CDCDCD"/>
    <path d="M133.92 323.203L124.565 341.122C122.832 341.199 121.104 341.336 119.355 341.334L128.711 323.415C130.46 323.416 132.189 323.279 133.92 323.203Z" fill="#BDBDBD"/>
    <path d="M128.715 323.415L119.359 341.334L119.308 341.333C116.317 341.313 113.329 341.121 110.36 340.757L119.716 322.838C122.685 323.201 125.672 323.393 128.663 323.414L128.715 323.415Z" fill="#B8B8B8"/>
    <path d="M119.712 322.837L110.356 340.756C108.105 340.476 105.887 340.097 103.702 339.619L113.059 321.699C115.239 322.179 117.457 322.558 119.712 322.837Z" fill="#B3B3B3"/>
    <path d="M113.059 321.702L103.702 339.621C101.833 339.209 99.9911 338.724 98.1754 338.165L107.532 320.245C109.346 320.805 111.188 321.291 113.059 321.703" fill="#ADADAD"/>
    <path d="M107.531 320.24L98.174 338.159C96.5093 337.644 94.8689 337.065 93.253 336.423L102.61 318.504C104.227 319.144 105.868 319.722 107.531 320.24Z" fill="#A8A8A8"/>
    <path d="M102.606 318.514L93.2497 336.434C91.6852 335.815 90.143 335.138 88.6228 334.403L97.9793 316.483C99.4989 317.22 101.041 317.897 102.606 318.514Z" fill="#A3A3A3"/>
    <path d="M97.9795 316.485L88.623 334.404C87.0896 333.662 85.5785 332.86 84.0902 331.997L93.4455 314.077C94.9339 314.941 96.4454 315.744 97.9795 316.485Z" fill="#9E9E9E"/>
    <path d="M93.4452 314.077L84.0899 331.997C82.5228 331.088 80.9811 330.113 79.465 329.071L88.8214 311.152C90.336 312.194 91.8773 313.169 93.4452 314.077Z" fill="#999999"/>
    <path d="M88.8218 311.152L79.4654 329.071C77.7876 327.92 76.1427 326.686 74.5301 325.369L83.8853 307.449C85.4986 308.765 87.1439 309.999 88.8218 311.152Z" fill="#949494"/>
    <path d="M83.8843 307.449L74.529 325.368C73.1127 324.214 71.7213 322.996 70.3547 321.714C69.9115 321.302 69.4749 320.884 69.0454 320.457L78.4006 302.538C78.8276 302.96 79.2643 303.379 79.7099 303.795C81.0779 305.075 82.4694 306.293 83.8843 307.449Z" fill="#8F8F8F"/>
    <path d="M78.3997 302.536L69.0445 320.455C67.118 318.564 65.3046 316.562 63.6129 314.458L72.9686 296.539C74.6604 298.642 76.4739 300.645 78.3997 302.536Z" fill="#8A8A8A"/>
    <path d="M72.9686 296.541L63.6134 314.461C57.7436 307.218 53.628 298.716 51.5883 289.62C51.4227 288.885 51.2699 288.146 51.1306 287.403C48.6971 275.742 50.3679 263.597 55.86 253.026L65.2158 235.106C59.7229 245.677 58.0522 257.822 60.4864 269.483C60.6257 270.227 60.7772 270.965 60.9423 271.7C62.9833 280.796 67.0992 289.298 72.9686 296.541Z" fill="#858585"/>
    <path d="M213.298 306.487L204.266 323.662C203.601 324.924 202.903 326.168 202.172 327.392L211.204 310.218C211.935 308.994 212.633 307.75 213.298 306.487Z" fill="#4B31A3"/>
    <path d="M211.204 310.219L202.172 327.393C200.865 329.582 199.452 331.707 197.934 333.768L206.966 316.593C208.478 314.536 209.89 312.411 211.204 310.219Z" fill="#4D33A8"/>
    <path d="M206.966 316.594L197.934 333.769C196.31 335.973 194.574 338.093 192.731 340.12L201.768 322.946C203.61 320.918 205.347 318.798 206.971 316.594" fill="#5034AD"/>
    <path d="M201.769 322.947L192.737 340.122C190.653 342.416 188.44 344.59 186.107 346.633L195.139 329.458C197.471 327.414 199.685 325.241 201.769 322.947Z" fill="#5236B3"/>
    <path d="M195.135 329.459L186.103 346.634C183.237 349.143 180.203 351.454 177.021 353.551L186.053 336.377C189.235 334.279 192.269 331.968 195.135 329.459Z" fill="#5437B8"/>
    <path d="M186.053 336.377L177.02 353.552C169.702 358.355 161.709 362.051 153.304 364.519L162.334 347.345C170.74 344.877 178.734 341.181 186.053 336.377Z" fill="#5739BD"/>
    <path d="M162.334 347.345L153.304 364.519C152.347 364.803 151.382 365.073 150.408 365.327L159.44 348.153C160.414 347.897 161.378 347.628 162.334 347.345Z" fill="#593BC2"/>
    <path d="M159.44 348.153L150.407 365.328C145.737 366.547 140.984 367.421 136.186 367.943C132.386 368.36 128.567 368.565 124.745 368.558L133.777 351.384C137.598 351.391 141.418 351.185 145.218 350.768C150.016 350.247 154.769 349.372 159.44 348.153Z" fill="#5739BD"/>
    <path d="M133.773 351.383L124.741 368.557C120.558 368.548 116.38 368.29 112.23 367.784L121.262 350.61C125.413 351.115 129.59 351.373 133.773 351.383Z" fill="#5437B8"/>
    <path d="M121.261 350.61L112.229 367.784C108.916 367.381 105.634 366.827 102.385 366.123L111.417 348.949C114.663 349.654 117.944 350.209 121.262 350.616" fill="#5236B3"/>
    <path d="M111.415 348.945L102.383 366.12C99.434 365.479 96.52 364.719 93.6418 363.838L102.673 346.664C105.549 347.542 108.463 348.302 111.415 348.945Z" fill="#5034AD"/>
    <path d="M102.673 346.663L93.6418 363.837C90.9143 363.004 88.2258 362.068 85.5761 361.028L94.6081 343.854C97.255 344.892 99.9431 345.828 102.673 346.663Z" fill="#4D33A8"/>
    <path d="M94.6078 343.854L85.5758 361.029C82.9833 360.014 80.4355 358.905 77.9319 357.7L86.9639 340.526C89.4655 341.728 92.0133 342.838 94.6078 343.854Z" fill="#4B31A3"/>
    <path d="M86.9629 340.527L77.9309 357.702C75.4158 356.493 72.9511 355.193 70.5371 353.803L79.569 336.629C81.981 338.017 84.4457 339.316 86.9629 340.527Z" fill="#49309E"/>
    <path d="M79.569 336.629L70.5371 353.803C68.05 352.371 65.6237 350.848 63.2587 349.234L72.2906 332.059C74.653 333.673 77.0793 335.196 79.569 336.629Z" fill="#462E99"/>
    <path d="M72.2896 332.059L63.2577 349.234C60.7288 347.506 58.2778 345.679 55.9036 343.754L64.9338 326.58C67.3053 328.504 69.7573 330.33 72.2896 332.059Z" fill="#442D94"/>
    <path d="M64.9336 326.581L55.9035 343.755C53.2408 341.596 50.6885 339.319 48.247 336.925L57.2789 319.751C59.7157 322.138 62.2671 324.415 64.9336 326.581Z" fill="#422B8F"/>
    <path d="M57.2788 319.752L48.247 336.926C45.2835 334.022 42.494 330.947 39.8927 327.717L48.9245 310.543C51.5256 313.773 54.3151 316.848 57.2788 319.752Z" fill="#3F2A8A"/>
    <path d="M48.9219 310.543L39.8909 327.717C30.5575 316.247 23.9857 302.803 20.6766 288.41C16.1179 268.111 19.0124 248.604 27.6233 232.233L36.6543 215.059C28.0434 231.43 25.1431 250.937 29.7076 271.235C33.0156 285.629 39.5876 299.073 48.9219 310.543Z" fill="#3D2885"/>
    <path d="M221.598 253.33C233.262 305.235 198.44 352.144 143.82 358.102C89.1998 364.06 35.4532 326.814 23.7882 274.911C12.1233 223.007 46.9485 176.086 101.569 170.128C156.189 164.17 209.93 201.415 221.598 253.33ZM77.42 219.642C81.027 222.163 84.5138 224.583 87.9963 226.982C88.0656 227.009 88.1401 227.02 88.2141 227.013C88.2882 227.007 88.3601 226.984 88.4238 226.946C98.6362 219.419 110.576 216.387 124.217 218.017C146.225 220.64 165.492 236.82 170.963 257.187C171.143 257.858 171.309 258.527 171.458 259.196C173.359 267.269 172.884 275.719 170.093 283.529C171.426 284.763 172.859 285.885 174.378 286.883L180.733 291.297C184.465 282.785 185.863 273.434 184.783 264.203C184.603 262.576 184.317 260.96 184.084 259.35L183.439 256.477L183.253 255.939C182.349 253.273 181.62 250.565 180.52 247.951C169.74 222.145 142.366 204.861 113.934 205.901C101.028 206.157 88.5691 210.672 78.4959 218.743C78.1371 219.042 77.7792 219.339 77.4237 219.648L77.42 219.642ZM133.92 323.206L135.403 323.044C133.835 316.061 132.266 309.079 130.698 302.095C127.981 290.001 125.253 277.907 122.516 265.815C122.397 265.366 122.128 264.971 121.753 264.696C104.429 252.661 87.0943 240.639 69.7485 228.63C69.647 228.595 69.5392 228.583 69.4323 228.595C69.3255 228.606 69.2223 228.642 69.1308 228.698C60.6282 240.771 57.6474 254.385 60.485 269.479C60.6242 270.223 60.7758 270.961 60.9408 271.696C63.7703 284.06 70.3197 295.26 79.707 303.79C92.8478 316.45 110.405 323.489 128.652 323.413C130.423 323.416 132.164 323.278 133.918 323.2L133.92 323.206ZM166.363 300.292C165.283 297.904 163.466 295.924 161.179 294.643C158.901 293.318 156.262 292.746 153.64 293.01C152.215 293.16 150.835 293.589 149.575 294.272C148.367 294.933 147.316 295.846 146.493 296.95C145.065 298.891 144.442 301.308 144.751 303.697C144.792 304.038 144.85 304.377 144.926 304.713C145.429 306.859 146.533 308.818 148.111 310.358C149.997 312.231 152.417 313.476 155.038 313.922C157.547 314.367 160.134 313.96 162.386 312.767C164.505 311.624 166.101 309.706 166.841 307.414C167.356 305.762 167.423 304.002 167.034 302.315C166.877 301.623 166.653 300.947 166.364 300.298" fill="#6543DD"/>
</svg>
