<?xml version="1.0" encoding="UTF-8"?>
<svg xmlns="http://www.w3.org/2000/svg" xmlns:xlink="http://www.w3.org/1999/xlink" width="16px" height="16px" viewBox="0 0 16 16" version="1.1">
<g id="surface1">
<path style=" stroke:none;fill-rule:evenodd;fill:rgb(100%,100%,100%);fill-opacity:1;" d="M 8 0 C 12.417969 0 16 3.582031 16 8 C 16 12.417969 12.417969 16 8 16 C 3.582031 16 0 12.417969 0 8 C 0 3.582031 3.582031 0 8 0 Z M 8 0 "/>
<path style=" stroke:none;fill-rule:nonzero;fill:rgb(11.764706%,11.764706%,11.764706%);fill-opacity:1;" d="M 8.015625 11.398438 C 5.457031 11.398438 3.382812 10.660156 3.382812 9.667969 C 3.382812 9.152344 3.945312 8.6875 4.851562 8.359375 C 5.554688 8.8125 6.742188 9.042969 8.082031 9.042969 C 9.394531 9.042969 10.550781 8.757812 11.265625 8.328125 C 12.117188 8.652344 12.648438 9.101562 12.648438 9.601562 C 12.648438 10.59375 10.574219 11.398438 8.015625 11.398438 Z M 8.015625 11.398438 "/>
<path style=" stroke:none;fill-rule:nonzero;fill:rgb(11.764706%,11.764706%,11.764706%);fill-opacity:1;" d="M 8.042969 8.820312 C 6.101562 8.820312 4.53125 8.210938 4.53125 7.460938 C 4.53125 7.046875 5.015625 6.671875 5.773438 6.425781 C 6.316406 6.710938 7.128906 6.890625 8.042969 6.890625 C 8.953125 6.890625 9.765625 6.710938 10.308594 6.425781 C 11.070312 6.675781 11.554688 7.046875 11.554688 7.460938 C 11.554688 8.210938 9.984375 8.820312 8.042969 8.820312 Z M 8.042969 8.820312 "/>
<path style=" stroke:none;fill-rule:nonzero;fill:rgb(11.764706%,11.764706%,11.764706%);fill-opacity:1;" d="M 8.027344 6.664062 C 6.53125 6.664062 5.3125 6.160156 5.3125 5.542969 C 5.3125 4.925781 6.53125 4.421875 8.027344 4.421875 C 9.527344 4.421875 10.742188 4.925781 10.742188 5.542969 C 10.742188 6.160156 9.527344 6.664062 8.027344 6.664062 Z M 8.027344 6.664062 "/>
<path style="fill:none;stroke-width:5;stroke-linecap:butt;stroke-linejoin:miter;stroke:rgb(0%,0%,0%);stroke-opacity:1;stroke-miterlimit:10;" d="M 417.394088 201.813559 C 417.394088 277.179888 356.310008 338.263968 280.870437 338.263968 C 205.504109 338.263968 144.420029 277.179888 144.420029 201.813559 C 144.420029 126.373988 205.504109 65.289908 280.870437 65.289908 C 356.310008 65.289908 417.394088 126.373988 417.394088 201.813559 Z M 417.394088 201.813559 " transform="matrix(0.0533332,0,0,0.0533332,-6.979733,-2.759467)"/>
</g>
</svg>
