<?xml version="1.0" encoding="UTF-8"?>
<svg xmlns="http://www.w3.org/2000/svg" xmlns:xlink="http://www.w3.org/1999/xlink" width="24pt" height="24pt" viewBox="0 0 24 24" version="1.1">
<g id="surface1">
<path style=" stroke:none;fill-rule:evenodd;fill:rgb(100%,100%,100%);fill-opacity:1;" d="M 12 0 C 18.625 0 24 5.371094 24 12 C 24 18.625 18.625 24 12 24 C 5.371094 24 0 18.625 0 12 C 0 5.371094 5.371094 0 12 0 Z M 12 0 "/>
<path style=" stroke:none;fill-rule:nonzero;fill:rgb(11.764706%,11.764706%,11.764706%);fill-opacity:1;" d="M 12.023438 17.097656 C 8.183594 17.097656 5.074219 15.988281 5.074219 14.503906 C 5.074219 13.730469 5.921875 13.03125 7.277344 12.539062 C 8.335938 13.21875 10.113281 13.5625 12.125 13.5625 C 14.089844 13.5625 15.828125 13.140625 16.894531 12.488281 C 18.175781 12.976562 18.96875 13.65625 18.96875 14.40625 C 18.96875 15.890625 15.859375 17.097656 12.023438 17.097656 Z M 12.023438 17.097656 "/>
<path style=" stroke:none;fill-rule:nonzero;fill:rgb(11.764706%,11.764706%,11.764706%);fill-opacity:1;" d="M 12.0625 13.230469 C 9.152344 13.230469 6.792969 12.320312 6.792969 11.191406 C 6.792969 10.570312 7.523438 10.011719 8.660156 9.640625 C 9.472656 10.0625 10.695312 10.335938 12.0625 10.335938 C 13.429688 10.335938 14.648438 10.0625 15.464844 9.640625 C 16.605469 10.011719 17.332031 10.570312 17.332031 11.191406 C 17.332031 12.320312 14.972656 13.230469 12.0625 13.230469 Z M 12.0625 13.230469 "/>
<path style=" stroke:none;fill-rule:nonzero;fill:rgb(11.764706%,11.764706%,11.764706%);fill-opacity:1;" d="M 12.042969 9.996094 C 9.792969 9.996094 7.96875 9.242188 7.96875 8.316406 C 7.96875 7.390625 9.792969 6.636719 12.042969 6.636719 C 14.292969 6.636719 16.117188 7.390625 16.117188 8.316406 C 16.117188 9.242188 14.292969 9.996094 12.042969 9.996094 Z M 12.042969 9.996094 "/>
<path style="fill:none;stroke-width:5;stroke-linecap:butt;stroke-linejoin:miter;stroke:rgb(0%,0%,0%);stroke-opacity:1;stroke-miterlimit:10;" d="M 417.394088 201.789145 C 417.394088 277.179888 356.310008 338.312796 280.919265 338.312796 C 205.528523 338.312796 144.395615 277.179888 144.395615 201.789145 C 144.395615 126.398402 205.528523 65.314322 280.919265 65.314322 C 356.310008 65.314322 417.394088 126.398402 417.394088 201.789145 Z M 417.394088 201.789145 " transform="matrix(0.0799999,0,0,0.0799999,-10.4696,-4.1392)"/>
</g>
</svg>
