<?xml version="1.0" encoding="UTF-8"?>
<svg xmlns="http://www.w3.org/2000/svg" xmlns:xlink="http://www.w3.org/1999/xlink" width="32px" height="32px" viewBox="0 0 32 32" version="1.1">
<g id="surface1">
<path style=" stroke:none;fill-rule:evenodd;fill:rgb(100%,100%,100%);fill-opacity:1;" d="M 16 0 C 24.835938 0 32 7.164062 32 16 C 32 24.835938 24.835938 32 16 32 C 7.164062 32 0 24.835938 0 16 C 0 7.164062 7.164062 0 16 0 Z M 16 0 "/>
<path style=" stroke:none;fill-rule:nonzero;fill:rgb(11.764706%,11.764706%,11.764706%);fill-opacity:1;" d="M 16.03125 22.796875 C 10.914062 22.796875 6.765625 21.320312 6.765625 19.335938 C 6.765625 18.304688 7.894531 17.375 9.703125 16.71875 C 11.113281 17.625 13.484375 18.085938 16.164062 18.085938 C 18.789062 18.085938 21.101562 17.519531 22.527344 16.652344 C 24.234375 17.304688 25.292969 18.207031 25.292969 19.207031 C 25.292969 21.1875 21.148438 22.796875 16.03125 22.796875 Z M 16.03125 22.796875 "/>
<path style=" stroke:none;fill-rule:nonzero;fill:rgb(11.764706%,11.764706%,11.764706%);fill-opacity:1;" d="M 16.085938 17.640625 C 12.203125 17.640625 9.058594 16.425781 9.058594 14.921875 C 9.058594 14.09375 10.03125 13.347656 11.546875 12.851562 C 12.632812 13.417969 14.257812 13.78125 16.085938 13.78125 C 17.90625 13.78125 19.53125 13.417969 20.617188 12.851562 C 22.140625 13.351562 23.109375 14.09375 23.109375 14.921875 C 23.109375 16.425781 19.964844 17.640625 16.085938 17.640625 Z M 16.085938 17.640625 "/>
<path style=" stroke:none;fill-rule:nonzero;fill:rgb(11.764706%,11.764706%,11.764706%);fill-opacity:1;" d="M 16.054688 13.328125 C 13.058594 13.328125 10.625 12.320312 10.625 11.085938 C 10.625 9.851562 13.058594 8.847656 16.054688 8.847656 C 19.054688 8.847656 21.488281 9.851562 21.488281 11.085938 C 21.488281 12.320312 19.054688 13.328125 16.054688 13.328125 Z M 16.054688 13.328125 "/>
<path style="fill:none;stroke-width:5;stroke-linecap:butt;stroke-linejoin:miter;stroke:rgb(0%,0%,0%);stroke-opacity:1;stroke-miterlimit:10;" d="M 417.394088 201.776938 C 417.394088 277.179888 356.273387 338.300589 280.907058 338.300589 C 205.504109 338.300589 144.383408 277.179888 144.383408 201.776938 C 144.383408 126.410609 205.504109 65.289908 280.907058 65.289908 C 356.273387 65.289908 417.394088 126.410609 417.394088 201.776938 Z M 417.394088 201.776938 " transform="matrix(0.106666,0,0,0.106666,-13.959466,-5.518934)"/>
</g>
</svg>
