<?xml version="1.0" encoding="UTF-8"?>
<svg xmlns="http://www.w3.org/2000/svg" xmlns:xlink="http://www.w3.org/1999/xlink" width="40pt" height="40pt" viewBox="0 0 40 40" version="1.1">
<g id="surface1">
<path style=" stroke:none;fill-rule:evenodd;fill:rgb(100%,100%,100%);fill-opacity:1;" d="M 20 0 C 31.046875 0 40 8.953125 40 20 C 40 31.046875 31.046875 40 20 40 C 8.953125 40 0 31.046875 0 20 C 0 8.953125 8.953125 0 20 0 Z M 20 0 "/>
<path style=" stroke:none;fill-rule:nonzero;fill:rgb(11.764706%,11.764706%,11.764706%);fill-opacity:1;" d="M 20.035156 28.496094 C 13.640625 28.496094 8.457031 26.648438 8.457031 24.171875 C 8.457031 22.882812 9.867188 21.714844 12.128906 20.894531 C 13.890625 22.027344 16.851562 22.609375 20.207031 22.609375 C 23.484375 22.609375 26.378906 21.898438 28.160156 20.816406 C 30.292969 21.628906 31.617188 22.757812 31.617188 24.007812 C 31.617188 26.488281 26.433594 28.496094 20.035156 28.496094 Z M 20.035156 28.496094 "/>
<path style=" stroke:none;fill-rule:nonzero;fill:rgb(11.764706%,11.764706%,11.764706%);fill-opacity:1;" d="M 20.105469 22.050781 C 15.257812 22.050781 11.324219 20.53125 11.324219 18.65625 C 11.324219 17.617188 12.535156 16.683594 14.4375 16.0625 C 15.789062 16.773438 17.824219 17.222656 20.105469 17.222656 C 22.382812 17.222656 24.417969 16.773438 25.773438 16.0625 C 27.675781 16.6875 28.882812 17.617188 28.882812 18.65625 C 28.890625 20.53125 24.957031 22.050781 20.105469 22.050781 Z M 20.105469 22.050781 "/>
<path style=" stroke:none;fill-rule:nonzero;fill:rgb(11.764706%,11.764706%,11.764706%);fill-opacity:1;" d="M 20.070312 16.660156 C 16.324219 16.660156 13.285156 15.402344 13.285156 13.859375 C 13.285156 12.316406 16.324219 11.058594 20.070312 11.058594 C 23.820312 11.058594 26.859375 12.316406 26.859375 13.859375 C 26.859375 15.402344 23.820312 16.660156 20.070312 16.660156 Z M 20.070312 16.660156 "/>
<path style="fill:none;stroke-width:5;stroke-linecap:butt;stroke-linejoin:miter;stroke:rgb(0%,0%,0%);stroke-opacity:1;stroke-miterlimit:10;" d="M 417.394088 201.798911 C 417.394088 277.179888 356.280711 338.293265 280.899734 338.293265 C 205.518757 338.293265 144.40538 277.179888 144.40538 201.798911 C 144.40538 126.417933 205.518757 65.304557 280.899734 65.304557 C 356.280711 65.304557 417.394088 126.417933 417.394088 201.798911 Z M 417.394088 201.798911 " transform="matrix(0.133333,0,0,0.133333,-17.449333,-6.898667)"/>
</g>
</svg>
