<?xml version="1.0" encoding="UTF-8"?>
<svg xmlns="http://www.w3.org/2000/svg" xmlns:xlink="http://www.w3.org/1999/xlink" width="64px" height="64px" viewBox="0 0 64 64" version="1.1">
<g id="surface1">
<path style=" stroke:none;fill-rule:evenodd;fill:rgb(100%,100%,100%);fill-opacity:1;" d="M 32 0 C 49.671875 0 64 14.328125 64 32 C 64 49.671875 49.671875 64 32 64 C 14.328125 64 0 49.671875 0 32 C 0 14.328125 14.328125 0 32 0 Z M 32 0 "/>
<path style=" stroke:none;fill-rule:nonzero;fill:rgb(11.764706%,11.764706%,11.764706%);fill-opacity:1;" d="M 32.058594 45.59375 C 21.824219 45.59375 13.53125 42.636719 13.53125 38.675781 C 13.53125 36.609375 15.789062 34.746094 19.40625 33.433594 C 22.226562 35.246094 26.964844 36.171875 32.332031 36.171875 C 37.574219 36.171875 42.207031 35.039062 45.054688 33.304688 C 48.46875 34.605469 50.585938 36.414062 50.585938 38.414062 C 50.585938 42.378906 42.292969 45.59375 32.058594 45.59375 Z M 32.058594 45.59375 "/>
<path style=" stroke:none;fill-rule:nonzero;fill:rgb(11.764706%,11.764706%,11.764706%);fill-opacity:1;" d="M 32.167969 35.28125 C 24.410156 35.28125 18.117188 32.851562 18.117188 29.847656 C 18.117188 28.1875 20.058594 26.695312 23.097656 25.703125 C 25.265625 26.835938 28.519531 27.558594 32.167969 27.558594 C 35.8125 27.558594 39.066406 26.835938 41.234375 25.703125 C 44.28125 26.699219 46.214844 28.1875 46.214844 29.847656 C 46.222656 32.851562 39.929688 35.28125 32.167969 35.28125 Z M 32.167969 35.28125 "/>
<path style=" stroke:none;fill-rule:nonzero;fill:rgb(11.764706%,11.764706%,11.764706%);fill-opacity:1;" d="M 32.113281 26.65625 C 26.117188 26.65625 21.253906 24.644531 21.253906 22.175781 C 21.253906 19.707031 26.117188 17.695312 32.113281 17.695312 C 38.113281 17.695312 42.976562 19.707031 42.976562 22.175781 C 42.976562 24.644531 38.113281 26.65625 32.113281 26.65625 Z M 32.113281 26.65625 "/>
<path style="fill:none;stroke-width:5;stroke-linecap:butt;stroke-linejoin:miter;stroke:rgb(0%,0%,0%);stroke-opacity:1;stroke-miterlimit:10;" d="M 417.393438 201.794932 C 417.393438 277.179453 356.291143 338.300059 280.906621 338.300059 C 205.5221 338.300059 144.401494 277.179453 144.401494 201.794932 C 144.401494 126.41041 205.5221 65.308115 280.906621 65.308115 C 356.291143 65.308115 417.393438 126.41041 417.393438 201.794932 Z M 417.393438 201.794932 " transform="matrix(0.213333,0,0,0.213333,-27.918933,-11.037867)"/>
</g>
</svg>
