<?xml version="1.0" encoding="UTF-8"?>
<svg version="1.1" xmlns="http://www.w3.org/2000/svg" width="100" height="100">
<path d="M0 0 C10.0990751 9.36885548 16.41971301 21.00869306 17.32421875 34.89453125 C17.76281748 50.32983265 13.68864558 63.00662933 3.11328125 74.40625 C-8.00797466 84.99720079 -21.13627148 89.1801157 -36.33203125 88.90234375 C-50.51662039 87.92033373 -61.62457565 82.01950184 -71.3671875 71.7890625 C-81.1678048 60.23239344 -83.90954097 46.4303487 -82.88671875 31.65625 C-80.85951272 17.78947937 -74.07981398 6.19226092 -62.88671875 -2.34375 C-43.30469509 -15.15250145 -18.42353603 -14.95821599 0 0 Z " fill="#FF0521" transform="translate(82.88671875,11.34375)"/>
<path d="M0 0 C11.29710709 0 17.61707019 2.7161327 25.796875 10.484375 C32.52606174 18.16805631 34.37610382 26.32406917 34.2734375 36.29296875 C33.58869285 45.57614981 29.6470078 53.50463497 23 60 C15.74071434 65.43862881 9.13698875 68 0 68 C0 73.94 0 79.88 0 86 C-10.3037086 86 -17.29828395 83.75677551 -24.9375 76.75 C-32.2612319 68.7100107 -34.32877166 59.86256313 -34.2109375 49.31640625 C-33.64396237 40.40229727 -29.60251379 32.45404561 -23.18359375 26.2421875 C-16.00701126 20.47192522 -9.186047 18 0 18 C0 12.06 0 6.12 0 0 Z " fill="#FFFCFC" transform="translate(50,7)"/>
<path d="M0 0 C0.66 0 1.32 0 2 0 C3.2265625 1.7578125 3.2265625 1.7578125 4.625 4.125 C8.05568333 9.48227396 12.31157395 13.15578697 18 16 C18 16.66 18 17.32 18 18 C16.2421875 19.2265625 16.2421875 19.2265625 13.875 20.625 C8.51772604 24.05568333 4.84421303 28.31157395 2 34 C1.34 34 0.68 34 0 34 C-1.2265625 32.2421875 -1.2265625 32.2421875 -2.625 29.875 C-6.05568333 24.51772604 -10.31157395 20.84421303 -16 18 C-16 17.34 -16 16.68 -16 16 C-14.2421875 14.7734375 -14.2421875 14.7734375 -11.875 13.375 C-6.51772604 9.94431667 -2.84421303 5.68842605 0 0 Z " fill="#FF0924" transform="translate(49,33)"/>
</svg>
