<svg width="16" height="16" viewBox="0 0 16 16" fill="none" xmlns="http://www.w3.org/2000/svg">
<circle cx="8" cy="8" r="8" fill="#5326EC"/>
<path d="M13.424 8.91142C13.3913 9.0629 13.3654 9.21635 13.3248 9.36554C12.8941 10.9499 11.9558 12.1341 10.4991 12.8904C9.41095 13.4556 8.25013 13.6254 7.04357 13.4089C5.64826 13.1588 4.51446 12.4629 3.64041 11.3466C3.63237 11.3363 3.63774 11.3006 3.64822 11.2923C5.09486 10.2078 6.54249 9.12478 7.99111 8.04318C8.02502 8.02007 8.06605 8.0098 8.10685 8.01423C9.88591 8.26802 11.6647 8.5234 13.4433 8.78035L13.424 8.91142Z" fill="#FCFCFF"/>
<path d="M8.91579 2.56931C9.0637 2.6022 9.2126 2.63038 9.3593 2.66793C10.2183 2.88811 10.9805 3.29185 11.6458 3.87916C11.6503 3.88362 11.6545 3.88832 11.6584 3.89325L11.1273 4.2899C11.0116 4.37623 10.8966 4.46333 10.78 4.54821C10.7729 4.55147 10.7651 4.55294 10.7574 4.55251C10.7496 4.55207 10.7421 4.54974 10.7354 4.54572C10.057 4.01372 9.28899 3.70341 8.4314 3.61479C6.51258 3.4171 4.65499 4.52893 3.93088 6.31592C3.48252 7.42317 3.48307 8.53645 3.91798 9.64973C3.92214 9.66031 3.91933 9.68194 3.91174 9.68722C3.62194 9.90577 3.33135 10.1235 3.03999 10.3405C3.03715 10.3427 3.03377 10.3443 3.02731 10.3481C3.00866 10.3075 2.98969 10.268 2.97225 10.228C2.48976 9.12105 2.37119 7.97628 2.63264 6.79667C3.17667 4.34458 5.31406 2.57916 7.83129 2.50123C8.0858 2.4934 8.34127 2.51888 8.5962 2.52892L8.6483 2.53082L8.91579 2.56931Z" fill="#FCFCFF"/>
<path d="M11.2002 6.2509C11.2333 6.02456 11.3437 5.81666 11.5127 5.66259C11.6818 5.50851 11.899 5.41778 12.1274 5.40583C12.3558 5.39389 12.5813 5.46147 12.7654 5.59707C12.9496 5.73267 13.0811 5.92792 13.1375 6.14957C13.194 6.37123 13.1719 6.60559 13.075 6.81278C12.9781 7.01997 12.8124 7.18717 12.6061 7.28592C12.3998 7.38468 12.1656 7.40889 11.9435 7.35444C11.7214 7.29998 11.525 7.17022 11.3877 6.98724C11.3096 6.88286 11.2528 6.7641 11.2206 6.63775C11.1885 6.51139 11.1815 6.37993 11.2002 6.2509Z" fill="#FCFCFF"/>
</svg>
