<svg width="24" height="24" viewBox="0 0 24 24" fill="none" xmlns="http://www.w3.org/2000/svg">
<circle cx="12" cy="12" r="12" fill="#5326EC"/>
<path d="M20.136 13.3671C20.087 13.5943 20.0481 13.8245 19.9872 14.0483C19.3411 16.4248 17.9337 18.2011 15.7487 19.3356C14.1164 20.1834 12.3752 20.4381 10.5654 20.1133C8.47239 19.7383 6.77168 18.6944 5.46062 17.0198C5.44856 17.0044 5.45661 16.9508 5.47233 16.9385C7.64228 15.3117 9.81373 13.6872 11.9867 12.0648C12.0375 12.0301 12.0991 12.0147 12.1603 12.0213C14.8289 12.402 17.4971 12.7851 20.1649 13.1705L20.136 13.3671Z" fill="#FCFCFF"/>
<path d="M13.3737 3.85397C13.5956 3.9033 13.8189 3.94558 14.0389 4.0019C15.3274 4.33216 16.4707 4.93777 17.4688 5.81874C17.4754 5.82543 17.4817 5.83248 17.4876 5.83988L16.6909 6.43484C16.5175 6.56434 16.3449 6.695 16.1699 6.82232C16.1593 6.8272 16.1477 6.82941 16.1361 6.82876C16.1244 6.8281 16.1131 6.82461 16.1031 6.81858C15.0855 6.02057 13.9335 5.55511 12.6471 5.42218C9.76887 5.12565 6.98248 6.7934 5.89632 9.47389C5.22377 11.1348 5.22461 12.8047 5.87697 14.4746C5.88321 14.4905 5.879 14.5229 5.86761 14.5308C5.43291 14.8587 4.99703 15.1853 4.55998 15.5108C4.55572 15.514 4.55065 15.5164 4.54096 15.5221C4.51299 15.4612 4.48453 15.402 4.45838 15.3421C3.73463 13.6816 3.55678 11.9644 3.94896 10.195C4.765 6.51687 7.9711 3.86874 11.7469 3.75184C12.1287 3.7401 12.5119 3.77832 12.8943 3.79339L12.9724 3.79622L13.3737 3.85397Z" fill="#FCFCFF"/>
<path d="M16.8004 9.37634C16.8499 9.03684 17.0155 8.725 17.2691 8.49388C17.5226 8.26277 17.8485 8.12667 18.1911 8.10875C18.5337 8.09083 18.8719 8.1922 19.1481 8.39561C19.4244 8.59901 19.6217 8.89188 19.7063 9.22436C19.791 9.55684 19.7578 9.90839 19.6124 10.2192C19.4671 10.5299 19.2185 10.7808 18.9091 10.9289C18.5996 11.077 18.2484 11.1133 17.9152 11.0317C17.582 10.95 17.2874 10.7553 17.0816 10.4809C16.9644 10.3243 16.8792 10.1461 16.831 9.95662C16.7827 9.76709 16.7723 9.5699 16.8004 9.37634Z" fill="#FCFCFF"/>
</svg>
