<svg width="40" height="40" viewBox="0 0 40 40" fill="none" xmlns="http://www.w3.org/2000/svg">
<circle cx="20" cy="20" r="20" fill="#5326EC"/>
<path d="M36.9402 22.818C36.8386 23.2862 36.7581 23.7605 36.632 24.2217C35.2941 29.1187 32.3798 32.7789 27.8552 35.1167C24.4752 36.8637 20.8696 37.3885 17.1219 36.7193C12.7879 35.9465 9.2662 33.7954 6.55133 30.3448C6.52636 30.313 6.54304 30.2026 6.57558 30.1772C11.069 26.8251 15.5655 23.4775 20.065 20.1343C20.1704 20.0629 20.2978 20.0311 20.4245 20.0448C25.9505 20.8293 31.4756 21.6186 37 22.4129L36.9402 22.818Z" fill="#FCFCFF"/>
<path d="M22.9372 3.215C23.3966 3.31664 23.8591 3.40376 24.3148 3.51982C26.9828 4.20036 29.3503 5.4483 31.417 7.26363C31.4308 7.27742 31.4438 7.29196 31.456 7.30719L29.8062 8.53319C29.4471 8.80004 29.0898 9.06928 28.7275 9.33164C28.7055 9.34169 28.6814 9.34624 28.6573 9.3449C28.6332 9.34355 28.6098 9.33635 28.5891 9.32392C26.4819 7.67954 24.0964 6.72039 21.4326 6.44648C15.4726 5.83545 9.7027 9.27204 7.45357 14.7955C6.06089 18.2179 6.06261 21.659 7.41349 25.1C7.42641 25.1327 7.41769 25.1996 7.3941 25.2159C6.49395 25.8915 5.59137 26.5646 4.68635 27.2353C4.67753 27.2419 4.66704 27.2468 4.64696 27.2586C4.58904 27.1331 4.53012 27.0112 4.47596 26.8876C2.97728 23.4659 2.609 19.9275 3.4211 16.2814C5.11089 8.70221 11.7499 3.24544 19.5686 3.00455C20.3592 2.98035 21.1527 3.05911 21.9445 3.09016L22.1063 3.096L22.9372 3.215Z" fill="#FCFCFF"/>
<path d="M30.0329 14.5945C30.1355 13.8949 30.4785 13.2523 31.0035 12.7761C31.5286 12.2998 32.2032 12.0194 32.9127 11.9825C33.6221 11.9456 34.3225 12.1544 34.8946 12.5736C35.4666 12.9927 35.8751 13.5962 36.0504 14.2813C36.2257 14.9664 36.157 15.6908 35.856 16.3312C35.555 16.9716 35.0403 17.4884 34.3995 17.7937C33.7588 18.099 33.0315 18.1738 32.3415 18.0055C31.6515 17.8371 31.0415 17.4361 30.6152 16.8705C30.3726 16.5479 30.1962 16.1808 30.0963 15.7902C29.9964 15.3997 29.9748 14.9933 30.0329 14.5945Z" fill="#FCFCFF"/>
</svg>
