<svg width="64" height="64" viewBox="0 0 64 64" fill="none" xmlns="http://www.w3.org/2000/svg">
<circle cx="32" cy="32" r="32" fill="#5326EC"/>
<path d="M56.9121 36.1441C56.7627 36.8326 56.6443 37.5302 56.4589 38.2083C54.4914 45.4099 50.2056 50.7926 43.5518 54.2305C38.5812 56.7995 33.2788 57.5714 27.7675 56.5872C21.394 55.4507 16.215 52.2873 12.2225 47.2129C12.1858 47.1662 12.2103 47.0039 12.2582 46.9664C18.8661 42.0369 25.4786 37.1139 32.0957 32.1975C32.2505 32.0925 32.438 32.0458 32.6243 32.0659C40.7507 33.2196 48.8759 34.3804 57 35.5483L56.9121 36.1441Z" fill="#FCFCFF"/>
<path d="M36.3194 7.31618C36.995 7.46565 37.6751 7.59377 38.3452 7.76443C42.2689 8.76524 45.7504 10.6004 48.7897 13.27C48.81 13.2903 48.8291 13.3117 48.8471 13.3341L46.4209 15.137C45.8928 15.5295 45.3673 15.9254 44.8345 16.3112C44.8022 16.326 44.7668 16.3327 44.7313 16.3307C44.6959 16.3288 44.6614 16.3182 44.631 16.2999C41.5322 13.8817 38.0241 12.4712 34.1068 12.0684C25.342 11.1698 16.8569 16.2236 13.5494 24.3463C11.5013 29.3793 11.5038 34.4397 13.4904 39.5001C13.5094 39.5482 13.4966 39.6465 13.4619 39.6705C12.1382 40.6639 10.8108 41.6538 9.47992 42.6401C9.46695 42.6498 9.45153 42.657 9.42201 42.6744C9.33683 42.4898 9.25017 42.3105 9.17054 42.1288C6.96659 37.097 6.425 31.8934 7.61926 26.5315C10.1043 15.3856 19.8674 7.36094 31.3656 7.00669C32.5282 6.9711 33.6951 7.08692 34.8596 7.13258L35.0975 7.14118L36.3194 7.31618Z" fill="#FCFCFF"/>
<path d="M46.7543 24.0507C46.9051 23.0219 47.4095 22.0769 48.1816 21.3766C48.9538 20.6762 49.9459 20.2638 50.9892 20.2095C52.0325 20.1552 53.0624 20.4624 53.9038 21.0788C54.7451 21.6952 55.3457 22.5826 55.6035 23.5902C55.8613 24.5977 55.7603 25.663 55.3176 26.6048C54.875 27.5465 54.1181 28.3065 53.1758 28.7554C52.2335 29.2043 51.164 29.3144 50.1493 29.0669C49.1346 28.8193 48.2375 28.2295 47.6107 27.3978C47.2538 26.9233 46.9944 26.3835 46.8475 25.8092C46.7005 25.2348 46.6689 24.6373 46.7543 24.0507Z" fill="#FCFCFF"/>
</svg>
