<svg width="16" height="16" viewBox="0 0 16 16" fill="none" xmlns="http://www.w3.org/2000/svg">
<path d="M8 15.5C12.2802 15.5 15.75 12.1421 15.75 8C15.75 3.85786 12.2802 0.5 8 0.5C3.71979 0.5 0.25 3.85786 0.25 8C0.25 12.1421 3.71979 15.5 8 15.5Z" fill="#1D1E1F"/>
<path fill-rule="evenodd" clip-rule="evenodd" d="M9.05913 8.89617C8.93105 8.89617 8.82614 8.79057 8.82614 8.65886C8.82614 8.52717 8.92983 8.42157 9.05913 8.42157C9.18722 8.42157 9.29213 8.52717 9.29213 8.65886C9.29213 8.79057 9.18843 8.89617 9.05913 8.89617ZM9.05792 7.80261C8.59434 7.80261 8.21721 8.18671 8.21721 8.65946C8.21851 8.98452 8.40204 9.27958 8.6832 9.42316V9.84227C8.6832 10.0531 8.85157 10.2245 9.05853 10.2245C9.26548 10.2245 9.43385 10.0531 9.43385 9.84227V9.42317C9.71552 9.27939 9.89861 8.9841 9.89861 8.65886C9.89861 8.18671 9.52148 7.80261 9.05792 7.80261Z" fill="#0676FF"/>
<mask id="mask0_3339_63212" style="mask-type:alpha" maskUnits="userSpaceOnUse" x="3" y="5" width="10" height="7">
<path d="M3 5.34558H13V12H3V5.34558Z" fill="white"/>
</mask>
<g mask="url(#mask0_3339_63212)">
<path fill-rule="evenodd" clip-rule="evenodd" d="M12.1992 6.73766C12.0236 7.05131 11.7926 7.34834 11.6482 7.50731C11.5465 7.6192 11.5531 7.79457 11.663 7.89826C11.7133 7.94577 11.7789 7.97192 11.8475 7.97192C11.8692 7.97192 11.891 7.96925 11.9118 7.96406C11.9756 7.94824 12.04 7.92413 12.1037 7.89407C11.84 8.15873 11.4841 8.38583 11.314 8.47731C11.2498 8.51167 11.2025 8.56946 11.181 8.64003C11.1594 8.71059 11.1661 8.78545 11.1999 8.85094C11.229 8.90727 11.2767 8.95198 11.3341 8.97681C11.424 9.01573 11.5219 9.03547 11.6252 9.03547C11.6393 9.03547 11.6533 9.0351 11.6672 9.03441C11.5661 9.10409 11.4775 9.15001 11.4496 9.16388C11.259 9.23261 11.0863 9.31382 10.9327 9.40674V7.73601C10.9994 7.67978 11.0684 7.62441 11.1392 7.57089C11.5776 7.24223 11.9795 6.86823 12.3394 6.4545C12.3016 6.54376 12.2548 6.63837 12.1992 6.73766ZM10.1821 10.6716C10.1821 10.7222 10.1417 10.7633 10.092 10.7633H7.39073V6.79298H10.092C10.1417 6.79298 10.1821 6.83411 10.1821 6.88469V10.6716ZM6.6425 10.7608H5.9092C5.85954 10.7608 5.81916 10.7197 5.81916 10.6691V6.88344C5.81916 6.83286 5.85954 6.79173 5.9092 6.79173H6.6425V10.7608ZM4.55027 9.16367C4.48989 9.13399 4.41128 9.08934 4.33146 9.0343C4.34594 9.03505 4.36048 9.03545 4.37504 9.03545C4.47831 9.03545 4.57626 9.01571 4.66613 8.97681C4.80398 8.91719 4.86851 8.75447 4.80997 8.61401C4.78554 8.55545 4.74163 8.5069 4.6862 8.47722C4.43733 8.34427 4.13257 8.12963 3.90519 7.89826C3.96603 7.92645 4.02742 7.9491 4.08827 7.96419C4.10945 7.96946 4.13121 7.97215 4.15294 7.97215C4.27839 7.97215 4.38685 7.88542 4.41667 7.7613C4.43844 7.67075 4.41431 7.57588 4.35224 7.50763C4.20074 7.3407 3.97642 7.05079 3.80117 6.73774C3.74559 6.63846 3.69879 6.54384 3.66098 6.45457C4.02075 6.86821 4.42252 7.24209 4.86053 7.57044C4.93165 7.62419 5.00067 7.67959 5.06727 7.73575V9.40661C4.91364 9.31366 4.74088 9.2324 4.55027 9.16367ZM12.918 7.01596C12.8909 6.93853 12.8317 6.879 12.7591 6.85064C13.0945 6.178 13.0244 5.7458 12.8801 5.48614C12.832 5.39944 12.7414 5.34558 12.6436 5.34558C12.5969 5.34558 12.5507 5.35797 12.51 5.38143C12.476 5.40099 12.446 5.42841 12.4227 5.4614C12.0045 6.05982 11.5038 6.58905 10.9327 7.03656V6.88344C10.9327 6.41129 10.5556 6.02717 10.092 6.02717H5.90797C5.4444 6.02717 5.06727 6.41129 5.06727 6.88344V7.03639C4.49628 6.5891 3.99544 6.0598 3.57666 5.46069C3.52576 5.38863 3.4433 5.34558 3.3561 5.34558C3.2989 5.34558 3.24409 5.36362 3.19754 5.39772C3.16588 5.42091 3.13899 5.45147 3.11975 5.48608C2.9755 5.74585 2.90567 6.17803 3.24093 6.85051C3.20917 6.86288 3.17969 6.88134 3.1541 6.90528C3.12181 6.93549 3.09694 6.9737 3.0821 7.01585C2.91566 7.49013 3.1698 7.93173 3.50712 8.2778C3.50452 8.28067 3.50199 8.2836 3.4995 8.28659C3.46955 8.32257 3.44902 8.36606 3.4402 8.41201C3.37729 8.7364 3.51354 9.05782 3.83422 9.3415C4.06018 9.5414 4.30617 9.65874 4.33476 9.67204C4.34106 9.67493 4.34758 9.67758 4.35384 9.67994L4.35682 9.68103C4.71219 9.8074 4.93295 9.96426 5.06727 10.0954V10.6708C5.06875 11.1427 5.44587 11.5266 5.90797 11.5266H6.231V11.6177C6.231 11.8285 6.39938 12 6.60633 12C6.8133 12 6.98166 11.8285 6.98166 11.6177V11.5266H9.01958V11.6177C9.01958 11.8285 9.18795 12 9.3949 12C9.60186 12 9.77023 11.8285 9.77023 11.6177V11.5266H10.092C10.5556 11.5266 10.9327 11.1425 10.9327 10.6703V10.0957C11.0671 9.96459 11.2881 9.80762 11.6444 9.68087C11.6514 9.67833 11.6583 9.67552 11.6651 9.67244L11.6665 9.67177C11.6938 9.65909 11.9397 9.54197 12.1661 9.3417C12.4867 9.05801 12.623 8.73652 12.5602 8.41229C12.5502 8.36057 12.5264 8.31451 12.4931 8.27783C12.8303 7.93178 13.0845 7.49018 12.918 7.01596Z" fill="#0676FF"/>
</g>
<mask id="mask1_3339_63212" style="mask-type:alpha" maskUnits="userSpaceOnUse" x="6" y="4" width="4" height="2">
<path d="M6.03131 4H9.8986V5.44259H6.03131V4Z" fill="white"/>
</mask>
<g mask="url(#mask1_3339_63212)">
<path fill-rule="evenodd" clip-rule="evenodd" d="M7.96496 4.93196C7.38107 4.93196 6.90774 4.80299 6.90774 4.64391C6.90774 4.48482 7.38107 4.35585 7.96496 4.35585C8.54884 4.35585 9.02218 4.48482 9.02218 4.64391C9.02218 4.80299 8.54884 4.93196 7.96496 4.93196ZM7.96496 4C6.89703 4 6.03131 4.32293 6.03131 4.7213C6.03131 5.11966 6.89703 5.4426 7.96496 5.4426C9.03289 5.4426 9.8986 5.11966 9.8986 4.7213C9.8986 4.32293 9.03289 4 7.96496 4Z" fill="#0676FF"/>
</g>
</svg>
