<svg width="24" height="24" viewBox="0 0 24 24" fill="none" xmlns="http://www.w3.org/2000/svg">
<path d="M12 23.25C18.4203 23.25 23.625 18.2132 23.625 12C23.625 5.7868 18.4203 0.75 12 0.75C5.57969 0.75 0.375 5.7868 0.375 12C0.375 18.2132 5.57969 23.25 12 23.25Z" fill="#1D1E1F"/>
<path fill-rule="evenodd" clip-rule="evenodd" d="M13.6946 13.3443C13.4897 13.3443 13.3218 13.1859 13.3218 12.9884C13.3218 12.7908 13.4877 12.6324 13.6946 12.6324C13.8995 12.6324 14.0674 12.7908 14.0674 12.9884C14.0674 13.1859 13.9015 13.3443 13.6946 13.3443ZM13.6927 11.704C12.9509 11.704 12.3475 12.2801 12.3475 12.9893C12.3496 13.4768 12.6433 13.9194 13.0931 14.1348V14.7635C13.0931 15.0797 13.3625 15.3369 13.6936 15.3369C14.0248 15.3369 14.2942 15.0797 14.2942 14.7635V14.1348C14.7448 13.9192 15.0378 13.4762 15.0378 12.9884C15.0378 12.2801 14.4344 11.704 13.6927 11.704Z" fill="#0676FF"/>
<mask id="mask0_3339_63209" style="mask-type:alpha" maskUnits="userSpaceOnUse" x="4" y="8" width="16" height="10">
<path d="M4 8.01843H20V18H4V8.01843Z" fill="white"/>
</mask>
<g mask="url(#mask0_3339_63209)">
<path fill-rule="evenodd" clip-rule="evenodd" d="M18.7187 10.1065C18.4378 10.577 18.0682 11.0226 17.8372 11.261C17.6744 11.4289 17.6849 11.6919 17.8607 11.8475C17.9413 11.9187 18.0462 11.9579 18.156 11.9579C18.1908 11.9579 18.2255 11.9539 18.2589 11.9461C18.361 11.9224 18.464 11.8863 18.5659 11.8412C18.144 12.2382 17.5746 12.5788 17.3024 12.716C17.1997 12.7676 17.124 12.8542 17.0895 12.9601C17.0551 13.0659 17.0658 13.1782 17.1199 13.2765C17.1664 13.361 17.2427 13.428 17.3346 13.4653C17.4784 13.5236 17.6351 13.5533 17.8003 13.5533C17.8228 13.5533 17.8452 13.5527 17.8676 13.5517C17.7058 13.6562 17.564 13.7251 17.5194 13.7459C17.2145 13.849 16.9381 13.9708 16.6924 14.1102V11.6041C16.799 11.5197 16.9094 11.4367 17.0227 11.3564C17.7242 10.8634 18.3673 10.3024 18.943 9.68181C18.8825 9.81571 18.8076 9.95762 18.7187 10.1065ZM15.4913 16.0074C15.4913 16.0833 15.4267 16.145 15.3473 16.145H11.0252V10.1895H15.3473C15.4267 10.1895 15.4913 10.2512 15.4913 10.3271V16.0074ZM9.828 16.1413H8.65473C8.57527 16.1413 8.51065 16.0796 8.51065 16.0037V10.3252C8.51065 10.2494 8.57527 10.1877 8.65473 10.1877H9.828V16.1413ZM6.48043 13.7456C6.38382 13.7011 6.25805 13.6341 6.13033 13.5515C6.1535 13.5526 6.17676 13.5532 6.20007 13.5532C6.3653 13.5532 6.52202 13.5236 6.66581 13.4653C6.88637 13.3758 6.98961 13.1318 6.89595 12.9211C6.85686 12.8332 6.7866 12.7604 6.69793 12.7159C6.29972 12.5165 5.81211 12.1945 5.44831 11.8475C5.54565 11.8897 5.64386 11.9237 5.74123 11.9463C5.77513 11.9542 5.80994 11.9583 5.8447 11.9583C6.04543 11.9583 6.21896 11.8282 6.26667 11.642C6.30151 11.5062 6.2629 11.3639 6.16359 11.2615C5.92119 11.0111 5.56228 10.5762 5.28187 10.1067C5.19294 9.95775 5.11806 9.81582 5.05756 9.68192C5.63321 10.3024 6.27603 10.8632 6.97685 11.3557C7.09064 11.4363 7.20107 11.5194 7.30763 11.6037V14.11C7.06182 13.9705 6.78541 13.8487 6.48043 13.7456ZM19.8689 10.524C19.8254 10.4079 19.7308 10.3186 19.6146 10.276C20.1511 9.26706 20.0391 8.61875 19.8082 8.22927C19.7313 8.09922 19.5862 8.01843 19.4297 8.01843C19.3551 8.01843 19.2812 8.03702 19.216 8.0722C19.1616 8.10155 19.1135 8.14268 19.0763 8.19217C18.4072 9.08979 17.6062 9.88363 16.6924 10.5549V10.3252C16.6924 9.61699 16.089 9.04082 15.3473 9.04082H8.65276C7.91104 9.04082 7.30763 9.61699 7.30763 10.3252V10.5546C6.39405 9.88372 5.5927 9.08977 4.92266 8.1911C4.84121 8.08301 4.70929 8.01843 4.56977 8.01843C4.47823 8.01843 4.39054 8.04549 4.31607 8.09664C4.26541 8.13143 4.22239 8.17727 4.1916 8.22918C3.9608 8.61884 3.84907 9.2671 4.38549 10.2758C4.33467 10.2944 4.2875 10.3221 4.24656 10.358C4.19489 10.4033 4.1551 10.4606 4.13135 10.5238C3.86505 11.2352 4.27168 11.8977 4.81139 12.4168C4.80723 12.4211 4.80318 12.4255 4.7992 12.43C4.75128 12.4839 4.71844 12.5492 4.70432 12.6181C4.60366 13.1047 4.82166 13.5868 5.33475 14.0123C5.69629 14.3122 6.08987 14.4882 6.13562 14.5081C6.1457 14.5125 6.15613 14.5164 6.16615 14.52L6.17091 14.5216C6.73951 14.7112 7.09272 14.9464 7.30763 15.1431V16.0063C7.31001 16.7141 7.9134 17.29 8.65276 17.29H9.1696V17.4266C9.1696 17.7428 9.43901 18 9.77013 18C10.1013 18 10.3707 17.7428 10.3707 17.4266V17.29H13.6313V17.4266C13.6313 17.7428 13.9007 18 14.2318 18C14.563 18 14.8324 17.7428 14.8324 17.4266V17.29H15.3473C16.089 17.29 16.6924 16.7138 16.6924 16.0056V15.1437C16.9074 14.9469 17.261 14.7115 17.8311 14.5214C17.8423 14.5176 17.8533 14.5133 17.8642 14.5087L17.8665 14.5077C17.9101 14.4887 18.3035 14.313 18.6657 14.0126C19.1788 13.5871 19.3968 13.1048 19.2962 12.6185C19.2804 12.5409 19.2422 12.4718 19.1889 12.4168C19.7285 11.8977 20.1351 11.2353 19.8689 10.524Z" fill="#0676FF"/>
</g>
<mask id="mask1_3339_63209" style="mask-type:alpha" maskUnits="userSpaceOnUse" x="8" y="6" width="8" height="3">
<path d="M8.85011 6H15.0378V8.16389H8.85011V6Z" fill="white"/>
</mask>
<g mask="url(#mask1_3339_63209)">
<path fill-rule="evenodd" clip-rule="evenodd" d="M11.944 7.39794C11.0097 7.39794 10.2524 7.20449 10.2524 6.96587C10.2524 6.72723 11.0097 6.53378 11.944 6.53378C12.8782 6.53378 13.6355 6.72723 13.6355 6.96587C13.6355 7.20449 12.8782 7.39794 11.944 7.39794ZM11.944 6C10.2353 6 8.85011 6.4844 8.85011 7.08195C8.85011 7.6795 10.2353 8.16389 11.944 8.16389C13.6526 8.16389 15.0378 7.6795 15.0378 7.08195C15.0378 6.4844 13.6526 6 11.944 6Z" fill="#0676FF"/>
</g>
</svg>
