<svg width="32" height="32" viewBox="0 0 32 32" fill="none" xmlns="http://www.w3.org/2000/svg">
<path d="M16 31C24.5604 31 31.5 24.2843 31.5 16C31.5 7.71573 24.5604 1 16 1C7.43959 1 0.5 7.71573 0.5 16C0.5 24.2843 7.43959 31 16 31Z" fill="#1D1E1F"/>
<path fill-rule="evenodd" clip-rule="evenodd" d="M18.1183 17.7923C17.8621 17.7923 17.6523 17.5811 17.6523 17.3177C17.6523 17.0543 17.8597 16.8431 18.1183 16.8431C18.3744 16.8431 18.5843 17.0543 18.5843 17.3177C18.5843 17.5811 18.3769 17.7923 18.1183 17.7923ZM18.1158 15.6052C17.1887 15.6052 16.4344 16.3734 16.4344 17.3189C16.437 17.969 16.8041 18.5592 17.3664 18.8463V19.6845C17.3664 20.1061 17.7031 20.4491 18.1171 20.4491C18.531 20.4491 18.8677 20.1061 18.8677 19.6845V18.8463C19.431 18.5588 19.7972 17.9682 19.7972 17.3177C19.7972 16.3734 19.043 15.6052 18.1158 15.6052Z" fill="#0676FF"/>
<mask id="mask0_3339_63206" style="mask-type:alpha" maskUnits="userSpaceOnUse" x="6" y="10" width="20" height="14">
<path d="M6 10.6913H26V24H6V10.6913Z" fill="white"/>
</mask>
<g mask="url(#mask0_3339_63206)">
<path fill-rule="evenodd" clip-rule="evenodd" d="M24.3984 13.4754C24.0472 14.1027 23.5852 14.6968 23.2965 15.0147C23.093 15.2385 23.1061 15.5893 23.3259 15.7966C23.4267 15.8917 23.5577 15.944 23.695 15.944C23.7385 15.944 23.7819 15.9386 23.8237 15.9282C23.9513 15.8966 24.08 15.8484 24.2074 15.7883C23.68 16.3176 22.9682 16.7718 22.628 16.9547C22.4996 17.0235 22.405 17.139 22.3619 17.2802C22.3188 17.4213 22.3323 17.571 22.3998 17.702C22.458 17.8147 22.5534 17.9041 22.6682 17.9537C22.848 18.0316 23.0439 18.0711 23.2504 18.0711C23.2785 18.0711 23.3066 18.0703 23.3345 18.0689C23.1323 18.2083 22.955 18.3001 22.8993 18.3279C22.5181 18.4653 22.1727 18.6278 21.8655 18.8136V15.4721C21.9988 15.3597 22.1368 15.2489 22.2784 15.1419C23.1553 14.4846 23.9591 13.7366 24.6787 12.9091C24.6031 13.0877 24.5095 13.2769 24.3984 13.4754ZM20.3642 21.3433C20.3642 21.4444 20.2834 21.5267 20.1841 21.5267H14.7815V13.5861H20.1841C20.2834 13.5861 20.3642 13.6683 20.3642 13.7695V21.3433ZM13.285 21.5217H11.8184C11.7191 21.5217 11.6383 21.4395 11.6383 21.3383V13.767C11.6383 13.6658 11.7191 13.5836 11.8184 13.5836H13.285V21.5217ZM9.10054 18.3275C8.97978 18.2681 8.82256 18.1788 8.66291 18.0687C8.69188 18.0702 8.72095 18.071 8.75009 18.071C8.95662 18.071 9.15252 18.0315 9.33227 17.9537C9.60796 17.8345 9.73702 17.5091 9.61994 17.2281C9.57108 17.111 9.48325 17.0139 9.37241 16.9546C8.87465 16.6887 8.26514 16.2594 7.81038 15.7966C7.93206 15.853 8.05483 15.8983 8.17654 15.9285C8.21891 15.939 8.26242 15.9444 8.30588 15.9444C8.55679 15.9444 8.7737 15.771 8.83334 15.5227C8.87688 15.3416 8.82862 15.1519 8.70448 15.0154C8.40149 14.6815 7.95285 14.1017 7.60233 13.4756C7.49118 13.277 7.39757 13.0878 7.32195 12.9093C8.04151 13.7365 8.84503 14.4843 9.72106 15.141C9.8633 15.2485 10.0013 15.3593 10.1345 15.4716V18.8133C9.82728 18.6274 9.48176 18.4649 9.10054 18.3275ZM25.8361 14.032C25.7818 13.8772 25.6635 13.7581 25.5182 13.7014C26.1889 12.3561 26.0489 11.4917 25.7602 10.9724C25.6641 10.799 25.4828 10.6913 25.2871 10.6913C25.1938 10.6913 25.1015 10.7161 25.02 10.763C24.952 10.8021 24.8919 10.8569 24.8454 10.9229C24.009 12.1198 23.0077 13.1782 21.8655 14.0733V13.767C21.8655 12.8227 21.1112 12.0545 20.1841 12.0545H11.8159C10.8888 12.0545 10.1345 12.8227 10.1345 13.767V14.0729C8.99256 13.1783 7.99087 12.1197 7.15333 10.9215C7.05152 10.7774 6.88661 10.6913 6.71221 10.6913C6.59779 10.6913 6.48818 10.7274 6.39509 10.7956C6.33176 10.8419 6.27798 10.9031 6.2395 10.9723C5.951 11.4918 5.81133 12.3562 6.48186 13.7011C6.41833 13.7259 6.35938 13.7628 6.3082 13.8107C6.24362 13.8711 6.19387 13.9475 6.16419 14.0318C5.83132 14.9804 6.33959 15.8636 7.01424 16.5557C7.00903 16.5615 7.00397 16.5673 6.999 16.5733C6.9391 16.6453 6.89805 16.7322 6.88041 16.8241C6.75458 17.4729 7.02707 18.1158 7.66843 18.6831C8.12036 19.0829 8.61234 19.3176 8.66952 19.3442C8.68213 19.35 8.69516 19.3553 8.70769 19.36L8.71363 19.3622C9.42438 19.6149 9.8659 19.9286 10.1345 20.1908V21.3417C10.1375 22.2855 10.8917 23.0533 11.8159 23.0533H12.462V23.2355C12.462 23.6571 12.7988 24.0001 13.2127 24.0001C13.6266 24.0001 13.9633 23.6571 13.9633 23.2355V23.0533H18.0392V23.2355C18.0392 23.6571 18.3759 24.0001 18.7898 24.0001C19.2037 24.0001 19.5405 23.6571 19.5405 23.2355V23.0533H20.1841C21.1112 23.0533 21.8655 22.2851 21.8655 21.3408V20.1916C22.1342 19.9293 22.5762 19.6154 23.2889 19.3619C23.3028 19.3568 23.3166 19.3512 23.3302 19.345L23.3331 19.3437C23.3877 19.3183 23.8794 19.0841 24.3321 18.6835C24.9735 18.1161 25.246 17.4732 25.1203 16.8247C25.1004 16.7213 25.0528 16.6291 24.9861 16.5558C25.6606 15.8637 26.1689 14.9805 25.8361 14.032Z" fill="#0676FF"/>
</g>
<mask id="mask1_3339_63206" style="mask-type:alpha" maskUnits="userSpaceOnUse" x="12" y="8" width="8" height="3">
<path d="M12.0626 8H19.7972V10.8852H12.0626V8Z" fill="white"/>
</mask>
<g mask="url(#mask1_3339_63206)">
<path fill-rule="evenodd" clip-rule="evenodd" d="M15.9299 9.86392C14.7621 9.86392 13.8155 9.60598 13.8155 9.28783C13.8155 8.96964 14.7621 8.7117 15.9299 8.7117C17.0977 8.7117 18.0444 8.96964 18.0444 9.28783C18.0444 9.60598 17.0977 9.86392 15.9299 9.86392ZM15.9299 8C13.7941 8 12.0626 8.64586 12.0626 9.4426C12.0626 10.2393 13.7941 10.8852 15.9299 10.8852C18.0658 10.8852 19.7972 10.2393 19.7972 9.4426C19.7972 8.64586 18.0658 8 15.9299 8Z" fill="#0676FF"/>
</g>
</svg>
