<svg width="40" height="40" viewBox="0 0 40 40" fill="none" xmlns="http://www.w3.org/2000/svg">
<path d="M20 38.75C30.7005 38.75 39.375 30.3553 39.375 20C39.375 9.64466 30.7005 1.25 20 1.25C9.29948 1.25 0.625 9.64466 0.625 20C0.625 30.3553 9.29948 38.75 20 38.75Z" fill="#1D1E1F"/>
<path fill-rule="evenodd" clip-rule="evenodd" d="M22.9656 22.4646C22.6069 22.4646 22.3132 22.1742 22.3132 21.812C22.3132 21.4498 22.6035 21.1594 22.9656 21.1594C23.3242 21.1594 23.618 21.4498 23.618 21.812C23.618 22.1742 23.3276 22.4646 22.9656 22.4646ZM22.9622 19.4573C21.6642 19.4573 20.6082 20.5135 20.6082 21.8136C20.6118 22.7075 21.1257 23.5189 21.913 23.9138V25.0663C21.913 25.646 22.3844 26.1176 22.9639 26.1176C23.5433 26.1176 24.0148 25.646 24.0148 25.0663V23.9138C24.8034 23.5184 25.3161 22.7064 25.3161 21.812C25.3161 20.5135 24.2601 19.4573 22.9622 19.4573Z" fill="#0676FF"/>
<mask id="mask0_3339_63203" style="mask-type:alpha" maskUnits="userSpaceOnUse" x="6" y="12" width="28" height="19">
<path d="M6 12.7004H34V31H6V12.7004Z" fill="white"/>
</mask>
<g mask="url(#mask0_3339_63203)">
<path fill-rule="evenodd" clip-rule="evenodd" d="M31.7577 16.5286C31.2661 17.3912 30.6193 18.208 30.215 18.6452C29.9301 18.9529 29.9485 19.4352 30.2563 19.7203C30.3973 19.851 30.5808 19.9229 30.773 19.9229C30.8338 19.9229 30.8947 19.9155 30.9531 19.9012C31.1318 19.8578 31.312 19.7915 31.4904 19.7088C30.752 20.4366 29.7555 21.0611 29.2792 21.3127C29.0994 21.4072 28.9671 21.5661 28.9067 21.7602C28.8464 21.9542 28.8652 22.1601 28.9597 22.3402C29.0412 22.4951 29.1747 22.618 29.3355 22.6863C29.5872 22.7933 29.8615 22.8476 30.1506 22.8476C30.1899 22.8476 30.2292 22.8466 30.2682 22.8447C29.9852 23.0363 29.7369 23.1626 29.659 23.2008C29.1253 23.3898 28.6417 23.6131 28.2117 23.8686V19.2741C28.3983 19.1195 28.5915 18.9672 28.7897 18.82C30.0174 17.9162 31.1427 16.8877 32.1502 15.75C32.0444 15.9954 31.9134 16.2556 31.7577 16.5286ZM26.1098 27.3469C26.1098 27.486 25.9968 27.5991 25.8577 27.5991H18.294V16.6808H25.8577C25.9968 16.6808 26.1098 16.7939 26.1098 16.933V27.3469ZM16.199 27.5923H14.1458C14.0067 27.5923 13.8936 27.4792 13.8936 27.3401V16.9296C13.8936 16.7905 14.0067 16.6773 14.1458 16.6773H16.199V27.5923ZM10.3408 23.2002C10.1717 23.1186 9.95159 22.9958 9.72808 22.8444C9.76863 22.8465 9.80933 22.8476 9.85012 22.8476C10.1393 22.8476 10.4135 22.7933 10.6652 22.6863C11.0511 22.5224 11.2318 22.0749 11.0679 21.6886C10.9995 21.5276 10.8766 21.3941 10.7214 21.3125C10.0245 20.9468 9.1712 20.3566 8.53454 19.7203C8.70489 19.7978 8.87676 19.8601 9.04715 19.9016C9.10647 19.9161 9.16739 19.9235 9.22823 19.9235C9.5795 19.9235 9.88318 19.685 9.96668 19.3437C10.0276 19.0947 9.96007 18.8338 9.78628 18.6461C9.36208 18.187 8.73399 17.3898 8.24327 16.5289C8.08765 16.2559 7.9566 15.9956 7.85073 15.7502C8.85811 16.8877 9.98305 17.9158 11.2095 18.8188C11.4086 18.9666 11.6019 19.119 11.7883 19.2734V23.8683C11.3582 23.6127 10.8745 23.3892 10.3408 23.2002ZM33.7705 17.294C33.6945 17.0811 33.5289 16.9173 33.3255 16.8393C34.2645 14.9896 34.0684 13.801 33.6643 13.087C33.5297 12.8485 33.2759 12.7004 33.002 12.7004C32.8713 12.7004 32.7421 12.7345 32.6279 12.799C32.5328 12.8528 32.4487 12.9282 32.3835 13.0189C31.2127 14.6646 29.8108 16.12 28.2117 17.3506V16.9296C28.2117 15.6311 27.1557 14.5748 25.8577 14.5748H14.1423C12.8443 14.5748 11.7883 15.6311 11.7883 16.9296V17.3502C10.1896 16.1201 8.78722 14.6645 7.61466 13.017C7.47212 12.8188 7.24125 12.7004 6.99709 12.7004C6.83691 12.7004 6.68345 12.75 6.55312 12.8438C6.46446 12.9076 6.38918 12.9916 6.3353 13.0868C5.9314 13.8012 5.73587 14.9897 6.6746 16.839C6.58566 16.873 6.50313 16.9238 6.43148 16.9896C6.34106 17.0727 6.27142 17.1778 6.22987 17.2937C5.76385 18.5979 6.47543 19.8124 7.41993 20.764C7.41264 20.7719 7.40556 20.78 7.3986 20.7882C7.31474 20.8872 7.25726 21.0068 7.23257 21.1331C7.05641 22.0252 7.4379 22.9091 8.33581 23.6892C8.9685 24.2389 9.65727 24.5616 9.73733 24.5982C9.75498 24.6061 9.77323 24.6134 9.79076 24.6199L9.79909 24.6229C10.7941 24.9705 11.4123 25.4018 11.7883 25.7623V27.3448C11.7925 28.6425 12.8484 29.6983 14.1423 29.6983H15.0468V29.9487C15.0468 30.5284 15.5183 31 16.0977 31C16.6772 31 17.1487 30.5284 17.1487 29.9487V29.6983H22.8548V29.9487C22.8548 30.5284 23.3263 31 23.9057 31C24.4852 31 24.9566 30.5284 24.9566 29.9487V29.6983H25.8577C27.1557 29.6983 28.2117 28.6419 28.2117 27.3435V25.7633C28.5879 25.4027 29.2067 24.9711 30.2044 24.6225C30.224 24.6155 30.2433 24.6078 30.2623 24.5993L30.2663 24.5975C30.3427 24.5626 31.0312 24.2405 31.665 23.6898C32.5629 22.9096 32.9444 22.0255 32.7684 21.1339C32.7406 20.9917 32.6739 20.865 32.5806 20.7641C33.5249 19.8125 34.2365 18.5981 33.7705 17.294Z" fill="#0676FF"/>
</g>
<mask id="mask1_3339_63203" style="mask-type:alpha" maskUnits="userSpaceOnUse" x="14" y="9" width="12" height="4">
<path d="M14.4877 9H25.3161V12.9671H14.4877V9Z" fill="white"/>
</mask>
<g mask="url(#mask1_3339_63203)">
<path fill-rule="evenodd" clip-rule="evenodd" d="M19.9019 11.5629C18.267 11.5629 16.9417 11.2082 16.9417 10.7708C16.9417 10.3333 18.267 9.97859 19.9019 9.97859C21.5368 9.97859 22.8621 10.3333 22.8621 10.7708C22.8621 11.2082 21.5368 11.5629 19.9019 11.5629ZM19.9019 9C16.9117 9 14.4877 9.88806 14.4877 10.9836C14.4877 12.0791 16.9117 12.9671 19.9019 12.9671C22.8921 12.9671 25.3161 12.0791 25.3161 10.9836C25.3161 9.88806 22.8921 9 19.9019 9Z" fill="#0676FF"/>
</g>
</svg>
