<svg width="64" height="64" viewBox="0 0 64 64" fill="none" xmlns="http://www.w3.org/2000/svg">
<path d="M32 62C49.1208 62 63 48.5685 63 32C63 15.4315 49.1208 2 32 2C14.8792 2 1 15.4315 1 32C1 48.5685 14.8792 62 32 62Z" fill="#1D1E1F"/>
<path fill-rule="evenodd" clip-rule="evenodd" d="M36.6602 35.8089C36.0966 35.8089 35.635 35.3601 35.635 34.8003C35.635 34.2406 36.0913 33.7918 36.6602 33.7918C37.2237 33.7918 37.6854 34.2406 37.6854 34.8003C37.6854 35.3601 37.2291 35.8089 36.6602 35.8089ZM36.6548 31.1613C34.6151 31.1613 32.9557 32.7937 32.9557 34.8029C32.9614 36.1844 33.769 37.4384 35.0061 38.0486V39.8298C35.0061 40.7257 35.7469 41.4545 36.6575 41.4545C37.5681 41.4545 38.3089 40.7257 38.3089 39.8298V38.0486C39.5483 37.4376 40.3539 36.1826 40.3539 34.8003C40.3539 32.7937 38.6945 31.1613 36.6548 31.1613Z" fill="#0676FF"/>
<mask id="mask0_3339_63200" style="mask-type:alpha" maskUnits="userSpaceOnUse" x="10" y="20" width="44" height="29">
<path d="M10 20.7189H54V49H10V20.7189Z" fill="white"/>
</mask>
<g mask="url(#mask0_3339_63200)">
<path fill-rule="evenodd" clip-rule="evenodd" d="M50.4764 26.6352C49.7039 27.9682 48.6875 29.2306 48.0522 29.9062C47.6045 30.3817 47.6334 31.1271 48.117 31.5678C48.3386 31.7697 48.627 31.8808 48.929 31.8808C49.0246 31.8808 49.1202 31.8695 49.2121 31.8474C49.4928 31.7802 49.7759 31.6777 50.0563 31.5499C48.896 32.6748 47.3301 33.6399 46.5816 34.0287C46.299 34.1748 46.0911 34.4204 45.9963 34.7203C45.9015 35.0201 45.931 35.3383 46.0796 35.6166C46.2076 35.8561 46.4174 36.0461 46.67 36.1516C47.0656 36.317 47.4966 36.4009 47.9509 36.4009C48.0127 36.4009 48.0744 36.3993 48.1358 36.3964C47.691 36.6925 47.3009 36.8877 47.1784 36.9467C46.3398 37.2387 45.5799 37.5839 44.904 37.9788V30.8782C45.1974 30.6392 45.5009 30.4039 45.8124 30.1764C47.7416 28.7796 49.51 27.1901 51.0932 25.4318C50.9269 25.8112 50.721 26.2132 50.4764 26.6352ZM41.6012 43.3544C41.6012 43.5693 41.4235 43.7441 41.205 43.7441H29.3192V26.8703H41.205C41.4235 26.8703 41.6012 27.0451 41.6012 27.2601V43.3544ZM26.027 43.7335H22.8005C22.582 43.7335 22.4043 43.5587 22.4043 43.3438V27.2548C22.4043 27.0398 22.582 26.865 22.8005 26.865H26.027V43.7335ZM16.8212 36.9457C16.5555 36.8196 16.2096 36.6298 15.8584 36.3959C15.9221 36.3991 15.9861 36.4008 16.0502 36.4008C16.5046 36.4008 16.9355 36.3169 17.331 36.1516C17.9375 35.8982 18.2214 35.2066 17.9639 34.6097C17.8564 34.3608 17.6632 34.1545 17.4193 34.0284C16.3242 33.4633 14.9833 32.5511 13.9828 31.5678C14.2505 31.6876 14.5206 31.7838 14.7884 31.8479C14.8816 31.8703 14.9773 31.8818 15.0729 31.8818C15.6249 31.8818 16.1021 31.5132 16.2333 30.9857C16.3291 30.6008 16.223 30.1976 15.9499 29.9076C15.2833 29.1981 14.2963 27.966 13.5251 26.6356C13.2806 26.2136 13.0747 25.8115 12.9083 25.4321C14.4913 27.1901 16.2591 28.779 18.1863 30.1745C18.4993 30.403 18.8029 30.6384 19.096 30.8771V37.9782C18.42 37.5832 17.6599 37.2379 16.8212 36.9457ZM53.6394 27.818C53.5199 27.4889 53.2597 27.2359 52.9401 27.1154C54.4156 24.2566 54.1075 22.4198 53.4725 21.3162C53.2609 20.9478 52.8621 20.7189 52.4317 20.7189C52.2264 20.7189 52.0232 20.7715 51.8439 20.8712C51.6943 20.9544 51.5623 21.0709 51.4598 21.2111C49.6199 23.7544 47.4169 26.0036 44.904 27.9056V27.2548C44.904 25.2481 43.2447 23.6156 41.205 23.6156H22.7951C20.7554 23.6156 19.096 25.2481 19.096 27.2548V27.9048C16.5836 26.0038 14.3799 23.7543 12.5373 21.2081C12.3133 20.9018 11.9505 20.7189 11.5669 20.7189C11.3151 20.7189 11.074 20.7955 10.8692 20.9405C10.7299 21.039 10.6116 21.1689 10.5269 21.316C9.89219 22.42 9.58494 24.2568 11.0601 27.1148C10.9203 27.1674 10.7906 27.2459 10.678 27.3476C10.536 27.476 10.4265 27.6384 10.3612 27.8175C9.6289 29.8332 10.7471 31.71 12.2313 33.1808C12.2199 33.193 12.2087 33.2054 12.1978 33.2182C12.066 33.3711 11.9757 33.5559 11.9369 33.7512C11.6601 35.1299 12.2596 36.4959 13.6706 37.7015C14.6648 38.5511 15.7471 39.0498 15.8729 39.1063C15.9007 39.1186 15.9294 39.1299 15.9569 39.1399L15.97 39.1445C17.5336 39.6816 18.505 40.3482 19.096 40.9054V43.3511C19.1025 45.3566 20.7618 46.9882 22.7951 46.9882H24.2164V47.3753C24.2164 48.2711 24.9573 49 25.8679 49C26.7785 49 27.5193 48.2711 27.5193 47.3753V46.9882H36.4862V47.3753C36.4862 48.2711 37.227 49 38.1376 49C39.0482 49 39.789 48.2711 39.789 47.3753V46.9882H41.205C43.2447 46.9882 44.904 45.3557 44.904 43.3491V40.907C45.4953 40.3497 46.4676 39.6826 48.0355 39.1438C48.0662 39.1331 48.0966 39.1211 48.1265 39.108L48.1328 39.1052C48.2529 39.0513 49.3347 38.5535 50.3307 37.7024C51.7417 36.4967 52.3412 35.1303 52.0647 33.7524C52.021 33.5326 51.9161 33.3368 51.7695 33.1809C53.2534 31.7102 54.3716 29.8334 53.6394 27.818Z" fill="#0676FF"/>
</g>
<mask id="mask1_3339_63200" style="mask-type:alpha" maskUnits="userSpaceOnUse" x="23" y="15" width="18" height="7">
<path d="M23.3378 15H40.3539V21.131H23.3378V15Z" fill="white"/>
</mask>
<g mask="url(#mask1_3339_63200)">
<path fill-rule="evenodd" clip-rule="evenodd" d="M31.8459 18.9608C29.2767 18.9608 27.1941 18.4127 27.1941 17.7366C27.1941 17.0605 29.2767 16.5124 31.8459 16.5124C34.4149 16.5124 36.4976 17.0605 36.4976 17.7366C36.4976 18.4127 34.4149 18.9608 31.8459 18.9608ZM31.8459 15C27.147 15 23.3378 16.3725 23.3378 18.0655C23.3378 19.7586 27.147 21.131 31.8459 21.131C36.5447 21.131 40.3539 19.7586 40.3539 18.0655C40.3539 16.3725 36.5447 15 31.8459 15Z" fill="#0676FF"/>
</g>
</svg>
