<svg width="17" height="16" viewBox="0 0 17 16" fill="none" xmlns="http://www.w3.org/2000/svg">
<path d="M3 4.75V12.75C3.00099 13.0812 3.133 13.3986 3.36721 13.6328C3.60142 13.867 3.91878 13.999 4.25 14H12.75C13.0812 13.999 13.3986 13.867 13.6328 13.6328C13.867 13.3986 13.999 13.0812 14 12.75V4.75" stroke="#5326EC" stroke-linecap="round" stroke-linejoin="round"/>
<path d="M14.125 2H2.875C2.39175 2 2 2.39175 2 2.875V3.625C2 4.10825 2.39175 4.5 2.875 4.5H14.125C14.6082 4.5 15 4.10825 15 3.625V2.875C15 2.39175 14.6082 2 14.125 2Z" stroke="#5326EC" stroke-linejoin="round"/>
<path d="M10.5 9.5L8.5 11.5L6.5 9.5M8.5 10.8091V7" stroke="#5326EC" stroke-linecap="round" stroke-linejoin="round"/>
</svg>
