<svg width="81" height="65" viewBox="0 0 81 65" fill="none" xmlns="http://www.w3.org/2000/svg">
<path d="M51.8156 32.326C52.3484 31.6917 52.2661 30.7455 51.6318 30.2126C50.9975 29.6798 50.0513 29.7621 49.5184 30.3964L51.8156 32.326ZM37.8337 46.639L36.7187 47.6424C37.0092 47.9651 37.4252 48.1462 37.8593 48.1388C38.2934 48.1313 38.703 47.9362 38.9822 47.6038L37.8337 46.639ZM33.4486 39.5244C32.8944 38.9086 31.946 38.8587 31.3302 39.4129C30.7144 39.9671 30.6645 40.9155 31.2187 41.5313L33.4486 39.5244ZM61.3337 39.0001C61.3337 28.0501 52.4503 19.1667 41.5003 19.1667V22.1667C50.7934 22.1667 58.3337 29.707 58.3337 39.0001H61.3337ZM41.5003 19.1667C30.5504 19.1667 21.667 28.0501 21.667 39.0001H24.667C24.667 29.707 32.2072 22.1667 41.5003 22.1667V19.1667ZM21.667 39.0001C21.667 49.95 30.5504 58.8334 41.5003 58.8334V55.8334C32.2072 55.8334 24.667 48.2932 24.667 39.0001H21.667ZM41.5003 58.8334C52.4503 58.8334 61.3337 49.95 61.3337 39.0001H58.3337C58.3337 48.2932 50.7934 55.8334 41.5003 55.8334V58.8334ZM49.5184 30.3964L36.6851 45.6742L38.9822 47.6038L51.8156 32.326L49.5184 30.3964ZM38.9486 45.6355L33.4486 39.5244L31.2187 41.5313L36.7187 47.6424L38.9486 45.6355Z" fill="#030823"/>
<path d="M17.8182 51.1818C17.999 51.1818 18.1724 51.11 18.3003 50.9821C18.4282 50.8543 18.5 50.6808 18.5 50.5C18.5 50.3192 18.4282 50.1457 18.3003 50.0179C18.1724 49.89 17.999 49.8182 17.8182 49.8182C13.6045 49.7227 11.6818 47.7727 11.6818 43.6818C11.6818 43.501 11.61 43.3276 11.4821 43.1997C11.3543 43.0718 11.1808 43 11 43C10.8192 43 10.6457 43.0718 10.5179 43.1997C10.39 43.3276 10.3182 43.501 10.3182 43.6818C10.3182 47.8068 8.34773 49.7568 4.18182 49.8182C4.00099 49.8182 3.82757 49.89 3.6997 50.0179C3.57183 50.1457 3.5 50.3192 3.5 50.5C3.5 50.6808 3.57183 50.8543 3.6997 50.9821C3.82757 51.11 4.00099 51.1818 4.18182 51.1818C8.31364 51.1818 10.2568 53.1318 10.3182 57.3182C10.3182 57.499 10.39 57.6724 10.5179 57.8003C10.6457 57.9282 10.8192 58 11 58C11.1808 58 11.3543 57.9282 11.4821 57.8003C11.61 57.6724 11.6818 57.499 11.6818 57.3182C11.8932 53.1114 13.8295 51.1818 17.7773 51.1818H17.8182Z" fill="#030823"/>
<path d="M79.3636 13.6364C79.665 13.6364 79.9541 13.5166 80.1672 13.3035C80.3803 13.0904 80.5 12.8014 80.5 12.5C80.5 12.1986 80.3803 11.9096 80.1672 11.6965C79.9541 11.4834 79.665 11.3636 79.3636 11.3636C72.3409 11.2045 69.1364 7.95455 69.1364 1.13636C69.1364 0.834981 69.0166 0.545943 68.8035 0.332833C68.5904 0.119724 68.3014 0 68 0C67.6986 0 67.4096 0.119724 67.1965 0.332833C66.9834 0.545943 66.8636 0.834981 66.8636 1.13636C66.8636 8.01136 63.5795 11.2614 56.6364 11.3636C56.335 11.3636 56.0459 11.4834 55.8328 11.6965C55.6197 11.9096 55.5 12.1986 55.5 12.5C55.5 12.8014 55.6197 13.0904 55.8328 13.3035C56.0459 13.5166 56.335 13.6364 56.6364 13.6364C63.5227 13.6364 66.7614 16.8864 66.8636 23.8636C66.8636 24.165 66.9834 24.4541 67.1965 24.6672C67.4096 24.8803 67.6986 25 68 25C68.3014 25 68.5904 24.8803 68.8035 24.6672C69.0166 24.4541 69.1364 24.165 69.1364 23.8636C69.4886 16.8523 72.7159 13.6364 79.2955 13.6364H79.3636Z" fill="#030823"/>
<path d="M5.68182 41.1818H4.31818V39.8182C4.31818 39.6012 4.23198 39.3931 4.07854 39.2396C3.9251 39.0862 3.717 39 3.5 39C3.283 39 3.0749 39.0862 2.92146 39.2396C2.76802 39.3931 2.68182 39.6012 2.68182 39.8182V41.1818H1.31818C1.10119 41.1818 0.893078 41.268 0.739639 41.4215C0.5862 41.5749 0.5 41.783 0.5 42C0.5 42.217 0.5862 42.4251 0.739639 42.5785C0.893078 42.732 1.10119 42.8182 1.31818 42.8182H2.68182V44.1818C2.68182 44.3988 2.76802 44.6069 2.92146 44.7604C3.0749 44.9138 3.283 45 3.5 45C3.717 45 3.9251 44.9138 4.07854 44.7604C4.23198 44.6069 4.31818 44.3988 4.31818 44.1818V42.8182H5.68182C5.89882 42.8182 6.10692 42.732 6.26036 42.5785C6.4138 42.4251 6.5 42.217 6.5 42C6.5 41.783 6.4138 41.5749 6.26036 41.4215C6.10692 41.268 5.89882 41.1818 5.68182 41.1818Z" fill="#030823"/>
<path d="M79.6818 21.1818H78.3182V19.8182C78.3182 19.6012 78.232 19.3931 78.0785 19.2396C77.9251 19.0862 77.717 19 77.5 19C77.283 19 77.0749 19.0862 76.9215 19.2396C76.768 19.3931 76.6818 19.6012 76.6818 19.8182V21.1818H75.3182C75.1012 21.1818 74.8931 21.268 74.7396 21.4215C74.5862 21.5749 74.5 21.783 74.5 22C74.5 22.217 74.5862 22.4251 74.7396 22.5785C74.8931 22.732 75.1012 22.8182 75.3182 22.8182H76.6818V24.1818C76.6818 24.3988 76.768 24.6069 76.9215 24.7604C77.0749 24.9138 77.283 25 77.5 25C77.717 25 77.9251 24.9138 78.0785 24.7604C78.232 24.6069 78.3182 24.3988 78.3182 24.1818V22.8182H79.6818C79.8988 22.8182 80.1069 22.732 80.2604 22.5785C80.4138 22.4251 80.5 22.217 80.5 22C80.5 21.783 80.4138 21.5749 80.2604 21.4215C80.1069 21.268 79.8988 21.1818 79.6818 21.1818Z" fill="#030823"/>
<circle cx="19" cy="14.5" r="4.5" fill="#030823"/>
<circle cx="60" cy="61.5" r="3.5" fill="#030823"/>
<circle cx="25" cy="63.5" r="1.5" fill="#030823"/>
</svg>
