<svg width="30" height="27" viewBox="0 0 30 27" fill="none" xmlns="http://www.w3.org/2000/svg">
<path d="M15 9.99979V15.3331M15 20.6665H15.0134M12.72 3.14645L1.42669 21.9998C1.19385 22.403 1.07065 22.8602 1.06935 23.3258C1.06804 23.7914 1.18868 24.2493 1.41926 24.6538C1.64984 25.0583 1.98233 25.3954 2.38364 25.6316C2.78495 25.8677 3.24109 25.9947 3.70669 25.9998H26.2934C26.759 25.9947 27.2151 25.8677 27.6164 25.6316C28.0177 25.3954 28.3502 25.0583 28.5808 24.6538C28.8114 24.2493 28.932 23.7914 28.9307 23.3258C28.9294 22.8602 28.8062 22.403 28.5734 21.9998L17.28 3.14645C17.0423 2.75459 16.7077 2.43061 16.3083 2.20576C15.9089 1.98092 15.4583 1.86279 15 1.86279C14.5417 1.86279 14.0911 1.98092 13.6918 2.20576C13.2924 2.43061 12.9577 2.75459 12.72 3.14645Z" stroke="#E6492D" stroke-width="2" stroke-linecap="round" stroke-linejoin="round"/>
</svg>
