<svg width="17" height="16" viewBox="0 0 17 16" fill="none" xmlns="http://www.w3.org/2000/svg">
<path d="M13.5825 2.99473C12.6477 2.53432 11.6452 2.1951 10.5971 2.00081C10.578 1.99707 10.559 2.00644 10.5491 2.02518C10.4202 2.27131 10.2774 2.59241 10.1774 2.84479C9.05008 2.66363 7.92856 2.66363 6.82437 2.84479C6.72434 2.5868 6.57636 2.27131 6.44685 2.02518C6.43702 2.00706 6.41795 1.99769 6.39887 2.00081C5.35134 2.19448 4.3489 2.53369 3.41352 2.99473C3.40542 2.99848 3.39848 3.00473 3.39387 3.01285C1.49247 6.06208 0.97159 9.03635 1.22711 11.9738C1.22827 11.9881 1.23579 12.0019 1.24619 12.0106C2.50069 12.9995 3.71588 13.5999 4.90851 13.9978C4.92759 14.0041 4.94782 13.9966 4.95996 13.9797C5.24208 13.5662 5.49356 13.1301 5.70918 12.6715C5.72191 12.6447 5.70976 12.6128 5.68375 12.6022C5.28486 12.4398 4.90504 12.2417 4.53967 12.0169C4.51077 11.9987 4.50846 11.9544 4.53504 11.9331C4.61193 11.8713 4.68884 11.8069 4.76225 11.742C4.77554 11.7301 4.79405 11.7276 4.80966 11.7351C7.20995 12.9114 9.80856 12.9114 12.1805 11.7351C12.1961 11.727 12.2147 11.7295 12.2285 11.7413C12.302 11.8063 12.3788 11.8713 12.4563 11.9331C12.4829 11.9544 12.4812 11.9987 12.4523 12.0169C12.0869 12.2461 11.7071 12.4398 11.3076 12.6016C11.2816 12.6122 11.27 12.6447 11.2827 12.6715C11.503 13.1295 11.7545 13.5655 12.0314 13.9791C12.043 13.9966 12.0638 14.0041 12.0828 13.9978C13.2813 13.5999 14.4964 12.9995 15.7509 12.0106C15.7619 12.0019 15.7689 11.9887 15.77 11.9744C16.0758 8.57842 15.2578 5.62853 13.6015 3.01347C13.5975 3.00473 13.5906 2.99848 13.5825 2.99473ZM6.06763 10.1852C5.34497 10.1852 4.74953 9.47302 4.74953 8.59842C4.74953 7.72381 5.33343 7.01165 6.06763 7.01165C6.80759 7.01165 7.39728 7.73006 7.38571 8.59842C7.38571 9.47302 6.80181 10.1852 6.06763 10.1852ZM10.9411 10.1852C10.2184 10.1852 9.62299 9.47302 9.62299 8.59842C9.62299 7.72381 10.2069 7.01165 10.9411 7.01165C11.6811 7.01165 12.2707 7.73006 12.2592 8.59842C12.2592 9.47302 11.6811 10.1852 10.9411 10.1852Z" fill="white"/>
</svg>
