<svg width="32" height="33" viewBox="0 0 32 33" fill="none" xmlns="http://www.w3.org/2000/svg">
<path d="M21.2093 8.68604C20.9331 8.68604 20.7093 8.90989 20.7093 9.18604C20.7093 9.46218 20.9331 9.68604 21.2093 9.68604V8.68604ZM11.7209 9.68604C11.9971 9.68604 12.2209 9.46218 12.2209 9.18604C12.2209 8.90989 11.9971 8.68604 11.7209 8.68604V9.68604ZM29.2674 15.186V29.2558H30.2674V15.186H29.2674ZM26.7674 31.7558H5.23254V32.7558H26.7674V31.7558ZM2.73254 29.2558V15.186H1.73254V29.2558H2.73254ZM21.2093 9.68604H23.7674V8.68604H21.2093V9.68604ZM8.23254 9.68604H11.7209V8.68604H8.23254V9.68604ZM5.23254 31.7558C3.85183 31.7558 2.73254 30.6365 2.73254 29.2558H1.73254C1.73254 31.1888 3.29954 32.7558 5.23254 32.7558V31.7558ZM29.2674 29.2558C29.2674 30.6365 28.1481 31.7558 26.7674 31.7558V32.7558C28.7004 32.7558 30.2674 31.1888 30.2674 29.2558H29.2674ZM30.2674 15.186C30.2674 11.5962 27.3573 8.68604 23.7674 8.68604V9.68604C26.805 9.68604 29.2674 12.1485 29.2674 15.186H30.2674ZM2.73254 15.186C2.73254 12.1485 5.19498 9.68604 8.23254 9.68604V8.68604C4.64269 8.68604 1.73254 11.5962 1.73254 15.186H2.73254Z" fill="#030823"/>
<path d="M2.73254 18.6511C2.73254 16.1658 4.74726 14.1511 7.23254 14.1511H24.7674C27.2527 14.1511 29.2674 16.1658 29.2674 18.6511V29.2558C29.2674 30.6365 28.1481 31.7558 26.7674 31.7558H5.23254C3.85183 31.7558 2.73254 30.6365 2.73254 29.2558V18.6511Z" stroke="#030823"/>
<path d="M16.7221 3.21952C16.7221 3.02622 16.5654 2.86952 16.3721 2.86952C16.1788 2.86952 16.0221 3.02622 16.0221 3.21952H16.7221ZM16.0221 7.19884C16.0221 7.39214 16.1788 7.54884 16.3721 7.54884C16.5654 7.54884 16.7221 7.39214 16.7221 7.19884H16.0221ZM17.2765 4.29295C17.4698 4.29295 17.6265 4.13625 17.6265 3.94295C17.6265 3.74965 17.4698 3.59295 17.2765 3.59295V4.29295ZM15.9199 5.2091V5.5591V5.2091ZM16.8243 5.2091V4.8591V5.2091ZM16.8243 6.47525V6.82525V6.47525ZM15.2868 6.12525C15.0935 6.12525 14.9368 6.28195 14.9368 6.47525C14.9368 6.66855 15.0935 6.82525 15.2868 6.82525V6.12525ZM20.629 5.20922C20.629 2.85895 18.7223 0.952246 16.3721 0.952246V1.65225C18.3357 1.65225 19.929 3.24555 19.929 5.20922H20.629ZM16.3721 0.952246C14.0218 0.952246 12.1151 2.85895 12.1151 5.20922H12.8151C12.8151 3.24555 14.4084 1.65225 16.3721 1.65225V0.952246ZM12.1151 5.20922C12.1151 7.5595 14.0218 9.4662 16.3721 9.4662V8.7662C14.4084 8.7662 12.8151 7.1729 12.8151 5.20922H12.1151ZM16.3721 9.4662C18.7223 9.4662 20.629 7.5595 20.629 5.20922H19.929C19.929 7.1729 18.3357 8.7662 16.3721 8.7662V9.4662ZM16.0221 3.21952V7.19884H16.7221V3.21952H16.0221ZM17.2765 3.59295H15.9199V4.29295H17.2765V3.59295ZM15.9199 3.59295C15.6592 3.59295 15.4091 3.69652 15.2247 3.88089L15.7197 4.37586C15.7728 4.32278 15.8448 4.29295 15.9199 4.29295V3.59295ZM15.2247 3.88089C15.0404 4.06525 14.9368 4.3153 14.9368 4.57603H15.6368C15.6368 4.50095 15.6666 4.42895 15.7197 4.37586L15.2247 3.88089ZM14.9368 4.57603C14.9368 4.83675 15.0404 5.0868 15.2247 5.27117L15.7197 4.77619C15.6666 4.7231 15.6368 4.6511 15.6368 4.57603H14.9368ZM15.2247 5.27117C15.4091 5.45553 15.6592 5.5591 15.9199 5.5591V4.8591C15.8448 4.8591 15.7728 4.82928 15.7197 4.77619L15.2247 5.27117ZM15.9199 5.5591H16.8243V4.8591H15.9199V5.5591ZM16.8243 5.5591C16.8994 5.5591 16.9714 5.58893 17.0244 5.64201L17.5194 5.14704C17.3351 4.96268 17.085 4.8591 16.8243 4.8591V5.5591ZM17.0244 5.64201C17.0775 5.6951 17.1074 5.7671 17.1074 5.84218H17.8074C17.8074 5.58145 17.7038 5.3314 17.5194 5.14704L17.0244 5.64201ZM17.1074 5.84218C17.1074 5.91725 17.0775 5.98925 17.0244 6.04234L17.5194 6.53732C17.7038 6.35295 17.8074 6.1029 17.8074 5.84218H17.1074ZM17.0244 6.04234C16.9714 6.09543 16.8994 6.12525 16.8243 6.12525V6.82525C17.085 6.82525 17.3351 6.72168 17.5194 6.53732L17.0244 6.04234ZM16.8243 6.12525H15.2868V6.82525H16.8243V6.12525Z" fill="black"/>
<path d="M18.7193 18.4883C17.2095 18.4883 16.4654 19.9767 16.4654 19.9767C16.4654 19.9767 15.7212 18.4883 14.2114 18.4883C12.9844 18.4883 12.0128 19.5148 12.0002 20.7397C11.9747 23.2822 14.0172 25.0904 16.2561 26.6099C16.3178 26.6519 16.3907 26.6744 16.4654 26.6744C16.54 26.6744 16.6129 26.6519 16.6747 26.6099C18.9133 25.0904 20.9558 23.2822 20.9305 20.7397C20.9179 19.5148 19.9463 18.4883 18.7193 18.4883V18.4883Z" stroke="black" stroke-linecap="round" stroke-linejoin="round"/>
<line x1="13.1511" y1="11.6628" x2="19.593" y2="11.6628" stroke="black" stroke-linecap="round"/>
</svg>
