<svg width="90" height="65" viewBox="0 0 90 65" fill="none" xmlns="http://www.w3.org/2000/svg">
<path d="M44.0004 28.4999V35.8332M44.0004 43.1666H44.0187M40.8654 19.0766L25.3371 44.9999C25.0169 45.5543 24.8475 46.1829 24.8457 46.8232C24.8439 47.4634 25.0098 48.093 25.3269 48.6492C25.6439 49.2054 26.1011 49.6689 26.6529 49.9936C27.2047 50.3183 27.8319 50.4929 28.4721 50.4999H59.5287C60.1689 50.4929 60.7961 50.3183 61.3479 49.9936C61.8997 49.6689 62.3569 49.2054 62.674 48.6492C62.991 48.093 63.1569 47.4634 63.1551 46.8232C63.1533 46.1829 62.9839 45.5543 62.6637 44.9999L47.1354 19.0766C46.8086 18.5377 46.3484 18.0923 45.7993 17.7831C45.2501 17.4739 44.6306 17.3115 44.0004 17.3115C43.3702 17.3115 42.7507 17.4739 42.2015 17.7831C41.6524 18.0923 41.1922 18.5377 40.8654 19.0766Z" stroke="#E6492D" stroke-width="3" stroke-linecap="round" stroke-linejoin="round"/>
<path d="M11.8035 50.1609C11.9313 50.0331 12.0032 49.8596 12.0032 49.6788C12.0032 49.498 11.9313 49.3246 11.8035 49.1967C11.6756 49.0688 11.5022 48.997 11.3213 48.997C11.1405 48.997 10.9671 49.0688 10.8392 49.1967C7.79223 52.1087 5.0538 52.0894 2.16109 49.1967C2.03323 49.0688 1.8598 48.997 1.67897 48.997C1.49814 48.997 1.32472 49.0688 1.19686 49.1967C1.06899 49.3246 0.997156 49.498 0.997156 49.6788C0.997156 49.8596 1.06899 50.0331 1.19686 50.1609C4.11367 53.0778 4.09921 55.8499 1.19686 58.8391C1.06899 58.9669 0.997156 59.1404 0.997156 59.3212C0.997156 59.502 1.06899 59.6754 1.19686 59.8033C1.32472 59.9312 1.49814 60.003 1.67897 60.003C1.8598 60.003 2.03323 59.9312 2.16109 59.8033C5.08273 56.8817 7.83562 56.8865 10.8392 59.8033C10.9671 59.9312 11.1405 60.003 11.3213 60.003C11.5022 60.003 11.6756 59.9312 11.8035 59.8033C11.9313 59.6754 12.0032 59.502 12.0032 59.3212C12.0032 59.1404 11.9313 58.9669 11.8035 58.8391C8.97824 55.7149 8.98307 52.9813 11.7745 50.1899L11.8035 50.1609Z" fill="#E6492D"/>
<path d="M79.3388 5.26823C79.5519 5.05512 79.6716 4.76608 79.6716 4.4647C79.6716 4.16331 79.5519 3.87427 79.3388 3.66116C79.1257 3.44806 78.8366 3.32833 78.5352 3.32833C78.2339 3.32833 77.9448 3.44806 77.7317 3.66117C72.6534 8.51449 68.0893 8.48235 63.2682 3.66117C63.0551 3.44806 62.766 3.32833 62.4646 3.32833C62.1632 3.32833 61.8742 3.44806 61.6611 3.66116C61.448 3.87427 61.3283 4.16331 61.3283 4.4647C61.3283 4.76608 61.448 5.05512 61.6611 5.26823C66.5225 10.1296 66.4984 14.7499 61.6611 19.7318C61.448 19.9449 61.3283 20.2339 61.3283 20.5353C61.3283 20.8367 61.448 21.1257 61.6611 21.3388C61.8742 21.5519 62.1632 21.6717 62.4646 21.6717C62.766 21.6717 63.0551 21.5519 63.2682 21.3388C68.1376 16.4694 72.7257 16.4775 77.7317 21.3388C77.9448 21.5519 78.2339 21.6717 78.5352 21.6717C78.8366 21.6717 79.1257 21.5519 79.3388 21.3388C79.5519 21.1257 79.6716 20.8367 79.6716 20.5353C79.6716 20.2339 79.5519 19.9449 79.3388 19.7318C74.6301 14.5249 74.6381 9.96888 79.2906 5.31644L79.3388 5.26823Z" fill="#E6492D"/>
<path d="M6.96469 39.8787L6.00045 40.8429L5.03622 39.8787C4.88278 39.7252 4.67467 39.639 4.45767 39.639C4.24068 39.639 4.03257 39.7252 3.87913 39.8787C3.72569 40.0321 3.63949 40.2402 3.63949 40.4572C3.63949 40.6742 3.7257 40.8823 3.87913 41.0358L4.84337 42L3.87913 42.9642C3.7257 43.1177 3.63949 43.3258 3.63949 43.5428C3.63949 43.7598 3.72569 43.9679 3.87913 44.1213C4.03257 44.2748 4.24068 44.361 4.45767 44.361C4.67467 44.361 4.88278 44.2748 5.03622 44.1213L6.00045 43.1571L6.96469 44.1213C7.11813 44.2748 7.32624 44.361 7.54323 44.361C7.76023 44.361 7.96833 44.2748 8.12177 44.1213C8.27521 43.9679 8.36141 43.7598 8.36141 43.5428C8.36141 43.3258 8.27521 43.1177 8.12177 42.9642L7.15754 42L8.12177 41.0358C8.27521 40.8823 8.36141 40.6742 8.36141 40.4572C8.36141 40.2402 8.27521 40.0321 8.12177 39.8787C7.96833 39.7252 7.76023 39.639 7.54323 39.639C7.32624 39.639 7.11813 39.7252 6.96469 39.8787Z" fill="#E6492D"/>
<path d="M87.9647 14.8787L87.0005 15.8429L86.0362 14.8787C85.8828 14.7252 85.6747 14.639 85.4577 14.639C85.2407 14.639 85.0326 14.7252 84.8791 14.8787C84.7257 15.0321 84.6395 15.2402 84.6395 15.4572C84.6395 15.6742 84.7257 15.8823 84.8791 16.0358L85.8434 17L84.8791 17.9642C84.7257 18.1177 84.6395 18.3258 84.6395 18.5428C84.6395 18.7598 84.7257 18.9679 84.8791 19.1213C85.0326 19.2748 85.2407 19.361 85.4577 19.361C85.6747 19.361 85.8828 19.2748 86.0362 19.1213L87.0005 18.1571L87.9647 19.1213C88.1181 19.2748 88.3262 19.361 88.5432 19.361C88.7602 19.361 88.9683 19.2748 89.1218 19.1213C89.2752 18.9679 89.3614 18.7598 89.3614 18.5428C89.3614 18.3258 89.2752 18.1177 89.1218 17.9642L88.1575 17L89.1218 16.0358C89.2752 15.8823 89.3614 15.6742 89.3614 15.4572C89.3614 15.2402 89.2752 15.0321 89.1218 14.8787C88.9683 14.7252 88.7602 14.639 88.5432 14.639C88.3262 14.639 88.1181 14.7252 87.9647 14.8787Z" fill="#E6492D"/>
<circle cx="21.5" cy="14.5" r="4.5" fill="#E6492D"/>
<circle cx="62.5" cy="61.5" r="3.5" fill="#E6492D"/>
<circle cx="27.5" cy="63.5" r="1.5" fill="#E6492D"/>
</svg>
