<svg width="297" height="263" viewBox="0 0 297 263" fill="none" xmlns="http://www.w3.org/2000/svg">
<g opacity="0.6">
<path fill-rule="evenodd" clip-rule="evenodd" d="M100.166 1.26844C90.4591 -0.422814 80.5409 -0.422814 70.8338 1.26844L70.7956 22.0453C63.7986 23.6632 57.122 26.432 51.032 30.2348L36.3128 15.5682C28.2556 21.238 21.2381 28.2556 15.5682 36.3128L30.2348 51.032C26.4324 57.1217 23.6635 63.7983 22.0454 70.7956L1.26844 70.8338C-0.422814 80.5409 -0.422814 90.4591 1.26844 100.166L22.0454 100.204C23.6632 107.201 26.432 113.878 30.2348 119.968L15.5682 134.687C21.2381 142.744 28.2556 149.762 36.3128 155.432L51.032 140.765C57.1217 144.568 63.7983 147.336 70.7956 148.955L70.8338 169.732C80.5409 171.423 90.4591 171.423 100.166 169.732L100.204 148.955C107.201 147.337 113.878 144.568 119.968 140.765L134.687 155.432C142.744 149.762 149.762 142.744 155.432 134.687L140.765 119.968C144.568 113.878 147.336 107.202 148.955 100.204L169.732 100.166C171.423 90.4591 171.423 80.5409 169.732 70.8338L148.955 70.7956C147.337 63.7986 144.568 57.122 140.765 51.032L155.432 36.3128C149.762 28.2556 142.744 21.238 134.687 15.5682L119.968 30.2348C113.878 26.4324 107.202 23.6635 100.204 22.0453L100.166 1.26844ZM85.4996 59.1996C100.016 59.1996 111.802 70.9858 111.802 85.5021C111.802 100.018 100.016 111.804 85.4996 111.804C70.9834 111.804 59.1972 100.018 59.1972 85.5021C59.1972 70.9858 70.9834 59.1996 85.4996 59.1996Z" fill="#8668FC"/>
<path fill-rule="evenodd" clip-rule="evenodd" d="M244.807 70.9421C237.654 69.686 230.346 69.686 223.193 70.9421L223.165 86.3729C218.01 87.5744 213.09 89.6308 208.603 92.4551L197.757 81.5623C191.82 85.7733 186.649 90.9852 182.471 96.9692L193.278 107.901C190.477 112.424 188.436 117.382 187.244 122.579L171.935 122.608C170.688 129.817 170.688 137.183 171.935 144.392L187.244 144.421C188.436 149.617 190.476 154.576 193.278 159.099L182.471 170.031C186.649 176.015 191.82 181.227 197.757 185.438L208.603 174.545C213.09 177.369 218.009 179.425 223.165 180.627L223.193 196.058C230.346 197.314 237.654 197.314 244.807 196.058L244.835 180.627C249.99 179.426 254.91 177.369 259.397 174.545L270.243 185.438C276.18 181.227 281.351 176.015 285.529 170.031L274.722 159.099C277.523 154.576 279.564 149.618 280.756 144.421L296.065 144.392C297.312 137.183 297.312 129.817 296.065 122.608L280.756 122.579C279.564 117.383 277.524 112.424 274.722 107.901L285.529 96.9692C281.351 90.9852 276.18 85.7733 270.243 81.5623L259.397 92.4551C254.91 89.6311 249.991 87.5747 244.835 86.3729L244.807 70.9421ZM234 113.967C244.696 113.967 253.38 122.72 253.38 133.502C253.38 144.283 244.696 153.036 234 153.036C223.304 153.036 214.619 144.283 214.619 133.502C214.619 122.72 223.304 113.967 234 113.967Z" fill="#8668FC"/>
<path fill-rule="evenodd" clip-rule="evenodd" d="M142.891 171.682C137.668 170.773 132.332 170.773 127.109 171.682L127.089 182.861C123.324 183.731 119.732 185.221 116.456 187.267L108.537 179.376C104.202 182.426 100.426 186.202 97.3759 190.537L105.267 198.456C103.221 201.732 101.731 205.324 100.861 209.089L89.6824 209.109C88.7725 214.332 88.7725 219.668 89.6824 224.891L100.861 224.911C101.731 228.676 103.221 232.268 105.267 235.544L97.3759 243.463C100.426 247.798 104.202 251.574 108.537 254.624L116.456 246.733C119.732 248.779 123.324 250.269 127.089 251.139L127.109 262.318C132.332 263.227 137.668 263.227 142.891 262.318L142.911 251.139C146.676 250.269 150.268 248.779 153.544 246.733L161.463 254.624C165.798 251.574 169.574 247.798 172.624 243.463L164.733 235.544C166.779 232.268 168.269 228.676 169.139 224.911L180.318 224.891C181.227 219.668 181.227 214.332 180.318 209.109L169.139 209.089C168.269 205.324 166.779 201.732 164.733 198.456L172.624 190.537C169.574 186.202 165.798 182.426 161.463 179.376L153.544 187.267C150.268 185.221 146.676 183.731 142.911 182.861L142.891 171.682ZM135 202.85C142.81 202.85 149.151 209.191 149.151 217.001C149.151 224.811 142.81 231.152 135 231.152C127.19 231.152 120.849 224.811 120.849 217.001C120.849 209.191 127.19 202.85 135 202.85Z" fill="#8668FC"/>
</g>
</svg>
