<svg width="171" height="171" viewBox="0 0 171 171" fill="none" xmlns="http://www.w3.org/2000/svg">
<path opacity="0.6" fill-rule="evenodd" clip-rule="evenodd" d="M100.166 1.26844C90.4591 -0.422814 80.5409 -0.422814 70.8338 1.26844L70.7956 22.0453C63.7986 23.6632 57.122 26.432 51.032 30.2348L36.3128 15.5682C28.2556 21.238 21.2381 28.2556 15.5682 36.3128L30.2348 51.032C26.4324 57.1217 23.6635 63.7983 22.0454 70.7956L1.26844 70.8338C-0.422814 80.5409 -0.422814 90.4591 1.26844 100.166L22.0454 100.204C23.6632 107.201 26.432 113.878 30.2348 119.968L15.5682 134.687C21.2381 142.744 28.2556 149.762 36.3128 155.432L51.032 140.765C57.1217 144.568 63.7983 147.336 70.7956 148.955L70.8338 169.732C80.5409 171.423 90.4591 171.423 100.166 169.732L100.204 148.955C107.201 147.337 113.878 144.568 119.968 140.765L134.687 155.432C142.744 149.762 149.762 142.744 155.432 134.687L140.765 119.968C144.568 113.878 147.336 107.202 148.955 100.204L169.732 100.166C171.423 90.4591 171.423 80.5409 169.732 70.8338L148.955 70.7956C147.337 63.7986 144.568 57.122 140.765 51.032L155.432 36.3128C149.762 28.2556 142.744 21.238 134.687 15.5682L119.968 30.2348C113.878 26.4324 107.202 23.6635 100.204 22.0453L100.166 1.26844ZM85.4996 59.1996C100.016 59.1996 111.802 70.9858 111.802 85.5021C111.802 100.018 100.016 111.804 85.4996 111.804C70.9834 111.804 59.1972 100.018 59.1972 85.5021C59.1972 70.9858 70.9834 59.1996 85.4996 59.1996Z" fill="#8668FC"/>
</svg>
