<svg width="32" height="32" viewBox="0 0 32 32" fill="none" xmlns="http://www.w3.org/2000/svg">
<path d="M26.6663 16V29.3333H5.33301V16" stroke="#1D1E1F" stroke-width="2" stroke-linecap="round" stroke-linejoin="round"/>
<path d="M29.3337 9.3335H2.66699V16.0002H29.3337V9.3335Z" stroke="#1D1E1F" stroke-width="2" stroke-linecap="round" stroke-linejoin="round"/>
<path d="M16 29.3335V9.3335" stroke="#1D1E1F" stroke-width="2" stroke-linecap="round" stroke-linejoin="round"/>
<path d="M16.0003 9.33317H10.0003C9.11627 9.33317 8.26842 8.98198 7.6433 8.35686C7.01818 7.73174 6.66699 6.88389 6.66699 5.99984C6.66699 5.11578 7.01818 4.26794 7.6433 3.64281C8.26842 3.01769 9.11627 2.6665 10.0003 2.6665C14.667 2.6665 16.0003 9.33317 16.0003 9.33317Z" stroke="#1D1E1F" stroke-width="2" stroke-linecap="round" stroke-linejoin="round"/>
<path d="M16 9.33317H22C22.8841 9.33317 23.7319 8.98198 24.357 8.35686C24.9821 7.73174 25.3333 6.88389 25.3333 5.99984C25.3333 5.11578 24.9821 4.26794 24.357 3.64281C23.7319 3.01769 22.8841 2.6665 22 2.6665C17.3333 2.6665 16 9.33317 16 9.33317Z" stroke="#1D1E1F" stroke-width="2" stroke-linecap="round" stroke-linejoin="round"/>
</svg>
