<svg width="17" height="16" viewBox="0 0 17 16" fill="none" xmlns="http://www.w3.org/2000/svg">
<path d="M13.8332 8V14.6667H3.1665V8" stroke="#82899A" stroke-linecap="round" stroke-linejoin="round"/>
<path d="M15.1668 4.66669H1.8335V8.00002H15.1668V4.66669Z" stroke="#82899A" stroke-linecap="round" stroke-linejoin="round"/>
<path d="M8.5 14.6667V4.66669" stroke="#82899A" stroke-linecap="round" stroke-linejoin="round"/>
<path d="M8.50016 4.66665H5.50016C5.05814 4.66665 4.63421 4.49105 4.32165 4.17849C4.00909 3.86593 3.8335 3.44201 3.8335 2.99998C3.8335 2.55795 4.00909 2.13403 4.32165 1.82147C4.63421 1.50891 5.05814 1.33331 5.50016 1.33331C7.8335 1.33331 8.50016 4.66665 8.50016 4.66665Z" stroke="#82899A" stroke-linecap="round" stroke-linejoin="round"/>
<path d="M8.5 4.66665H11.5C11.942 4.66665 12.366 4.49105 12.6785 4.17849C12.9911 3.86593 13.1667 3.44201 13.1667 2.99998C13.1667 2.55795 12.9911 2.13403 12.6785 1.82147C12.366 1.50891 11.942 1.33331 11.5 1.33331C9.16667 1.33331 8.5 4.66665 8.5 4.66665Z" stroke="#82899A" stroke-linecap="round" stroke-linejoin="round"/>
</svg>
