<svg width="194" height="60" viewBox="0 0 194 60" fill="none" xmlns="http://www.w3.org/2000/svg">
<path d="M91.3753 14.151C91.4394 14.1649 91.5042 14.1752 91.5693 14.182C95.5859 14.3489 99.401 15.9861 102.289 18.7821C102.357 18.8511 102.432 18.92 102.489 18.972L100.168 21.295C100.068 21.206 99.9513 21.0951 99.8323 20.9851C98.4302 19.6843 96.7635 18.7019 94.9464 18.1051C94.1604 17.8494 93.3527 17.6658 92.5333 17.557C91.6747 17.4503 90.8079 17.4239 89.9443 17.478C89.0098 17.5317 88.0845 17.6921 87.1863 17.9561C86.4182 18.1736 85.6717 18.4615 84.9563 18.816C83.9735 19.2938 83.058 19.899 82.2333 20.6161C81.9143 20.8921 81.6003 21.182 81.3023 21.484C80.7084 22.0904 80.177 22.7551 79.7163 23.468C79.2738 24.1465 78.8946 24.8642 78.5833 25.6121C78.185 26.5561 77.9026 27.545 77.7423 28.557C77.6733 28.986 77.6263 29.4191 77.6003 29.8571C77.5664 30.3743 77.5594 30.893 77.5793 31.411C77.6224 32.3074 77.7602 33.1967 77.9903 34.0641C78.6841 36.7306 80.1911 39.115 82.3019 40.8859C84.4128 42.6568 87.0228 43.7263 89.7694 43.946C90.407 43.9924 91.0471 43.9968 91.6853 43.9591C92.7193 43.8985 93.7419 43.7115 94.7304 43.4021C95.4096 43.194 96.0705 42.93 96.7063 42.613C98.8047 41.5704 100.591 39.9923 101.883 38.0381C102.61 36.944 103.168 35.7469 103.538 34.4871C103.572 34.3721 103.607 34.257 103.645 34.113C103.207 34.108 102.796 34.113 102.384 34.113H87.5013L90.8743 30.7371H107.361V30.9701C107.304 34.6848 106.001 38.2724 103.66 41.1575C101.32 44.0425 98.0775 46.0575 94.4543 46.879C93.5334 47.0851 92.5968 47.2133 91.6543 47.2621C90.8666 47.309 90.0764 47.2922 89.2913 47.212C85.8071 46.8852 82.516 45.4634 79.8898 43.1504C77.2637 40.8374 75.4376 37.7521 74.6733 34.337C74.4475 33.3564 74.3192 32.356 74.2903 31.3501C74.1465 27.5023 75.3472 23.7245 77.6862 20.6658C80.0251 17.6071 83.3563 15.4585 87.1073 14.5891C87.9514 14.3944 88.8093 14.2657 89.6733 14.2041C89.7993 14.1941 89.9273 14.198 90.0533 14.191C90.1183 14.184 90.1823 14.173 90.2473 14.16L91.3753 14.151Z" fill="white"/>
<path d="M193.218 47.276H189.918V34.1111H179.98V47.2451C179.85 47.2831 176.914 47.294 176.688 47.26V27.483H179.975V30.6831C180.113 30.7211 189.597 30.7341 189.918 30.6991V20.8821C189.964 20.8741 190.01 20.868 190.056 20.864H193.134C193.162 20.8651 193.189 20.8678 193.216 20.8721L193.218 47.276Z" fill="white"/>
<path d="M160.104 34.0951H146.938L143.572 30.7251H156.304C155.828 29.3761 155.067 28.1456 154.073 27.1175C153.078 26.0893 151.873 25.2878 150.541 24.7674C149.208 24.247 147.779 24.02 146.351 24.102C144.923 24.1839 143.53 24.5727 142.265 25.2421C140.816 26.0103 139.58 27.1244 138.665 28.4855C137.75 29.8466 137.185 31.4126 137.021 33.0443C136.857 34.6761 137.098 36.323 137.723 37.8391C138.349 39.3552 139.339 40.6936 140.605 41.7351C142.496 43.3215 144.92 44.1275 147.384 43.989C149.837 43.8908 152.164 42.8769 153.905 41.1471L156.191 43.4361C154.022 45.5838 151.175 46.9134 148.136 47.1982C145.096 47.4829 142.052 46.7054 139.521 44.998C136.991 43.2905 135.13 40.7587 134.257 37.8337C133.383 34.9086 133.55 31.7712 134.729 28.9555C135.909 26.1398 138.028 23.82 140.726 22.391C143.423 20.9621 146.533 20.5123 149.525 21.1183C152.517 21.7243 155.206 23.3487 157.135 25.7148C159.064 28.0808 160.113 31.0424 160.104 34.0951Z" fill="white"/>
<path d="M120.644 40.5891L132.015 20.8771H135.783L135.793 20.8931C135.793 20.8931 135.793 20.9041 135.793 20.9081C135.786 20.9286 135.777 20.9486 135.766 20.968L120.596 47.2681H117.313V20.906L117.325 20.89C117.329 20.8861 117.334 20.8834 117.339 20.8821C117.361 20.8764 117.382 20.8727 117.404 20.8711H120.515C120.543 20.8739 120.571 20.8782 120.598 20.884V40.5841L120.644 40.5891Z" fill="white"/>
<path d="M166.744 47.2681H163.444V24.0891C163.219 24.0761 163.006 24.089 162.794 24.083H159.535L157.665 20.8761H179.965V24.076H166.744V47.2681Z" fill="white"/>
<path d="M113.975 47.2681H110.696V27.4821H113.96L113.968 27.4911C113.968 27.4911 113.978 27.4991 113.978 27.5031C113.978 34.0611 113.98 40.619 113.984 47.177C113.975 47.204 113.975 47.2301 113.975 47.2681Z" fill="white"/>
<path d="M112.335 20.868C112.769 20.8713 113.184 21.0464 113.489 21.355C113.794 21.6635 113.964 22.0804 113.963 22.5143C113.961 22.9482 113.788 23.3637 113.48 23.6699C113.173 23.9761 112.757 24.1481 112.323 24.1481C111.889 24.1481 111.473 23.9761 111.165 23.6699C110.858 23.3637 110.684 22.9482 110.683 22.5143C110.681 22.0804 110.852 21.6635 111.157 21.355C111.462 21.0464 111.876 20.8713 112.31 20.868H112.335Z" fill="white"/>
<path d="M59.7053 30.593C59.6463 31.432 59.6263 32.2771 59.5233 33.1101C59.0927 37.321 57.7566 41.3888 55.6067 45.0349C53.4567 48.6811 50.5437 51.8191 47.0673 54.234C41.8037 58.0558 35.3997 59.9799 28.9013 59.692C21.4419 59.503 14.334 56.4819 9.02133 51.2421C8.99594 51.1962 8.98264 51.1445 8.98264 51.0921C8.98264 51.0396 8.99594 50.988 9.02133 50.942C15.9547 43.996 22.8953 37.0575 29.8433 30.1261C30.0079 29.9758 30.2206 29.889 30.4433 29.8811C40.1987 29.8691 49.9537 29.8658 59.7083 29.8711L59.7053 30.593Z" fill="white"/>
<path d="M30.5753 0C31.3953 0.062 32.2173 0.100012 33.0343 0.187012C37.758 0.683747 42.2929 2.30947 46.2563 4.927C46.2839 4.94709 46.31 4.96919 46.3343 4.99304L43.7873 7.53503C43.2333 8.08803 42.6823 8.64504 42.1213 9.19104C42.0861 9.2143 42.0456 9.22839 42.0035 9.23206C41.9614 9.23572 41.9191 9.22885 41.8803 9.21204C37.3184 6.55789 32.0064 5.48783 26.7726 6.1687C21.5388 6.84957 16.6774 9.24308 12.9463 12.9761C9.21528 16.7091 6.82429 21.5718 6.14614 26.8059C5.46799 32.04 6.5408 37.3515 9.19732 41.9121C9.21396 41.9439 9.22268 41.9791 9.22268 42.015C9.22268 42.0509 9.21396 42.0863 9.19732 42.118C7.80932 43.518 6.41633 44.9127 5.01833 46.302C5.00433 46.316 4.98732 46.327 4.95632 46.353C4.82432 46.153 4.69231 45.9531 4.56731 45.7531C1.96528 41.6071 0.422656 36.885 0.0752776 32.0026C-0.2721 27.1201 0.58643 22.2272 2.57528 17.7546C4.56413 13.2821 7.62225 9.36724 11.4803 6.35486C15.3384 3.34247 19.878 1.32498 24.6993 0.480103C26.0613 0.241103 27.4533 0.180109 28.8313 0.0371094L29.1123 0.00708008L30.5753 0Z" fill="white"/>
<path d="M45.7123 18.0231C45.7136 16.6874 46.2116 15.4 47.1095 14.4111C48.0074 13.4223 49.2409 12.8026 50.5702 12.6727C51.8995 12.5429 53.2296 12.9121 54.3019 13.7085C55.3741 14.5049 56.1119 15.6716 56.3716 16.9818C56.6314 18.292 56.3945 19.652 55.7072 20.7972C55.02 21.9425 53.9313 22.7912 52.653 23.1783C51.3747 23.5655 49.998 23.4634 48.7908 22.8918C47.5836 22.3203 46.6321 21.3202 46.1213 20.086C45.8505 19.432 45.7115 18.7309 45.7123 18.0231Z" fill="white"/>
</svg>
