<svg width="46" height="51" viewBox="0 0 46 51" fill="none" xmlns="http://www.w3.org/2000/svg">
<path d="M44.3838 12.3559C43.8484 11.9674 43.2266 11.712 42.5707 11.6112C41.9148 11.5103 41.2441 11.567 40.6149 11.7764C40.4996 11.8185 40.3999 11.8942 40.3289 11.9935C40.2578 12.0928 40.2188 12.211 40.217 12.3327V23.7382C40.217 24.0456 40.0937 24.3404 39.8741 24.5578C39.6546 24.7752 39.3569 24.8973 39.0465 24.8973C38.7361 24.8973 38.4384 24.7752 38.2189 24.5578C37.9994 24.3404 37.876 24.0456 37.876 23.7382V8.67C37.8781 8.03166 37.7262 7.40206 37.433 6.83355C37.1399 6.26504 36.7139 5.77403 36.1906 5.40136C35.6472 5.00152 35.0131 4.73963 34.3438 4.6386C33.6746 4.53757 32.9905 4.60048 32.3515 4.82182C32.2362 4.86393 32.1364 4.93962 32.0654 5.03892C31.9944 5.13823 31.9554 5.2565 31.9535 5.37818V20.2609C31.9535 20.5683 31.8302 20.8631 31.6107 21.0805C31.3912 21.2979 31.0935 21.42 30.783 21.42C30.4726 21.42 30.1749 21.2979 29.9554 21.0805C29.7359 20.8631 29.6126 20.5683 29.6126 20.2609V4.03364C29.6007 2.97547 29.1741 1.96327 28.4229 1.21068C27.6716 0.458087 26.6545 0.0239854 25.5862 0C25.114 0.00170778 24.6461 0.0881027 24.205 0.255C24.0941 0.293831 23.9982 0.366184 23.931 0.461849C23.8638 0.557513 23.8287 0.67166 23.8305 0.788182V20.2609C23.8305 20.5683 23.7072 20.8631 23.4877 21.0805C23.2681 21.2979 22.9704 21.42 22.66 21.42C22.3496 21.42 22.0519 21.2979 21.8324 21.0805C21.6129 20.8631 21.4895 20.5683 21.4895 20.2609V8.67C21.4895 7.59406 21.0579 6.5622 20.2897 5.8014C19.5214 5.0406 18.4794 4.61318 17.3929 4.61318C16.3064 4.61318 15.2644 5.0406 14.4962 5.8014C13.7279 6.5622 13.2963 7.59406 13.2963 8.67V31.8518C13.2985 31.9778 13.2593 32.1011 13.1844 32.2029C13.1096 32.3048 13.0033 32.3798 12.8816 32.4165C12.7598 32.4532 12.6294 32.4496 12.5099 32.4062C12.3904 32.3629 12.2885 32.2822 12.2195 32.1764L7.25671 25.2218C6.61792 24.4016 5.68342 23.8579 4.64894 23.7047C3.61445 23.5514 2.56021 23.8005 1.70701 24.3997C0.853812 24.999 0.267827 25.9019 0.0717812 26.9193C-0.124265 27.9368 0.0848351 28.99 0.655288 29.8582L13.4602 47.7545C14.151 48.753 15.0767 49.5702 16.1574 50.1356C17.2381 50.701 18.4414 50.9976 19.6636 51H31.3683C35.2486 51 38.97 49.4735 41.7138 46.7564C44.4576 44.0392 45.9991 40.354 45.9991 36.5114V15.6477C46.0129 15.0115 45.8736 14.3811 45.5927 13.8087C45.3119 13.2363 44.8975 12.7383 44.3838 12.3559ZM37.361 37.2532L30.0105 44.9264C29.7872 45.1483 29.4841 45.2733 29.1678 45.2741C29.0106 45.2778 28.8543 45.2487 28.7092 45.1888C28.564 45.1289 28.4331 45.0395 28.3251 44.9264L20.8809 37.2532C20.0569 36.436 19.5138 35.3824 19.3289 34.2422C19.144 33.1019 19.3267 31.933 19.8509 30.9014C20.2139 30.1077 20.7655 29.4128 21.4584 28.8759C22.1514 28.339 22.9652 27.9761 23.8305 27.8182C24.7011 27.677 25.5932 27.7443 26.4322 28.0145C27.2712 28.2847 28.0326 28.75 28.6528 29.3714L29.0507 29.7423L29.4253 29.3714C30.049 28.7481 30.8145 28.2818 31.6575 28.0116C32.5006 27.7414 33.3968 27.675 34.271 27.8182C35.1444 27.9509 35.9719 28.2927 36.6817 28.8138C37.3915 29.3349 37.9622 30.0197 38.3442 30.8086C38.8905 31.8508 39.0853 33.0389 38.8999 34.1987C38.7145 35.3585 38.1588 36.429 37.3142 37.2532H37.361Z" fill="#1D1E1F"/>
</svg>
