<svg width="32" height="32" viewBox="0 0 32 32" fill="none" xmlns="http://www.w3.org/2000/svg">
<path d="M18.5625 25.8214V26.8214C19.1147 26.8214 19.5625 26.3737 19.5625 25.8214H18.5625ZM21.3385 20.4922L20.6481 19.7688L20.6479 19.7689L21.3385 20.4922ZM16 7.06253L15.9972 8.06253H16V7.06253ZM8.31248 14.7366H9.31249L9.31248 14.7338L8.31248 14.7366ZM10.6614 20.4922L11.3472 19.7644L11.3472 19.7644L10.6614 20.4922ZM13.4375 25.8214H12.4375C12.4375 26.3737 12.8852 26.8214 13.4375 26.8214V25.8214ZM14.2916 29.9375C13.7393 29.9375 13.2916 30.3852 13.2916 30.9375C13.2916 31.4898 13.7393 31.9375 14.2916 31.9375V29.9375ZM17.7083 31.9375C18.2606 31.9375 18.7083 31.4898 18.7083 30.9375C18.7083 30.3852 18.2606 29.9375 17.7083 29.9375V31.9375ZM13.4375 27.3795C12.8852 27.3795 12.4375 27.8272 12.4375 28.3795C12.4375 28.9318 12.8852 29.3795 13.4375 29.3795V27.3795ZM18.5625 29.3795C19.1147 29.3795 19.5625 28.9318 19.5625 28.3795C19.5625 27.8272 19.1147 27.3795 18.5625 27.3795V29.3795ZM15 25.8214C15 26.3737 15.4477 26.8214 16 26.8214C16.5522 26.8214 17 26.3737 17 25.8214H15ZM18.6115 18.9162C19.0485 18.5785 19.1289 17.9504 18.7912 17.5135C18.4534 17.0765 17.8254 16.996 17.3884 17.3338L18.6115 18.9162ZM14.6115 17.3338C14.1745 16.996 13.5465 17.0765 13.2087 17.5135C12.871 17.9504 12.9514 18.5785 13.3884 18.9162L14.6115 17.3338ZM26.5624 15.1875C26.0102 15.1875 25.5624 15.6352 25.5624 16.1875C25.5624 16.7398 26.0102 17.1875 26.5624 17.1875V15.1875ZM28.9374 17.1875C29.4897 17.1875 29.9374 16.7398 29.9374 16.1875C29.9374 15.6352 29.4897 15.1875 28.9374 15.1875V17.1875ZM26.2103 11.2542C25.6768 11.3971 25.3602 11.9454 25.5032 12.4789C25.6461 13.0124 26.1944 13.329 26.7279 13.186L26.2103 11.2542ZM29.022 12.5713C29.5554 12.4284 29.872 11.88 29.7291 11.3466C29.5861 10.8131 29.0378 10.4965 28.5043 10.6395L29.022 12.5713ZM24.366 7.58045C23.8877 7.85659 23.7238 8.46818 23.9999 8.94647C24.2761 9.42477 24.8877 9.58864 25.366 9.3125L24.366 7.58045ZM27.4228 8.125C27.9011 7.84886 28.0649 7.23727 27.7888 6.75898C27.5127 6.28068 26.9011 6.11681 26.4228 6.39295L27.4228 8.125ZM20.5602 4.74248C20.2434 5.19489 20.3534 5.81844 20.8058 6.13521C21.2582 6.45199 21.8817 6.34204 22.1985 5.88964L20.5602 4.74248ZM23.5608 3.94415C23.8775 3.49175 23.7676 2.8682 23.3152 2.55142C22.8628 2.23465 22.2392 2.34459 21.9225 2.797L23.5608 3.94415ZM14.8553 3.68868C14.8553 4.24097 15.3031 4.68868 15.8553 4.68868C16.4076 4.68868 16.8553 4.24097 16.8553 3.68868H14.8553ZM16.8553 1.34375C16.8553 0.791465 16.4076 0.34375 15.8553 0.34375C15.3031 0.34375 14.8553 0.791465 14.8553 1.34375H16.8553ZM5.48035 17.1875C6.03263 17.1875 6.48035 16.7398 6.48035 16.1875C6.48035 15.6352 6.03263 15.1875 5.48035 15.1875V17.1875ZM3.10535 15.1875C2.55306 15.1875 2.10535 15.6352 2.10535 16.1875C2.10535 16.7398 2.55306 17.1875 3.10535 17.1875V15.1875ZM5.31488 13.186C5.84835 13.329 6.39669 13.0124 6.53963 12.4789C6.68257 11.9454 6.36599 11.3971 5.83252 11.2542L5.31488 13.186ZM3.53845 10.6395C3.00498 10.4965 2.45664 10.8131 2.3137 11.3466C2.17076 11.88 2.48734 12.4284 3.02081 12.5713L3.53845 10.6395ZM6.55182 9.0625C7.03011 9.33864 7.6417 9.17477 7.91785 8.69647C8.19399 8.21818 8.03011 7.60659 7.55182 7.33045L6.55182 9.0625ZM5.49501 6.14295C5.01672 5.86681 4.40513 6.03068 4.12898 6.50897C3.85284 6.98727 4.01672 7.59886 4.49501 7.875L5.49501 6.14295ZM9.59427 5.95214C9.91105 6.40454 10.5346 6.51449 10.987 6.19771C11.4394 5.88094 11.5493 5.25739 11.2326 4.80498L9.59427 5.95214ZM9.87033 2.8595C9.55355 2.40709 8.93001 2.29715 8.4776 2.61392C8.02519 2.9307 7.91525 3.55425 8.23202 4.00665L9.87033 2.8595ZM19.5625 25.8214V24.5424H17.5625V25.8214H19.5625ZM19.5625 24.5424C19.5625 24.1207 19.8026 23.5952 20.3183 22.9579C20.8239 22.333 21.4521 21.7663 22.0291 21.2155L20.6479 19.7689C20.1326 20.261 19.3728 20.9467 18.7635 21.6999C18.1642 22.4405 17.5625 23.4187 17.5625 24.5424H19.5625ZM22.0289 21.2156C23.7832 19.5415 24.6874 17.2979 24.6874 14.7366H22.6874C22.6874 16.8 21.973 18.5044 20.6481 19.7688L22.0289 21.2156ZM24.6874 14.7366C24.6874 9.92054 20.8371 6.06253 16 6.06253V8.06253C19.7333 8.06253 22.6874 11.0259 22.6874 14.7366H24.6874ZM16.0027 6.06253C14.8609 6.05935 13.7296 6.28152 12.6739 6.71631L13.4356 8.5656C14.2478 8.23106 15.1184 8.06008 15.9972 8.06253L16.0027 6.06253ZM12.6739 6.71631C11.6183 7.1511 10.659 7.78995 9.85132 8.59622L11.2643 10.0117C11.8854 9.39161 12.6233 8.90014 13.4356 8.5656L12.6739 6.71631ZM9.85132 8.59622C9.04363 9.4025 8.40348 10.3603 7.96774 11.4146L9.81609 12.1785C10.151 11.3681 10.6432 10.6317 11.2643 10.0117L9.85132 8.59622ZM7.96774 11.4146C7.532 12.4689 7.3093 13.5988 7.31249 14.7394L9.31248 14.7338C9.31003 13.8573 9.48117 12.9889 9.81609 12.1785L7.96774 11.4146ZM7.31248 14.7366C7.31248 17.2094 8.2477 19.5917 9.97563 21.22L11.3472 19.7644C10.0653 18.5564 9.31248 16.7234 9.31248 14.7366H7.31248ZM9.97562 21.22C10.5469 21.7583 11.1752 22.322 11.6797 22.9449C12.1943 23.5805 12.4375 24.1113 12.4375 24.5424H14.4375C14.4375 23.4121 13.8358 22.4296 13.234 21.6864C12.622 20.9306 11.8624 20.2499 11.3472 19.7644L9.97562 21.22ZM12.4375 24.5424V25.8214H14.4375V24.5424H12.4375ZM13.4375 26.8214H18.5625V24.8214H13.4375V26.8214ZM14.2916 31.9375H17.7083V29.9375H14.2916V31.9375ZM13.4375 29.3795H18.5625V27.3795H13.4375V29.3795ZM17 25.8214V19H15V25.8214H17ZM17.9999 18.125C17.3884 17.3338 17.3885 17.3337 17.3887 17.3336C17.3887 17.3335 17.3889 17.3334 17.3889 17.3334C17.3891 17.3333 17.3892 17.3332 17.3894 17.3331C17.3896 17.3329 17.3898 17.3327 17.3899 17.3326C17.3901 17.3325 17.3901 17.3325 17.3898 17.3327C17.3893 17.3331 17.3877 17.3343 17.3852 17.3362C17.38 17.3401 17.3711 17.3468 17.3585 17.356C17.3334 17.3744 17.2944 17.4024 17.2442 17.4369C17.1427 17.5064 17.0004 17.5986 16.8376 17.6895C16.4678 17.8962 16.1604 18 16 18V20C16.7074 20 17.4 19.6664 17.8132 19.4355C18.0419 19.3077 18.2369 19.1811 18.3748 19.0866C18.4443 19.039 18.5005 18.9987 18.5407 18.9692C18.5608 18.9545 18.577 18.9424 18.5889 18.9334C18.5948 18.9289 18.5997 18.9252 18.6035 18.9223C18.6054 18.9209 18.607 18.9197 18.6083 18.9186C18.609 18.9181 18.6096 18.9177 18.6101 18.9173C18.6104 18.9171 18.6106 18.9169 18.6109 18.9167C18.611 18.9166 18.6111 18.9165 18.6112 18.9164C18.6113 18.9163 18.6115 18.9162 17.9999 18.125ZM16 18C15.8395 18 15.5321 17.8962 15.1623 17.6895C14.9995 17.5986 14.8572 17.5064 14.7557 17.4368C14.7055 17.4024 14.6665 17.3744 14.6414 17.356C14.6288 17.3468 14.6198 17.3401 14.6147 17.3362C14.6122 17.3343 14.6106 17.3331 14.61 17.3327C14.6098 17.3325 14.6097 17.3324 14.61 17.3326C14.6101 17.3327 14.6103 17.3329 14.6105 17.333C14.6107 17.3331 14.6108 17.3333 14.611 17.3334C14.611 17.3334 14.6112 17.3335 14.6112 17.3336C14.6113 17.3337 14.6115 17.3338 13.9999 18.125C13.3884 18.9162 13.3886 18.9163 13.3887 18.9165C13.3888 18.9165 13.3889 18.9166 13.389 18.9167C13.3893 18.9169 13.3895 18.9171 13.3898 18.9173C13.3903 18.9177 13.3909 18.9181 13.3916 18.9186C13.3929 18.9197 13.3945 18.9209 13.3964 18.9223C13.4002 18.9252 13.4051 18.9289 13.411 18.9334C13.4229 18.9424 13.4391 18.9545 13.4592 18.9692C13.4994 18.9987 13.5556 19.039 13.6251 19.0866C13.763 19.1811 13.958 19.3077 14.1867 19.4355C14.6 19.6664 15.2925 20 16 20V18ZM26.5624 17.1875H28.9374V15.1875H26.5624V17.1875ZM26.7279 13.186L29.022 12.5713L28.5043 10.6395L26.2103 11.2542L26.7279 13.186ZM25.366 9.3125L27.4228 8.125L26.4228 6.39295L24.366 7.58045L25.366 9.3125ZM22.1985 5.88964L23.5608 3.94415L21.9225 2.797L20.5602 4.74248L22.1985 5.88964ZM16.8553 3.68868V1.34375H14.8553V3.68868H16.8553ZM5.48035 15.1875H3.10535V17.1875H5.48035V15.1875ZM5.83252 11.2542L3.53845 10.6395L3.02081 12.5713L5.31488 13.186L5.83252 11.2542ZM7.55182 7.33045L5.49501 6.14295L4.49501 7.875L6.55182 9.0625L7.55182 7.33045ZM11.2326 4.80498L9.87033 2.8595L8.23202 4.00665L9.59427 5.95214L11.2326 4.80498Z" fill="#030823"/>
</svg>
