<svg width="32" height="32" viewBox="0 0 32 32" fill="none" xmlns="http://www.w3.org/2000/svg">
<path d="M27.6 10.7257L16.6794 5.3357C16.4681 5.23146 16.2356 5.17725 16 5.17725C15.7644 5.17725 15.5319 5.23146 15.3206 5.3357L4.4 10.7257C3.98134 10.9308 3.62838 11.2489 3.38099 11.6441C3.1336 12.0393 3.00163 12.4957 3 12.962V24.5001C3 25.8807 4.13375 27.0001 5.5325 27.0001H26.47C27.8687 27.0001 29.0025 25.8807 29.0025 24.5001V12.962C29.0006 12.4955 28.8683 12.0388 28.6205 11.6436C28.3726 11.2484 28.0191 10.9305 27.6 10.7257Z" stroke="#1D1E1F" stroke-width="2" stroke-linecap="round" stroke-linejoin="round"/>
<path d="M24.832 23L16.7533 16.7162C16.49 16.5114 16.1659 16.4003 15.8323 16.4003C15.4988 16.4003 15.1747 16.5114 14.9114 16.7162L6.83203 23M19.332 18.4375L27.832 12M3.83203 12L12.5195 18.5625" stroke="#1D1E1F" stroke-width="2" stroke-linecap="round" stroke-linejoin="round"/>
</svg>
