<svg width="24" height="24" viewBox="0 0 24 24" fill="none" xmlns="http://www.w3.org/2000/svg">
<path d="M23 0H1C0.734784 0 0.48043 0.105357 0.292893 0.292893C0.105357 0.48043 0 0.734784 0 1V23C0 23.2652 0.105357 23.5196 0.292893 23.7071C0.48043 23.8946 0.734784 24 1 24H23C23.2652 24 23.5196 23.8946 23.7071 23.7071C23.8946 23.5196 24 23.2652 24 23V1C24 0.734784 23.8946 0.48043 23.7071 0.292893C23.5196 0.105357 23.2652 0 23 0ZM20.36 5.85L19 7.08C18.9466 7.12201 18.9055 7.17757 18.8808 7.24089C18.8562 7.3042 18.849 7.37296 18.86 7.44V16.92C18.849 16.987 18.8562 17.0558 18.8808 17.1191C18.9055 17.1824 18.9466 17.238 19 17.28L20.35 18.61V18.88H14V18.61L15.16 17.25C15.29 17.12 15.29 17.08 15.29 16.89V10L12.49 17.9L12.19 18.9H11.4C8.75 13.11 7.91 11.08 7.1 9.69V16.69L8.74 18.69V18.96H4V18.69L5.6 16.69V7.69L4.36 6.15V5.62H9.13L12.35 13.33L15 6.06C15.0402 5.88464 15.1421 5.72959 15.2872 5.62312C15.4322 5.51664 15.6106 5.46585 15.79 5.48H20.37L20.36 5.85Z" fill="white"/>
</svg>
