<svg width="16" height="17" viewBox="0 0 16 17" fill="none" xmlns="http://www.w3.org/2000/svg">
<path d="M6.97872 7.98936C7.02387 7.98936 7.06716 7.97143 7.09908 7.93951C7.131 7.90759 7.14894 7.86429 7.14894 7.81915V0.670213C7.14894 0.62507 7.131 0.581775 7.09908 0.549854C7.06716 0.517933 7.02387 0.5 6.97872 0.5H2.55319C1.87604 0.5 1.22663 0.768996 0.747813 1.24781C0.268996 1.72663 0 2.37604 0 3.05319V7.81915C0 7.86429 0.0179331 7.90759 0.0498542 7.93951C0.0817752 7.97143 0.12507 7.98936 0.170213 7.98936H6.97872ZM5.2766 5.26596H4.25532C4.21018 5.26596 4.16688 5.28389 4.13496 5.31581C4.10304 5.34773 4.08511 5.39103 4.08511 5.43617V6.45745C4.08511 6.59288 4.03131 6.72276 3.93554 6.81852C3.83978 6.91429 3.7099 6.96809 3.57447 6.96809C3.43904 6.96809 3.30916 6.91429 3.21339 6.81852C3.11763 6.72276 3.06383 6.59288 3.06383 6.45745V5.43617C3.06383 5.39103 3.0459 5.34773 3.01398 5.31581C2.98205 5.28389 2.93876 5.26596 2.89362 5.26596H1.87234C1.73691 5.26596 1.60703 5.21216 1.51126 5.1164C1.4155 5.02063 1.3617 4.89075 1.3617 4.75532C1.3617 4.61989 1.4155 4.49001 1.51126 4.39424C1.60703 4.29848 1.73691 4.24468 1.87234 4.24468H2.89362C2.93876 4.24468 2.98205 4.22675 3.01398 4.19483C3.0459 4.16291 3.06383 4.11961 3.06383 4.07447V3.05319C3.06383 2.91776 3.11763 2.78788 3.21339 2.69212C3.30916 2.59635 3.43904 2.54255 3.57447 2.54255C3.7099 2.54255 3.83978 2.59635 3.93554 2.69212C4.03131 2.78788 4.08511 2.91776 4.08511 3.05319V4.07447C4.08511 4.11961 4.10304 4.16291 4.13496 4.19483C4.16688 4.22675 4.21018 4.24468 4.25532 4.24468H5.2766C5.41203 4.24468 5.54191 4.29848 5.63767 4.39424C5.73343 4.49001 5.78723 4.61989 5.78723 4.75532C5.78723 4.89075 5.73343 5.02063 5.63767 5.1164C5.54191 5.21216 5.41203 5.26596 5.2766 5.26596Z" fill="white"/>
<path d="M8.17021 7.81915C8.17021 7.86429 8.18815 7.90759 8.22007 7.93951C8.25199 7.97143 8.29528 7.98936 8.34043 7.98936H15.8298C15.8749 7.98936 15.9182 7.97143 15.9501 7.93951C15.9821 7.90759 16 7.86429 16 7.81915V3.05319C16 2.37604 15.731 1.72663 15.2522 1.24781C14.7734 0.768996 14.124 0.5 13.4468 0.5H8.34043C8.29528 0.5 8.25199 0.517933 8.22007 0.549854C8.18815 0.581775 8.17021 0.62507 8.17021 0.670213V7.81915ZM13.4468 5.26596H10.0426C9.90712 5.26596 9.77724 5.21216 9.68148 5.1164C9.58571 5.02063 9.53191 4.89075 9.53191 4.75532C9.53191 4.61989 9.58571 4.49001 9.68148 4.39424C9.77724 4.29848 9.90712 4.24468 10.0426 4.24468H13.4468C13.5822 4.24468 13.7121 4.29848 13.8079 4.39424C13.9036 4.49001 13.9574 4.61989 13.9574 4.75532C13.9574 4.89075 13.9036 5.02063 13.8079 5.1164C13.7121 5.21216 13.5822 5.26596 13.4468 5.26596Z" fill="white"/>
<path d="M7.14894 9.18083C7.14894 9.13569 7.131 9.09239 7.09908 9.06047C7.06716 9.02855 7.02387 9.01062 6.97872 9.01062H0.170213C0.12507 9.01062 0.0817752 9.02855 0.0498542 9.06047C0.0179331 9.09239 0 9.13569 0 9.18083V13.9468C0 14.6239 0.268996 15.2734 0.747813 15.7522C1.22663 16.231 1.87604 16.5 2.55319 16.5H6.97872C7.02387 16.5 7.06716 16.482 7.09908 16.4501C7.131 16.4182 7.14894 16.3749 7.14894 16.3298V9.18083ZM1.87234 11.2234C1.79862 11.1882 1.73443 11.1358 1.68515 11.0706C1.63587 11.0055 1.60294 10.9295 1.58912 10.8489C1.57531 10.7684 1.58101 10.6858 1.60576 10.6079C1.6305 10.5301 1.67357 10.4593 1.73133 10.4015C1.7891 10.3438 1.85988 10.3007 1.93773 10.276C2.01559 10.2512 2.09824 10.2455 2.17876 10.2593C2.25927 10.2731 2.3353 10.3061 2.40045 10.3553C2.46561 10.4046 2.51799 10.4688 2.55319 10.5425L3.43149 11.4208C3.44737 11.4373 3.4664 11.4504 3.48746 11.4594C3.50852 11.4683 3.53116 11.4729 3.55404 11.4729C3.57692 11.4729 3.59957 11.4683 3.62062 11.4594C3.64168 11.4504 3.66072 11.4373 3.6766 11.4208L4.59575 10.5425C4.63095 10.4688 4.68333 10.4046 4.74848 10.3553C4.81364 10.3061 4.88966 10.2731 4.97018 10.2593C5.05069 10.2455 5.13335 10.2512 5.2112 10.276C5.28906 10.3007 5.35984 10.3438 5.4176 10.4015C5.47537 10.4593 5.51843 10.5301 5.54318 10.6079C5.56792 10.6858 5.57363 10.7684 5.55981 10.8489C5.546 10.9295 5.51307 11.0055 5.46379 11.0706C5.41451 11.1358 5.35031 11.1882 5.2766 11.2234L4.41872 12.1221C4.40225 12.138 4.38915 12.157 4.3802 12.1781C4.37125 12.1991 4.36663 12.2218 4.36663 12.2447C4.36663 12.2675 4.37125 12.2902 4.3802 12.3112C4.38915 12.3323 4.40225 12.3513 4.41872 12.3672L5.2766 13.2659C5.36033 13.3596 5.40663 13.4808 5.40663 13.6064C5.40663 13.732 5.36033 13.8532 5.2766 13.9468C5.18298 14.0305 5.06178 14.0768 4.93617 14.0768C4.81056 14.0768 4.68937 14.0305 4.59575 13.9468L3.69702 13.0889C3.68114 13.0724 3.66211 13.0593 3.64105 13.0504C3.61999 13.0414 3.59735 13.0368 3.57447 13.0368C3.55159 13.0368 3.52894 13.0414 3.50789 13.0504C3.48683 13.0593 3.46779 13.0724 3.45192 13.0889L2.55319 13.9468C2.45957 14.0305 2.33837 14.0768 2.21277 14.0768C2.08716 14.0768 1.96596 14.0305 1.87234 13.9468C1.7886 13.8532 1.74231 13.732 1.74231 13.6064C1.74231 13.4808 1.7886 13.3596 1.87234 13.2659L2.75064 12.3876C2.76711 12.3718 2.78022 12.3527 2.78917 12.3317C2.79812 12.3106 2.80273 12.288 2.80273 12.2651C2.80273 12.2422 2.79812 12.2196 2.78917 12.1985C2.78022 12.1774 2.76711 12.1584 2.75064 12.1425L1.87234 11.2234Z" fill="white"/>
<path d="M8.34043 9.01062C8.29528 9.01062 8.25199 9.02855 8.22007 9.06047C8.18815 9.09239 8.17021 9.13569 8.17021 9.18083V16.3298C8.17021 16.3749 8.18815 16.4182 8.22007 16.4501C8.25199 16.482 8.29528 16.5 8.34043 16.5H13.4468C14.124 16.5 14.7734 16.231 15.2522 15.7522C15.731 15.2734 16 14.6239 16 13.9468V9.18083C16 9.13569 15.9821 9.09239 15.9501 9.06047C15.9182 9.02855 15.8749 9.01062 15.8298 9.01062H8.34043ZM9.53191 11.5638C9.53368 11.4289 9.58804 11.3001 9.68343 11.2047C9.77881 11.1093 9.90767 11.0549 10.0426 11.0532H13.4468C13.5822 11.0532 13.7121 11.107 13.8079 11.2027C13.9036 11.2985 13.9574 11.4284 13.9574 11.5638C13.9574 11.6992 13.9036 11.8291 13.8079 11.9249C13.7121 12.0206 13.5822 12.0744 13.4468 12.0744H10.0426C9.90767 12.0727 9.77881 12.0183 9.68343 11.9229C9.58804 11.8276 9.53368 11.6987 9.53191 11.5638ZM10.0426 13.0957H13.4468C13.5822 13.0957 13.7121 13.1495 13.8079 13.2453C13.9036 13.3411 13.9574 13.4709 13.9574 13.6064C13.9574 13.7418 13.9036 13.8717 13.8079 13.9674C13.7121 14.0632 13.5822 14.117 13.4468 14.117H10.0426C9.90712 14.117 9.77724 14.0632 9.68148 13.9674C9.58571 13.8717 9.53191 13.7418 9.53191 13.6064C9.53191 13.4709 9.58571 13.3411 9.68148 13.2453C9.77724 13.1495 9.90712 13.0957 10.0426 13.0957Z" fill="white"/>
</svg>
