<svg width="17" height="16" viewBox="0 0 17 16" fill="none" xmlns="http://www.w3.org/2000/svg">
<path d="M5.16602 3.33333C5.16602 2.97971 5.30649 2.64057 5.55654 2.39052C5.80659 2.14048 6.14573 2 6.49935 2H13.166C13.5196 2 13.8588 2.14048 14.1088 2.39052C14.3589 2.64057 14.4993 2.97971 14.4993 3.33333V10C14.4993 10.3536 14.3589 10.6928 14.1088 10.9428C13.8588 11.1929 13.5196 11.3333 13.166 11.3333H6.49935C6.14573 11.3333 5.80659 11.1929 5.55654 10.9428C5.30649 10.6928 5.16602 10.3536 5.16602 10V3.33333Z" fill="white" stroke="#37B4A9" stroke-width="2" stroke-linecap="round" stroke-linejoin="round"/>
<path d="M9.98115 4.75953L9.83242 4.90567L9.68368 4.75953C9.54756 4.62412 9.38544 4.51661 9.20671 4.44324C9.02798 4.36986 8.83621 4.33208 8.64251 4.33208C8.4488 4.33208 8.25703 4.36986 8.0783 4.44324C7.89958 4.51661 7.73745 4.62412 7.60134 4.75953C7.46344 4.89328 7.35395 5.05261 7.27922 5.22826C7.2045 5.40392 7.16602 5.5924 7.16602 5.78279C7.16602 5.97317 7.2045 6.16166 7.27922 6.33731C7.35395 6.51297 7.46344 6.67229 7.60134 6.80604L9.13156 8.30991C9.5206 8.69225 10.1443 8.69229 10.5334 8.31L12.064 6.80604C12.2019 6.67229 12.3114 6.51297 12.3861 6.33731C12.4609 6.16166 12.4993 5.97317 12.4993 5.78279C12.4993 5.5924 12.4609 5.40392 12.3861 5.22826C12.3114 5.05261 12.2019 4.89328 12.064 4.75953C11.9279 4.62411 11.7657 4.51659 11.5869 4.4432C11.4082 4.36982 11.2163 4.33203 11.0226 4.33203C10.8288 4.33203 10.637 4.36982 10.4583 4.4432C10.2795 4.51659 10.1173 4.62411 9.98115 4.75953Z" fill="#37B4A9"/>
<path d="M11.8333 11.3346V12.668C11.8333 13.0216 11.6929 13.3607 11.4428 13.6108C11.1928 13.8608 10.8536 14.0013 10.5 14.0013H3.83333C3.47971 14.0013 3.14057 13.8608 2.89052 13.6108C2.64048 13.3607 2.5 13.0216 2.5 12.668V6.0013C2.5 5.64768 2.64048 5.30854 2.89052 5.05849C3.14057 4.80844 3.47971 4.66797 3.83333 4.66797H5.16667" stroke="#37B4A9" stroke-width="2" stroke-linecap="round" stroke-linejoin="round"/>
</svg>
