<svg width="16" height="16" viewBox="0 0 16 16" fill="none" xmlns="http://www.w3.org/2000/svg">
<path fill-rule="evenodd" clip-rule="evenodd" d="M8 16C12.4183 16 16 12.4183 16 8C16 3.58172 12.4183 0 8 0C3.58172 0 0 3.58172 0 8C0 12.4183 3.58172 16 8 16ZM9.141 8.07499L9.384 7.90399C9.798 7.61599 10.086 7.35499 10.248 7.12099C10.416 6.88699 10.5 6.60799 10.5 6.28399C10.5 6.04399 10.446 5.82199 10.338 5.61799C10.23 5.41399 10.08 5.23699 9.888 5.08699C9.702 4.93699 9.477 4.81999 9.213 4.73599C8.955 4.65199 8.676 4.60999 8.376 4.60999C7.86 4.60999 7.395 4.73599 6.981 4.98799C6.7405 5.13299 6.53648 5.30927 6.36895 5.51682C6.1752 5.75686 6.30877 6.095 6.59336 6.21401C6.85715 6.32432 7.15303 6.19778 7.36529 6.00622C7.42924 5.9485 7.49914 5.89709 7.575 5.85199C7.803 5.71399 8.055 5.64499 8.331 5.64499C8.607 5.64499 8.835 5.71399 9.015 5.85199C9.201 5.98399 9.294 6.15199 9.294 6.35599C9.294 6.48799 9.252 6.61399 9.168 6.73399C9.084 6.84799 8.949 6.97099 8.763 7.10299L8.304 7.43599C8.022 7.64599 7.83 7.87099 7.728 8.11099C7.67084 8.24547 7.63347 8.40728 7.61588 8.5964C7.59008 8.87369 7.82856 9.09199 8.10705 9.09199C8.4025 9.09199 8.61357 8.83694 8.72121 8.56179C8.7286 8.5429 8.73653 8.52463 8.745 8.50699C8.823 8.35099 8.955 8.20699 9.141 8.07499ZM8.646 9.83899C8.508 9.69499 8.337 9.62299 8.133 9.62299C7.935 9.62299 7.764 9.69499 7.62 9.83899C7.476 9.98299 7.404 10.157 7.404 10.361C7.404 10.559 7.476 10.73 7.62 10.874C7.764 11.018 7.935 11.09 8.133 11.09C8.337 11.09 8.508 11.018 8.646 10.874C8.79 10.73 8.862 10.559 8.862 10.361C8.862 10.157 8.79 9.98299 8.646 9.83899Z" fill="#5326EC"/>
</svg>
