<svg width="58" height="59" viewBox="0 0 58 59" fill="none" xmlns="http://www.w3.org/2000/svg">
<path d="M39.0343 53.8949L40.3906 55.3647H40.3907L39.0343 53.8949ZM36.6632 52.9056L38.6289 52.5364L36.6632 52.9056ZM5.10359 19.9642L3.63379 18.6078H3.63379L5.10359 19.9642ZM6.09291 22.3353L6.46214 20.3696H6.46214L6.09291 22.3353ZM52.5765 24.9526L50.981 23.7467L52.5765 24.9526ZM25.0826 47.1453L25.9702 48.9376L25.0826 47.1453ZM22.9603 46.7642L21.5461 48.1784L22.9603 46.7642ZM33.976 6.35211L35.182 7.94765L33.976 6.35211ZM11.7833 33.8461L9.99107 32.9584H9.99107L11.7833 33.8461ZM12.1645 35.9683L13.5787 34.5541L12.1645 35.9683ZM10.0402 39.6966L9.43538 37.7902H9.43538L10.0402 39.6966ZM9.46304 41.9495L10.8772 40.5353V40.5353L9.46304 41.9495ZM16.7423 49.2287L15.328 50.643V50.643L16.7423 49.2287ZM18.9952 48.6516L20.9016 49.2564L18.9952 48.6516ZM16.2099 28.7439C15.4288 27.9628 14.1625 27.9628 13.3815 28.7439C12.6004 29.5249 12.6004 30.7913 13.3815 31.5723L16.2099 28.7439ZM27.4747 45.6656C28.2558 46.4467 29.5221 46.4467 30.3032 45.6656C31.0842 44.8846 31.0842 43.6182 30.3032 42.8372L27.4747 45.6656ZM6.34281 47.4844C7.12386 46.7033 7.12386 45.437 6.34281 44.656C5.56176 43.8749 4.29543 43.8749 3.51439 44.656L6.34281 47.4844ZM0.679536 47.4908C-0.101512 48.2719 -0.101512 49.5382 0.679536 50.3192C1.46059 51.1003 2.72692 51.1003 3.50796 50.3192L0.679536 47.4908ZM14.3891 55.5306C15.1701 54.7496 15.1701 53.4833 14.3891 52.7022C13.608 51.9212 12.3417 51.9212 11.5606 52.7022L14.3891 55.5306ZM8.72579 55.5371C7.94474 56.3181 7.94475 57.5844 8.72579 58.3655C9.50684 59.1465 10.7732 59.1465 11.5542 58.3655L8.72579 55.5371ZM10.4369 51.4366C11.2179 50.6556 11.2179 49.3892 10.4369 48.6082C9.65581 47.8271 8.38948 47.8271 7.60843 48.6082L10.4369 51.4366ZM2.14782 54.0688C1.36678 54.8498 1.36678 56.1162 2.14782 56.8972C2.92887 57.6783 4.1952 57.6783 4.97625 56.8972L2.14782 54.0688ZM40.7243 34.5728C40.8437 36.4639 41.2659 39.8307 41.0115 43.4503C40.7541 47.1126 39.8261 50.4427 37.6779 52.4251L40.3907 55.3647C43.7002 52.3106 44.7254 47.6611 45.0016 43.7307C45.2809 39.7575 44.8172 35.9184 44.7163 34.3206L40.7243 34.5728ZM38.6289 52.5364C38.3368 50.9816 37.8512 48.8582 37.0887 46.764C36.3399 44.7077 35.2553 42.4833 33.6668 40.8947L30.8384 43.7232C31.8154 44.7002 32.6553 46.2794 33.3301 48.1326C33.9911 49.9479 34.4281 51.8401 34.6976 53.2748L38.6289 52.5364ZM37.6779 52.4251C37.7475 52.3609 37.8753 52.2859 38.045 52.2618C38.2044 52.2391 38.3345 52.2705 38.4183 52.3079C38.5705 52.3759 38.6179 52.478 38.6289 52.5364L34.6976 53.2748C34.925 54.4853 35.7218 55.4845 36.7874 55.9603C37.9104 56.4618 39.3173 56.3553 40.3906 55.3647L37.6779 52.4251ZM24.6779 14.2822C23.0801 14.1813 19.241 13.7176 15.2678 13.9968C11.3374 14.2731 6.68789 15.2983 3.63379 18.6078L6.57338 21.3206C8.55576 19.1724 11.8859 18.2444 15.5482 17.987C19.1678 17.7326 22.5346 18.1548 24.4257 18.2742L24.6779 14.2822ZM5.72368 24.3009C7.1584 24.5704 9.05056 25.0074 10.8659 25.6684C12.7191 26.3432 14.2983 27.1831 15.2753 28.1601L18.1037 25.3317C16.5152 23.7432 14.2908 22.6586 12.2345 21.9098C10.1403 21.1473 8.01693 20.6617 6.46214 20.3696L5.72368 24.3009ZM3.63379 18.6078C2.64323 19.6812 2.53671 21.0881 3.03818 22.2111C3.51399 23.2767 4.51319 24.0735 5.72369 24.3009L6.46214 20.3696C6.52053 20.3806 6.62262 20.428 6.69058 20.5802C6.728 20.664 6.75936 20.7941 6.73671 20.9535C6.7126 21.1232 6.63759 21.251 6.57338 21.3206L3.63379 18.6078ZM52.0749 3.54208C52.7312 5.86403 53.6875 9.33309 53.844 13.0737C54.0002 16.8086 53.3495 20.613 50.981 23.7467L54.1721 26.1585C57.3013 22.0182 58.0188 17.1687 57.8405 12.9065C57.6624 8.65006 56.5812 4.77886 55.9241 2.45406L52.0749 3.54208ZM50.981 23.7467C47.72 28.0613 42.4768 32.7556 37.2412 36.7706C32.0108 40.7816 26.9627 43.9823 24.1949 45.3531L25.9702 48.9376C29.0572 47.4086 34.3338 44.041 39.6754 39.9447C45.0119 35.8523 50.5884 30.9001 54.1721 26.1585L50.981 23.7467ZM24.3745 45.35L18.6213 39.5967L15.7929 42.4252L21.5461 48.1784L24.3745 45.35ZM24.1949 45.3531C24.2129 45.3442 24.2369 45.3363 24.2642 45.3327C24.2907 45.3292 24.314 45.3306 24.332 45.334C24.3671 45.3407 24.378 45.3534 24.3745 45.35L21.5461 48.1784C22.6574 49.2897 24.4097 49.7104 25.9702 48.9376L24.1949 45.3531ZM55.8637 2.47447C51.2784 1.1784 40.9134 -1.39821 32.7701 4.75657L35.182 7.94765C41.5867 3.10686 50.0674 4.9928 54.7757 6.32365L55.8637 2.47447ZM32.7701 4.75657C28.0286 8.34029 23.0764 13.9168 18.984 19.2533C14.8877 24.5949 11.52 29.8714 9.99107 32.9584L13.5755 34.7337C14.9463 31.966 18.147 26.9179 22.1581 21.6874C26.1731 16.4518 30.8674 11.2087 35.182 7.94765L32.7701 4.75657ZM10.7502 37.3825L16.5035 43.1358L19.3319 40.3073L13.5787 34.5541L10.7502 37.3825ZM9.99107 32.9584C9.21819 34.5189 9.63892 36.2712 10.7502 37.3825L13.5787 34.5541C13.5752 34.5507 13.588 34.5615 13.5946 34.5966C13.598 34.6147 13.5994 34.6379 13.5959 34.6644C13.5923 34.6917 13.5844 34.7158 13.5755 34.7337L9.99107 32.9584ZM45.8631 18.0536C44.2222 19.6944 41.6363 19.681 40.0867 18.1314L37.2582 20.9598C40.4179 24.1195 45.537 24.0365 48.6915 20.882L45.8631 18.0536ZM40.0867 18.1314C38.537 16.5818 38.5236 13.9958 40.1645 12.355L37.336 9.52657C34.1816 12.681 34.0985 17.8001 37.2582 20.9598L40.0867 18.1314ZM40.1645 12.355C41.8053 10.7142 44.3912 10.7276 45.9408 12.2772L48.7693 9.44878C45.6096 6.28906 40.4905 6.3721 37.336 9.52657L40.1645 12.355ZM45.9408 12.2772C47.4905 13.8268 47.5039 16.4128 45.8631 18.0536L48.6915 20.882C51.846 17.7276 51.929 12.6085 48.7693 9.44878L45.9408 12.2772ZM34.0839 25.5692C33.642 26.0112 32.9823 25.9804 32.61 25.6081L29.7815 28.4365C31.7639 30.4189 34.9567 30.3533 36.9124 28.3976L34.0839 25.5692ZM32.61 25.6081C32.2377 25.2358 32.2069 24.5761 32.6489 24.1341L29.8204 21.3057C27.8648 23.2613 27.7991 26.4541 29.7815 28.4365L32.61 25.6081ZM32.6489 24.1341C33.0908 23.6921 33.7506 23.7229 34.1228 24.0952L36.9513 21.2668C34.9689 19.2844 31.7761 19.35 29.8204 21.3057L32.6489 24.1341ZM34.1228 24.0952C34.4951 24.4675 34.5259 25.1272 34.0839 25.5692L36.9124 28.3976C38.868 26.442 38.9337 23.2492 36.9513 21.2668L34.1228 24.0952ZM13.8784 36.3807L9.43538 37.7902L10.6449 41.6029L15.088 40.1934L13.8784 36.3807ZM8.04882 43.3637L15.328 50.643L18.1565 47.8145L10.8772 40.5353L8.04882 43.3637ZM20.9016 49.2564L22.3111 44.8134L18.4984 43.6038L17.0888 48.0468L20.9016 49.2564ZM15.328 50.643C17.144 52.4589 20.1569 51.6039 20.9016 49.2564L17.0888 48.0468C17.2146 47.6503 17.7674 47.4254 18.1565 47.8145L15.328 50.643ZM9.43538 37.7902C7.08792 38.5349 6.23285 41.5478 8.04882 43.3637L10.8772 40.5353C11.2663 40.9244 11.0415 41.4771 10.6449 41.6029L9.43538 37.7902ZM13.3815 31.5723L27.4747 45.6656L30.3032 42.8372L16.2099 28.7439L13.3815 31.5723ZM3.51439 44.656L0.679536 47.4908L3.50796 50.3192L6.34281 47.4844L3.51439 44.656ZM11.5606 52.7022L8.72579 55.5371L11.5542 58.3655L14.3891 55.5306L11.5606 52.7022ZM7.60843 48.6082L2.14782 54.0688L4.97625 56.8972L10.4369 51.4366L7.60843 48.6082Z" fill="#1D1E1F"/>
</svg>
