<svg width="25" height="26" viewBox="0 0 25 26" fill="none" xmlns="http://www.w3.org/2000/svg">
<path d="M20.9996 17.9997C20.4608 17.9995 19.9277 18.1085 19.4322 18.3201C18.9368 18.5317 18.4894 18.8416 18.1171 19.2309L8.86707 14.0266C9.04624 13.3537 9.04624 12.6457 8.86707 11.9728L18.1171 6.76843C18.7906 7.46677 19.6957 7.89556 20.6628 7.97448C21.6298 8.0534 22.5924 7.77703 23.3703 7.19714C24.1482 6.61725 24.688 5.77364 24.8885 4.82435C25.089 3.87505 24.9366 2.88521 24.4597 2.04025C23.9828 1.1953 23.2142 0.553212 22.2978 0.23428C21.3815 -0.0846513 20.3803 -0.058544 19.4819 0.307711C18.5834 0.673966 17.8493 1.35524 17.4171 2.2239C16.9849 3.09256 16.8842 4.089 17.1339 5.02656L7.88394 10.2309C7.33141 9.65483 6.61915 9.25721 5.83878 9.08924C5.05841 8.92127 4.24563 8.99063 3.50501 9.28838C2.76438 9.58614 2.12978 10.0987 1.68284 10.7601C1.2359 11.4215 0.99707 12.2014 0.99707 12.9997C0.99707 13.7979 1.2359 14.5779 1.68284 15.2393C2.12978 15.9007 2.76438 16.4132 3.50501 16.711C4.24563 17.0087 5.05841 17.0781 5.83878 16.9101C6.61915 16.7421 7.33141 16.3445 7.88394 15.7684L17.1339 20.9728C16.9195 21.7802 16.9632 22.6345 17.259 23.4158C17.5547 24.1971 18.0877 24.8662 18.7831 25.3292C19.4785 25.7922 20.3014 26.0258 21.1363 25.9974C21.9712 25.9689 22.7763 25.6797 23.4385 25.1703C24.1007 24.661 24.5868 23.9572 24.8287 23.1575C25.0705 22.3579 25.0558 21.5026 24.7868 20.7116C24.5178 19.9207 24.0079 19.2339 23.3287 18.7475C22.6495 18.2611 21.835 17.9996 20.9996 17.9997Z" fill="#030823"/>
</svg>
