<svg width="40" height="40" viewBox="0 0 40 40" fill="none" xmlns="http://www.w3.org/2000/svg">
<path d="M16 20H24M8 20C8 21.5759 8.31039 23.1363 8.91345 24.5922C9.5165 26.0481 10.4004 27.371 11.5147 28.4853C12.629 29.5996 13.9519 30.4835 15.4078 31.0866C16.8637 31.6896 18.4241 32 20 32C21.5759 32 23.1363 31.6896 24.5922 31.0866C26.0481 30.4835 27.371 29.5996 28.4853 28.4853C29.5996 27.371 30.4835 26.0481 31.0866 24.5922C31.6896 23.1363 32 21.5759 32 20C32 18.4241 31.6896 16.8637 31.0866 15.4078C30.4835 13.9519 29.5996 12.629 28.4853 11.5147C27.371 10.4004 26.0481 9.5165 24.5922 8.91345C23.1363 8.31039 21.5759 8 20 8C18.4241 8 16.8637 8.31039 15.4078 8.91345C13.9519 9.5165 12.629 10.4004 11.5147 11.5147C10.4004 12.629 9.5165 13.9519 8.91345 15.4078C8.31039 16.8637 8 18.4241 8 20Z" stroke="#4F576A" stroke-width="2" stroke-linecap="round" stroke-linejoin="round"/>
</svg>
