<svg width="40" height="41" viewBox="0 0 40 41" fill="none" xmlns="http://www.w3.org/2000/svg">
<path d="M16 20.5H24M20 16.5V24.5M8 20.5C8 22.0759 8.31039 23.6363 8.91345 25.0922C9.5165 26.5481 10.4004 27.871 11.5147 28.9853C12.629 30.0996 13.9519 30.9835 15.4078 31.5866C16.8637 32.1896 18.4241 32.5 20 32.5C21.5759 32.5 23.1363 32.1896 24.5922 31.5866C26.0481 30.9835 27.371 30.0996 28.4853 28.9853C29.5996 27.871 30.4835 26.5481 31.0866 25.0922C31.6896 23.6363 32 22.0759 32 20.5C32 17.3174 30.7357 14.2652 28.4853 12.0147C26.2348 9.76428 23.1826 8.5 20 8.5C16.8174 8.5 13.7652 9.76428 11.5147 12.0147C9.26428 14.2652 8 17.3174 8 20.5Z" stroke="#4F576A" stroke-width="2" stroke-linecap="round" stroke-linejoin="round"/>
</svg>
