<svg width="16" height="16" viewBox="0 0 16 16" fill="none" xmlns="http://www.w3.org/2000/svg">
<path d="M14.3182 8.18182C14.499 8.18182 14.6724 8.10998 14.8003 7.98212C14.9282 7.85425 15 7.68083 15 7.5C15 7.31917 14.9282 7.14575 14.8003 7.01788C14.6724 6.89002 14.499 6.81818 14.3182 6.81818C10.1045 6.72273 8.18182 4.77273 8.18182 0.681818C8.18182 0.500989 8.10998 0.327566 7.98212 0.1997C7.85425 0.0718342 7.68083 0 7.5 0C7.31917 0 7.14575 0.0718342 7.01788 0.1997C6.89002 0.327566 6.81818 0.500989 6.81818 0.681818C6.81818 4.80682 4.84773 6.75682 0.681818 6.81818C0.500989 6.81818 0.327566 6.89002 0.1997 7.01788C0.0718342 7.14575 0 7.31917 0 7.5C0 7.68083 0.0718342 7.85425 0.1997 7.98212C0.327566 8.10998 0.500989 8.18182 0.681818 8.18182C4.81364 8.18182 6.75682 10.1318 6.81818 14.3182C6.81818 14.499 6.89002 14.6724 7.01788 14.8003C7.14575 14.9282 7.31917 15 7.5 15C7.68083 15 7.85425 14.9282 7.98212 14.8003C8.10998 14.6724 8.18182 14.499 8.18182 14.3182C8.39318 10.1114 10.3295 8.18182 14.2773 8.18182H14.3182Z" fill="#FED670"/>
<path d="M10.5455 2.54545H11.4545V3.45455C11.4545 3.59921 11.512 3.73795 11.6143 3.84024C11.7166 3.94253 11.8553 4 12 4C12.1447 4 12.2834 3.94253 12.3857 3.84024C12.488 3.73795 12.5455 3.59921 12.5455 3.45455V2.54545H13.4545C13.5992 2.54545 13.7379 2.48799 13.8402 2.38569C13.9425 2.2834 14 2.14466 14 2C14 1.85534 13.9425 1.7166 13.8402 1.61431C13.7379 1.51201 13.5992 1.45455 13.4545 1.45455H12.5455V0.545455C12.5455 0.400791 12.488 0.262053 12.3857 0.15976C12.2834 0.0574674 12.1447 0 12 0C11.8553 0 11.7166 0.0574674 11.6143 0.15976C11.512 0.262053 11.4545 0.400791 11.4545 0.545455V1.45455H10.5455C10.4008 1.45455 10.2621 1.51201 10.1598 1.61431C10.0575 1.7166 10 1.85534 10 2C10 2.14466 10.0575 2.2834 10.1598 2.38569C10.2621 2.48799 10.4008 2.54545 10.5455 2.54545Z" fill="#FED670"/>
<path d="M15.4545 13.4545H14.5455V12.5455C14.5455 12.4008 14.488 12.2621 14.3857 12.1598C14.2834 12.0575 14.1447 12 14 12C13.8553 12 13.7166 12.0575 13.6143 12.1598C13.512 12.2621 13.4545 12.4008 13.4545 12.5455V13.4545H12.5455C12.4008 13.4545 12.2621 13.512 12.1598 13.6143C12.0575 13.7166 12 13.8553 12 14C12 14.1447 12.0575 14.2834 12.1598 14.3857C12.2621 14.488 12.4008 14.5455 12.5455 14.5455H13.4545V15.4545C13.4545 15.5992 13.512 15.7379 13.6143 15.8402C13.7166 15.9425 13.8553 16 14 16C14.1447 16 14.2834 15.9425 14.3857 15.8402C14.488 15.7379 14.5455 15.5992 14.5455 15.4545V14.5455H15.4545C15.5992 14.5455 15.7379 14.488 15.8402 14.3857C15.9425 14.2834 16 14.1447 16 14C16 13.8553 15.9425 13.7166 15.8402 13.6143C15.7379 13.512 15.5992 13.4545 15.4545 13.4545Z" fill="#FED670"/>
</svg>
