<svg width="30" height="54" viewBox="0 0 30 54" fill="none" xmlns="http://www.w3.org/2000/svg">
<path d="M29.7699 20.8575C29.6999 20.6724 29.5902 20.5169 29.4538 20.4093C29.3174 20.3017 29.1599 20.2464 28.9999 20.25H16.0849L19.3574 1.37246C19.4175 1.10346 19.3992 0.815485 19.3057 0.56271C19.2122 0.309935 19.0501 0.109795 18.8499 -4.44055e-05C18.665 -0.104503 18.4576 -0.123483 18.2631 -0.0537644C18.0685 0.0159546 17.8987 0.170079 17.7824 0.382456L0.282403 31.8825C0.197016 32.0578 0.151733 32.2606 0.151733 32.4675C0.151733 32.6744 0.197016 32.8771 0.282403 33.0525C0.340027 33.2427 0.437623 33.4087 0.56431 33.5319C0.690998 33.655 0.841799 33.7305 0.999903 33.75H13.9149L10.6424 52.6275C10.5823 52.8964 10.6006 53.1844 10.6941 53.4372C10.7876 53.69 10.9497 53.8901 11.1499 54C11.3358 54.0962 11.5411 54.1109 11.7342 54.0417C11.9272 53.9726 12.097 53.8234 12.2174 53.6175L29.7174 22.1175C29.8254 21.9396 29.8883 21.7234 29.8977 21.4981C29.9071 21.2727 29.8625 21.0491 29.7699 20.8575Z" fill="#FED670"/>
</svg>
