<svg width="16" height="16" viewBox="0 0 16 16" fill="none" xmlns="http://www.w3.org/2000/svg">
<path d="M15.5469 4.2937C15.5943 4.25427 15.6299 4.20245 15.6496 4.14401C15.6693 4.08556 15.6725 4.02279 15.6586 3.96267C15.6448 3.90256 15.6146 3.84745 15.5713 3.8035C15.528 3.75954 15.4734 3.72845 15.4135 3.7137L14.8869 3.58036C14.839 3.56838 14.7943 3.5459 14.7562 3.51456C14.7181 3.48322 14.6874 3.4438 14.6663 3.39915C14.6453 3.3545 14.6344 3.30573 14.6345 3.25636C14.6346 3.207 14.6456 3.15827 14.6669 3.1137L14.9602 2.52036C14.9879 2.46287 14.9985 2.39863 14.9908 2.33527C14.9831 2.27192 14.9573 2.21212 14.9166 2.16297C14.8759 2.11382 14.8219 2.0774 14.7611 2.05803C14.7003 2.03866 14.6352 2.03716 14.5735 2.0537L13.2402 2.42703C13.1905 2.44152 13.1381 2.44424 13.0872 2.43499C13.0363 2.42573 12.9883 2.40475 12.9469 2.3737C12.3699 1.94096 11.6681 1.70703 10.9469 1.70703C10.0628 1.70703 9.21496 2.05822 8.58984 2.68334C7.96471 3.30846 7.61352 4.15631 7.61352 5.04037V5.28037C7.61382 5.32131 7.59903 5.36093 7.57198 5.39167C7.54493 5.42241 7.50751 5.44212 7.46686 5.44703C5.59352 5.66703 3.80019 4.7137 1.86686 2.48703C1.82486 2.44071 1.7709 2.40687 1.71092 2.38923C1.65093 2.37159 1.58724 2.37083 1.52686 2.38703C1.47245 2.41204 1.42579 2.45123 1.39177 2.5005C1.35775 2.54977 1.33763 2.6073 1.33352 2.66703C1.0665 3.76393 1.17446 4.91865 1.64019 5.94703C1.65397 5.97431 1.65999 6.00485 1.65758 6.03531C1.65517 6.06578 1.64444 6.09499 1.62654 6.11977C1.60865 6.14454 1.58429 6.16392 1.55613 6.17578C1.52797 6.18765 1.49708 6.19154 1.46686 6.18703L0.72019 6.04037C0.667165 6.03184 0.612864 6.03625 0.561912 6.05323C0.510959 6.07021 0.464863 6.09924 0.427547 6.13787C0.390231 6.17649 0.3628 6.22356 0.347591 6.27507C0.332381 6.32658 0.329842 6.381 0.34019 6.4337C0.397749 6.94533 0.569639 7.43747 0.843136 7.87368C1.11663 8.30989 1.48473 8.679 1.92019 8.9537C1.94837 8.96735 1.97213 8.98866 1.98876 9.01518C2.00539 9.04171 2.01421 9.07239 2.01421 9.1037C2.01421 9.13501 2.00539 9.16568 1.98876 9.19221C1.97213 9.21874 1.94837 9.24005 1.92019 9.2537L1.56686 9.3937C1.52395 9.4109 1.48508 9.43684 1.45274 9.46987C1.42039 9.5029 1.39527 9.5423 1.37897 9.58556C1.36267 9.62882 1.35555 9.675 1.35805 9.72116C1.36056 9.76732 1.37264 9.81246 1.39352 9.8537C1.58892 10.2812 1.88509 10.655 2.25666 10.943C2.62822 11.231 3.06408 11.4245 3.52686 11.507C3.55903 11.5187 3.58683 11.54 3.60648 11.568C3.62612 11.5961 3.63666 11.6295 3.63666 11.6637C3.63666 11.6979 3.62612 11.7313 3.60648 11.7594C3.58683 11.7874 3.55903 11.8087 3.52686 11.8204C2.62043 12.1953 1.6477 12.3835 0.666857 12.3737C0.578451 12.356 0.486643 12.3742 0.411628 12.4242C0.336614 12.4742 0.284538 12.552 0.266857 12.6404C0.249175 12.7288 0.267338 12.8206 0.317347 12.8956C0.367357 12.9706 0.445118 13.0227 0.533523 13.0404C2.23189 13.8459 4.08098 14.2843 5.96019 14.327C7.61316 14.3522 9.23671 13.8884 10.6269 12.9937C11.7703 12.2304 12.7072 11.196 13.3539 9.98281C14.0007 8.76959 14.3372 7.4152 14.3335 6.04037V5.46036C14.3339 5.41196 14.3449 5.36422 14.3656 5.32047C14.3863 5.27672 14.4163 5.23801 14.4535 5.20703L15.5469 4.2937Z" fill="#FCFCFF"/>
</svg>
