<svg width="136" height="122" viewBox="0 0 136 122" fill="none" xmlns="http://www.w3.org/2000/svg">
<path d="M80.5775 7.2607C77.9836 2.76764 73.1891 0 68.0012 0C62.8134 0 58.0191 2.76791 55.425 7.2607L1.94557 99.8887C0.238451 102.845 -0.372061 106.309 0.220527 109.672C0.813114 113.033 2.5719 116.078 5.18678 118.274C7.80177 120.468 11.1075 121.67 14.5206 121.67H121.479C124.893 121.67 128.198 120.468 130.813 118.274C133.428 116.078 135.187 113.033 135.779 109.672C136.372 106.309 135.762 102.845 134.054 99.8887L80.5775 7.2607ZM126.202 109.876V109.875C125.73 110.711 125.044 111.405 124.213 111.884C123.383 112.364 122.439 112.611 121.48 112.602H14.5212C12.5737 112.602 10.7737 111.562 9.79953 109.875C8.82628 108.189 8.82628 106.111 9.79953 104.424L63.279 11.7931C63.9201 10.6828 64.9313 9.83395 66.1354 9.39531C67.3406 8.95667 68.6608 8.95667 69.8659 9.39531C71.0701 9.83395 72.0813 10.6828 72.7224 11.7931L126.202 104.424C126.69 105.249 126.947 106.19 126.947 107.15C126.947 108.108 126.69 109.05 126.202 109.875L126.202 109.876Z" fill="#FFCD7A"/>
<path d="M68.0013 81.8233C69.2033 81.8233 70.3569 81.3446 71.2078 80.4947C72.0577 79.6448 72.5354 78.4912 72.5354 77.2881V37.2973C72.5354 35.6777 71.6718 34.1804 70.2684 33.3706C68.866 32.5608 67.1366 32.5608 65.7343 33.3706C64.3308 34.1804 63.4673 35.6777 63.4673 37.2973V77.2881C63.4673 78.4912 63.9449 79.6448 64.7948 80.4947C65.6457 81.3445 66.7993 81.8233 68.0013 81.8233H68.0013Z" fill="#FFCD7A"/>
<path d="M68.0013 90.9444C66.7286 90.9444 65.5076 91.4505 64.6082 92.3499C63.7077 93.2504 63.2027 94.4704 63.2027 95.743C63.2027 97.0156 63.7077 98.2367 64.6082 99.1372C65.5076 100.037 66.7287 100.543 68.0013 100.543C69.274 100.542 70.495 100.037 71.3944 99.1361C72.2948 98.2367 72.7999 97.0156 72.7999 95.743C72.7999 94.4704 72.2948 93.2503 71.3944 92.3499C70.4949 91.4495 69.2739 90.9444 68.0013 90.9444V90.9444Z" fill="#FFCD7A"/>
</svg>
