<svg width="16" height="17" viewBox="0 0 16 17" fill="none" xmlns="http://www.w3.org/2000/svg">
<path d="M14.8591 12.8919L9.09312 3.08857C8.98862 2.91104 8.83155 2.76234 8.63892 2.65859C8.44629 2.55484 8.22544 2.5 8.00031 2.5C7.77517 2.5 7.55433 2.55484 7.3617 2.65859C7.16907 2.76234 7.012 2.91104 6.9075 3.08857L1.14085 12.8919C1.04235 13.0593 0.994037 13.2466 1.00059 13.4355C1.00714 13.6244 1.06833 13.8086 1.17825 13.9703C1.28816 14.132 1.44308 14.2657 1.62803 14.3585C1.81297 14.4513 2.02168 14.5 2.23397 14.5H13.766C13.9783 14.5 14.187 14.4513 14.372 14.3585C14.5569 14.2657 14.7118 14.132 14.8218 13.9703C14.9317 13.8086 14.9929 13.6244 14.9994 13.4355C15.006 13.2466 14.9577 13.0593 14.8591 12.8919ZM7.38311 6.53375C7.38311 6.38809 7.44811 6.2484 7.5638 6.1454C7.67948 6.0424 7.83639 5.98454 8 5.98454C8.16361 5.98454 8.32052 6.0424 8.4362 6.1454C8.55189 6.2484 8.61689 6.38809 8.61689 6.53375V9.82899C8.61689 9.97465 8.55189 10.1143 8.4362 10.2173C8.32052 10.3203 8.16361 10.3782 8 10.3782C7.83639 10.3782 7.67948 10.3203 7.5638 10.2173C7.44811 10.1143 7.38311 9.97465 7.38311 9.82899V6.53375ZM8.03084 12.8551H8.01357C7.7703 12.8544 7.53674 12.77 7.36176 12.6196C7.18677 12.4691 7.08391 12.2642 7.07467 12.0478C7.07023 11.9401 7.08992 11.8328 7.1326 11.732C7.17529 11.6312 7.2401 11.539 7.32327 11.4608C7.40643 11.3826 7.50627 11.3199 7.61696 11.2764C7.72764 11.2329 7.84696 11.2095 7.96792 11.2075H7.98519C8.22842 11.2078 8.46211 11.2918 8.63734 11.4419C8.81258 11.5921 8.91577 11.7968 8.92533 12.0132C8.93011 12.1211 8.91062 12.2287 8.86801 12.3298C8.82539 12.4309 8.76051 12.5234 8.67718 12.6018C8.59384 12.6802 8.49373 12.7431 8.38274 12.7866C8.27175 12.8301 8.1521 12.8534 8.03084 12.8551Z" fill="#EA960D"/>
</svg>
