<svg xmlns="http://www.w3.org/2000/svg" width="32" height="32" fill="none"><circle cx="16" cy="16" r="16" fill="#fff"/><g fill="#5326EC" clip-path="url(#a)"><path fill-opacity=".2" d="m15.9976 4-.1573.56499V20.9596l.1573.166 7.1978-4.4984L15.9976 4Z"/><path d="M15.9977 4 8.7998 16.6272l7.1979 4.4984V4Z"/><path fill-opacity=".4" d="m15.9978 22.5664-.0886.1142v5.8401l.0886.2737 7.2021-10.7241-7.2021 4.4961Z"/><path d="M15.9977 28.7944v-6.228l-7.1979-4.4961 7.1979 10.7241ZM15.9976 21.1256l7.1977-4.4984-7.1977-3.459v7.9574Z"/><path fill-opacity=".2" d="m8.7998 16.6272 7.1978 4.4984v-7.9574l-7.1978 3.459Z"/></g><defs><clipPath id="a"><path fill="#fff" d="M8.7998 4h14.4v24.8h-14.4z"/></clipPath></defs></svg>