<svg xmlns="http://www.w3.org/2000/svg" width="32" height="32" fill="none"><g clip-path="url(#a)"><path fill="#04795B" d="M32 16c0-8.83656-7.1634-16-16-16C7.16344 0 0 7.16344 0 16c0 8.8366 7.16344 16 16 16 8.8366 0 16-7.1634 16-16Z"/><path fill="#EFEFEF" d="M11.6529 17.4491c.6301 0 1.2118-.2099 1.6804-.5733l-3.84566-3.8443c-.36357.4603-.5736 1.0418-.5736 1.6798-.00811 1.5103 1.21996 2.7378 2.73886 2.7378ZM23.0928 14.7033c0-.6299-.21-1.2114-.5736-1.6799l-3.8457 3.8443c.4605.3634 1.0422.5734 1.6804.5734 1.5109.0081 2.7389-1.2195 2.7389-2.7378Z"/><path fill="#EFEFEF" d="m25.0318 10.5281-1.7047 1.704c.5655.6784.9049 1.5345.9049 2.4875 0 2.1402-1.7371 3.8765-3.878 3.8765-.9452 0-1.8097-.3392-2.4884-.9045l-1.8662 1.8656-1.8663-1.8656c-.6786.5653-1.5351.9045-2.4884.9045-2.14096 0-3.87792-1.7363-3.87792-3.8765 0-.9449.3393-1.8091.90485-2.4875l-.87259-.8722-.8321-.8318C5.99744 12.1272 5.44 13.9928 5.44 15.9956c0 5.831 4.7262 10.5475 10.5513 10.5475 5.825 0 10.5513-4.7246 10.5513-10.5475.0161-2.0109-.5413-3.8765-1.5108-5.4675Z"/><path fill="#EFEFEF" d="M23.6341 8.71077c-1.9147-2.01094-4.6293-3.27083-7.6347-3.27083-3.0055 0-5.712 1.25989-7.63481 3.27083-.25851.27461-.50896.56533-.74325.86416l8.36996 8.36687 8.3699-8.37493c-.21-.29077-.4605-.5896-.7271-.8561ZM15.9994 6.8129c2.4722 0 4.7666.95296 6.4875 2.68933l-6.4875 6.48517-6.48756-6.48517C11.2408 7.76586 13.5272 6.8129 15.9994 6.8129Z"/></g><defs><clipPath id="a"><path fill="#fff" d="M0 0h32v32H0z"/></clipPath></defs></svg>