<svg xmlns="http://www.w3.org/2000/svg" width="32" height="32" fill="none"><circle cx="16" cy="16" r="16" fill="#fff"/><path fill="#8247E5" d="M21.6146 12.2187c-.4011-.2292-.9167-.2292-1.375 0l-3.2084 1.8906-2.177 1.2031-3.1511 1.8906c-.401.2292-.9166.2292-1.375 0l-2.46352-1.4895c-.40104-.2292-.6875-.6875-.6875-1.2032v-2.8645c0-.4584.22917-.9167.6875-1.2032l2.46352-1.43226c.4011-.22917.9167-.22917 1.375 0l2.4636 1.48956c.401.2292.6875.6875.6875 1.2031v1.8907l2.177-1.2604v-1.948c0-.4583-.2291-.91663-.6875-1.20309L11.7604 6.4895c-.401-.22916-.9167-.22916-1.375 0l-4.6979 2.75C5.22917 9.46867 5 9.927 5 10.3853v5.3855c0 .4583.22917.9166.6875 1.2031l4.6406 2.6927c.4011.2292.9167.2292 1.375 0l3.1511-1.8333 2.177-1.2605 3.1511-1.8333c.401-.2292.9167-.2292 1.375 0l2.4635 1.4323c.4011.2292.6875.6875.6875 1.2031v2.8646c0 .4583-.2291.9167-.6875 1.2031l-2.4062 1.4323c-.4011.2292-.9167.2292-1.375 0l-2.4636-1.4323c-.401-.2291-.6875-.6875-.6875-1.2031v-1.8333l-2.177 1.2604v1.8906c0 .4583.2291.9167.6875 1.2031l4.6406 2.6927c.401.2292.9166.2292 1.375 0l4.6406-2.6927c.401-.2291.6875-.6875.6875-1.2031v-5.4427c0-.4583-.2292-.9167-.6875-1.2031l-4.6406-2.6927Z"/></svg>