<svg width="128" height="128" viewBox="0 0 128 128" fill="none" xmlns="http://www.w3.org/2000/svg">
<rect width="128" height="128" rx="16" fill="#F7F7F9"/>
<path d="M78.3773 88.7662C77.5963 87.9851 76.33 87.9851 75.5489 88.7662C74.7679 89.5472 74.7679 90.8135 75.5489 91.5946L78.3773 88.7662ZM73.3386 39.8332L71.43 40.431L71.608 40.9992L72.0677 41.3775L73.3386 39.8332ZM112.005 71.6526L113.307 70.1341L113.292 70.121L113.276 70.1083L112.005 71.6526ZM115.63 87.3609L113.894 86.3687L115.63 87.3609ZM60.0469 82.9304L58.6954 84.4047L60.0469 82.9304ZM56.0082 61.5745C56.6708 60.6908 56.4915 59.4372 55.6077 58.7746C54.7239 58.112 53.4704 58.2913 52.8078 59.1751L56.0082 61.5745ZM69.1039 55.4909C68.6311 54.4926 67.4385 54.0667 66.4403 54.5396C65.442 55.0124 65.0161 56.205 65.489 57.2032L69.1039 55.4909ZM75.7967 62.3249C76.8736 62.0795 77.5478 61.0076 77.3025 59.9306C77.0571 58.8536 75.9852 58.1794 74.9082 58.4248L75.7967 62.3249ZM106.291 93.6344L106.547 95.6179L106.291 93.6344ZM100.638 82.9304C100.638 81.8258 99.7426 80.9304 98.638 80.9304C97.5335 80.9304 96.638 81.8258 96.638 82.9304H100.638ZM108.558 77.757C108.148 76.7315 106.984 76.2326 105.958 76.6429C104.933 77.0531 104.434 78.217 104.844 79.2426L108.558 77.757ZM104.75 79.4623C103.724 79.8725 103.225 81.0365 103.636 82.062C104.046 83.0876 105.21 83.5864 106.235 83.1762L104.75 79.4623ZM64.4548 30.4704C65.0676 29.5513 64.8192 28.3096 63.9001 27.6969C62.9811 27.0842 61.7394 27.3325 61.1266 28.2516L64.4548 30.4704ZM61.7819 36.0139C62.5644 36.7935 63.8307 36.7912 64.6103 36.0087C65.39 35.2262 65.3876 33.9599 64.6051 33.1803L61.7819 36.0139ZM101.465 31.6906L103.353 32.3513C103.607 31.6253 103.422 30.8178 102.877 30.2746C102.333 29.7314 101.525 29.5486 100.799 29.8047L101.465 31.6906ZM86.9574 28.9582L85.6195 30.4448L86.9574 28.9582ZM69.4128 26.2164L71.3082 25.578L71.3082 25.578L69.4128 26.2164ZM70.0697 28.1669L68.1743 28.8052L68.1743 28.8052L70.0697 28.1669ZM85.7565 38.1351L86.7565 36.4031L85.7565 38.1351ZM22.1176 46.461L22.7832 44.5751C22.0294 44.309 21.1895 44.5174 20.6475 45.1051C20.1055 45.6927 19.9654 46.5466 20.2914 47.2766L22.1176 46.461ZM37.8278 40.6724L39.4148 41.8896L37.8278 40.6724ZM51.1764 35.4026L50.0859 37.0792L51.1764 35.4026ZM50.7074 40.6724L52.2098 41.9925L52.259 41.9365L52.3039 41.877L50.7074 40.6724ZM46.8438 45.0693L48.258 46.4836L48.3036 46.4379L48.3462 46.3895L46.8438 45.0693ZM37.4232 51.5137L36.6344 49.6758L37.4232 51.5137ZM14.0008 82.2394L13.7018 80.2619C12.9114 80.3814 12.268 80.9602 12.0658 81.7336C11.8637 82.5071 12.1415 83.3266 12.7723 83.8176L14.0008 82.2394ZM23.3185 75.2776L21.6136 74.232L23.3185 75.2776ZM36.9281 63.4707L35.0834 62.6979L35.0549 62.766L35.0314 62.8361L36.9281 63.4707ZM34.9991 69.236L33.1024 68.6014L33.0939 68.6268L33.0861 68.6525L34.9991 69.236ZM29.8851 79.5045L28.2507 78.3517L28.2507 78.3517L29.8851 79.5045ZM11.7969 109.448L11.4979 107.471C10.7074 107.59 10.0641 108.169 9.86189 108.942C9.65971 109.716 9.93755 110.535 10.5684 111.026L11.7969 109.448ZM20.8275 103.27L19.0936 102.273L20.8275 103.27ZM31.3741 87.7638L30.8911 85.8229L31.3741 87.7638ZM34.1745 90.9735L32.282 90.3266L32.2643 90.3784L32.2494 90.4312L34.1745 90.9735ZM32.5824 96.6249L34.4798 97.2573L34.4947 97.2126L34.5075 97.1672L32.5824 96.6249ZM72.8005 20.2092C71.9463 20.9095 71.8216 22.1697 72.5219 23.0238C73.2222 23.878 74.4824 24.0027 75.3366 23.3024L72.8005 20.2092ZM80.513 16.472L79.2901 14.8895L79.2672 14.9071L79.2449 14.9254L80.513 16.472ZM86.0111 12.2235L84.7882 10.6409L84.7882 10.6409L86.0111 12.2235ZM88.5788 13.7998L90.5435 14.174L90.5435 14.174L88.5788 13.7998ZM87.763 18.0832L89.7136 18.5248L89.7212 18.4912L89.7276 18.4574L87.763 18.0832ZM83.8059 26.5026C83.5619 27.5799 84.2375 28.651 85.3148 28.8949C86.3921 29.1389 87.4632 28.4633 87.7071 27.386L83.8059 26.5026ZM70.6346 22.1162L69.5576 20.4309L70.6346 22.1162ZM34.1766 59.5262L33.8111 57.5599L34.1766 59.5262ZM34.8336 59.4846L34.6347 61.4746L34.8336 59.4846ZM67.1757 20.16L65.2671 20.7579L67.1757 20.16ZM49.8868 111.127L49.8566 109.127L49.8868 111.127ZM101.262 93.2872L102.045 91.4469L101.262 93.2872ZM101.819 93.472L101.38 95.4232L101.819 93.472ZM72.4295 31.5758L73.0296 29.6679L72.4295 31.5758ZM53.4575 39.2006L54.5937 40.8465L53.4575 39.2006ZM55.5876 35.2604L53.59 35.1624L55.5876 35.2604ZM84.3038 86.071L85.0869 84.2307L84.3038 86.071ZM80.909 86.0795L81.613 87.9515L80.909 86.0795ZM67.2965 111.125C67.2965 113.125 67.2968 113.125 67.2972 113.125C67.2974 113.125 67.2979 113.125 67.2983 113.125C67.2991 113.125 67.3001 113.125 67.3013 113.125C67.3036 113.125 67.3068 113.125 67.3106 113.125C67.3183 113.125 67.329 113.125 67.3426 113.125C67.3697 113.125 67.4083 113.124 67.4578 113.124C67.5567 113.123 67.699 113.121 67.8789 113.116C68.2386 113.108 68.7501 113.092 69.3676 113.059C70.5979 112.994 72.2711 112.863 74.013 112.599C75.7366 112.337 77.6204 111.93 79.2292 111.28C80.7466 110.666 82.4938 109.648 83.2385 107.87L79.5489 106.325C79.4502 106.56 79.0136 107.052 77.7296 107.571C76.5371 108.054 75.002 108.402 73.4121 108.644C71.8405 108.883 70.3057 109.004 69.1563 109.065C68.584 109.095 68.1127 109.11 67.7871 109.117C67.6244 109.121 67.4984 109.123 67.4147 109.124C67.3729 109.124 67.3416 109.125 67.3217 109.125C67.3117 109.125 67.3045 109.125 67.3003 109.125C67.2982 109.125 67.2968 109.125 67.2962 109.125C67.2958 109.125 67.2957 109.125 67.2958 109.125C67.2958 109.125 67.296 109.125 67.296 109.125C67.2962 109.125 67.2965 109.125 67.2965 111.125ZM83.2385 107.87C83.8284 106.461 83.955 104.753 83.863 103.097C83.7689 101.402 83.4343 99.5724 82.9474 97.8053C81.9985 94.362 80.3528 90.7416 78.3773 88.7662L75.5489 91.5946C76.7957 92.8414 78.2086 95.6655 79.0911 98.868C79.5198 100.424 79.7941 101.967 79.8692 103.319C79.9464 104.709 79.8023 105.719 79.5489 106.325L83.2385 107.87ZM49.8566 109.127C49.5077 109.133 47.2843 109.109 44.8583 107.924C42.5113 106.776 39.8565 104.491 38.5373 99.7172L34.6818 100.782C36.3292 106.745 39.8054 109.906 43.1017 111.517C46.319 113.09 49.251 113.137 49.917 113.127L49.8566 109.127ZM38.5373 99.7172C37.0907 94.4815 35.772 83.3325 37.5491 71.6384C39.3262 59.9436 44.1378 48.0649 54.5937 40.8465L52.3212 37.5547C40.5898 45.6537 35.4554 58.7911 33.5945 71.0374C31.7334 83.2843 33.0844 95.0012 34.6818 100.782L38.5373 99.7172ZM57.5852 35.3584C57.6952 33.1171 58.1362 30.0116 59.1429 27.0367C60.1592 24.0334 61.6767 21.3841 63.7911 19.7771L61.3707 16.5925C58.3554 18.8842 56.4933 22.3875 55.3539 25.7546C54.2049 29.1503 53.7141 32.6333 53.59 35.1624L57.5852 35.3584ZM65.2671 20.7579L71.43 40.431L75.2471 39.2353L69.0842 19.5621L65.2671 20.7579ZM72.0677 41.3775L110.734 73.1969L113.276 70.1083L74.6094 38.2888L72.0677 41.3775ZM110.704 73.1711C111.905 74.2009 113.553 76.1678 114.451 78.5748C115.327 80.9202 115.473 83.6045 113.894 86.3687L117.367 88.3532C119.654 84.3507 119.398 80.3892 118.199 77.1762C117.023 74.0249 114.925 71.521 113.307 70.1341L110.704 73.1711ZM102.045 91.4469L85.0869 84.2307L83.5207 87.9113L100.479 95.1275L102.045 91.4469ZM80.205 84.2075C75.5364 85.9633 67.4327 86.9876 61.3983 81.4561L58.6954 84.4047C66.3695 91.4393 76.3618 89.9264 81.613 87.9515L80.205 84.2075ZM61.3983 81.4561C57.0057 77.4295 55.4626 72.7005 55.1429 68.7716C54.9822 66.7975 55.133 65.0389 55.3853 63.7043C55.5115 63.0367 55.6596 62.4941 55.7969 62.0977C55.9507 61.6535 56.046 61.5241 56.0082 61.5745L52.8078 59.1751C52.468 59.6283 52.211 60.229 52.0171 60.7886C51.8068 61.396 51.6119 62.1309 51.4549 62.9612C51.1409 64.6222 50.9644 66.7404 51.1561 69.0961C51.5411 73.8269 53.4214 79.5701 58.6954 84.4047L61.3983 81.4561ZM65.489 57.2032C66.0856 58.4627 66.9613 60.2341 68.6423 61.4097C70.4386 62.6659 72.7768 63.0128 75.7967 62.3249L74.9082 58.4248C72.6238 58.9452 71.5381 58.5537 70.9346 58.1317C70.2158 57.629 69.7157 56.7823 69.1039 55.4909L65.489 57.2032ZM113.894 86.3687C111.844 89.9564 108.753 91.2992 106.034 91.6509L106.547 95.6179C110.219 95.1428 114.563 93.2593 117.367 88.3532L113.894 86.3687ZM106.034 91.6509C104.528 91.8458 103.174 91.7269 102.258 91.5208L101.38 95.4232C102.741 95.7294 104.565 95.8743 106.547 95.6179L106.034 91.6509ZM106.978 91.756C105.431 91.1905 103.847 90.287 102.661 88.9112C101.507 87.5722 100.638 85.6836 100.638 82.9304H96.638C96.638 86.6216 97.8377 89.4422 99.631 91.5227C101.393 93.5664 103.635 94.7927 105.604 95.5128L106.978 91.756ZM67.2965 109.125H50.0722V113.125H67.2965V109.125ZM104.844 79.2426C104.841 79.2359 104.845 79.2439 104.85 79.2649C104.855 79.2852 104.86 79.3101 104.862 79.337C104.868 79.3952 104.863 79.4296 104.861 79.4374C104.86 79.4393 104.861 79.4333 104.867 79.4223C104.873 79.4106 104.88 79.3995 104.887 79.3915C104.894 79.3833 104.894 79.3863 104.878 79.3976C104.861 79.4093 104.822 79.4335 104.75 79.4623L106.235 83.1762C107.646 82.6119 108.455 81.5581 108.743 80.4018C109 79.3675 108.811 78.3898 108.558 77.757L104.844 79.2426ZM61.1266 28.2516C60.6325 28.9928 60.0153 30.1498 59.9353 31.564C59.8495 33.0793 60.3952 34.6323 61.7819 36.0139L64.6051 33.1803C63.9705 32.548 63.9121 32.0872 63.9289 31.7899C63.9514 31.3917 64.1434 30.9375 64.4548 30.4704L61.1266 28.2516ZM72.1876 41.4688C75.911 44.089 81.7143 47.2128 87.6801 46.9227C90.7335 46.7743 93.794 45.7308 96.5444 43.3483C99.2686 40.9886 101.582 37.4091 103.353 32.3513L99.5771 31.0299C97.964 35.6389 95.9765 38.5482 93.9255 40.3249C91.9007 42.0788 89.7119 42.8192 87.4858 42.9275C82.8926 43.1508 78.0161 40.6792 74.4895 38.1975L72.1876 41.4688ZM100.799 29.8047C100.562 29.8884 99.8549 30.0035 98.6749 30.0114C97.5656 30.0188 96.2251 29.9318 94.8474 29.7342C93.4669 29.5363 92.095 29.2341 90.9088 28.8291C89.695 28.4147 88.8151 27.9394 88.2953 27.4716L85.6195 30.4448C86.7108 31.427 88.1647 32.1189 89.6164 32.6146C91.0958 33.1197 92.7214 33.4704 94.2797 33.6938C95.8408 33.9176 97.3803 34.0202 98.7017 34.0113C99.9523 34.0029 101.227 33.8956 102.13 33.5766L100.799 29.8047ZM88.2953 27.4716C84.9435 24.455 80.735 19.0257 71.502 19.8175L71.8437 23.8029C78.9903 23.19 81.804 27.0109 85.6195 30.4448L88.2953 27.4716ZM67.5174 26.8547L68.1743 28.8052L71.9651 27.5286L71.3082 25.578L67.5174 26.8547ZM73.2013 33.6995C74.9953 33.7925 76.7725 34.6091 78.7322 35.8513C79.7065 36.4689 80.658 37.1457 81.6681 37.8511C82.6565 38.5412 83.6965 39.2552 84.7565 39.8672L86.7565 36.4031C85.861 35.8861 84.9465 35.2616 83.9581 34.5714C82.9915 33.8965 81.9439 33.1513 80.8738 32.4729C78.7446 31.1232 76.2514 29.8523 73.4084 29.7049L73.2013 33.6995ZM84.7565 39.8672C88.1266 41.8129 92.0562 41.057 95.226 39.5233C98.4386 37.9688 101.373 35.3959 103.121 32.8113L99.8083 30.57C98.4687 32.5503 96.0852 34.6639 93.4838 35.9226C90.8396 37.2021 88.459 37.386 86.7565 36.4031L84.7565 39.8672ZM68.1743 28.8052C68.2458 29.0174 68.3107 29.2207 68.376 29.4263C68.4396 29.6263 68.5066 29.8383 68.5743 30.0401C68.7073 30.4363 68.8757 30.8952 69.1196 31.3364C69.6895 32.3675 70.5497 33.0811 71.8295 33.4836L73.0296 29.6679C72.8047 29.5972 72.7268 29.538 72.7105 29.5249C72.7003 29.5168 72.6725 29.4957 72.6204 29.4013C72.5558 29.2845 72.4789 29.1024 72.3664 28.7671C72.3113 28.6031 72.2555 28.4268 72.1882 28.2149C72.1226 28.0086 72.0486 27.7764 71.9651 27.5285L68.1743 28.8052ZM69.5576 20.4309C67.3134 21.8652 66.7765 24.6547 67.5174 26.8547L71.3082 25.578C71.0154 24.7088 71.3528 24.0308 71.7117 23.8014L69.5576 20.4309ZM38.7055 55.5826C38.1815 55.6699 37.6227 55.8784 37.2376 56.0199C36.7848 56.1863 36.3616 56.3449 35.8936 56.4798C34.9825 56.7425 34.0266 56.8746 32.987 56.636C30.9557 56.1697 27.692 54.0386 23.9438 45.6455L20.2914 47.2766C24.1959 56.0195 28.1822 59.637 32.092 60.5346C34.0228 60.9778 35.7101 60.6957 37.0017 60.3233C37.6351 60.1407 38.2031 59.9266 38.6172 59.7744C39.0991 59.5974 39.2828 59.5415 39.3631 59.5282L38.7055 55.5826ZM21.452 48.347C22.3861 48.6767 23.682 48.7648 24.9962 48.7086C26.3749 48.6497 27.9955 48.4215 29.6796 47.9719C33.014 47.0816 36.8321 45.2568 39.4148 41.8896L36.2409 39.4552C34.3837 41.8766 31.4879 43.3489 28.6478 44.1072C27.2446 44.4819 25.9127 44.6658 24.8255 44.7123C23.6738 44.7615 22.9904 44.6482 22.7832 44.5751L21.452 48.347ZM39.4148 41.8896C41.9367 38.6015 43.8407 36.9101 45.4323 36.2627C46.7875 35.7114 48.1568 35.8243 50.0859 37.0792L52.267 33.7261C49.5604 31.9656 46.8086 31.3845 43.9251 32.5575C41.2778 33.6343 38.8254 36.0855 36.2409 39.4552L39.4148 41.8896ZM49.205 39.3522L45.3414 43.7492L48.3462 46.3895L52.2098 41.9925L49.205 39.3522ZM45.4296 43.6551C43.5426 45.542 42.7491 46.3844 41.7233 47.1172C40.7222 47.8324 39.4597 48.4634 36.6344 49.6758L38.2119 53.3516C41.0181 52.1474 42.6534 51.3687 44.0485 50.372C45.419 49.3929 46.52 48.2215 48.258 46.4836L45.4296 43.6551ZM36.6344 49.6758C34.5016 50.5911 31.9801 50.532 29.5782 49.6804C27.1711 48.8269 25.0549 47.2337 23.7742 45.3404L20.461 47.5817C22.2682 50.2532 25.1135 52.3413 28.2415 53.4504C31.3747 54.5614 34.962 54.7463 38.2119 53.3516L36.6344 49.6758ZM50.0859 37.0792C50.4082 37.2888 50.4333 37.3983 50.4119 37.3502C50.3814 37.2819 50.4098 37.2534 50.3845 37.3675C50.3517 37.5153 50.2544 37.7684 50.0213 38.1587C49.7927 38.5415 49.4881 38.9678 49.1109 39.4678L52.3039 41.877C53.0323 40.9116 53.9843 39.6109 54.2897 38.2332C54.4605 37.4628 54.4525 36.5892 54.0646 35.72C53.6858 34.8712 53.0325 34.224 52.267 33.7261L50.0859 37.0792ZM32.9295 82.4931C32.5081 82.8164 32.1129 83.2631 31.8395 83.569C31.518 83.9287 31.2191 84.2677 30.8694 84.6068C30.1888 85.2669 29.4071 85.8328 28.3773 86.1109C26.3653 86.6541 22.4829 86.3073 15.2293 80.6612L12.7723 83.8176C20.3283 89.6991 25.5472 91.0182 29.4199 89.9726C31.3325 89.4562 32.6892 88.414 33.6542 87.4782C34.1273 87.0193 34.5281 86.5634 34.822 86.2344C35.1641 85.8517 35.3001 85.716 35.3646 85.6665L32.9295 82.4931ZM14.2998 84.2169C15.9416 83.9687 18.0047 82.9527 19.8606 81.6425C21.7598 80.3018 23.7095 78.4655 25.0234 76.3233L21.6136 74.232C20.6611 75.7852 19.1486 77.2489 17.5538 78.3747C15.9157 79.5311 14.4533 80.1483 13.7018 80.2619L14.2998 84.2169ZM25.0234 76.3233C25.8817 74.9239 26.326 73.2118 26.6824 71.6961C27.0637 70.0747 27.3642 68.5796 27.8794 67.1371C28.381 65.7328 29.0366 64.5405 30.0149 63.6043C30.9764 62.6842 32.37 61.8963 34.5421 61.4925L33.8111 57.5599C30.977 58.0867 28.8446 59.1879 27.2494 60.7143C25.6712 62.2245 24.7396 64.036 24.1125 65.7918C23.499 67.5093 23.1296 69.3306 22.7886 70.7806C22.4228 72.3364 22.0928 73.4508 21.6136 74.232L25.0234 76.3233ZM35.0314 62.8361L33.1024 68.6014L36.8957 69.8706L38.8247 64.1053L35.0314 62.8361ZM33.0861 68.6525C32.3534 71.0546 31.7892 72.5392 31.1118 73.8649C30.4286 75.2018 29.5988 76.4405 28.2507 78.3517L31.5194 80.6573C32.8687 78.7444 33.8481 77.3006 34.6736 75.6851C35.5049 74.0584 36.1491 72.3207 36.9121 69.8195L33.0861 68.6525ZM28.2507 78.3517C26.9653 80.1741 24.7832 81.2983 22.229 81.6524C19.6708 82.0071 16.9719 81.5487 14.9362 80.4716L13.0654 84.0072C15.9011 85.5076 19.4561 86.0751 22.7783 85.6145C26.1043 85.1534 29.4287 83.6215 31.5194 80.6573L28.2507 78.3517ZM34.6347 61.4746C34.9462 61.5058 35.0743 61.6401 35.1367 61.7566C35.2071 61.8882 35.292 62.2001 35.0834 62.6979L38.7727 64.2435C39.386 62.7797 39.3718 61.1933 38.6636 59.8696C37.9474 58.5309 36.6174 57.6529 35.0326 57.4945L34.6347 61.4746ZM37.4065 105.127C37.0502 105.4 36.5612 105.882 36.1377 106.287C35.6561 106.748 35.0801 107.291 34.4026 107.864C33.0432 109.015 31.3135 110.256 29.2604 111.119C27.2222 111.975 24.8713 112.458 22.2228 112.111C19.5738 111.764 16.4941 110.57 13.0254 107.87L10.5684 111.026C14.5044 114.09 18.2375 115.623 21.7033 116.077C25.1696 116.531 28.2355 115.888 30.81 114.807C33.3695 113.731 35.4483 112.22 36.9872 110.917C37.7589 110.264 38.4045 109.654 38.9037 109.177C39.461 108.643 39.712 108.399 39.8416 108.3L37.4065 105.127ZM12.0959 111.426C13.599 111.198 15.5662 110.483 17.4407 109.34C19.3265 108.19 21.2682 106.516 22.5614 104.266L19.0936 102.273C18.2263 103.782 16.8493 105.016 15.3582 105.925C13.8558 106.841 12.3879 107.336 11.4979 107.471L12.0959 111.426ZM22.5614 104.266C23.4337 102.749 23.9103 101.064 24.292 99.5449C24.694 97.9442 24.9875 96.5536 25.48 95.2086C25.9544 93.913 26.5657 92.8157 27.4921 91.919C28.4107 91.0298 29.7526 90.2282 31.857 89.7046L30.8911 85.8229C28.2168 86.4884 26.2128 87.5904 24.7101 89.045C23.2151 90.4921 22.3297 92.1789 21.7239 93.8332C21.1361 95.4383 20.7658 97.1636 20.4125 98.5705C20.0387 100.059 19.6683 101.273 19.0936 102.273L22.5614 104.266ZM32.2494 90.4312L30.6573 96.0826L34.5075 97.1672L36.0995 91.5158L32.2494 90.4312ZM30.685 95.9924C29.8551 98.4824 29.4985 99.6395 28.9484 100.817C28.4101 101.969 27.671 103.165 26.0258 105.591L29.3365 107.836C30.9786 105.414 31.8845 103.982 32.5723 102.51C33.2482 101.064 33.6987 99.6007 34.4798 97.2573L30.685 95.9924ZM26.0258 105.591C24.7897 107.414 22.6301 108.536 20.0645 108.883C17.4959 109.231 14.772 108.76 12.7323 107.68L10.8615 111.216C13.6931 112.714 17.2676 113.299 20.6016 112.847C23.9384 112.395 27.2853 110.861 29.3365 107.836L26.0258 105.591ZM31.857 89.7046C32.0725 89.651 32.1922 89.6729 32.2354 89.6852C32.277 89.6971 32.2894 89.7108 32.2955 89.7179C32.3033 89.727 32.3312 89.7634 32.3449 89.8517C32.3587 89.9406 32.3596 90.0994 32.282 90.3266L36.067 91.6204C36.6056 90.0447 36.3885 88.3448 35.3305 87.1124C34.2509 85.8549 32.5698 85.4052 30.8911 85.8229L31.857 89.7046ZM75.3366 23.3024L81.781 18.0187L79.2449 14.9254L72.8005 20.2092L75.3366 23.3024ZM81.7359 18.0546L87.234 13.8061L84.7882 10.6409L79.2901 14.8895L81.7359 18.0546ZM86.6142 13.4256L85.7983 17.7089L89.7276 18.4574L90.5435 14.174L86.6142 13.4256ZM85.8124 17.6415L83.8059 26.5026L87.7071 27.386L89.7136 18.5248L85.8124 17.6415ZM79.4271 18.1516C79.9816 18.5101 81.2561 19.327 82.819 19.8775C84.3531 20.4179 86.4746 20.8112 88.5508 19.9214L86.9751 16.2449C86.2319 16.5634 85.2655 16.4984 84.1479 16.1048C83.0592 15.7213 82.1184 15.1284 81.5989 14.7925L79.4271 18.1516ZM87.234 13.8061C87.1885 13.8412 87.1027 13.8789 87.0002 13.8817C86.9102 13.8841 86.8408 13.8593 86.7927 13.8298C86.7447 13.8003 86.6911 13.7496 86.6526 13.6683C86.6086 13.5756 86.6034 13.482 86.6142 13.4256L90.5435 14.174C91.1655 10.9088 87.4184 8.60852 84.7882 10.6409L87.234 13.8061ZM71.502 19.8175C71.001 19.8605 70.2598 19.9821 69.5576 20.4309L71.7117 23.8014C71.6618 23.8333 71.6362 23.837 71.6602 23.8304C71.6862 23.8233 71.7429 23.8115 71.8437 23.8029L71.502 19.8175ZM34.5421 61.4925C34.5965 61.4824 34.6315 61.4783 34.6513 61.4769C34.6713 61.4754 34.6637 61.4775 34.6347 61.4746L35.0326 57.4945C34.5521 57.4464 34.1187 57.5027 33.8111 57.5599L34.5421 61.4925ZM63.7911 19.7771C63.9229 19.6769 64.0211 19.6531 64.0908 19.6476C64.17 19.6413 64.2849 19.6542 64.4321 19.7231C64.7456 19.8699 65.1017 20.2298 65.2671 20.7579L69.0842 19.5621C68.6052 18.0331 67.5221 16.7532 66.1284 16.1006C64.6779 15.4214 62.8853 15.4413 61.3707 16.5925L63.7911 19.7771ZM49.917 113.127C50.0028 113.126 50.0289 113.125 50.0722 113.125V109.125C49.9886 109.125 49.8977 109.127 49.8566 109.127L49.917 113.127ZM100.479 95.1275C100.737 95.2376 101.04 95.3468 101.38 95.4232L102.258 91.5208C102.215 91.511 102.147 91.4904 102.045 91.4469L100.479 95.1275ZM73.4084 29.7049C73.2704 29.6977 73.1834 29.6912 73.1139 29.6824C73.048 29.674 73.0259 29.6668 73.0296 29.6679L71.8295 33.4836C72.3787 33.6564 72.9059 33.6842 73.2013 33.6995L73.4084 29.7049ZM54.5937 40.8465C56.4337 39.5762 57.4808 37.4863 57.5852 35.3584L53.59 35.1624C53.5414 36.1536 53.0512 37.0508 52.3212 37.5547L54.5937 40.8465ZM85.0869 84.2307C83.4457 83.5323 81.6859 83.6506 80.205 84.2075L81.613 87.9515C82.328 87.6827 83.0031 87.6911 83.5207 87.9113L85.0869 84.2307ZM67.2965 111.125C67.2965 109.125 67.2965 109.125 67.2965 109.125C67.2965 109.125 67.2965 109.125 67.2965 109.125C67.2965 109.125 67.2965 109.125 67.2965 109.125C67.2965 109.125 67.2965 109.125 67.2965 109.125C67.2965 109.125 67.2965 109.125 67.2965 109.125C67.2965 109.125 67.2965 109.125 67.2965 109.125C67.2965 109.125 67.2965 109.125 67.2965 109.125C67.2965 109.125 67.2965 109.125 67.2965 109.125C67.2965 109.125 67.2965 109.125 67.2965 109.125C67.2965 109.125 67.2965 109.125 67.2965 109.125C67.2965 109.125 67.2965 109.125 67.2965 109.125C67.2965 109.125 67.2965 109.125 67.2965 109.125C67.2965 109.125 67.2965 109.125 67.2965 109.125C67.2965 109.125 67.2965 109.125 67.2965 109.125C67.2965 109.125 67.2965 109.125 67.2965 109.125C67.2965 109.125 67.2965 109.125 67.2965 109.125C67.2965 109.125 67.2965 109.125 67.2965 109.125C67.2965 109.125 67.2965 109.125 67.2965 109.125C67.2965 109.125 67.2965 109.125 67.2965 109.125C67.2965 109.125 67.2965 109.125 67.2965 109.125C67.2965 109.125 67.2965 109.125 67.2965 109.125C67.2965 109.125 67.2965 109.125 67.2965 109.125C67.2965 109.125 67.2965 109.125 67.2965 109.125C67.2965 109.125 67.2965 109.125 67.2965 109.125C67.2965 109.125 67.2965 109.125 67.2965 109.125C67.2965 109.125 67.2965 109.125 67.2965 109.125C67.2965 109.125 67.2965 109.125 67.2965 109.125C67.2965 109.125 67.2965 109.125 67.2965 109.125C67.2965 109.125 67.2965 109.125 67.2965 109.125C67.2965 109.125 67.2965 109.125 67.2965 109.125C67.2965 109.125 67.2965 109.125 67.2965 109.125C67.2965 109.125 67.2965 109.125 67.2965 109.125C67.2965 109.125 67.2965 109.125 67.2965 109.125C67.2965 109.125 67.2965 109.125 67.2965 109.125C67.2965 109.125 67.2965 109.125 67.2965 109.125C67.2965 109.125 67.2965 109.125 67.2965 109.125C67.2965 109.125 67.2965 109.125 67.2965 109.125C67.2965 109.125 67.2965 109.125 67.2965 109.125C67.2965 109.125 67.2965 109.125 67.2965 109.125C67.2965 109.125 67.2965 109.125 67.2965 109.125C67.2965 109.125 67.2965 109.125 67.2965 109.125C67.2965 109.125 67.2965 109.125 67.2965 109.125C67.2965 109.125 67.2965 109.125 67.2965 109.125C67.2965 109.125 67.2965 109.125 67.2965 109.125C67.2965 109.125 67.2965 109.125 67.2965 109.125C67.2965 109.125 67.2965 109.125 67.2965 109.125C67.2965 109.125 67.2965 109.125 67.2965 109.125C67.2965 109.125 67.2965 109.125 67.2965 109.125C67.2965 109.125 67.2965 109.125 67.2965 109.125C67.2965 109.125 67.2965 109.125 67.2965 109.125C67.2965 109.125 67.2965 109.125 67.2965 109.125C67.2965 109.125 67.2965 109.125 67.2965 109.125C67.2965 109.125 67.2965 109.125 67.2965 109.125C67.2965 109.125 67.2965 109.125 67.2965 109.125C67.2965 109.125 67.2965 109.125 67.2965 109.125C67.2965 109.125 67.2965 109.125 67.2965 109.125C67.2965 109.125 67.2965 109.125 67.2965 109.125C67.2965 109.125 67.2965 109.125 67.2965 109.125C67.2965 109.125 67.2965 109.125 67.2965 109.125C67.2965 109.125 67.2965 109.125 67.2965 109.125C67.2965 109.125 67.2965 109.125 67.2965 109.125C67.2965 109.125 67.2965 109.125 67.2965 109.125C67.2965 109.125 67.2965 109.125 67.2965 109.125C67.2965 109.125 67.2965 109.125 67.2965 109.125C67.2965 109.125 67.2965 109.125 67.2965 109.125C67.2965 109.125 67.2965 109.125 67.2965 109.125C67.2965 109.125 67.2965 109.125 67.2965 109.125C67.2965 109.125 67.2965 109.125 67.2965 109.125C67.2965 109.125 67.2965 109.125 67.2965 109.125C67.2965 109.125 67.2965 109.125 67.2965 109.125C67.2965 109.125 67.2965 109.125 67.2965 109.125C67.2965 109.125 67.2965 109.125 67.2965 109.125C67.2965 109.125 67.2965 109.125 67.2965 109.125C67.2965 109.125 67.2965 109.125 67.2965 109.125C67.2965 109.125 67.2965 109.125 67.2965 109.125C67.2965 109.125 67.2965 109.125 67.2965 109.125C67.2965 109.125 67.2965 109.125 67.2965 109.125C67.2965 109.125 67.2965 109.125 67.2965 109.125C67.2965 109.125 67.2965 109.125 67.2965 109.125C67.2965 109.125 67.2965 109.125 67.2965 109.125C67.2965 109.125 67.2965 109.125 67.2965 109.125C67.2965 109.125 67.2965 109.125 67.2965 109.125C67.2965 109.125 67.2965 109.125 67.2965 109.125C67.2965 109.125 67.2965 109.125 67.2965 109.125C67.2965 109.125 67.2965 109.125 67.2965 109.125C67.2965 109.125 67.2965 109.125 67.2965 109.125C67.2965 109.125 67.2965 109.125 67.2965 109.125C67.2965 109.125 67.2965 109.125 67.2965 109.125C67.2965 109.125 67.2965 109.125 67.2965 109.125C67.2965 109.125 67.2965 109.125 67.2965 109.125C67.2965 109.125 67.2965 109.125 67.2965 109.125C67.2965 109.125 67.2965 109.125 67.2965 109.125C67.2965 109.125 67.2965 109.125 67.2965 109.125C67.2965 109.125 67.2965 109.125 67.2965 109.125C67.2965 109.125 67.2965 109.125 67.2965 109.125C67.2965 109.125 67.2965 109.125 67.2965 109.125C67.2965 109.125 67.2965 109.125 67.2965 109.125C67.2965 109.125 67.2965 109.125 67.2965 109.125C67.2965 109.125 67.2965 109.125 67.2965 109.125C67.2965 109.125 67.2965 109.125 67.2965 109.125C67.2965 109.125 67.2965 109.125 67.2965 109.125C67.2965 109.125 67.2965 109.125 67.2965 109.125C67.2965 109.125 67.2965 109.125 67.2965 109.125C67.2965 109.125 67.2965 109.125 67.2965 109.125C67.2965 109.125 67.2965 109.125 67.2965 109.125C67.2965 109.125 67.2965 109.125 67.2965 109.125C67.2965 109.125 67.2965 109.125 67.2965 109.125C67.2965 109.125 67.2965 109.125 67.2965 109.125C67.2965 109.125 67.2965 109.125 67.2965 109.125C67.2965 109.125 67.2965 109.125 67.2965 109.125C67.2965 109.125 67.2965 109.125 67.2965 109.125C67.2965 109.125 67.2965 109.125 67.2965 109.125C67.2965 109.125 67.2965 109.125 67.2965 109.125C67.2965 109.125 67.2965 109.125 67.2965 109.125C67.2965 109.125 67.2965 109.125 67.2965 109.125C67.2965 109.125 67.2965 109.125 67.2965 109.125C67.2965 109.125 67.2965 109.125 67.2965 109.125C67.2965 109.125 67.2965 109.125 67.2965 109.125C67.2965 109.125 67.2965 109.125 67.2965 109.125C67.2965 109.125 67.2965 109.125 67.2965 109.125C67.2965 109.125 67.2965 109.125 67.2965 109.125C67.2965 109.125 67.2965 109.125 67.2965 109.125C67.2965 109.125 67.2965 109.125 67.2965 109.125C67.2965 109.125 67.2965 109.125 67.2965 109.125C67.2965 109.125 67.2965 109.125 67.2965 109.125C67.2965 109.125 67.2965 109.125 67.2965 109.125C67.2965 109.125 67.2965 109.125 67.2965 109.125C67.2965 109.125 67.2965 109.125 67.2965 109.125C67.2965 109.125 67.2965 109.125 67.2965 109.125C67.2965 109.125 67.2965 109.125 67.2965 109.125C67.2965 109.125 67.2965 109.125 67.2965 109.125C67.2965 109.125 67.2965 109.125 67.2965 109.125C67.2965 109.125 67.2965 109.125 67.2965 109.125C67.2965 109.125 67.2965 109.125 67.2965 109.125C67.2965 109.125 67.2965 109.125 67.2965 109.125C67.2965 109.125 67.2965 109.125 67.2965 109.125C67.2965 109.125 67.2965 109.125 67.2965 109.125C67.2965 109.125 67.2965 109.125 67.2965 109.125C67.2965 109.125 67.2965 109.125 67.2965 109.125C67.2965 109.125 67.2965 109.125 67.2965 109.125C67.2965 109.125 67.2965 109.125 67.2965 109.125C67.2965 109.125 67.2965 109.125 67.2965 109.125C67.2965 109.125 67.2965 109.125 67.2965 109.125C67.2965 109.125 67.2965 109.125 67.2965 109.125C67.2965 109.125 67.2965 109.125 67.2965 109.125C67.2965 109.125 67.2965 109.125 67.2965 109.125C67.2965 109.125 67.2965 109.125 67.2965 109.125C67.2965 109.125 67.2965 109.125 67.2965 109.125C67.2965 109.125 67.2965 109.125 67.2965 109.125C67.2965 109.125 67.2965 109.125 67.2965 109.125C67.2965 109.125 67.2965 109.125 67.2965 109.125C67.2965 109.125 67.2965 109.125 67.2965 109.125C67.2965 109.125 67.2965 109.125 67.2965 109.125C67.2965 109.125 67.2965 109.125 67.2965 109.125C67.2965 109.125 67.2965 109.125 67.2965 109.125C67.2965 109.125 67.2965 109.125 67.2965 109.125C67.2965 109.125 67.2965 109.125 67.2965 109.125C67.2965 109.125 67.2965 109.125 67.2965 109.125C67.2965 109.125 67.2965 109.125 67.2965 109.125C67.2965 109.125 67.2965 109.125 67.2965 109.125C67.2965 109.125 67.2965 109.125 67.2965 109.125C67.2965 109.125 67.2965 109.125 67.2965 109.125C67.2965 109.125 67.2965 109.125 67.2965 109.125C67.2965 109.125 67.2965 109.125 67.2965 109.125C67.2965 109.125 67.2965 109.125 67.2965 109.125C67.2965 109.125 67.2965 109.125 67.2965 109.125C67.2965 109.125 67.2965 109.125 67.2965 109.125C67.2965 109.125 67.2965 109.125 67.2965 109.125C67.2965 109.125 67.2965 109.125 67.2965 109.125C67.2965 109.125 67.2965 109.125 67.2965 109.125C67.2965 109.125 67.2965 109.125 67.2965 109.125C67.2965 109.125 67.2965 109.125 67.2965 109.125C67.2965 109.125 67.2965 109.125 67.2965 109.125C67.2965 109.125 67.2965 109.125 67.2965 109.125C67.2965 109.125 67.2965 109.125 67.2965 109.125C67.2965 109.125 67.2965 109.125 67.2965 109.125C67.2965 109.125 67.2965 109.125 67.2965 109.125C67.2965 109.125 67.2965 109.125 67.2965 109.125C67.2965 109.125 67.2965 109.125 67.2965 109.125C67.2965 109.125 67.2965 109.125 67.2965 109.125C67.2965 109.125 67.2965 109.125 67.2965 109.125C67.2965 109.125 67.2965 109.125 67.2965 109.125C67.2965 109.125 67.2965 109.125 67.2965 109.125C67.2965 109.125 67.2965 109.125 67.2965 109.125C67.2965 109.125 67.2965 109.125 67.2965 109.125C67.2965 109.125 67.2965 109.125 67.2965 109.125C67.2965 109.125 67.2965 109.125 67.2965 109.125C67.2965 109.125 67.2965 109.125 67.2965 109.125C67.2965 109.125 67.2965 109.125 67.2965 109.125C67.2965 109.125 67.2965 109.125 67.2965 109.125C67.2965 109.125 67.2965 109.125 67.2965 109.125C67.2965 109.125 67.2965 109.125 67.2965 109.125C67.2965 109.125 67.2965 109.125 67.2965 109.125C67.2965 109.125 67.2965 109.125 67.2965 109.125C67.2965 109.125 67.2965 109.125 67.2965 109.125C67.2965 109.125 67.2965 109.125 67.2965 109.125C67.2965 109.125 67.2965 109.125 67.2965 109.125C67.2965 109.125 67.2965 109.125 67.2965 109.125C67.2965 109.125 67.2965 109.125 67.2965 109.125C67.2965 109.125 67.2965 109.125 67.2965 109.125C67.2965 109.125 67.2965 109.125 67.2965 109.125C67.2965 109.125 67.2965 109.125 67.2965 109.125C67.2965 109.125 67.2965 109.125 67.2965 109.125C67.2965 109.125 67.2965 109.125 67.2965 109.125C67.2965 109.125 67.2965 109.125 67.2965 109.125C67.2965 109.125 67.2965 109.125 67.2965 109.125C67.2965 109.125 67.2965 109.125 67.2965 109.125C67.2965 109.125 67.2965 109.125 67.2965 109.125C67.2965 109.125 67.2965 109.125 67.2965 109.125C67.2965 109.125 67.2965 109.125 67.2965 109.125C67.2965 109.125 67.2965 109.125 67.2965 109.125C67.2965 109.125 67.2965 109.125 67.2965 109.125C67.2965 109.125 67.2965 109.125 67.2965 109.125C67.2965 109.125 67.2965 109.125 67.2965 109.125C67.2965 109.125 67.2965 109.125 67.2965 109.125C67.2965 109.125 67.2965 109.125 67.2965 109.125C67.2965 109.125 67.2965 109.125 67.2965 109.125C67.2965 109.125 67.2965 109.125 67.2965 109.125C67.2965 109.125 67.2965 109.125 67.2965 109.125C67.2965 109.125 67.2965 109.125 67.2965 109.125C67.2965 109.125 67.2965 109.125 67.2965 109.125C67.2965 109.125 67.2965 109.125 67.2965 109.125C67.2965 109.125 67.2965 109.125 67.2965 109.125C67.2965 109.125 67.2965 109.125 67.2965 109.125C67.2965 109.125 67.2965 109.125 67.2965 109.125C67.2965 109.125 67.2965 109.125 67.2965 109.125C67.2965 109.125 67.2965 109.125 67.2965 109.125C67.2965 109.125 67.2965 109.125 67.2965 109.125C67.2965 109.125 67.2965 109.125 67.2965 109.125C67.2965 109.125 67.2965 109.125 67.2965 109.125C67.2965 109.125 67.2965 109.125 67.2965 109.125C67.2965 109.125 67.2965 109.125 67.2965 109.125C67.2965 109.125 67.2965 109.125 67.2965 109.125C67.2965 109.125 67.2965 109.125 67.2965 109.125C67.2965 109.125 67.2965 109.125 67.2965 109.125C67.2965 109.125 67.2965 109.125 67.2965 109.125C67.2965 109.125 67.2965 109.125 67.2965 109.125C67.2965 109.125 67.2965 109.125 67.2965 109.125C67.2965 109.125 67.2965 109.125 67.2965 109.125C67.2965 109.125 67.2965 109.125 67.2965 109.125C67.2965 109.125 67.2965 109.125 67.2965 109.125C67.2965 109.125 67.2965 109.125 67.2965 109.125C67.2965 109.125 67.2965 109.125 67.2965 109.125C67.2965 109.125 67.2965 109.125 67.2965 109.125C67.2965 109.125 67.2965 109.125 67.2965 109.125C67.2965 109.125 67.2965 109.125 67.2965 109.125C67.2965 109.125 67.2965 109.125 67.2965 109.125C67.2965 109.125 67.2965 109.125 67.2965 109.125C67.2965 109.125 67.2965 109.125 67.2965 109.125C67.2965 109.125 67.2965 109.125 67.2965 109.125C67.2965 109.125 67.2965 109.125 67.2965 109.125C67.2965 109.125 67.2965 109.125 67.2965 109.125C67.2965 109.125 67.2965 109.125 67.2965 109.125C67.2965 109.125 67.2965 109.125 67.2965 109.125C67.2965 109.125 67.2965 109.125 67.2965 109.125C67.2965 109.125 67.2965 109.125 67.2965 109.125C67.2965 109.125 67.2965 109.125 67.2965 109.125C67.2965 109.125 67.2965 109.125 67.2965 109.125C67.2965 109.125 67.2965 109.125 67.2965 109.125C67.2965 109.125 67.2965 109.125 67.2965 109.125C67.2965 109.125 67.2965 109.125 67.2965 109.125C67.2965 109.125 67.2965 109.125 67.2965 109.125C67.2965 109.125 67.2965 109.125 67.2965 109.125C67.2965 109.125 67.2965 109.125 67.2965 109.125C67.2965 109.125 67.2965 109.125 67.2965 109.125C67.2965 109.125 67.2965 109.125 67.2965 109.125C67.2965 109.125 67.2965 109.125 67.2965 109.125C67.2965 109.125 67.2965 109.125 67.2965 109.125C67.2965 109.125 67.2965 109.125 67.2965 109.125C67.2965 109.125 67.2965 109.125 67.2965 109.125C67.2965 109.125 67.2965 109.125 67.2965 109.125C67.2965 109.125 67.2965 109.125 67.2965 109.125C67.2965 109.125 67.2965 109.125 67.2965 109.125C67.2965 109.125 67.2965 109.125 67.2965 109.125C67.2965 109.125 67.2965 109.125 67.2965 109.125C67.2965 109.125 67.2965 109.125 67.2965 109.125C67.2965 109.125 67.2965 109.125 67.2965 109.125C67.2965 109.125 67.2965 109.125 67.2965 109.125C67.2965 109.125 67.2965 109.125 67.2965 109.125C67.2965 109.125 67.2965 109.125 67.2965 109.125C67.2965 109.125 67.2965 109.125 67.2965 109.125C67.2965 109.125 67.2965 109.125 67.2965 109.125C67.2965 109.125 67.2965 109.125 67.2965 109.125C67.2965 109.125 67.2965 109.125 67.2965 109.125C67.2965 109.125 67.2965 109.125 67.2965 109.125C67.2965 109.125 67.2965 109.125 67.2965 109.125C67.2965 109.125 67.2965 109.125 67.2965 109.125C67.2965 109.125 67.2965 109.125 67.2965 109.125C67.2965 109.125 67.2965 109.125 67.2965 109.125C67.2965 109.125 67.2965 109.125 67.2965 109.125C67.2965 109.125 67.2965 109.125 67.2965 109.125C67.2965 109.125 67.2965 109.125 67.2965 109.125C67.2965 109.125 67.2965 109.125 67.2965 109.125C67.2965 109.125 67.2965 109.125 67.2965 109.125C67.2965 109.125 67.2965 109.125 67.2965 109.125C67.2965 109.125 67.2965 109.125 67.2965 109.125C67.2965 109.125 67.2965 109.125 67.2965 109.125C67.2965 109.125 67.2965 109.125 67.2965 109.125C67.2965 109.125 67.2965 109.125 67.2965 109.125C67.2965 109.125 67.2965 109.125 67.2965 109.125C67.2965 109.125 67.2965 109.125 67.2965 109.125C67.2965 109.125 67.2965 109.125 67.2965 109.125C67.2965 109.125 67.2965 109.125 67.2965 109.125C67.2965 109.125 67.2965 109.125 67.2965 109.125C67.2965 109.125 67.2965 109.125 67.2965 109.125C67.2965 109.125 67.2965 109.125 67.2965 109.125C67.2965 109.125 67.2965 109.125 67.2965 109.125C67.2965 109.125 67.2965 109.125 67.2965 109.125C67.2965 109.125 67.2965 109.125 67.2965 109.125C67.2965 109.125 67.2965 109.125 67.2965 109.125C67.2965 109.125 67.2965 109.125 67.2965 109.125C67.2965 109.125 67.2965 109.125 67.2965 109.125C67.2965 109.125 67.2965 109.125 67.2965 109.125C67.2965 109.125 67.2965 109.125 67.2965 109.125C67.2965 109.125 67.2965 109.125 67.2965 109.125C67.2965 109.125 67.2965 109.125 67.2965 109.125C67.2965 109.125 67.2965 109.125 67.2965 109.125C67.2965 109.125 67.2965 109.125 67.2965 109.125C67.2965 109.125 67.2965 109.125 67.2965 109.125C67.2965 109.125 67.2965 109.125 67.2965 109.125C67.2965 109.125 67.2965 109.125 67.2965 109.125C67.2965 109.125 67.2965 109.125 67.2965 109.125C67.2965 109.125 67.2965 109.125 67.2965 109.125C67.2965 109.125 67.2965 109.125 67.2965 109.125C67.2965 109.125 67.2965 109.125 67.2965 109.125C67.2965 109.125 67.2965 109.125 67.2965 109.125C67.2965 109.125 67.2965 109.125 67.2965 109.125C67.2965 109.125 67.2965 109.125 67.2965 109.125C67.2965 109.125 67.2965 109.125 67.2965 109.125C67.2965 109.125 67.2965 109.125 67.2965 109.125C67.2965 109.125 67.2965 109.125 67.2965 109.125C67.2965 109.125 67.2965 109.125 67.2965 109.125C67.2965 109.125 67.2965 109.125 67.2965 109.125C67.2965 109.125 67.2965 109.125 67.2965 109.125C67.2965 109.125 67.2965 109.125 67.2965 109.125C67.2965 109.125 67.2965 109.125 67.2965 109.125C67.2965 109.125 67.2965 109.125 67.2965 109.125C67.2965 109.125 67.2965 109.125 67.2965 109.125C67.2965 109.125 67.2965 109.125 67.2965 109.125C67.2965 109.125 67.2965 109.125 67.2965 109.125C67.2965 109.125 67.2965 109.125 67.2965 109.125C67.2965 111.125 67.2965 113.125 67.2965 113.125C67.2965 113.125 67.2965 113.125 67.2965 113.125C67.2965 113.125 67.2965 113.125 67.2965 113.125C67.2965 113.125 67.2965 113.125 67.2965 113.125C67.2965 113.125 67.2965 113.125 67.2965 113.125C67.2965 113.125 67.2965 113.125 67.2965 113.125C67.2965 113.125 67.2965 113.125 67.2965 113.125C67.2965 113.125 67.2965 113.125 67.2965 113.125C67.2965 113.125 67.2965 113.125 67.2965 113.125C67.2965 113.125 67.2965 113.125 67.2965 113.125C67.2965 113.125 67.2965 113.125 67.2965 113.125C67.2965 113.125 67.2965 113.125 67.2965 113.125C67.2965 113.125 67.2965 113.125 67.2965 113.125C67.2965 113.125 67.2965 113.125 67.2965 113.125C67.2965 113.125 67.2965 113.125 67.2965 113.125C67.2965 113.125 67.2965 113.125 67.2965 113.125C67.2965 113.125 67.2965 113.125 67.2965 113.125C67.2965 113.125 67.2965 113.125 67.2965 113.125C67.2965 113.125 67.2965 113.125 67.2965 113.125C67.2965 113.125 67.2965 113.125 67.2965 113.125C67.2965 113.125 67.2965 113.125 67.2965 113.125C67.2965 113.125 67.2965 113.125 67.2965 113.125C67.2965 113.125 67.2965 113.125 67.2965 113.125C67.2965 113.125 67.2965 113.125 67.2965 113.125C67.2965 113.125 67.2965 113.125 67.2965 113.125C67.2965 113.125 67.2965 113.125 67.2965 113.125C67.2965 113.125 67.2965 113.125 67.2965 113.125C67.2965 113.125 67.2965 113.125 67.2965 113.125C67.2965 113.125 67.2965 113.125 67.2965 113.125C67.2965 113.125 67.2965 113.125 67.2965 113.125C67.2965 113.125 67.2965 113.125 67.2965 113.125C67.2965 113.125 67.2965 113.125 67.2965 113.125C67.2965 113.125 67.2965 113.125 67.2965 113.125C67.2965 113.125 67.2965 113.125 67.2965 113.125C67.2965 113.125 67.2965 113.125 67.2965 113.125C67.2965 113.125 67.2965 113.125 67.2965 113.125C67.2965 113.125 67.2965 113.125 67.2965 113.125C67.2965 113.125 67.2965 113.125 67.2965 113.125C67.2965 113.125 67.2965 113.125 67.2965 113.125C67.2965 113.125 67.2965 113.125 67.2965 113.125C67.2965 113.125 67.2965 113.125 67.2965 113.125C67.2965 113.125 67.2965 113.125 67.2965 113.125C67.2965 113.125 67.2965 113.125 67.2965 113.125C67.2965 113.125 67.2965 113.125 67.2965 113.125C67.2965 113.125 67.2965 113.125 67.2965 113.125C67.2965 113.125 67.2965 113.125 67.2965 113.125C67.2965 113.125 67.2965 113.125 67.2965 113.125C67.2965 113.125 67.2965 113.125 67.2965 113.125C67.2965 113.125 67.2965 113.125 67.2965 113.125C67.2965 113.125 67.2965 113.125 67.2965 113.125C67.2965 113.125 67.2965 113.125 67.2965 113.125C67.2965 113.125 67.2965 113.125 67.2965 113.125C67.2965 113.125 67.2965 113.125 67.2965 113.125C67.2965 113.125 67.2965 113.125 67.2965 113.125C67.2965 113.125 67.2965 113.125 67.2965 113.125C67.2965 113.125 67.2965 113.125 67.2965 113.125C67.2965 113.125 67.2965 113.125 67.2965 113.125C67.2965 113.125 67.2965 113.125 67.2965 113.125C67.2965 113.125 67.2965 113.125 67.2965 113.125C67.2965 113.125 67.2965 113.125 67.2965 113.125C67.2965 113.125 67.2965 113.125 67.2965 113.125C67.2965 113.125 67.2965 113.125 67.2965 113.125C67.2965 113.125 67.2965 113.125 67.2965 113.125C67.2965 113.125 67.2965 113.125 67.2965 113.125C67.2965 113.125 67.2965 113.125 67.2965 113.125C67.2965 113.125 67.2965 113.125 67.2965 113.125C67.2965 113.125 67.2965 113.125 67.2965 113.125C67.2965 113.125 67.2965 113.125 67.2965 113.125C67.2965 113.125 67.2965 113.125 67.2965 113.125C67.2965 113.125 67.2965 113.125 67.2965 113.125C67.2965 113.125 67.2965 113.125 67.2965 113.125C67.2965 113.125 67.2965 113.125 67.2965 113.125C67.2965 113.125 67.2965 113.125 67.2965 113.125C67.2965 113.125 67.2965 113.125 67.2965 113.125C67.2965 113.125 67.2965 113.125 67.2965 113.125C67.2965 113.125 67.2965 113.125 67.2965 113.125C67.2965 113.125 67.2965 113.125 67.2965 113.125C67.2965 113.125 67.2965 113.125 67.2965 113.125C67.2965 113.125 67.2965 113.125 67.2965 113.125C67.2965 113.125 67.2965 113.125 67.2965 113.125C67.2965 113.125 67.2965 113.125 67.2965 113.125C67.2965 113.125 67.2965 113.125 67.2965 113.125C67.2965 113.125 67.2965 113.125 67.2965 113.125C67.2965 113.125 67.2965 113.125 67.2965 113.125C67.2965 113.125 67.2965 113.125 67.2965 113.125C67.2965 113.125 67.2965 113.125 67.2965 113.125C67.2965 113.125 67.2965 113.125 67.2965 113.125C67.2965 113.125 67.2965 113.125 67.2965 113.125C67.2965 113.125 67.2965 113.125 67.2965 113.125C67.2965 113.125 67.2965 113.125 67.2965 113.125C67.2965 113.125 67.2965 113.125 67.2965 113.125C67.2965 113.125 67.2965 113.125 67.2965 113.125C67.2965 113.125 67.2965 113.125 67.2965 113.125C67.2965 113.125 67.2965 113.125 67.2965 113.125C67.2965 113.125 67.2965 113.125 67.2965 113.125C67.2965 113.125 67.2965 113.125 67.2965 113.125C67.2965 113.125 67.2965 113.125 67.2965 113.125C67.2965 113.125 67.2965 113.125 67.2965 113.125C67.2965 113.125 67.2965 113.125 67.2965 113.125C67.2965 113.125 67.2965 113.125 67.2965 113.125C67.2965 113.125 67.2965 113.125 67.2965 113.125C67.2965 113.125 67.2965 113.125 67.2965 113.125C67.2965 113.125 67.2965 113.125 67.2965 113.125C67.2965 113.125 67.2965 113.125 67.2965 113.125C67.2965 113.125 67.2965 113.125 67.2965 113.125C67.2965 113.125 67.2965 113.125 67.2965 113.125C67.2965 113.125 67.2965 113.125 67.2965 113.125C67.2965 113.125 67.2965 113.125 67.2965 113.125C67.2965 113.125 67.2965 113.125 67.2965 113.125C67.2965 113.125 67.2965 113.125 67.2965 113.125C67.2965 113.125 67.2965 113.125 67.2965 113.125C67.2965 113.125 67.2965 113.125 67.2965 113.125C67.2965 113.125 67.2965 113.125 67.2965 113.125C67.2965 113.125 67.2965 113.125 67.2965 113.125C67.2965 113.125 67.2965 113.125 67.2965 113.125C67.2965 113.125 67.2965 113.125 67.2965 113.125C67.2965 113.125 67.2965 113.125 67.2965 113.125C67.2965 113.125 67.2965 113.125 67.2965 113.125C67.2965 113.125 67.2965 113.125 67.2965 113.125C67.2965 113.125 67.2965 113.125 67.2965 113.125C67.2965 113.125 67.2965 113.125 67.2965 113.125C67.2965 113.125 67.2965 113.125 67.2965 113.125C67.2965 113.125 67.2965 113.125 67.2965 113.125C67.2965 113.125 67.2965 113.125 67.2965 113.125C67.2965 113.125 67.2965 113.125 67.2965 113.125C67.2965 113.125 67.2965 113.125 67.2965 113.125C67.2965 113.125 67.2965 113.125 67.2965 113.125C67.2965 113.125 67.2965 113.125 67.2965 113.125C67.2965 113.125 67.2965 113.125 67.2965 113.125C67.2965 113.125 67.2965 113.125 67.2965 113.125C67.2965 113.125 67.2965 113.125 67.2965 113.125C67.2965 113.125 67.2965 113.125 67.2965 113.125C67.2965 113.125 67.2965 113.125 67.2965 113.125C67.2965 113.125 67.2965 113.125 67.2965 113.125C67.2965 113.125 67.2965 113.125 67.2965 113.125C67.2965 113.125 67.2965 113.125 67.2965 113.125C67.2965 113.125 67.2965 113.125 67.2965 113.125C67.2965 113.125 67.2965 113.125 67.2965 113.125C67.2965 113.125 67.2965 113.125 67.2965 113.125C67.2965 113.125 67.2965 113.125 67.2965 113.125C67.2965 113.125 67.2965 113.125 67.2965 113.125C67.2965 113.125 67.2965 113.125 67.2965 113.125C67.2965 113.125 67.2965 113.125 67.2965 113.125C67.2965 113.125 67.2965 113.125 67.2965 113.125C67.2965 113.125 67.2965 113.125 67.2965 113.125C67.2965 113.125 67.2965 113.125 67.2965 113.125C67.2965 113.125 67.2965 113.125 67.2965 113.125C67.2965 113.125 67.2965 113.125 67.2965 113.125C67.2965 113.125 67.2965 113.125 67.2965 113.125C67.2965 113.125 67.2965 113.125 67.2965 113.125C67.2965 113.125 67.2965 113.125 67.2965 113.125C67.2965 113.125 67.2965 113.125 67.2965 113.125C67.2965 113.125 67.2965 113.125 67.2965 113.125C67.2965 113.125 67.2965 113.125 67.2965 113.125C67.2965 113.125 67.2965 113.125 67.2965 113.125C67.2965 113.125 67.2965 113.125 67.2965 113.125C67.2965 113.125 67.2965 113.125 67.2965 113.125C67.2965 113.125 67.2965 113.125 67.2965 113.125C67.2965 113.125 67.2965 113.125 67.2965 113.125C67.2965 113.125 67.2965 113.125 67.2965 113.125C67.2965 113.125 67.2965 113.125 67.2965 113.125C67.2965 113.125 67.2965 113.125 67.2965 113.125C67.2965 113.125 67.2965 113.125 67.2965 113.125C67.2965 113.125 67.2965 113.125 67.2965 113.125C67.2965 113.125 67.2965 113.125 67.2965 113.125C67.2965 113.125 67.2965 113.125 67.2965 113.125C67.2965 113.125 67.2965 113.125 67.2965 113.125C67.2965 113.125 67.2965 113.125 67.2965 113.125C67.2965 113.125 67.2965 113.125 67.2965 113.125C67.2965 113.125 67.2965 113.125 67.2965 113.125C67.2965 113.125 67.2965 113.125 67.2965 113.125V109.125C67.2965 109.125 67.2965 109.125 67.2965 109.125C67.2965 109.125 67.2965 109.125 67.2965 109.125C67.2965 109.125 67.2965 109.125 67.2965 109.125C67.2965 109.125 67.2965 109.125 67.2965 109.125C67.2965 109.125 67.2965 109.125 67.2965 109.125C67.2965 109.125 67.2965 109.125 67.2965 109.125C67.2965 109.125 67.2965 109.125 67.2965 109.125C67.2965 109.125 67.2965 109.125 67.2965 109.125C67.2965 109.125 67.2965 109.125 67.2965 109.125C67.2965 109.125 67.2965 109.125 67.2965 109.125C67.2965 109.125 67.2965 109.125 67.2965 109.125C67.2965 109.125 67.2965 109.125 67.2965 109.125C67.2965 109.125 67.2965 109.125 67.2965 109.125C67.2965 109.125 67.2965 109.125 67.2965 109.125C67.2965 109.125 67.2965 109.125 67.2965 109.125C67.2965 109.125 67.2965 109.125 67.2965 109.125C67.2965 109.125 67.2965 109.125 67.2965 109.125C67.2965 109.125 67.2965 109.125 67.2965 109.125C67.2965 109.125 67.2965 109.125 67.2965 109.125C67.2965 109.125 67.2965 109.125 67.2965 109.125C67.2965 109.125 67.2965 109.125 67.2965 109.125C67.2965 109.125 67.2965 109.125 67.2965 109.125C67.2965 109.125 67.2965 109.125 67.2965 109.125C67.2965 109.125 67.2965 109.125 67.2965 109.125C67.2965 109.125 67.2965 109.125 67.2965 109.125C67.2965 109.125 67.2965 109.125 67.2965 109.125C67.2965 109.125 67.2965 109.125 67.2965 109.125C67.2965 109.125 67.2965 109.125 67.2965 109.125C67.2965 109.125 67.2965 109.125 67.2965 109.125C67.2965 109.125 67.2965 109.125 67.2965 109.125C67.2965 109.125 67.2965 109.125 67.2965 109.125C67.2965 109.125 67.2965 109.125 67.2965 109.125C67.2965 109.125 67.2965 109.125 67.2965 109.125C67.2965 109.125 67.2965 109.125 67.2965 109.125C67.2965 109.125 67.2965 109.125 67.2965 109.125C67.2965 109.125 67.2965 109.125 67.2965 109.125C67.2965 109.125 67.2965 109.125 67.2965 109.125C67.2965 109.125 67.2965 109.125 67.2965 109.125C67.2965 109.125 67.2965 109.125 67.2965 109.125C67.2965 109.125 67.2965 109.125 67.2965 109.125C67.2965 109.125 67.2965 109.125 67.2965 109.125C67.2965 109.125 67.2965 109.125 67.2965 109.125C67.2965 109.125 67.2965 109.125 67.2965 109.125C67.2965 109.125 67.2965 109.125 67.2965 109.125C67.2965 109.125 67.2965 109.125 67.2965 109.125C67.2965 109.125 67.2965 109.125 67.2965 109.125C67.2965 109.125 67.2965 109.125 67.2965 109.125C67.2965 109.125 67.2965 109.125 67.2965 109.125C67.2965 109.125 67.2965 109.125 67.2965 109.125C67.2965 109.125 67.2965 109.125 67.2965 109.125C67.2965 109.125 67.2965 109.125 67.2965 109.125C67.2965 109.125 67.2965 109.125 67.2965 109.125C67.2965 109.125 67.2965 109.125 67.2965 109.125C67.2965 109.125 67.2965 109.125 67.2965 109.125C67.2965 109.125 67.2965 109.125 67.2965 109.125C67.2965 109.125 67.2965 109.125 67.2965 109.125C67.2965 109.125 67.2965 109.125 67.2965 109.125C67.2965 109.125 67.2965 109.125 67.2965 109.125C67.2965 109.125 67.2965 109.125 67.2965 109.125C67.2965 109.125 67.2965 109.125 67.2965 109.125C67.2965 109.125 67.2965 109.125 67.2965 109.125C67.2965 109.125 67.2965 109.125 67.2965 109.125C67.2965 109.125 67.2965 109.125 67.2965 109.125C67.2965 109.125 67.2965 109.125 67.2965 109.125C67.2965 109.125 67.2965 109.125 67.2965 109.125C67.2965 109.125 67.2965 109.125 67.2965 109.125C67.2965 109.125 67.2965 109.125 67.2965 109.125C67.2965 109.125 67.2965 109.125 67.2965 109.125C67.2965 109.125 67.2965 109.125 67.2965 109.125C67.2965 109.125 67.2965 109.125 67.2965 109.125C67.2965 109.125 67.2965 109.125 67.2965 109.125C67.2965 109.125 67.2965 109.125 67.2965 109.125C67.2965 109.125 67.2965 109.125 67.2965 109.125C67.2965 109.125 67.2965 109.125 67.2965 109.125C67.2965 109.125 67.2965 109.125 67.2965 109.125C67.2965 109.125 67.2965 109.125 67.2965 109.125C67.2965 109.125 67.2965 109.125 67.2965 109.125C67.2965 109.125 67.2965 109.125 67.2965 109.125C67.2965 109.125 67.2965 109.125 67.2965 109.125C67.2965 109.125 67.2965 109.125 67.2965 109.125C67.2965 109.125 67.2965 109.125 67.2965 109.125C67.2965 109.125 67.2965 109.125 67.2965 109.125C67.2965 109.125 67.2965 109.125 67.2965 109.125C67.2965 109.125 67.2965 109.125 67.2965 109.125C67.2965 109.125 67.2965 109.125 67.2965 109.125C67.2965 109.125 67.2965 109.125 67.2965 109.125C67.2965 109.125 67.2965 109.125 67.2965 109.125C67.2965 109.125 67.2965 109.125 67.2965 109.125C67.2965 109.125 67.2965 109.125 67.2965 109.125C67.2965 109.125 67.2965 109.125 67.2965 109.125C67.2965 109.125 67.2965 109.125 67.2965 109.125C67.2965 109.125 67.2965 109.125 67.2965 109.125C67.2965 109.125 67.2965 109.125 67.2965 109.125C67.2965 109.125 67.2965 109.125 67.2965 109.125C67.2965 109.125 67.2965 109.125 67.2965 109.125C67.2965 109.125 67.2965 109.125 67.2965 109.125C67.2965 109.125 67.2965 109.125 67.2965 109.125C67.2965 109.125 67.2965 109.125 67.2965 109.125C67.2965 109.125 67.2965 109.125 67.2965 109.125C67.2965 109.125 67.2965 109.125 67.2965 109.125C67.2965 109.125 67.2965 109.125 67.2965 109.125C67.2965 109.125 67.2965 109.125 67.2965 109.125C67.2965 109.125 67.2965 109.125 67.2965 109.125C67.2965 109.125 67.2965 109.125 67.2965 109.125C67.2965 109.125 67.2965 109.125 67.2965 109.125C67.2965 109.125 67.2965 109.125 67.2965 109.125C67.2965 109.125 67.2965 109.125 67.2965 109.125C67.2965 109.125 67.2965 109.125 67.2965 109.125C67.2965 109.125 67.2965 109.125 67.2965 109.125C67.2965 109.125 67.2965 109.125 67.2965 109.125C67.2965 109.125 67.2965 109.125 67.2965 109.125C67.2965 109.125 67.2965 109.125 67.2965 109.125C67.2965 109.125 67.2965 109.125 67.2965 109.125C67.2965 109.125 67.2965 109.125 67.2965 109.125C67.2965 109.125 67.2965 109.125 67.2965 109.125C67.2965 109.125 67.2965 109.125 67.2965 109.125C67.2965 109.125 67.2965 109.125 67.2965 109.125C67.2965 109.125 67.2965 109.125 67.2965 109.125C67.2965 109.125 67.2965 109.125 67.2965 109.125C67.2965 109.125 67.2965 109.125 67.2965 109.125C67.2965 109.125 67.2965 109.125 67.2965 109.125C67.2965 109.125 67.2965 109.125 67.2965 109.125C67.2965 109.125 67.2965 109.125 67.2965 109.125C67.2965 109.125 67.2965 109.125 67.2965 109.125C67.2965 109.125 67.2965 109.125 67.2965 109.125C67.2965 109.125 67.2965 109.125 67.2965 109.125C67.2965 109.125 67.2965 109.125 67.2965 109.125C67.2965 109.125 67.2965 109.125 67.2965 109.125C67.2965 109.125 67.2965 109.125 67.2965 109.125C67.2965 109.125 67.2965 109.125 67.2965 109.125C67.2965 109.125 67.2965 109.125 67.2965 109.125C67.2965 109.125 67.2965 109.125 67.2965 109.125C67.2965 109.125 67.2965 109.125 67.2965 109.125C67.2965 109.125 67.2965 109.125 67.2965 109.125C67.2965 109.125 67.2965 109.125 67.2965 109.125C67.2965 109.125 67.2965 109.125 67.2965 109.125C67.2965 109.125 67.2965 109.125 67.2965 109.125C67.2965 109.125 67.2965 109.125 67.2965 109.125C67.2965 109.125 67.2965 109.125 67.2965 109.125C67.2965 109.125 67.2965 109.125 67.2965 109.125C67.2965 109.125 67.2965 109.125 67.2965 109.125C67.2965 109.125 67.2965 109.125 67.2965 109.125C67.2965 109.125 67.2965 109.125 67.2965 109.125C67.2965 109.125 67.2965 109.125 67.2965 109.125C67.2965 109.125 67.2965 109.125 67.2965 109.125C67.2965 109.125 67.2965 109.125 67.2965 109.125C67.2965 109.125 67.2965 109.125 67.2965 109.125C67.2965 109.125 67.2965 109.125 67.2965 109.125C67.2965 109.125 67.2965 109.125 67.2965 109.125C67.2965 109.125 67.2965 109.125 67.2965 109.125C67.2965 109.125 67.2965 109.125 67.2965 109.125C67.2965 109.125 67.2965 109.125 67.2965 109.125C67.2965 109.125 67.2965 109.125 67.2965 109.125C67.2965 109.125 67.2965 109.125 67.2965 109.125C67.2965 109.125 67.2965 109.125 67.2965 109.125C67.2965 109.125 67.2965 109.125 67.2965 109.125C67.2965 109.125 67.2965 109.125 67.2965 109.125C67.2965 109.125 67.2965 109.125 67.2965 109.125C67.2965 109.125 67.2965 109.125 67.2965 109.125C67.2965 109.125 67.2965 109.125 67.2965 109.125C67.2965 109.125 67.2965 109.125 67.2965 109.125C67.2965 109.125 67.2965 109.125 67.2965 109.125C67.2965 109.125 67.2965 109.125 67.2965 109.125C67.2965 109.125 67.2965 109.125 67.2965 109.125C67.2965 109.125 67.2965 109.125 67.2965 109.125C67.2965 109.125 67.2965 109.125 67.2965 109.125C67.2965 109.125 67.2965 109.125 67.2965 109.125C67.2965 109.125 67.2965 109.125 67.2965 109.125C67.2965 109.125 67.2965 109.125 67.2965 109.125C67.2965 109.125 67.2965 109.125 67.2965 109.125C67.2965 109.125 67.2965 111.125 67.2965 113.125C67.2965 113.125 67.2965 113.125 67.2965 113.125C67.2965 113.125 67.2965 113.125 67.2965 113.125C67.2965 113.125 67.2965 113.125 67.2965 113.125C67.2965 113.125 67.2965 113.125 67.2965 113.125C67.2965 113.125 67.2965 113.125 67.2965 113.125C67.2965 113.125 67.2965 113.125 67.2965 113.125C67.2965 113.125 67.2965 113.125 67.2965 113.125C67.2965 113.125 67.2965 113.125 67.2965 113.125C67.2965 113.125 67.2965 113.125 67.2965 113.125C67.2965 113.125 67.2965 113.125 67.2965 113.125C67.2965 113.125 67.2965 113.125 67.2965 113.125C67.2965 113.125 67.2965 113.125 67.2965 113.125C67.2965 113.125 67.2965 113.125 67.2965 113.125C67.2965 113.125 67.2965 113.125 67.2965 113.125C67.2965 113.125 67.2965 113.125 67.2965 113.125C67.2965 113.125 67.2965 113.125 67.2965 113.125C67.2965 113.125 67.2965 113.125 67.2965 113.125C67.2965 113.125 67.2965 113.125 67.2965 113.125C67.2965 113.125 67.2965 113.125 67.2965 113.125C67.2965 113.125 67.2965 113.125 67.2965 113.125C67.2965 113.125 67.2965 113.125 67.2965 113.125C67.2965 113.125 67.2965 113.125 67.2965 113.125C67.2965 113.125 67.2965 113.125 67.2965 113.125C67.2965 113.125 67.2965 113.125 67.2965 113.125C67.2965 113.125 67.2965 113.125 67.2965 113.125C67.2965 113.125 67.2965 113.125 67.2965 113.125C67.2965 113.125 67.2965 113.125 67.2965 113.125C67.2965 113.125 67.2965 113.125 67.2965 113.125C67.2965 113.125 67.2965 113.125 67.2965 113.125C67.2965 113.125 67.2965 113.125 67.2965 113.125C67.2965 113.125 67.2965 113.125 67.2965 113.125C67.2965 113.125 67.2965 113.125 67.2965 113.125C67.2965 113.125 67.2965 113.125 67.2965 113.125C67.2965 113.125 67.2965 113.125 67.2965 113.125C67.2965 113.125 67.2965 113.125 67.2965 113.125C67.2965 113.125 67.2965 113.125 67.2965 113.125C67.2965 113.125 67.2965 113.125 67.2965 113.125C67.2965 113.125 67.2965 113.125 67.2965 113.125C67.2965 113.125 67.2965 113.125 67.2965 113.125C67.2965 113.125 67.2965 113.125 67.2965 113.125C67.2965 113.125 67.2965 113.125 67.2965 113.125C67.2965 113.125 67.2965 113.125 67.2965 113.125C67.2965 113.125 67.2965 113.125 67.2965 113.125C67.2965 113.125 67.2965 113.125 67.2965 113.125C67.2965 113.125 67.2965 113.125 67.2965 113.125C67.2965 113.125 67.2965 113.125 67.2965 113.125C67.2965 113.125 67.2965 113.125 67.2965 113.125C67.2965 113.125 67.2965 113.125 67.2965 113.125C67.2965 113.125 67.2965 113.125 67.2965 113.125C67.2965 113.125 67.2965 113.125 67.2965 113.125C67.2965 113.125 67.2965 113.125 67.2965 113.125C67.2965 113.125 67.2965 113.125 67.2965 113.125C67.2965 113.125 67.2965 113.125 67.2965 113.125C67.2965 113.125 67.2965 113.125 67.2965 113.125C67.2965 113.125 67.2965 113.125 67.2965 113.125C67.2965 113.125 67.2965 113.125 67.2965 113.125C67.2965 113.125 67.2965 113.125 67.2965 113.125C67.2965 113.125 67.2965 113.125 67.2965 113.125C67.2965 113.125 67.2965 113.125 67.2965 113.125C67.2965 113.125 67.2965 113.125 67.2965 113.125C67.2965 113.125 67.2965 113.125 67.2965 113.125C67.2965 113.125 67.2965 113.125 67.2965 113.125C67.2965 113.125 67.2965 113.125 67.2965 113.125C67.2965 113.125 67.2965 113.125 67.2965 113.125C67.2965 113.125 67.2965 113.125 67.2965 113.125C67.2965 113.125 67.2965 113.125 67.2965 113.125C67.2965 113.125 67.2965 113.125 67.2965 113.125C67.2965 113.125 67.2965 113.125 67.2965 113.125C67.2965 113.125 67.2965 113.125 67.2965 113.125C67.2965 113.125 67.2965 113.125 67.2965 113.125C67.2965 113.125 67.2965 113.125 67.2965 113.125C67.2965 113.125 67.2965 113.125 67.2965 113.125C67.2965 113.125 67.2965 113.125 67.2965 113.125C67.2965 113.125 67.2965 113.125 67.2965 113.125C67.2965 113.125 67.2965 113.125 67.2965 113.125C67.2965 113.125 67.2965 113.125 67.2965 113.125C67.2965 113.125 67.2965 113.125 67.2965 113.125C67.2965 113.125 67.2965 113.125 67.2965 113.125C67.2965 113.125 67.2965 113.125 67.2965 113.125C67.2965 113.125 67.2965 113.125 67.2965 113.125C67.2965 113.125 67.2965 113.125 67.2965 113.125C67.2965 113.125 67.2965 113.125 67.2965 113.125C67.2965 113.125 67.2965 113.125 67.2965 113.125C67.2965 113.125 67.2965 113.125 67.2965 113.125C67.2965 113.125 67.2965 113.125 67.2965 113.125C67.2965 113.125 67.2965 113.125 67.2965 113.125C67.2965 113.125 67.2965 113.125 67.2965 113.125C67.2965 113.125 67.2965 113.125 67.2965 113.125C67.2965 113.125 67.2965 113.125 67.2965 113.125C67.2965 113.125 67.2965 113.125 67.2965 113.125C67.2965 113.125 67.2965 113.125 67.2965 113.125C67.2965 113.125 67.2965 113.125 67.2965 113.125C67.2965 113.125 67.2965 113.125 67.2965 113.125C67.2965 113.125 67.2965 113.125 67.2965 113.125C67.2965 113.125 67.2965 113.125 67.2965 113.125C67.2965 113.125 67.2965 113.125 67.2965 113.125C67.2965 113.125 67.2965 113.125 67.2965 113.125C67.2965 113.125 67.2965 113.125 67.2965 113.125C67.2965 113.125 67.2965 113.125 67.2965 113.125C67.2965 113.125 67.2965 113.125 67.2965 113.125C67.2965 113.125 67.2965 113.125 67.2965 113.125C67.2965 113.125 67.2965 113.125 67.2965 113.125C67.2965 113.125 67.2965 113.125 67.2965 113.125C67.2965 113.125 67.2965 113.125 67.2965 113.125C67.2965 113.125 67.2965 113.125 67.2965 113.125C67.2965 113.125 67.2965 113.125 67.2965 113.125C67.2965 113.125 67.2965 113.125 67.2965 113.125C67.2965 113.125 67.2965 113.125 67.2965 113.125C67.2965 113.125 67.2965 113.125 67.2965 113.125C67.2965 113.125 67.2965 113.125 67.2965 113.125C67.2965 113.125 67.2965 113.125 67.2965 113.125C67.2965 113.125 67.2965 113.125 67.2965 113.125C67.2965 113.125 67.2965 113.125 67.2965 113.125C67.2965 113.125 67.2965 113.125 67.2965 113.125C67.2965 113.125 67.2965 113.125 67.2965 113.125C67.2965 113.125 67.2965 113.125 67.2965 113.125C67.2965 113.125 67.2965 113.125 67.2965 113.125C67.2965 113.125 67.2965 113.125 67.2965 113.125C67.2965 113.125 67.2965 113.125 67.2965 113.125C67.2965 113.125 67.2965 113.125 67.2965 113.125C67.2965 113.125 67.2965 113.125 67.2965 113.125C67.2965 113.125 67.2965 113.125 67.2965 113.125C67.2965 113.125 67.2965 113.125 67.2965 113.125C67.2965 113.125 67.2965 113.125 67.2965 113.125C67.2965 113.125 67.2965 113.125 67.2965 113.125C67.2965 113.125 67.2965 113.125 67.2965 113.125C67.2965 113.125 67.2965 113.125 67.2965 113.125C67.2965 113.125 67.2965 113.125 67.2965 113.125C67.2965 113.125 67.2965 113.125 67.2965 113.125C67.2965 113.125 67.2965 113.125 67.2965 113.125C67.2965 113.125 67.2965 113.125 67.2965 113.125C67.2965 113.125 67.2965 113.125 67.2965 113.125C67.2965 113.125 67.2965 113.125 67.2965 113.125C67.2965 113.125 67.2965 113.125 67.2965 113.125C67.2965 113.125 67.2965 113.125 67.2965 113.125C67.2965 113.125 67.2965 113.125 67.2965 113.125C67.2965 113.125 67.2965 113.125 67.2965 113.125C67.2965 113.125 67.2965 113.125 67.2965 113.125C67.2965 113.125 67.2965 113.125 67.2965 113.125C67.2965 113.125 67.2965 113.125 67.2965 113.125C67.2965 113.125 67.2965 113.125 67.2965 113.125C67.2965 113.125 67.2965 113.125 67.2965 113.125C67.2965 113.125 67.2965 113.125 67.2965 113.125C67.2965 113.125 67.2965 113.125 67.2965 113.125C67.2965 113.125 67.2965 113.125 67.2965 113.125C67.2965 113.125 67.2965 113.125 67.2965 113.125C67.2965 113.125 67.2965 113.125 67.2965 113.125C67.2965 113.125 67.2965 113.125 67.2965 113.125C67.2965 113.125 67.2965 113.125 67.2965 113.125C67.2965 113.125 67.2965 113.125 67.2965 113.125C67.2965 113.125 67.2965 113.125 67.2965 113.125C67.2965 113.125 67.2965 113.125 67.2965 113.125C67.2965 113.125 67.2965 113.125 67.2965 113.125C67.2965 113.125 67.2965 113.125 67.2965 113.125C67.2965 113.125 67.2965 113.125 67.2965 113.125C67.2965 113.125 67.2965 113.125 67.2965 113.125C67.2965 113.125 67.2965 113.125 67.2965 113.125C67.2965 113.125 67.2965 113.125 67.2965 113.125C67.2965 113.125 67.2965 113.125 67.2965 113.125C67.2965 113.125 67.2965 113.125 67.2965 113.125C67.2965 113.125 67.2965 113.125 67.2965 113.125C67.2965 113.125 67.2965 113.125 67.2965 113.125C67.2965 113.125 67.2965 113.125 67.2965 113.125C67.2965 113.125 67.2965 113.125 67.2965 113.125C67.2965 113.125 67.2965 113.125 67.2965 113.125C67.2965 113.125 67.2965 113.125 67.2965 113.125C67.2965 113.125 67.2965 113.125 67.2965 113.125C67.2965 113.125 67.2965 113.125 67.2965 113.125C67.2965 113.125 67.2965 113.125 67.2965 113.125C67.2965 113.125 67.2965 113.125 67.2965 113.125C67.2965 113.125 67.2965 113.125 67.2965 113.125C67.2965 113.125 67.2965 113.125 67.2965 113.125C67.2965 113.125 67.2965 113.125 67.2965 113.125C67.2965 113.125 67.2965 113.125 67.2965 113.125C67.2965 113.125 67.2965 113.125 67.2965 113.125C67.2965 113.125 67.2965 113.125 67.2965 113.125C67.2965 113.125 67.2965 113.125 67.2965 113.125C67.2965 113.125 67.2965 113.125 67.2965 113.125C67.2965 113.125 67.2965 113.125 67.2965 113.125C67.2965 113.125 67.2965 113.125 67.2965 113.125C67.2965 113.125 67.2965 113.125 67.2965 113.125C67.2965 113.125 67.2965 113.125 67.2965 113.125C67.2965 113.125 67.2965 113.125 67.2965 113.125C67.2965 113.125 67.2965 113.125 67.2965 113.125C67.2965 113.125 67.2965 113.125 67.2965 113.125C67.2965 113.125 67.2965 113.125 67.2965 113.125C67.2965 113.125 67.2965 113.125 67.2965 113.125C67.2965 113.125 67.2965 113.125 67.2965 113.125C67.2965 113.125 67.2965 113.125 67.2965 113.125C67.2965 113.125 67.2965 113.125 67.2965 113.125C67.2965 113.125 67.2965 113.125 67.2965 113.125C67.2965 113.125 67.2965 113.125 67.2965 113.125C67.2965 113.125 67.2965 113.125 67.2965 113.125C67.2965 113.125 67.2965 113.125 67.2965 113.125C67.2965 113.125 67.2965 113.125 67.2965 113.125C67.2965 113.125 67.2965 113.125 67.2965 113.125C67.2965 113.125 67.2965 113.125 67.2965 113.125C67.2965 113.125 67.2965 113.125 67.2965 113.125C67.2965 113.125 67.2965 113.125 67.2965 113.125C67.2965 113.125 67.2965 113.125 67.2965 113.125C67.2965 113.125 67.2965 113.125 67.2965 113.125C67.2965 113.125 67.2965 113.125 67.2965 113.125C67.2965 113.125 67.2965 113.125 67.2965 113.125C67.2965 113.125 67.2965 113.125 67.2965 113.125C67.2965 113.125 67.2965 113.125 67.2965 113.125C67.2965 113.125 67.2965 113.125 67.2965 113.125C67.2965 113.125 67.2965 113.125 67.2965 113.125C67.2965 113.125 67.2965 113.125 67.2965 113.125C67.2965 113.125 67.2965 113.125 67.2965 113.125C67.2965 113.125 67.2965 113.125 67.2965 113.125C67.2965 113.125 67.2965 113.125 67.2965 113.125C67.2965 113.125 67.2965 113.125 67.2965 113.125C67.2965 113.125 67.2965 113.125 67.2965 113.125C67.2965 113.125 67.2965 113.125 67.2965 113.125C67.2965 113.125 67.2965 113.125 67.2965 113.125C67.2965 113.125 67.2965 113.125 67.2965 113.125C67.2965 113.125 67.2965 113.125 67.2965 113.125C67.2965 113.125 67.2965 113.125 67.2965 113.125C67.2965 113.125 67.2965 113.125 67.2965 113.125C67.2965 113.125 67.2965 113.125 67.2965 113.125C67.2965 113.125 67.2965 113.125 67.2965 113.125C67.2965 113.125 67.2965 113.125 67.2965 113.125C67.2965 113.125 67.2965 113.125 67.2965 113.125C67.2965 113.125 67.2965 113.125 67.2965 113.125C67.2965 113.125 67.2965 113.125 67.2965 113.125C67.2965 113.125 67.2965 113.125 67.2965 113.125C67.2965 113.125 67.2965 113.125 67.2965 113.125C67.2965 113.125 67.2965 113.125 67.2965 113.125C67.2965 113.125 67.2965 113.125 67.2965 113.125C67.2965 113.125 67.2965 113.125 67.2965 113.125C67.2965 113.125 67.2965 113.125 67.2965 113.125C67.2965 113.125 67.2965 113.125 67.2965 113.125C67.2965 113.125 67.2965 113.125 67.2965 113.125C67.2965 113.125 67.2965 113.125 67.2965 113.125C67.2965 113.125 67.2965 113.125 67.2965 113.125C67.2965 113.125 67.2965 113.125 67.2965 113.125C67.2965 113.125 67.2965 113.125 67.2965 113.125C67.2965 113.125 67.2965 113.125 67.2965 113.125C67.2965 113.125 67.2965 113.125 67.2965 113.125C67.2965 113.125 67.2965 113.125 67.2965 113.125C67.2965 113.125 67.2965 113.125 67.2965 113.125C67.2965 113.125 67.2965 113.125 67.2965 113.125C67.2965 113.125 67.2965 113.125 67.2965 113.125C67.2965 113.125 67.2965 113.125 67.2965 113.125C67.2965 113.125 67.2965 113.125 67.2965 113.125C67.2965 113.125 67.2965 113.125 67.2965 113.125C67.2965 113.125 67.2965 113.125 67.2965 113.125C67.2965 113.125 67.2965 113.125 67.2965 113.125C67.2965 113.125 67.2965 113.125 67.2965 113.125C67.2965 113.125 67.2965 113.125 67.2965 113.125C67.2965 113.125 67.2965 113.125 67.2965 113.125C67.2965 113.125 67.2965 113.125 67.2965 113.125C67.2965 113.125 67.2965 113.125 67.2965 113.125C67.2965 113.125 67.2965 113.125 67.2965 113.125C67.2965 113.125 67.2965 113.125 67.2965 113.125C67.2965 113.125 67.2965 113.125 67.2965 113.125C67.2965 113.125 67.2965 113.125 67.2965 113.125C67.2965 113.125 67.2965 113.125 67.2965 113.125C67.2965 113.125 67.2965 113.125 67.2965 113.125C67.2965 113.125 67.2965 113.125 67.2965 113.125C67.2965 113.125 67.2965 113.125 67.2965 113.125C67.2965 113.125 67.2965 113.125 67.2965 113.125C67.2965 113.125 67.2965 113.125 67.2965 113.125C67.2965 113.125 67.2965 113.125 67.2965 113.125C67.2965 113.125 67.2965 113.125 67.2965 113.125C67.2965 113.125 67.2965 113.125 67.2965 113.125C67.2965 113.125 67.2965 113.125 67.2965 113.125C67.2965 113.125 67.2965 113.125 67.2965 113.125C67.2965 113.125 67.2965 113.125 67.2965 113.125C67.2965 113.125 67.2965 113.125 67.2965 113.125C67.2965 113.125 67.2965 113.125 67.2965 113.125C67.2965 113.125 67.2965 113.125 67.2965 113.125C67.2965 113.125 67.2965 113.125 67.2965 113.125C67.2965 113.125 67.2965 113.125 67.2965 113.125C67.2965 113.125 67.2965 113.125 67.2965 113.125C67.2965 113.125 67.2965 113.125 67.2965 113.125C67.2965 113.125 67.2965 113.125 67.2965 113.125C67.2965 113.125 67.2965 113.125 67.2965 113.125C67.2965 113.125 67.2965 113.125 67.2965 113.125C67.2965 113.125 67.2965 113.125 67.2965 113.125C67.2965 113.125 67.2965 113.125 67.2965 113.125C67.2965 113.125 67.2965 113.125 67.2965 113.125C67.2965 113.125 67.2965 113.125 67.2965 113.125C67.2965 113.125 67.2965 113.125 67.2965 113.125C67.2965 113.125 67.2965 113.125 67.2965 113.125C67.2965 113.125 67.2965 113.125 67.2965 113.125C67.2965 113.125 67.2965 113.125 67.2965 113.125C67.2965 113.125 67.2965 113.125 67.2965 113.125C67.2965 113.125 67.2965 113.125 67.2965 113.125C67.2965 113.125 67.2965 113.125 67.2965 113.125C67.2965 113.125 67.2965 113.125 67.2965 113.125C67.2965 113.125 67.2965 113.125 67.2965 113.125C67.2965 113.125 67.2965 113.125 67.2965 113.125C67.2965 113.125 67.2965 113.125 67.2965 113.125C67.2965 113.125 67.2965 113.125 67.2965 113.125C67.2965 113.125 67.2965 113.125 67.2965 113.125C67.2965 113.125 67.2965 113.125 67.2965 113.125C67.2965 113.125 67.2965 113.125 67.2965 113.125C67.2965 113.125 67.2965 113.125 67.2965 113.125C67.2965 113.125 67.2965 113.125 67.2965 113.125C67.2965 113.125 67.2965 113.125 67.2965 113.125C67.2965 113.125 67.2965 113.125 67.2965 113.125C67.2965 113.125 67.2965 113.125 67.2965 113.125C67.2965 113.125 67.2965 113.125 67.2965 113.125C67.2965 113.125 67.2965 113.125 67.2965 113.125C67.2965 113.125 67.2965 113.125 67.2965 113.125C67.2965 113.125 67.2965 113.125 67.2965 113.125C67.2965 113.125 67.2965 113.125 67.2965 113.125C67.2965 113.125 67.2965 113.125 67.2965 113.125C67.2965 113.125 67.2965 113.125 67.2965 113.125C67.2965 113.125 67.2965 113.125 67.2965 113.125C67.2965 113.125 67.2965 113.125 67.2965 113.125C67.2965 113.125 67.2965 113.125 67.2965 113.125C67.2965 113.125 67.2965 113.125 67.2965 113.125C67.2965 113.125 67.2965 113.125 67.2965 113.125C67.2965 113.125 67.2965 113.125 67.2965 113.125C67.2965 113.125 67.2965 113.125 67.2965 113.125C67.2965 113.125 67.2965 113.125 67.2965 113.125C67.2965 113.125 67.2965 113.125 67.2965 113.125C67.2965 113.125 67.2965 113.125 67.2965 113.125C67.2965 113.125 67.2965 113.125 67.2965 113.125C67.2965 113.125 67.2965 113.125 67.2965 113.125C67.2965 113.125 67.2965 113.125 67.2965 113.125C67.2965 113.125 67.2965 113.125 67.2965 113.125C67.2965 113.125 67.2965 113.125 67.2965 113.125C67.2965 113.125 67.2965 113.125 67.2965 113.125C67.2965 113.125 67.2965 113.125 67.2965 113.125C67.2965 113.125 67.2965 113.125 67.2965 113.125C67.2965 113.125 67.2965 113.125 67.2965 113.125C67.2965 113.125 67.2965 113.125 67.2965 113.125C67.2965 113.125 67.2965 113.125 67.2965 113.125C67.2965 113.125 67.2965 113.125 67.2965 113.125C67.2965 113.125 67.2965 113.125 67.2965 113.125C67.2965 113.125 67.2965 113.125 67.2965 113.125C67.2965 113.125 67.2965 113.125 67.2965 113.125C67.2965 113.125 67.2965 113.125 67.2965 113.125C67.2965 113.125 67.2965 113.125 67.2965 113.125C67.2965 113.125 67.2965 113.125 67.2965 113.125C67.2965 113.125 67.2965 113.125 67.2965 113.125C67.2965 113.125 67.2965 113.125 67.2965 113.125C67.2965 113.125 67.2965 113.125 67.2965 111.125Z" fill="#8668FC"/>
<path d="M11.0918 32.1006L17.0928 35.5652" stroke="#FF96C6" stroke-width="4" stroke-linecap="round"/>
<path d="M12.3594 36.8335L15.824 30.8325" stroke="#FF96C6" stroke-width="4" stroke-linecap="round"/>
<path d="M91.8047 114.111H97.8047" stroke="#E1458D" stroke-width="4" stroke-linecap="round"/>
<path d="M94.8047 117.111V111.111" stroke="#E1458D" stroke-width="4" stroke-linecap="round"/>
<path d="M104.45 12.3201L105.399 12.5219C106.455 12.7464 106.455 14.2536 105.399 14.4781L104.45 14.6799C104.064 14.762 103.762 15.0638 103.68 15.4501L103.478 16.3991C103.254 17.4552 101.746 17.4552 101.522 16.3991L101.32 15.4501C101.238 15.0638 100.936 14.762 100.55 14.6799L99.6009 14.4781C98.5448 14.2536 98.5448 12.7464 99.6009 12.5219L100.55 12.3201C100.936 12.238 101.238 11.9362 101.32 11.5499L101.522 10.6009C101.746 9.54481 103.254 9.54481 103.478 10.6009L103.68 11.5499C103.762 11.9362 104.064 12.238 104.45 12.3201Z" stroke="#FED670" stroke-width="3" stroke-linecap="round"/>
<path d="M113.177 47.5363L114.239 47.1501C115.037 46.8599 115.811 47.6336 115.521 48.4316L115.135 49.4937C115.054 49.7145 115.054 49.9564 115.135 50.1772L115.521 51.2393C115.811 52.0373 115.037 52.811 114.239 52.5208L113.177 52.1346C112.956 52.0543 112.714 52.0543 112.494 52.1346L111.432 52.5208C110.633 52.811 109.86 52.0373 110.15 51.2393L110.536 50.1772C110.616 49.9564 110.616 49.7145 110.536 49.4937L110.15 48.4316C109.86 47.6336 110.633 46.8599 111.432 47.1501L112.494 47.5363C112.714 47.6166 112.956 47.6166 113.177 47.5363Z" stroke="#5326EC" stroke-width="3" stroke-linecap="round"/>
<path d="M60.1196 23.7994C59.9399 24.6081 60.4498 25.4094 61.2585 25.5891C62.0672 25.7688 62.8684 25.2589 63.0482 24.4502L60.1196 23.7994ZM54.5328 19.6943L53.7006 18.4463L54.5328 19.6943ZM54.0543 27.1572L55.4756 27.6369L56.4349 24.7944L55.0137 24.3147L54.0543 27.1572ZM63.0482 24.4502C63.6206 21.8744 62.2277 19.6504 60.3703 18.4765C58.5096 17.3005 55.8967 16.9819 53.7006 18.4463L55.365 20.9423C56.3915 20.2578 57.707 20.3421 58.7675 21.0124C59.8314 21.6848 60.3527 22.7506 60.1196 23.7994L63.0482 24.4502ZM53.7006 18.4463C52.0077 19.5752 51.2762 21.4248 51.3224 23.089C51.3672 24.7061 52.1935 26.5292 54.0543 27.1572L55.0137 24.3147C54.7263 24.2178 54.344 23.8256 54.3212 23.0059C54.2998 22.2333 54.6418 21.4246 55.365 20.9423L53.7006 18.4463Z" fill="#1D1E1F"/>
</svg>
