<svg width="768" height="313" viewBox="0 0 768 313" fill="none" xmlns="http://www.w3.org/2000/svg">
<g clip-path="url(#clip0_4790_34903)">
<mask id="mask0_4790_34903" style="mask-type:luminance" maskUnits="userSpaceOnUse" x="0" y="0" width="768" height="313">
<path d="M768 0H0V313H768V0Z" fill="white"/>
</mask>
<g mask="url(#mask0_4790_34903)">
<g opacity="0.2">
<mask id="mask1_4790_34903" style="mask-type:luminance" maskUnits="userSpaceOnUse" x="705" y="-31" width="90" height="94">
<path d="M762.341 62.5687L794.762 -2.31836L738.12 -30.6194L705.699 34.2677L762.341 62.5687Z" fill="white"/>
</mask>
<g mask="url(#mask1_4790_34903)">
<path d="M753.035 38.0676C754.302 37.2227 755.062 35.7019 755.061 34.0122L754.21 21.7616L753.867 13.5664L752.931 1.48484C752.846 -0.035915 753.606 -1.55671 754.958 -2.5706L762.984 -7.64011C764.251 -8.48503 766.026 -8.65407 767.548 -7.89374L776.002 -3.66972C777.354 -2.99387 778.369 -1.64211 778.539 0.132103L779.136 9.51012C779.221 11.0308 778.461 12.5516 777.11 13.5655L769.083 18.635C767.816 19.48 766.041 19.649 764.519 18.8887L758.94 16.1008L759.451 24.3805L765.2 27.2528C766.552 27.9287 768.243 27.9286 769.764 26.9992L784.465 17.4517C785.732 16.6067 786.492 15.0859 786.491 13.3962L785.298 -4.51493C785.297 -6.20467 784.283 -7.55641 782.93 -8.23225L767.036 -16.1735C765.684 -16.8493 763.993 -16.8492 762.473 -15.9198L747.687 -6.20327C746.42 -5.35835 745.66 -3.83756 745.661 -2.14782L746.428 9.84928L746.939 18.1289L747.706 30.126C747.791 31.6468 747.032 33.1676 745.68 34.1815L737.822 39.3355C736.555 40.1804 734.78 40.3494 733.259 39.5891L724.805 35.3651C723.452 34.6892 722.437 33.3375 722.267 31.5633L721.586 22.3542C721.501 20.8335 722.261 19.3127 723.612 18.2988L731.47 13.1448C732.737 12.2999 734.512 12.1308 736.034 12.8912L741.444 15.5945L740.933 7.31488L735.353 4.52703C734 3.85119 732.31 3.85124 730.789 4.78065L716.004 14.4972C714.736 15.3421 713.977 16.8629 713.977 18.5526L715.085 36.2103C715.171 37.7311 716.101 39.2518 717.623 40.0121L733.686 48.0378C735.038 48.7136 736.729 48.7136 738.249 47.7841L753.035 38.0676Z" fill="#8247E5"/>
</g>
<mask id="mask2_4790_34903" style="mask-type:luminance" maskUnits="userSpaceOnUse" x="649" y="-59" width="90" height="94">
<path d="M705.7 34.2684L738.121 -30.6187L681.479 -58.9197L649.059 5.9674L705.7 34.2684Z" fill="white"/>
</mask>
<g mask="url(#mask2_4790_34903)">
<g opacity="0.4">
<path d="M696.393 9.76736C697.661 8.92244 698.42 7.40165 698.42 5.71191L697.568 -6.53865L697.226 -14.7339L696.29 -26.8155C696.204 -28.3362 696.964 -29.857 698.316 -30.8709L706.342 -35.9404C707.61 -36.7854 709.385 -36.9544 710.906 -36.1941L719.36 -31.97C720.713 -31.2942 721.728 -29.9424 721.898 -28.1682L722.494 -18.7902C722.58 -17.2694 721.82 -15.7487 720.468 -14.7348L712.441 -9.66521C711.174 -8.8203 709.399 -8.65126 707.878 -9.41158L702.298 -12.1995L702.809 -3.91975L708.558 -1.04741C709.911 -0.371566 711.601 -0.371632 713.122 -1.30104L727.823 -10.8486C729.09 -11.6936 729.85 -13.2144 729.849 -14.9041L728.657 -32.8153C728.656 -34.505 727.641 -35.8567 726.288 -36.5326L710.395 -44.4738C709.042 -45.1496 707.352 -45.1495 705.831 -44.2201L691.045 -34.5036C689.778 -33.6587 689.018 -32.1379 689.019 -30.4481L689.786 -18.451L690.298 -10.1714L691.065 1.82579C691.15 3.34655 690.39 4.86734 689.038 5.88124L681.181 11.0352C679.913 11.8801 678.139 12.0491 676.617 11.2888L668.163 7.06483C666.81 6.38899 665.795 5.03724 665.625 3.26302L664.944 -5.94602C664.859 -7.46678 665.619 -8.98757 666.971 -10.0015L674.828 -15.1555C676.096 -16.0004 677.87 -16.1695 679.392 -15.4091L684.803 -12.7058L684.291 -20.9854L678.711 -23.7733C677.359 -24.4491 675.668 -24.4491 674.148 -23.5197L659.362 -13.8031C658.095 -12.9582 657.335 -11.4374 657.336 -9.74765L658.444 7.91006C658.529 9.43082 659.46 10.9515 660.981 11.7118L677.044 19.7375C678.397 20.4133 680.087 20.4133 681.608 19.4839L696.393 9.76736Z" fill="#8247E5"/>
</g>
</g>
<mask id="mask3_4790_34903" style="mask-type:luminance" maskUnits="userSpaceOnUse" x="688" y="144" width="90" height="94">
<path d="M745.548 237.849L777.969 172.962L721.327 144.661L688.906 209.548L745.548 237.849Z" fill="white"/>
</mask>
<g mask="url(#mask3_4790_34903)">
<g opacity="0.4">
<path d="M736.237 213.349C737.504 212.504 738.264 210.983 738.263 209.293L737.412 197.043L737.069 188.847L736.133 176.766C736.048 175.245 736.808 173.724 738.16 172.71L746.186 167.641C747.453 166.796 749.228 166.627 750.75 167.387L759.204 171.611C760.557 172.287 761.572 173.639 761.742 175.413L762.338 184.791C762.423 186.312 761.664 187.833 760.312 188.847L752.285 193.916C751.018 194.761 749.243 194.93 747.721 194.17L742.142 191.382L742.653 199.662L748.402 202.534C749.755 203.21 751.445 203.21 752.966 202.28L767.667 192.733C768.934 191.888 769.694 190.367 769.693 188.677L768.5 170.766C768.5 169.076 767.485 167.725 766.132 167.049L750.239 159.108C748.886 158.432 747.196 158.432 745.675 159.361L730.889 169.078C729.622 169.923 728.862 171.443 728.863 173.133L729.63 185.13L730.141 193.41L730.908 205.407C730.994 206.928 730.234 208.449 728.882 209.463L721.025 214.617C719.757 215.461 717.982 215.63 716.461 214.87L708.007 210.646C706.654 209.97 705.639 208.619 705.469 206.844L704.788 197.635C704.703 196.115 705.463 194.594 706.814 193.58L714.672 188.426C715.939 187.581 717.714 187.412 719.236 188.172L724.646 190.876L724.135 182.596L718.555 179.808C717.203 179.132 715.512 179.132 713.991 180.062L699.206 189.778C697.939 190.623 697.179 192.144 697.18 193.834L698.288 211.491C698.373 213.012 699.303 214.533 700.825 215.293L716.888 223.319C718.24 223.995 719.931 223.995 721.452 223.065L736.237 213.349Z" fill="#8247E5"/>
</g>
</g>
<mask id="mask4_4790_34903" style="mask-type:luminance" maskUnits="userSpaceOnUse" x="632" y="116" width="90" height="94">
<path d="M688.903 209.55L721.324 144.663L664.682 116.362L632.262 181.249L688.903 209.55Z" fill="white"/>
</mask>
<g mask="url(#mask4_4790_34903)">
<path d="M679.593 185.048C680.86 184.203 681.62 182.683 681.619 180.993L680.767 168.742L680.425 160.547L679.489 148.466C679.403 146.945 680.163 145.424 681.515 144.41L689.542 139.341C690.809 138.496 692.584 138.327 694.105 139.087L702.559 143.311C703.912 143.987 704.927 145.339 705.097 147.113L705.694 156.491C705.779 158.012 705.019 159.532 703.667 160.546L695.641 165.616C694.373 166.461 692.599 166.63 691.077 165.869L685.497 163.082L686.009 171.361L691.757 174.234C693.11 174.909 694.8 174.909 696.321 173.98L711.022 164.432C712.29 163.587 713.05 162.067 713.049 160.377L711.856 142.466C711.855 140.776 710.84 139.424 709.488 138.748L693.594 130.807C692.241 130.131 690.551 130.132 689.03 131.061L674.245 140.777C672.977 141.622 672.217 143.143 672.218 144.833L672.985 156.83L673.497 165.11L674.264 177.107C674.349 178.628 673.589 180.148 672.237 181.162L664.38 186.316C663.113 187.161 661.338 187.33 659.816 186.57L651.362 182.346C650.01 181.67 648.995 180.318 648.825 178.544L648.144 169.335C648.058 167.814 648.818 166.293 650.17 165.28L658.027 160.126C659.295 159.281 661.07 159.112 662.591 159.872L668.002 162.575L667.49 154.296L661.911 151.508C660.558 150.832 658.868 150.832 657.347 151.761L642.561 161.478C641.294 162.323 640.534 163.844 640.535 165.533L641.643 183.191C641.728 184.712 642.659 186.233 644.181 186.993L660.243 195.019C661.596 195.694 663.286 195.694 664.807 194.765L679.593 185.048Z" fill="#8247E5"/>
</g>
<mask id="mask5_4790_34903" style="mask-type:luminance" maskUnits="userSpaceOnUse" x="745" y="172" width="90" height="95">
<path d="M802.189 266.154L834.609 201.267L777.968 172.966L745.547 237.853L802.189 266.154Z" fill="white"/>
</mask>
<g mask="url(#mask5_4790_34903)">
<path d="M792.878 241.652C794.145 240.807 794.905 239.286 794.904 237.596L794.052 225.346L793.71 217.151L792.774 205.069C792.689 203.548 793.449 202.028 794.8 201.014L802.827 195.944C804.094 195.099 805.869 194.93 807.391 195.69L815.845 199.915C817.197 200.59 818.212 201.942 818.382 203.716L818.979 213.094C819.064 214.615 818.304 216.136 816.952 217.15L808.926 222.219C807.659 223.064 805.884 223.233 804.362 222.473L798.782 219.685L799.294 227.965L805.043 230.837C806.395 231.513 808.086 231.513 809.606 230.583L824.307 221.036C825.575 220.191 826.335 218.67 826.334 216.98L825.141 199.069C825.14 197.38 824.125 196.028 822.773 195.352L806.879 187.411C805.527 186.735 803.836 186.735 802.315 187.664L787.53 197.381C786.262 198.226 785.503 199.747 785.504 201.436L786.27 213.434L786.782 221.713L787.549 233.71C787.634 235.231 786.874 236.752 785.523 237.766L777.665 242.92C776.398 243.765 774.623 243.934 773.101 243.173L764.647 238.949C763.295 238.274 762.28 236.922 762.11 235.148L761.429 225.939C761.344 224.418 762.103 222.897 763.455 221.883L771.313 216.729C772.58 215.884 774.355 215.715 775.876 216.475L781.287 219.179L780.775 210.899L775.196 208.111C773.843 207.435 772.153 207.435 770.632 208.365L755.847 218.081C754.579 218.926 753.819 220.447 753.82 222.137L754.928 239.795C755.014 241.315 755.944 242.836 757.466 243.596L773.528 251.622C774.881 252.298 776.571 252.298 778.092 251.368L792.878 241.652Z" fill="#8247E5"/>
</g>
<mask id="mask6_4790_34903" style="mask-type:luminance" maskUnits="userSpaceOnUse" x="523" y="61" width="90" height="95">
<path d="M579.927 155.099L612.348 90.2119L555.706 61.9109L523.285 126.798L579.927 155.099Z" fill="white"/>
</mask>
<g mask="url(#mask6_4790_34903)">
<path d="M570.616 130.598C571.883 129.753 572.643 128.232 572.642 126.542L571.791 114.292L571.448 106.096L570.512 94.0152C570.427 92.4944 571.187 90.9736 572.539 89.9597L580.565 84.8902C581.832 84.0453 583.607 83.8763 585.129 84.6366L593.583 88.8606C594.936 89.5365 595.95 90.8882 596.12 92.6624L596.717 102.04C596.802 103.561 596.042 105.082 594.691 106.096L586.664 111.165C585.397 112.01 583.622 112.179 582.1 111.419L576.521 108.631L577.032 116.911L582.781 119.783C584.133 120.459 585.824 120.459 587.345 119.529L602.046 109.982C603.313 109.137 604.073 107.616 604.072 105.926L602.879 88.0154C602.879 86.3257 601.864 84.9739 600.511 84.2981L584.617 76.3569C583.265 75.6811 581.574 75.6811 580.054 76.6105L565.268 86.3271C564.001 87.172 563.241 88.6928 563.242 90.3825L564.009 102.379L564.52 110.659L565.287 122.656C565.372 124.177 564.613 125.698 563.261 126.712L555.403 131.866C554.136 132.71 552.361 132.88 550.84 132.119L542.386 127.895C541.033 127.219 540.018 125.868 539.848 124.093L539.167 114.884C539.082 113.364 539.842 111.843 541.193 110.829L549.051 105.675C550.318 104.83 552.093 104.661 553.615 105.421L559.025 108.125L558.514 99.8452L552.934 97.0574C551.582 96.3815 549.891 96.3816 548.37 97.311L533.585 107.027C532.317 107.872 531.558 109.393 531.559 111.083L532.667 128.74C532.752 130.261 533.682 131.782 535.204 132.542L551.267 140.568C552.619 141.244 554.31 141.244 555.83 140.314L570.616 130.598Z" fill="#8247E5"/>
</g>
<mask id="mask7_4790_34903" style="mask-type:luminance" maskUnits="userSpaceOnUse" x="575" y="88" width="90" height="94">
<path d="M632.263 181.249L664.684 116.362L608.042 88.0613L575.621 152.948L632.263 181.249Z" fill="white"/>
</mask>
<g mask="url(#mask7_4790_34903)">
<g opacity="0.4">
<path d="M622.953 156.748C624.22 155.903 624.98 154.382 624.979 152.693L624.128 140.442L623.785 132.247L622.849 120.165C622.764 118.645 623.524 117.124 624.875 116.11L632.902 111.04C634.169 110.195 635.944 110.026 637.466 110.787L645.92 115.011C647.272 115.687 648.287 117.038 648.457 118.813L649.054 128.191C649.139 129.711 648.379 131.232 647.028 132.246L639.001 137.316C637.734 138.16 635.959 138.329 634.437 137.569L628.858 134.781L629.369 143.061L635.118 145.933C636.47 146.609 638.161 146.609 639.682 145.68L654.383 136.132C655.65 135.287 656.41 133.766 656.409 132.077L655.216 114.166C655.215 112.476 654.201 111.124 652.848 110.448L636.954 102.507C635.602 101.831 633.911 101.831 632.391 102.761L617.605 112.477C616.338 113.322 615.578 114.843 615.579 116.533L616.346 128.53L616.857 136.809L617.624 148.807C617.709 150.327 616.95 151.848 615.598 152.862L607.74 158.016C606.473 158.861 604.698 159.03 603.177 158.27L594.723 154.046C593.37 153.37 592.355 152.018 592.185 150.244L591.504 141.035C591.419 139.514 592.179 137.993 593.53 136.979L601.388 131.825C602.655 130.98 604.43 130.811 605.952 131.572L611.362 134.275L610.851 125.995L605.271 123.207C603.918 122.532 602.228 122.532 600.707 123.461L585.922 133.178C584.654 134.023 583.895 135.543 583.895 137.233L585.003 154.891C585.089 156.412 586.019 157.932 587.541 158.693L603.604 166.718C604.956 167.394 606.647 167.394 608.167 166.465L622.953 156.748Z" fill="#8247E5"/>
</g>
</g>
<mask id="mask8_4790_34903" style="mask-type:luminance" maskUnits="userSpaceOnUse" x="725" y="71" width="90" height="94">
<path d="M782.271 164.357L814.691 99.4697L758.05 71.1687L725.629 136.056L782.271 164.357Z" fill="white"/>
</mask>
<g mask="url(#mask8_4790_34903)">
<path d="M772.964 139.855C774.231 139.011 774.991 137.49 774.99 135.8L774.138 123.549L773.796 115.354L772.86 103.273C772.775 101.752 773.534 100.231 774.886 99.2176L782.913 94.1479C784.18 93.303 785.955 93.134 787.477 93.8943L795.931 98.1184C797.283 98.7943 798.298 100.146 798.468 101.92L799.065 111.298C799.15 112.819 798.39 114.34 797.038 115.353L789.012 120.423C787.744 121.268 785.97 121.437 784.448 120.677L778.868 117.889L779.38 126.168L785.129 129.041C786.481 129.717 788.172 129.717 789.692 128.787L804.393 119.24C805.661 118.395 806.421 116.874 806.42 115.184L805.227 97.2732C805.226 95.5835 804.211 94.2317 802.859 93.5559L786.965 85.6147C785.612 84.9389 783.922 84.9389 782.401 85.8684L767.616 95.5849C766.348 96.4298 765.589 97.9506 765.589 99.6403L766.356 111.637L766.868 119.917L767.635 131.914C767.72 133.435 766.96 134.955 765.609 135.969L757.751 141.123C756.484 141.968 754.709 142.137 753.187 141.377L744.733 137.153C743.381 136.477 742.366 135.125 742.196 133.351L741.515 124.142C741.429 122.621 742.189 121.101 743.541 120.087L751.399 114.933C752.666 114.088 754.441 113.919 755.962 114.679L761.373 117.382L760.861 109.103L755.282 106.315C753.929 105.639 752.239 105.639 750.718 106.569L735.932 116.285C734.665 117.13 733.905 118.651 733.906 120.34L735.014 137.998C735.099 139.519 736.03 141.04 737.552 141.8L753.614 149.826C754.967 150.502 756.657 150.501 758.178 149.572L772.964 139.855Z" fill="#8247E5"/>
</g>
<mask id="mask9_4790_34903" style="mask-type:luminance" maskUnits="userSpaceOnUse" x="668" y="42" width="91" height="95">
<path d="M725.626 136.057L758.047 71.1694L701.405 42.8684L668.984 107.755L725.626 136.057Z" fill="white"/>
</mask>
<g mask="url(#mask9_4790_34903)">
<g opacity="0.4">
<path d="M716.315 111.555C717.583 110.71 718.342 109.189 718.341 107.5L717.49 95.2495L717.147 87.0543L716.211 74.9727C716.126 73.4519 716.886 71.9312 718.238 70.9173L726.264 65.8478C727.532 65.0028 729.306 64.8338 730.828 65.5941L739.282 69.8181C740.635 70.494 741.65 71.8457 741.82 73.62L742.416 82.998C742.502 84.5187 741.742 86.0395 740.39 87.0534L732.363 92.1229C731.096 92.9678 729.321 93.1369 727.8 92.3766L722.22 89.5887L722.731 97.8684L728.48 100.74C729.833 101.416 731.523 101.416 733.044 100.487L747.745 90.9395C749.012 90.0946 749.772 88.5738 749.771 86.8841L748.579 68.9729C748.578 67.2832 747.563 65.9314 746.21 65.2556L730.317 57.3144C728.964 56.6386 727.274 56.6386 725.753 57.5681L710.967 67.2846C709.7 68.1295 708.94 69.6503 708.941 71.34L709.708 83.3371L710.219 91.6168L710.986 103.614C711.072 105.134 710.312 106.655 708.96 107.669L701.103 112.823C699.835 113.668 698.061 113.837 696.539 113.077L688.085 108.853C686.732 108.177 685.717 106.825 685.547 105.051L684.866 95.8421C684.781 94.3214 685.541 92.8006 686.893 91.7867L694.75 86.6327C696.017 85.7878 697.792 85.6187 699.314 86.3791L704.724 89.0824L704.213 80.8027L698.633 78.0149C697.281 77.339 695.59 77.3391 694.07 78.2685L679.284 87.9851C678.017 88.83 677.257 90.3508 677.258 92.0405L678.366 109.698C678.451 111.219 679.382 112.739 680.903 113.5L696.966 121.525C698.318 122.201 700.009 122.201 701.53 121.272L716.315 111.555Z" fill="#8247E5"/>
</g>
</g>
<mask id="mask10_4790_34903" style="mask-type:luminance" maskUnits="userSpaceOnUse" x="560" y="-12" width="90" height="94">
<path d="M616.649 81.6058L649.07 16.7188L592.429 -11.5823L560.008 53.3048L616.649 81.6058Z" fill="white"/>
</mask>
<g mask="url(#mask10_4790_34903)">
<g opacity="0.4">
<path d="M607.339 57.1048C608.606 56.2599 609.366 54.7391 609.365 53.0494L608.513 40.7988L608.171 32.6036L607.235 20.522C607.15 19.0013 607.909 17.4805 609.261 16.4666L617.288 11.3971C618.555 10.5522 620.33 10.3831 621.852 11.1434L630.306 15.3675C631.658 16.0433 632.673 17.3951 632.843 19.1693L633.44 28.5473C633.525 30.0681 632.765 31.5888 631.413 32.6027L623.387 37.6722C622.119 38.5172 620.345 38.6862 618.823 37.9259L613.243 35.138L613.755 43.4177L619.504 46.2901C620.856 46.9659 622.547 46.9658 624.067 46.0364L638.768 36.4889C640.036 35.6439 640.796 34.1232 640.795 32.4334L639.602 14.5222C639.601 12.8325 638.586 11.4808 637.234 10.8049L621.34 2.86369C619.987 2.18785 618.297 2.18791 616.776 3.11732L601.991 12.8339C600.723 13.6788 599.964 15.1996 599.964 16.8894L600.731 28.8865L601.243 37.1662L602.01 49.1633C602.095 50.684 601.335 52.2048 599.984 53.2187L592.126 58.3727C590.859 59.2176 589.084 59.3866 587.562 58.6263L579.108 54.4023C577.756 53.7265 576.741 52.3747 576.571 50.6005L575.89 41.3914C575.804 39.8707 576.564 38.3499 577.916 37.336L585.774 32.182C587.041 31.3371 588.816 31.168 590.337 31.9284L595.748 34.6318L595.236 26.3521L589.657 23.5642C588.304 22.8884 586.614 22.8884 585.093 23.8178L570.307 33.5344C569.04 34.3793 568.28 35.9001 568.281 37.5898L569.389 55.2475C569.474 56.7683 570.405 58.289 571.927 59.0493L587.989 67.075C589.342 67.7508 591.032 67.7508 592.553 66.8214L607.339 57.1048Z" fill="#8247E5"/>
</g>
</g>
<mask id="mask11_4790_34903" style="mask-type:luminance" maskUnits="userSpaceOnUse" x="612" y="14" width="90" height="94">
<path d="M668.985 107.756L701.406 42.8691L644.765 14.5681L612.344 79.4552L668.985 107.756Z" fill="white"/>
</mask>
<g mask="url(#mask11_4790_34903)">
<path d="M659.675 83.2551C660.942 82.4102 661.702 80.8894 661.701 79.1997L660.849 66.9491L660.507 58.7539L659.571 46.6723C659.486 45.1516 660.245 43.6308 661.597 42.6169L669.624 37.5474C670.891 36.7024 672.666 36.5334 674.187 37.2937L682.641 41.5178C683.994 42.1936 685.009 43.5454 685.179 45.3196L685.776 54.6976C685.861 56.2183 685.101 57.7391 683.749 58.753L675.723 63.8225C674.455 64.6675 672.681 64.8365 671.159 64.0762L665.579 61.2883L666.091 69.568L671.839 72.4403C673.192 73.1162 674.882 73.1161 676.403 72.1867L691.104 62.6392C692.372 61.7942 693.132 60.2734 693.131 58.5837L691.938 40.6725C691.937 38.9828 690.922 37.6311 689.57 36.9552L673.676 29.014C672.323 28.3382 670.633 28.3383 669.112 29.2677L654.327 38.9842C653.059 39.8291 652.3 41.3499 652.3 43.0396L653.067 55.0368L653.579 63.3164L654.346 75.3135C654.431 76.8343 653.671 78.3551 652.319 79.369L644.462 84.523C643.195 85.3679 641.42 85.5369 639.898 84.7766L631.444 80.5526C630.092 79.8767 629.077 78.525 628.907 76.7508L628.226 67.5417C628.14 66.021 628.9 64.5002 630.252 63.4863L638.109 58.3323C639.377 57.4874 641.152 57.3183 642.673 58.0787L648.084 60.782L647.572 52.5023L641.993 49.7145C640.64 49.0386 638.95 49.0387 637.429 49.9681L622.643 59.6847C621.376 60.5296 620.616 62.0504 620.617 63.7401L621.725 81.3978C621.81 82.9186 622.741 84.4393 624.263 85.1996L640.325 93.2253C641.678 93.9011 643.368 93.9011 644.889 92.9716L659.675 83.2551Z" fill="#8247E5"/>
</g>
<mask id="mask12_4790_34903" style="mask-type:luminance" maskUnits="userSpaceOnUse" x="652" y="218" width="90" height="94">
<path d="M708.825 311.344L741.246 246.457L684.604 218.156L652.184 283.043L708.825 311.344Z" fill="white"/>
</mask>
<g mask="url(#mask12_4790_34903)">
<path d="M699.514 286.842C700.782 285.997 701.542 284.476 701.541 282.786L700.689 270.536L700.347 262.341L699.411 250.259C699.325 248.738 700.085 247.217 701.437 246.204L709.464 241.134C710.731 240.289 712.506 240.12 714.027 240.88L722.481 245.104C723.834 245.78 724.849 247.132 725.019 248.906L725.615 258.284C725.701 259.805 724.941 261.326 723.589 262.34L715.563 267.409C714.295 268.254 712.52 268.423 710.999 267.663L705.419 264.875L705.931 273.155L711.679 276.027C713.032 276.703 714.722 276.703 716.243 275.773L730.944 266.226C732.212 265.381 732.971 263.86 732.97 262.17L731.778 244.259C731.777 242.57 730.762 241.218 729.409 240.542L713.516 232.601C712.163 231.925 710.473 231.925 708.952 232.854L694.167 242.571C692.899 243.416 692.139 244.937 692.14 246.626L692.907 258.623L693.419 266.903L694.186 278.9C694.271 280.421 693.511 281.942 692.159 282.956L684.302 288.11C683.035 288.955 681.26 289.124 679.738 288.363L671.284 284.139C669.931 283.463 668.916 282.112 668.747 280.337L668.066 271.128C667.98 269.608 668.74 268.087 670.092 267.073L677.949 261.919C679.217 261.074 680.991 260.905 682.513 261.665L687.924 264.369L687.412 256.089L681.833 253.301C680.48 252.625 678.79 252.625 677.269 253.555L662.483 263.271C661.216 264.116 660.456 265.637 660.457 267.327L661.565 284.985C661.65 286.505 662.581 288.026 664.102 288.786L680.165 296.812C681.518 297.488 683.208 297.488 684.729 296.558L699.514 286.842Z" fill="#8247E5"/>
</g>
<mask id="mask13_4790_34903" style="mask-type:luminance" maskUnits="userSpaceOnUse" x="595" y="189" width="90" height="95">
<path d="M652.181 283.042L684.602 218.155L627.96 189.854L595.539 254.741L652.181 283.042Z" fill="white"/>
</mask>
<g mask="url(#mask13_4790_34903)">
<g opacity="0.4">
<path d="M642.87 258.542C644.137 257.697 644.897 256.176 644.896 254.486L644.045 242.236L643.703 234.04L642.766 221.959C642.681 220.438 643.441 218.917 644.792 217.903L652.819 212.834C654.086 211.989 655.861 211.82 657.383 212.58L665.837 216.804C667.189 217.48 668.205 218.832 668.375 220.606L668.971 229.984C669.056 231.505 668.296 233.026 666.945 234.039L658.919 239.109C657.652 239.954 655.876 240.123 654.354 239.363L648.776 236.575L649.286 244.854L655.035 247.727C656.387 248.403 658.078 248.403 659.599 247.473L674.3 237.926C675.567 237.081 676.327 235.56 676.326 233.87L675.133 215.959C675.132 214.269 674.118 212.917 672.766 212.242L656.871 204.3C655.519 203.625 653.828 203.625 652.308 204.554L637.522 214.271C636.255 215.116 635.495 216.636 635.496 218.326L636.263 230.323L636.774 238.603L637.542 250.6C637.627 252.121 636.868 253.642 635.516 254.655L627.657 259.809C626.39 260.654 624.615 260.823 623.094 260.063L614.641 255.839C613.288 255.163 612.272 253.811 612.102 252.037L611.422 242.828C611.337 241.307 612.097 239.787 613.448 238.773L621.305 233.619C622.572 232.774 624.348 232.605 625.87 233.365L631.279 236.068L630.768 227.789L625.188 225.001C623.835 224.325 622.146 224.325 620.625 225.255L605.839 234.971C604.571 235.816 603.812 237.337 603.812 239.027L604.92 256.684C605.006 258.205 605.936 259.726 607.458 260.486L623.521 268.512C624.873 269.188 626.564 269.187 628.084 268.258L642.87 258.542Z" fill="#8247E5"/>
</g>
</g>
<mask id="mask14_4790_34903" style="mask-type:luminance" maskUnits="userSpaceOnUse" x="708" y="246" width="90" height="94">
<path d="M765.466 339.646L797.887 274.759L741.245 246.458L708.824 311.345L765.466 339.646Z" fill="white"/>
</mask>
<g mask="url(#mask14_4790_34903)">
<g opacity="0.4">
<path d="M756.155 315.145C757.422 314.3 758.182 312.779 758.181 311.09L757.33 298.839L756.987 290.644L756.051 278.562C755.966 277.041 756.726 275.521 758.078 274.507L766.104 269.437C767.371 268.592 769.146 268.423 770.668 269.184L779.122 273.408C780.475 274.084 781.49 275.435 781.659 277.21L782.256 286.588C782.341 288.108 781.581 289.629 780.23 290.643L772.203 295.712C770.936 296.557 769.161 296.726 767.639 295.966L762.06 293.178L762.571 301.458L768.32 304.33C769.673 305.006 771.363 305.006 772.884 304.077L787.585 294.529C788.852 293.684 789.612 292.163 789.611 290.474L788.418 272.562C788.418 270.873 787.403 269.521 786.05 268.845L770.157 260.904C768.804 260.228 767.114 260.228 765.593 261.158L750.807 270.874C749.54 271.719 748.78 273.24 748.781 274.93L749.548 286.927L750.059 295.206L750.826 307.203C750.912 308.724 750.152 310.245 748.8 311.259L740.942 316.413C739.675 317.258 737.9 317.427 736.379 316.667L727.925 312.443C726.572 311.767 725.557 310.415 725.387 308.641L724.706 299.432C724.621 297.911 725.381 296.39 726.732 295.376L734.59 290.222C735.857 289.377 737.632 289.208 739.154 289.969L744.564 292.672L744.053 284.392L738.473 281.604C737.121 280.929 735.43 280.929 733.909 281.858L719.124 291.575C717.857 292.42 717.097 293.94 717.098 295.63L718.206 313.288C718.291 314.809 719.221 316.329 720.743 317.09L736.806 325.115C738.158 325.791 739.849 325.791 741.37 324.862L756.155 315.145Z" fill="#8247E5"/>
</g>
</g>
<mask id="mask15_4790_34903" style="mask-type:luminance" maskUnits="userSpaceOnUse" x="486" y="135" width="90" height="94">
<path d="M543.204 228.593L575.625 163.706L518.983 135.405L486.562 200.292L543.204 228.593Z" fill="white"/>
</mask>
<g mask="url(#mask15_4790_34903)">
<g opacity="0.4">
<path d="M533.893 204.091C535.161 203.246 535.92 201.725 535.92 200.035L535.068 187.785L534.726 179.59L533.79 167.508C533.704 165.987 534.464 164.466 535.816 163.453L543.842 158.383C545.11 157.538 546.885 157.369 548.406 158.129L556.86 162.353C558.213 163.029 559.228 164.381 559.398 166.155L559.994 175.533C560.08 177.054 559.32 178.575 557.968 179.589L549.941 184.658C548.674 185.503 546.899 185.672 545.378 184.912L539.798 182.124L540.309 190.404L546.058 193.276C547.411 193.952 549.101 193.952 550.622 193.022L565.323 183.475C566.59 182.63 567.35 181.109 567.349 179.419L566.157 161.508C566.156 159.819 565.141 158.467 563.788 157.791L547.895 149.85C546.542 149.174 544.852 149.174 543.331 150.103L528.545 159.82C527.278 160.665 526.518 162.186 526.519 163.875L527.286 175.872L527.798 184.152L528.565 196.149C528.65 197.67 527.89 199.191 526.538 200.205L518.681 205.359C517.413 206.204 515.639 206.373 514.117 205.612L505.663 201.388C504.31 200.712 503.295 199.361 503.125 197.587L502.444 188.377C502.359 186.857 503.119 185.336 504.471 184.322L512.328 179.168C513.596 178.323 515.37 178.154 516.892 178.914L522.303 181.618L521.791 173.338L516.211 170.55C514.859 169.874 513.168 169.874 511.648 170.804L496.862 180.52C495.595 181.365 494.835 182.886 494.836 184.576L495.944 202.234C496.029 203.754 496.96 205.275 498.481 206.035L514.544 214.061C515.897 214.737 517.587 214.737 519.108 213.807L533.893 204.091Z" fill="#8247E5"/>
</g>
</g>
<mask id="mask16_4790_34903" style="mask-type:luminance" maskUnits="userSpaceOnUse" x="538" y="161" width="90" height="94">
<path d="M595.54 254.743L627.961 189.855L571.319 161.554L538.898 226.442L595.54 254.743Z" fill="white"/>
</mask>
<g mask="url(#mask16_4790_34903)">
<path d="M586.229 230.241C587.497 229.396 588.256 227.876 588.256 226.186L587.404 213.935L587.062 205.74L586.126 193.658C586.04 192.138 586.8 190.617 588.152 189.603L596.178 184.533C597.446 183.689 599.22 183.52 600.742 184.28L609.196 188.504C610.549 189.18 611.564 190.531 611.734 192.306L612.33 201.684C612.416 203.204 611.656 204.725 610.304 205.739L602.277 210.809C601.01 211.654 599.235 211.823 597.714 211.062L592.134 208.274L592.645 216.554L598.394 219.426C599.747 220.102 601.437 220.102 602.958 219.173L617.659 209.625C618.926 208.78 619.686 207.26 619.685 205.57L618.493 187.659C618.492 185.969 617.477 184.617 616.124 183.941L600.231 176C598.878 175.324 597.188 175.324 595.667 176.254L580.881 185.97C579.614 186.815 578.854 188.336 578.855 190.026L579.622 202.023L580.134 210.303L580.9 222.3C580.986 223.82 580.226 225.341 578.874 226.355L571.017 231.509C569.749 232.354 567.975 232.523 566.453 231.763L557.999 227.539C556.646 226.863 555.631 225.511 555.461 223.737L554.78 214.528C554.695 213.007 555.455 211.486 556.807 210.472L564.664 205.318C565.931 204.474 567.706 204.304 569.228 205.065L574.639 207.768L574.127 199.488L568.547 196.701C567.195 196.025 565.504 196.025 563.984 196.954L549.198 206.671C547.931 207.516 547.171 209.036 547.172 210.726L548.28 228.384C548.365 229.905 549.296 231.425 550.817 232.186L566.88 240.211C568.233 240.887 569.923 240.887 571.444 239.958L586.229 230.241Z" fill="#8247E5"/>
</g>
</g>
<g opacity="0.2">
<mask id="mask17_4790_34903" style="mask-type:luminance" maskUnits="userSpaceOnUse" x="558" y="273" width="90" height="94">
<path d="M614.778 366.639L647.199 301.752L590.557 273.451L558.137 338.338L614.778 366.639Z" fill="white"/>
</mask>
<g mask="url(#mask17_4790_34903)">
<path d="M605.472 342.138C606.739 341.293 607.499 339.772 607.498 338.083L606.647 325.832L606.304 317.637L605.368 305.555C605.283 304.034 606.043 302.514 607.395 301.5L615.421 296.43C616.688 295.585 618.463 295.416 619.985 296.177L628.439 300.401C629.791 301.076 630.806 302.428 630.976 304.202L631.573 313.58C631.658 315.101 630.898 316.622 629.547 317.636L621.52 322.705C620.253 323.55 618.478 323.719 616.956 322.959L611.377 320.171L611.888 328.451L617.637 331.323C618.989 331.999 620.68 331.999 622.201 331.07L636.902 321.522C638.169 320.677 638.929 319.156 638.928 317.467L637.735 299.555C637.734 297.866 636.72 296.514 635.367 295.838L619.473 287.897C618.121 287.221 616.43 287.221 614.91 288.151L600.124 297.867C598.857 298.712 598.097 300.233 598.098 301.922L598.865 313.92L599.376 322.199L600.143 334.196C600.228 335.717 599.469 337.238 598.117 338.252L590.259 343.406C588.992 344.251 587.217 344.42 585.696 343.659L577.242 339.435C575.889 338.76 574.874 337.408 574.704 335.634L574.023 326.425C573.938 324.904 574.698 323.383 576.049 322.369L583.907 317.215C585.174 316.37 586.949 316.201 588.471 316.962L593.881 319.665L593.37 311.385L587.79 308.597C586.437 307.921 584.747 307.922 583.226 308.851L568.441 318.568C567.173 319.412 566.414 320.933 566.414 322.623L567.522 340.281C567.608 341.801 568.538 343.322 570.06 344.082L586.123 352.108C587.475 352.784 589.166 352.784 590.686 351.854L605.472 342.138Z" fill="#8247E5"/>
</g>
<mask id="mask18_4790_34903" style="mask-type:luminance" maskUnits="userSpaceOnUse" x="449" y="219" width="90" height="94">
<path d="M505.802 312.188L538.223 247.301L481.581 219L449.16 283.887L505.802 312.188Z" fill="white"/>
</mask>
<g mask="url(#mask18_4790_34903)">
<path d="M496.495 287.687C497.763 286.842 498.522 285.322 498.521 283.632L497.669 271.381L497.328 263.186L496.391 251.104C496.305 249.584 497.065 248.063 498.417 247.049L506.443 241.98C507.711 241.135 509.487 240.966 511.008 241.726L519.461 245.95C520.814 246.626 521.83 247.978 522 249.752L522.596 259.13C522.682 260.651 521.922 262.171 520.57 263.185L512.544 268.255C511.276 269.1 509.5 269.269 507.979 268.508L502.399 265.72L502.911 274L508.659 276.873C510.012 277.548 511.703 277.548 513.224 276.619L527.924 267.071C529.191 266.226 529.952 264.706 529.951 263.016L528.758 245.105C528.757 243.415 527.743 242.063 526.39 241.387L510.497 233.446C509.144 232.77 507.453 232.77 505.932 233.7L491.148 243.416C489.88 244.261 489.119 245.782 489.12 247.472L489.888 259.469L490.399 267.749L491.167 279.746C491.252 281.266 490.492 282.787 489.14 283.801L481.282 288.955C480.015 289.8 478.241 289.969 476.719 289.209L468.265 284.985C466.912 284.309 465.897 282.957 465.727 281.183L465.047 271.974C464.961 270.453 465.721 268.932 467.073 267.918L474.93 262.764C476.198 261.92 477.972 261.751 479.494 262.511L484.904 265.214L484.393 256.935L478.813 254.147C477.46 253.471 475.771 253.471 474.25 254.4L459.464 264.117C458.197 264.962 457.437 266.483 457.438 268.172L458.545 285.83C458.63 287.351 459.562 288.871 461.083 289.632L477.146 297.657C478.499 298.333 480.188 298.333 481.709 297.404L496.495 287.687Z" fill="#8247E5"/>
</g>
<mask id="mask19_4790_34903" style="mask-type:luminance" maskUnits="userSpaceOnUse" x="501" y="245" width="90" height="94">
<path d="M558.138 338.339L590.559 273.452L533.917 245.151L501.496 310.038L558.138 338.339Z" fill="white"/>
</mask>
<g mask="url(#mask19_4790_34903)">
<g opacity="0.4">
<path d="M548.83 313.838C550.098 312.993 550.857 311.472 550.857 309.782L550.005 297.532L549.663 289.336L548.727 277.255C548.641 275.734 549.401 274.213 550.753 273.199L558.779 268.13C560.047 267.285 561.822 267.116 563.343 267.876L571.797 272.1C573.15 272.776 574.165 274.128 574.335 275.902L574.931 285.28C575.017 286.801 574.257 288.322 572.905 289.336L564.878 294.405C563.611 295.25 561.836 295.419 560.315 294.659L554.735 291.871L555.246 300.151L560.995 303.023C562.348 303.699 564.038 303.699 565.559 302.769L580.26 293.222C581.527 292.377 582.287 290.856 582.286 289.166L581.094 271.255C581.093 269.565 580.078 268.214 578.725 267.538L562.832 259.597C561.479 258.921 559.789 258.921 558.268 259.85L543.482 269.567C542.215 270.412 541.455 271.932 541.456 273.622L542.223 285.619L542.735 293.899L543.502 305.896C543.587 307.417 542.827 308.938 541.475 309.952L533.618 315.106C532.35 315.95 530.576 316.119 529.054 315.359L520.6 311.135C519.247 310.459 518.232 309.108 518.062 307.333L517.381 298.124C517.296 296.604 518.056 295.083 519.408 294.069L527.265 288.915C528.533 288.07 530.307 287.901 531.829 288.661L537.24 291.365L536.728 283.085L531.148 280.297C529.796 279.621 528.105 279.621 526.585 280.551L511.799 290.267C510.532 291.112 509.772 292.633 509.773 294.323L510.881 311.98C510.966 313.501 511.897 315.022 513.418 315.782L529.481 323.808C530.834 324.484 532.524 324.484 534.045 323.554L548.83 313.838Z" fill="#8247E5"/>
</g>
</g>
<mask id="mask20_4790_34903" style="mask-type:luminance" maskUnits="userSpaceOnUse" x="412" y="292" width="90" height="94">
<path d="M469.087 385.676L501.508 320.789L444.866 292.488L412.445 357.375L469.087 385.676Z" fill="white"/>
</mask>
<g mask="url(#mask20_4790_34903)">
<g opacity="0.4">
<path d="M459.777 361.175C461.044 360.33 461.804 358.809 461.803 357.12L460.951 344.869L460.609 336.674L459.673 324.592C459.588 323.072 460.347 321.551 461.699 320.537L469.726 315.467C470.993 314.622 472.768 314.453 474.29 315.214L482.744 319.438C484.096 320.114 485.111 321.465 485.281 323.24L485.878 332.618C485.963 334.138 485.203 335.659 483.851 336.673L475.825 341.742C474.557 342.587 472.783 342.756 471.261 341.996L465.681 339.208L466.193 347.488L471.942 350.36C473.294 351.036 474.985 351.036 476.505 350.107L491.206 340.559C492.474 339.714 493.234 338.193 493.233 336.504L492.04 318.592C492.039 316.903 491.024 315.551 489.672 314.875L473.778 306.934C472.425 306.258 470.735 306.258 469.214 307.188L454.429 316.904C453.161 317.749 452.402 319.27 452.402 320.96L453.169 332.957L453.681 341.236L454.448 353.234C454.533 354.754 453.773 356.275 452.422 357.289L444.564 362.443C443.297 363.288 441.522 363.457 440 362.697L431.546 358.473C430.194 357.797 429.179 356.445 429.009 354.671L428.328 345.462C428.242 343.941 429.002 342.42 430.354 341.406L438.212 336.252C439.479 335.407 441.254 335.238 442.775 335.999L448.186 338.702L447.674 330.422L442.095 327.634C440.742 326.959 439.052 326.959 437.531 327.888L422.745 337.605C421.478 338.45 420.718 339.97 420.719 341.66L421.827 359.318C421.912 360.839 422.843 362.359 424.365 363.12L440.427 371.145C441.78 371.821 443.47 371.821 444.991 370.892L459.777 361.175Z" fill="#8247E5"/>
</g>
</g>
</g>
<g opacity="0.2">
<mask id="mask21_4790_34903" style="mask-type:luminance" maskUnits="userSpaceOnUse" x="418" y="116" width="94" height="98">
<path d="M477.94 213.305L511.754 145.63L452.678 116.113L418.864 183.788L477.94 213.305Z" fill="white"/>
</mask>
<g mask="url(#mask21_4790_34903)">
<path d="M468.228 187.751C469.549 186.87 470.342 185.284 470.341 183.522L469.453 170.745L469.096 162.197L468.119 149.597C468.03 148.01 468.823 146.424 470.233 145.367L478.604 140.08C479.926 139.198 481.777 139.022 483.364 139.815L492.181 144.221C493.592 144.925 494.651 146.335 494.828 148.186L495.45 157.967C495.539 159.553 494.747 161.139 493.337 162.196L484.965 167.484C483.644 168.365 481.793 168.541 480.205 167.748L474.386 164.841L474.919 173.476L480.915 176.472C482.326 177.177 484.089 177.177 485.675 176.207L501.008 166.25C502.33 165.368 503.122 163.782 503.121 162.02L501.877 143.339C501.876 141.577 500.818 140.167 499.407 139.462L482.831 131.18C481.42 130.475 479.657 130.475 478.071 131.444L462.65 141.578C461.328 142.459 460.536 144.045 460.537 145.808L461.336 158.32L461.87 166.956L462.67 179.469C462.759 181.055 461.966 182.641 460.556 183.698L452.361 189.074C451.04 189.955 449.189 190.131 447.601 189.338L438.784 184.933C437.373 184.228 436.315 182.818 436.138 180.968L435.427 171.363C435.338 169.777 436.131 168.191 437.541 167.133L445.736 161.758C447.058 160.876 448.909 160.7 450.496 161.493L456.139 164.313L455.605 155.677L449.786 152.769C448.375 152.065 446.612 152.065 445.026 153.034L429.605 163.168C428.283 164.049 427.491 165.635 427.492 167.398L428.647 185.814C428.736 187.4 429.707 188.986 431.294 189.779L448.047 198.15C449.458 198.855 451.221 198.855 452.807 197.885L468.228 187.751Z" fill="#8247E5"/>
</g>
<mask id="mask22_4790_34903" style="mask-type:luminance" maskUnits="userSpaceOnUse" x="241" y="27" width="94" height="98">
<path d="M300.713 124.754L334.527 57.0786L275.452 27.5615L241.638 95.2368L300.713 124.754Z" fill="white"/>
</mask>
<g mask="url(#mask22_4790_34903)">
<g opacity="0.4">
<path d="M291.006 99.2003C292.328 98.3191 293.12 96.7329 293.119 94.9706L292.231 82.1936L291.874 73.6462L290.898 61.0455C290.809 59.4594 291.601 57.8732 293.011 56.8158L301.383 51.5284C302.704 50.6472 304.555 50.4709 306.142 51.2639L314.96 55.6694C316.371 56.3743 317.429 57.7842 317.606 59.6346L318.229 69.4156C318.317 71.0017 317.525 72.5879 316.115 73.6453L307.744 78.9327C306.422 79.8139 304.571 79.9902 302.984 79.1972L297.164 76.2896L297.698 84.925L303.694 87.9208C305.104 88.6257 306.867 88.6256 308.453 87.6563L323.786 77.6984C325.108 76.8172 325.901 75.2311 325.9 73.4687L324.656 54.7879C324.655 53.0256 323.596 51.6157 322.186 50.9108L305.609 42.6284C304.198 41.9236 302.435 41.9236 300.849 42.893L285.428 53.027C284.106 53.9083 283.314 55.4944 283.315 57.2567L284.115 69.7694L284.648 78.4048L285.448 90.9175C285.537 92.5036 284.745 94.0897 283.335 95.1472L275.14 100.522C273.818 101.404 271.967 101.58 270.38 100.787L261.563 96.3816C260.152 95.6767 259.093 94.2669 258.916 92.4164L258.206 82.8117C258.117 81.2256 258.909 79.6394 260.319 78.582L268.514 73.2065C269.836 72.3253 271.687 72.149 273.274 72.942L278.917 75.7615L278.384 67.1261L272.564 64.2184C271.154 63.5135 269.391 63.5136 267.804 64.4829L252.384 74.617C251.062 75.4982 250.269 77.0844 250.27 78.8467L251.426 97.2632C251.515 98.8493 252.485 100.435 254.072 101.228L270.825 109.599C272.236 110.304 273.999 110.303 275.585 109.334L291.006 99.2003Z" fill="#8247E5"/>
</g>
</g>
<mask id="mask23_4790_34903" style="mask-type:luminance" maskUnits="userSpaceOnUse" x="359" y="86" width="94" height="98">
<path d="M418.862 183.788L452.676 116.113L393.6 86.5957L359.786 154.271L418.862 183.788Z" fill="white"/>
</mask>
<g mask="url(#mask23_4790_34903)">
<g opacity="0.4">
<path d="M409.153 158.235C410.475 157.354 411.268 155.767 411.267 154.005L410.379 141.228L410.021 132.681L409.045 120.08C408.956 118.494 409.749 116.908 411.159 115.85L419.53 110.563C420.852 109.682 422.703 109.505 424.29 110.298L433.107 114.704C434.518 115.409 435.576 116.819 435.754 118.669L436.376 128.45C436.465 130.036 435.672 131.622 434.263 132.68L425.891 137.967C424.569 138.848 422.718 139.025 421.131 138.232L415.312 135.324L415.845 143.959L421.841 146.955C423.252 147.66 425.015 147.66 426.601 146.691L441.934 136.733C443.255 135.852 444.048 134.266 444.047 132.503L442.803 113.822C442.802 112.06 441.744 110.65 440.333 109.945L423.756 101.663C422.346 100.958 420.583 100.958 418.997 101.927L403.576 112.061C402.254 112.943 401.461 114.529 401.462 116.291L402.262 128.804L402.796 137.439L403.596 149.952C403.685 151.538 402.892 153.124 401.482 154.182L393.287 159.557C391.965 160.438 390.114 160.615 388.527 159.822L379.71 155.416C378.299 154.711 377.241 153.301 377.063 151.451L376.353 141.846C376.264 140.26 377.057 138.674 378.467 137.616L386.662 132.241C387.983 131.36 389.834 131.183 391.422 131.976L397.065 134.796L396.531 126.161L390.712 123.253C389.301 122.548 387.538 122.548 385.952 123.517L370.531 133.651C369.209 134.533 368.417 136.119 368.418 137.881L369.573 156.298C369.662 157.884 370.633 159.47 372.22 160.263L388.973 168.633C390.383 169.338 392.146 169.338 393.733 168.369L409.153 158.235Z" fill="#8247E5"/>
</g>
</g>
<mask id="mask24_4790_34903" style="mask-type:luminance" maskUnits="userSpaceOnUse" x="182" y="-2" width="94" height="98">
<path d="M241.635 95.2363L275.449 27.561L216.374 -1.95609L182.56 65.7192L241.635 95.2363Z" fill="white"/>
</mask>
<g mask="url(#mask24_4790_34903)">
<path d="M231.924 69.6832C233.246 68.802 234.037 67.2158 234.036 65.4535L233.148 52.6765L232.792 44.1291L231.816 31.5284C231.727 29.9423 232.518 28.3562 233.928 27.2987L242.301 22.0114C243.622 21.1301 245.473 20.9538 247.06 21.7468L255.878 26.1524C257.288 26.8572 258.346 28.2671 258.523 30.1175L259.146 39.8985C259.235 41.4846 258.443 43.0708 257.033 44.1282L248.661 49.4156C247.339 50.2968 245.489 50.4731 243.902 49.6801L238.081 46.7725L238.616 55.4079L244.612 58.4037C246.022 59.1086 247.784 59.1085 249.37 58.1392L264.703 48.1813C266.025 47.3001 266.819 45.714 266.818 43.9516L265.574 25.2708C265.573 23.5085 264.514 22.0986 263.103 21.3938L246.527 13.1113C245.116 12.4065 243.353 12.4065 241.767 13.3759L226.346 23.5099C225.024 24.3912 224.231 25.9773 224.232 27.7396L225.033 40.2523L225.566 48.8877L226.366 61.4004C226.455 62.9865 225.663 64.5726 224.253 65.6301L216.058 71.0055C214.736 71.8868 212.885 72.0631 211.298 71.2701L202.48 66.8645C201.07 66.1596 200.011 64.7498 199.834 62.8994L199.124 53.2946C199.035 51.7085 199.827 50.1223 201.237 49.0649L209.432 43.6894C210.754 42.8082 212.604 42.6319 214.191 43.4249L219.835 46.2444L219.301 37.609L213.482 34.7013C212.072 33.9964 210.309 33.9965 208.722 34.9658L193.301 45.0999C191.979 45.9811 191.187 47.5673 191.188 49.3296L192.344 67.7461C192.433 69.3322 193.403 70.9183 194.99 71.7113L211.743 80.0818C213.154 80.7867 214.917 80.7866 216.503 79.8172L231.924 69.6832Z" fill="#8247E5"/>
</g>
<mask id="mask25_4790_34903" style="mask-type:luminance" maskUnits="userSpaceOnUse" x="300" y="57" width="94" height="98">
<path d="M359.788 154.271L393.602 86.5957L334.526 57.0786L300.712 124.754L359.788 154.271Z" fill="white"/>
</mask>
<g mask="url(#mask25_4790_34903)">
<path d="M350.076 128.717C351.398 127.836 352.191 126.25 352.19 124.487L351.301 111.71L350.944 103.163L349.968 90.5626C349.879 88.9765 350.672 87.3903 352.081 86.3329L360.453 81.0455C361.775 80.1643 363.626 79.988 365.213 80.781L374.03 85.1865C375.441 85.8914 376.499 87.3013 376.677 89.1517L377.299 98.9327C377.388 100.519 376.595 102.105 375.185 103.162L366.814 108.45C365.492 109.331 363.641 109.507 362.054 108.714L356.235 105.806L356.768 114.442L362.764 117.438C364.175 118.143 365.938 118.142 367.524 117.173L382.857 107.215C384.178 106.334 384.971 104.748 384.97 102.986L383.726 84.305C383.725 82.5427 382.667 81.1328 381.256 80.4279L364.679 72.1455C363.269 71.4406 361.506 71.4407 359.919 72.4101L344.499 82.5441C343.177 83.4253 342.384 85.0115 342.385 86.7738L343.185 99.2865L343.719 107.922L344.518 120.434C344.607 122.02 343.815 123.607 342.405 124.664L334.21 130.04C332.888 130.921 331.037 131.097 329.45 130.304L320.633 125.899C319.222 125.194 318.164 123.784 317.986 121.933L317.276 112.329C317.187 110.742 317.98 109.156 319.389 108.099L327.584 102.723C328.906 101.842 330.757 101.666 332.344 102.459L337.987 105.278L337.454 96.6431L331.635 93.7355C330.224 93.0306 328.461 93.0307 326.875 94L311.454 104.134C310.132 105.015 309.34 106.601 309.34 108.364L310.496 126.78C310.585 128.366 311.556 129.952 313.143 130.745L329.895 139.116C331.306 139.821 333.069 139.821 334.655 138.851L350.076 128.717Z" fill="#8247E5"/>
</g>
<mask id="mask26_4790_34903" style="mask-type:luminance" maskUnits="userSpaceOnUse" x="68" y="-59" width="94" height="98">
<path d="M127.971 38.4439L161.785 -29.2314L102.71 -58.7486L68.8956 8.92674L127.971 38.4439Z" fill="white"/>
</mask>
<g mask="url(#mask26_4790_34903)">
<path d="M118.259 12.8907C119.581 12.0095 120.373 10.4233 120.372 8.66098L119.484 -4.116L119.127 -12.6633L118.151 -25.2641C118.062 -26.8502 118.854 -28.4363 120.264 -29.4938L128.635 -34.7811C129.957 -35.6624 131.808 -35.8387 133.395 -35.0457L142.213 -30.6401C143.623 -29.9352 144.682 -28.5254 144.859 -26.6749L145.481 -16.894C145.57 -15.3078 144.778 -13.7217 143.368 -12.6642L134.997 -7.37691C133.675 -6.49569 131.824 -6.31939 130.237 -7.11238L124.417 -10.02L124.951 -1.38457L130.946 1.6112C132.357 2.31608 134.12 2.31602 135.706 1.34667L151.039 -8.61115C152.361 -9.49238 153.153 -11.0785 153.153 -12.8408L151.909 -31.5217C151.908 -33.284 150.849 -34.6938 149.438 -35.3987L132.862 -43.6811C131.451 -44.386 129.688 -44.386 128.102 -43.4166L112.681 -33.2825C111.359 -32.4013 110.567 -30.8152 110.568 -29.0528L111.368 -16.5402L111.901 -7.90476L112.701 4.60787C112.79 6.19397 111.998 7.78011 110.588 8.83757L102.393 14.2131C101.071 15.0943 99.2201 15.2706 97.633 14.4776L88.8157 10.072C87.405 9.36714 86.3464 7.95731 86.1692 6.10685L85.4589 -3.49791C85.3699 -5.08401 86.1624 -6.67015 87.5723 -7.72761L95.7674 -13.1031C97.0891 -13.9843 98.9402 -14.1606 100.527 -13.3676L106.17 -10.548L105.637 -19.1835L99.8175 -22.0912C98.4068 -22.7961 96.6438 -22.796 95.0576 -21.8266L79.6367 -11.6926C78.315 -10.8114 77.5224 -9.22523 77.5234 -7.46289L78.679 10.9536C78.768 12.5397 79.7384 14.1258 81.3256 14.9188L98.0784 23.2893C99.4891 23.9942 101.252 23.9941 102.838 23.0248L118.259 12.8907Z" fill="#8247E5"/>
</g>
<mask id="mask27_4790_34903" style="mask-type:luminance" maskUnits="userSpaceOnUse" x="-18" y="-11" width="93" height="98">
<path d="M41.0767 86.1924L74.8906 18.5171L15.815 -11L-17.999 56.6753L41.0767 86.1924Z" fill="white"/>
</mask>
<g mask="url(#mask27_4790_34903)">
<path d="M31.3648 60.6392C32.6868 59.758 33.4788 58.1718 33.4778 56.4095L32.5898 43.6325L32.2328 35.0852L31.2568 22.4844C31.1678 20.8983 31.9598 19.3122 33.3698 18.2547L41.7408 12.9674C43.0628 12.0861 44.9138 11.9098 46.5008 12.7028L55.3188 17.1084C56.7288 17.8133 57.7878 19.2231 57.9648 21.0736L58.5868 30.8545C58.6758 32.4407 57.8838 34.0268 56.4738 35.0843L48.1028 40.3716C46.7808 41.2528 44.9298 41.4291 43.3428 40.6362L37.5228 37.7285L38.0568 46.364L44.0518 49.3597C45.4628 50.0646 47.2258 50.0646 48.8118 49.0952L64.1448 39.1374C65.4668 38.2562 66.2588 36.67 66.2588 34.9077L65.0148 16.2268C65.0138 14.4645 63.9548 13.0547 62.5438 12.3498L45.9678 4.06742C44.5568 3.36252 42.7938 3.36252 41.2078 4.33192L25.7868 14.466C24.4648 15.3472 23.6728 16.9333 23.6738 18.6957L24.4738 31.2083L25.0068 39.8438L25.8068 52.3564C25.8958 53.9425 25.1038 55.5286 23.6938 56.5861L15.4988 61.9616C14.1768 62.8428 12.3256 63.0191 10.7385 62.2261L1.9212 57.8205C0.510505 57.1157 -0.548095 55.7058 -0.725295 53.8554L-1.43559 44.2506C-1.52459 42.6645 -0.732096 41.0784 0.677804 40.0209L8.8729 34.6454C10.1946 33.7642 12.0457 33.5879 13.6328 34.3809L19.2758 37.2005L18.7428 28.565L12.923 25.6573C11.5123 24.9524 9.74931 24.9525 8.16311 25.9219L-7.2578 36.0559C-8.5795 36.9371 -9.37209 38.5233 -9.37109 40.2856L-8.21549 58.7021C-8.12649 60.2882 -7.15609 61.8743 -5.56889 62.6673L11.1839 71.0378C12.5946 71.7427 14.3578 71.7426 15.9438 70.7733L31.3648 60.6392Z" fill="#8247E5"/>
</g>
<mask id="mask28_4790_34903" style="mask-type:luminance" maskUnits="userSpaceOnUse" x="123" y="-32" width="94" height="98">
<path d="M182.561 65.7193L216.375 -1.95605L157.299 -31.4732L123.485 36.2021L182.561 65.7193Z" fill="white"/>
</mask>
<g mask="url(#mask28_4790_34903)">
<g opacity="0.4">
<path d="M172.849 40.1656C174.17 39.2844 174.963 37.6981 174.962 35.9358L174.074 23.1589L173.717 14.6115L172.741 2.01078C172.652 0.424672 173.444 -1.16147 174.854 -2.21893L183.225 -7.50628C184.547 -8.3875 186.398 -8.5638 187.985 -7.77081L196.802 -3.36527C198.213 -2.66039 199.272 -1.25055 199.449 0.599907L200.071 10.381C200.16 11.9671 199.368 13.5532 197.958 14.6107L189.586 19.8979C188.265 20.7791 186.414 20.9554 184.827 20.1624L179.007 17.2548L179.541 25.8904L185.536 28.8861C186.947 29.591 188.71 29.5909 190.296 28.6216L205.629 18.6637C206.951 17.7824 207.743 16.1963 207.742 14.434L206.498 -4.24681C206.498 -6.00915 205.439 -7.41899 204.028 -8.12387L187.452 -16.4063C186.041 -17.1112 184.278 -17.111 182.692 -16.1417L167.271 -6.00769C165.949 -5.12647 165.157 -3.54033 165.158 -1.77798L165.958 10.7346L166.491 19.3702L167.291 31.8828C167.38 33.4689 166.587 35.0549 165.178 36.1124L156.982 41.4879C155.661 42.3691 153.81 42.5454 152.223 41.7524L143.405 37.347C141.994 36.6421 140.936 35.2321 140.759 33.3817L140.048 23.777C139.959 22.1909 140.752 20.6047 142.162 19.5472L150.357 14.1718C151.679 13.2906 153.53 13.1142 155.117 13.9072L160.76 16.7268L160.226 8.09134L154.407 5.18368C152.996 4.4788 151.233 4.47886 149.647 5.44821L134.226 15.5822C132.905 16.4635 132.112 18.0497 132.113 19.812L133.269 38.2284C133.358 39.8145 134.328 41.4006 135.915 42.1936L152.668 50.5641C154.079 51.269 155.842 51.269 157.428 50.2997L172.849 40.1656Z" fill="#8247E5"/>
</g>
</g>
<mask id="mask29_4790_34903" style="mask-type:luminance" maskUnits="userSpaceOnUse" x="342" y="269" width="94" height="98">
<path d="M401.346 366.602L435.16 298.927L376.085 269.41L342.271 337.085L401.346 366.602Z" fill="white"/>
</mask>
<g mask="url(#mask29_4790_34903)">
<path d="M391.634 341.048C392.956 340.167 393.748 338.581 393.747 336.819L392.859 324.042L392.502 315.494L391.526 302.893C391.437 301.307 392.229 299.721 393.639 298.664L402.01 293.376C403.332 292.495 405.183 292.319 406.77 293.112L415.588 297.517C416.998 298.222 418.057 299.632 418.234 301.483L418.856 311.264C418.945 312.85 418.153 314.436 416.743 315.493L408.372 320.781C407.05 321.662 405.199 321.838 403.612 321.045L397.792 318.137L398.326 326.773L404.321 329.769C405.732 330.474 407.495 330.474 409.081 329.504L424.414 319.546C425.736 318.665 426.528 317.079 426.528 315.317L425.284 296.636C425.283 294.874 424.224 293.464 422.813 292.759L406.237 284.476C404.826 283.771 403.063 283.772 401.477 284.741L386.056 294.875C384.734 295.756 383.942 297.342 383.943 299.105L384.743 311.617L385.276 320.253L386.076 332.765C386.165 334.352 385.373 335.938 383.963 336.995L375.768 342.371C374.446 343.252 372.595 343.428 371.008 342.635L362.19 338.23C360.78 337.525 359.721 336.115 359.544 334.264L358.834 324.66C358.745 323.074 359.537 321.487 360.947 320.43L369.142 315.054C370.464 314.173 372.315 313.997 373.902 314.79L379.545 317.609L379.012 308.974L373.192 306.066C371.781 305.361 370.018 305.362 368.432 306.331L353.011 316.465C351.69 317.346 350.897 318.932 350.898 320.695L352.054 339.111C352.143 340.697 353.113 342.283 354.7 343.076L371.453 351.447C372.864 352.152 374.627 352.152 376.213 351.182L391.634 341.048Z" fill="#8247E5"/>
</g>
<mask id="mask30_4790_34903" style="mask-type:luminance" maskUnits="userSpaceOnUse" x="165" y="180" width="93" height="99">
<path d="M224.12 278.05L257.934 210.375L198.858 180.858L165.044 248.533L224.12 278.05Z" fill="white"/>
</mask>
<g mask="url(#mask30_4790_34903)">
<g opacity="0.4">
<path d="M214.412 252.497C215.734 251.616 216.526 250.03 216.526 248.267L215.637 235.49L215.28 226.943L214.304 214.342C214.215 212.756 215.008 211.17 216.417 210.112L224.789 204.825C226.111 203.944 227.962 203.768 229.549 204.561L238.366 208.966C239.777 209.671 240.835 211.081 241.013 212.931L241.635 222.712C241.724 224.298 240.931 225.885 239.521 226.942L231.15 232.229C229.828 233.111 227.977 233.287 226.39 232.494L220.571 229.586L221.104 238.222L227.1 241.217C228.511 241.922 230.274 241.922 231.86 240.953L247.193 230.995C248.514 230.114 249.307 228.528 249.306 226.765L248.062 208.085C248.061 206.322 247.003 204.912 245.592 204.208L229.015 195.925C227.605 195.22 225.842 195.22 224.255 196.19L208.835 206.324C207.513 207.205 206.72 208.791 206.721 210.553L207.521 223.066L208.055 231.702L208.854 244.214C208.943 245.8 208.151 247.386 206.741 248.444L198.546 253.819C197.224 254.701 195.373 254.877 193.786 254.084L184.969 249.678C183.558 248.973 182.499 247.564 182.322 245.713L181.612 236.108C181.523 234.522 182.315 232.936 183.725 231.879L191.92 226.503C193.242 225.622 195.093 225.446 196.68 226.239L202.323 229.058L201.79 220.423L195.971 217.515C194.56 216.81 192.797 216.81 191.211 217.78L175.79 227.914C174.468 228.795 173.675 230.381 173.676 232.143L174.832 250.56C174.921 252.146 175.891 253.732 177.479 254.525L194.231 262.896C195.642 263.6 197.405 263.6 198.991 262.631L214.412 252.497Z" fill="#8247E5"/>
</g>
</g>
<mask id="mask31_4790_34903" style="mask-type:luminance" maskUnits="userSpaceOnUse" x="283" y="239" width="94" height="99">
<path d="M342.268 337.085L376.082 269.41L317.006 239.893L283.192 307.568L342.268 337.085Z" fill="white"/>
</mask>
<g mask="url(#mask31_4790_34903)">
<g opacity="0.4">
<path d="M332.56 311.531C333.881 310.65 334.674 309.064 334.673 307.301L333.785 294.524L333.428 285.977L332.451 273.376C332.362 271.79 333.155 270.204 334.565 269.147L342.936 263.859C344.258 262.978 346.109 262.802 347.696 263.595L356.513 268C357.924 268.705 358.983 270.115 359.16 271.965L359.782 281.746C359.871 283.333 359.079 284.919 357.669 285.976L349.297 291.264C347.976 292.145 346.125 292.321 344.537 291.528L338.718 288.62L339.251 297.256L345.247 300.252C346.658 300.957 348.421 300.956 350.007 299.987L365.34 290.029C366.662 289.148 367.454 287.562 367.453 285.8L366.209 267.119C366.208 265.356 365.15 263.947 363.739 263.242L347.163 254.959C345.752 254.254 343.989 254.254 342.403 255.224L326.982 265.358C325.66 266.239 324.868 267.825 324.869 269.588L325.669 282.1L326.202 290.736L327.002 303.248C327.091 304.834 326.298 306.421 324.888 307.478L316.693 312.853C315.372 313.735 313.521 313.911 311.933 313.118L303.116 308.712C301.705 308.008 300.647 306.598 300.47 304.747L299.759 295.143C299.67 293.556 300.463 291.97 301.873 290.913L310.068 285.537C311.39 284.656 313.241 284.48 314.828 285.273L320.471 288.092L319.937 279.457L314.118 276.549C312.707 275.844 310.944 275.844 309.358 276.814L293.937 286.948C292.615 287.829 291.823 289.415 291.824 291.178L292.979 309.594C293.068 311.18 294.039 312.766 295.626 313.559L312.379 321.93C313.79 322.635 315.553 322.635 317.139 321.665L332.56 311.531Z" fill="#8247E5"/>
</g>
</g>
<mask id="mask32_4790_34903" style="mask-type:luminance" maskUnits="userSpaceOnUse" x="105" y="151" width="94" height="98">
<path d="M165.042 248.533L198.855 180.858L139.78 151.341L105.966 219.016L165.042 248.533Z" fill="white"/>
</mask>
<g mask="url(#mask32_4790_34903)">
<path d="M155.33 222.979C156.652 222.098 157.444 220.512 157.444 218.75L156.555 205.973L156.198 197.425L155.222 184.825C155.133 183.238 155.925 181.652 157.335 180.595L165.707 175.308C167.029 174.426 168.88 174.25 170.467 175.043L179.284 179.449C180.695 180.153 181.753 181.563 181.931 183.414L182.553 193.195C182.642 194.781 181.849 196.367 180.439 197.424L172.068 202.712C170.746 203.593 168.895 203.769 167.308 202.976L161.489 200.069L162.022 208.704L168.018 211.7C169.429 212.405 171.192 212.405 172.778 211.435L188.11 201.478C189.432 200.596 190.225 199.01 190.224 197.248L188.98 178.567C188.979 176.805 187.92 175.395 186.51 174.69L169.933 166.408C168.523 165.703 166.76 165.703 165.173 166.672L149.752 176.806C148.431 177.687 147.638 179.273 147.639 181.036L148.439 193.548L148.972 202.184L149.772 214.697C149.861 216.283 149.069 217.869 147.659 218.926L139.464 224.302C138.142 225.183 136.291 225.359 134.704 224.566L125.887 220.161C124.476 219.456 123.417 218.046 123.24 216.196L122.53 206.591C122.441 205.005 123.233 203.419 124.643 202.361L132.838 196.986C134.16 196.104 136.011 195.928 137.598 196.721L143.241 199.541L142.708 190.905L136.889 187.997C135.478 187.293 133.715 187.293 132.129 188.262L116.708 198.396C115.386 199.277 114.593 200.863 114.594 202.626L115.75 221.042C115.839 222.628 116.809 224.214 118.397 225.007L135.149 233.378C136.56 234.083 138.323 234.083 139.909 233.113L155.33 222.979Z" fill="#8247E5"/>
</g>
<mask id="mask33_4790_34903" style="mask-type:luminance" maskUnits="userSpaceOnUse" x="224" y="210" width="94" height="98">
<path d="M283.194 307.568L317.008 239.893L257.932 210.376L224.118 278.051L283.194 307.568Z" fill="white"/>
</mask>
<g mask="url(#mask33_4790_34903)">
<path d="M273.485 282.014C274.807 281.133 275.6 279.547 275.599 277.784L274.711 265.007L274.353 256.46L273.377 243.859C273.288 242.273 274.081 240.687 275.491 239.63L283.862 234.342C285.184 233.461 287.035 233.285 288.622 234.078L297.439 238.483C298.85 239.188 299.909 240.598 300.086 242.448L300.708 252.229C300.797 253.815 300.004 255.402 298.595 256.459L290.223 261.746C288.901 262.628 287.05 262.804 285.463 262.011L279.644 259.103L280.177 267.739L286.173 270.735C287.584 271.439 289.347 271.439 290.933 270.47L306.266 260.512C307.588 259.631 308.38 258.045 308.379 256.282L307.135 237.602C307.134 235.839 306.076 234.429 304.665 233.725L288.089 225.442C286.678 224.737 284.915 224.737 283.329 225.707L267.908 235.841C266.586 236.722 265.793 238.308 265.794 240.071L266.594 252.583L267.128 261.219L267.928 273.731C268.017 275.317 267.224 276.903 265.814 277.961L257.619 283.336C256.297 284.218 254.446 284.394 252.859 283.601L244.042 279.195C242.631 278.49 241.573 277.081 241.395 275.23L240.685 265.625C240.596 264.039 241.389 262.453 242.799 261.396L250.994 256.02C252.315 255.139 254.166 254.963 255.754 255.756L261.397 258.575L260.863 249.94L255.044 247.032C253.633 246.327 251.87 246.327 250.284 247.297L234.863 257.431C233.541 258.312 232.749 259.898 232.75 261.66L233.905 280.077C233.994 281.663 234.965 283.249 236.552 284.042L253.305 292.413C254.715 293.118 256.478 293.117 258.065 292.148L273.485 282.014Z" fill="#8247E5"/>
</g>
<mask id="mask34_4790_34903" style="mask-type:luminance" maskUnits="userSpaceOnUse" x="-8" y="94" width="94" height="98">
<path d="M51.3774 191.74L85.1914 124.065L26.1158 94.5478L-7.69817 162.223L51.3774 191.74Z" fill="white"/>
</mask>
<g mask="url(#mask34_4790_34903)">
<path d="M41.6655 166.187C42.9873 165.306 43.7798 163.72 43.7789 161.958L42.8907 149.181L42.5336 140.633L41.5573 128.033C41.4683 126.446 42.2608 124.86 43.6707 123.803L52.0421 118.516C53.3639 117.634 55.2149 117.458 56.802 118.251L65.6193 122.657C67.0301 123.361 68.0886 124.771 68.2659 126.622L68.8881 136.403C68.977 137.989 68.1845 139.575 66.7747 140.632L58.4033 145.92C57.0815 146.801 55.2304 146.977 53.6433 146.184L47.8239 143.277L48.3574 151.912L54.3531 154.908C55.7639 155.613 57.5269 155.613 59.113 154.643L74.4458 144.686C75.7676 143.804 76.5601 142.218 76.5592 140.456L75.3153 121.775C75.3144 120.013 74.2558 118.603 72.8451 117.898L56.2686 109.616C54.8578 108.911 53.0949 108.911 51.5087 109.88L36.0878 120.014C34.766 120.895 33.9735 122.481 33.9745 124.244L34.7744 136.756L35.3078 145.392L36.1077 157.905C36.1967 159.491 35.4042 161.077 33.9944 162.134L25.7993 167.51C24.4775 168.391 22.6264 168.567 21.0393 167.774L12.2221 163.369C10.8113 162.664 9.75273 161.254 9.57546 159.404L8.86522 149.799C8.77624 148.213 9.56875 146.627 10.9786 145.569L19.1737 140.194C20.4955 139.312 22.3465 139.136 23.9336 139.929L29.5767 142.749L29.0433 134.113L23.2239 131.206C21.8131 130.501 20.0501 130.501 18.4639 131.47L3.04305 141.604C1.72127 142.485 0.928762 144.071 0.929688 145.834L2.0853 164.25C2.17428 165.836 3.14476 167.422 4.73186 168.215L21.4847 176.586C22.8955 177.291 24.6585 177.291 26.2446 176.321L41.6655 166.187Z" fill="#8247E5"/>
</g>
<mask id="mask35_4790_34903" style="mask-type:luminance" maskUnits="userSpaceOnUse" x="46" y="121" width="94" height="99">
<path d="M105.967 219.016L139.781 151.341L80.7056 121.824L46.8917 189.499L105.967 219.016Z" fill="white"/>
</mask>
<g mask="url(#mask35_4790_34903)">
<g opacity="0.4">
<path d="M96.2552 193.462C97.577 192.581 98.3695 190.995 98.3686 189.233L97.4804 176.456L97.1233 167.908L96.1471 155.308C96.0581 153.721 96.8506 152.135 98.2604 151.078L106.632 145.79C107.953 144.909 109.804 144.733 111.391 145.526L120.209 149.931C121.62 150.636 122.678 152.046 122.855 153.897L123.478 163.678C123.566 165.264 122.774 166.85 121.364 167.907L112.993 173.195C111.671 174.076 109.82 174.252 108.233 173.459L102.413 170.552L102.947 179.187L108.943 182.183C110.353 182.888 112.116 182.888 113.702 181.918L129.035 171.96C130.357 171.079 131.15 169.493 131.149 167.731L129.905 149.05C129.904 147.288 128.845 145.878 127.435 145.173L110.858 136.89C109.447 136.186 107.684 136.186 106.098 137.155L90.6776 147.289C89.3558 148.17 88.5633 149.756 88.5642 151.519L89.3641 164.031L89.8976 172.667L90.6975 185.179C90.7864 186.766 89.9939 188.352 88.5841 189.409L80.389 194.785C79.0672 195.666 77.2162 195.842 75.6291 195.049L66.8118 190.644C65.401 189.939 64.3425 188.529 64.1652 186.678L63.455 177.074C63.366 175.488 64.1585 173.901 65.5684 172.844L73.7635 167.469C75.0852 166.587 76.9363 166.411 78.5234 167.204L84.1664 170.024L83.633 161.388L77.8136 158.48C76.4029 157.776 74.6399 157.776 73.0537 158.745L57.6328 168.879C56.3111 169.76 55.5185 171.346 55.5195 173.109L56.6751 191.525C56.7641 193.111 57.7345 194.697 59.3216 195.49L76.0745 203.861C77.4852 204.566 79.2482 204.566 80.8344 203.596L96.2552 193.462Z" fill="#8247E5"/>
</g>
</g>
<mask id="mask36_4790_34903" style="mask-type:luminance" maskUnits="userSpaceOnUse" x="495" y="-38" width="94" height="99">
<path d="M554.534 60.0108L588.348 -7.66455L529.272 -37.1817L495.458 30.4936L554.534 60.0108Z" fill="white"/>
</mask>
<g mask="url(#mask36_4790_34903)">
<path d="M544.826 34.4571C546.148 33.5759 546.941 31.9897 546.94 30.2274L546.051 17.4504L545.694 8.90302L544.718 -3.69772C544.629 -5.28382 545.422 -6.86995 546.831 -7.92741L555.203 -13.2147C556.525 -14.0959 558.376 -14.2722 559.963 -13.4793L568.78 -9.07377C570.191 -8.36888 571.249 -6.95904 571.427 -5.10859L572.049 4.67241C572.138 6.25851 571.345 7.84465 569.935 8.90211L561.564 14.1895C560.242 15.0707 558.391 15.247 556.804 14.454L550.985 11.5464L551.518 20.1819L557.514 23.1776C558.925 23.8825 560.688 23.8824 562.274 22.9131L577.607 12.9553C578.928 12.0741 579.721 10.4879 579.72 8.72552L578.476 -9.9553C578.475 -11.7176 577.417 -13.1274 576.006 -13.8323L559.429 -22.1147C558.019 -22.8196 556.256 -22.8195 554.669 -21.8502L539.249 -11.7161C537.927 -10.8349 537.134 -9.24881 537.135 -7.48647L537.935 5.02616L538.469 13.6617L539.268 26.1743C539.357 27.7604 538.565 29.3465 537.155 30.404L528.96 35.7795C527.638 36.6607 525.787 36.837 524.2 36.044L515.383 31.6385C513.972 30.9336 512.914 29.5237 512.736 27.6733L512.026 18.0685C511.937 16.4824 512.73 14.8963 514.139 13.8388L522.334 8.4633C523.656 7.58208 525.507 7.40578 527.094 8.19877L532.737 11.0184L532.204 2.38284L526.385 -0.524809C524.974 -1.2297 523.211 -1.22962 521.625 -0.260277L506.204 9.87378C504.882 10.7551 504.09 12.3412 504.09 14.1035L505.246 32.52C505.335 34.1061 506.306 35.6922 507.893 36.4852L524.645 44.8557C526.056 45.5606 527.819 45.5605 529.405 44.5912L544.826 34.4571Z" fill="#8247E5"/>
</g>
<mask id="mask37_4790_34903" style="mask-type:luminance" maskUnits="userSpaceOnUse" x="436" y="-67" width="94" height="98">
<path d="M495.456 30.4937L529.27 -37.1816L470.194 -66.6988L436.38 0.976547L495.456 30.4937Z" fill="white"/>
</mask>
<g mask="url(#mask37_4790_34903)">
<g opacity="0.4">
<path d="M485.744 4.93998C487.066 4.05876 487.859 2.47263 487.858 0.710278L486.969 -12.0667L486.612 -20.614L485.636 -33.2148C485.547 -34.8009 486.34 -36.387 487.749 -37.4445L496.121 -42.7318C497.443 -43.613 499.294 -43.7893 500.881 -42.9963L509.698 -38.5908C511.109 -37.8859 512.167 -36.4761 512.345 -34.6256L512.967 -24.8446C513.056 -23.2585 512.263 -21.6724 510.853 -20.6149L502.482 -15.3276C501.16 -14.4464 499.309 -14.2701 497.722 -15.063L491.903 -17.9707L492.436 -9.33527L498.432 -6.3395C499.843 -5.63462 501.606 -5.63468 503.192 -6.60403L518.525 -16.5618C519.846 -17.443 520.639 -19.0292 520.638 -20.7915L519.394 -39.4723C519.393 -41.2347 518.335 -42.6445 516.924 -43.3494L500.347 -51.6318C498.937 -52.3367 497.174 -52.3366 495.587 -51.3673L480.167 -41.2332C478.845 -40.352 478.052 -38.7659 478.053 -37.0035L478.853 -24.4909L479.387 -15.8554L480.186 -3.34283C480.275 -1.75672 479.483 -0.170584 478.073 0.886875L469.878 6.26233C468.556 7.14355 466.705 7.31986 465.118 6.52686L456.301 2.12133C454.89 1.41644 453.831 0.00660837 453.654 -1.84385L452.944 -11.4486C452.855 -13.0347 453.648 -14.6208 455.057 -15.6783L463.252 -21.0537C464.574 -21.935 466.425 -22.1113 468.012 -21.3183L473.655 -18.4987L473.122 -27.1342L467.303 -30.0419C465.892 -30.7467 464.129 -30.7467 462.543 -29.7773L447.122 -19.6433C445.8 -18.762 445.008 -17.1759 445.008 -15.4135L446.164 3.00288C446.253 4.58899 447.224 6.17507 448.811 6.96806L465.563 15.3386C466.974 16.0435 468.737 16.0434 470.323 15.0741L485.744 4.93998Z" fill="#8247E5"/>
</g>
</g>
<mask id="mask38_4790_34903" style="mask-type:luminance" maskUnits="userSpaceOnUse" x="380" y="192" width="94" height="98">
<path d="M439.647 289.955L473.461 222.28L414.385 192.763L380.571 260.438L439.647 289.955Z" fill="white"/>
</mask>
<g mask="url(#mask38_4790_34903)">
<g opacity="0.4">
<path d="M429.935 264.401C431.256 263.52 432.049 261.934 432.048 260.172L431.16 247.395L430.803 238.847L429.826 226.246C429.737 224.66 430.53 223.074 431.94 222.017L440.311 216.729C441.633 215.848 443.484 215.672 445.071 216.465L453.888 220.87C455.299 221.575 456.358 222.985 456.535 224.836L457.157 234.617C457.246 236.203 456.454 237.789 455.044 238.846L446.672 244.134C445.351 245.015 443.5 245.191 441.912 244.398L436.093 241.491L436.626 250.126L442.622 253.122C444.033 253.827 445.796 253.827 447.382 252.857L462.715 242.899C464.037 242.018 464.829 240.432 464.828 238.67L463.584 219.989C463.583 218.227 462.525 216.817 461.114 216.112L444.538 207.829C443.127 207.125 441.364 207.125 439.778 208.094L424.357 218.228C423.035 219.109 422.243 220.695 422.244 222.458L423.044 234.97L423.577 243.606L424.377 256.118C424.466 257.705 423.673 259.291 422.263 260.348L414.068 265.724C412.747 266.605 410.896 266.781 409.308 265.988L400.491 261.583C399.08 260.878 398.022 259.468 397.845 257.617L397.134 248.013C397.045 246.427 397.838 244.84 399.248 243.783L407.443 238.407C408.765 237.526 410.616 237.35 412.203 238.143L417.846 240.963L417.312 232.327L411.493 229.419C410.082 228.714 408.319 228.715 406.733 229.684L391.312 239.818C389.99 240.699 389.198 242.285 389.199 244.048L390.354 262.464C390.443 264.05 391.414 265.636 393.001 266.429L409.754 274.8C411.165 275.505 412.928 275.505 414.514 274.535L429.935 264.401Z" fill="#8247E5"/>
</g>
</g>
<mask id="mask39_4790_34903" style="mask-type:luminance" maskUnits="userSpaceOnUse" x="203" y="104" width="94" height="98">
<path d="M262.42 201.404L296.234 133.729L237.159 104.212L203.345 171.887L262.42 201.404Z" fill="white"/>
</mask>
<g mask="url(#mask39_4790_34903)">
<path d="M252.709 175.85C254.031 174.969 254.823 173.383 254.822 171.62L253.934 158.843L253.577 150.296L252.601 137.695C252.512 136.109 253.304 134.523 254.714 133.465L263.086 128.178C264.407 127.297 266.258 127.121 267.846 127.914L276.663 132.319C278.074 133.024 279.132 134.434 279.309 136.284L279.932 146.065C280.021 147.651 279.228 149.238 277.818 150.295L269.447 155.582C268.125 156.464 266.274 156.64 264.687 155.847L258.867 152.939L259.401 161.575L265.397 164.57C266.807 165.275 268.57 165.275 270.157 164.306L285.489 154.348C286.811 153.467 287.604 151.881 287.603 150.118L286.359 131.438C286.358 129.675 285.299 128.265 283.889 127.561L267.312 119.278C265.901 118.573 264.138 118.573 262.552 119.543L247.131 129.677C245.81 130.558 245.017 132.144 245.018 133.906L245.818 146.419L246.351 155.055L247.151 167.567C247.24 169.153 246.448 170.739 245.038 171.797L236.843 177.172C235.521 178.054 233.67 178.23 232.083 177.437L223.266 173.031C221.855 172.326 220.796 170.917 220.619 169.066L219.909 159.461C219.82 157.875 220.612 156.289 222.022 155.232L230.217 149.856C231.539 148.975 233.39 148.799 234.977 149.592L240.62 152.411L240.087 143.776L234.267 140.868C232.857 140.163 231.094 140.163 229.508 141.133L214.087 151.267C212.765 152.148 211.972 153.734 211.973 155.496L213.129 173.913C213.218 175.499 214.188 177.085 215.775 177.878L232.528 186.249C233.939 186.953 235.702 186.953 237.288 185.984L252.709 175.85Z" fill="#8247E5"/>
</g>
<mask id="mask40_4790_34903" style="mask-type:luminance" maskUnits="userSpaceOnUse" x="321" y="163" width="94" height="98">
<path d="M380.569 260.438L414.383 192.763L355.307 163.246L321.493 230.921L380.569 260.438Z" fill="white"/>
</mask>
<g mask="url(#mask40_4790_34903)">
<path d="M370.856 234.885C372.178 234.003 372.971 232.417 372.97 230.655L372.082 217.878L371.725 209.331L370.748 196.73C370.659 195.144 371.452 193.558 372.862 192.5L381.233 187.213C382.555 186.332 384.406 186.155 385.993 186.948L394.81 191.354C396.221 192.059 397.28 193.469 397.457 195.319L398.079 205.1C398.168 206.686 397.376 208.272 395.966 209.33L387.594 214.617C386.272 215.498 384.421 215.675 382.834 214.882L377.015 211.974L377.548 220.609L383.544 223.605C384.955 224.31 386.718 224.31 388.304 223.341L403.637 213.383C404.959 212.502 405.751 210.915 405.75 209.153L404.506 190.472C404.505 188.71 403.447 187.3 402.036 186.595L385.46 178.313C384.049 177.608 382.286 177.608 380.7 178.577L365.279 188.711C363.957 189.593 363.165 191.179 363.165 192.941L363.965 205.454L364.499 214.089L365.299 226.602C365.388 228.188 364.595 229.774 363.185 230.832L354.99 236.207C353.668 237.088 351.817 237.265 350.23 236.472L341.413 232.066C340.002 231.361 338.944 229.951 338.767 228.101L338.056 218.496C337.967 216.91 338.76 215.324 340.17 214.266L348.365 208.891C349.686 208.01 351.538 207.833 353.125 208.626L358.768 211.446L358.234 202.81L352.415 199.903C351.004 199.198 349.241 199.198 347.655 200.167L332.234 210.301C330.912 211.183 330.12 212.769 330.121 214.531L331.276 232.948C331.365 234.534 332.336 236.12 333.923 236.913L350.676 245.283C352.086 245.988 353.849 245.988 355.436 245.019L370.856 234.885Z" fill="#8247E5"/>
</g>
<mask id="mask41_4790_34903" style="mask-type:luminance" maskUnits="userSpaceOnUse" x="144" y="74" width="94" height="98">
<path d="M203.342 171.886L237.156 104.211L178.081 74.6938L144.267 142.369L203.342 171.886Z" fill="white"/>
</mask>
<g mask="url(#mask41_4790_34903)">
<g opacity="0.4">
<path d="M193.634 146.333C194.956 145.452 195.748 143.866 195.747 142.103L194.859 129.326L194.502 120.779L193.526 108.178C193.437 106.592 194.229 105.006 195.639 103.948L204.01 98.6613C205.332 97.78 207.183 97.6037 208.77 98.3967L217.588 102.802C218.998 103.507 220.057 104.917 220.234 106.767L220.856 116.548C220.945 118.134 220.153 119.72 218.743 120.778L210.372 126.065C209.05 126.947 207.199 127.123 205.612 126.33L199.792 123.422L200.326 132.058L206.321 135.053C207.732 135.758 209.495 135.758 211.081 134.789L226.414 124.831C227.736 123.95 228.528 122.364 228.528 120.601L227.284 101.921C227.283 100.158 226.224 98.7485 224.813 98.0437L208.237 89.7613C206.826 89.0564 205.063 89.0564 203.477 90.0258L188.056 100.16C186.734 101.041 185.942 102.627 185.943 104.389L186.743 116.902L187.276 125.537L188.076 138.05C188.165 139.636 187.373 141.222 185.963 142.28L177.768 147.655C176.446 148.536 174.595 148.713 173.008 147.92L164.19 143.514C162.78 142.809 161.721 141.4 161.544 139.549L160.834 129.944C160.745 128.358 161.537 126.772 162.947 125.715L171.142 120.339C172.464 119.458 174.315 119.282 175.902 120.075L181.545 122.894L181.012 114.259L175.192 111.351C173.781 110.646 172.018 110.646 170.432 111.616L155.011 121.75C153.69 122.631 152.897 124.217 152.898 125.979L154.054 144.396C154.143 145.982 155.113 147.568 156.7 148.361L173.453 156.731C174.864 157.436 176.627 157.436 178.213 156.467L193.634 146.333Z" fill="#8247E5"/>
</g>
</g>
<mask id="mask42_4790_34903" style="mask-type:luminance" maskUnits="userSpaceOnUse" x="262" y="133" width="94" height="98">
<path d="M321.495 230.921L355.309 163.246L296.233 133.729L262.419 201.404L321.495 230.921Z" fill="white"/>
</mask>
<g mask="url(#mask42_4790_34903)">
<g opacity="0.4">
<path d="M311.782 205.367C313.104 204.486 313.897 202.9 313.896 201.137L313.007 188.36L312.65 179.813L311.674 167.212C311.585 165.626 312.378 164.04 313.787 162.983L322.159 157.695C323.481 156.814 325.332 156.638 326.919 157.431L335.736 161.836C337.147 162.541 338.205 163.951 338.383 165.801L339.005 175.582C339.094 177.169 338.301 178.755 336.891 179.812L328.52 185.099C327.198 185.981 325.347 186.157 323.76 185.364L317.941 182.456L318.474 191.092L324.47 194.088C325.881 194.792 327.644 194.792 329.23 193.823L344.563 183.865C345.884 182.984 346.677 181.398 346.676 179.636L345.432 160.955C345.431 159.192 344.373 157.783 342.962 157.078L326.385 148.795C324.975 148.09 323.212 148.09 321.625 149.06L306.205 159.194C304.883 160.075 304.09 161.661 304.091 163.424L304.891 175.936L305.425 184.572L306.225 197.084C306.313 198.67 305.521 200.256 304.111 201.314L295.916 206.689C294.594 207.571 292.743 207.747 291.156 206.954L282.339 202.548C280.928 201.844 279.87 200.434 279.692 198.583L278.982 188.978C278.893 187.392 279.686 185.806 281.095 184.749L289.291 179.373C290.612 178.492 292.463 178.316 294.05 179.109L299.693 181.928L299.16 173.293L293.341 170.385C291.93 169.68 290.167 169.68 288.581 170.65L273.16 180.784C271.838 181.665 271.046 183.251 271.047 185.013L272.202 203.43C272.291 205.016 273.262 206.602 274.849 207.395L291.601 215.766C293.012 216.471 294.775 216.47 296.361 215.501L311.782 205.367Z" fill="#8247E5"/>
</g>
</g>
<mask id="mask43_4790_34903" style="mask-type:luminance" maskUnits="userSpaceOnUse" x="30" y="17" width="94" height="99">
<path d="M89.6782 115.094L123.492 47.4185L64.4166 17.9013L30.6026 85.5766L89.6782 115.094Z" fill="white"/>
</mask>
<g mask="url(#mask43_4790_34903)">
<g opacity="0.4">
<path d="M79.9663 89.5401C81.2881 88.6589 82.0806 87.0728 82.0796 85.3104L81.1914 72.5334L80.8343 63.9861L79.8581 51.3853C79.7691 49.7992 80.5616 48.2131 81.9715 47.1556L90.3429 41.8683C91.6647 40.9871 93.5157 40.8108 95.1028 41.6038L103.92 46.0093C105.33 46.7142 106.389 48.124 106.566 49.9745L107.188 59.7555C107.277 61.3416 106.485 62.9277 105.075 63.9852L96.704 69.2725C95.3823 70.1537 93.5312 70.33 91.9441 69.537L86.1247 66.6294L86.6581 75.2649L92.6539 78.2606C94.0646 78.9655 95.8276 78.9655 97.4138 77.9961L112.746 68.0383C114.068 67.1571 114.861 65.5709 114.86 63.8086L113.616 45.1278C113.615 43.3654 112.556 41.9556 111.145 41.2507L94.5694 32.9683C93.1586 32.2634 91.3956 32.2635 89.8095 33.2328L74.3886 43.3669C73.0668 44.2481 72.2743 45.8342 72.2752 47.5966L73.0752 60.1092L73.6086 68.7447L74.4085 81.2573C74.4975 82.8434 73.705 84.4295 72.2951 85.487L64.1001 90.8625C62.7783 91.7437 60.9272 91.92 59.3401 91.127L50.5228 86.7215C49.1121 86.0166 48.0536 84.6067 47.8763 82.7563L47.166 73.1515C47.0771 71.5654 47.8696 69.9793 49.2794 68.9218L57.4745 63.5464C58.7963 62.6651 60.6473 62.4888 62.2344 63.2818L67.8775 66.1014L67.344 57.4659L61.5247 54.5582C60.1139 53.8534 58.3509 53.8534 56.7647 54.8228L41.3439 64.9568C40.0221 65.8381 39.2296 67.4242 39.2305 69.1865L40.3861 87.603C40.4751 89.1891 41.4456 90.7752 43.0327 91.5682L59.7855 99.9387C61.1963 100.643 62.9592 100.643 64.5454 99.6742L79.9663 89.5401Z" fill="#8247E5"/>
</g>
</g>
<mask id="mask44_4790_34903" style="mask-type:luminance" maskUnits="userSpaceOnUse" x="-57" y="70" width="93" height="98">
<path d="M2.07667 167.192L35.8906 99.5171L-23.185 70L-56.999 137.675L2.07667 167.192Z" fill="white"/>
</mask>
<g mask="url(#mask44_4790_34903)">
<g opacity="0.4">
<path d="M-7.63529 141.639C-6.31349 140.757 -5.521 139.171 -5.522 137.409L-6.41019 124.632L-6.7673 116.085L-7.74349 103.484C-7.83249 101.898 -7.04 100.312 -5.6301 99.2542L2.7413 93.9669C4.0631 93.0857 5.91411 92.9094 7.50121 93.7024L16.3188 98.1079C17.7288 98.8128 18.7878 100.223 18.9648 102.073L19.5868 111.854C19.6758 113.44 18.8838 115.026 17.4738 116.084L9.1024 121.371C7.7807 122.252 5.92961 122.429 4.34251 121.636L-1.4769 118.728L-0.943497 127.363L5.05231 130.359C6.46301 131.064 8.226 131.064 9.8122 130.095L25.1448 120.137C26.4668 119.256 27.2598 117.669 27.2588 115.907L26.0148 97.2264C26.0138 95.464 24.9548 94.0542 23.5438 93.3493L6.9678 85.0669C5.557 84.362 3.794 84.3621 2.2079 85.3314L-13.213 95.4655C-14.5348 96.3467 -15.3273 97.9328 -15.3264 99.6952L-14.5264 112.208L-13.993 120.843L-13.1931 133.356C-13.1041 134.942 -13.8966 136.528 -15.3065 137.586L-23.5015 142.961C-24.8233 143.842 -26.6744 144.019 -28.2615 143.226L-37.0788 138.82C-38.4895 138.115 -39.548 136.705 -39.7253 134.855L-40.4356 125.25C-40.5245 123.664 -39.732 122.078 -38.3222 121.02L-30.1271 115.645C-28.8053 114.764 -26.9543 114.587 -25.3672 115.38L-19.7241 118.2L-20.2576 109.564L-26.0769 106.657C-27.4877 105.952 -29.2507 105.952 -30.8369 106.921L-46.2577 117.055C-47.5795 117.937 -48.372 119.523 -48.3711 121.285L-47.2155 139.702C-47.1265 141.288 -46.156 142.874 -44.5689 143.667L-27.8161 152.037C-26.4053 152.742 -24.6424 152.742 -23.0562 151.773L-7.63529 141.639Z" fill="#8247E5"/>
</g>
</g>
<mask id="mask45_4790_34903" style="mask-type:luminance" maskUnits="userSpaceOnUse" x="85" y="45" width="94" height="98">
<path d="M144.268 142.37L178.082 74.6943L119.006 45.1772L85.1925 112.853L144.268 142.37Z" fill="white"/>
</mask>
<g mask="url(#mask45_4790_34903)">
<path d="M134.56 116.816C135.881 115.935 136.674 114.348 136.673 112.586L135.785 99.8093L135.428 91.262L134.451 78.6612C134.362 77.0751 135.155 75.489 136.565 74.4315L144.936 69.1442C146.258 68.2629 148.109 68.0866 149.696 68.8796L158.513 73.2852C159.924 73.9901 160.983 75.3999 161.16 77.2503L161.782 87.0313C161.871 88.6175 161.079 90.2036 159.669 91.261L151.297 96.5484C149.976 97.4296 148.125 97.6059 146.537 96.8129L140.718 93.9053L141.251 102.541L147.247 105.536C148.658 106.241 150.421 106.241 152.007 105.272L167.34 95.3142C168.662 94.4329 169.454 92.8468 169.453 91.0844L168.209 72.4036C168.208 70.6413 167.15 69.2315 165.739 68.5266L149.163 60.2442C147.752 59.5393 145.989 59.5393 144.403 60.5087L128.982 70.6428C127.66 71.524 126.868 73.1101 126.869 74.8725L127.669 87.3851L128.202 96.0206L129.002 108.533C129.091 110.119 128.298 111.705 126.888 112.763L118.693 118.138C117.372 119.019 115.521 119.196 113.933 118.403L105.116 113.997C103.705 113.292 102.647 111.882 102.47 110.032L101.759 100.427C101.67 98.8413 102.463 97.2552 103.873 96.1977L112.068 90.8222C113.39 89.941 115.241 89.7647 116.828 90.5577L122.471 93.3773L121.937 84.7418L116.118 81.8341C114.707 81.1292 112.944 81.1293 111.358 82.0987L95.9375 92.2327C94.6157 93.1139 93.8232 94.7001 93.8242 96.4624L94.9798 114.879C95.0687 116.465 96.0392 118.051 97.6263 118.844L114.379 127.214C115.79 127.919 117.553 127.919 119.139 126.95L134.56 116.816Z" fill="#8247E5"/>
</g>
<mask id="mask46_4790_34903" style="mask-type:luminance" maskUnits="userSpaceOnUse" x="126" y="257" width="94" height="98">
<path d="M185.819 354.7L219.633 287.025L160.557 257.508L126.743 325.183L185.819 354.7Z" fill="white"/>
</mask>
<g mask="url(#mask46_4790_34903)">
<path d="M176.11 329.147C177.432 328.266 178.225 326.679 178.224 324.917L177.336 312.14L176.978 303.593L176.002 290.992C175.913 289.406 176.706 287.82 178.116 286.762L186.487 281.475C187.809 280.594 189.66 280.417 191.247 281.21L200.064 285.616C201.475 286.321 202.534 287.731 202.711 289.581L203.333 299.362C203.422 300.948 202.629 302.534 201.22 303.592L192.848 308.879C191.526 309.76 189.675 309.937 188.088 309.144L182.269 306.236L182.802 314.872L188.798 317.867C190.209 318.572 191.972 318.572 193.558 317.603L208.891 307.645C210.213 306.764 211.005 305.178 211.004 303.415L209.76 284.734C209.759 282.972 208.701 281.562 207.29 280.857L190.714 272.575C189.303 271.87 187.54 271.87 185.954 272.84L170.533 282.974C169.211 283.855 168.418 285.441 168.419 287.203L169.219 299.716L169.753 308.351L170.553 320.864C170.642 322.45 169.849 324.036 168.439 325.094L160.244 330.469C158.922 331.35 157.071 331.527 155.484 330.734L146.667 326.328C145.256 325.623 144.198 324.213 144.02 322.363L143.31 312.758C143.221 311.172 144.014 309.586 145.424 308.529L153.619 303.153C154.94 302.272 156.791 302.096 158.379 302.889L164.022 305.708L163.488 297.073L157.669 294.165C156.258 293.46 154.495 293.46 152.909 294.43L137.488 304.564C136.166 305.445 135.374 307.031 135.375 308.793L136.53 327.21C136.619 328.796 137.59 330.382 139.177 331.175L155.93 339.545C157.34 340.25 159.103 340.25 160.69 339.281L176.11 329.147Z" fill="#8247E5"/>
</g>
<mask id="mask47_4790_34903" style="mask-type:luminance" maskUnits="userSpaceOnUse" x="67" y="227" width="94" height="99">
<path d="M126.741 325.183L160.555 257.508L101.479 227.991L67.6651 295.666L126.741 325.183Z" fill="white"/>
</mask>
<g mask="url(#mask47_4790_34903)">
<g opacity="0.4">
<path d="M117.028 299.63C118.35 298.749 119.143 297.162 119.142 295.4L118.254 282.623L117.896 274.076L116.92 261.475C116.831 259.889 117.624 258.303 119.034 257.245L127.405 251.958C128.727 251.077 130.578 250.9 132.165 251.693L140.982 256.099C142.393 256.804 143.451 258.214 143.629 260.064L144.251 269.845C144.34 271.431 143.547 273.017 142.138 274.075L133.766 279.362C132.444 280.243 130.593 280.42 129.006 279.627L123.187 276.719L123.72 285.355L129.716 288.35C131.127 289.055 132.89 289.055 134.476 288.086L149.809 278.128C151.13 277.247 151.923 275.661 151.922 273.898L150.678 255.217C150.677 253.455 149.619 252.045 148.208 251.34L131.631 243.058C130.221 242.353 128.458 242.353 126.872 243.322L111.451 253.457C110.129 254.338 109.336 255.924 109.337 257.686L110.137 270.199L110.671 278.834L111.471 291.347C111.56 292.933 110.767 294.519 109.357 295.577L101.162 300.952C99.8408 301.833 97.9897 302.01 96.4026 301.217L87.5853 296.811C86.1746 296.106 85.1161 294.696 84.9388 292.846L84.2285 283.241C84.1396 281.655 84.9321 280.069 86.3419 279.011L94.537 273.636C95.8588 272.755 97.7098 272.578 99.2969 273.371L104.94 276.191L104.406 267.556L98.5872 264.648C97.1764 263.943 95.4134 263.943 93.8272 264.912L78.4064 275.046C77.0846 275.928 76.2921 277.514 76.293 279.276L77.4486 297.693C77.5376 299.279 78.5081 300.865 80.0952 301.658L96.848 310.028C98.2588 310.733 100.021 310.733 101.608 309.764L117.028 299.63Z" fill="#8247E5"/>
</g>
</g>
<mask id="mask48_4790_34903" style="mask-type:luminance" maskUnits="userSpaceOnUse" x="-17" y="279" width="93" height="98">
<path d="M42.1509 376.709L75.9648 309.034L16.8892 279.517L-16.9247 347.192L42.1509 376.709Z" fill="white"/>
</mask>
<g mask="url(#mask48_4790_34903)">
<g opacity="0.4">
<path d="M32.4385 351.156C33.7605 350.275 34.5535 348.688 34.5525 346.926L33.6645 334.149L33.3065 325.602L32.3305 313.001C32.2415 311.415 33.0345 309.829 34.4445 308.771L42.8155 303.484C44.1375 302.603 45.9885 302.426 47.5755 303.219L56.3925 307.625C57.8035 308.33 58.8615 309.74 59.0395 311.59L59.6615 321.371C59.7505 322.957 58.9575 324.543 57.5485 325.601L49.1765 330.888C47.8545 331.769 46.0035 331.946 44.4165 331.153L38.5975 328.245L39.1305 336.881L45.1265 339.876C46.5375 340.581 48.3005 340.581 49.8865 339.612L65.2195 329.654C66.5405 328.773 67.3335 327.187 67.3325 325.424L66.0885 306.743C66.0875 304.981 65.0295 303.571 63.6185 302.866L47.0415 294.584C45.6315 293.879 43.8685 293.879 42.2825 294.848L26.8615 304.983C25.5395 305.864 24.7465 307.45 24.7475 309.212L25.5475 321.725L26.0815 330.36L26.8815 342.873C26.9705 344.459 26.1775 346.045 24.7675 347.103L16.5725 352.478C15.2509 353.359 13.3998 353.536 11.8127 352.743L2.99542 348.337C1.58472 347.632 0.526224 346.222 0.348924 344.372L-0.361373 334.767C-0.450273 333.181 0.342223 331.595 1.75202 330.537L9.94712 325.162C11.2689 324.281 13.1199 324.104 14.707 324.897L20.3505 327.717L19.8165 319.082L13.9973 316.174C12.5865 315.469 10.8235 315.469 9.23732 316.438L-6.18348 326.572C-7.50528 327.454 -8.29777 329.04 -8.29687 330.802L-7.14127 349.219C-7.05227 350.805 -6.08177 352.391 -4.49467 353.184L12.2581 361.554C13.6689 362.259 15.4315 362.259 17.0185 361.29L32.4385 351.156Z" fill="#8247E5"/>
</g>
</g>
<mask id="mask49_4790_34903" style="mask-type:luminance" maskUnits="userSpaceOnUse" x="185" y="287" width="94" height="98">
<path d="M244.893 384.217L278.707 316.542L219.631 287.025L185.817 354.7L244.893 384.217Z" fill="white"/>
</mask>
<g mask="url(#mask49_4790_34903)">
<g opacity="0.4">
<path d="M235.185 358.664C236.506 357.783 237.299 356.197 237.298 354.434L236.41 341.657L236.053 333.11L235.076 320.509C234.987 318.923 235.78 317.337 237.19 316.279L245.561 310.992C246.883 310.111 248.734 309.935 250.321 310.728L259.138 315.133C260.549 315.838 261.608 317.248 261.785 319.098L262.407 328.879C262.496 330.465 261.704 332.052 260.294 333.109L251.922 338.396C250.601 339.278 248.75 339.454 247.162 338.661L241.343 335.753L241.876 344.389L247.872 347.384C249.283 348.089 251.046 348.089 252.632 347.12L267.965 337.162C269.287 336.281 270.079 334.695 270.078 332.932L268.834 314.252C268.833 312.489 267.775 311.079 266.364 310.375L249.788 302.092C248.377 301.387 246.614 301.387 245.028 302.357L229.607 312.491C228.285 313.372 227.493 314.958 227.494 316.72L228.294 329.233L228.827 337.869L229.627 350.381C229.716 351.967 228.923 353.553 227.513 354.611L219.318 359.986C217.997 360.868 216.146 361.044 214.558 360.251L205.741 355.845C204.33 355.14 203.272 353.731 203.095 351.88L202.384 342.275C202.295 340.689 203.088 339.103 204.498 338.046L212.693 332.67C214.015 331.789 215.866 331.613 217.453 332.406L223.096 335.225L222.562 326.59L216.743 323.682C215.332 322.977 213.569 322.977 211.983 323.947L196.562 334.081C195.24 334.962 194.448 336.548 194.449 338.31L195.604 356.727C195.693 358.313 196.664 359.899 198.251 360.692L215.004 369.063C216.415 369.767 218.178 369.767 219.764 368.798L235.185 358.664Z" fill="#8247E5"/>
</g>
</g>
<mask id="mask50_4790_34903" style="mask-type:luminance" maskUnits="userSpaceOnUse" x="-46" y="171" width="93" height="98">
<path d="M13.0767 268.39L46.8906 200.715L-12.185 171.198L-45.999 238.873L13.0767 268.39Z" fill="white"/>
</mask>
<g mask="url(#mask50_4790_34903)">
<g opacity="0.4">
<path d="M3.36472 242.837C4.6865 241.956 5.479 240.37 5.47808 238.608L4.58987 225.831L4.2328 217.283L3.25653 204.683C3.16754 203.096 3.96007 201.51 5.3699 200.453L13.7413 195.165C15.0631 194.284 16.9141 194.108 18.5013 194.901L27.3185 199.306C28.7293 200.011 29.7878 201.421 29.9651 203.272L30.5873 213.053C30.6763 214.639 29.8837 216.225 28.4739 217.282L20.1025 222.57C18.7807 223.451 16.9296 223.627 15.3425 222.834L9.52316 219.927L10.0566 228.562L16.0523 231.558C17.4631 232.263 19.2261 232.263 20.8123 231.293L36.145 221.335C37.4668 220.454 38.2593 218.868 38.2584 217.106L37.0145 198.425C37.0136 196.663 35.9551 195.253 34.5443 194.548L17.9678 186.265C16.5571 185.561 14.7941 185.561 13.2079 186.53L-2.21296 196.664C-3.53474 197.545 -4.32724 199.131 -4.32632 200.894L-3.52641 213.406L-2.99296 222.042L-2.19305 234.554C-2.10407 236.141 -2.89658 237.727 -4.30642 238.784L-12.5015 244.16C-13.8233 245.041 -15.6743 245.217 -17.2614 244.424L-26.0787 240.019C-27.4895 239.314 -28.548 237.904 -28.7253 236.053L-29.4355 226.449C-29.5245 224.863 -28.732 223.276 -27.3222 222.219L-19.1271 216.844C-17.8053 215.962 -15.9542 215.786 -14.3671 216.579L-8.72407 219.399L-9.25751 210.763L-15.0769 207.855C-16.4877 207.151 -18.2507 207.151 -19.8368 208.12L-35.2577 218.254C-36.5795 219.135 -37.372 220.721 -37.3711 222.484L-36.2154 240.9C-36.1265 242.486 -35.156 244.072 -33.5689 244.865L-16.8161 253.236C-15.4053 253.941 -13.6423 253.941 -12.0561 252.971L3.36472 242.837Z" fill="#8247E5"/>
</g>
</g>
<mask id="mask51_4790_34903" style="mask-type:luminance" maskUnits="userSpaceOnUse" x="8" y="198" width="94" height="98">
<path d="M67.6665 295.666L101.48 227.991L42.4049 198.474L8.59089 266.149L67.6665 295.666Z" fill="white"/>
</mask>
<g mask="url(#mask51_4790_34903)">
<path d="M57.9546 270.113C59.2763 269.231 60.0688 267.645 60.0679 265.883L59.1797 253.106L58.8226 244.559L57.8464 231.958C57.7574 230.372 58.5499 228.786 59.9597 227.728L68.3312 222.441C69.6529 221.56 71.5039 221.383 73.091 222.176L81.9084 226.582C83.3191 227.287 84.3777 228.697 84.5549 230.547L85.1771 240.328C85.2661 241.914 84.4736 243.5 83.0638 244.558L74.6923 249.845C73.3705 250.726 71.5195 250.903 69.9324 250.11L64.113 247.202L64.6464 255.837L70.6422 258.833C72.0529 259.538 73.8159 259.538 75.4021 258.569L90.7349 248.611C92.0567 247.73 92.8492 246.143 92.8483 244.381L91.6044 225.7C91.6034 223.938 90.5448 222.528 89.134 221.823L72.5577 213.541C71.1469 212.836 69.3839 212.836 67.7977 213.805L52.3769 223.939C51.0551 224.821 50.2626 226.407 50.2635 228.169L51.0634 240.682L51.5969 249.317L52.3968 261.83C52.4858 263.416 51.6933 265.002 50.2834 266.06L42.0883 271.435C40.7666 272.316 38.9155 272.493 37.3284 271.7L28.5111 267.294C27.1004 266.589 26.0418 265.179 25.8646 263.329L25.1543 253.724C25.0653 252.138 25.8579 250.552 27.2677 249.494L35.4628 244.119C36.7846 243.238 38.6356 243.061 40.2227 243.854L45.8658 246.674L45.3323 238.038L39.5128 235.131C38.1021 234.426 36.3392 234.426 34.753 235.395L19.3322 245.529C18.0104 246.411 17.2179 247.997 17.2188 249.759L18.3744 268.176C18.4634 269.762 19.4339 271.348 21.021 272.141L37.7737 280.511C39.1844 281.216 40.9475 281.216 42.5337 280.247L57.9546 270.113Z" fill="#8247E5"/>
</g>
<mask id="mask52_4790_34903" style="mask-type:luminance" maskUnits="userSpaceOnUse" x="-76" y="250" width="93" height="98">
<path d="M-16.9233 347.192L16.8906 279.517L-42.185 250L-75.999 317.675L-16.9233 347.192Z" fill="white"/>
</mask>
<g mask="url(#mask52_4790_34903)">
<path d="M-26.6353 321.639C-25.3136 320.757 -24.5211 319.171 -24.522 317.409L-25.4102 304.632L-25.7673 296.085L-26.7435 283.484C-26.8325 281.898 -26.04 280.312 -24.6302 279.254L-16.2587 273.967C-14.937 273.086 -13.0859 272.909 -11.4988 273.702L-2.68149 278.108C-1.27079 278.813 -0.212188 280.223 -0.0349884 282.073L0.587212 291.854C0.676212 293.44 -0.116292 295.026 -1.52609 296.084L-9.89759 301.371C-11.2194 302.252 -13.0704 302.429 -14.6575 301.636L-20.4769 298.728L-19.9435 307.363L-13.9477 310.359C-12.537 311.064 -10.774 311.064 -9.18779 310.095L6.14501 300.137C7.46681 299.256 8.25931 297.669 8.25841 295.907L7.01451 277.226C7.01351 275.464 5.955 274.054 4.5442 273.349L-12.0322 265.067C-13.443 264.362 -15.206 264.362 -16.7922 265.331L-32.213 275.465C-33.5348 276.347 -34.3273 277.933 -34.3264 279.695L-33.5265 292.208L-32.993 300.843L-32.1931 313.356C-32.1041 314.942 -32.8966 316.528 -34.3065 317.586L-42.5016 322.961C-43.8233 323.842 -45.6744 324.019 -47.2615 323.226L-56.0788 318.82C-57.4895 318.115 -58.5481 316.705 -58.7253 314.855L-59.4356 305.25C-59.5246 303.664 -58.732 302.078 -57.3222 301.02L-49.1271 295.645C-47.8053 294.764 -45.9543 294.587 -44.3672 295.38L-38.7241 298.2L-39.2576 289.564L-45.077 286.657C-46.4877 285.952 -48.2507 285.952 -49.8369 286.921L-65.2577 297.055C-66.5795 297.937 -67.372 299.523 -67.3711 301.285L-66.2155 319.702C-66.1265 321.288 -65.156 322.874 -63.5689 323.667L-46.8161 332.037C-45.4054 332.742 -43.6424 332.742 -42.0562 331.773L-26.6353 321.639Z" fill="#8247E5"/>
</g>
<mask id="mask53_4790_34903" style="mask-type:luminance" maskUnits="userSpaceOnUse" x="457" y="39" width="94" height="98">
<path d="M516.237 136.661L550.051 68.9854L490.975 39.4682L457.161 107.144L516.237 136.661Z" fill="white"/>
</mask>
<g mask="url(#mask53_4790_34903)">
<g opacity="0.4">
<path d="M506.528 111.107C507.85 110.226 508.643 108.639 508.642 106.877L507.754 94.1003L507.396 85.553L506.42 72.9522C506.331 71.3661 507.124 69.78 508.534 68.7225L516.905 63.4352C518.227 62.554 520.078 62.3777 521.665 63.1706L530.482 67.5762C531.893 68.2811 532.951 69.6909 533.129 71.5414L533.751 81.3224C533.84 82.9085 533.047 84.4946 531.638 85.5521L523.266 90.8394C521.944 91.7206 520.093 91.8969 518.506 91.1039L512.687 88.1963L513.22 96.8318L519.216 99.8275C520.627 100.532 522.39 100.532 523.976 99.563L539.309 89.6052C540.63 88.724 541.423 87.1378 541.422 85.3755L540.178 66.6947C540.177 64.9323 539.119 63.5225 537.708 62.8176L521.131 54.5352C519.721 53.8303 517.958 53.8304 516.372 54.7997L500.951 64.9338C499.629 65.815 498.836 67.4011 498.837 69.1635L499.637 81.6761L500.171 90.3116L500.971 102.824C501.06 104.41 500.267 105.996 498.857 107.054L490.662 112.429C489.34 113.31 487.489 113.487 485.902 112.694L477.085 108.288C475.674 107.583 474.616 106.173 474.438 104.323L473.728 94.7184C473.639 93.1323 474.432 91.5462 475.842 90.4887L484.037 85.1133C485.358 84.232 487.209 84.0557 488.797 84.8487L494.44 87.6683L493.906 79.0328L488.087 76.1251C486.676 75.4203 484.913 75.4203 483.327 76.3897L467.906 86.5237C466.584 87.405 465.792 88.9911 465.793 90.7534L466.948 109.17C467.037 110.756 468.008 112.342 469.595 113.135L486.348 121.505C487.758 122.21 489.521 122.21 491.108 121.241L506.528 111.107Z" fill="#8247E5"/>
</g>
</g>
<mask id="mask54_4790_34903" style="mask-type:luminance" maskUnits="userSpaceOnUse" x="279" y="-50" width="94" height="99">
<path d="M339.01 48.1094L372.824 -19.5659L313.749 -49.083L279.935 18.5923L339.01 48.1094Z" fill="white"/>
</mask>
<g mask="url(#mask54_4790_34903)">
<path d="M329.298 22.5557C330.62 21.6745 331.412 20.0884 331.411 18.326L330.523 5.54905L330.167 -2.99831L329.19 -15.599C329.101 -17.1851 329.893 -18.7713 331.303 -19.8287L339.676 -25.1161C340.997 -25.9973 342.848 -26.1736 344.435 -25.3806L353.253 -20.9751C354.663 -20.2702 355.721 -18.8604 355.898 -17.0099L356.521 -7.22892C356.61 -5.64281 355.818 -4.05667 354.408 -2.99921L346.036 2.28814C344.714 3.16936 342.864 3.34566 341.277 2.55266L335.457 -0.354992L335.991 8.28048L341.987 11.2763C343.397 11.9811 345.16 11.9811 346.746 11.0117L362.078 1.05389C363.4 0.172669 364.194 -1.41347 364.193 -3.17581L362.949 -21.8566C362.948 -23.619 361.889 -25.0288 360.478 -25.7337L343.902 -34.0161C342.491 -34.721 340.728 -34.7209 339.142 -33.7516L323.72 -23.6175C322.398 -22.7363 321.607 -21.1501 321.608 -19.3878L322.408 -6.87518L322.94 1.76029L323.741 14.2729C323.83 15.859 323.038 17.4452 321.628 18.5026L313.432 23.8781C312.11 24.7593 310.26 24.9356 308.673 24.1426L299.854 19.7371C298.444 19.0322 297.385 17.6224 297.208 15.7719L296.499 6.16714C296.41 4.58103 297.202 2.9949 298.612 1.93744L306.807 -3.43803C308.129 -4.31925 309.979 -4.49555 311.566 -3.70255L317.21 -0.883015L316.677 -9.51849L310.857 -12.4261C309.447 -13.131 307.683 -13.1309 306.096 -12.1616L290.677 -2.02754C289.355 -1.14632 288.562 0.439813 288.563 2.20216L289.719 20.6186C289.808 22.2047 290.778 23.7908 292.365 24.5838L309.117 32.9543C310.528 33.6592 312.292 33.6591 313.878 32.6898L329.298 22.5557Z" fill="#8247E5"/>
</g>
<mask id="mask55_4790_34903" style="mask-type:luminance" maskUnits="userSpaceOnUse" x="398" y="9" width="93" height="99">
<path d="M457.159 107.144L490.973 39.4683L431.897 9.95114L398.083 77.6264L457.159 107.144Z" fill="white"/>
</mask>
<g mask="url(#mask55_4790_34903)">
<path d="M447.451 81.5904C448.773 80.7092 449.566 79.123 449.565 77.3607L448.676 64.5837L448.319 56.0364L447.343 43.4356C447.254 41.8495 448.047 40.2634 449.456 39.2059L457.828 33.9186C459.15 33.0374 461.001 32.8611 462.588 33.654L471.405 38.0596C472.816 38.7645 473.874 40.1743 474.052 42.0248L474.674 51.8058C474.763 53.3919 473.97 54.978 472.56 56.0355L464.189 61.3228C462.867 62.204 461.016 62.3803 459.429 61.5873L453.61 58.6797L454.143 67.3152L460.139 70.3109C461.55 71.0158 463.313 71.0157 464.899 70.0464L480.232 60.0886C481.553 59.2074 482.346 57.6212 482.345 55.8589L481.101 37.178C481.1 35.4157 480.042 34.0059 478.631 33.301L462.054 25.0186C460.644 24.3137 458.881 24.3138 457.294 25.2831L441.874 35.4172C440.552 36.2984 439.759 37.8845 439.76 39.6469L440.56 52.1595L441.094 60.795L441.893 73.3076C441.982 74.8937 441.19 76.4798 439.78 77.5373L431.585 82.9128C430.263 83.794 428.412 83.9703 426.825 83.1773L418.008 78.7718C416.597 78.0669 415.539 76.657 415.361 74.8066L414.651 65.2018C414.562 63.6157 415.355 62.0296 416.764 60.9721L424.959 55.5967C426.281 54.7154 428.132 54.5391 429.719 55.3321L435.362 58.1517L434.829 49.5162L429.01 46.6085C427.599 45.9037 425.836 45.9037 424.25 46.8731L408.829 57.0071C407.507 57.8884 406.715 59.4745 406.715 61.2368L407.871 79.6533C407.96 81.2394 408.931 82.8255 410.518 83.6185L427.27 91.989C428.681 92.6939 430.444 92.6937 432.03 91.7244L447.451 81.5904Z" fill="#8247E5"/>
</g>
<mask id="mask56_4790_34903" style="mask-type:luminance" maskUnits="userSpaceOnUse" x="220" y="-79" width="94" height="98">
<path d="M279.932 18.5918L313.746 -49.0835L254.67 -78.6006L220.857 -10.9253L279.932 18.5918Z" fill="white"/>
</mask>
<g mask="url(#mask56_4790_34903)">
<g opacity="0.4">
<path d="M270.22 -6.96184C271.542 -7.84306 272.334 -9.4292 272.333 -11.1915L271.445 -23.9685L271.088 -32.5159L270.112 -45.1166C270.023 -46.7027 270.815 -48.2889 272.225 -49.3463L280.596 -54.6337C281.918 -55.5149 283.769 -55.6912 285.356 -54.8982L294.174 -50.4927C295.584 -49.7878 296.643 -48.3779 296.82 -46.5275L297.442 -36.7465C297.531 -35.1604 296.739 -33.5742 295.329 -32.5168L286.958 -27.2294C285.636 -26.3482 283.785 -26.1719 282.198 -26.9649L276.378 -29.8726L276.912 -21.2371L282.907 -18.2413C284.318 -17.5364 286.081 -17.5365 287.667 -18.5059L303 -28.4637C304.322 -29.3449 305.114 -30.931 305.113 -32.6934L303.87 -51.3742C303.869 -53.1365 302.81 -54.5464 301.399 -55.2513L284.823 -63.5337C283.412 -64.2386 281.649 -64.2385 280.063 -63.2691L264.642 -53.1351C263.32 -52.2539 262.528 -50.6677 262.529 -48.9054L263.329 -36.3927L263.862 -27.7573L264.662 -15.2447C264.751 -13.6585 263.958 -12.0724 262.549 -11.0149L254.354 -5.63948C253.032 -4.75826 251.181 -4.58196 249.594 -5.37495L240.776 -9.78049C239.366 -10.4854 238.307 -11.8952 238.13 -13.7457L237.42 -23.3504C237.331 -24.9365 238.123 -26.5227 239.533 -27.5801L247.728 -32.9556C249.05 -33.8368 250.901 -34.0131 252.488 -33.2201L258.131 -30.4006L257.598 -39.0361L251.778 -41.9437C250.367 -42.6486 248.604 -42.6485 247.018 -41.6792L231.597 -31.5451C230.276 -30.6639 229.483 -29.0778 229.484 -27.3154L230.64 -8.89894C230.729 -7.31284 231.699 -5.72676 233.286 -4.93376L250.039 3.43675C251.45 4.14164 253.213 4.14157 254.799 3.17222L270.22 -6.96184Z" fill="#8247E5"/>
</g>
</g>
<mask id="mask57_4790_34903" style="mask-type:luminance" maskUnits="userSpaceOnUse" x="339" y="-20" width="93" height="98">
<path d="M398.084 77.626L431.898 9.95068L372.823 -19.5664L339.009 48.1089L398.084 77.626Z" fill="white"/>
</mask>
<g mask="url(#mask57_4790_34903)">
<g opacity="0.4">
<path d="M388.377 52.0723C389.699 51.1911 390.491 49.605 390.49 47.8426L389.602 35.0657L389.245 26.5183L388.269 13.9176C388.18 12.3315 388.972 10.7453 390.382 9.68784L398.754 4.40049C400.075 3.51927 401.926 3.34297 403.514 4.13596L412.331 8.5415C413.742 9.24638 414.8 10.6562 414.977 12.5067L415.6 22.2877C415.689 23.8738 414.896 25.4599 413.486 26.5174L405.115 31.8047C403.793 32.686 401.942 32.8623 400.355 32.0693L394.535 29.1616L395.069 37.7971L401.065 40.7929C402.475 41.4977 404.238 41.4977 405.825 40.5283L421.157 30.5705C422.479 29.6893 423.272 28.1031 423.271 26.3408L422.027 7.65996C422.026 5.89762 420.967 4.48778 419.557 3.78289L402.98 -4.49951C401.569 -5.2044 399.806 -5.20433 398.22 -4.23498L382.799 5.89908C381.478 6.7803 380.685 8.36644 380.686 10.1288L381.486 22.6414L382.019 31.2769L382.819 43.7895C382.908 45.3756 382.116 46.9618 380.706 48.0192L372.511 53.3947C371.189 54.2759 369.338 54.4522 367.751 53.6592L358.934 49.2537C357.523 48.5488 356.464 47.139 356.287 45.2885L355.577 35.6838C355.488 34.0976 356.28 32.5115 357.69 31.454L365.885 26.0786C367.207 25.1974 369.058 25.0211 370.645 25.8141L376.288 28.6336L375.755 19.9981L369.935 17.0905C368.525 16.3856 366.762 16.3857 365.175 17.355L349.755 27.4891C348.433 28.3703 347.64 29.9564 347.641 31.7188L348.797 50.1352C348.886 51.7213 349.856 53.3074 351.443 54.1004L368.196 62.4709C369.607 63.1758 371.37 63.1758 372.956 62.2064L388.377 52.0723Z" fill="#8247E5"/>
</g>
</g>
</g>
</g>
</g>
<defs>
<clipPath id="clip0_4790_34903">
<rect width="768" height="313" fill="white"/>
</clipPath>
</defs>
</svg>
