<svg width="840" height="280" viewBox="0 0 840 280" fill="none" xmlns="http://www.w3.org/2000/svg">
<g clip-path="url(#clip0_6090_3515)">
<rect width="840" height="280" fill="#CEFF1A"/>
<rect width="859" height="289" transform="translate(-14 -9)" fill="url(#paint0_linear_6090_3515)"/>
<g opacity="0.6" filter="url(#filter0_d_6090_3515)">
<path d="M681.325 -147.868C685.744 -156.072 692.12 -163.066 699.893 -168.233L830.338 -259L696.681 -38.7738C696.681 -38.7738 685.003 -58.4389 680.449 -68.3895C674.773 -80.9006 671.911 -94.496 672.062 -108.225C672.214 -121.954 675.375 -135.485 681.325 -147.868ZM627.489 4.05008C628.961 25.1106 634.933 45.6138 645.003 64.1874C655.073 82.7625 669.01 98.9773 685.879 111.749L830.162 212C830.162 212 739.891 82.3665 663.749 -46.6277C656.041 -60.2562 650.858 -75.1563 648.451 -90.6151C647.385 -97.6151 647.385 -104.736 648.451 -111.736C646.465 -108.07 642.612 -100.564 642.612 -100.564C634.891 -84.8751 629.633 -68.0972 627.021 -50.8168C625.518 -32.5514 625.674 -14.188 627.489 4.05008ZM995.35 21.5047C990.677 11.5555 979.117 -8.11105 979.117 -8.11105L845.695 212L976.139 121.291C983.911 116.124 990.289 109.131 994.708 100.927C1000.66 88.5428 1003.82 75.0122 1003.97 61.2843C1004.12 47.555 1001.26 33.9582 995.583 21.4471L995.35 21.5047ZM1048.31 -50.9925C1046.84 -72.0516 1040.86 -92.5562 1030.8 -111.13C1020.73 -129.704 1006.79 -145.919 989.919 -158.691L845.869 -259C845.869 -259 936.082 -129.366 1012.28 -0.372284C1019.97 13.2605 1025.13 28.1606 1027.52 43.6151C1028.59 50.6151 1028.59 57.7361 1027.52 64.7361C1029.51 61.0698 1033.36 53.5643 1033.36 53.5643C1041.08 37.8751 1046.34 21.0972 1048.95 3.81677C1050.47 -14.4472 1050.34 -32.8105 1048.54 -51.0501L1048.31 -50.9925Z" fill="url(#paint1_linear_6090_3515)"/>
</g>
<g opacity="0.5" filter="url(#filter1_d_6090_3515)">
<path d="M398.325 188.132C402.744 179.928 409.12 172.934 416.893 167.767L547.338 77L413.681 297.226C413.681 297.226 402.003 277.561 397.449 267.61C391.773 255.099 388.911 241.504 389.062 227.775C389.214 214.046 392.375 200.515 398.325 188.132ZM344.489 340.05C345.961 361.111 351.933 381.614 362.003 400.187C372.073 418.762 386.01 434.977 402.879 447.749L547.162 548C547.162 548 456.891 418.366 380.749 289.372C373.041 275.744 367.858 260.844 365.451 245.385C364.385 238.385 364.385 231.264 365.451 224.264C363.465 227.93 359.612 235.436 359.612 235.436C351.891 251.125 346.633 267.903 344.021 285.183C342.518 303.449 342.674 321.812 344.489 340.05ZM712.35 357.505C707.677 347.556 696.117 327.889 696.117 327.889L562.695 548L693.139 457.291C700.911 452.124 707.289 445.131 711.708 436.927C717.657 424.543 720.818 411.012 720.97 397.284C721.122 383.555 718.259 369.958 712.583 357.447L712.35 357.505ZM765.309 285.008C763.836 263.948 757.865 243.444 747.796 224.87C737.725 206.296 723.788 190.081 706.919 177.309L562.869 77C562.869 77 653.082 206.634 729.283 335.628C736.971 349.261 742.133 364.161 744.523 379.615C745.588 386.615 745.588 393.736 744.523 400.736C746.508 397.07 750.362 389.564 750.362 389.564C758.082 373.875 763.341 357.097 765.951 339.817C767.475 321.553 767.338 303.189 765.544 284.95L765.309 285.008Z" fill="url(#paint2_linear_6090_3515)"/>
</g>
<g opacity="0.4" filter="url(#filter2_d_6090_3515)">
<path d="M167.325 -173.868C171.744 -182.072 178.12 -189.066 185.893 -194.233L316.338 -285L182.681 -64.7738C182.681 -64.7738 171.003 -84.4389 166.449 -94.3895C160.773 -106.901 157.911 -120.496 158.062 -134.225C158.214 -147.954 161.375 -161.485 167.325 -173.868ZM113.489 -21.9499C114.961 -0.889404 120.933 19.6138 131.003 38.1874C141.073 56.7625 155.01 72.9773 171.879 85.749L316.162 186C316.162 186 225.891 56.3665 149.749 -72.6277C142.041 -86.2562 136.858 -101.156 134.451 -116.615C133.385 -123.615 133.385 -130.736 134.451 -137.736C132.465 -134.07 128.612 -126.564 128.612 -126.564C120.891 -110.875 115.633 -94.0972 113.021 -76.8168C111.518 -58.5514 111.674 -40.188 113.489 -21.9499ZM481.35 -4.49527C476.677 -14.4445 465.117 -34.1111 465.117 -34.1111L331.695 186L462.139 95.2906C469.911 90.1238 476.289 83.131 480.708 74.9271C486.657 62.5428 489.818 49.0122 489.97 35.2843C490.122 21.555 487.259 7.95819 481.583 -4.55286L481.35 -4.49527ZM534.309 -76.9925C532.836 -98.0516 526.865 -118.556 516.796 -137.13C506.725 -155.704 492.788 -171.919 475.919 -184.691L331.869 -285C331.869 -285 422.082 -155.366 498.283 -26.3723C505.971 -12.7395 511.133 2.16058 513.523 17.6151C514.588 24.6151 514.588 31.7361 513.523 38.7361C515.508 35.0698 519.362 27.5643 519.362 27.5643C527.082 11.8751 532.341 -4.90277 534.951 -22.1832C536.475 -40.4472 536.338 -58.8105 534.544 -77.0501L534.309 -76.9925Z" fill="url(#paint3_linear_6090_3515)"/>
</g>
<g opacity="0.8" filter="url(#filter3_d_6090_3515)">
<path d="M-105.675 166.132C-101.256 157.928 -94.8795 150.934 -87.1068 145.767L43.3381 55L-90.3185 275.226C-90.3185 275.226 -101.997 255.561 -106.551 245.61C-112.227 233.099 -115.089 219.504 -114.938 205.775C-114.786 192.046 -111.625 178.515 -105.675 166.132ZM-159.511 318.05C-158.039 339.111 -152.067 359.614 -141.997 378.187C-131.927 396.762 -117.99 412.977 -101.121 425.749L43.1624 526C43.1624 526 -47.1095 396.366 -123.251 267.372C-130.959 253.744 -136.142 238.844 -138.549 223.385C-139.615 216.385 -139.615 209.264 -138.549 202.264C-140.535 205.93 -144.388 213.436 -144.388 213.436C-152.109 229.125 -157.367 245.903 -159.979 263.183C-161.482 281.449 -161.326 299.812 -159.511 318.05ZM208.35 335.505C203.677 325.556 192.117 305.889 192.117 305.889L58.6946 526L189.139 435.291C196.911 430.124 203.289 423.131 207.708 414.927C213.657 402.543 216.818 389.012 216.97 375.284C217.122 361.555 214.259 347.958 208.583 335.447L208.35 335.505ZM261.309 263.008C259.836 241.948 253.865 221.444 243.796 202.87C233.725 184.296 219.788 168.081 202.919 155.309L58.8688 55C58.8688 55 149.082 184.634 225.283 313.628C232.971 327.261 238.133 342.161 240.523 357.615C241.588 364.615 241.588 371.736 240.523 378.736C242.508 375.07 246.362 367.564 246.362 367.564C254.082 351.875 259.341 335.097 261.951 317.817C263.475 299.553 263.338 281.189 261.544 262.95L261.309 263.008Z" fill="url(#paint4_linear_6090_3515)"/>
</g>
<path fill-rule="evenodd" clip-rule="evenodd" d="M886.714 235.974L886.447 236.942C885.89 239.13 884.776 241.136 883.215 242.765C881.654 244.394 879.698 245.59 877.538 246.237C875.377 246.884 873.087 246.96 870.888 246.458C868.69 245.955 866.659 244.891 864.994 243.368C863.103 241.645 861.739 239.42 861.061 236.95L860.813 236.023H860.83L860.501 234.442C859.885 231.42 858.558 228.588 856.629 226.184C856.405 225.904 856.154 225.619 855.926 225.358L855.637 225.025L855.604 224.987L854.896 224.277L854.711 224.129C854.547 223.995 854.369 223.844 854.18 223.686C853.724 223.301 853.209 222.866 852.693 222.507C849.197 220.043 844.98 218.817 840.71 219.022C836.44 219.228 832.36 220.853 829.116 223.642C825.974 226.318 823.785 229.942 822.876 233.97C822.851 234.081 822.825 234.205 822.803 234.307C822.794 234.35 822.786 234.387 822.78 234.417L822.439 236.001H822.501L822.242 236.939C821.685 239.127 820.572 241.133 819.011 242.762C817.45 244.391 815.494 245.588 813.333 246.235C811.173 246.882 808.882 246.958 806.684 246.455C804.486 245.952 802.455 244.888 800.79 243.365C798.899 241.643 797.536 239.418 796.857 236.95L796.6 235.993H796.515L796.193 234.442C795.577 231.42 794.249 228.589 792.321 226.184C792.097 225.905 791.846 225.62 791.618 225.359L791.329 225.026L791.297 224.988L790.589 224.278L790.403 224.13C790.239 223.995 790.061 223.845 789.872 223.686C789.416 223.302 788.902 222.866 788.386 222.508C784.889 220.044 780.673 218.817 776.402 219.023C772.132 219.228 768.052 220.854 764.808 223.642C761.666 226.318 759.477 229.943 758.568 233.971C758.543 234.081 758.517 234.205 758.495 234.307C758.486 234.351 758.479 234.388 758.472 234.418L758.138 235.972H758.104L757.836 236.94C757.28 239.128 756.167 241.134 754.605 242.763C753.044 244.392 751.088 245.589 748.928 246.236C746.768 246.883 744.477 246.959 742.279 246.456C740.08 245.953 738.05 244.889 736.384 243.367C734.494 241.643 733.131 239.419 732.453 236.95L732.195 235.993L731.204 235.98C730.846 235.977 730.485 235.977 730.134 235.977H729.776L726 235.972L726.329 237.556C726.945 240.578 728.272 243.409 730.201 245.814C730.425 246.091 730.676 246.378 730.903 246.64C731.007 246.757 731.105 246.868 731.193 246.97L731.226 247.011L731.934 247.718L732.12 247.865V247.868C732.284 248 732.462 248.151 732.651 248.31C733.106 248.697 733.621 249.13 734.137 249.493C737.634 251.956 741.851 253.182 746.121 252.976C750.391 252.77 754.471 251.144 757.714 248.355C760.856 245.678 763.046 242.053 763.954 238.024C763.98 237.913 764.006 237.79 764.027 237.687L764.05 237.577L764.384 236.026H764.418L764.685 235.061C765.242 232.873 766.355 230.867 767.917 229.238C769.478 227.608 771.434 226.412 773.594 225.765C775.754 225.118 778.045 225.042 780.244 225.545C782.442 226.048 784.473 227.112 786.138 228.634C788.028 230.357 789.392 232.58 790.071 235.047L790.328 236.004H790.413L790.736 237.555C791.352 240.577 792.679 243.408 794.607 245.813C794.831 246.09 795.082 246.378 795.31 246.639C795.413 246.757 795.511 246.867 795.599 246.97L795.632 247.01L796.34 247.717L796.525 247.865V247.868C796.69 247.999 796.867 248.15 797.056 248.309C797.512 248.696 798.027 249.129 798.543 249.492C802.04 251.955 806.256 253.181 810.527 252.975C814.797 252.769 818.877 251.143 822.12 248.354C825.262 245.678 827.452 242.052 828.36 238.023C828.386 237.913 828.412 237.789 828.433 237.687C828.442 237.647 828.449 237.609 828.457 237.576L828.797 235.993H828.735L828.994 235.057C829.551 232.869 830.664 230.863 832.225 229.234C833.786 227.605 835.742 226.408 837.903 225.761C840.063 225.114 842.354 225.038 844.552 225.541C846.75 226.044 848.781 227.108 850.446 228.63C852.337 230.352 853.701 232.576 854.379 235.044L854.627 235.974H854.61L854.939 237.558C855.555 240.58 856.882 243.411 858.811 245.816C859.034 246.092 859.286 246.38 859.513 246.641C859.616 246.759 859.714 246.87 859.802 246.972L859.835 247.012L860.543 247.72L860.729 247.867V247.87C860.893 248.002 861.071 248.153 861.26 248.311C861.716 248.698 862.23 249.131 862.746 249.494C866.243 251.958 870.46 253.184 874.73 252.978C879.001 252.772 883.08 251.145 886.324 248.357C889.466 245.68 891.655 242.055 892.564 238.026C892.589 237.915 892.615 237.792 892.636 237.689L892.66 237.579L893 235.995L886.714 235.974ZM727.938 238.601C727.929 238.568 727.921 238.534 727.912 238.501C727.934 238.582 727.957 238.664 727.981 238.744C727.964 238.697 727.949 238.649 727.935 238.601H727.938ZM731.867 245.746C731.651 245.498 731.434 245.249 731.226 244.993C731.433 245.248 731.651 245.498 731.867 245.746ZM734.212 247.904C733.991 247.725 733.773 247.541 733.556 247.357C733.774 247.543 733.989 247.725 734.212 247.904C734.435 248.082 734.659 248.256 734.894 248.419C734.656 248.256 734.431 248.082 734.209 247.904H734.212ZM794.912 234.713C794.907 234.689 794.901 234.665 794.896 234.641C794.896 234.665 794.904 234.689 794.909 234.713H794.912ZM794.591 233.398C794.603 233.442 794.614 233.487 794.625 233.531C794.595 233.42 794.563 233.31 794.532 233.201C794.549 233.267 794.569 233.332 794.586 233.398H794.591ZM790.661 226.256C790.879 226.504 791.095 226.752 791.302 227.008C791.096 226.75 790.879 226.503 790.661 226.256ZM792.343 238.601C792.334 238.568 792.326 238.534 792.316 238.501C792.339 238.581 792.361 238.661 792.385 238.741C792.368 238.694 792.356 238.648 792.34 238.601L792.343 238.601ZM841.665 220.312C839.864 220.31 838.073 220.579 836.353 221.111C838.968 220.302 841.733 220.104 844.435 220.533C847.138 220.961 849.707 222.004 851.944 223.582C848.933 221.462 845.343 220.321 841.662 220.313L841.665 220.312ZM858.897 233.397C858.909 233.437 858.918 233.477 858.929 233.517C858.902 233.418 858.874 233.319 858.845 233.22C858.86 233.28 858.878 233.338 858.892 233.398L858.897 233.397ZM855.61 227.008C855.403 226.75 855.185 226.502 854.968 226.255C855.182 226.503 855.401 226.75 855.61 227.008ZM856.546 238.601C856.537 238.567 856.529 238.532 856.52 238.499C856.543 238.582 856.565 238.664 856.59 238.747C856.572 238.699 856.557 238.65 856.543 238.601L856.546 238.601ZM859.834 244.99C860.04 245.245 860.258 245.495 860.476 245.743C860.255 245.498 860.038 245.248 859.831 244.993L859.834 244.99ZM865.168 249.457C867.287 250.625 869.62 251.352 872.027 251.594C869.619 251.354 867.285 250.628 865.164 249.46L865.168 249.457ZM873.669 251.683C876.835 251.711 879.952 250.895 882.701 249.319C879.952 250.897 876.834 251.714 873.665 251.687L873.669 251.683Z" fill="#FFBF56"/>
<path fill-rule="evenodd" clip-rule="evenodd" d="M83.6925 31.4779L83.467 32.3033C82.9968 34.1694 82.0568 35.8805 80.7385 37.27C79.4203 38.6594 77.7688 39.6799 75.9449 40.2318C74.121 40.7838 72.1869 40.8485 70.3309 40.4197C68.4749 39.9909 66.7604 39.0831 65.3542 37.7849C63.7572 36.315 62.6056 34.4167 62.0333 32.3107L61.8241 31.5197H61.8382L61.5604 30.171C61.041 27.5932 59.9201 25.1783 58.2913 23.1274C58.1024 22.8888 57.8906 22.6459 57.6981 22.4232L57.4538 22.139L57.4261 22.1067L56.8288 21.5009L56.6719 21.375C56.5338 21.2602 56.3831 21.1316 56.2236 20.9966C55.8386 20.6686 55.404 20.2972 54.9682 19.9914C52.0166 17.8897 48.4563 16.8436 44.8508 17.0189C41.2454 17.1942 37.8007 18.5808 35.0619 20.9591C32.4096 23.2416 30.5609 26.3329 29.7935 29.7689C29.7721 29.863 29.7501 29.9689 29.7318 30.0556C29.7245 30.0927 29.7177 30.1244 29.7124 30.1498L29.4248 31.5006H29.4771L29.2584 32.3006C28.7883 34.1668 27.8484 35.8781 26.5302 37.2677C25.212 38.6572 23.5605 39.6776 21.7365 40.2296C19.9126 40.7816 17.9784 40.8464 16.1223 40.4175C14.2663 39.9886 12.5518 39.0806 11.1457 37.7822C9.54967 36.3128 8.39849 34.4155 7.82578 32.3107L7.60817 31.4943H7.53651L7.26453 30.1715C6.7446 27.5939 5.62381 25.1791 3.99537 23.128C3.80654 22.8893 3.59467 22.6464 3.40219 22.4237L3.15792 22.1395L3.13072 22.1073L2.53286 21.5015L2.37594 21.3755C2.23733 21.2607 2.0872 21.1321 1.92819 20.9972C1.54321 20.6692 1.10856 20.2977 0.672844 19.9919C-2.27895 17.8902 -5.8393 16.8442 -9.44481 17.0195C-13.0503 17.1948 -16.4951 18.5813 -19.2341 20.9596C-21.8864 23.2421 -23.735 26.3335 -24.5024 29.7694C-24.5238 29.8636 -24.5458 29.9694 -24.5641 30.0562C-24.5714 30.0932 -24.5777 30.1249 -24.5835 30.1503L-24.8654 31.4763H-24.8942L-25.1201 32.3017C-25.5901 34.1679 -26.53 35.8792 -27.8482 37.2687C-29.1663 38.6583 -30.8178 39.6788 -32.6417 40.2308C-34.4656 40.7828 -36.3998 40.8475 -38.2558 40.4186C-40.1118 39.9896 -41.8264 39.0818 -43.2324 37.7833C-44.8283 36.3135 -45.9794 34.4158 -46.5518 32.3107L-46.7693 31.4943L-47.6063 31.4832C-47.9086 31.4805 -48.2135 31.4805 -48.5096 31.4805H-48.8119L-52 31.4763L-51.7222 32.8271C-51.2021 35.4046 -50.0814 37.8194 -48.4531 39.8707C-48.2643 40.1066 -48.0519 40.3522 -47.8599 40.5749C-47.7726 40.6755 -47.6899 40.7696 -47.6151 40.8569L-47.5879 40.8914L-46.9901 41.4945L-46.8331 41.6204V41.6231C-46.6945 41.7353 -46.5439 41.8639 -46.3849 41.9993C-45.9999 42.3295 -45.5652 42.6988 -45.1295 43.0083C-42.1775 45.1097 -38.6171 46.1552 -35.0117 45.9794C-31.4062 45.8037 -27.9617 44.4167 -25.2232 42.0379C-22.5705 39.755 -20.7219 36.6628 -19.9553 33.2261C-19.9334 33.1319 -19.9114 33.0266 -19.8936 32.9393L-19.8737 32.8451L-19.5918 31.5223H-19.563L-19.3376 30.699C-18.8675 28.8328 -17.9276 27.1216 -16.6094 25.7321C-15.2912 24.3425 -13.6397 23.322 -11.8157 22.77C-9.99173 22.218 -8.05753 22.1533 -6.2015 22.5822C-4.34547 23.0111 -2.63094 23.919 -1.22486 25.2174C0.370995 26.6865 1.52235 28.5831 2.09557 30.6874L2.31318 31.5038H2.38482L2.65734 32.8266C3.17748 35.404 4.29806 37.8187 5.92599 39.8701C6.11482 40.1061 6.32668 40.3517 6.51917 40.5744C6.606 40.6749 6.68915 40.7691 6.76343 40.8564L6.79114 40.8908L7.3885 41.494L7.54541 41.6199V41.6226C7.68402 41.7347 7.83414 41.8633 7.99368 41.9988C8.37865 42.329 8.81334 42.6983 9.24905 43.0078C12.201 45.1091 15.7615 46.1545 19.3669 45.9788C22.9723 45.803 26.4168 44.4161 29.1554 42.0374C31.8084 39.7547 33.6572 36.6624 34.4237 33.2255C34.4457 33.1314 34.4677 33.0261 34.4854 32.9388C34.4928 32.9044 34.499 32.8721 34.5053 32.8446L34.7925 31.4938H34.7402L34.9588 30.6958C35.4289 28.8296 36.3689 27.1184 37.687 25.7289C39.0052 24.3393 40.6568 23.3188 42.4807 22.7668C44.3047 22.2148 46.2389 22.1501 48.0949 22.579C49.9509 23.0079 51.6655 23.9158 53.0716 25.2142C54.6679 26.6829 55.8193 28.5798 56.392 30.6842L56.6012 31.4779H56.5866L56.8644 32.8287C57.3847 35.4062 58.5054 37.8209 60.1335 39.8723C60.3224 40.1083 60.5347 40.3537 60.7267 40.5765C60.8135 40.677 60.8961 40.7712 60.9709 40.8585L60.9981 40.8929L61.596 41.4961L61.7529 41.622V41.6247C61.8915 41.7369 62.0422 41.8654 62.2012 42.0009C62.5862 42.331 63.0208 42.7003 63.4566 43.0099C66.4086 45.1112 69.9691 46.1567 73.5747 45.981C77.1802 45.8052 80.6248 44.4182 83.3634 42.0395C86.0161 39.7564 87.8648 36.6643 88.6318 33.2277C88.6532 33.1335 88.6752 33.0282 88.6929 32.9409L88.7129 32.8467L89 31.4958L83.6925 31.4779ZM-50.3633 33.7187C-50.3712 33.6901 -50.378 33.6615 -50.3858 33.633C-50.367 33.7023 -50.3477 33.7721 -50.3278 33.8409C-50.3419 33.8001 -50.3545 33.7594 -50.366 33.7187H-50.3633ZM-47.046 39.8125C-47.2291 39.6008 -47.4122 39.3892 -47.5874 39.1706C-47.4127 39.3881 -47.2291 39.6013 -47.046 39.8125ZM-45.0662 41.6532C-45.253 41.5009 -45.4371 41.3437 -45.6207 41.1866C-45.4366 41.3453 -45.2545 41.5009 -45.0662 41.6532C-44.8779 41.8056 -44.6891 41.9538 -44.4909 42.0925C-44.6917 41.9538 -44.8816 41.8056 -45.0689 41.6532H-45.0662ZM6.18334 30.4022C6.17916 30.3815 6.17393 30.3609 6.16974 30.3408C6.16974 30.3609 6.17654 30.3815 6.18073 30.4022H6.18334ZM5.91188 29.2804C5.92234 29.318 5.93122 29.3562 5.94116 29.3937C5.91553 29.2996 5.88887 29.2059 5.86271 29.1128C5.87631 29.1689 5.89357 29.2244 5.90821 29.2804H5.91188ZM2.59406 23.1888C2.77766 23.4004 2.96019 23.6121 3.13542 23.8306C2.96124 23.6105 2.77766 23.3994 2.59406 23.1888ZM4.0142 33.7182C4.00636 33.6901 3.99954 33.6615 3.99169 33.6335C4.01052 33.7017 4.02934 33.77 4.04922 33.8377C4.0351 33.798 4.02518 33.7584 4.01158 33.7187L4.0142 33.7182ZM45.6571 18.1193C44.1368 18.117 42.6249 18.3468 41.1723 18.8009C43.3798 18.1108 45.7143 17.9419 47.9964 18.3073C50.2785 18.6726 52.4474 19.5624 54.3364 20.9083C51.7937 19.0999 48.7627 18.1265 45.6545 18.1199L45.6571 18.1193ZM60.2067 29.2799C60.2167 29.3138 60.2245 29.3482 60.2334 29.382C60.2104 29.2974 60.1874 29.2133 60.1628 29.1292C60.1748 29.18 60.19 29.2296 60.2025 29.2804L60.2067 29.2799ZM57.4308 23.8301C57.2561 23.61 57.0725 23.3989 56.8895 23.1883C57.0699 23.3994 57.2545 23.61 57.4308 23.8301ZM58.2217 33.7182C58.2139 33.6896 58.207 33.6599 58.1992 33.6314C58.2185 33.7023 58.2379 33.7726 58.2583 33.843C58.2437 33.8017 58.2306 33.7605 58.2191 33.7187L58.2217 33.7182ZM60.9976 39.168C61.1718 39.3855 61.3559 39.5987 61.5395 39.8098C61.3533 39.6013 61.1697 39.3881 60.995 39.1706L60.9976 39.168ZM65.5007 42.9776C67.29 43.9745 69.2601 44.5947 71.2926 44.8009C69.2595 44.596 67.2884 43.9769 65.4981 42.9808L65.5007 42.9776ZM72.6782 44.8766C75.352 44.9004 77.9838 44.2044 80.304 42.8602C77.9834 44.2061 75.3505 44.9031 72.6756 44.8798L72.6782 44.8766Z" fill="#3EDBF3"/>
</g>
<defs>
<filter id="filter0_d_6090_3515" x="547.1" y="-333.9" width="581.8" height="628.8" filterUnits="userSpaceOnUse" color-interpolation-filters="sRGB">
<feFlood flood-opacity="0" result="BackgroundImageFix"/>
<feColorMatrix in="SourceAlpha" type="matrix" values="0 0 0 0 0 0 0 0 0 0 0 0 0 0 0 0 0 0 127 0" result="hardAlpha"/>
<feOffset dy="4"/>
<feGaussianBlur stdDeviation="39.45"/>
<feComposite in2="hardAlpha" operator="out"/>
<feColorMatrix type="matrix" values="0 0 0 0 0 0 0 0 0 0 0 0 0 0 0 0 0 0 0.25 0"/>
<feBlend mode="normal" in2="BackgroundImageFix" result="effect1_dropShadow_6090_3515"/>
<feBlend mode="normal" in="SourceGraphic" in2="effect1_dropShadow_6090_3515" result="shape"/>
</filter>
<filter id="filter1_d_6090_3515" x="264.1" y="2.1" width="581.8" height="628.8" filterUnits="userSpaceOnUse" color-interpolation-filters="sRGB">
<feFlood flood-opacity="0" result="BackgroundImageFix"/>
<feColorMatrix in="SourceAlpha" type="matrix" values="0 0 0 0 0 0 0 0 0 0 0 0 0 0 0 0 0 0 127 0" result="hardAlpha"/>
<feOffset dy="4"/>
<feGaussianBlur stdDeviation="39.45"/>
<feComposite in2="hardAlpha" operator="out"/>
<feColorMatrix type="matrix" values="0 0 0 0 0 0 0 0 0 0 0 0 0 0 0 0 0 0 0.25 0"/>
<feBlend mode="normal" in2="BackgroundImageFix" result="effect1_dropShadow_6090_3515"/>
<feBlend mode="normal" in="SourceGraphic" in2="effect1_dropShadow_6090_3515" result="shape"/>
</filter>
<filter id="filter2_d_6090_3515" x="33.1" y="-359.9" width="581.8" height="628.8" filterUnits="userSpaceOnUse" color-interpolation-filters="sRGB">
<feFlood flood-opacity="0" result="BackgroundImageFix"/>
<feColorMatrix in="SourceAlpha" type="matrix" values="0 0 0 0 0 0 0 0 0 0 0 0 0 0 0 0 0 0 127 0" result="hardAlpha"/>
<feOffset dy="4"/>
<feGaussianBlur stdDeviation="39.45"/>
<feComposite in2="hardAlpha" operator="out"/>
<feColorMatrix type="matrix" values="0 0 0 0 0 0 0 0 0 0 0 0 0 0 0 0 0 0 0.25 0"/>
<feBlend mode="normal" in2="BackgroundImageFix" result="effect1_dropShadow_6090_3515"/>
<feBlend mode="normal" in="SourceGraphic" in2="effect1_dropShadow_6090_3515" result="shape"/>
</filter>
<filter id="filter3_d_6090_3515" x="-239.9" y="-19.9" width="581.8" height="628.8" filterUnits="userSpaceOnUse" color-interpolation-filters="sRGB">
<feFlood flood-opacity="0" result="BackgroundImageFix"/>
<feColorMatrix in="SourceAlpha" type="matrix" values="0 0 0 0 0 0 0 0 0 0 0 0 0 0 0 0 0 0 127 0" result="hardAlpha"/>
<feOffset dy="4"/>
<feGaussianBlur stdDeviation="39.45"/>
<feComposite in2="hardAlpha" operator="out"/>
<feColorMatrix type="matrix" values="0 0 0 0 0 0 0 0 0 0 0 0 0 0 0 0 0 0 0.25 0"/>
<feBlend mode="normal" in2="BackgroundImageFix" result="effect1_dropShadow_6090_3515"/>
<feBlend mode="normal" in="SourceGraphic" in2="effect1_dropShadow_6090_3515" result="shape"/>
</filter>
<linearGradient id="paint0_linear_6090_3515" x1="796.293" y1="383.214" x2="648.781" y2="-205.154" gradientUnits="userSpaceOnUse">
<stop stop-color="#DE82FF"/>
<stop offset="1" stop-color="#7F6AFF"/>
</linearGradient>
<linearGradient id="paint1_linear_6090_3515" x1="1618.16" y1="365.545" x2="1316.38" y2="-554.662" gradientUnits="userSpaceOnUse">
<stop stop-color="#DE82FF"/>
<stop offset="1" stop-color="#7F6AFF"/>
</linearGradient>
<linearGradient id="paint2_linear_6090_3515" x1="1335.16" y1="701.545" x2="1033.38" y2="-218.662" gradientUnits="userSpaceOnUse">
<stop stop-color="#DE82FF"/>
<stop offset="1" stop-color="#7F6AFF"/>
</linearGradient>
<linearGradient id="paint3_linear_6090_3515" x1="1104.16" y1="339.545" x2="802.384" y2="-580.662" gradientUnits="userSpaceOnUse">
<stop stop-color="#DE82FF"/>
<stop offset="1" stop-color="#7F6AFF"/>
</linearGradient>
<linearGradient id="paint4_linear_6090_3515" x1="831.157" y1="679.545" x2="529.384" y2="-240.662" gradientUnits="userSpaceOnUse">
<stop stop-color="#DE82FF"/>
<stop offset="1" stop-color="#7F6AFF"/>
</linearGradient>
<clipPath id="clip0_6090_3515">
<rect width="840" height="280" fill="white"/>
</clipPath>
</defs>
</svg>
