<svg width="79" height="44" viewBox="0 0 79 44" fill="none" xmlns="http://www.w3.org/2000/svg">
<path d="M55.4996 36.2801L50.1345 36.9612L50.0385 36.5019L55.4036 35.8209L55.4996 36.2801Z" fill="#452E97"/>
<path d="M53.7878 51.9181L48.4228 52.5992C50.4173 48.5593 51.0604 43.869 50.3965 38.5928C50.3291 38.0455 50.2218 37.5055 50.1323 36.9602L55.4973 36.2791C55.5875 36.8227 55.6942 37.3644 55.7613 37.9115C56.4252 43.1877 55.782 47.8781 53.7875 51.9179" fill="#3F2A8A"/>
<path d="M52.0579 31.6163L46.6928 32.2974C46.9707 31.7081 47.1089 31.0627 47.0969 30.4114C47.0974 29.6155 46.9013 28.8317 46.5259 28.1299C46.4848 28.0547 46.442 27.9823 46.3979 27.9122L51.763 27.2311C51.8071 27.3012 51.8498 27.3737 51.8909 27.4488C52.2661 28.1507 52.4622 28.9344 52.462 29.7303C52.4737 30.3816 52.3353 31.0269 52.0576 31.6161" fill="#3F2A8A"/>
<path d="M52.0579 31.6163L46.6928 32.2974C46.9707 31.7081 47.1089 31.0627 47.0969 30.4114C47.0974 29.6155 46.9013 28.8317 46.5259 28.1299C46.4848 28.0547 46.442 27.9823 46.3979 27.9122L51.763 27.2311C51.8071 27.3012 51.8498 27.3737 51.8909 27.4488C52.2661 28.1507 52.4622 28.9344 52.462 29.7303C52.4737 30.3816 52.3353 31.0269 52.0576 31.6161" fill="#3F2A8A"/>
<path d="M50.4402 32.9238L45.0752 33.6049L45.1316 33.5955C45.2107 33.5825 45.2888 33.5642 45.3655 33.5408C45.8682 33.3678 46.2913 33.0186 46.5563 32.5576C46.6082 32.4742 46.6565 32.387 46.7012 32.2959L52.0663 31.6149C52.0215 31.7056 51.9733 31.7929 51.9217 31.8768C51.6567 32.3378 51.2335 32.687 50.7305 32.8597C50.654 32.8833 50.5758 32.9016 50.4967 32.9144C50.4783 32.9172 50.46 32.92 50.4415 32.9224" fill="#3D2885"/>
<path d="M53.7878 51.9181L48.4228 52.5992C50.4173 48.5593 51.0604 43.869 50.3965 38.5928C50.3291 38.0455 50.2218 37.5055 50.1323 36.9602L55.4973 36.2791C55.5875 36.8227 55.6942 37.3644 55.7613 37.9115C56.4252 43.1877 55.782 47.8781 53.7875 51.9179" fill="#3F2A8A"/>
<path d="M51.9663 36.882L46.6013 37.563C47.7518 37.2089 48.9022 36.8549 50.0525 36.5012L55.4176 35.8201C54.2673 36.1739 53.1169 36.5278 51.9663 36.882Z" fill="#858585"/>
<path d="M52.0579 31.6161L46.6928 32.2972C46.9707 31.708 47.1089 31.0626 47.0969 30.4113C47.0974 29.6153 46.9013 28.8316 46.5259 28.1298C46.4848 28.0546 46.442 27.9822 46.3979 27.9121L51.763 27.231C51.8071 27.301 51.8498 27.3736 51.8909 27.4487C52.2661 28.1506 52.4622 28.9343 52.462 29.7302C52.4737 30.3815 52.3353 31.0267 52.0576 31.616" fill="#3F2A8A"/>
<path d="M51.7639 27.2315L46.3989 27.9126C46.0956 27.398 45.6395 26.9906 45.094 26.7471C44.8063 26.6283 44.4929 26.5853 44.1839 26.6223L49.5489 25.9412C49.858 25.904 50.1714 25.947 50.4591 26.066C51.0045 26.3094 51.4605 26.7167 51.7636 27.2313" fill="#3D2885"/>
<path d="M51.7639 27.2315L46.3989 27.9126C46.0956 27.398 45.6395 26.9906 45.094 26.7471C44.8063 26.6283 44.4929 26.5853 44.1839 26.6223L49.5489 25.9412C49.858 25.904 50.1714 25.947 50.4591 26.066C51.0045 26.3094 51.4605 26.7167 51.7636 27.2313" fill="#3D2885"/>
<path d="M50.4324 32.9242L45.0673 33.6053L45.1238 33.596C45.2029 33.583 45.281 33.5647 45.3577 33.5413C45.8604 33.3683 46.2835 33.019 46.5485 32.5581C46.6004 32.4747 46.6487 32.3875 46.6934 32.2964L52.0585 31.6153C52.0137 31.7061 51.9655 31.7934 51.9139 31.8772C51.6489 32.3383 51.2257 32.6875 50.7227 32.8602C50.6461 32.8838 50.568 32.9021 50.4889 32.9149C50.4705 32.9177 50.4522 32.9205 50.4337 32.9229" fill="#3D2885"/>
<path d="M52.0579 31.6163L46.6928 32.2974C46.9707 31.7081 47.1089 31.0627 47.0969 30.4114C47.0974 29.6155 46.9013 28.8317 46.5259 28.1299C46.4848 28.0547 46.442 27.9823 46.3979 27.9122L51.763 27.2311C51.8071 27.3012 51.8498 27.3737 51.8909 27.4488C52.2661 28.1507 52.4622 28.9344 52.462 29.7303C52.4737 30.3816 52.3353 31.0269 52.0576 31.6161" fill="#3F2A8A"/>
<path d="M49.2622 26.0032L43.8971 26.6843C43.9915 26.655 44.0882 26.634 44.1862 26.6216L49.5512 25.9405C49.4532 25.953 49.3564 25.9739 49.2619 26.003" fill="#858585"/>
<path d="M53.7878 51.9181L48.4228 52.5992C50.4173 48.5593 51.0604 43.869 50.3965 38.5928C50.3291 38.0455 50.2218 37.5055 50.1323 36.9602L55.4973 36.2791C55.5875 36.8227 55.6942 37.3644 55.7613 37.9115C56.4252 43.1877 55.782 47.8781 53.7875 51.9179" fill="#3F2A8A"/>
<path d="M50.457 32.9235L45.092 33.6045C44.8025 33.6315 44.5107 33.5963 44.2359 33.5014C43.9612 33.4065 43.7098 33.2541 43.4986 33.0544C43.2554 32.839 43.0447 32.5895 42.8731 32.3136L48.2382 31.6325C48.4097 31.9085 48.6204 32.158 48.8637 32.3733C49.0749 32.573 49.3263 32.7254 49.601 32.8203C49.8758 32.9152 50.1676 32.9503 50.457 32.9235" fill="#858585"/>
<path d="M48.2316 31.6326L42.8666 32.3137C42.8225 32.2435 42.7799 32.1708 42.7388 32.0957C42.5242 31.6998 42.3686 31.2747 42.2767 30.8339C42.1083 30.0601 42.1336 29.2567 42.3505 28.4951C42.408 28.303 42.4813 28.116 42.5698 27.936L47.9348 27.2549C47.8467 27.4351 47.7734 27.6221 47.7158 27.8142C47.4989 28.5758 47.4734 29.3793 47.6416 30.1531C47.7335 30.594 47.8893 31.019 48.1042 31.4148C48.1452 31.4901 48.1878 31.5628 48.2319 31.6328" fill="#8A8A8A"/>
<path d="M47.9334 27.2547L42.5684 27.9358C42.7647 27.5121 43.0745 27.1509 43.4634 26.8923C43.6022 26.8036 43.7523 26.7341 43.9098 26.6857L49.2748 26.0046C49.1175 26.0533 48.9674 26.1228 48.8284 26.2112C48.4398 26.4701 48.1301 26.8311 47.9334 27.2547" fill="#858585"/>
<path d="M49.2595 26.0034C49.6544 25.8841 50.0785 25.9062 50.459 26.0658C51.0804 26.3496 51.586 26.8376 51.8915 27.4487C52.2665 28.1507 52.4626 28.9344 52.4625 29.7302C52.4812 30.4831 52.2912 31.2264 51.9135 31.8779C51.6485 32.3389 51.2253 32.6882 50.7224 32.8609C50.6458 32.8845 50.5676 32.9027 50.4885 32.9155C50.1909 32.9529 49.8888 32.9237 49.6038 32.83C49.3189 32.7363 49.0583 32.5805 48.8409 32.3739C48.5351 32.1013 48.2801 31.7767 48.0876 31.4151C47.8728 31.0194 47.7169 30.5943 47.6251 30.1535C47.4568 29.3796 47.4824 28.5762 47.6993 27.8146C47.8673 27.1644 48.2624 26.5959 48.8133 26.2118C48.952 26.1228 49.1021 26.0527 49.2595 26.0034Z" fill="#FEFEFE"/>
<path d="M45.3319 23.7196L39.9668 24.4007L40.7416 22.431L46.1067 21.7499L45.3319 23.7196Z" fill="#432C92"/>
<path d="M44.7273 25.0481L39.3622 25.7292C39.4428 25.5929 39.5134 25.4597 39.5776 25.3295L44.9427 24.6484C44.8785 24.7786 44.8076 24.9108 44.7273 25.0481Z" fill="#3D2885"/>
<path d="M44.9457 24.6487L39.5807 25.3298C39.7386 25.0099 39.8571 24.7053 39.976 24.4021L45.3411 23.721C45.2222 24.0242 45.1037 24.3288 44.9457 24.6487Z" fill="#3F2A8A"/>
<path d="M44.8351 25.0019L39.4701 25.683C38.0487 25.0705 36.4928 24.8373 34.9544 25.0063L40.3195 24.3252C41.858 24.1565 43.414 24.3897 44.8354 25.0021" fill="#858585"/>
<path d="M44.7351 25.047L39.37 25.7281C39.4506 25.5918 39.5212 25.4586 39.5854 25.3284L44.9505 24.6473C44.8863 24.7775 44.8155 24.9097 44.7351 25.047Z" fill="#3D2885"/>
<path d="M44.7351 25.047L39.37 25.7281C39.4506 25.5918 39.5212 25.4586 39.5854 25.3284L44.9505 24.6473C44.8863 24.7775 44.8155 24.9097 44.7351 25.047Z" fill="#3D2885"/>
<path d="M42.5222 39.7931L37.1571 40.4742C40.2992 39.5011 43.4418 38.5307 46.585 37.563L51.95 36.8819C48.8071 37.8497 45.6645 38.8201 42.5222 39.7931Z" fill="#858585"/>
<path d="M42.2761 40.0294L36.911 40.7105C36.9151 40.7035 36.9179 40.6953 36.9213 40.688L42.2864 40.0069C42.2823 40.0139 42.278 40.0212 42.2758 40.0293" fill="#8A8A8A"/>
<path d="M42.2875 40.0064L36.9224 40.6874C36.9648 40.5907 37.0434 40.5143 37.1414 40.4747L42.5065 39.7936C42.4086 39.8334 42.3301 39.9098 42.2878 40.0066" fill="#858585"/>
<path d="M46.1136 21.7511L40.7485 22.4322C38.8295 21.3373 36.6104 20.8856 34.4161 21.1433L39.7812 20.4622C41.9754 20.2048 44.1945 20.6564 46.1136 21.7511" fill="#3D2885"/>
<path d="M33.0482 30.1743L27.6831 30.8553C28.9674 28.2534 30.8724 26.3048 33.1731 25.4516C33.3241 25.396 33.4753 25.3447 33.6269 25.2977C34.0615 25.1634 34.507 25.0668 34.9582 25.009L40.3233 24.3279C39.8719 24.3856 39.4264 24.4823 38.9918 24.6169C38.8402 24.6634 38.689 24.7147 38.538 24.7709C36.2372 25.6235 34.3323 27.5727 33.0482 30.1743" fill="#3D2885"/>
<path d="M38.5216 20.6986L33.1565 21.3797C33.5262 21.3108 33.8939 21.2214 34.2641 21.1661C34.3236 21.1571 34.383 21.1494 34.4421 21.143L39.8072 20.4619C39.7475 20.4694 39.6882 20.4771 39.6289 20.4848C39.259 20.5403 38.891 20.6295 38.5213 20.6984" fill="#858585"/>
<path d="M37.8446 20.8994L32.4795 21.5805L33.125 21.3816L38.4901 20.7006L37.8446 20.8994Z" fill="#808080"/>
<path d="M37.7302 20.9571L32.3651 21.6382L32.4847 21.5806L37.8498 20.8995L37.7302 20.9571Z" fill="#828282"/>
<path d="M35.5603 9.06398L30.1953 9.74506C31.0527 9.48033 31.9314 9.29024 32.8216 9.17688L38.1867 8.49578C37.2965 8.60926 36.4178 8.79936 35.5603 9.06398Z" fill="#3D2885"/>
<path d="M33.0482 30.1743L27.6831 30.8553C28.9674 28.2534 30.8724 26.3048 33.1731 25.4516C33.3241 25.396 33.4753 25.3447 33.6269 25.2977C34.0615 25.1634 34.507 25.0668 34.9582 25.009L40.3233 24.3279C39.8719 24.3856 39.4264 24.4823 38.9918 24.6169C38.8402 24.6634 38.689 24.7147 38.538 24.7709C36.2372 25.6235 34.3323 27.5727 33.0482 30.1743" fill="#3D2885"/>
<path d="M51.9468 36.8824C53.0973 36.5282 54.2477 36.1743 55.398 35.8206L55.494 36.2798C55.5841 36.8234 55.6906 37.3655 55.7577 37.9125C56.4864 43.7036 55.6406 48.7888 53.1621 53.0836C51.4124 56.111 49.1396 58.0484 46.403 58.8907C46.2409 58.9407 46.078 58.9868 45.9129 59.0287C42.4892 59.8993 39.1827 58.9703 36.0094 56.3271C35.9792 56.3058 35.9541 56.1789 35.9694 56.14C38.0699 50.7654 40.1769 45.3946 42.2903 40.0276C42.3105 39.9747 42.3412 39.9266 42.3807 39.886C42.4202 39.8455 42.4675 39.8135 42.5198 39.792C45.662 38.8203 48.8043 37.8504 51.9468 36.8824Z" fill="#FEFEFE"/>
<path d="M36.0172 56.3141L30.6521 56.9952C30.6247 56.9416 30.6147 56.8809 30.6236 56.8213C32.7241 51.4467 34.8312 46.076 36.9448 40.7091L42.3098 40.028C40.1981 45.396 38.0912 50.7668 35.989 56.1405C35.9801 56.2 35.99 56.2608 36.0175 56.3143" fill="#8A8A8A"/>
<path d="M34.4018 49.6989L29.0367 50.38C27.0863 47.235 26.0077 43.6277 25.9117 39.9282C25.7433 36.803 26.3533 33.685 27.687 30.8536L33.052 30.1725C31.7184 33.0039 31.1084 36.122 31.2768 39.2471C31.3726 42.9465 32.451 46.5538 34.4015 49.6987" fill="#3F2A8A"/>
<path d="M33.0482 30.1743L27.6831 30.8553C28.9674 28.2534 30.8724 26.3048 33.1731 25.4516C33.3241 25.396 33.4753 25.3447 33.6269 25.2977C34.0615 25.1634 34.507 25.0668 34.9582 25.009L40.3233 24.3279C39.8719 24.3856 39.4264 24.4823 38.9918 24.6169C38.8402 24.6634 38.689 24.7147 38.538 24.7709C36.2372 25.6235 34.3323 27.5727 33.0482 30.1743" fill="#3D2885"/>
<path d="M32.3525 52.0581L26.9874 52.7392C25.1695 49.8043 23.9714 46.5284 23.467 43.1132C22.6103 37.7362 23.3673 32.4843 25.3588 28.4487L30.7239 27.7676C28.7323 31.8032 27.9757 37.0553 28.8324 42.4323C29.3368 45.8474 30.5348 49.1232 32.3525 52.0581Z" fill="#8A8A8A"/>
<path d="M30.7218 27.7679L25.3567 28.449C26.6312 25.8657 28.411 23.7823 30.5963 22.481C31.1619 22.1417 31.7665 21.9178 32.3525 21.6371L37.7176 20.956C37.1323 21.2362 36.5277 21.4601 35.9614 21.7999C33.7748 23.1004 31.9949 25.1847 30.7218 27.7679Z" fill="#858585"/>
<path d="M35.5588 9.06453C47.2398 5.46812 59.6462 16.2846 63.2706 33.2257C66.895 50.1668 60.3644 66.8141 48.6831 70.4108C37.0018 74.0075 24.5951 63.1874 20.9715 46.2493C17.3479 29.3113 23.8784 12.6618 35.5588 9.06453ZM33.5523 53.7564C33.9965 52.639 34.4204 51.5588 34.8398 50.4798C34.8462 50.4337 34.8369 50.3869 34.8137 50.3466C32.592 47.063 31.3593 43.2108 31.2621 39.2474C30.9779 32.4203 33.9805 26.4546 38.5271 24.7694C38.6783 24.7134 38.8296 24.6621 38.9809 24.6155C40.8847 24.0352 42.9368 24.1894 44.7325 25.0476C44.9724 24.6228 45.1767 24.1788 45.3432 23.7202L46.1175 21.7507C44.1456 20.6236 41.8568 20.179 39.6063 20.4862C39.2364 20.5417 38.8684 20.6308 38.4987 20.6997L37.8532 20.8986L37.7336 20.9562C37.1483 21.2364 36.5436 21.4603 35.9777 21.8003C30.3737 25.1328 27.4401 33.614 28.8449 42.432C29.4186 46.4028 30.9471 50.1752 33.2992 53.4255C33.3801 53.5383 33.4651 53.6463 33.5529 53.7568L33.5523 53.7564ZM55.4982 36.2802L55.4023 35.8209C54.252 36.1746 53.1016 36.5286 51.9511 36.8828C48.8081 37.8505 45.6655 38.8209 42.5232 39.7939C42.4709 39.8154 42.4236 39.8475 42.3841 39.888C42.3446 39.9285 42.3138 39.9766 42.2937 40.0295C40.1819 45.3975 38.075 50.7683 35.9728 56.142C35.9575 56.1808 35.9822 56.3075 36.0128 56.329C39.1861 58.9722 42.4925 59.9034 45.9162 59.0306C46.0815 58.9885 46.2444 58.9423 46.4064 58.8926C49.143 58.0504 51.4157 56.1129 53.1654 53.0855C55.6446 48.7911 56.4904 43.7059 55.7612 37.9141C55.6941 37.3671 55.5865 36.8269 55.4973 36.2818L55.4982 36.2802ZM48.8117 26.2115C48.2609 26.5956 47.8657 27.1641 47.6977 27.8142C47.4807 28.5758 47.4552 29.3793 47.6234 30.1531C47.7156 30.5938 47.8713 31.0187 48.0857 31.4146C48.2783 31.7762 48.5335 32.1009 48.8393 32.3735C49.0567 32.5802 49.3173 32.736 49.6022 32.8296C49.8871 32.9233 50.1893 32.9525 50.4869 32.9152C50.566 32.9024 50.6442 32.8841 50.7208 32.8605C51.2237 32.6878 51.647 32.3386 51.912 31.8775C52.2895 31.226 52.4795 30.4827 52.4609 29.7299C52.4612 28.934 52.265 28.1503 51.8899 27.4484C51.5845 26.8372 51.0789 26.3491 50.4573 26.0654C50.0769 25.9058 49.6528 25.8838 49.2579 26.0031C49.1006 26.0517 48.9504 26.1212 48.8115 26.2097" fill="#754DFE"/>
<path d="M38.5054 20.6987C38.8751 20.6298 39.2431 20.5407 39.613 20.4852C41.8454 20.1787 44.1168 20.6119 46.0796 21.7187L45.3497 23.7195C45.1829 24.1462 45.0149 24.5752 44.8423 25.0024C42.7906 24.179 40.8738 24.0348 38.9866 24.6161C38.8351 24.6625 38.6839 24.7139 38.5329 24.77C33.986 26.455 30.9843 32.4212 31.2679 39.2479C31.3649 43.2114 32.5976 47.0637 34.8194 50.3472C34.8427 50.3875 34.8519 50.4343 34.8455 50.4803C34.4261 51.5593 34.0034 52.6381 33.5776 53.7168C33.4695 53.6375 33.3767 53.5392 33.3038 53.4266C30.9515 50.1764 29.4231 46.404 28.8495 42.4331C27.4446 33.6152 30.3783 25.134 35.9819 21.8013C36.5478 21.4621 37.1524 21.2382 37.7382 20.9574L37.8578 20.8998L38.5054 20.6987Z" fill="#FEFEFE"/>
<path d="M26.1908 59.3879L20.8257 60.0689C18.3264 56.0297 16.5564 51.5827 15.5963 46.9308C13.5598 37.4113 14.7297 27.9844 18.2184 20.9137L23.5833 20.233C20.0947 27.3033 18.9252 36.7296 20.9617 46.2499C21.9217 50.9018 23.6918 55.3488 26.1911 59.3881" fill="#3F2A8A"/>
<path d="M23.5768 20.2332L18.212 20.914C20.9314 15.4021 25.0601 11.3218 30.1774 9.7465L35.5425 9.06542C30.4255 10.6409 26.2953 14.7207 23.5768 20.2332Z" fill="#3D2885"/>
</svg>
