<svg width="65" height="50" viewBox="0 0 65 50" fill="none" xmlns="http://www.w3.org/2000/svg">
<g id="Grupo 1736">
<g id="Grupo 1115">
<g id="Grupo 1114">
<g id="Grupo 1009">
<g id="Grupo 1008">
<g id="Grupo 1007">
<path id="Trazado 2107" d="M43.8461 50.315L40.6133 48.2299C41.325 47.6915 42.0056 47.1131 42.6519 46.4976L45.8847 48.5826C45.2385 49.1981 44.5578 49.7765 43.8461 50.315Z" fill="#462E99"/>
<path id="Trazado 2108" d="M45.8891 48.5824L42.6562 46.4974C43.2629 45.9193 43.8367 45.3077 44.3751 44.6655L47.6079 46.7505C47.0695 47.3927 46.4957 48.0042 45.8891 48.5824Z" fill="#442D94"/>
<path id="Trazado 2109" d="M47.5883 46.7509L44.3555 44.6659C44.9217 43.9901 45.4473 43.2812 45.9295 42.543L49.1623 44.628C48.6803 45.3662 48.1546 46.0751 47.5883 46.7509Z" fill="#422B8F"/>
<path id="Trazado 2110" d="M49.1626 44.6282L45.9297 42.5432C46.5267 41.6283 47.0577 40.672 47.5186 39.6816L50.7514 41.7666C50.2905 42.7571 49.7596 43.7133 49.1626 44.6282Z" fill="#3F2A8A"/>
<path id="Trazado 2111" d="M50.7797 41.7668L47.5469 39.6818C48.1841 38.3068 48.6982 36.8779 49.0832 35.4121C49.229 34.854 49.328 34.2871 49.4471 33.7256L52.68 35.8106C52.5608 36.3721 52.4619 36.9382 52.3161 37.4974C51.9309 38.9631 51.4168 40.3918 50.7797 41.7668Z" fill="#3D2885"/>
</g>
</g>
</g>
<g id="Grupo 1010">
<path id="Trazado 2113" d="M52.686 35.809L49.4531 33.724L49.5269 33.2412L52.7598 35.3262L52.686 35.809Z" fill="#3C2884"/>
</g>
<g id="Grupo 1013">
<g id="Grupo 1012">
<g id="Grupo 1011">
<path id="Trazado 2114" d="M48.1664 35.1358L44.9336 33.0508C46.4676 33.1137 48.0014 33.1769 49.5349 33.2404L52.7678 35.3255C51.2342 35.2619 49.7005 35.1987 48.1664 35.1358Z" fill="#ADADAD"/>
</g>
</g>
</g>
<g id="Grupo 1016">
<g id="Grupo 1015">
<g id="Grupo 1014">
<path id="Trazado 2116" d="M51.5248 28.4194L48.2919 26.3344C48.3052 26.3057 48.3175 26.277 48.3309 26.248C48.6739 25.486 48.7616 24.6337 48.581 23.8178C48.4127 23.0592 47.9621 22.3932 47.3206 21.9547C47.3063 21.945 47.292 21.9355 47.2773 21.9263L50.5102 24.0113C50.5245 24.0205 50.5391 24.03 50.5535 24.0397C51.195 24.4782 51.6456 25.1442 51.8138 25.9028C51.9944 26.7187 51.9067 27.571 51.5637 28.333C51.5511 28.362 51.5381 28.3907 51.5248 28.4194Z" fill="#3D2885"/>
</g>
</g>
</g>
<g id="Grupo 1019">
<g id="Grupo 1018">
<g id="Grupo 1017">
<path id="Trazado 2118" d="M49.8578 30.2743L46.625 28.1893C46.6506 28.1737 46.6788 28.1578 46.7055 28.1414C46.8209 28.0713 46.9326 27.9953 47.0402 27.9136L50.273 29.9986C50.1654 30.0802 50.0537 30.1564 49.9383 30.2267C49.9127 30.2428 49.8848 30.259 49.8578 30.2743Z" fill="#49309E"/>
</g>
</g>
</g>
<g id="Grupo 1022">
<g id="Grupo 1021">
<g id="Grupo 1020">
<path id="Trazado 2120" d="M51.5248 28.4194L48.2919 26.3344C48.3052 26.3057 48.3175 26.277 48.3309 26.248C48.6739 25.486 48.7616 24.6337 48.581 23.8178C48.4127 23.0592 47.9621 22.3932 47.3206 21.9547C47.3063 21.945 47.292 21.9355 47.2773 21.9263L50.5102 24.0113C50.5245 24.0205 50.5391 24.03 50.5535 24.0397C51.195 24.4782 51.6456 25.1442 51.8138 25.9028C51.9944 26.7187 51.9067 27.571 51.5637 28.333C51.5511 28.362 51.5381 28.3907 51.5248 28.4194Z" fill="#3D2885"/>
</g>
</g>
</g>
<g id="Grupo 1025">
<g id="Grupo 1024">
<g id="Grupo 1023">
<path id="Trazado 2122" d="M46.9008 30.5254L43.668 28.4404C43.9005 28.5389 44.1448 28.6071 44.3947 28.6434C44.4861 28.6569 44.5781 28.6664 44.6707 28.6718L47.9036 30.7568C47.8111 30.7515 47.7192 30.7421 47.6276 30.7284C47.3776 30.6921 47.1334 30.6239 46.9008 30.5254Z" fill="#4D33A8"/>
<path id="Trazado 2123" d="M47.9086 30.7581L44.6758 28.6731L44.7294 28.6759C44.8347 28.68 44.9403 28.6793 45.0461 28.6729L48.279 30.7581C48.1731 30.7643 48.0673 30.7653 47.9622 30.7609L47.9086 30.7581Z" fill="#5034AD"/>
<path id="Trazado 2124" d="M48.2641 30.7567L45.0312 28.6714C45.3909 28.6493 45.7449 28.5709 46.0802 28.439L49.313 30.524C48.9777 30.6559 48.6237 30.7344 48.2641 30.7567Z" fill="#4D33A8"/>
<path id="Trazado 2125" d="M49.311 30.5243L46.0781 28.4393C46.2568 28.3695 46.4298 28.2861 46.5958 28.1899L49.8286 30.275C49.6627 30.3711 49.4896 30.4545 49.311 30.5243Z" fill="#4B31A3"/>
<path id="Trazado 2126" d="M49.8305 30.2753L46.5977 28.1903C46.6233 28.1747 46.6515 28.1588 46.6781 28.1424C46.7936 28.0723 46.9053 27.9963 47.0128 27.9146L50.2457 29.9996C50.138 30.0812 50.0263 30.1573 49.911 30.2276C49.8853 30.2438 49.8574 30.2599 49.8305 30.2753Z" fill="#49309E"/>
<path id="Trazado 2127" d="M50.2641 29.9997L47.0312 27.9147C47.1549 27.8209 47.2731 27.7203 47.3854 27.6133L50.6183 29.6983C50.506 29.8054 50.3878 29.906 50.2641 29.9997Z" fill="#462E99"/>
<path id="Trazado 2128" d="M50.6 29.6984L47.3672 27.6134C47.4807 27.5052 47.588 27.3908 47.6886 27.2705L50.9214 29.3555C50.8208 29.4758 50.7135 29.5903 50.6 29.6984Z" fill="#442D94"/>
<path id="Trazado 2129" d="M50.9164 29.3555L47.6836 27.2705C47.7921 27.141 47.8928 27.0052 47.9852 26.8638L51.2181 28.9488C51.1257 29.0902 51.0249 29.226 50.9164 29.3555Z" fill="#422B8F"/>
<path id="Trazado 2130" d="M51.2407 28.9487L48.0078 26.8636C48.1181 26.6946 48.2163 26.5179 48.3017 26.335L51.5346 28.42C51.4492 28.6029 51.351 28.7796 51.2407 28.9487Z" fill="#3F2A8A"/>
<path id="Trazado 2131" d="M51.5287 28.4199L48.2958 26.3349C48.3091 26.3062 48.3214 26.2775 48.3348 26.2485C48.6778 25.4865 48.7655 24.6341 48.5849 23.8183C48.4166 23.0597 47.966 22.3936 47.3245 21.9552C47.3102 21.9455 47.2959 21.936 47.2812 21.9268L50.5141 24.0118C50.5284 24.021 50.543 24.0305 50.5574 24.0402C51.1989 24.4787 51.6495 25.1447 51.8178 25.9033C51.9983 26.7192 51.9106 27.5715 51.5676 28.3335C51.5551 28.3625 51.542 28.3912 51.5287 28.4199Z" fill="#3D2885"/>
</g>
</g>
</g>
<g id="Grupo 1028">
<g id="Grupo 1027">
<g id="Grupo 1026">
<path id="Trazado 2133" d="M51.5248 28.4194L48.2919 26.3344C48.3052 26.3057 48.3175 26.277 48.3309 26.248C48.6739 25.486 48.7616 24.6337 48.581 23.8178C48.4127 23.0592 47.9621 22.3932 47.3206 21.9547C47.3063 21.945 47.292 21.9355 47.2773 21.9263L50.5102 24.0113C50.5245 24.0205 50.5391 24.03 50.5535 24.0397C51.195 24.4782 51.6456 25.1442 51.8138 25.9028C51.9944 26.7187 51.9067 27.571 51.5637 28.333C51.5511 28.362 51.5381 28.3907 51.5248 28.4194Z" fill="#3D2885"/>
</g>
</g>
</g>
<g id="Grupo 1031">
<g id="Grupo 1030">
<g id="Grupo 1029">
<path id="Trazado 2135" d="M49.0375 23.546L45.8047 21.4609L45.8539 21.4633L49.0867 23.5485L49.0375 23.546Z" fill="#ADADAD"/>
<path id="Trazado 2136" d="M49.0805 23.5487L45.8477 21.4634C46.1916 21.4821 46.5297 21.5602 46.8471 21.694L50.0799 23.779C49.7626 23.6451 49.4245 23.5671 49.0805 23.5484" fill="#A8A8A8"/>
<path id="Trazado 2137" d="M50.0844 23.7804L46.8516 21.6953C47.0032 21.7595 47.1489 21.8367 47.2872 21.926L50.5201 24.011C50.3817 23.9218 50.2359 23.8447 50.0844 23.7804Z" fill="#A3A3A3"/>
</g>
</g>
</g>
<g id="Grupo 1034">
<g id="Grupo 1033">
<g id="Grupo 1032">
<path id="Trazado 2139" d="M51.5248 28.4194L48.2919 26.3344C48.3052 26.3057 48.3175 26.277 48.3309 26.248C48.6739 25.486 48.7616 24.6337 48.581 23.8178C48.4127 23.0592 47.9621 22.3932 47.3206 21.9547C47.3063 21.945 47.292 21.9355 47.2773 21.9263L50.5102 24.0113C50.5245 24.0205 50.5391 24.03 50.5535 24.0397C51.195 24.4782 51.6456 25.1442 51.8138 25.9028C51.9944 26.7187 51.9067 27.571 51.5637 28.333C51.5511 28.362 51.5381 28.3907 51.5248 28.4194Z" fill="#3D2885"/>
</g>
</g>
</g>
<g id="Grupo 1037">
<g id="Grupo 1036">
<g id="Grupo 1035">
<path id="Trazado 2141" d="M46.4868 30.2945L43.2539 28.2095C43.3923 28.2986 43.538 28.3758 43.6896 28.4401L46.9224 30.5251C46.7709 30.4608 46.6251 30.3837 46.4868 30.2945Z" fill="#4B31A3"/>
<path id="Trazado 2142" d="M46.932 30.525L43.6992 28.4399C43.9318 28.5384 44.176 28.6066 44.426 28.6429C44.5174 28.6564 44.6094 28.6659 44.702 28.6713L47.9348 30.7564C47.8424 30.7511 47.7504 30.7416 47.6588 30.7279C47.4089 30.6916 47.1646 30.6234 46.932 30.525Z" fill="#4D33A8"/>
</g>
</g>
</g>
<g id="Grupo 1040">
<g id="Grupo 1039">
<g id="Grupo 1038">
<path id="Trazado 2144" d="M51.5248 28.4194L48.2919 26.3344C48.3052 26.3057 48.3175 26.277 48.3309 26.248C48.6739 25.486 48.7616 24.6337 48.581 23.8178C48.4127 23.0592 47.9621 22.3932 47.3206 21.9547C47.3063 21.945 47.292 21.9355 47.2773 21.9263L50.5102 24.0113C50.5245 24.0205 50.5391 24.03 50.5535 24.0397C51.195 24.4782 51.6456 25.1442 51.8138 25.9028C51.9944 26.7187 51.9067 27.571 51.5637 28.333C51.5511 28.362 51.5381 28.3907 51.5248 28.4194Z" fill="#3D2885"/>
</g>
</g>
</g>
<g id="Grupo 1043">
<g id="Grupo 1042">
<g id="Grupo 1041">
<path id="Trazado 2146" d="M46.4711 30.295L43.2383 28.21C42.9531 28.0257 42.7025 27.7929 42.4977 27.5221C42.2287 27.165 42.038 26.755 41.9382 26.3192C41.8328 25.861 41.8154 25.387 41.887 24.9223C41.9464 24.5338 42.061 24.1558 42.2273 23.7998L45.4601 25.8848C45.2938 26.2409 45.1792 26.6188 45.1198 27.0073C45.0482 27.472 45.0656 27.946 45.1711 28.4042C45.2709 28.8401 45.4615 29.25 45.7305 29.6071C45.9353 29.878 46.1859 30.1108 46.4711 30.295Z" fill="#858585"/>
<path id="Trazado 2147" d="M45.4438 25.8839L42.2109 23.7989C42.296 23.6165 42.394 23.4404 42.5041 23.272L45.7369 25.357C45.6268 25.5254 45.5289 25.7015 45.4438 25.8839Z" fill="#8A8A8A"/>
<path id="Trazado 2148" d="M45.7641 25.3565L42.5312 23.2715C42.6226 23.1315 42.7222 22.9972 42.8296 22.8691L46.0624 24.9542C45.9551 25.0822 45.8554 25.2165 45.7641 25.3565Z" fill="#8F8F8F"/>
<path id="Trazado 2149" d="M46.061 24.9554L42.8281 22.8704C42.8855 22.802 42.9453 22.7353 43.0075 22.6703C43.0549 22.619 43.1033 22.5718 43.153 22.5244L46.3859 24.6094C46.3362 24.6569 46.2877 24.7056 46.2403 24.7555C46.1783 24.8203 46.1185 24.8869 46.061 24.9554Z" fill="#949494"/>
<path id="Trazado 2150" d="M46.3774 24.6085L43.1445 22.5235C43.2567 22.4164 43.375 22.3158 43.4987 22.2222L46.7316 24.3072C46.6078 24.4008 46.4896 24.5014 46.3774 24.6085Z" fill="#999999"/>
<path id="Trazado 2151" d="M46.7211 24.3064L43.4883 22.2214C43.6192 22.122 43.7562 22.0307 43.8983 21.9482L47.1312 24.0333C46.989 24.1158 46.852 24.207 46.7211 24.3064Z" fill="#9E9E9E"/>
<path id="Trazado 2152" d="M47.1391 24.0327L43.9062 21.9477C44.0734 21.8509 44.2476 21.767 44.4275 21.6968L47.6603 23.7818C47.4805 23.852 47.3062 23.9359 47.1391 24.0327Z" fill="#A3A3A3"/>
<path id="Trazado 2153" d="M47.6626 23.7836L44.4297 21.6986C44.6572 21.6095 44.8935 21.5442 45.1345 21.5038C45.249 21.4848 45.3645 21.4718 45.4804 21.4648L48.7133 23.5499C48.5973 23.5568 48.4819 23.5698 48.3673 23.5888C48.1263 23.6292 47.8901 23.6945 47.6626 23.7836Z" fill="#A8A8A8"/>
<path id="Trazado 2154" d="M48.7133 23.5492L45.4805 21.4642C45.5874 21.4578 45.6945 21.4568 45.8016 21.4611L49.0344 23.5462C48.9274 23.5418 48.8202 23.5428 48.7133 23.5492Z" fill="#ADADAD"/>
</g>
</g>
</g>
<g id="Grupo 1044">
<path id="Trazado 2156" d="M49.0422 23.547C49.5876 23.5665 50.1169 23.7371 50.5711 24.0395C51.2124 24.4781 51.663 25.1441 51.8315 25.9026C52.012 26.7184 51.9242 27.5708 51.5813 28.3328C51.2387 29.1169 50.6649 29.7777 49.9366 30.2269C49.349 30.5946 48.6655 30.78 47.9725 30.7594C47.8623 30.7549 47.7524 30.7445 47.6433 30.7282C46.8856 30.6205 46.2013 30.2173 45.7399 29.6067C45.4709 29.2496 45.2803 28.8396 45.1805 28.4038C45.075 27.9456 45.0576 27.4715 45.1292 27.0069C45.261 26.1606 45.6485 25.3748 46.2399 24.7553C46.8071 24.1456 47.5567 23.7364 48.3762 23.589C48.5962 23.5523 48.8194 23.5382 49.0422 23.547Z" fill="#DDDDDD"/>
</g>
<g id="Grupo 1045">
<path id="Trazado 2157" d="M44.9633 19.9161L41.7305 17.8311L43.5851 16.1909L46.818 18.2759L44.9633 19.9161Z" fill="#4C32A5"/>
</g>
<g id="Grupo 1048">
<g id="Grupo 1047">
<g id="Grupo 1046">
<path id="Trazado 2158" d="M43.5922 20.9923L40.3594 18.9073C40.5424 18.7899 40.7087 18.6725 40.8635 18.5552L44.0963 20.6402C43.9426 20.7576 43.7752 20.8749 43.5922 20.9923Z" fill="#49309E"/>
<path id="Trazado 2159" d="M44.1 20.6403L40.8672 18.5553C41.1868 18.3131 41.4582 18.0715 41.7311 17.8306L44.9639 19.9158C44.691 20.1565 44.4196 20.3981 44.1 20.6403Z" fill="#462E99"/>
</g>
</g>
</g>
<g id="Grupo 1051">
<g id="Grupo 1050">
<g id="Grupo 1049">
<path id="Trazado 2161" d="M43.5922 20.9928L40.3594 18.9078C40.5424 18.7904 40.7087 18.673 40.8635 18.5557L44.0963 20.6407C43.9426 20.758 43.7752 20.8754 43.5922 20.9928Z" fill="#49309E"/>
</g>
</g>
</g>
<g id="Grupo 1054">
<g id="Grupo 1053">
<g id="Grupo 1052">
<path id="Trazado 2163" d="M43.5922 20.9928L40.3594 18.9078C40.5424 18.7904 40.7087 18.673 40.8635 18.5557L44.0963 20.6407C43.9426 20.758 43.7752 20.8754 43.5922 20.9928Z" fill="#49309E"/>
</g>
</g>
</g>
<g id="Grupo 1057">
<g id="Grupo 1056">
<g id="Grupo 1055">
<path id="Trazado 2165" d="M43.714 20.986L40.4812 18.901C40.3992 18.846 40.3169 18.7919 40.2344 18.7388L43.4672 20.8238C43.5495 20.8768 43.632 20.9309 43.714 20.986Z" fill="#858585"/>
</g>
</g>
</g>
<g id="Grupo 1060">
<g id="Grupo 1059">
<g id="Grupo 1058">
<path id="Trazado 2167" d="M34.3813 34.5777L31.1484 32.4927C35.7504 32.6763 40.3524 32.8627 44.9545 33.0518L48.1873 35.1369C43.5857 34.9479 38.9837 34.7615 34.3813 34.5777Z" fill="#ADADAD"/>
</g>
</g>
</g>
<g id="Grupo 1063">
<g id="Grupo 1062">
<g id="Grupo 1061">
<path id="Trazado 2169" d="M22.7914 52.0696L19.5586 49.9844C20.2931 50.4584 21.0669 50.8684 21.8717 51.2099L25.1043 53.2949C24.2997 52.9534 23.5259 52.5435 22.7914 52.0696Z" fill="#4B31A3"/>
<path id="Trazado 2173" d="M38.5258 53.3462L35.293 51.2612C36.2705 50.8784 37.2172 50.4213 38.125 49.894L41.3579 51.9791C40.4501 52.5063 39.5033 52.9634 38.5258 53.3462Z" fill="#4B31A3"/>
<path id="Trazado 2174" d="M41.3578 51.9793L38.125 49.8943C38.464 49.6982 38.8011 49.4911 39.1365 49.2731C39.6509 48.9387 40.1471 48.5904 40.6249 48.228L43.8578 50.313C43.3794 50.6754 42.8833 51.0238 42.3693 51.3581C42.0338 51.5761 41.6966 51.7832 41.3578 51.9793Z" fill="#49309E"/>
<path id="Trazado 2175" d="M43.8735 50.313L40.6406 48.228C41.3523 47.6895 42.0329 47.1111 42.6792 46.4956L45.9121 48.5806C45.2658 49.1961 44.5852 49.7745 43.8735 50.313Z" fill="#462E99"/>
</g>
</g>
</g>
<g id="Grupo 1066">
<g id="Grupo 1065">
<g id="Grupo 1064">
<path id="Trazado 2177" d="M33.9555 34.7281L30.7227 32.6429L30.7437 32.6265L33.9765 34.7115C33.9693 34.7169 33.9624 34.7225 33.9555 34.7281Z" fill="#999999"/>
<path id="Trazado 2178" d="M33.975 34.712L30.7422 32.627C30.7645 32.6101 30.7878 32.5946 30.8119 32.5806L34.0448 34.6656C34.0206 34.6796 33.9973 34.6951 33.975 34.712Z" fill="#9E9E9E"/>
<path id="Trazado 2179" d="M34.0375 34.6647L30.8047 32.5797C30.8338 32.5629 30.8641 32.5484 30.8954 32.5361L34.1283 34.6211C34.097 34.6334 34.0666 34.6479 34.0375 34.6647Z" fill="#A3A3A3"/>
<path id="Trazado 2180" d="M34.1469 34.6214L30.9141 32.5364C30.9749 32.5126 31.039 32.4985 31.1042 32.4946L34.337 34.5796C34.2719 34.5835 34.2077 34.5976 34.1469 34.6214Z" fill="#A8A8A8"/>
<path id="Trazado 2181" d="M34.3071 34.5796L31.0742 32.4946C31.0842 32.4946 31.0945 32.4946 31.1045 32.4946L34.3373 34.5796H34.3071Z" fill="#ADADAD"/>
</g>
</g>
</g>
<g id="Grupo 1069">
<g id="Grupo 1068">
<g id="Grupo 1067">
<path id="Trazado 2183" d="M46.8281 18.2721L43.5953 16.1871C43.0729 15.7515 42.5245 15.348 41.9531 14.979L45.1859 17.064C45.7573 17.4331 46.3057 17.8365 46.8281 18.2721Z" fill="#3D2885"/>
</g>
</g>
</g>
<g id="Grupo 1072">
<g id="Grupo 1071">
<g id="Grupo 1070">
<path id="Trazado 2185" d="M22.781 52.0698L19.5482 49.9848C18.0087 48.9793 16.6439 47.729 15.5078 46.2832L18.7407 48.3682C19.8768 49.814 21.2416 51.0643 22.781 52.0698Z" fill="#858585"/>
</g>
</g>
</g>
<g id="Grupo 1075">
<g id="Grupo 1074">
<g id="Grupo 1073">
<path id="Trazado 2187" d="M18.7289 48.1657L15.4961 46.0807C20.5499 41.5974 25.6081 37.1172 30.6708 32.6401L33.9037 34.7254C28.8403 39.2016 23.7821 43.6817 18.7289 48.1657Z" fill="#999999"/>
</g>
</g>
</g>
<g id="Grupo 1076">
<path id="Trazado 2189" d="M48.1565 35.1353C49.6905 35.1984 51.2243 35.2616 52.7578 35.325L52.684 35.8078C52.5648 36.3692 52.4659 36.9354 52.3198 37.4945C50.7512 43.4059 47.4484 48.0598 42.3766 51.3587C38.8003 53.6846 35.0155 54.7574 31.1048 54.5967C30.8726 54.5871 30.6399 54.5733 30.4067 54.5552C25.5947 54.1785 21.7117 52.0848 18.7451 48.3671C18.7346 48.3336 18.7317 48.2982 18.7369 48.2635C18.742 48.2289 18.755 48.1958 18.7749 48.1669C23.8287 43.6835 28.887 39.2034 33.9497 34.7266C34.0626 34.6323 34.2044 34.5795 34.3515 34.5771C38.9527 34.7605 43.5544 34.9465 48.1565 35.1353Z" fill="#DDDDDD"/>
</g>
<g id="Grupo 1079">
<g id="Grupo 1078">
<g id="Grupo 1077">
<path id="Trazado 2190" d="M18.7521 48.3676L15.5192 46.2826C15.5007 46.2257 15.5049 46.1638 15.5308 46.1099L18.7636 48.1949C18.7377 48.2488 18.7335 48.3107 18.7521 48.3676Z" fill="#858585"/>
<path id="Trazado 2191" d="M18.7641 48.1946L15.5312 46.1096C15.5337 46.1043 15.5365 46.0991 15.5397 46.0942L18.7723 48.1792C18.7693 48.1842 18.7665 48.1894 18.7641 48.1946Z" fill="#8A8A8A"/>
<path id="Trazado 2192" d="M18.7678 48.1803L15.5352 46.0953C15.5367 46.0927 15.5384 46.0902 15.5403 46.0879L18.7731 48.1732C18.7712 48.1754 18.7694 48.1778 18.7678 48.1803Z" fill="#8F8F8F"/>
<path id="Trazado 2193" d="M18.7719 48.1726L15.5391 46.0874L15.5434 46.083L18.7763 48.168L18.7719 48.1726Z" fill="#949494"/>
<path id="Trazado 2194" d="M18.7758 48.168L15.543 46.083L18.7758 48.168Z" fill="#999999"/>
</g>
</g>
</g>
<g id="Grupo 1082">
<g id="Grupo 1081">
<g id="Grupo 1080">
<path id="Trazado 2196" d="M36.5649 18.5162L33.332 16.4312C34.8673 16.5098 36.3773 16.855 37.7942 17.4514L41.0271 19.5366C39.6102 18.9401 38.1002 18.5948 36.5649 18.5162Z" fill="#4D33A8"/>
<path id="Trazado 2197" d="M41.0219 19.5359L37.7891 17.4507C38.4786 17.744 39.1417 18.0961 39.771 18.5029L43.0039 20.588C42.3745 20.1812 41.7115 19.8292 41.0219 19.5359Z" fill="#4B31A3"/>
</g>
</g>
</g>
<g id="Grupo 1085">
<g id="Grupo 1084">
<g id="Grupo 1083">
<path id="Trazado 2199" d="M16.6467 44.9782L13.4141 42.8931C14.4771 41.9626 15.4919 41.0616 16.5049 40.1582L19.7378 42.2432V42.2445C18.7248 43.1476 17.7099 44.0486 16.6467 44.9792" fill="#462E99"/>
<path id="Trazado 2200" d="M19.7407 42.241L16.5078 40.1559L16.5114 40.1523L19.7442 42.2374L19.7407 42.241Z" fill="#442D94"/>
<path id="Trazado 2201" d="M19.7407 42.2379L16.5078 40.1529L16.5119 40.147L19.7448 42.232L19.7407 42.2379Z" fill="#422B8F"/>
<path id="Trazado 2202" d="M19.7524 42.232L16.5195 40.147C16.5218 40.1435 16.5238 40.1399 16.5257 40.1362L19.7583 42.2212C19.7566 42.225 19.7547 42.2286 19.7524 42.232Z" fill="#3F2A8A"/>
<path id="Trazado 2203" d="M19.756 42.2214L16.5234 40.1364C16.5396 40.0997 16.5423 40.0585 16.5311 40.02L19.764 42.105C19.7752 42.1435 19.7724 42.1848 19.756 42.2214Z" fill="#3D2885"/>
</g>
</g>
</g>
<g id="Grupo 1088">
<g id="Grupo 1087">
<g id="Grupo 1086">
<path id="Trazado 2205" d="M37.4321 14.5137L34.1992 12.4287C34.7077 12.492 35.2209 12.5376 35.7271 12.6189C37.0602 12.8266 38.3628 13.1966 39.606 13.7208L42.8388 15.8058C41.5957 15.2817 40.293 14.9116 38.9599 14.7039C38.4538 14.6229 37.9405 14.577 37.4321 14.5137Z" fill="#A8A8A8"/>
<path id="Trazado 2206" d="M42.8461 15.8082L39.6133 13.7231C40.4454 14.0765 41.2457 14.5006 42.0053 14.9909L45.2381 17.0759C44.4786 16.5856 43.6783 16.1615 42.8461 15.8082Z" fill="#A3A3A3"/>
</g>
</g>
</g>
<g id="Grupo 1089">
<path id="Trazado 2208" d="M36.4672 14.4756L33.2344 12.3906L34.1569 12.4285L37.3898 14.5135L36.4672 14.4756Z" fill="#B3B3B3"/>
</g>
<g id="Grupo 1092">
<g id="Grupo 1091">
<g id="Grupo 1090">
<path id="Trazado 2209" d="M16.6467 44.9786L13.4141 42.8936C14.4771 41.9631 15.4919 41.062 16.5049 40.1587L19.7378 42.2437V42.245C18.7248 43.1481 17.7099 44.0491 16.6467 44.9796" fill="#462E99"/>
</g>
</g>
</g>
<g id="Grupo 1095">
<g id="Grupo 1094">
<g id="Grupo 1093">
<path id="Trazado 2211" d="M16.6467 44.9786L13.4141 42.8936C14.4771 41.9631 15.4919 41.062 16.5049 40.1587L19.7378 42.2437V42.245C18.7248 43.1481 17.7099 44.0491 16.6467 44.9796" fill="#462E99"/>
</g>
</g>
</g>
<g id="Grupo 1096">
<path id="Trazado 2213" d="M36.3071 14.4899L33.0742 12.4049L33.2536 12.3921L36.4864 14.4771L36.3071 14.4899Z" fill="#B5B5B5"/>
</g>
<g id="Grupo 1099">
<g id="Grupo 1098">
<g id="Grupo 1097">
<path id="Trazado 2214" d="M27.9243 20.6634L24.6914 18.5784C25.4408 18.1442 26.2224 17.7682 27.0294 17.4536L30.2622 19.5386C29.4553 19.8533 28.6737 20.2293 27.9243 20.6634Z" fill="#4B31A3"/>
<path id="Trazado 2215" d="M30.2641 19.5386L27.0312 17.4536C28.5474 16.8572 30.1497 16.509 31.7766 16.4224L35.0095 18.5074C33.3826 18.594 31.7802 18.9422 30.2641 19.5386Z" fill="#4D33A8"/>
<path id="Trazado 2216" d="M34.9985 18.5075L31.7656 16.4225C31.9855 16.4118 32.2057 16.406 32.4263 16.4053C32.6468 16.4047 32.8631 16.4089 33.0751 16.4181C33.152 16.4215 33.2289 16.4251 33.3058 16.4294L36.5387 18.5144C36.4618 18.5101 36.3849 18.5065 36.308 18.5031C36.0932 18.4944 35.8769 18.4903 35.6591 18.4906C35.4413 18.4909 35.2211 18.4966 34.9985 18.5075Z" fill="#5034AD"/>
<path id="Trazado 2217" d="M36.5453 18.5147L33.3125 16.4297C34.8478 16.5084 36.3577 16.8536 37.7747 17.4499L41.0076 19.5351C39.5906 18.9386 38.0807 18.5934 36.5453 18.5147Z" fill="#4D33A8"/>
</g>
</g>
</g>
<g id="Grupo 1102">
<g id="Grupo 1101">
<g id="Grupo 1100">
<path id="Trazado 2219" d="M38.6313 2.10942L35.3984 0.0244141C35.4961 0.0285144 35.5937 0.0328655 35.6909 0.0379909L38.9237 2.123C38.8266 2.11787 38.7289 2.11352 38.6313 2.10942Z" fill="#5034AD"/>
<path id="Trazado 2220" d="M38.9203 2.12358L35.6875 0.0385742C38.8291 0.188162 41.9198 0.889414 44.8184 2.11026L48.0513 4.1953C45.1527 2.97461 42.0619 2.27334 38.9203 2.12358Z" fill="#4D33A8"/>
<path id="Trazado 2221" d="M48.0532 4.19442L44.8203 2.10938C46.1735 2.68327 47.4748 3.37238 48.71 4.16904L51.9428 6.25405C50.7076 5.45747 49.4063 4.76839 48.0532 4.19442Z" fill="#4B31A3"/>
</g>
</g>
</g>
<g id="Grupo 1105">
<g id="Grupo 1104">
<g id="Grupo 1103">
<path id="Trazado 2223" d="M19.7807 42.1038L16.5479 40.0188C15.102 36.1442 15.1551 32.1049 16.7608 27.9187C16.9129 27.5231 17.0778 27.1343 17.2554 26.7524L20.4883 28.8375C20.3108 29.2191 20.1459 29.608 19.9937 30.004C18.3879 34.1899 18.3348 38.2303 19.7807 42.1038Z" fill="#3D2885"/>
<path id="Trazado 2224" d="M20.5024 28.8368L17.2695 26.7518C17.6392 25.9586 18.0648 25.1927 18.5432 24.46L21.776 26.5452C21.2975 27.2778 20.8719 28.0436 20.5024 28.8368Z" fill="#3F2A8A"/>
<path id="Trazado 2225" d="M21.7719 26.5452L18.5391 24.4599C18.9442 23.8396 19.3859 23.2438 19.8617 22.6758L23.0943 24.7611C22.6184 25.329 22.1768 25.9247 21.7719 26.5452Z" fill="#422B8F"/>
<path id="Trazado 2226" d="M23.0959 24.7608L19.8633 22.6755C20.3101 22.1421 20.7864 21.6341 21.2899 21.1538L24.5228 23.2388C24.0192 23.7192 23.5428 24.2274 23.0959 24.7608Z" fill="#442D94"/>
<path id="Trazado 2227" d="M24.5063 23.2396L21.2734 21.1546C21.7771 20.6741 22.3075 20.2226 22.8623 19.8022L26.0949 21.8875C25.5401 22.3078 25.0097 22.7592 24.506 23.2396" fill="#462E99"/>
<path id="Trazado 2228" d="M26.092 21.8866L22.8594 19.8013C23.4474 19.3556 24.0624 18.9468 24.7009 18.5771L27.9338 20.6622C27.2952 21.032 26.6801 21.4409 26.092 21.8866Z" fill="#49309E"/>
<path id="Trazado 2229" d="M27.9282 20.6624L24.6953 18.5774C25.4447 18.1432 26.2263 17.7672 27.0333 17.4526L30.2661 19.5376C29.4592 19.8523 28.6776 20.2283 27.9282 20.6624Z" fill="#4B31A3"/>
</g>
</g>
</g>
<g id="Grupo 1108">
<g id="Grupo 1107">
<g id="Grupo 1106">
<path id="Trazado 2231" d="M16.7056 44.9448L13.4727 42.8598C13.3732 42.7483 13.2958 42.619 13.2444 42.4787C11.6328 38.6467 11.2791 34.5369 12.2421 30.159C12.6035 28.5209 13.1432 26.9273 13.8515 25.4067L17.0844 27.4917C16.3761 29.0124 15.8364 30.606 15.475 32.244C14.5117 36.6219 14.8656 40.7317 16.477 44.5637C16.5285 44.704 16.606 44.8333 16.7056 44.9448Z" fill="#858585"/>
<path id="Trazado 2232" d="M17.0805 27.4901L13.8477 25.4051C14.32 24.3902 14.8643 23.4104 15.4765 22.4731L18.7093 24.5582C18.0972 25.4954 17.5529 26.4752 17.0805 27.4901Z" fill="#8A8A8A"/>
<path id="Trazado 2233" d="M18.6938 24.559L15.4609 22.4739C15.9713 21.6932 16.5275 20.9434 17.1267 20.2285L20.3595 22.3135C19.7604 23.0284 19.2042 23.7782 18.6938 24.559Z" fill="#8F8F8F"/>
<path id="Trazado 2234" d="M20.3852 22.3126L17.1523 20.2276C17.7104 19.5617 18.3051 18.9274 18.9337 18.3276L22.1666 20.4126C21.538 21.0124 20.9432 21.6467 20.3852 22.3126Z" fill="#949494"/>
<path id="Trazado 2235" d="M22.1664 20.4133L18.9336 18.3283C19.5572 17.7333 20.2141 17.1741 20.901 16.6533L24.1338 18.7383C23.4469 19.2591 22.7901 19.8183 22.1664 20.4133Z" fill="#999999"/>
<path id="Trazado 2236" d="M24.1196 18.7387L20.8867 16.6537C21.6142 16.1021 22.3753 15.5961 23.1655 15.1387L26.3983 17.2237C25.6082 17.6811 24.8471 18.1871 24.1196 18.7387Z" fill="#9E9E9E"/>
<path id="Trazado 2237" d="M26.4086 17.2232L23.1758 15.1382C24.1071 14.5989 25.0783 14.1318 26.0811 13.7412L29.3137 15.8262C28.311 16.2169 27.3399 16.6839 26.4086 17.2232Z" fill="#A3A3A3"/>
<path id="Trazado 2238" d="M29.3029 15.8262L26.0703 13.7411C27.4715 13.1943 28.9307 12.81 30.4195 12.5956C30.8157 12.5395 31.2119 12.5077 31.6081 12.4839L34.8409 14.5691C34.4447 14.5927 34.0486 14.6245 33.6524 14.6806C32.1635 14.895 30.7042 15.2794 29.3029 15.8262Z" fill="#A8A8A8"/>
<path id="Trazado 2239" d="M34.8344 14.5687L31.6016 12.4834C31.9972 12.4599 32.3931 12.4445 32.7886 12.4209L36.0214 14.5059C35.626 14.5295 35.2301 14.5449 34.8344 14.5687Z" fill="#ADADAD"/>
<path id="Trazado 2240" d="M36.0297 14.5062L32.7969 12.4212C32.8855 12.4159 32.9742 12.4102 33.0629 12.4038L36.2958 14.4891C36.2071 14.4952 36.1184 14.5009 36.0297 14.5062Z" fill="#A8A8A8"/>
</g>
</g>
</g>
<g id="Grupo 1109">
<path id="Trazado 2242" d="M37.4341 14.5145C37.9425 14.5778 38.4558 14.6237 38.9619 14.7046C41.8486 15.1435 44.5608 16.3618 46.8061 18.2284L44.9927 19.9161C44.5873 20.2734 44.1857 20.6337 43.7788 20.9858C41.5898 19.4727 39.0161 18.6122 36.3572 18.5046C36.1424 18.4956 35.9261 18.4913 35.7081 18.4918C29.085 18.5064 22.6065 23.2469 20.0164 30.0055C18.4106 34.1914 18.3576 38.2317 19.8034 42.1053C19.8105 42.1284 19.8121 42.1529 19.8082 42.1768C19.8043 42.2007 19.795 42.2234 19.7809 42.2432C18.7678 43.1466 17.7523 44.0468 16.7346 44.9437C16.635 44.8323 16.5575 44.703 16.506 44.5627C14.8946 40.7307 14.5407 36.6209 15.504 32.243C17.5072 23.1408 24.9832 15.9222 33.6887 14.6808C34.5692 14.5557 35.4508 14.5527 36.3303 14.4894L36.5097 14.4766L37.4341 14.5145Z" fill="#DDDDDD"/>
</g>
<g id="Grupo 1112">
<g id="Grupo 1111">
<g id="Grupo 1110">
<path id="Trazado 2243" d="M15.7304 62.5009L12.4976 60.4159C3.56608 54.6552 -1.47448 43.5472 0.38271 31.0517C0.907387 27.5439 1.93682 24.1305 3.43899 20.9175L6.67184 23.0025C5.16966 26.2156 4.14023 29.6291 3.61555 33.1369C1.75811 45.6322 6.79892 56.7394 15.7304 62.5009Z" fill="#3D2885"/>
<path id="Trazado 2244" d="M6.66253 23.0038L3.42969 20.9188C4.18751 19.2951 5.05961 17.7272 6.0395 16.2271L9.27235 18.3121C8.29234 19.8122 7.42023 21.3801 6.66253 23.0038Z" fill="#3F2A8A"/>
<path id="Trazado 2245" d="M9.27191 18.3113L6.03906 16.2263C6.86227 14.9659 7.75962 13.7555 8.72633 12.6016L11.9592 14.6866C10.9925 15.8405 10.0951 17.0509 9.27191 18.3113Z" fill="#422B8F"/>
<path id="Trazado 2246" d="M11.9868 14.6858L8.75391 12.6008C9.65747 11.5216 10.6208 10.4939 11.6393 9.52246L14.8721 11.6075C13.8537 12.579 12.8904 13.6067 11.9868 14.6858Z" fill="#442D94"/>
<path id="Trazado 2247" d="M14.8657 11.6087L11.6328 9.5237C12.6433 8.55971 13.7076 7.65371 14.8205 6.81006L18.0531 8.89507C16.9402 9.73866 15.876 10.6447 14.8657 11.6087Z" fill="#462E99"/>
<path id="Trazado 2248" d="M18.0451 8.89445L14.8125 6.80944C15.9877 5.9184 17.2171 5.1011 18.4936 4.3623L21.7264 6.44759C20.4499 7.18626 19.2204 8.00345 18.0451 8.89445Z" fill="#49309E"/>
<path id="Trazado 2249" d="M21.725 6.44667L18.4922 4.36138C19.9807 3.49931 21.5328 2.75217 23.135 2.12646L26.3679 4.21147C24.7656 4.83716 23.2134 5.58441 21.725 6.44667Z" fill="#4B31A3"/>
<path id="Trazado 2250" d="M26.3735 4.21202L23.1406 2.12701C26.1842 0.930244 29.399 0.226253 32.6642 0.0415039L35.8968 2.12651C32.6317 2.3113 29.4169 3.01529 26.3735 4.21202Z" fill="#4D33A8"/>
<path id="Trazado 2251" d="M35.8732 2.12703L32.6406 0.0420186C33.5521 -0.00718525 34.4682 -0.0131824 35.3891 0.0240622L38.6219 2.10907C37.7019 2.07149 36.7857 2.07748 35.8732 2.12703Z" fill="#5034AD"/>
</g>
</g>
</g>
<g id="Grupo 1113">
<path id="Trazado 2253" d="M38.6668 2.10925C55.3597 2.79426 66.7448 17.7971 64.0958 35.6184C61.4467 53.4397 45.7663 67.3315 29.0737 66.6465C12.381 65.9615 0.99515 50.961 3.64447 33.1377C6.29379 15.3143 21.9739 1.42424 38.6668 2.10925ZM16.6868 44.9776C17.7501 44.0471 18.7649 43.146 19.778 42.243C19.792 42.2232 19.8013 42.2005 19.8053 42.1766C19.8092 42.1527 19.8075 42.1282 19.8005 42.1051C18.3546 38.2305 18.4077 34.1912 20.0135 30.0053C22.6036 23.2467 29.0821 18.5062 35.7054 18.4916C35.9236 18.4916 36.1399 18.4957 36.3543 18.5041C38.9712 18.5874 41.503 19.4543 43.6219 20.9925C44.1063 20.6714 44.5638 20.3115 44.9898 19.9162L46.8444 18.2748C44.5939 16.3829 41.8655 15.1477 38.959 14.7047C38.4531 14.6234 37.9396 14.5778 37.4311 14.5143L36.5085 14.4766L36.3292 14.4891C35.4494 14.5517 34.5678 14.5558 33.6873 14.6808C24.9818 15.9222 17.5059 23.1408 15.5026 32.2428C14.5395 36.6209 14.8932 40.7304 16.5048 44.5627C16.5638 44.7016 16.6276 44.8364 16.6883 44.9779L16.6868 44.9776ZM52.702 35.8093L52.7758 35.3265C51.2423 35.2629 49.7085 35.1997 48.1745 35.1368C43.5729 34.9479 38.9709 34.7615 34.3684 34.5777C34.2214 34.5801 34.0796 34.6327 33.9666 34.7268C28.9034 39.203 23.8451 43.6832 18.7918 48.1674C18.772 48.1963 18.759 48.2294 18.7538 48.264C18.7487 48.2987 18.7515 48.3341 18.7621 48.3675C21.7287 52.0852 25.612 54.179 30.4237 54.5557C30.6569 54.574 30.8896 54.5878 31.122 54.5972C35.0327 54.7576 38.8173 53.6852 42.3938 51.3592C47.4664 48.0611 50.7692 43.4074 52.3371 37.495C52.4829 36.9366 52.5818 36.3698 52.701 35.8083L52.702 35.8093ZM48.4018 23.5883C47.5823 23.7357 46.8328 24.1448 46.2655 24.7543C45.6743 25.3739 45.2867 26.1596 45.1549 27.0059C45.0833 27.4707 45.1007 27.9448 45.2061 28.4031C45.3059 28.839 45.4965 29.2489 45.7655 29.606C46.2269 30.2166 46.9111 30.6198 47.6688 30.7274C47.7781 30.7438 47.8881 30.7542 47.9984 30.7587C48.6912 30.7791 49.3746 30.5938 49.9622 30.2262C50.6905 29.777 51.2643 29.1162 51.607 28.3321C51.9499 27.5701 52.0377 26.7177 51.8571 25.9019C51.6888 25.1433 51.2382 24.4772 50.5967 24.0388C50.1426 23.7361 49.6133 23.5656 49.0678 23.5462C48.8449 23.5375 48.6216 23.5516 48.4015 23.5883" fill="#6543DD"/>
</g>
</g>
</g>
</g>
</svg>
