<svg width="84" height="74" viewBox="0 0 84 74" fill="none" xmlns="http://www.w3.org/2000/svg">
<path d="M85.1044 38.2835L80.3446 45.1905L79.8984 44.5145L84.6583 37.6077L85.1044 38.2835Z" fill="#3E2988"/>
<path d="M86.3217 68.4145L81.5621 75.32C82.316 74.2233 82.967 73.0595 83.5072 71.8434C86.8394 64.3769 86.2082 56.2668 81.7443 47.6026C81.3235 46.7892 80.8202 45.994 80.3672 45.1932L85.1271 38.2863C85.58 39.087 86.0806 39.8836 86.5041 40.6956C90.9667 49.3612 91.5993 57.47 88.2671 64.9379C87.726 66.1536 87.0747 67.3174 86.3217 68.4145Z" fill="#3D2885"/>
<path d="M74.7598 33.2334L70 40.1404C70.1046 39.9907 70.1986 39.8338 70.2807 39.6706C70.7889 38.5704 70.8432 37.3143 70.432 36.1743C69.9787 34.8613 69.1498 33.7105 68.048 32.8646C66.9429 31.9761 65.6115 31.4141 64.204 31.242C63.3025 31.1308 62.3872 31.2429 61.5392 31.5687C61.2307 31.6924 60.9371 31.8505 60.6641 32.04L65.4239 25.133C65.6971 24.9436 65.9906 24.7856 66.2991 24.6619C67.147 24.336 68.062 24.2237 68.9635 24.3351C70.3711 24.5071 71.7028 25.0691 72.8079 25.9576C73.9075 26.8041 74.7339 27.955 75.1847 29.2673C75.597 30.407 75.5431 31.6634 75.0348 32.7636C74.9527 32.9268 74.859 33.0837 74.7544 33.2334" fill="#3D2885"/>
<path d="M86.3217 68.4145L81.5621 75.32C82.316 74.2233 82.967 73.0595 83.5072 71.8434C86.8394 64.3769 86.2082 56.2668 81.7443 47.6026C81.3235 46.7892 80.8202 45.994 80.3672 45.1932L85.1271 38.2863C85.58 39.087 86.0806 39.8836 86.5041 40.6956C90.9667 49.3612 91.5993 57.47 88.2671 64.9379C87.726 66.1536 87.0747 67.3174 86.3217 68.4145Z" fill="#3D2885"/>
<path d="M86.3217 68.4145L81.5621 75.32C82.316 74.2233 82.967 73.0595 83.5072 71.8434C86.8394 64.3769 86.2082 56.2668 81.7443 47.6026C81.3235 46.7892 80.8202 45.994 80.3672 45.1932L85.1271 38.2863C85.58 39.087 86.0806 39.8836 86.5041 40.6956C90.9667 49.3612 91.5993 57.47 88.2671 64.9379C87.726 66.1536 87.0747 67.3174 86.3217 68.4145Z" fill="#3D2885"/>
<path d="M65.429 25.1332L60.6691 32.0402C60.2858 32.306 59.9534 32.6385 59.6875 33.0218L64.4474 26.115C64.7131 25.7316 65.0456 25.3989 65.429 25.1332Z" fill="#3D2885"/>
<path d="M74.7598 33.2334L70 40.1404C70.1046 39.9907 70.1986 39.8338 70.2807 39.6706C70.7889 38.5704 70.8432 37.3143 70.432 36.1743C69.9787 34.8613 69.1498 33.7105 68.048 32.8646C66.9429 31.9761 65.6115 31.4141 64.204 31.242C63.3025 31.1308 62.3872 31.2429 61.5392 31.5687C61.2307 31.6924 60.9371 31.8505 60.6641 32.04L65.4239 25.133C65.6971 24.9436 65.9906 24.7856 66.2991 24.6619C67.147 24.336 68.062 24.2237 68.9635 24.3351C70.3711 24.5071 71.7028 25.0691 72.8079 25.9576C73.9075 26.8041 74.7339 27.955 75.1847 29.2673C75.597 30.407 75.5431 31.6634 75.0348 32.7636C74.9527 32.9268 74.859 33.0837 74.7544 33.2334" fill="#3D2885"/>
<path d="M56.5489 22.5189L51.7891 29.4257L52.5283 26.1287L57.2882 19.2217L56.5489 22.5189Z" fill="#3B2780"/>
<path d="M55.8536 24.778L51.0938 31.6834C51.4074 30.9608 51.6375 30.2045 51.7796 29.4296L56.5394 22.5228C56.3974 23.2982 56.1673 24.0548 55.8536 24.778Z" fill="#3D2885"/>
<path d="M55.8536 24.778L51.0938 31.6834C51.4074 30.9608 51.6375 30.2045 51.7796 29.4296L56.5394 22.5228C56.3974 23.2982 56.1673 24.0548 55.8536 24.778Z" fill="#3D2885"/>
<path d="M57.2702 19.2194L52.5121 26.1263C47.5699 25.081 42.4524 25.1958 37.5621 26.4615C36.7613 26.6677 35.9999 26.9355 35.2188 27.1725L39.9786 20.2671C40.7598 20.0301 41.5211 19.7621 42.3219 19.5546C47.2119 18.2894 52.3285 18.1747 57.2702 19.2194Z" fill="#3D2885"/>
<path d="M56.0639 24.6584L51.3041 31.5654C46.8868 30.9406 42.3833 31.4413 38.2111 33.0211C37.9054 33.1435 37.6018 33.2736 37.3007 33.4111C34.3615 34.7225 31.837 36.8126 30 39.4554L34.7582 32.5499C36.5953 29.9064 39.1206 27.8156 42.0606 26.5041C42.3607 26.3638 42.6653 26.2377 42.971 26.1143C47.1433 24.5349 51.6466 24.0341 56.0639 24.6584Z" fill="#858585"/>
<path d="M55.8536 24.778L51.0938 31.6834C51.4074 30.9608 51.6375 30.2045 51.7796 29.4296L56.5394 22.5228C56.3974 23.2982 56.1673 24.0548 55.8536 24.778Z" fill="#3D2885"/>
<path d="M74.7878 33.2359L70.028 40.1429C69.5665 40.7996 68.9202 41.3043 68.1712 41.5929C68.0116 41.6571 67.8488 41.7129 67.6833 41.7598C66.3899 42.0922 65.0243 42.0058 63.7831 41.5129C63.0166 41.217 62.2985 40.8081 61.6528 40.2998C61.0154 39.7969 60.4617 39.1964 60.0121 38.5203C59.2835 37.4575 58.9375 36.1787 59.0305 34.8935C59.0971 34.2239 59.3303 33.5816 59.7091 33.0255L64.469 26.1187C64.0901 26.6748 63.8565 27.3171 63.79 27.9867C63.6971 29.2723 64.0435 30.5513 64.772 31.6147C65.2214 32.2909 65.7752 32.8916 66.4127 33.3944C67.0585 33.9021 67.7765 34.3106 68.543 34.6061C69.7842 35.099 71.1498 35.1854 72.4432 34.853C72.6086 34.8062 72.7713 34.7509 72.9311 34.6874C73.6797 34.3975 74.3257 33.8924 74.7878 33.2359Z" fill="#858585"/>
<path d="M57.2702 19.2194L52.5121 26.1263C47.5699 25.081 42.4524 25.1958 37.5621 26.4615C36.7613 26.6677 35.9999 26.9355 35.2188 27.1725L39.9786 20.2671C40.7598 20.0301 41.5211 19.7621 42.3219 19.5546C47.2119 18.2894 52.3285 18.1747 57.2702 19.2194Z" fill="#3D2885"/>
<path d="M39.9908 20.2689L35.2309 27.1757L33.9141 27.7046L38.6739 20.7976L39.9908 20.2689Z" fill="#3F2A8A"/>
<path d="M38.6759 20.7954L33.916 27.7024L33.6719 27.8426L38.4318 20.9356L38.6759 20.7954Z" fill="#3F2988"/>
<path d="M38.4525 20.9312L33.6926 27.8366C32.5398 28.4663 31.3226 29.0315 30.24 29.7482C27.8932 31.2911 25.8649 33.2707 24.2656 35.5794L29.0255 28.6725C30.6252 26.3642 32.6534 24.3845 34.9998 22.8412C36.0825 22.1259 37.2997 21.5594 38.4525 20.9312Z" fill="#3D2885"/>
<path d="M84.644 37.6047L79.8841 44.5102C71.0881 48.0443 62.291 51.5826 53.4922 55.1251L58.2517 48.2196C67.0402 44.6762 75.8377 41.1379 84.644 37.6047Z" fill="#3D2885"/>
<path d="M58.2594 48.23L53.4999 55.1354C53.384 55.1895 53.2842 55.2733 53.2109 55.3782L57.9708 48.4712C58.0438 48.3663 58.1433 48.283 58.2594 48.23Z" fill="#3D2885"/>
<path d="M103.374 80.0742L98.6142 86.9796C107.59 73.9511 107.204 55.1082 95.8207 37.8304C79.5638 13.1478 46.9631 0.865357 23.1276 10.4397C16.4565 13.0191 10.7039 17.525 6.60156 23.384L11.3611 16.4785C15.4634 10.6196 21.2164 6.11368 27.8875 3.53423C51.7286 -6.04009 84.3237 6.24793 100.581 30.9249C111.964 48.2027 112.361 67.0457 103.374 80.0742Z" fill="#3D2885"/>
<path d="M46.6362 67.3392L41.8763 74.2462L41.75 74.0539L46.5099 67.1471L46.6362 67.3392Z" fill="#3E2988"/>
<path d="M46.4882 67.1529L41.7283 74.0584C35.7008 70.3657 31.0381 64.8128 28.4433 58.2376C25.7955 51.3335 26.5204 44.5038 29.9857 39.4678L34.7443 32.5621C31.2747 37.5968 30.5481 44.4267 33.2015 51.3308C35.7961 57.9064 40.4592 63.4597 46.4868 67.1529" fill="#3D2885"/>
<path d="M45.4083 72.8378L40.6484 79.7432C41.0804 77.8724 41.4815 76.0634 41.8742 74.2459L46.6341 67.3389C46.24 69.162 45.8403 70.9656 45.4083 72.8378Z" fill="#3D2885"/>
<path d="M45.4083 72.8378L40.6484 79.7432C41.0804 77.8724 41.4815 76.0634 41.8742 74.2459L46.6341 67.3389C46.24 69.162 45.8403 70.9656 45.4083 72.8378Z" fill="#3D2885"/>
<path d="M45.4158 72.7662L40.6562 79.6716C40.3912 79.591 40.1387 79.473 39.9071 79.321C33.5915 75.6074 28.3478 70.3187 24.6883 63.9716C18.9468 53.8742 18.9971 43.192 24.2408 35.5839L29.0007 28.6769C23.757 36.2864 23.7063 46.9742 29.4478 57.0646C33.1076 63.4118 38.3515 68.7011 44.667 72.4156C44.8993 72.5663 45.1512 72.6843 45.4158 72.7662Z" fill="#858585"/>
<path d="M38.4525 20.9312L33.6926 27.8366C32.5398 28.4663 31.3226 29.0315 30.24 29.7482C27.8932 31.2911 25.8649 33.2707 24.2656 35.5794L29.0255 28.6725C30.6252 26.3642 32.6534 24.3845 34.9998 22.8412C36.0825 22.1259 37.2997 21.5594 38.4525 20.9312Z" fill="#3D2885"/>
<path d="M57.8771 48.6697L53.1172 55.5767C53.1376 55.5033 53.1699 55.4337 53.2127 55.3706L57.9726 48.4636C57.9298 48.5267 57.8974 48.5963 57.8771 48.6697Z" fill="#858585"/>
<path d="M86.3217 68.4145L81.5621 75.32C82.316 74.2233 82.967 73.0595 83.5072 71.8434C86.8394 64.3769 86.2082 56.2668 81.7443 47.6026C81.3235 46.7892 80.8202 45.994 80.3672 45.1932L85.1271 38.2863C85.58 39.087 86.0806 39.8836 86.5041 40.6956C90.9667 49.3612 91.5993 57.47 88.2671 64.9379C87.726 66.1536 87.0747 67.3174 86.3217 68.4145Z" fill="#3D2885"/>
<path d="M46.4882 67.1529L41.7283 74.0584C35.7008 70.3657 31.0381 64.8128 28.4433 58.2376C25.7955 51.3335 26.5204 44.5038 29.9857 39.4678L34.7443 32.5621C31.2747 37.5968 30.5481 44.4267 33.2015 51.3308C35.7961 57.9064 40.4592 63.4597 46.4868 67.1529" fill="#3D2885"/>
<path d="M51.9239 75.6542L47.1641 82.5612C49.1443 73.567 51.1366 64.5732 53.1411 55.58L57.901 48.673C55.8946 57.6644 53.9023 66.6581 51.9239 75.6542Z" fill="#858585"/>
<path d="M86.3069 68.4218L81.5474 75.3272C79.0499 78.8833 75.5424 81.608 71.4791 83.1485C71.1482 83.2818 70.8103 83.4093 70.4681 83.5313C63.3578 86.0683 55.6234 85.8048 47.3281 82.84L52.088 75.9344C60.3791 78.8977 68.1135 79.1601 75.2279 76.6259C75.5701 76.5025 75.908 76.3748 76.239 76.2416C80.3022 74.7017 83.8095 71.9776 86.3069 68.4218Z" fill="#858585"/>
<path d="M45.4083 72.8378L40.6484 79.7432C41.0804 77.8724 41.4815 76.0634 41.8742 74.2459L46.6341 67.3389C46.24 69.162 45.8403 70.9656 45.4083 72.8378Z" fill="#3D2885"/>
<path d="M103.374 80.0695L98.6144 86.975C94.5112 92.8364 88.7566 97.344 82.0829 99.9236C58.2586 109.494 25.6465 97.2098 9.39667 72.5426C-1.99099 55.2564 -2.38355 36.4092 6.60176 23.3793L11.3613 16.4739C2.3858 29.5024 2.76889 48.351 14.1565 65.6372C30.4064 90.303 63.0181 102.587 86.8424 93.0166C93.5159 90.4373 99.2709 85.9304 103.374 80.0695Z" fill="#3D2885"/>
<path d="M103.374 80.0695L98.6144 86.975C94.5112 92.8364 88.7566 97.344 82.0829 99.9236C58.2586 109.494 25.6465 97.2098 9.39667 72.5426C-1.99099 55.2564 -2.38355 36.4092 6.60176 23.3793L11.3613 16.4739C2.3858 29.5024 2.76889 48.351 14.1565 65.6372C30.4064 90.303 63.0181 102.587 86.8424 93.0166C93.5159 90.4373 99.2709 85.9304 103.374 80.0695Z" fill="#3D2885"/>
<path d="M27.711 3.27043C51.6812 -6.3586 84.4895 6.00086 100.84 30.8181C117.191 55.6353 110.982 83.6543 87.0109 93.2833C63.0393 102.912 30.2426 90.5499 13.8988 65.7425C-2.44503 40.9351 3.73947 12.9009 27.711 3.27043ZM86.8387 93.0254C110.673 83.451 116.828 55.5946 100.582 30.9289C84.3365 6.26309 51.7232 -6.03615 27.8891 3.53817C4.05495 13.1125 -2.09889 40.9688 14.158 65.6458C30.4148 90.3228 63.0198 102.595 86.8442 93.0254" fill="#744CFD"/>
<path d="M66.2955 24.662C67.1434 24.3361 68.0584 24.224 68.9599 24.3353C70.3674 24.5074 71.6988 25.0694 72.8039 25.9579C73.9035 26.8043 74.7302 27.9552 75.1811 29.2676C75.5933 30.4073 75.5395 31.6637 75.0311 32.7639C74.5839 33.6474 73.8233 34.3324 72.8981 34.6852C72.7383 34.7487 72.5752 34.8038 72.4098 34.8506C71.1164 35.183 69.7509 35.0966 68.5097 34.6037C67.7432 34.3082 67.0255 33.8999 66.3797 33.3922C65.7421 32.8894 65.1881 32.2886 64.7386 31.6124C64.0102 30.5491 63.6641 29.2699 63.757 27.9843C63.8093 27.4168 63.9852 26.8677 64.2723 26.3754C64.5594 25.8832 64.9508 25.4596 65.4189 25.1346C65.6921 24.9442 65.9862 24.7856 66.2955 24.662Z" fill="#FDFDFD"/>
<path d="M84.6561 37.6075L85.1022 38.2834C85.5552 39.0842 86.0557 39.8808 86.4793 40.6928C90.9418 49.3584 91.5744 57.4672 88.2422 64.9351C87.0916 67.5222 85.4362 69.8539 83.3735 71.7936C81.3107 73.7333 78.8818 75.2421 76.2289 76.2316C75.8979 76.3649 75.56 76.4924 75.2178 76.6158C68.1075 79.1514 60.3732 78.8878 52.0778 75.9245L51.8984 75.6439C53.8787 66.6507 55.871 57.6569 57.8755 48.6627C57.9032 48.5647 57.9519 48.474 58.0183 48.3967C58.0846 48.3194 58.167 48.2576 58.2597 48.2154C67.0519 44.6766 75.8507 41.1407 84.6561 37.6075Z" fill="#FDFDFD"/>
<path d="M40.0006 20.2713C40.7817 20.0343 41.5431 19.7664 42.3439 19.5588C47.1938 18.3 52.2685 18.1752 57.1744 19.1942L56.5547 22.5208C56.3962 23.2361 56.2448 23.9611 56.0709 24.6693C51.6536 24.045 47.1503 24.5456 42.978 26.125C42.6723 26.2484 42.3677 26.3775 42.0676 26.515C32.8957 30.697 29.2287 40.9304 33.2186 51.3293C35.8132 57.9049 40.476 63.4583 46.5035 67.1514L46.6299 67.3421C46.2353 69.1606 45.8349 70.9689 45.4291 72.7668C45.1646 72.6849 44.9126 72.5669 44.6803 72.4162C38.3649 68.7017 33.121 63.4124 29.4612 57.0652C22.0284 44.0016 24.3033 29.9353 34.9884 22.8461C36.071 22.1309 37.2882 21.5644 38.441 20.9361L38.6851 20.7959L40.0006 20.2713Z" fill="#FDFDFD"/>
<path d="M27.876 3.5346C51.7172 -6.03973 84.3122 6.24829 100.569 30.9253C116.826 55.6023 110.666 83.4473 86.8253 93.0216C62.9841 102.596 30.3893 90.308 14.1394 65.6422C-2.11041 40.9765 4.05171 13.1047 27.876 3.5346ZM45.4063 72.8394C45.8382 70.9672 46.238 69.1594 46.632 67.3405L46.5057 67.1498C40.4781 63.4566 35.8154 57.9033 33.2207 51.3277C29.2308 40.9273 32.8982 30.6953 42.0701 26.5133C42.3702 26.373 42.6744 26.2467 42.9801 26.1233C47.082 24.5403 51.5304 24.0749 55.871 24.7743C56.1847 24.0512 56.4148 23.2945 56.5568 22.5192L57.2947 19.222C52.3529 18.1773 47.2364 18.292 42.3464 19.5572C41.5456 19.7647 40.7839 20.0327 40.0027 20.2697L38.6873 20.7983L38.4432 20.9385C37.2904 21.5668 36.0732 22.1335 34.9905 22.8487C24.3055 29.9379 22.0295 44.0043 29.4637 57.0678C33.1235 63.415 38.3671 68.7042 44.6825 72.4186C44.9265 72.5588 45.1637 72.6992 45.4063 72.8394ZM85.1103 38.2851L84.6641 37.6092C75.8682 41.1433 67.071 44.6816 58.2722 48.2241C58.1795 48.2663 58.0972 48.3281 58.0308 48.4054C57.9645 48.4827 57.9154 48.5734 57.8877 48.6714C55.8813 57.6628 53.889 66.6566 51.9106 75.6526L52.0904 75.9332C60.3815 78.8965 68.1159 79.1587 75.2303 76.6245C75.5725 76.5011 75.9104 76.3736 76.2414 76.2403C78.8943 75.2508 81.3233 73.742 83.386 71.8023C85.4488 69.8626 87.1038 67.5309 88.2544 64.9438C91.5866 57.4759 90.954 49.3671 86.4915 40.7015C86.0707 39.8895 85.5674 39.0929 85.1144 38.2921L85.1103 38.2851ZM65.4271 25.1444C64.959 25.4698 64.5678 25.8936 64.2808 26.3861C63.9937 26.8786 63.818 27.428 63.7655 27.9957C63.6726 29.2813 64.0186 30.5602 64.7471 31.6236C65.1966 32.2998 65.7503 32.9005 66.3878 33.4033C67.0336 33.9111 67.7517 34.3195 68.5182 34.615C69.7593 35.1079 71.1249 35.1944 72.4183 34.8619C72.5837 34.8151 72.7465 34.7598 72.9062 34.6964C73.8315 34.3436 74.592 33.6585 75.0393 32.775C75.5477 31.6748 75.6018 30.4185 75.1896 29.2788C74.7387 27.9664 73.912 26.8155 72.8124 25.9691C71.7073 25.0805 70.3759 24.5186 68.9684 24.3465C68.0668 24.2352 67.1515 24.3474 66.3036 24.6733C65.9952 24.7971 65.7019 24.955 65.4288 25.1444" fill="#744CFD"/>
<path d="M103.639 80.2557L98.8792 87.1626C94.7508 93.0586 88.9615 97.593 82.248 100.188C58.2779 109.817 25.4794 97.4549 9.13555 72.6475C-2.31802 55.2575 -2.7091 36.3024 6.32249 23.1968L11.082 16.2898C2.05043 29.3968 2.44185 48.3561 13.8954 65.7405C30.2392 90.548 63.0377 102.912 87.0079 93.2814C93.7216 90.6863 99.511 86.152 103.639 80.2557Z" fill="#3D2885"/>
</svg>
