<svg width="118" height="145" viewBox="0 0 118 145" fill="none" xmlns="http://www.w3.org/2000/svg">
    <path
        d="M31.3436 139.924C30.4771 139.924 29.6742 139.768 28.9348 139.456C28.207 139.155 27.5716 138.728 27.0286 138.173C26.4856 137.63 26.0639 136.989 25.7635 136.25C25.4631 135.51 25.3129 134.707 25.3129 133.841C25.3129 132.917 25.4631 132.062 25.7635 131.276C26.0639 130.49 26.4798 129.809 27.0112 129.231C27.5542 128.642 28.1896 128.191 28.9175 127.88C29.6569 127.556 30.454 127.394 31.309 127.394C32.0946 127.394 32.8224 127.527 33.4925 127.793C34.1626 128.059 34.746 128.434 35.2428 128.919C35.7511 129.393 36.1439 129.953 36.4212 130.6C36.71 131.236 36.8544 131.929 36.8544 132.68C36.8544 133.431 36.7216 134.101 36.4558 134.69C36.1901 135.268 35.8262 135.724 35.3641 136.059C34.9135 136.383 34.3936 136.544 33.8044 136.544C33.0304 136.544 32.4874 136.313 32.1754 135.851C31.6324 136.336 31.0548 136.579 30.4425 136.579C29.9919 136.579 29.5818 136.463 29.2121 136.232C28.8539 135.99 28.5709 135.672 28.3629 135.279C28.155 134.875 28.051 134.424 28.051 133.928C28.051 133.338 28.1781 132.807 28.4323 132.333C28.698 131.86 29.0446 131.484 29.472 131.207C29.911 130.93 30.3963 130.791 30.9277 130.791C31.2396 130.791 31.5285 130.843 31.7942 130.947C32.0599 131.051 32.2968 131.195 32.5047 131.38L32.574 131.016H33.8737L33.1979 134.465C33.1286 134.811 33.1632 135.083 33.3019 135.279C33.4405 135.464 33.6658 135.557 33.9777 135.557C34.3474 135.557 34.6709 135.435 34.9482 135.193C35.2254 134.95 35.4392 134.621 35.5894 134.205C35.7511 133.777 35.832 133.298 35.832 132.766C35.832 131.912 35.6356 131.149 35.2428 130.479C34.85 129.809 34.307 129.283 33.6138 128.902C32.9206 128.509 32.135 128.313 31.257 128.313C30.5638 128.313 29.9168 128.451 29.3161 128.729C28.7153 129.006 28.1896 129.393 27.7391 129.89C27.3001 130.387 26.9535 130.964 26.6993 131.623C26.4451 132.281 26.318 132.998 26.318 133.772C26.318 134.777 26.5318 135.672 26.9592 136.458C27.3983 137.232 27.999 137.838 28.7615 138.277C29.524 138.728 30.3905 138.953 31.361 138.953C31.8693 138.953 32.3487 138.895 32.7993 138.78C33.2614 138.664 33.7004 138.497 34.1164 138.277L34.4803 139.161C33.4752 139.669 32.4296 139.924 31.3436 139.924ZM30.7371 135.47C31.1761 135.47 31.5689 135.302 31.9155 134.967C31.9039 134.852 31.9039 134.742 31.9155 134.638C31.9271 134.534 31.9386 134.424 31.9502 134.309L32.2794 132.61C32.1408 132.391 31.9559 132.223 31.7249 132.108C31.4938 131.992 31.2339 131.935 30.945 131.935C30.6447 131.935 30.3674 132.021 30.1132 132.195C29.8706 132.368 29.6742 132.599 29.524 132.888C29.3738 133.165 29.2987 133.471 29.2987 133.806C29.2987 134.291 29.4316 134.69 29.6973 135.002C29.9746 135.314 30.3212 135.47 30.7371 135.47ZM44.9199 137.619C44.0418 137.619 43.2273 137.457 42.4764 137.133C41.7254 136.81 41.0611 136.365 40.4835 135.799C39.9174 135.221 39.4726 134.557 39.1491 133.806C38.8372 133.044 38.6812 132.229 38.6812 131.363C38.6812 130.496 38.8372 129.688 39.1491 128.937C39.4726 128.174 39.9174 127.51 40.4835 126.944C41.0496 126.366 41.7081 125.915 42.4591 125.592C43.21 125.269 44.0245 125.107 44.9025 125.107C45.873 125.107 46.7857 125.292 47.6406 125.661C48.5071 126.031 49.2291 126.568 49.8068 127.273L48.3511 128.573C47.9352 128.053 47.4269 127.66 46.8261 127.394C46.2254 127.117 45.5842 126.978 44.9025 126.978C44.3133 126.978 43.7703 127.088 43.2735 127.308C42.7768 127.527 42.3435 127.839 41.9738 128.243C41.6157 128.636 41.3326 129.098 41.1247 129.63C40.9167 130.161 40.8127 130.739 40.8127 131.363C40.8127 131.987 40.9167 132.57 41.1247 133.113C41.3326 133.644 41.6215 134.107 41.9912 134.499C42.3724 134.892 42.8114 135.204 43.3082 135.435C43.805 135.655 44.3538 135.764 44.9545 135.764C45.6015 135.764 46.1849 135.632 46.7048 135.366C47.2247 135.089 47.6522 134.707 47.9872 134.222C48.3338 133.737 48.5475 133.194 48.6284 132.593H45.0238V130.808H50.8292V131.484C50.8292 132.362 50.6791 133.171 50.3787 133.91C50.0898 134.65 49.6797 135.302 49.1483 135.868C48.6168 136.423 47.993 136.856 47.2767 137.168C46.5604 137.469 45.7748 137.619 44.9199 137.619ZM52.8873 137.428V128.746H54.8455V137.428H52.8873ZM53.8751 126.978C53.54 126.978 53.2512 126.863 53.0086 126.632C52.7775 126.389 52.662 126.106 52.662 125.783C52.662 125.448 52.7775 125.165 53.0086 124.933C53.2512 124.691 53.54 124.57 53.8751 124.57C54.2101 124.57 54.4931 124.691 54.7242 124.933C54.9668 125.165 55.0881 125.442 55.0881 125.765C55.0881 126.1 54.9668 126.389 54.7242 126.632C54.4931 126.863 54.2101 126.978 53.8751 126.978ZM59.7836 137.428L56.2484 128.746H58.3799L60.8061 135.054L63.2149 128.746H65.2598L61.6899 137.428H59.7836ZM70.4473 137.601C69.6155 137.601 68.8645 137.405 68.1944 137.012C67.5244 136.608 66.9929 136.071 66.6001 135.401C66.2073 134.719 66.0109 133.951 66.0109 133.096C66.0109 132.241 66.1958 131.478 66.5655 130.808C66.9351 130.138 67.4377 129.607 68.0731 129.214C68.7201 128.81 69.4364 128.607 70.222 128.607C71.0307 128.607 71.7412 128.804 72.3535 129.197C72.9774 129.589 73.4626 130.121 73.8092 130.791C74.1674 131.461 74.3464 132.229 74.3464 133.096V133.564H67.9345C68.0038 134.037 68.154 134.459 68.3851 134.829C68.6277 135.187 68.9338 135.47 69.3035 135.678C69.6848 135.886 70.0949 135.99 70.5339 135.99C70.9383 135.99 71.3195 135.92 71.6777 135.782C72.0474 135.632 72.3535 135.429 72.5961 135.175L73.8785 136.336C73.3471 136.775 72.8041 137.099 72.2496 137.307C71.7066 137.503 71.1058 137.601 70.4473 137.601ZM67.9518 132.351H72.4922C72.4228 131.935 72.2784 131.565 72.0589 131.241C71.851 130.918 71.5853 130.664 71.2618 130.479C70.9498 130.294 70.6032 130.202 70.222 130.202C69.8407 130.202 69.4884 130.294 69.1649 130.479C68.853 130.652 68.593 130.901 68.3851 131.224C68.1771 131.548 68.0327 131.923 67.9518 132.351ZM79.8329 137.601C78.9548 137.601 78.2905 137.399 77.84 136.995C77.3894 136.579 77.1641 135.972 77.1641 135.175V130.306H75.4312V128.746H77.1641V126.354L79.1224 125.939V128.746H81.5312V130.306H79.1224V134.742C79.1224 135.169 79.2148 135.476 79.3996 135.66C79.5845 135.834 79.8964 135.92 80.3354 135.92C80.5318 135.92 80.7109 135.909 80.8726 135.886C81.0459 135.851 81.2597 135.793 81.5138 135.712V137.359C81.2712 137.44 80.9939 137.497 80.682 137.532C80.3816 137.578 80.0986 137.601 79.8329 137.601ZM83.2652 137.428V125.003L85.2234 124.656V130.167C85.5585 129.647 85.9571 129.26 86.4192 129.006C86.8813 128.74 87.3954 128.607 87.9615 128.607C88.5623 128.607 89.0879 128.74 89.5385 129.006C89.9891 129.26 90.3415 129.618 90.5956 130.08C90.8613 130.542 90.9942 131.085 90.9942 131.709V137.428H89.0186V132.264C89.0186 131.628 88.8453 131.126 88.4987 130.756C88.1521 130.375 87.69 130.184 87.1124 130.184C86.7196 130.184 86.3614 130.277 86.0379 130.462C85.726 130.635 85.4545 130.895 85.2234 131.241V137.428H83.2652Z"
        fill="white" />
    <circle cx="58.7953" cy="59.6329" r="57.8766" fill="white" stroke="#8668FC"
        stroke-width="1.83735" />
    <path
        d="M108.388 59.9098C108.291 61.2779 108.259 62.6559 108.091 64.0142C107.389 70.8803 105.21 77.5133 101.704 83.4586C98.1987 89.404 93.4488 94.5209 87.7803 98.4586C79.1974 104.69 68.7552 107.828 58.159 107.358C45.9956 107.05 34.4055 102.124 25.7428 93.58C25.7014 93.5051 25.6797 93.4209 25.6797 93.3354C25.6797 93.2498 25.7014 93.1656 25.7428 93.0907C37.0482 81.7646 48.3656 70.4506 59.695 59.1485C59.9633 58.9034 60.3101 58.7618 60.6733 58.749C76.5803 58.7294 92.4867 58.724 108.393 58.7326L108.388 59.9098Z"
        fill="#5326EC" />
    <path
        d="M60.8793 10.0245C62.2164 10.1256 63.5567 10.1876 64.8889 10.3295C72.5914 11.1394 79.986 13.7903 86.4487 18.0585C86.4936 18.0912 86.5361 18.1273 86.5758 18.1661L82.4227 22.3111C81.5193 23.2128 80.6209 24.1211 79.7061 25.0114C79.6487 25.0493 79.5826 25.0723 79.514 25.0782C79.4454 25.0842 79.3764 25.073 79.3132 25.0456C71.8745 20.7178 63.2127 18.9729 54.6786 20.0832C46.1444 21.1934 38.2175 25.0962 32.1336 31.1832C26.0498 37.2702 22.1511 45.1993 21.0453 53.734C19.9395 62.2688 21.6888 70.9296 26.0205 78.3661C26.0477 78.4179 26.0619 78.4754 26.0619 78.5339C26.0619 78.5924 26.0477 78.65 26.0205 78.7019C23.7572 80.9847 21.4859 83.2588 19.2063 85.5242C19.1835 85.547 19.1557 85.565 19.1052 85.6074C18.8899 85.2813 18.6747 84.9552 18.4709 84.6291C14.228 77.8688 11.7126 70.1689 11.1462 62.2076C10.5798 54.2463 11.9797 46.268 15.2227 38.9751C18.4657 31.6822 23.4522 25.2987 29.7431 20.3867C36.0341 15.4747 43.4363 12.185 51.298 10.8074C53.5188 10.4177 55.7886 10.3182 58.0356 10.085L58.4938 10.0361L60.8793 10.0245Z"
        fill="#5326EC" />
    <path
        d="M85.5703 39.412C85.5724 37.2341 86.3845 35.1349 87.8485 33.5224C89.3125 31.91 91.3239 30.8996 93.4915 30.6878C95.6591 30.4761 97.828 31.0781 99.5763 32.3767C101.325 33.6754 102.528 35.5778 102.951 37.7142C103.375 39.8505 102.989 42.0681 101.868 43.9356C100.747 45.803 98.9721 47.1869 96.8877 47.8182C94.8032 48.4494 92.5585 48.2829 90.5901 47.351C88.6216 46.4191 87.0701 44.7883 86.2372 42.7759C85.7956 41.7095 85.5689 40.5663 85.5703 39.412Z"
        fill="#5326EC" />
</svg>
    