<svg width="65" height="84" viewBox="0 0 65 84" fill="none" xmlns="http://www.w3.org/2000/svg">
<circle cx="32.6227" cy="32.2086" r="31.4678" fill="white" stroke="#88471F" stroke-width="1.48148"/>
<path fill-rule="evenodd" clip-rule="evenodd" d="M32.4142 7C50.8893 7 57.4141 13.5556 57.4141 32.0001C57.4141 50.3749 50.7806 57 32.4142 57C14.1018 57 7.41406 50.2899 7.41406 32.0001C7.41406 13.6402 13.9927 7 32.4142 7ZM30.566 34.9294C29.4207 37.6571 26.7244 39.5727 23.5806 39.5727C19.3983 39.5727 16.0078 36.1822 16.0078 31.9999C16.0078 27.8176 19.3983 24.4271 23.5806 24.4271C26.7244 24.4271 29.4207 26.3428 30.566 29.0704C31.7616 24.5784 35.6411 21.1807 40.3827 20.6994C41.1519 20.6212 41.5438 20.6886 41.5438 21.5873V28.4501C41.5438 28.9613 41.4476 29.2158 40.3827 29.2158C38.799 29.2158 37.7796 30.6241 37.7796 31.9999C37.7796 33.5683 38.6952 34.8397 40.3827 34.8397C41.5438 34.8397 41.5438 34.1903 41.5438 33.3902V30.1067C41.5438 29.4756 41.7656 29.1601 42.3573 29.1601H45.9736C46.5534 29.1601 46.5804 29.171 46.9134 29.633C46.9134 29.633 48.366 31.6375 48.6193 31.9999C48.8725 32.3622 48.9021 32.4732 48.6193 32.8953C48.3365 33.3174 46.9134 35.3049 46.9134 35.3049C46.5815 35.7737 46.5579 35.7863 45.9736 35.7863H43.2581C41.8425 35.7863 41.5438 36.7659 41.5438 37.6499V42.1758C41.5438 43.2306 41.3571 43.3994 40.3827 43.3004C35.6411 42.819 31.7616 39.4214 30.566 34.9294ZM26.1049 31.9999C26.1049 33.394 24.9747 34.5241 23.5806 34.5241C22.1865 34.5241 21.0564 33.394 21.0564 31.9999C21.0564 30.6058 22.1865 29.4756 23.5806 29.4756C24.9747 29.4756 26.1049 30.6058 26.1049 31.9999Z" fill="black"/>
<path d="M6.51219 80.857C6.01219 80.857 5.54885 80.767 5.12219 80.587C4.70219 80.4137 4.33552 80.167 4.02219 79.847C3.70885 79.5337 3.46552 79.1637 3.29219 78.737C3.11885 78.3103 3.03219 77.847 3.03219 77.347C3.03219 76.8137 3.11885 76.3203 3.29219 75.867C3.46552 75.4137 3.70552 75.0203 4.01219 74.687C4.32552 74.347 4.69219 74.087 5.11219 73.907C5.53885 73.7203 5.99885 73.627 6.49219 73.627C6.94552 73.627 7.36552 73.7037 7.75219 73.857C8.13885 74.0103 8.47552 74.227 8.76219 74.507C9.05552 74.7803 9.28219 75.1037 9.44219 75.477C9.60885 75.8437 9.69219 76.2437 9.69219 76.677C9.69219 77.1103 9.61552 77.497 9.46219 77.837C9.30885 78.1703 9.09885 78.4337 8.83219 78.627C8.57219 78.8137 8.27219 78.907 7.93219 78.907C7.48552 78.907 7.17219 78.7737 6.99219 78.507C6.67885 78.787 6.34552 78.927 5.99219 78.927C5.73219 78.927 5.49552 78.8603 5.28219 78.727C5.07552 78.587 4.91219 78.4037 4.79219 78.177C4.67219 77.9437 4.61219 77.6837 4.61219 77.397C4.61219 77.057 4.68552 76.7503 4.83219 76.477C4.98552 76.2037 5.18552 75.987 5.43219 75.827C5.68552 75.667 5.96552 75.587 6.27219 75.587C6.45219 75.587 6.61885 75.617 6.77219 75.677C6.92552 75.737 7.06219 75.8203 7.18219 75.927L7.22219 75.717H7.97219L7.58219 77.707C7.54219 77.907 7.56219 78.0637 7.64219 78.177C7.72219 78.2837 7.85219 78.337 8.03219 78.337C8.24552 78.337 8.43219 78.267 8.59219 78.127C8.75219 77.987 8.87552 77.797 8.96219 77.557C9.05552 77.3103 9.10219 77.0337 9.10219 76.727C9.10219 76.2337 8.98885 75.7937 8.76219 75.407C8.53552 75.0203 8.22219 74.717 7.82219 74.497C7.42219 74.2703 6.96885 74.157 6.46219 74.157C6.06219 74.157 5.68885 74.237 5.34219 74.397C4.99552 74.557 4.69219 74.7803 4.43219 75.067C4.17885 75.3537 3.97885 75.687 3.83219 76.067C3.68552 76.447 3.61219 76.8603 3.61219 77.307C3.61219 77.887 3.73552 78.4037 3.98219 78.857C4.23552 79.3037 4.58219 79.6537 5.02219 79.907C5.46219 80.167 5.96219 80.297 6.52219 80.297C6.81552 80.297 7.09219 80.2637 7.35219 80.197C7.61885 80.1303 7.87219 80.0337 8.11219 79.907L8.32219 80.417C7.74219 80.7103 7.13885 80.857 6.51219 80.857ZM6.16219 78.287C6.41552 78.287 6.64219 78.1903 6.84219 77.997C6.83552 77.9303 6.83552 77.867 6.84219 77.807C6.84885 77.747 6.85552 77.6837 6.86219 77.617L7.05219 76.637C6.97219 76.5103 6.86552 76.4137 6.73219 76.347C6.59885 76.2803 6.44885 76.247 6.28219 76.247C6.10885 76.247 5.94885 76.297 5.80219 76.397C5.66219 76.497 5.54885 76.6303 5.46219 76.797C5.37552 76.957 5.33219 77.1337 5.33219 77.327C5.33219 77.607 5.40885 77.837 5.56219 78.017C5.72219 78.197 5.92219 78.287 6.16219 78.287ZM14.2963 79.527C13.803 79.527 13.3397 79.437 12.9063 79.257C12.4797 79.0703 12.103 78.8137 11.7763 78.487C11.4563 78.1537 11.2063 77.7703 11.0263 77.337C10.8463 76.897 10.7563 76.4237 10.7563 75.917C10.7563 75.4103 10.8463 74.9403 11.0263 74.507C11.2063 74.067 11.4563 73.6837 11.7763 73.357C12.103 73.0237 12.4797 72.767 12.9063 72.587C13.3397 72.4003 13.803 72.307 14.2963 72.307C14.7897 72.307 15.2497 72.4003 15.6763 72.587C16.1097 72.767 16.4863 73.0237 16.8063 73.357C17.133 73.6837 17.3863 74.067 17.5663 74.507C17.7463 74.9403 17.8363 75.4103 17.8363 75.917C17.8363 76.4237 17.7463 76.897 17.5663 77.337C17.3863 77.7703 17.133 78.1537 16.8063 78.487C16.4863 78.8137 16.1097 79.0703 15.6763 79.257C15.2497 79.437 14.7897 79.527 14.2963 79.527ZM14.2963 78.447C14.623 78.447 14.9263 78.3837 15.2063 78.257C15.4863 78.1303 15.7297 77.9537 15.9363 77.727C16.1497 77.4937 16.313 77.2237 16.4263 76.917C16.5463 76.6103 16.6063 76.277 16.6063 75.917C16.6063 75.557 16.5463 75.2237 16.4263 74.917C16.313 74.6103 16.1497 74.3437 15.9363 74.117C15.7297 73.8837 15.4863 73.7037 15.2063 73.577C14.9263 73.4503 14.623 73.387 14.2963 73.387C13.9697 73.387 13.6663 73.4503 13.3863 73.577C13.1063 73.7037 12.8597 73.8837 12.6463 74.117C12.433 74.3437 12.2663 74.6103 12.1463 74.917C12.033 75.2237 11.9763 75.557 11.9763 75.917C11.9763 76.277 12.033 76.6103 12.1463 76.917C12.2663 77.2237 12.433 77.4937 12.6463 77.727C12.8597 77.9537 13.1063 78.1303 13.3863 78.257C13.6663 78.3837 13.9697 78.447 14.2963 78.447ZM21.3516 79.507C20.8782 79.507 20.4482 79.3937 20.0616 79.167C19.6816 78.9337 19.3782 78.6203 19.1516 78.227C18.9316 77.8337 18.8216 77.397 18.8216 76.917C18.8216 76.4303 18.9316 75.9937 19.1516 75.607C19.3782 75.2137 19.6816 74.9037 20.0616 74.677C20.4482 74.4437 20.8782 74.327 21.3516 74.327C21.7382 74.327 22.1049 74.4003 22.4516 74.547C22.8049 74.6937 23.1049 74.9037 23.3516 75.177L22.6516 75.907C22.4782 75.7137 22.2849 75.567 22.0716 75.467C21.8582 75.367 21.6316 75.317 21.3916 75.317C21.1182 75.317 20.8716 75.3903 20.6516 75.537C20.4382 75.677 20.2682 75.867 20.1416 76.107C20.0149 76.347 19.9516 76.617 19.9516 76.917C19.9516 77.217 20.0149 77.4903 20.1416 77.737C20.2682 77.977 20.4382 78.167 20.6516 78.307C20.8716 78.447 21.1182 78.517 21.3916 78.517C21.6316 78.517 21.8582 78.467 22.0716 78.367C22.2849 78.267 22.4782 78.1237 22.6516 77.937L23.3516 78.657C23.1049 78.9303 22.8049 79.1403 22.4516 79.287C22.1049 79.4337 21.7382 79.507 21.3516 79.507ZM26.5436 79.517C26.0369 79.517 25.6536 79.4003 25.3936 79.167C25.1336 78.927 25.0036 78.577 25.0036 78.117V75.307H24.0036V74.407H25.0036V73.027L26.1336 72.787V74.407H27.5236V75.307H26.1336V77.867C26.1336 78.1137 26.1869 78.2903 26.2936 78.397C26.4003 78.497 26.5803 78.547 26.8336 78.547C26.9469 78.547 27.0503 78.5403 27.1436 78.527C27.2436 78.507 27.3669 78.4737 27.5136 78.427V79.377C27.3736 79.4237 27.2136 79.457 27.0336 79.477C26.8603 79.5037 26.6969 79.517 26.5436 79.517ZM30.0442 79.507C29.6976 79.507 29.3876 79.4437 29.1142 79.317C28.8476 79.1837 28.6376 79.0037 28.4842 78.777C28.3376 78.5437 28.2642 78.277 28.2642 77.977C28.2642 77.677 28.3409 77.417 28.4942 77.197C28.6542 76.977 28.8776 76.807 29.1642 76.687C29.4509 76.567 29.7909 76.507 30.1842 76.507C30.4176 76.507 30.6476 76.5337 30.8742 76.587C31.1009 76.6337 31.3209 76.7137 31.5342 76.827V76.267C31.5342 75.9337 31.4376 75.6837 31.2442 75.517C31.0576 75.3503 30.7709 75.267 30.3842 75.267C30.1776 75.267 29.9542 75.3003 29.7142 75.367C29.4809 75.427 29.2176 75.5237 28.9242 75.657L28.5242 74.837C29.2576 74.497 29.9509 74.327 30.6042 74.327C31.2576 74.327 31.7609 74.487 32.1142 74.807C32.4742 75.1203 32.6542 75.567 32.6542 76.147V79.417H31.5342V78.897C31.3209 79.1037 31.0909 79.257 30.8442 79.357C30.5976 79.457 30.3309 79.507 30.0442 79.507ZM29.3242 77.957C29.3242 78.1903 29.4176 78.3737 29.6042 78.507C29.7909 78.6403 30.0409 78.707 30.3542 78.707C30.5809 78.707 30.7909 78.6737 30.9842 78.607C31.1842 78.5337 31.3676 78.427 31.5342 78.287V77.477C31.3609 77.397 31.1809 77.337 30.9942 77.297C30.8076 77.257 30.6042 77.237 30.3842 77.237C30.0576 77.237 29.7976 77.3003 29.6042 77.427C29.4176 77.5537 29.3242 77.7303 29.3242 77.957ZM34.0223 79.417V74.407H35.1523V75.227C35.3456 74.927 35.5756 74.7037 35.8423 74.557C36.1089 74.4037 36.4056 74.327 36.7323 74.327C37.0789 74.327 37.3823 74.4037 37.6423 74.557C37.9023 74.7037 38.1056 74.9103 38.2523 75.177C38.4056 75.4437 38.4823 75.757 38.4823 76.117V79.417H37.3423V76.437C37.3423 76.0703 37.2423 75.7803 37.0423 75.567C36.8423 75.347 36.5756 75.237 36.2423 75.237C36.0156 75.237 35.8089 75.2903 35.6223 75.397C35.4423 75.497 35.2856 75.647 35.1523 75.847V79.417H34.0223ZM41.8561 79.517C41.3494 79.517 40.9661 79.4003 40.7061 79.167C40.4461 78.927 40.3161 78.577 40.3161 78.117V75.307H39.3161V74.407H40.3161V73.027L41.4461 72.787V74.407H42.8361V75.307H41.4461V77.867C41.4461 78.1137 41.4994 78.2903 41.6061 78.397C41.7128 78.497 41.8928 78.547 42.1461 78.547C42.2594 78.547 42.3628 78.5403 42.4561 78.527C42.5561 78.507 42.6794 78.4737 42.8261 78.427V79.377C42.6861 79.4237 42.5261 79.457 42.3461 79.477C42.1728 79.5037 42.0094 79.517 41.8561 79.517ZM43.1967 79.417L45.9467 72.417H47.3367L50.0467 79.417H48.7567L48.0367 77.457H45.1667L44.4467 79.417H43.1967ZM45.5167 76.517H47.7067L46.6067 73.557L45.5167 76.517ZM50.8094 81.507V74.407H51.9194V75.117C52.0994 74.877 52.3227 74.6937 52.5894 74.567C52.8627 74.4337 53.1594 74.367 53.4794 74.367C53.906 74.367 54.2894 74.4803 54.6294 74.707C54.9694 74.9337 55.2394 75.2403 55.4394 75.627C55.6394 76.0137 55.7394 76.4437 55.7394 76.917C55.7394 77.3903 55.636 77.8203 55.4294 78.207C55.2227 78.5937 54.9427 78.9003 54.5894 79.127C54.236 79.3537 53.8427 79.467 53.4094 79.467C53.1094 79.467 52.8327 79.4137 52.5794 79.307C52.3327 79.1937 52.1194 79.0337 51.9394 78.827V81.507H50.8094ZM53.1394 78.527C53.426 78.527 53.6794 78.457 53.8994 78.317C54.126 78.177 54.3027 77.987 54.4294 77.747C54.5627 77.5003 54.6294 77.2237 54.6294 76.917C54.6294 76.6103 54.5627 76.337 54.4294 76.097C54.3027 75.857 54.126 75.667 53.8994 75.527C53.6794 75.387 53.426 75.317 53.1394 75.317C52.8927 75.317 52.666 75.367 52.4594 75.467C52.2527 75.5603 52.0794 75.697 51.9394 75.877V77.967C52.086 78.1403 52.2627 78.277 52.4694 78.377C52.676 78.477 52.8994 78.527 53.1394 78.527ZM56.9227 81.507V74.407H58.0327V75.117C58.2127 74.877 58.436 74.6937 58.7027 74.567C58.976 74.4337 59.2727 74.367 59.5927 74.367C60.0193 74.367 60.4027 74.4803 60.7427 74.707C61.0827 74.9337 61.3527 75.2403 61.5527 75.627C61.7527 76.0137 61.8527 76.4437 61.8527 76.917C61.8527 77.3903 61.7493 77.8203 61.5427 78.207C61.336 78.5937 61.056 78.9003 60.7027 79.127C60.3493 79.3537 59.956 79.467 59.5227 79.467C59.2227 79.467 58.946 79.4137 58.6927 79.307C58.446 79.1937 58.2327 79.0337 58.0527 78.827V81.507H56.9227ZM59.2527 78.527C59.5393 78.527 59.7927 78.457 60.0127 78.317C60.2393 78.177 60.416 77.987 60.5427 77.747C60.676 77.5003 60.7427 77.2237 60.7427 76.917C60.7427 76.6103 60.676 76.337 60.5427 76.097C60.416 75.857 60.2393 75.667 60.0127 75.527C59.7927 75.387 59.5393 75.317 59.2527 75.317C59.006 75.317 58.7793 75.367 58.5727 75.467C58.366 75.5603 58.1927 75.697 58.0527 75.877V77.967C58.1993 78.1403 58.376 78.277 58.5827 78.377C58.7893 78.477 59.0127 78.527 59.2527 78.527Z" fill="#88471F"/>
</svg>
