<svg width="83" height="101" viewBox="0 0 83 101" fill="none" xmlns="http://www.w3.org/2000/svg">
    <path d="M14.5298 97.8989C14.0673 97.8989 13.6388 97.8157 13.2441 97.6492C12.8556 97.4888 12.5164 97.2606 12.2266 96.9646C11.9367 96.6748 11.7117 96.3326 11.5513 95.9379C11.391 95.5432 11.3108 95.1146 11.3108 94.6521C11.3108 94.1588 11.391 93.7025 11.5513 93.2831C11.7117 92.8638 11.9337 92.5 12.2173 92.1916C12.5072 91.8771 12.8463 91.6366 13.2348 91.4701C13.6295 91.2974 14.055 91.2111 14.5113 91.2111C14.9307 91.2111 15.3192 91.282 15.6769 91.4239C16.0345 91.5657 16.3459 91.7661 16.6111 92.0251C16.8824 92.2779 17.0921 92.577 17.2401 92.9224C17.3943 93.2615 17.4714 93.6315 17.4714 94.0324C17.4714 94.4332 17.4004 94.7909 17.2586 95.1054C17.1168 95.4137 16.9225 95.6573 16.6759 95.8361C16.4354 96.0088 16.1579 96.0951 15.8434 96.0951C15.4302 96.0951 15.1403 95.9718 14.9738 95.7251C14.684 95.9841 14.3757 96.1136 14.0488 96.1136C13.8083 96.1136 13.5894 96.052 13.3921 95.9286C13.2009 95.7991 13.0498 95.6296 12.9388 95.4199C12.8278 95.2041 12.7723 94.9636 12.7723 94.6984C12.7723 94.3839 12.8402 94.1002 12.9758 93.8474C13.1177 93.5945 13.3027 93.3941 13.5308 93.2461C13.7652 93.0981 14.0242 93.0241 14.3078 93.0241C14.4743 93.0241 14.6285 93.0519 14.7703 93.1074C14.9122 93.1629 15.0386 93.24 15.1496 93.3386L15.1866 93.1444H15.8804L15.5196 94.9851C15.4826 95.1701 15.5011 95.3151 15.5751 95.4199C15.6491 95.5186 15.7694 95.5679 15.9359 95.5679C16.1332 95.5679 16.3059 95.5031 16.4539 95.3736C16.6019 95.2441 16.7159 95.0684 16.7961 94.8464C16.8824 94.6182 16.9256 94.3623 16.9256 94.0786C16.9256 93.6223 16.8208 93.2153 16.6111 92.8576C16.4014 92.5 16.1116 92.2194 15.7416 92.0159C15.3716 91.8062 14.9523 91.7014 14.4836 91.7014C14.1136 91.7014 13.7683 91.7754 13.4476 91.9234C13.1269 92.0714 12.8463 92.2779 12.6058 92.5431C12.3715 92.8083 12.1865 93.1166 12.0508 93.4681C11.9152 93.8196 11.8473 94.202 11.8473 94.6151C11.8473 95.1516 11.9614 95.6296 12.1896 96.0489C12.4239 96.4621 12.7446 96.7858 13.1516 97.0201C13.5586 97.2606 14.0211 97.3809 14.5391 97.3809C14.8104 97.3809 15.0663 97.3501 15.3068 97.2884C15.5535 97.2267 15.7879 97.1373 16.0099 97.0201L16.2041 97.4919C15.6676 97.7632 15.1095 97.8989 14.5298 97.8989ZM14.2061 95.5216C14.4404 95.5216 14.6501 95.4322 14.8351 95.2534C14.8289 95.1917 14.8289 95.1331 14.8351 95.0776C14.8413 95.0221 14.8474 94.9636 14.8536 94.9019L15.0293 93.9954C14.9553 93.8782 14.8567 93.7888 14.7333 93.7271C14.61 93.6655 14.4713 93.6346 14.3171 93.6346C14.1568 93.6346 14.0088 93.6809 13.8731 93.7734C13.7436 93.8659 13.6388 93.9892 13.5586 94.1434C13.4784 94.2914 13.4383 94.4548 13.4383 94.6336C13.4383 94.8926 13.5093 95.1054 13.6511 95.2719C13.7991 95.4384 13.9841 95.5216 14.2061 95.5216ZM18.7517 96.5669V90.0919H21.647C22.0848 90.0919 22.4641 90.1782 22.7847 90.3509C23.1116 90.5174 23.3644 90.7517 23.5432 91.0539C23.7221 91.356 23.8115 91.7075 23.8115 92.1084C23.8115 92.4907 23.7221 92.833 23.5432 93.1351C23.3644 93.4373 23.1116 93.6747 22.7847 93.8474C22.4641 94.0139 22.0848 94.0971 21.647 94.0971H19.8617V96.5669H18.7517ZM19.8617 93.1906H21.4712C21.8659 93.1906 22.1681 93.092 22.3777 92.8946C22.5874 92.6911 22.6922 92.426 22.6922 92.0991C22.6922 91.7784 22.5874 91.5194 22.3777 91.3221C22.1681 91.1248 21.869 91.0261 21.4805 91.0261H19.8617V93.1906ZM26.3917 96.6409C26.0711 96.6409 25.7905 96.57 25.55 96.4281C25.3095 96.2863 25.1183 96.0921 24.9765 95.8454C24.8408 95.5987 24.773 95.312 24.773 94.9851V91.9326H25.8275V94.6799C25.8275 95.0252 25.9169 95.2996 26.0957 95.5031C26.2807 95.7005 26.5305 95.7991 26.845 95.7991C27.0547 95.7991 27.2428 95.7529 27.4093 95.6604C27.5819 95.5679 27.7299 95.4291 27.8533 95.2441V91.9326H28.8985V96.5669H27.8533V95.8176C27.6744 96.089 27.4617 96.2956 27.215 96.4374C26.9683 96.5731 26.6939 96.6409 26.3917 96.6409ZM30.1938 96.5669V89.9623L31.2391 89.7866V92.5524C31.4056 92.3427 31.6091 92.1824 31.8496 92.0714C32.0962 91.9542 32.3676 91.8956 32.6636 91.8956C33.0582 91.8956 33.4128 92.0004 33.7273 92.2101C34.0418 92.4198 34.2916 92.7035 34.4766 93.0611C34.6616 93.4188 34.7541 93.8165 34.7541 94.2544C34.7541 94.6922 34.6585 95.09 34.4673 95.4476C34.2762 95.8053 34.0172 96.089 33.6903 96.2986C33.3635 96.5083 32.9997 96.6131 32.5988 96.6131C32.3213 96.6131 32.0654 96.5576 31.8311 96.4466C31.5967 96.3356 31.3932 96.1784 31.2206 95.9749V96.5669H30.1938ZM32.3491 95.7436C32.6142 95.7436 32.8486 95.6789 33.0521 95.5494C33.2617 95.4199 33.4252 95.2441 33.5423 95.0221C33.6657 94.794 33.7273 94.538 33.7273 94.2544C33.7273 93.9707 33.6657 93.7179 33.5423 93.4959C33.4252 93.2739 33.2617 93.0981 33.0521 92.9686C32.8486 92.8391 32.6142 92.7744 32.3491 92.7744C32.1209 92.7744 31.9112 92.8206 31.7201 92.9131C31.5289 92.9995 31.3686 93.1259 31.2391 93.2924V95.2256C31.3747 95.386 31.5382 95.5124 31.7293 95.6049C31.9205 95.6974 32.1271 95.7436 32.3491 95.7436ZM35.8486 96.5669V89.9346L36.8939 89.7496V96.5669H35.8486ZM38.17 96.5669V91.9326H39.2152V96.5669H38.17ZM38.6972 90.9891C38.5184 90.9891 38.3642 90.9274 38.2347 90.8041C38.1114 90.6746 38.0497 90.5235 38.0497 90.3509C38.0497 90.172 38.1114 90.0209 38.2347 89.8976C38.3642 89.7681 38.5184 89.7033 38.6972 89.7033C38.8761 89.7033 39.0271 89.7681 39.1505 89.8976C39.28 90.0209 39.3447 90.1689 39.3447 90.3416C39.3447 90.5204 39.28 90.6746 39.1505 90.8041C39.0271 90.9274 38.8761 90.9891 38.6972 90.9891ZM42.6373 96.6501C42.1995 96.6501 41.8017 96.5453 41.4441 96.3356C41.0926 96.1198 40.812 95.83 40.6023 95.4661C40.3988 95.1023 40.297 94.6984 40.297 94.2544C40.297 93.8042 40.3988 93.4003 40.6023 93.0426C40.812 92.6788 41.0926 92.392 41.4441 92.1824C41.8017 91.9665 42.1995 91.8586 42.6373 91.8586C42.995 91.8586 43.3341 91.9264 43.6548 92.0621C43.9817 92.1978 44.2592 92.392 44.4873 92.6449L43.8398 93.3201C43.6795 93.1413 43.5007 93.0056 43.3033 92.9131C43.106 92.8206 42.8963 92.7744 42.6743 92.7744C42.4215 92.7744 42.1933 92.8422 41.9898 92.9779C41.7925 93.1074 41.6352 93.2831 41.5181 93.5051C41.4009 93.7271 41.3423 93.9769 41.3423 94.2544C41.3423 94.5319 41.4009 94.7847 41.5181 95.0129C41.6352 95.2349 41.7925 95.4106 41.9898 95.5401C42.1933 95.6696 42.4215 95.7344 42.6743 95.7344C42.8963 95.7344 43.106 95.6881 43.3033 95.5956C43.5007 95.5031 43.6795 95.3706 43.8398 95.1979L44.4873 95.8639C44.2592 96.1167 43.9817 96.311 43.6548 96.4466C43.3341 96.5823 42.995 96.6501 42.6373 96.6501ZM45.4811 96.5669V90.0919H46.5634L49.9397 94.8001L49.9212 90.0919H50.9664V96.5669H49.9767L46.5079 91.7291L46.5264 96.5669H45.4811ZM54.5068 96.6501C54.069 96.6501 53.6712 96.5453 53.3135 96.3356C52.962 96.126 52.6845 95.8423 52.481 95.4846C52.2775 95.1208 52.1758 94.7107 52.1758 94.2544C52.1758 93.798 52.2775 93.391 52.481 93.0334C52.6845 92.6695 52.962 92.3828 53.3135 92.1731C53.665 91.9634 54.0628 91.8586 54.5068 91.8586C54.9508 91.8586 55.3455 91.9634 55.6908 92.1731C56.0423 92.3828 56.3198 92.6695 56.5233 93.0334C56.7268 93.391 56.8286 93.798 56.8286 94.2544C56.8286 94.7107 56.7268 95.1208 56.5233 95.4846C56.3198 95.8423 56.0423 96.126 55.6908 96.3356C55.3455 96.5453 54.9508 96.6501 54.5068 96.6501ZM54.5068 95.7621C54.7596 95.7621 54.9816 95.6974 55.1728 95.5679C55.3701 95.4384 55.5243 95.2596 55.6353 95.0314C55.7463 94.797 55.8018 94.538 55.8018 94.2544C55.8018 93.9645 55.7463 93.7086 55.6353 93.4866C55.5243 93.2585 55.3701 93.0796 55.1728 92.9501C54.9816 92.8145 54.7596 92.7466 54.5068 92.7466C54.254 92.7466 54.0289 92.8145 53.8315 92.9501C53.6342 93.0796 53.48 93.2585 53.369 93.4866C53.258 93.7086 53.2025 93.9645 53.2025 94.2544C53.2025 94.5442 53.258 94.8032 53.369 95.0314C53.48 95.2596 53.6342 95.4384 53.8315 95.5679C54.0289 95.6974 54.254 95.7621 54.5068 95.7621ZM59.4896 96.6409C59.169 96.6409 58.8884 96.57 58.6479 96.4281C58.4074 96.2863 58.2162 96.0921 58.0744 95.8454C57.9387 95.5987 57.8709 95.312 57.8709 94.9851V91.9326H58.9254V94.6799C58.9254 95.0252 59.0148 95.2996 59.1936 95.5031C59.3786 95.7005 59.6284 95.7991 59.9429 95.7991C60.1525 95.7991 60.3406 95.7529 60.5071 95.6604C60.6798 95.5679 60.8278 95.4291 60.9511 95.2441V91.9326H61.9964V96.5669H60.9511V95.8176C60.7723 96.089 60.5595 96.2956 60.3129 96.4374C60.0662 96.5731 59.7918 96.6409 59.4896 96.6409ZM63.2917 96.5669V91.9326H64.3369V92.6911C64.5158 92.4136 64.7285 92.207 64.9752 92.0714C65.2219 91.9295 65.4963 91.8586 65.7985 91.8586C66.1191 91.8586 66.3997 91.9295 66.6402 92.0714C66.8807 92.207 67.0688 92.3982 67.2045 92.6449C67.3463 92.8915 67.4172 93.1814 67.4172 93.5144V96.5669H66.3627V93.8104C66.3627 93.4712 66.2702 93.203 66.0852 93.0056C65.9002 92.8021 65.6535 92.7004 65.3452 92.7004C65.1355 92.7004 64.9444 92.7497 64.7717 92.8484C64.6052 92.9409 64.4603 93.0796 64.3369 93.2646V96.5669H63.2917ZM70.248 96.6594C69.8534 96.6594 69.4834 96.607 69.138 96.5021C68.7988 96.3911 68.5059 96.2339 68.2593 96.0304L68.7495 95.3366C69.0579 95.5278 69.323 95.6635 69.545 95.7436C69.7732 95.8238 70.0044 95.8639 70.2388 95.8639C70.5163 95.8639 70.7414 95.8053 70.914 95.6881C71.0867 95.571 71.173 95.4199 71.173 95.2349C71.173 95.0931 71.1206 94.9821 71.0158 94.9019C70.9171 94.8155 70.7537 94.7508 70.5255 94.7076L69.7115 94.5689C69.2614 94.4825 68.9253 94.3345 68.7033 94.1249C68.4813 93.9152 68.3703 93.6377 68.3703 93.2924C68.3703 93.0025 68.4443 92.7528 68.5923 92.5431C68.7464 92.3273 68.9561 92.1608 69.2213 92.0436C69.4926 91.9203 69.8071 91.8586 70.1648 91.8586C70.4854 91.8586 70.7969 91.9049 71.099 91.9974C71.4012 92.0899 71.6972 92.2286 71.987 92.4136L71.4968 93.1074C71.2624 92.9532 71.0281 92.8422 70.7938 92.7744C70.5656 92.7004 70.3344 92.6634 70.1 92.6634C69.8595 92.6634 69.6653 92.7127 69.5173 92.8114C69.3754 92.9039 69.3045 93.0334 69.3045 93.1999C69.3045 93.3479 69.3508 93.462 69.4433 93.5421C69.5419 93.6161 69.7115 93.6716 69.952 93.7086L70.7753 93.8659C71.2378 93.946 71.58 94.094 71.802 94.3099C72.0302 94.5195 72.1443 94.8001 72.1443 95.1516C72.1443 95.4353 72.061 95.6912 71.8945 95.9194C71.728 96.1476 71.503 96.3295 71.2193 96.4651C70.9356 96.5946 70.6119 96.6594 70.248 96.6594Z" fill="#88471F"/>
    <path d="M81.9189 41.7606C81.9189 64.0845 63.8218 82.1816 41.4979 82.1816C19.1741 82.1816 1.07701 64.0845 1.07701 41.7606C1.07701 19.4368 19.1741 1.33971 41.4979 1.33971C63.8218 1.33971 81.9189 19.4368 81.9189 41.7606Z" fill="white" stroke="#88471F" stroke-width="2.15402"/>
    <path d="M54.3825 48.7471H26.5156V50.7376H54.3825V48.7471Z" fill="#343235"/>
    <path d="M54.3825 50.7378H26.5156V52.7283H54.3825V50.7378Z" fill="#343235"/>
    <path d="M54.3825 52.7266H26.5156V54.7171H54.3825V52.7266Z" fill="#343235"/>
    <path d="M54.3825 54.7192H26.5156V56.7097H54.3825V54.7192Z" fill="#343235"/>
    <path d="M30.4966 56.7085H26.5156V58.699H30.4966V56.7085Z" fill="#343235"/>
    <path d="M54.3954 56.7085H32.5V58.699H54.3954V56.7085Z" fill="#343235"/>
    <path d="M30.4966 58.6992H26.5156V60.6897H30.4966V58.6992Z" fill="#343235"/>
    <path d="M54.3954 58.6992H32.5V60.6897H54.3954V58.6992Z" fill="#343235"/>
    <path d="M30.4966 60.689H26.5156V62.6795H30.4966V60.689Z" fill="#343235"/>
    <path d="M54.3954 60.689H32.5V62.6795H54.3954V60.689Z" fill="#343235"/>
    <path d="M30.4966 62.6812H26.5156V64.6716H30.4966V62.6812Z" fill="#343235"/>
    <path d="M54.3954 62.6812H32.5V64.6716H54.3954V62.6812Z" fill="#343235"/>
    <path d="M30.4966 64.6694H26.5156V66.6599H30.4966V64.6694Z" fill="#343235"/>
    <path d="M54.3954 64.6694H32.5V66.6599H54.3954V64.6694Z" fill="#343235"/>
    <path d="M30.4966 66.6611H26.5156V68.6516H30.4966V66.6611Z" fill="#343235"/>
    <path d="M54.3954 66.6611H32.5V68.6516H54.3954V66.6611Z" fill="#343235"/>
    <path d="M30.4966 68.6514H26.5156V70.6419H30.4966V68.6514Z" fill="#343235"/>
    <path d="M54.3954 68.6514H32.5V70.6419H54.3954V68.6514Z" fill="#343235"/>
    <path d="M28.5061 54.7192H26.5156V56.7097H28.5061V54.7192Z" fill="#FFC110"/>
    <path d="M36.4793 54.7192H30.5078V56.7097H36.4793V54.7192Z" fill="#FFC110"/>
    <path d="M44.448 54.7192H38.4766V56.7097H44.448V54.7192Z" fill="#FFC110"/>
    <path d="M52.4012 54.7192H46.4297V56.7097H52.4012V54.7192Z" fill="#FFC110"/>
    <path d="M30.4905 56.7085H28.5V58.699H30.4905V56.7085Z" fill="#FFC110"/>
    <path d="M38.4671 56.7085H36.4766V58.699H38.4671V56.7085Z" fill="#FFC110"/>
    <path d="M46.4358 56.7085H44.4453V58.699H46.4358V56.7085Z" fill="#FFC110"/>
    <path d="M54.3811 56.7085H52.3906V58.699H54.3811V56.7085Z" fill="#FFC110"/>
    <path d="M30.4966 58.6992H26.5156V60.6897H30.4966V58.6992Z" fill="#FFC110"/>
    <path d="M40.4637 58.6992H34.4922V60.6897H40.4637V58.6992Z" fill="#FFC110"/>
    <path d="M48.4246 58.6992H42.4531V60.6897H48.4246V58.6992Z" fill="#FFC110"/>
    <path d="M54.3794 58.6992H50.3984V60.6897H54.3794V58.6992Z" fill="#FFC110"/>
    <path d="M30.4905 60.689H28.5V62.6795H30.4905V60.689Z" fill="#FFC110"/>
    <path d="M38.4671 60.689H36.4766V62.6795H38.4671V60.689Z" fill="#FFC110"/>
    <path d="M46.4358 60.689H44.4453V62.6795H46.4358V60.689Z" fill="#FFC110"/>
    <path d="M54.3811 60.689H52.3906V62.6795H54.3811V60.689Z" fill="#FFC110"/>
    <path d="M28.5061 62.6812H26.5156V64.6716H28.5061V62.6812Z" fill="#FFC110"/>
    <path d="M36.481 62.6812H32.5V64.6716H36.481V62.6812Z" fill="#FFC110"/>
    <path d="M44.448 62.6812H38.4766V64.6716H44.448V62.6812Z" fill="#FFC110"/>
    <path d="M52.4012 62.6812H46.4297V64.6716H52.4012V62.6812Z" fill="#FFC110"/>
    <path d="M36.4827 12.918H34.4922V14.9085H36.4827V12.918Z" fill="#0096FF"/>
    <path d="M42.4514 12.918H40.4609V14.9085H42.4514V12.918Z" fill="#0096FF"/>
    <path d="M26.5418 14.9072H20.5703V16.8977H26.5418V14.9072Z" fill="#625D5D"/>
    <path d="M32.4983 14.9072H30.5078V16.8977H32.4983V14.9072Z" fill="#8A00FF"/>
    <path d="M36.4827 14.9072H34.4922V16.8977H36.4827V14.9072Z" fill="#A9A7A7"/>
    <path d="M38.4671 14.9072H36.4766V16.8977H38.4671V14.9072Z" fill="#00FF7E"/>
    <path d="M42.4514 14.9072H40.4609V16.8977H42.4514V14.9072Z" fill="#A9A7A7"/>
    <path d="M44.4436 14.9072H42.4531V16.8977H44.4436V14.9072Z" fill="#FFF600"/>
    <path d="M56.3716 14.9072H52.3906V16.8977H56.3716V14.9072Z" fill="#625D5D"/>
    <path d="M22.5435 16.9009H18.5625V18.8914H22.5435V16.9009Z" fill="#625D5D"/>
    <path d="M24.5374 16.9009H22.5469V18.8914H24.5374V16.9009Z" fill="#F99092"/>
    <path d="M28.5122 16.9009H24.5312V18.8914H28.5122V16.9009Z" fill="#625D5D"/>
    <path d="M34.4905 16.9009H32.5V18.8914H34.4905V16.9009Z" fill="#0096FF"/>
    <path d="M38.4671 16.9009H36.4766V18.8914H38.4671V16.9009Z" fill="#A9A7A7"/>
    <path d="M40.4671 16.9009H38.4766V18.8914H40.4671V16.9009Z" fill="#FFF600"/>
    <path d="M44.4436 16.9009H42.4531V18.8914H44.4436V16.9009Z" fill="#A9A7A7"/>
    <path d="M46.4358 16.9009H44.4453V18.8914H46.4358V16.9009Z" fill="#FF8400"/>
    <path d="M52.3889 16.9009H50.3984V18.8914H52.3889V16.9009Z" fill="#625D5D"/>
    <path d="M54.3811 16.9009H52.3906V18.8914H54.3811V16.9009Z" fill="#F99092"/>
    <path d="M58.3716 16.9009H54.3906V18.8914H58.3716V16.9009Z" fill="#625D5D"/>
    <path d="M20.553 18.8906H18.5625V20.8811H20.553V18.8906Z" fill="#625D5D"/>
    <path d="M22.5608 18.8906H20.5703V20.8811H22.5608V18.8906Z" fill="#F99092"/>
    <path d="M28.5183 18.8906H22.5469V20.8811H28.5183V18.8906Z" fill="#625D5D"/>
    <path d="M32.481 18.8906H28.5V20.8811H32.481V18.8906Z" fill="#A9A7A7"/>
    <path d="M34.4905 18.8906H32.5V20.8811H34.4905V18.8906Z" fill="#00FF7E"/>
    <path d="M38.4671 18.8906H36.4766V20.8811H38.4671V18.8906Z" fill="#A9A7A7"/>
    <path d="M40.4671 18.8906H38.4766V20.8811H40.4671V18.8906Z" fill="#FF8400"/>
    <path d="M44.4436 18.8906H42.4531V20.8811H44.4436V18.8906Z" fill="#A9A7A7"/>
    <path d="M46.4358 18.8906H44.4453V20.8811H46.4358V18.8906Z" fill="#E63C3C"/>
    <path d="M48.4202 18.8906H46.4297V20.8811H48.4202V18.8906Z" fill="#D2D2D2"/>
    <path d="M54.3933 18.8906H48.4219V20.8811H54.3933V18.8906Z" fill="#625D5D"/>
    <path d="M56.3811 18.8906H54.3906V20.8811H56.3811V18.8906Z" fill="#F99092"/>
    <path d="M58.3811 18.8906H56.3906V20.8811H58.3811V18.8906Z" fill="#625D5D"/>
    <path d="M20.553 20.8809H18.5625V22.8713H20.553V20.8809Z" fill="#625D5D"/>
    <path d="M22.5608 20.8809H20.5703V22.8713H22.5608V20.8809Z" fill="#F99092"/>
    <path d="M30.5088 20.8809H22.5469V22.8713H30.5088V20.8809Z" fill="#625D5D"/>
    <path d="M32.4983 20.8809H30.5078V22.8713H32.4983V20.8809Z" fill="#A9A7A7"/>
    <path d="M34.4905 20.8809H32.5V22.8713H34.4905V20.8809Z" fill="#D2D2D2"/>
    <path d="M36.4827 20.8809H34.4922V22.8713H36.4827V20.8809Z" fill="#FFF600"/>
    <path d="M38.4671 20.8809H36.4766V22.8713H38.4671V20.8809Z" fill="#D2D2D2"/>
    <path d="M40.4671 20.8809H38.4766V22.8713H40.4671V20.8809Z" fill="#A9A7A7"/>
    <path d="M44.4419 20.8809H40.4609V22.8713H44.4419V20.8809Z" fill="#D2D2D2"/>
    <path d="M46.4358 20.8809H44.4453V22.8713H46.4358V20.8809Z" fill="#A9A7A7"/>
    <path d="M48.4202 20.8809H46.4297V22.8713H48.4202V20.8809Z" fill="#D2D2D2"/>
    <path d="M50.4124 20.8809H48.4219V22.8713H50.4124V20.8809Z" fill="#A9A7A7"/>
    <path d="M54.3794 20.8809H50.3984V22.8713H54.3794V20.8809Z" fill="#625D5D"/>
    <path d="M56.3811 20.8809H54.3906V22.8713H56.3811V20.8809Z" fill="#F99092"/>
    <path d="M58.3811 20.8809H56.3906V22.8713H58.3811V20.8809Z" fill="#625D5D"/>
    <path d="M26.5245 22.8711H18.5625V24.8616H26.5245V22.8711Z" fill="#625D5D"/>
    <path d="M28.5061 22.8711H26.5156V24.8616H28.5061V22.8711Z" fill="#A9A7A7"/>
    <path d="M50.3954 22.8711H28.5V24.8616H50.3954V22.8711Z" fill="#D2D2D2"/>
    <path d="M52.3889 22.8711H50.3984V24.8616H52.3889V22.8711Z" fill="#A9A7A7"/>
    <path d="M58.3621 22.8711H52.3906V24.8616H58.3621V22.8711Z" fill="#625D5D"/>
    <path d="M24.5513 24.8623H20.5703V26.8528H24.5513V24.8623Z" fill="#625D5D"/>
    <path d="M28.5122 24.8623H24.5312V26.8528H28.5122V24.8623Z" fill="#D2D2D2"/>
    <path d="M30.4905 24.8623H28.5V26.8528H30.4905V24.8623Z" fill="#999797"/>
    <path d="M52.4032 24.8623H30.5078V26.8528H52.4032V24.8623Z" fill="#D2D2D2"/>
    <path d="M54.3811 24.8623H52.3906V26.8528H54.3811V24.8623Z" fill="#999797"/>
    <path d="M56.3811 24.8623H54.3906V26.8528H56.3811V24.8623Z" fill="#625D5D"/>
    <path d="M22.5608 26.8491H20.5703V28.8396H22.5608V26.8491Z" fill="#786E71"/>
    <path d="M24.5374 26.8491H22.5469V28.8396H24.5374V26.8491Z" fill="#999797"/>
    <path d="M54.3886 26.8491H24.5312V28.8396H54.3886V26.8491Z" fill="#D2D2D2"/>
    <path d="M56.3811 26.8491H54.3906V28.8396H56.3811V26.8491Z" fill="#A9A7A7"/>
    <path d="M22.5608 28.8379H20.5703V30.8284H22.5608V28.8379Z" fill="#999797"/>
    <path d="M24.5374 28.8379H22.5469V30.8284H24.5374V28.8379Z" fill="#786E71"/>
    <path d="M26.5217 28.8379H24.5312V30.8284H26.5217V28.8379Z" fill="#999797"/>
    <path d="M56.373 28.8379H26.5156V30.8284H56.373V28.8379Z" fill="#D2D2D2"/>
    <path d="M58.3811 28.8379H56.3906V30.8284H58.3811V28.8379Z" fill="#786E71"/>
    <path d="M22.5435 30.8296H18.5625V32.8201H22.5435V30.8296Z" fill="#786E71"/>
    <path d="M24.5374 30.8296H22.5469V32.8201H24.5374V30.8296Z" fill="#999797"/>
    <path d="M54.3886 30.8296H24.5312V32.8201H54.3886V30.8296Z" fill="#D2D2D2"/>
    <path d="M56.3811 30.8296H54.3906V32.8201H56.3811V30.8296Z" fill="#A9A7A7"/>
    <path d="M22.5608 32.8247H20.5703V34.8152H22.5608V32.8247Z" fill="#999797"/>
    <path d="M56.3852 32.8247H22.5469V34.8152H56.3852V32.8247Z" fill="#D2D2D2"/>
    <path d="M22.5435 34.8135H18.5625V36.804H22.5435V34.8135Z" fill="#786E71"/>
    <path d="M24.5374 34.8135H22.5469V36.804H24.5374V34.8135Z" fill="#999797"/>
    <path d="M56.3791 34.8135H24.5312V36.804H56.3791V34.8135Z" fill="#D2D2D2"/>
    <path d="M58.3811 34.8135H56.3906V36.804H58.3811V34.8135Z" fill="#A9A7A7"/>
    <path d="M22.5608 36.8027H20.5703V38.7932H22.5608V36.8027Z" fill="#999797"/>
    <path d="M56.3852 36.8027H22.5469V38.7932H56.3852V36.8027Z" fill="#D2D2D2"/>
    <path d="M20.553 38.7969H18.5625V40.7874H20.553V38.7969Z" fill="#786E71"/>
    <path d="M22.5608 38.7969H20.5703V40.7874H22.5608V38.7969Z" fill="#999797"/>
    <path d="M24.5374 38.7969H22.5469V40.7874H24.5374V38.7969Z" fill="#786E71"/>
    <path d="M56.3791 38.7969H24.5312V40.7874H56.3791V38.7969Z" fill="#D2D2D2"/>
    <path d="M58.3811 38.7969H56.3906V40.7874H58.3811V38.7969Z" fill="#999797"/>
    <path d="M22.5608 40.7856H20.5703V42.7761H22.5608V40.7856Z" fill="#786E71"/>
    <path d="M24.5374 40.7856H22.5469V42.7761H24.5374V40.7856Z" fill="#D2D2D2"/>
    <path d="M26.5217 40.7856H24.5312V42.7761H26.5217V40.7856Z" fill="#999797"/>
    <path d="M58.3634 40.7856H26.5156V42.7761H58.3634V40.7856Z" fill="#D2D2D2"/>
    <path d="M60.3655 40.7856H58.375V42.7761H60.3655V40.7856Z" fill="#999797"/>
    <path d="M20.553 42.7773H18.5625V44.7678H20.553V42.7773Z" fill="#786E71"/>
    <path d="M22.5608 42.7773H20.5703V44.7678H22.5608V42.7773Z" fill="#999797"/>
    <path d="M58.3696 42.7773H24.5312V44.7678H58.3696V42.7773Z" fill="#D2D2D2"/>
    <path d="M60.3655 42.7773H58.375V44.7678H60.3655V42.7773Z" fill="#A9A7A7"/>
    <path d="M62.3499 42.7773H60.3594V44.7678H62.3499V42.7773Z" fill="#999797"/>
    <path d="M24.5374 44.7637H22.5469V46.7542H24.5374V44.7637Z" fill="#786E71"/>
    <path d="M26.5217 44.7637H24.5312V46.7542H26.5217V44.7637Z" fill="#999797"/>
    <path d="M60.3539 44.7637H26.5156V46.7542H60.3539V44.7637Z" fill="#D2D2D2"/>
    <path d="M62.3499 44.7637H60.3594V46.7542H62.3499V44.7637Z" fill="#E8B3B3"/>
    <path d="M64.3421 44.7637H62.3516V46.7542H64.3421V44.7637Z" fill="#C66264"/>
    <path d="M22.5608 46.7588H20.5703V48.7493H22.5608V46.7588Z" fill="#786E71"/>
    <path d="M24.5374 46.7588H22.5469V48.7493H24.5374V46.7588Z" fill="#999797"/>
    <path d="M26.5217 46.7588H24.5312V48.7493H26.5217V46.7588Z" fill="#786E71"/>
    <path d="M42.4395 46.7588H26.5156V48.7493H42.4395V46.7588Z" fill="#D2D2D2"/>
    <path d="M44.4436 46.7588H42.4531V48.7493H44.4436V46.7588Z" fill="black"/>
    <path d="M58.3787 46.7588H44.4453V48.7493H58.3787V46.7588Z" fill="#D2D2D2"/>
    <path d="M60.3655 46.7588H58.375V48.7493H60.3655V46.7588Z" fill="#E8B3B3"/>
    <path d="M62.3499 46.7588H60.3594V48.7493H62.3499V46.7588Z" fill="#F99092"/>
    <path d="M64.3421 46.7588H62.3516V48.7493H64.3421V46.7588Z" fill="#C66264"/>
    <path d="M24.5374 48.7471H22.5469V50.7376H24.5374V48.7471Z" fill="#786E71"/>
    <path d="M28.5061 48.7471H26.5156V50.7376H28.5061V48.7471Z" fill="#999797"/>
    <path d="M44.4239 48.7471H28.5V50.7376H44.4239V48.7471Z" fill="#D2D2D2"/>
    <path d="M48.4263 48.7471H44.4453V50.7376H48.4263V48.7471Z" fill="black"/>
    <path d="M50.4124 48.7471H48.4219V50.7376H50.4124V48.7471Z" fill="#FFBC07"/>
    <path d="M52.3889 48.7471H50.3984V50.7376H52.3889V48.7471Z" fill="black"/>
    <path d="M56.3716 48.7471H52.3906V50.7376H56.3716V48.7471Z" fill="#D2D2D2"/>
    <path d="M58.3811 48.7471H56.3906V50.7376H58.3811V48.7471Z" fill="#A9A7A7"/>
    <path d="M60.3655 48.7471H58.375V50.7376H60.3655V48.7471Z" fill="#999797"/>
    <path d="M26.5217 50.7378H24.5312V52.7283H26.5217V50.7378Z" fill="#999797"/>
    <path d="M28.5061 50.7378H26.5156V52.7283H28.5061V50.7378Z" fill="#786E71"/>
    <path d="M30.4905 50.7378H28.5V52.7283H30.4905V50.7378Z" fill="#999797"/>
    <path d="M32.4983 50.7378H30.5078V52.7283H32.4983V50.7378Z" fill="#786E71"/>
    <path d="M34.4905 50.7378H32.5V52.7283H34.4905V50.7378Z" fill="#D2D2D2"/>
    <path d="M36.4827 50.7378H34.4922V52.7283H36.4827V50.7378Z" fill="#999797"/>
    <path d="M52.4005 50.7378H36.4766V52.7283H52.4005V50.7378Z" fill="#D2D2D2"/>
    <path d="M54.3811 50.7378H52.3906V52.7283H54.3811V50.7378Z" fill="#999797"/>
    <path d="M56.3811 50.7378H54.3906V52.7283H56.3811V50.7378Z" fill="#A9A7A7"/>
    <path d="M30.4905 52.7266H28.5V54.7171H30.4905V52.7266Z" fill="#786E71"/>
    <path d="M34.4905 52.7266H32.5V54.7171H34.4905V52.7266Z" fill="#999797"/>
    <path d="M36.4827 52.7266H34.4922V54.7171H36.4827V52.7266Z" fill="#786E71"/>
    <path d="M40.4671 52.7266H38.4766V54.7171H40.4671V52.7266Z" fill="#786E71"/>
    <path d="M42.4514 52.7266H40.4609V54.7171H42.4514V52.7266Z" fill="#999797"/>
    <path d="M44.4436 52.7266H42.4531V54.7171H44.4436V52.7266Z" fill="#786E71"/>
    <path d="M46.4358 52.7266H44.4453V54.7171H46.4358V52.7266Z" fill="#999797"/>
    <path d="M48.4202 52.7266H46.4297V54.7171H48.4202V52.7266Z" fill="#786E71"/>
    <path d="M50.4124 52.7266H48.4219V54.7171H50.4124V52.7266Z" fill="#A9A7A7"/>
    <path d="M52.3889 52.7266H50.3984V54.7171H52.3889V52.7266Z" fill="#999797"/>
    <path d="M40.4429 28.8379H28.5V30.8284H40.4429V28.8379Z" fill="#F3322C"/>
    <path d="M54.3961 28.8379H42.4531V30.8284H54.3961V28.8379Z" fill="#F3322C"/>
    <path d="M30.4905 30.8296H28.5V32.8201H30.4905V30.8296Z" fill="#F3322C"/>
    <path d="M34.4888 30.8296H30.5078V32.8201H34.4888V30.8296Z" fill="white"/>
    <path d="M38.4732 30.8296H34.4922V32.8201H38.4732V30.8296Z" fill="black"/>
    <path d="M40.4671 30.8296H38.4766V32.8201H40.4671V30.8296Z" fill="#F3322C"/>
    <path d="M44.4436 30.8296H42.4531V32.8201H44.4436V30.8296Z" fill="#F3322C"/>
    <path d="M48.4263 30.8296H44.4453V32.8201H48.4263V30.8296Z" fill="white"/>
    <path d="M52.4029 30.8296H48.4219V32.8201H52.4029V30.8296Z" fill="black"/>
    <path d="M54.3811 30.8296H52.3906V32.8201H54.3811V30.8296Z" fill="#F3322C"/>
    <path d="M30.5088 32.8247H22.5469V34.8152H30.5088V32.8247Z" fill="#F3322C"/>
    <path d="M34.4888 32.8247H30.5078V34.8152H34.4888V32.8247Z" fill="white"/>
    <path d="M38.4732 32.8247H34.4922V34.8152H38.4732V32.8247Z" fill="black"/>
    <path d="M44.448 32.8247H38.4766V34.8152H44.448V32.8247Z" fill="#F3322C"/>
    <path d="M48.4263 32.8247H44.4453V34.8152H48.4263V32.8247Z" fill="white"/>
    <path d="M52.4029 32.8247H48.4219V34.8152H52.4029V32.8247Z" fill="black"/>
    <path d="M54.3811 32.8247H52.3906V34.8152H54.3811V32.8247Z" fill="#F3322C"/>
    <path d="M24.5374 34.8135H22.5469V36.804H24.5374V34.8135Z" fill="#F3322C"/>
    <path d="M30.4905 34.8135H28.5V36.804H30.4905V34.8135Z" fill="#F3322C"/>
    <path d="M34.4888 34.8135H30.5078V36.804H34.4888V34.8135Z" fill="white"/>
    <path d="M38.4732 34.8135H34.4922V36.804H38.4732V34.8135Z" fill="black"/>
    <path d="M40.4671 34.8135H38.4766V36.804H40.4671V34.8135Z" fill="#F3322C"/>
    <path d="M44.4436 34.8135H42.4531V36.804H44.4436V34.8135Z" fill="#F3322C"/>
    <path d="M48.4263 34.8135H44.4453V36.804H48.4263V34.8135Z" fill="white"/>
    <path d="M52.4029 34.8135H48.4219V36.804H52.4029V34.8135Z" fill="black"/>
    <path d="M54.3811 34.8135H52.3906V36.804H54.3811V34.8135Z" fill="#F3322C"/>
    <path d="M24.5374 36.8027H22.5469V38.7932H24.5374V36.8027Z" fill="#F3322C"/>
    <path d="M30.4905 36.8027H28.5V38.7932H30.4905V36.8027Z" fill="#F3322C"/>
    <path d="M34.4888 36.8027H30.5078V38.7932H34.4888V36.8027Z" fill="white"/>
    <path d="M38.4732 36.8027H34.4922V38.7932H38.4732V36.8027Z" fill="black"/>
    <path d="M40.4671 36.8027H38.4766V38.7932H40.4671V36.8027Z" fill="#F3322C"/>
    <path d="M44.4436 36.8027H42.4531V38.7932H44.4436V36.8027Z" fill="#F3322C"/>
    <path d="M48.4263 36.8027H44.4453V38.7932H48.4263V36.8027Z" fill="white"/>
    <path d="M52.4029 36.8027H48.4219V38.7932H52.4029V36.8027Z" fill="black"/>
    <path d="M54.3811 36.8027H52.3906V38.7932H54.3811V36.8027Z" fill="#F3322C"/>
    <path d="M40.4429 38.7969H28.5V40.7874H40.4429V38.7969Z" fill="#F3322C"/>
    <path d="M54.3961 38.7969H42.4531V40.7874H54.3961V38.7969Z" fill="#F3322C"/>
</svg>
