<svg width="124" height="67" viewBox="0 0 124 67" fill="none" xmlns="http://www.w3.org/2000/svg">
<path d="M72.4593 23.1419L67.1172 19.6965C68.2933 18.8067 69.4179 17.851 70.4858 16.8339L75.828 20.2792C74.76 21.2963 73.6353 22.2521 72.4593 23.1419Z" fill="#462E99"/>
<path d="M75.8343 20.2795L70.4922 16.8341C71.4947 15.8789 72.4429 14.8683 73.3324 13.8071L78.6745 17.2525C77.7849 18.3136 76.8367 19.3241 75.8343 20.2795Z" fill="#442D94"/>
<path d="M78.6702 17.2538L73.3281 13.8084C74.2639 12.6916 75.1324 11.5203 75.9291 10.3004L81.2712 13.7458C80.4746 14.9657 79.606 16.1371 78.6702 17.2538Z" fill="#422B8F"/>
<path d="M81.2718 13.7455L75.9297 10.3001C76.9162 8.78843 77.7936 7.20825 78.5552 5.57166L83.8973 9.01702C83.1357 10.6536 82.2583 12.2338 81.2718 13.7455Z" fill="#3F2A8A"/>
<path d="M83.9046 9.01673L78.5625 5.57136C79.6155 3.29915 80.465 0.938087 81.1012 -1.4841C81.3422 -2.40643 81.5056 -3.34317 81.7026 -4.271L87.0447 -0.825635C86.8477 0.102192 86.6843 1.03765 86.4433 1.96167C85.8069 4.38364 84.9573 6.74455 83.9046 9.01673Z" fill="#3D2885"/>
<path d="M37.6233 26.0423L32.2812 22.5966C33.4949 23.3799 34.7737 24.0574 36.1035 24.6216L41.4451 28.067C40.1156 27.5027 38.837 26.8253 37.6233 26.0423Z" fill="#4B31A3"/>
<path d="M41.4432 28.0651L36.1016 24.6198C38.8928 25.7861 41.8554 26.49 44.873 26.7041C45.0794 26.7202 45.2852 26.7343 45.4904 26.7464L50.8325 30.1918C50.627 30.18 50.4212 30.1658 50.2151 30.1494C47.1974 29.9354 44.2347 29.2314 41.4432 28.0651Z" fill="#4D33A8"/>
<path d="M50.8343 30.1924L45.4922 26.7471C45.6712 26.7578 45.8501 26.7667 46.0288 26.7737C47.0417 26.8152 48.0495 26.8066 49.0523 26.7479L54.3944 30.1933C53.3922 30.252 52.3844 30.2606 51.3709 30.2191C51.1922 30.2118 51.0133 30.2029 50.8343 30.1924Z" fill="#5034AD"/>
<path d="M54.4046 30.1916L49.0625 26.7462C52.2343 26.5573 55.3564 25.8691 58.3136 24.7072L63.6557 28.1525C60.6984 29.3145 57.5764 30.0027 54.4046 30.1916Z" fill="#4D33A8"/>
<path d="M63.6546 28.1523L58.3125 24.707C59.9277 24.0743 61.4922 23.319 62.9923 22.4478L68.3344 25.8931C66.8344 26.7644 65.2698 27.5197 63.6546 28.1523Z" fill="#4B31A3"/>
<path d="M68.3187 25.893L62.9766 22.4476C63.5367 22.1235 64.0938 21.7813 64.648 21.4211C65.4981 20.8686 66.318 20.293 67.1076 19.6942L72.4497 23.1396C71.6592 23.7384 70.8393 24.314 69.9901 24.8665C69.4356 25.2267 68.8785 25.5689 68.3187 25.893Z" fill="#49309E"/>
<path d="M72.4515 23.1402L67.1094 19.6948C68.2855 18.805 69.4101 17.8492 70.478 16.8322L75.8202 20.2775C74.7522 21.2946 73.6275 22.2503 72.4515 23.1402Z" fill="#462E99"/>
<path d="M37.6045 26.0415L32.2624 22.5961C29.7186 20.9346 27.4633 18.8685 25.5859 16.4795L30.928 19.9249C32.8054 22.3139 35.0606 24.38 37.6045 26.0415Z" fill="#858585"/>
<path d="M30.9905 19.592L25.6484 16.1466C33.9996 8.73811 42.358 1.33482 50.7238 -6.06323L56.0659 -2.61741C47.699 4.77924 39.3405 12.1823 30.9905 19.592Z" fill="#999999"/>
<path d="M79.5481 -1.93933C82.083 -1.83516 84.6174 -1.7307 87.1515 -1.62596L87.0295 -0.828181C86.8326 0.0996459 86.6692 1.03511 86.4278 1.95912C83.8357 11.7274 78.378 19.4176 69.997 24.8689C64.0875 28.7124 57.8333 30.485 51.3711 30.2195C50.9874 30.2037 50.6029 30.1808 50.2175 30.1509C42.266 29.5284 35.8496 26.0687 30.9475 19.9254C30.93 19.8701 30.9253 19.8116 30.9338 19.7543C30.9423 19.697 30.9638 19.6424 30.9966 19.5946C39.3477 12.1861 47.7063 4.78297 56.0721 -2.61481C56.2587 -2.77064 56.493 -2.85778 56.736 -2.86169C64.3393 -2.55877 71.9434 -2.25129 79.5481 -1.93933Z" fill="#DDDDDD"/>
<path d="M30.9234 19.9261L25.5813 16.4807C25.5507 16.3867 25.5576 16.2845 25.6005 16.1953L30.9426 19.6407C30.8997 19.7298 30.8928 19.832 30.9234 19.9261Z" fill="#858585"/>
<path d="M30.9515 19.641L25.6094 16.1956C25.6133 16.1868 25.618 16.1782 25.6233 16.1702L30.965 19.6155C30.96 19.6237 30.9555 19.6322 30.9515 19.641Z" fill="#8A8A8A"/>
<path d="M30.9511 19.6151L25.6094 16.1697C25.6119 16.1654 25.6147 16.1614 25.6179 16.1575L30.9599 19.6032C30.9568 19.607 30.9538 19.611 30.9511 19.6151Z" fill="#8F8F8F"/>
<path d="M30.9593 19.6038L25.6172 16.158L25.6243 16.1508L30.9665 19.5961L30.9593 19.6038Z" fill="#949494"/>
<path d="M30.9749 19.5961L25.6328 16.1508L30.9749 19.5961Z" fill="#999999"/>
<path d="M27.5136 14.3202L22.1719 10.8748C23.9284 9.33713 25.6054 7.84821 27.2794 6.35547L32.6215 9.80088V9.803C30.9475 11.2953 29.2705 12.7842 27.5136 14.3218" fill="#462E99"/>
<path d="M32.6233 9.79835L27.2812 6.35299L27.2871 6.34705L32.6292 9.79241L32.6233 9.79835Z" fill="#442D94"/>
<path d="M32.6312 9.79199L27.2891 6.34663L27.2959 6.33691L32.638 9.78228L32.6312 9.79199Z" fill="#422B8F"/>
<path d="M32.6468 9.78333L27.3047 6.33797C27.3084 6.33223 27.3118 6.3263 27.3148 6.32019L32.6565 9.76555C32.6538 9.77178 32.6506 9.77774 32.6468 9.78333Z" fill="#3F2A8A"/>
<path d="M32.6464 9.76535L27.3047 6.31998C27.3314 6.25938 27.3359 6.19128 27.3174 6.12769L32.6595 9.57305C32.678 9.63667 32.6734 9.70483 32.6464 9.76535Z" fill="#3D2885"/>
<path d="M27.5136 14.3237L22.1719 10.8783C23.9284 9.34067 25.6054 7.85175 27.2794 6.35901L32.6215 9.80442V9.80654C30.9475 11.2989 29.2705 12.7877 27.5136 14.3254" fill="#462E99"/>
<path d="M27.5136 14.3237L22.1719 10.8783C23.9284 9.34067 25.6054 7.85175 27.2794 6.35901L32.6215 9.80442V9.80654C30.9475 11.2989 29.2705 12.7877 27.5136 14.3254" fill="#462E99"/>
<path d="M32.6467 9.57547L27.3046 6.13011C24.9154 -0.272364 25.003 -6.9471 27.6565 -13.8645C27.9078 -14.5184 28.1802 -15.1608 28.4738 -15.7917L33.8159 -12.3464C33.5226 -11.7157 33.2501 -11.0731 32.9986 -10.4187C30.3451 -3.50175 30.2574 3.17469 32.6467 9.57547Z" fill="#3D2885"/>
<path d="M27.5971 14.2678L22.255 10.8224C22.0906 10.6383 21.9626 10.4246 21.8778 10.1927C19.2146 3.86053 18.6301 -2.93069 20.2215 -10.1649C20.8187 -12.8717 21.7105 -15.505 22.8809 -18.0177L28.223 -14.5723C27.0526 -12.0596 26.1608 -9.42629 25.5636 -6.71945C23.9718 0.514725 24.5567 7.30594 27.2195 13.6381C27.3045 13.87 27.4326 14.0836 27.5971 14.2678Z" fill="#858585"/>
<path d="M61.7959 -36.016C62.6361 -35.9114 63.4843 -35.8355 64.3206 -35.7017C69.0907 -34.9766 73.5724 -32.9633 77.2827 -29.879L74.2862 -27.09C73.6163 -26.4997 72.9526 -25.9043 72.2802 -25.3224C68.663 -27.8228 64.4101 -29.2447 60.0164 -29.4225C59.6616 -29.4374 59.304 -29.4445 58.9438 -29.4437C47.9996 -29.4195 37.2942 -21.5862 33.0142 -10.4179C30.3607 -3.50095 30.2731 3.1755 32.6623 9.57627C32.6739 9.61457 32.6766 9.65505 32.6701 9.69455C32.6637 9.73405 32.6483 9.77154 32.6251 9.80414C30.9509 11.297 29.2729 12.7845 27.5912 14.2667C27.4266 14.0825 27.2985 13.8689 27.2135 13.637C24.5507 7.30482 23.9658 0.513603 25.5577 -6.72057C28.8679 -21.7614 41.2216 -33.6898 55.6069 -35.7411C57.062 -35.9478 58.5186 -35.9529 59.972 -36.0575L60.2684 -36.0786L61.7959 -36.016Z" fill="#DDDDDD"/>
<path d="M25.9937 43.2794L20.6516 39.8341C5.89274 30.3149 -2.4365 11.9595 0.632406 -8.6886C1.49941 -14.485 3.20048 -20.1255 5.68274 -25.4348L11.0248 -21.9895C8.54257 -16.68 6.8415 -11.0394 5.9745 -5.24282C2.90518 15.4048 11.2348 33.759 25.9937 43.2794Z" fill="#3D2885"/>
<path d="M63.8487 -56.5148C91.4328 -55.3829 110.246 -30.5915 105.869 -1.14285C101.491 28.3058 75.5802 51.2613 47.9965 50.1294C20.4128 48.9975 1.59837 24.21 5.97623 -5.24208C10.3541 -34.6941 36.2646 -57.6467 63.8487 -56.5148ZM27.528 14.3228C29.285 12.7851 30.962 11.2962 32.6359 9.80389C32.6592 9.77129 32.6746 9.7338 32.681 9.6943C32.6875 9.6548 32.6848 9.61432 32.6732 9.57603C30.2839 3.17355 30.3716 -3.5012 33.0251 -10.4182C37.3051 -21.5864 48.0105 -29.4198 58.9551 -29.4439C59.3156 -29.4439 59.673 -29.437 60.0273 -29.4232C64.3517 -29.2855 68.5354 -27.8531 72.0366 -25.3113C72.8371 -25.8418 73.593 -26.4367 74.2971 -27.0899L77.3617 -29.8022C73.6428 -32.9283 69.1344 -34.9695 64.3315 -35.7016C63.4956 -35.8358 62.647 -35.9112 61.8068 -36.0162L60.2823 -36.0785L59.9859 -36.0577C58.5321 -35.9544 57.0753 -35.9476 55.6202 -35.741C41.2349 -33.6897 28.8814 -21.7613 25.5711 -6.72082C23.9797 0.513771 24.564 7.30456 27.2273 13.6372C27.3247 13.8667 27.4301 14.0894 27.5305 14.3232L27.528 14.3228ZM87.041 -0.827366L87.163 -1.6252C84.6289 -1.73022 82.0944 -1.83467 79.5595 -1.93856C71.9557 -2.2508 64.3511 -2.55882 56.7458 -2.86259C56.5028 -2.85862 56.2686 -2.77164 56.0819 -2.61611C47.7152 4.78053 39.3567 12.1838 31.0064 19.5937C30.9736 19.6414 30.9521 19.6961 30.9436 19.7534C30.9351 19.8107 30.9398 19.8692 30.9572 19.9244C35.8594 26.0677 42.2763 29.5275 50.2274 30.15C50.6128 30.1802 50.9973 30.2031 51.3813 30.2186C57.8435 30.4837 64.0974 28.7115 70.0073 24.8681C78.3895 19.418 83.8472 11.7282 86.438 1.95823C86.679 1.03549 86.8424 0.0987549 87.0393 -0.829071L87.041 -0.827366ZM79.9351 -21.0219C78.581 -20.7783 77.3425 -20.1023 76.4051 -19.0951C75.4281 -18.0712 74.7876 -16.7729 74.5698 -15.3745C74.4516 -14.6065 74.4803 -13.823 74.6545 -13.0657C74.8193 -12.3455 75.1343 -11.6681 75.5789 -11.078C76.3412 -10.0689 77.472 -9.40269 78.724 -9.22485C78.9045 -9.19788 79.0863 -9.18061 79.2686 -9.17316C80.4135 -9.13943 81.5427 -9.44564 82.5137 -10.0531C83.7171 -10.7954 84.6653 -11.8874 85.2315 -13.183C85.7983 -14.4421 85.9432 -15.8506 85.6448 -17.1988C85.3668 -18.4523 84.6222 -19.553 83.5622 -20.2775C82.8118 -20.7776 81.937 -21.0594 81.0357 -21.0914C80.6673 -21.1059 80.2984 -21.0826 79.9347 -21.0219" fill="#6543DD"/>
</svg>
