<svg width="116" height="63" viewBox="0 0 116 63" fill="none" xmlns="http://www.w3.org/2000/svg">
<g id="Grupo 1737">
<g id="Grupo 1539">
<g id="Grupo 1538">
<g id="Grupo 1434">
<path id="Trazado 3391" d="M80.9706 -1.06217L73.1416 -0.0683166L73.0016 -0.738528L80.8306 -1.73235L80.9706 -1.06217Z" fill="#452E97"/>
</g>
<g id="Grupo 1437">
<g id="Grupo 1436">
<g id="Grupo 1435">
<path id="Trazado 3392" d="M78.4649 21.7581L70.6359 22.752C73.5464 16.8569 74.4849 10.0125 73.5161 2.31322C73.4177 1.51466 73.2611 0.726703 73.1305 -0.0690677L80.9594 -1.06295C81.091 -0.269765 81.2466 0.520784 81.3446 1.31907C82.3134 9.01834 81.3749 15.8627 78.4644 21.7578" fill="#3F2A8A"/>
</g>
</g>
</g>
<g id="Grupo 1449">
<g id="Grupo 1448">
<g id="Grupo 1447">
<path id="Trazado 3400" d="M78.4649 21.7581L70.6359 22.752C73.5464 16.8569 74.4849 10.0125 73.5161 2.31322C73.4177 1.51466 73.2611 0.726703 73.1305 -0.0690677L80.9594 -1.06295C81.091 -0.269765 81.2466 0.520784 81.3446 1.31907C82.3134 9.01834 81.3749 15.8627 78.4644 21.7578" fill="#3F2A8A"/>
</g>
</g>
</g>
<g id="Grupo 1452">
<g id="Grupo 1451">
<g id="Grupo 1450">
<path id="Trazado 3402" d="M75.7886 -0.183558L67.9597 0.810296C69.6386 0.293491 71.3173 -0.22302 72.9959 -0.739209L80.8248 -1.73306C79.1463 -1.21687 77.4675 -0.700363 75.7886 -0.183558Z" fill="#858585"/>
</g>
</g>
</g>
<g id="Grupo 1467">
<g id="Grupo 1466">
<g id="Grupo 1465">
<path id="Trazado 3414" d="M65.1472 32.4822L57.3182 33.4761C57.935 33.397 58.5462 33.2799 59.1485 33.1256C59.3892 33.0638 59.6271 32.9972 59.8637 32.9242C63.8569 31.6944 67.1736 28.868 69.7264 24.45C70.049 23.8916 70.352 23.3252 70.6355 22.7508L78.4644 21.7569C78.1803 22.3326 77.8774 22.8991 77.5558 23.4564C75.0026 27.8741 71.6861 30.7013 67.6927 31.9303C67.456 32.0033 67.2184 32.0706 66.9775 32.1317C66.3752 32.2859 65.7641 32.4028 65.1475 32.4818" fill="#3D2885"/>
<path id="Trazado 3415" d="M78.4649 21.7581L70.6359 22.752C73.5464 16.8569 74.4849 10.0125 73.5161 2.31322C73.4177 1.51466 73.2611 0.726703 73.1305 -0.0690677L80.9594 -1.06295C81.091 -0.269765 81.2466 0.520784 81.3446 1.31907C82.3134 9.01834 81.3749 15.8627 78.4644 21.7578" fill="#3F2A8A"/>
</g>
</g>
</g>
<g id="Grupo 1487">
<g id="Grupo 1486">
<g id="Grupo 1485">
<path id="Trazado 3432" d="M62.0427 4.06454L54.2138 5.05842C58.7988 3.63841 63.3847 2.22238 67.9713 0.810351L75.8003 -0.183504C71.214 1.22871 66.6281 2.64471 62.0427 4.06454Z" fill="#858585"/>
</g>
</g>
</g>
<g id="Grupo 1490">
<g id="Grupo 1489">
<g id="Grupo 1488">
<path id="Trazado 3434" d="M61.6944 4.40892L53.8654 5.40277C53.8714 5.39259 53.8754 5.38059 53.8805 5.36987L61.7094 4.37602C61.7034 4.38619 61.6972 4.39684 61.6939 4.40866" fill="#8A8A8A"/>
<path id="Trazado 3435" d="M61.7092 4.37522L53.8802 5.36904C53.9422 5.22784 54.0569 5.11645 54.1999 5.05862L62.0288 4.06477C61.886 4.12276 61.7715 4.23427 61.7097 4.37549" fill="#858585"/>
</g>
</g>
</g>
<g id="Grupo 1496">
<g id="Grupo 1495">
<g id="Grupo 1494">
<path id="Trazado 3439" d="M65.1511 32.4837L57.3222 33.4776C57.9389 33.3985 58.5501 33.2814 59.1524 33.1271C59.3931 33.0652 59.631 32.9986 59.8676 32.9257C63.8608 31.6959 67.1775 28.8694 69.7303 24.4514C70.0529 23.8931 70.3559 23.3267 70.6394 22.7522L78.4683 21.7583C78.1842 22.334 77.8813 22.9005 77.5597 23.4578C75.0065 27.8755 71.69 30.7027 67.6966 31.9318C67.4599 32.0047 67.2223 32.0721 66.9814 32.1332C66.3791 32.2873 65.768 32.4043 65.1514 32.4832" fill="#3D2885"/>
</g>
</g>
</g>
<g id="Grupo 1513">
<g id="Grupo 1512">
<g id="Grupo 1511">
<path id="Trazado 3451" d="M65.1596 32.4833L57.3306 33.4771C52.9853 34.0293 48.7727 32.5693 44.7105 29.1856L52.5394 28.1917C56.6021 31.5756 60.8145 33.0349 65.1596 32.4833Z" fill="#858585"/>
</g>
</g>
</g>
<g id="Grupo 1514">
<path id="Trazado 3453" d="M75.7946 -0.183468C77.4735 -0.700274 79.1522 -1.21678 80.8308 -1.73297L80.9708 -1.06279C81.1023 -0.269605 81.2577 0.521423 81.3556 1.31971C82.419 9.77029 81.1848 17.1908 77.568 23.458C75.0148 27.8757 71.6983 30.7029 67.7049 31.932C67.4682 32.0049 67.2306 32.0723 66.9897 32.1334C61.9936 33.4038 57.1687 32.0481 52.5381 28.191C52.494 28.16 52.4574 27.9748 52.4797 27.918C55.5449 20.0751 58.6195 12.2379 61.7034 4.40609C61.7329 4.32898 61.7778 4.25868 61.8354 4.19956C61.893 4.14044 61.9621 4.09371 62.0384 4.06226C66.6235 2.64434 71.2089 1.22911 75.7946 -0.183468Z" fill="#FEFEFE"/>
</g>
<g id="Grupo 1517">
<g id="Grupo 1516">
<g id="Grupo 1515">
<path id="Trazado 3454" d="M52.5391 28.19L44.7102 29.1839C44.7032 29.1786 44.6973 29.1719 44.693 29.1643L52.5219 28.1704C52.5261 28.1779 52.5318 28.1845 52.5387 28.1897" fill="#858585"/>
<path id="Trazado 3455" d="M52.523 28.1717L44.6941 29.1656C44.6541 29.0874 44.6395 28.9987 44.6524 28.9118C47.7176 21.069 50.7923 13.2318 53.8766 5.40017L61.7055 4.40629C58.624 12.2395 55.5495 20.0769 52.4819 27.9183C52.4688 28.0051 52.4833 28.0938 52.5235 28.172" fill="#8A8A8A"/>
</g>
</g>
</g>
<g id="Grupo 1520">
<g id="Grupo 1519">
<g id="Grupo 1518">
<path id="Trazado 3457" d="M48.9487 24.4412L41.1198 25.4351C41.7684 23.8048 42.3865 22.2282 42.9985 20.6536C43.0078 20.5879 42.9952 20.5209 42.9625 20.4631L50.7915 19.4693C50.824 19.5271 50.8366 19.594 50.8275 19.6597C50.216 21.2334 49.5969 22.8106 48.9487 24.4412Z" fill="#3F2A8A"/>
</g>
</g>
</g>
<g id="Grupo 1523">
<g id="Grupo 1522">
<g id="Grupo 1521">
<path id="Trazado 3459" d="M48.9448 24.4412L41.1158 25.4351C41.7645 23.8048 42.3826 22.2282 42.9946 20.6536C43.0039 20.5879 42.9912 20.5209 42.9586 20.4631L50.7876 19.4693C50.8201 19.5271 50.8327 19.594 50.8236 19.6597C50.2121 21.2334 49.593 22.8106 48.9448 24.4412Z" fill="#3F2A8A"/>
<path id="Trazado 3460" d="M50.7843 19.4673L42.9554 20.4611L42.9522 20.4592C42.738 20.1478 42.5305 19.8329 42.3297 19.5144L50.1586 18.5205C50.3598 18.8392 50.5674 19.1542 50.7815 19.4656L50.7848 19.4676" fill="#3D2885"/>
<path id="Trazado 3461" d="M50.1596 18.5192L42.3306 19.513C39.4844 14.9237 37.9105 9.65975 37.7705 4.26132C37.5247 -0.299047 38.4148 -4.8491 40.3609 -8.98069L48.1899 -9.97457C46.2438 -5.84299 45.3537 -1.2929 45.5995 3.26747C45.7392 8.66581 47.3129 13.9297 50.1591 18.5189" fill="#3F2A8A"/>
</g>
</g>
</g>
<g id="Grupo 1526">
<g id="Grupo 1525">
<g id="Grupo 1524">
<path id="Trazado 3464" d="M48.9796 24.3827L41.151 25.3761C40.9931 25.2605 40.8577 25.117 40.7515 24.9526C40.2731 24.3048 39.8187 23.6395 39.3883 22.9568L47.2172 21.9629C47.6479 22.6458 48.1023 23.3111 48.5804 23.9587C48.6868 24.123 48.8222 24.2665 48.9799 24.3822" fill="#858585"/>
<path id="Trazado 3465" d="M47.2188 21.9613L39.3898 22.9552C36.737 18.6725 34.9887 13.8922 34.2526 8.90855C33.0025 1.06227 34.1071 -6.60155 37.0133 -12.4905L44.8422 -13.4843C41.9361 -7.59543 40.8319 0.0686839 42.0821 7.91497C42.8182 12.8985 44.5662 17.6787 47.2188 21.9613Z" fill="#8A8A8A"/>
</g>
</g>
</g>
<g id="Grupo 1529">
<g id="Grupo 1528">
<g id="Grupo 1527">
<path id="Trazado 3468" d="M48.9487 24.4412L41.1198 25.4351C41.7684 23.8048 42.3865 22.2282 42.9985 20.6536C43.0078 20.5879 42.9952 20.5209 42.9625 20.4631L50.7915 19.4693C50.824 19.5271 50.8366 19.594 50.8275 19.6597C50.216 21.2334 49.5969 22.8106 48.9487 24.4412Z" fill="#3F2A8A"/>
</g>
</g>
</g>
<g id="Grupo 1532">
<g id="Grupo 1531">
<g id="Grupo 1530">
<path id="Trazado 3470" d="M48.9487 24.4412L41.1198 25.4351C41.7684 23.8048 42.3865 22.2282 42.9985 20.6536C43.0078 20.5879 42.9952 20.5209 42.9625 20.4631L50.7915 19.4693C50.824 19.5271 50.8366 19.594 50.8275 19.6597C50.216 21.2334 49.5969 22.8106 48.9487 24.4412Z" fill="#3F2A8A"/>
</g>
</g>
</g>
<g id="Grupo 1533">
<path id="Trazado 3472" d="M51.8714 -40.7767C68.917 -46.0247 87.0209 -30.2408 92.3098 -5.51966C97.5986 19.2015 88.0689 43.4939 71.0231 48.7424C53.9772 53.991 35.8728 38.2017 30.5851 13.485C25.2974 -11.2318 34.827 -35.5273 51.8714 -40.7767ZM48.9435 24.4397C49.5917 22.8091 50.2104 21.2328 50.8223 19.6582C50.8316 19.591 50.8181 19.5226 50.7842 19.464C47.5422 14.6724 45.7434 9.051 45.6016 3.26741C45.1868 -6.69498 49.5684 -15.4003 56.203 -17.8594C56.4237 -17.9412 56.6444 -18.016 56.8652 -18.084C59.6433 -18.9308 62.6378 -18.7058 65.2582 -17.4535C65.6083 -18.0734 65.9064 -18.7213 66.1494 -19.3905L67.2792 -22.2645C64.4018 -23.9092 61.0618 -24.5579 57.7779 -24.1097C57.2381 -24.0287 56.701 -23.8986 56.1615 -23.7981L55.2196 -23.5079L55.0451 -23.4238C54.1909 -23.0149 53.3086 -22.6882 52.4828 -22.192C44.3052 -17.3291 40.0243 -4.953 42.0744 7.91451C42.9115 13.7089 45.142 19.2138 48.5743 23.9567C48.6923 24.1214 48.8164 24.279 48.9445 24.4403L48.9435 24.4397ZM80.968 -1.06244L80.828 -1.73262C79.1494 -1.21643 77.4707 -0.699919 75.7918 -0.183114C71.2055 1.2291 66.6197 2.6451 62.0343 4.06493C61.9579 4.09638 61.8889 4.14314 61.8313 4.20226C61.7737 4.26138 61.7288 4.33163 61.6993 4.40874C58.6178 12.242 55.5433 20.0793 52.4756 27.9207C52.4533 27.9775 52.4894 28.1624 52.534 28.1937C57.1646 32.0508 61.9895 33.4096 66.9856 32.136C67.2267 32.0745 67.4644 32.0071 67.7008 31.9346C71.6941 30.7056 75.0106 27.8784 77.5639 23.4607C81.1816 17.194 82.4158 9.77348 81.3518 1.3219C81.2538 0.523613 81.0968 -0.264624 80.9666 -1.06012L80.968 -1.06244ZM71.2107 -15.755C70.4069 -15.1946 69.8303 -14.365 69.5851 -13.4163C69.2685 -12.3049 69.2313 -11.1325 69.4768 -10.0033C69.6112 -9.36025 69.8384 -8.74017 70.1513 -8.16248C70.4324 -7.63479 70.8047 -7.16105 71.251 -6.76317C71.5683 -6.46163 71.9485 -6.23428 72.3643 -6.09759C72.7801 -5.96091 73.221 -5.9183 73.6553 -5.9728C73.7707 -5.99147 73.8848 -6.01811 73.9965 -6.05258C74.7304 -6.30458 75.348 -6.81421 75.7348 -7.48693C76.2857 -8.43773 76.5629 -9.52237 76.5358 -10.6209C76.5362 -11.7823 76.2499 -12.9259 75.7025 -13.9502C75.2569 -14.8421 74.5191 -15.5543 73.6121 -15.9683C73.057 -16.2011 72.4381 -16.2333 71.8619 -16.0592C71.6322 -15.9882 71.4131 -15.8868 71.2104 -15.7577" fill="#754DFE"/>
</g>
<g id="Grupo 1534">
<path id="Trazado 3473" d="M56.1629 -23.7993C56.7024 -23.8998 57.2394 -24.0299 57.7792 -24.1109C61.0368 -24.5582 64.3513 -23.9259 67.2156 -22.3109L66.1504 -19.3912C65.9071 -18.7685 65.6618 -18.1425 65.41 -17.5192C62.4161 -18.7207 59.619 -18.9312 56.8652 -18.0829C56.644 -18.0151 56.4234 -17.9402 56.203 -17.8582C49.568 -15.3994 45.1878 -6.6933 45.6016 3.26854C45.7433 9.05216 47.542 14.6736 50.7842 19.4651C50.8181 19.5238 50.8316 19.5921 50.8223 19.6593C50.2102 21.2338 49.5934 22.8081 48.972 24.3821C48.8143 24.2664 48.6789 24.1229 48.5725 23.9587C45.14 19.2158 42.9096 13.711 42.0726 7.91652C40.0226 -4.95099 44.3035 -17.3272 52.4806 -22.1903C53.3063 -22.6853 54.1886 -23.012 55.0433 -23.4218L55.2179 -23.5059L56.1629 -23.7993Z" fill="#FEFEFE"/>
</g>
<g id="Grupo 1537">
<g id="Grupo 1536">
<g id="Grupo 1535">
<path id="Trazado 3474" d="M67.1836 49.5718L59.3546 50.5657C48.5412 51.9375 37.7186 45.2834 30.3793 33.651L38.2083 32.6572C45.5471 44.2893 56.3698 50.9441 67.1836 49.5718Z" fill="#3D2885"/>
<path id="Trazado 3475" d="M38.2137 32.6571L30.3846 33.6509C26.7376 27.7567 24.1547 21.2674 22.7537 14.4792C19.782 0.587975 21.4891 -13.1682 26.58 -23.4861L34.4086 -24.4795C29.318 -14.162 27.6114 -0.406812 30.5831 13.4856C31.984 20.2739 34.567 26.7632 38.2141 32.6573" fill="#3F2A8A"/>
</g>
</g>
</g>
</g>
</g>
</g>
</svg>
