<svg width="110" height="45" viewBox="0 0 110 45" fill="none" xmlns="http://www.w3.org/2000/svg">
<path d="M64.5088 19.4593L59.2371 31.2556C59.1371 30.4433 59.0551 29.6673 58.9844 28.8965L64.2561 17.1002C64.3277 17.8711 64.4088 18.647 64.5088 19.4593Z" fill="#442D94"/>
<path d="M64.5088 19.4593L59.2371 31.2556C59.1371 30.4433 59.0551 29.6673 58.9844 28.8965L64.2561 17.1002C64.3277 17.8711 64.4088 18.647 64.5088 19.4593Z" fill="#442D94"/>
<path d="M64.3914 17.1019L59.1197 28.8982H58.9688L64.2405 17.1019H64.3914Z" fill="#A1A1A1"/>
<path d="M57.6795 17.0314L52.4069 28.8277L51.9922 28.6629L57.2648 16.8667L57.6795 17.0314Z" fill="#9A7DFF"/>
<path d="M57.2626 16.8664L51.9901 28.6626L51.5391 28.4816L56.8108 16.6853L57.2626 16.8664Z" fill="#9E81FF"/>
<path d="M56.8104 16.685L51.5387 28.4812L51.0938 28.301L56.3655 16.5048L56.8104 16.685Z" fill="#A186FF"/>
<path d="M56.3643 16.5046L51.0926 28.3008L50.6719 28.1284L55.9436 16.3322L56.3643 16.5046Z" fill="#A489FF"/>
<path d="M55.9495 16.3329L50.6778 28.1291L50.2578 27.9567L55.5295 16.1604L55.9495 16.3329Z" fill="#A78DFF"/>
<path d="M55.5224 16.1594L50.2506 27.9556L49.8359 27.7832L55.1077 15.9869L55.5224 16.1594Z" fill="#A991FF"/>
<path d="M55.1084 15.9861L49.8367 27.7823L49.4297 27.6098L54.7023 15.8136L55.1084 15.9861Z" fill="#AC94FF"/>
<path d="M54.7004 15.8139L49.4278 27.6102L49.0234 27.4378L54.296 15.6415L54.7004 15.8139Z" fill="#AE97FF"/>
<path d="M54.3028 15.6413L49.0302 27.4376L48.625 27.2651L53.8976 15.468L54.3028 15.6405" fill="#B19AFF"/>
<path d="M53.8922 15.4677L48.6196 27.2648L48.2109 27.0872L53.4827 15.29L53.8922 15.4677Z" fill="#B39DFF"/>
<path d="M53.4843 15.2896L48.2125 27.0867L47.8047 26.9074L53.0764 15.1111C53.2126 15.1714 53.348 15.231 53.4843 15.2896Z" fill="#B5A0FF"/>
<path d="M53.0797 15.1113L47.8079 26.9076L47.3828 26.7196L52.6545 14.9233L53.0797 15.1113Z" fill="#B7A2FF"/>
<path d="M52.6513 14.9234L47.3796 26.7196L46.9141 26.5118L52.1866 14.7156L52.6513 14.9234Z" fill="#B9A5FF"/>
<path d="M52.1879 14.716L46.9153 26.5122L46.4531 26.3027L51.7249 14.5065L52.1879 14.716Z" fill="#BBA8FF"/>
<path d="M51.7271 14.5058L46.4554 26.302C46.2669 26.2169 46.0786 26.1307 45.8906 26.0434L51.1624 14.2471C51.3503 14.3344 51.5386 14.4207 51.7271 14.5058Z" fill="#BDAAFF"/>
<path d="M51.1601 14.248L45.8884 26.0443C45.6901 25.9529 45.4935 25.8615 45.2969 25.7693L50.5686 13.973L51.1601 14.248Z" fill="#BFADFF"/>
<path d="M50.5723 13.971L45.3006 25.7673C45.0085 25.631 44.7182 25.4939 44.4297 25.356L49.7014 13.5597C49.9888 13.6977 50.2791 13.8347 50.5723 13.971Z" fill="#C1AFFF"/>
<path d="M49.6986 13.5618L44.4269 25.358C43.5072 24.9177 42.5993 24.4688 41.7031 24.0112L46.9749 12.215C47.8687 12.6748 48.7766 13.1238 49.6986 13.5618Z" fill="#C3B1FF"/>
<path d="M46.981 12.215L41.7092 24.0112C41.4534 23.8802 41.1988 23.7486 40.9453 23.6164L46.2179 11.8201C46.4705 11.952 46.7257 12.0839 46.981 12.215Z" fill="#C1AFFF"/>
<path d="M46.2097 11.8148L40.9371 23.611C40.7411 23.5082 40.5459 23.4052 40.3516 23.3023L45.6233 11.5061C45.8182 11.6096 46.0131 11.7122 46.2097 11.8148Z" fill="#BFADFF"/>
<path d="M45.6295 11.5109L40.3578 23.3071L39.875 23.0485L45.1467 11.2522C45.3071 11.3384 45.468 11.4247 45.6295 11.5109Z" fill="#BDAAFF"/>
<path d="M45.1384 11.2535L39.8667 23.0498L39.4141 22.8058L44.6866 11.0095L45.1384 11.2535Z" fill="#BBA8FF"/>
<path d="M44.6987 11.0095L39.4261 22.8058L39.0234 22.5859L44.2961 10.7897L44.6987 11.0095Z" fill="#B9A5FF"/>
<path d="M44.2873 10.7906L39.0173 22.5868L38.6172 22.3652L43.8889 10.569L44.2898 10.7906" fill="#B7A2FF"/>
<path d="M43.8889 10.5688L38.6172 22.365C38.4913 22.296 38.3663 22.2265 38.2422 22.1564L43.5139 10.3601L43.8889 10.5688Z" fill="#B5A0FF"/>
<path d="M43.5106 10.3595L38.2389 22.1558C38.1176 22.0874 37.9963 22.0189 37.875 21.9505L43.1476 10.1543L43.5106 10.3595Z" fill="#B39DFF"/>
<path d="M43.1495 10.1553L37.877 21.9516L37.5156 21.7464L42.7882 9.95007C42.908 10.0191 43.0288 10.0872 43.1495 10.1553Z" fill="#B19AFF"/>
<path d="M42.7917 9.94988L37.5192 21.7462L37.1562 21.5375L42.4279 9.74121L42.7917 9.94988Z" fill="#AE97FF"/>
<path d="M42.4237 9.74099L37.1521 21.5373L36.7891 21.3269L42.0616 9.53064L42.4237 9.74099Z" fill="#AC94FF"/>
<path d="M42.0628 9.53058L36.7902 21.3268L36.4297 21.1156L41.7014 9.31934L42.0628 9.53058Z" fill="#A991FF"/>
<path d="M41.7006 9.31893L36.4315 21.1152C36.3056 21.041 36.18 20.9666 36.0547 20.8919L41.3264 9.09558C41.4517 9.17031 41.5773 9.24478 41.7032 9.31893" fill="#A78DFF"/>
<path d="M41.3213 9.09531L36.0496 20.8916L35.6719 20.6665L40.9436 8.86938L41.3213 9.09531Z" fill="#A489FF"/>
<path d="M40.9428 8.86959L35.671 20.6667L35.2891 20.4356L40.5608 8.6394L40.9428 8.86959Z" fill="#A186FF"/>
<path d="M40.5684 8.64001L35.2966 20.4362L34.875 20.1776L40.1467 8.38135L40.5684 8.64001Z" fill="#9E81FF"/>
<path d="M40.1397 8.38221L34.8713 20.1793L34.4531 19.9207L39.7249 8.12439L40.143 8.38305" fill="#9A7DFF"/>
<path d="M39.7199 8.12371L34.4439 19.9208C34.2881 19.8237 34.1323 19.726 33.9766 19.6277L39.2483 7.83142C39.4035 7.92972 39.5593 8.02741 39.7156 8.12455" fill="#9678FF"/>
<path d="M39.2554 7.82889L33.9836 19.6252C33.8215 19.5234 33.6604 19.4211 33.5 19.3182L38.7726 7.52197L39.2554 7.82889Z" fill="#9272FF"/>
<path d="M38.7707 7.52306L33.4963 19.3167C33.3141 19.2018 33.133 19.0851 32.9531 18.9666L38.2257 7.17041C38.4056 7.28538 38.5867 7.40202 38.7689 7.52043" fill="#8C6BFF"/>
<path d="M38.2262 7.17365L32.9536 18.9699C32.763 18.8449 32.5725 18.7207 32.3828 18.5948L37.6544 6.79858C37.8441 6.92447 38.0348 7.04863 38.2262 7.17365Z" fill="#8662FF"/>
<path d="M37.649 6.79817L32.3774 18.5944C32.1474 18.4438 31.9201 18.292 31.6953 18.1391L36.967 6.3429C37.1929 6.4958 37.4202 6.64757 37.649 6.79817Z" fill="#754DFF"/>
<path d="M36.9793 6.343L31.7076 18.1392C31.4518 17.9668 31.1977 17.7944 30.9453 17.6219L36.217 5.82568C36.4694 5.99813 36.7235 6.17056 36.9793 6.343Z" fill="#734BFA"/>
<path d="M36.2183 5.82109L30.9465 17.6174L30.4335 17.2604L30.1016 17.0258L35.3741 5.22961L35.7053 5.46412L36.2183 5.82109Z" fill="#704AF5"/>
<path d="M35.3688 5.23115L30.0962 17.0274C29.9025 16.8894 29.7111 16.7523 29.5219 16.6161L29.1719 16.3574L34.4444 4.56116L34.7937 4.81982L35.3688 5.23115Z" fill="#6E48F0"/>
<path d="M34.4535 4.56383L29.181 16.3601C28.8528 16.1198 28.532 15.8804 28.2188 15.6418L33.4905 3.84558C33.8032 4.08356 34.1242 4.32298 34.4535 4.56383Z" fill="#6C47EB"/>
<path d="M33.4814 3.84612L28.2097 15.6424C27.8786 15.39 27.556 15.1394 27.2422 14.8905L32.5139 3.09424C32.8278 3.34256 33.1503 3.59319 33.4814 3.84612Z" fill="#6945E6"/>
<path d="M32.5102 3.09415L27.2385 14.8904C26.9201 14.6375 26.6114 14.3869 26.3125 14.1386L31.5842 2.34143C31.8837 2.5909 32.1924 2.8418 32.5102 3.09415Z" fill="#6744E0"/>
<path d="M31.5889 2.34092L26.3172 14.1381C26.0223 13.8932 25.7369 13.65 25.4609 13.4086L30.7327 1.6123C31.0097 1.85373 31.2952 2.09662 31.5889 2.34092Z" fill="#6542DB"/>
<path d="M30.7273 1.61211L25.4556 13.4084C25.1866 13.1739 24.928 12.9411 24.6797 12.71L29.9513 0.913696C30.2025 1.14363 30.4612 1.37643 30.7273 1.61211Z" fill="#6241D6"/>
<path d="M29.9493 0.913603L24.6775 12.7099C24.4327 12.4851 24.1964 12.2621 23.9688 12.0408L29.2405 0.244507C29.4704 0.465239 29.7067 0.688272 29.9493 0.913603Z" fill="#603FD1"/>
<path d="M29.2465 0.243968L23.9748 12.0403C23.7512 11.823 23.5356 11.6074 23.3281 11.3936L28.5999 -0.40271C28.8074 -0.188875 29.0229 0.0266839 29.2465 0.243968Z" fill="#5E3ECC"/>
<path d="M28.5985 -0.402444L23.3267 11.3938C23.1215 11.1829 22.9241 10.973 22.7344 10.7644L28.0061 -1.03186C28.1958 -0.823199 28.3933 -0.613405 28.5985 -0.402444Z" fill="#5B3CC7"/>
<path d="M28.0033 -1.03144L22.7316 10.7648C22.543 10.5579 22.3617 10.3521 22.1875 10.1474L27.4592 -1.6488C27.6317 -1.44474 27.813 -1.23895 28.0033 -1.03144Z" fill="#593BC2"/>
<path d="M27.4601 -1.6476L22.1884 10.1487C22.016 9.94348 21.849 9.73966 21.6875 9.53732L26.9592 -2.25891C27.119 -2.05715 27.286 -1.85339 27.4601 -1.6476Z" fill="#5739BD"/>
<path d="M26.9595 -2.26011L21.6878 9.53613C21.5257 9.33034 21.372 9.12631 21.2266 8.92397L26.4983 -2.87231C26.6437 -2.67055 26.7974 -2.46647 26.9595 -2.26011Z" fill="#5437B8"/>
<path d="M26.4989 -2.87311L21.2272 8.92317C21.0777 8.71509 20.9369 8.5093 20.8047 8.30581L26.0763 -3.49048C26.2091 -3.28699 26.35 -3.0812 26.4989 -2.87311Z" fill="#5236B3"/>
<path d="M26.0789 -3.49006L20.8073 8.30622C20.6694 8.09411 20.5409 7.88373 20.4219 7.67507L25.6936 -4.12122C25.8126 -3.91255 25.941 -3.70217 26.0789 -3.49006Z" fill="#5034AD"/>
<path d="M25.6948 -4.11968L20.423 7.67661C20.298 7.4576 20.1825 7.24116 20.0781 7.02646L25.3499 -4.76978C25.455 -4.55537 25.57 -4.33869 25.6948 -4.11968Z" fill="#4D33A8"/>
<path d="M25.3442 -4.77018L20.0725 7.02605C20.057 6.99501 20.0423 6.96399 20.0277 6.93295C19.9268 6.72084 19.8371 6.51477 19.7578 6.31301L25.0295 -5.48328C25.1089 -5.28151 25.202 -5.07544 25.2994 -4.86333C25.3141 -4.83229 25.3287 -4.80122 25.3442 -4.77018Z" fill="#4B31A3"/>
<path d="M25.0305 -5.48485L19.7588 6.31144C19.6622 6.06714 19.5812 5.83028 19.5156 5.60092L24.7882 -6.19531C24.8537 -5.96538 24.9345 -5.72858 25.0305 -5.48485Z" fill="#49309E"/>
<path d="M24.7872 -6.19454L19.5146 5.6017C19.4491 5.37334 19.3972 5.1413 19.3594 4.90676L24.6311 -6.88953C24.6688 -6.65488 24.7209 -6.42276 24.7872 -6.19454Z" fill="#462E99"/>
<path d="M24.6334 -6.88957L19.3616 4.90672C19.3248 4.67862 19.3057 4.44795 19.3047 4.21689L24.5774 -7.57935C24.5776 -7.34829 24.5963 -7.11763 24.6334 -6.88957Z" fill="#442D94"/>
<path d="M24.5774 -7.58574L19.3047 4.21055C19.3038 3.96628 19.3289 3.72259 19.3798 3.48367L24.6515 -8.31262C24.6014 -8.0736 24.5766 -7.82996 24.5774 -7.58574Z" fill="#422B8F"/>
<path d="M24.6467 -8.3094L19.375 3.48684C19.418 3.28521 19.4822 3.08869 19.5665 2.90052L24.8382 -8.89661C24.7548 -8.7078 24.6907 -8.51105 24.6467 -8.3094Z" fill="#3F2A8A"/>
<path d="M57.8833 17.0382L52.6116 28.8344C52.2161 24.9791 51.8091 21.1203 51.3906 17.258L56.6632 5.46179C57.0834 9.32461 57.4901 13.1834 57.8833 17.0382Z" fill="#949494"/>
<path d="M88.8816 19.7762L83.61 31.5725C83.0125 32.9089 81.4543 33.8229 78.9297 34.204L84.2014 22.4078C86.7235 22.0267 88.2841 21.1144 88.8816 19.7762Z" fill="#3D2885"/>
<path d="M84.2016 22.4075L78.9299 34.2037C78.424 34.2807 77.8797 34.3353 77.2969 34.3675L82.5686 22.5713C83.1515 22.5385 83.6958 22.4839 84.2016 22.4075Z" fill="#3F2A8A"/>
<path d="M82.5594 22.5715L77.2877 34.3678C77.1557 34.3755 77.0213 34.3816 76.8859 34.3868C76.5281 34.3997 76.1633 34.4057 75.7891 34.404L81.0616 22.6077C81.4347 22.6077 81.8001 22.602 82.1576 22.5905C82.2939 22.5853 82.4275 22.5784 82.5594 22.5715Z" fill="#422B8F"/>
<path d="M81.0709 22.6077L75.7983 34.404C75.3637 34.404 74.9179 34.3919 74.4609 34.3678L79.7327 22.5715C80.1925 22.594 80.6386 22.606 81.0709 22.6077Z" fill="#442D94"/>
<path d="M79.726 22.571L74.4543 34.3672C74.0485 34.3477 73.634 34.319 73.2109 34.281L78.4827 22.4847C78.9063 22.5204 79.3208 22.5492 79.726 22.571Z" fill="#462E99"/>
<path d="M78.4859 22.488L73.2142 34.2843C72.8273 34.2515 72.4331 34.2121 72.0312 34.1662L77.303 22.3699C77.7054 22.4159 78.0996 22.4553 78.4859 22.488Z" fill="#49309E"/>
<path d="M77.3082 22.3706L72.0365 34.1668C71.6583 34.1237 71.2737 34.0746 70.8828 34.0194L76.1545 22.2231C76.5454 22.2806 76.93 22.3297 77.3082 22.3706Z" fill="#4B31A3"/>
<path d="M76.1512 22.223L70.8795 34.0192C70.5064 33.9669 70.1273 33.9094 69.7422 33.8468L75.0139 22.0505C75.3996 22.1143 75.7787 22.1718 76.1512 22.223Z" fill="#4D33A8"/>
<path d="M75.0132 22.0493L69.7415 33.8456C69.3672 33.7841 68.9873 33.7177 68.6016 33.6464L73.8741 21.8501C74.2587 21.922 74.6384 21.9884 75.0132 22.0493Z" fill="#5034AD"/>
<path d="M73.8681 21.849L68.5955 33.6453C68.2173 33.5746 67.8339 33.4993 67.4453 33.4194L72.717 21.6232C73.1056 21.7036 73.4893 21.7789 73.8681 21.849Z" fill="#5236B3"/>
<path d="M72.7213 21.6231L67.4496 33.4193C67.065 33.34 66.6756 33.2561 66.2812 33.1676L71.553 21.3713C71.9479 21.4599 72.3373 21.5438 72.7213 21.6231Z" fill="#5437B8"/>
<path d="M71.5553 21.3711L66.2836 33.1673C65.8893 33.0794 65.49 32.9863 65.0859 32.888L70.3577 21.0917C70.76 21.19 71.1593 21.2831 71.5553 21.3711Z" fill="#5739BD"/>
<path d="M70.358 21.0929L65.0863 32.8892C64.6839 32.7915 64.275 32.6892 63.8594 32.5822L69.1319 20.786C69.5458 20.8929 69.9545 20.9952 70.358 21.0929Z" fill="#593BC2"/>
<path d="M69.1279 20.7843L63.8554 32.5806C63.4449 32.4748 63.0296 32.3639 62.6094 32.2478L67.8819 20.4515C68.3021 20.5665 68.7175 20.6774 69.1279 20.7843Z" fill="#5B3CC7"/>
<path d="M67.8805 20.4533L62.6079 32.2522C62.1969 32.1372 61.7807 32.0199 61.3594 31.9004L66.6311 20.1041C67.0519 20.2254 67.4683 20.3426 67.8805 20.4559" fill="#5E3ECC"/>
<path d="M66.6385 20.1014L61.3667 31.8977C60.9643 31.7827 60.5556 31.6617 60.1406 31.5347L65.4124 19.7384C65.8257 19.8637 66.2343 19.9847 66.6385 20.1014Z" fill="#603FD1"/>
<path d="M65.4071 19.738L60.1353 31.5343L59.9854 31.4886C59.7405 31.4135 59.4896 31.3334 59.2344 31.2541L64.5061 19.4578C64.7648 19.5371 65.0122 19.6173 65.2571 19.6923L65.4071 19.738Z" fill="#6241D6"/>
<path d="M82.4803 16.9301L77.2087 28.7272C76.8017 29.6377 75.8291 30.3051 74.2771 30.6621C73.9937 30.7264 73.6982 30.7816 73.3906 30.8276L78.6624 19.0313C78.9699 18.9853 79.2654 18.9302 79.5488 18.8658C81.106 18.5088 82.0759 17.8414 82.4803 16.9301Z" fill="#858585"/>
<path d="M78.6636 19.0316L73.3918 30.8279C72.959 30.8928 72.5028 30.9382 72.0234 30.9641L77.296 19.1678C77.7748 19.1414 78.2307 19.096 78.6636 19.0316Z" fill="#8A8A8A"/>
<path d="M77.292 19.1671L72.0194 30.9634C71.6601 30.9835 71.2864 30.9924 70.8984 30.9901L76.1702 19.1938C76.5559 19.1938 76.9296 19.1849 77.2911 19.1671" fill="#8F8F8F"/>
<path d="M76.1763 19.194L70.9045 30.9902C70.5763 30.9902 70.2384 30.9813 69.8906 30.9635L75.1632 19.1664C75.5081 19.1836 75.8457 19.1928 76.1763 19.194Z" fill="#949494"/>
<path d="M75.1655 19.1663L69.8928 30.9635C69.5824 30.9479 69.2634 30.9264 68.9375 30.8988L74.2101 19.1025C74.536 19.1301 74.8545 19.1514 75.1655 19.1663Z" fill="#999999"/>
<path d="M74.2073 19.1034L68.9348 30.8996C68.6318 30.8749 68.3228 30.8441 68.0078 30.8073L73.2804 19.0111C73.5954 19.0473 73.9044 19.0781 74.2073 19.1034Z" fill="#9E9E9E"/>
<path d="M73.2777 19.0109L68.0051 30.8072C67.7077 30.7735 67.4016 30.7347 67.0938 30.6908L72.3663 18.8945C72.6759 18.9376 72.9794 18.9808 73.2777 19.0109Z" fill="#A3A3A3"/>
<path d="M72.3697 18.8937L67.0971 30.6899C66.7996 30.6477 66.4936 30.6037 66.1875 30.5511L71.4592 18.7549C71.7679 18.8049 72.0713 18.8512 72.3697 18.8937Z" fill="#A8A8A8"/>
<path d="M71.4591 18.7546L66.1873 30.5509C65.8855 30.5008 65.5778 30.4474 65.2656 30.3888L70.5372 18.5925C70.8494 18.65 71.1567 18.704 71.4591 18.7546Z" fill="#ADADAD"/>
<path d="M70.5344 18.5937L65.2628 30.39C64.9529 30.3325 64.6388 30.271 64.3203 30.2055L69.5929 18.4092C69.911 18.4747 70.2257 18.536 70.5344 18.5937Z" fill="#B3B3B3"/>
<path d="M69.5933 18.4087L64.3207 30.205C64.0023 30.1394 63.6792 30.0699 63.3516 29.9963L68.6233 18.2001C68.9518 18.2734 69.2743 18.3432 69.5933 18.4087Z" fill="#B8B8B8"/>
<path d="M68.6278 18.1988L63.3561 29.995C63.0256 29.9209 62.6907 29.8427 62.3516 29.7605L67.6233 17.9642C67.963 18.0464 68.2979 18.1246 68.6278 18.1988Z" fill="#BDBDBD"/>
<path d="M67.6162 17.9659L62.3445 29.7622C62.003 29.6795 61.6565 29.5932 61.3047 29.5035L66.5764 17.7073C66.9282 17.7975 67.2748 17.8837 67.6162 17.9659Z" fill="#C2C2C2"/>
<path d="M66.5762 17.7054L61.3045 29.5017C60.9527 29.4103 60.5959 29.3152 60.2344 29.2163L65.507 17.42C65.868 17.5189 66.2244 17.614 66.5762 17.7054Z" fill="#C7C7C7"/>
<path d="M65.5057 17.4222L60.2331 29.2185C59.8761 29.1202 59.5146 29.0181 59.1484 28.9123L64.4202 17.1161C64.7863 17.2219 65.1482 17.3239 65.5057 17.4222Z" fill="#CCCCCC"/>
<path d="M64.4251 17.1139L59.1534 28.9101L59.1172 28.8998L64.3898 17.1035L64.4251 17.1139Z" fill="#D1D1D1"/>
<path d="M56.6554 5.46326L51.3828 17.2595V17.2466L56.6554 5.45032V5.46326Z" fill="#999999"/>
<path d="M56.6536 5.45026L51.381 17.2465L51.375 17.2267L56.6467 5.43042L56.6536 5.45026Z" fill="#9E9E9E"/>
<path d="M56.6475 5.43048L51.3758 17.2268L51.3672 17.2078L56.6389 5.41064L56.6475 5.43048Z" fill="#A3A3A3"/>
<path d="M56.6336 5.41067L51.3619 17.2078L51.3516 17.188L56.6233 5.39172L56.6336 5.41067Z" fill="#A8A8A8"/>
<path d="M56.6276 5.39095L51.3559 17.1872L51.3438 17.1682L56.6155 5.37195L56.6276 5.39095Z" fill="#ADADAD"/>
<path d="M56.6128 5.37196L51.3411 17.1682L51.3281 17.1484L56.5999 5.35217L56.6128 5.37196Z" fill="#B3B3B3"/>
<path d="M56.6067 5.35134L51.3349 17.1476L51.3203 17.1286L56.592 5.3324L56.6067 5.35134Z" fill="#B8B8B8"/>
<path d="M56.585 5.33295L51.3133 17.1292L51.2969 17.1094L56.5686 5.31311L56.585 5.33295Z" fill="#BDBDBD"/>
<path d="M56.5711 5.31366L51.2994 17.11L51.2812 17.0901L56.5538 5.29382L56.5711 5.31366Z" fill="#C2C2C2"/>
<path d="M56.5571 5.29339L51.2846 17.0897L51.2656 17.069L56.5374 5.27271L56.5571 5.29339Z" fill="#C7C7C7"/>
<path d="M56.5355 5.27397L51.2638 17.0703L51.2422 17.0487L56.5148 5.25244L56.5355 5.27397Z" fill="#CCCCCC"/>
<path d="M56.5146 5.25144L51.242 17.0477L51.2188 17.0261L56.4913 5.22986L56.5146 5.25144Z" fill="#D1D1D1"/>
<path d="M56.4929 5.22968L51.2204 17.026L51.1953 17.0027L56.467 5.20642L56.4929 5.22968Z" fill="#D6D6D6"/>
<path d="M56.4634 5.20752L51.1916 17.0038L51.1641 16.9805L56.4358 5.1842L56.4634 5.20752Z" fill="#DBDBDB"/>
<path d="M56.4346 5.17913L51.1629 16.9754L51.1328 16.9513L56.4054 5.15503L56.4346 5.17913Z" fill="#E0E0E0"/>
<path d="M56.4043 5.15893L51.1318 16.9552L51.1016 16.9319L56.3741 5.13562L56.4043 5.15893Z" fill="#E6E6E6"/>
<path d="M56.3766 5.13586L51.104 16.9321L51.0859 16.9184L56.3585 5.12207L56.3766 5.13586Z" fill="#EBEBEB"/>
<path d="M82.4982 16.9293L77.2266 28.7264C77.2956 28.5704 77.3487 28.4077 77.3852 28.241L82.6569 16.4447C82.621 16.6113 82.5678 16.7737 82.4982 16.9293Z" fill="#3F2A8A"/>
<path d="M82.6467 16.4449L77.375 28.2412C77.4172 28.0454 77.4383 27.8456 77.4379 27.6454L82.7105 15.8491C82.7106 16.0494 82.6893 16.2492 82.6467 16.4449Z" fill="#422B8F"/>
<path d="M82.715 15.8475L77.4424 27.6437C77.4428 27.4586 77.4281 27.2738 77.3984 27.091L82.671 15.2948C82.6998 15.4776 82.7145 15.6624 82.715 15.8475Z" fill="#442D94"/>
<path d="M82.6789 15.295L77.4063 27.0912C77.3778 26.912 77.3386 26.7347 77.2891 26.5601L82.5608 14.7638C82.6106 14.9384 82.65 15.1157 82.6789 15.295Z" fill="#462E99"/>
<path d="M82.5535 14.7648L77.2818 26.561C77.2335 26.392 77.1761 26.2196 77.1094 26.0437L82.3819 14.2474C82.4509 14.4245 82.5084 14.5969 82.5543 14.7648" fill="#49309E"/>
<path d="M56.3837 5.1205L51.1111 16.9168C45.4537 12.8177 39.7916 8.71777 34.125 4.61697L39.3967 -7.17932C45.061 -3.0791 50.7231 1.02085 56.3829 5.1205" fill="#F0F0F0"/>
<path d="M32.6507 -11.6912L27.379 0.105125C26.8927 0.118059 26.3883 0.120644 25.9219 0.145648L31.1944 -11.6506C31.6609 -11.6765 32.1653 -11.6782 32.6507 -11.6912Z" fill="#8F8F8F"/>
<path d="M31.185 -11.6508L25.9125 0.145531L25.6607 0.161898C25.2118 0.199836 24.7858 0.248414 24.3828 0.307621L29.6554 -11.4887C30.0578 -11.5461 30.4835 -11.5947 30.9324 -11.6343L31.185 -11.6508Z" fill="#8A8A8A"/>
<path d="M29.6628 -11.4886L24.3902 0.30764C21.7854 0.694784 20.1713 1.55702 19.5703 2.90125L24.842 -8.89588C25.4456 -10.2392 27.0571 -11.1015 29.6628 -11.4886Z" fill="#858585"/>
<path d="M33.171 -11.6817L27.8993 0.1146L27.375 0.105127L32.6467 -11.6912L33.171 -11.6817Z" fill="#A0A0A0"/>
<path d="M39.3764 -7.17758L34.1047 4.61871L27.8828 0.116966L33.1545 -11.6793L39.3764 -7.17758Z" fill="#F0F0F0"/>
<path d="M82.5457 14.7644L77.274 26.5607C77.2257 26.3917 77.1682 26.2192 77.1016 26.0433L82.3741 14.2471C82.4431 14.4241 82.5006 14.5965 82.5465 14.7644" fill="#49309E"/>
<path d="M82.3657 14.2467L77.0932 26.0429C77.0276 25.8757 76.9517 25.705 76.8672 25.5308L82.1389 13.7345C82.2251 13.9069 82.2993 14.0794 82.3657 14.2467Z" fill="#4B31A3"/>
<path d="M82.1397 13.7345L76.868 25.5308C76.7878 25.3661 76.6955 25.198 76.6016 25.0281L81.8733 13.2318C81.9707 13.4043 82.0595 13.5698 82.1397 13.7345Z" fill="#4D33A8"/>
<path d="M81.8755 13.2316L76.6038 25.0279C76.5089 24.8632 76.4072 24.695 76.2969 24.526L81.5686 12.7289C81.679 12.9013 81.7815 13.0669 81.8755 13.2316Z" fill="#5034AD"/>
<path d="M81.562 12.7287L76.2902 24.5258C76.1827 24.3597 76.0678 24.191 75.9453 24.0197L81.2179 12.2234C81.3403 12.3958 81.4553 12.5643 81.5628 12.7287" fill="#5236B3"/>
<path d="M81.2171 12.2237L75.9445 24.02C75.8249 23.8527 75.6976 23.6837 75.5625 23.5129L80.8342 11.7158C80.9687 11.8883 81.0964 12.0575 81.2171 12.2237Z" fill="#5437B8"/>
<path d="M80.84 11.7165L75.5683 23.5136C75.4355 23.3412 75.295 23.1688 75.1484 23.0006L80.4202 11.2043C80.5679 11.3768 80.7078 11.5475 80.84 11.7165Z" fill="#5739BD"/>
<path d="M80.4188 11.2033L75.147 22.9996C75.0005 22.8271 74.8473 22.6532 74.6875 22.4779L79.9591 10.6816C80.1195 10.8541 80.2722 11.0265 80.4188 11.199" fill="#593BC2"/>
<path d="M79.9601 10.6817L74.6885 22.4779C74.5281 22.3055 74.3617 22.1252 74.1875 21.9459L79.4601 10.1497C79.6325 10.3279 79.7992 10.5052 79.9601 10.6817Z" fill="#5B3CC7"/>
<path d="M79.4581 10.1498L74.1855 21.946C74.0131 21.7661 73.8315 21.5845 73.6406 21.4011L78.9124 9.60486C79.1009 9.78765 79.2828 9.96931 79.4581 10.1498Z" fill="#5E3ECC"/>
<path d="M78.9179 9.60549L73.6462 21.4018C73.4554 21.2161 73.2582 21.0299 73.0547 20.843L78.3264 9.04675C78.5305 9.23415 78.7277 9.4204 78.9179 9.60549Z" fill="#603FD1"/>
<path d="M78.323 9.04643L73.0512 20.8427C72.8437 20.6513 72.6287 20.4588 72.4062 20.265L77.678 8.46875C77.9004 8.66304 78.1155 8.85559 78.323 9.04643Z" fill="#6241D6"/>
<path d="M77.6802 8.46819L72.4085 20.2645C72.1843 20.0685 71.9544 19.8716 71.7188 19.6739L76.9905 7.87756C77.229 8.07588 77.4589 8.27275 77.6802 8.46819Z" fill="#6542DB"/>
<path d="M76.9786 7.878L71.7069 19.6743C71.4707 19.4777 71.2272 19.2799 70.9766 19.081L76.2483 7.28479C76.4995 7.48425 76.743 7.68198 76.9786 7.878Z" fill="#6744E0"/>
<path d="M76.2511 7.28516L70.9794 19.0814C70.7397 18.8911 70.494 18.7 70.2422 18.508L75.5139 6.71179C75.7663 6.90321 76.012 7.09432 76.2511 7.28516Z" fill="#6945E6"/>
<path d="M75.5182 6.71114L70.2464 18.5074L69.9783 18.3048C69.8058 18.1754 69.6334 18.0467 69.4609 17.9185L74.7327 6.12219C74.9051 6.2498 75.0818 6.38086 75.25 6.50847C75.3405 6.57573 75.4294 6.64302 75.5182 6.71114Z" fill="#6C47EB"/>
<path d="M74.725 6.12597L69.4534 17.9222L69.1731 17.7179C69.0231 17.6092 68.8717 17.5006 68.7188 17.3919L73.9905 5.5957C74.1434 5.70434 74.2948 5.81298 74.4449 5.92162L74.725 6.12597Z" fill="#6E48F0"/>
<path d="M73.9931 5.59228L68.7213 17.3886C68.5092 17.2385 68.2948 17.0885 68.0781 16.9384L73.3499 5.14221C73.566 5.29224 73.7804 5.44225 73.9931 5.59228Z" fill="#704AF5"/>
<path d="M54.4708 -3.93835L49.1982 7.85788C49.1066 8.00206 48.9805 8.12115 48.8313 8.20427C48.6821 8.28738 48.5145 8.33189 48.3438 8.33384L53.6155 -3.4624C53.7864 -3.46436 53.9541 -3.50891 54.1034 -3.59202C54.2528 -3.67512 54.379 -3.79416 54.4708 -3.93835Z" fill="#3D2885"/>
<path d="M53.6187 -3.4613L48.347 8.33493C48.2556 8.34787 48.1582 8.35823 48.0547 8.3634L53.3264 -3.43283C53.4305 -3.43916 53.5279 -3.44866 53.6187 -3.4613Z" fill="#3F2A8A"/>
<path d="M53.3257 -3.43384L48.0539 8.3624C47.9746 8.36671 47.8918 8.36931 47.8047 8.36845L53.0773 -3.42784C53.1635 -3.42784 53.2498 -3.4278 53.3257 -3.43384Z" fill="#422B8F"/>
<path d="M53.0715 -3.42697L47.7989 8.36932H47.7126L47.5781 8.36416L52.8507 -3.43213L52.9844 -3.42697H53.0706" fill="#442D94"/>
<path d="M52.8483 -3.43234L47.5758 8.3639C47.5033 8.3639 47.4283 8.3553 47.3516 8.34927L52.6233 -3.44702C52.7 -3.44099 52.775 -3.43579 52.8483 -3.43234Z" fill="#462E99"/>
<path d="M52.6314 -3.44852L47.3597 8.34777C47.2881 8.34174 47.2148 8.33482 47.1406 8.32619L52.4124 -3.47009C52.4874 -3.46233 52.5598 -3.45455 52.6314 -3.44852Z" fill="#49309E"/>
<path d="M52.4083 -3.4684L47.1366 8.32789C47.0668 8.31927 46.9952 8.31066 46.9219 8.30031L52.1944 -3.49597C52.2669 -3.48562 52.3385 -3.47702 52.4083 -3.4684Z" fill="#4B31A3"/>
<path d="M52.1878 -3.49669L46.9152 8.2996C46.8454 8.28926 46.7747 8.27889 46.7031 8.26682L51.9749 -3.52942C52.0464 -3.51735 52.1179 -3.50703 52.1878 -3.49669Z" fill="#4D33A8"/>
<path d="M51.9769 -3.52833L46.7052 8.26796C46.6354 8.25675 46.5646 8.24379 46.4922 8.23086L51.7648 -3.56543C51.8363 -3.5525 51.9071 -3.53954 51.9769 -3.52833Z" fill="#5034AD"/>
<path d="M51.7737 -3.56667L46.5011 8.22962L46.2891 8.1882L51.5608 -3.60803L51.7737 -3.56667Z" fill="#5236B3"/>
<path d="M51.5558 -3.60797L46.2841 8.18827L46.0703 8.1417L51.3419 -3.65454L51.5558 -3.60797Z" fill="#5437B8"/>
<path d="M51.3387 -3.65423L46.0671 8.14201C46.0016 8.12735 45.9361 8.11271 45.8697 8.09633L45.8516 8.09201L51.1241 -3.70422L51.1422 -3.69991L51.3387 -3.65423Z" fill="#5739BD"/>
<path d="M51.1305 -3.70191L45.858 8.09437L45.6406 8.04006L50.9124 -3.75623L51.1305 -3.70191Z" fill="#593BC2"/>
<path d="M50.9083 -3.75843L45.6366 8.03786L45.4219 7.98007L50.6936 -3.81616L50.9083 -3.75843Z" fill="#5B3CC7"/>
<path d="M50.6982 -3.81686L45.4265 7.97937C45.3575 7.9604 45.2886 7.94144 45.2188 7.92075L50.4905 -3.87549C50.5603 -3.85479 50.6293 -3.83583 50.6982 -3.81686Z" fill="#5E3ECC"/>
<path d="M50.4857 -3.8735L45.2139 7.92278C45.1475 7.90382 45.082 7.88485 45.0156 7.86416L50.2872 -3.93213C50.3536 -3.91144 50.4201 -3.89247 50.4857 -3.8735Z" fill="#603FD1"/>
<path d="M50.2896 -3.93431L45.0179 7.86193L44.8359 7.80588L50.1077 -3.99036L50.2896 -3.93431Z" fill="#6241D6"/>
<path d="M50.11 -3.98987L44.8383 7.80637L44.6719 7.7529L49.9436 -4.04333L50.11 -3.98987Z" fill="#6542DB"/>
<path d="M49.9452 -4.04704L44.6734 7.7492L44.5234 7.70004L49.7952 -4.09619L49.9452 -4.04704Z" fill="#6744E0"/>
<path d="M49.7907 -4.09226L44.519 7.70397L44.3828 7.65829L49.6554 -4.13794L49.7907 -4.09226Z" fill="#6945E6"/>
<path d="M49.6537 -4.13897L44.3812 7.65726L44.2578 7.61416L49.5304 -4.18213L49.6537 -4.13897Z" fill="#6C47EB"/>
<path d="M49.5331 -4.18156L44.2605 7.61473L44.1484 7.57504L49.421 -4.22119L49.5331 -4.18156Z" fill="#6E48F0"/>
<path d="M49.4229 -4.21901L44.1503 7.57722L44.0469 7.53928L49.3194 -4.25696L49.4229 -4.21901Z" fill="#704AF5"/>
<path d="M49.3136 -4.25919L44.041 7.53704L43.9453 7.50173L49.217 -4.29456L49.3136 -4.25919Z" fill="#734BFA"/>
<path d="M49.2251 -4.29474L43.9534 7.50155L43.8672 7.46792L49.1389 -4.32837L49.2251 -4.29474Z" fill="#754DFF"/>
<path d="M49.1315 -4.32748L43.8597 7.4688L43.7734 7.43686L49.0461 -4.35938L49.1323 -4.32748" fill="#8662FF"/>
<path d="M49.0481 -4.35945L43.7754 7.43678L43.6953 7.40578L48.967 -4.3905L49.0481 -4.35945Z" fill="#8C6BFF"/>
<path d="M48.9656 -4.39135L43.6939 7.40493L43.6611 7.39199L43.6172 7.37557L48.8898 -4.42151L48.9336 -4.4043L48.9656 -4.39135Z" fill="#9272FF"/>
<path d="M48.8928 -4.42136L43.6202 7.37572L43.5469 7.34641L48.8194 -4.44983L48.8928 -4.42136Z" fill="#9678FF"/>
<path d="M48.8137 -4.44992L43.5412 7.34631L43.4688 7.31789L48.7405 -4.47839L48.8137 -4.44992Z" fill="#9A7DFF"/>
<path d="M48.7391 -4.47666L43.4674 7.31958L43.3984 7.29111L48.6702 -4.50513L48.7391 -4.47666Z" fill="#9E81FF"/>
<path d="M48.6766 -4.50582L43.405 7.29042L43.3359 7.26284L48.6085 -4.53345L48.6766 -4.50582Z" fill="#A186FF"/>
<path d="M48.608 -4.53444L43.3337 7.26185L43.2656 7.23422L48.5374 -4.56201L48.6063 -4.53444" fill="#A489FF"/>
<path d="M48.5325 -4.56434L43.2608 7.23194L43.1953 7.20432L48.467 -4.59192L48.5325 -4.56434Z" fill="#A78DFF"/>
<path d="M48.4631 -4.58956L43.1914 7.20668L43.125 7.1791L48.3976 -4.61719L48.4631 -4.58956Z" fill="#A991FF"/>
<path d="M48.4085 -4.61683L43.1359 7.17945L43.0703 7.15188L48.342 -4.64441L48.4085 -4.61683Z" fill="#AC94FF"/>
<path d="M48.3312 -4.6445L43.0594 7.15179L42.9922 7.12331L48.2639 -4.67297L48.3312 -4.6445Z" fill="#AE97FF"/>
<path d="M48.2687 -4.67288L42.9969 7.12341L42.9297 7.09494L48.2014 -4.70129L48.2687 -4.67288Z" fill="#B19AFF"/>
<path d="M48.1984 -4.70225L42.9266 7.09398L42.8594 7.06467L48.1319 -4.73157L48.1984 -4.70225Z" fill="#B39DFF"/>
<path d="M48.1357 -4.73064L42.8632 7.06559L42.7891 7.03286L48.0616 -4.76343L48.1357 -4.73064Z" fill="#B5A0FF"/>
<path d="M48.0577 -4.76316L42.7851 7.03312L42.7109 7.00034L47.9827 -4.7959L48.0577 -4.76316Z" fill="#B7A2FF"/>
<path d="M47.9831 -4.79618L42.7113 7.00006L42.6328 6.96469L47.9055 -4.83154L47.9831 -4.79618Z" fill="#B9A5FF"/>
<path d="M47.9135 -4.83238L42.6409 6.96386L42.5547 6.92507L47.8264 -4.87122L47.9126 -4.83238" fill="#BBA8FF"/>
<path d="M47.819 -4.87053L42.5472 6.92576L42.4609 6.88608L47.7336 -4.91016L47.8198 -4.87053" fill="#BDAAFF"/>
<path d="M47.7414 -4.90791L42.4723 6.88659L42.3516 6.83054L47.6233 -4.9657L47.7449 -4.90965" fill="#BFADFF"/>
<path d="M47.6179 -4.96554L42.3461 6.8307L42.1953 6.75918L47.4679 -5.03711L47.6179 -4.96554Z" fill="#C1AFFF"/>
<path d="M47.4637 -5.03804L42.1911 6.75824C42.0187 6.67719 41.853 6.59356 41.6875 6.50906L46.9592 -5.28723C47.1256 -5.20101 47.2938 -5.11478 47.4637 -5.03804Z" fill="#C3B1FF"/>
<path d="M46.9592 -5.28643L41.6875 6.50986L41.5469 6.43739L46.8186 -5.35974L46.9592 -5.28643Z" fill="#C1AFFF"/>
<path d="M46.8195 -5.36036L41.5478 6.43677L41.4375 6.37814L46.7092 -5.41809L46.8195 -5.36036Z" fill="#BFADFF"/>
<path d="M46.7121 -5.41749L41.4404 6.37874L41.3438 6.3279L46.6163 -5.46838L46.7121 -5.41749Z" fill="#BDAAFF"/>
<path d="M46.6123 -5.4692L41.3397 6.32709L41.2578 6.28225L46.5295 -5.51404L46.6157 -5.4692" fill="#BBA8FF"/>
<path d="M46.529 -5.51267L41.2573 6.28356L41.1797 6.2413L46.4514 -5.55493L46.529 -5.51267Z" fill="#B9A5FF"/>
<path d="M46.4561 -5.55556L41.1844 6.24073L41.1094 6.19931L46.3819 -5.59692L46.4561 -5.55556Z" fill="#B7A2FF"/>
<path d="M46.3806 -5.5983L41.108 6.19799L41.0391 6.16005L46.3108 -5.63708L46.3806 -5.5983Z" fill="#B5A0FF"/>
<path d="M46.3017 -5.63621L41.03 6.16087L40.9609 6.12208L46.2327 -5.67505L46.3017 -5.63621Z" fill="#B39DFF"/>
<path d="M46.2374 -5.67507L40.9657 6.12206L40.8984 6.08328L46.1702 -5.71301L46.2374 -5.67507Z" fill="#B19AFF"/>
<path d="M46.1671 -5.71268L40.8954 6.08361L40.8281 6.04482L46.1007 -5.75146L46.1671 -5.71268Z" fill="#AE97FF"/>
<path d="M46.1123 -5.75112L40.8397 6.04517L40.7734 6.00722L46.0451 -5.78906L46.1123 -5.75112Z" fill="#AC94FF"/>
<path d="M46.043 -5.78956L40.7713 6.00673L40.7031 5.96621L45.9749 -5.83008L46.043 -5.78956Z" fill="#A991FF"/>
<path d="M45.9726 -5.82995L40.7009 5.96634L40.6328 5.92666L45.9054 -5.86963L45.9726 -5.82995Z" fill="#A78DFF"/>
<path d="M45.9049 -5.87002L40.6323 5.92626L40.5625 5.884L45.8342 -5.91223L45.9049 -5.87002Z" fill="#A489FF"/>
<path d="M45.8277 -5.91253L40.5559 5.8837L40.4844 5.8406L45.7561 -5.95569L45.8277 -5.91253Z" fill="#A186FF"/>
<path d="M45.767 -5.95504L40.4952 5.84125L40.4219 5.79641L45.6945 -5.99988L45.767 -5.95504Z" fill="#9E81FF"/>
<path d="M45.6948 -5.99947L40.4222 5.79682L40.3438 5.74851L45.6155 -6.04773L45.6948 -5.99947Z" fill="#9A7DFF"/>
<path d="M45.6081 -6.04862L40.3363 5.74761L40.2578 5.69851L45.5295 -6.09778L45.6081 -6.04862Z" fill="#9678FF"/>
<path d="M45.5298 -6.09737L40.2581 5.69892L40.1719 5.64114L45.4444 -6.15515L45.5308 -6.09737" fill="#9272FF"/>
<path d="M45.4421 -6.15561L40.1695 5.64068L40.0781 5.58205L45.3507 -6.21423L45.4421 -6.15561Z" fill="#8C6BFF"/>
<path d="M45.3518 -6.21375L40.0792 5.58254L39.9766 5.51528L45.2483 -6.28101L45.3518 -6.21375Z" fill="#8662FF"/>
<path d="M45.2517 -6.28073L39.98 5.51556L39.9378 5.48709L39.8516 5.42673L45.1241 -6.36951L45.2103 -6.30914L45.2525 -6.28073" fill="#754DFF"/>
<path d="M45.119 -6.37033L39.8464 5.42591C39.8059 5.39918 39.7662 5.37161 39.7266 5.34402L44.9991 -6.45227C45.0379 -6.42468 45.0785 -6.39792 45.119 -6.36602" fill="#734BFA"/>
<path d="M45.0017 -6.45192L39.7291 5.34437C39.6834 5.31333 39.6429 5.28144 39.5938 5.24954L44.8655 -6.54675L45.0017 -6.45192Z" fill="#704AF5"/>
<path d="M44.8636 -6.54658L39.5919 5.2497C39.5591 5.22729 39.5272 5.20399 39.4961 5.18071L39.4375 5.13845L44.7092 -6.65784L44.7679 -6.61558L44.8636 -6.54658Z" fill="#6E48F0"/>
<path d="M44.7089 -6.6586L39.4372 5.13769C39.3812 5.09717 39.3269 5.05665 39.2734 5.01612L44.546 -6.78101C44.5995 -6.74048 44.6538 -6.69912 44.7089 -6.6586Z" fill="#6C47EB"/>
<path d="M44.5388 -6.77936L39.2663 5.01777L39.0938 4.88583L44.3655 -6.9104L44.538 -6.77936" fill="#6945E6"/>
<path d="M44.3687 -6.91134L39.0969 4.88489C39.04 4.83919 38.984 4.79868 38.9297 4.74953L44.2023 -7.04675C44.2557 -7.00192 44.3118 -6.96049 44.3687 -6.91134Z" fill="#6744E0"/>
<path d="M44.2038 -7.04677L38.9304 4.74862C38.8769 4.70292 38.8243 4.66239 38.7734 4.61411L44.0452 -7.18213C44.096 -7.13729 44.1486 -7.0959 44.2029 -7.04761" fill="#6542DB"/>
<path d="M44.0512 -7.18195L38.7794 4.61434C38.7286 4.57036 38.6802 4.52814 38.6328 4.4833L43.9045 -7.31299L44.0512 -7.18195Z" fill="#6241D6"/>
<path d="M43.9062 -7.31248L38.6345 4.4838C38.588 4.44155 38.5483 4.39755 38.5 4.35703L43.7727 -7.43921C43.8158 -7.39696 43.8588 -7.35301 43.9062 -7.31248Z" fill="#603FD1"/>
<path d="M43.7709 -7.43981L38.4983 4.35643L38.375 4.23313L43.6467 -7.56311C43.6864 -7.52259 43.7278 -7.48119 43.7709 -7.43981Z" fill="#5E3ECC"/>
<path d="M43.6425 -7.56189L38.3707 4.23434C38.3311 4.19382 38.294 4.15328 38.2578 4.11362L43.5295 -7.68262C43.5658 -7.64295 43.6037 -7.60242 43.6425 -7.56189Z" fill="#5B3CC7"/>
<path d="M43.5323 -7.683L38.2606 4.11323C38.2243 4.07357 38.189 4.03394 38.1562 3.99514L43.428 -7.80115C43.4616 -7.76235 43.4961 -7.72266 43.5323 -7.683Z" fill="#593BC2"/>
<path d="M43.4274 -7.80074L38.1573 3.99554C38.1246 3.95674 38.0927 3.91791 38.0625 3.87998L43.3342 -7.91626C43.3644 -7.87832 43.3963 -7.83954 43.4291 -7.80074" fill="#5739BD"/>
<path d="M43.3345 -7.91731L38.0628 3.87893C38.0326 3.84013 38.0033 3.80219 37.9766 3.76425L43.2483 -8.03198C43.2759 -7.99404 43.3043 -7.95611 43.3345 -7.91731Z" fill="#5437B8"/>
<path d="M43.2409 -8.03168L37.9691 3.76456C37.9416 3.72576 37.9148 3.68786 37.8906 3.65078L43.1624 -8.14551C43.1874 -8.10843 43.2133 -8.07048 43.2409 -8.03168Z" fill="#5236B3"/>
<path d="M43.1611 -8.14593L37.8894 3.65035C37.8644 3.61155 37.841 3.5736 37.8203 3.53652L43.092 -8.25977C43.1136 -8.22269 43.1369 -8.18473 43.1611 -8.14593Z" fill="#5034AD"/>
<path d="M43.0977 -8.25901L37.8259 3.53728L37.8001 3.4916C37.7881 3.46918 37.7768 3.44676 37.7656 3.42434L43.0374 -8.37195C43.0486 -8.34953 43.0598 -8.32711 43.0727 -8.30469L43.0977 -8.25901Z" fill="#4D33A8"/>
<path d="M43.0318 -8.37167L37.7601 3.42462C37.742 3.38668 37.7247 3.34874 37.7109 3.31252L42.9827 -8.48376C42.9973 -8.44755 43.0137 -8.40961 43.0318 -8.37167Z" fill="#4B31A3"/>
<path d="M42.9833 -8.48312L37.7116 3.31317C37.6964 3.27537 37.6831 3.23677 37.6719 3.1976L42.9436 -8.59863C42.9548 -8.56069 42.9678 -8.52278 42.9833 -8.48312Z" fill="#49309E"/>
<path d="M42.9461 -8.59986L37.6743 3.19638C37.6635 3.15781 37.6548 3.11867 37.6484 3.07913L42.9202 -8.71716C42.9266 -8.67762 42.9352 -8.63842 42.9461 -8.59986Z" fill="#462E99"/>
<path d="M42.9227 -8.71667L37.6509 3.07962C37.6442 3.03857 37.6408 2.99707 37.6406 2.95547L42.9124 -8.84082C42.9125 -8.79923 42.916 -8.75773 42.9227 -8.71667Z" fill="#442D94"/>
<path d="M42.9124 -8.84134L37.6406 2.95494C37.6404 2.91031 37.645 2.86579 37.6544 2.82216L42.9262 -8.97412C42.9171 -8.93043 42.9125 -8.88596 42.9124 -8.84134Z" fill="#422B8F"/>
<path d="M42.9202 -8.97384L37.6484 2.82244C37.657 2.78404 37.6691 2.74651 37.6846 2.71035L42.9564 -9.08594C42.9409 -9.04978 42.9287 -9.01225 42.9202 -8.97384Z" fill="#3F2A8A"/>
<path d="M88.8576 19.7764L83.5859 31.5726C83.6736 31.3748 83.7408 31.1685 83.7868 30.957L89.0585 19.1608C89.013 19.3724 88.9456 19.5787 88.8576 19.7764Z" fill="#8A8A8A"/>
<path d="M89.053 19.1601L83.7812 30.9563C83.8321 30.7139 83.8579 30.4669 83.858 30.2191L89.1297 18.4229C89.13 18.6706 89.1043 18.9177 89.053 19.1601Z" fill="#8F8F8F"/>
<path d="M89.1324 18.4231L83.8607 30.2193C83.8603 29.9883 83.8416 29.7577 83.8047 29.5296L89.0773 17.7333C89.1139 17.9614 89.1323 18.192 89.1324 18.4231Z" fill="#949494"/>
<path d="M89.0824 17.7334L83.8098 29.5297C83.7745 29.3086 83.7258 29.0897 83.6641 28.8744L88.9358 17.0781C88.9978 17.2934 89.0468 17.5122 89.0824 17.7334Z" fill="#999999"/>
<path d="M88.9334 17.0757L83.6617 28.8719C83.6022 28.665 83.5307 28.4537 83.4453 28.2373L88.717 16.441C88.8021 16.6572 88.8742 16.8687 88.9334 17.0757Z" fill="#9E9E9E"/>
<path d="M88.7134 16.4439L83.4417 28.2401C83.3607 28.0338 83.2681 27.8237 83.1641 27.6099L88.4358 15.8136C88.5404 16.0274 88.633 16.2375 88.7134 16.4439Z" fill="#A3A3A3"/>
<path d="M88.4335 15.8125L83.1618 27.6088C83.0618 27.4025 82.9506 27.1929 82.8281 26.9802L88.0999 15.184C88.2223 15.3972 88.3335 15.6067 88.4335 15.8125Z" fill="#A8A8A8"/>
<path d="M88.1103 15.1842L82.8386 26.9805C82.7236 26.777 82.5977 26.5706 82.4609 26.3614L87.7327 14.5651C87.8689 14.7749 87.9948 14.9813 88.1103 15.1842Z" fill="#ADADAD"/>
<path d="M87.7263 14.5666L82.4546 26.3629C82.3206 26.1565 82.1769 25.9479 82.0234 25.7369L87.2952 13.9407C87.4481 14.1516 87.5918 14.3603 87.7263 14.5666Z" fill="#B3B3B3"/>
<path d="M87.2962 13.9399L82.0246 25.7362C81.8746 25.5275 81.7153 25.3163 81.5469 25.1024L86.8186 13.3062C86.987 13.52 87.1462 13.7313 87.2962 13.9399Z" fill="#B8B8B8"/>
<path d="M86.8185 13.3062L81.5468 25.1025C81.3812 24.8921 81.2068 24.6792 81.0234 24.4636L86.2952 12.6674C86.4785 12.8829 86.6529 13.0959 86.8185 13.3062Z" fill="#BDBDBD"/>
<path d="M86.2939 12.6673L81.0222 24.4635C80.8383 24.2479 80.6459 24.0295 80.4453 23.8082L85.717 12.012C85.9182 12.2327 86.1106 12.4511 86.2939 12.6673Z" fill="#C2C2C2"/>
<path d="M85.7231 12.0108L80.4514 23.807C80.2496 23.5863 80.0393 23.3633 79.8203 23.138L85.0929 11.3417C85.3119 11.5664 85.522 11.7895 85.7231 12.0108Z" fill="#C7C7C7"/>
<path d="M85.0874 11.3419L79.8148 23.1382C79.5929 22.9082 79.363 22.6783 79.125 22.4483L84.3976 10.6521C84.6373 10.8855 84.8672 11.1154 85.0874 11.3419Z" fill="#CCCCCC"/>
<path d="M84.4029 10.6496L79.1303 22.4459C78.8877 22.2102 78.636 21.9722 78.375 21.732L83.6467 9.93567C83.9077 10.1759 84.1597 10.4139 84.4029 10.6496Z" fill="#D1D1D1"/>
<path d="M83.642 9.93513L78.3702 21.7314C78.103 21.4854 77.8259 21.2373 77.5391 20.9873L82.8116 9.19104C83.099 9.44109 83.3758 9.6891 83.642 9.93513Z" fill="#D6D6D6"/>
<path d="M82.8135 9.19192L77.541 20.9882L77.2668 20.7502C77.1518 20.653 77.0368 20.555 76.9219 20.4561L82.1936 8.65991C82.312 8.75821 82.427 8.85622 82.5385 8.95394C82.6308 9.03326 82.723 9.11259 82.8135 9.19192Z" fill="#DBDBDB"/>
<path d="M82.1844 8.6589L76.9127 20.4551C76.6428 20.231 76.3627 20.0051 76.0781 19.7791L81.3497 7.98291C81.6343 8.20882 81.9145 8.43472 82.1844 8.6589Z" fill="#E0E0E0"/>
<path d="M81.3513 7.98285L76.077 19.7791C75.5597 19.3661 75.0191 18.9505 74.5 18.5384L79.7717 6.74207C80.2891 7.15421 80.828 7.56984 81.3487 7.98285" fill="#E6E6E6"/>
<path d="M79.7756 6.74246L74.5039 18.5387L74.3125 18.3861L79.5842 6.58984L79.7756 6.74246Z" fill="#E0E0E0"/>
<path d="M73.9852 5.59032L68.7135 17.3866C68.5014 17.2366 68.287 17.0865 68.0703 16.9365L73.342 5.14026C73.5582 5.29029 73.7726 5.44029 73.9852 5.59032Z" fill="#704AF5"/>
<path d="M73.3538 5.14043L68.0821 16.9367C67.8947 16.8073 67.7059 16.6786 67.5156 16.5504L72.7872 4.75415C72.9781 4.88234 73.167 5.0111 73.3538 5.14043Z" fill="#734BFA"/>
<path d="M72.7821 4.75377L67.5105 16.55C67.3444 16.435 67.1768 16.3229 67.0078 16.2137L72.2795 4.41748C72.4485 4.53245 72.616 4.64455 72.7821 4.75377Z" fill="#754DFF"/>
<path d="M72.2791 4.41831L67.0074 16.2145L66.5547 15.9179L71.8273 4.1217L72.2791 4.41831Z" fill="#8662FF"/>
<path d="M71.8272 4.12035L66.5546 15.9166L66.1484 15.6579L71.4202 3.86169L71.8272 4.12035Z" fill="#8C6BFF"/>
<path d="M71.4184 3.85932L66.1466 15.6556L65.7656 15.4142L71.0372 3.61792L71.4184 3.85932Z" fill="#9272FF"/>
<path d="M71.0401 3.61715L65.7684 15.4134C65.6483 15.3375 65.5275 15.2619 65.4062 15.1866L70.6788 3.39038L71.0401 3.61715Z" fill="#9678FF"/>
<path d="M70.674 3.39067L65.4014 15.1869C65.2919 15.1179 65.1807 15.0498 65.0703 14.9817L70.342 3.18542L70.674 3.39067Z" fill="#9A7DFF"/>
<path d="M70.3416 3.18502L65.0698 14.9813L64.7422 14.7813L70.0148 2.98499L70.3416 3.18502Z" fill="#9E81FF"/>
<path d="M70.0178 2.98544L64.7453 14.7817L64.4375 14.5955L69.7092 2.79919L70.0178 2.98544Z" fill="#A186FF"/>
<path d="M69.7098 2.79984L64.438 14.5961L64.1328 14.4142L69.4045 2.61707L69.7098 2.79984Z" fill="#A489FF"/>
<path d="M69.4017 2.61656L64.13 14.4137C64.0326 14.3551 63.9342 14.2973 63.8359 14.2412L69.1085 2.44495L69.4017 2.6174" fill="#A78DFF"/>
<path d="M69.1134 2.44321L63.8408 14.2394L63.5469 14.067L68.8194 2.27075L69.1134 2.44321Z" fill="#A991FF"/>
<path d="M68.814 2.27011L63.5414 14.0663L63.25 13.8939L68.5217 2.09766L68.814 2.27011Z" fill="#AC94FF"/>
<path d="M68.5258 2.10213L63.2541 13.8984L62.9609 13.726L68.2326 1.92883L68.5258 2.10129" fill="#AE97FF"/>
<path d="M68.2367 1.93289L62.9651 13.73L62.6719 13.5628L67.9444 1.76648L68.2367 1.93289Z" fill="#B19AFF"/>
<path d="M67.938 1.7658L62.6655 13.5621C62.5663 13.506 62.4672 13.45 62.3672 13.3948L67.6398 1.59766L67.938 1.77011" fill="#B39DFF"/>
<path d="M67.6454 1.59804L62.3729 13.3952C62.2677 13.3357 62.1616 13.2762 62.0547 13.2176L67.3264 1.42126L67.6454 1.59804Z" fill="#B5A0FF"/>
<path d="M67.3243 1.42092L62.0525 13.2172L61.7266 13.037L66.9992 1.24072L67.3243 1.42092Z" fill="#B7A2FF"/>
<path d="M66.9925 1.24095L61.7198 13.0372L61.375 12.8484L66.6467 1.05212L66.9915 1.24095" fill="#B9A5FF"/>
<path d="M66.6503 1.05355L61.3786 12.8498L61.0078 12.6498L66.2795 0.853516L66.6503 1.05355Z" fill="#BBA8FF"/>
<path d="M66.2811 0.853038L61.0094 12.6493L60.6016 12.432L65.8733 0.635742L66.2811 0.853038Z" fill="#BDAAFF"/>
<path d="M65.8682 0.635318L60.5964 12.4316C60.4303 12.3425 60.2627 12.2543 60.0938 12.1669L65.3663 0.370605C65.5347 0.458554 65.702 0.546795 65.8682 0.635318Z" fill="#BFADFF"/>
<path d="M65.3704 0.370864L60.0978 12.1672C59.8771 12.0516 59.6539 11.9369 59.4297 11.8222L64.7023 0.026001C64.9264 0.140966 65.1491 0.255899 65.3704 0.370864Z" fill="#C1AFFF"/>
<path d="M64.703 0.0253707L59.4304 11.8216C58.7096 11.452 57.9723 11.0861 57.2188 10.724L62.4913 -1.07227C63.2443 -0.710126 63.9816 -0.344241 64.703 0.0253707Z" fill="#C3B1FF"/>
<path d="M62.4905 -1.07114L57.2188 10.7251V10.7199L62.4905 -1.07629V-1.07114Z" fill="#4D33A8"/>
<path d="M62.4863 -1.07623L57.2145 10.72C57.1766 10.6424 57.1448 10.5691 57.1172 10.5001L62.3898 -1.297C62.4165 -1.22716 62.4492 -1.15383 62.4863 -1.07623Z" fill="#4B31A3"/>
<path d="M79.6028 6.58993L74.3311 18.3862L74.125 18.2232L79.3967 6.427L79.6028 6.58993Z" fill="#EBEBEB"/>
<path d="M79.3967 6.42638L74.1249 18.2226L72.9609 17.3802L78.2327 5.58398L79.3967 6.42638Z" fill="#EFEFEF"/>
<path d="M62.5019 -1.07623L57.2302 10.72C57.1922 10.6424 57.1604 10.5691 57.1328 10.5001L62.4054 -1.297C62.4321 -1.22716 62.4648 -1.15383 62.5019 -1.07623Z" fill="#4B31A3"/>
<path d="M62.4091 -1.29629L57.1331 10.5008C57.1012 10.4189 57.0762 10.3431 57.0547 10.2707L62.3273 -1.52563C62.3479 -1.45321 62.3738 -1.37734 62.4057 -1.29629" fill="#49309E"/>
<path d="M62.3294 -1.52551L57.0568 10.2708C57.0291 10.1728 57.0076 10.0731 56.9922 9.97244L62.2639 -1.82385C62.2796 -1.72316 62.3014 -1.62352 62.3294 -1.52551Z" fill="#462E99"/>
<path d="M62.2628 -1.82422L56.9911 9.97206C56.9739 9.86429 56.9635 9.76254 56.9531 9.65994L62.2249 -2.13635C62.2361 -2.03375 62.2456 -1.932 62.2628 -1.82422Z" fill="#442D94"/>
<path d="M54.4913 -3.94247L49.2188 7.85377C49.2355 7.81682 49.2479 7.77807 49.2558 7.73825L54.5284 -4.05798C54.5201 -4.01827 54.5077 -3.97956 54.4913 -3.94247Z" fill="#8A8A8A"/>
<path d="M54.5148 -4.05836L49.2422 7.73788V7.71893C49.2492 7.68082 49.2527 7.64211 49.2526 7.60336L54.5252 -4.19287C54.5253 -4.15412 54.5218 -4.11547 54.5148 -4.07736V-4.05836Z" fill="#8F8F8F"/>
<path d="M54.5321 -4.19248L49.2595 7.60376C49.2601 7.56274 49.257 7.52178 49.25 7.48135L54.5217 -4.31494C54.5285 -4.27448 54.532 -4.23351 54.5321 -4.19248Z" fill="#949494"/>
<path d="M54.525 -4.31451L49.2533 7.48178C49.247 7.44214 49.2381 7.40292 49.2266 7.36447L54.4991 -4.43176C54.5101 -4.39322 54.5187 -4.35408 54.525 -4.31451Z" fill="#999999"/>
<path d="M54.4988 -4.43219L49.2262 7.36405C49.2154 7.32544 49.2025 7.28748 49.1875 7.25027L54.4601 -4.54602C54.4747 -4.50722 54.4885 -4.46927 54.4988 -4.43219Z" fill="#9E9E9E"/>
<path d="M54.4623 -4.54661L49.1898 7.24968C49.176 7.2126 49.1587 7.17549 49.1406 7.13669L54.4124 -4.65955C54.4313 -4.62075 54.4477 -4.58369 54.4623 -4.54661Z" fill="#A3A3A3"/>
<path d="M54.4093 -4.65388L49.1376 7.14235C49.1198 7.10614 49.1 7.06909 49.0781 7.03115L54.3497 -4.76514C54.3716 -4.7272 54.3915 -4.6901 54.4093 -4.65388Z" fill="#A8A8A8"/>
<path d="M54.3476 -4.77076L49.076 7.02553C49.0553 6.98845 49.032 6.95135 49.0078 6.91428L54.2795 -4.88196C54.3045 -4.84488 54.3269 -4.80783 54.3476 -4.77076Z" fill="#ADADAD"/>
<path d="M54.2781 -4.88082L49.0064 6.91541C48.9823 6.87833 48.9573 6.84125 48.9297 6.80332L54.2023 -4.99292C54.229 -4.95498 54.2549 -4.9179 54.2781 -4.88082Z" fill="#B3B3B3"/>
<path d="M54.2025 -4.99302L48.93 6.80322C48.9032 6.76614 48.8748 6.72822 48.8438 6.69028L54.1163 -5.10596C54.1456 -5.06802 54.1741 -5.0301 54.2025 -4.99302Z" fill="#B8B8B8"/>
<path d="M54.1244 -5.10615L48.8518 6.69008C48.8225 6.65215 48.7906 6.61335 48.7578 6.57541L54.0304 -5.22083C54.0631 -5.18289 54.0942 -5.14409 54.1244 -5.10615Z" fill="#BDBDBD"/>
<path d="M54.0235 -5.22107L48.751 6.57516C48.7182 6.53636 48.6847 6.49757 48.6484 6.45791L53.9201 -5.33838C53.9563 -5.29872 53.9908 -5.25987 54.0235 -5.22107Z" fill="#C2C2C2"/>
<path d="M53.9237 -5.33842L48.6521 6.45787C48.6159 6.4182 48.5787 6.37851 48.5391 6.33798L53.8116 -5.45825C53.8504 -5.41773 53.8884 -5.37808 53.9237 -5.33842Z" fill="#C7C7C7"/>
<path d="M53.8099 -5.45859L48.5373 6.33764C48.4985 6.29712 48.4572 6.25662 48.4141 6.21523L53.6866 -5.58105C53.7289 -5.53967 53.7728 -5.49481 53.8099 -5.45859Z" fill="#CCCCCC"/>
<path d="M53.6875 -5.58079L48.4149 6.21549C48.3718 6.17324 48.3287 6.12924 48.2812 6.08872L53.553 -5.70752C53.5995 -5.66498 53.6444 -5.62276 53.6875 -5.58079Z" fill="#D1D1D1"/>
<path d="M53.5484 -5.70732L48.2766 6.08892C48.2353 6.05012 48.1905 6.0122 48.1482 5.9734L48.1172 5.94582L53.3889 -5.85046L53.4199 -5.82289C53.4647 -5.78409 53.5061 -5.74612 53.5484 -5.70732Z" fill="#D6D6D6"/>
<path d="M53.3914 -5.85L48.1197 5.94629L47.9609 5.81088L53.2327 -5.98535C53.287 -5.94052 53.3397 -5.89914 53.3914 -5.85Z" fill="#DBDBDB"/>
<path d="M53.2332 -5.9862L47.9615 5.81004C47.9063 5.76434 47.8503 5.71867 47.7891 5.67384L53.0616 -6.12329L53.2297 -5.9862" fill="#E0E0E0"/>
<path d="M53.0623 -6.12076L47.7897 5.67637C47.7345 5.63153 47.6767 5.59012 47.6172 5.5427L52.8889 -6.25354L53.0614 -6.12076" fill="#E6E6E6"/>
<path d="M52.8913 -6.25642L47.6195 5.53982L47.4531 5.41567L52.7247 -6.38062C52.7817 -6.33923 52.8369 -6.29435 52.8913 -6.25642Z" fill="#EBEBEB"/>
<path d="M52.7278 -6.37925L47.4562 5.41698L47.3984 5.37473L52.6702 -6.42151L52.7278 -6.37925Z" fill="#F0F0F0"/>
<path d="M47.3884 5.37634C47.6652 5.57724 47.9179 5.77729 48.142 5.97991C48.9319 6.6697 49.3215 7.2914 49.2405 7.72596C49.1594 8.16053 48.6223 8.38898 47.7152 8.37001C47.0939 8.34266 46.477 8.25137 45.8744 8.09756C45.1213 7.91203 44.3813 7.67701 43.6592 7.39399C42.3534 6.89234 41.1046 6.25356 39.9335 5.48843C39.7789 5.38554 39.6317 5.28379 39.492 5.1832C38.8168 4.7435 38.2407 4.16792 37.8004 3.49319C37.4874 2.91377 37.6374 2.49217 38.2237 2.30851C39.1565 2.13738 40.1169 2.19659 41.0216 2.48097C42.3668 2.81909 43.6712 3.30215 44.912 3.92173C45.7764 4.33706 46.6048 4.82361 47.3884 5.37634Z" fill="#808080"/>
<path d="M52.6712 -6.42159L47.3995 5.37464L47.3047 5.30654L52.5764 -6.48975L52.6712 -6.42159Z" fill="#F0F0F0"/>
<path d="M52.5816 -6.49026L47.3099 5.30603L47.1719 5.2103L52.4436 -6.58594L52.5816 -6.49026Z" fill="#F5F5F5"/>
<path d="M52.441 -6.58538L47.1693 5.21086L47.0469 5.12466L52.3186 -6.67163L52.441 -6.58538Z" fill="#FAFAFA"/>
<path d="M52.3196 -6.66926L47.0479 5.12703L46.9375 5.05288L52.2092 -6.74341L52.3196 -6.66926Z" fill="white"/>
<path d="M52.2085 -6.74357L46.9368 5.05271L46.8359 4.98719L52.1076 -6.80994C52.142 -6.78752 52.1757 -6.76599 52.2085 -6.74357Z" fill="white"/>
<path d="M52.1061 -6.80999L46.8345 4.98714L46.7422 4.92678L52.0139 -6.86951L52.1061 -6.80999Z" fill="white"/>
<path d="M52.0142 -6.86963L46.7425 4.92666L46.6562 4.87319L51.928 -6.9231L52.0142 -6.86963Z" fill="white"/>
<path d="M51.9301 -6.92365L46.6583 4.87264L46.5781 4.82175L51.8499 -6.97449L51.9301 -6.92365Z" fill="white"/>
<path d="M51.8493 -6.97403L46.5776 4.82221L46.5 4.77479L51.7717 -7.02234L51.8493 -6.97403Z" fill="white"/>
<path d="M51.766 -7.02135L46.4943 4.77578L46.4219 4.73183L51.6944 -7.06445L51.766 -7.02135Z" fill="white"/>
<path d="M51.7027 -7.06854L46.4301 4.7277L46.3594 4.68459L51.6311 -7.11169L51.7027 -7.06854Z" fill="white"/>
<path d="M51.6297 -7.10903L46.358 4.68721L46.2891 4.64585L51.5616 -7.15039L51.6297 -7.10903Z" fill="white"/>
<path d="M51.5594 -7.14973L46.2868 4.6465L46.2188 4.60598L51.4913 -7.19031L51.5594 -7.14973Z" fill="white"/>
<path d="M51.4883 -7.19022L46.2157 4.60607L46.1484 4.56728L51.421 -7.229L51.4883 -7.19022Z" fill="white"/>
<path d="M51.4171 -7.22952L46.1445 4.56676L46.0781 4.52793L51.3499 -7.26831L51.4171 -7.22952Z" fill="white"/>
<path d="M51.3616 -7.26748L46.0899 4.52876L46.0234 4.49087L51.296 -7.30542L51.3616 -7.26748Z" fill="white"/>
<path d="M51.293 -7.30617L46.0204 4.49011L45.9531 4.45217L51.2257 -7.34412L51.293 -7.30617Z" fill="white"/>
<path d="M51.2226 -7.34415L45.9501 4.45214L45.8828 4.4133L51.1545 -7.38293L51.2226 -7.34415Z" fill="white"/>
<path d="M51.1558 -7.38171L45.8841 4.41453L45.8125 4.3749L51.0851 -7.42139L51.1558 -7.38171Z" fill="white"/>
<path d="M51.0863 -7.42101L45.8138 4.37527L45.7422 4.33559L51.0139 -7.46069L51.0863 -7.42101Z" fill="white"/>
<path d="M51.0125 -7.46218L45.7408 4.33411L45.6641 4.29275L50.9358 -7.50354L51.0125 -7.46218Z" fill="white"/>
<path d="M50.9379 -7.49946L45.6661 4.29677L45.5859 4.25283L50.8577 -7.54346L50.9379 -7.49946Z" fill="white"/>
<path d="M50.8561 -7.54659L45.5844 4.2497L45.4922 4.20139L50.7648 -7.59485L50.8561 -7.54659Z" fill="white"/>
<path d="M50.7641 -7.59529L45.4915 4.20094L45.3828 4.14321L50.6545 -7.65308L50.7641 -7.59529Z" fill="white"/>
<path d="M50.6544 -7.65301L45.3827 4.14328L45.2344 4.06655L50.5061 -7.72974C50.5561 -7.70473 50.6053 -7.67887 50.6544 -7.65301Z" fill="white"/>
<path d="M50.5076 -7.73083L45.2359 4.06545C45.1336 4.01257 45.0301 3.96079 44.9255 3.9102C44.8462 3.87054 44.7668 3.83265 44.6875 3.79384L49.9592 -8.00244C50.0386 -7.96364 50.1187 -7.92569 50.198 -7.88603C50.3024 -7.83516 50.4059 -7.78343 50.5076 -7.73083Z" fill="white"/>
<path d="M49.9564 -8.00167L44.6847 3.79546L44.5312 3.72305L49.803 -8.07324L49.9564 -8.00083" fill="white"/>
<path d="M49.8032 -8.07403L44.5315 3.72221L44.4297 3.67568L49.7014 -8.12061L49.8032 -8.07403Z" fill="white"/>
<path d="M49.6998 -8.12127L44.4281 3.67502L44.3281 3.62928L49.5999 -8.16785L49.6998 -8.12127Z" fill="white"/>
<path d="M49.6001 -8.16659L44.3284 3.63054L44.25 3.59433L49.5217 -8.2019L49.6001 -8.16659Z" fill="white"/>
<path d="M49.5299 -8.2029L44.2582 3.59333L44.1797 3.55886L49.4514 -8.23743L49.5299 -8.2029Z" fill="white"/>
<path d="M49.4474 -8.2368L44.1757 3.55949L44.1016 3.5267L49.3741 -8.26953L49.4474 -8.2368Z" fill="white"/>
<path d="M49.3729 -8.27009L44.1003 3.52615L44.0312 3.49599L49.303 -8.30029L49.3729 -8.27009Z" fill="white"/>
<path d="M49.3016 -8.3009L44.0299 3.49539L43.9609 3.46518L49.2327 -8.33105L49.3016 -8.3009Z" fill="white"/>
<path d="M49.2305 -8.33006L43.9587 3.46617L43.8906 3.43686L49.1632 -8.35938L49.2305 -8.33006Z" fill="white"/>
<path d="M49.1671 -8.36167L43.8945 3.43457L43.8281 3.4061L49.0999 -8.39014L49.1671 -8.36167Z" fill="white"/>
<path d="M49.096 -8.38783L43.8242 3.40846L43.7578 3.38083L49.0295 -8.41541L49.096 -8.38783Z" fill="white"/>
<path d="M49.0255 -8.41525L43.7538 3.38098L43.6875 3.35256L48.9591 -8.44373L49.0255 -8.41525Z" fill="white"/>
<path d="M48.963 -8.44861L43.6914 3.34768L43.625 3.32095L48.8967 -8.47534L48.963 -8.44861Z" fill="white"/>
<path d="M48.9006 -8.47059L43.6289 3.32569L43.5625 3.29807L48.8342 -8.49817L48.9006 -8.47059Z" fill="white"/>
<path d="M48.8329 -8.4983L43.5611 3.29793L43.4922 3.27036L48.7638 -8.52588L48.8329 -8.4983Z" fill="white"/>
<path d="M48.7634 -8.52573L43.4918 3.27051L43.4219 3.24204L48.6936 -8.5542L48.7634 -8.52573Z" fill="white"/>
<path d="M48.6932 -8.55445L43.4215 3.24178L43.3516 3.2142L48.6233 -8.58203L48.6932 -8.55445Z" fill="white"/>
<path d="M48.6219 -8.581L43.3502 3.21524L43.2734 3.18508L48.546 -8.61121L48.6219 -8.581Z" fill="white"/>
<path d="M48.5524 -8.61156L43.2799 3.18473L43.2031 3.15542L48.4749 -8.64087L48.5524 -8.61156Z" fill="white"/>
<path d="M48.4682 -8.64168L43.1964 3.15461L43.1172 3.12356L48.3889 -8.67273L48.4682 -8.64168Z" fill="white"/>
<path d="M48.3893 -8.6721L43.1176 3.12419L43.0312 3.0923L48.303 -8.70483L48.3893 -8.6721Z" fill="white"/>
<path d="M48.3032 -8.70761L43.0315 3.08952L42.9453 3.05673L48.217 -8.7395L48.3032 -8.70761Z" fill="white"/>
<path d="M48.2224 -8.73706L42.9507 3.05918L42.8516 3.02297L48.1241 -8.77332L48.2224 -8.73706Z" fill="#FAFAFA"/>
<path d="M48.1209 -8.7734L42.8483 3.02288L42.75 2.98752L48.0217 -8.80872L48.1209 -8.7734Z" fill="#F5F5F5"/>
<path d="M48.027 -8.8086L42.7552 2.98764L42.6406 2.94711L47.9124 -8.84912L48.027 -8.8086Z" fill="#F0F0F0"/>
<path d="M47.9072 -8.84922L42.6355 2.94701L42.5156 2.90475L47.7874 -8.89148L47.9072 -8.84922Z" fill="#EBEBEB"/>
<path d="M47.7882 -8.89254L42.5165 2.9037L42.3828 2.85886L47.6545 -8.93738L47.7882 -8.89254Z" fill="#E6E6E6"/>
<path d="M47.6483 -8.93597L42.3765 2.86027L42.2266 2.81027L47.4983 -8.98596L47.6483 -8.93597Z" fill="#E0E0E0"/>
<path d="M47.5068 -8.98558L42.235 2.81065L42.0703 2.75808L47.3429 -9.03821L47.5068 -8.98558Z" fill="#DBDBDB"/>
<path d="M47.3425 -9.03884L42.07 2.75745L41.8906 2.70224L47.1624 -9.09399L47.3425 -9.03884Z" fill="#D6D6D6"/>
<path d="M47.161 -9.0948L41.8893 2.70143L41.6953 2.64454L46.967 -9.15259L47.161 -9.0948Z" fill="#D1D1D1"/>
<path d="M46.9682 -9.15148L41.6966 2.64565C41.6276 2.62581 41.5594 2.60597 41.4922 2.58786L46.7639 -9.20837L46.9682 -9.15148Z" fill="#CCCCCC"/>
<path d="M46.7633 -9.20921L41.4917 2.58703C41.4209 2.56719 41.3511 2.54908 41.2812 2.53098L46.553 -9.26526C46.6228 -9.24715 46.6926 -9.22904 46.7633 -9.20921Z" fill="#C7C7C7"/>
<path d="M46.5506 -9.26439L41.2789 2.53185C41.2039 2.51202 41.1288 2.49305 41.0547 2.4758L46.3264 -9.32043C46.4006 -9.30319 46.4756 -9.28422 46.5506 -9.26439Z" fill="#C2C2C2"/>
<path d="M46.3267 -9.3207L41.055 2.47553L41.0334 2.47037C40.967 2.45399 40.9015 2.43844 40.8359 2.42464L46.1085 -9.37244L46.3051 -9.32591L46.3267 -9.3207Z" fill="#BDBDBD"/>
<path d="M46.1053 -9.37236L40.8327 2.42472L40.6172 2.3782L45.8889 -9.41809L46.1053 -9.37236Z" fill="#B8B8B8"/>
<path d="M45.8919 -9.41868L40.6201 2.37761C40.5477 2.36209 40.4761 2.34828 40.4062 2.33535L45.678 -9.46094C45.7487 -9.448 45.8194 -9.4342 45.8919 -9.41868Z" fill="#B3B3B3"/>
<path d="M45.6722 -9.46063L40.4004 2.33566C40.328 2.32272 40.2573 2.30976 40.1875 2.29856L45.4592 -9.49768C45.5291 -9.48647 45.6006 -9.47443 45.6722 -9.46063Z" fill="#ADADAD"/>
<path d="M45.4612 -9.49736L40.1895 2.29887C40.1171 2.2868 40.0464 2.27562 39.9766 2.26614L45.2482 -9.53015C45.318 -9.52067 45.3897 -9.50944 45.4612 -9.49736Z" fill="#A8A8A8"/>
<path d="M45.252 -9.53004L39.9803 2.26625C39.9071 2.2559 39.8355 2.24724 39.7656 2.23862L45.0374 -9.55762C45.1081 -9.54986 45.1795 -9.54039 45.252 -9.53004Z" fill="#A3A3A3"/>
<path d="M45.035 -9.55801L39.7633 2.23822C39.69 2.2296 39.6176 2.22273 39.5469 2.2167L44.8185 -9.57959C44.8892 -9.57355 44.9617 -9.56664 45.035 -9.55801Z" fill="#9E9E9E"/>
<path d="M44.8239 -9.57936L39.5523 2.21692C39.4756 2.21089 39.4014 2.20569 39.3281 2.20224L44.6007 -9.59399C44.6731 -9.59399 44.7472 -9.5854 44.8239 -9.57936Z" fill="#999999"/>
<path d="M44.5983 -9.59418L39.3257 2.20206C39.2464 2.19774 39.1688 2.19602 39.0938 2.19516L44.3655 -9.60107C44.4405 -9.60107 44.5181 -9.60108 44.5983 -9.59418Z" fill="#949494"/>
<path d="M44.3656 -9.60107L39.0938 2.19516C39.0076 2.19516 38.9214 2.19518 38.8438 2.20121L44.1155 -9.59507C44.1957 -9.59507 44.2793 -9.60107 44.3656 -9.60107Z" fill="#8F8F8F"/>
<path d="M44.1214 -9.59558L38.8496 2.20071C38.7479 2.20703 38.6522 2.21653 38.5625 2.22918L43.8342 -9.56711C43.9205 -9.58004 44.0205 -9.58955 44.1214 -9.59558Z" fill="#8A8A8A"/>
<path d="M43.8285 -9.5686L38.5567 2.22768C38.4481 2.24328 38.3409 2.26748 38.236 2.3001C38.1235 2.32523 38.0177 2.37425 37.9257 2.44387C37.8338 2.5135 37.7578 2.60206 37.7031 2.70359L42.9749 -9.09265C43.0296 -9.19417 43.1055 -9.28274 43.1975 -9.35236C43.2894 -9.42198 43.3952 -9.47105 43.5078 -9.49619C43.6125 -9.52907 43.7197 -9.55328 43.8285 -9.5686Z" fill="#858585"/>
<path d="M62.2064 -2.13732L56.9347 9.65891L56.7812 8.24399L62.053 -3.55225L62.2064 -2.13732Z" fill="#462E98"/>
<path d="M72.9594 17.3801L74.1234 18.2225L74.3295 18.3855C75.3133 19.1719 76.3756 19.972 77.2809 20.7489C86.2206 28.4357 86.0636 34.0437 76.8868 34.386C72.4765 34.5524 66.8125 33.566 59.9819 31.488C59.722 31.4122 59.4666 31.3215 59.2171 31.2164C59.1309 30.4404 59.0446 29.6644 58.9782 28.8944H59.1283C65.808 30.8293 70.89 31.4346 74.2863 30.6568C79.7641 29.4023 77.9732 24.2996 69.9855 18.301C69.7216 18.1027 69.4547 17.9058 69.1845 17.7103C65.3479 14.9966 61.2887 12.6121 57.0502 10.5823C57.008 10.2693 56.9804 9.96487 56.9485 9.65619L56.9062 8.28784C61.7511 10.486 66.4208 13.0514 70.8744 15.9617C71.5918 16.4377 72.2662 16.9085 72.9594 17.3801Z" fill="#808080"/>
<path d="M78.2381 5.58255L72.9655 17.3788C72.4568 17.0339 71.9583 16.689 71.4453 16.3441L76.717 4.54785C77.2301 4.89275 77.7285 5.23765 78.2381 5.58255Z" fill="#FAFAFA"/>
<path d="M76.7165 4.54484L71.4447 16.3411C71.2907 16.237 71.1346 16.1327 70.9766 16.0281L76.2483 4.23181C76.4058 4.33643 76.5618 4.44079 76.7165 4.54484Z" fill="white"/>
<path d="M76.2501 4.23223L70.9783 16.0285L70.8809 15.9638L70.3438 15.612L75.6155 3.8158C75.7954 3.93076 75.9744 4.04804 76.1526 4.16761L76.2501 4.23223Z" fill="white"/>
<path d="M75.6145 3.8155L70.3427 15.6117L69.8047 15.2669L75.0764 3.47058L75.6145 3.8155Z" fill="white"/>
<path d="M75.0758 3.46899L69.8066 15.2635C69.6427 15.1584 69.478 15.0537 69.3125 14.9497L74.5842 3.15344C74.7498 3.25749 74.9145 3.36212 75.0783 3.46731" fill="white"/>
<path d="M74.5855 3.15531L69.3137 14.9515L68.8516 14.6618L74.1233 2.8656L74.5855 3.15531Z" fill="white"/>
<path d="M74.1168 2.86667L68.8452 14.6629L68.4141 14.3965L73.6857 2.60022L74.1168 2.86667Z" fill="white"/>
<path d="M73.6881 2.59952L68.4165 14.3958L68.0078 14.1457L73.2794 2.34949L73.6881 2.59952Z" fill="white"/>
<path d="M73.2812 2.34925L68.0094 14.1429L67.6094 13.9015L72.8811 2.10522C73.0156 2.18541 73.1484 2.26644 73.2812 2.34662" fill="white"/>
<path d="M72.8864 2.10798L67.6147 13.9043L67.2344 13.6766L72.5061 1.88037L72.8864 2.10798Z" fill="white"/>
<path d="M72.4993 1.88053L67.2275 13.6768L66.8516 13.4543L72.1233 1.65808L72.4993 1.88053Z" fill="white"/>
<path d="M72.1311 1.65843L66.8594 13.4547L66.4922 13.2391L71.7639 1.44287L72.1311 1.65843Z" fill="white"/>
<path d="M71.7606 1.4427L66.4889 13.2389L66.125 13.0285L71.3966 1.2323L71.7606 1.4427Z" fill="white"/>
<path d="M71.3986 1.23126L66.127 13.0275L65.7656 12.8197L71.0374 1.02344C71.1581 1.09242 71.2784 1.16171 71.3986 1.23126Z" fill="white"/>
<path d="M71.0305 1.02323L65.7588 12.8195L65.3906 12.61L70.6624 0.813721L71.0305 1.02323Z" fill="white"/>
<path d="M70.6598 0.814366L65.3881 12.6107L65.0156 12.4011L70.2882 0.604858L70.6598 0.814366Z" fill="white"/>
<path d="M70.296 0.605711L65.0234 12.402L64.6328 12.1839L69.9054 0.387573L70.296 0.605711Z" fill="white"/>
<path d="M69.9052 0.386745L64.6327 12.183C64.501 12.11 64.3683 12.037 64.2344 11.964L69.5069 0.16687L69.9052 0.386745Z" fill="white"/>
<path d="M69.5085 0.167608L64.2359 11.9647L63.8125 11.7328L69.0851 -0.0634766L69.5085 0.167608Z" fill="white"/>
<path d="M69.0829 -0.0638712L63.8103 11.7324L63.3594 11.4892L68.6319 -0.307007L69.0829 -0.0638712Z" fill="white"/>
<path d="M68.6303 -0.306106L63.3578 11.4901C63.1948 11.4039 63.0319 11.3177 62.8672 11.2315L68.1388 -0.564819C68.3038 -0.477446 68.4677 -0.39118 68.6303 -0.306106Z" fill="white"/>
<path d="M68.1409 -0.569053L62.8693 11.2272C62.6698 11.1214 62.4685 11.0159 62.2656 10.9107L67.5374 -0.885498C67.7383 -0.780305 67.9391 -0.675108 68.1409 -0.569053Z" fill="white"/>
<path d="M67.5416 -0.884773L62.2699 10.9115L61.4844 10.5054L66.7561 -1.29089C67.0199 -1.15638 67.2818 -1.02101 67.5416 -0.884773Z" fill="white"/>
<path d="M66.7554 -1.29106L61.4837 10.5052C60.5237 10.0138 59.5448 9.53006 58.5469 9.0541L63.8194 -2.74219C64.8168 -2.26623 65.7954 -1.78253 66.7554 -1.29106Z" fill="white"/>
<path d="M63.8145 -2.74253L58.5419 9.0537C58.2545 8.91689 57.9671 8.78098 57.6797 8.6459L62.9514 -3.15039C63.2388 -3.01531 63.5262 -2.87934 63.8137 -2.74253" fill="white"/>
<path d="M62.9551 -3.15051L57.6834 8.64578L57.0703 8.36123L62.342 -3.43506L62.9551 -3.15051Z" fill="white"/>
<path d="M62.3401 -3.4353L57.0684 8.36098L56.9141 8.29025L62.1858 -3.50598L62.3401 -3.4353Z" fill="white"/>
<path d="M87.2692 18.2688C108.317 33.5036 109.574 45.4655 90.0698 44.986C70.566 44.5066 37.6984 31.7662 16.6494 16.5322C-4.39949 1.29823 -5.66095 -10.6679 13.8385 -10.1885C33.338 -9.70907 66.2151 3.03045 87.2692 18.2688ZM59.225 31.2549C59.4837 31.3343 59.7311 31.4144 59.976 31.4894C66.8066 33.5674 72.4706 34.5539 76.881 34.3874C86.0578 34.0425 86.2147 28.438 77.275 20.7503C76.3697 19.9743 75.3074 19.1733 74.3236 18.3869L74.1175 18.2239L72.9535 17.3815C72.2638 16.9099 71.586 16.4391 70.8677 15.9666C66.3802 13.0353 61.6734 10.4542 56.7891 8.24615L56.9426 9.66107C56.9633 10.0317 57.059 10.3942 57.2237 10.7268C61.4078 12.6976 65.4085 15.0363 69.1786 17.7152C69.4494 17.9107 69.7163 18.1075 69.9796 18.3059C77.9674 24.3044 79.7583 29.4072 74.2805 30.6617C70.8841 31.4377 65.8021 30.8342 59.1224 28.8993H58.9723C59.043 29.6702 59.125 30.4461 59.225 31.2584V31.2549ZM27.3739 0.110054C26.7988 0.125574 26.1988 0.125608 25.665 0.166996C20.032 0.633467 18.0971 2.87353 20.026 6.93811C21.3866 9.79988 24.5907 13.0531 29.5192 16.621C29.8152 16.8349 30.1173 17.0501 30.4254 17.2669C37.2719 21.9705 44.6478 25.8525 52.4012 28.8329L52.6202 28.8381C52.2248 24.9827 51.8178 21.1239 51.3993 17.2617C51.3389 17.1194 51.2347 17.0001 51.1019 16.9211C45.4444 12.822 39.7823 8.72207 34.1157 4.62127L27.8939 0.119527L27.3696 0.110054H27.3739ZM48.1323 5.9802C47.9082 5.78189 47.6555 5.58184 47.3787 5.37662C46.5955 4.82004 45.7671 4.32973 44.9023 3.91081C43.6614 3.29137 42.357 2.80827 41.0119 2.47C40.1072 2.18562 39.1468 2.12641 38.214 2.29754C37.6277 2.48119 37.4777 2.90112 37.7907 3.48227C38.2309 4.1569 38.807 4.73219 39.4823 5.17138C39.622 5.27312 39.7692 5.37519 39.9238 5.47751C41.0949 6.24264 42.3437 6.88136 43.6495 7.38302C44.3716 7.66604 45.1116 7.90111 45.8647 8.08664C46.4673 8.24045 47.0842 8.33174 47.7055 8.35909C48.6126 8.37806 49.1557 8.15301 49.2316 7.71499C49.3075 7.27697 48.9221 6.66309 48.1323 5.96899" fill="#3B2780"/>
<path d="M51.094 16.9173C45.4366 12.8182 39.7745 8.71823 34.1079 4.61743L27.8861 0.115686L27.3618 0.107056C26.7867 0.121714 26.1866 0.121696 25.6529 0.163945C20.0199 0.629553 18.085 2.86969 20.0138 6.93427C21.3744 9.79604 24.5777 13.0492 29.5071 16.6172C29.8031 16.831 30.1052 17.0463 30.4133 17.263C37.2597 21.9667 44.6356 25.8487 52.3891 28.8291L52.6081 28.8342C52.2126 24.9789 51.8056 21.12 51.3872 17.2578C51.3279 17.1162 51.2253 16.997 51.094 16.9173Z" fill="#808080"/>
<path d="M108.74 28.6352L103.469 40.4314C103.607 40.1199 103.714 39.7953 103.788 39.4623L109.06 27.666C108.987 27.9991 108.88 28.3239 108.74 28.6352Z" fill="#3F2A8A"/>
<path d="M109.061 27.6661L103.789 39.4624C103.875 39.0677 103.918 38.6651 103.919 38.2613L109.191 26.465C109.19 26.8688 109.147 27.2715 109.061 27.6661Z" fill="#422B8F"/>
<path d="M109.186 26.4645L103.914 38.2608C103.915 37.8855 103.886 37.5107 103.828 37.1399L109.1 25.3436C109.158 25.7144 109.187 26.0892 109.186 26.4645Z" fill="#442D94"/>
<path d="M109.106 25.3434L103.834 37.1397C103.776 36.7753 103.696 36.4149 103.594 36.0602L108.865 24.2639C108.968 24.6183 109.049 24.9789 109.106 25.3434Z" fill="#462E99"/>
<path d="M108.859 24.2639L103.587 36.0602C103.492 35.7279 103.377 35.3885 103.242 35.0418L108.515 23.2456C108.65 23.5905 108.765 23.9299 108.86 24.2639" fill="#49309E"/>
<path d="M108.513 23.2457L103.24 35.0419C103.109 34.7073 102.959 34.3662 102.789 34.0184L108.062 22.2222C108.231 22.5705 108.381 22.9117 108.513 23.2457Z" fill="#4B31A3"/>
<path d="M108.064 22.2217L102.791 34.018C102.631 33.6886 102.453 33.3529 102.258 33.0109L107.53 21.2146C107.725 21.556 107.903 21.8918 108.064 22.2217Z" fill="#4D33A8"/>
<path d="M107.532 21.2137L102.26 33.0099C102.072 32.6806 101.868 32.3466 101.648 32.008L106.92 20.2118C107.14 20.5509 107.344 20.8849 107.532 21.2137Z" fill="#5034AD"/>
<path d="M106.922 20.213L101.651 32.0092C101.435 31.6764 101.205 31.339 100.961 30.997L106.233 19.2007C106.479 19.5421 106.709 19.8796 106.922 20.213Z" fill="#5236B3"/>
<path d="M106.228 19.2007L100.957 30.997C100.718 30.6642 100.464 30.3273 100.195 29.9865L105.467 18.1902C105.735 18.5311 105.989 18.8679 106.228 19.2007Z" fill="#5437B8"/>
<path d="M105.459 18.1896L100.187 29.9859C99.9197 29.6462 99.6386 29.3013 99.3438 28.9512L104.615 17.1549C104.912 17.4998 105.193 17.8447 105.459 18.1896Z" fill="#5739BD"/>
<path d="M104.622 17.1627L99.3506 28.959C99.0574 28.6141 98.7504 28.266 98.4297 27.9148L103.702 16.1185C104.023 16.4703 104.33 16.8184 104.622 17.1627Z" fill="#593BC2"/>
<path d="M103.7 16.1164L98.4273 27.9127C98.1065 27.5603 97.7714 27.2042 97.4219 26.8444L102.694 15.0481C103.043 15.4079 103.378 15.7641 103.7 16.1164Z" fill="#5B3CC7"/>
<path d="M102.696 15.0479L97.4232 26.8442C97.0702 26.4804 96.7026 26.113 96.3203 25.7423L101.593 13.946C101.974 14.3168 102.342 14.6841 102.696 15.0479Z" fill="#5E3ECC"/>
<path d="M101.594 13.9457L96.3217 25.742C95.9372 25.3689 95.5383 24.9921 95.125 24.6116L100.397 12.8153C100.811 13.1958 101.21 13.5727 101.594 13.9457Z" fill="#603FD1"/>
<path d="M100.399 12.8155L95.1274 24.6118C94.7044 24.222 94.266 23.8294 93.8125 23.4339L99.0851 11.6377C99.5386 12.0332 99.9767 12.4258 100.399 12.8155Z" fill="#6241D6"/>
<path d="M99.0816 11.6373L93.809 23.4335C93.3549 23.0363 92.8847 22.6357 92.3984 22.2316L97.6702 10.4353C98.1553 10.8377 98.6258 11.2384 99.0816 11.6373Z" fill="#6542DB"/>
<path d="M97.6739 10.4361L92.4022 22.2323C91.9141 21.8259 91.4103 21.4166 90.8906 21.0045L96.1632 9.20825C96.6805 9.6204 97.1841 10.0297 97.6739 10.4361Z" fill="#6744E0"/>
<path d="M96.1565 9.20795L90.8839 21.0042C90.3947 20.6162 89.8918 20.225 89.375 19.8307L94.6467 8.03442C95.1641 8.42818 95.6673 8.81937 96.1565 9.20795Z" fill="#6945E6"/>
<path d="M94.652 8.03469L89.3803 19.8309C88.8836 19.4527 88.3741 19.0719 87.8516 18.6885L93.1233 6.89221C93.6458 7.27505 94.1553 7.65588 94.652 8.03469Z" fill="#6C47EB"/>
<path d="M93.1221 6.89194L87.8503 18.6882C87.6595 18.5485 87.4672 18.4083 87.2734 18.2674L92.5452 6.47119C92.7395 6.61145 92.9318 6.75169 93.1221 6.89194Z" fill="#6E48F0"/>
<path d="M92.5433 6.4704L87.2716 18.2667C87.0158 18.0822 86.7587 17.8976 86.5 17.7131L91.7717 5.91687C92.0304 6.10139 92.2875 6.28588 92.5433 6.4704Z" fill="#6E48F0"/>
<path d="M91.773 5.91708L86.5013 17.7134C86.0932 17.426 85.6812 17.1368 85.2656 16.8459L90.5374 5.04968C90.953 5.33709 91.3649 5.62622 91.773 5.91708Z" fill="#704AF5"/>
<path d="M90.5479 5.05041L85.2762 16.8466C84.8623 16.5592 84.4448 16.2742 84.0234 15.9914L89.2951 4.19507C89.717 4.47846 90.1346 4.76357 90.5479 5.05041Z" fill="#734BFA"/>
<path d="M89.2893 4.19467L84.0176 15.991C83.7302 15.7961 83.4404 15.602 83.1484 15.4089L88.4202 3.61267C88.7116 3.80581 89.0014 3.9998 89.2893 4.19467Z" fill="#754DFF"/>
<path d="M88.4177 3.61276L83.146 15.409C82.854 15.2159 82.5605 15.023 82.2656 14.8305L87.5374 3.03418C87.8322 3.22675 88.1257 3.41962 88.4177 3.61276Z" fill="#8662FF"/>
<path d="M87.5365 3.03458L82.2648 14.8309C81.9699 14.6383 81.6733 14.4466 81.375 14.2558L86.6467 2.45947C86.9451 2.65089 87.2417 2.84259 87.5365 3.03458Z" fill="#8C6BFF"/>
<path d="M86.6522 2.4595L81.3805 14.2558C81.0931 14.0741 80.8074 13.8925 80.5234 13.7108L85.7952 1.91455C86.0826 2.09562 86.3683 2.27728 86.6522 2.4595Z" fill="#9272FF"/>
<path d="M85.7873 1.91429L80.5155 13.7106C80.2974 13.5735 80.0792 13.4364 79.8594 13.3001L85.1319 1.50391C85.351 1.64014 85.5694 1.77691 85.7873 1.91429Z" fill="#9678FF"/>
<path d="M85.1353 1.50456L79.8627 13.3008C79.6437 13.164 79.4239 13.0275 79.2031 12.8913L84.4749 1.09497L85.1353 1.50456Z" fill="#9A7DFF"/>
<path d="M84.4756 1.0941L79.2038 12.8904C78.9831 12.7542 78.7607 12.6187 78.5391 12.4834L83.8108 0.687134C84.0332 0.822218 84.2548 0.957863 84.4756 1.0941Z" fill="#9E81FF"/>
<path d="M83.8089 0.687261L78.5371 12.4835C78.3147 12.3484 78.0914 12.2134 77.8672 12.0783L83.1389 0.281982C83.3631 0.416491 83.5864 0.551603 83.8089 0.687261Z" fill="#A186FF"/>
<path d="M83.1405 0.282652L77.8687 12.0789C77.6451 11.9444 77.4206 11.8102 77.1953 11.6763L82.467 -0.119995C82.6918 0.013939 82.9163 0.148143 83.1405 0.282652Z" fill="#A489FF"/>
<path d="M82.4691 -0.12095L77.1974 11.6753L76.5938 11.3175L81.8655 -0.47876L82.4691 -0.12095Z" fill="#A78DFF"/>
<path d="M81.8571 -0.478082L76.5854 11.3182L75.9922 10.9733L81.2639 -0.822998L81.8571 -0.478082Z" fill="#A991FF"/>
<path d="M81.266 -0.825303L75.9943 10.971C75.796 10.856 75.5973 10.741 75.3984 10.6261L80.6702 -1.17017C80.8693 -1.05549 81.0686 -0.93998 81.266 -0.825303Z" fill="#AC94FF"/>
<path d="M80.6722 -1.17186L75.4005 10.6244C75.2013 10.5089 75.0021 10.3942 74.7969 10.2795L80.0694 -1.51672C80.2695 -1.40176 80.469 -1.28683 80.6679 -1.17186" fill="#AE97FF"/>
<path d="M80.0792 -1.51488L74.8066 10.2814L74.2031 9.93649L79.4749 -1.85974C79.676 -1.74478 79.8772 -1.62984 80.0784 -1.51488" fill="#B19AFF"/>
<path d="M79.4768 -1.85715L74.2051 9.93908C74.0033 9.82527 73.8025 9.71149 73.6016 9.59854L78.8741 -2.19775L79.4777 -1.85284" fill="#B39DFF"/>
<path d="M78.8687 -2.19711L73.5961 9.59918C73.3662 9.47042 73.1362 9.34251 72.9062 9.21548L78.178 -2.58081L78.8677 -2.19711" fill="#B5A0FF"/>
<path d="M78.1826 -2.58324L72.911 9.21305C72.6704 9.08027 72.4289 8.94659 72.1875 8.81467L77.4592 -2.98157C77.7018 -2.84936 77.9429 -2.71659 78.1826 -2.58324Z" fill="#B7A2FF"/>
<path d="M77.4516 -2.97912L72.1799 8.81711C71.9385 8.68433 71.6963 8.55242 71.4531 8.42136L76.7257 -3.37488C76.9683 -3.24382 77.2102 -3.11191 77.4516 -2.97912Z" fill="#B9A5FF"/>
<path d="M76.7286 -3.37571L71.4561 8.42053C71.2135 8.28832 70.9703 8.157 70.7266 8.02651L75.9983 -3.76978L76.7286 -3.37571Z" fill="#BBA8FF"/>
<path d="M76.0054 -3.76944L70.7337 8.02685L70 7.63625L75.2726 -4.16003L76.0054 -3.76944Z" fill="#BDAAFF"/>
<path d="M75.2686 -4.16044L69.996 7.63585C69.5844 7.41857 69.1717 7.2021 68.7578 6.98654L74.0295 -4.80969C74.4434 -4.59471 74.8564 -4.37829 75.2686 -4.16044Z" fill="#BFADFF"/>
<path d="M74.0339 -4.80934L68.7621 6.98689C68.2086 6.69948 67.6525 6.4141 67.0938 6.13071L72.3663 -5.66553C72.9239 -5.38271 73.4797 -5.09733 74.0339 -4.80934Z" fill="#C1AFFF"/>
<path d="M72.3631 -5.66605L67.0905 6.13018C66.0771 5.61744 65.0573 5.11276 64.0312 4.61611L69.3038 -7.18018C70.3299 -6.6841 71.3497 -6.17937 72.3631 -5.66605Z" fill="#C3B1FF"/>
<path d="M69.3002 -7.18063L64.0276 4.61566C63.2947 4.26042 62.559 3.91007 61.8203 3.5646L67.092 -8.23169C67.8301 -7.88679 68.5661 -7.53644 69.3002 -7.18063Z" fill="#C1AFFF"/>
<path d="M67.0971 -8.23127L61.8254 3.56502C61.5581 3.43971 61.2907 3.31554 61.0234 3.19253L66.296 -8.60376C66.5633 -8.48017 66.8304 -8.356 67.0971 -8.23127Z" fill="#BFADFF"/>
<path d="M66.294 -8.60327L61.0214 3.19302L60.2188 2.82395L65.4904 -8.97229L66.294 -8.60327Z" fill="#BDAAFF"/>
<path d="M65.4902 -8.97197L60.2186 2.82427L59.4141 2.45957L64.6858 -9.33667C64.9548 -9.21596 65.2229 -9.0944 65.4902 -8.97197Z" fill="#BBA8FF"/>
<path d="M64.6872 -9.33659L59.4155 2.45964C59.1476 2.33835 58.879 2.21792 58.6094 2.09836L63.8819 -9.69788C64.1504 -9.57831 64.4188 -9.45788 64.6872 -9.33659Z" fill="#B9A5FF"/>
<path d="M63.8785 -9.69805L58.606 2.09818C58.3502 1.98322 58.0935 1.86828 57.8359 1.75332L63.1077 -10.043C63.3646 -9.928 63.6216 -9.81302 63.8785 -9.69805Z" fill="#B7A2FF"/>
<path d="M63.1088 -10.0393L57.837 1.75689L57.2266 1.48959L62.4983 -10.3066L63.1088 -10.0393Z" fill="#B5A0FF"/>
<path d="M62.4915 -10.3073L57.2197 1.48897L56.6094 1.22341L61.881 -10.5729L62.4915 -10.3073Z" fill="#B39DFF"/>
<path d="M61.8909 -10.5718L56.6192 1.2245L56.0078 0.965844L61.2795 -10.8304L61.8909 -10.5718Z" fill="#B19AFF"/>
<path d="M61.2815 -10.8353L56.0098 0.960955L55.3984 0.702294L60.6702 -11.094C60.8737 -11.0078 61.078 -10.9215 61.2815 -10.8353Z" fill="#AE97FF"/>
<path d="M60.6573 -11.0947L55.3856 0.701555L54.7734 0.442895L60.0452 -11.3534L60.6573 -11.0947Z" fill="#AC94FF"/>
<path d="M60.0636 -11.3547L54.7918 0.441545L54.1797 0.182885L59.4513 -11.6134L60.0636 -11.3547Z" fill="#A991FF"/>
<path d="M59.4394 -11.6092L54.1676 0.187029L53.5391 -0.0716314L58.8116 -11.8679L59.4394 -11.6092Z" fill="#A78DFF"/>
</svg>
