<svg width="32" height="32" viewBox="0 0 32 32" fill="none" xmlns="http://www.w3.org/2000/svg">
<path d="M30.25 16C30.25 23.8701 23.8701 30.25 16 30.25C8.12994 30.25 1.75 23.8701 1.75 16C1.75 8.12994 8.12994 1.75 16 1.75C23.8701 1.75 30.25 8.12994 30.25 16Z" fill="#090446" stroke="#090446" stroke-width="1.5"/>
<path d="M28.7996 13.7135C28.9168 14.3743 28.9842 15.0525 28.9975 15.7438L27.7478 15.768C27.7493 15.8451 27.75 15.9225 27.75 16C27.75 16.0775 27.7493 16.1549 27.7478 16.232L28.9975 16.2562C28.9842 16.9475 28.9168 17.6257 28.7996 18.2865L27.5688 18.0682C27.5419 18.22 27.512 18.3707 27.4793 18.5204L28.7005 18.7872C28.5538 19.4589 28.3551 20.1112 28.1089 20.7396L26.945 20.2837C26.8889 20.4271 26.83 20.569 26.7684 20.7096L27.9134 21.2111C27.6388 21.838 27.3162 22.439 26.9502 23.0096L25.8981 22.3347C25.815 22.4643 25.7294 22.5921 25.6413 22.7182L26.6662 23.4338C26.2758 23.993 25.8425 24.52 25.3711 25.0101L24.4702 24.1437C24.3635 24.2546 24.2546 24.3635 24.1437 24.4702L25.0101 25.3711C24.52 25.8425 23.993 26.2758 23.4338 26.6662L22.7182 25.6413C22.5921 25.7294 22.4643 25.815 22.3347 25.8981L23.0096 26.9502C22.439 27.3162 21.838 27.6388 21.2111 27.9134L20.7096 26.7684C20.569 26.83 20.4271 26.8889 20.2837 26.945L20.7396 28.1089C20.1112 28.3551 19.4589 28.5538 18.7872 28.7005L18.5204 27.4793C18.3707 27.512 18.22 27.5419 18.0682 27.5688L18.2865 28.7996C17.6257 28.9168 16.9475 28.9842 16.2562 28.9975L16.232 27.7478C16.1549 27.7493 16.0775 27.75 16 27.75C15.9225 27.75 15.8451 27.7493 15.768 27.7478L15.7438 28.9975C15.0525 28.9842 14.3743 28.9168 13.7135 28.7996L13.9318 27.5688C13.78 27.5419 13.6293 27.512 13.4796 27.4793L13.2128 28.7005C12.5411 28.5538 11.8888 28.3551 11.2604 28.1089L11.7163 26.945C11.5729 26.8889 11.431 26.83 11.2904 26.7684L10.7889 27.9134C10.162 27.6388 9.56097 27.3162 8.99042 26.9502L9.66533 25.8981C9.53575 25.815 9.40789 25.7294 9.28184 25.6413L8.56622 26.6662C8.00705 26.2758 7.48001 25.8425 6.98987 25.3711L7.85634 24.4702C7.74539 24.3635 7.63654 24.2546 7.52984 24.1437L6.62888 25.0101C6.1575 24.52 5.72421 23.993 5.33377 23.4338L6.35866 22.7182C6.27064 22.5921 6.18504 22.4643 6.10192 22.3347L5.04978 23.0096C4.68379 22.439 4.36117 21.838 4.08658 21.2111L5.23155 20.7096C5.16999 20.569 5.1111 20.4271 5.05495 20.2837L3.89106 20.7396C3.64488 20.1112 3.44622 19.4589 3.29949 18.7872L4.52069 18.5204C4.48799 18.3707 4.45814 18.22 4.43121 18.0682L3.20043 18.2865C3.08317 17.6257 3.01584 16.9475 3.00247 16.2562L4.25224 16.232C4.25075 16.1549 4.25 16.0775 4.25 16C4.25 15.9225 4.25075 15.8451 4.25224 15.768L3.00247 15.7438C3.01584 15.0525 3.08317 14.3743 3.20043 13.7135L4.43121 13.9318C4.45814 13.78 4.48799 13.6293 4.52069 13.4796L3.29949 13.2128C3.44622 12.5411 3.64488 11.8888 3.89106 11.2604L5.05495 11.7163C5.1111 11.5729 5.16999 11.431 5.23155 11.2904L4.08658 10.7889C4.36117 10.162 4.68379 9.56097 5.04978 8.99042L6.10192 9.66533C6.18504 9.53575 6.27064 9.40789 6.35866 9.28184L5.33377 8.56622C5.72421 8.00704 6.1575 7.48001 6.62888 6.98987L7.52984 7.85634C7.63654 7.74539 7.74539 7.63654 7.85633 7.52984L6.98987 6.62888C7.48001 6.1575 8.00705 5.72421 8.56622 5.33377L9.28184 6.35866C9.40789 6.27064 9.53575 6.18504 9.66533 6.10192L8.99042 5.04978C9.56097 4.68379 10.162 4.36117 10.7889 4.08658L11.2904 5.23155C11.431 5.16999 11.5729 5.1111 11.7163 5.05495L11.2604 3.89106C11.8888 3.64488 12.5411 3.44622 13.2128 3.29949L13.4796 4.52069C13.6293 4.48799 13.78 4.45814 13.9318 4.43121L13.7135 3.20043C14.3743 3.08317 15.0525 3.01584 15.7438 3.00247L15.768 4.25224C15.8451 4.25075 15.9225 4.25 16 4.25C16.0775 4.25 16.1549 4.25075 16.232 4.25224L16.2562 3.00247C16.9475 3.01584 17.6257 3.08317 18.2865 3.20043L18.0682 4.43121C18.22 4.45814 18.3707 4.48799 18.5204 4.52069L18.7872 3.29949C19.4589 3.44622 20.1112 3.64488 20.7396 3.89106L20.2837 5.05495C20.4271 5.1111 20.569 5.16999 20.7096 5.23155L21.2111 4.08658C21.838 4.36117 22.439 4.68379 23.0096 5.04978L22.3347 6.10192C22.4643 6.18504 22.5921 6.27064 22.7182 6.35866L23.4338 5.33377C23.993 5.72421 24.52 6.1575 25.0101 6.62888L24.1437 7.52984C24.2546 7.63654 24.3635 7.74539 24.4702 7.85633L25.3711 6.98987C25.8425 7.48001 26.2758 8.00704 26.6662 8.56622L25.6413 9.28184C25.7294 9.40789 25.815 9.53575 25.8981 9.66533L26.9502 8.99042C27.3162 9.56097 27.6388 10.162 27.9134 10.7889L26.7684 11.2904C26.83 11.431 26.8889 11.5729 26.945 11.7163L28.1089 11.2604C28.3551 11.8888 28.5538 12.5411 28.7005 13.2128L27.4793 13.4796C27.512 13.6293 27.5419 13.78 27.5688 13.9318L28.7996 13.7135Z" stroke="white" stroke-width="2.5" stroke-dasharray="0.5 2"/>
<path d="M17.747 15.8819L18.1498 15.5917C18.8362 15.1028 19.3136 14.6597 19.5822 14.2625C19.8607 13.8653 20 13.3917 20 12.8417C20 12.4343 19.9105 12.0574 19.7314 11.7111C19.5524 11.3648 19.3037 11.0644 18.9854 10.8097C18.677 10.5551 18.304 10.3565 17.8663 10.2139C17.4386 10.0713 16.976 10 16.4787 10C15.6232 10 14.8523 10.2139 14.166 10.6417C13.7672 10.8878 13.429 11.1871 13.1513 11.5394C12.83 11.9469 13.0515 12.5209 13.5233 12.7229C13.9606 12.9101 14.4512 12.6953 14.8031 12.3701C14.9091 12.2722 15.025 12.1849 15.1507 12.1083C15.5287 11.8741 15.9465 11.7569 16.4041 11.7569C16.8617 11.7569 17.2396 11.8741 17.5381 12.1083C17.8464 12.3324 18.0006 12.6176 18.0006 12.9639C18.0006 13.188 17.931 13.4019 17.7917 13.6056C17.6525 13.7991 17.4286 14.0079 17.1203 14.2319L16.3593 14.7972C15.8918 15.1537 15.5735 15.5356 15.4044 15.9431C15.3096 16.1714 15.2477 16.446 15.2185 16.7671C15.1757 17.2378 15.5711 17.6083 16.0328 17.6083C16.5226 17.6083 16.8725 17.1754 17.051 16.7083C17.0632 16.6762 17.0764 16.6452 17.0904 16.6153C17.2198 16.3505 17.4386 16.106 17.747 15.8819Z" fill="white"/>
<path d="M16.9263 18.8764C16.6975 18.6319 16.414 18.5097 16.0758 18.5097C15.7476 18.5097 15.4641 18.6319 15.2253 18.8764C14.9866 19.1208 14.8672 19.4162 14.8672 19.7625C14.8672 20.0986 14.9866 20.3889 15.2253 20.6333C15.4641 20.8778 15.7476 21 16.0758 21C16.414 21 16.6975 20.8778 16.9263 20.6333C17.165 20.3889 17.2844 20.0986 17.2844 19.7625C17.2844 19.4162 17.165 19.1208 16.9263 18.8764Z" fill="white"/>
</svg>
