<svg width="24" height="18" viewBox="0 0 24 18" fill="none" xmlns="http://www.w3.org/2000/svg">
<g clip-path="url(#clip0_19618_249678)">
<path fill-rule="evenodd" clip-rule="evenodd" d="M0 0H34.2V1.3875H0V0ZM0 2.77125H34.2V4.15875H0V2.77125ZM0 5.53875H34.2V6.92625H0V5.53875ZM0 8.30625H34.2V9.69375H0V8.30625ZM0 11.0813H34.2V12.4613H0V11.0813ZM0 13.845H34.2V15.2325H0V13.845ZM0 16.6125H34.2V18H0V16.6125Z" fill="#BD3D44"/>
<path fill-rule="evenodd" clip-rule="evenodd" d="M0 1.3877H34.2V2.77145H0V1.3877ZM0 4.1552H34.2V5.53895H0V4.1552ZM0 6.9227H34.2V8.3102H0V6.9227ZM0 9.69395H34.2V11.0814H0V9.69395ZM0 12.4614H34.2V13.8489H0V12.4614ZM0 15.2289H34.2V16.6164H0V15.2289Z" fill="white"/>
<path fill-rule="evenodd" clip-rule="evenodd" d="M0 0H13.68V9.69375H0V0Z" fill="#192F5D"/>
<path fill-rule="evenodd" clip-rule="evenodd" d="M1.14008 0.412598L1.26758 0.798848H1.66508L1.34258 1.0351L1.46633 1.42135L1.14008 1.18135L0.817578 1.4176L0.937578 1.0351L0.611328 0.798848H1.02008L1.14008 0.412598ZM3.42008 0.412598L3.54383 0.798848H3.94883L3.62258 1.0351L3.74258 1.42135L3.42008 1.18135L3.09383 1.4176L3.21758 1.0351L2.89508 0.798848H3.29258L3.42008 0.412598ZM5.70008 0.412598L5.82383 0.798848H6.22508L5.90258 1.0351L6.02633 1.42135L5.70008 1.18135L5.37383 1.4176L5.49758 1.0351L5.17133 0.798848H5.57633L5.70008 0.412598ZM7.98008 0.412598L8.10383 0.798848H8.50883L8.18258 1.0351L8.30633 1.42135L7.98008 1.18135L7.65383 1.4176L7.78133 1.0351L7.45133 0.798848H7.85258L7.98008 0.412598ZM10.2601 0.412598L10.3838 0.798848H10.7851L10.4626 1.0351L10.5863 1.42135L10.2601 1.18135L9.93383 1.4176L10.0576 1.0351L9.73508 0.798848H10.1363L10.2601 0.412598ZM12.5401 0.412598L12.6638 0.798848H13.0688L12.7388 1.0351L12.8663 1.42135L12.5401 1.18135L12.2138 1.4176L12.3413 1.0351L12.0113 0.798848H12.4163L12.5401 0.412598ZM2.28008 1.3876L2.40383 1.7701H2.81258L2.48633 2.0026L2.60633 2.38885L2.28758 2.1526L1.96133 2.38885L2.07758 2.0026L1.76258 1.7701H2.16383L2.28008 1.3876ZM4.56008 1.3876L4.68758 1.7701H5.08883L4.75883 2.0026L4.88633 2.38885L4.56008 2.1526L4.23383 2.38885L4.35758 2.0026L4.03133 1.7701H4.43633L4.56008 1.3876ZM6.84008 1.3876L6.96383 1.7701H7.36883L7.04258 2.0026L7.16633 2.38885L6.84008 2.1526L6.51383 2.38885L6.63758 2.0026L6.31508 1.7701H6.71258L6.84008 1.3876ZM9.12008 1.3876L9.24758 1.7701H9.64883L9.31883 2.0026L9.44633 2.38885L9.12008 2.1526L8.79758 2.38885L8.91758 2.0026L8.59133 1.7701H9.00008L9.12008 1.3876ZM11.4001 1.3876L11.5238 1.7701H11.9288L11.6026 2.0026L11.7263 2.38885L11.4001 2.1526L11.0738 2.38885L11.1976 2.0026L10.8751 1.7701H11.2763L11.4001 1.3876ZM1.14008 2.3476L1.26758 2.7376H1.66508L1.34258 2.97385L1.46633 3.35635L1.14008 3.1201L0.817578 3.35635L0.937578 2.97385L0.611328 2.7376H1.02008L1.14008 2.3476ZM3.42008 2.3476L3.54383 2.7376H3.94883L3.62258 2.97385L3.74258 3.35635L3.42008 3.1201L3.09383 3.35635L3.21758 2.9701L2.89508 2.73385H3.29258L3.42008 2.3476ZM5.70008 2.3476L5.82383 2.73385H6.22508L5.90258 2.9701L6.02633 3.3526L5.70008 3.11635L5.37383 3.3526L5.49758 2.96635L5.17133 2.7301H5.57633L5.70008 2.3476ZM7.98008 2.3476L8.10383 2.73385H8.50883L8.18258 2.9701L8.30633 3.3526L7.98008 3.11635L7.65383 3.3526L7.78133 2.96635L7.45133 2.7301H7.85258L7.98008 2.3476ZM10.2601 2.3476L10.3838 2.73385H10.7851L10.4626 2.9701L10.5863 3.3526L10.2601 3.11635L9.93383 3.3526L10.0576 2.96635L9.73508 2.7301H10.1363L10.2601 2.3476ZM12.5401 2.3476L12.6638 2.73385H13.0688L12.7388 2.9701L12.8663 3.3526L12.5401 3.11635L12.2138 3.3526L12.3413 2.96635L12.0113 2.7301H12.4163L12.5401 2.3476ZM2.28008 3.3226L2.40383 3.7051H2.81258L2.48633 3.94135L2.61008 4.3276L2.28383 4.0876L1.95758 4.32385L2.08133 3.94135L1.75883 3.7051H2.16008L2.28008 3.3226ZM4.56008 3.3226L4.68758 3.7051H5.08883L4.75883 3.94135L4.88633 4.3276L4.56008 4.0876L4.23383 4.32385L4.35758 3.94135L4.03133 3.7051H4.43633L4.56008 3.3226ZM6.84008 3.3226L6.96383 3.7051H7.36883L7.04258 3.94135L7.16633 4.3276L6.84008 4.0876L6.51383 4.32385L6.63758 3.94135L6.31508 3.7051H6.71258L6.84008 3.3226ZM9.12008 3.3226L9.24758 3.7051H9.64883L9.32258 3.94135L9.44633 4.3276L9.12008 4.0876L8.79758 4.32385L8.91758 3.94135L8.59133 3.7051H9.00008L9.12008 3.3226ZM11.4001 3.3226L11.5238 3.7051H11.9288L11.6026 3.94135L11.7263 4.3276L11.4001 4.0876L11.0738 4.32385L11.1976 3.94135L10.8751 3.7051H11.2763L11.4001 3.3226ZM1.14008 4.29385L1.26758 4.67635H1.66508L1.34258 4.9126L1.46633 5.29885L1.14008 5.05885L0.817578 5.2951L0.937578 4.9126L0.611328 4.67635H1.02008L1.14008 4.29385ZM3.42008 4.29385L3.54383 4.67635H3.94883L3.62258 4.9126L3.74258 5.2951L3.42008 5.05885L3.09383 5.2951L3.21758 4.9126L2.89508 4.67635H3.29258L3.42008 4.29385ZM5.70008 4.29385L5.82383 4.67635H6.22508L5.90258 4.9126L6.02633 5.29885L5.70008 5.05885L5.37383 5.2951L5.49758 4.9126L5.17133 4.67635H5.57633L5.70008 4.29385ZM7.98008 4.29385L8.10383 4.67635H8.50883L8.18258 4.9126L8.30633 5.29885L7.98008 5.05885L7.65383 5.2951L7.78133 4.9126L7.45133 4.67635H7.85258L7.98008 4.29385ZM10.2601 4.29385L10.3838 4.67635H10.7851L10.4626 4.9126L10.5863 5.29885L10.2601 5.05885L9.93383 5.2951L10.0576 4.9126L9.73508 4.67635H10.1363L10.2601 4.29385ZM12.5401 4.29385L12.6638 4.67635H13.0688L12.7388 4.9126L12.8663 5.29885L12.5401 5.05885L12.2138 5.2951L12.3376 4.9126L12.0076 4.67635H12.4126L12.5401 4.29385ZM2.28008 5.26135L2.40383 5.6476H2.81258L2.48633 5.8801L2.61008 6.26635L2.28383 6.02635L1.95758 6.26635L2.08133 5.8801L1.75883 5.64385H2.16008L2.28008 5.26135ZM4.56008 5.26135L4.68758 5.6476H5.08883L4.75883 5.8801L4.88633 6.26635L4.56008 6.02635L4.23383 6.26635L4.35758 5.8801L4.03133 5.64385H4.43633L4.56008 5.26135ZM6.84008 5.26135L6.96383 5.6476H7.36883L7.04258 5.8801L7.16633 6.26635L6.84008 6.02635L6.51383 6.26635L6.63758 5.8801L6.31508 5.64385H6.71258L6.84008 5.26135ZM9.12008 5.26135L9.24758 5.6476H9.64883L9.32258 5.8801L9.44633 6.26635L9.12008 6.02635L8.79758 6.26635L8.91758 5.8801L8.59133 5.64385H9.00008L9.12008 5.26135ZM11.4001 5.26135L11.5238 5.6476H11.9288L11.6026 5.8801L11.7263 6.26635L11.4001 6.02635L11.0738 6.26635L11.1976 5.8801L10.8751 5.64385H11.2763L11.4001 5.26135ZM1.14008 6.22885L1.26758 6.6151H1.66508L1.34258 6.85135L1.46633 7.2301L1.14008 6.9976L0.817578 7.2301L0.937578 6.8476L0.611328 6.61135H1.02008L1.14008 6.22885ZM3.42008 6.22885L3.54383 6.6151H3.94883L3.62258 6.85135L3.74633 7.2301L3.42008 6.9976L3.09383 7.2301L3.22133 6.8476L2.89508 6.61135H3.29258L3.42008 6.22885ZM5.70008 6.22885L5.82383 6.6151H6.22508L5.90258 6.85135L6.02633 7.2301L5.70008 6.9976L5.37383 7.2301L5.49758 6.8476L5.17133 6.61135H5.57633L5.70008 6.22885ZM7.98008 6.22885L8.10383 6.6151H8.50883L8.18258 6.85135L8.30633 7.2301L7.98008 6.9976L7.65383 7.2301L7.78133 6.8476L7.45133 6.61135H7.85258L7.98008 6.22885ZM10.2601 6.22885L10.3838 6.6151H10.7851L10.4626 6.85135L10.5863 7.2301L10.2601 6.9976L9.93383 7.2301L10.0576 6.8476L9.73508 6.61135H10.1363L10.2601 6.22885ZM12.5401 6.22885L12.6638 6.6151H13.0688L12.7388 6.85135L12.8663 7.2301L12.5401 6.9976L12.2138 7.2301L12.3413 6.8476L12.0113 6.61135H12.4163L12.5401 6.22885ZM2.28008 7.2001L2.40383 7.5826H2.81258L2.48633 7.81885L2.61008 8.2051L2.28383 7.9651L1.95758 8.20135L2.08133 7.81885L1.75883 7.5826H2.16008L2.28008 7.2001ZM4.56008 7.2001L4.68758 7.5826H5.08883L4.75883 7.81885L4.88633 8.2051L4.56008 7.9651L4.23383 8.20135L4.35758 7.81885L4.03133 7.5826H4.43633L4.56008 7.2001ZM6.84008 7.2001L6.96383 7.5826H7.36883L7.04258 7.81885L7.16633 8.2051L6.84008 7.9651L6.51383 8.20135L6.63758 7.81885L6.31508 7.5826H6.71258L6.84008 7.2001ZM9.12008 7.2001L9.24758 7.5826H9.64883L9.32258 7.81885L9.44633 8.2051L9.12008 7.9651L8.79758 8.20135L8.91758 7.81885L8.59133 7.5826H9.00008L9.12008 7.2001ZM11.4001 7.2001L11.5238 7.5826H11.9288L11.6026 7.81885L11.7263 8.2051L11.4001 7.9651L11.0738 8.20135L11.1976 7.81885L10.8751 7.5826H11.2763L11.4001 7.2001ZM1.14008 8.17135L1.26758 8.55385H1.66508L1.34258 8.7901L1.46633 9.1726L1.14008 8.93635L0.817578 9.1726L0.937578 8.78635L0.611328 8.5501H1.02008L1.14008 8.17135ZM3.42008 8.17135L3.54383 8.55385H3.94883L3.62258 8.7901L3.74633 9.1726L3.42008 8.93635L3.09383 9.1726L3.22133 8.78635L2.89508 8.5501H3.29258L3.42008 8.17135ZM5.70008 8.17135L5.82383 8.55385H6.22508L5.91008 8.7901L6.03383 9.1726L5.70758 8.93635L5.38133 9.1726L5.50508 8.78635L5.17883 8.5501H5.58383L5.70008 8.17135ZM7.98008 8.17135L8.10383 8.55385H8.50883L8.18258 8.7901L8.30633 9.1726L7.98008 8.93635L7.65383 9.1726L7.78133 8.78635L7.45133 8.5501H7.85258L7.98008 8.17135ZM10.2601 8.17135L10.3838 8.55385H10.7851L10.4626 8.7901L10.5863 9.1726L10.2601 8.93635L9.93383 9.1726L10.0576 8.78635L9.73508 8.5501H10.1363L10.2601 8.17135ZM12.5401 8.17135L12.6638 8.55385H13.0688L12.7388 8.7901L12.8663 9.1726L12.5401 8.93635L12.2138 9.1726L12.3413 8.78635L12.0113 8.5501H12.4163L12.5401 8.17135Z" fill="white"/>
</g>
<defs>
<clipPath id="clip0_19618_249678">
<rect width="24" height="18" rx="2" fill="white"/>
</clipPath>
</defs>
</svg>
