<svg width="16" height="16" viewBox="0 0 16 16" fill="none" xmlns="http://www.w3.org/2000/svg">
<circle cx="8" cy="8" r="8" fill="white"/>
<g clip-path="url(#clip0_4349_64907)">
<path d="M10.5521 6.28117C10.3698 6.177 10.1354 6.177 9.92708 6.28117L8.46875 7.14054L7.47917 7.68742L6.04687 8.54679C5.86458 8.65096 5.63021 8.65096 5.42187 8.54679L4.30208 7.86971C4.11979 7.76554 3.98958 7.55721 3.98958 7.32284V6.02075C3.98958 5.81242 4.09375 5.60409 4.30208 5.47388L5.42187 4.82284C5.60417 4.71867 5.83854 4.71867 6.04687 4.82284L7.16667 5.49992C7.34896 5.60409 7.47917 5.81242 7.47917 6.04679V6.90617L8.46875 6.33325V5.44784C8.46875 5.2395 8.36458 5.03117 8.15625 4.90096L6.07292 3.677C5.89062 3.57284 5.65625 3.57284 5.44792 3.677L3.3125 4.927C3.10417 5.03117 3 5.2395 3 5.44784V7.89575C3 8.10408 3.10417 8.31242 3.3125 8.44263L5.42187 9.66659C5.60417 9.77075 5.83854 9.77075 6.04687 9.66659L7.47917 8.83325L8.46875 8.26033L9.90104 7.427C10.0833 7.32284 10.3177 7.32284 10.526 7.427L11.6458 8.07804C11.8281 8.18221 11.9583 8.39054 11.9583 8.62492V9.927C11.9583 10.1353 11.8542 10.3437 11.6458 10.4739L10.5521 11.1249C10.3698 11.2291 10.1354 11.2291 9.92708 11.1249L8.80729 10.4739C8.625 10.3697 8.49479 10.1614 8.49479 9.927V9.09367L7.50521 9.66659V10.526C7.50521 10.7343 7.60937 10.9426 7.81771 11.0728L9.92708 12.2968C10.1094 12.401 10.3437 12.401 10.5521 12.2968L12.6615 11.0728C12.8437 10.9687 12.974 10.7603 12.974 10.526V8.052C12.974 7.84367 12.8698 7.63533 12.6615 7.50513L10.5521 6.28117Z" fill="#8247E5"/>
</g>
<defs>
<clipPath id="clip0_4349_64907">
<rect width="10" height="10" fill="white" transform="translate(3 3)"/>
</clipPath>
</defs>
</svg>
