<svg width="115" height="151" viewBox="0 0 115 151" fill="none" xmlns="http://www.w3.org/2000/svg">
<g clip-path="url(#clip0_8776_5902)">
<path d="M114.236 58.0425C114.125 59.6315 114.086 61.2307 113.892 62.808C111.829 79.5579 104.018 92.9796 90.3044 102.807C80.061 110.151 68.4996 113.579 55.9069 113.143C41.3448 112.642 28.7904 107.221 18.2632 97.1435C18.1663 97.0508 18.1687 96.6798 18.2632 96.5809C31.3933 83.4285 44.5357 70.2897 57.6903 57.1644C58.0014 56.8795 58.4038 56.715 58.8254 56.7003C77.2972 56.6774 95.7686 56.6708 114.24 56.6807L114.236 58.0425Z" fill="white"/>
<path d="M59.0782 0.112793C60.6311 0.230761 62.1873 0.299511 63.7348 0.466696C72.7965 1.44898 81.1421 4.44062 88.7718 9.44165C88.8235 9.48052 88.8731 9.52221 88.9202 9.56664L84.0971 14.3799C83.0472 15.4275 82.0044 16.4822 80.9419 17.5165C80.8748 17.56 80.798 17.5863 80.7184 17.5933C80.6387 17.6002 80.5585 17.5876 80.485 17.5564C72.8038 13.1372 64.5358 11.1046 55.6808 11.4588C35.8692 12.2572 18.598 26.2892 13.8476 45.5304C10.9072 57.4522 12.5431 68.7779 18.598 79.4676C18.6558 79.5692 18.6589 79.7933 18.5894 79.8583C15.961 82.5061 13.3235 85.1472 10.6768 87.7816C10.651 87.8074 10.619 87.8285 10.5589 87.8769C10.3097 87.491 10.0589 87.1176 9.82295 86.7363C3.29304 76.1801 0.410469 64.7068 1.3432 52.3225C3.28757 26.5782 22.4485 5.48697 47.9447 1.0081C50.5227 0.555758 53.1591 0.440915 55.7675 0.169824L56.3003 0.112793H59.0782Z" fill="white"/>
<path d="M87.7383 34.2402C87.7428 31.8891 88.5619 29.6123 90.0561 27.7971C91.5507 25.9821 93.6274 24.7408 95.9338 24.2849C98.2401 23.8289 100.633 24.1863 102.705 25.2963C104.778 26.4062 106.401 28.2001 107.3 30.3726C108.199 32.5451 108.317 34.9619 107.634 37.2117C106.952 39.4615 105.511 41.4052 103.557 42.7121C101.603 44.019 99.2559 44.6082 96.916 44.3794C94.5761 44.1506 92.3881 43.118 90.7239 41.4574C89.7761 40.5097 89.0247 39.3846 88.5123 38.1461C88 36.9077 87.737 35.5804 87.7383 34.2402Z" fill="white"/>
<path d="M24.0897 56.7099C26.6934 56.3234 28.9991 57.1779 30.2734 59.0248C30.9533 59.9955 31.3192 61.1378 31.6097 63.095L32.0557 66.1007L19.1417 68.0172L18.7033 65.064C18.4026 63.0369 18.4889 61.4523 18.9501 60.348C19.7664 58.3873 21.6431 57.0729 24.0897 56.7099ZM24.4475 59.1214C22.7874 59.3678 21.5184 60.3241 21.0708 61.6407C20.7979 62.4492 20.78 63.2912 21.0056 64.8116L21.0756 65.2834L29.4112 64.0464L29.3334 63.5221C29.1207 62.0891 28.7982 61.119 28.29 60.4622C27.4897 59.4022 26.0028 58.8906 24.4475 59.1214Z" fill="white"/>
<path d="M26.913 44.0021C29.3873 45.2158 30.4068 48.3525 29.1541 50.9062C27.8938 53.4757 24.8048 54.558 22.2671 53.3131C19.7452 52.0761 18.6944 48.9633 19.9469 46.4096C21.2462 43.7609 24.296 42.7184 26.913 44.0021ZM25.8071 46.0964C24.3478 45.3806 22.5822 45.9313 21.8898 47.3429C21.2129 48.7228 21.8346 50.4642 23.2779 51.1722C24.7847 51.9113 26.5267 51.3687 27.2269 49.9412C27.9116 48.5454 27.2821 46.8199 25.8071 46.0964Z" fill="white"/>
<path d="M36.5168 36.9063L35.061 38.7505L31.3031 35.7842C29.2508 34.1642 28.4524 34.4342 27.73 35.3494C27.2703 35.9318 27.1367 36.6141 27.3645 37.2666C27.5528 37.7979 27.9418 38.2175 28.968 39.0275L32.5872 41.8844L31.1314 43.7287L23.4492 37.6646L24.7956 35.959L25.5305 36.5391C25.4151 35.3452 25.6332 34.527 26.3228 33.6534C27.1657 32.5857 28.2108 32.0602 29.3259 32.1302C30.2505 32.1849 31.0256 32.5716 32.3984 33.6553L36.5168 36.9063Z" fill="white"/>
<path d="M43.5285 25.2311C45.1811 27.4366 44.6637 30.694 42.3876 32.3996C40.0972 34.1158 36.8539 33.6762 35.1589 31.4142C33.4745 29.1663 33.9529 25.9159 36.2291 24.2103C38.5901 22.4412 41.7805 22.8984 43.5285 25.2311ZM41.5916 26.5941C40.6169 25.2934 38.7939 24.9817 37.5357 25.9245C36.3057 26.8462 36.0681 28.6798 37.0322 29.9664C38.0385 31.3094 39.8369 31.6176 41.1093 30.6643C42.3534 29.732 42.5768 27.9089 41.5916 26.5941Z" fill="white"/>
<path d="M49.0923 19.4116C47.8945 20.1627 47.6891 21.1674 48.4638 22.4744L51.2382 27.1552L49.217 28.3533L44.2266 19.9339L46.0807 18.8349L46.5671 19.6556C46.6395 18.5653 46.921 18.0699 47.7872 17.5564L47.9392 17.4663L49.0923 19.4116Z" fill="white"/>
<path d="M60.5246 22.2007C60.9864 24.0156 59.8585 25.8156 57.9581 26.2991C56.0748 26.7783 54.4609 26.0953 53.6592 23.9476L55.9534 23.3638C56.3807 24.1119 56.8445 24.3585 57.5122 24.1886C58.0943 24.0405 58.4393 23.5334 58.3042 23.0027C58.1648 22.4548 58.04 22.3225 56.3855 22.1966C54.3411 22.0423 53.3874 21.4465 53.0345 20.0597C52.6206 18.4332 53.685 16.8134 55.4485 16.3647C57.0578 15.9552 58.7489 16.6551 59.2876 18.4139L57.0619 18.9802C56.8328 18.5098 56.4593 18.3314 55.9799 18.4534C55.4835 18.5798 55.1939 19.018 55.3115 19.4802C55.4379 19.9767 55.498 19.9979 57.1823 20.098C59.3251 20.2091 60.1674 20.7968 60.5246 22.2007Z" fill="white"/>
</g>
<path d="M8.69505 145.339C7.82393 145.339 7.00937 145.18 6.25137 144.863C5.50469 144.547 4.84852 144.111 4.28285 143.557C3.71718 142.991 3.27596 142.34 2.95919 141.605C2.64241 140.858 2.48403 140.061 2.48403 139.212C2.48403 138.364 2.63676 137.572 2.94222 136.837C3.25899 136.09 3.70021 135.439 4.26588 134.885C4.83155 134.319 5.48772 133.878 6.2344 133.561C6.98108 133.245 7.78999 133.086 8.66111 133.086C9.60012 133.086 10.4882 133.267 11.3254 133.629C12.1626 133.991 12.8697 134.495 13.4467 135.14L12.2248 136.327C11.7949 135.818 11.2632 135.428 10.6296 135.157C10.0074 134.874 9.35123 134.732 8.66111 134.732C8.03888 134.732 7.4619 134.845 6.93017 135.072C6.40976 135.298 5.95157 135.615 5.5556 136.022C5.15963 136.418 4.84852 136.887 4.62225 137.43C4.4073 137.974 4.29982 138.567 4.29982 139.212C4.29982 139.846 4.4073 140.44 4.62225 140.994C4.84852 141.537 5.15963 142.012 5.5556 142.42C5.96288 142.827 6.43238 143.144 6.96411 143.37C7.49584 143.596 8.07282 143.709 8.69505 143.709C9.39648 143.709 10.03 143.562 10.5957 143.268C11.1727 142.974 11.6422 142.572 12.0042 142.063C12.3662 141.543 12.5868 140.96 12.666 140.315H8.71202V138.754H14.5327V139.365C14.5327 140.214 14.3857 141 14.0915 141.724C13.7974 142.448 13.3844 143.082 12.8527 143.625C12.3323 144.168 11.7157 144.592 11.003 144.897C10.2902 145.191 9.52093 145.339 8.69505 145.339ZM16.1965 145.152V136.514H17.8935V145.152H16.1965ZM17.045 135.123C16.7621 135.123 16.5189 135.021 16.3153 134.817C16.1116 134.602 16.0098 134.353 16.0098 134.07C16.0098 133.776 16.1116 133.533 16.3153 133.341C16.5189 133.137 16.7621 133.035 17.045 133.035C17.3391 133.035 17.588 133.137 17.7916 133.341C17.9953 133.533 18.0971 133.776 18.0971 134.07C18.0971 134.353 17.9953 134.602 17.7916 134.817C17.588 135.021 17.3391 135.123 17.045 135.123ZM22.6752 145.152L18.9418 136.514H20.8085L23.5067 142.98L26.2049 136.514H28.0037L24.3043 145.152H22.6752ZM32.9486 145.305C32.1001 145.305 31.3308 145.107 30.6407 144.711C29.9619 144.315 29.4189 143.777 29.0116 143.098C28.6156 142.42 28.4177 141.662 28.4177 140.825C28.4177 139.999 28.61 139.252 28.9946 138.584C29.3793 137.906 29.8997 137.368 30.5559 136.972C31.2121 136.565 31.9418 136.361 32.745 136.361C33.5483 136.361 34.261 136.565 34.8832 136.972C35.5055 137.368 35.9976 137.911 36.3596 138.601C36.733 139.28 36.9196 140.05 36.9196 140.909V141.385H30.1147C30.2052 141.86 30.3805 142.284 30.6407 142.657C30.9122 143.031 31.2516 143.325 31.6589 143.54C32.0775 143.755 32.5301 143.862 33.0165 143.862C33.4351 143.862 33.8367 143.8 34.2214 143.675C34.6174 143.54 34.9455 143.347 35.2057 143.098L36.2917 144.168C35.7826 144.552 35.2566 144.841 34.7135 145.033C34.1818 145.214 33.5935 145.305 32.9486 145.305ZM30.1316 140.112H35.2396C35.1717 139.659 35.0133 139.263 34.7644 138.924C34.5269 138.573 34.2271 138.302 33.865 138.109C33.5143 137.906 33.1297 137.804 32.7111 137.804C32.2812 137.804 31.8852 137.9 31.5232 138.092C31.1611 138.285 30.8557 138.556 30.6068 138.907C30.3692 139.246 30.2108 139.648 30.1316 140.112ZM41.9868 145.305C41.1496 145.305 40.5104 145.112 40.0692 144.728C39.6279 144.332 39.4073 143.76 39.4073 143.014V137.94H37.5746V136.514H39.4073V134.308L41.0874 133.901V136.514H43.6329V137.94H41.0874V142.623C41.0874 143.065 41.1835 143.381 41.3759 143.574C41.5795 143.755 41.9076 143.845 42.3601 143.845C42.5977 143.845 42.807 143.828 42.988 143.794C43.1803 143.76 43.384 143.709 43.5989 143.642V145.067C43.3727 145.146 43.1068 145.203 42.8013 145.237C42.5072 145.282 42.2357 145.305 41.9868 145.305ZM44.8831 145.152V133.273L46.5801 132.9V137.397C47.2476 136.695 48.113 136.344 49.1765 136.344C49.844 136.344 50.4266 136.486 50.9244 136.769C51.4335 137.052 51.8295 137.447 52.1123 137.957C52.4064 138.466 52.5535 139.054 52.5535 139.721V145.152H50.8565V140.01C50.8565 139.331 50.6642 138.799 50.2795 138.415C49.8949 138.019 49.3688 137.821 48.7013 137.821C48.2488 137.821 47.8415 137.917 47.4795 138.109C47.1175 138.302 46.8177 138.579 46.5801 138.941V145.152H44.8831ZM60.0435 143.557H62.4872C63.1094 143.557 63.6864 143.449 64.2182 143.234C64.7499 143.008 65.2137 142.703 65.6097 142.318C66.017 141.922 66.3281 141.464 66.543 140.943C66.7693 140.412 66.8824 139.835 66.8824 139.212C66.8824 138.601 66.7693 138.03 66.543 137.498C66.3281 136.967 66.017 136.508 65.6097 136.124C65.2137 135.728 64.7499 135.422 64.2182 135.207C63.6864 134.981 63.1094 134.868 62.4872 134.868H60.0435V143.557ZM58.2617 145.152V133.273H62.4533C63.347 133.273 64.1729 133.426 64.9309 133.731C65.6889 134.025 66.3507 134.438 66.9164 134.97C67.482 135.502 67.9233 136.129 68.24 136.854C68.5568 137.578 68.7152 138.364 68.7152 139.212C68.7152 140.072 68.5568 140.864 68.24 141.588C67.9346 142.301 67.499 142.923 66.9334 143.455C66.3677 143.987 65.7002 144.405 64.9309 144.711C64.1729 145.005 63.347 145.152 62.4533 145.152H58.2617ZM74.4946 145.322C73.6574 145.322 72.8937 145.124 72.2036 144.728C71.5248 144.332 70.9874 143.794 70.5915 143.115C70.1955 142.437 69.9975 141.679 69.9975 140.841C69.9975 140.004 70.1955 139.246 70.5915 138.567C70.9874 137.889 71.5248 137.351 72.2036 136.955C72.8937 136.548 73.6574 136.344 74.4946 136.344C75.3431 136.344 76.1067 136.548 76.7855 136.955C77.4643 137.351 78.0017 137.889 78.3977 138.567C78.7936 139.246 78.9916 140.004 78.9916 140.841C78.9916 141.679 78.7936 142.437 78.3977 143.115C78.0017 143.794 77.4643 144.332 76.7855 144.728C76.1067 145.124 75.3431 145.322 74.4946 145.322ZM74.4946 143.828C75.0263 143.828 75.5071 143.698 75.937 143.438C76.3669 143.166 76.7063 142.804 76.9552 142.352C77.2041 141.899 77.3285 141.39 77.3285 140.825C77.3285 140.27 77.1984 139.772 76.9382 139.331C76.6893 138.879 76.3499 138.517 75.92 138.245C75.5014 137.974 75.0263 137.838 74.4946 137.838C73.9628 137.838 73.482 137.974 73.0521 138.245C72.6335 138.517 72.2941 138.879 72.0339 139.331C71.785 139.772 71.6606 140.27 71.6606 140.825C71.6606 141.39 71.785 141.899 72.0339 142.352C72.2828 142.804 72.6222 143.166 73.0521 143.438C73.482 143.698 73.9628 143.828 74.4946 143.828ZM80.5963 145.152V136.514H82.2933V137.397C82.9608 136.695 83.8263 136.344 84.8898 136.344C85.5572 136.344 86.1399 136.486 86.6377 136.769C87.1468 137.052 87.5427 137.447 87.8256 137.957C88.1197 138.466 88.2668 139.054 88.2668 139.721V145.152H86.5698V140.01C86.5698 139.331 86.3775 138.799 85.9928 138.415C85.6195 138.019 85.0934 137.821 84.4146 137.821C83.9621 137.821 83.5548 137.917 83.1928 138.109C82.8307 138.302 82.5309 138.579 82.2933 138.941V145.152H80.5963ZM94.3316 145.322C93.4944 145.322 92.7307 145.124 92.0406 144.728C91.3618 144.332 90.8244 143.794 90.4285 143.115C90.0325 142.437 89.8345 141.679 89.8345 140.841C89.8345 140.004 90.0325 139.246 90.4285 138.567C90.8244 137.889 91.3618 137.351 92.0406 136.955C92.7307 136.548 93.4944 136.344 94.3316 136.344C95.1801 136.344 95.9437 136.548 96.6225 136.955C97.3013 137.351 97.8387 137.889 98.2347 138.567C98.6306 139.246 98.8286 140.004 98.8286 140.841C98.8286 141.679 98.6306 142.437 98.2347 143.115C97.8387 143.794 97.3013 144.332 96.6225 144.728C95.9437 145.124 95.1801 145.322 94.3316 145.322ZM94.3316 143.828C94.8633 143.828 95.3441 143.698 95.774 143.438C96.2039 143.166 96.5433 142.804 96.7922 142.352C97.0411 141.899 97.1656 141.39 97.1656 140.825C97.1656 140.27 97.0355 139.772 96.7753 139.331C96.5264 138.879 96.187 138.517 95.7571 138.245C95.3385 137.974 94.8633 137.838 94.3316 137.838C93.7998 137.838 93.319 137.974 92.8891 138.245C92.4705 138.517 92.1311 138.879 91.8709 139.331C91.622 139.772 91.4976 140.27 91.4976 140.825C91.4976 141.39 91.622 141.899 91.8709 142.352C92.1198 142.804 92.4592 143.166 92.8891 143.438C93.319 143.698 93.7998 143.828 94.3316 143.828ZM100.433 145.152V136.514H102.13V137.617C102.402 137.21 102.736 136.893 103.132 136.667C103.539 136.429 103.997 136.31 104.506 136.31C104.857 136.322 105.145 136.373 105.372 136.463V137.991C105.213 137.923 105.049 137.877 104.879 137.855C104.71 137.821 104.54 137.804 104.37 137.804C103.873 137.804 103.431 137.94 103.047 138.211C102.662 138.471 102.357 138.856 102.13 139.365V145.152H100.433ZM109.701 145.322C108.954 145.322 108.252 145.214 107.596 144.999C106.951 144.773 106.391 144.456 105.916 144.049L106.85 142.929C107.291 143.279 107.743 143.551 108.207 143.743C108.682 143.924 109.163 144.015 109.65 144.015C110.261 144.015 110.758 143.896 111.143 143.658C111.528 143.421 111.72 143.11 111.72 142.725C111.72 142.408 111.607 142.159 111.381 141.978C111.154 141.797 110.804 141.673 110.328 141.605L108.767 141.385C107.907 141.26 107.263 140.994 106.833 140.587C106.403 140.18 106.188 139.637 106.188 138.958C106.188 138.437 106.329 137.985 106.612 137.6C106.895 137.204 107.291 136.899 107.8 136.684C108.309 136.458 108.903 136.344 109.582 136.344C110.204 136.344 110.804 136.435 111.381 136.616C111.958 136.797 112.512 137.08 113.044 137.464L112.178 138.584C111.703 138.268 111.239 138.036 110.787 137.889C110.345 137.742 109.899 137.668 109.446 137.668C108.926 137.668 108.507 137.781 108.19 138.007C107.873 138.222 107.715 138.505 107.715 138.856C107.715 139.173 107.823 139.422 108.038 139.603C108.264 139.772 108.631 139.891 109.141 139.959L110.702 140.18C111.562 140.304 112.212 140.57 112.653 140.977C113.095 141.373 113.315 141.911 113.315 142.589C113.315 143.11 113.157 143.579 112.84 143.998C112.523 144.405 112.093 144.728 111.55 144.965C111.007 145.203 110.391 145.322 109.701 145.322Z" fill="white"/>
<defs>
<clipPath id="clip0_8776_5902">
<rect width="113.065" height="113.065" fill="white" transform="translate(1.17188 0.112793)"/>
</clipPath>
</defs>
</svg>
