<svg width="16" height="16" viewBox="0 0 16 16" fill="none" xmlns="http://www.w3.org/2000/svg">
<path d="M7.99882 15.8624C12.3419 15.8624 15.8626 12.3417 15.8626 7.99864C15.8626 3.65558 12.3419 0.134827 7.99882 0.134827C3.65577 0.134827 0.13501 3.65558 0.13501 7.99864C0.13501 12.3417 3.65577 15.8624 7.99882 15.8624Z" fill="white"/>
<path fill-rule="evenodd" clip-rule="evenodd" d="M7.99866 0.269739C3.73006 0.269739 0.269678 3.73012 0.269678 7.99872C0.269678 12.2673 3.73006 15.7277 7.99866 15.7277C12.2673 15.7277 15.7276 12.2673 15.7276 7.99872C15.7276 3.73012 12.2673 0.269739 7.99866 0.269739ZM0 7.99872C0 3.58118 3.58111 6.10352e-05 7.99866 6.10352e-05C12.4162 6.10352e-05 15.9973 3.58118 15.9973 7.99872C15.9973 12.4162 12.4162 15.9974 7.99866 15.9974C3.58111 15.9974 0 12.4162 0 7.99872Z" fill="#231F20"/>
<path d="M7.99881 14.8026C11.7565 14.8026 14.8028 11.7563 14.8028 7.99863C14.8028 4.24089 11.7565 1.19464 7.99881 1.19464C4.24107 1.19464 1.19482 4.24089 1.19482 7.99863C1.19482 11.7563 4.24107 14.8026 7.99881 14.8026Z" fill="#009F55"/>
<path fill-rule="evenodd" clip-rule="evenodd" d="M7.99896 1.46434C4.39016 1.46434 1.46465 4.38985 1.46465 7.99865C1.46465 11.6074 4.39016 14.5329 7.99896 14.5329C11.6078 14.5329 14.5332 11.6074 14.5332 7.99865C14.5332 4.38985 11.6078 1.46434 7.99896 1.46434ZM0.925293 7.99865C0.925293 4.09196 4.09227 0.924988 7.99896 0.924988C11.9056 0.924988 15.0726 4.09196 15.0726 7.99865C15.0726 11.9053 11.9056 15.0723 7.99896 15.0723C4.09227 15.0723 0.925293 11.9053 0.925293 7.99865Z" fill="#231F20"/>
<path d="M10.944 11.0612C10.8709 11.1123 10.7704 11.1471 10.6425 11.1653C10.5218 11.1836 10.4341 11.18 10.3793 11.1544C10.3647 11.1471 10.3501 11.1215 10.3354 11.0776C10.3245 11.0301 10.3099 10.9972 10.2916 10.9789C10.2843 10.9716 10.2752 10.9661 10.2642 10.9625C10.118 10.8821 9.96082 10.8126 9.79271 10.7542C9.39796 10.608 8.99045 10.5184 8.57014 10.4855C8.35451 9.97018 8.23754 9.68875 8.21925 9.64124C8.09134 9.31595 8.05114 9.12955 8.09865 9.08204L12.2214 4.9593C12.247 4.9337 12.3256 4.93918 12.4571 4.97572C12.5924 5.01592 12.6782 5.05798 12.7148 5.10184C12.755 5.14935 12.8135 5.2663 12.8903 5.4527C12.9707 5.63544 13.0529 5.76884 13.1369 5.85292C13.2466 5.96255 13.4385 6.05575 13.7126 6.13252C13.9684 6.19829 14.1092 6.25861 14.1347 6.31344C14.1932 6.43038 14.2261 6.65698 14.2334 6.99324C14.2481 7.32949 14.2279 7.53967 14.1731 7.62372C14.1475 7.66392 14.0562 7.68584 13.899 7.68949C13.7455 7.69681 13.645 7.67672 13.5975 7.62921C13.5573 7.58901 13.5335 7.55427 13.5262 7.52504C13.5189 7.49578 13.5098 7.47935 13.4988 7.47569C13.338 7.37335 13.1808 7.28564 13.0273 7.21255C12.6655 7.03344 12.3603 6.94024 12.1117 6.93292L11.2181 7.82655C11.4118 7.88869 11.6457 7.98738 11.9199 8.12261C11.9857 8.17378 12.0259 8.37847 12.0405 8.73664C12.0624 9.09481 12.0405 9.30681 11.9747 9.37258C11.9345 9.41281 11.8614 9.43472 11.7554 9.43838C11.6494 9.44204 11.5653 9.42741 11.5032 9.39452C11.4666 9.35798 11.399 9.29767 11.3004 9.21361C11.1359 9.10029 10.774 8.97238 10.2148 8.82984L9.63919 9.40549C9.81462 9.44935 10.0394 9.52061 10.3135 9.61929C10.595 9.71798 10.7576 9.78927 10.8014 9.83312C10.8526 9.88429 10.9001 10.0926 10.944 10.4581C10.9952 10.8236 10.9952 11.0246 10.944 11.0612Z" fill="white"/>
<path fill-rule="evenodd" clip-rule="evenodd" d="M12.2921 5.0789L8.2139 9.15708C8.21447 9.17196 8.2173 9.19531 8.22456 9.22905C8.24236 9.31151 8.28124 9.43142 8.34433 9.59188L8.34453 9.59236L8.3447 9.59282C8.36118 9.6357 8.46653 9.88942 8.66264 10.3582C9.06584 10.3969 9.45767 10.4866 9.83787 10.6272C10.009 10.6868 10.17 10.7576 10.3204 10.8398C10.344 10.8495 10.3667 10.8637 10.3865 10.8836C10.4302 10.9273 10.4519 10.9874 10.4645 11.0393C10.4936 11.0433 10.5434 11.0439 10.6219 11.032L10.6224 11.0319L10.623 11.0318C10.7215 11.0178 10.7925 10.9941 10.8422 10.9659C10.845 10.9486 10.8471 10.9218 10.8471 10.883C10.8471 10.7919 10.8354 10.6576 10.81 10.4768L10.8099 10.4755L10.8097 10.4742C10.788 10.2933 10.7658 10.1552 10.7436 10.0577C10.7324 10.0089 10.722 9.97325 10.7127 9.9489C10.7082 9.93716 10.7049 9.93025 10.7031 9.92679C10.6994 9.92425 10.6922 9.91956 10.6802 9.91285C10.6595 9.90131 10.6305 9.88713 10.592 9.87028C10.5152 9.83662 10.4078 9.79542 10.2685 9.74656L10.268 9.74636L10.2674 9.74616C9.99536 9.64822 9.7753 9.57862 9.60607 9.5363L9.37504 9.47853L10.1734 8.68022L10.2477 8.69919C10.5295 8.77102 10.764 8.83976 10.9502 8.90556C11.134 8.97056 11.2792 9.03556 11.3764 9.10256L11.3821 9.10648L11.3874 9.11096C11.4733 9.18413 11.5385 9.24173 11.5809 9.28233C11.6156 9.29645 11.6696 9.30642 11.7503 9.30362C11.7959 9.30205 11.8284 9.29668 11.8506 9.29005C11.8668 9.28516 11.8746 9.28048 11.8775 9.27839C11.8789 9.27596 11.8824 9.2691 11.8868 9.25525C11.8941 9.23222 11.901 9.19808 11.9059 9.15039C11.9158 9.05502 11.9162 8.92085 11.9055 8.74488L11.9054 8.7435L11.9053 8.74213C11.8981 8.56579 11.8848 8.43296 11.8666 8.3405C11.8575 8.29416 11.848 8.26208 11.8394 8.24139C11.8377 8.23722 11.8362 8.2339 11.8349 8.2313C11.575 8.10408 11.3559 8.01251 11.1765 7.95496L10.9661 7.88748L12.0571 6.79645L12.1153 6.79816C12.3914 6.80628 12.7165 6.90856 13.0858 7.09125C13.2422 7.16576 13.4014 7.25453 13.5635 7.3573C13.6013 7.37708 13.6218 7.40816 13.6313 7.42528C13.6434 7.44708 13.6509 7.4701 13.6559 7.48962C13.6565 7.49073 13.6578 7.49313 13.6604 7.49688C13.6662 7.50536 13.6761 7.51753 13.692 7.53342C13.692 7.53336 13.7018 7.54116 13.7345 7.54771C13.77 7.55479 13.8215 7.55819 13.8922 7.55482L13.8938 7.55473L13.8954 7.55471C13.9699 7.55299 14.0212 7.54696 14.0535 7.53922C14.0589 7.5379 14.0633 7.53668 14.0668 7.53559C14.0755 7.5133 14.0872 7.46862 14.0947 7.39022C14.1039 7.29388 14.1055 7.16419 14.0983 6.9991L14.0982 6.99765L14.0982 6.99619C14.0946 6.83128 14.0848 6.69645 14.0694 6.59048C14.0549 6.49053 14.0364 6.42376 14.0182 6.3831C14.0177 6.38282 14.0173 6.38248 14.0168 6.38216C14.0062 6.37479 13.9871 6.36416 13.9565 6.35102C13.8954 6.32485 13.8039 6.29533 13.6786 6.2631L13.6772 6.26276L13.6758 6.26236C13.3952 6.18379 13.1758 6.0829 13.0412 5.94828C12.9399 5.84702 12.8496 5.6961 12.7664 5.50702L12.7658 5.50553L12.7652 5.50405C12.7274 5.41245 12.695 5.3399 12.6678 5.28548C12.6393 5.2285 12.6205 5.19965 12.6115 5.18893L12.6111 5.18853L12.6108 5.18822C12.6108 5.18822 12.6081 5.18516 12.6003 5.17968C12.5921 5.1739 12.5801 5.16676 12.5633 5.15853C12.5296 5.14205 12.4824 5.12408 12.4195 5.10533C12.3595 5.08873 12.3181 5.08099 12.2921 5.0789ZM14.0232 6.3871C14.0232 6.3871 14.0229 6.3869 14.0225 6.38648C14.023 6.3869 14.0232 6.3871 14.0232 6.3871ZM14.0779 7.53136C14.0779 7.53136 14.0779 7.53139 14.0779 7.53139C14.0782 7.53125 14.0782 7.53125 14.0779 7.53136ZM10.8378 10.9841C10.8378 10.984 10.8381 10.983 10.8388 10.9814C10.8383 10.9833 10.8379 10.9841 10.8378 10.9841ZM8.21441 9.14128C8.21447 9.14133 8.21438 9.14208 8.2141 9.14342C8.21424 9.1419 8.21438 9.14125 8.21441 9.14128ZM12.3085 4.8097C12.361 4.81336 12.4236 4.82662 12.4928 4.84582L12.494 4.84613L12.4952 4.84648C12.5669 4.86782 12.6298 4.89085 12.6818 4.9163C12.7317 4.94068 12.7817 4.97213 12.8176 5.01508C12.8486 5.05188 12.8791 5.1051 12.909 5.16488C12.9401 5.22708 12.9751 5.3057 13.0139 5.39985C13.0913 5.57545 13.1652 5.69088 13.2319 5.75756C13.3164 5.84208 13.4804 5.92745 13.7472 6.0023C13.8771 6.03573 13.9834 6.06916 14.0627 6.10316C14.1024 6.12016 14.1394 6.13899 14.1703 6.16042C14.1986 6.18002 14.2343 6.21013 14.2556 6.25442C14.294 6.33179 14.3192 6.43385 14.3363 6.55173C14.3538 6.67202 14.364 6.81816 14.3678 6.98885C14.3752 7.15939 14.374 7.30239 14.3631 7.4159C14.3528 7.52348 14.3323 7.62548 14.286 7.69685C14.2429 7.76388 14.1672 7.78925 14.1164 7.80145C14.0578 7.81553 13.9854 7.8223 13.9034 7.82428C13.8211 7.8281 13.7462 7.82505 13.6816 7.81213C13.618 7.79942 13.5518 7.77462 13.5017 7.72456C13.4605 7.68333 13.4184 7.63213 13.3992 7.57253C13.2519 7.48008 13.1085 7.40073 12.9689 7.33428L12.968 7.33385L12.9671 7.33339C12.6426 7.17279 12.3762 7.08888 12.164 7.07099L11.4637 7.7713C11.618 7.83142 11.79 7.90839 11.9791 8.0017L11.9914 8.00776L12.0022 8.01619C12.0456 8.04988 12.0716 8.09728 12.0886 8.13816C12.1065 8.18145 12.1202 8.23251 12.1312 8.28851C12.1532 8.40045 12.1673 8.54856 12.1747 8.72979C12.1858 8.91139 12.1862 9.06182 12.1742 9.17813C12.1682 9.23645 12.1586 9.29005 12.144 9.33645C12.1298 9.38128 12.1076 9.4299 12.0696 9.46793C11.9916 9.54602 11.8735 9.56922 11.7596 9.57313C11.6411 9.57722 11.5306 9.56185 11.4397 9.51371L11.4218 9.50422L11.4074 9.48988C11.3758 9.45819 11.3137 9.40256 11.2181 9.32099C11.15 9.27542 11.0336 9.2211 10.8603 9.15982C10.7005 9.10333 10.4991 9.04325 10.2553 8.97965L9.89724 9.33771C10.0327 9.37879 10.1864 9.43039 10.3583 9.49225C10.5001 9.54199 10.6146 9.58571 10.7003 9.62328C10.7432 9.64205 10.7806 9.66008 10.8115 9.6773C10.8403 9.69333 10.8719 9.7133 10.8964 9.73776C10.93 9.77139 10.9508 9.81616 10.9648 9.85305C10.9802 9.89356 10.9939 9.94245 11.0065 9.99776C11.0318 10.1084 11.0552 10.2567 11.0773 10.4407C11.103 10.6248 11.1168 10.7733 11.1168 10.883C11.1168 10.9375 11.1135 10.9882 11.1042 11.0313C11.0965 11.0672 11.0782 11.1307 11.022 11.1709L11.0214 11.1713L11.0209 11.1716C10.9246 11.239 10.8016 11.2787 10.6617 11.2987C10.537 11.3176 10.415 11.32 10.3219 11.2766L10.3202 11.2758L10.3186 11.275C10.275 11.2532 10.2512 11.2164 10.2399 11.1966C10.2264 11.173 10.2158 11.1464 10.2071 11.1202L10.2051 11.1142L10.2037 11.1079C10.2007 11.095 10.1978 11.0854 10.1953 11.0787C10.0571 11.003 9.9081 10.9372 9.74798 10.8815L9.74673 10.8811L9.74547 10.8806C9.36241 10.7387 8.96713 10.6519 8.55921 10.62L8.47713 10.6135L8.44533 10.5376C8.2311 10.0256 8.11298 9.74148 8.09318 9.69016C8.02847 9.52551 7.98333 9.38973 7.96096 9.2859C7.94984 9.23439 7.94287 9.18436 7.94427 9.1395C7.94553 9.09933 7.95416 9.03542 8.0029 8.98668L12.1256 4.86393C12.158 4.83153 12.1968 4.8189 12.2246 4.81353C12.2532 4.80802 12.2822 4.80788 12.3085 4.8097Z" fill="#231F20"/>
<path d="M5.1703 11.0689C5.2437 11.1203 5.34464 11.1552 5.47307 11.1735C5.59418 11.1918 5.68227 11.1882 5.7373 11.1625C5.75198 11.1552 5.76667 11.1295 5.78135 11.0854C5.79235 11.0377 5.80704 11.0047 5.82538 10.9863C5.83273 10.979 5.8419 10.9735 5.8529 10.9698C5.9997 10.8891 6.1575 10.8194 6.32632 10.7606C6.72267 10.6138 7.13187 10.5239 7.5539 10.4909C7.77041 9.97345 7.88784 9.69088 7.90618 9.64316C8.03464 9.31656 8.07501 9.12939 8.0273 9.08168L3.8877 4.94208C3.86201 4.91639 3.7831 4.92188 3.65098 4.95859C3.51521 4.99896 3.42895 5.04116 3.39227 5.08519C3.3519 5.13291 3.29318 5.25034 3.2161 5.43751C3.13535 5.62099 3.05278 5.75494 2.96838 5.83936C2.8583 5.94945 2.66562 6.04302 2.39038 6.12011C2.13349 6.18616 1.9922 6.24671 1.96651 6.30176C1.9078 6.41919 1.87477 6.64674 1.86743 6.98436C1.85275 7.32196 1.87293 7.53299 1.92798 7.61739C1.95367 7.65776 2.04542 7.67979 2.20322 7.68345C2.35735 7.69079 2.45828 7.67062 2.50599 7.62291C2.54635 7.58254 2.57021 7.54768 2.57755 7.51831C2.58489 7.48896 2.59406 7.47245 2.60507 7.46876C2.76655 7.36602 2.92435 7.27794 3.0785 7.20454C3.44181 7.02471 3.74824 6.93114 3.99778 6.92379L4.89507 7.82108C4.70055 7.88348 4.4657 7.98256 4.19047 8.11834C4.12441 8.16971 4.08404 8.37522 4.06935 8.73488C4.04733 9.09454 4.06935 9.30736 4.13541 9.37342C4.17578 9.41379 4.24918 9.43582 4.35561 9.43948C4.46201 9.44316 4.54644 9.42848 4.60881 9.39545C4.64553 9.35876 4.71341 9.29819 4.8125 9.21379C4.97764 9.10002 5.34095 8.97159 5.90244 8.82845L6.48044 9.40645C6.3043 9.45051 6.07861 9.52208 5.80335 9.62116C5.52078 9.72025 5.35747 9.79179 5.31344 9.83585C5.26207 9.88722 5.21435 10.0964 5.1703 10.4634C5.11893 10.8304 5.11893 11.0322 5.1703 11.0689Z" fill="white"/>
<path fill-rule="evenodd" clip-rule="evenodd" d="M3.88448 4.79573C3.91239 4.80113 3.95128 4.81382 3.98382 4.84636L8.12342 8.98596C8.17236 9.0349 8.18102 9.09907 8.18228 9.13942C8.18368 9.18444 8.1767 9.23467 8.16553 9.28642C8.14305 9.39067 8.09773 9.52702 8.03273 9.69233C8.01285 9.7439 7.89425 10.0292 7.67916 10.5432L7.64725 10.6195L7.56485 10.6259C7.15525 10.658 6.75833 10.7452 6.37373 10.8876L6.37245 10.8881L6.37119 10.8885C6.21042 10.9445 6.06076 11.0105 5.92205 11.0866C5.91959 11.0933 5.91665 11.1028 5.91365 11.1159L5.91219 11.1222L5.91016 11.1283C5.90142 11.1546 5.89079 11.1813 5.87725 11.2049C5.8659 11.2248 5.84196 11.2618 5.79825 11.2836L5.79659 11.2844L5.79493 11.2852C5.70145 11.3288 5.57896 11.3264 5.4537 11.3075C5.31325 11.2873 5.18976 11.2476 5.09305 11.1798L5.09253 11.1795L5.09199 11.1791C5.03553 11.1388 5.01719 11.075 5.00945 11.039C5.0001 10.9957 4.99676 10.9447 4.99676 10.89C4.99676 10.7799 5.01056 10.6308 5.03642 10.446C5.05862 10.2612 5.08216 10.1122 5.1075 10.0012C5.12016 9.94564 5.13396 9.89653 5.14942 9.85584C5.1635 9.81884 5.18433 9.77387 5.21808 9.74013C5.24265 9.71556 5.27442 9.6955 5.30328 9.67942C5.33433 9.6621 5.37196 9.64402 5.41499 9.62516C5.50105 9.58744 5.61599 9.54356 5.75839 9.49362C5.93093 9.4315 6.08533 9.37967 6.2213 9.33842L5.86176 8.9789C5.61699 9.04276 5.41479 9.1031 5.25436 9.15982C5.0803 9.22133 4.96342 9.2759 4.8951 9.32165C4.79905 9.40356 4.73676 9.45939 4.70493 9.49122L4.69053 9.50562L4.67256 9.51513C4.58125 9.56347 4.47028 9.57893 4.3513 9.57482C4.23699 9.57087 4.11845 9.54759 4.04005 9.46919C4.00188 9.43102 3.97962 9.38219 3.96539 9.33716C3.95068 9.29056 3.9411 9.23676 3.93505 9.17822C3.92299 9.06142 3.92339 8.91033 3.9345 8.72802C3.94199 8.54604 3.95608 8.39733 3.97816 8.28493C3.98922 8.2287 4.00302 8.17742 4.02102 8.13399C4.03805 8.0929 4.06422 8.04533 4.1077 8.0115L4.11859 8.00304L4.13093 7.99693C4.32082 7.90327 4.49348 7.82596 4.64848 7.76562L3.9453 7.06242C3.73228 7.08039 3.4647 7.16464 3.13893 7.3259L3.13799 7.32636L3.13708 7.32682C2.99696 7.39353 2.85295 7.47319 2.70504 7.56602C2.6858 7.62587 2.64349 7.67727 2.6021 7.71867C2.55184 7.76893 2.48528 7.79384 2.42145 7.80662C2.35662 7.81959 2.28138 7.82264 2.19881 7.81879C2.11648 7.81682 2.04379 7.81002 1.98484 7.79587C1.93387 7.78364 1.85787 7.75813 1.81461 7.69084C1.7681 7.61919 1.7475 7.51679 1.73716 7.40876C1.72626 7.29479 1.72508 7.15119 1.73248 6.97996C1.73625 6.80856 1.74657 6.66182 1.7641 6.54104C1.78128 6.42267 1.8066 6.32019 1.84517 6.2425C1.86656 6.19804 1.90235 6.16782 1.93077 6.14813C1.96185 6.12662 1.99892 6.10773 2.0388 6.09064C2.11846 6.0565 2.22518 6.02296 2.35562 5.98936C2.62354 5.91422 2.78819 5.82847 2.87305 5.74364C2.93999 5.67667 3.01422 5.56076 3.09193 5.38445C3.13088 5.28993 3.16599 5.21099 3.19722 5.14853C3.22725 5.0885 3.25785 5.03504 3.28899 4.9981C3.32508 4.95499 3.3753 4.92342 3.42533 4.89893C3.47753 4.87339 3.54073 4.85025 3.61279 4.82882L3.61396 4.82847L3.61513 4.82816C3.68459 4.80887 3.74745 4.79556 3.80022 4.7919C3.82659 4.79005 3.85573 4.79019 3.88448 4.79573ZM3.68879 5.08873C3.62562 5.10756 3.57819 5.12559 3.54436 5.14213C3.5275 5.15039 3.51545 5.15759 3.50722 5.16336C3.49936 5.16887 3.49662 5.17196 3.49662 5.17193L3.49633 5.17227L3.49599 5.17267C3.48688 5.18344 3.46802 5.21242 3.43942 5.26962C3.4121 5.32427 3.37956 5.3971 3.34168 5.48907L3.34108 5.49056L3.34042 5.49204C3.25688 5.6819 3.16616 5.83344 3.0645 5.9351C2.9293 6.0703 2.70904 6.17159 2.42727 6.2505L2.42588 6.25087L2.42448 6.25124C2.29868 6.28359 2.2068 6.31324 2.14546 6.33953C2.11469 6.3527 2.09557 6.36339 2.0849 6.37079C2.08442 6.3711 2.08396 6.37144 2.08353 6.37173C2.06517 6.41256 2.04664 6.47959 2.03207 6.57996C2.01663 6.68636 2.00677 6.82173 2.00317 6.9873L2.00314 6.98879L2.00307 6.99024C1.99587 7.15602 1.99746 7.28624 2.00671 7.38296C2.01424 7.4617 2.02595 7.50656 2.03474 7.52893C2.03824 7.53004 2.04263 7.53127 2.04804 7.53256C2.08045 7.54033 2.13196 7.54639 2.20675 7.54813L2.2084 7.54816L2.21004 7.54824C2.28096 7.55162 2.33268 7.54822 2.36834 7.5411C2.40099 7.53456 2.41092 7.52676 2.41108 7.52676C2.427 7.51079 2.43696 7.49859 2.4428 7.49004C2.44535 7.4863 2.44669 7.4839 2.44727 7.48279C2.45231 7.46316 2.45981 7.44007 2.47196 7.41819C2.48152 7.40099 2.50213 7.36976 2.54009 7.34993C2.70283 7.24673 2.8627 7.15759 3.01973 7.08276C3.39053 6.89933 3.71693 6.79664 3.99419 6.78847L4.05259 6.78676L5.14808 7.88224L4.93679 7.95002C4.7567 8.00779 4.53668 8.09976 4.27576 8.2275C4.27445 8.2301 4.27293 8.23344 4.27119 8.23762C4.26259 8.25839 4.25302 8.29062 4.24388 8.33713C4.22562 8.42996 4.21225 8.56336 4.20502 8.74042L4.20496 8.74179L4.20488 8.74319C4.19405 8.91987 4.1945 9.05459 4.20439 9.15033C4.20936 9.19822 4.2163 9.2325 4.22362 9.25562C4.22799 9.26953 4.23159 9.27642 4.23296 9.27887C4.2359 9.28096 4.24368 9.28567 4.26002 9.29056C4.28222 9.29722 4.3149 9.30262 4.36065 9.30422C4.44173 9.30699 4.49596 9.29702 4.53079 9.28282C4.5733 9.24204 4.63885 9.18422 4.72508 9.11076L4.73036 9.10624L4.73608 9.10233C4.83373 9.03505 4.9795 8.96976 5.1641 8.9045C5.35099 8.83844 5.58645 8.76942 5.86939 8.69727L5.94408 8.67824L6.74565 9.47985L6.51368 9.53784C6.34373 9.5803 6.12282 9.65022 5.84959 9.74856L5.84908 9.74876L5.84853 9.74893C5.70865 9.79799 5.60079 9.83936 5.52368 9.87316C5.48505 9.8901 5.45593 9.90433 5.43513 9.91593C5.42305 9.92267 5.4159 9.92736 5.41219 9.92993C5.41039 9.93339 5.40699 9.94033 5.40253 9.9521C5.39322 9.97656 5.3827 10.0123 5.3715 10.0614C5.34919 10.1592 5.3269 10.2979 5.3051 10.4795L5.30496 10.4809L5.30476 10.4822C5.27936 10.6637 5.26756 10.7986 5.26756 10.89C5.26756 10.929 5.26973 10.956 5.27253 10.9733C5.32239 11.0016 5.39373 11.0254 5.49259 11.0395L5.49316 11.0396L5.49373 11.0397C5.57253 11.0516 5.62248 11.051 5.6517 11.047C5.66442 10.9948 5.68613 10.9345 5.73002 10.8906C5.74996 10.8707 5.77276 10.8564 5.79639 10.8466C5.94748 10.7642 6.10908 10.6931 6.28093 10.6332C6.66268 10.492 7.05613 10.4019 7.46096 10.3632C7.65788 9.89239 7.76365 9.63764 7.78022 9.59459L7.78039 9.59413L7.78059 9.59365C7.84393 9.43253 7.88299 9.31213 7.90085 9.2293C7.90816 9.19545 7.91096 9.17199 7.91156 9.15704L3.8167 5.06219C3.79056 5.0643 3.74896 5.07207 3.68879 5.08873ZM7.91102 9.14119C7.91108 9.14116 7.91122 9.14184 7.91136 9.14333C7.91105 9.14199 7.91099 9.14124 7.91102 9.14119ZM5.27685 10.9915C5.27682 10.9916 5.27645 10.9908 5.27588 10.9888C5.27659 10.9905 5.2769 10.9914 5.27685 10.9915ZM2.07849 6.37573C2.07848 6.37573 2.07868 6.37553 2.07915 6.37513C2.07874 6.37553 2.07851 6.37576 2.07849 6.37573Z" fill="#231F20"/>
</svg>
