<svg width="24" height="24" viewBox="0 0 24 24" fill="none" xmlns="http://www.w3.org/2000/svg">
<path d="M11.9984 23.7937C18.5129 23.7937 23.7941 18.5126 23.7941 11.998C23.7941 5.4834 18.5129 0.202271 11.9984 0.202271C5.48377 0.202271 0.202637 5.4834 0.202637 11.998C0.202637 18.5126 5.48377 23.7937 11.9984 23.7937Z" fill="white"/>
<path fill-rule="evenodd" clip-rule="evenodd" d="M11.998 0.404578C5.59509 0.404578 0.404517 5.59515 0.404517 11.9981C0.404517 18.401 5.59509 23.5915 11.998 23.5915C18.4009 23.5915 23.5914 18.401 23.5914 11.9981C23.5914 5.59515 18.4009 0.404578 11.998 0.404578ZM0 11.9981C0 5.37174 5.37167 6.10352e-05 11.998 6.10352e-05C18.6243 6.10352e-05 23.996 5.37174 23.996 11.9981C23.996 18.6243 18.6243 23.996 11.998 23.996C5.37167 23.996 0 18.6243 0 11.9981Z" fill="#231F20"/>
<path d="M11.9982 22.2039C17.6348 22.2039 22.2042 17.6345 22.2042 11.998C22.2042 6.36136 17.6348 1.79199 11.9982 1.79199C6.3616 1.79199 1.79224 6.36136 1.79224 11.998C1.79224 17.6345 6.3616 22.2039 11.9982 22.2039Z" fill="#009F55"/>
<path fill-rule="evenodd" clip-rule="evenodd" d="M11.9984 2.19654C6.58523 2.19654 2.19698 6.5848 2.19698 11.998C2.19698 17.4112 6.58523 21.7994 11.9984 21.7994C17.4116 21.7994 21.7999 17.4112 21.7999 11.998C21.7999 6.5848 17.4116 2.19654 11.9984 2.19654ZM1.38794 11.998C1.38794 6.13797 6.13841 1.38751 11.9984 1.38751C17.8584 1.38751 22.6089 6.13797 22.6089 11.998C22.6089 17.858 17.8584 22.6085 11.9984 22.6085C6.13841 22.6085 1.38794 17.858 1.38794 11.998Z" fill="#231F20"/>
<path d="M16.4159 16.5917C16.3062 16.6685 16.1555 16.7206 15.9636 16.748C15.7827 16.7754 15.6511 16.7699 15.5688 16.7315C15.5469 16.7206 15.525 16.6822 15.5031 16.6164C15.4866 16.5451 15.4647 16.4958 15.4373 16.4684C15.4263 16.4574 15.4126 16.4492 15.3962 16.4437C15.1769 16.3231 14.9411 16.219 14.6889 16.1312C14.0968 15.9119 13.4856 15.7776 12.8551 15.7283C12.5316 14.9553 12.3562 14.5331 12.3288 14.4619C12.1369 13.9739 12.0766 13.6943 12.1479 13.6231L18.332 7.43894C18.3703 7.40054 18.4882 7.40877 18.6856 7.46359C18.8884 7.52389 19.0173 7.58697 19.0721 7.65276C19.1324 7.72403 19.2201 7.89944 19.3353 8.17904C19.4559 8.45316 19.5792 8.65326 19.7053 8.77939C19.8698 8.94383 20.1576 9.08363 20.5688 9.19879C20.9526 9.29744 21.1636 9.38791 21.202 9.47016C21.2897 9.64557 21.339 9.98547 21.35 10.4899C21.372 10.9942 21.3418 11.3095 21.2595 11.4356C21.2212 11.4959 21.0841 11.5288 20.8484 11.5342C20.6181 11.5452 20.4674 11.5151 20.3961 11.4438C20.3358 11.3835 20.3001 11.3314 20.2892 11.2876C20.2782 11.2437 20.2645 11.219 20.2481 11.2135C20.0068 11.06 19.7711 10.9285 19.5408 10.8188C18.9981 10.5502 18.5403 10.4104 18.1675 10.3994L16.827 11.7398C17.1176 11.833 17.4685 11.9811 17.8797 12.1839C17.9784 12.2607 18.0387 12.5677 18.0606 13.105C18.0935 13.6422 18.0606 13.9602 17.9619 14.0589C17.9016 14.1192 17.792 14.1521 17.633 14.1576C17.474 14.1631 17.3479 14.1411 17.2547 14.0918C17.1999 14.037 17.0985 13.9465 16.9504 13.8204C16.7037 13.6504 16.161 13.4586 15.3222 13.2448L14.4587 14.1082C14.7218 14.174 15.059 14.2809 15.4702 14.4289C15.8923 14.577 16.1363 14.6839 16.2021 14.7497C16.2788 14.8264 16.3501 15.1389 16.4159 15.6871C16.4926 16.2354 16.4926 16.5369 16.4159 16.5917Z" fill="white"/>
<path fill-rule="evenodd" clip-rule="evenodd" d="M18.4382 7.61833L12.321 13.7356C12.3218 13.7579 12.3261 13.7929 12.337 13.8435C12.3637 13.9672 12.422 14.1471 12.5166 14.3878L12.5169 14.3885L12.5172 14.3892C12.5419 14.4535 12.6999 14.8341 12.9941 15.5373C13.5989 15.5953 14.1866 15.7298 14.7569 15.9408C15.0137 16.0302 15.2551 16.1364 15.4808 16.2597C15.5161 16.2742 15.5501 16.2956 15.5799 16.3254C15.6455 16.3909 15.6779 16.481 15.6969 16.5589C15.7406 16.5649 15.8152 16.5658 15.9329 16.548L15.9337 16.5479L15.9346 16.5477C16.0823 16.5267 16.1889 16.4911 16.2634 16.4488C16.2676 16.4229 16.2708 16.3827 16.2708 16.3245C16.2708 16.1878 16.2532 15.9863 16.2152 15.7152L16.2149 15.7132L16.2147 15.7112C16.1821 15.4399 16.1488 15.2328 16.1155 15.0866C16.0988 15.0133 16.0831 14.9598 16.0692 14.9233C16.0625 14.9057 16.0574 14.8953 16.0547 14.8902C16.0492 14.8863 16.0385 14.8793 16.0204 14.8692C15.9894 14.8519 15.9459 14.8307 15.8882 14.8054C15.773 14.7549 15.6119 14.6931 15.4029 14.6198L15.4021 14.6195L15.4013 14.6192C14.9932 14.4723 14.6631 14.3679 14.4092 14.3044L14.0627 14.2178L15.2602 13.0203L15.3717 13.0488C15.7944 13.1565 16.1461 13.2596 16.4254 13.3583C16.7011 13.4558 16.9189 13.5533 17.0648 13.6538L17.0733 13.6597L17.0812 13.6664C17.21 13.7762 17.3079 13.8626 17.3715 13.9235C17.4235 13.9446 17.5045 13.9596 17.6256 13.9554C17.694 13.953 17.7428 13.945 17.776 13.935C17.8003 13.9277 17.812 13.9207 17.8164 13.9176C17.8184 13.9139 17.8238 13.9036 17.8303 13.8828C17.8412 13.8483 17.8516 13.7971 17.859 13.7256C17.8738 13.5825 17.8745 13.3812 17.8583 13.1173L17.8582 13.1152L17.8581 13.1132C17.8473 12.8487 17.8273 12.6494 17.8001 12.5107C17.7864 12.4412 17.7721 12.3931 17.7592 12.3621C17.7567 12.3558 17.7544 12.3508 17.7524 12.3469C17.3626 12.1561 17.034 12.0187 16.7649 11.9324L16.4493 11.8312L18.0858 10.1946L18.1731 10.1972C18.5872 10.2094 19.0749 10.3628 19.6288 10.6368C19.8634 10.7486 20.1022 10.8818 20.3453 11.0359C20.402 11.0656 20.4328 11.1122 20.4471 11.1379C20.4652 11.1706 20.4765 11.2051 20.484 11.2344C20.4849 11.2361 20.4868 11.2397 20.4907 11.2453C20.4994 11.258 20.5143 11.2763 20.5381 11.3001C20.5381 11.3 20.5528 11.3117 20.6019 11.3215C20.6552 11.3322 20.7324 11.3373 20.8384 11.3322L20.8408 11.3321L20.8433 11.332C20.955 11.3295 21.032 11.3204 21.0804 11.3088C21.0885 11.3068 21.095 11.305 21.1003 11.3034C21.1134 11.2699 21.1309 11.2029 21.1421 11.0853C21.156 10.9408 21.1583 10.7463 21.1476 10.4986L21.1475 10.4964L21.1474 10.4943C21.142 10.2469 21.1273 10.0446 21.1042 9.88568C21.0825 9.73577 21.0548 9.63561 21.0274 9.57463C21.0267 9.5742 21.0261 9.57368 21.0253 9.57321C21.0094 9.56215 20.9808 9.54621 20.9349 9.5265C20.8432 9.48724 20.706 9.44297 20.518 9.39463L20.5159 9.39411L20.5138 9.39351C20.0929 9.27565 19.7639 9.12433 19.5619 8.92238C19.41 8.7705 19.2745 8.54413 19.1497 8.2605L19.1488 8.25827L19.1479 8.25604C19.0913 8.11864 19.0426 8.00983 19.0018 7.92818C18.9591 7.84273 18.9309 7.79944 18.9173 7.78337L18.9168 7.78277L18.9164 7.7823C18.9164 7.7823 18.9123 7.77771 18.9006 7.76948C18.8883 7.76083 18.8703 7.75011 18.8451 7.73777C18.7945 7.71304 18.7237 7.68608 18.6293 7.65797C18.5394 7.63307 18.4773 7.62146 18.4382 7.61833ZM21.0349 9.58063C21.0349 9.58063 21.0345 9.58033 21.0339 9.57968C21.0346 9.58033 21.0349 9.58063 21.0349 9.58063ZM21.117 11.297C21.117 11.297 21.117 11.2971 21.117 11.2971C21.1174 11.2968 21.1174 11.2968 21.117 11.297ZM16.2569 16.4761C16.2568 16.476 16.2573 16.4745 16.2584 16.4721C16.2575 16.475 16.257 16.4762 16.2569 16.4761ZM12.3217 13.7119C12.3218 13.712 12.3217 13.7131 12.3213 13.7151C12.3215 13.7128 12.3217 13.7118 12.3217 13.7119ZM18.4629 7.21453C18.5417 7.22001 18.6356 7.2399 18.7393 7.2687L18.7411 7.26917L18.7429 7.26968C18.8505 7.3017 18.9449 7.33624 19.0229 7.37443C19.0976 7.41098 19.1726 7.45817 19.2265 7.52258C19.2731 7.57778 19.3188 7.65763 19.3636 7.74728C19.4103 7.84058 19.4628 7.95853 19.521 8.09974C19.637 8.36314 19.7479 8.53628 19.8479 8.63631C19.9747 8.76308 20.2207 8.89114 20.6209 9.00343C20.8158 9.05357 20.9752 9.10371 21.0942 9.15471C21.1538 9.18021 21.2092 9.20845 21.2556 9.2406C21.298 9.27 21.3515 9.31517 21.3835 9.3816C21.4411 9.49765 21.4789 9.65074 21.5046 9.82757C21.5308 10.008 21.5462 10.2272 21.5518 10.4832C21.5629 10.7391 21.5611 10.9536 21.5448 11.1238C21.5294 11.2852 21.4986 11.4382 21.4291 11.5452C21.3645 11.6458 21.2509 11.6838 21.1748 11.7021C21.0868 11.7233 20.9782 11.7334 20.8552 11.7364C20.7318 11.7421 20.6194 11.7375 20.5226 11.7182C20.4272 11.6991 20.3278 11.6619 20.2527 11.5868C20.1909 11.525 20.1277 11.4482 20.0989 11.3588C19.878 11.2201 19.6628 11.1011 19.4535 11.0014L19.4521 11.0007L19.4507 11.0001C18.964 10.7592 18.5644 10.6333 18.2461 10.6065L17.1956 11.6569C17.4272 11.7471 17.6851 11.8626 17.9688 12.0025L17.9872 12.0116L18.0035 12.0243C18.0685 12.0748 18.1075 12.1459 18.133 12.2072C18.1599 12.2721 18.1805 12.3487 18.197 12.4327C18.23 12.6006 18.2511 12.8228 18.2622 13.0947C18.2788 13.3671 18.2794 13.5927 18.2614 13.7672C18.2524 13.8546 18.238 13.935 18.2161 14.0046C18.1948 14.0719 18.1616 14.1448 18.1045 14.2019C17.9875 14.319 17.8104 14.3538 17.6395 14.3597C17.4618 14.3658 17.2961 14.3427 17.1597 14.2705L17.1328 14.2563L17.1113 14.2348C17.0638 14.1873 16.9707 14.1038 16.8272 13.9815C16.7251 13.9131 16.5505 13.8316 16.2905 13.7397C16.0509 13.655 15.7488 13.5648 15.3831 13.4694L14.846 14.0065C15.0491 14.0682 15.2798 14.1456 15.5375 14.2383C15.7503 14.313 15.922 14.3785 16.0506 14.4349C16.1149 14.463 16.171 14.4901 16.2174 14.5159C16.2606 14.54 16.308 14.5699 16.3447 14.6066C16.3951 14.6571 16.4263 14.7242 16.4473 14.7795C16.4704 14.8403 16.491 14.9136 16.5099 14.9966C16.5478 15.1625 16.5829 15.3851 16.6161 15.661C16.6547 15.9372 16.6753 16.16 16.6753 16.3245C16.6753 16.4062 16.6703 16.4823 16.6564 16.5469C16.6448 16.6007 16.6174 16.6961 16.5331 16.7563L16.5323 16.7569L16.5315 16.7574C16.387 16.8585 16.2025 16.918 15.9927 16.9481C15.8056 16.9764 15.6226 16.98 15.4829 16.9148L15.4805 16.9137L15.478 16.9124C15.4127 16.8798 15.3769 16.8246 15.36 16.7949C15.3398 16.7595 15.3239 16.7196 15.3108 16.6803L15.3078 16.6713L15.3056 16.6619C15.3011 16.6424 15.2968 16.6281 15.2931 16.618C15.0858 16.5045 14.8623 16.4058 14.6221 16.3222L14.6202 16.3216L14.6183 16.3209C14.0437 16.1081 13.4508 15.9778 12.8389 15.9299L12.7158 15.9203L12.6681 15.8063C12.3468 15.0384 12.1696 14.6122 12.1399 14.5352C12.0428 14.2882 11.9751 14.0846 11.9416 13.9288C11.9249 13.8516 11.9144 13.7765 11.9165 13.7092C11.9184 13.649 11.9314 13.5531 12.0045 13.48L18.1886 7.29587C18.2372 7.24727 18.2953 7.22833 18.337 7.22027C18.3799 7.212 18.4234 7.21178 18.4629 7.21453Z" fill="#231F20"/>
<path d="M7.75545 16.6034C7.86555 16.6804 8.01696 16.7328 8.2096 16.7603C8.39127 16.7878 8.5234 16.7823 8.60595 16.7438C8.62797 16.7328 8.65 16.6942 8.67203 16.6282C8.68853 16.5566 8.71056 16.507 8.73807 16.4795C8.74909 16.4685 8.76285 16.4603 8.77935 16.4548C8.99955 16.3336 9.23625 16.2291 9.48949 16.141C10.084 15.9208 10.6978 15.7859 11.3308 15.7364C11.6556 14.9602 11.8318 14.5363 11.8593 14.4648C12.052 13.9749 12.1125 13.6941 12.0409 13.6225L5.83155 7.41315C5.79302 7.37462 5.67465 7.38285 5.47648 7.43792C5.27282 7.49848 5.14343 7.56178 5.0884 7.62782C5.02785 7.69939 4.93977 7.87553 4.82415 8.15629C4.70303 8.43152 4.57917 8.63243 4.45257 8.75908C4.28745 8.92421 3.99844 9.06456 3.58558 9.18019C3.20024 9.27928 2.9883 9.37009 2.94977 9.45268C2.8617 9.62882 2.81215 9.97013 2.80114 10.4766C2.77912 10.983 2.8094 11.2995 2.89197 11.4261C2.9305 11.4867 3.06813 11.5197 3.30483 11.5252C3.53603 11.5362 3.68742 11.506 3.75898 11.4344C3.81953 11.3738 3.85531 11.3215 3.86632 11.2775C3.87733 11.2335 3.89109 11.2087 3.90761 11.2032C4.14982 11.0491 4.38653 10.9169 4.61775 10.8068C5.16272 10.5371 5.62236 10.3967 5.99667 10.3857L7.3426 11.7316C7.05083 11.8252 6.69855 11.9739 6.2857 12.1775C6.18662 12.2546 6.12606 12.5629 6.10403 13.1023C6.07099 13.6418 6.10403 13.9611 6.20312 14.0602C6.26367 14.1207 6.37377 14.1538 6.53342 14.1592C6.69302 14.1648 6.81966 14.1427 6.91322 14.0932C6.96829 14.0382 7.07012 13.9473 7.21875 13.8207C7.46646 13.6501 8.01143 13.4574 8.85366 13.2427L9.72066 14.1097C9.45645 14.1758 9.11792 14.2831 8.70503 14.4318C8.28117 14.5804 8.0362 14.6877 7.97016 14.7538C7.8931 14.8309 7.82153 15.1446 7.75545 15.6951C7.67839 16.2456 7.67839 16.5484 7.75545 16.6034Z" fill="white"/>
<path fill-rule="evenodd" clip-rule="evenodd" d="M5.82659 7.19357C5.86846 7.20167 5.92679 7.22069 5.97561 7.26951L12.185 13.4789C12.2584 13.5523 12.2714 13.6486 12.2733 13.7091C12.2754 13.7766 12.2649 13.852 12.2482 13.9296C12.2144 14.086 12.1465 14.2905 12.049 14.5385C12.0191 14.6158 11.8412 15.0438 11.5186 15.8148L11.4707 15.9292L11.3471 15.9388C10.7327 15.9869 10.1374 16.1178 9.56048 16.3314L9.55855 16.3321L9.55666 16.3328C9.31551 16.4167 9.09102 16.5158 8.88295 16.6298C8.87926 16.6399 8.87485 16.6542 8.87035 16.6738L8.86816 16.6832L8.86512 16.6924C8.85201 16.7318 8.83606 16.7719 8.81575 16.8074C8.79873 16.8372 8.76282 16.8926 8.69725 16.9254L8.69476 16.9266L8.69228 16.9278C8.55205 16.9932 8.36832 16.9896 8.18043 16.9612C7.96975 16.931 7.78452 16.8713 7.63945 16.7697L7.63868 16.7692L7.63786 16.7686C7.55318 16.7082 7.52566 16.6124 7.51405 16.5584C7.50003 16.4935 7.49502 16.4171 7.49502 16.335C7.49502 16.1699 7.51572 15.9462 7.55451 15.6689C7.58781 15.3918 7.62312 15.1683 7.66113 15.0018C7.68012 14.9184 7.70082 14.8448 7.72401 14.7837C7.74513 14.7282 7.77638 14.6608 7.82699 14.6102C7.86385 14.5733 7.91151 14.5432 7.95479 14.5191C8.00138 14.4931 8.05782 14.466 8.12236 14.4377C8.25145 14.3811 8.42386 14.3153 8.63746 14.2404C8.89628 14.1472 9.12788 14.0695 9.33183 14.0076L8.79252 13.4683C8.42536 13.5641 8.12206 13.6546 7.88142 13.7397C7.62033 13.832 7.44501 13.9138 7.34253 13.9824C7.19845 14.1053 7.10502 14.1891 7.05728 14.2368L7.03568 14.2584L7.00872 14.2727C6.87175 14.3452 6.70529 14.3684 6.52683 14.3622C6.35536 14.3563 6.17755 14.3214 6.05995 14.2038C6.00269 14.1465 5.96931 14.0733 5.94796 14.0057C5.92589 13.9358 5.91153 13.8551 5.90245 13.7673C5.88436 13.5921 5.88496 13.3655 5.90163 13.092C5.91286 12.819 5.93399 12.596 5.96712 12.4274C5.98371 12.343 6.00441 12.2661 6.03141 12.201C6.05695 12.1393 6.09621 12.068 6.16143 12.0172L6.17776 12.0045L6.19628 11.9954C6.48111 11.8549 6.74009 11.7389 6.97259 11.6484L5.91783 10.5936C5.59829 10.6206 5.19693 10.7469 4.70828 10.9888L4.70686 10.9895L4.70549 10.9902C4.49532 11.0903 4.2793 11.2098 4.05743 11.349C4.02858 11.4388 3.96511 11.5159 3.90303 11.578C3.82763 11.6534 3.7278 11.6907 3.63205 11.7099C3.5348 11.7294 3.42195 11.7339 3.2981 11.7282C3.1746 11.7252 3.06556 11.715 2.97714 11.6938C2.90069 11.6754 2.78668 11.6372 2.7218 11.5362C2.65202 11.4288 2.62112 11.2752 2.60562 11.1131C2.58927 10.9422 2.5875 10.7268 2.5986 10.4699C2.60425 10.2128 2.61973 9.99269 2.64603 9.81154C2.6718 9.63398 2.70978 9.48025 2.76763 9.36372C2.79972 9.29704 2.8534 9.25169 2.89604 9.22217C2.94266 9.18989 2.99826 9.16157 3.05808 9.13594C3.17757 9.08472 3.33765 9.03441 3.53331 8.98401C3.93518 8.87129 4.18216 8.74268 4.30945 8.61544C4.40986 8.51498 4.52121 8.34111 4.63778 8.07664C4.69619 7.93487 4.74886 7.81645 4.79571 7.72277C4.84075 7.63272 4.88665 7.55254 4.93336 7.49712C4.98749 7.43245 5.06283 7.38509 5.13788 7.34837C5.21618 7.31005 5.31098 7.27534 5.41906 7.24319L5.42082 7.24268L5.42258 7.24221C5.52676 7.21328 5.62105 7.19331 5.70021 7.18782C5.73976 7.18504 5.78348 7.18525 5.82659 7.19357ZM5.53306 7.63306C5.43831 7.66131 5.36716 7.68835 5.31642 7.71317C5.29113 7.72555 5.27305 7.73635 5.26071 7.74501C5.24892 7.75328 5.24481 7.75791 5.24481 7.75787L5.24438 7.75838L5.24386 7.75898C5.23019 7.77514 5.20191 7.81859 5.15901 7.90439C5.11803 7.98638 5.06922 8.09562 5.01239 8.23358L5.01149 8.23581L5.01051 8.23804C4.88519 8.52282 4.74912 8.75014 4.59663 8.90262C4.39383 9.10542 4.06343 9.25735 3.64079 9.37572L3.6387 9.37628L3.6366 9.37684C3.4479 9.42535 3.31008 9.46984 3.21807 9.50927C3.17191 9.52902 3.14323 9.54505 3.12723 9.55615C3.1265 9.55662 3.12582 9.55714 3.12518 9.55757C3.09763 9.61881 3.06984 9.71935 3.04799 9.86991C3.02482 10.0295 3.01003 10.2326 3.00463 10.4809L3.00458 10.4832L3.00449 10.4853C2.99368 10.734 2.99607 10.9293 3.00995 11.0744C3.02124 11.1925 3.03881 11.2598 3.05199 11.2934C3.05724 11.295 3.06382 11.2969 3.07193 11.2988C3.12055 11.3105 3.19781 11.3196 3.31 11.3222L3.31248 11.3222L3.31494 11.3223C3.42132 11.3274 3.4989 11.3223 3.55239 11.3116C3.60137 11.3018 3.61625 11.2901 3.61649 11.2901C3.64037 11.2662 3.65532 11.2479 3.66407 11.235C3.66791 11.2294 3.66991 11.2258 3.67079 11.2242C3.67835 11.1947 3.68959 11.1601 3.70782 11.1273C3.72215 11.1015 3.75307 11.0546 3.81001 11.0249C4.05412 10.8701 4.29393 10.7364 4.52948 10.6241C5.08568 10.349 5.57528 10.1949 5.99116 10.1827L6.07876 10.1801L7.72199 11.8233L7.40506 11.925C7.13493 12.0117 6.80489 12.1496 6.41352 12.3412C6.41155 12.3451 6.40928 12.3501 6.40666 12.3564C6.39376 12.3876 6.37941 12.4359 6.36569 12.5057C6.33831 12.6449 6.31825 12.845 6.30741 13.1106L6.30732 13.1127L6.30719 13.1148C6.29095 13.3798 6.29163 13.5819 6.30646 13.7255C6.31392 13.7973 6.32433 13.8487 6.33531 13.8834C6.34186 13.9043 6.34726 13.9146 6.34932 13.9183C6.35373 13.9214 6.36539 13.9285 6.38991 13.9358C6.42321 13.9458 6.47223 13.9539 6.54085 13.9563C6.66248 13.9605 6.74382 13.9455 6.79606 13.9242C6.85983 13.863 6.95815 13.7763 7.08749 13.6661L7.09542 13.6593L7.10399 13.6535C7.25048 13.5525 7.46913 13.4546 7.74603 13.3567C8.02636 13.2576 8.37955 13.1541 8.80396 13.0459L8.91599 13.0173L10.1183 14.2197L9.77039 14.3067C9.51548 14.3704 9.18411 14.4753 8.77426 14.6228L8.77349 14.6231L8.77268 14.6234C8.56285 14.697 8.40106 14.759 8.28539 14.8097C8.22745 14.8351 8.18378 14.8565 8.15258 14.8739C8.13445 14.884 8.12373 14.891 8.11816 14.8949C8.11546 14.9001 8.11036 14.9105 8.10368 14.9281C8.08971 14.9648 8.07393 15.0185 8.05713 15.0921C8.02366 15.2388 7.99023 15.4468 7.95753 15.7193L7.95732 15.7213L7.95702 15.7233C7.91892 15.9955 7.90122 16.1978 7.90122 16.335C7.90122 16.3935 7.90448 16.4339 7.90868 16.4599C7.98346 16.5024 8.09048 16.538 8.23876 16.5592L8.23962 16.5594L8.24048 16.5595C8.35868 16.5774 8.43359 16.5765 8.47743 16.5705C8.49651 16.4922 8.52908 16.4018 8.59491 16.3359C8.62482 16.306 8.65902 16.2846 8.69446 16.2699C8.92109 16.1462 9.16349 16.0396 9.42128 15.9498C9.99389 15.738 10.5841 15.6029 11.1913 15.5447C11.4867 14.8386 11.6453 14.4564 11.6702 14.3919L11.6705 14.3912L11.6708 14.3904C11.7658 14.1488 11.8244 13.9682 11.8511 13.8439C11.8621 13.7931 11.8663 13.758 11.8672 13.7355L5.72493 7.59325C5.68572 7.59642 5.62332 7.60808 5.53306 7.63306ZM11.8664 13.7118C11.8665 13.7117 11.8667 13.7127 11.8669 13.715C11.8664 13.713 11.8664 13.7118 11.8664 13.7118ZM7.91515 16.4873C7.91511 16.4874 7.91455 16.4862 7.91369 16.4832C7.91476 16.4857 7.91523 16.4871 7.91515 16.4873ZM3.11761 9.56357C3.11759 9.56357 3.1179 9.56327 3.1186 9.56267C3.11799 9.56327 3.11764 9.56361 3.11761 9.56357Z" fill="#231F20"/>
</svg>
