<svg width="32" height="32" viewBox="0 0 32 32" fill="none" xmlns="http://www.w3.org/2000/svg">
<path d="M15.9976 31.7249C24.6838 31.7249 31.7252 24.6835 31.7252 15.9973C31.7252 7.31123 24.6838 0.269714 15.9976 0.269714C7.31153 0.269714 0.27002 7.31123 0.27002 15.9973C0.27002 24.6835 7.31153 31.7249 15.9976 31.7249Z" fill="white"/>
<path fill-rule="evenodd" clip-rule="evenodd" d="M15.9973 0.539417C7.46011 0.539417 0.539356 7.46018 0.539356 15.9974C0.539356 24.5346 7.46011 31.4553 15.9973 31.4553C24.5345 31.4553 31.4553 24.5346 31.4553 15.9974C31.4553 7.46018 24.5345 0.539417 15.9973 0.539417ZM0 15.9974C0 7.1623 7.16223 6.10352e-05 15.9973 6.10352e-05C24.8323 6.10352e-05 31.9946 7.1623 31.9946 15.9974C31.9946 24.8324 24.8323 31.9947 15.9973 31.9947C7.16223 31.9947 0 24.8324 0 15.9974Z" fill="#231F20"/>
<path d="M15.9974 29.6053C23.5128 29.6053 29.6053 23.5128 29.6053 15.9973C29.6053 8.48184 23.5128 2.38934 15.9974 2.38934C8.48189 2.38934 2.3894 8.48184 2.3894 15.9973C2.3894 23.5128 8.48189 29.6053 15.9974 29.6053Z" fill="#009F55"/>
<path fill-rule="evenodd" clip-rule="evenodd" d="M15.9977 2.92868C8.78007 2.92868 2.92906 8.7797 2.92906 15.9973C2.92906 23.2149 8.78007 29.0659 15.9977 29.0659C23.2153 29.0659 29.0662 23.2149 29.0662 15.9973C29.0662 8.7797 23.2153 2.92868 15.9977 2.92868ZM1.85034 15.9973C1.85034 8.18392 8.1843 1.84998 15.9977 1.84998C23.811 1.84998 30.145 8.18392 30.145 15.9973C30.145 23.8106 23.811 30.1446 15.9977 30.1446C8.1843 30.1446 1.85034 23.8106 1.85034 15.9973Z" fill="#231F20"/>
<path d="M21.8877 22.1223C21.7416 22.2246 21.5405 22.2941 21.2847 22.3306C21.0435 22.3672 20.868 22.3599 20.7584 22.3087C20.7292 22.2941 20.6999 22.2429 20.6707 22.1552C20.6488 22.0602 20.6195 21.9944 20.5829 21.9578C20.5683 21.9432 20.5501 21.9322 20.5281 21.925C20.2357 21.7641 19.9214 21.6253 19.5852 21.5083C18.7957 21.2159 17.9807 21.0368 17.14 20.971C16.7088 19.9404 16.4748 19.3775 16.4383 19.2825C16.1824 18.6319 16.102 18.2591 16.1971 18.1641L24.4425 9.91859C24.4937 9.86739 24.6509 9.87836 24.914 9.95145C25.1845 10.0318 25.3563 10.116 25.4294 10.2037C25.5098 10.2987 25.6267 10.5326 25.7803 10.9054C25.9411 11.2709 26.1055 11.5377 26.2736 11.7058C26.4929 11.9251 26.8767 12.1115 27.4249 12.265C27.9367 12.3966 28.2181 12.5172 28.2692 12.6269C28.3862 12.8608 28.452 13.314 28.4666 13.9865C28.4959 14.659 28.4556 15.0793 28.346 15.2474C28.2948 15.3278 28.1121 15.3717 27.7977 15.379C27.4908 15.3936 27.2897 15.3534 27.1947 15.2584C27.1143 15.178 27.0668 15.1085 27.0521 15.0501C27.0375 14.9916 27.0193 14.9587 26.9973 14.9514C26.6757 14.7467 26.3614 14.5713 26.0544 14.4251C25.3307 14.0669 24.7203 13.8805 24.2232 13.8658L22.436 15.6531C22.8234 15.7774 23.2912 15.9748 23.8395 16.2452C23.9711 16.3476 24.0515 16.7569 24.0807 17.4733C24.1245 18.1896 24.0807 18.6136 23.9491 18.7452C23.8687 18.8256 23.7225 18.8694 23.5105 18.8768C23.2985 18.8841 23.1304 18.8548 23.0061 18.789C22.9331 18.716 22.7979 18.5953 22.6005 18.4272C22.2715 18.2006 21.5479 17.9448 20.4295 17.6597L19.2781 18.811C19.629 18.8987 20.0786 19.0412 20.6268 19.2386C21.1897 19.436 21.5149 19.5785 21.6027 19.6662C21.705 19.7686 21.8 20.1852 21.8877 20.9162C21.9901 21.6472 21.9901 22.0492 21.8877 22.1223Z" fill="white"/>
<path fill-rule="evenodd" clip-rule="evenodd" d="M24.5844 10.1577L16.428 18.3141C16.4292 18.3439 16.4348 18.3905 16.4494 18.458C16.485 18.6229 16.5627 18.8628 16.6889 19.1837L16.6893 19.1847L16.6896 19.1856C16.7226 19.2713 16.9333 19.7788 17.3255 20.7164C18.1319 20.7937 18.9156 20.9731 19.676 21.2544C20.0183 21.3736 20.3402 21.5152 20.6411 21.6795C20.6882 21.6989 20.7336 21.7274 20.7733 21.7671C20.8607 21.8545 20.904 21.9747 20.9293 22.0785C20.9875 22.0865 21.087 22.0877 21.244 22.064L21.2451 22.0638L21.2462 22.0636C21.4432 22.0355 21.5853 21.9881 21.6846 21.9317C21.6902 21.8972 21.6945 21.8436 21.6945 21.7659C21.6945 21.5837 21.671 21.3151 21.6203 20.9535L21.62 20.9509L21.6196 20.9483C21.5763 20.5865 21.5319 20.3103 21.4874 20.1154C21.4651 20.0177 21.4442 19.9464 21.4256 19.8977C21.4167 19.8743 21.41 19.8604 21.4064 19.8535C21.399 19.8484 21.3847 19.8391 21.3607 19.8256C21.3193 19.8025 21.2613 19.7742 21.1843 19.7405C21.0307 19.6732 20.8159 19.5908 20.5372 19.4931L20.5362 19.4927L20.5351 19.4923C19.991 19.2964 19.5508 19.1572 19.2124 19.0725L18.7503 18.957L20.347 17.3604L20.4957 17.3983C21.0593 17.542 21.5283 17.6795 21.9006 17.8111C22.2682 17.9411 22.5586 18.0711 22.7531 18.2051L22.7645 18.2129L22.775 18.2219C22.9468 18.3682 23.0773 18.4834 23.162 18.5646C23.2314 18.5928 23.3394 18.6128 23.5009 18.6072C23.592 18.604 23.6571 18.5933 23.7014 18.58C23.7339 18.5703 23.7494 18.5609 23.7552 18.5567C23.758 18.5519 23.7651 18.5381 23.7739 18.5104C23.7884 18.4644 23.8023 18.3961 23.8121 18.3007C23.8319 18.11 23.8327 17.8416 23.8112 17.4897L23.811 17.4869L23.8109 17.4842C23.7965 17.1315 23.7698 16.8659 23.7335 16.6809C23.7153 16.5883 23.6962 16.5241 23.6791 16.4827C23.6756 16.4744 23.6726 16.4677 23.67 16.4625C23.1503 16.2081 22.712 16.0249 22.3533 15.9099L21.9324 15.7749L24.1145 13.5928L24.2308 13.5963C24.7831 13.6125 25.4332 13.8171 26.1718 14.1824C26.4846 14.3315 26.803 14.509 27.1272 14.7145C27.2028 14.7541 27.2439 14.8163 27.2629 14.8505C27.2871 14.8941 27.302 14.9401 27.312 14.9792C27.3132 14.9814 27.3159 14.9862 27.321 14.9937C27.3326 15.0107 27.3524 15.035 27.3842 15.0668C27.3843 15.0667 27.4039 15.0823 27.4693 15.0953C27.5403 15.1095 27.6433 15.1163 27.7846 15.1096L27.7879 15.1094L27.7911 15.1093C27.9401 15.1059 28.0427 15.0939 28.1073 15.0784C28.118 15.0757 28.1268 15.0733 28.1338 15.0711C28.1512 15.0265 28.1746 14.9372 28.1896 14.7804C28.208 14.5877 28.2112 14.3283 28.1968 13.9981L28.1967 13.9952L28.1967 13.9923C28.1895 13.6625 28.1699 13.3928 28.1391 13.1809C28.11 12.981 28.0731 12.8475 28.0366 12.7661C28.0357 12.7656 28.0348 12.7649 28.0339 12.7643C28.0126 12.7495 27.9745 12.7283 27.9132 12.702C27.791 12.6496 27.608 12.5906 27.3575 12.5261L27.3547 12.5255L27.3519 12.5247C26.7907 12.3675 26.3519 12.1657 26.0826 11.8965C25.8801 11.694 25.6995 11.3921 25.5331 11.014L25.5318 11.011L25.5306 11.008C25.4551 10.8248 25.3903 10.6797 25.3359 10.5709C25.2788 10.4569 25.2413 10.3992 25.2232 10.3778L25.2225 10.377L25.2219 10.3764C25.2219 10.3764 25.2164 10.3703 25.2008 10.3593C25.1844 10.3477 25.1604 10.3335 25.1268 10.317C25.0595 10.284 24.965 10.2481 24.8392 10.2106C24.7193 10.1774 24.6364 10.1619 24.5844 10.1577ZM28.0466 12.7741C28.0466 12.7741 28.0461 12.7737 28.0453 12.7729C28.0463 12.7737 28.0467 12.7741 28.0466 12.7741ZM28.1561 15.0627C28.156 15.0627 28.156 15.0627 28.156 15.0627C28.1566 15.0624 28.1566 15.0624 28.1561 15.0627ZM21.6759 21.9681C21.6759 21.9679 21.6764 21.966 21.6779 21.9627C21.6768 21.9666 21.676 21.9682 21.6759 21.9681ZM16.4291 18.2825C16.4292 18.2826 16.429 18.2841 16.4284 18.2868C16.4287 18.2837 16.429 18.2824 16.4291 18.2825ZM24.6172 9.61935C24.7223 9.62666 24.8475 9.65318 24.9859 9.69158L24.9882 9.6922L24.9906 9.69289C25.134 9.73558 25.2599 9.78163 25.3639 9.83255C25.4636 9.88129 25.5636 9.94421 25.6355 10.0301C25.6975 10.1037 25.7585 10.2101 25.8183 10.3297C25.8804 10.4541 25.9504 10.6113 26.028 10.7996C26.1828 11.1508 26.3306 11.3817 26.464 11.5151C26.633 11.6841 26.961 11.8548 27.4946 12.0045C27.7544 12.0714 27.967 12.1383 28.1257 12.2063C28.2051 12.2403 28.279 12.2779 28.3408 12.3208C28.3975 12.36 28.4688 12.4202 28.5114 12.5088C28.5882 12.6635 28.6386 12.8676 28.6728 13.1034C28.7078 13.344 28.7283 13.6363 28.7358 13.9776C28.7506 14.3187 28.7482 14.6047 28.7265 14.8317C28.7059 15.0469 28.6649 15.2509 28.5722 15.3936C28.4861 15.5277 28.3347 15.5784 28.2331 15.6028C28.1158 15.631 27.971 15.6445 27.807 15.6485C27.6425 15.6561 27.4926 15.65 27.3635 15.6242C27.2363 15.5988 27.1038 15.5492 27.0036 15.4491C26.9212 15.3666 26.837 15.2642 26.7986 15.145C26.504 14.9601 26.2172 14.8014 25.9381 14.6685L25.9362 14.6676L25.9344 14.6667C25.2855 14.3455 24.7526 14.1777 24.3282 14.1419L22.9276 15.5425C23.2363 15.6628 23.5802 15.8167 23.9584 16.0033L23.9831 16.0155L24.0047 16.0323C24.0914 16.0997 24.1435 16.1945 24.1774 16.2763C24.2132 16.3628 24.2407 16.4649 24.2627 16.5769C24.3067 16.8008 24.3348 17.0971 24.3497 17.4595C24.3719 17.8227 24.3727 18.1236 24.3486 18.3562C24.3366 18.4728 24.3175 18.58 24.2882 18.6728C24.2599 18.7625 24.2155 18.8597 24.1395 18.9358C23.9834 19.092 23.7472 19.1384 23.5195 19.1462C23.2825 19.1544 23.0615 19.1236 22.8796 19.0273L22.8438 19.0084L22.8151 18.9797C22.7518 18.9163 22.6276 18.8051 22.4364 18.6419C22.3003 18.5508 22.0675 18.4421 21.7208 18.3196C21.4012 18.2066 20.9985 18.0864 20.5109 17.9592L19.7947 18.6753C20.0656 18.7575 20.3731 18.8607 20.7168 18.9844C21.0004 19.0839 21.2294 19.1713 21.4008 19.2465C21.4866 19.284 21.5615 19.3201 21.6233 19.3545C21.6808 19.3866 21.7441 19.4265 21.793 19.4755C21.8603 19.5427 21.9018 19.6323 21.9298 19.706C21.9606 19.7871 21.988 19.8848 22.0133 19.9955C22.0638 20.2167 22.1107 20.5134 22.1548 20.8813C22.2063 21.2496 22.2339 21.5466 22.2339 21.7659C22.2339 21.8749 22.2272 21.9764 22.2086 22.0625C22.1932 22.1343 22.1566 22.2614 22.0442 22.3417L22.0431 22.3425L22.042 22.3432C21.8494 22.478 21.6035 22.5573 21.3236 22.5974C21.0742 22.6351 20.8302 22.64 20.644 22.5531L20.6407 22.5515L20.6375 22.5499C20.5503 22.5063 20.5027 22.4327 20.48 22.3931C20.4531 22.346 20.4319 22.2928 20.4145 22.2404L20.4104 22.2283L20.4076 22.2158C20.4016 22.1899 20.3958 22.1708 20.3908 22.1573C20.1145 22.0059 19.8164 21.8743 19.4962 21.7629L19.4937 21.7621L19.4912 21.7611C18.7251 21.4774 17.9345 21.3037 17.1187 21.2399L16.9545 21.227L16.8909 21.0751C16.4624 20.0512 16.2262 19.4829 16.1866 19.3803C16.0572 19.0509 15.9669 18.7794 15.9222 18.5717C15.8999 18.4687 15.886 18.3687 15.8888 18.2789C15.8913 18.1986 15.9086 18.0708 16.006 17.9733L24.2515 9.72781C24.3163 9.66301 24.3938 9.63775 24.4494 9.62701C24.5066 9.61598 24.5647 9.61569 24.6172 9.61935Z" fill="#231F20"/>
<path d="M10.3404 22.1378C10.4872 22.2406 10.689 22.3103 10.9459 22.347C11.1881 22.3837 11.3643 22.3764 11.4743 22.325C11.5037 22.3103 11.5331 22.259 11.5625 22.1708C11.5845 22.0754 11.6138 22.0094 11.6505 21.9727C11.6652 21.958 11.6836 21.947 11.7056 21.9396C11.9992 21.7782 12.3147 21.6387 12.6524 21.5213C13.4451 21.2277 14.2635 21.0479 15.1076 20.9818C15.5406 19.9469 15.7754 19.3818 15.8121 19.2863C16.069 18.6331 16.1498 18.2588 16.0544 18.1634L7.77515 9.88416C7.72378 9.83279 7.56595 9.84376 7.30172 9.91719C7.03018 9.99793 6.85767 10.0823 6.78429 10.1704C6.70355 10.2658 6.58612 10.5007 6.43195 10.875C6.27047 11.242 6.10532 11.5099 5.93652 11.6787C5.71635 11.8989 5.331 12.086 4.78052 12.2402C4.26675 12.3723 3.98416 12.4934 3.93279 12.6035C3.81535 12.8384 3.74929 13.2935 3.73461 13.9687C3.70525 14.6439 3.74562 15.066 3.85572 15.2348C3.90709 15.3155 4.09059 15.3596 4.4062 15.3669C4.71447 15.3816 4.91631 15.3412 5.01173 15.2458C5.09247 15.1651 5.14017 15.0954 5.15485 15.0366C5.16953 14.9779 5.18788 14.9449 5.2099 14.9375C5.53285 14.732 5.84847 14.5559 6.15675 14.4091C6.88338 14.0494 7.49624 13.8623 7.99532 13.8476L9.78989 15.6422C9.40086 15.767 8.93115 15.9651 8.38069 16.2367C8.24858 16.3394 8.16784 16.7504 8.13847 17.4698C8.09441 18.1891 8.13846 18.6147 8.27058 18.7468C8.35132 18.8276 8.49812 18.8716 8.71098 18.879C8.92378 18.8863 9.09264 18.857 9.21738 18.7909C9.29081 18.7175 9.42658 18.5964 9.62475 18.4276C9.95504 18.2 10.6817 17.9432 11.8046 17.6569L12.9606 18.8129C12.6084 18.901 12.157 19.0442 11.6065 19.2423C11.0413 19.4405 10.7147 19.5836 10.6266 19.6717C10.5239 19.7744 10.4285 20.1928 10.3404 20.9268C10.2376 21.6607 10.2376 22.0644 10.3404 22.1378Z" fill="white"/>
<path fill-rule="evenodd" clip-rule="evenodd" d="M7.76871 9.5914C7.82454 9.6022 7.90231 9.62757 7.96739 9.69266L16.2466 17.9719C16.3445 18.0697 16.3618 18.1981 16.3643 18.2788C16.3671 18.3688 16.3532 18.4693 16.3308 18.5728C16.2859 18.7813 16.1952 19.054 16.0652 19.3846C16.0255 19.4877 15.7883 20.0583 15.3581 21.0863L15.2943 21.2389L15.1295 21.2517C14.3103 21.3159 13.5164 21.4903 12.7472 21.7752L12.7447 21.7761L12.7421 21.777C12.4206 21.8889 12.1213 22.021 11.8439 22.1731C11.8389 22.1865 11.833 22.2056 11.8271 22.2317L11.8241 22.2443L11.8201 22.2565C11.8026 22.3091 11.7813 22.3625 11.7543 22.4098C11.7316 22.4495 11.6837 22.5235 11.5963 22.5672L11.5929 22.5688L11.5896 22.5704C11.4027 22.6576 11.1577 22.6527 10.9072 22.6149C10.6263 22.5746 10.3793 22.4951 10.1859 22.3596L10.1848 22.3589L10.1837 22.3581C10.0708 22.2775 10.0341 22.1499 10.0187 22.0779C9.99996 21.9913 9.99328 21.8894 9.99328 21.78C9.99328 21.5598 10.0209 21.2616 10.0726 20.8919C10.117 20.5224 10.1641 20.2244 10.2148 20.0023C10.2401 19.8912 10.2677 19.793 10.2986 19.7116C10.3268 19.6376 10.3684 19.5477 10.4359 19.4802C10.4851 19.4311 10.5486 19.3909 10.6063 19.3588C10.6684 19.3241 10.7437 19.288 10.8297 19.2503C11.0019 19.1748 11.2317 19.0871 11.5165 18.9872C11.8616 18.8629 12.1704 18.7593 12.4424 18.6768L11.7233 17.9577C11.2337 18.0855 10.8293 18.2061 10.5085 18.3196C10.1604 18.4426 9.92659 18.5517 9.78996 18.6432C9.59785 18.8071 9.47328 18.9187 9.40962 18.9824L9.38082 19.0112L9.34488 19.0302C9.16225 19.1269 8.94031 19.1578 8.70236 19.1496C8.47374 19.1417 8.23665 19.0951 8.07985 18.9383C8.00351 18.862 7.95899 18.7643 7.93054 18.6743C7.90111 18.5811 7.88196 18.4735 7.86985 18.3564C7.84574 18.1228 7.84654 17.8206 7.86876 17.456C7.88374 17.092 7.91191 16.7946 7.95608 16.5698C7.97819 16.4573 8.00579 16.3548 8.04179 16.2679C8.07585 16.1857 8.12819 16.0906 8.21517 16.0229L8.23694 16.006L8.26162 15.9938C8.64139 15.8065 8.98671 15.6519 9.29671 15.5312L7.89037 14.1248C7.46431 14.1607 6.92916 14.3292 6.27762 14.6517L6.27574 14.6527L6.27391 14.6536C5.99368 14.787 5.70565 14.9463 5.40983 15.132C5.37136 15.2517 5.28674 15.3545 5.20397 15.4373C5.10343 15.5378 4.97032 15.5876 4.84265 15.6132C4.71299 15.6391 4.56251 15.6452 4.39738 15.6375C4.23271 15.6336 4.08733 15.62 3.96944 15.5917C3.8675 15.5672 3.71549 15.5162 3.62898 15.3816C3.53595 15.2383 3.49475 15.0335 3.47408 14.8175C3.45228 14.5895 3.44992 14.3023 3.46472 13.9599C3.47226 13.6171 3.49289 13.3236 3.52795 13.082C3.56232 12.8453 3.61295 12.6403 3.6901 12.4849C3.73287 12.396 3.80445 12.3356 3.8613 12.2962C3.92346 12.2532 3.9976 12.2154 4.07735 12.1812C4.23667 12.1129 4.45013 12.0459 4.711 11.9787C5.24683 11.8284 5.57613 11.6569 5.74585 11.4872C5.87974 11.3533 6.02819 11.1215 6.18362 10.7688C6.26151 10.5798 6.33174 10.4219 6.39419 10.297C6.45425 10.1769 6.51545 10.07 6.57774 9.99614C6.64991 9.90991 6.75037 9.84677 6.85042 9.7978C6.95482 9.74671 7.08122 9.70043 7.22534 9.65757L7.22768 9.65689L7.23002 9.65626C7.36894 9.61769 7.49465 9.59106 7.60019 9.58374C7.65294 9.58003 7.71122 9.58031 7.76871 9.5914ZM7.37734 10.1774C7.25099 10.2151 7.15614 10.2511 7.08848 10.2842C7.05476 10.3007 7.03065 10.3151 7.01419 10.3267C6.99848 10.3377 6.99299 10.3439 6.99299 10.3438L6.99242 10.3445L6.99174 10.3453C6.97351 10.3668 6.93579 10.4248 6.87859 10.5392C6.82396 10.6485 6.75888 10.7941 6.68311 10.9781L6.68191 10.9811L6.68059 10.984C6.51351 11.3637 6.33208 11.6668 6.12876 11.8701C5.85837 12.1405 5.41783 12.3431 4.8543 12.5009L4.85152 12.5017L4.84872 12.5024C4.59711 12.5671 4.41336 12.6264 4.29068 12.679C4.22914 12.7053 4.1909 12.7267 4.16956 12.7415C4.16859 12.7421 4.16767 12.7428 4.16682 12.7434C4.1301 12.8251 4.09304 12.9591 4.0639 13.1599C4.03301 13.3727 4.01329 13.6434 4.00609 13.9745L4.00603 13.9775L4.0059 13.9804C3.99149 14.312 3.99468 14.5724 4.01318 14.7659C4.02824 14.9233 4.05166 15.0131 4.06924 15.0578C4.07623 15.06 4.08502 15.0625 4.09583 15.0651C4.16065 15.0806 4.26367 15.0927 4.41326 15.0962L4.41655 15.0963L4.41984 15.0964C4.56168 15.1032 4.66512 15.0964 4.73644 15.0821C4.80174 15.0691 4.82159 15.0535 4.82191 15.0535C4.85375 15.0215 4.87369 14.9971 4.88535 14.98C4.89046 14.9725 4.89313 14.9677 4.8943 14.9655C4.90438 14.9263 4.91937 14.8801 4.94368 14.8363C4.96279 14.8019 5.00402 14.7395 5.07994 14.6998C5.40541 14.4934 5.72516 14.3151 6.03922 14.1655C6.78082 13.7986 7.43362 13.5932 7.98814 13.5769L8.10494 13.5735L10.2959 15.7644L9.87334 15.9C9.51316 16.0155 9.07311 16.1995 8.55128 16.4549C8.54865 16.4601 8.54562 16.4668 8.54214 16.4752C8.52494 16.5167 8.50579 16.5812 8.48751 16.6742C8.45099 16.8599 8.42425 17.1267 8.40979 17.4808L8.40968 17.4835L8.40951 17.4863C8.38785 17.8397 8.38876 18.1091 8.40854 18.3006C8.41848 18.3964 8.43236 18.4649 8.44699 18.5112C8.45574 18.539 8.46294 18.5528 8.46568 18.5577C8.47156 18.5619 8.48711 18.5713 8.51979 18.5811C8.56419 18.5944 8.62956 18.6052 8.72105 18.6084C8.88322 18.6139 8.99168 18.594 9.06134 18.5656C9.14636 18.484 9.27745 18.3684 9.44991 18.2215L9.46048 18.2124L9.47191 18.2046C9.66722 18.07 9.95876 17.9395 10.328 17.8089C10.7017 17.6768 11.1727 17.5388 11.7385 17.3945L11.8879 17.3564L13.4911 18.9596L13.0271 19.0756C12.6872 19.1605 12.2454 19.3004 11.6989 19.4971L11.6979 19.4975L11.6968 19.4978C11.4171 19.5959 11.2013 19.6787 11.0471 19.7463C10.9699 19.7801 10.9116 19.8086 10.87 19.8318C10.8459 19.8453 10.8316 19.8547 10.8241 19.8598C10.8205 19.8667 10.8137 19.8806 10.8048 19.9041C10.7862 19.9531 10.7652 20.0246 10.7428 20.1227C10.6981 20.3184 10.6536 20.5957 10.61 20.959L10.6097 20.9617L10.6093 20.9643C10.5585 21.3273 10.5349 21.5971 10.5349 21.78C10.5349 21.858 10.5392 21.9119 10.5448 21.9465C10.6445 22.0031 10.7872 22.0507 10.9849 22.0789L10.9861 22.0791L10.9872 22.0793C11.1448 22.1031 11.2447 22.102 11.3032 22.0939C11.3286 21.9896 11.372 21.869 11.4598 21.7812C11.4997 21.7413 11.5453 21.7127 11.5925 21.6932C11.8947 21.5283 12.2179 21.3861 12.5616 21.2664C13.3251 20.9839 14.112 20.8038 14.9217 20.7263C15.3155 19.7847 15.5271 19.2752 15.5602 19.1891L15.5605 19.1882L15.5609 19.1872C15.6876 18.865 15.7657 18.6242 15.8015 18.4585C15.8161 18.3908 15.8217 18.3439 15.8229 18.314L7.63316 10.1243C7.58088 10.1285 7.49768 10.1441 7.37734 10.1774ZM15.8218 18.2823C15.8219 18.2823 15.8222 18.2836 15.8225 18.2866C15.8219 18.2839 15.8217 18.2824 15.8218 18.2823ZM10.5535 21.983C10.5534 21.9832 10.5527 21.9815 10.5515 21.9776C10.5529 21.9809 10.5536 21.9828 10.5535 21.983ZM4.15674 12.7514C4.15671 12.7514 4.15711 12.751 4.15805 12.7502C4.15723 12.751 4.15677 12.7515 4.15674 12.7514Z" fill="#231F20"/>
</svg>
