<svg width="40" height="40" viewBox="0 0 40 40" fill="none" xmlns="http://www.w3.org/2000/svg">
<path d="M19.9972 39.6561C30.8548 39.6561 39.6567 30.8543 39.6567 19.9966C39.6567 9.13899 30.8548 0.337097 19.9972 0.337097C9.13953 0.337097 0.337646 9.13899 0.337646 19.9966C0.337646 30.8543 9.13953 39.6561 19.9972 39.6561Z" fill="white"/>
<path fill-rule="evenodd" clip-rule="evenodd" d="M19.9966 0.674256C9.32514 0.674256 0.674195 9.32521 0.674195 19.9967C0.674195 30.6682 9.32514 39.3191 19.9966 39.3191C30.6681 39.3191 39.3191 30.6682 39.3191 19.9967C39.3191 9.32521 30.6681 0.674256 19.9966 0.674256ZM0 19.9967C0 8.95285 8.95279 6.10352e-05 19.9966 6.10352e-05C31.0404 6.10352e-05 39.9933 8.95285 39.9933 19.9967C39.9933 31.0405 31.0404 39.9934 19.9966 39.9934C8.95279 39.9934 0 31.0405 0 19.9967Z" fill="#231F20"/>
<path d="M19.9968 37.0066C29.3911 37.0066 37.0067 29.391 37.0067 19.9967C37.0067 10.6023 29.3911 2.98669 19.9968 2.98669C10.6024 2.98669 2.98682 10.6023 2.98682 19.9967C2.98682 29.391 10.6024 37.0066 19.9968 37.0066Z" fill="#009F55"/>
<path fill-rule="evenodd" clip-rule="evenodd" d="M19.9971 3.66089C10.9751 3.66089 3.66138 10.9747 3.66138 19.9967C3.66138 29.0187 10.9751 36.3324 19.9971 36.3324C29.0191 36.3324 36.3329 29.0187 36.3329 19.9967C36.3329 10.9747 29.0191 3.66089 19.9971 3.66089ZM2.31299 19.9967C2.31299 10.2299 10.2304 2.3125 19.9971 2.3125C29.7638 2.3125 37.6813 10.2299 37.6813 19.9967C37.6813 29.7633 29.7638 37.6808 19.9971 37.6808C10.2304 37.6808 2.31299 29.7633 2.31299 19.9967Z" fill="#231F20"/>
<path d="M27.3596 27.6529C27.1769 27.7808 26.9256 27.8677 26.6058 27.9133C26.3043 27.959 26.085 27.9499 25.9479 27.8859C25.9114 27.8677 25.8748 27.8037 25.8383 27.694C25.8109 27.5752 25.7743 27.493 25.7286 27.4473C25.7103 27.429 25.6875 27.4153 25.6601 27.4062C25.2946 27.2052 24.9017 27.0316 24.4814 26.8854C23.4945 26.5199 22.4758 26.296 21.425 26.2138C20.8859 24.9254 20.5935 24.2219 20.5478 24.1031C20.228 23.2899 20.1275 22.8239 20.2463 22.7051L30.5531 12.3982C30.617 12.3342 30.8135 12.348 31.1425 12.4393C31.4805 12.5398 31.6953 12.645 31.7867 12.7546C31.8872 12.8734 32.0333 13.1657 32.2253 13.6317C32.4263 14.0886 32.6318 14.4221 32.842 14.6323C33.1161 14.9064 33.5958 15.1394 34.2811 15.3313C34.9208 15.4957 35.2725 15.6465 35.3365 15.7836C35.4827 16.076 35.5649 16.6425 35.5832 17.4831C35.6198 18.3237 35.5695 18.8492 35.4324 19.0593C35.3685 19.1598 35.14 19.2146 34.7471 19.2237C34.3634 19.242 34.1121 19.1918 33.9933 19.073C33.8928 18.9725 33.8334 18.8857 33.8151 18.8126C33.7968 18.7395 33.774 18.6984 33.7466 18.6892C33.3445 18.4334 32.9517 18.2141 32.5679 18.0314C31.6633 17.5836 30.9003 17.3506 30.279 17.3323L28.0449 19.5664C28.5292 19.7217 29.114 19.9685 29.7993 20.3065C29.9638 20.4345 30.0643 20.9462 30.1008 21.8416C30.1556 22.737 30.1008 23.267 29.9363 23.4315C29.8358 23.532 29.6531 23.5868 29.3881 23.596C29.1231 23.6051 28.913 23.5685 28.7576 23.4863C28.6663 23.3949 28.4973 23.2442 28.2505 23.034C27.8393 22.7507 26.9348 22.431 25.5368 22.0746L24.0976 23.5137C24.5362 23.6234 25.0982 23.8015 25.7835 24.0482C26.487 24.2949 26.8936 24.4732 27.0033 24.5828C27.1312 24.7107 27.25 25.2315 27.3596 26.1452C27.4875 27.0589 27.4875 27.5615 27.3596 27.6529Z" fill="white"/>
<path fill-rule="evenodd" clip-rule="evenodd" d="M30.7305 12.6972L20.5351 22.8927C20.5365 22.9299 20.5436 22.9882 20.5618 23.0726C20.6063 23.2787 20.7035 23.5785 20.8612 23.9797L20.8617 23.9809L20.8621 23.982C20.9033 24.0892 21.1667 24.7235 21.657 25.8956C22.665 25.9922 23.6445 26.2164 24.595 26.5681C25.023 26.7171 25.4253 26.8941 25.8015 27.0994C25.8603 27.1237 25.917 27.1593 25.9667 27.2089C26.076 27.3182 26.13 27.4684 26.1617 27.5982C26.2345 27.6082 26.3588 27.6097 26.555 27.58L26.5564 27.5798L26.5578 27.5796C26.804 27.5444 26.9817 27.4852 27.1058 27.4147C27.1128 27.3716 27.1182 27.3045 27.1182 27.2074C27.1182 26.9797 27.0888 26.6439 27.0255 26.1919L27.025 26.1887L27.0246 26.1854C26.9704 25.7332 26.9149 25.3879 26.8593 25.1443C26.8315 25.0222 26.8053 24.9331 26.7821 24.8722C26.771 24.8429 26.7625 24.8256 26.758 24.8169C26.7488 24.8106 26.731 24.7989 26.7009 24.7821C26.6492 24.7532 26.5767 24.7178 26.4805 24.6757C26.2885 24.5915 26.02 24.4885 25.6716 24.3664L25.6703 24.3659L25.669 24.3654C24.9888 24.1205 24.4386 23.9465 24.0155 23.8407L23.438 23.6963L25.4338 21.7005L25.6197 21.7479C26.3242 21.9275 26.9104 22.0994 27.3758 22.2639C27.8353 22.4264 28.1983 22.5889 28.4415 22.7564L28.4557 22.7662L28.4688 22.7774C28.6835 22.9603 28.8467 23.1043 28.9526 23.2058C29.0393 23.2411 29.1743 23.266 29.3762 23.259C29.4901 23.2551 29.5715 23.2417 29.6268 23.2251C29.6674 23.2129 29.6868 23.2012 29.6941 23.1959C29.6975 23.1899 29.7065 23.1727 29.7174 23.1381C29.7355 23.0805 29.7529 22.9952 29.7652 22.8759C29.7899 22.6375 29.791 22.3021 29.764 21.8622L29.7638 21.8587L29.7637 21.8553C29.7457 21.4144 29.7123 21.0824 29.667 20.8512C29.6442 20.7354 29.6203 20.6552 29.5989 20.6034C29.5946 20.593 29.5908 20.5847 29.5875 20.5782C28.9379 20.2602 28.3901 20.0312 27.9417 19.8874L27.4156 19.7187L30.1432 16.9911L30.2886 16.9954C30.9789 17.0157 31.7916 17.2714 32.7148 17.7281C33.1058 17.9144 33.5038 18.1363 33.909 18.3932C34.0035 18.4427 34.0549 18.5204 34.0787 18.5632C34.1089 18.6177 34.1276 18.6752 34.1401 18.724C34.1416 18.7268 34.1449 18.7328 34.1513 18.7422C34.1658 18.7634 34.1906 18.7938 34.2303 18.8335C34.2304 18.8334 34.2549 18.8529 34.3367 18.8692C34.4255 18.8869 34.5542 18.8954 34.7308 18.887L34.7349 18.8868L34.739 18.8867C34.9252 18.8824 35.0535 18.8674 35.1342 18.848C35.1476 18.8447 35.1585 18.8417 35.1673 18.8389C35.1891 18.7832 35.2183 18.6715 35.237 18.4755C35.2601 18.2347 35.264 17.9104 35.2461 17.4977L35.246 17.4941L35.2459 17.4904C35.2369 17.0782 35.2124 16.7411 35.1739 16.4762C35.1376 16.2263 35.0915 16.0594 35.0458 15.9577C35.0447 15.957 35.0436 15.9562 35.0424 15.9554C35.0158 15.9369 34.9682 15.9104 34.8916 15.8775C34.7388 15.8121 34.5101 15.7383 34.1969 15.6577L34.1934 15.6569L34.1899 15.6559C33.4884 15.4594 32.94 15.2072 32.6033 14.8707C32.3502 14.6175 32.1244 14.2402 31.9164 13.7675L31.9148 13.7638L31.9133 13.7601C31.819 13.5311 31.7379 13.3497 31.6699 13.2137C31.5986 13.0712 31.5517 12.9991 31.529 12.9723L31.5282 12.9713L31.5275 12.9705C31.5275 12.9705 31.5206 12.9629 31.5011 12.9492C31.4806 12.9347 31.4506 12.9169 31.4086 12.8963C31.3244 12.8551 31.2063 12.8102 31.049 12.7633C30.8992 12.7218 30.7956 12.7024 30.7305 12.6972ZM35.0583 15.9677C35.0583 15.9677 35.0577 15.9672 35.0567 15.9662C35.0579 15.9672 35.0584 15.9677 35.0583 15.9677ZM35.1952 18.8284C35.1951 18.8284 35.1951 18.8284 35.1951 18.8284C35.1958 18.8281 35.1958 18.8281 35.1952 18.8284ZM27.095 27.4602C27.0949 27.4599 27.0956 27.4575 27.0975 27.4534C27.096 27.4583 27.0951 27.4603 27.095 27.4602ZM20.5364 22.8532C20.5365 22.8533 20.5363 22.8552 20.5356 22.8585C20.536 22.8547 20.5363 22.8531 20.5364 22.8532ZM30.7716 12.0242C30.903 12.0334 31.0595 12.0665 31.2324 12.1145L31.2353 12.1153L31.2383 12.1162C31.4176 12.1695 31.575 12.2271 31.705 12.2907C31.8295 12.3517 31.9545 12.4303 32.0444 12.5377C32.122 12.6297 32.1982 12.7627 32.2729 12.9122C32.3506 13.0677 32.4381 13.2642 32.5351 13.4996C32.7285 13.9386 32.9133 14.2272 33.08 14.3939C33.2913 14.6052 33.7013 14.8186 34.3683 15.0057C34.6931 15.0893 34.9588 15.1729 35.1572 15.2579C35.2565 15.3004 35.3488 15.3474 35.4261 15.401C35.4969 15.45 35.586 15.5253 35.6393 15.636C35.7353 15.8294 35.7983 16.0846 35.8411 16.3793C35.8848 16.68 35.9105 17.0454 35.9198 17.4721C35.9383 17.8984 35.9353 18.2559 35.9082 18.5397C35.8825 18.8087 35.8312 19.0637 35.7153 19.2421C35.6077 19.4097 35.4184 19.4731 35.2915 19.5036C35.1448 19.5388 34.9638 19.5557 34.7588 19.5607C34.5532 19.5702 34.3658 19.5626 34.2045 19.5303C34.0455 19.4985 33.8798 19.4365 33.7546 19.3114C33.6516 19.2083 33.5463 19.0803 33.4983 18.9313C33.1301 18.7002 32.7715 18.5018 32.4227 18.3357L32.4203 18.3346L32.418 18.3334C31.6069 17.9319 30.9408 17.7222 30.4103 17.6774L28.6595 19.4282C29.0455 19.5785 29.4753 19.7709 29.9481 20.0042L29.9789 20.0194L30.006 20.0404C30.1143 20.1247 30.1794 20.2432 30.2218 20.3454C30.2666 20.4536 30.301 20.5812 30.3285 20.7212C30.3835 21.0011 30.4186 21.3714 30.4372 21.8244C30.4649 22.2784 30.4659 22.6545 30.4358 22.9453C30.4208 23.0911 30.3969 23.2251 30.3603 23.3411C30.3249 23.4532 30.2695 23.5747 30.1744 23.6698C29.9793 23.865 29.6841 23.923 29.3994 23.9328C29.1032 23.943 28.827 23.9046 28.5996 23.7842L28.5548 23.7605L28.519 23.7247C28.4398 23.6454 28.2846 23.5064 28.0455 23.3024C27.8754 23.1885 27.5844 23.0527 27.151 22.8995C26.7516 22.7583 26.2482 22.6081 25.6387 22.4491L24.7435 23.3442C25.082 23.4469 25.4665 23.5759 25.896 23.7306C26.2506 23.8549 26.5368 23.9642 26.7511 24.0582C26.8583 24.1051 26.9519 24.1502 27.0292 24.1932C27.1011 24.2333 27.1802 24.2832 27.2413 24.3444C27.3254 24.4284 27.3773 24.5404 27.4123 24.6326C27.4508 24.7339 27.4851 24.8561 27.5167 24.9944C27.5798 25.2709 27.6384 25.6418 27.6936 26.1017C27.758 26.5621 27.7924 26.9333 27.7924 27.2074C27.7924 27.3437 27.784 27.4705 27.7608 27.5782C27.7415 27.6679 27.6958 27.8268 27.5553 27.9272L27.554 27.9282L27.5526 27.9291C27.3118 28.0976 27.0044 28.1967 26.6546 28.2468C26.3428 28.2939 26.0378 28.3 25.805 28.1914L25.801 28.1894L25.7969 28.1874C25.688 28.1329 25.6284 28.0409 25.6001 27.9914C25.5665 27.9326 25.54 27.8661 25.5182 27.8006L25.5131 27.7854L25.5095 27.7698C25.502 27.7374 25.4948 27.7135 25.4886 27.6967C25.1432 27.5074 24.7706 27.3429 24.3703 27.2037L24.3672 27.2027L24.364 27.2014C23.4064 26.8468 22.4182 26.6297 21.3984 26.5499L21.1932 26.5338L21.1137 26.3439C20.5781 25.064 20.2828 24.3537 20.2333 24.2254C20.0715 23.8137 19.9587 23.4743 19.9028 23.2147C19.875 23.0859 19.8575 22.9609 19.861 22.8487C19.8642 22.7483 19.8858 22.5885 20.0076 22.4667L30.3145 12.1598C30.3955 12.0788 30.4923 12.0472 30.5618 12.0338C30.6333 12.02 30.7059 12.0197 30.7716 12.0242Z" fill="#231F20"/>
<path d="M12.9255 27.6723C13.109 27.8007 13.3614 27.8879 13.6824 27.9338C13.9852 27.9797 14.2054 27.9705 14.343 27.9063C14.3797 27.8879 14.4164 27.8237 14.4531 27.7136C14.4806 27.5943 14.5174 27.5117 14.5632 27.4659C14.5816 27.4475 14.6045 27.4338 14.632 27.4246C14.999 27.2227 15.3935 27.0484 15.8156 26.9017C16.8064 26.5347 17.8294 26.3099 18.8845 26.2273C19.4258 24.9337 19.7194 24.2272 19.7652 24.1079C20.0864 23.2914 20.1873 22.8235 20.068 22.7042L9.719 12.3552C9.65479 12.291 9.4575 12.3047 9.12721 12.3965C8.78779 12.4974 8.57214 12.6029 8.48043 12.713C8.3795 12.8323 8.23271 13.1259 8.04 13.5938C7.83814 14.0525 7.63171 14.3874 7.42071 14.5984C7.1455 14.8737 6.66381 15.1076 5.97571 15.3003C5.33349 15.4654 4.98026 15.6168 4.91604 15.7544C4.76925 16.048 4.68668 16.6169 4.66833 17.4609C4.63163 18.3049 4.68209 18.8325 4.81971 19.0435C4.88393 19.1444 5.1133 19.1995 5.50781 19.2087C5.89314 19.227 6.14545 19.1766 6.26472 19.0573C6.36564 18.9564 6.42528 18.8692 6.44363 18.7958C6.46197 18.7224 6.48491 18.6812 6.51244 18.6719C6.91612 18.4151 7.31064 18.1949 7.696 18.0114C8.60429 17.5618 9.37036 17.3279 9.99421 17.3095L12.2374 19.5527C11.7511 19.7087 11.164 19.9564 10.4759 20.2959C10.3108 20.4243 10.2099 20.9381 10.1731 21.8372C10.1181 22.7364 10.1731 23.2684 10.3383 23.4336C10.4392 23.5345 10.6227 23.5896 10.8888 23.5987C11.1548 23.6079 11.3659 23.5712 11.5218 23.4887C11.6136 23.3969 11.7833 23.2455 12.031 23.0345C12.4439 22.7501 13.3521 22.429 14.7559 22.0712L16.2009 23.5162C15.7605 23.6263 15.1963 23.8052 14.5081 24.0529C13.8017 24.3007 13.3934 24.4795 13.2834 24.5897C13.1549 24.7181 13.0356 25.241 12.9255 26.1585C12.7971 27.0759 12.7971 27.5806 12.9255 27.6723Z" fill="white"/>
<path fill-rule="evenodd" clip-rule="evenodd" d="M9.71082 11.9893C9.78061 12.0028 9.87782 12.0345 9.95918 12.1159L20.3082 22.4649C20.4305 22.5872 20.4522 22.7477 20.4553 22.8485C20.4588 22.9611 20.4414 23.0867 20.4135 23.216C20.3573 23.4767 20.244 23.8175 20.0815 24.2308C20.0318 24.3597 19.7353 25.0729 19.1975 26.3579L19.1178 26.5487L18.9118 26.5647C17.8878 26.6449 16.8955 26.8629 15.934 27.2191L15.9308 27.2202L15.9276 27.2213C15.5257 27.3612 15.1515 27.5263 14.8048 27.7164C14.7986 27.7332 14.7913 27.7571 14.7838 27.7897L14.7801 27.8054L14.775 27.8207C14.7532 27.8864 14.7266 27.9532 14.6928 28.0123C14.6644 28.0619 14.6045 28.1544 14.4953 28.209L14.4911 28.2111L14.487 28.213C14.2533 28.3221 13.947 28.3159 13.6339 28.2687C13.2828 28.2183 12.974 28.1189 12.7323 27.9496L12.731 27.9487L12.7296 27.9477C12.5885 27.8469 12.5426 27.6874 12.5233 27.5974C12.4999 27.4892 12.4915 27.3618 12.4915 27.2251C12.4915 26.9498 12.526 26.5771 12.5907 26.1149C12.6462 25.653 12.705 25.2806 12.7684 25.0029C12.8 24.8641 12.8345 24.7413 12.8732 24.6396C12.9084 24.5471 12.9605 24.4347 13.0448 24.3503C13.1063 24.2889 13.1857 24.2387 13.2578 24.1985C13.3355 24.1552 13.4295 24.11 13.5371 24.0629C13.7523 23.9686 14.0396 23.8589 14.3956 23.734C14.827 23.5787 15.213 23.4492 15.5529 23.346L14.654 22.4472C14.0421 22.6069 13.5366 22.7577 13.1355 22.8995C12.7004 23.0533 12.4082 23.1897 12.2374 23.3041C11.9973 23.5089 11.8415 23.6484 11.762 23.728L11.726 23.764L11.681 23.7878C11.4528 23.9087 11.1753 23.9473 10.8779 23.937C10.5921 23.9272 10.2958 23.8689 10.0998 23.6729C10.0043 23.5775 9.94868 23.4554 9.91311 23.3429C9.87632 23.2264 9.8524 23.0919 9.83725 22.9455C9.80711 22.6535 9.80811 22.2758 9.8359 21.82C9.85461 21.3651 9.88982 20.9933 9.94504 20.7123C9.97268 20.5717 10.0072 20.4435 10.0522 20.3349C10.0948 20.2322 10.1602 20.1133 10.2689 20.0287L10.2961 20.0076L10.327 19.9923C10.8017 19.7582 11.2333 19.5649 11.6208 19.414L9.8629 17.656C9.33032 17.7009 8.6614 17.9116 7.84697 18.3147L7.84461 18.3159L7.84232 18.317C7.49204 18.4838 7.132 18.6829 6.76222 18.915C6.71414 19.0647 6.60836 19.1932 6.5049 19.2967C6.37922 19.4223 6.21284 19.4846 6.05325 19.5165C5.89117 19.5489 5.70308 19.5566 5.49667 19.5469C5.29083 19.542 5.1091 19.525 4.96174 19.4897C4.83432 19.4591 4.6443 19.3953 4.53617 19.2271C4.41987 19.0479 4.36837 18.7919 4.34254 18.5219C4.31529 18.2369 4.31234 17.8779 4.33085 17.4499C4.34026 17.0214 4.36605 16.6545 4.40988 16.3526C4.45285 16.0567 4.51613 15.8004 4.61256 15.6062C4.66603 15.4951 4.7555 15.4195 4.82657 15.3703C4.90427 15.3165 4.99695 15.2693 5.09663 15.2266C5.29578 15.1412 5.5626 15.0574 5.88869 14.9734C6.55847 14.7855 6.9701 14.5712 7.18225 14.3591C7.34961 14.1917 7.53518 13.9019 7.72947 13.4611C7.82682 13.2248 7.91461 13.0274 7.99268 12.8713C8.06775 12.7212 8.14425 12.5876 8.22211 12.4952C8.31232 12.3874 8.4379 12.3085 8.56297 12.2473C8.69347 12.1834 8.85147 12.1256 9.03161 12.072L9.03454 12.0712L9.03747 12.0704C9.21111 12.0222 9.36825 11.9889 9.50018 11.9797C9.56611 11.9751 9.63897 11.9754 9.71082 11.9893ZM9.22161 12.7218C9.06368 12.7689 8.94511 12.8139 8.86054 12.8553C8.8184 12.8759 8.78825 12.8939 8.76768 12.9084C8.74804 12.9222 8.74118 12.9299 8.74118 12.9298L8.74047 12.9307L8.73961 12.9317C8.71682 12.9586 8.66968 13.031 8.59818 13.174C8.5299 13.3107 8.44854 13.4927 8.35382 13.7227L8.35232 13.7264L8.35068 13.7301C8.14182 14.2047 7.91504 14.5836 7.6609 14.8377C7.3229 15.1757 6.77222 15.4289 6.06782 15.6262L6.06434 15.6272L6.06084 15.6281C5.74633 15.7089 5.51665 15.7831 5.3633 15.8488C5.28636 15.8817 5.23856 15.9084 5.2119 15.9269C5.21067 15.9277 5.20953 15.9286 5.20847 15.9293C5.16256 16.0314 5.11624 16.1989 5.07982 16.4499C5.0412 16.7159 5.01655 17.0543 5.00755 17.4682L5.00747 17.4719L5.00732 17.4756C4.9893 17.89 4.99329 18.2156 5.01642 18.4574C5.03525 18.6542 5.06452 18.7664 5.0865 18.8223C5.09523 18.8251 5.10621 18.8282 5.11972 18.8314C5.20075 18.8508 5.32952 18.8659 5.51651 18.8703L5.52063 18.8704L5.52474 18.8706C5.70205 18.879 5.83135 18.8705 5.92049 18.8527C6.00212 18.8364 6.02692 18.8169 6.02732 18.8169C6.06712 18.7769 6.09205 18.7464 6.10662 18.7251C6.11302 18.7157 6.11635 18.7097 6.11782 18.7069C6.13042 18.6579 6.14915 18.6002 6.17954 18.5454C6.20342 18.5024 6.25496 18.4244 6.34986 18.3748C6.7567 18.1168 7.1564 17.8939 7.54897 17.7069C8.47597 17.2483 9.29197 16.9916 9.98511 16.9712L10.1311 16.9669L12.8698 19.7056L12.3416 19.875C11.8914 20.0194 11.3413 20.2494 10.689 20.5687C10.6858 20.5752 10.682 20.5836 10.6776 20.594C10.6561 20.6459 10.6322 20.7265 10.6093 20.8428C10.5637 21.0749 10.5303 21.4084 10.5122 21.851L10.512 21.8544L10.5118 21.8579C10.4848 22.2997 10.4859 22.6364 10.5106 22.8758C10.523 22.9955 10.5404 23.0812 10.5587 23.139C10.5696 23.1738 10.5786 23.191 10.582 23.1972C10.5894 23.2024 10.6088 23.2142 10.6497 23.2264C10.7052 23.243 10.7869 23.2565 10.9013 23.2605C11.104 23.2674 11.2395 23.2425 11.3266 23.207C11.4329 23.1051 11.5968 22.9605 11.8123 22.7769L11.8255 22.7656L11.8398 22.7558C12.084 22.5876 12.4484 22.4244 12.9099 22.2612C13.3771 22.0961 13.9658 21.9235 14.6731 21.7432L14.8598 21.6956L16.8638 23.6996L16.2838 23.8446C15.859 23.9507 15.3067 24.1255 14.6236 24.3714L14.6223 24.3719L14.621 24.3723C14.2713 24.4949 14.0016 24.5984 13.8088 24.6829C13.7123 24.7252 13.6395 24.7608 13.5875 24.7898C13.5573 24.8067 13.5394 24.8184 13.5301 24.8248C13.5256 24.8334 13.5171 24.8508 13.506 24.8802C13.4827 24.9414 13.4564 25.0308 13.4284 25.1534C13.3726 25.3981 13.3169 25.7447 13.2624 26.1988L13.262 26.2022L13.2615 26.2054C13.198 26.6592 13.1685 26.9964 13.1685 27.2251C13.1685 27.3225 13.174 27.3899 13.181 27.4332C13.3056 27.5039 13.484 27.5634 13.7311 27.5987L13.7325 27.5989L13.734 27.5992C13.931 27.6289 14.0558 27.6275 14.1289 27.6174C14.1607 27.487 14.215 27.3363 14.3247 27.2265C14.3745 27.1767 14.4315 27.1409 14.4906 27.1166C14.8683 26.9104 15.2723 26.7327 15.702 26.5831C16.6563 26.2299 17.64 26.0048 18.652 25.9079C19.1443 24.7309 19.4088 24.0941 19.4502 23.9864L19.4506 23.9853L19.4511 23.9841C19.6095 23.5813 19.7071 23.2803 19.7518 23.0732C19.77 22.9886 19.777 22.9299 19.7785 22.8926L9.5414 12.6554C9.47604 12.6607 9.37204 12.6802 9.22161 12.7218ZM19.7772 22.8529C19.7773 22.8529 19.7777 22.8546 19.778 22.8583C19.7773 22.8549 19.7771 22.8531 19.7772 22.8529ZM13.1918 27.4788C13.1917 27.479 13.1908 27.4769 13.1893 27.472C13.1911 27.4762 13.1919 27.4786 13.1918 27.4788ZM5.19586 15.9393C5.19582 15.9393 5.19633 15.9388 5.1975 15.9378C5.19648 15.9388 5.1959 15.9394 5.19586 15.9393Z" fill="#231F20"/>
</svg>
