<svg width="1291" height="352" viewBox="0 0 1291 352" fill="none" xmlns="http://www.w3.org/2000/svg">
<path opacity="0.6" d="M387.397 1125.81C417.64 1119.85 447.465 1111.99 477.522 1105.07L530.042 1088.71L539.779 1084.5C587.498 1064.01 636.669 1046.31 682.745 1022.58C1138.42 787.745 1376.49 276.202 1261.65 -221.899C1206.36 -461.495 1084.29 -661.4 898.675 -822.486C891.969 -828.303 885.029 -833.885 878.045 -839.713C877.193 -838.443 876.712 -837.856 876.376 -837.217C841.85 -771.831 807.535 -706.371 773.433 -640.837C772.501 -639.202 773.88 -634.981 775.571 -633.402C952.998 -466.994 1050.62 -262.536 1065.23 -19.859C1088.72 371.84 844.81 738.81 474.942 870.588C309.61 929.436 132.915 943.156 -38.3321 904.858C-52.3276 930.668 -65.8343 956.747 -79.5154 982.734L-142.358 1102.13C31.3398 1151.72 210.286 1160.61 387.397 1125.81Z" fill="#BFF4FC"/>
</svg>
