<svg width="401" height="299" viewBox="0 0 401 299" fill="none" xmlns="http://www.w3.org/2000/svg">
<path d="M232.948 234.274L236.066 234.274C236.244 234.274 236.42 234.309 236.584 234.377C236.748 234.445 236.897 234.545 237.022 234.67C237.148 234.796 237.247 234.945 237.315 235.109C237.383 235.273 237.418 235.448 237.418 235.626V235.626C237.418 235.803 237.383 235.979 237.315 236.143C237.247 236.307 237.148 236.456 237.022 236.581C236.897 236.707 236.748 236.806 236.584 236.874C236.42 236.942 236.244 236.977 236.066 236.977L232.948 236.977C232.589 236.977 232.246 236.835 231.992 236.581C231.739 236.328 231.596 235.984 231.596 235.626V235.626C231.596 235.267 231.739 234.924 231.992 234.67C232.246 234.417 232.589 234.274 232.948 234.274V234.274Z" fill="#E1458D"/>
<path d="M221.967 234.274L225.086 234.274C225.264 234.274 225.44 234.309 225.604 234.377C225.767 234.445 225.916 234.545 226.042 234.67C226.167 234.796 226.267 234.945 226.335 235.109C226.403 235.273 226.438 235.448 226.437 235.626V235.626C226.437 235.984 226.295 236.328 226.042 236.581C225.788 236.835 225.445 236.977 225.086 236.977L221.967 236.977C221.609 236.977 221.265 236.835 221.012 236.581C220.758 236.328 220.616 235.984 220.616 235.626V235.626C220.616 235.267 220.758 234.924 221.012 234.67C221.265 234.417 221.609 234.274 221.967 234.274V234.274Z" fill="#E1458D"/>
<path d="M230.363 239.558L230.363 242.677C230.363 243.035 230.221 243.379 229.967 243.633C229.714 243.886 229.37 244.029 229.012 244.029C228.653 244.028 228.31 243.886 228.056 243.633C227.803 243.379 227.661 243.035 227.661 242.677L227.661 239.558C227.661 239.2 227.803 238.856 228.056 238.603C228.31 238.349 228.653 238.207 229.012 238.207V238.207C229.189 238.207 229.365 238.242 229.529 238.309C229.693 238.377 229.842 238.477 229.967 238.602C230.093 238.728 230.192 238.877 230.26 239.041C230.328 239.205 230.363 239.381 230.363 239.558Z" fill="#E1458D"/>
<path d="M230.363 228.574L230.363 231.693C230.363 232.052 230.221 232.395 229.967 232.649C229.714 232.902 229.37 233.045 229.012 233.045C228.653 233.045 228.31 232.902 228.056 232.649C227.803 232.395 227.661 232.052 227.661 231.693L227.661 228.574C227.661 228.216 227.803 227.872 228.056 227.619C228.31 227.366 228.653 227.223 229.012 227.223C229.189 227.223 229.365 227.258 229.529 227.326C229.693 227.394 229.842 227.493 229.967 227.619C230.093 227.744 230.192 227.893 230.26 228.057C230.328 228.221 230.363 228.397 230.363 228.574V228.574Z" fill="#E1458D"/>
<path d="M275.446 203.498C275.448 202.282 275.83 201.097 276.537 200.109C277.253 199.109 278.255 198.35 279.412 197.934C280.577 197.513 281.84 197.451 283.041 197.754C284.235 198.055 285.31 198.71 286.124 199.634C286.183 199.704 286.262 199.753 286.351 199.775C286.439 199.795 286.531 199.789 286.615 199.758C286.7 199.727 286.773 199.671 286.827 199.599C286.878 199.527 286.905 199.441 286.906 199.352V197.777C286.914 197.483 286.899 197.189 286.861 196.897L286.06 189.858C286.031 189.628 285.919 189.417 285.744 189.265C285.567 189.11 285.341 189.024 285.106 189.022H278.359C278.135 189.024 277.917 189.095 277.735 189.226C277.555 189.356 277.421 189.539 277.352 189.75L275.318 196.921H268.463C268.236 196.922 268.015 196.995 267.832 197.131C267.651 197.264 267.519 197.453 267.456 197.669L266.637 200.897C266.618 200.976 266.621 201.059 266.647 201.137C266.673 201.215 266.72 201.284 266.783 201.337C266.845 201.393 266.923 201.43 267.006 201.443C267.089 201.455 267.174 201.443 267.251 201.409C267.774 201.199 268.333 201.091 268.897 201.092C270.025 201.09 271.109 201.529 271.919 202.315C272.314 202.698 272.63 203.156 272.846 203.663C273.063 204.169 273.176 204.714 273.18 205.265C273.177 205.323 273.187 205.381 273.208 205.435C273.23 205.49 273.263 205.539 273.305 205.58C273.392 205.659 273.504 205.703 273.62 205.703H275.23C275.3 205.705 275.368 205.69 275.431 205.661C275.494 205.632 275.548 205.588 275.591 205.534C275.633 205.48 275.661 205.417 275.673 205.35C275.686 205.283 275.682 205.214 275.662 205.149C275.512 204.612 275.439 204.056 275.446 203.498V203.498ZM283.398 194.057C283.397 194.145 283.368 194.23 283.317 194.302C283.266 194.374 283.193 194.43 283.11 194.461L278.081 196.432C278.024 196.441 277.967 196.441 277.911 196.432C277.84 196.433 277.77 196.418 277.707 196.386C277.644 196.356 277.589 196.31 277.547 196.254C277.506 196.198 277.479 196.133 277.469 196.064C277.458 195.996 277.465 195.926 277.488 195.86L279.071 191.021C279.1 190.932 279.156 190.855 279.232 190.8C279.308 190.744 279.4 190.714 279.494 190.712H282.949C283.067 190.715 283.18 190.762 283.264 190.844C283.348 190.925 283.397 191.036 283.4 191.153L283.398 194.057Z" fill="#E1458D"/>
<path d="M286.242 203.497C286.24 202.582 285.961 201.688 285.442 200.934C284.918 200.171 284.181 199.58 283.322 199.235C282.458 198.886 281.511 198.795 280.595 198.974C279.684 199.15 278.844 199.59 278.179 200.238C277.522 200.879 277.072 201.702 276.888 202.601C276.706 203.497 276.798 204.426 277.154 205.268C277.515 206.116 278.119 206.838 278.89 207.341C279.539 207.766 280.281 208.026 281.053 208.101C281.825 208.176 282.603 208.063 283.322 207.771C283.894 207.54 284.415 207.199 284.857 206.768C285.295 206.34 285.643 205.83 285.883 205.266C286.12 204.707 286.242 204.105 286.242 203.497V203.497ZM281.51 205.697C281.066 205.697 280.632 205.568 280.26 205.326C279.892 205.087 279.604 204.743 279.432 204.339C279.262 203.938 279.217 203.495 279.304 203.068C279.392 202.639 279.606 202.247 279.92 201.942C280.237 201.633 280.637 201.423 281.071 201.339C281.507 201.255 281.959 201.298 282.371 201.465C282.779 201.63 283.131 201.911 283.38 202.275C283.669 202.697 283.799 203.207 283.749 203.715C283.698 204.224 283.469 204.699 283.103 205.055C282.893 205.26 282.645 205.422 282.372 205.531C282.098 205.642 281.805 205.698 281.51 205.697V205.697Z" fill="#E1458D"/>
<path d="M268.915 202.406C268.338 202.407 267.774 202.577 267.292 202.893C266.814 203.206 266.441 203.654 266.219 204.18C266 204.702 265.943 205.278 266.058 205.833C266.174 206.389 266.454 206.898 266.863 207.294C267.276 207.694 267.797 207.965 268.362 208.072C268.929 208.181 269.516 208.123 270.051 207.904C270.582 207.688 271.037 207.321 271.36 206.847C271.624 206.457 271.787 206.007 271.834 205.538C271.88 205.069 271.808 204.596 271.624 204.162C271.475 203.814 271.259 203.499 270.987 203.235C270.714 202.969 270.39 202.76 270.036 202.618C269.679 202.476 269.299 202.404 268.915 202.406V202.406ZM268.915 206.366C268.693 206.366 268.476 206.301 268.29 206.181C268.106 206.061 267.962 205.889 267.876 205.687C267.791 205.486 267.768 205.265 267.812 205.051C267.856 204.837 267.963 204.641 268.119 204.488C268.278 204.333 268.479 204.229 268.697 204.187C268.915 204.145 269.141 204.166 269.347 204.25C269.551 204.332 269.727 204.473 269.851 204.655C269.995 204.865 270.061 205.119 270.036 205.372C270.011 205.626 269.898 205.862 269.715 206.04C269.505 206.247 269.221 206.364 268.926 206.366H268.915Z" fill="#E1458D"/>
<path d="M270.72 188.978H271.17V191.697C270.909 191.788 270.682 191.956 270.52 192.179C270.36 192.4 270.272 192.665 270.27 192.938V195.138C270.27 195.196 270.282 195.253 270.304 195.307C270.327 195.36 270.36 195.408 270.402 195.449C270.487 195.532 270.601 195.578 270.72 195.578H273.419C273.537 195.578 273.652 195.532 273.737 195.449C273.778 195.408 273.811 195.36 273.834 195.306C273.857 195.253 273.868 195.196 273.868 195.138V192.938C273.869 192.665 273.782 192.398 273.621 192.177C273.459 191.953 273.231 191.786 272.969 191.697V188.098C272.968 187.982 272.945 187.867 272.9 187.76C272.855 187.654 272.788 187.557 272.705 187.476C272.535 187.31 272.307 187.218 272.069 187.218H270.72C270.482 187.218 270.254 187.31 270.084 187.476C270 187.557 269.934 187.653 269.889 187.76C269.844 187.867 269.82 187.982 269.82 188.098C269.82 188.214 269.844 188.329 269.889 188.436C269.934 188.543 270 188.639 270.084 188.72C270.254 188.886 270.482 188.979 270.72 188.978V188.978Z" fill="#E1458D"/>
<path d="M157.442 207.245L162.581 207.241C162.581 228.418 162.586 249.595 162.594 270.772C162.592 272.582 162.405 274.387 162.033 276.158C159.761 287.12 149.013 295.8 136.701 294.594C125.07 293.452 115.683 283.565 115.589 271.863C115.534 265.069 115.555 258.273 115.573 251.479C115.591 244.441 110.084 239.58 103.805 239.706C92.4851 239.933 81.1567 239.757 69.8316 239.75C69.2483 238.086 69.2483 236.273 69.8316 234.61C81.4327 234.615 93.0353 234.52 104.635 234.664C110.907 234.742 115.633 237.752 118.641 243.288C119.871 245.593 120.511 248.167 120.502 250.78C120.592 258.243 120.003 265.729 120.773 273.166C121.072 276.234 122.141 279.177 123.881 281.721C125.621 284.266 127.976 286.329 130.727 287.72C133.478 289.11 136.536 289.782 139.617 289.674C142.698 289.566 145.701 288.681 148.348 287.102C154.217 283.652 157.356 278.387 157.388 271.585C157.483 250.139 157.435 228.691 157.442 207.245Z" fill="#FED670"/>
<path d="M69.8282 239.749C81.1533 239.757 92.4817 239.932 103.802 239.706C110.08 239.58 115.588 244.44 115.57 251.479C115.552 258.273 115.531 265.068 115.585 271.863C115.679 283.565 125.067 293.452 136.698 294.593C149.009 295.802 159.758 287.119 162.03 276.158C162.401 274.386 162.589 272.581 162.59 270.771C162.574 249.595 162.57 228.418 162.578 207.241C163.808 206.842 165.037 206.443 166.301 206.033C166.708 206.45 166.502 206.982 166.504 207.448C166.517 228.51 166.517 249.572 166.504 270.634C166.48 284.073 158.145 294.676 145.154 297.942C130.094 301.729 114.072 290.905 111.923 275.515C111.246 270.664 111.678 265.793 111.576 260.932C111.509 257.762 111.578 254.591 111.559 251.42C111.53 246.609 108.532 243.587 103.684 243.572C93.662 243.542 83.6398 243.563 73.6176 243.563C70.7409 243.562 69.9495 242.765 69.8282 239.749Z" fill="#754DFF"/>
<path d="M337.905 82.2759C337.282 83.9781 337.42 85.698 337.784 87.4229C344.623 87.5303 351.47 87.0634 358.302 87.6948C366.676 88.407 374.53 92.0523 380.479 97.9882C389.763 107.075 393.327 118.259 391.526 131.09C389.051 148.719 373.088 162.634 355.311 162.741C347.956 162.785 340.599 162.751 333.243 162.753C332.759 164.441 332.757 166.232 333.24 167.921C339.975 167.917 346.71 167.913 353.445 167.908C366.817 167.892 378.076 163.075 386.783 152.851C395.881 142.166 398.872 129.78 396.114 116.084C394.268 106.914 389.585 99.2758 382.595 93.078C375.896 87.0408 367.412 83.351 358.429 82.5675C351.605 81.9289 344.748 82.2837 337.905 82.2759Z" fill="#FED670"/>
<path d="M157.439 207.244C157.432 228.691 157.48 250.138 157.386 271.584C157.356 278.387 154.216 283.652 148.346 287.101C145.699 288.681 142.696 289.566 139.615 289.674C136.534 289.782 133.476 289.109 130.725 287.719C127.974 286.328 125.619 284.265 123.879 281.721C122.139 279.176 121.07 276.234 120.772 273.165C120 265.728 120.589 258.243 120.5 250.78C120.509 248.167 119.869 245.593 118.64 243.287C115.631 237.752 110.905 234.741 104.633 234.663C93.0335 234.52 81.4308 234.614 69.8297 234.609C69.9361 231.535 70.8131 230.644 73.7352 230.644C83.7581 230.644 93.7813 230.607 103.804 230.655C113.805 230.702 121.707 236.905 123.961 246.371C124.342 248.084 124.519 249.836 124.488 251.591C124.478 258.159 124.445 264.728 124.499 271.295C124.56 278.687 130.213 284.953 137.344 285.638C144.993 286.374 151.746 281.524 153.254 274.129C153.502 272.735 153.611 271.32 153.579 269.905C153.599 249.238 153.595 228.57 153.568 207.903C153.566 206.439 153.721 205.732 155.339 206.6C155.972 206.939 156.735 207.037 157.439 207.244Z" fill="#754DFF"/>
<path d="M337.903 82.2761C344.747 82.2839 351.603 81.9278 358.429 82.569C367.413 83.3525 375.897 87.0423 382.596 93.0796C389.585 99.277 394.268 106.915 396.115 116.086C398.872 129.781 395.882 142.167 386.783 152.853C378.076 163.077 366.817 167.893 353.446 167.91C346.711 167.919 339.976 167.923 333.24 167.922C333.577 171.241 334.22 171.881 337.381 171.845C344.173 171.77 350.972 172.103 357.758 171.655C376.989 170.388 393.789 156.839 399.11 138.35C406.989 110.974 389.438 83.3544 361.317 78.9373C355.922 78.0901 350.466 78.5346 345.037 78.4537C343.905 78.4367 342.772 78.4514 341.638 78.4514C338.501 78.451 337.928 79.0382 337.903 82.2761Z" fill="#754DFF"/>
<path d="M107.523 9.1981C106.891 7.53634 106.972 5.86168 107.433 4.18089C110.005 3.7753 112.628 3.80183 115.192 4.25938C121.419 5.28668 126.757 8.03148 131.103 12.6192C136.602 18.4248 138.871 25.3899 138.831 33.3361C138.734 52.7947 138.784 72.2539 138.808 91.7128C138.82 101.005 145.18 108.422 154.328 109.922L154.304 115.08C152.566 114.855 150.858 114.444 149.207 113.856C139.475 110.089 133.67 101.672 133.656 91.1732C133.628 71.0863 133.671 50.9993 133.615 30.9128C133.598 25.1717 131.402 20.1827 127.459 16.0762C122.025 10.415 115.229 8.41446 107.523 9.1981Z" fill="#FED670"/>
<path d="M271.586 213.242L271.59 218.349C259.308 218.358 247.026 218.398 234.744 218.37C222.104 218.341 212.165 208.363 212.115 195.703C212.093 189.647 212.091 183.592 212.109 177.536C212.087 176.009 211.899 174.49 211.549 173.004C209.027 161.365 198.618 152.949 186.402 153.492C185.858 151.813 185.857 150.005 186.399 148.326C188.152 148.274 189.905 148.384 191.638 148.656C198.465 149.735 204.347 152.713 209.062 157.741C214.831 163.892 217.37 171.329 217.279 179.732C217.218 185.334 217.27 190.938 217.279 196.541C217.26 197.445 217.342 198.349 217.523 199.236C219.456 207.834 226.095 213.203 234.908 213.218C247.134 213.241 259.36 213.249 271.586 213.242Z" fill="#FED670"/>
<path d="M84.6299 198.326C84.1657 196.632 84.1424 194.847 84.5621 193.142C88.1279 193.148 91.694 193.139 95.2598 193.164C98.0806 193.204 100.878 192.644 103.465 191.521C106.053 190.398 108.373 188.738 110.27 186.65C112.167 184.562 113.599 182.095 114.47 179.412C115.341 176.728 115.631 173.891 115.322 171.087C114.302 161.433 105.981 153.552 96.2576 153.51C81.8234 153.449 67.3884 153.498 52.9542 153.5C52.5722 151.791 52.5693 150.019 52.9458 148.308C66.9324 148.314 80.9192 148.315 94.9061 148.311C96.7169 148.292 98.5253 148.449 100.306 148.778C106.246 149.918 111.568 153.18 115.28 157.956C118.992 162.731 120.84 168.694 120.479 174.732C120.118 180.77 117.573 186.47 113.318 190.769C109.063 195.068 103.39 197.672 97.3562 198.096C93.108 198.385 88.87 198.185 84.6299 198.326Z" fill="#FED670"/>
<path d="M333.242 162.754C340.598 162.752 347.955 162.788 355.31 162.742C373.087 162.635 389.05 148.72 391.525 131.091C393.326 118.26 389.762 107.076 380.478 97.9893C374.529 92.0534 366.675 88.4082 358.301 87.696C351.471 87.0635 344.622 87.5305 337.783 87.4241C337.759 87.5909 337.75 87.7594 337.756 87.9277C338.145 91.1585 338.386 91.3719 341.568 91.3746C346.153 91.379 350.739 91.3345 355.322 91.4025C372.049 91.6516 386.427 105.074 387.895 121.767C389.513 140.163 377.005 156.038 358.82 158.605C355.564 159.064 352.266 158.922 348.984 158.917C345.135 158.911 341.286 158.911 337.437 158.917C334.169 158.914 333.611 159.425 333.242 162.754Z" fill="#754DFF"/>
<path d="M25.7717 126.394C24.1274 126.833 22.397 126.834 20.7521 126.398C20.8283 124.878 20.8422 123.365 21.058 121.841C21.9571 115.248 25.2105 109.204 30.2177 104.823C35.2249 100.442 41.6478 98.0205 48.301 98.005C56.1061 97.9765 63.9114 98.022 71.7152 97.9883C78.3538 97.9598 83.232 93.156 83.2649 86.5548C83.3105 77.5066 83.265 68.4573 83.2613 59.4087C84.9101 59.4087 86.5586 59.4093 88.207 59.4104C88.2009 68.6401 88.2193 77.8699 88.1823 87.0992C88.1426 90.7538 86.8549 94.285 84.5328 97.1072C82.2107 99.9295 78.9936 101.873 75.4152 102.616C74.0063 102.906 72.6042 102.882 71.1926 102.91C62.8195 103.076 54.4306 102.478 46.0725 103.209C34.3382 104.235 25.5175 114.396 25.7717 126.394Z" fill="#FED670"/>
<path d="M84.6336 198.325C88.8736 198.184 93.1117 198.384 97.3592 198.096C103.393 197.672 109.066 195.068 113.321 190.769C117.576 186.47 120.121 180.769 120.482 174.732C120.843 168.694 118.995 162.731 115.283 157.956C111.571 153.18 106.249 149.918 100.309 148.778C98.5283 148.448 96.7199 148.292 94.9091 148.31C80.9224 148.333 66.9356 148.332 52.9488 148.308C52.9884 147.402 53.2211 146.514 53.6314 145.705C53.7782 145.303 54.05 144.959 54.4068 144.723C54.7636 144.487 55.1865 144.372 55.6136 144.394C69.7688 144.499 83.9418 143.887 98.0749 144.649C112.273 145.414 123.732 157.438 124.446 171.504C125.187 186.112 115.219 198.978 101.097 201.61C96.4376 202.478 91.7231 202.039 87.0318 202.069C85.6083 202.078 84.8681 200.775 84.6336 198.325Z" fill="#754DFF"/>
<path d="M154.323 109.921C145.175 108.421 138.816 101.004 138.804 91.7117C138.779 72.2528 138.729 52.7935 138.827 33.3349C138.866 25.3887 136.597 18.4236 131.098 12.618C126.752 8.03031 121.413 5.2862 115.187 4.25822C112.623 3.80066 110 3.77414 107.428 4.17972C107.569 0.693084 108.461 -0.145613 111.85 0.0195436C127.613 0.787216 139.643 11.3719 142.336 26.883C142.654 28.8965 142.797 30.9336 142.763 32.9717C142.754 52.1026 142.752 71.2334 142.758 90.3639C142.758 99.057 146.373 103.784 154.747 106.022C155.353 106.184 155.787 106.254 155.381 107.077C154.976 108.005 154.623 108.954 154.323 109.921V109.921Z" fill="#754DFF"/>
<path d="M271.584 213.242C259.359 213.235 247.134 213.228 234.908 213.219C226.095 213.204 219.457 207.835 217.523 199.237C217.342 198.35 217.261 197.446 217.279 196.542C217.27 190.939 217.218 185.335 217.279 179.733C217.371 171.33 214.831 163.893 209.062 157.742C204.348 152.712 198.466 149.736 191.638 148.657C189.906 148.385 188.152 148.275 186.399 148.327C186.551 145.179 187.388 144.385 190.346 144.585C205.249 145.588 218.365 157.741 220.666 172.616C221.224 176.223 221.048 179.84 221.079 183.456C221.113 187.474 221.047 191.493 221.097 195.51C221.199 203.62 226.845 209.25 234.949 209.273C246.947 209.307 258.945 209.283 270.943 209.283L272.914 209.283L271.584 213.242Z" fill="#754DFF"/>
<path d="M107.523 9.19749C115.23 8.41384 122.026 10.4144 127.459 16.0736C131.401 20.1801 133.598 25.1691 133.614 30.9101C133.671 50.9967 133.627 71.0836 133.655 91.1705C133.669 101.671 139.474 110.086 149.206 113.854C150.857 114.442 152.566 114.852 154.304 115.077C154.785 116.342 154.895 117.724 155.77 119.103C151.238 118.849 147.201 117.748 143.539 115.534C134.534 110.091 129.878 102.06 129.84 91.5283C129.772 71.8863 129.829 52.2473 129.813 32.6066C129.805 23.7914 125.121 16.8841 117.335 14.0451C115.356 13.3514 113.28 12.9768 111.184 12.9353C108.367 12.8388 107.587 12.0639 107.523 9.19749Z" fill="#754DFF"/>
<path d="M196.881 30.7534L197.102 35.8848C196.496 36.0187 195.878 36.1078 195.288 36.2926C191.031 37.6527 187.312 40.3205 184.66 43.9164C182.008 47.5124 180.557 51.8532 180.514 56.3214C180.488 68.8182 180.912 81.3215 180.263 93.813C179.995 98.9746 177.97 103.48 174.554 107.299C169.576 112.865 163.264 115.412 155.811 115.153C155.251 113.545 155.253 111.794 155.816 110.188C166.891 110.552 175.368 102.39 175.387 91.3074C175.406 79.9948 175.406 68.6823 175.387 57.3701C175.377 55.6195 175.494 53.8705 175.737 52.1368C177.257 41.6718 186.453 32.3442 196.881 30.7534Z" fill="#FED670"/>
<path d="M186.405 153.492C198.62 152.948 209.029 161.366 211.552 173.005C211.902 174.49 212.09 176.01 212.112 177.536C212.096 183.592 212.098 189.648 212.118 195.703C212.168 208.363 222.107 218.341 234.747 218.37C247.029 218.398 259.311 218.359 271.593 218.349L272.867 222.091C272.585 222.152 272.3 222.193 272.012 222.214C258.995 222.194 245.974 222.359 232.962 222.086C220.212 221.818 209.284 211.099 208.366 198.37C207.885 191.704 208.266 185.019 208.165 178.344C208.014 168.467 201.832 160.423 192.518 158.019C191.696 157.809 190.862 157.652 190.019 157.549C187.325 157.213 186.58 156.396 186.405 153.492Z" fill="#754DFF"/>
<path d="M83.261 59.4094C83.2664 68.458 83.3102 77.5073 83.2647 86.5556C83.2307 93.1567 78.3535 97.9605 71.715 97.9891C63.9098 98.023 56.1047 97.9772 48.3009 98.0057C41.6477 98.0212 35.2247 100.443 30.2175 104.824C25.2103 109.205 21.957 115.249 21.0579 121.841C20.8427 123.366 20.8287 124.878 20.7519 126.398C19.9592 126.389 19.1761 126.225 18.4466 125.915C17.2286 125.462 16.7226 124.709 16.8493 123.325C18.3854 106.381 31.8602 94.0277 48.9087 93.9995C56.2666 93.9872 63.6232 93.9995 70.9826 93.9957C76.4745 93.993 79.2659 91.2302 79.27 85.7811C79.2766 77.1782 79.2766 68.5756 79.27 59.9732L79.27 57.9121C80.6545 58.7467 82.0237 58.8731 83.261 59.4094Z" fill="#754DFF"/>
<path d="M25.7699 126.395C25.5157 114.396 34.3364 104.235 46.0713 103.209C54.4294 102.479 62.8184 103.076 71.1914 102.911C72.6031 102.883 74.0051 102.907 75.414 102.617C78.9925 101.874 82.2096 99.9301 84.5317 97.1079C86.8538 94.2856 88.1415 90.7544 88.1812 87.0999C88.2182 77.8705 88.1998 68.6408 88.2059 59.411C89.4847 58.9995 90.7628 58.5883 92.1914 58.1282L92.1914 59.7046C92.1914 68.4749 92.1904 77.2451 92.1881 86.0152C92.1646 98.323 83.5619 106.895 71.2251 106.913C63.8692 106.924 56.5129 106.903 49.157 106.918C38.9601 106.939 31.5494 113.278 29.8887 123.376C29.5339 125.534 28.7196 126.131 25.7699 126.395Z" fill="#754DFF"/>
<path d="M256.375 81.0609L256.375 86.1179C251.568 86.1795 246.758 86.4 241.96 85.8801C232.688 84.8769 224.406 76.6218 223.284 67.4114C222.829 63.6777 223.123 59.9502 222.996 56.2219C222.763 49.3574 220.074 43.7043 214.535 39.5955C209.798 36.0833 204.491 34.5025 198.558 35.6137C197.905 33.8914 198.099 32.1441 198.403 30.3939C200.202 30.447 201.983 30.2203 203.803 30.3328C214.593 30.9982 224.527 39.2176 227.211 49.7237C228.394 54.3511 228.132 59.0401 228.157 63.7246C228.209 73.8338 235.389 81.0083 245.512 81.0348C249.133 81.0443 252.754 81.053 256.375 81.0609Z" fill="#FED670"/>
<path d="M83.099 193.194L83.1055 198.237C76.8781 198.267 70.6504 198.268 64.4234 198.333C57.0117 198.411 50.1247 203.533 47.9077 210.553C45.4966 218.186 48.0858 226.441 54.1773 230.928C58.4275 234.058 63.2238 234.865 68.3246 234.616L68.3269 239.747C66.0648 239.892 63.7934 239.757 61.5644 239.345C48.4643 237.058 40.3014 225.701 42.2051 212.533C43.7004 202.192 53.5118 193.384 63.9072 193.202C70.3034 193.091 76.7021 193.189 83.099 193.194Z" fill="#FED670"/>
<path d="M52.9577 153.5C67.3919 153.498 81.8267 153.449 96.2609 153.509C105.985 153.55 114.306 161.432 115.325 171.086C115.635 173.89 115.344 176.728 114.473 179.411C113.602 182.094 112.171 184.562 110.274 186.649C108.376 188.737 106.057 190.398 103.469 191.521C100.881 192.644 98.0841 193.204 95.2634 193.163C91.6975 193.139 88.1314 193.148 84.5656 193.141C84.6018 192.407 84.7584 191.683 85.0294 191C85.4929 189.734 86.2997 189.118 87.7181 189.165C90.0918 189.243 92.4703 189.191 94.8467 189.185C104.412 189.158 111.549 182.368 111.556 173.29C111.564 164.233 104.423 157.361 94.8678 157.332C82.3067 157.292 69.7453 157.321 57.1839 157.321C53.8688 157.322 53.4226 156.918 52.9577 153.5Z" fill="#754DFF"/>
<path d="M196.881 30.7531C186.453 32.3439 177.256 41.6715 175.739 52.1395C175.496 53.8732 175.379 55.6223 175.389 57.3729C175.397 68.6855 175.397 79.998 175.389 91.3102C175.37 102.392 166.894 110.555 155.818 110.19C155.916 107.389 156.605 106.543 159.17 106.074C166.636 104.709 171.389 99.0518 171.403 91.4226C171.428 79.9276 171.39 68.4323 171.417 56.9369C171.451 42.1714 181.199 30.084 195.582 26.9141C196.38 26.6786 197.218 26.6146 198.043 26.7262L196.881 30.7531Z" fill="#754DFF"/>
<path d="M83.0953 193.193C76.6983 193.188 70.2996 193.091 63.9051 193.201C53.5097 193.383 43.6979 202.191 42.203 212.532C40.3 225.7 48.4623 237.057 61.5623 239.344C63.7913 239.756 66.0628 239.891 68.325 239.747L69.5038 243.444C64.1345 243.858 58.9895 243.456 54.0896 241.228C42.2296 235.835 35.8336 223.2 38.5726 210.576C41.245 198.256 52.2225 189.342 64.981 189.202C70.9834 189.137 76.9875 189.223 82.9919 189.161C84.3366 189.147 84.5439 189.465 83.953 190.638C83.5496 191.431 83.3722 192.337 83.0953 193.193Z" fill="#754DFF"/>
<path d="M155.814 115.155C163.268 115.415 169.58 112.868 174.557 107.301C177.972 103.482 179.997 98.9772 180.266 93.8156C180.916 81.3242 180.491 68.8209 180.518 56.324C180.56 51.8559 182.011 47.515 184.663 43.919C187.316 40.3231 191.035 37.6553 195.291 36.2952C195.88 36.109 196.5 36.02 197.105 35.8875L198.406 39.3629C197.311 39.7486 196.18 40.0551 195.126 40.5332C188.08 43.73 184.44 49.2716 184.362 56.9558C184.245 68.5562 184.47 80.1606 184.289 91.7593C184.107 103.444 178.502 111.809 167.967 116.843C165.555 117.995 162.963 118.568 160.313 118.943C156.934 119.42 155.912 118.604 155.814 115.155Z" fill="#754DFF"/>
<path d="M256.368 81.0609C252.747 81.052 249.126 81.0433 245.505 81.0347C235.382 81.0082 228.202 73.8338 228.149 63.7246C228.125 59.0407 228.387 54.3517 227.204 49.7236C224.519 39.2175 214.586 30.9991 203.795 30.3327C201.976 30.2202 200.195 30.4469 198.396 30.3939C198.449 29.8334 198.534 29.2766 198.653 28.7263C199.099 27.0887 199.973 26.249 201.9 26.2609C217.765 26.3598 230.947 38.72 231.911 54.5913C232.089 57.523 232.006 60.4703 232.032 63.4109C232.108 71.7904 237.38 77.0482 245.744 77.0662C249.681 77.0747 253.617 77.0662 257.691 77.0662L256.368 81.0609Z" fill="#754DFF"/>
<path d="M198.556 35.6144C204.489 34.5032 209.796 36.0841 214.533 39.5962C220.074 43.7051 222.762 49.3595 222.994 56.2226C223.121 59.9509 222.827 63.6785 223.282 67.4122C224.403 76.6215 232.686 84.8793 241.958 85.8808C246.757 86.4001 251.566 86.1795 256.373 86.1187C256.926 87.2897 256.989 88.6212 257.898 89.9927C253.645 89.9927 249.709 89.8969 245.778 90.0097C231.247 90.4263 218.897 78.9486 219.106 63.5252C219.143 60.7536 219.167 57.9724 218.993 55.2083C218.439 46.3928 211.039 39.4141 202.182 39.2452C199.434 39.1925 198.706 38.4653 198.556 35.6144Z" fill="#754DFF"/>
<path d="M184.873 148.561L184.898 153.535C171.509 154.933 162.184 166.333 162.538 179.409C162.776 188.176 162.586 196.958 162.587 205.734C160.922 206.326 159.105 206.329 157.439 205.741C157.582 195.563 157.016 185.375 157.723 175.206C158.694 161.25 170.707 149.516 184.873 148.561Z" fill="#FED670"/>
<path d="M88.2205 57.9033C86.6061 58.428 84.8667 58.426 83.2535 57.8979C83.2647 49.1303 83.2909 40.3662 83.2804 31.6006C83.2203 25.6113 85.1793 19.7763 88.8416 15.0367C93.154 9.35956 98.7945 5.76757 105.872 4.54419L106.047 9.52573C95.4677 11.9908 88.4723 20.9559 88.2504 31.1296C88.0556 40.0511 88.2168 48.9795 88.2205 57.9033Z" fill="#FED670"/>
<path d="M184.873 148.561C170.706 149.515 158.693 161.25 157.724 175.206C157.017 185.374 157.583 195.561 157.44 205.741C154.436 205.696 153.592 204.877 153.594 201.998C153.6 193.849 153.495 185.698 153.638 177.551C153.905 162.293 164.044 149.466 178.802 145.532C181.14 144.909 183.512 144.434 186.074 144.597L184.873 148.561Z" fill="#754DFF"/>
<path d="M68.3286 234.614C63.2278 234.863 58.4315 234.056 54.1813 230.925C48.0899 226.44 45.5006 218.184 47.9117 210.551C50.1288 203.532 57.0158 198.409 64.4274 198.331C70.6544 198.266 76.8821 198.263 83.1095 198.234C83.3015 198.821 83.4982 199.407 83.6851 199.995C84.3546 202.104 84.3532 202.104 82.02 202.105C76.3581 202.105 70.6952 202.039 65.0347 202.128C61.9549 202.158 58.9673 203.183 56.5183 205.051C54.0693 206.918 52.2904 209.528 51.4472 212.491C50.6041 215.453 50.7421 218.608 51.8405 221.486C52.9389 224.363 54.9388 226.808 57.5414 228.455C59.6913 229.851 62.1955 230.605 64.7591 230.627C66.3325 230.632 67.9059 230.627 69.6007 230.627L68.3286 234.614Z" fill="#754DFF"/>
<path d="M105.866 4.54502C98.7884 5.7684 93.1478 9.36037 88.8354 15.0375C85.1734 19.7769 83.2144 25.6114 83.2742 31.6004C83.2848 40.366 83.2586 49.1318 83.2473 57.8977C80.0652 57.7094 79.267 56.8955 79.267 53.8378C79.267 46.5994 79.247 39.3631 79.2718 32.1261C79.3279 15.9082 90.3925 2.9237 106.351 0.323675C106.593 0.304513 106.836 0.303036 107.078 0.319257L105.866 4.54502Z" fill="#754DFF"/>
<path d="M162.59 205.734C162.59 196.959 162.779 188.178 162.54 179.409C162.185 166.333 171.512 154.934 184.901 153.535C185.32 154.753 185.738 155.97 186.211 157.344C182.661 157.687 179.323 158.581 176.348 160.521C170.309 164.458 166.813 169.994 166.614 177.227C166.39 185.415 166.534 193.613 166.52 201.807C166.514 204.768 165.62 205.664 162.59 205.734Z" fill="#754DFF"/>
<path d="M88.216 57.903C88.2123 48.9781 88.0511 40.0498 88.2459 31.1293C88.4678 20.9555 95.4632 11.9905 106.042 9.52539C106.484 10.6835 107.502 12.0228 107.21 12.9498C106.891 13.9636 105.057 13.7913 103.936 14.2986C96.5995 17.6181 92.5032 23.2592 92.2534 31.3114C92.0203 38.8291 92.195 46.3597 92.1912 53.8842C92.1895 56.9552 91.3849 57.7698 88.216 57.903Z" fill="#754DFF"/>
<path d="M20.8373 127.882C22.5294 127.871 24.2214 127.861 25.9133 127.85C27.0827 136.933 31.8504 143.287 40.322 146.82C43.9055 148.315 47.6932 148.394 51.4922 148.362L51.4897 153.428C49.4035 153.503 47.3147 153.43 45.2389 153.209C32.6088 152.084 21.52 140.617 20.8373 127.882Z" fill="#FED670"/>
<path d="M20.8409 127.883C21.5236 140.617 32.6125 152.085 45.2405 153.21C47.3163 153.431 49.4052 153.504 51.4913 153.429L52.7109 157.096C32.9054 159.585 17.2074 144.184 16.8869 126.647C18.235 127.068 19.538 127.475 20.8409 127.883Z" fill="#754DFF"/>
<path d="M51.4918 148.362C47.6929 148.395 43.9051 148.315 40.3216 146.82C31.8504 143.288 27.0826 136.933 25.9129 127.85C26.5586 127.652 27.2063 127.467 27.8449 127.252C28.4192 127.058 28.9828 126.832 29.6761 126.572C30.0302 129.603 30.6691 132.46 32.2293 135.004C36.0907 141.297 41.7305 144.417 49.1208 144.407C50.2874 144.406 51.7609 143.923 52.5065 144.672C52.8928 145.061 52.0443 146.683 51.7435 147.745C51.6718 147.956 51.5878 148.162 51.4918 148.362V148.362Z" fill="#754DFF"/>
<path d="M285.942 9.05406L285.398 8.76113C285.524 8.47092 285.738 8.27891 286.024 8.49572C286.227 8.64797 286.129 8.88925 285.942 9.05406Z" fill="#7400C2"/>
<path d="M331.441 167.529L331.441 162.472C326.635 162.411 321.824 162.19 317.027 162.71C307.755 163.713 299.472 171.969 298.35 181.179C297.895 184.913 298.19 188.64 298.063 192.368C297.829 199.233 295.14 204.886 289.601 208.995C284.865 212.507 279.557 214.088 273.624 212.977C272.971 214.699 273.166 216.446 273.47 218.196C275.269 218.143 277.049 218.37 278.869 218.258C289.659 217.592 299.593 209.373 302.278 198.867C303.46 194.239 303.199 189.55 303.223 184.866C303.276 174.757 310.456 167.582 320.579 167.556C324.199 167.546 327.82 167.537 331.441 167.529Z" fill="#FED670"/>
<path d="M331.447 167.53C327.825 167.538 324.204 167.547 320.583 167.556C310.46 167.582 303.28 174.757 303.228 184.866C303.203 189.55 303.466 194.239 302.282 198.867C299.598 209.373 289.664 217.591 278.873 218.258C277.054 218.37 275.273 218.144 273.474 218.197C273.527 218.757 273.613 219.314 273.731 219.864C274.177 221.502 275.051 222.341 276.978 222.33C292.843 222.231 306.025 209.87 306.989 193.999C307.167 191.067 307.084 188.12 307.11 185.18C307.186 176.8 312.459 171.542 320.822 171.524C324.759 171.516 328.695 171.524 332.77 171.524L331.447 167.53Z" fill="#754DFF"/>
<path d="M273.622 212.976C279.555 214.087 284.863 212.506 289.599 208.994C295.14 204.885 297.828 199.231 298.061 192.367C298.188 188.639 297.893 184.912 298.348 181.178C299.47 171.969 307.753 163.711 317.025 162.709C321.824 162.19 326.633 162.411 331.439 162.471C331.992 161.3 332.056 159.969 332.965 158.597C328.711 158.597 324.775 158.693 320.844 158.58C306.313 158.164 293.964 169.641 294.172 185.064C294.21 187.836 294.234 190.618 294.06 193.382C293.505 202.197 286.105 209.176 277.248 209.345C274.5 209.398 273.773 210.125 273.622 212.976Z" fill="#754DFF"/>
<path d="M308.381 92.0431L305.32 88.1011L305.638 87.8079L308.699 91.7499L308.381 92.0431Z" fill="#452E97"/>
<path d="M308.657 86.4379L305.596 82.4958L305.63 82.5377C305.678 82.5949 305.729 82.6487 305.784 82.6987C306.157 83.0167 306.632 83.188 307.122 83.1806C307.215 83.1826 307.309 83.1806 307.404 83.1731L310.465 87.1151C310.37 87.1222 310.276 87.1248 310.183 87.123C309.693 87.1304 309.217 86.9589 308.845 86.6407C308.79 86.5908 308.738 86.5369 308.691 86.4797C308.68 86.4661 308.668 86.4521 308.657 86.4379" fill="#3D2885"/>
<path d="M310.469 87.1154L307.408 83.1734C308.004 83.1169 308.579 82.9247 309.089 82.6117C309.721 82.2374 310.251 81.7137 310.633 81.0865C310.673 81.0202 310.71 80.9536 310.744 80.8867L313.805 84.8287C313.77 84.8967 313.734 84.9634 313.694 85.0289C313.312 85.6559 312.782 86.1795 312.15 86.554C311.64 86.8669 311.065 87.059 310.469 87.1154" fill="#3F2A8A"/>
<path d="M313.802 84.8288L310.741 80.8868C311.008 80.4026 311.118 79.8471 311.054 79.2977C311.014 79.0133 310.901 78.7441 310.726 78.5161L313.787 82.4581C313.962 82.6867 314.075 82.9566 314.115 83.2418C314.179 83.7911 314.069 84.3465 313.802 84.8305" fill="#3D2885"/>
<path d="M313.802 84.8288L310.741 80.8868C311.008 80.4026 311.118 79.8471 311.054 79.2977C311.014 79.0133 310.901 78.7441 310.726 78.5161L313.787 82.4581C313.962 82.6867 314.075 82.9566 314.115 83.2418C314.179 83.7911 314.069 84.3465 313.802 84.8305" fill="#3D2885"/>
<path d="M285.017 94.2225L281.956 90.2805C282.198 90.5927 282.46 90.8894 282.74 91.1688C282.853 91.2821 282.969 91.3925 283.087 91.5002C285.04 93.2771 287.644 94.1705 290.869 94.1352C291.276 94.1311 291.683 94.1137 292.087 94.0828L295.148 98.0248C294.743 98.0554 294.337 98.0728 293.929 98.0768C290.706 98.1125 288.102 97.2191 286.147 95.4422C286.029 95.3348 285.914 95.2243 285.801 95.1108C285.522 94.8313 285.26 94.5346 285.017 94.2225" fill="#3D2885"/>
<path d="M295.147 98.0254L292.086 94.0834C296.232 93.7704 300.257 92.0801 304.14 89.0746C304.539 88.7647 304.92 88.4256 305.31 88.1003L308.371 92.0424C307.98 92.3679 307.6 92.7071 307.2 93.0166C303.318 96.0224 299.292 97.7127 295.147 98.0257" fill="#3F2A8A"/>
<path d="M305.327 88.6852L302.266 84.7432C303.389 85.7645 304.51 86.7859 305.631 87.8074L308.691 91.7494C307.57 90.7279 306.449 89.7065 305.327 88.6852Z" fill="#858585"/>
<path d="M313.606 82.2545L310.545 78.3125C310.613 78.3751 310.676 78.4433 310.732 78.5164L313.793 82.4584C313.737 82.3852 313.674 82.317 313.606 82.2545" fill="#858585"/>
<path d="M308.648 86.4398L305.588 82.4978C305.43 82.2809 305.32 82.0325 305.266 81.7696C305.212 81.5066 305.216 81.2352 305.276 80.9736C305.333 80.6787 305.432 80.3936 305.572 80.1274L308.632 84.0695C308.493 84.3357 308.393 84.6207 308.336 84.9156C308.276 85.1773 308.273 85.4487 308.327 85.7117C308.381 85.9748 308.49 86.2231 308.648 86.4401" fill="#858585"/>
<path d="M308.627 84.07L305.566 80.128C305.6 80.06 305.638 79.9921 305.678 79.9241C305.891 79.5692 306.154 79.2467 306.459 78.9665C306.995 78.4691 307.645 78.1119 308.352 77.9266C308.532 77.8821 308.715 77.8524 308.9 77.8379L311.961 81.7799C311.776 81.7943 311.593 81.824 311.413 81.8686C310.706 82.0537 310.056 82.4108 309.52 82.9081C309.215 83.1883 308.952 83.5108 308.739 83.8658C308.699 83.9337 308.661 84.0017 308.627 84.0697" fill="#8A8A8A"/>
<path d="M311.965 81.7811L308.904 77.8391C309.333 77.7967 309.765 77.8725 310.154 78.0583C310.289 78.1269 310.413 78.2128 310.525 78.3138L313.586 82.2558C313.474 82.1547 313.35 82.0686 313.215 81.9999C312.826 81.8141 312.394 81.7385 311.965 81.7811" fill="#858585"/>
<path d="M313.609 82.2542C313.891 82.5126 314.073 82.8612 314.125 83.2397C314.192 83.867 314.042 84.4983 313.701 85.0286C313.318 85.6556 312.788 86.1792 312.157 86.5537C311.567 86.9207 310.888 87.1177 310.193 87.123C309.704 87.1304 309.228 86.9589 308.855 86.6407C308.8 86.5908 308.749 86.5369 308.702 86.4797C308.531 86.2609 308.411 86.0068 308.351 85.7358C308.292 85.4648 308.293 85.184 308.356 84.9137C308.43 84.5429 308.568 84.1879 308.764 83.865C308.977 83.51 309.241 83.1875 309.546 82.9074C310.081 82.41 310.731 82.0529 311.438 81.8678C312.034 81.6965 312.672 81.7427 313.237 81.998C313.372 82.0667 313.497 82.1528 313.609 82.2542V82.2542Z" fill="#FEFEFE"/>
<path d="M313.586 78.0738L310.525 74.1318L312.451 73.8242L315.512 77.7662L313.586 78.0738Z" fill="#432C92"/>
<path d="M312.236 78.2152L309.175 74.2731C309.32 74.2731 309.458 74.2667 309.592 74.2568L312.652 78.1988C312.519 78.209 312.38 78.2148 312.236 78.2155" fill="#3D2885"/>
<path d="M312.655 78.1981L309.595 74.2561C309.923 74.231 310.222 74.1817 310.521 74.1321L313.582 78.0741C313.283 78.1234 312.984 78.173 312.655 78.1978" fill="#3F2A8A"/>
<path d="M312.244 78.2134L309.183 74.2714C309.328 74.2714 309.466 74.265 309.599 74.2551L312.66 78.1971C312.527 78.2073 312.388 78.2131 312.244 78.2138" fill="#3D2885"/>
<path d="M312.244 78.2134L309.183 74.2714C309.328 74.2714 309.466 74.265 309.599 74.2551L312.66 78.1971C312.527 78.2073 312.388 78.2131 312.244 78.2138" fill="#3D2885"/>
<path d="M299.494 83.3851L296.433 79.4431C298.382 81.207 300.327 82.9742 302.271 84.7444L305.332 88.6864C303.388 86.918 301.442 85.1509 299.494 83.3851Z" fill="#858585"/>
<path d="M312.328 78.2755L309.267 74.3335C309.086 72.915 308.54 71.5677 307.683 70.4231L310.744 74.3651C311.601 75.5096 312.147 76.857 312.328 78.2755Z" fill="#858585"/>
<path d="M299.175 83.314L296.115 79.372C296.123 79.372 296.13 79.3703 296.138 79.3696L299.199 83.3116C299.191 83.3116 299.183 83.3133 299.175 83.314Z" fill="#8A8A8A"/>
<path d="M299.201 83.3118L296.14 79.3698C296.237 79.3582 296.335 79.3853 296.412 79.4452L299.473 83.3873C299.396 83.3273 299.298 83.3002 299.201 83.3118" fill="#858585"/>
<path d="M315.492 77.7646L312.431 73.8226C312.401 71.7883 311.72 69.8172 310.488 68.1978L313.549 72.1398C314.78 73.7593 315.46 75.7302 315.491 77.7643" fill="#3D2885"/>
<path d="M302.689 71.3294L299.629 67.3874C302.299 67.1835 304.744 67.7833 306.503 69.2099C306.618 69.3034 306.73 69.3992 306.837 69.497C307.147 69.7777 307.432 70.0847 307.689 70.4146L310.75 74.3566C310.493 74.0268 310.208 73.7198 309.898 73.439C309.791 73.3412 309.679 73.2456 309.564 73.1522C307.804 71.7249 305.36 71.1275 302.689 71.3294" fill="#3D2885"/>
<path d="M312.772 71.2208L309.711 67.2788C309.942 67.5381 310.187 67.7886 310.401 68.0584C310.439 68.1053 310.476 68.1524 310.513 68.1998L313.574 72.1417C313.537 72.0942 313.5 72.0469 313.462 72C313.246 71.7299 313.003 71.4798 312.772 71.2205" fill="#858585"/>
<path d="M312.308 70.8009L309.248 66.8589L309.709 67.2782L312.77 71.2203L312.308 70.8009Z" fill="#808080"/>
<path d="M312.21 70.7342L309.15 66.7922L309.252 66.8602L312.312 70.8022L312.21 70.7342Z" fill="#828282"/>
<path d="M320.635 63.42L317.575 59.478C318.188 60.0348 318.751 60.6436 319.26 61.2975L322.32 65.2395C321.812 64.5856 321.248 63.9769 320.635 63.42Z" fill="#3D2885"/>
<path d="M302.689 71.3294L299.629 67.3874C302.299 67.1835 304.744 67.7833 306.503 69.2099C306.618 69.3034 306.73 69.3992 306.837 69.497C307.147 69.7777 307.432 70.0847 307.689 70.4146L310.75 74.3566C310.493 74.0268 310.208 73.7198 309.898 73.439C309.791 73.3412 309.679 73.2456 309.564 73.1522C307.804 71.7249 305.36 71.1275 302.689 71.3294" fill="#3D2885"/>
<path d="M285.027 94.2223L281.967 90.2803C280.27 88.0952 279.708 85.3327 280.243 82.0347L283.303 85.9767C282.769 89.273 283.331 92.0372 285.027 94.2223Z" fill="#858585"/>
<path d="M283.439 85.8556L280.378 81.9136C285.634 81.0613 290.889 80.2133 296.142 79.3696L299.203 83.3116C293.95 84.1549 288.696 85.003 283.439 85.8559" fill="#8A8A8A"/>
<path d="M283.323 85.9779L280.262 82.0359C280.263 82.0313 280.265 82.027 280.267 82.0229L283.328 85.9649C283.326 85.9689 283.324 85.9733 283.323 85.9779" fill="#858585"/>
<path d="M283.322 85.9647L280.261 82.0227C280.291 81.9741 280.336 81.936 280.388 81.9136L283.449 85.8556C283.397 85.8779 283.352 85.9159 283.322 85.9643" fill="#8A8A8A"/>
<path d="M287.387 82.2998L284.326 78.3577C284.364 78.3427 284.396 78.3154 284.416 78.2803L287.477 82.2223C287.456 82.2573 287.425 82.2847 287.387 82.3001" fill="#3F2A8A"/>
<path d="M287.477 82.2215L284.416 78.2795L284.416 78.2761L287.477 82.2181L287.477 82.2215Z" fill="#3D2885"/>
<path d="M284.192 82.8175L281.131 78.8755C282.228 78.7036 283.285 78.5326 284.341 78.3569L287.402 82.2989C286.346 82.4746 285.289 82.6452 284.192 82.8172" fill="#3F2A8A"/>
<path d="M284.192 82.8175L281.131 78.8755C282.228 78.7036 283.285 78.5326 284.341 78.3569L287.402 82.2989C286.346 82.4746 285.289 82.6452 284.192 82.8172" fill="#3F2A8A"/>
<path d="M284.192 82.8175L281.131 78.8755C282.228 78.7036 283.285 78.5326 284.341 78.3569L287.402 82.2989C286.346 82.4746 285.289 82.6452 284.192 82.8172" fill="#3F2A8A"/>
<path d="M287.494 82.2154L284.434 78.2734C284.534 78.0568 284.639 77.8427 284.748 77.6311L287.809 81.5731C287.7 81.7847 287.595 81.9989 287.494 82.2157" fill="#3D2885"/>
<path d="M287.814 81.5737L284.754 77.6317C286.337 74.6042 288.696 72.0523 291.591 70.2377C293.994 68.6372 296.756 67.658 299.631 67.3879L302.691 71.3299C299.817 71.5998 297.055 72.5789 294.652 74.1794C291.757 75.9937 289.397 78.5456 287.814 81.573" fill="#3F2A8A"/>
<path d="M302.689 71.3294L299.629 67.3874C302.299 67.1835 304.744 67.7833 306.503 69.2099C306.618 69.3034 306.73 69.3992 306.837 69.497C307.147 69.7777 307.432 70.0847 307.689 70.4146L310.75 74.3566C310.493 74.0268 310.208 73.7198 309.898 73.439C309.791 73.3412 309.679 73.2456 309.564 73.1522C307.804 71.7249 305.36 71.1275 302.689 71.3294" fill="#3D2885"/>
<path d="M284.231 82.8124L281.171 78.8704C281.187 78.747 281.222 78.6269 281.276 78.5146C281.475 78.0452 281.691 77.5834 281.924 77.1292L284.984 81.0711C284.751 81.5256 284.536 81.9873 284.336 82.4563C284.283 82.5685 284.247 82.6887 284.231 82.8121" fill="#858585"/>
<path d="M284.988 81.073L281.927 77.131C283.404 74.3096 285.443 71.8207 287.919 69.8182C291.789 66.6113 296.318 64.745 300.459 64.4316L303.52 68.3736C299.377 68.6873 294.849 70.5533 290.98 73.7603C288.504 75.7629 286.464 78.2518 284.988 81.0733" fill="#8A8A8A"/>
<path d="M303.52 68.3731L300.46 64.431C303.108 64.2305 305.599 64.6652 307.659 65.7904C308.192 66.0823 308.656 66.4554 309.154 66.7925L312.215 70.7345C311.718 70.3977 311.254 70.0246 310.72 69.7324C308.66 68.6075 306.169 68.1729 303.52 68.3731Z" fill="#858585"/>
<path d="M276.379 100.835L273.318 96.8934C269.091 91.4483 269.229 83.4162 273.199 75.6772L276.26 79.6193C272.29 87.3582 272.152 95.3904 276.379 100.835" fill="#3D2885"/>
<path d="M276.26 79.6197L273.2 75.6777C275.235 71.7948 277.936 68.2998 281.181 65.352C287.787 59.2633 295.825 55.7651 303.08 55.2156L306.141 59.1576C298.885 59.7071 290.848 63.2053 284.242 69.2943C280.997 72.242 278.295 75.7371 276.26 79.62" fill="#3F2A8A"/>
<path d="M306.142 59.1572L303.081 55.2152C308.737 54.7867 313.917 56.1501 317.572 59.4753L320.633 63.4173C316.978 60.0925 311.797 58.7277 306.142 59.1572Z" fill="#3D2885"/>
<path d="M320.635 63.419C328.978 71.0091 326.213 85.9442 314.457 96.7803C302.702 107.616 286.41 110.247 278.067 102.657C269.724 95.0668 272.489 80.1314 284.245 69.2956C296.001 58.4599 312.291 55.8303 320.635 63.419ZM284.188 82.8174C285.284 82.6454 286.342 82.4749 287.398 82.2992C287.437 82.2833 287.469 82.2546 287.489 82.218C289.055 78.91 291.537 76.1206 294.64 74.181C299.928 70.7515 306.077 70.3342 309.555 73.1537C309.67 73.2468 309.781 73.3424 309.889 73.4405C311.243 74.6819 312.083 76.3853 312.243 78.2151C312.694 78.2064 313.144 78.1595 313.587 78.0748L315.513 77.7669C315.484 75.6708 314.762 73.6434 313.459 72.0007C313.244 71.7305 313 71.4804 312.769 71.2211L312.308 70.8018L312.206 70.7338C311.709 70.3967 311.245 70.0239 310.711 69.7316C305.43 66.8475 297.316 68.5018 290.971 73.7593C288.085 76.0784 285.807 79.0639 284.331 82.4589C284.281 82.5775 284.235 82.6968 284.184 82.8181L284.188 82.8174ZM308.376 92.0441L308.694 91.7508C307.573 90.7293 306.452 89.7079 305.33 88.6866C303.385 86.9181 301.439 85.151 299.492 83.3853C299.45 83.3532 299.402 83.3302 299.351 83.3176C299.3 83.3051 299.247 83.3032 299.195 83.3122C293.943 84.1554 288.688 85.0035 283.431 85.8565C283.374 85.8801 283.327 85.9232 283.299 85.9782C282.689 89.7404 283.506 92.806 285.807 95.112C285.92 95.2253 286.035 95.3358 286.153 95.4434C288.107 97.2203 290.71 98.1137 293.935 98.0781C298.511 98.0308 302.946 96.3164 307.207 93.017C307.607 92.7074 307.987 92.3683 308.378 92.0427L308.376 92.0441ZM313.237 81.9988C312.672 81.7434 312.035 81.6973 311.439 81.8686C310.732 82.0538 310.082 82.4109 309.546 82.9081C309.241 83.1883 308.978 83.5108 308.765 83.8658C308.568 84.1887 308.43 84.5437 308.357 84.9145C308.294 85.1847 308.292 85.4656 308.352 85.7366C308.412 86.0075 308.532 86.2616 308.702 86.4804C308.75 86.5377 308.801 86.5915 308.856 86.6415C309.229 86.9597 309.704 87.1311 310.194 87.1237C310.888 87.1185 311.568 86.9215 312.157 86.5545C312.789 86.18 313.319 85.6563 313.701 85.0294C314.043 84.4991 314.193 83.8677 314.125 83.2405C314.074 82.8619 313.891 82.5133 313.61 82.255C313.498 82.1538 313.373 82.0678 313.239 81.9991" fill="#754DFE"/>
<path d="M305.327 88.6845C306.449 89.7058 307.571 90.7272 308.691 91.7488L308.373 92.042C307.983 92.3676 307.602 92.7067 307.203 93.0163C302.941 96.3157 298.506 98.0301 293.93 98.0777C290.707 98.1117 288.103 97.2196 286.148 95.4427C286.03 95.3353 285.915 95.2249 285.802 95.1114C283.501 92.8053 282.685 89.7397 283.294 85.9775C283.322 85.9225 283.369 85.8794 283.426 85.8558C288.682 85.0035 293.937 84.1554 299.19 83.3115C299.242 83.3025 299.295 83.3044 299.346 83.3169C299.398 83.3295 299.445 83.3526 299.487 83.3846C301.436 85.149 303.383 86.9156 305.327 88.6845Z" fill="#FEFEFE"/>
<path d="M312.776 71.2201C313.007 71.4794 313.252 71.7298 313.466 71.9996C314.76 73.628 315.483 75.6365 315.523 77.7159L313.594 78.0737C313.174 78.1417 312.754 78.2127 312.337 78.2753C312.027 76.258 311.243 74.6656 309.895 73.4402C309.788 73.3423 309.677 73.2467 309.562 73.1534C306.083 70.3328 299.934 70.7511 294.647 74.1807C291.543 76.12 289.061 78.9091 287.496 82.2169C287.475 82.2536 287.443 82.2823 287.404 82.2981C286.348 82.4737 285.292 82.6453 284.236 82.813C284.252 82.6895 284.287 82.5694 284.341 82.4572C285.817 79.0622 288.096 76.0767 290.981 73.7576C297.326 68.5001 305.44 66.8458 310.721 69.7299C311.254 70.0222 311.718 70.3953 312.216 70.7321L312.318 70.8001L312.776 71.2201Z" fill="#FEFEFE"/>
<path d="M260.897 108.669H189.872C183.21 108.669 177.809 114.07 177.809 120.733C177.809 127.396 183.21 132.797 189.872 132.797H260.897C267.559 132.797 272.96 127.396 272.96 120.733C272.96 114.07 267.559 108.669 260.897 108.669Z" fill="#754DFF"/>
<path d="M199.748 121.068C199.371 121.299 198.929 121.374 197.963 121.374H197.558V123.96H196.297V117.158H197.981C198.883 117.158 199.334 117.241 199.721 117.471C200.017 117.662 200.259 117.927 200.42 118.241C200.582 118.554 200.658 118.905 200.641 119.257C200.657 119.61 200.584 119.961 200.427 120.278C200.271 120.594 200.038 120.866 199.748 121.068V121.068ZM197.981 118.363H197.558V120.167H197.926C199.058 120.167 199.371 119.863 199.371 119.274C199.371 118.554 198.948 118.362 197.981 118.362V118.363Z" fill="#FED670"/>
<path d="M204.73 123.957V123.469C204.546 123.673 204.32 123.833 204.066 123.938C203.813 124.043 203.54 124.091 203.266 124.077C202.079 124.077 201.324 123.386 201.324 121.592V118.86H202.548V121.354C202.548 122.707 202.925 122.956 203.514 122.956C203.696 122.965 203.878 122.926 204.041 122.844C204.204 122.762 204.343 122.638 204.444 122.486C204.581 122.256 204.637 121.942 204.637 121.263V118.86H205.86V123.957H204.73Z" fill="#FED670"/>
<path d="M209.736 124.078C209.402 124.095 209.068 124.034 208.761 123.9C208.455 123.766 208.183 123.562 207.969 123.305V123.959H206.848V117.157H208.071V119.329C208.271 119.111 208.516 118.939 208.79 118.826C209.063 118.713 209.358 118.662 209.654 118.676C210.002 118.676 210.346 118.748 210.666 118.885C210.986 119.023 211.274 119.224 211.514 119.476C211.754 119.728 211.94 120.026 212.062 120.352C212.184 120.678 212.238 121.025 212.222 121.373C212.221 122.909 211.172 124.078 209.736 124.078ZM209.479 119.799C209.075 119.824 208.696 120.003 208.421 120.299C208.145 120.595 207.994 120.986 207.997 121.39C208.001 121.795 208.159 122.182 208.44 122.474C208.72 122.765 209.102 122.937 209.506 122.956C209.71 122.959 209.912 122.92 210.099 122.841C210.287 122.762 210.455 122.644 210.595 122.496C210.734 122.348 210.841 122.172 210.909 121.98C210.977 121.788 211.004 121.584 210.988 121.382C210.999 121.177 210.968 120.972 210.898 120.78C210.827 120.588 210.717 120.412 210.576 120.263C210.434 120.115 210.264 119.997 210.075 119.918C209.887 119.838 209.684 119.797 209.479 119.799V119.799Z" fill="#FED670"/>
<path d="M212.918 123.957V117.155H214.141V123.957H212.918Z" fill="#FED670"/>
<path d="M215.133 123.957V118.86H216.356V123.957H215.133ZM215.142 118.122V116.898H216.365V118.122H215.142Z" fill="#FED670"/>
<path d="M219.838 124.078C219.483 124.082 219.131 124.017 218.802 123.885C218.473 123.753 218.174 123.558 217.92 123.31C217.667 123.062 217.466 122.766 217.327 122.44C217.189 122.114 217.116 121.763 217.113 121.409C217.121 120.772 217.353 120.159 217.768 119.677C218.184 119.195 218.756 118.875 219.385 118.774C220.013 118.673 220.657 118.796 221.203 119.124C221.749 119.451 222.162 119.96 222.369 120.562H220.988C220.882 120.341 220.712 120.156 220.501 120.032C220.29 119.907 220.046 119.848 219.801 119.862C219.602 119.861 219.406 119.9 219.223 119.977C219.04 120.055 218.875 120.17 218.739 120.314C218.602 120.458 218.497 120.629 218.43 120.816C218.362 121.003 218.334 121.201 218.347 121.4C218.337 121.6 218.368 121.801 218.438 121.989C218.508 122.178 218.615 122.35 218.754 122.495C218.892 122.641 219.059 122.757 219.244 122.836C219.429 122.915 219.628 122.955 219.829 122.955C220.065 122.962 220.299 122.903 220.504 122.784C220.709 122.665 220.877 122.492 220.988 122.283H222.369C222.197 122.815 221.857 123.277 221.401 123.6C220.945 123.924 220.397 124.091 219.838 124.078V124.078Z" fill="#FED670"/>
<path d="M229.29 124.079C227.2 124.079 225.59 122.532 225.59 120.544C225.593 120.078 225.688 119.618 225.869 119.189C226.051 118.76 226.316 118.371 226.649 118.045C226.982 117.719 227.376 117.462 227.809 117.289C228.241 117.116 228.704 117.031 229.17 117.038C230.652 117.038 232.051 117.93 232.493 119.155H231.011C230.797 118.862 230.515 118.627 230.189 118.47C229.863 118.313 229.503 118.238 229.142 118.253C228.838 118.247 228.536 118.303 228.255 118.418C227.974 118.532 227.719 118.703 227.505 118.919C227.292 119.135 227.125 119.392 227.013 119.675C226.902 119.958 226.85 120.26 226.859 120.563C226.858 120.871 226.918 121.175 227.037 121.458C227.155 121.742 227.33 121.998 227.55 122.213C227.77 122.428 228.03 122.596 228.316 122.708C228.603 122.82 228.908 122.873 229.215 122.864C229.628 122.879 230.037 122.774 230.391 122.561C230.745 122.349 231.031 122.039 231.213 121.668H228.396V120.49H232.842V120.655C232.833 121.113 232.735 121.565 232.552 121.985C232.369 122.405 232.105 122.785 231.775 123.103C231.445 123.42 231.056 123.67 230.63 123.838C230.203 124.005 229.748 124.087 229.29 124.079V124.079Z" fill="#FED670"/>
<path d="M236.027 124.078C235.499 124.069 234.986 123.904 234.552 123.603C234.118 123.303 233.783 122.881 233.589 122.39C233.395 121.899 233.351 121.362 233.462 120.846C233.573 120.33 233.835 119.859 234.214 119.492C234.592 119.124 235.072 118.878 235.591 118.783C236.11 118.687 236.645 118.748 237.13 118.957C237.614 119.166 238.026 119.514 238.313 119.957C238.6 120.4 238.749 120.918 238.741 121.445C238.726 122.153 238.433 122.826 237.924 123.319C237.416 123.812 236.734 124.084 236.027 124.078V124.078ZM236.027 119.864C235.718 119.851 235.412 119.93 235.149 120.092C234.886 120.254 234.677 120.491 234.55 120.772C234.423 121.054 234.382 121.367 234.435 121.672C234.487 121.976 234.629 122.258 234.843 122.481C235.056 122.704 235.332 122.858 235.634 122.924C235.936 122.989 236.251 122.962 236.537 122.847C236.824 122.732 237.07 122.533 237.243 122.277C237.416 122.021 237.508 121.719 237.508 121.41C237.513 121.211 237.478 121.013 237.406 120.828C237.334 120.642 237.226 120.473 237.089 120.329C236.951 120.185 236.786 120.07 236.604 119.99C236.422 119.91 236.226 119.866 236.027 119.862V119.864Z" fill="#FED670"/>
<path d="M241.917 124.078C241.39 124.069 240.877 123.904 240.443 123.603C240.009 123.303 239.674 122.881 239.48 122.39C239.286 121.899 239.242 121.362 239.353 120.846C239.464 120.33 239.725 119.859 240.104 119.492C240.483 119.124 240.962 118.878 241.481 118.783C242 118.687 242.536 118.748 243.02 118.957C243.505 119.166 243.916 119.514 244.203 119.957C244.49 120.4 244.639 120.918 244.632 121.445C244.617 122.153 244.323 122.826 243.815 123.319C243.307 123.812 242.625 124.084 241.917 124.078V124.078ZM241.917 119.864C241.609 119.851 241.303 119.93 241.04 120.092C240.777 120.254 240.568 120.491 240.441 120.772C240.313 121.054 240.273 121.367 240.325 121.672C240.377 121.976 240.519 122.258 240.733 122.481C240.947 122.704 241.223 122.858 241.525 122.924C241.827 122.989 242.141 122.962 242.428 122.847C242.715 122.732 242.96 122.533 243.133 122.277C243.306 122.021 243.399 121.719 243.399 121.41C243.403 121.211 243.369 121.013 243.297 120.828C243.225 120.642 243.117 120.473 242.979 120.329C242.842 120.185 242.677 120.07 242.495 119.99C242.312 119.91 242.116 119.866 241.917 119.862V119.864Z" fill="#FED670"/>
<path d="M249.343 123.957V123.294C249.143 123.547 248.886 123.749 248.593 123.884C248.301 124.02 247.981 124.086 247.659 124.076C247.313 124.073 246.972 124.001 246.655 123.864C246.338 123.727 246.052 123.527 245.813 123.278C245.575 123.028 245.389 122.733 245.266 122.41C245.144 122.087 245.087 121.743 245.1 121.398C245.085 121.051 245.14 120.704 245.261 120.379C245.382 120.053 245.566 119.755 245.803 119.501C246.041 119.248 246.326 119.044 246.643 118.902C246.96 118.76 247.301 118.682 247.649 118.673C247.943 118.664 248.237 118.716 248.511 118.825C248.784 118.935 249.033 119.099 249.241 119.308V117.154H250.464V123.957H249.343ZM247.824 119.797C247.624 119.798 247.427 119.84 247.243 119.919C247.059 119.998 246.893 120.113 246.754 120.257C246.615 120.401 246.506 120.571 246.434 120.758C246.362 120.944 246.328 121.143 246.334 121.343C246.325 121.549 246.358 121.755 246.43 121.948C246.502 122.141 246.613 122.318 246.754 122.468C246.895 122.618 247.065 122.738 247.254 122.822C247.443 122.905 247.646 122.95 247.852 122.954C248.256 122.928 248.634 122.749 248.91 122.453C249.185 122.157 249.337 121.767 249.334 121.362C249.33 120.958 249.171 120.57 248.891 120.279C248.61 119.988 248.228 119.815 247.824 119.797V119.797Z" fill="#FED670"/>
<path d="M252.943 124.078C251.931 124.078 251.204 123.525 251.074 122.338H252.307C252.427 122.771 252.63 122.955 252.989 122.955C253.058 122.96 253.128 122.951 253.193 122.929C253.259 122.906 253.319 122.871 253.371 122.824C253.422 122.778 253.464 122.721 253.493 122.658C253.523 122.595 253.539 122.527 253.541 122.458C253.541 122.164 253.495 122.081 252.676 121.804C251.663 121.465 251.258 121.041 251.258 120.295C251.292 119.874 251.483 119.481 251.792 119.193C252.101 118.905 252.507 118.743 252.93 118.74C253.353 118.736 253.761 118.891 254.076 119.174C254.39 119.457 254.586 119.847 254.627 120.268H253.431C253.418 120.152 253.362 120.045 253.272 119.969C253.183 119.894 253.068 119.855 252.952 119.862C252.892 119.859 252.833 119.867 252.776 119.887C252.72 119.907 252.668 119.938 252.625 119.979C252.581 120.019 252.546 120.068 252.521 120.122C252.497 120.177 252.484 120.236 252.482 120.295C252.482 120.562 252.51 120.58 253.348 120.848C254.415 121.179 254.765 121.584 254.765 122.338C254.762 122.573 254.712 122.805 254.618 123.02C254.525 123.235 254.389 123.429 254.22 123.591C254.05 123.753 253.85 123.879 253.63 123.963C253.411 124.047 253.178 124.086 252.943 124.078Z" fill="#FED670"/>
<path d="M250.93 89.7952L250.93 109.218" stroke="#754DFF" stroke-width="8.92331" stroke-miterlimit="10"/>
<path d="M198.945 128.64L198.945 148.062" stroke="#754DFF" stroke-width="8.92331" stroke-miterlimit="10"/>
<path d="M22.6223 88.9726C22.816 88.9337 22.9994 88.855 23.161 88.7413C23.3216 88.6288 23.4567 88.4836 23.5572 88.3152L30.9559 75.8873L30.9638 75.8733C31.052 75.7269 31.1103 75.5644 31.1352 75.3953C31.1601 75.2261 31.1512 75.0537 31.109 74.888C31.0668 74.7223 30.992 74.5666 30.8892 74.4301C30.7863 74.2935 30.6573 74.1787 30.5098 74.0924C29.7186 73.5731 28.0246 73.623 26.2959 74.2167C25.6669 74.4336 25.0594 74.7085 24.4812 75.0377C22.9527 75.9192 21.6336 77.1216 20.6146 78.5621C19.6506 79.8969 19.1615 81.8945 19.3063 83.9059C19.4589 86.0251 20.2762 87.786 21.5492 88.7375C21.7008 88.8498 21.8746 88.9287 22.0589 88.969C22.2451 89.0095 22.4377 89.0107 22.6244 88.9726H22.6223Z" fill="#9FDED4"/>
<path d="M2.09752 92.4197H2.11385L16.7543 92.3341C16.9519 92.3328 17.1471 92.2906 17.3276 92.2102C17.5075 92.1298 17.6686 92.0127 17.8007 91.8665C17.9273 91.7271 18.0226 91.5623 18.0803 91.383C18.1373 91.2056 18.1548 91.0179 18.1316 90.8331C17.9308 89.2733 16.7897 87.6962 15.0001 86.5064C13.301 85.3772 11.2991 84.7947 9.6424 84.9477C7.87363 85.0915 6.15628 85.613 4.60614 86.4769C4.02832 86.8036 3.48223 87.1834 2.97497 87.6115C1.58677 88.7883 0.695391 90.2064 0.7569 91.1396C0.765986 91.4867 0.912068 91.8163 1.16325 92.0562C1.41442 92.296 1.7503 92.4267 2.09752 92.4197Z" fill="#9FDED4"/>
<path fill-rule="evenodd" clip-rule="evenodd" d="M29.7422 96.6795C29.7812 96.7476 29.8062 96.8228 29.8158 96.9007C29.8254 96.9786 29.8194 97.0576 29.7981 97.1331C29.7768 97.2087 29.7407 97.2792 29.6918 97.3406C29.6429 97.4019 29.5823 97.453 29.5135 97.4907C28.6007 98.0095 27.5229 98.1555 26.505 97.8984C26.0083 97.7741 25.5412 97.5526 25.1307 97.2466C24.7202 96.9406 24.3745 96.5562 24.1136 96.1156C24.0745 96.0476 24.0493 95.9725 24.0397 95.8946C24.03 95.8167 24.036 95.7377 24.0572 95.6622C24.0785 95.5866 24.1146 95.516 24.1635 95.4546C24.2124 95.3932 24.2731 95.3422 24.3419 95.3046C24.4802 95.2246 24.6444 95.2019 24.7992 95.2414C24.954 95.2808 25.0873 95.3792 25.1705 95.5156C25.3514 95.821 25.591 96.0873 25.8755 96.2995C26.1601 96.5116 26.4838 96.6653 26.8281 96.7515C27.5337 96.9299 28.2808 96.8288 28.9136 96.4694C29.0518 96.3893 29.2159 96.3665 29.3707 96.4057C29.5255 96.4449 29.6588 96.5432 29.7422 96.6795V96.6795Z" fill="#32373A"/>
<path fill-rule="evenodd" clip-rule="evenodd" d="M20.967 101.025C21.2794 100.848 21.5547 100.612 21.7778 100.331C21.9983 100.052 22.1616 99.7327 22.2583 99.3907C22.3545 99.0524 22.3812 98.6982 22.3366 98.3493C22.2921 98.0005 22.1774 97.6642 21.9993 97.3609C21.9603 97.2928 21.9352 97.2176 21.9256 97.1397C21.916 97.0618 21.922 96.9828 21.9433 96.9072C21.9646 96.8317 22.0007 96.7612 22.0496 96.6998C22.0985 96.6384 22.1592 96.5875 22.2281 96.5498C22.3664 96.4699 22.5304 96.4473 22.6852 96.4868C22.8399 96.5262 22.9731 96.6248 23.0562 96.7612C23.3129 97.1979 23.4784 97.6822 23.5425 98.1847C23.6064 98.6887 23.5681 99.2002 23.43 99.6891C23.2905 100.183 23.0548 100.644 22.7364 101.046C22.4149 101.452 22.0177 101.792 21.5667 102.047C21.4285 102.127 21.2644 102.15 21.1097 102.111C20.955 102.071 20.8218 101.973 20.7386 101.836C20.6995 101.768 20.6743 101.693 20.6647 101.615C20.655 101.537 20.661 101.458 20.6822 101.383C20.7035 101.307 20.7396 101.237 20.7885 101.175C20.8374 101.114 20.8981 101.063 20.967 101.025V101.025Z" fill="#32373A"/>
<path d="M9.88548 84.4806L21.2017 78.0278L14.3919 78.103C13.9831 78.1067 13.5819 78.2148 13.2267 78.4173C12.8728 78.6181 12.5768 78.907 12.3672 79.2557L8.89453 85.0461L9.88548 84.4806Z" fill="#32373A"/>
<path d="M12.05 91.8815L26.0669 83.8838L24.1574 80.6143L9.61719 88.9108L11.5267 92.1804L12.05 91.8815Z" fill="#32373A"/>
<path d="M14.3059 94.6653L14.4741 94.6633L26.7348 87.6646L26.8208 87.5208C27.0268 87.1787 27.1385 86.7881 27.1446 86.3888C27.1504 85.9939 27.0489 85.6048 26.851 85.2629L26.1034 83.9856L11.5703 92.2825L12.3159 93.5599C12.5173 93.9017 12.8067 94.1835 13.1539 94.3756C13.5064 94.5702 13.9033 94.6704 14.3059 94.6665V94.6653Z" fill="#F5DB37"/>
<path d="M10.1075 88.5108L24.1193 80.5106L23.3696 79.2268C23.1678 78.8847 22.8778 78.6031 22.5299 78.4112C22.1764 78.216 21.7783 78.116 21.3745 78.121H21.2297L8.93373 85.1398L8.85829 85.2655C8.65426 85.6085 8.54421 85.9992 8.5392 86.3982C8.53475 86.7929 8.637 87.1814 8.83518 87.5227L9.58281 88.8069L10.1075 88.5108Z" fill="#F5DB37"/>
<path d="M21.2891 94.6855C21.6977 94.6815 22.0984 94.5731 22.4533 94.3706C22.8068 94.1698 23.1025 93.8811 23.3117 93.5325L26.7726 87.7622L14.5 94.76L21.2891 94.6855Z" fill="#32373A"/>
<path d="M334.205 177.92C341.055 177.92 346.608 172.367 346.608 165.517C346.608 158.666 341.055 153.113 334.205 153.113C327.354 153.113 321.801 158.666 321.801 165.517C321.801 172.367 327.354 177.92 334.205 177.92Z" fill="#F2D476"/>
<path d="M334.204 179.619C341.993 179.619 348.307 173.305 348.307 165.516C348.307 157.727 341.993 151.413 334.204 151.413C326.416 151.413 320.102 157.727 320.102 165.516C320.102 173.305 326.416 179.619 334.204 179.619Z" stroke="#754DFF" stroke-width="5.94887" stroke-miterlimit="10"/>
<path d="M339.993 163.853C339.967 163.8 339.926 163.756 339.876 163.725C339.826 163.694 339.768 163.678 339.709 163.679H334.946L336.153 158.265C336.175 158.188 336.168 158.105 336.134 158.032C336.099 157.96 336.04 157.902 335.966 157.871C335.898 157.841 335.821 157.836 335.749 157.856C335.678 157.876 335.615 157.92 335.572 157.981L329.119 167.015C329.089 167.067 329.072 167.124 329.071 167.183C329.069 167.242 329.081 167.301 329.107 167.354C329.134 167.407 329.173 167.453 329.221 167.487C329.269 167.521 329.325 167.543 329.383 167.551H334.146L332.939 172.965C332.917 173.042 332.924 173.125 332.958 173.198C332.993 173.27 333.052 173.328 333.126 173.359C333.195 173.387 333.27 173.391 333.342 173.371C333.413 173.351 333.476 173.308 333.52 173.249L339.973 164.214C340.013 164.164 340.036 164.102 340.04 164.037C340.043 163.972 340.027 163.908 339.993 163.853V163.853Z" fill="#754DFF"/>
<path d="M58.5534 77.7637L61.6721 77.7637C61.8496 77.7636 62.0252 77.7985 62.1891 77.8664C62.3531 77.9343 62.5022 78.0338 62.6277 78.1593C62.7532 78.2848 62.8526 78.4337 62.9206 78.5977C62.9885 78.7616 63.0234 78.9373 63.0234 79.1148C63.0234 79.4733 62.8811 79.817 62.6277 80.0705C62.3742 80.3239 62.0305 80.4663 61.6721 80.4663L58.5534 80.4663C58.3759 80.4664 58.2002 80.4314 58.0362 80.3635C57.8722 80.2956 57.7231 80.1961 57.5976 80.0706C57.4721 79.9451 57.3727 79.7961 57.3048 79.6321C57.2369 79.4681 57.2018 79.2923 57.2019 79.1148C57.2019 78.9373 57.2368 78.7616 57.3048 78.5977C57.3727 78.4337 57.4723 78.2848 57.5978 78.1593C57.7233 78.0338 57.8722 77.9343 58.0362 77.8664C58.2002 77.7985 58.3759 77.7636 58.5534 77.7637V77.7637Z" fill="#E1458D"/>
<path d="M47.5729 77.7637L50.6915 77.7637C51.0498 77.7637 51.3936 77.906 51.6471 78.1594C51.9005 78.4128 52.0429 78.7564 52.043 79.1148C52.043 79.4733 51.9005 79.817 51.6471 80.0705C51.3936 80.3239 51.0499 80.4663 50.6915 80.4663L47.5729 80.4663C47.3954 80.4664 47.2196 80.4314 47.0556 80.3635C46.8916 80.2956 46.7427 80.1961 46.6172 80.0706C46.4917 79.9451 46.392 79.7961 46.3241 79.6321C46.2562 79.4681 46.2214 79.2923 46.2214 79.1148V79.1148C46.2214 78.9373 46.2564 78.7616 46.3243 78.5977C46.3922 78.4337 46.4917 78.2848 46.6172 78.1593C46.7427 78.0338 46.8918 77.9343 47.0557 77.8664C47.2197 77.7985 47.3955 77.7636 47.5729 77.7637Z" fill="#E1458D"/>
<path d="M55.9687 83.0473L55.9687 86.1662C55.9687 86.3437 55.9338 86.5194 55.8659 86.6834C55.7979 86.8473 55.6985 86.9963 55.573 87.1218C55.4475 87.2472 55.2984 87.3468 55.1344 87.4146C54.9705 87.4825 54.7949 87.5174 54.6174 87.5174C54.259 87.5174 53.9152 87.375 53.6618 87.1217C53.4084 86.8683 53.266 86.5246 53.2659 86.1662L53.2659 83.0473C53.2659 82.6889 53.4082 82.3451 53.6616 82.0917C53.9151 81.8382 54.259 81.6958 54.6174 81.6958C54.9758 81.6958 55.3195 81.8382 55.573 82.0917C55.8265 82.3451 55.9687 82.6889 55.9687 83.0473Z" fill="#E1458D"/>
<path d="M55.9687 72.0639L55.9687 75.1828C55.9687 75.3603 55.9338 75.536 55.8659 75.7C55.7979 75.8639 55.6985 76.0129 55.573 76.1384C55.4475 76.2638 55.2984 76.3634 55.1344 76.4312C54.9705 76.4991 54.7949 76.534 54.6174 76.534C54.259 76.534 53.9152 76.3916 53.6618 76.1383C53.4084 75.8849 53.266 75.5412 53.2659 75.1828L53.2659 72.0639C53.2659 71.7055 53.4082 71.3617 53.6616 71.1082C53.9151 70.8548 54.259 70.7124 54.6174 70.7124C54.9758 70.7124 55.3195 70.8548 55.573 71.1082C55.8265 71.3617 55.9687 71.7055 55.9687 72.0639Z" fill="#E1458D"/>
<path d="M352.51 63.717L355.629 63.717C355.988 63.717 356.331 63.8594 356.585 64.1129C356.838 64.3663 356.98 64.7101 356.98 65.0685C356.98 65.427 356.838 65.7707 356.585 66.0242C356.331 66.2777 355.988 66.42 355.629 66.42L352.51 66.42C352.333 66.4201 352.157 66.3852 351.993 66.3173C351.829 66.2493 351.68 66.1498 351.555 66.0243C351.429 65.8988 351.33 65.7498 351.262 65.5858C351.194 65.4218 351.159 65.246 351.159 65.0685C351.159 64.7101 351.301 64.3663 351.555 64.1129C351.808 63.8594 352.152 63.717 352.51 63.717V63.717Z" fill="#E1458D"/>
<path d="M341.53 63.717L344.648 63.717C345.007 63.717 345.351 63.8594 345.604 64.1129C345.858 64.3663 346 64.7101 346 65.0685C346 65.427 345.858 65.7707 345.604 66.0242C345.351 66.2777 345.007 66.42 344.648 66.42L341.53 66.42C341.352 66.4201 341.177 66.3852 341.013 66.3173C340.849 66.2493 340.7 66.1498 340.574 66.0243C340.449 65.8988 340.349 65.7498 340.281 65.5858C340.213 65.4218 340.178 65.246 340.178 65.0685C340.178 64.7101 340.321 64.3663 340.574 64.1129C340.828 63.8594 341.172 63.717 341.53 63.717V63.717Z" fill="#E1458D"/>
<path d="M349.926 69.0007L349.926 72.1196C349.926 72.2971 349.891 72.4728 349.823 72.6367C349.755 72.8007 349.656 72.9497 349.53 73.0751C349.405 73.2006 349.255 73.3001 349.091 73.368C348.928 73.4359 348.752 73.4708 348.574 73.4708V73.4708C348.216 73.4708 347.872 73.3284 347.619 73.075C347.365 72.8217 347.223 72.478 347.223 72.1196L347.223 69.0007C347.223 68.6422 347.365 68.2985 347.619 68.045C347.872 67.7915 348.216 67.6492 348.574 67.6492V67.6492C348.933 67.6492 349.277 67.7915 349.53 68.045C349.783 68.2985 349.926 68.6422 349.926 69.0007V69.0007Z" fill="#E1458D"/>
<path d="M349.926 58.0173L349.926 61.1362C349.926 61.3137 349.891 61.4894 349.823 61.6534C349.755 61.8173 349.656 61.9663 349.53 62.0918C349.405 62.2172 349.255 62.3167 349.091 62.3846C348.928 62.4525 348.752 62.4874 348.574 62.4874V62.4874C348.216 62.4874 347.872 62.345 347.619 62.0917C347.365 61.8383 347.223 61.4946 347.223 61.1362L347.223 58.0173C347.223 57.6588 347.365 57.3151 347.619 57.0616C347.872 56.8082 348.216 56.6658 348.574 56.6658V56.6658C348.933 56.6658 349.277 56.8082 349.53 57.0616C349.783 57.3151 349.926 57.6588 349.926 58.0173V58.0173Z" fill="#E1458D"/>
<path d="M255.199 50.8054L258.316 50.8054C258.675 50.8054 259.019 50.9478 259.272 51.2013C259.526 51.4547 259.668 51.7985 259.668 52.1569V52.1569C259.668 52.3344 259.633 52.5101 259.565 52.674C259.497 52.838 259.398 52.987 259.272 53.1124C259.147 53.2379 258.998 53.3374 258.834 53.4053C258.67 53.4732 258.494 53.5081 258.316 53.5081L255.198 53.5081C254.839 53.5081 254.496 53.3657 254.242 53.1123C253.989 52.8589 253.846 52.5153 253.846 52.1569V52.1569C253.846 51.9794 253.881 51.8035 253.949 51.6395C254.017 51.4755 254.117 51.3264 254.242 51.2009C254.368 51.0754 254.517 50.9759 254.681 50.908C254.845 50.8401 255.021 50.8053 255.199 50.8054V50.8054Z" fill="#E1458D"/>
<path d="M244.217 50.8054L247.336 50.8054C247.513 50.8054 247.689 50.8403 247.853 50.9082C248.017 50.9761 248.166 51.0757 248.292 51.2012C248.417 51.3267 248.517 51.4757 248.585 51.6397C248.653 51.8037 248.688 51.9794 248.687 52.1569V52.1569C248.687 52.3344 248.653 52.5101 248.585 52.674C248.517 52.838 248.417 52.987 248.292 53.1124C248.166 53.2379 248.017 53.3374 247.853 53.4053C247.689 53.4732 247.513 53.5081 247.336 53.5081L244.217 53.5081C244.04 53.5081 243.864 53.4732 243.7 53.4053C243.536 53.3374 243.387 53.2379 243.262 53.1124C243.136 52.987 243.037 52.838 242.969 52.674C242.901 52.5101 242.866 52.3344 242.866 52.1569V52.1569C242.866 51.9794 242.901 51.8037 242.969 51.6397C243.037 51.4757 243.136 51.3267 243.262 51.2012C243.387 51.0757 243.536 50.9761 243.7 50.9082C243.864 50.8403 244.04 50.8054 244.217 50.8054V50.8054Z" fill="#E1458D"/>
<path d="M252.613 56.089L252.613 59.208C252.613 59.5664 252.471 59.9102 252.218 60.1636C251.964 60.4171 251.62 60.5595 251.262 60.5595C250.903 60.5595 250.56 60.4171 250.306 60.1636C250.053 59.9102 249.91 59.5664 249.91 59.208L249.91 56.089C249.91 55.7306 250.053 55.3868 250.306 55.1334C250.56 54.8799 250.903 54.7375 251.262 54.7375C251.62 54.7375 251.964 54.8799 252.218 55.1334C252.471 55.3868 252.613 55.7306 252.613 56.089Z" fill="#E1458D"/>
<path d="M252.613 45.1053L252.613 48.2242C252.613 48.5827 252.471 48.9264 252.218 49.1799C251.964 49.4334 251.62 49.5757 251.262 49.5757C250.903 49.5757 250.56 49.4334 250.306 49.1799C250.053 48.9264 249.91 48.5827 249.91 48.2242L249.91 45.1053C249.911 44.7469 250.053 44.4032 250.306 44.1499C250.56 43.8965 250.904 43.7542 251.262 43.7542V43.7542C251.439 43.7541 251.615 43.789 251.779 43.8569C251.943 43.9248 252.092 44.0243 252.218 44.1498C252.343 44.2752 252.442 44.4242 252.51 44.5882C252.578 44.7521 252.613 44.9278 252.613 45.1053V45.1053Z" fill="#E1458D"/>
<path d="M362.542 196.884L365.66 196.884C365.838 196.884 366.013 196.919 366.177 196.987C366.341 197.055 366.49 197.154 366.616 197.28C366.741 197.405 366.841 197.554 366.909 197.718C366.977 197.882 367.012 198.058 367.012 198.235V198.235C367.012 198.413 366.977 198.589 366.909 198.753C366.841 198.917 366.741 199.066 366.616 199.191C366.49 199.317 366.342 199.416 366.178 199.484C366.014 199.552 365.838 199.587 365.66 199.587L362.542 199.587C362.364 199.587 362.188 199.552 362.024 199.484C361.86 199.416 361.711 199.317 361.586 199.191C361.46 199.066 361.361 198.917 361.293 198.753C361.225 198.589 361.19 198.413 361.19 198.235V198.235C361.19 198.058 361.225 197.882 361.293 197.718C361.361 197.554 361.461 197.405 361.586 197.28C361.712 197.154 361.861 197.055 362.024 196.987C362.188 196.919 362.364 196.884 362.542 196.884Z" fill="#E1458D"/>
<path d="M351.561 196.884L354.68 196.884C355.038 196.884 355.382 197.027 355.636 197.28C355.889 197.533 356.031 197.877 356.031 198.235V198.235C356.031 198.413 355.996 198.589 355.929 198.753C355.861 198.917 355.761 199.066 355.636 199.191C355.51 199.317 355.361 199.416 355.197 199.484C355.033 199.552 354.858 199.587 354.68 199.587L351.561 199.587C351.203 199.587 350.859 199.445 350.605 199.191C350.352 198.938 350.21 198.594 350.21 198.235V198.235C350.21 198.058 350.245 197.882 350.313 197.718C350.381 197.554 350.48 197.405 350.605 197.28C350.731 197.154 350.88 197.055 351.044 196.987C351.208 196.919 351.384 196.884 351.561 196.884Z" fill="#E1458D"/>
<path d="M359.957 202.168L359.957 205.285C359.957 205.463 359.922 205.638 359.854 205.802C359.786 205.966 359.687 206.115 359.561 206.241C359.436 206.366 359.287 206.466 359.123 206.534C358.959 206.601 358.783 206.636 358.606 206.636V206.636C358.247 206.636 357.904 206.494 357.65 206.241C357.397 205.987 357.254 205.644 357.254 205.285L357.254 202.166C357.254 201.808 357.397 201.464 357.65 201.211C357.904 200.957 358.247 200.815 358.606 200.815V200.815C358.783 200.815 358.959 200.85 359.123 200.918C359.287 200.986 359.436 201.085 359.562 201.211C359.687 201.337 359.787 201.486 359.855 201.65C359.922 201.814 359.957 201.99 359.957 202.168Z" fill="#E1458D"/>
<path d="M359.957 191.182L359.957 194.301C359.957 194.66 359.815 195.004 359.561 195.257C359.308 195.51 358.964 195.653 358.606 195.653V195.653C358.247 195.653 357.904 195.51 357.65 195.257C357.397 195.003 357.254 194.66 357.254 194.301L357.254 191.182C357.254 190.824 357.397 190.48 357.65 190.227C357.904 189.974 358.247 189.831 358.606 189.831V189.831C358.783 189.831 358.959 189.866 359.123 189.934C359.287 190.002 359.436 190.101 359.561 190.227C359.687 190.352 359.786 190.501 359.854 190.665C359.922 190.829 359.957 191.005 359.957 191.182V191.182Z" fill="#E1458D"/>
<path d="M201 73.9951L204.118 73.9951C204.476 73.9952 204.82 74.1376 205.073 74.3911C205.327 74.6445 205.469 74.9882 205.469 75.3466C205.469 75.5241 205.434 75.6998 205.366 75.8638C205.298 76.0277 205.199 76.1768 205.073 76.3023C204.948 76.4278 204.799 76.5273 204.635 76.5952C204.471 76.6631 204.295 76.6981 204.118 76.6981L200.999 76.6981C200.64 76.6981 200.297 76.5557 200.043 76.3023C199.79 76.0488 199.647 75.705 199.647 75.3466C199.647 75.1691 199.682 74.9933 199.75 74.8292C199.818 74.6652 199.918 74.5162 200.044 74.3907C200.169 74.2652 200.318 74.1657 200.482 74.0978C200.646 74.0299 200.822 73.995 201 73.9951Z" fill="#E1458D"/>
<path d="M190.018 73.9951L193.137 73.9951C193.495 73.9951 193.839 74.1375 194.092 74.391C194.346 74.6444 194.488 74.9882 194.488 75.3466C194.488 75.705 194.346 76.0488 194.092 76.3023C193.839 76.5557 193.495 76.6981 193.137 76.6981L190.018 76.6981C189.84 76.6981 189.665 76.6631 189.501 76.5952C189.337 76.5273 189.188 76.4278 189.062 76.3023C188.937 76.1767 188.837 76.0277 188.769 75.8638C188.702 75.6998 188.667 75.5241 188.667 75.3466C188.667 74.9882 188.809 74.6445 189.062 74.3911C189.316 74.1376 189.66 73.9952 190.018 73.9951V73.9951Z" fill="#E1458D"/>
<path d="M198.414 79.2795L198.414 82.3981C198.414 82.5755 198.379 82.7513 198.311 82.9152C198.243 83.0792 198.144 83.2282 198.018 83.3537C197.893 83.4792 197.744 83.5788 197.58 83.6467C197.416 83.7146 197.24 83.7496 197.063 83.7496V83.7496C196.885 83.7496 196.71 83.7147 196.546 83.6468C196.382 83.5789 196.233 83.4793 196.107 83.3538C195.982 83.2283 195.882 83.0793 195.814 82.9153C195.746 82.7513 195.711 82.5756 195.711 82.3981L195.711 79.2795C195.711 78.921 195.854 78.5773 196.107 78.3238C196.361 78.0704 196.704 77.928 197.063 77.928C197.421 77.9281 197.765 78.0705 198.018 78.3239C198.272 78.5774 198.414 78.9211 198.414 79.2795V79.2795Z" fill="#E1458D"/>
<path d="M198.414 68.2961L198.414 71.415C198.414 71.7734 198.272 72.1171 198.018 72.3704C197.765 72.6238 197.421 72.7662 197.063 72.7662V72.7662C196.885 72.7662 196.71 72.7313 196.546 72.6634C196.382 72.5956 196.233 72.496 196.107 72.3706C195.982 72.2451 195.882 72.0961 195.814 71.9322C195.746 71.7682 195.711 71.5925 195.711 71.415L195.711 68.2961C195.711 67.9377 195.854 67.5939 196.107 67.3404C196.361 67.087 196.704 66.9446 197.063 66.9446C197.421 66.9447 197.765 67.0871 198.018 67.3406C198.272 67.594 198.414 67.9377 198.414 68.2961V68.2961Z" fill="#E1458D"/>
<path d="M110.058 216.059L113.176 216.059C113.535 216.059 113.878 216.201 114.132 216.455C114.385 216.708 114.527 217.052 114.527 217.41V217.41C114.527 217.588 114.493 217.764 114.425 217.927C114.357 218.091 114.257 218.24 114.132 218.366C114.006 218.491 113.857 218.591 113.693 218.659C113.529 218.727 113.354 218.762 113.176 218.762L110.057 218.762C109.699 218.762 109.355 218.619 109.102 218.366C108.848 218.113 108.706 217.769 108.706 217.41V217.41C108.706 217.233 108.741 217.057 108.809 216.893C108.877 216.729 108.977 216.58 109.102 216.454C109.228 216.329 109.377 216.229 109.541 216.162C109.705 216.094 109.881 216.059 110.058 216.059V216.059Z" fill="#E1458D"/>
<path d="M99.0765 216.059L102.195 216.059C102.554 216.059 102.898 216.201 103.151 216.455C103.404 216.708 103.547 217.052 103.547 217.41V217.41C103.547 217.769 103.404 218.113 103.151 218.366C102.898 218.619 102.554 218.762 102.195 218.762L99.0765 218.762C98.899 218.762 98.7233 218.727 98.5593 218.659C98.3953 218.591 98.2464 218.491 98.1209 218.366C97.9954 218.24 97.8959 218.091 97.828 217.927C97.7602 217.764 97.7253 217.588 97.7253 217.41V217.41C97.7253 217.052 97.8677 216.708 98.1211 216.455C98.3745 216.201 98.7181 216.059 99.0765 216.059V216.059Z" fill="#E1458D"/>
<path d="M107.473 221.343L107.473 224.462C107.473 224.639 107.438 224.815 107.37 224.979C107.302 225.143 107.202 225.292 107.077 225.417C106.951 225.543 106.802 225.642 106.639 225.71C106.475 225.778 106.299 225.813 106.121 225.813C105.944 225.813 105.768 225.778 105.604 225.71C105.44 225.643 105.291 225.543 105.166 225.418C105.04 225.292 104.941 225.143 104.873 224.979C104.805 224.815 104.77 224.639 104.77 224.462L104.77 221.343C104.77 220.985 104.912 220.641 105.166 220.388C105.419 220.134 105.763 219.992 106.121 219.992C106.48 219.992 106.824 220.134 107.077 220.388C107.33 220.641 107.473 220.985 107.473 221.343V221.343Z" fill="#E1458D"/>
<path d="M107.473 210.36L107.473 213.479C107.473 213.837 107.33 214.181 107.077 214.434C106.824 214.688 106.48 214.83 106.121 214.83V214.83C105.944 214.83 105.768 214.795 105.604 214.727C105.44 214.659 105.291 214.56 105.166 214.434C105.04 214.309 104.941 214.16 104.873 213.996C104.805 213.832 104.77 213.656 104.77 213.479L104.77 210.36C104.77 210.001 104.912 209.658 105.166 209.404C105.419 209.151 105.763 209.008 106.121 209.008C106.48 209.008 106.824 209.151 107.077 209.404C107.33 209.658 107.473 210.001 107.473 210.36V210.36Z" fill="#E1458D"/>
<path d="M138.777 146.351C138.777 145.178 139.125 144.03 139.777 143.055C140.429 142.079 141.356 141.318 142.44 140.869C143.525 140.42 144.718 140.303 145.869 140.532C147.02 140.761 148.077 141.326 148.907 142.156C149.737 142.986 150.302 144.043 150.531 145.194C150.759 146.345 150.642 147.538 150.193 148.622C149.744 149.707 148.983 150.633 148.007 151.285C147.032 151.937 145.884 152.285 144.711 152.285C143.138 152.283 141.629 151.658 140.517 150.545C139.404 149.433 138.779 147.924 138.777 146.351V146.351ZM147.95 146.351C147.95 145.711 147.76 145.084 147.404 144.552C147.049 144.019 146.543 143.604 145.951 143.358C145.36 143.113 144.708 143.049 144.08 143.174C143.452 143.298 142.875 143.607 142.422 144.06C141.969 144.512 141.66 145.089 141.535 145.718C141.41 146.346 141.474 146.997 141.719 147.589C141.964 148.181 142.379 148.687 142.912 149.043C143.444 149.399 144.07 149.589 144.711 149.589C145.569 149.588 146.392 149.246 146.999 148.639C147.607 148.033 147.948 147.21 147.95 146.351V146.351Z" fill="#E1458D"/>
<path d="M281.859 163.59C281.859 162.416 282.207 161.269 282.859 160.293C283.511 159.317 284.438 158.557 285.522 158.107C286.606 157.658 287.799 157.541 288.95 157.77C290.101 157.999 291.159 158.564 291.988 159.394C292.818 160.223 293.384 161.281 293.613 162.432C293.842 163.583 293.724 164.776 293.275 165.86C292.826 166.944 292.065 167.871 291.09 168.523C290.114 169.175 288.967 169.523 287.793 169.523C286.22 169.522 284.712 168.896 283.599 167.784C282.487 166.671 281.861 165.163 281.859 163.59V163.59ZM291.032 163.59C291.032 162.949 290.842 162.323 290.486 161.79C290.13 161.258 289.624 160.843 289.032 160.597C288.441 160.352 287.79 160.288 287.161 160.413C286.533 160.538 285.956 160.847 285.503 161.299C285.05 161.752 284.742 162.329 284.617 162.958C284.492 163.586 284.556 164.237 284.801 164.829C285.046 165.421 285.461 165.926 285.994 166.282C286.527 166.638 287.153 166.828 287.793 166.828C288.652 166.827 289.475 166.486 290.082 165.878C290.689 165.271 291.031 164.448 291.032 163.59V163.59Z" fill="#E1458D"/>
<path d="M75.5935 276.365C75.5936 275.191 75.9417 274.044 76.5937 273.068C77.2458 272.093 78.1725 271.332 79.2568 270.883C80.341 270.434 81.5341 270.316 82.6851 270.545C83.8361 270.774 84.8933 271.34 85.7231 272.169C86.5529 272.999 87.118 274.057 87.3469 275.208C87.5759 276.359 87.4584 277.552 87.0093 278.636C86.5601 279.72 85.7996 280.647 84.8238 281.299C83.848 281.951 82.7008 282.299 81.5272 282.299C79.9539 282.297 78.4457 281.671 77.3333 280.559C76.2209 279.446 75.5951 277.938 75.5935 276.365V276.365ZM84.7662 276.365C84.7662 275.724 84.5762 275.098 84.2203 274.565C83.8644 274.033 83.3586 273.618 82.7667 273.372C82.1749 273.127 81.5236 273.063 80.8953 273.188C80.2671 273.313 79.69 273.622 79.237 274.075C78.784 274.528 78.4756 275.105 78.3506 275.733C78.2256 276.361 78.2898 277.012 78.535 277.604C78.7801 278.196 79.1952 278.702 79.7278 279.058C80.2605 279.414 80.8866 279.604 81.5272 279.604C82.386 279.603 83.2096 279.261 83.8169 278.654C84.4242 278.047 84.7659 277.224 84.7669 276.365L84.7662 276.365Z" fill="#E1458D"/>
<path d="M150.683 59.2623C150.682 58.0886 151.03 56.9413 151.682 55.9654C152.334 54.9895 153.261 54.2288 154.346 53.7797C155.43 53.3305 156.623 53.2129 157.774 53.4419C158.925 53.6708 159.983 54.236 160.813 55.0659C161.643 55.8959 162.208 56.9532 162.437 58.1044C162.666 59.2555 162.548 60.4487 162.099 61.533C161.65 62.6173 160.889 63.5441 159.913 64.1961C158.937 64.8481 157.79 65.1961 156.616 65.1961C155.043 65.1943 153.535 64.5686 152.422 63.4562C151.31 62.3438 150.684 60.8355 150.683 59.2623V59.2623ZM159.855 59.2623C159.855 58.6217 159.665 57.9955 159.309 57.4628C158.954 56.9301 158.448 56.5149 157.856 56.2697C157.264 56.0245 156.613 55.9603 155.985 56.0853C155.356 56.2102 154.779 56.5187 154.326 56.9716C153.873 57.4246 153.565 58.0017 153.44 58.63C153.315 59.2583 153.379 59.9095 153.624 60.5014C153.869 61.0932 154.284 61.5991 154.817 61.955C155.35 62.3109 155.976 62.5009 156.616 62.5009C157.475 62.4999 158.298 62.1584 158.905 61.5512C159.513 60.9441 159.854 60.121 159.855 59.2623Z" fill="#E1458D"/>
<path d="M335.89 115.334C335.889 114.161 336.237 113.013 336.889 112.037C337.541 111.061 338.468 110.301 339.553 109.852C340.637 109.403 341.83 109.285 342.981 109.514C344.132 109.743 345.19 110.308 346.02 111.138C346.85 111.968 347.415 113.025 347.644 114.176C347.873 115.328 347.755 116.521 347.306 117.605C346.857 118.689 346.096 119.616 345.12 120.268C344.144 120.92 342.997 121.268 341.823 121.268C340.25 121.266 338.742 120.641 337.63 119.528C336.517 118.416 335.891 116.908 335.89 115.334V115.334ZM345.062 115.334C345.062 114.694 344.872 114.067 344.517 113.535C344.161 113.002 343.655 112.587 343.063 112.342C342.471 112.097 341.82 112.032 341.192 112.157C340.563 112.282 339.986 112.591 339.533 113.044C339.08 113.497 338.772 114.074 338.647 114.702C338.522 115.33 338.586 115.982 338.831 116.573C339.076 117.165 339.491 117.671 340.024 118.027C340.557 118.383 341.183 118.573 341.823 118.573C342.682 118.572 343.505 118.23 344.112 117.623C344.72 117.016 345.061 116.193 345.062 115.334V115.334Z" fill="#E1458D"/>
<path d="M43.1772 227.899C50.0276 227.899 55.5809 222.345 55.5809 215.495C55.5809 208.645 50.0276 203.091 43.1772 203.091C36.3268 203.091 30.7734 208.645 30.7734 215.495C30.7734 222.345 36.3268 227.899 43.1772 227.899Z" fill="#F2D476"/>
<path d="M43.1732 229.598C50.962 229.598 57.276 223.284 57.276 215.495C57.276 207.706 50.962 201.392 43.1732 201.392C35.3844 201.392 29.0703 207.706 29.0703 215.495C29.0703 223.284 35.3844 229.598 43.1732 229.598Z" stroke="#754DFF" stroke-width="5.94887" stroke-miterlimit="10"/>
<path d="M47.9063 211.513C47.7553 211.404 47.5805 211.332 47.3963 211.304C47.2121 211.276 47.0238 211.292 46.847 211.351C46.8147 211.362 46.7867 211.383 46.7667 211.411C46.7467 211.439 46.7356 211.473 46.7349 211.507V214.713C46.7348 214.756 46.7263 214.798 46.7098 214.838C46.6933 214.877 46.6691 214.913 46.6387 214.943C46.5768 215.005 46.4932 215.039 46.4061 215.039C46.319 215.039 46.2354 215.005 46.1735 214.943C46.143 214.913 46.1187 214.877 46.1021 214.838C46.0856 214.798 46.077 214.756 46.077 214.713V210.477C46.0776 210.297 46.0348 210.12 45.9523 209.961C45.8696 209.801 45.75 209.663 45.6033 209.558C45.45 209.446 45.2717 209.372 45.0837 209.344C44.8957 209.315 44.7036 209.333 44.524 209.395C44.4915 209.407 44.4634 209.428 44.4434 209.457C44.4237 209.484 44.4128 209.518 44.4122 209.552V213.735C44.4122 213.778 44.4037 213.821 44.3871 213.86C44.3705 213.9 44.3462 213.936 44.3157 213.966C44.2537 214.027 44.1701 214.061 44.083 214.061C43.996 214.061 43.9124 214.027 43.8504 213.966C43.8198 213.936 43.7956 213.9 43.779 213.86C43.7624 213.821 43.7539 213.778 43.7539 213.735V209.174C43.7506 208.876 43.6305 208.591 43.4195 208.38C43.2075 208.169 42.9219 208.047 42.6223 208.041C42.4896 208.041 42.358 208.065 42.2339 208.112C42.2027 208.123 42.1758 208.143 42.1569 208.17C42.1379 208.197 42.128 208.229 42.1285 208.262V213.736C42.1285 213.779 42.12 213.821 42.1035 213.861C42.087 213.9 42.0628 213.936 42.0324 213.966C41.9704 214.028 41.8868 214.062 41.7997 214.062C41.7127 214.062 41.6291 214.028 41.5671 213.966C41.5365 213.936 41.5122 213.9 41.4957 213.861C41.4791 213.821 41.4706 213.779 41.4706 213.736V210.478C41.4704 210.328 41.4405 210.179 41.3826 210.041C41.3247 209.902 41.2399 209.777 41.1332 209.671C40.9162 209.457 40.6237 209.337 40.3189 209.337C40.0142 209.337 39.7217 209.457 39.5047 209.671C39.398 209.777 39.3132 209.902 39.2553 210.041C39.1973 210.179 39.1674 210.328 39.1673 210.478V216.994C39.168 217.03 39.1571 217.065 39.136 217.093C39.1202 217.115 39.0993 217.132 39.0753 217.144C39.0513 217.156 39.0248 217.161 38.9981 217.161C38.9714 217.16 38.9452 217.153 38.9219 217.14C38.8986 217.127 38.8788 217.108 38.8641 217.086L37.4688 215.131C37.2878 214.9 37.0252 214.747 36.735 214.704C36.4448 214.661 36.1491 214.731 35.909 214.9C35.6698 215.067 35.5051 215.32 35.4499 215.607C35.3947 215.893 35.4534 216.19 35.6133 216.434L39.2128 221.463C39.4076 221.745 39.6677 221.974 39.9709 222.133C40.2751 222.292 40.6132 222.375 40.9565 222.376H44.247C45.3356 222.377 46.3806 221.948 47.1552 221.183C47.5364 220.806 47.839 220.358 48.0457 219.864C48.2525 219.369 48.3591 218.839 48.3596 218.303V212.438C48.3637 212.259 48.3245 212.082 48.2454 211.921C48.1663 211.76 48.05 211.62 47.9063 211.513V211.513ZM45.9322 218.514L43.8657 220.671C43.8025 220.733 43.7169 220.768 43.6279 220.768C43.5837 220.769 43.5398 220.761 43.499 220.744C43.4584 220.727 43.4216 220.702 43.391 220.671L41.2983 218.514C41.0671 218.285 40.9145 217.989 40.8624 217.668C40.8104 217.347 40.8616 217.018 41.0088 216.728C41.1118 216.504 41.2673 216.309 41.4621 216.158C41.6568 216.007 41.8851 215.905 42.1275 215.861C42.3719 215.821 42.6223 215.84 42.858 215.916C43.0937 215.992 43.308 216.123 43.4831 216.298L43.5952 216.402L43.7002 216.298C43.8764 216.122 44.0919 215.991 44.3287 215.915C44.5656 215.839 44.8172 215.821 45.0626 215.861C45.3077 215.899 45.5402 215.994 45.7402 216.141C45.9393 216.287 46.0997 216.48 46.2075 216.702C46.361 216.995 46.4158 217.329 46.3636 217.656C46.3115 217.982 46.1551 218.283 45.9179 218.514H45.9322Z" fill="#754DFF"/>
</svg>
