<svg width="16" height="16" viewBox="0 0 400 400" fill="none" xmlns="http://www.w3.org/2000/svg">
  <path fill="#7F3CE0" d="M173 1c18.354 0 36.708 0 55.282.374 1.062.788 1.865 1.419 2.753 1.58 4.97.901 10.021 1.43 14.934 2.562 21.26 4.9 41.181 13.198 59.816 24.482 19.439 11.77 36.313 26.631 50.72 44.152 10.809 13.147 19.44 27.708 26.632 43.183 7.948 17.1 13.482 34.829 15.943 53.53.104.783 1.256 1.428 1.92 2.137 0 18.354 0 36.708-.374 55.282-.789 1.062-1.419 1.865-1.58 2.753-.902 4.97-1.43 10.021-2.562 14.934-4.9 21.26-13.198 41.181-24.482 59.816-11.77 19.44-26.632 36.312-44.153 50.719-13.146 10.81-27.707 19.441-43.182 26.633-17.1 7.948-34.829 13.482-53.53 15.944-.782.103-1.428 1.255-2.137 1.919-18.354 0-36.708 0-55.282-.374-1.062-.789-1.865-1.419-2.753-1.58-4.97-.902-10.021-1.43-14.934-2.562-21.26-4.9-41.181-13.199-59.816-24.482-19.44-11.77-36.312-26.632-50.72-44.153-10.81-13.146-19.44-27.708-26.632-43.182-7.948-17.1-13.482-34.829-15.944-53.53C2.816 230.355 1.664 229.71 1 229c0-18.354 0-36.708.374-55.282.789-1.062 1.419-1.865 1.58-2.753.902-4.97 1.43-10.021 2.562-14.934 4.9-21.26 13.198-41.181 24.482-59.817C41.768 76.776 56.63 59.902 74.15 45.496c13.147-10.81 27.709-19.44 43.183-26.633 17.1-7.948 34.829-13.482 53.53-15.944.782-.103 1.428-1.255 2.137-1.919m-1.822 76.698c-25.908 14.7-51.798 29.432-77.733 44.084-10.227 5.777-15.213 14.384-15.185 26.155.083 34.654.084 69.31 0 103.965-.03 11.761 4.872 20.45 15.155 26.16 5.817 3.23 11.577 6.564 17.364 9.85 25.174 14.29 50.342 28.591 75.526 42.865 9.24 5.237 18.8 5.868 28.108.638 31.915-17.935 63.73-36.05 95.522-54.205 9.148-5.224 13.723-13.418 13.747-23.906.08-35.654.093-71.309-.008-106.963-.03-10.505-4.807-18.605-13.928-23.807a22840.054 22840.054 0 0 0-95.073-53.922c-8.575-4.837-17.501-5.018-26.294-.519-5.624 2.878-11.057 6.131-17.201 9.605z"/>
  <path d="M172.531 1c-.24.664-.886 1.816-1.669 1.92-18.7 2.46-36.43 7.995-53.529 15.943-15.474 7.193-30.036 15.823-43.183 26.633-17.52 14.406-32.381 31.28-44.152 50.718-11.284 18.636-19.582 38.557-24.482 59.817-1.132 4.913-1.66 9.963-2.562 14.934-.161.888-.791 1.69-1.58 2.284C1 115.74 1 58.48 1 1h171.531zM401 172.531c-.664-.24-1.816-.885-1.92-1.669-2.461-18.7-7.995-36.43-15.943-53.53-7.192-15.474-15.823-30.035-26.633-43.182-14.406-17.52-31.28-32.381-50.719-44.152C287.15 18.714 267.23 10.416 245.97 5.516c-4.913-1.132-9.963-1.66-14.934-2.562-.888-.161-1.69-.792-2.284-1.58C286.261 1 343.521 1 401 1v171.531zM1 229.469c.664.24 1.816.885 1.92 1.669 2.461 18.7 7.995 36.429 15.943 53.529 7.192 15.474 15.823 30.036 26.633 43.182 14.407 17.52 31.28 32.382 50.719 44.153 18.635 11.283 38.556 19.582 59.816 24.482 4.913 1.132 9.963 1.66 14.934 2.562.888.161 1.69.791 2.284 1.58C115.739 401 58.479 401 1 401V229.469zM229.469 401c.24-.664.886-1.816 1.669-1.92 18.7-2.461 36.429-7.995 53.53-15.943 15.474-7.192 30.035-15.823 43.181-26.633 17.521-14.407 32.382-31.28 44.153-50.719 11.284-18.635 19.581-38.556 24.482-59.816 1.132-4.913 1.66-9.964 2.562-14.934.161-.888.791-1.69 1.58-2.284C401 286.261 401 343.521 401 401H229.469z"/>
  <path fill="#FDFCFE" d="M171.49 77.504c5.832-3.28 11.265-6.533 16.89-9.411 8.792-4.499 17.718-4.318 26.293.519a22840.054 22840.054 0 0 1 95.073 53.922c9.12 5.202 13.898 13.302 13.928 23.807.1 35.654.088 71.309.008 106.963-.024 10.488-4.599 18.682-13.747 23.906-31.792 18.154-63.607 36.27-95.522 54.205-9.307 5.23-18.868 4.6-28.108-.638-25.184-14.274-50.352-28.575-75.526-42.865-5.787-3.286-11.547-6.62-17.364-9.85-10.283-5.71-15.184-14.399-15.156-26.16.085-34.655.084-69.31.001-103.965-.028-11.77 4.958-20.378 15.185-26.155 25.935-14.652 51.825-29.384 78.046-44.278m-35.37 203.885c19.389 10.99 38.832 21.886 58.126 33.039 4.74 2.74 8.785 2.69 13.504-.008 30.324-17.34 60.725-34.546 91.161-51.69 4.395-2.476 6.378-5.74 6.32-10.864-.191-16.653-.064-33.309-.086-49.964-.002-1.388-.21-2.776-.406-5.183-11.837 9.933-25.196 10.261-38.87 10.199-45.634-.207-91.274.284-136.901-.318-12.324-.163-20.984 4.694-28.72 13.17-2.505 2.744-3.62 5.631-3.489 9.411.267 7.652.25 15.325.02 22.98-.15 4.943 1.895 8.136 6.115 10.474 10.91 6.046 21.73 12.255 33.227 18.754m61.454-197.58c-32.016 18.089-64.037 36.17-96.042 54.276-3.345 1.893-4.765 4.822-4.73 8.71.1 11.161.034 22.325.033 33.488v18.048c12.135-10.168 25.614-9.748 39.185-9.698 46.317.17 92.636-.06 138.953.144 13.171.058 21.565-7.462 29.208-16.603.823-.984.92-2.776.938-4.199.09-6.996-.039-13.996.068-20.991.066-4.283-1.702-7.22-5.43-9.324-31.146-17.588-62.228-35.29-93.44-52.762-2.228-1.248-5.322-.952-8.743-1.089z"/>
  <path fill="#803DE0" d="M135.8 281.211c-11.176-6.321-21.995-12.53-32.905-18.576-4.22-2.338-6.265-5.531-6.116-10.474.232-7.655.248-15.328-.019-22.98-.132-3.78.984-6.667 3.488-9.41 7.737-8.477 16.397-13.334 28.72-13.171 45.628.602 91.268.111 136.902.318 13.674.062 27.033-.266 38.87-10.2.195 2.408.404 3.796.406 5.184.022 16.655-.105 33.311.085 49.964.059 5.124-1.924 8.388-6.319 10.864-30.436 17.144-60.837 34.35-91.161 51.69-4.72 2.698-8.764 2.748-13.504.008-19.294-11.153-38.737-22.049-58.446-33.217m16.124-60.758h-17.48c0 10.029-.485 19.53.14 28.958.6 9.032 8.019 15.547 17.07 15.813 8.324.246 16.665.228 24.991.02 8.41-.21 16.245-6.177 16.917-14.228.837-10.035.2-20.194.2-30.526h-18.13v26.399h-23.07c0-8.854 0-17.317-.638-26.436m107.05 42.271c2.662-3.486 7.247-6.78 7.62-10.496 1.05-10.453.367-21.08.367-31.75h-17.896v26.448h-23.055v-26.501h-18.084c0 9.016-.088 17.78.022 26.543.134 10.648 7.581 18.11 18.292 18.305 7.651.14 15.315.237 22.956-.07 3.055-.123 6.063-1.382 9.778-2.479z"/>
  <path fill="#803EE0" d="M197.94 83.667c3.057.279 6.15-.017 8.38 1.231 31.21 17.472 62.293 35.174 93.44 52.762 3.727 2.104 5.495 5.04 5.43 9.324-.108 6.995.021 13.995-.07 20.991-.018 1.423-.114 3.215-.937 4.2-7.643 9.14-16.037 16.66-29.208 16.602-46.317-.204-92.636.026-138.953-.144-13.571-.05-27.05-.47-39.185 9.698v-18.048c0-11.163.067-22.327-.033-33.489-.035-3.887 1.385-6.816 4.73-8.709a53665.784 53665.784 0 0 1 96.407-54.418M170.324 148l5.655.268v26.511h17.928c0-10.06.472-19.86-.145-29.592-.52-8.205-8.241-14.85-16.668-15.112a403.202 403.202 0 0 0-25.945.014c-7.822.26-15.384 6.142-16.07 13.891-.9 10.159-.221 20.458-.221 30.812h17.975V148h17.49m97.378.886c-.75-12.138-7.802-18.851-19.866-18.883-7.32-.019-14.64-.089-21.956.02-8.774.132-16.894 6.342-17.537 14.73-.756 9.871-.177 19.845-.177 30.045h18.058v-26.387h22.944v26.414h18.535l-.001-25.939z"/>
  <path fill="#FCFBFE" d="M152.244 220.781c.319 8.791.319 17.254.319 26.108h23.07v-26.4h18.13c0 10.333.637 20.492-.2 30.527-.672 8.051-8.506 14.018-16.917 14.228-8.326.208-16.667.226-24.99-.02-9.052-.266-16.472-6.78-17.07-15.813-.626-9.428-.14-18.93-.14-28.958 6.011 0 11.745 0 17.798.328zm106.388 42.12c-3.372.92-6.38 2.179-9.435 2.302-7.64.307-15.305.21-22.956.07-10.711-.195-18.158-7.657-18.292-18.305-.11-8.763-.022-17.527-.022-26.543h18.084v26.5h23.055V220.48h17.896c0 10.668.684 21.296-.366 31.749-.374 3.716-4.959 7.01-7.964 10.673z"/>
  <path fill="#FEFDFF" d="M169.844 148h-17.011v26.792h-17.975c0-10.354-.679-20.653.22-30.812.687-7.75 8.25-13.63 16.07-13.891 8.64-.289 17.304-.283 25.946-.014 8.427.261 16.147 6.907 16.668 15.112.617 9.732.145 19.532.145 29.592H175.98v-26.511a555.11 555.11 0 0 0-6.135-.268z"/>
  <path fill="#FDFDFF" d="m267.701 149.347.001 25.478h-18.535V148.41h-22.944v26.387h-18.058c0-10.2-.579-20.174.177-30.045.643-8.388 8.763-14.598 17.537-14.73 7.317-.109 14.637-.039 21.956-.02 12.064.032 19.115 6.745 19.866 19.344z"/>
</svg>