<svg width="16" height="16" viewBox="0 0 16 16" fill="none" xmlns="http://www.w3.org/2000/svg">
<path d="M8 0C12.4187 0 16 3.58204 16 8C16 12.4187 12.4187 16 8 16C3.58204 16 0 12.4183 0 8C0 3.58204 3.58204 0 8 0Z" fill="#F5AC37"/>
<path d="M8.29512 8.56485H11.335C11.3998 8.56485 11.4304 8.56485 11.4351 8.47989C11.4599 8.17065 11.4599 7.8596 11.4351 7.55C11.4351 7.48988 11.4052 7.46504 11.34 7.46504H5.29017C5.21529 7.46504 5.19513 7.48988 5.19513 7.56008V8.45001C5.19513 8.56485 5.19513 8.56485 5.31501 8.56485H8.29512V8.56485ZM11.0956 6.42499C11.1042 6.40231 11.1042 6.37747 11.0956 6.35515C11.0448 6.24463 10.9847 6.13915 10.9149 6.04015C10.8097 5.87094 10.6859 5.71506 10.5448 5.57502C10.4782 5.49042 10.4011 5.41446 10.3147 5.35002C9.88202 4.98173 9.36757 4.72109 8.81461 4.59005C8.53561 4.52741 8.25048 4.49753 7.96464 4.50005H5.27973C5.20485 4.50005 5.19477 4.52993 5.19477 4.59509V6.36991C5.19477 6.44479 5.19477 6.46495 5.28981 6.46495H11.0596C11.0596 6.46495 11.1096 6.45487 11.1197 6.42499H11.0952H11.0956ZM11.0956 9.6049C11.0106 9.59554 10.9249 9.59554 10.84 9.6049H5.29521C5.22033 9.6049 5.19513 9.6049 5.19513 9.70498V11.4402C5.19513 11.5201 5.19513 11.5403 5.29521 11.5403H7.8552C7.9776 11.5496 8.1 11.541 8.21988 11.5154C8.59141 11.4888 8.95681 11.4082 9.30529 11.2753C9.43201 11.2314 9.55442 11.1742 9.66998 11.1054H9.7049C10.305 10.7933 10.7925 10.3029 11.0999 9.70102C11.0999 9.70102 11.1348 9.62542 11.0956 9.60562V9.6049ZM4.19036 12.4399V12.41V11.2451V10.8502V9.6751C4.19036 9.60994 4.19036 9.60022 4.11044 9.60022H3.02539C2.96527 9.60022 2.94043 9.60022 2.94043 9.5203V8.57025H4.10036C4.16516 8.57025 4.19036 8.57025 4.19036 8.48529V7.54532C4.19036 7.4852 4.19036 7.47044 4.11044 7.47044H3.02539C2.96527 7.47044 2.94043 7.47044 2.94043 7.39052V6.51067C2.94043 6.45559 2.94043 6.44083 3.02035 6.44083H4.09532C4.1702 6.44083 4.19036 6.44083 4.19036 6.34579V3.6508C4.19036 3.57088 4.19036 3.55072 4.29044 3.55072H8.04024C8.3124 3.56152 8.58277 3.5914 8.85025 3.64072C9.40141 3.7426 9.93098 3.93952 10.4152 4.22069C10.7363 4.40969 11.0319 4.63793 11.295 4.90073C11.493 5.1063 11.6716 5.32878 11.83 5.56566C11.9873 5.80578 12.118 6.06247 12.2206 6.33067C12.2332 6.40051 12.3002 6.44767 12.37 6.43579H13.265C13.3798 6.43579 13.3798 6.43579 13.3849 6.54595V7.36604C13.3849 7.44596 13.355 7.46612 13.2747 7.46612H12.5846C12.5147 7.46612 12.4946 7.46612 12.4996 7.55612C12.527 7.86068 12.527 8.16633 12.4996 8.47089C12.4996 8.55585 12.4996 8.56593 12.595 8.56593H13.3845C13.4194 8.61093 13.3845 8.65593 13.3845 8.70129C13.3895 8.75925 13.3895 8.81793 13.3845 8.87589V9.48106C13.3845 9.56602 13.3597 9.59122 13.2844 9.59122H12.3394C12.2735 9.57862 12.2094 9.62074 12.1943 9.68626C11.9693 10.2713 11.6093 10.7958 11.1442 11.2163C10.9743 11.3693 10.7957 11.5133 10.6092 11.6461C10.4091 11.7613 10.2143 11.8812 10.0091 11.9762C9.63146 12.1462 9.23545 12.2714 8.82901 12.351C8.44308 12.4201 8.05176 12.4514 7.659 12.446H4.18892V12.441L4.19036 12.4399Z" fill="#FEFEFD"/>
</svg>
