<svg width="24" height="24" viewBox="0 0 24 24" fill="none" xmlns="http://www.w3.org/2000/svg">
<path d="M12 0C18.628 0 24 5.37305 24 12C24 18.628 18.628 24 12 24C5.37305 24 0 18.6275 0 12C0 5.37305 5.37305 0 12 0Z" fill="#F5AC37"/>
<path d="M12.4422 12.8472H17.002C17.0992 12.8472 17.1451 12.8472 17.1521 12.7198C17.1894 12.2559 17.1894 11.7894 17.1521 11.325C17.1521 11.2348 17.1073 11.1975 17.0096 11.1975H7.93477C7.82245 11.1975 7.79221 11.2348 7.79221 11.3401V12.675C7.79221 12.8472 7.79221 12.8472 7.97203 12.8472H12.4422V12.8472ZM16.6429 9.63745C16.6559 9.60343 16.6559 9.56617 16.6429 9.53269C16.5668 9.36691 16.4766 9.20869 16.3718 9.06019C16.2141 8.80639 16.0284 8.57256 15.8167 8.3625C15.7168 8.2356 15.6012 8.12166 15.4716 8.025C14.8225 7.47257 14.0509 7.08161 13.2214 6.88505C12.8029 6.79108 12.3752 6.74626 11.9465 6.75004H7.91911C7.80679 6.75004 7.79167 6.79486 7.79167 6.89261V9.55483C7.79167 9.66715 7.79167 9.69739 7.93423 9.69739H16.5889C16.5889 9.69739 16.664 9.68227 16.6791 9.63745H16.6424H16.6429ZM16.6429 14.4073C16.5155 14.3933 16.3869 14.3933 16.2595 14.4073H7.94233C7.83001 14.4073 7.79221 14.4073 7.79221 14.5574V17.1603C7.79221 17.2802 7.79221 17.3104 7.94233 17.3104H11.7823C11.9659 17.3244 12.1495 17.3115 12.3293 17.2731C12.8866 17.2332 13.4347 17.1122 13.9575 16.9129C14.1475 16.8471 14.3311 16.7612 14.5045 16.6581H14.5569C15.457 16.1899 16.1882 15.4544 16.6494 14.5515C16.6494 14.5515 16.7018 14.4381 16.6429 14.4084V14.4073ZM6.28506 18.6599V18.615V16.8676V16.2752V14.5126C6.28506 14.4149 6.28506 14.4003 6.16517 14.4003H4.5376C4.44742 14.4003 4.41016 14.4003 4.41016 14.2804V12.8553H6.15005C6.24725 12.8553 6.28506 12.8553 6.28506 12.7279V11.318C6.28506 11.2278 6.28506 11.2056 6.16517 11.2056H4.5376C4.44742 11.2056 4.41016 11.2056 4.41016 11.0857V9.76598C4.41016 9.68335 4.41016 9.66121 4.53004 9.66121H6.14249C6.25481 9.66121 6.28506 9.66121 6.28506 9.51865V5.47617C6.28506 5.35629 6.28506 5.32605 6.43518 5.32605H12.0599C12.4681 5.34225 12.8737 5.38707 13.2749 5.46105C14.1016 5.61387 14.896 5.90926 15.6223 6.331C16.104 6.6145 16.5473 6.95687 16.9421 7.35107C17.2391 7.65941 17.5069 7.99314 17.7445 8.34846C17.9805 8.70864 18.1765 9.09367 18.3304 9.49597C18.3493 9.60073 18.4498 9.67147 18.5545 9.65365H19.897C20.0692 9.65365 20.0692 9.65365 20.0768 9.8189V11.049C20.0768 11.1689 20.032 11.1991 19.9116 11.1991H18.8764C18.7716 11.1991 18.7414 11.1991 18.7489 11.3342C18.79 11.791 18.79 12.2495 18.7489 12.7063C18.7489 12.8337 18.7489 12.8489 18.892 12.8489H20.0763C20.1286 12.9164 20.0763 12.9839 20.0763 13.0519C20.0838 13.1388 20.0838 13.2269 20.0763 13.3138V14.2216C20.0763 14.349 20.039 14.3868 19.9261 14.3868H18.5086C18.4098 14.3679 18.3137 14.4311 18.291 14.5294C17.9535 15.4069 17.4135 16.1937 16.7158 16.8244C16.4609 17.0539 16.1931 17.2699 15.9134 17.4692C15.6131 17.642 15.321 17.8218 15.0132 17.9643C14.4467 18.2192 13.8527 18.4071 13.243 18.5265C12.6641 18.6302 12.0772 18.6771 11.488 18.669H6.2829V18.6615L6.28506 18.6599Z" fill="#FEFEFD"/>
</svg>
