<svg width="32" height="32" viewBox="0 0 32 32" fill="none" xmlns="http://www.w3.org/2000/svg">
<path d="M16 0C24.8374 0 32 7.16407 32 16C32 24.8374 24.8374 32 16 32C7.16407 32 0 24.8366 0 16C0 7.16407 7.16407 0 16 0Z" fill="#F5AC37"/>
<path d="M16.5902 17.1297H22.67C22.7996 17.1297 22.8608 17.1297 22.8701 16.9598C22.9198 16.3413 22.9198 15.7192 22.8701 15.1C22.8701 14.9798 22.8104 14.9301 22.6801 14.9301H10.5803C10.4306 14.9301 10.3903 14.9798 10.3903 15.1202V16.9C10.3903 17.1297 10.3903 17.1297 10.63 17.1297H16.5902V17.1297ZM22.1912 12.85C22.2085 12.8046 22.2085 12.7549 22.1912 12.7103C22.0897 12.4893 21.9694 12.2783 21.8297 12.0803C21.6195 11.7419 21.3718 11.4301 21.0896 11.15C20.9564 10.9808 20.8023 10.8289 20.6295 10.7C19.764 9.96347 18.7351 9.44218 17.6292 9.1801C17.0712 9.05482 16.501 8.99506 15.9293 9.0001H10.5595C10.4097 9.0001 10.3895 9.05986 10.3895 9.19018V12.7398C10.3895 12.8896 10.3895 12.9299 10.5796 12.9299H22.1192C22.1192 12.9299 22.2193 12.9097 22.2394 12.85H22.1905H22.1912ZM22.1912 19.2098C22.0213 19.1911 21.8499 19.1911 21.68 19.2098H10.5904C10.4407 19.2098 10.3903 19.2098 10.3903 19.41V22.8804C10.3903 23.0402 10.3903 23.0806 10.5904 23.0806H15.7104C15.9552 23.0993 16.2 23.082 16.4398 23.0309C17.1828 22.9776 17.9136 22.8163 18.6106 22.5506C18.864 22.4628 19.1088 22.3483 19.34 22.2108H19.4098C20.61 21.5865 21.5849 20.6059 22.1998 19.402C22.1998 19.402 22.2697 19.2508 22.1912 19.2112V19.2098ZM8.38072 24.8799V24.8201V22.4902V21.7003V19.3502C8.38072 19.2199 8.38072 19.2004 8.22088 19.2004H6.05078C5.93054 19.2004 5.88086 19.2004 5.88086 19.0406V17.1405H8.20072C8.33032 17.1405 8.38072 17.1405 8.38072 16.9706V15.0906C8.38072 14.9704 8.38072 14.9409 8.22088 14.9409H6.05078C5.93054 14.9409 5.88086 14.9409 5.88086 14.781V13.0213C5.88086 12.9112 5.88086 12.8817 6.0407 12.8817H8.19064C8.3404 12.8817 8.38072 12.8817 8.38072 12.6916V7.3016C8.38072 7.14176 8.38072 7.10144 8.58089 7.10144H16.0805C16.6248 7.12304 17.1655 7.1828 17.7005 7.28144C18.8028 7.4852 19.862 7.87905 20.8304 8.44137C21.4726 8.81938 22.0637 9.27586 22.5901 9.80147C22.9861 10.2126 23.3432 10.6576 23.66 11.1313C23.9746 11.6116 24.236 12.1249 24.4412 12.6613C24.4664 12.801 24.6003 12.8953 24.74 12.8716H26.5299C26.7596 12.8716 26.7596 12.8716 26.7697 13.0919V14.7321C26.7697 14.8919 26.7099 14.9322 26.5494 14.9322H25.1691C25.0295 14.9322 24.9891 14.9322 24.9992 15.1122C25.0539 15.7214 25.0539 16.3327 24.9992 16.9418C24.9992 17.1117 24.9992 17.1319 25.19 17.1319H26.769C26.8388 17.2219 26.769 17.3119 26.769 17.4026C26.7791 17.5185 26.7791 17.6359 26.769 17.7518V18.9621C26.769 19.132 26.7193 19.1824 26.5688 19.1824H24.6788C24.547 19.1572 24.4189 19.2415 24.3886 19.3725C23.9386 20.5425 23.2186 21.5916 22.2884 22.4326C21.9485 22.7386 21.5914 23.0266 21.2185 23.2922C20.8181 23.5226 20.4286 23.7624 20.0182 23.9525C19.2629 24.2923 18.4709 24.5429 17.658 24.702C16.8862 24.8403 16.1035 24.9029 15.318 24.8921H8.37784V24.882L8.38072 24.8799Z" fill="#FEFEFD"/>
</svg>
