<svg width="40" height="40" viewBox="0 0 40 40" fill="none" xmlns="http://www.w3.org/2000/svg">
<path d="M20 0C31.0467 0 40 8.95509 40 20C40 31.0467 31.0467 40 20 40C8.95509 40 0 31.0458 0 20C0 8.95509 8.95509 0 20 0Z" fill="#F5AC37"/>
<path d="M20.7373 21.4122H28.337C28.499 21.4122 28.5755 21.4122 28.5872 21.1998C28.6493 20.4266 28.6493 19.649 28.5872 18.875C28.5872 18.7247 28.5125 18.6626 28.3496 18.6626H13.2249C13.0377 18.6626 12.9873 18.7247 12.9873 18.9002V21.1251C12.9873 21.4122 12.9873 21.4122 13.287 21.4122H20.7373V21.4122ZM27.7385 16.0625C27.7601 16.0058 27.7601 15.9437 27.7385 15.8879C27.6116 15.6116 27.4613 15.3479 27.2867 15.1004C27.0239 14.6774 26.7143 14.2877 26.3615 13.9376C26.195 13.7261 26.0024 13.5362 25.7864 13.3751C24.7046 12.4544 23.4184 11.8028 22.036 11.4752C21.3385 11.3186 20.6257 11.2439 19.9111 11.2502H13.1988C13.0116 11.2502 12.9864 11.3249 12.9864 11.4878V15.9248C12.9864 16.112 12.9864 16.1624 13.224 16.1624H27.6485C27.6485 16.1624 27.7736 16.1372 27.7988 16.0625H27.7376H27.7385ZM27.7385 24.0123C27.5261 23.9889 27.3119 23.9889 27.0995 24.0123H13.2375C13.0503 24.0123 12.9873 24.0123 12.9873 24.2625V28.6005C12.9873 28.8003 12.9873 28.8507 13.2375 28.8507H19.6375C19.9435 28.8741 20.2495 28.8525 20.5492 28.7886C21.478 28.722 22.3915 28.5204 23.2627 28.1883C23.5795 28.0785 23.8856 27.9354 24.1745 27.7635H24.2618C25.7621 26.9832 26.9807 25.7574 27.7493 24.2526C27.7493 24.2526 27.8366 24.0636 27.7385 24.0141V24.0123ZM10.4754 31.0999V31.0252V28.1127V27.1254V24.1878C10.4754 24.0249 10.4754 24.0006 10.2756 24.0006H7.56299C7.41269 24.0006 7.35059 24.0006 7.35059 23.8008V21.4257H10.2504C10.4124 21.4257 10.4754 21.4257 10.4754 21.2133V18.8633C10.4754 18.713 10.4754 18.6761 10.2756 18.6761H7.56299C7.41269 18.6761 7.35059 18.6761 7.35059 18.4763V16.2767C7.35059 16.139 7.35059 16.1021 7.55039 16.1021H10.2378C10.425 16.1021 10.4754 16.1021 10.4754 15.8645V9.12703C10.4754 8.92723 10.4754 8.87683 10.7256 8.87683H20.1001C20.7805 8.90383 21.4564 8.97853 22.1251 9.10183C23.503 9.35654 24.827 9.84884 26.0375 10.5517C26.8403 11.0243 27.5792 11.5949 28.2371 12.2519C28.7321 12.7658 29.1785 13.322 29.5745 13.9142C29.9678 14.5145 30.2945 15.1562 30.551 15.8267C30.5825 16.0013 30.7499 16.1192 30.9245 16.0895H33.1619C33.449 16.0895 33.449 16.0895 33.4616 16.3649V18.4151C33.4616 18.6149 33.3869 18.6653 33.1862 18.6653H31.4609C31.2863 18.6653 31.2359 18.6653 31.2485 18.8903C31.3169 19.6517 31.3169 20.4158 31.2485 21.1773C31.2485 21.3897 31.2485 21.4149 31.487 21.4149H33.4607C33.548 21.5274 33.4607 21.6399 33.4607 21.7533C33.4733 21.8982 33.4733 22.0449 33.4607 22.1898V23.7027C33.4607 23.9151 33.3986 23.9781 33.2105 23.9781H30.848C30.6833 23.9466 30.5231 24.0519 30.4853 24.2157C29.9228 25.6782 29.0228 26.9895 27.86 28.0407C27.4352 28.4232 26.9888 28.7832 26.5226 29.1153C26.0222 29.4033 25.5353 29.703 25.0223 29.9406C24.0782 30.3654 23.0881 30.6786 22.072 30.8775C21.1072 31.0504 20.1289 31.1287 19.147 31.1152H10.4718V31.1026L10.4754 31.0999Z" fill="#FEFEFD"/>
</svg>
