<svg width="64" height="64" viewBox="0 0 64 64" fill="none" xmlns="http://www.w3.org/2000/svg">
<path d="M32 0C49.6747 0 64 14.3281 64 32C64 49.6747 49.6747 64 32 64C14.3281 64 0 49.6733 0 32C0 14.3281 14.3281 0 32 0Z" fill="#F5AC37"/>
<path d="M33.1795 34.2594H45.339C45.5982 34.2594 45.7206 34.2594 45.7393 33.9196C45.8387 32.6826 45.8387 31.4384 45.7393 30.2C45.7393 29.9595 45.6198 29.8602 45.3592 29.8602H21.1597C20.8602 29.8602 20.7796 29.9595 20.7796 30.2403V33.8C20.7796 34.2594 20.7796 34.2594 21.2591 34.2594H33.1795V34.2594ZM44.3814 25.7C44.416 25.6092 44.416 25.5099 44.3814 25.4206C44.1783 24.9785 43.9379 24.5566 43.6585 24.1606C43.238 23.4838 42.7427 22.8602 42.1782 22.3001C41.9118 21.9617 41.6036 21.6578 41.258 21.4001C39.5271 19.9269 37.4693 18.8844 35.2575 18.3602C34.1414 18.1096 33.001 17.9901 31.8576 18.0002H21.118C20.8184 18.0002 20.7781 18.1197 20.7781 18.3804V25.4796C20.7781 25.7792 20.7781 25.8598 21.1583 25.8598H44.2374C44.2374 25.8598 44.4375 25.8195 44.4779 25.7H44.3799H44.3814ZM44.3814 38.4196C44.0415 38.3822 43.6988 38.3822 43.359 38.4196H21.1799C20.8804 38.4196 20.7796 38.4196 20.7796 38.8199V45.7608C20.7796 46.0805 20.7796 46.1611 21.1799 46.1611H31.4198C31.9094 46.1986 32.399 46.164 32.8786 46.0618C34.3646 45.9552 35.8263 45.6326 37.2202 45.1013C37.7271 44.9256 38.2167 44.6966 38.6789 44.4216H38.8186C41.2191 43.1731 43.1689 41.2118 44.3987 38.8041C44.3987 38.8041 44.5384 38.5017 44.3814 38.4225V38.4196ZM16.7605 49.7597V49.6402V44.9803V43.4006V38.7004C16.7605 38.4398 16.7605 38.4009 16.4408 38.4009H12.1006C11.8601 38.4009 11.7607 38.4009 11.7607 38.0812V34.281H16.4005C16.6597 34.281 16.7605 34.281 16.7605 33.9412V30.1813C16.7605 29.9408 16.7605 29.8818 16.4408 29.8818H12.1006C11.8601 29.8818 11.7607 29.8818 11.7607 29.5621V26.0427C11.7607 25.8224 11.7607 25.7633 12.0804 25.7633H16.3803C16.6798 25.7633 16.7605 25.7633 16.7605 25.3832V14.6032C16.7605 14.2835 16.7605 14.2029 17.1608 14.2029H32.16C33.2486 14.2461 34.3301 14.3656 35.4 14.5629C37.6047 14.9704 39.7229 15.7581 41.6598 16.8827C42.9443 17.6388 44.1265 18.5517 45.1792 19.6029C45.9712 20.4252 46.6854 21.3151 47.319 22.2626C47.9483 23.2231 48.471 24.2499 48.8814 25.3227C48.9318 25.602 49.1997 25.7907 49.479 25.7432H53.0589C53.5183 25.7432 53.5183 25.7432 53.5384 26.1838V29.4642C53.5384 29.7838 53.4189 29.8645 53.0978 29.8645H50.3373C50.0579 29.8645 49.9773 29.8645 49.9974 30.2245C50.1069 31.4427 50.1069 32.6653 49.9974 33.8836C49.9974 34.2234 49.9974 34.2637 50.379 34.2637H53.537C53.6767 34.4437 53.537 34.6237 53.537 34.8052C53.5572 35.037 53.5572 35.2717 53.537 35.5036V37.9242C53.537 38.2641 53.4376 38.3649 53.1367 38.3649H49.3566C49.0931 38.3145 48.8368 38.483 48.7763 38.745C47.8763 41.0851 46.4363 43.1832 44.5758 44.8651C43.8961 45.4771 43.1819 46.0531 42.4359 46.5845C41.6353 47.0453 40.8562 47.5248 40.0354 47.905C38.5248 48.5847 36.9408 49.0858 35.3151 49.404C33.7714 49.6805 32.2061 49.8058 30.635 49.7842H16.7547V49.764L16.7605 49.7597Z" fill="#FEFEFD"/>
</svg>
