<svg width="16" height="13" viewBox="0 0 16 13" fill="none" xmlns="http://www.w3.org/2000/svg">
<path d="M12.9284 1.6244C12.0219 1.18103 11.0498 0.854377 10.0335 0.667289C10.015 0.663678 9.9965 0.672701 9.98697 0.690749C9.86195 0.927766 9.72348 1.23697 9.6265 1.48001C8.53336 1.30556 7.44582 1.30556 6.37508 1.48001C6.27809 1.23157 6.13459 0.927766 6.00901 0.690749C5.99948 0.673304 5.98099 0.66428 5.96248 0.667289C4.94669 0.853779 3.97463 1.18043 3.0676 1.6244C3.05974 1.628 3.05301 1.63403 3.04855 1.64184C1.20476 4.57813 0.699664 7.44225 0.947445 10.2709C0.948566 10.2847 0.955854 10.2979 0.965945 10.3063C2.18243 11.2586 3.36079 11.8368 4.51728 12.22C4.53579 12.226 4.5554 12.2188 4.56718 12.2025C4.84075 11.8043 5.08461 11.3844 5.29369 10.9428C5.30603 10.9169 5.29426 10.8863 5.26904 10.876C4.88223 10.7196 4.51392 10.5289 4.15962 10.3124C4.1316 10.2949 4.12936 10.2522 4.15514 10.2317C4.22969 10.1722 4.30427 10.1102 4.37546 10.0477C4.38834 10.0362 4.40629 10.0338 4.42143 10.041C6.74899 11.1738 9.26885 11.1738 11.5689 10.041C11.5841 10.0332 11.602 10.0356 11.6155 10.0471C11.6867 10.1096 11.7612 10.1722 11.8364 10.2317C11.8621 10.2522 11.8605 10.2949 11.8324 10.3124C11.4781 10.5331 11.1098 10.7196 10.7225 10.8754C10.6972 10.8857 10.686 10.9169 10.6984 10.9428C10.9119 11.3838 11.1558 11.8037 11.4243 12.2019C11.4355 12.2188 11.4557 12.226 11.4742 12.22C12.6363 11.8368 13.8147 11.2586 15.0311 10.3063C15.0418 10.2979 15.0485 10.2853 15.0497 10.2715C15.3462 7.00128 14.553 4.16065 12.9469 1.64244C12.9429 1.63403 12.9362 1.628 12.9284 1.6244ZM5.64128 8.54853C4.94052 8.54853 4.36312 7.86275 4.36312 7.02054C4.36312 6.17832 4.92933 5.49254 5.64128 5.49254C6.35882 5.49254 6.93063 6.18434 6.91941 7.02054C6.91941 7.86275 6.35321 8.54853 5.64128 8.54853ZM10.367 8.54853C9.66631 8.54853 9.0889 7.86275 9.0889 7.02054C9.0889 6.17832 9.65509 5.49254 10.367 5.49254C11.0846 5.49254 11.6564 6.18434 11.6452 7.02054C11.6452 7.86275 11.0846 8.54853 10.367 8.54853Z" fill="#7700D4"/>
</svg>
