<svg width="8" height="14" viewBox="0 0 8 14" fill="none" xmlns="http://www.w3.org/2000/svg">
    <path d="M7.99935 1.3335C7.99935 0.781212 7.55163 0.333496 6.99935 0.333496H5.99935C5.11529 0.333496 4.26745 0.684686 3.64233 1.30981C3.01721 1.93493 2.66602 2.78277 2.66602 3.66683V5.66683H1.66602C1.11373 5.66683 0.666016 6.11454 0.666016 6.66683V7.3335C0.666016 7.88578 1.11373 8.3335 1.66602 8.3335H2.66602V12.6668C2.66602 13.2191 3.11373 13.6668 3.66602 13.6668H4.33268C4.88497 13.6668 5.33268 13.2191 5.33268 12.6668V8.3335H6.55191C7.01077 8.3335 7.41076 8.0212 7.52205 7.57603L7.68871 6.90937C7.8465 6.27822 7.36914 5.66683 6.71857 5.66683H5.33268V3.66683C5.33268 3.49002 5.40292 3.32045 5.52794 3.19543C5.65297 3.0704 5.82254 3.00016 5.99935 3.00016H6.99935C7.55163 3.00016 7.99935 2.55245 7.99935 2.00016V1.3335Z" fill="#3B5998"/>
</svg>
