<svg width="14" height="13" viewBox="0 0 14 13" fill="none" xmlns="http://www.w3.org/2000/svg">
<path d="M9.66659 4.3335C10.7275 4.3335 11.7449 4.75492 12.495 5.50507C13.2452 6.25522 13.6666 7.27263 13.6666 8.3335V12.1113C13.6666 12.6022 13.2686 13.0002 12.7777 13.0002H11.8888C11.3979 13.0002 10.9999 12.6022 10.9999 12.1113V8.3335C10.9999 7.97987 10.8594 7.64074 10.6094 7.39069C10.3593 7.14064 10.0202 7.00016 9.66659 7.00016C9.31296 7.00016 8.97383 7.14064 8.72378 7.39069C8.47373 7.64074 8.33325 7.97987 8.33325 8.3335V12.1113C8.33325 12.6022 7.93528 13.0002 7.44436 13.0002H6.55547C6.06455 13.0002 5.66659 12.6022 5.66659 12.1113V8.3335C5.66659 7.27263 6.08801 6.25522 6.83816 5.50507C7.5883 4.75492 8.60572 4.3335 9.66659 4.3335Z" fill="#0077B5"/>
<path d="M2.11103 5.00016H1.22214C0.731221 5.00016 0.333252 5.39813 0.333252 5.88905V12.1113C0.333252 12.6022 0.731221 13.0002 1.22214 13.0002H2.11103C2.60195 13.0002 2.99992 12.6022 2.99992 12.1113V5.88905C2.99992 5.39813 2.60195 5.00016 2.11103 5.00016Z" fill="#0077B5"/>
<path d="M1.66659 3.00016C2.40297 3.00016 2.99992 2.40321 2.99992 1.66683C2.99992 0.93045 2.40297 0.333496 1.66659 0.333496C0.930206 0.333496 0.333252 0.93045 0.333252 1.66683C0.333252 2.40321 0.930206 3.00016 1.66659 3.00016Z" fill="#0077B5"/>
</svg>
