<svg width="16" height="14" viewBox="0 0 16 14" fill="none" xmlns="http://www.w3.org/2000/svg">
<path d="M15.5469 3.29321C15.5943 3.25378 15.6299 3.20196 15.6496 3.14352C15.6693 3.08508 15.6725 3.0223 15.6586 2.96219C15.6448 2.90207 15.6146 2.84697 15.5713 2.80301C15.528 2.75905 15.4734 2.72797 15.4135 2.71321L14.8869 2.57988C14.839 2.56789 14.7943 2.54541 14.7562 2.51407C14.7181 2.48273 14.6874 2.44332 14.6663 2.39866C14.6453 2.35401 14.6344 2.30524 14.6345 2.25587C14.6346 2.20651 14.6456 2.15778 14.6669 2.11321L14.9602 1.51988C14.9879 1.46238 14.9985 1.39814 14.9908 1.33479C14.9831 1.27143 14.9573 1.21163 14.9166 1.16248C14.8759 1.11334 14.8219 1.07691 14.7611 1.05754C14.7003 1.03817 14.6352 1.03667 14.5735 1.05321L13.2402 1.42654C13.1905 1.44103 13.1381 1.44376 13.0872 1.4345C13.0363 1.42524 12.9883 1.40426 12.9469 1.37321C12.3699 0.940469 11.6681 0.706543 10.9469 0.706543C10.0628 0.706543 9.21496 1.05773 8.58984 1.68285C7.96471 2.30798 7.61352 3.15582 7.61352 4.03988V4.27988C7.61382 4.32082 7.59903 4.36045 7.57198 4.39119C7.54493 4.42193 7.50751 4.44163 7.46686 4.44654C5.59352 4.66654 3.80019 3.71321 1.86686 1.48654C1.82486 1.44022 1.7709 1.40638 1.71092 1.38874C1.65093 1.3711 1.58724 1.37034 1.52686 1.38654C1.47245 1.41155 1.42579 1.45075 1.39177 1.50002C1.35775 1.54929 1.33763 1.60681 1.33352 1.66654C1.0665 2.76344 1.17446 3.91816 1.64019 4.94654C1.65397 4.97382 1.65999 5.00436 1.65758 5.03482C1.65517 5.06529 1.64444 5.09451 1.62654 5.11928C1.60865 5.14405 1.58429 5.16343 1.55613 5.1753C1.52797 5.18716 1.49708 5.19105 1.46686 5.18654L0.72019 5.03988C0.667165 5.03135 0.612864 5.03577 0.561912 5.05274C0.510959 5.06972 0.464863 5.09875 0.427547 5.13738C0.390231 5.176 0.362801 5.22307 0.347591 5.27458C0.332381 5.32609 0.329842 5.38051 0.34019 5.43321C0.397749 5.94484 0.569639 6.43698 0.843136 6.87319C1.11663 7.3094 1.48473 7.67851 1.92019 7.95321C1.94837 7.96686 1.97213 7.98817 1.98876 8.0147C2.00539 8.04123 2.01421 8.0719 2.01421 8.10321C2.01421 8.13452 2.00539 8.1652 1.98876 8.19172C1.97213 8.21825 1.94837 8.23956 1.92019 8.25321L1.56686 8.39321C1.52395 8.41041 1.48508 8.43635 1.45274 8.46938C1.42039 8.50241 1.39527 8.54181 1.37897 8.58507C1.36267 8.62833 1.35555 8.67451 1.35805 8.72067C1.36056 8.76683 1.37264 8.81197 1.39352 8.85321C1.58892 9.28076 1.88509 9.65454 2.25666 9.9425C2.62822 10.2305 3.06408 10.424 3.52686 10.5065C3.55903 10.5182 3.58683 10.5395 3.60648 10.5676C3.62612 10.5956 3.63666 10.629 3.63666 10.6632C3.63666 10.6974 3.62612 10.7308 3.60648 10.7589C3.58683 10.7869 3.55903 10.8082 3.52686 10.8199C2.62043 11.1948 1.6477 11.383 0.666857 11.3732C0.578451 11.3555 0.486643 11.3737 0.411628 11.4237C0.336614 11.4737 0.284538 11.5515 0.266857 11.6399C0.249175 11.7283 0.267338 11.8201 0.317347 11.8951C0.367357 11.9701 0.445118 12.0222 0.533523 12.0399C2.23189 12.8454 4.08098 13.2838 5.96019 13.3265C7.61316 13.3518 9.23671 12.8879 10.6269 11.9932C11.7703 11.2299 12.7072 10.1955 13.3539 8.98232C14.0007 7.7691 14.3372 6.41471 14.3335 5.03988V4.45988C14.3339 4.41147 14.3449 4.36373 14.3656 4.31998C14.3863 4.27623 14.4163 4.23752 14.4535 4.20654L15.5469 3.29321Z" fill="#00ACEE"/>
</svg>
