<svg width="16" height="13" viewBox="0 0 16 13" fill="none" xmlns="http://www.w3.org/2000/svg">
<path d="M15.0264 3.27984C14.9472 2.96344 14.7859 2.67355 14.5588 2.43944C14.3317 2.20533 14.0469 2.03529 13.7331 1.9465C12.5864 1.6665 7.99973 1.6665 7.99973 1.6665C7.99973 1.6665 3.41306 1.6665 2.2664 1.97317C1.95256 2.06196 1.66771 2.232 1.44063 2.46611C1.21354 2.70022 1.05226 2.99011 0.973063 3.3065C0.763206 4.47021 0.660554 5.65071 0.666397 6.83317C0.658916 8.02453 0.761575 9.21404 0.973063 10.3865C1.06037 10.6931 1.22527 10.9719 1.45183 11.1962C1.67838 11.4204 1.95894 11.5824 2.2664 11.6665C3.41306 11.9732 7.99973 11.9732 7.99973 11.9732C7.99973 11.9732 12.5864 11.9732 13.7331 11.6665C14.0469 11.5777 14.3317 11.4077 14.5588 11.1736C14.7859 10.9395 14.9472 10.6496 15.0264 10.3332C15.2346 9.17823 15.3373 8.00673 15.3331 6.83317C15.3405 5.64181 15.2379 4.4523 15.0264 3.27984Z" stroke="#F6003B" stroke-width="1.5" stroke-linecap="round" stroke-linejoin="round"/>
<path d="M6.49973 9.01317L10.3331 6.83317L6.49973 4.65317V9.01317Z" stroke="#F6003B" stroke-width="1.5" stroke-linecap="round" stroke-linejoin="round"/>
</svg>
